<svg width="48" height="48" viewBox="0 0 48 48" fill="none" xmlns="http://www.w3.org/2000/svg">
<path fill-rule="evenodd" clip-rule="evenodd" d="M10 8.25C6.82436 8.25 4.25 10.8244 4.25 14V34C4.25 37.1756 6.82436 39.75 10 39.75H24V36.25H10C8.75736 36.25 7.75 35.2426 7.75 34V14C7.75 12.7574 8.75736 11.75 10 11.75H15.5678C16.0887 11.75 16.5934 11.9307 16.9959 12.2614L21.7825 16.1932C22.8111 17.0381 24.1011 17.5 25.4322 17.5H38C39.2426 17.5 40.25 18.5074 40.25 19.75V22H43.75V19.75C43.75 16.5744 41.1756 14 38 14H25.4322C24.9113 14 24.4066 13.8193 24.0041 13.4886L19.2175 9.55682C18.1889 8.71187 16.8989 8.25 15.5678 8.25H10Z" fill="#3D4653"/>
<path fill-rule="evenodd" clip-rule="evenodd" d="M14.1274 21.75C12.5095 21.75 11.0508 22.7247 10.4317 24.2195L6.29033 34.2194C5.1996 36.8531 7.13532 39.75 9.98594 39.75H36.4629C37.8116 39.75 39.0395 39.0743 39.7704 38H27C25.3431 38 24 36.6569 24 35V29C24 27.3431 25.3431 26 27 26H43.5634C43.709 23.7652 41.9367 21.75 39.569 21.75L21.7045 21.7501H15.1817L14.1274 21.75Z" fill="#3D4653"/>
<path d="M46.5581 28H27.442C26.6456 28 26 28.7881 26 29.7602V34.2398C26 35.2119 26.6456 36 27.442 36H46.5581C47.3544 36 48 35.2119 48 34.2398V29.7602C48 28.7881 47.3544 28 46.5581 28Z" fill="#5B6071"/>
</svg>
