<svg width="48" height="48" viewBox="0 0 48 48" fill="none" xmlns="http://www.w3.org/2000/svg">
<path fill-rule="evenodd" clip-rule="evenodd" d="M10 8.25003C6.82436 8.25003 4.25 10.8244 4.25 14V34C4.25 37.1757 6.82436 39.75 10 39.75H18V36.25H10C8.75736 36.25 7.75 35.2427 7.75 34V14C7.75 12.7574 8.75736 11.75 10 11.75H15.5678C16.0887 11.75 16.5934 11.9308 16.9959 12.2614L21.7825 16.1932C22.8111 17.0382 24.1011 17.5 25.4322 17.5H38C39.2426 17.5 40.25 18.5074 40.25 19.75V20H43.75V19.75C43.75 16.5744 41.1756 14 38 14H25.4322C24.9113 14 24.4066 13.8193 24.0041 13.4887L19.2175 9.55685C18.1889 8.7119 16.8989 8.25003 15.5678 8.25003H10Z" fill="#3D4653"/>
<path fill-rule="evenodd" clip-rule="evenodd" d="M14.1274 21.7501C12.5095 21.7501 11.0508 22.7248 10.4317 24.2196L6.29033 34.2195C5.1996 36.8532 7.13532 39.75 9.98594 39.75H21.7992C20.7401 39.2869 20 38.2299 20 37V25C20 23.3431 21.3431 22 23 22H40.9695C40.5371 21.8389 40.0661 21.7501 39.569 21.7501L21.7045 21.7502H15.1817L14.1274 21.7501Z" fill="#3D4653"/>
<path fill-rule="evenodd" clip-rule="evenodd" d="M22 38V24.0141L25.1462 24C30.2966 24 32.7437 24.8502 32.8333 28.2639C32.6686 31.7649 30.3698 32.7576 25.1279 32.5306V38H22ZM25.1096 30.6031L25.0913 25.8415C28.5249 25.6713 30.2295 26.4746 30.2051 28.2512C30.1807 30.0269 28.4822 30.8108 25.1096 30.6031Z" fill="#5B6071"/>
<path fill-rule="evenodd" clip-rule="evenodd" d="M35 37.9712L35.0333 26.5367L41.5673 31.7456L47.9335 26.3333L48 38L35 37.9712Z" fill="#5B6071"/>
<path fill-rule="evenodd" clip-rule="evenodd" d="M35 24.0505L41.6014 28.6667L48 24L35 24.0505Z" fill="#5B6071"/>
</svg>
