<svg width="48" height="48" viewBox="0 0 48 48" fill="none" xmlns="http://www.w3.org/2000/svg">
<path fill-rule="evenodd" clip-rule="evenodd" d="M10 8.25003C6.82436 8.25003 4.25 10.8244 4.25 14V34C4.25 37.1757 6.82436 39.75 10 39.75H24V36.25H10C8.75736 36.25 7.75 35.2427 7.75 34V14C7.75 12.7574 8.75736 11.75 10 11.75H15.5678C16.0887 11.75 16.5934 11.9308 16.9959 12.2614L21.7825 16.1932C22.8111 17.0382 24.1011 17.5 25.4322 17.5H38C38.9797 17.5 39.8131 18.1261 40.122 19H43.7015C43.334 16.1788 40.9214 14 38 14H25.4322C24.9113 14 24.4066 13.8193 24.0041 13.4887L19.2175 9.55685C18.1889 8.7119 16.8989 8.25003 15.5678 8.25003H10Z" fill="#3D4653"/>
<path fill-rule="evenodd" clip-rule="evenodd" d="M24 21.7501L21.7048 21.7501H15.182L14.1278 21.7501C12.5098 21.75 11.0511 22.7247 10.432 24.2196L6.29063 34.2195C5.19991 36.8532 7.13562 39.75 9.98624 39.75H26.3243L27.1852 32.2H24V25.9137V25.6V21.7501ZM41 32.2V34.6287L41.2282 33.8939L41.1623 32.2H41Z" fill="#3D4653"/>
<path fill-rule="evenodd" clip-rule="evenodd" d="M27.1192 22C31.022 22.5726 34.3676 22.8571 37.156 22.8535C39.8985 22.8499 43.1798 22.5654 47 22V25.1283C43.1798 25.6937 39.8985 25.9782 37.156 25.9818C34.3676 25.9842 31.022 25.6997 27.1192 25.1283V22Z" fill="#5B6071"/>
<path fill-rule="evenodd" clip-rule="evenodd" d="M31.6598 24.5168L30.3217 40L33.2365 39.9854L33.6663 25.4268L31.6598 24.5168ZM42.1263 24.5023L43.4277 39.9709H40.5481L40.1183 25.4122L42.1263 24.5023Z" fill="#5B6071"/>
<path fill-rule="evenodd" clip-rule="evenodd" d="M27 28.455H46.8808V30.2748H27V28.455Z" fill="#5B6071"/>
<path fill-rule="evenodd" clip-rule="evenodd" d="M36.1756 24.5023H37.7049V28.8244H36.1756V24.5023Z" fill="#5B6071"/>
</svg>
