<svg width="48" height="48" viewBox="0 0 48 48" fill="none" xmlns="http://www.w3.org/2000/svg">
<path fill-rule="evenodd" clip-rule="evenodd" d="M10 8.25C6.82436 8.25 4.25 10.8244 4.25 14V34C4.25 37.1756 6.82436 39.75 10 39.75H27V36.25H10C8.75736 36.25 7.75 35.2426 7.75 34V14C7.75 12.7574 8.75736 11.75 10 11.75H15.5678C16.0887 11.75 16.5934 11.9307 16.9959 12.2614L21.7825 16.1932C22.8111 17.0381 24.1011 17.5 25.4322 17.5H38C38.9797 17.5 39.8131 18.1261 40.122 19H43.7015C43.334 16.1787 40.9214 14 38 14H25.4322C24.9113 14 24.4066 13.8193 24.0041 13.4886L19.2175 9.55682C18.1889 8.71187 16.8989 8.25 15.5678 8.25H10Z" fill="#3D4653"/>
<path fill-rule="evenodd" clip-rule="evenodd" d="M36.5849 21.75C36.589 21.7754 36.5936 21.8006 36.5986 21.8259L32.0335 24.3921C31.9168 24.2924 31.7907 24.2037 31.6569 24.1272H31.6533C31.0926 23.8219 30.4309 23.7438 29.8114 23.9098C29.192 24.0757 28.6646 24.4723 28.3435 25.0137C28.0225 25.5552 27.9336 26.1978 28.096 26.8025C28.2585 27.4073 28.6593 27.9254 29.2116 28.2448C29.3496 28.3222 29.491 28.3824 29.636 28.4305V33.5629C29.4945 33.6111 29.3531 33.6678 29.2187 33.7435C28.6593 34.06 28.2512 34.5788 28.0836 35.1869C27.916 35.7949 28.0025 36.4428 28.3241 36.9891C28.9942 38.1243 30.49 38.513 31.6604 37.8628C31.7926 37.7876 31.9169 37.7 32.0317 37.6014L35.3459 39.4612L35.5625 39.75H9.98618C7.13556 39.75 5.19985 36.8532 6.29057 34.2195L10.4319 24.2196C11.051 22.7247 12.5097 21.75 14.1277 21.7501L15.182 21.7501H21.7047L36.5849 21.75Z" fill="#3D4653"/>
<path d="M38.9953 21C38.7011 21.0004 38.4105 21.0653 38.1444 21.1898C37.8784 21.3144 37.6433 21.4956 37.4561 21.7205C37.2688 21.9455 37.134 22.2086 37.0613 22.4911C36.9885 22.7736 36.9796 23.0686 37.0352 23.3549L33.3001 25.4934C33.2047 25.4103 33.1015 25.3364 32.992 25.2727C32.991 25.2727 32.9901 25.2727 32.9891 25.2727C32.5303 25.0183 31.9889 24.9532 31.4821 25.0915C30.9752 25.2298 30.5438 25.5603 30.2811 26.0115C30.0184 26.4627 29.9456 26.9982 30.0786 27.5021C30.2115 28.0061 30.5394 28.4379 30.9913 28.704C31.1042 28.7685 31.2199 28.8187 31.3385 28.8588V33.1358C31.2228 33.1759 31.1071 33.2232 30.9971 33.2863C30.5394 33.55 30.2056 33.9824 30.0684 34.4891C29.9313 34.9958 30.002 35.5357 30.2652 35.9909C30.8134 36.9369 32.0372 37.2608 32.9949 36.7191C33.103 36.6563 33.2047 36.5834 33.2987 36.5012L37.0352 38.6368C36.9813 38.9082 36.9854 39.1878 37.0472 39.4576C37.109 39.7273 37.2271 39.9813 37.3939 40.203C37.5608 40.4248 37.7727 40.6095 38.0159 40.7452C38.2592 40.8809 38.5285 40.9646 38.8064 40.991C39.0843 41.0173 39.3647 40.9857 39.6295 40.8982C39.8943 40.8106 40.1377 40.6691 40.344 40.4827C40.5502 40.2963 40.7148 40.0692 40.8271 39.8159C40.9394 39.5627 40.9969 39.2889 40.996 39.0123C40.996 38.8633 40.9772 38.7199 40.9453 38.5809L44.6457 36.4611C44.8664 36.6606 45.1294 36.8087 45.4153 36.8944C45.7013 36.9802 46.003 37.0014 46.2983 36.9566C46.5936 36.9118 46.8751 36.8021 47.1221 36.6355C47.369 36.4689 47.5752 36.2496 47.7255 35.9938H47.7284V35.9909C47.8597 35.7657 47.9449 35.5171 47.9791 35.2593C48.0134 35.0015 47.996 34.7395 47.928 34.4883C47.8601 34.2372 47.7428 34.0017 47.5829 33.7955C47.4231 33.5892 47.2238 33.4162 46.9964 33.2863C46.8877 33.2256 46.7734 33.1752 46.655 33.1358V28.8559C46.7754 28.8163 46.8916 28.7655 47.0022 28.704C47.9555 28.1565 48.2825 26.941 47.7342 25.9979C47.4689 25.5436 47.0324 25.212 46.5207 25.076C46.009 24.9401 45.4637 25.0108 45.0045 25.2727C45.0035 25.2727 45.0026 25.2727 45.0016 25.2727C44.8916 25.3363 44.7879 25.4103 44.692 25.4934L40.9598 23.3607C41.0156 23.0738 41.0068 22.7784 40.934 22.4953C40.8612 22.2123 40.7262 21.9486 40.5387 21.7233C40.3512 21.4979 40.1157 21.3163 39.8492 21.1915C39.5827 21.0668 39.2916 21.0019 38.9968 21.0014L38.9953 21ZM37.1929 24.7796L32.6578 32.5567V28.8445C33.0918 28.6925 33.478 28.4002 33.724 27.9759C33.9684 27.5545 34.0277 27.0815 33.9467 26.6358L37.1929 24.7796ZM40.8094 24.7854L44.0439 26.6386C43.9629 27.0829 44.0266 27.5559 44.2711 27.9759C44.517 28.4002 44.9018 28.6925 45.3358 28.8445V32.551L40.8094 24.7854ZM38.6308 24.9244C38.8734 24.9718 39.123 24.9718 39.3657 24.9244L44.4852 33.712C44.4024 33.8057 44.3287 33.9069 44.2653 34.0144C44.2036 34.1216 44.1522 34.2344 44.1119 34.3512H33.8816C33.8414 34.2344 33.79 34.1216 33.7283 34.0144C33.7278 34.0134 33.7273 34.0125 33.7269 34.0115C33.664 33.9062 33.5913 33.8069 33.5099 33.7148L38.6308 24.9244ZM34.4718 35.6598H43.6172L40.3233 37.5432C39.96 37.2154 39.4867 37.0331 38.9953 37.0315C38.5021 37.0315 38.0536 37.2178 37.705 37.5131L34.4718 35.6627V35.6598Z" fill="#5B6071"/>
</svg>
