<svg width="48" height="48" viewBox="0 0 48 48" fill="none" xmlns="http://www.w3.org/2000/svg">
<path fill-rule="evenodd" clip-rule="evenodd" d="M10 8.25C6.82436 8.25 4.25 10.8244 4.25 14V34C4.25 37.1756 6.82436 39.75 10 39.75H24V36.25H10C8.75736 36.25 7.75 35.2426 7.75 34V14C7.75 12.7574 8.75736 11.75 10 11.75H15.5678C16.0887 11.75 16.5934 11.9307 16.9959 12.2614L21.7825 16.1932C22.8111 17.0381 24.1011 17.5 25.4322 17.5H38C39.1236 17.5 40.0548 18.3236 40.2229 19.4H43.7395C43.5586 16.3873 41.0581 14 38 14H25.4322C24.9113 14 24.4066 13.8193 24.0041 13.4886L19.2175 9.55682C18.1889 8.71187 16.8989 8.25 15.5678 8.25H10Z" fill="#3D4653"/>
<path fill-rule="evenodd" clip-rule="evenodd" d="M37.5 39.1005C39.5154 39.1005 41.4482 38.2998 42.8733 36.8746C44.2984 35.4494 45.099 33.5164 45.099 31.5008C45.099 29.4852 44.2984 27.5522 42.8733 26.127C41.4482 24.7018 39.5154 23.9011 37.5 23.9011C35.4849 23.9011 33.5523 24.7016 32.1272 26.1264C30.7022 27.5513 29.9014 29.4839 29.901 31.4992C29.9007 32.4973 30.0971 33.4857 30.4789 34.408C30.8607 35.3302 31.4204 36.1682 32.1261 36.874C32.8318 37.5799 33.6695 38.1398 34.5916 38.5218C35.5137 38.9039 36.5019 39.1005 37.5 39.1005ZM37.5 22C40.0196 22 42.4359 23.001 44.2175 24.7827C45.9991 26.5645 47 28.981 47 31.5008C46.9996 34.0203 45.9985 36.4364 44.2169 38.2178C42.4354 39.9992 40.0193 41 37.5 41C34.9811 40.9979 32.566 39.9962 30.7848 38.2149C29.0037 36.4337 28.0021 34.0183 28 31.4992C28.0004 28.9797 29.0015 26.5636 30.783 24.7822C32.5646 23.0008 34.9807 22 37.5 22ZM37.9756 26.7504V31.737L42.25 34.2751L41.5365 35.4419L36.5503 32.4506V26.7504H37.9756Z" fill="#5B6071" stroke="#5B6071" stroke-width="0.271" stroke-linejoin="round"/>
<path fill-rule="evenodd" clip-rule="evenodd" d="M32.4022 21.7501L21.7046 21.7501H15.1819L14.1276 21.7501C12.5096 21.75 11.0509 22.7247 10.4318 24.2196L6.29045 34.2195C5.19972 36.8532 7.13544 39.75 9.98606 39.75H30.224C27.9404 37.7344 26.5001 34.7854 26.5001 31.5C26.5001 27.2646 28.8938 23.5882 32.4022 21.7501Z" fill="#3D4653"/>
</svg>
