<svg width="48" height="48" viewBox="0 0 48 48" fill="none" xmlns="http://www.w3.org/2000/svg">
<path fill-rule="evenodd" clip-rule="evenodd" d="M10 8.25C6.82436 8.25 4.25 10.8244 4.25 14V34C4.25 37.1756 6.82436 39.75 10 39.75H22V36.25H10C8.75736 36.25 7.75 35.2426 7.75 34V14C7.75 12.7574 8.75736 11.75 10 11.75H15.5678C16.0887 11.75 16.5934 11.9307 16.9959 12.2614L21.7825 16.1932C22.8111 17.0381 24.1011 17.5 25.4322 17.5H38C38.5358 17.5 39.0279 17.6873 39.4143 18H43.4788C42.7385 15.6801 40.5654 14 38 14H25.4322C24.9113 14 24.4066 13.8193 24.0041 13.4886L19.2175 9.55682C18.1889 8.71187 16.8989 8.25 15.5678 8.25H10Z" fill="#3D4653"/>
<path fill-rule="evenodd" clip-rule="evenodd" d="M25 21.7501L21.7045 21.7502H15.1817L14.1274 21.7501C12.5095 21.7501 11.0508 22.7248 10.4317 24.2196L6.29033 34.2195C5.1996 36.8532 7.13532 39.75 9.98594 39.75H25V21.7501Z" fill="#3D4653"/>
<path d="M35.8275 35.4137V40H44.5C44.7761 40 45 39.7761 45 39.5V30.8277H35.8275V35.4137ZM26 35.4137V39.5C26 39.7761 26.2239 40 26.5 40H35.1722V30.8277H26V35.4137ZM35.8275 25.586V30.1723H45V21.5C45 21.2239 44.7761 21 44.5 21H35.8275V25.586ZM26 25.586V30.1723H35.1722V21H26.5C26.2239 21 26 21.2239 26 21.5V25.586Z" fill="#5B6071"/>
</svg>
