<svg width="48" height="48" viewBox="0 0 48 48" fill="none" xmlns="http://www.w3.org/2000/svg">
<path fill-rule="evenodd" clip-rule="evenodd" d="M10 8.25C6.82436 8.25 4.25 10.8244 4.25 14V34C4.25 37.1756 6.82436 39.75 10 39.75H24V36.25H10C8.75736 36.25 7.75 35.2426 7.75 34V14C7.75 12.7574 8.75736 11.75 10 11.75H15.5678C16.0887 11.75 16.5934 11.9307 16.9959 12.2614L21.7825 16.1932C22.8111 17.0381 24.1011 17.5 25.4322 17.5H38C38.9797 17.5 39.8131 18.1261 40.122 19H43.7015C43.334 16.1787 40.9214 14 38 14H25.4322C24.9113 14 24.4066 13.8193 24.0041 13.4886L19.2175 9.55682C18.1889 8.71187 16.8989 8.25 15.5678 8.25H10Z" fill="#3D4653"/>
<path fill-rule="evenodd" clip-rule="evenodd" d="M25.7188 21.7501L21.7046 21.7501H15.1819L14.1276 21.7501C12.5096 21.75 11.0509 22.7247 10.4318 24.2196L6.29045 34.2195C5.19972 36.8532 7.13544 39.75 9.98606 39.75H27.3339C25.9143 38.6526 25.0001 36.9331 25.0001 35C25.0001 32.7772 26.2088 30.8367 28.0048 29.8C26.2088 28.7632 25.0001 26.8228 25.0001 24.6C25.0001 23.5685 25.2604 22.5979 25.7188 21.7501ZM33.9954 29.8C33.997 29.8009 33.9985 29.8018 34.0001 29.8027V29.7973C33.9985 29.7982 33.997 29.7991 33.9954 29.8Z" fill="#3D4653"/>
<path d="M30.5653 20.7657C31.573 20.7657 32.5394 21.166 33.252 21.8786C33.9645 22.5911 34.3649 23.5576 34.3649 24.5653V26.4656H38.1655V24.5653C38.1654 24.0662 38.2635 23.572 38.4544 23.1109C38.6453 22.6498 38.9252 22.2308 39.278 21.8779C39.6308 21.525 40.0497 21.245 40.5108 21.054C40.9718 20.863 41.466 20.7646 41.9651 20.7646C42.4641 20.7646 42.9583 20.863 43.4194 21.054C43.8804 21.245 44.2993 21.525 44.6522 21.8779C45.005 22.2308 45.2848 22.6498 45.4757 23.1109C45.6666 23.572 45.7648 24.0662 45.7646 24.5653C45.7646 25.0643 45.6664 25.5583 45.4754 26.0193C45.2845 26.4803 45.0046 26.8992 44.6518 27.252C44.299 27.6048 43.8801 27.8847 43.4191 28.0756C42.9581 28.2666 42.464 28.3649 41.9651 28.3649H40.0648V32.1655H41.9651C42.464 32.1655 42.9581 32.2638 43.4191 32.4547C43.8801 32.6457 44.299 32.9255 44.6518 33.2784C45.0046 33.6312 45.2845 34.0501 45.4754 34.511C45.6664 34.972 45.7646 35.4661 45.7646 35.9651C45.7646 36.464 45.6664 36.9581 45.4754 37.4191C45.2845 37.8801 45.0046 38.299 44.6518 38.6518C44.299 39.0046 43.8801 39.2845 43.4191 39.4754C42.9581 39.6664 42.464 39.7646 41.9651 39.7646C41.4661 39.7646 40.972 39.6664 40.511 39.4754C40.0501 39.2845 39.6312 39.0046 39.2784 38.6518C38.9255 38.299 38.6457 37.8801 38.4547 37.4191C38.2638 36.9581 38.1655 36.464 38.1655 35.9651V34.0648H34.3649V35.9651C34.3649 36.464 34.2666 36.9581 34.0756 37.4191C33.8847 37.8801 33.6048 38.299 33.252 38.6518C32.8992 39.0046 32.4803 39.2845 32.0193 39.4754C31.5583 39.6664 31.0643 39.7646 30.5653 39.7646C30.0662 39.7648 29.572 39.6666 29.1109 39.4757C28.6498 39.2848 28.2308 39.005 27.8779 38.6522C27.525 38.2993 27.245 37.8804 27.054 37.4194C26.863 36.9583 26.7646 36.4641 26.7646 35.9651C26.7646 35.466 26.863 34.9718 27.054 34.5108C27.245 34.0497 27.525 33.6308 27.8779 33.278C28.2308 32.9252 28.6498 32.6453 29.1109 32.4544C29.572 32.2635 30.0662 32.1654 30.5653 32.1655H32.4656V28.3649H30.5653C30.0662 28.365 29.572 28.2668 29.1109 28.0759C28.6498 27.8851 28.2308 27.6052 27.8779 27.2524C27.525 26.8995 27.245 26.4806 27.054 26.0196C26.863 25.5585 26.7646 25.0643 26.7646 24.5653C26.7645 24.0661 26.8627 23.5719 27.0537 23.1107C27.2446 22.6495 27.5246 22.2305 27.8775 21.8775C28.2305 21.5246 28.6495 21.2446 29.1107 21.0537C29.5719 20.8627 30.0661 20.7656 30.5653 20.7657ZM40.0648 35.9651C40.0648 36.4691 40.265 36.9524 40.6213 37.3088C40.9777 37.6652 41.4611 37.8654 41.9651 37.8654C42.4691 37.8654 42.9524 37.6652 43.3088 37.3088C43.6652 36.9524 43.8654 36.4691 43.8654 35.9651C43.8651 35.4613 43.6648 34.9782 43.3084 34.622C42.9521 34.2659 42.4689 34.0658 41.9651 34.0658H40.0648V35.9661M38.1655 28.3659H34.3649V32.1655H38.1655V28.3659ZM30.5653 34.0658C30.0613 34.0658 29.5779 34.266 29.2216 34.6224C28.8652 34.9788 28.665 35.4621 28.665 35.9661C28.6652 36.4699 28.8656 36.953 29.2219 37.3092C29.5783 37.6653 30.0615 37.8654 30.5653 37.8654C31.0691 37.8654 31.5523 37.6653 31.9086 37.3092C32.265 36.953 32.4653 36.4699 32.4656 35.9661V34.0658H30.5653ZM32.4656 24.5653C32.4653 24.0615 32.265 23.5784 31.9086 23.2222C31.5523 22.8661 31.0691 22.666 30.5653 22.666C30.0615 22.666 29.5783 22.8661 29.2219 23.2222C28.8656 23.5784 28.6652 24.0615 28.665 24.5653C28.665 25.0693 28.8652 25.5526 29.2216 25.909C29.5779 26.2654 30.0613 26.4656 30.5653 26.4656H32.4656V24.5653ZM41.9651 26.4656C42.4691 26.4656 42.9524 26.2654 43.3088 25.909C43.6652 25.5526 43.8654 25.0693 43.8654 24.5653C43.8651 24.0615 43.6648 23.5784 43.3084 23.2222C42.9521 22.8661 42.4689 22.666 41.9651 22.666C41.4613 22.666 40.9781 22.8661 40.6217 23.2222C40.2654 23.5784 40.065 24.0615 40.0648 24.5653V26.4656H41.9651Z" fill="#5B6071"/>
</svg>
