<svg width="48" height="48" viewBox="0 0 48 48" fill="none" xmlns="http://www.w3.org/2000/svg">
<g clip-path="url(#clip0_3475_12936)">
<path fill-rule="evenodd" clip-rule="evenodd" d="M10 8.25C6.82436 8.25 4.25 10.8244 4.25 14V34C4.25 37.1756 6.82436 39.75 10 39.75H23V36.25H10C8.75736 36.25 7.75 35.2426 7.75 34V14C7.75 12.7574 8.75736 11.75 10 11.75H15.5678C16.0887 11.75 16.5934 11.9307 16.9959 12.2614L21.7825 16.1932C22.8111 17.0381 24.1011 17.5 25.4322 17.5H38C38.5358 17.5 39.0279 17.6873 39.4143 18H43.4788C42.7385 15.6801 40.5654 14 38 14H25.4322C24.9113 14 24.4066 13.8193 24.0041 13.4886L19.2175 9.55682C18.1889 8.71187 16.8989 8.25 15.5678 8.25H10Z" fill="#3D4653"/>
<path fill-rule="evenodd" clip-rule="evenodd" d="M43.5719 25.7388C43.0011 28.4581 40.589 30.5 37.7 30.5C34.3862 30.5 31.7 27.8137 31.7 24.5C31.7 23.5088 31.9403 22.5738 32.3658 21.75L21.7046 21.7501H15.1819L14.1276 21.7501C12.5096 21.75 11.051 22.7247 10.4319 24.2196L6.29051 34.2195C5.19979 36.8532 7.1355 39.75 9.98612 39.75H27.3647C26.2746 38.6636 25.6 37.1606 25.6 35.5C25.6 32.1863 28.2863 29.5 31.6 29.5C34.9137 29.5 37.6 32.1863 37.6 35.5C37.6 37.1606 36.9254 38.6636 35.8353 39.75H36.4631C37.3592 39.75 38.2019 39.4517 38.881 38.9365C38.1997 37.9631 37.8 36.7782 37.8 35.5C37.8 32.614 39.8375 30.204 42.5526 29.6299L43.3891 26.9365C43.5139 26.5348 43.5723 26.1323 43.5719 25.7388Z" fill="#3D4653"/>
<ellipse cx="37.8894" cy="24.5134" rx="4.02127" ry="4.21337" fill="#5B6071"/>
<ellipse cx="31.7957" cy="35.5567" rx="4.02127" ry="4.21337" fill="#5B6071"/>
<ellipse cx="43.9833" cy="35.5567" rx="4.02127" ry="4.21337" fill="#5B6071"/>
</g>
<defs>
<clipPath id="clip0_3475_12936">
<rect width="48" height="48" fill="white"/>
</clipPath>
</defs>
</svg>
