<svg width="48" height="48" viewBox="0 0 48 48" fill="none" xmlns="http://www.w3.org/2000/svg">
<path fill-rule="evenodd" clip-rule="evenodd" d="M10 8.25C6.82436 8.25 4.25 10.8244 4.25 14V34C4.25 37.1756 6.82436 39.75 10 39.75H26V36.25H10C8.75736 36.25 7.75 35.2426 7.75 34V14C7.75 12.7574 8.75736 11.75 10 11.75H15.5678C16.0887 11.75 16.5934 11.9307 16.9959 12.2614L21.7825 16.1932C22.8111 17.0381 24.1011 17.5 25.4322 17.5H38C39.2426 17.5 40.25 18.5074 40.25 19.75V20H43.75V19.75C43.75 16.5744 41.1756 14 38 14H25.4322C24.9113 14 24.4066 13.8193 24.0041 13.4886L19.2175 9.55682C18.1889 8.71187 16.8989 8.25 15.5678 8.25H10Z" fill="#3D4653"/>
<path fill-rule="evenodd" clip-rule="evenodd" d="M32.4022 21.7501L21.7046 21.7501H15.1819L14.1276 21.7501C12.5096 21.75 11.0509 22.7247 10.4318 24.2196L6.29045 34.2195C5.19972 36.8532 7.13544 39.75 9.98606 39.75H30.224C27.9404 37.7344 26.5001 34.7854 26.5001 31.5C26.5001 27.2646 28.8938 23.5882 32.4022 21.7501Z" fill="#3D4653"/>
<path d="M47 31.5C47 36.7117 42.7114 41 37.5 41C32.2886 41 28 36.7114 28 31.5C28 26.2886 32.2886 22 37.5 22C42.7113 22 47 26.2884 47 31.5Z" fill="#5B6071"/>
<path d="M37.6658 26.6868L40.209 33.5747L36.3677 30.2543L37.6658 26.6868ZM42.1834 35.1615L38.2718 24.8309C38.2267 24.6951 38.144 24.5782 38.0353 24.4965C37.9267 24.4148 37.7975 24.3724 37.6658 24.3752C37.532 24.372 37.4005 24.414 37.2892 24.4955C37.1779 24.577 37.092 24.6941 37.0433 24.8309L32.7501 36.1622H34.2188L35.9181 31.4899L40.9898 35.9867C41.194 36.1679 41.3409 36.2498 41.5324 36.2498L41.5489 36.25C41.9337 36.25 42.2504 35.9024 42.2504 35.48C42.2438 35.3707 42.2211 35.2629 42.1834 35.1615Z" fill="#5B6071"/>
</svg>
