<svg width="48" height="48" viewBox="0 0 48 48" fill="none" xmlns="http://www.w3.org/2000/svg">
<path fill-rule="evenodd" clip-rule="evenodd" d="M10 8.25C6.82439 8.25 4.25003 10.8244 4.25003 14V34C4.25003 37.1756 6.82439 39.75 10 39.75H26V36.25H10C8.75739 36.25 7.75003 35.2426 7.75003 34V14C7.75003 12.7574 8.75739 11.75 10 11.75H15.5678C16.0887 11.75 16.5935 11.9307 16.996 12.2614L21.7825 16.1932C22.8111 17.0381 24.1011 17.5 25.4323 17.5H38C38.9797 17.5 39.8131 18.1261 40.122 19H43.7016C43.334 16.1787 40.9215 14 38 14H25.4323C24.9114 14 24.4066 13.8193 24.0041 13.4886L19.2175 9.55682C18.1889 8.71187 16.899 8.25 15.5678 8.25H10Z" fill="#3D4653"/>
<path fill-rule="evenodd" clip-rule="evenodd" d="M36.3923 21.75C36.2619 21.8212 36.1337 21.8973 36.0081 21.9782L30.9708 25.2448C30.2909 25.6794 29.7076 26.2533 29.258 26.9301C28.8085 27.6069 28.5025 28.3716 28.3598 29.1754C28.1188 30.5319 28.3293 31.9314 28.958 33.1525C28.5274 33.8177 28.2341 34.5648 28.0958 35.3487C27.9517 36.1701 27.9703 37.0125 28.1507 37.8264C28.3017 38.5079 28.5636 39.1579 28.9246 39.7499H9.98618C7.13556 39.7499 5.19985 36.8531 6.29057 34.2194L10.4319 24.2195C11.051 22.7247 12.5097 21.75 14.1277 21.75L15.182 21.7501H21.7047L36.3923 21.75ZM33.0148 26.9753L33 27L31.4278 32.5025C31.1692 32.1128 30.9844 31.677 30.8834 31.2175C30.7759 30.7282 30.7655 30.2219 30.8529 29.7285C30.9381 29.2441 31.1216 28.7832 31.3919 28.3751C31.6621 27.9671 32.0131 27.6209 32.4223 27.3586L33.0148 26.9753ZM31.3896 35.5582L32 38L34.275 39.7499H32.1915C31.8149 39.4779 31.4851 39.1401 31.2189 38.7495C30.9323 38.3417 30.7288 37.8796 30.6203 37.3906C30.5118 36.9015 30.5006 36.3953 30.5872 35.9018C30.6156 35.7409 30.6556 35.5824 30.7069 35.4275L30.8019 35.1321L31.0605 35.329C31.168 35.4089 31.2777 35.4853 31.3896 35.5582Z" fill="#3D4653"/>
<path fill-rule="evenodd" clip-rule="evenodd" d="M41.2314 22.0009C40.0889 22.0167 38.9735 22.3242 38.0081 22.8893L32.9708 25.8589C32.2909 26.254 31.7076 26.7758 31.258 27.391C30.8085 28.0063 30.5025 28.7015 30.3598 29.4322C30.1188 30.6654 30.3293 31.9377 30.958 33.0478C30.5274 33.6525 30.2341 34.3317 30.0959 35.0443C29.9517 35.791 29.9703 36.5568 30.1507 37.2968C30.3311 38.0367 30.6696 38.7358 31.1462 39.3531C33.1555 42.0119 37.1231 42.7994 39.9909 41.1104L45.03 38.1522C45.7089 37.7566 46.2916 37.2348 46.741 36.62C47.1905 36.0052 47.497 35.3107 47.641 34.5806C47.8808 33.3476 47.669 32.0758 47.0393 30.9666C47.4703 30.3613 47.7648 29.6816 47.9049 28.9685C48.0484 28.2216 48.0293 27.4558 47.8486 26.7159C47.668 25.9761 47.3294 25.277 46.8528 24.6597V24.6467C46.2207 23.8146 45.3778 23.1384 44.3979 22.6772C43.4179 22.216 42.3307 21.9838 41.2314 22.0009ZM41.673 24.2822C42.288 24.3084 42.8881 24.4654 43.4267 24.7412C43.9654 25.0169 44.4279 25.4039 44.7784 25.8719C45.0655 26.2428 45.2694 26.6631 45.3782 27.108C45.487 27.5528 45.4984 28.0134 45.4118 28.4624C45.3816 28.6088 45.3417 28.7534 45.2921 28.8952L45.1954 29.1637L44.9385 28.9847C44.3422 28.5799 43.6759 28.2717 42.9679 28.0735L42.7744 28.0231L42.792 27.8441C42.8145 27.598 42.7422 27.3524 42.5879 27.1509C42.4462 26.9668 42.2472 26.8269 42.0175 26.7498C41.7878 26.6728 41.5381 26.6623 41.3017 26.7197C41.1922 26.7465 41.0877 26.7888 40.9921 26.845L35.953 29.8081C35.8295 29.8799 35.7235 29.9747 35.6417 30.0865C35.5599 30.1983 35.5041 30.3245 35.478 30.4573C35.453 30.5929 35.4572 30.7317 35.4904 30.8657C35.5236 30.9998 35.5852 31.1264 35.6715 31.2384C35.8116 31.4242 36.0095 31.5662 36.2389 31.6455C36.4683 31.7249 36.7184 31.7378 36.9559 31.6826C37.0652 31.655 37.1695 31.6128 37.2656 31.5573L39.1974 30.4248C39.5132 30.2373 39.8587 30.0968 40.2214 30.0082C41.014 29.8174 41.8507 29.8564 42.6185 30.1197C43.3863 30.3831 44.0482 30.8582 44.5145 31.4808C44.8014 31.8518 45.0052 32.272 45.114 32.7169C45.2228 33.1618 45.2343 33.6222 45.1479 34.0713C45.0627 34.5116 44.8791 34.9306 44.6089 35.3016C44.3386 35.6725 43.9877 35.9873 43.5784 36.2257L38.5394 39.1936C38.2228 39.3796 37.8776 39.5201 37.5154 39.6102C36.7222 39.8006 35.8849 39.7613 35.1166 39.4977C34.3482 39.234 33.6859 38.7588 33.2189 38.136C32.9323 37.7652 32.7288 37.3451 32.6203 36.9005C32.5118 36.4559 32.5006 35.9958 32.5872 35.5471C32.6156 35.4009 32.6556 35.2568 32.7069 35.1159L32.8019 34.8474L33.0605 35.0264C33.6556 35.4285 34.3201 35.7344 35.0258 35.9311L35.2193 35.9816L35.2017 36.1606C35.1832 36.4057 35.2579 36.6492 35.4129 36.8489C35.5538 37.0359 35.7532 37.1786 35.9844 37.2578C36.2156 37.3369 36.4674 37.3486 36.7061 37.2915C36.8149 37.2641 36.9187 37.2219 37.014 37.1662L42.046 34.1982C42.1693 34.1261 42.2749 34.0309 42.3561 33.9188C42.4373 33.8068 42.4923 33.6802 42.5175 33.5473C42.5433 33.4118 42.5395 33.2728 42.5062 33.1387C42.473 33.0045 42.411 32.8779 42.324 32.7663C42.1831 32.5792 41.9836 32.4365 41.7524 32.3574C41.5212 32.2783 41.2694 32.2665 41.0308 32.3237C40.9212 32.3505 40.8168 32.3928 40.7211 32.449L38.7892 33.5831C38.4738 33.7684 38.1297 33.9083 37.7688 33.9981C36.9767 34.1874 36.141 34.1478 35.3741 33.8845C34.6071 33.6212 33.9459 33.1469 33.4793 32.5255C33.1936 32.154 32.991 31.7335 32.8834 31.2887C32.7759 30.8438 32.7655 30.3836 32.8529 29.935C32.9381 29.4947 33.1216 29.0757 33.3919 28.7047C33.6621 28.3337 34.0131 28.019 34.4223 27.7806L39.4684 24.8126C39.7822 24.6276 40.1244 24.4877 40.4836 24.3977C40.8716 24.3049 41.2726 24.2648 41.673 24.2822Z" fill="#5B6071"/>
</svg>
