<svg width="48" height="48" viewBox="0 0 48 48" fill="none" xmlns="http://www.w3.org/2000/svg">
<path fill-rule="evenodd" clip-rule="evenodd" d="M10 8.25C6.82439 8.25 4.25003 10.8244 4.25003 14V34C4.25003 37.1756 6.82439 39.75 10 39.75H26V36.25H10C8.75739 36.25 7.75003 35.2426 7.75003 34V14C7.75003 12.7574 8.75739 11.75 10 11.75H15.5678C16.0887 11.75 16.5935 11.9307 16.996 12.2614L21.7825 16.1932C22.8111 17.0381 24.1011 17.5 25.4323 17.5H38C39.2427 17.5 40.25 18.5074 40.25 19.75V20H43.75V19.75C43.75 16.5744 41.1757 14 38 14H25.4323C24.9114 14 24.4066 13.8193 24.0041 13.4886L19.2175 9.55682C18.1889 8.71187 16.899 8.25 15.5678 8.25H10Z" fill="#3D4653"/>
<path fill-rule="evenodd" clip-rule="evenodd" d="M22 33L32 38L38.4138 34.5V39.2421C37.8312 39.5677 37.1634 39.75 36.463 39.75H9.986C7.13538 39.75 5.19966 36.8532 6.29039 34.2195L10.4318 24.2196C11.0508 22.7247 12.5095 21.75 14.1275 21.7501L15.1818 21.7501H21.7045L22 21.7501V33ZM23.5893 21.7501L39.569 21.75C40.9292 21.75 42.0928 22.415 42.8093 23.4047L40 22L32 25.7196L23.5893 21.7501Z" fill="#3D4653"/>
<path fill-rule="evenodd" clip-rule="evenodd" d="M32 27.771V35.467L24 31.696V24L32 27.771ZM40.08 31.696V24L47.9999 27.771L40.08 31.696Z" fill="#5B6071"/>
<path fill-rule="evenodd" clip-rule="evenodd" d="M32 27.771V35.467L40.08 31.696V24L32 27.771ZM40.08 31.696L40.0801 39.392L48 35.467L47.9999 27.771L40.08 31.696Z" fill="#5B6071"/>
</svg>
