<svg width="48" height="48" viewBox="0 0 48 48" fill="none" xmlns="http://www.w3.org/2000/svg">
<path fill-rule="evenodd" clip-rule="evenodd" d="M10 8.25003C6.82436 8.25003 4.25 10.8244 4.25 14V34C4.25 37.1757 6.82436 39.75 10 39.75H26V36.25H10C8.75736 36.25 7.75 35.2427 7.75 34V14C7.75 12.7574 8.75736 11.75 10 11.75H15.5678C16.0887 11.75 16.5934 11.9308 16.9959 12.2614L21.7825 16.1932C22.8111 17.0382 24.1011 17.5 25.4322 17.5H38C39.2426 17.5 40.25 18.5074 40.25 19.75V20H43.75V19.75C43.75 16.5744 41.1756 14 38 14H25.4322C24.9113 14 24.4066 13.8193 24.0041 13.4887L19.2175 9.55685C18.1889 8.7119 16.8989 8.25003 15.5678 8.25003H10Z" fill="#3D4653"/>
<path fill-rule="evenodd" clip-rule="evenodd" d="M32.4022 21.7501L21.7046 21.7501H15.1819L14.1276 21.7501C12.5096 21.75 11.0509 22.7247 10.4318 24.2196L6.29045 34.2195C5.19972 36.8532 7.13544 39.75 9.98606 39.75H30.224C27.9403 37.7344 26.5 34.7854 26.5 31.5C26.5 27.2646 28.8937 23.5882 32.4022 21.7501Z" fill="#3D4653"/>
<path fill-rule="evenodd" clip-rule="evenodd" d="M37.5 22C40.0196 22 42.4359 23.0008 44.2175 24.7823C45.9991 26.5637 47 28.9799 47 31.4992C47.0002 32.7468 46.7546 33.9822 46.2773 35.1349C45.8 36.2876 45.1002 37.3349 44.2181 38.2172C43.3359 39.0994 42.2885 39.7993 41.1358 40.2768C39.9832 40.7542 38.7477 41 37.5 41C36.2523 41 35.0168 40.7542 33.8642 40.2768C32.7115 39.7993 31.6641 39.0994 30.7819 38.2172C29.8998 37.3349 29.2 36.2876 28.7227 35.1349C28.2454 33.9822 27.9998 32.7468 28 31.4992C28 28.9799 29.0009 26.5637 30.7825 24.7823C32.5641 23.0008 34.9804 22 37.5 22ZM37.5 30.0742C37.122 30.0742 36.7595 30.2243 36.4923 30.4916C36.225 30.7588 36.0748 31.1213 36.0748 31.4992C36.0748 31.8772 36.225 32.2396 36.4923 32.5069C36.7595 32.7741 37.122 32.9243 37.5 32.9243C37.878 32.9243 38.2405 32.7741 38.5077 32.5069C38.775 32.2396 38.9252 31.8772 38.9252 31.4992C38.9247 31.1216 38.7744 30.7595 38.5072 30.4926C38.24 30.2257 37.8777 30.0757 37.5 30.0757M32.2739 30.0757C31.8962 30.0757 31.534 30.2257 31.2667 30.4926C30.9995 30.7595 30.8492 31.1216 30.8488 31.4992C30.8488 31.8772 30.9989 32.2396 31.2662 32.5069C31.5335 32.7741 31.896 32.9243 32.2739 32.9243C32.4611 32.9243 32.6464 32.8874 32.8193 32.8158C32.9922 32.7442 33.1493 32.6392 33.2817 32.5069C33.414 32.3746 33.519 32.2175 33.5906 32.0446C33.6622 31.8717 33.6991 31.6864 33.6991 31.4992C33.6987 31.1216 33.5483 30.7595 33.2811 30.4926C33.0139 30.2257 32.6516 30.0757 32.2739 30.0757ZM42.7261 30.0757C42.3484 30.0757 41.9861 30.2257 41.7189 30.4926C41.4517 30.7595 41.3013 31.1216 41.3009 31.4992C41.3009 31.8772 41.4511 32.2396 41.7183 32.5069C41.9856 32.7741 42.3481 32.9243 42.7261 32.9243C43.104 32.9243 43.4665 32.7741 43.7338 32.5069C44.0011 32.2396 44.1512 31.8772 44.1512 31.4992C44.1508 31.1216 44.0005 30.7595 43.7333 30.4926C43.466 30.2257 43.1038 30.0757 42.7261 30.0757Z" fill="#5B6071"/>
</svg>
