<svg width="48" height="48" viewBox="0 0 48 48" fill="none" xmlns="http://www.w3.org/2000/svg">
<path fill-rule="evenodd" clip-rule="evenodd" d="M10 8.25003C6.82436 8.25003 4.25 10.8244 4.25 14V34C4.25 37.1757 6.82436 39.75 10 39.75H24V36.25H10C8.75736 36.25 7.75 35.2427 7.75 34V14C7.75 12.7574 8.75736 11.75 10 11.75H15.5678C16.0887 11.75 16.5934 11.9308 16.9959 12.2614L21.7825 16.1932C22.8111 17.0382 24.1011 17.5 25.4322 17.5H38C39.2426 17.5 40.25 18.5074 40.25 19.75V20H43.75V19.75C43.75 16.5744 41.1756 14 38 14H25.4322C24.9113 14 24.4066 13.8193 24.0041 13.4887L19.2175 9.55685C18.1889 8.7119 16.8989 8.25003 15.5678 8.25003H10Z" fill="#3D4653"/>
<path fill-rule="evenodd" clip-rule="evenodd" d="M27.2 39.75L26 38.55L37.5 26.1263C36.9681 25.759 36.2132 25.4192 35.3127 25.014C34.5891 24.6884 33.7714 24.3204 32.9 23.8618L33.9765 21.75L21.7047 21.7501H15.182L14.1277 21.7501C12.5097 21.75 11.051 22.7247 10.4319 24.2196L6.29057 34.2195C5.19985 36.8532 7.13556 39.75 9.98618 39.75H27.2ZM40.8122 21.945C40.8374 21.9633 40.8625 21.9816 40.8876 22H40.9699C40.9179 21.9806 40.8653 21.9623 40.8122 21.945Z" fill="#3D4653"/>
<path fill-rule="evenodd" clip-rule="evenodd" d="M39.7449 29.5611L29.2958 40L28 38.7056L38.4389 28.2566L39.7449 29.5611ZM43.8915 26.8869L44.4373 26.3396L43.7062 25.6085L44.2983 25.0163L42.9837 23.7031L42.3915 24.2953L41.6604 23.5641L41.1145 24.11C39.5033 22.793 37.6912 21.743 35.7474 21L34.9786 22.6563C36.5942 23.5065 38.1041 24.544 39.477 25.7475L39.0137 26.2108L41.7907 28.9877L42.254 28.5244C43.4569 29.8974 44.4939 31.4073 45.3437 33.0229L47 32.2555C46.2576 30.3112 45.2081 28.4987 43.8915 26.8869Z" fill="#5B6071"/>
</svg>
