<svg width="48" height="48" viewBox="0 0 48 48" fill="none" xmlns="http://www.w3.org/2000/svg">
<path fill-rule="evenodd" clip-rule="evenodd" d="M10 8.25C6.82436 8.25 4.25 10.8244 4.25 14V34C4.25 37.1756 6.82436 39.75 10 39.75H26V36.25H10C8.75736 36.25 7.75 35.2426 7.75 34V14C7.75 12.7574 8.75736 11.75 10 11.75H15.5678C16.0887 11.75 16.5934 11.9307 16.9959 12.2614L21.7825 16.1932C22.8111 17.0381 24.1011 17.5 25.4322 17.5H38C39.2426 17.5 40.25 18.5074 40.25 19.75V20H43.75V19.75C43.75 16.5744 41.1756 14 38 14H25.4322C24.9113 14 24.4066 13.8193 24.0041 13.4886L19.2175 9.55682C18.1889 8.71187 16.8989 8.25 15.5678 8.25H10Z" fill="#3D4653"/>
<path fill-rule="evenodd" clip-rule="evenodd" d="M32.4022 21.7501L21.7046 21.7501H15.1819L14.1276 21.7501C12.5096 21.75 11.0509 22.7247 10.4318 24.2196L6.29045 34.2195C5.19972 36.8532 7.13544 39.75 9.98606 39.75H30.224C27.9404 37.7344 26.5001 34.7854 26.5001 31.5C26.5001 27.2646 28.8938 23.5882 32.4022 21.7501Z" fill="#3D4653"/>
<path fill-rule="evenodd" clip-rule="evenodd" d="M37.4965 22C35.5071 22.0007 33.5681 22.626 31.9531 23.7876C30.338 24.9492 29.1284 26.5884 28.4947 28.4742C27.8611 30.36 27.8355 32.3971 28.4215 34.2983C29.0074 36.1994 30.1755 37.8686 31.7608 39.0704C33.3461 40.2723 35.2687 40.9461 37.2575 40.9969C39.2462 41.0477 41.2007 40.4729 42.8453 39.3535C44.4899 38.2342 45.7416 36.6267 46.4239 34.758C47.1061 32.8893 47.1845 30.8535 46.648 28.9378H46.645C46.6402 28.9091 46.6328 28.881 46.6229 28.8537C46.6199 28.8433 46.6096 28.8241 46.6096 28.8241C46.5717 28.7424 46.5113 28.6731 46.4354 28.6245C46.3596 28.5758 46.2714 28.5498 46.1813 28.5494C46.0554 28.549 45.9346 28.5986 45.8451 28.6871C45.7557 28.7757 45.7051 28.8961 45.7043 29.022C45.7046 29.0743 45.7136 29.1262 45.7309 29.1756L45.7294 29.1771C45.9405 29.9333 46.0468 30.7149 46.0454 31.5C46.0487 32.6232 45.8291 33.7359 45.3994 34.7736C44.9698 35.8114 44.3386 36.7537 43.5423 37.5459C42.7501 38.3421 41.8079 38.9733 40.7701 39.4029C39.7323 39.8326 38.6197 40.0522 37.4965 40.049C36.373 40.0524 35.2601 39.8329 34.2221 39.4032C33.184 38.9736 32.2415 38.3423 31.4491 37.5459C30.6527 36.7537 30.0213 35.8115 29.5914 34.7738C29.1615 33.736 28.9416 32.6233 28.9446 31.5C28.9446 29.2155 29.835 27.0682 31.4491 25.4527C32.2415 24.6562 33.184 24.0249 34.222 23.5952C35.26 23.1655 36.373 22.9461 37.4965 22.9496C39.5344 22.9496 41.4645 23.6584 43.0048 24.9609C42.9518 25.0964 42.9247 25.2407 42.925 25.3862C42.9252 25.6331 43.004 25.8734 43.1501 26.0724C43.2962 26.2714 43.5018 26.4186 43.7373 26.4927C43.9727 26.5668 44.2257 26.5639 44.4594 26.4845C44.6931 26.405 44.8954 26.2532 45.0369 26.0509C45.1784 25.8487 45.2517 25.6066 45.2462 25.3598C45.2408 25.113 45.1568 24.8744 45.0064 24.6786C44.8561 24.4828 44.6473 24.3401 44.4103 24.2711C44.1733 24.2021 43.9205 24.2104 43.6885 24.2949C41.967 22.8112 39.7691 21.9966 37.4965 22ZM36.2959 26.4288L32.7959 35.5109H34.9904L35.5619 33.9721H38.8684L38.2703 32.2694H36.0921L37.5098 28.3634L40.0276 35.5109H42.2192L38.7192 26.4288H36.2959Z" fill="#5B6071"/>
</svg>
