<svg width="48" height="48" viewBox="0 0 48 48" fill="none" xmlns="http://www.w3.org/2000/svg">
<path fill-rule="evenodd" clip-rule="evenodd" d="M10 8.25C6.82436 8.25 4.25 10.8244 4.25 14V34C4.25 37.1756 6.82436 39.75 10 39.75H20V36.25H10C8.75736 36.25 7.75 35.2426 7.75 34V14C7.75 12.7574 8.75736 11.75 10 11.75H15.5678C16.0887 11.75 16.5934 11.9307 16.9959 12.2614L21.7825 16.1932C22.8111 17.0381 24.1011 17.5 25.4322 17.5H38C39.2426 17.5 40.25 18.5074 40.25 19.75V20H43.75V19.75C43.75 16.5744 41.1756 14 38 14H25.4322C24.9113 14 24.4066 13.8193 24.0041 13.4886L19.2175 9.55682C18.1889 8.71187 16.8989 8.25 15.5678 8.25H10Z" fill="#3D4653"/>
<path fill-rule="evenodd" clip-rule="evenodd" d="M33.994 21.75C33.1058 21.9742 32.2517 22.3468 31.4642 22.8581C30.0963 23.746 28.9816 25.0183 28.2409 26.537C26.5251 26.7388 24.9393 27.6121 23.7876 28.9894C22.6358 30.3668 21.9993 32.1512 22 34.0005C22 35.9895 22.7375 37.897 24.0503 39.3034C24.1964 39.46 24.3483 39.6089 24.5055 39.75H9.986C7.13538 39.75 5.19966 36.8532 6.29039 34.2195L10.4318 24.2196C11.0508 22.7247 12.5095 21.75 14.1275 21.7501L15.1818 21.7501H21.7045L33.994 21.75Z" fill="#3D4653"/>
<path fill-rule="evenodd" clip-rule="evenodd" d="M43.3498 30.03C43.0118 28.3297 42.0945 26.7993 40.7542 25.6997C39.4139 24.6001 37.7337 23.9994 36 24C34.6291 24.0004 33.2846 24.3761 32.1121 25.0865C30.9397 25.7968 29.9842 26.8147 29.3493 28.0296C27.8787 28.191 26.5194 28.8897 25.5322 29.9916C24.545 31.0934 23.9994 32.521 24 34.0004C24 35.5916 24.6321 37.1176 25.7574 38.2428C26.8826 39.3679 28.4087 40 30 40H42.9995C44.3257 40 45.5976 39.4732 46.5354 38.5355C47.4732 37.5978 48 36.3259 48 34.9998C48 32.3609 45.9494 30.2195 43.3498 30.03Z" fill="#5B6071"/>
</svg>
