<svg width="48" height="48" viewBox="0 0 48 48" fill="none" xmlns="http://www.w3.org/2000/svg">
<path fill-rule="evenodd" clip-rule="evenodd" d="M10 8.25003C6.82436 8.25003 4.25 10.8244 4.25 14V34C4.25 37.1757 6.82436 39.75 10 39.75H24V36.25H10C8.75736 36.25 7.75 35.2427 7.75 34V14C7.75 12.7574 8.75736 11.75 10 11.75H15.5678C16.0887 11.75 16.5934 11.9308 16.9959 12.2614L21.7825 16.1932C22.8111 17.0382 24.1011 17.5 25.4322 17.5H38C39.2426 17.5 40.25 18.5074 40.25 19.75V20H43.75V19.75C43.75 16.5744 41.1756 14 38 14H25.4322C24.9113 14 24.4066 13.8193 24.0041 13.4887L19.2175 9.55685C18.1889 8.7119 16.8989 8.25003 15.5678 8.25003H10Z" fill="#3D4653"/>
<path fill-rule="evenodd" clip-rule="evenodd" d="M33.4792 21.7501L21.7047 21.7501H15.182L14.1277 21.7501C12.5097 21.75 11.051 22.7247 10.4319 24.2196L6.29057 34.2195C5.19985 36.8532 7.13556 39.75 9.98618 39.75H30.1761C29.7649 39.1052 29.4396 38.3873 29.2009 37.5975C29.0809 37.1174 28.8889 36.9975 28.3971 37.1774C27.8933 37.3334 27.3655 37.4414 26.8377 37.5495L26.8377 37.5495C25.9981 37.7413 25.4223 37.1894 25.6503 36.3976C25.7581 36.0377 25.9261 35.6896 26.0941 35.3417C27.2697 32.966 28.8171 30.8065 30.7483 28.9226C31.3601 28.3227 31.7199 27.6509 31.8999 26.8709C32.0217 26.3493 32.1321 25.8201 32.2419 25.2939C32.3266 24.8882 32.4109 24.4844 32.4997 24.0873C32.6195 23.5353 32.7995 22.9956 33.0515 22.4795C33.1815 22.2177 33.3242 21.9747 33.4792 21.7501Z" fill="#3D4653"/>
<path d="M39.9861 28.0316C39.5873 28.2976 38.3243 29.0195 38.1343 29.162C37.7639 29.4564 37.4221 29.4374 37.0517 29.1525C36.8617 29.0005 35.5987 28.2786 35.1999 28.0221C34.744 27.7276 34.7725 27.3572 35.2759 27.1483C36.8332 26.4928 38.3908 26.5403 39.9386 27.1767C40.404 27.3762 40.423 27.7466 39.9861 28.0316ZM46.8424 34.9467C45.9592 32.9615 44.7532 31.1567 43.1959 29.5704C42.6925 29.048 42.3792 28.459 42.1892 27.7847C42.0943 27.4712 42.0278 27.1483 41.9613 26.8252C41.7713 25.9894 41.686 25.1345 41.2966 24.3461C40.6033 22.8454 39.3973 22.0665 37.6499 22C35.9312 22.0475 34.6492 22.7694 33.899 24.2796C33.6995 24.6882 33.557 25.1155 33.4622 25.5524C33.3007 26.2744 33.1582 27.0248 32.9873 27.7561C32.8448 28.3736 32.56 28.9054 32.0756 29.3804C30.5468 30.8718 29.3217 32.5814 28.3911 34.4622C28.2581 34.7376 28.1251 35.0132 28.0397 35.2981C27.8592 35.9249 28.3151 36.3619 28.9797 36.21C29.3976 36.1245 29.8154 36.039 30.2143 35.9154C30.6036 35.773 30.7556 35.8679 30.8506 36.248C31.4678 38.2902 32.8163 39.7244 34.877 40.5223C38.7896 42.0042 43.3574 39.8954 44.3449 36.172C44.4114 35.9154 44.5064 35.8206 44.7912 35.9154C45.2281 36.0485 45.6744 36.1435 46.1208 36.248C46.5861 36.3334 46.9279 36.096 46.9944 35.64C47.0229 35.3931 46.9374 35.1746 46.8424 34.9467Z" fill="#5B6071"/>
</svg>
