<svg width="48" height="48" viewBox="0 0 48 48" fill="none" xmlns="http://www.w3.org/2000/svg">
<path fill-rule="evenodd" clip-rule="evenodd" d="M10 8.25C6.82436 8.25 4.25 10.8244 4.25 14V34C4.25 37.1756 6.82436 39.75 10 39.75H26V36.25H10C8.75736 36.25 7.75 35.2426 7.75 34V14C7.75 12.7574 8.75736 11.75 10 11.75H15.5678C16.0887 11.75 16.5934 11.9307 16.9959 12.2614L21.7825 16.1932C22.8111 17.0381 24.1011 17.5 25.4322 17.5H38C39.2426 17.5 40.25 18.5074 40.25 19.75V20H43.75V19.75C43.75 16.5744 41.1756 14 38 14H25.4322C24.9113 14 24.4066 13.8193 24.0041 13.4886L19.2175 9.55682C18.1889 8.71187 16.8989 8.25 15.5678 8.25H10Z" fill="#3D4653"/>
<path fill-rule="evenodd" clip-rule="evenodd" d="M27.7266 29.414C26.5551 30.5856 26.5551 32.4851 27.7266 33.6566L33.8199 39.75H9.98594C7.13532 39.75 5.1996 36.8531 6.29033 34.2194L10.4317 24.2195C11.0508 22.7247 12.5095 21.75 14.1274 21.75L15.1817 21.7501H21.7045L35.3906 21.75L27.7266 29.414Z" fill="#3D4653"/>
<path d="M28.5633 30.1595L34.0584 24.6549L35.6651 26.2711C35.437 27.0792 35.8077 27.9633 36.5493 28.3912V33.6581C35.9789 33.9814 35.5986 34.5993 35.5986 35.3029C35.5986 36.3458 36.4571 37.2043 37.5 37.2043C38.5429 37.2043 39.4014 36.3458 39.4014 35.3029C39.4014 34.5993 39.0211 33.9814 38.4507 33.6581V29.0377L40.4187 31.0246C40.3521 31.1673 40.3521 31.3289 40.3521 31.5C40.3521 32.5429 41.2106 33.4014 42.2536 33.4014C43.2965 33.4014 44.155 32.5429 44.155 31.5C44.155 30.4571 43.2965 29.5986 42.2536 29.5986C42.0824 29.5986 41.9208 29.5986 41.7782 29.6651L39.3349 27.2218C39.4529 26.7815 39.4072 26.3132 39.2061 25.9041C39.005 25.495 38.6623 25.1727 38.2416 24.9971C37.8327 24.845 37.4049 24.807 37.0246 24.9116L35.4084 23.3049L36.1595 22.5633C36.9011 21.8122 38.0989 21.8122 38.8405 22.5633L46.4367 30.1595C47.1878 30.9011 47.1878 32.0989 46.4367 32.8405L38.8405 40.4367C38.0989 41.1878 36.9011 41.1878 36.1595 40.4367L28.5633 32.8405C27.8122 32.0989 27.8122 30.9011 28.5633 30.1595Z" fill="#5B6071"/>
</svg>
