<svg width="48" height="48" viewBox="0 0 48 48" fill="none" xmlns="http://www.w3.org/2000/svg">
<path fill-rule="evenodd" clip-rule="evenodd" d="M10 8.25C6.82436 8.25 4.25 10.8244 4.25 14V34C4.25 37.1756 6.82436 39.75 10 39.75H24V36.25H10C8.75736 36.25 7.75 35.2426 7.75 34V14C7.75 12.7574 8.75736 11.75 10 11.75H15.5678C16.0887 11.75 16.5934 11.9307 16.9959 12.2614L21.7825 16.1932C22.8111 17.0381 24.1011 17.5 25.4322 17.5H38C39.2426 17.5 40.25 18.5074 40.25 19.75V20.6H43.75V19.75C43.75 16.5744 41.1756 14 38 14H25.4322C24.9113 14 24.4066 13.8193 24.0041 13.4886L19.2175 9.55682C18.1889 8.71187 16.8989 8.25 15.5678 8.25H10Z" fill="#3D4653"/>
<path fill-rule="evenodd" clip-rule="evenodd" d="M32.9996 21.75L21.7045 21.7501H15.1818L14.1275 21.7501C12.5095 21.75 11.0508 22.7247 10.4318 24.2196L6.29039 34.2195C5.19966 36.8532 7.13538 39.75 9.986 39.75H29.1937C27.2196 37.7616 26 35.0233 26 32C26 27.3362 28.9024 23.3503 32.9996 21.75Z" fill="#3D4653"/>
<path d="M37.1667 26.4698C34.0237 26.4698 31.4667 29.0289 31.4667 32.1743C31.4667 35.3198 34.0237 37.8788 37.1667 37.8788C40.3096 37.8788 42.8667 35.3198 42.8667 32.1743C42.8667 29.0289 40.3096 26.4698 37.1667 26.4698ZM37.1667 35.1264C35.5373 35.1264 34.2169 33.805 34.2169 32.1743C34.2169 30.5437 35.5373 29.2222 37.1667 29.2222C38.796 29.2222 40.1164 30.5437 40.1164 32.1743C40.1164 33.805 38.796 35.1264 37.1667 35.1264Z" fill="#5B6071"/>
<path fill-rule="evenodd" clip-rule="evenodd" d="M37.6766 24.9722V22.6654C42.6867 22.9335 46.6667 27.0846 46.6667 32.1654C46.6667 37.2462 42.6867 41.3962 37.6766 41.6654V39.3586C41.4106 39.0917 44.3675 35.9691 44.3675 32.1654C44.3675 28.3617 41.4106 25.2392 37.6766 24.9722ZM31.7146 36.8826C30.7248 35.739 30.0867 34.2824 29.9729 32.6831H27.6667C27.7863 34.9209 28.6807 36.9516 30.0821 38.5152L31.7135 36.8826H31.7146ZM36.642 41.6654V39.3586C35.0428 39.2447 33.5874 38.6073 32.4447 37.6155L30.8133 39.2481C32.3768 40.6518 34.4059 41.5457 36.6408 41.6654H36.642Z" fill="url(#paint0_linear_3475_14112)"/>
<defs>
<linearGradient id="paint0_linear_3475_14112" x1="38.0492" y1="24.0013" x2="28.6976" y2="33.3455" gradientUnits="userSpaceOnUse">
<stop stop-color="#5B6071"/>
<stop offset="1" stop-color="#5B6071"/>
</linearGradient>
</defs>
</svg>
