<svg width="48" height="48" viewBox="0 0 48 48" fill="none" xmlns="http://www.w3.org/2000/svg">
<path fill-rule="evenodd" clip-rule="evenodd" d="M10 8.25C6.82436 8.25 4.25 10.8244 4.25 14V34C4.25 37.1756 6.82436 39.75 10 39.75H24V36.25H10C8.75736 36.25 7.75 35.2426 7.75 34V14C7.75 12.7574 8.75736 11.75 10 11.75H15.5678C16.0887 11.75 16.5934 11.9307 16.9959 12.2614L21.7825 16.1932C22.8111 17.0381 24.1011 17.5 25.4322 17.5H38C39.2426 17.5 40.25 18.5074 40.25 19.75V20H43.75V19.75C43.75 16.5744 41.1756 14 38 14H25.4322C24.9113 14 24.4066 13.8193 24.0041 13.4886L19.2175 9.55682C18.1889 8.71187 16.8989 8.25 15.5678 8.25H10Z" fill="#3D4653"/>
<path fill-rule="evenodd" clip-rule="evenodd" d="M26.1436 39.75C26.0505 39.4147 26.0012 39.0602 26 38.6996V34.3H28.7003V23.3004C28.7003 22.7416 28.8163 22.2134 29.0203 21.7501L21.7045 21.7501H15.1817L14.1274 21.7501C12.5095 21.75 11.0508 22.7247 10.4317 24.2196L6.29033 34.2195C5.1996 36.8532 7.13532 39.75 9.98594 39.75H26.1436ZM32 23.3644C31.8748 23.4189 31.7597 23.507 31.664 23.624C31.4952 23.8304 31.4 24.1099 31.3992 24.4017V34.3H32V23.3644Z" fill="#3D4653"/>
<path d="M39.4 39.0992C40.4417 39.0992 41.3008 38.2417 41.3008 37.2V24.8504H34.6504C34.3984 24.8512 34.1569 24.9516 33.9787 25.1298C33.8005 25.308 33.7 25.5495 33.6992 25.8015V35.3008H30.8504V24.8504C30.8504 23.2863 32.1367 22 33.7008 22H44.1496C45.7137 22 47 23.2863 47 24.8504V25.8015H43.2V38.1511C43.1964 38.9059 42.8949 39.6286 42.3611 40.1622C41.8273 40.6957 41.1043 40.9968 40.3496 41H30.8504C30.0954 40.9968 29.3722 40.6955 28.8384 40.1616C28.3045 39.6278 28.0032 38.9046 28 38.1496V37.2H37.5008C37.5008 38.2417 38.3583 39.0992 39.4 39.0992Z" fill="#5B6071"/>
</svg>
