<svg width="48" height="48" viewBox="0 0 48 48" fill="none" xmlns="http://www.w3.org/2000/svg">
<path fill-rule="evenodd" clip-rule="evenodd" d="M10 8.25C6.82439 8.25 4.25003 10.8244 4.25003 14V34C4.25003 37.1756 6.82439 39.75 10 39.75H20V36.25H10C8.75739 36.25 7.75003 35.2426 7.75003 34V14C7.75003 12.7574 8.75739 11.75 10 11.75H15.5678C16.0887 11.75 16.5935 11.9307 16.996 12.2614L21.7825 16.1932C22.8111 17.0381 24.1011 17.5 25.4323 17.5H38C39.2427 17.5 40.25 18.5074 40.25 19.75V20H43.75V19.75C43.75 16.5744 41.1757 14 38 14H25.4323C24.9114 14 24.4066 13.8193 24.0041 13.4886L19.2175 9.55682C18.1889 8.71187 16.899 8.25 15.5678 8.25H10Z" fill="#3D4653"/>
<path fill-rule="evenodd" clip-rule="evenodd" d="M10.4318 24.2195C11.0508 22.7246 12.5095 21.7499 14.1275 21.75L15.1818 21.75H21.7045L39.569 21.7499C40.8362 21.7499 41.9328 22.3271 42.6562 23.2063L41.3271 26.1708L39.6424 22.3039L30.7407 22.2415C30.0343 22.0805 29.2843 22 28.4907 22C26.8887 22 25.4469 22.3536 24.1653 23.0608C22.8836 23.7623 21.869 24.7832 21.1214 26.1235C20.3738 27.4638 20 29.0893 20 31C20 32.9049 20.3679 34.5275 21.1036 35.8678C21.8453 37.2081 22.854 38.2319 24.1297 38.9391C24.789 39.303 25.494 39.5733 26.2444 39.7499H9.986C7.13538 39.7499 5.19966 36.8531 6.29039 34.2194L10.4318 24.2195ZM30.7781 39.7499H36.463C36.8854 39.7499 37.2959 39.6836 37.683 39.5596H37.3997V33.6358L36.0847 31.4756C36.0723 31.7163 36.0613 32.0112 36.0492 32.3353C35.9981 33.7049 35.9277 35.5951 35.6464 36.1159C35.2488 36.8574 34.7119 37.5218 34.0355 38.1093C33.365 38.691 32.564 39.153 31.6324 39.4952C31.3583 39.5949 31.0735 39.6798 30.7781 39.7499ZM32.0522 34.9606C31.2078 35.6123 30.1492 36 29 36C26.2386 36 24 33.7614 24 31C24 28.2385 26.2386 26 29 26C30.1422 26 31.1949 26.3829 32.0367 27.0274C31.822 26.6687 31.5508 26.3617 31.223 26.1064C30.8789 25.8384 30.4814 25.6331 30.0304 25.4905C29.5854 25.3479 29.1018 25.2766 28.5797 25.2766C27.6363 25.2766 26.8145 25.5019 26.1144 25.9524C25.4142 26.3973 24.8713 27.0475 24.4857 27.903C24.1 28.7528 23.9072 29.7851 23.9072 31C23.9072 32.249 24.1 33.2984 24.4857 34.1483C24.8773 34.9981 25.4231 35.6397 26.1233 36.0732C26.8234 36.5066 27.6333 36.7234 28.553 36.7234C29.0692 36.7234 29.5469 36.6578 29.9859 36.5266C30.4309 36.3954 30.8255 36.2043 31.1696 35.9534C31.5138 35.6967 31.7986 35.3859 32.024 35.0209C32.0337 35.0056 32.0431 34.9854 32.0522 34.9606Z" fill="#3D4653"/>
<path d="M34.2829 28.9572H31.3638C31.3105 28.5802 31.2017 28.2452 31.0373 27.9525C30.8729 27.6553 30.6618 27.4024 30.4041 27.1939C30.1464 26.9854 29.8487 26.8257 29.5111 26.7148C29.1778 26.6039 28.8157 26.5485 28.4247 26.5485C27.7183 26.5485 27.1029 26.7237 26.5786 27.0741C26.0543 27.4202 25.6478 27.9259 25.359 28.5913C25.0702 29.2522 24.9258 30.0551 24.9258 31C24.9258 31.9715 25.0702 32.7877 25.359 33.4487C25.6522 34.1096 26.061 34.6087 26.5853 34.9458C27.1096 35.283 27.716 35.4515 28.4047 35.4515C28.7913 35.4515 29.1489 35.4005 29.4777 35.2985C29.811 35.1965 30.1064 35.0478 30.3641 34.8527C30.6218 34.653 30.8351 34.4113 31.0039 34.1274C31.1772 33.8435 31.2972 33.5196 31.3638 33.1559L34.2829 33.1692C34.2074 33.7947 34.0186 34.398 33.7165 34.9791C33.4188 35.5558 33.0167 36.0726 32.5102 36.5295C32.0081 36.9819 31.4083 37.3413 30.7107 37.6074C30.0176 37.8691 29.2334 38 28.3581 38C27.1407 38 26.0521 37.725 25.0924 37.1749C24.1371 36.6248 23.3818 35.8286 22.8264 34.7861C22.2755 33.7437 22 32.4816 22 31C22 29.5139 22.2799 28.2497 22.8397 27.2072C23.3996 26.1648 24.1593 25.3707 25.1191 24.8251C26.0788 24.275 27.1584 24 28.3581 24C29.1489 24 29.8821 24.1109 30.5574 24.3327C31.2372 24.5545 31.8392 24.8783 32.3635 25.3042C32.8878 25.7256 33.3144 26.2424 33.6431 26.8546C33.9764 27.4667 34.1896 28.1676 34.2829 28.9572Z" fill="#5B6071"/>
<path d="M35.1772 24.1863H38.4096L41.522 30.0551H41.6553L44.7676 24.1863H48L43.0215 32.9962V37.8137H40.1557V32.9962L35.1772 24.1863Z" fill="#5B6071"/>
</svg>
