<svg width="48" height="48" viewBox="0 0 48 48" fill="none" xmlns="http://www.w3.org/2000/svg">
<path fill-rule="evenodd" clip-rule="evenodd" d="M10 8.25003C6.82436 8.25003 4.25 10.8244 4.25 14V34C4.25 37.1757 6.82436 39.75 10 39.75H24V36.25H10C8.75736 36.25 7.75 35.2427 7.75 34V14C7.75 12.7574 8.75736 11.75 10 11.75H15.5678C16.0887 11.75 16.5934 11.9308 16.9959 12.2614L21.7825 16.1932C22.8111 17.0382 24.1011 17.5 25.4322 17.5H38C39.2426 17.5 40.25 18.5074 40.25 19.75V20H43.75V19.75C43.75 16.5744 41.1756 14 38 14H25.4322C24.9113 14 24.4066 13.8193 24.0041 13.4887L19.2175 9.55685C18.1889 8.7119 16.8989 8.25003 15.5678 8.25003H10Z" fill="#3D4653"/>
<path fill-rule="evenodd" clip-rule="evenodd" d="M24.1825 29.0366C23.0107 30.2079 23.0103 32.1074 24.1816 33.2793L30.6496 39.75H9.98594C7.13532 39.75 5.1996 36.8532 6.29033 34.2195L10.4317 24.2196C11.0508 22.7247 12.5095 21.75 14.1274 21.7501L15.1817 21.7501H21.7045L31.4721 21.7501L24.1825 29.0366Z" fill="#3D4653"/>
<path d="M40.9441 27.6137L40.9361 27.6103C40.9315 27.6085 40.9268 27.6068 40.9229 27.6028C40.9163 27.5957 40.9114 27.5872 40.9087 27.578C40.9059 27.5687 40.9052 27.559 40.9068 27.5494L41.3507 24.8378L43.433 26.9183L41.2675 27.8386C41.2615 27.841 41.255 27.8422 41.2485 27.842H41.2399C41.237 27.8403 41.2341 27.838 41.2285 27.8323C41.1479 27.7427 41.0515 27.6686 40.9441 27.6137ZM43.9643 27.4484L46.1906 29.6723C46.6531 30.1348 46.8846 30.3655 46.969 30.6328C46.9816 30.6725 46.992 30.712 47 30.7527L41.6794 28.5019C41.6765 28.5007 41.6736 28.4996 41.6708 28.4984C41.6495 28.4898 41.6248 28.4801 41.6248 28.4583C41.6248 28.4365 41.6501 28.4261 41.6714 28.4175L41.6782 28.4147L43.9643 27.4484ZM46.9092 31.4665C46.7944 31.6822 46.5703 31.906 46.1912 32.2853L43.6811 34.7921L40.4346 34.1168L40.4174 34.1133C40.3887 34.1087 40.3582 34.1036 40.3582 34.0777C40.3459 33.944 40.3061 33.8141 40.2414 33.6963C40.1766 33.5786 40.0884 33.4754 39.982 33.3932C39.9688 33.38 39.9723 33.3594 39.9762 33.3404C39.9762 33.3376 39.9763 33.3347 39.9774 33.3324L40.588 29.588L40.5902 29.5754C40.5937 29.5467 40.5989 29.5134 40.6247 29.5134C40.7556 29.4971 40.8819 29.455 40.9963 29.3895C41.1107 29.3241 41.2109 29.2364 41.2911 29.1319C41.2962 29.1262 41.2997 29.1198 41.3065 29.1164C41.3249 29.1078 41.3468 29.1164 41.3657 29.1245L46.9092 31.4665ZM43.1039 35.3687L38.9763 39.4918L39.6828 35.1541L39.684 35.1484C39.6844 35.1427 39.6856 35.1369 39.6873 35.1317C39.6931 35.1179 39.708 35.1123 39.7224 35.1065L39.7292 35.1036C39.8839 35.0377 40.0208 34.936 40.1285 34.8069C40.1423 34.791 40.1589 34.7755 40.1802 34.7726C40.1857 34.7716 40.1913 34.7716 40.1968 34.7726L43.1039 35.3687ZM38.1026 40.3645L37.6374 40.8292L32.4936 33.4036C32.4917 33.4008 32.4898 33.3982 32.4879 33.3955C32.4798 33.3846 32.4712 33.3738 32.4729 33.3611C32.4729 33.3519 32.4792 33.3439 32.4855 33.337L32.4913 33.3296C32.5068 33.3066 32.52 33.2837 32.5344 33.259L32.5459 33.2389L32.5476 33.2372C32.5556 33.2234 32.5631 33.2102 32.5769 33.2027C32.5889 33.197 32.6056 33.1993 32.6188 33.2021L38.3174 34.3761C38.3334 34.3785 38.3483 34.3851 38.3611 34.3951C38.3685 34.4025 38.3702 34.4106 38.3719 34.4197C38.4118 34.5699 38.4857 34.709 38.5881 34.8259C38.6906 34.9428 38.8187 35.0345 38.9625 35.0939C38.9786 35.1019 38.9716 35.1197 38.9642 35.1386C38.9605 35.147 38.9576 35.1555 38.9555 35.1644C38.8837 35.6005 38.268 39.3517 38.1026 40.3645ZM37.1307 41.3347C36.7878 41.6738 36.5855 41.8534 36.357 41.9257C36.1315 41.9969 35.8897 41.9969 35.6642 41.9257C35.3966 41.8408 35.1652 41.6102 34.7027 41.1476L29.5372 35.9878L30.8864 33.8976C30.8927 33.8872 30.8991 33.878 30.9094 33.8706C30.9238 33.8602 30.9444 33.8649 30.9617 33.8706C31.2714 33.964 31.6039 33.9471 31.9025 33.823C31.918 33.8172 31.9336 33.8133 31.9456 33.8241C31.9517 33.8296 31.957 33.8358 31.9617 33.8425L37.1307 41.3347ZM29.0392 35.4904L27.8542 34.3067L30.1943 33.3094C30.2003 33.3069 30.2067 33.3055 30.2132 33.3054C30.2328 33.3054 30.2442 33.3249 30.2546 33.3428C30.2781 33.3788 30.303 33.4141 30.3293 33.4484L30.3367 33.4575C30.3436 33.4672 30.339 33.477 30.3321 33.4862L29.0392 35.4904ZM27.3298 33.7829L25.8306 32.2853C25.5755 32.0306 25.3906 31.8457 25.2619 31.6868L29.8203 32.6312C29.8261 32.6324 29.8318 32.6333 29.8376 32.6341C29.8657 32.6387 29.8967 32.6439 29.8967 32.6703C29.8967 32.699 29.8628 32.7122 29.8341 32.723L29.8209 32.7288L27.3298 33.7829ZM25 30.9169C25.0052 30.8204 25.0226 30.725 25.0517 30.6328C25.1367 30.3655 25.3676 30.1348 25.8306 29.6723L27.7491 27.756C28.6324 29.0365 29.5181 30.3155 30.4062 31.5928C30.4217 31.6134 30.439 31.6364 30.4212 31.6535C30.3373 31.7459 30.2534 31.8469 30.1943 31.9566C30.1879 31.9707 30.178 31.9828 30.1656 31.9921C30.1581 31.9967 30.15 31.995 30.1414 31.9932L25 30.9169ZM28.2626 27.243L30.841 24.6663C31.084 24.7724 31.9669 25.1448 32.7555 25.4776C33.3529 25.73 33.8974 25.9595 34.0686 26.0341C34.0858 26.041 34.1013 26.0479 34.1088 26.0651C34.1134 26.0754 34.1111 26.0886 34.1088 26.0995C34.0679 26.2855 34.0741 26.4787 34.1265 26.6618C34.1789 26.8449 34.276 27.0121 34.4092 27.1484C34.4264 27.1656 34.4092 27.1902 34.3942 27.2115L34.3862 27.2235L31.767 31.276C31.7601 31.2876 31.7538 31.2973 31.7423 31.3047C31.7285 31.3134 31.709 31.3093 31.6929 31.3053C31.591 31.2787 31.4863 31.2644 31.381 31.2628C31.2868 31.2628 31.1845 31.28 31.0811 31.299C31.0697 31.3007 31.0587 31.3029 31.0496 31.2961C31.0394 31.2878 31.0307 31.278 31.0237 31.2669L28.2626 27.243ZM31.3632 24.1458L34.7027 20.81C35.1652 20.3481 35.3966 20.1169 35.6642 20.0325C35.8897 19.9613 36.1315 19.9613 36.357 20.0325C36.6247 20.1169 36.8561 20.3481 37.3185 20.81L38.0423 21.5329L35.6671 25.2073C35.6613 25.218 35.6532 25.2274 35.6436 25.2349C35.6292 25.2446 35.6091 25.2406 35.5918 25.2349C35.4046 25.1781 35.2064 25.1678 35.0142 25.2047C34.8221 25.2417 34.6418 25.3249 34.4891 25.4472C34.4735 25.4632 34.4506 25.454 34.4311 25.4454C34.1209 25.3106 31.7084 24.2922 31.3632 24.1458ZM38.5466 22.0367L40.7396 24.2273L40.2111 27.4966V27.5052C40.2107 27.5127 40.2092 27.52 40.2066 27.5271C40.2008 27.5385 40.1894 27.5408 40.1779 27.5443C40.0649 27.5784 39.9585 27.6314 39.8631 27.7009C39.859 27.7038 39.8552 27.7071 39.8516 27.7107C39.8453 27.7175 39.839 27.7239 39.8287 27.725C39.8202 27.7253 39.8118 27.7239 39.8039 27.721L36.4621 26.3026L36.4557 26.2998C36.4346 26.2912 36.4093 26.2808 36.4093 26.259C36.3896 26.073 36.3288 25.8937 36.2312 25.734C36.2151 25.7076 36.1973 25.6801 36.2111 25.6531L38.5466 22.0367ZM36.2881 26.9745L39.4209 28.2999C39.438 28.3079 39.457 28.3154 39.4645 28.3332C39.4674 28.3439 39.4674 28.3552 39.4645 28.3659C39.4553 28.4118 39.4473 28.464 39.4473 28.5168V28.6046C39.4473 28.6264 39.4248 28.6356 39.4042 28.6442L39.3978 28.6465C38.9016 28.8582 32.4304 31.6145 32.4206 31.6145C32.4109 31.6145 32.4005 31.6145 32.3908 31.6048C32.3735 31.5876 32.3908 31.5635 32.4063 31.5417C32.409 31.5379 32.4117 31.534 32.4143 31.5302L34.9888 27.5483L34.9933 27.5414C35.0083 27.5173 35.0255 27.4903 35.0531 27.4903L35.079 27.4943C35.1376 27.5024 35.1892 27.5098 35.2415 27.5098C35.6321 27.5098 35.994 27.3199 36.2122 26.9952C36.2175 26.9865 36.2241 26.9787 36.2318 26.9722C36.2473 26.9607 36.2703 26.9665 36.2881 26.9745ZM32.7004 32.2445L39.754 29.2398C39.754 29.2398 39.7643 29.2398 39.774 29.2495C39.8126 29.2879 39.8453 29.3138 39.8769 29.3378L39.8924 29.3476C39.9067 29.3557 39.9211 29.3648 39.9223 29.3797C39.9223 29.3855 39.9223 29.389 39.9211 29.3941L39.3169 33.1017L39.3146 33.1166C39.3105 33.1453 39.3065 33.1781 39.2795 33.1781C39.1184 33.1889 38.9624 33.2389 38.825 33.3236C38.6876 33.4082 38.5728 33.525 38.4909 33.6641L38.488 33.6686C38.48 33.6819 38.4725 33.6945 38.4593 33.7013C38.4472 33.7071 38.4317 33.7048 38.4191 33.7019L32.794 32.543C32.7883 32.5418 32.7067 32.2451 32.7004 32.2445Z" fill="#5B6071"/>
</svg>
