<svg width="48" height="48" viewBox="0 0 48 48" fill="none" xmlns="http://www.w3.org/2000/svg">
<path fill-rule="evenodd" clip-rule="evenodd" d="M10 8.25C6.82436 8.25 4.25 10.8244 4.25 14V34C4.25 37.1756 6.82436 39.75 10 39.75H25V36.25H10C8.75736 36.25 7.75 35.2426 7.75 34V14C7.75 12.7574 8.75736 11.75 10 11.75H15.5678C16.0887 11.75 16.5934 11.9307 16.9959 12.2614L21.7825 16.1932C22.8111 17.0381 24.1011 17.5 25.4322 17.5H38C39.2426 17.5 40.25 18.5074 40.25 19.75V20H43.75V19.75C43.75 16.5744 41.1756 14 38 14H25.4322C24.9113 14 24.4066 13.8193 24.0041 13.4886L19.2175 9.55682C18.1889 8.71187 16.8989 8.25 15.5678 8.25H10Z" fill="#3D4653"/>
<path fill-rule="evenodd" clip-rule="evenodd" d="M30.2929 25.77C30.2929 24.207 30.9158 22.7891 31.9276 21.75L21.7046 21.7501H15.1819L14.1276 21.75C12.5096 21.75 11.0509 22.7247 10.4318 24.2195L6.29045 34.2194C5.19972 36.8531 7.13544 39.7499 9.98606 39.7499H29.1908C27.031 38.9132 25.5 36.8196 25.5 34.3692C25.5 31.2648 27.9575 28.733 31.0375 28.6043C30.5634 27.7672 30.2929 26.8001 30.2929 25.77Z" fill="#3D4653"/>
<path d="M31.4615 37.9091C33.3733 37.9091 34.9231 36.3828 34.9231 34.5C34.9231 32.6172 33.3733 31.0909 31.4615 31.0909C29.5498 31.0909 28 32.6172 28 34.5C28 36.3828 29.5498 37.9091 31.4615 37.9091Z" fill="#5B6071"/>
<path d="M36.0769 28.8182C37.9886 28.8182 39.5384 27.2919 39.5384 25.4091C39.5384 23.5263 37.9886 22 36.0769 22C34.1651 22 32.6154 23.5263 32.6154 25.4091C32.6154 27.2919 34.1651 28.8182 36.0769 28.8182Z" fill="#5B6071"/>
<path d="M42.5385 42C44.4502 42 46 40.4737 46 38.5909C46 36.7081 44.4502 35.1818 42.5385 35.1818C40.6267 35.1818 39.0769 36.7081 39.0769 38.5909C39.0769 40.4737 40.6267 42 42.5385 42Z" fill="#5B6071"/>
</svg>
