<svg width="48" height="48" viewBox="0 0 48 48" fill="none" xmlns="http://www.w3.org/2000/svg">
<path fill-rule="evenodd" clip-rule="evenodd" d="M10 8.25C6.82436 8.25 4.25 10.8244 4.25 14V34C4.25 37.1756 6.82436 39.75 10 39.75H24V36.25H10C8.75736 36.25 7.75 35.2426 7.75 34V14C7.75 12.7574 8.75736 11.75 10 11.75H15.5678C16.0887 11.75 16.5934 11.9307 16.9959 12.2614L21.7825 16.1932C22.8111 17.0381 24.1011 17.5 25.4322 17.5H38C39.2426 17.5 40.25 18.5074 40.25 19.75V20H43.75V19.75C43.75 16.5744 41.1756 14 38 14H25.4322C24.9113 14 24.4066 13.8193 24.0041 13.4886L19.2175 9.55682C18.1889 8.71187 16.8989 8.25 15.5678 8.25H10Z" fill="#3D4653"/>
<path fill-rule="evenodd" clip-rule="evenodd" d="M30.0315 21.7501C30.0109 21.83 30 21.9137 30 22V24H27C26.4477 24 26 24.4477 26 25V39.75H9.98594C7.13532 39.75 5.1996 36.8532 6.29033 34.2195L10.4317 24.2196C11.0508 22.7247 12.5095 21.7501 14.1274 21.7501L15.1817 21.7501H21.7045L30.0315 21.7501Z" fill="#3D4653"/>
<path fill-rule="evenodd" clip-rule="evenodd" d="M44.1505 26.7508H34.6498V24.8508H44.1505M40.3502 34.3508H34.6513V32.4508H40.3502M44.1505 30.5508H34.6498V28.6508H44.1505M45.0998 22H33.7005C33.4508 22 33.2036 22.0492 32.9729 22.1448C32.7423 22.2404 32.5328 22.3805 32.3563 22.557C32.1798 22.7336 32.0399 22.9433 31.9445 23.174C31.8491 23.4047 31.8001 23.6519 31.8003 23.9016V35.3C31.8003 35.8039 32.0005 36.2872 32.3569 36.6435C32.7132 36.9998 33.1965 37.2 33.7005 37.2H45.0998C45.6038 37.2 46.0871 36.9998 46.4435 36.6435C46.7998 36.2872 47 35.8039 47 35.3V23.9016C47 23.3977 46.7998 22.9144 46.4435 22.5581C46.0871 22.2017 45.6038 22.0016 45.0998 22.0016M29.9002 25.8016H28V39.1C28 39.6039 28.2002 40.0872 28.5565 40.4435C28.9129 40.7998 29.3962 41 29.9002 41H43.2012V39.1H29.8986L29.9002 25.8016Z" fill="#5B6071"/>
</svg>
