<svg width="48" height="48" viewBox="0 0 48 48" fill="none" xmlns="http://www.w3.org/2000/svg">
<path fill-rule="evenodd" clip-rule="evenodd" d="M10 8.25003C6.82436 8.25003 4.25 10.8244 4.25 14V34C4.25 37.1757 6.82436 39.75 10 39.75H26V36.25H10C8.75736 36.25 7.75 35.2427 7.75 34V14C7.75 12.7574 8.75736 11.75 10 11.75H15.5678C16.0887 11.75 16.5934 11.9308 16.9959 12.2614L21.7825 16.1932C22.8111 17.0382 24.1011 17.5 25.4322 17.5H38C38.9797 17.5 39.8131 18.1261 40.122 19H43.7015C43.334 16.1788 40.9214 14 38 14H25.4322C24.9113 14 24.4066 13.8193 24.0041 13.4887L19.2175 9.55685C18.1889 8.7119 16.8989 8.25003 15.5678 8.25003H10Z" fill="#3D4653"/>
<path fill-rule="evenodd" clip-rule="evenodd" d="M32.5454 31.0526L32.5455 36.5789H28.1819V39.75H9.98606C7.13544 39.75 5.19972 36.8532 6.29045 34.2195L10.4318 24.2196C11.0509 22.7247 12.5096 21.75 14.1276 21.7501L15.1819 21.7501H21.7046L36.1008 21.75L26 31.0526H32.5454Z" fill="#3D4653"/>
<path fill-rule="evenodd" clip-rule="evenodd" d="M34.5714 35.7649V29.4122H30L38.0008 22L46 29.4122H41.4286V35.7649H34.5714ZM30 40V37.8824H45.9984V40H30Z" fill="#5B6071"/>
</svg>
