<svg width="48" height="48" viewBox="0 0 48 48" fill="none" xmlns="http://www.w3.org/2000/svg">
<path fill-rule="evenodd" clip-rule="evenodd" d="M10 8.25C6.82436 8.25 4.25 10.8244 4.25 14V34C4.25 37.1756 6.82436 39.75 10 39.75H25V36.25H10C8.75736 36.25 7.75 35.2426 7.75 34V14C7.75 12.7574 8.75736 11.75 10 11.75H15.5678C16.0887 11.75 16.5934 11.9307 16.9959 12.2614L21.7825 16.1932C22.8111 17.0381 24.1011 17.5 25.4322 17.5H38C39.2426 17.5 40.25 18.5074 40.25 19.75V20H43.75V19.75C43.75 16.5744 41.1756 14 38 14H25.4322C24.9113 14 24.4066 13.8193 24.0041 13.4886L19.2175 9.55682C18.1889 8.71187 16.8989 8.25 15.5678 8.25H10Z" fill="#3D4653"/>
<path fill-rule="evenodd" clip-rule="evenodd" d="M28.0155 21.7501C27.3928 22.2998 27 23.104 27 24V39C27 39.259 27.0328 39.5103 27.0945 39.75H9.98594C7.13532 39.75 5.1996 36.8532 6.29033 34.2195L10.4317 24.2196C11.0508 22.7248 12.5095 21.7501 14.1274 21.7501L15.1817 21.7502H21.7045L28.0155 21.7501Z" fill="#3D4653"/>
<path fill-rule="evenodd" clip-rule="evenodd" d="M44.8893 22H30.1107C28.95 22 28 22.95 28 24.1107V38.8893C28 40.05 28.95 41 30.1107 41H44.8893C46.05 41 47 40.05 47 38.8893V24.1107C47 22.95 46.05 22 44.8893 22ZM30.1107 24.1004H33.2785C33.2785 25.8535 31.8622 27.2785 30.1107 27.2785V24.1004ZM30.1107 31.5V29.3893C31.5116 29.3865 32.8542 28.8281 33.8439 27.8365C34.8335 26.845 35.3893 25.5013 35.3893 24.1004H37.5C37.5009 25.0715 37.3105 26.0333 36.9396 26.9308C36.5687 27.8283 36.0246 28.6439 35.3384 29.3311C34.6522 30.0182 33.8373 30.5635 32.9403 30.9356C32.0434 31.3078 31.0818 31.4995 30.1107 31.5ZM30.1107 37.8339L33.8071 33.0839L36.4446 36.2621L40.1393 31.5L44.8893 37.8339H30.1107Z" fill="#5B6071"/>
</svg>
