<svg width="48" height="48" viewBox="0 0 48 48" fill="none" xmlns="http://www.w3.org/2000/svg">
<path fill-rule="evenodd" clip-rule="evenodd" d="M10 8.25C6.82436 8.25 4.25 10.8244 4.25 14V34C4.25 37.1756 6.82436 39.75 10 39.75H24V36.25H10C8.75736 36.25 7.75 35.2426 7.75 34V14C7.75 12.7574 8.75736 11.75 10 11.75H15.5678C16.0887 11.75 16.5934 11.9307 16.9959 12.2614L21.7825 16.1932C22.8111 17.0381 24.1011 17.5 25.4322 17.5H38C39.1581 17.5 40.1119 18.375 40.2363 19.5H43.7447C43.6138 16.4403 41.0919 14 38 14H25.4322C24.9113 14 24.4066 13.8193 24.0041 13.4886L19.2175 9.55682C18.1889 8.71187 16.8989 8.25 15.5678 8.25H10Z" fill="#3D4653"/>
<path d="M10.4318 24.2196C11.0509 22.7247 12.5095 21.75 14.1275 21.7501L15.1818 21.7501H21.7045L39.569 21.75C42.2647 21.75 44.1886 24.3622 43.389 26.9365L40.283 36.9365C39.7633 38.6097 38.2151 39.75 36.463 39.75H9.98602C7.1354 39.75 5.19969 36.8532 6.29041 34.2195L10.4318 24.2196Z" fill="#3D4653"/>
</svg>
