<svg width="48" height="48" viewBox="0 0 48 48" fill="none" xmlns="http://www.w3.org/2000/svg">
<path fill-rule="evenodd" clip-rule="evenodd" d="M10 8.25C6.82439 8.25 4.25003 10.8244 4.25003 14V34C4.25003 37.1756 6.82439 39.75 10 39.75H24V36.25H10C8.75739 36.25 7.75003 35.2426 7.75003 34V14C7.75003 12.7574 8.75739 11.75 10 11.75H15.5678C16.0887 11.75 16.5935 11.9307 16.996 12.2614L21.7825 16.1932C22.8111 17.0381 24.1011 17.5 25.4323 17.5H38C38.9797 17.5 39.8131 18.1261 40.122 19H43.7016C43.334 16.1787 40.9215 14 38 14H25.4323C24.9114 14 24.4066 13.8193 24.0041 13.4886L19.2175 9.55682C18.1889 8.71187 16.899 8.25 15.5678 8.25H10Z" fill="#3D4653"/>
<path fill-rule="evenodd" clip-rule="evenodd" d="M26.0064 39.75H9.986C7.13538 39.75 5.19966 36.8532 6.29039 34.2195L10.4318 24.2196C11.0508 22.7247 12.5095 21.75 14.1275 21.7501L15.1818 21.7501H21.7045L29.2584 21.7501L30.4211 22.9454C30.1167 23.1796 29.9129 23.3196 29.7405 23.4381C29.3906 23.6785 29.1699 23.8301 28.5 24.5H26.3126C26.1474 24.5 26.0133 24.6336 26.0126 24.7989L26 28.1239V29.7636V30.9009V33.6778V35.4454V36.4566L26.0064 39.75Z" fill="#3D4653"/>
<path fill-rule="evenodd" clip-rule="evenodd" d="M40.5002 31.0008H35.4998V28.5571H40.5002M40.5002 35.8899H35.4998V33.4461H40.5002M48 26.4117C48 26.246 47.8657 26.1117 47.7 26.1117H44.4884C43.9243 25.156 43.1463 24.3375 42.2127 23.7175L44.0309 21.9384C44.1512 21.8207 44.1511 21.6271 44.0308 21.5094L42.6968 20.2051C42.5802 20.0911 42.3938 20.0911 42.2772 20.2052L39.7754 22.6528C38.613 22.3771 37.4001 22.3771 36.2377 22.6528L33.7211 20.2055C33.6044 20.0921 33.4186 20.0923 33.3022 20.2061L31.9671 21.5115C31.847 21.629 31.8467 21.8222 31.9666 21.94L33.7742 23.7159C32.8473 24.3402 32.0743 25.1587 31.5115 26.1117H28.3C28.1343 26.1117 28 26.246 28 26.4117V28.2571C28 28.4227 28.1343 28.5571 28.3 28.5571H30.612C30.543 28.9607 30.5054 29.3689 30.4994 29.7781V31.0008H28.3C28.1343 31.0008 28 31.1351 28 31.3008V33.1445C28 33.3102 28.1343 33.4445 28.3 33.4445H30.4994V34.6672C30.4994 35.0822 30.5484 35.486 30.612 35.8899H28.3C28.1343 35.8899 28 36.0242 28 36.1899V38.0336C28 38.1993 28.1343 38.3336 28.3 38.3336H31.5115C32.8127 40.5204 35.2255 42 38.0008 42C40.7761 42 43.1873 40.5219 44.4884 38.3336H47.7C47.8657 38.3336 48 38.1993 48 38.0336V36.1899C48 36.0242 47.8657 35.8899 47.7 35.8899H45.388C45.45 35.486 45.5006 35.0822 45.5006 34.6672V33.4445H47.7C47.8657 33.4445 48 33.3102 48 33.1445V31.3008C48 31.1351 47.8657 31.0008 47.7 31.0008H45.5006V29.7781C45.5006 29.3631 45.4516 28.9593 45.388 28.5571H47.7C47.8657 28.5571 48 28.4227 48 28.2571V26.4117Z" fill="#5B6071"/>
</svg>
