<svg width="48" height="48" viewBox="0 0 48 48" fill="none" xmlns="http://www.w3.org/2000/svg">
<path fill-rule="evenodd" clip-rule="evenodd" d="M10 8.25C6.82436 8.25 4.25 10.8244 4.25 14V34C4.25 37.1756 6.82436 39.75 10 39.75H26V36.25H10C8.75736 36.25 7.75 35.2426 7.75 34V14C7.75 12.7574 8.75736 11.75 10 11.75H15.5678C16.0887 11.75 16.5934 11.9307 16.9959 12.2614L21.7825 16.1932C22.8111 17.0381 24.1011 17.5 25.4322 17.5H38C39.2426 17.5 40.25 18.5074 40.25 19.75V20H43.75V19.75C43.75 16.5744 41.1756 14 38 14H25.4322C24.9113 14 24.4066 13.8193 24.0041 13.4886L19.2175 9.55682C18.1889 8.71187 16.8989 8.25 15.5678 8.25H10Z" fill="#3D4653"/>
<path fill-rule="evenodd" clip-rule="evenodd" d="M40.282 21.8125C40.0516 21.7715 39.8135 21.75 39.569 21.75L21.7045 21.7501H15.1817L14.1274 21.7501C12.5095 21.7501 11.0508 22.7247 10.4317 24.2196L6.29033 34.2195C5.1996 36.8532 7.13532 39.75 9.98594 39.75H28.002V36.984C28.0016 36.9425 28.0198 36.9021 28.0535 36.8695C28.0873 36.8368 28.1345 36.8139 28.1877 36.8043C28.5156 36.7365 29.3449 36.5917 31.158 36.4285C32.4814 36.3099 33.9061 36.166 35.3501 36H34.9703C34.5993 36.0385 34.2465 36.075 33.9111 36.1098C31.4235 36.3675 29.895 36.5259 29.0396 36.6256C28.1975 36.7243 28.0691 36.8173 28.0534 36.8535L28.0467 36H28V24H28.002V23.4522C28.0016 23.4107 28.0198 23.3703 28.0535 23.3377C28.0873 23.305 28.1345 23.282 28.1877 23.2725C28.5156 23.2047 29.3449 23.0598 31.158 22.8967C34.0029 22.6403 37.3162 22.2689 40.282 21.8125ZM28.0535 36.8695L28.0534 36.8535C28.049 36.8638 28.0535 36.8695 28.0535 36.8695Z" fill="#3D4653"/>
<path fill-rule="evenodd" clip-rule="evenodd" d="M44.998 22L45 26.4175C44.9999 26.4542 44.9843 26.4898 44.9558 26.5188C44.7835 26.769 44.5077 26.9651 44.1742 27.0746C43.8729 27.1807 42.4363 27.8409 37.8936 28.3317C33.9638 28.7561 31.8321 28.9809 30.8235 29.1028C29.9234 29.2121 30.0017 29.3134 30.0017 29.3134V24.9814C30.0014 24.9456 30.0165 24.9107 30.0447 24.8825C30.0728 24.8543 30.1122 24.8345 30.1564 24.8262C30.4297 24.7677 31.1208 24.6426 32.6317 24.5017C35.6836 24.2167 39.3824 23.767 42.2776 23.2081C45.0161 22.6808 44.998 22 44.998 22ZM44.998 27.9581L45 32.3756C44.9997 32.4118 44.9842 32.4469 44.9558 32.4753C44.7835 32.7255 44.5077 32.9216 44.1742 33.0311C43.8729 33.1372 42.4363 33.7974 37.8936 34.2898C33.9638 34.7142 31.8321 34.9374 30.8235 35.0593C29.9234 35.1686 30.0017 35.2699 30.0017 35.2699V30.9395C30.0014 30.9037 30.0165 30.8688 30.0447 30.8406C30.0728 30.8124 30.1122 30.7926 30.1564 30.7843C30.4297 30.7242 31.1208 30.6007 32.6317 30.4598C35.6836 30.1748 39.3824 29.7235 42.2776 29.1662C45.0161 28.6389 44.998 27.9581 44.998 27.9581ZM44.998 33.6866L45 38.1057C44.9997 38.1419 44.9842 38.177 44.9558 38.2054C44.7835 38.4556 44.5077 38.6517 44.1742 38.7612C43.8729 38.8673 42.4363 39.5275 37.8936 40.0183C33.9638 40.4442 31.8321 40.6675 30.8235 40.7894C29.9234 40.8987 30.0017 41 30.0017 41V36.668C30.0014 36.6322 30.0165 36.5973 30.0447 36.5691C30.0728 36.5409 30.1122 36.5211 30.1564 36.5128C30.4297 36.4543 31.1208 36.3292 32.6317 36.1883C35.6836 35.9048 39.3824 35.4536 42.2776 34.8963C45.0161 34.3674 44.998 33.6866 44.998 33.6866Z" fill="#5B6071"/>
</svg>
