<svg width="48" height="48" viewBox="0 0 48 48" fill="none" xmlns="http://www.w3.org/2000/svg">
<g clip-path="url(#clip0_3475_13453)">
<path fill-rule="evenodd" clip-rule="evenodd" d="M10 8.25003C6.82436 8.25003 4.25 10.8244 4.25 14V34C4.25 37.1757 6.82436 39.75 10 39.75H26V36.25H10C8.75736 36.25 7.75 35.2427 7.75 34V14C7.75 12.7574 8.75736 11.75 10 11.75H15.5678C16.0887 11.75 16.5934 11.9308 16.9959 12.2614L21.7825 16.1932C22.8111 17.0382 24.1011 17.5 25.4322 17.5H38C39.2426 17.5 40.25 18.5074 40.25 19.75V20H43.75V19.75C43.75 16.5744 41.1756 14 38 14H25.4322C24.9113 14 24.4066 13.8193 24.0041 13.4887L19.2175 9.55685C18.1889 8.7119 16.8989 8.25003 15.5678 8.25003H10Z" fill="#3D4653"/>
<path fill-rule="evenodd" clip-rule="evenodd" d="M40.474 29.8762C40.5568 29.4301 40.6 28.9701 40.6 28.5C40.6 25.5313 38.8752 22.9655 36.3731 21.75L39.5692 21.75C42.2649 21.75 44.1888 24.3621 43.3892 26.9365L42.089 31.1224L40.474 29.8762ZM36.4551 35.2095C35.4456 35.7153 34.306 36 33.1 36C28.9579 36 25.6 32.6421 25.6 28.5C25.6 25.5314 27.3248 22.9656 29.8269 21.75L21.7047 21.7501H15.182L14.1277 21.75C12.5097 21.75 11.051 22.7247 10.4319 24.2195L6.29057 34.2194C5.19985 36.8531 7.13556 39.7499 9.98618 39.7499H35.1207L34.8467 39.5455L37.4881 36.0066L36.4551 35.2095Z" fill="#3D4653"/>
<path fill-rule="evenodd" clip-rule="evenodd" d="M38.9156 30.2673C39.3009 29.0888 39.311 27.8198 38.9446 26.6353C38.5782 25.4508 37.8533 24.4092 36.8698 23.6541C35.6074 22.6863 34.0126 22.2589 32.4354 22.4659C30.8583 22.6729 29.4277 23.4972 28.4578 24.7579C27.4895 26.0203 27.0617 27.6153 27.2685 29.1928C27.4753 30.7703 28.2997 32.2012 29.5607 33.1713C30.5442 33.9266 31.7379 34.3581 32.9771 34.4063C34.2162 34.4545 35.4398 34.1169 36.4789 33.4402L39.9283 36.0892L37.4916 39.2621L40.6645 41.6988L43.1012 38.526L44.6876 39.7444L47.1243 36.5715L38.9156 30.2673ZM31.9974 29.9984C31.125 29.3284 30.9593 28.066 31.6293 27.1936C32.2993 26.3212 33.5617 26.1556 34.4341 26.8256C35.3065 27.4956 35.4722 28.758 34.8022 29.6304C34.1322 30.5028 32.8698 30.6684 31.9974 29.9984Z" fill="#5B6071"/>
</g>
<defs>
<clipPath id="clip0_3475_13453">
<rect width="48" height="48" fill="white"/>
</clipPath>
</defs>
</svg>
