<svg width="48" height="48" viewBox="0 0 48 48" fill="none" xmlns="http://www.w3.org/2000/svg">
<path fill-rule="evenodd" clip-rule="evenodd" d="M10 8.25C6.82436 8.25 4.25 10.8244 4.25 14V34C4.25 37.1756 6.82436 39.75 10 39.75H24V36.25H10C8.75736 36.25 7.75 35.2426 7.75 34V14C7.75 12.7574 8.75736 11.75 10 11.75H15.5678C16.0887 11.75 16.5934 11.9307 16.9959 12.2614L21.7825 16.1932C22.8111 17.0381 24.1011 17.5 25.4322 17.5H38C38.9797 17.5 39.8131 18.1261 40.122 19H43.7015C43.334 16.1787 40.9214 14 38 14H25.4322C24.9113 14 24.4066 13.8193 24.0041 13.4886L19.2175 9.55682C18.1889 8.71187 16.8989 8.25 15.5678 8.25H10Z" fill="#3D4653"/>
<path fill-rule="evenodd" clip-rule="evenodd" d="M28.6219 21.7501L28 25L27.8705 26.1118L27.2054 29.811L26.7947 32.2219L26 36.6656L33.3052 39.75H9.98606C7.13544 39.75 5.19972 36.8532 6.29045 34.2195L10.4318 24.2196C11.0509 22.7247 12.5096 21.75 14.1276 21.7501L15.1819 21.7501H21.7046L28.6219 21.7501Z" fill="#3D4653"/>
<path d="M30.3655 22L29.8417 24.9699H40.7798L40.425 26.8894H29.4964L28.9643 29.8488H39.9036L39.2917 33.2355L34.881 34.8447L31.0583 33.2355L31.3238 31.7775H28.6357L28 35.3325L34.3179 38L41.6012 35.3325L42.5679 29.9737L42.7607 28.8983L44 22H30.3655Z" fill="#5B6071"/>
</svg>
