<svg width="24" height="24" viewBox="0 0 24 24" fill="none" xmlns="http://www.w3.org/2000/svg">
<path fill-rule="evenodd" clip-rule="evenodd" d="M5 4C3.34315 4 2 5.34315 2 7V17C2 18.6569 3.34315 20 5 20H13V18H5C4.44772 18 4 17.5523 4 17V7C4 6.44772 4.44772 6 5 6H7.78388C8.01539 6 8.23973 6.08033 8.41862 6.22727L10.8119 8.19318C11.3486 8.63402 12.0216 8.875 12.7161 8.875H19C19.5523 8.875 20 9.32272 20 9.875V10H22V9.875C22 8.21815 20.6569 6.875 19 6.875H12.7161C12.4846 6.875 12.2603 6.79467 12.0814 6.64773L9.6881 4.68182C9.15142 4.24098 8.47841 4 7.78388 4H5Z" fill="#64748B"/>
<path fill-rule="evenodd" clip-rule="evenodd" d="M11.0682 11L15.3333 11V11.724V12.3H14.3347C13.9807 12.3 13.6412 12.4808 13.3909 12.8026C13.1406 13.1244 13 13.5609 13 14.016V16.2852C13 17.2332 13.5973 18 14.3347 18H14.8853H15V18.6644C14.9999 18.8397 15.0392 19.0134 15.1158 19.1754C15.1924 19.3375 15.3047 19.4847 15.4464 19.6087C15.588 19.7328 15.7562 19.8312 15.9414 19.8983C16.1243 19.9647 16.3203 19.9992 16.5183 20H5.02105C3.58837 20 2.62035 18.5378 3.17988 17.2189L5.30108 12.2189C5.61459 11.4799 6.33956 11 7.14231 11L7.7273 11H11.0682Z" fill="#64748B"/>
<path fill-rule="evenodd" clip-rule="evenodd" d="M17.144 11C16.8406 11 16.5496 11.1205 16.3351 11.3351C16.1205 11.5496 16 11.8406 16 12.144V12.816H17.716C17.872 12.816 18 13.044 18 13.2H15.144C14.8406 13.2 14.5496 13.3205 14.3351 13.5351C14.1205 13.7496 14 14.0406 14 14.344V15.8568C14 16.4888 14.512 17 15.144 17H15.616V15.928C15.6155 15.778 15.6446 15.6293 15.7016 15.4905C15.7587 15.3517 15.8426 15.2256 15.9485 15.1193C16.0544 15.013 16.1802 14.9287 16.3188 14.8712C16.4574 14.8136 16.606 14.784 16.756 14.784H18.856C19.006 14.7845 19.1547 14.7554 19.2935 14.6984C19.4323 14.6413 19.5584 14.5574 19.6647 14.4515C19.771 14.3456 19.8553 14.2198 19.9128 14.0812C19.9704 13.9426 20 13.794 20 13.644V12.144C20 11.8406 19.8795 11.5496 19.6649 11.3351C19.4504 11.1205 19.1594 11 18.856 11H17.144ZM16.856 11.644C17.016 11.644 17.144 11.6924 17.144 11.9284C17.144 12.1644 17.016 12.2844 16.856 12.2844C16.7 12.2844 16.572 12.1644 16.572 11.9284C16.572 11.6924 16.7 11.6444 16.856 11.6444V11.644Z" fill="#58B0FA"/>
<path fill-rule="evenodd" clip-rule="evenodd" d="M20.3836 13V14.072C20.3841 14.222 20.355 14.3707 20.298 14.5095C20.2409 14.6483 20.157 14.7744 20.0511 14.8807C19.9452 14.987 19.8194 15.0713 19.6808 15.1288C19.5422 15.1864 19.3936 15.216 19.2436 15.216H17.144C16.994 15.2155 16.8454 15.2445 16.7067 15.3016C16.568 15.3586 16.4419 15.4424 16.3356 15.5482C16.2293 15.654 16.145 15.7798 16.0874 15.9183C16.0298 16.0567 16.0001 16.2052 16 16.3552V17.8552C15.9999 18.0055 16.0294 18.1543 16.0869 18.2932C16.1443 18.4321 16.2285 18.5583 16.3348 18.6646C16.441 18.771 16.5672 18.8553 16.706 18.9128C16.8449 18.9704 16.9937 19 17.144 19H18.856C19.0063 19 19.1551 18.9704 19.2939 18.9129C19.4327 18.8554 19.5588 18.7711 19.6651 18.6648C19.7713 18.5585 19.8556 18.4324 19.913 18.2935C19.9705 18.1547 20.0001 18.0059 20 17.8556V17.1836H18.2836C18.1276 17.1836 18 16.956 18 16.8H20.856C21.0063 16.8 21.1551 16.7704 21.2939 16.7129C21.4327 16.6554 21.5588 16.5711 21.6651 16.4648C21.7713 16.3585 21.8556 16.2324 21.913 16.0935C21.9705 15.9547 22.0001 15.8059 22 15.6556V14.1436C21.9999 13.8403 21.8793 13.5494 21.6648 13.3349C21.4503 13.1205 21.1593 13 20.856 13H20.3836ZM16.528 14.8056L16.5264 14.8072C16.5312 14.806 16.5364 14.8064 16.5416 14.8056H16.528ZM19.144 17.7156C19.3 17.7156 19.428 17.8356 19.428 18.0716C19.428 18.1089 19.4207 18.1458 19.4064 18.1803C19.3921 18.2147 19.3712 18.246 19.3448 18.2724C19.3184 18.2988 19.2871 18.3197 19.2527 18.334C19.2182 18.3483 19.1813 18.3556 19.144 18.3556C18.984 18.3556 18.856 18.3076 18.856 18.0716C18.856 17.8356 18.984 17.7156 19.144 17.7156Z" fill="#FFE368"/>
</svg>
