<svg width="24" height="24" viewBox="0 0 24 24" fill="none" xmlns="http://www.w3.org/2000/svg">
<path fill-rule="evenodd" clip-rule="evenodd" d="M5 4C3.34315 4 2 5.34315 2 7V17C2 18.6569 3.34315 20 5 20H11V18H5C4.44772 18 4 17.5523 4 17V7C4 6.44772 4.44772 6 5 6H7.78388C8.01539 6 8.23973 6.08033 8.41862 6.22727L10.8119 8.19318C11.3486 8.63402 12.0216 8.875 12.7161 8.875H19C19.5523 8.875 20 9.32272 20 9.875V10H22V9.875C22 8.21815 20.6569 6.875 19 6.875H12.7161C12.4846 6.875 12.2603 6.79467 12.0814 6.64773L9.6881 4.68182C9.15142 4.24098 8.47841 4 7.78388 4H5Z" fill="#64748B"/>
<path fill-rule="evenodd" clip-rule="evenodd" d="M7.14231 11C6.33956 11 5.61459 11.4799 5.30108 12.2189L3.17988 17.2189C2.62035 18.5378 3.58837 20 5.02105 20H18.674C19.1734 20 19.6399 19.8146 19.9968 19.5H11.5V17.5H12.063C12.0219 17.3402 12 17.1726 12 17V13C12 11.8992 12.8893 11.0061 13.9886 11L11.0682 11H7.7273L7.14231 11Z" fill="#64748B"/>
<path fill-rule="evenodd" clip-rule="evenodd" d="M20.3331 18.1245C20.7917 18.1245 21.1624 17.7314 21.1624 17.2498L21.1669 12.8747C21.1669 12.3892 20.7917 12 20.3331 12H13.6662C13.2038 12 12.8331 12.3892 12.8331 12.8747V17.2498C12.8331 17.7314 13.2038 18.1245 13.6662 18.1245H12V19H22V18.1245H20.3331ZM17.4158 16.5804V15.6228C16.2579 15.6228 15.4955 15.9938 14.9158 16.8125C15.1489 15.6441 15.7955 14.4804 17.4165 14.2444V13.3128L19.0827 14.9446L17.4158 16.5804Z" fill="#E676FA"/>
</svg>
