<svg width="24" height="24" viewBox="0 0 24 24" fill="none" xmlns="http://www.w3.org/2000/svg">
<path fill-rule="evenodd" clip-rule="evenodd" d="M5 4C3.34315 4 2 5.34315 2 7V17C2 18.6569 3.34315 20 5 20H13V18H5C4.44772 18 4 17.5523 4 17V7C4 6.44772 4.44772 6 5 6H7.78388C8.01539 6 8.23973 6.08033 8.41862 6.22727L10.8119 8.19318C11.3486 8.63402 12.0216 8.875 12.7161 8.875H19C19.5523 8.875 20 9.32272 20 9.875V10H22V9.875C22 8.21815 20.6569 6.875 19 6.875H12.7161C12.4846 6.875 12.2603 6.79467 12.0814 6.64773L9.6881 4.68182C9.15142 4.24098 8.47841 4 7.78388 4H5Z" fill="#64748B"/>
<path fill-rule="evenodd" clip-rule="evenodd" d="M15.7577 20L13.2652 18.4594C13.1849 18.4131 13.1178 18.3434 13.071 18.258C13.0243 18.1726 12.9997 18.0747 13 17.975V13.025C13 12.8161 13.1045 12.6344 13.2652 12.5405L15.7577 11L11.0682 11H7.7273L7.14231 11C6.33956 11 5.61459 11.4799 5.30108 12.2189L3.17988 17.2189C2.62035 18.5378 3.58837 20 5.02105 20H15.7577Z" fill="#64748B"/>
<path d="M21.5436 12.9148L18.4526 11.122C18.1726 10.9593 17.8286 10.9593 17.5487 11.122L14.4576 12.9148C14.2793 13.0183 14.1441 13.1777 14.0679 13.3648C14.0235 13.4741 14 13.5923 14 13.7145V17.2866C14 17.6171 14.1688 17.8915 14.4519 18.0561L14.8899 18.3087L14.9032 14.1182C14.9032 14.0295 14.9222 13.9375 14.9521 13.8572C15.0105 13.7119 15.1184 13.5795 15.2574 13.4991L17.6509 12.1113C17.868 11.9853 18.1339 11.9853 18.351 12.1113L20.7445 13.4991C20.9115 13.5962 21.0301 13.7569 21.0765 13.9408C21.0911 13.998 21.0987 14.0571 21.0987 14.1182V16.8842C21.0987 17.1401 20.9635 17.376 20.7445 17.5033L18.351 18.8911C18.2418 18.9548 18.12 18.9856 17.9981 18.985V20C18.1542 20 18.3116 19.9595 18.4513 19.8785L21.5424 18.0857C21.8255 17.9218 22 17.6164 22 17.286V13.7145C22 13.6296 21.9886 13.5467 21.9664 13.4676C21.9048 13.2369 21.7537 13.0369 21.5436 12.9148Z" fill="#FF7043"/>
<path d="M18.2514 17.9314L19.9683 16.9357C20.1258 16.8444 20.2222 16.6753 20.2222 16.4915V14.5084C20.2222 14.4666 20.2172 14.4261 20.2076 14.3862C20.1753 14.2519 20.0896 14.1349 19.9683 14.0642L18.2514 13.0691C18.0959 12.9791 17.9049 12.9791 17.7494 13.0691L16.0331 14.0642C15.9252 14.1272 15.8452 14.2268 15.8059 14.3419C15.7894 14.3939 15.7786 14.4524 15.7786 14.5084L15.7722 18.8127L16.6881 19.3334V17.3162L17.7494 17.9314C17.8255 17.9757 17.9106 17.9982 17.9956 17.9989C18.0839 18.0002 18.1721 17.9777 18.2514 17.9314ZM16.8322 16.3526C16.7389 16.2986 16.6811 16.1977 16.6811 16.0891V14.9114C16.6811 14.8754 16.6875 14.8407 16.6989 14.8079C16.723 14.7411 16.7694 14.6839 16.8322 14.6479L17.8516 14.0571C17.9436 14.0037 18.0572 14.0037 18.1499 14.0571L19.1692 14.6479C19.2441 14.6916 19.2962 14.7648 19.3133 14.8484C19.3165 14.8664 19.3197 14.8928 19.3197 14.9114V16.0891C19.3197 16.1977 19.2619 16.2986 19.1686 16.3526L18.1492 16.9434C18.1029 16.9704 18.0515 16.9839 18.0001 16.9839C17.9487 16.9839 17.8973 16.9704 17.8509 16.944L16.8322 16.3526Z" fill="#FF7043"/>
</svg>
