<svg width="24" height="24" viewBox="0 0 24 24" fill="none" xmlns="http://www.w3.org/2000/svg">
<path fill-rule="evenodd" clip-rule="evenodd" d="M5 4C3.34315 4 2 5.34315 2 7V17C2 18.6569 3.34315 20 5 20H13V18H5C4.44772 18 4 17.5523 4 17V7C4 6.44772 4.44772 6 5 6H7.78388C8.01539 6 8.23973 6.08033 8.41862 6.22727L10.8119 8.19318C11.3486 8.63402 12.0216 8.875 12.7161 8.875H19C19.5523 8.875 20 9.32272 20 9.875V10H22V9.875C22 8.21815 20.6569 6.875 19 6.875H12.7161C12.4846 6.875 12.2603 6.79467 12.0814 6.64773L9.6881 4.68182C9.15142 4.24098 8.47841 4 7.78388 4H5Z" fill="#64748B"/>
<path fill-rule="evenodd" clip-rule="evenodd" d="M15.1885 20H5.02105C3.58837 20 2.62035 18.5378 3.17988 17.2189L5.30108 12.2189C5.61459 11.4799 6.33956 11 7.14231 11L7.7273 11H11.0682L14 11L15 12C14.5829 12.3122 14.378 12.5793 14.1247 13.0559H13V14.2785V15V15.5004V16.7223V17.5V17.9449V19.1668H14.5802C14.7456 19.4756 14.9509 19.7563 15.1885 20Z" fill="#64748B"/>
<path fill-rule="evenodd" clip-rule="evenodd" d="M19.0001 15.5003H16.9999V14.5006H19.0001M19.0001 17.5004H16.9999V16.5007H19.0001M22 13.5003H20.5954C20.3697 13.1093 20.0585 12.7744 19.6851 12.5208L20.5 11.7052L19.7948 11L18.7101 12.0853C18.2452 11.9724 17.76 11.9724 17.2951 12.0853L16.2046 11.0007L15.4993 11.7059L16.3097 12.5201C15.9389 12.7755 15.6297 13.1104 15.4046 13.5003H14V14.5006H15.0448C15.0172 14.6658 15.0022 14.8327 14.9998 15.0001V15.5003H14V16.5H14.9998V17.0002C14.9998 17.17 15.0193 17.3352 15.0448 17.5004H14V18.5001H15.4046C15.9251 19.3947 16.8902 20 18.0003 20C19.1104 20 20.0749 19.3953 20.5954 18.5001H22V17.5004H20.9552C20.98 17.3352 21.0002 17.17 21.0002 17.0002V16.5H22V15.5003H21.0002V15.0001C21.0002 14.8304 20.9807 14.6652 20.9552 14.5006H22V13.5003Z" fill="#FFCE50"/>
</svg>
