<svg width="24" height="24" viewBox="0 0 24 24" fill="none" xmlns="http://www.w3.org/2000/svg">
<path fill-rule="evenodd" clip-rule="evenodd" d="M5 4C3.34315 4 2 5.34315 2 7V17C2 18.6569 3.34315 20 5 20H12V18H5C4.44772 18 4 17.5523 4 17V7C4 6.44772 4.44772 6 5 6H7.78388C8.01539 6 8.23973 6.08033 8.41862 6.22727L10.8119 8.19318C11.3486 8.63402 12.0216 8.875 12.7161 8.875H19C19.5523 8.875 20 9.32272 20 9.875V10H22V9.875C22 8.21815 20.6569 6.875 19 6.875H12.7161C12.4846 6.875 12.2603 6.79467 12.0814 6.64773L9.6881 4.68182C9.15142 4.24098 8.47841 4 7.78388 4H5Z" fill="#64748B"/>
<path fill-rule="evenodd" clip-rule="evenodd" d="M12.2675 11C12.0974 11.2942 12 11.6357 12 12C12 12.5973 12.2619 13.1335 12.6771 13.5C12.2619 13.8664 12 14.4026 12 15C12 15.5973 12.2619 16.1335 12.6771 16.5C12.2619 16.8664 12 17.4026 12 18C12 19.102 12.8913 19.9958 13.9924 20H5.02105C3.58837 20 2.62035 18.5378 3.17988 17.2189L5.30108 12.2189C5.61459 11.4799 6.33956 11 7.14231 11L7.7273 11H11.0682L12.2675 11Z" fill="#64748B"/>
<path fill-rule="evenodd" clip-rule="evenodd" d="M14.0839 11.0007C13.9436 10.9957 13.8036 11.0183 13.6724 11.0671C13.5413 11.116 13.4215 11.1901 13.3204 11.285C13.2193 11.38 13.1389 11.4938 13.0839 11.6197C13.029 11.7455 13.0007 11.8809 13.0007 12.0177C13.0007 12.1545 13.029 12.2898 13.0839 12.4157C13.1389 12.5416 13.2193 12.6554 13.3204 12.7503C13.4215 12.8453 13.5413 12.9194 13.6724 12.9682C13.8036 13.0171 13.9436 13.0397 14.0839 13.0347H18.2124C18.4827 13.0251 18.7387 12.9137 18.9265 12.724C19.1143 12.5344 19.2192 12.2812 19.2192 12.0177C19.2192 11.7542 19.1143 11.501 18.9265 11.3113C18.7387 11.1217 18.4827 11.0103 18.2124 11.0007H14.0839ZM20.9074 11.0007C20.6246 11.0005 20.3533 11.1075 20.1532 11.298C19.953 11.4886 19.8404 11.7472 19.84 12.017C19.84 12.1507 19.8676 12.2831 19.9212 12.4066C19.9749 12.5301 20.0535 12.6423 20.1527 12.7369C20.2518 12.8314 20.3694 12.9063 20.4989 12.9574C20.6284 13.0085 20.7672 13.0348 20.9074 13.0347C21.19 13.0343 21.461 12.927 21.6607 12.7361C21.8605 12.5453 21.9727 12.2867 21.9727 12.017C21.9723 11.7476 21.8599 11.4893 21.6602 11.2987C21.4605 11.1082 21.1898 11.001 20.9074 11.0007ZM14.1035 14.017C13.5125 14.017 13.0382 14.4803 13.0382 15.0558C13.0382 15.6238 13.5132 16.0878 14.1035 16.0946C14.6945 16.0946 15.1709 15.6313 15.1709 15.0558C15.1709 14.4803 14.6945 14.017 14.1035 14.017ZM16.6839 14.0381C16.4115 14.0628 16.1598 14.1903 15.9827 14.3933C15.8055 14.5963 15.7169 14.8587 15.7358 15.1245C15.7546 15.3903 15.8795 15.6384 16.0837 15.8157C16.2879 15.993 16.5552 16.0855 16.8285 16.0735H21.0506C21.3226 16.0485 21.5739 15.921 21.7508 15.7182C21.9277 15.5154 22.0162 15.2533 21.9975 14.9878C21.9789 14.7223 21.8544 14.4745 21.6508 14.2971C21.4471 14.1196 21.1804 14.0267 20.9074 14.0381H16.6846H16.6839ZM14.0832 16.9653C13.9429 16.9603 13.8029 16.9829 13.6717 17.0318C13.5406 17.0806 13.4208 17.1547 13.3197 17.2497C13.2186 17.3446 13.1382 17.4584 13.0832 17.5843C13.0283 17.7102 13 17.8455 13 17.9823C13 18.1191 13.0283 18.2545 13.0832 18.3803C13.1382 18.5062 13.2186 18.62 13.3197 18.715C13.4208 18.8099 13.5406 18.884 13.6717 18.9329C13.8029 18.9817 13.9429 19.0043 14.0832 18.9993H18.2117C18.482 18.9897 18.738 18.8783 18.9258 18.6887C19.1136 18.499 19.2185 18.2458 19.2185 17.9823C19.2185 17.7188 19.1136 17.4656 18.9258 17.276C18.738 17.0863 18.482 16.9749 18.2117 16.9653H14.0832ZM20.9067 16.9653C20.6239 16.9651 20.3526 17.0721 20.1525 17.2627C19.9523 17.4532 19.8397 17.7118 19.8393 17.9816C19.8393 18.1153 19.8669 18.2477 19.9205 18.3712C19.9742 18.4948 20.0528 18.607 20.152 18.7015C20.2511 18.796 20.3688 18.8709 20.4982 18.922C20.6277 18.9731 20.7665 18.9994 20.9067 18.9993C21.1893 18.999 21.4603 18.8916 21.66 18.7008C21.8598 18.51 21.972 18.2513 21.972 17.9816C21.9716 17.7122 21.8592 17.4539 21.6595 17.2634C21.4598 17.0728 21.1891 16.9657 20.9067 16.9653Z" fill="#FF7043"/>
</svg>
