<svg width="24" height="24" viewBox="0 0 24 24" fill="none" xmlns="http://www.w3.org/2000/svg">
<path fill-rule="evenodd" clip-rule="evenodd" d="M5 4C3.34315 4 2 5.34315 2 7V17C2 18.6569 3.34315 20 5 20H13V18H5C4.44772 18 4 17.5523 4 17V7C4 6.44772 4.44772 6 5 6H7.78388C8.01539 6 8.23973 6.08033 8.41862 6.22727L10.8119 8.19318C11.3486 8.63402 12.0216 8.875 12.7161 8.875H19C19.5523 8.875 20 9.32272 20 9.875V10H22V9.875C22 8.21815 20.6569 6.875 19 6.875H12.7161C12.4846 6.875 12.2603 6.79467 12.0814 6.64773L9.6881 4.68182C9.15142 4.24098 8.47841 4 7.78388 4H5Z" fill="#64748B"/>
<path fill-rule="evenodd" clip-rule="evenodd" d="M16.2418 11L16.173 11.5348C15.8932 11.6593 15.6303 11.8241 15.3914 12.0247L14.2393 11.525C14.188 11.5032 14.131 11.5023 14.0791 11.5226C14.0272 11.5428 13.9839 11.5827 13.9573 11.6349L13.0318 13.3647C13.0035 13.4162 12.9937 13.4772 13.004 13.5361C13.0143 13.595 13.0442 13.6478 13.0879 13.6847L14.0632 14.4999C14.045 14.6697 14.0309 14.835 14.0309 15.0004C14.0309 15.1657 14.045 15.3249 14.0632 15.4849L13.0879 16.3145C13.0442 16.3514 13.0143 16.4042 13.004 16.4631C12.9937 16.522 13.0035 16.583 13.0318 16.6345L13.9573 18.365C13.9848 18.4163 14.0281 18.4555 14.0797 18.4756C14.1313 18.4957 14.1878 18.4955 14.2393 18.475L15.3914 17.9699C15.6313 18.1701 15.8811 18.34 16.173 18.4651L16.3442 19.7899C16.3535 19.8489 16.3819 19.9024 16.4243 19.9409C16.4657 19.9785 16.5179 19.9993 16.572 20H5.02105C3.58837 20 2.62035 18.5378 3.17988 17.2189L5.30108 12.2189C5.61459 11.4799 6.33956 11 7.14231 11L7.7273 11H11.0682L16.2418 11ZM18.5 20H18.674C18.6784 20 18.6829 19.9999 18.6874 19.9999C18.5964 19.9908 18.5168 19.9848 18.5 20Z" fill="#64748B"/>
<path fill-rule="evenodd" clip-rule="evenodd" d="M18.0004 16.3999C17.6187 16.3999 17.2525 16.2523 16.9826 15.9898C16.7127 15.7272 16.561 15.371 16.561 14.9997C16.5612 14.6285 16.7129 14.2725 16.9828 14.01C17.2527 13.7476 17.6188 13.6001 18.0004 13.6001C18.3821 13.6001 18.7481 13.7476 19.018 14.01C19.288 14.2725 19.4397 14.6285 19.4399 14.9997C19.4399 15.371 19.2882 15.7272 19.0183 15.9898C18.7483 16.2523 18.3822 16.3999 18.0004 16.3999ZM21.0558 15.388C21.072 15.26 21.0845 15.1319 21.0845 14.9997C21.0845 14.8681 21.072 14.7358 21.0558 14.5999L21.9233 13.9478C21.9614 13.9177 21.9872 13.8755 21.9964 13.8286C22.0055 13.7818 21.9973 13.7333 21.9732 13.6917L21.15 12.3086C21.1007 12.22 20.9897 12.1842 20.8992 12.22L19.8758 12.6204C19.6633 12.4596 19.4294 12.3276 19.1804 12.2279L19.0282 11.168C19.02 11.1209 18.9947 11.0781 18.957 11.0473C18.9193 11.0165 18.8716 10.9998 18.8224 11H17.1778C17.1286 10.9998 17.0809 11.0165 17.0432 11.0473C17.0055 11.0781 16.9803 11.1209 16.972 11.168L16.8204 12.2279C16.5717 12.3274 16.338 12.4593 16.1257 12.6198L15.1016 12.22C15.056 12.2026 15.0054 12.2019 14.9592 12.2181C14.9131 12.2343 14.8746 12.2662 14.8509 12.308L14.0283 13.6917C14.0032 13.733 13.9944 13.7818 14.0035 13.8289C14.0127 13.876 14.0393 13.9183 14.0782 13.9478L14.9451 14.5999C14.9289 14.7358 14.9164 14.8681 14.9164 15.0003C14.9164 15.1326 14.9289 15.26 14.9451 15.388L14.0782 16.0516C14.0393 16.0811 14.0127 16.1234 14.0035 16.1705C13.9944 16.2176 14.0032 16.2664 14.0283 16.3077L14.8509 17.692C14.8754 17.7331 14.9139 17.7644 14.9598 17.7805C15.0056 17.7966 15.0559 17.7964 15.1016 17.78L16.1257 17.376C16.339 17.5361 16.561 17.672 16.8204 17.7721L16.9726 18.832C16.9809 18.8791 17.0061 18.9219 17.0438 18.9527C17.0815 18.9835 17.1292 19.0002 17.1784 19H18.8231C18.8723 19.0002 18.92 18.9835 18.9577 18.9527C18.9954 18.9219 19.0206 18.8791 19.0289 18.832L19.1804 17.7721C19.4295 17.6712 19.6634 17.5379 19.8758 17.376L20.8992 17.78C20.9897 17.8116 21.1007 17.78 21.1506 17.692L21.9726 16.3077C21.9967 16.2662 22.005 16.2177 21.996 16.1709C21.987 16.124 21.9613 16.0818 21.9233 16.0516L21.0558 15.388Z" fill="#CFD8DC"/>
</svg>
