<svg width="24" height="24" viewBox="0 0 24 24" fill="none" xmlns="http://www.w3.org/2000/svg">
<path fill-rule="evenodd" clip-rule="evenodd" d="M5 4C3.34315 4 2 5.34315 2 7V17C2 18.6569 3.34315 20 5 20H13V18H5C4.44772 18 4 17.5523 4 17V7C4 6.44772 4.44772 6 5 6H7.78388C8.01539 6 8.23973 6.08033 8.41862 6.22727L10.8119 8.19318C11.3486 8.63402 12.0216 8.875 12.7161 8.875H19C19.5523 8.875 20 9.32272 20 9.875V10H22V9.875C22 8.21815 20.6569 6.875 19 6.875H12.7161C12.4846 6.875 12.2603 6.79467 12.0814 6.64773L9.6881 4.68182C9.15142 4.24098 8.47841 4 7.78388 4H5Z" fill="#64748B"/>
<path fill-rule="evenodd" clip-rule="evenodd" d="M13.0055 11C13.0019 11.0366 13 11.0738 13 11.1113V18.8896C13 19.4981 13.4917 19.9969 14.1056 20H5.02105C3.58837 20 2.62035 18.5378 3.17988 17.2189L5.30108 12.2189C5.61459 11.4799 6.33956 11 7.14231 11L7.7273 11H11.0682L13.0055 11Z" fill="#64748B"/>
<path fill-rule="evenodd" clip-rule="evenodd" d="M20.2226 11H14.889C14.3951 11 14 11.4 14 11.889V18.1117C14 18.6 14.3958 19 14.889 19H21.1117C21.6 19 22 18.6 22 18.1117V12.7781L20.2226 11ZM18 18.1117C17.8249 18.1118 17.6514 18.0775 17.4896 18.0105C17.3277 17.9435 17.1807 17.8453 17.0569 17.7214C16.933 17.5975 16.8349 17.4505 16.768 17.2886C16.7011 17.1267 16.6669 16.9532 16.6671 16.7781C16.6671 16.0407 17.2626 15.4445 18 15.4445C18.7374 15.4445 19.3336 16.04 19.3336 16.7781C19.3336 17.5155 18.7381 18.1117 18 18.1117ZM19.3336 13.6664H14.889V11.889H19.3336V13.6664Z" fill="#CFD8DC"/>
</svg>
