<svg width="24" height="24" viewBox="0 0 24 24" fill="none" xmlns="http://www.w3.org/2000/svg">
<path fill-rule="evenodd" clip-rule="evenodd" d="M5 4C3.34315 4 2 5.34315 2 7V17C2 18.6569 3.34315 20 5 20H12V18H5C4.44772 18 4 17.5523 4 17V7C4 6.44772 4.44772 6 5 6H7.78388C8.01539 6 8.23973 6.08033 8.41862 6.22727L10.8119 8.19318C11.3486 8.63402 12.0216 8.875 12.7161 8.875H19C19.5523 8.875 20 9.32272 20 9.875V10H22V9.875C22 8.21815 20.6569 6.875 19 6.875H12.7161C12.4846 6.875 12.2603 6.79467 12.0814 6.64773L9.6881 4.68182C9.15142 4.24098 8.47841 4 7.78388 4H5Z" fill="#64748B"/>
<path fill-rule="evenodd" clip-rule="evenodd" d="M11.0682 11L16.9485 11V13.1251L17 13.1779H18L18.0515 13.1251V11L20.2648 11C21.6185 11 22.5811 12.3165 22.1707 13.6064L21.9195 14.396H19.2655L19.214 14.448V15.5L19.2655 15.552H21.5517L20.5798 18.6064C20.3157 19.4364 19.5449 20 18.674 20H5.02105C3.58837 20 2.62035 18.5378 3.17988 17.2189L5.30108 12.2189C5.61459 11.4799 6.33956 11 7.14231 11L7.7273 11H11.0682ZM15.3 12.1L14.6864 12.7V12.9136L15.5 13.7L16 13.6846V16.2835H15.45L14.55 17.2V17.3197L15.3 18.1H15.38L16.3 17.18L16.2778 16.5801L17.2169 16.5801L17.2808 16.4999V15.0816C17.2808 15.0816 17.6721 15.1002 17.6721 15.5V16.4999L17.7361 16.5801H18.936L19 16.5V14.5201C19 13.6804 18.4572 13.3187 17.7874 13.3187H16.2694V12.9136L15.5 12.1H15.3ZM12.8105 14.3843L12.759 14.4363V15.5315L12.8105 15.5835H15.8225L15.874 15.5315V14.4363L15.8225 14.3843H12.8105ZM16.8686 16.7578L16.8171 16.8106V19.2872L16.8686 19.3392H18.156L18.2075 19.2872V16.8106L18.156 16.7578H16.8686Z" fill="#64748B"/>
<path d="M17.1955 11L17.1441 11.052V12.922L17.1955 12.9748H17.8139L17.8654 12.922V11.052L17.8139 11H17.1955ZM15.3468 12.3197L14.9232 12.7477V12.834L15.5716 13.4891H16.0205L16.0807 13.4283V12.9748L15.4323 12.3197L15.3468 12.3197ZM13.0515 14.6353L13 14.6873V15.3127L13.0515 15.3647H15.5202L15.5717 15.3127V14.6873L15.5202 14.6353H13.0515ZM19.4798 14.6353L19.4283 14.6873V15.3127L19.4798 15.3647H21.9485L22 15.3127V14.6873L21.9485 14.6353H19.4798ZM15.5717 16.5109L14.9232 17.166V17.2516L15.3468 17.6803H15.4323L16.0808 17.0252V16.5709L16.0206 16.5109L15.5717 16.5109ZM17.1955 17.0252L17.1441 17.078V18.948L17.1955 19H17.8139L17.8654 18.948V17.078L17.8139 17.0252H17.1955Z" fill="#00BFA5"/>
<path d="M18.6568 16.2989H18.0397L17.9882 16.2468V14.7876C17.9882 14.528 17.8872 14.3267 17.5773 14.3197C17.4178 14.3155 17.2353 14.3197 17.0403 14.3274L17.011 14.3577V16.2461L16.9595 16.2982H16.3424L16.2909 16.2461V13.7534L16.3424 13.7013H17.7312C18.2709 13.7013 18.7083 14.1431 18.7083 14.6884V16.2469L18.6568 16.2989Z" fill="#CFD8DC"/>
</svg>
