<svg width="24" height="24" viewBox="0 0 24 24" fill="none" xmlns="http://www.w3.org/2000/svg">
<path fill-rule="evenodd" clip-rule="evenodd" d="M5 4C3.34315 4 2 5.34315 2 7V17C2 18.6569 3.34315 20 5 20H13V18H5C4.44772 18 4 17.5523 4 17V7C4 6.44772 4.44772 6 5 6H7.78388C8.01539 6 8.23973 6.08033 8.41862 6.22727L10.8119 8.19318C11.3486 8.63402 12.0216 8.875 12.7161 8.875H19C19.5523 8.875 20 9.32272 20 9.875V10H22V9.875C22 8.21815 20.6569 6.875 19 6.875H12.7161C12.4846 6.875 12.2603 6.79467 12.0814 6.64773L9.6881 4.68182C9.15142 4.24098 8.47841 4 7.78388 4H5Z" fill="#64748B"/>
<path fill-rule="evenodd" clip-rule="evenodd" d="M5.30108 12.2189C5.61459 11.4799 6.33956 11 7.14231 11L7.7273 11H11.0682L20.2648 11C21.0222 11 21.6572 11.4121 21.9977 12.0011L21.9635 12.0183C21.7364 11.7043 21.367 11.5 20.95 11.5C20.477 11.5 20.0654 11.7626 19.8531 12.15H16.0468C15.8345 11.7626 15.4229 11.5 14.95 11.5C14.2596 11.5 13.7 12.0596 13.7 12.75C13.7 13.1361 13.875 13.4813 14.15 13.7105V17.7895C13.875 18.0187 13.7 18.3639 13.7 18.75C13.7 19.4383 14.2563 19.9967 14.9439 20H5.02105C3.58837 20 2.62035 18.5378 3.17988 17.2189L5.30108 12.2189ZM14.956 20H15V19.999C14.9854 19.9996 14.9707 19.9999 14.956 20Z" fill="#64748B"/>
<rect x="15" y="13" width="6" height="6" stroke="#52525B" stroke-width="0.7"/>
<rect x="14.2" y="12" width="1.5" height="1.5" rx="0.75" fill="#F472B6"/>
<rect x="20.2" y="12" width="1.5" height="1.5" rx="0.75" fill="#F472B6"/>
<rect x="20.2" y="18" width="1.5" height="1.5" rx="0.75" fill="#F472B6"/>
<rect x="14.2" y="18" width="1.5" height="1.5" rx="0.75" fill="#F472B6"/>
</svg>
