<svg width="24" height="24" viewBox="0 0 24 24" fill="none" xmlns="http://www.w3.org/2000/svg">
<path fill-rule="evenodd" clip-rule="evenodd" d="M5 4C3.34315 4 2 5.34315 2 7V17C2 18.6569 3.34315 20 5 20H10V18H5C4.44772 18 4 17.5523 4 17V7C4 6.44772 4.44772 6 5 6H7.78388C8.01539 6 8.23973 6.08033 8.41862 6.22727L10.8119 8.19318C11.3486 8.63402 12.0216 8.875 12.7161 8.875H19C19.5523 8.875 20 9.32272 20 9.875V10H22V9.875C22 8.21815 20.6569 6.875 19 6.875H12.7161C12.4846 6.875 12.2603 6.79467 12.0814 6.64773L9.6881 4.68182C9.15142 4.24098 8.47841 4 7.78388 4H5Z" fill="#64748B"/>
<path fill-rule="evenodd" clip-rule="evenodd" d="M14.8255 11L11.0682 11H7.7273L7.14231 11C6.33956 11 5.61459 11.4799 5.30108 12.2189L3.17988 17.2189C2.62035 18.5378 3.58837 20 5.02105 20H12.4999C11.7237 19.6118 11.3958 18.8667 11.1738 18.3621C11.1098 18.2167 11.0546 18.0912 11 18L12.5 16.5C12.5 16.5 13 17 13.5 17C13.5 17 14 17 14 16.5V15.5H12.5V13.5H14.2007L14.4483 12.0986C14.4815 11.7012 14.613 11.3235 14.8255 11Z" fill="#64748B"/>
<path fill-rule="evenodd" clip-rule="evenodd" d="M17.21 11.9273C17.0789 11.9165 16.9468 11.9295 16.8213 11.9656C16.6957 12.0017 16.5791 12.0602 16.4783 12.1377C16.3774 12.2152 16.2943 12.3102 16.2336 12.4172C16.1729 12.5243 16.1359 12.6412 16.1247 12.7614L16.0005 14.0866H17.4103V15.0032H15.9096L15.6899 17.3268C15.6525 17.7096 15.4848 18.072 15.2106 18.3627C14.9363 18.6534 14.5694 18.8578 14.1616 18.9469C13.7538 19.0361 13.3257 19.0056 12.9379 18.8597C12.55 18.7139 12.2219 18.4599 12 18.1339L12.7499 17.4464C12.7891 17.5609 12.8525 17.6672 12.9366 17.7592C13.0206 17.8512 13.1237 17.927 13.2399 17.9824C13.356 18.0377 13.4829 18.0715 13.6134 18.0817C13.7438 18.092 13.8751 18.0785 13.9998 18.0421C14.3896 17.9318 14.6652 17.6151 14.7001 17.245L14.9097 15.0032H13.4098V14.0866H14.9998L15.1349 12.6789C15.1809 12.1942 15.4346 11.746 15.8405 11.4325C16.2463 11.119 16.7712 10.9658 17.3001 11.0064C17.9297 11.0562 18.5003 11.3772 18.8294 11.8725L18.0803 12.56C18.0195 12.3876 17.9044 12.2355 17.7496 12.1229C17.5947 12.0104 17.407 11.9423 17.21 11.9273ZM22 15.759L21.2951 15.1128L19.8798 16.4102L18.4653 15.1128L17.7503 15.759L19.1749 17.0657L17.7503 18.3538L18.4646 19L19.8798 17.7026L21.2951 19L22 18.3538L20.5847 17.0657L22 15.759Z" fill="#8CDBFF"/>
</svg>
