<svg width="24" height="24" viewBox="0 0 24 24" fill="none" xmlns="http://www.w3.org/2000/svg">
<path fill-rule="evenodd" clip-rule="evenodd" d="M5 4C3.34315 4 2 5.34315 2 7V17C2 18.6569 3.34315 20 5 20H13V18H5C4.44772 18 4 17.5523 4 17V7C4 6.44772 4.44772 6 5 6H7.78388C8.01539 6 8.23973 6.08033 8.41862 6.22727L10.8119 8.19318C11.3486 8.63402 12.0216 8.875 12.7161 8.875H19C19.5523 8.875 20 9.32272 20 9.875V10H22V9.875C22 8.21815 20.6569 6.875 19 6.875H12.7161C12.4846 6.875 12.2603 6.79467 12.0814 6.64773L9.6881 4.68182C9.15142 4.24098 8.47841 4 7.78388 4H5Z" fill="#64748B"/>
<path fill-rule="evenodd" clip-rule="evenodd" d="M16 14.5563V17.2634C15.7367 17.2118 15.4998 16.9649 15.4998 16.6823V15.0914C15.4998 14.849 15.7367 14.6072 16 14.5563ZM15.0252 11L13 11.8183V14.5458C13 16.9869 14.7976 19.2746 17.2519 19.9389L17.3333 20H5.02105C3.58837 20 2.62035 18.5378 3.17988 17.2189L5.30108 12.2189C5.61459 11.4799 6.33956 11 7.14231 11L7.7273 11H11.0682L15.0252 11Z" fill="#64748B"/>
<path fill-rule="evenodd" clip-rule="evenodd" d="M17.5 11L14 12.4547V14.6366C14 16.6548 15.4931 18.5418 17.5 19C19.5069 18.5418 21 16.6548 21 14.6366V12.4541L17.5 11ZM17.5 13.1826C18.0444 13.1826 18.5889 13.5822 18.5889 14.0913V14.6372C18.8223 14.6372 19.0557 14.8549 19.0557 15.11V16.3827C19.0557 16.6004 18.8223 16.8186 18.5501 16.8186H16.4111C16.1777 16.8186 15.9443 16.6003 15.9443 16.3458V15.0731C15.9443 14.8549 16.1777 14.6372 16.4111 14.6372V14.0913C16.4111 13.5822 16.9556 13.1826 17.5 13.1826ZM17.5 13.6185C17.189 13.6185 16.9168 13.8005 16.9168 14.0913V14.6372H18.0832V14.0913C18.0832 13.8005 17.811 13.6185 17.5 13.6185Z" fill="#89FF8D"/>
</svg>
