<svg width="24" height="24" viewBox="0 0 24 24" fill="none" xmlns="http://www.w3.org/2000/svg">
<path fill-rule="evenodd" clip-rule="evenodd" d="M5 4C3.34315 4 2 5.34315 2 7V17C2 18.6569 3.34315 20 5 20H9V18H5C4.44772 18 4 17.5523 4 17V7C4 6.44772 4.44772 6 5 6H7.78388C8.01539 6 8.23973 6.08033 8.41862 6.22727L10.8119 8.19318C11.3486 8.63402 12.0216 8.875 12.7161 8.875H19C19.5523 8.875 20 9.32272 20 9.875V10H22V9.875C22 8.21815 20.6569 6.875 19 6.875H12.7161C12.4846 6.875 12.2603 6.79467 12.0814 6.64773L9.6881 4.68182C9.15142 4.24098 8.47841 4 7.78388 4H5Z" fill="#64748B"/>
<path fill-rule="evenodd" clip-rule="evenodd" d="M10.5002 11V16.5H9.5V19H20.4062C20.0544 19.6095 19.3989 20 18.674 20H5.02105C3.58837 20 2.62035 18.5378 3.17988 17.2189L5.30108 12.2189C5.61459 11.4799 6.33956 11 7.14231 11L7.7273 11H10.5002Z" fill="#64748B"/>
<path fill-rule="evenodd" clip-rule="evenodd" d="M20.1665 17.1764V11H11.8335V17.1764H11V18H21V17.1772L20.1665 17.1764ZM16.8335 17.1764H15.1665V16.7654H16.8335V17.1764ZM19.3339 15.9417H12.6669V11.8236H19.3331L19.3339 15.9417Z" fill="#8CDBFF"/>
</svg>
