<svg width="24" height="24" viewBox="0 0 24 24" fill="none" xmlns="http://www.w3.org/2000/svg">
<path fill-rule="evenodd" clip-rule="evenodd" d="M5 4C3.34315 4 2 5.34315 2 7V17C2 18.6569 3.34315 20 5 20H13V18H5C4.44772 18 4 17.5523 4 17V7C4 6.44772 4.44772 6 5 6H7.78388C8.01539 6 8.23973 6.08033 8.41862 6.22727L10.8119 8.19318C11.3486 8.63402 12.0216 8.875 12.7161 8.875H19C19.5523 8.875 20 9.32272 20 9.875V10H22V9.875C22 8.21815 20.6569 6.875 19 6.875H12.7161C12.4846 6.875 12.2603 6.79467 12.0814 6.64773L9.6881 4.68182C9.15142 4.24098 8.47841 4 7.78388 4H5Z" fill="#64748B"/>
<path fill-rule="evenodd" clip-rule="evenodd" d="M17.2801 11L15.7256 11L16.2981 11.4841C16.5851 11.3504 16.8849 11.259 17.1894 11.2125L17.2801 11ZM14.7481 11L13.6472 12.1658C13.6053 12.2093 13.5783 12.2673 13.5714 12.3287C13.5645 12.3902 13.5781 12.451 13.6096 12.4997L14.3139 13.5802C14.2478 13.7442 14.1871 13.9048 14.1398 14.0693C14.0926 14.2338 14.0605 14.3961 14.0323 14.5603L12.8578 15.1165C12.8052 15.1411 12.7614 15.1854 12.7346 15.2411C12.7079 15.2969 12.6999 15.3603 12.7124 15.4194L13.1071 17.3969C13.1189 17.4555 13.1494 17.5064 13.1932 17.5407C13.237 17.575 13.2914 17.5904 13.3467 17.5842L14.2502 17.5842C14.3118 17.6785 14.3495 17.7556 14.3833 17.8251C14.4449 17.9513 14.4941 18.0521 14.6519 18.1844L14.106 19.1817C14.0981 19.2429 14.1101 19.304 14.1398 19.354L14.637 20H5.02105C3.58837 20 2.62035 18.5378 3.17988 17.2189L5.30108 12.2189C5.61459 11.4799 6.33956 11 7.14231 11L7.7273 11H11.0682L14.7481 11ZM19.3247 19.8913C19.8874 19.6975 20.3462 19.258 20.555 18.6795L19.9187 19.354C19.8333 19.4479 19.702 19.4526 19.6155 19.3853L19.3247 19.8913Z" fill="#64748B"/>
<path fill-rule="evenodd" clip-rule="evenodd" d="M19.5681 11.0518C19.101 10.9827 18.6265 10.9827 18.1594 11.0518L17.8512 11.8619C17.4624 11.9608 17.0898 12.1163 16.7454 12.3233L15.9588 11.9701C15.5803 12.2539 15.2448 12.5918 14.9631 12.9731L15.3137 13.7655C15.1082 14.1124 14.9539 14.4876 14.8557 14.8793L14.0514 15.1898C13.9829 15.6602 13.9829 16.1383 14.0514 16.6087L14.8557 16.9192C14.9539 17.3109 15.1082 17.6861 15.3137 18.0331L14.9631 18.8254C15.2448 19.2067 15.5803 19.5446 15.9588 19.8284L16.7454 19.4752C17.0898 19.6822 17.4624 19.8377 17.8512 19.9366L18.1594 20.7467C18.6263 20.8158 19.1012 20.8158 19.5681 20.7467L19.8763 19.9366C20.2652 19.8377 20.6377 19.6822 20.9821 19.4752L21.7687 19.8284C22.1472 19.5446 22.4827 19.2067 22.7644 18.8254L22.4138 18.0331C22.6193 17.6861 22.7736 17.3109 22.8719 16.9192L23.6761 16.6087C23.7447 16.1384 23.7447 15.6601 23.6761 15.1898L22.8719 14.8793C22.7736 14.4876 22.6193 14.1124 22.4138 13.7655L22.7644 12.9731C22.4827 12.5918 22.1472 12.2539 21.7687 11.9701L20.9821 12.3233C20.6377 12.1163 20.2652 11.9608 19.8763 11.8619L19.5681 11.0518ZM18.8638 12.7598C20.5837 12.7598 21.9805 14.1667 21.9805 15.8993C21.9805 17.6318 20.5837 19.0387 18.8638 19.0387C17.1438 19.0387 15.747 17.6318 15.747 15.8993C15.747 14.1667 17.1438 12.7598 18.8638 12.7598Z" fill="#0EA5E9"/>
<path fill-rule="evenodd" clip-rule="evenodd" d="M20.1151 17.1575C19.9511 17.3236 19.7561 17.4553 19.5414 17.5451C19.3266 17.635 19.0963 17.6811 18.8638 17.6808C17.8875 17.6808 17.0952 16.8827 17.0952 15.8993C17.0952 14.9159 17.8875 14.1178 18.8638 14.1178C19.3524 14.1178 19.795 14.3178 20.1151 14.6411L19.4899 15.2704C19.3663 15.1456 19.2088 15.0605 19.0372 15.0259C18.8656 14.9913 18.6876 15.0088 18.5259 15.0761C18.3641 15.1434 18.2258 15.2576 18.1286 15.4041C18.0313 15.5507 17.9793 15.723 17.9793 15.8993C17.9793 16.0756 18.0313 16.2479 18.1286 16.3945C18.2258 16.541 18.3641 16.6552 18.5259 16.7225C18.6876 16.7899 18.8656 16.8073 19.0372 16.7727C19.2088 16.7381 19.3663 16.653 19.4899 16.5282L20.1151 17.1575Z" fill="#0EA5E9"/>
</svg>
