<svg width="24" height="24" viewBox="0 0 24 24" fill="none" xmlns="http://www.w3.org/2000/svg">
<path fill-rule="evenodd" clip-rule="evenodd" d="M5 4C3.34315 4 2 5.34315 2 7V17C2 18.6569 3.34315 20 5 20H13V18H5C4.44772 18 4 17.5523 4 17V7C4 6.44772 4.44772 6 5 6H7.78388C8.01539 6 8.23973 6.08033 8.41862 6.22727L10.8119 8.19318C11.3486 8.63402 12.0216 8.875 12.7161 8.875H19C19.5523 8.875 20 9.32272 20 9.875V10H22V9.875C22 8.21815 20.6569 6.875 19 6.875H12.7161C12.4846 6.875 12.2603 6.79467 12.0814 6.64773L9.6881 4.68182C9.15142 4.24098 8.47841 4 7.78388 4H5Z" fill="#64748B"/>
<path fill-rule="evenodd" clip-rule="evenodd" d="M13.6446 11L11.0682 11H7.7273L7.14231 11C6.33956 11 5.61459 11.4799 5.30108 12.2189L3.17988 17.2189C2.62035 18.5378 3.58837 20 5.02105 20H15.8691C15.2305 19.986 14.6714 19.8434 14.1916 19.5569C13.7116 19.27 13.5467 18.8518 13.5467 18.3028V16.6502C13.5467 16.2065 13.3014 15.8669 12.9611 15.6309C12.7556 15.486 12.385 15.372 12 15.2877V14.6485C12.4344 14.5324 12.8163 14.4039 12.9953 14.2632C13.3129 14.0201 13.5471 13.6489 13.5471 13.1492V11.7342C13.5471 11.7075 13.5468 11.6809 13.5466 11.6541C13.5453 11.5007 13.5439 11.3443 13.5858 11.1692C13.6003 11.1104 13.6201 11.054 13.6446 11ZM15.8724 20H15.9924C15.9804 19.9999 15.9685 19.9998 15.9567 19.9995L15.8724 20ZM14 15.0763V14.8834C13.9174 14.9192 13.8307 14.9535 13.7399 14.9865C13.8311 15.0158 13.9178 15.0457 14 15.0763ZM15.566 11.0472C15.5743 11.04 15.5827 11.033 15.5913 11.0262C15.6025 11.0173 15.6147 11.0086 15.6277 11L15.9905 11C15.8448 11.0007 15.7028 11.0169 15.566 11.0472Z" fill="#64748B"/>
<path fill-rule="evenodd" clip-rule="evenodd" d="M15.7354 11V11.0009C15.6504 11.0004 15.5655 11.0002 15.4805 11.0003C15.1769 10.998 14.9228 11.1385 14.7017 11.285C14.4605 11.4455 14.254 11.6549 14.1893 11.9354C14.1525 12.0999 14.1603 12.2437 14.1603 12.3873V13.5194C14.1603 13.9191 13.9847 14.2161 13.7464 14.4105C13.6122 14.5231 13.3258 14.6259 13 14.7188V15.2302C13.2887 15.2976 13.5667 15.3888 13.7209 15.5047C13.976 15.6935 14.16 15.9653 14.16 16.3202V17.6422C14.16 18.0814 14.2837 18.416 14.6437 18.6455C15.0037 18.8748 15.4232 18.9889 15.9023 19L16.2229 18.9982V18.339C15.9728 18.277 15.8338 18.2051 15.7337 18.1237C15.5534 17.9855 15.4513 17.7609 15.4513 17.4491V16.3816C15.4445 16.0185 15.3753 15.7345 15.2192 15.529C15.063 15.324 14.7583 15.1442 14.305 14.9893C14.8053 14.7951 15.141 14.5421 15.3122 14.2299C15.4131 14.0442 15.4514 13.7939 15.4514 13.479V12.5002C15.4514 12.1769 15.54 11.9504 15.6935 11.821C15.7768 11.7508 15.9249 11.693 16.1307 11.6462L16.4562 11.6481V11H15.7354ZM19.2646 11V11.0009C19.3496 11.0004 19.4345 11.0002 19.5195 11.0003C19.8231 10.998 20.0772 11.1385 20.2983 11.285C20.5395 11.4455 20.746 11.6549 20.8107 11.9354C20.8475 12.0999 20.8397 12.2437 20.8397 12.3873V13.5194C20.8397 13.9191 21.0153 14.2161 21.2536 14.4105C21.3878 14.5231 21.6742 14.6259 22 14.7188V15.2302C21.7113 15.2976 21.4333 15.3888 21.2791 15.5047C21.0239 15.6935 20.84 15.9653 20.84 16.3202V17.6422C20.84 18.0814 20.7163 18.416 20.3563 18.6455C19.9963 18.8748 19.5768 18.9889 19.0977 19L18.7771 18.9982V18.339C19.0272 18.277 19.1661 18.2051 19.2663 18.1237C19.4465 17.9855 19.5486 17.7609 19.5486 17.4491V16.3816C19.5555 16.0185 19.6247 15.7345 19.7808 15.529C19.9369 15.324 20.2416 15.1441 20.695 14.9893C20.1947 14.7951 19.8589 14.5421 19.6877 14.2299C19.5869 14.0442 19.5486 13.7939 19.5486 13.479V12.5002C19.5486 12.1769 19.46 11.9504 19.3065 11.821C19.2232 11.7508 19.075 11.693 18.8692 11.6462L18.5438 11.6481V11H19.2646Z" fill="#8CDBFF"/>
</svg>
