<svg width="24" height="24" viewBox="0 0 24 24" fill="none" xmlns="http://www.w3.org/2000/svg">
<path fill-rule="evenodd" clip-rule="evenodd" d="M5 4C3.34315 4 2 5.34315 2 7V17C2 18.6569 3.34315 20 5 20H13V18H5C4.44772 18 4 17.5523 4 17V7C4 6.44772 4.44772 6 5 6H7.78388C8.01539 6 8.23973 6.08033 8.41862 6.22727L10.8119 8.19318C11.3486 8.63402 12.0216 8.875 12.7161 8.875H19C19.5523 8.875 20 9.32272 20 9.875V10H22V9.875C22 8.21815 20.6569 6.875 19 6.875H12.7161C12.4846 6.875 12.2603 6.79467 12.0814 6.64773L9.6881 4.68182C9.15142 4.24098 8.47841 4 7.78388 4H5Z" fill="#64748B"/>
<path fill-rule="evenodd" clip-rule="evenodd" d="M5.30108 12.2189C5.61459 11.4799 6.33956 11 7.14231 11L7.7273 11H11.0682L14.407 11C13.7677 11.0024 13.1918 11.1399 12.6795 11.4125C12.1627 11.6854 11.7536 12.0824 11.4522 12.6036C11.1507 13.1248 11 13.757 11 14.5C11 15.2408 11.1483 15.8718 11.445 16.3931C11.744 16.9143 12.1508 17.3124 12.6651 17.5875C13.1819 17.8625 13.7681 18 14.4236 18C14.8949 18 15.3172 17.9346 15.6904 17.8037C16.066 17.6706 16.389 17.491 16.6593 17.2647C16.9321 17.0363 17.1486 16.7779 17.3089 16.4895C17.4223 16.287 17.4507 15.5519 17.4713 15.0193L17.4713 15.0189C17.4762 14.893 17.4806 14.7785 17.4856 14.685L18.0158 15.525V17.8288H20.8272L20.5798 18.6064C20.3157 19.4364 19.5449 20 18.674 20H5.02105C3.58837 20 2.62035 18.5378 3.17988 17.2189L5.30108 12.2189ZM20.9686 17.3844L22.1707 13.6064C22.1876 13.5534 22.2021 13.5003 22.2144 13.4473L21.0158 15.525L20.9686 17.3844ZM20.9887 11.1339C20.7661 11.0477 20.5226 11 20.2648 11L14.4407 11C14.7544 11.0011 15.0511 11.0324 15.3308 11.0939L18.9201 11.1182L19.5994 12.622L20.2985 11.1182L20.9887 11.1339ZM15.411 16.4863C15.4428 16.4674 15.4738 16.4474 15.5038 16.4263C15.6425 16.3265 15.7574 16.2056 15.8483 16.0637C15.9041 15.9788 15.9346 15.5007 15.9578 15.0915C15.8757 15.6553 15.6789 16.1444 15.411 16.4863ZM15.9694 13.9955C15.9497 13.5845 15.9225 13.0694 15.8662 12.9762C15.7777 12.8276 15.6641 12.7012 15.5253 12.597C15.4914 12.5715 15.4562 12.5475 15.4197 12.5249C15.6968 12.8839 15.8964 13.4013 15.9694 13.9955ZM13.6595 16.5709C13.2615 16.1214 13 15.3616 13 14.5C13 13.6435 13.2584 12.8876 13.6525 12.437C13.5879 12.4664 13.5255 12.4998 13.4654 12.5371C13.1831 12.7101 12.9642 12.9629 12.8087 13.2956C12.6532 13.6261 12.5754 14.0276 12.5754 14.5C12.5754 14.9857 12.6532 15.3939 12.8087 15.7243C12.9666 16.0548 13.1867 16.3043 13.469 16.4729C13.5304 16.5096 13.5939 16.5422 13.6595 16.5709Z" fill="#64748B"/>
<path d="M16.7242 13.7704H15.6015C15.581 13.6358 15.5391 13.5162 15.4759 13.4116C15.4126 13.3054 15.3315 13.2151 15.2324 13.1407C15.1332 13.0662 15.0187 13.0092 14.8889 12.9696C14.7607 12.93 14.6214 12.9102 14.471 12.9102C14.1993 12.9102 13.9627 12.9728 13.761 13.0979C13.5594 13.2215 13.403 13.4021 13.2919 13.6397C13.1808 13.8758 13.1253 14.1625 13.1253 14.5C13.1253 14.847 13.1808 15.1385 13.2919 15.3745C13.4047 15.6106 13.5619 15.7888 13.7636 15.9092C13.9652 16.0296 14.1985 16.0898 14.4634 16.0898C14.612 16.0898 14.7496 16.0716 14.8761 16.0352C15.0042 15.9987 15.1179 15.9457 15.217 15.876C15.3161 15.8047 15.3981 15.7183 15.4631 15.6169C15.5297 15.5155 15.5758 15.3999 15.6015 15.27L16.7242 15.2747C16.6952 15.4981 16.6225 15.7136 16.5063 15.9211C16.3918 16.1271 16.2372 16.3116 16.0424 16.4748C15.8493 16.6364 15.6186 16.7647 15.3503 16.8598C15.0837 16.9533 14.7821 17 14.4454 17C13.9772 17 13.5585 16.9018 13.1894 16.7053C12.822 16.5089 12.5315 16.2245 12.3179 15.8522C12.106 15.4799 12 15.0292 12 14.5C12 13.9693 12.1077 13.5177 12.323 13.1454C12.5383 12.7731 12.8305 12.4895 13.1996 12.2947C13.5688 12.0982 13.984 12 14.4454 12C14.7496 12 15.0316 12.0396 15.2913 12.1188C15.5528 12.198 15.7843 12.3137 15.986 12.4658C16.1876 12.6163 16.3517 12.8009 16.4781 13.0195C16.6063 13.2381 16.6883 13.4884 16.7242 13.7704Z" fill="#2DD4BF"/>
<path d="M17.0682 12.0665H18.3114L19.5084 14.1625H19.5597L20.7568 12.0665H22L20.0852 15.2129V16.9335H18.983V15.2129L17.0682 12.0665Z" fill="#2DD4BF"/>
</svg>
