<svg width="24" height="24" viewBox="0 0 24 24" fill="none" xmlns="http://www.w3.org/2000/svg">
<path fill-rule="evenodd" clip-rule="evenodd" d="M5 4C3.34315 4 2 5.34315 2 7V17C2 18.6569 3.34315 20 5 20H11V18H5C4.44772 18 4 17.5523 4 17V7C4 6.44772 4.44772 6 5 6H7.78388C8.01539 6 8.23973 6.08033 8.41862 6.22727L10.8119 8.19318C11.3486 8.63402 12.0216 8.875 12.7161 8.875H19C19.5523 8.875 20 9.32272 20 9.875V10H22V9.875C22 8.21815 20.6569 6.875 19 6.875H12.7161C12.4846 6.875 12.2603 6.79467 12.0814 6.64773L9.6881 4.68182C9.15142 4.24098 8.47841 4 7.78388 4H5Z" fill="#64748B"/>
<path fill-rule="evenodd" clip-rule="evenodd" d="M7.14231 11C6.33956 11 5.61459 11.4799 5.30108 12.2189L3.17988 17.2189C2.62035 18.5378 3.58837 20 5.02105 20H13.9946C13.4448 19.997 13 19.5505 13 19V12C13 11.4504 13.4433 11.0044 13.9919 11L11.0682 11H7.7273L7.14231 11Z" fill="#64748B"/>
<path fill-rule="evenodd" clip-rule="evenodd" d="M17.3961 17.5688L15.6184 15.9687L16.2452 15.4045L17.3961 16.437L20.3249 13.8009L20.9517 14.3692M18.285 11.969C18.4029 11.969 18.516 12.0112 18.5993 12.0862C18.6827 12.1612 18.7295 12.263 18.7295 12.369C18.7295 12.4751 18.6827 12.5769 18.5993 12.6519C18.516 12.7269 18.4029 12.7691 18.285 12.7691C18.1672 12.7691 18.0541 12.7269 17.9708 12.6519C17.8874 12.5769 17.8406 12.4751 17.8406 12.369C17.8406 12.263 17.8874 12.1612 17.9708 12.0862C18.0541 12.0112 18.1672 11.969 18.285 11.969ZM21.3961 11.969H19.5379C19.3517 11.5048 18.8628 11.1689 18.285 11.1689C17.7073 11.1689 17.2184 11.5048 17.0314 11.969H15.1739C14.9382 11.969 14.7121 12.0533 14.5454 12.2033C14.3787 12.3534 14.285 12.5569 14.285 12.7691V18.3689C14.285 18.4739 14.308 18.578 14.3527 18.675C14.3974 18.7721 14.4628 18.8603 14.5454 18.9346C14.6279 19.0089 14.7259 19.0678 14.8338 19.108C14.9416 19.1483 15.0572 19.1689 15.1739 19.1689H21.3961C21.5129 19.1689 21.6285 19.1483 21.7363 19.108C21.8442 19.0678 21.9421 19.0089 22.0247 18.9346C22.1072 18.8603 22.1727 18.7721 22.2174 18.675C22.262 18.578 22.285 18.4739 22.285 18.3689V12.7684C22.285 12.5562 22.1914 12.3527 22.0247 12.2027C21.858 12.0526 21.6319 11.9683 21.3961 11.9683V11.969Z" fill="#FF7C7C"/>
</svg>
