<svg width="24" height="24" viewBox="0 0 24 24" fill="none" xmlns="http://www.w3.org/2000/svg">
<path fill-rule="evenodd" clip-rule="evenodd" d="M5 4C3.34315 4 2 5.34315 2 7V17C2 18.6569 3.34315 20 5 20H14V18H5C4.44772 18 4 17.5523 4 17V7C4 6.44772 4.44772 6 5 6H7.78388C8.01539 6 8.23973 6.08033 8.41862 6.22727L10.8119 8.19318C11.3486 8.63402 12.0216 8.875 12.7161 8.875H19C19.5523 8.875 20 9.32272 20 9.875V10H22V9.875C22 8.21815 20.6569 6.875 19 6.875H12.7161C12.4846 6.875 12.2603 6.79467 12.0814 6.64773L9.6881 4.68182C9.15142 4.24098 8.47841 4 7.78388 4H5Z" fill="#64748B"/>
<path fill-rule="evenodd" clip-rule="evenodd" d="M14.8411 11L11.0682 11H7.7273L7.14231 11C6.33956 11 5.61459 11.4799 5.30108 12.2189L3.17988 17.2189C2.62035 18.5378 3.58837 20 5.02105 20H18.0538C15.7782 19.9948 13.7781 18.6142 14 16C14.0751 15.7327 15.3397 15.4922 15.6839 15.5846C15.5518 15.4809 15.4175 15.3931 15.2858 15.3069C14.6711 14.9048 14.1137 14.5402 14.1136 12.7778C14.1136 12.0712 14.3637 11.4645 14.8411 11ZM18.0811 20C18.5342 19.9991 18.9678 19.9568 19.3704 19.8749C19.1519 19.9561 18.9168 20 18.674 20H18.0811Z" fill="#64748B"/>
<path d="M18.753 13.5841C18.753 13.8254 20.6303 13.7111 20.884 13.5397C20.884 11.8762 19.862 11 17.9919 11C16.129 11 15.0852 11.8889 15.0852 13.2222C15.0852 15.5397 18.6587 15.5841 18.6587 16.8476C18.6587 17.2032 18.4558 17.419 18.0209 17.419C17.4482 17.419 17.2235 17.1651 17.2525 16.2952C17.2525 16.1048 15.078 16.0476 15.0127 16.2952C14.846 18.3905 16.3392 19 18.0499 19C19.6953 19 21 18.2254 21 16.8286C21 14.3397 17.3758 14.4095 17.3758 13.1778C17.3758 12.6762 17.7962 12.6063 18.0499 12.6063C18.3108 12.6063 18.7892 12.6508 18.7457 13.5841H18.753Z" fill="#FF79A6"/>
<path d="M5.58132 4H7.5V6.01716C7.5 6.19534 7.28457 6.28457 7.15858 6.15858L6.5 5.5L5.85776 6.14224C5.72954 6.27046 5.51055 6.17555 5.51645 5.99431L5.58132 4Z" fill="#FF79A6"/>
</svg>
