<svg width="24" height="24" viewBox="0 0 24 24" fill="none" xmlns="http://www.w3.org/2000/svg">
<path fill-rule="evenodd" clip-rule="evenodd" d="M5 3C3.34315 3 2 4.34315 2 6V16C2 17.6569 3.34315 19 5 19H12V17H5C4.44772 17 4 16.5523 4 16V6C4 5.44772 4.44772 5 5 5H7.78388C8.01539 5 8.23973 5.08033 8.41862 5.22727L10.8119 7.19318C11.3486 7.63402 12.0216 7.875 12.7161 7.875H19C19.5523 7.875 20 8.32272 20 8.875V9H22V8.875C22 7.21815 20.6569 5.875 19 5.875H12.7161C12.4846 5.875 12.2603 5.79467 12.0814 5.64773L9.6881 3.68182C9.15142 3.24098 8.47841 3 7.78388 3H5Z" fill="#64748B"/>
<path fill-rule="evenodd" clip-rule="evenodd" d="M13.9995 11L11.0682 11H7.7273L7.14231 11C6.33956 11 5.61459 11.4799 5.30108 12.2189L3.17988 17.2189C2.62035 18.5378 3.58837 20 5.02105 20H16.9879C14.232 19.9935 12 17.7574 12 15C12 13.3644 12.7853 11.9123 13.9995 11Z" fill="#64748B"/>
<path fill-rule="evenodd" clip-rule="evenodd" d="M17.0006 11C16.3375 11 15.6847 11.1648 15.1012 11.4798C14.5176 11.7948 14.0215 12.2499 13.6576 12.8043L13.9144 12.8093C14.334 12.8093 14.9821 12.7592 14.9821 12.7592C15.197 12.7448 15.2245 13.0611 15.0103 13.0886L14.5481 13.1362L16.0074 17.4575L16.8829 14.8334L16.2591 13.1362L15.8345 13.0886C15.6247 13.0748 15.6479 12.7448 15.8627 12.7592L16.9154 12.8093C17.3351 12.8093 17.9839 12.7592 17.9839 12.7592C18.1981 12.7448 18.2275 13.0611 18.0083 13.0886L17.5511 13.1362L18.9959 17.4243L19.3967 16.0916C19.564 15.5373 19.6999 15.1403 19.6999 14.8002C19.6999 14.3011 19.5226 13.9604 19.3679 13.6948C19.1675 13.3679 18.9765 13.0899 18.9765 12.7586C18.9765 12.3903 19.2577 12.0503 19.6491 12.0503H19.6999C18.9631 11.375 18 11.0002 17.0006 11ZM20.5115 13.0805L20.5391 13.4951C20.5391 13.9009 20.4589 14.3568 20.2309 14.9255L19.0097 18.4545C19.6149 18.1036 20.1174 17.5998 20.4667 16.9937C20.816 16.3875 20.9999 15.7002 21 15.0006C21.0015 14.3296 20.8335 13.6692 20.5115 13.0805ZM13.3445 13.3698C13.1184 13.8841 13.0011 14.4395 13 15.0012C12.9994 15.7526 13.2108 16.4889 13.61 17.1255C14.0091 17.7621 14.5798 18.2731 15.2565 18.5998L13.3445 13.3698ZM17.0708 15.3507L15.8721 18.839C16.2384 18.9472 16.6186 19.0014 17.0006 19C17.4536 19.0017 17.9034 18.9249 18.3302 18.7733L18.3008 18.7163L17.0708 15.3507Z" fill="#E1F5FE"/>
</svg>
