<svg width="24" height="24" viewBox="0 0 24 24" fill="none" xmlns="http://www.w3.org/2000/svg">
<path fill-rule="evenodd" clip-rule="evenodd" d="M5 4C3.34315 4 2 5.34315 2 7V17C2 18.6569 3.34315 20 5 20H13V18H5C4.44772 18 4 17.5523 4 17V7C4 6.44772 4.44772 6 5 6H7.78388C8.01539 6 8.23973 6.08033 8.41862 6.22727L10.8119 8.19318C11.3486 8.63402 12.0216 8.875 12.7161 8.875H19C19.5523 8.875 20 9.32272 20 9.875V10H22V9.875C22 8.21815 20.6569 6.875 19 6.875H12.7161C12.4846 6.875 12.2603 6.79467 12.0814 6.64773L9.6881 4.68182C9.15142 4.24098 8.47841 4 7.78388 4H5Z" fill="#64748B"/>
<path fill-rule="evenodd" clip-rule="evenodd" d="M13.2675 11C13.0974 11.2942 13 11.6357 13 12V18C13 19.102 13.8913 19.9958 14.9924 20H5.02105C3.58837 20 2.62035 18.5378 3.17988 17.2189L5.30108 12.2189C5.61459 11.4799 6.33956 11 7.14231 11L7.7273 11H11.0682L13.2675 11Z" fill="#64748B"/>
<path fill-rule="evenodd" clip-rule="evenodd" d="M14 11.889H14.889V11C14.3997 11 14 11.3997 14 11.889ZM14 15.4438H14.889V14.5548H14V15.4438ZM15.7781 19H16.6671V18.111H15.7781V19ZM14 13.6657H14.889V12.7781H14V13.6657ZM18.4452 11H17.5555V11.889H18.4445L18.4452 11ZM21.1116 11V11.889H22C22 11.3997 21.601 11 21.1116 11ZM14.889 19V18.111H14C14 18.6003 14.3997 19 14.889 19ZM14 17.2219H14.889V16.3343H14V17.2219ZM16.6671 11H15.7781V11.889H16.6671V11ZM17.5555 19H18.4445V18.111H17.5555V19ZM21.1116 15.4445H22V14.5555H21.111L21.1116 15.4445ZM21.1116 19C21.5996 19 22 18.6003 22 18.111H21.111L21.1116 19ZM21.1116 13.6664H22V12.7781H21.111L21.1116 13.6664ZM21.1116 17.2219H22V16.3343H21.111L21.1116 17.2219ZM19.3336 19H20.2226V18.111H19.3336V19ZM19.3336 11.889H20.2226V11H19.3336V11.889ZM15.7781 17.2219H20.2226V12.7781H15.7774L15.7781 17.2219ZM16.6671 13.6671H19.3336V16.3336H16.6671V13.6671Z" fill="#C084FC"/>
</svg>
