<svg width="24" height="24" viewBox="0 0 24 24" fill="none" xmlns="http://www.w3.org/2000/svg">
<path fill-rule="evenodd" clip-rule="evenodd" d="M5 4C3.34315 4 2 5.34315 2 7V17C2 18.6569 3.34315 20 5 20H13V18H5C4.44772 18 4 17.5523 4 17V7C4 6.44772 4.44772 6 5 6H7.78388C8.01539 6 8.23973 6.08033 8.41862 6.22727L10.8119 8.19318C11.3486 8.63402 12.0216 8.875 12.7161 8.875H19C19.5523 8.875 20 9.32272 20 9.875V10H22V9.875C22 8.21815 20.6569 6.875 19 6.875H12.7161C12.4846 6.875 12.2603 6.79467 12.0814 6.64773L9.6881 4.68182C9.15142 4.24098 8.47841 4 7.78388 4H5Z" fill="#64748B"/>
<path fill-rule="evenodd" clip-rule="evenodd" d="M14.9995 11L11.0682 11H7.7273L7.14231 11C6.33956 11 5.61459 11.4799 5.30108 12.2189L3.17988 17.2189C2.62035 18.5378 3.58837 20 5.02105 20H17.9879C15.232 19.9934 13 17.7574 13 15C13 13.3644 13.7853 11.9122 14.9995 11Z" fill="#64748B"/>
<path d="M18 19C20.2091 19 22 17.2091 22 15C22 12.7909 20.2091 11 18 11C15.7909 11 14 12.7909 14 15C14 17.2091 15.7909 19 18 19Z" stroke="#0EA5E9"/>
<path fill-rule="evenodd" clip-rule="evenodd" d="M18.0701 12.5438C16.6666 12.5438 15.5438 13.6666 15.5438 15C15.5438 16.4035 16.6666 17.4561 18.0701 17.4561C19.4736 17.4561 20.5965 16.3333 20.5965 15C20.5965 13.6666 19.4736 12.5438 18.0701 12.5438ZM18.7719 13.3158C19.2631 13.3158 19.6842 13.7368 19.6842 14.228C19.6842 14.7193 19.2631 15.1403 18.7719 15.1403C18.2807 15.1403 17.8596 14.7193 17.8596 14.228C17.8596 13.6666 18.2807 13.3158 18.7719 13.3158Z" fill="#0EA5E9"/>
<path d="M20.9473 13.0351C21.4512 13.0351 21.8596 12.6266 21.8596 12.1228C21.8596 11.619 21.4512 11.2105 20.9473 11.2105C20.4435 11.2105 20.035 11.619 20.035 12.1228C20.035 12.6266 20.4435 13.0351 20.9473 13.0351Z" fill="#0EA5E9"/>
</svg>
