<svg width="24" height="24" viewBox="0 0 24 24" fill="none" xmlns="http://www.w3.org/2000/svg">
<path fill-rule="evenodd" clip-rule="evenodd" d="M5 3C3.34315 3 2 4.34315 2 6V16C2 17.6569 3.34315 19 5 19H12V17H5C4.44772 17 4 16.5523 4 16V6C4 5.44772 4.44772 5 5 5H7.78388C8.01539 5 8.23973 5.08033 8.41862 5.22727L10.8119 7.19318C11.3486 7.63402 12.0216 7.875 12.7161 7.875H19C19.5523 7.875 20 8.32272 20 8.875V9H22V8.875C22 7.21815 20.6569 5.875 19 5.875H12.7161C12.4846 5.875 12.2603 5.79467 12.0814 5.64773L9.6881 3.68182C9.15142 3.24098 8.47841 3 7.78388 3H5Z" fill="#64748B"/>
<path fill-rule="evenodd" clip-rule="evenodd" d="M14.005 19.6363C14.0612 19.6674 14.271 19.7834 14.5293 19.8114C14.7348 19.8493 14.9874 19.8664 15.2466 19.7943C15.3382 19.847 15.4243 19.8835 15.4932 19.9077C15.5142 19.9151 15.5354 19.9216 15.5568 19.9272C15.7251 19.9715 15.8714 19.9889 15.9914 19.9956L16 20H5.02105C3.58837 20 2.62035 18.5378 3.17988 17.2189L5.30108 12.2189C5.61459 11.4799 6.33956 11 7.14231 11L7.7273 11H11.0682L15.5166 11L15.4177 11.3561C15.3635 11.4012 15.3103 11.4495 15.2582 11.5011C15.2324 11.5208 15.2099 11.5387 15.193 11.5521L15.1929 11.5522L15.1912 11.5535C15.1592 11.579 15.1412 11.5933 15.1257 11.6049C14.9583 11.6539 14.8429 11.7401 14.7935 11.7791C14.7189 11.838 14.656 11.905 14.6391 11.923L14.6361 11.9262C14.5534 12.0133 14.4884 12.1171 14.445 12.2314C14.4335 12.2615 14.4218 12.2896 14.4041 12.3321L14.3859 12.3757C14.3611 12.4353 14.3268 12.519 14.2963 12.6108C14.238 12.7864 14.1635 13.0757 14.2236 13.4144C14.2483 13.5667 14.2836 13.7146 14.3327 13.8592C14.2591 13.9412 14.1929 14.0243 14.1338 14.1061C13.6351 14.7559 13.5011 15.4513 13.4777 16.0806C13.2492 16.3692 13.0849 16.703 13.0247 17.092C12.9544 17.5471 13.0429 17.9749 13.1791 18.3526C13.214 18.4569 13.2673 18.5768 13.3493 18.6937C13.3571 18.7713 13.3729 18.8516 13.3989 18.9337C13.5185 19.3115 13.7886 19.5221 13.9942 19.6304L14.005 19.6363Z" fill="#64748B"/>
<path fill-rule="evenodd" clip-rule="evenodd" d="M15.429 18.1252C15.3616 18.1177 15.2943 18.0857 15.2269 18.0538C15.1969 18.0396 15.1712 18.0239 15.1499 18.0069C15.0623 17.9367 15.0495 17.8429 15.1114 17.7254C15.1114 17.7072 15.1211 17.689 15.1307 17.6707C15.1403 17.6525 15.1499 17.6342 15.1499 17.616C14.9959 17.616 14.9189 17.543 14.8804 17.4336C14.688 16.9592 14.7264 16.5944 15.1114 16.2295C15.1217 16.21 15.1321 16.193 15.1416 16.1773C15.1678 16.1344 15.1884 16.1005 15.1884 16.0471C15.1884 15.5728 15.2654 15.135 15.6119 14.7336C15.7274 14.5877 15.8814 14.4417 16.0739 14.3323C16.1509 14.2958 16.1509 14.2593 16.1124 14.1863C15.9584 14.0039 15.8814 13.8215 15.8429 13.6026C15.8121 13.4566 15.8799 13.3107 15.9476 13.1647C15.9645 13.1282 15.9815 13.0918 15.9969 13.0553C16.0354 13.0188 16.0739 12.9823 16.1124 12.9823C16.2254 12.9555 16.3176 12.8895 16.4044 12.8274C16.4359 12.8048 16.4666 12.7828 16.4974 12.7634C16.7668 12.508 17.0748 12.3985 17.4598 12.3985C17.5345 12.3985 17.573 12.3642 17.5752 12.3288C17.5753 12.3277 17.5753 12.3266 17.5753 12.3256C17.579 12.3117 17.583 12.2978 17.5874 12.2839C17.6078 12.2186 17.636 12.1534 17.6718 12.0882C17.6998 12.0374 17.7324 11.9866 17.7697 11.9358C17.7814 11.9198 17.7936 11.9037 17.8063 11.8877L17.9218 11.7783C17.9808 11.7224 18.0623 11.7093 18.1145 11.7554C18.1155 11.7562 18.1164 11.757 18.1173 11.7579C18.132 11.7718 18.1443 11.7906 18.1528 11.8147C18.2317 11.9394 18.2927 12.0641 18.3479 12.1771C18.3494 12.1802 18.3509 12.1833 18.3525 12.1864C18.3764 12.2354 18.3993 12.2821 18.4223 12.3256C18.4226 12.3262 18.423 12.3269 18.4233 12.3275C18.4238 12.3284 18.4243 12.3293 18.4247 12.3301C18.4624 12.3985 18.5001 12.3977 18.5378 12.362C18.6744 12.3065 18.7418 12.2792 18.785 12.299C18.8271 12.3183 18.8463 12.3821 18.8842 12.508C18.9035 12.5844 18.9196 12.6605 18.9326 12.7363C18.9461 12.8143 18.9562 12.892 18.963 12.9692C19.0157 13.5684 18.8676 14.1444 18.4993 14.6971C18.48 14.7336 18.4511 14.7701 18.4223 14.8066C18.3934 14.8431 18.3645 14.8796 18.3453 14.916C18.3068 14.989 18.3068 15.0255 18.3838 15.0985C18.7303 15.3904 18.9612 15.7917 19.0382 16.2295C19.047 16.2875 19.0537 16.3473 19.0585 16.4081C19.0592 16.4169 19.0598 16.4258 19.0604 16.4346C19.0694 16.5655 19.0693 16.7005 19.0602 16.8313C19.0593 16.8434 19.0584 16.8556 19.0574 16.8677C19.0527 16.9237 19.0463 16.9787 19.0382 17.0322C19.0287 17.0685 19.0238 17.0958 19.0238 17.1157C19.0237 17.1759 19.067 17.1691 19.1537 17.1417C19.2051 17.1278 19.2564 17.1126 19.3075 17.096C19.3269 17.0897 19.3463 17.0832 19.3656 17.0765C19.4566 17.0451 19.5464 17.0095 19.6335 16.9696C19.6396 16.9668 19.6457 16.9639 19.6517 16.9611C19.6867 16.9448 19.7212 16.9278 19.7551 16.9101C19.7792 16.8975 19.8029 16.8846 19.8264 16.8714C19.8595 16.8527 19.892 16.8334 19.9237 16.8133C19.9567 16.7954 19.9892 16.7775 20.0213 16.7598C20.1852 16.6695 20.3395 16.5844 20.5127 16.5314C20.5822 16.5102 20.6547 16.4941 20.7322 16.4849C20.7722 16.4849 20.8076 16.4805 20.8416 16.4763C20.8509 16.4752 20.86 16.4741 20.8691 16.473C20.8915 16.4705 20.9137 16.4686 20.9366 16.4687C20.9688 16.4689 21.0024 16.473 21.0401 16.4849C21.1556 16.5214 21.2326 16.6309 21.2326 16.7403C21.2326 16.8498 21.1556 16.9228 21.0401 16.9592C20.9785 16.9709 20.9178 16.9854 20.8581 17.0024C20.8395 17.0077 20.821 17.0133 20.8026 17.0191C20.779 17.0265 20.7555 17.0343 20.7322 17.0425C20.6966 17.0549 20.6615 17.0682 20.6267 17.0823C20.4948 17.1357 20.3682 17.2004 20.2468 17.2726C20.2355 17.2794 20.2242 17.2862 20.213 17.2931C20.1403 17.3375 20.0695 17.3846 20.0007 17.4336C19.8061 17.5626 19.5919 17.6731 19.3729 17.7649C19.3637 17.7688 19.3544 17.7726 19.3451 17.7764C19.2443 17.8179 19.1427 17.8554 19.0416 17.889C18.9367 17.9238 18.8323 17.9545 18.7303 17.9809C18.6918 17.9809 18.6148 18.0173 18.5763 18.0538C18.4558 18.1394 18.3354 18.1581 18.1966 18.1796C18.1579 18.1856 18.1178 18.1918 18.0758 18.1998C18.043 18.2026 18.0105 18.2054 17.9781 18.2082C17.5925 18.2417 17.2346 18.2727 16.8438 18.2727C16.8166 18.2727 16.7894 18.2727 16.7616 18.2723C16.751 18.2805 16.7405 18.2878 16.7305 18.2941L16.7283 18.291C16.7322 18.2846 16.736 18.2782 16.7397 18.2718C16.7313 18.2715 16.7228 18.2713 16.7142 18.2709C16.638 18.2678 16.5561 18.2593 16.4589 18.2363C16.4284 18.2266 16.398 18.2145 16.369 18.1998C16.3466 18.1885 16.325 18.1756 16.3049 18.1612C16.2756 18.1403 16.2495 18.1162 16.2286 18.0889C16.2119 18.0671 16.1985 18.0432 16.1894 18.0173C16.1619 17.9131 16.1737 17.8275 16.2247 17.7604C16.2277 17.7566 16.2307 17.7528 16.2339 17.7491C16.253 17.7268 16.2766 17.7068 16.3049 17.689C16.3452 17.689 16.375 17.6789 16.3997 17.6694C16.4027 17.6683 16.4055 17.6672 16.4083 17.6661C16.427 17.6587 16.4429 17.6525 16.4589 17.6525C16.4025 17.6258 16.3668 17.5991 16.3366 17.558C16.3255 17.543 16.3152 17.5261 16.3049 17.5065C16.2664 17.47 16.2664 17.47 16.2279 17.5065C16.2199 17.5216 16.2136 17.5366 16.2083 17.5517C16.2082 17.5519 16.2081 17.5522 16.208 17.5524C16.2006 17.5736 16.195 17.5948 16.1894 17.616C16.1798 17.6525 16.1701 17.689 16.1509 17.7254C16.0958 17.8993 16.0233 18.0152 15.9208 18.081C15.9073 18.0896 15.8933 18.0974 15.8788 18.1043C15.866 18.1104 15.8527 18.1159 15.8391 18.1207C15.7808 18.1411 15.7144 18.1499 15.6385 18.1478C15.5835 18.1464 15.5235 18.1392 15.4579 18.1268C15.4483 18.1268 15.4386 18.1262 15.429 18.1252ZM15.3593 18.8492C15.1297 18.8268 14.9433 18.7339 14.8934 18.709C14.8892 18.707 14.886 18.7054 14.8837 18.7043C14.701 18.6177 14.4609 18.4492 14.3546 18.147C14.3315 18.0813 14.3174 18.0171 14.3105 17.955C14.2376 17.8615 14.1902 17.7655 14.1592 17.6821C14.0382 17.3799 13.9595 17.0377 14.022 16.6736C14.0754 16.3625 14.2215 16.0953 14.4247 15.8645C14.4454 15.3611 14.5645 14.8047 15.0078 14.2849C15.0603 14.2194 15.1192 14.1529 15.1846 14.0874C15.141 13.9717 15.1096 13.8534 15.0876 13.7316C15.0342 13.4606 15.1004 13.2291 15.1523 13.0887C15.1794 13.0153 15.2099 12.9483 15.2319 12.9006C15.2379 12.8876 15.2432 12.8761 15.2481 12.8657C15.2638 12.8317 15.2742 12.8092 15.2844 12.7852C15.323 12.6937 15.3808 12.6107 15.4543 12.541C15.4549 12.5404 15.4558 12.5395 15.457 12.5384C15.472 12.524 15.5279 12.4704 15.5942 12.4233C15.6382 12.3921 15.7408 12.3232 15.8895 12.2839C15.9032 12.2747 15.9193 12.2632 15.9477 12.2429L15.9493 12.2418C15.9643 12.231 15.9843 12.2167 16.0073 12.2009C16.3068 11.9343 16.6454 11.777 17.0153 11.7098C17.0678 11.6197 17.1274 11.5335 17.1924 11.4514C17.2142 11.4238 17.238 11.3978 17.2637 11.3735L17.3792 11.264C17.5423 11.1095 17.8102 10.9709 18.1365 11.0053C18.4706 11.0405 18.7164 11.2409 18.839 11.4862C18.8566 11.5154 18.874 11.5456 18.8911 11.5759C18.9558 11.586 19.0245 11.604 19.0948 11.6336C19.3992 11.7618 19.5126 12.0112 19.5439 12.0823C19.5772 12.1581 19.6035 12.246 19.6182 12.2953C19.6196 12.2999 19.6209 12.3043 19.6221 12.3082C19.6252 12.3186 19.6281 12.329 19.6307 12.3395C19.855 13.232 19.7397 14.1053 19.2522 14.9208C19.519 15.2511 19.7013 15.6385 19.7837 16.0493C19.9997 15.9353 20.2925 15.8041 20.637 15.7633C20.6649 15.76 20.693 15.7581 20.7211 15.7577C20.7214 15.7577 20.7217 15.7577 20.722 15.7576C20.7272 15.7571 20.7313 15.7566 20.7389 15.7556C20.7422 15.7552 20.7462 15.7547 20.7513 15.7541C20.7648 15.7524 20.786 15.7499 20.8098 15.7476C20.9204 15.7371 21.0866 15.733 21.2828 15.795C21.728 15.9356 22 16.3345 22 16.7403C22 17.268 21.5916 17.5516 21.2828 17.6492C21.2526 17.6587 21.2218 17.6665 21.1906 17.6724C20.9582 17.7164 20.7171 17.8334 20.4611 18.0154C20.4544 18.0201 20.4476 18.0248 20.4407 18.0294C19.9857 18.3312 19.4622 18.5397 18.9897 18.6673C18.692 18.8576 18.3339 18.9 18.2453 18.9105C18.2356 18.9116 18.2291 18.9124 18.2263 18.9129C18.1995 18.918 18.1725 18.9217 18.1453 18.924C18.1114 18.927 18.0775 18.9299 18.0435 18.9329C17.663 18.9659 17.2713 19 16.8438 19L16.8349 19C16.712 19 16.5188 19.0001 16.2727 18.9418C16.2537 18.9373 16.2348 18.9321 16.2162 18.9262C16.1549 18.9068 16.0784 18.8776 15.997 18.8355C15.7666 18.8932 15.5421 18.8795 15.3593 18.8492ZM16.7052 18.3367C16.706 18.3364 16.7059 18.3364 16.7049 18.3368L16.7052 18.3367ZM19.1045 11.9924C19.106 11.9953 19.1074 11.9979 19.1086 12.0003L19.1086 12.0003C19.1084 11.9999 19.1071 11.9971 19.1045 11.9924ZM15.8687 12.2971C15.8687 12.2971 15.869 12.2969 15.8697 12.2965C15.869 12.2969 15.8687 12.2971 15.8687 12.2971ZM15.726 13.6841C15.7275 13.6833 15.7291 13.6825 15.7307 13.6818L15.7302 13.682C15.7292 13.6825 15.7278 13.6832 15.726 13.6841Z" fill="#60A5FA"/>
</svg>
