<svg width="24" height="24" viewBox="0 0 24 24" fill="none" xmlns="http://www.w3.org/2000/svg">
<path fill-rule="evenodd" clip-rule="evenodd" d="M5 4C3.34315 4 2 5.34315 2 7V17C2 18.6569 3.34315 20 5 20H13V18H5C4.44772 18 4 17.5523 4 17V7C4 6.44772 4.44772 6 5 6H7.78388C8.01539 6 8.23973 6.08033 8.41862 6.22727L10.8119 8.19318C11.3486 8.63402 12.0216 8.875 12.7161 8.875H19C19.5523 8.875 20 9.32272 20 9.875V10H22V9.875C22 8.21815 20.6569 6.875 19 6.875H12.7161C12.4846 6.875 12.2603 6.79467 12.0814 6.64773L9.6881 4.68182C9.15142 4.24098 8.47841 4 7.78388 4H5Z" fill="#64748B"/>
<path fill-rule="evenodd" clip-rule="evenodd" d="M13 11L11.0682 11H7.7273L7.14231 11C6.33956 11 5.61459 11.4799 5.30108 12.2189L3.17988 17.2189C2.62035 18.5378 3.58837 20 5.02105 20H13.9946C13.4448 19.997 13 19.5505 13 19V11Z" fill="#64748B"/>
<path fill-rule="evenodd" clip-rule="evenodd" d="M18.278 17.2224H15.5559V16.3333H18.278M19.4446 15.4449H15.5559V14.5558H19.4446M19.4446 13.6673H15.5559V12.7782H19.4446M20.2226 11H14.778C14.6757 10.9996 14.5744 11.0223 14.4798 11.0668C14.3852 11.1113 14.2993 11.1768 14.227 11.2594C14.1547 11.3421 14.0974 11.4403 14.0584 11.5484C14.0195 11.6564 13.9996 11.7722 14 11.8891V18.1116C14.0002 18.3472 14.0822 18.5732 14.2281 18.7398C14.374 18.9064 14.5717 19 14.778 19H20.222C20.4283 19 20.6261 18.9064 20.7719 18.7398C20.9178 18.5732 20.9998 18.3472 21 18.1116V11.8891C21 11.396 20.6501 11.0007 20.222 11.0007L20.2226 11Z" fill="#CDDC39"/>
</svg>
