<svg width="24" height="24" viewBox="0 0 24 24" fill="none" xmlns="http://www.w3.org/2000/svg">
<path fill-rule="evenodd" clip-rule="evenodd" d="M5 4C3.34315 4 2 5.34315 2 7V17C2 18.6569 3.34315 20 5 20H12V18H5C4.44772 18 4 17.5523 4 17V7C4 6.44772 4.44772 6 5 6H7.78388C8.01539 6 8.23973 6.08033 8.41862 6.22727L10.8119 8.19318C11.3486 8.63402 12.0216 8.875 12.7161 8.875H19C19.5523 8.875 20 9.32272 20 9.875V10H22V9.875C22 8.21815 20.6569 6.875 19 6.875H12.7161C12.4846 6.875 12.2603 6.79467 12.0814 6.64773L9.6881 4.68182C9.15142 4.24098 8.47841 4 7.78388 4H5Z" fill="#64748B"/>
<path fill-rule="evenodd" clip-rule="evenodd" d="M20.1961 17.1266L13.5 17.1264C13.5 17.1264 13.5 17.1264 13.5 17.1264H20.1949L20.1961 17.1266ZM13 11V15.5556C13.0002 16.1448 13.0876 16.7098 13.5 17.1264H12V20H5.02105C3.58837 20 2.62035 18.5378 3.17988 17.2189L5.30108 12.2189C5.61459 11.4799 6.33956 11 7.14231 11L7.7273 11H11.0682L13 11Z" fill="#64748B"/>
<path fill-rule="evenodd" clip-rule="evenodd" d="M13 19H21.0999V18.111H13M21.0999 13.2223H20.1997V11.889H21.0999M21.0999 11H13.9001V15.4445C13.9003 15.9159 14.09 16.3678 14.4274 16.7011C14.7649 17.0344 15.2225 17.2217 15.6997 17.2219H18.3994C18.8768 17.2219 19.3346 17.0347 19.6722 16.7014C20.0098 16.3681 20.1995 15.916 20.1997 15.4445V14.1113H21.0999C21.3386 14.1113 21.5675 14.0176 21.7364 13.8509C21.9052 13.6842 22 13.458 22 13.2223V11.889C22 11.6533 21.9052 11.4271 21.7364 11.2604C21.5675 11.0937 21.3386 11 21.0999 11Z" fill="#FF7C7C"/>
</svg>
