<svg width="24" height="24" viewBox="0 0 24 24" fill="none" xmlns="http://www.w3.org/2000/svg">
<path fill-rule="evenodd" clip-rule="evenodd" d="M5 4C3.34315 4 2 5.34315 2 7V17C2 18.6569 3.34315 20 5 20H11V18H5C4.44772 18 4 17.5523 4 17V7C4 6.44772 4.44772 6 5 6H7.78388C8.01539 6 8.23973 6.08033 8.41862 6.22727L10.8119 8.19318C11.3486 8.63402 12.0216 8.875 12.7161 8.875H19C19.5523 8.875 20 9.32272 20 9.875V10H22V9.875C22 8.21815 20.6569 6.875 19 6.875H12.7161C12.4846 6.875 12.2603 6.79467 12.0814 6.64773L9.6881 4.68182C9.15142 4.24098 8.47841 4 7.78388 4H5Z" fill="#64748B"/>
<path fill-rule="evenodd" clip-rule="evenodd" d="M7.14231 11C6.33956 11 5.61459 11.4799 5.30108 12.2189L3.17988 17.2189C2.62035 18.5378 3.58837 20 5.02105 20H18.674C19.5449 20 20.3157 19.4364 20.5798 18.6064L20.8268 17.83C20.1031 18.5529 19.1038 19 18 19C15.7909 19 14 17.2091 14 15C14 12.7941 15.7856 11.0053 17.9902 11L11.0682 11H7.7273L7.14231 11ZM18.0097 11C19.9836 11.0047 21.6216 12.4391 21.9429 14.3225L22.1707 13.6064C22.5811 12.3165 21.6185 11 20.2648 11L18.0097 11Z" fill="#64748B"/>
<path fill-rule="evenodd" clip-rule="evenodd" d="M18 12.818V13.9087L19.5003 12.4546L18 11V12.0907C17.606 12.0907 17.2158 12.166 16.8518 12.3122C16.4878 12.4584 16.1571 12.6727 15.8785 12.9429C15.5999 13.213 15.3789 13.5337 15.2282 13.8867C15.0775 14.2397 14.9999 14.618 15 15C15 15.5702 15.1724 16.1013 15.4647 16.5486L16.0125 16.0175C15.8394 15.7046 15.749 15.355 15.7496 15C15.7496 14.4213 15.9867 13.8663 16.4087 13.4571C16.8307 13.0479 17.4031 12.818 18 12.818ZM20.5353 13.4509L19.9875 13.982C20.1588 14.2955 20.249 14.6446 20.2504 14.9994C20.2504 15.5781 20.0133 16.1331 19.5913 16.5423C19.1693 16.9515 18.5969 17.1814 18 17.1814V16.0913L16.4997 17.5459L18 19V17.9093C18.394 17.9093 18.7842 17.834 19.1482 17.6878C19.5122 17.5416 19.8429 17.3273 20.1215 17.0571C20.4001 16.787 20.6211 16.4663 20.7718 16.1133C20.9225 15.7603 21.0001 15.382 21 15C21 14.4298 20.8276 13.8987 20.5353 13.4514V13.4509Z" fill="#FF7C7C" stroke="#FF7C7C" stroke-width="0.29" stroke-miterlimit="1.414" stroke-linejoin="round"/>
</svg>
