<svg width="24" height="24" viewBox="0 0 24 24" fill="none" xmlns="http://www.w3.org/2000/svg">
<path fill-rule="evenodd" clip-rule="evenodd" d="M5 4C3.34315 4 2 5.34315 2 7V17C2 18.6569 3.34315 20 5 20H13V18H5C4.44772 18 4 17.5523 4 17V7C4 6.44772 4.44772 6 5 6H7.78388C8.01539 6 8.23973 6.08033 8.41862 6.22727L10.8119 8.19318C11.3486 8.63402 12.0216 8.875 12.7161 8.875H19C19.5523 8.875 20 9.32272 20 9.875V10H22V9.875C22 8.21815 20.6569 6.875 19 6.875H12.7161C12.4846 6.875 12.2603 6.79467 12.0814 6.64773L9.6881 4.68182C9.15142 4.24098 8.47841 4 7.78388 4H5Z" fill="#64748B"/>
<path fill-rule="evenodd" clip-rule="evenodd" d="M13 11V17L14.6673 15.5L15.444 16.2935C16 16.8822 16 17.4701 16 17.4701V20H5.02105C3.58837 20 2.62035 18.5378 3.17988 17.2189L5.30108 12.2189C5.61459 11.4799 6.33956 11 7.14231 11L7.7273 11H11.0682L13 11Z" fill="#64748B"/>
<path fill-rule="evenodd" clip-rule="evenodd" d="M14 11V15.0003L15.3339 13.5881L16.6665 15.2348C17.1113 15.7058 17.1113 16.1761 17.1113 16.1761V19H18.8887V15.7058C18.8887 15.7058 18.8887 15.2355 18.6532 14.7645C18.4177 14.2935 17.9997 13.8232 17.9997 13.8232L16.6665 12.2143L17.7776 11M20.6668 11L18.6845 13.1036L18.8887 13.3529C18.8887 13.3529 19.3023 13.8232 19.5422 14.2942C19.6354 14.4821 19.689 14.6659 19.7197 14.826L22 12.4116" fill="#2DD4BF"/>
</svg>
