<svg width="24" height="24" viewBox="0 0 24 24" fill="none" xmlns="http://www.w3.org/2000/svg">
<path fill-rule="evenodd" clip-rule="evenodd" d="M5 4C3.34315 4 2 5.34315 2 7V17C2 18.6569 3.34315 20 5 20H13V18H5C4.44772 18 4 17.5523 4 17V7C4 6.44772 4.44772 6 5 6H7.78388C8.01539 6 8.23973 6.08033 8.41862 6.22727L10.8119 8.19318C11.3486 8.63402 12.0216 8.875 12.7161 8.875H19C19.5523 8.875 20 9.32272 20 9.875V10H22V9.875C22 8.21815 20.6569 6.875 19 6.875H12.7161C12.4846 6.875 12.2603 6.79467 12.0814 6.64773L9.6881 4.68182C9.15142 4.24098 8.47841 4 7.78388 4H5Z" fill="#64748B"/>
<path fill-rule="evenodd" clip-rule="evenodd" d="M17 12C17 11.6357 17.0974 11.2942 17.2676 11L11.0682 11H7.7273L7.14231 11C6.33956 11 5.61459 11.4799 5.30108 12.2189L3.17988 17.2189C2.62035 18.5378 3.58837 20 5.02105 20H18.674C18.7286 20 18.7828 19.9978 18.8365 19.9934C17.8084 19.9102 17 19.0495 17 18V17H16C14.8954 17 14 16.1046 14 15C14 13.8954 14.8954 13 16 13H17V12Z" fill="#64748B"/>
<rect x="18" y="11" width="2" height="8" rx="1" fill="#CDDC39"/>
<rect x="15" y="16" width="2" height="8" rx="1" transform="rotate(-90 15 16)" fill="#CDDC39"/>
</svg>
