<svg width="24" height="24" viewBox="0 0 24 24" fill="none" xmlns="http://www.w3.org/2000/svg">
<path fill-rule="evenodd" clip-rule="evenodd" d="M5 4C3.34315 4 2 5.34315 2 7V17C2 18.6569 3.34315 20 5 20H13V18H5C4.44772 18 4 17.5523 4 17V7C4 6.44772 4.44772 6 5 6H7.78388C8.01539 6 8.23973 6.08033 8.41862 6.22727L10.8119 8.19318C11.3486 8.63402 12.0216 8.875 12.7161 8.875H19C19.1758 8.875 19.341 8.92035 19.4845 9H21.8704C21.4959 7.76998 20.3525 6.875 19 6.875H12.7161C12.4846 6.875 12.2603 6.79467 12.0814 6.64773L9.6881 4.68182C9.15142 4.24098 8.47841 4 7.78388 4H5Z" fill="#64748B"/>
<path fill-rule="evenodd" clip-rule="evenodd" d="M14.3096 19.3833C13.5262 18.9219 13 18.0655 13 17.0852C13 15.6161 14.182 14.4252 15.64 14.4252C15.7144 14.4252 15.788 14.4283 15.8609 14.4344C15.4423 13.9636 15.1877 13.3418 15.1877 12.66C15.1877 12.0321 15.4036 11.455 15.7647 11L11.0682 11H7.7273L7.14231 11C6.33956 11 5.61459 11.4799 5.30108 12.2189L3.17988 17.2189C2.62035 18.5378 3.58837 20 5.02105 20H17.8749L15.4653 19.7395C15.3912 19.7346 15.3179 19.7266 15.2456 19.7157L15.2152 19.7124C14.8573 19.6737 14.5549 19.5554 14.3096 19.3833Z" fill="#64748B"/>
<path d="M15.6408 18.7441C16.5469 18.7441 17.2815 18.0012 17.2815 17.0847C17.2815 16.1682 16.5469 15.4252 15.6408 15.4252C14.7346 15.4252 14 16.1682 14 17.0847C14 18.0012 14.7346 18.7441 15.6408 18.7441Z" fill="#2BD3C1"/>
<path d="M17.8285 14.3189C18.7346 14.3189 19.4692 13.576 19.4692 12.6595C19.4692 11.743 18.7346 11 17.8285 11C16.9223 11 16.1877 11.743 16.1877 12.6595C16.1877 13.576 16.9223 14.3189 17.8285 14.3189Z" fill="#2BD3C1"/>
<path d="M20.8913 20.7355C21.7974 20.7355 22.532 19.9925 22.532 19.076C22.532 18.1595 21.7974 17.4166 20.8913 17.4166C19.9851 17.4166 19.2505 18.1595 19.2505 19.076C19.2505 19.9925 19.9851 20.7355 20.8913 20.7355Z" fill="#2BD3C1"/>
</svg>
