<svg width="24" height="24" viewBox="0 0 24 24" fill="none" xmlns="http://www.w3.org/2000/svg">
<path fill-rule="evenodd" clip-rule="evenodd" d="M5 4C3.34315 4 2 5.34315 2 7V17C2 18.6569 3.34315 20 5 20H13V18H5C4.44772 18 4 17.5523 4 17V7C4 6.44772 4.44772 6 5 6H7.78388C8.01539 6 8.23973 6.08033 8.41862 6.22727L10.8119 8.19318C11.3486 8.63402 12.0216 8.875 12.7161 8.875H19C19.5523 8.875 20 9.32272 20 9.875V10H22V9.875C22 8.21815 20.6569 6.875 19 6.875H12.7161C12.4846 6.875 12.2603 6.79467 12.0814 6.64773L9.6881 4.68182C9.15142 4.24098 8.47841 4 7.78388 4H5Z" fill="#64748B"/>
<path fill-rule="evenodd" clip-rule="evenodd" d="M15.5 11L11.0682 11H7.7273L7.14231 11C6.33956 11 5.61459 11.4799 5.30108 12.2189L3.17988 17.2189C2.62035 18.5378 3.58837 20 5.02105 20H14.9924C13.8913 19.9959 13 19.102 13 18V13.5C13 12.3954 13.8954 11.5 15 11.5H15.5V11Z" fill="#64748B"/>
<path fill-rule="evenodd" clip-rule="evenodd" d="M21.1997 12.6848H19.5997V11.8424C19.5997 11.6106 19.5116 11.4007 19.3631 11.249C19.2899 11.1699 19.2023 11.107 19.1056 11.0643C19.0089 11.0215 18.9049 10.9996 18.8 11H17.2C16.7596 11 16.3997 11.3795 16.3997 11.8417V12.6841H14.7997C14.3593 12.6841 14 13.0636 14 13.5258V18.1583C14 18.6205 14.3593 19 14.7997 19H21.1997C21.6395 19 22 18.6205 22 18.1583V13.5265C22 13.0629 21.6395 12.6848 21.1997 12.6848ZM17.2 11.8424H18.8V12.6848H17.2V11.8424ZM17.5989 17.5265L17.1994 17.1053L18.3992 15.8417L17.1994 14.5788L17.5989 14.1576L19.1989 15.8417L17.5989 17.5265Z" fill="#CFD8DC"/>
</svg>
