<svg width="24" height="24" viewBox="0 0 24 24" fill="none" xmlns="http://www.w3.org/2000/svg">
<path fill-rule="evenodd" clip-rule="evenodd" d="M5 4C3.34315 4 2 5.34315 2 7V17C2 18.6569 3.34315 20 5 20H12V18H5C4.44772 18 4 17.5523 4 17V7C4 6.44772 4.44772 6 5 6H7.78388C8.01539 6 8.23973 6.08033 8.41862 6.22727L10.8119 8.19318C11.3486 8.63402 12.0216 8.875 12.7161 8.875H19C19.1758 8.875 19.341 8.92035 19.4845 9H21.8704C21.4959 7.76998 20.3525 6.875 19 6.875H12.7161C12.4846 6.875 12.2603 6.79467 12.0814 6.64773L9.6881 4.68182C9.15142 4.24098 8.47841 4 7.78388 4H5Z" fill="#64748B"/>
<path fill-rule="evenodd" clip-rule="evenodd" d="M7.14231 11C6.33956 11 5.61459 11.4799 5.30108 12.2189L3.17988 17.2189C2.62035 18.5378 3.58837 20 5.02105 20H15.9892C13.785 19.9942 12 18.2055 12 16C12 13.7909 13.7909 12 16 12H21.9971C21.6564 11.4116 21.0217 11 20.2648 11L11.0682 11H7.7273L7.14231 11Z" fill="#64748B"/>
<path fill-rule="evenodd" clip-rule="evenodd" d="M22.997 13.919C23.6392 14.4772 24 15.2342 24 16.0235C24 16.8127 23.6392 17.5697 22.997 18.1279C22.5528 18.5133 21.9955 18.7856 21.3856 18.9149C20.7758 19.0443 20.1368 19.0258 19.5381 18.8615C18.8622 19.045 18.1378 19.045 17.4619 18.8615C16.8632 19.0258 16.2242 19.0443 15.6144 18.9149C15.0045 18.7856 14.4472 18.5133 14.003 18.1279C13.3608 17.5697 13 16.8127 13 16.0235C13 15.2342 13.3608 14.4772 14.003 13.919C14.4472 13.5336 15.0045 13.2613 15.6144 13.132C16.2242 13.0026 16.8632 13.0211 17.4619 13.1854C18.1375 13.0021 18.8615 13.0021 19.5372 13.1854C20.1359 13.0209 20.7751 13.0023 21.3851 13.1317C21.9952 13.2611 22.5527 13.5334 22.997 13.919ZM16.0783 18.1279C15.4361 17.5697 15.0753 16.8127 15.0753 16.0235C15.0753 15.2342 15.4361 14.4772 16.0783 13.919C15.57 13.9823 15.0855 14.1806 14.6938 14.5202C14.2352 14.9188 13.9776 15.4594 13.9776 16.023C13.9776 16.5867 14.2352 17.1272 14.6938 17.5259C15.0845 17.8663 15.569 18.0646 16.0783 18.1279ZM18.1536 18.1279C17.5114 17.5697 17.1506 16.8127 17.1506 16.0235C17.1506 15.2342 17.5114 14.4772 18.1536 13.919C17.6453 13.9823 17.1608 14.1806 16.7701 14.5202C16.3115 14.9188 16.0539 15.4594 16.0539 16.023C16.0539 16.5867 16.3115 17.1272 16.7701 17.5259C17.1608 17.8663 17.6453 18.0646 18.1536 18.1279ZM22.3052 14.5202C21.9318 14.1941 21.4459 13.983 20.9217 13.919C21.5639 14.4772 21.9247 15.2342 21.9247 16.0235C21.9247 16.8127 21.5639 17.5697 20.9217 18.1279C21.43 18.0646 21.9145 17.8663 22.3052 17.5267C22.7638 17.1281 23.0214 16.5875 23.0214 16.0239C23.0214 15.4602 22.7638 14.9197 22.3052 14.521M18.8464 14.521C18.3878 14.9197 18.1302 15.4602 18.1302 16.0239C18.1302 16.5875 18.3878 17.1281 18.8464 17.5267C19.0527 17.7069 19.285 17.8481 19.5372 17.9477C19.7952 17.8449 20.0296 17.7023 20.2289 17.5267C20.6875 17.1281 20.9451 16.5875 20.9451 16.0239C20.9451 15.4602 20.6875 14.9197 20.2289 14.521C20.0297 14.3452 19.7953 14.2022 19.5372 14.0992C19.2791 14.202 19.0447 14.3446 18.8454 14.5202L18.8464 14.521Z" fill="#FF7C7C"/>
</svg>
