<svg width="24" height="24" viewBox="0 0 24 24" fill="none" xmlns="http://www.w3.org/2000/svg">
<path fill-rule="evenodd" clip-rule="evenodd" d="M5 4C3.34315 4 2 5.34315 2 7V17C2 18.6569 3.34315 20 5 20H11V18H5C4.44772 18 4 17.5523 4 17V7C4 6.44772 4.44772 6 5 6H7.78388C8.01539 6 8.23973 6.08033 8.41862 6.22727L10.8119 8.19318C11.3486 8.63402 12.0216 8.875 12.7161 8.875H19C19.5523 8.875 20 9.32272 20 9.875V10H22V9.875C22 8.21815 20.6569 6.875 19 6.875H12.7161C12.4846 6.875 12.2603 6.79467 12.0814 6.64773L9.6881 4.68182C9.15142 4.24098 8.47841 4 7.78388 4H5Z" fill="#64748B"/>
<path fill-rule="evenodd" clip-rule="evenodd" d="M15.5 11L11.0682 11H7.7273L7.14231 11C6.33956 11 5.61459 11.4799 5.30108 12.2189L3.17988 17.2189C2.62035 18.5378 3.58837 20 5.02105 20H13.9946C13.4448 19.9971 13 19.5505 13 19V13C13 12.4477 13.4477 12 14 12H15.5V11Z" fill="#64748B"/>
<path fill-rule="evenodd" clip-rule="evenodd" d="M18.8001 12.6841H17.2005V11.842H18.8001M21.1996 12.6841H19.5999V11.842L18.8001 11H17.2005L16.4001 11.842V12.6841H14.7998C14.3558 12.6841 14 13.0587 14 13.5261V18.158C14 18.2685 14.0207 18.378 14.0609 18.4802C14.1011 18.5824 14.16 18.6752 14.2343 18.7534C14.3085 18.8316 14.3967 18.8936 14.4937 18.9359C14.5908 18.9782 14.6948 19 14.7998 19H21.2002C21.3052 19 21.4092 18.9782 21.5063 18.9359C21.6033 18.8936 21.6915 18.8316 21.7657 18.7534C21.84 18.6752 21.8989 18.5824 21.9391 18.4802C21.9793 18.378 22 18.2685 22 18.158V13.5255C22 13.058 21.6398 12.6834 21.2002 12.6834L21.1996 12.6841Z" fill="#FF7C7C"/>
</svg>
