<svg width="24" height="24" viewBox="0 0 24 24" fill="none" xmlns="http://www.w3.org/2000/svg">
<path fill-rule="evenodd" clip-rule="evenodd" d="M5 4C3.34315 4 2 5.34315 2 7V17C2 18.6569 3.34315 20 5 20H11V18H5C4.44772 18 4 17.5523 4 17V7C4 6.44772 4.44772 6 5 6H7.78388C8.01539 6 8.23973 6.08033 8.41862 6.22727L10.8119 8.19318C11.3486 8.63402 12.0216 8.875 12.7161 8.875H19C19.5523 8.875 20 9.32272 20 9.875V10H22V9.875C22 8.21815 20.6569 6.875 19 6.875H12.7161C12.4846 6.875 12.2603 6.79467 12.0814 6.64773L9.6881 4.68182C9.15142 4.24098 8.47841 4 7.78388 4H5Z" fill="#64748B"/>
<path fill-rule="evenodd" clip-rule="evenodd" d="M5.30108 12.2189C5.61459 11.4799 6.33956 11 7.14231 11L7.7273 11H11.0682L20.2648 11C21.6185 11 22.5811 12.3165 22.1707 13.6064L22.0213 14.0759C21.9596 13.6254 21.8384 13.2962 21.5 13L20.7166 12.6187L20.2442 13C20.1089 13.1731 20.0601 13.6003 20.0487 14H19.5V12.7H19.4V11.5H17.4V12.7H15V14H14V15H13.1L13 15.3C12.9431 15.9151 13.0455 17.2806 13.2732 17.8633L13.387 18.0899V18.1223C14.0679 19.4136 15.2863 19.9967 16.6192 20H5.02105C3.58837 20 2.62035 18.5378 3.17988 17.2189L5.30108 12.2189Z" fill="#64748B"/>
<path fill-rule="evenodd" clip-rule="evenodd" d="M15.8065 17.6403C15.5504 17.6403 15.3176 17.4137 15.3176 17.1367C15.3176 16.8597 15.5272 16.6331 15.8065 16.6331C16.0859 16.6331 16.2954 16.8597 16.2954 17.1367C16.2954 17.4137 16.0626 17.6403 15.8065 17.6403ZM21.8127 14.8957C21.7662 14.4928 21.5334 14.1655 21.2307 13.9137L21.1143 13.8129L21.0212 13.9388C20.835 14.1655 20.7651 14.5683 20.7884 14.8705C20.8117 15.0971 20.8815 15.3237 20.9979 15.5C20.9048 15.5504 20.7884 15.6007 20.6953 15.6511C20.4858 15.7266 20.2763 15.7518 20.0667 15.7518H14.0372L14.014 15.9029C13.9674 16.3813 14.0372 16.8849 14.2235 17.3381L14.3166 17.5144V17.5396C14.8753 18.5468 15.8764 19 16.9705 19C19.0657 19 20.7884 18.018 21.6032 15.9029C22.1386 15.9281 22.6741 15.777 22.9302 15.223L23 15.0971L22.8836 15.0216C22.581 14.8201 22.1619 14.795 21.8127 14.8957ZM18.8096 14.4928H17.9017V15.4748H18.8096V14.4928ZM18.8096 13.259H17.9017V14.241H18.8096V13.259ZM18.8096 12H17.9017V12.982H18.8096V12ZM19.9271 14.4928H19.0191V15.4748H19.9271V14.4928ZM16.5515 14.4928H15.6436V15.4748H16.5515V14.4928ZM17.6922 14.4928H16.7843V15.4748H17.6922V14.4928ZM15.434 14.4928H14.5261V15.4748H15.434V14.4928ZM17.6922 13.259H16.7843V14.241H17.6922V13.259ZM16.5515 13.259H15.6436V14.241H16.5515V13.259Z" fill="#0EA5E9"/>
<mask id="mask0_1181_1631" style="mask-type:luminance" maskUnits="userSpaceOnUse" x="14" y="12" width="9" height="7">
<path fill-rule="evenodd" clip-rule="evenodd" d="M15.8065 17.6403C15.5504 17.6403 15.3176 17.4137 15.3176 17.1367C15.3176 16.8597 15.5272 16.6331 15.8065 16.6331C16.0859 16.6331 16.2954 16.8597 16.2954 17.1367C16.2954 17.4137 16.0626 17.6403 15.8065 17.6403ZM21.8127 14.8957C21.7662 14.4928 21.5334 14.1655 21.2307 13.9137L21.1143 13.8129L21.0212 13.9388C20.835 14.1655 20.7651 14.5683 20.7884 14.8705C20.8117 15.0971 20.8815 15.3237 20.9979 15.5C20.9048 15.5504 20.7884 15.6007 20.6953 15.6511C20.4858 15.7266 20.2763 15.7518 20.0667 15.7518H14.0372L14.014 15.9029C13.9674 16.3813 14.0372 16.8849 14.2235 17.3381L14.3166 17.5144V17.5396C14.8753 18.5468 15.8764 19 16.9705 19C19.0657 19 20.7884 18.018 21.6032 15.9029C22.1386 15.9281 22.6741 15.777 22.9302 15.223L23 15.0971L22.8836 15.0216C22.581 14.8201 22.1619 14.795 21.8127 14.8957ZM18.8096 14.4928H17.9017V15.4748H18.8096V14.4928ZM18.8096 13.259H17.9017V14.241H18.8096V13.259ZM18.8096 12H17.9017V12.982H18.8096V12ZM19.9271 14.4928H19.0191V15.4748H19.9271V14.4928ZM16.5515 14.4928H15.6436V15.4748H16.5515V14.4928ZM17.6922 14.4928H16.7843V15.4748H17.6922V14.4928ZM15.434 14.4928H14.5261V15.4748H15.434V14.4928ZM17.6922 13.259H16.7843V14.241H17.6922V13.259ZM16.5515 13.259H15.6436V14.241H16.5515V13.259Z" fill="white"/>
</mask>
<g mask="url(#mask0_1181_1631)">
<path fill-rule="evenodd" clip-rule="evenodd" d="M2.42053 6.30939H299.192V44.4317H2.42053V6.30939Z" fill="#0EA5E9"/>
</g>
</svg>
