<svg width="24" height="24" viewBox="0 0 24 24" fill="none" xmlns="http://www.w3.org/2000/svg">
<path fill-rule="evenodd" clip-rule="evenodd" d="M5 4C3.34315 4 2 5.34315 2 7V17C2 18.6569 3.34315 20 5 20H14V18H5C4.44772 18 4 17.5523 4 17V7C4 6.44772 4.44772 6 5 6H7.78388C8.01539 6 8.23973 6.08033 8.41862 6.22727L10.8119 8.19318C11.3486 8.63402 12.0216 8.875 12.7161 8.875H19C19.4197 8.875 19.779 9.13352 19.9273 9.5H21.9768C21.7923 8.02013 20.5299 6.875 19 6.875H12.7161C12.4846 6.875 12.2603 6.79467 12.0814 6.64773L9.6881 4.68182C9.15142 4.24098 8.47841 4 7.78388 4H5Z" fill="#64748B"/>
<path fill-rule="evenodd" clip-rule="evenodd" d="M19.7525 19.6842C19.2107 19.887 18.6243 19.9985 18.0121 20H18.674C19.0661 20 19.438 19.8857 19.7525 19.6842ZM17.9879 20H5.02105C3.58837 20 2.62035 18.5378 3.17988 17.2189L5.30108 12.2189C5.61459 11.4799 6.33956 11 7.14231 11L7.7273 11H11.0682L14.9995 11C13.7853 11.9122 13 13.3644 13 15C13 17.7574 15.232 19.9934 17.9879 20ZM21.483 11.4126C21.6644 11.5888 21.8325 11.7786 21.9856 11.9804C21.8559 11.762 21.6853 11.5687 21.483 11.4126Z" fill="#64748B"/>
<path d="M21.9998 15C21.9998 17.1944 20.1941 19 17.9999 19C15.8057 19 14 17.1943 14 15C14 12.8057 15.8057 11 17.9999 11H18.0001C20.1943 11 22 12.8056 22 15V15.0002" fill="#71717A"/>
<path d="M18.0697 12.9734L19.1405 15.8736L17.5232 14.4755L18.0697 12.9734ZM19.9718 16.5417L18.3249 12.192C18.3058 12.1348 18.271 12.0856 18.2253 12.0512C18.1795 12.0168 18.1251 11.9989 18.0697 12.0001C18.0134 11.9987 17.958 12.0164 17.9111 12.0508C17.8643 12.0851 17.8281 12.1344 17.8076 12.192L16 16.9631H16.6184L17.3339 14.9958L19.4692 16.8892C19.5552 16.9654 19.6171 16.9999 19.6977 16.9999L19.7046 17C19.8666 17 20 16.8536 20 16.6758V16.6755C19.9972 16.6295 19.9877 16.5844 19.9718 16.5417Z" fill="white"/>
</svg>
