<svg width="24" height="24" viewBox="0 0 24 24" fill="none" xmlns="http://www.w3.org/2000/svg">
<path fill-rule="evenodd" clip-rule="evenodd" d="M5 4C3.34315 4 2 5.34315 2 7V17C2 18.6569 3.34315 20 5 20H12V18H5C4.44772 18 4 17.5523 4 17V7C4 6.44772 4.44772 6 5 6H7.78388C8.01539 6 8.23973 6.08033 8.41862 6.22727L10.8119 8.19318C11.3486 8.63402 12.0216 8.875 12.7161 8.875H19C19.5523 8.875 20 9.32272 20 9.875V10H22V9.875C22 8.21815 20.6569 6.875 19 6.875H12.7161C12.4846 6.875 12.2603 6.79467 12.0814 6.64773L9.6881 4.68182C9.15142 4.24098 8.47841 4 7.78388 4H5Z" fill="#64748B"/>
<path fill-rule="evenodd" clip-rule="evenodd" d="M19 11L13 17V20H5.02105C3.58837 20 2.62035 18.5378 3.17988 17.2189L5.30108 12.2189C5.61459 11.4799 6.33956 11 7.14231 11L7.7273 11H11.0682L19 11Z" fill="#64748B"/>
<path fill-rule="evenodd" clip-rule="evenodd" d="M14 17.3336V19H15.6664L20.5813 14.0851L18.9149 12.4187L14 17.3336ZM21.87 12.7964C21.9112 12.7553 21.9439 12.7065 21.9662 12.6527C21.9885 12.5989 22 12.5413 22 12.4831C22 12.4249 21.9885 12.3673 21.9662 12.3135C21.9439 12.2598 21.9112 12.2109 21.87 12.1698L20.8302 11.13C20.7891 11.0888 20.7402 11.0561 20.6865 11.0338C20.6327 11.0115 20.5751 11 20.5169 11C20.4587 11 20.4011 11.0115 20.3473 11.0338C20.2935 11.0561 20.2447 11.0888 20.2036 11.13L19.3904 11.9432L21.0568 13.6096L21.87 12.7964Z" fill="#CFD8DC"/>
</svg>
