<svg width="24" height="24" viewBox="0 0 24 24" fill="none" xmlns="http://www.w3.org/2000/svg">
<path fill-rule="evenodd" clip-rule="evenodd" d="M5 4C3.34315 4 2 5.34315 2 7V17C2 18.6569 3.34315 20 5 20H14V18H5C4.44772 18 4 17.5523 4 17V7C4 6.44772 4.44772 6 5 6H7.78388C8.01539 6 8.23973 6.08033 8.41862 6.22727L10.8119 8.19318C11.3486 8.63402 12.0216 8.875 12.7161 8.875H19C19.4197 8.875 19.779 9.13352 19.9273 9.5H21.9768C21.7923 8.02013 20.5299 6.875 19 6.875H12.7161C12.4846 6.875 12.2603 6.79467 12.0814 6.64773L9.6881 4.68182C9.15142 4.24098 8.47841 4 7.78388 4H5Z" fill="#64748B"/>
<path d="M5.30105 12.2189C5.61457 11.48 6.33954 11 7.14228 11L7.72727 11.0001H11.0682L20.2648 11C21.6184 11 22.5811 12.3165 22.1707 13.6064L20.5798 18.6064C20.3157 19.4364 19.5449 20 18.6739 20H5.02103C3.58834 20 2.62033 18.5378 3.17986 17.2189L5.30105 12.2189Z" fill="#64748B"/>
</svg>
