<svg width="24" height="24" viewBox="0 0 24 24" fill="none" xmlns="http://www.w3.org/2000/svg">
<path fill-rule="evenodd" clip-rule="evenodd" d="M5 4C3.34315 4 2 5.34315 2 7V17C2 18.6569 3.34315 20 5 20H11V18H5C4.44772 18 4 17.5523 4 17V7C4 6.44772 4.44772 6 5 6H7.78388C8.01539 6 8.23973 6.08033 8.41862 6.22727L10.8119 8.19318C11.3486 8.63402 12.0216 8.875 12.7161 8.875H19C19.5523 8.875 20 9.32272 20 9.875V10H22V9.875C22 8.21815 20.6569 6.875 19 6.875H12.7161C12.4846 6.875 12.2603 6.79467 12.0814 6.64773L9.6881 4.68182C9.15142 4.24098 8.47841 4 7.78388 4H5Z" fill="#64748B"/>
<path fill-rule="evenodd" clip-rule="evenodd" d="M13.2988 11C12.2001 11.5496 11.3706 12.5646 11.0986 13.7759C11.0061 14.1791 10.9911 14.3597 11.004 14.8469C11.0169 15.3235 11.0427 15.4894 11.1589 15.8653C11.2901 16.2874 11.4686 16.6591 11.7569 17.1063C11.9633 17.4276 12.0774 17.6481 12.1462 17.8602C12.2645 18.2151 12.2731 18.2949 12.286 19.0655C12.2946 19.5548 12.3075 19.8026 12.3247 19.832C12.3376 19.8551 12.3785 19.9013 12.4172 19.937L12.4839 20H5.02105C3.58837 20 2.62035 18.5378 3.17988 17.2189L5.30108 12.2189C5.61459 11.4799 6.33956 11 7.14231 11L7.7273 11H11.0682L13.2988 11Z" fill="#64748B"/>
<path d="M16.994 11.0423C16.1355 11.2674 15.5861 11.8369 15.5919 12.4954C15.5978 12.9456 15.764 13.3454 16.1825 13.9099C16.4504 14.2728 16.9881 14.9682 17.0038 14.9733C17.0116 14.9766 17.0859 14.9464 17.1661 14.9078C17.7351 14.6356 18.0969 14.2056 18.1751 13.7117C18.1868 13.6394 18.1966 13.4244 18.1966 13.2363C18.1966 12.8583 18.2044 12.8264 18.3139 12.7592C18.441 12.6802 18.5955 12.7054 18.6972 12.8196L18.7539 12.8818L18.7598 13.2279C18.7637 13.4294 18.7578 13.6394 18.7441 13.7285C18.6972 14.0527 18.5701 14.35 18.3628 14.6239C18.2377 14.7885 17.9189 15.0589 17.698 15.1883C17.5005 15.3042 17.1133 15.4873 16.992 15.5226C16.8904 15.5512 16.7926 15.5327 16.7105 15.4672C16.6596 15.4252 15.809 14.3181 15.5821 13.9956C15.3397 13.6529 15.1539 13.2699 15.0737 12.9439C15.0131 12.697 15.0053 12.3341 15.0561 12.1309C15.105 11.9427 15.191 11.7462 15.2927 11.6C15.3397 11.5312 15.3749 11.4724 15.371 11.469C15.367 11.4656 15.2771 11.474 15.1715 11.4908C13.656 11.7109 12.4201 12.7256 12.0897 14.0208C12.0056 14.3433 11.9919 14.4878 12.0036 14.8775C12.0154 15.2589 12.0388 15.3916 12.1444 15.6923C12.2637 16.0299 12.426 16.3273 12.688 16.6851C12.8758 16.9421 12.9794 17.1185 13.042 17.2882C13.1495 17.5721 13.1574 17.6359 13.1691 18.2524C13.1769 18.6439 13.1886 18.8421 13.2043 18.8656C13.216 18.8841 13.2532 18.921 13.2884 18.9496L13.349 19H14.7902L14.843 18.958C14.9525 18.8706 14.9505 18.879 14.9505 18.16V17.4965H16.1219L16.1336 18.874L16.2079 18.9362L16.2802 19H17.7234L17.7762 18.958C17.872 18.8807 17.8818 18.8454 17.9033 18.4759C17.9404 17.8241 18.0421 17.3487 18.2651 16.7943C18.3843 16.4953 18.4645 16.3357 18.7187 15.8955C18.9358 15.5192 18.9416 15.5125 18.9944 15.5209C19.0238 15.526 19.1528 15.5461 19.2819 15.5646C19.5948 15.6083 19.6925 15.6352 19.8353 15.7141C19.9839 15.7981 20.113 15.9426 20.1755 16.0971C20.2147 16.1996 20.2205 16.2416 20.2205 16.5053C20.2205 16.7892 20.2186 16.801 20.1736 16.8564C20.113 16.9287 19.9761 16.9824 19.8881 16.969C19.8529 16.9623 19.7864 16.9337 19.7395 16.9052C19.6261 16.8346 19.4638 16.8195 19.366 16.8716C19.2526 16.932 18.4547 17.6342 18.4234 17.7014C18.3628 17.8257 18.3961 17.9198 18.5427 18.0391C19.0531 18.4557 19.8685 18.6103 20.5432 18.4188C20.948 18.3045 21.3567 18.0206 21.6324 17.6594C21.781 17.4679 21.8573 17.3285 21.9452 17.0832L22 16.9337V15.2118C22 13.6277 21.998 13.4782 21.9648 13.3522C21.781 12.6197 21.2335 12.015 20.4513 11.6773C20.0797 11.5177 19.5987 11.432 19.0766 11.432H18.8654L18.6503 11.3161C18.2123 11.0843 17.9444 11.0121 17.4829 11.002C17.1876 10.9969 17.1602 10.9986 16.994 11.0423ZM20.0915 13.5118C20.2244 13.5958 20.2557 13.7251 20.1755 13.8393C20.0289 14.0392 19.6632 13.9469 19.6632 13.7083C19.6632 13.5235 19.9252 13.4042 20.0915 13.5118Z" fill="#A855F7"/>
</svg>
