<svg width="24" height="24" viewBox="0 0 24 24" fill="none" xmlns="http://www.w3.org/2000/svg">
<path fill-rule="evenodd" clip-rule="evenodd" d="M5 4C3.34315 4 2 5.34315 2 7V17C2 18.6569 3.34315 20 5 20H9V18H5C4.44772 18 4 17.5523 4 17V7C4 6.44772 4.44772 6 5 6H7.78388C8.01539 6 8.23973 6.08033 8.41862 6.22727L10.8119 8.19318C11.3486 8.63402 12.0216 8.875 12.7161 8.875H19C19.5523 8.875 20 9.32272 20 9.875V10H22V9.875C22 8.21815 20.6569 6.875 19 6.875H12.7161C12.4846 6.875 12.2603 6.79467 12.0814 6.64773L9.6881 4.68182C9.15142 4.24098 8.47841 4 7.78388 4H5Z" fill="#64748B"/>
<path fill-rule="evenodd" clip-rule="evenodd" d="M18.3914 11L11.0682 11H7.7273L7.14231 11C6.33956 11 5.61459 11.4799 5.30108 12.2189L3.17988 17.2189C2.62035 18.5378 3.58837 20 5.02105 20H11.0967C11.0952 19.99 10.315 14.765 13.2124 13.5803L13.3321 13.1831C12.996 12.4407 13.3866 12.1199 14.2353 11.8001C15.0849 11.4813 17 11.1787 18 12C19.0927 12.8974 19.5 12 19 11.5C18.5983 11.2545 18.4386 11.0986 18.3914 11ZM20.3287 19.1235C20.4351 18.9669 20.5203 18.7934 20.5798 18.6064L21.3654 16.1375C21.364 16.1396 21.3626 16.1417 21.3612 16.1438C20.8221 16.969 20.3069 17.7578 20.3287 19.1235Z" fill="#64748B"/>
<path fill-rule="evenodd" clip-rule="evenodd" d="M22.6698 11.8462C22.2805 11.2013 21.5837 11.0092 21.0922 11.0003C20.4887 10.9893 19.9934 11.2967 20.0866 11.4984C20.1068 11.5416 20.2202 11.768 20.2895 11.8613C20.3902 11.9958 20.57 11.8922 20.6327 11.8613C20.8214 11.7694 21.0228 11.7399 21.2511 11.7646C21.4689 11.7872 21.7583 11.9114 21.953 12.2544C22.4103 13.0633 20.9982 14.7271 19.2303 13.5752C17.4632 12.4225 15.7445 12.8047 14.9657 13.0366C14.1877 13.2692 13.8297 13.5024 14.1377 14.0424C14.5555 14.7765 14.4167 14.5514 14.8218 15.1586C15.4655 16.1233 16.8746 14.7147 16.8746 14.7147C15.8251 16.1377 14.9254 15.7939 14.5801 15.2965C14.3717 14.9871 14.1872 14.6645 14.0281 14.3312C11.3695 15.1936 12.0886 19 12.0886 19H13.4089C13.7446 17.5983 14.9486 17.6505 15.1545 19H16.1615C17.0529 16.2625 19.3109 19 19.3109 19H20.6237C20.256 17.1339 21.3622 16.5466 22.0597 15.4523C22.7571 14.3573 23.4173 13.0187 22.6698 11.8462ZM19.2833 15.4509C18.5888 15.2423 18.8372 14.607 18.8372 14.607C18.8372 14.607 19.4436 14.7875 20.2634 15.0331C20.2164 15.2307 19.8084 15.6087 19.2833 15.4509Z" fill="#2FFDE6"/>
</svg>
