<svg width="24" height="24" viewBox="0 0 24 24" fill="none" xmlns="http://www.w3.org/2000/svg">
<path fill-rule="evenodd" clip-rule="evenodd" d="M5 4C3.34315 4 2 5.34315 2 7V17C2 18.6569 3.34315 20 5 20H12V18H5C4.44772 18 4 17.5523 4 17V7C4 6.44772 4.44772 6 5 6H7.78388C8.01539 6 8.23973 6.08033 8.41862 6.22727L10.8119 8.19318C11.3486 8.63402 12.0216 8.875 12.7161 8.875H19C19.5523 8.875 20 9.32272 20 9.875V10H22V9.875C22 8.21815 20.6569 6.875 19 6.875H12.7161C12.4846 6.875 12.2603 6.79467 12.0814 6.64773L9.6881 4.68182C9.15142 4.24098 8.47841 4 7.78388 4H5Z" fill="#64748B"/>
<path fill-rule="evenodd" clip-rule="evenodd" d="M12 11L11.0682 11H7.7273L7.14231 11C6.33956 11 5.61459 11.4799 5.30108 12.2189L3.17988 17.2189C2.62035 18.5378 3.58837 20 5.02105 20H12.9946C12.4448 19.997 12 19.5505 12 19V11Z" fill="#64748B"/>
<path d="M12.814 17.3904H14.4067L13.9134 19.056H12.814V17.3904ZM12.814 14.2232H15.3448L14.8514 15.8897H12.814V14.2232ZM12.814 11.056H16.2836L15.7895 12.7225H12.814V11.056ZM17.8538 11.056H21.814V12.7225H17.3597L17.8538 11.056ZM16.915 14.2232H21.814V15.8897H16.4217L16.915 14.2232ZM15.977 17.3904H21.814V19.056H15.4836L15.977 17.3904Z" fill="#FF7C7C"/>
</svg>
