<svg width="24" height="24" viewBox="0 0 24 24" fill="none" xmlns="http://www.w3.org/2000/svg">
<path fill-rule="evenodd" clip-rule="evenodd" d="M5 4C3.34315 4 2 5.34315 2 7V17C2 18.6569 3.34315 20 5 20H13V18H5C4.44772 18 4 17.5523 4 17V7C4 6.44772 4.44772 6 5 6H7.78388C8.01539 6 8.23973 6.08033 8.41862 6.22727L10.8119 8.19318C11.3486 8.63402 12.0216 8.875 12.7161 8.875H19C19.5523 8.875 20 9.32272 20 9.875V10H22V9.875C22 8.21815 20.6569 6.875 19 6.875H12.7161C12.4846 6.875 12.2603 6.79467 12.0814 6.64773L9.6881 4.68182C9.15142 4.24098 8.47841 4 7.78388 4H5Z" fill="#64748B"/>
<path fill-rule="evenodd" clip-rule="evenodd" d="M14.3411 15.5C13.5328 14.9625 13 14.0435 13 13C13 12.2316 13.2888 11.5308 13.7639 11L11.0682 11H7.7273L7.14231 11C6.33956 11 5.61459 11.4799 5.30108 12.2189L3.17988 17.2189C2.62035 18.5378 3.58837 20 5.02105 20H13.7639C13.2888 19.4692 13 18.7683 13 18C13 16.9565 13.5328 16.0374 14.3411 15.5Z" fill="#64748B"/>
<path d="M16.0296 11.3828C16.4663 11.3828 16.8852 11.5563 17.194 11.8651C17.5029 12.174 17.6764 12.5928 17.6764 13.0296V13.8532H19.3236V13.0296C19.3236 12.8133 19.3661 12.5991 19.4488 12.3992C19.5316 12.1994 19.6529 12.0178 19.8058 11.8648C19.9587 11.7119 20.1403 11.5905 20.3401 11.5077C20.5399 11.4249 20.7541 11.3823 20.9704 11.3823C21.1867 11.3823 21.4009 11.4249 21.6007 11.5077C21.8005 11.5905 21.9821 11.7119 22.135 11.8648C22.288 12.0178 22.4092 12.1994 22.492 12.3992C22.5747 12.5991 22.6173 12.8133 22.6172 13.0296C22.6172 13.2458 22.5746 13.46 22.4918 13.6598C22.4091 13.8596 22.2878 14.0411 22.1349 14.194C21.9819 14.347 21.8004 14.4683 21.6006 14.551C21.4008 14.6338 21.1867 14.6764 20.9704 14.6764H20.1468V16.3236H20.9704C21.1867 16.3236 21.4008 16.3662 21.6006 16.449C21.8004 16.5317 21.9819 16.653 22.1349 16.806C22.2878 16.9589 22.4091 17.1404 22.4918 17.3402C22.5746 17.54 22.6172 17.7541 22.6172 17.9704C22.6172 18.1867 22.5746 18.4008 22.4918 18.6006C22.4091 18.8004 22.2878 18.9819 22.1349 19.1349C21.9819 19.2878 21.8004 19.4091 21.6006 19.4918C21.4008 19.5746 21.1867 19.6172 20.9704 19.6172C20.7541 19.6172 20.54 19.5746 20.3402 19.4918C20.1404 19.4091 19.9589 19.2878 19.806 19.1349C19.653 18.9819 19.5317 18.8004 19.449 18.6006C19.3662 18.4008 19.3236 18.1867 19.3236 17.9704V17.1468H17.6764V17.9704C17.6764 18.1867 17.6338 18.4008 17.551 18.6006C17.4683 18.8004 17.347 18.9819 17.194 19.1349C17.0411 19.2878 16.8596 19.4091 16.6598 19.4918C16.46 19.5746 16.2458 19.6172 16.0296 19.6172C15.8133 19.6173 15.5991 19.5747 15.3992 19.492C15.1994 19.4092 15.0178 19.288 14.8648 19.135C14.7119 18.9821 14.5905 18.8005 14.5077 18.6007C14.4249 18.4009 14.3823 18.1867 14.3823 17.9704C14.3823 17.7541 14.4249 17.5399 14.5077 17.3401C14.5905 17.1403 14.7119 16.9587 14.8648 16.8058C15.0178 16.6529 15.1994 16.5316 15.3992 16.4488C15.5991 16.3661 15.8133 16.3236 16.0296 16.3236H16.8532V14.6764H16.0296C15.8133 14.6764 15.5991 14.6339 15.3992 14.5511C15.1994 14.4684 15.0178 14.3471 14.8648 14.1942C14.7119 14.0413 14.5905 13.8597 14.5077 13.6599C14.4249 13.4601 14.3823 13.2459 14.3823 13.0296C14.3823 12.8132 14.4248 12.599 14.5076 12.3991C14.5904 12.1992 14.7117 12.0176 14.8647 11.8647C15.0176 11.7117 15.1992 11.5904 15.3991 11.5076C15.599 11.4248 15.8132 11.3827 16.0296 11.3828ZM20.1468 17.9704C20.1468 18.1888 20.2336 18.3983 20.388 18.5528C20.5425 18.7073 20.752 18.794 20.9704 18.794C21.1888 18.794 21.3983 18.7073 21.5528 18.5528C21.7073 18.3983 21.794 18.1888 21.794 17.9704C21.7939 17.752 21.7071 17.5427 21.5526 17.3883C21.3982 17.234 21.1888 17.1472 20.9704 17.1472H20.1468V17.9709M19.3236 14.6768H17.6764V16.3236H19.3236V14.6768ZM16.0296 17.1472C15.8111 17.1472 15.6016 17.234 15.4472 17.3885C15.2927 17.5429 15.2059 17.7524 15.2059 17.9709C15.2061 18.1892 15.2929 18.3986 15.4473 18.553C15.6018 18.7073 15.8112 18.794 16.0296 18.794C16.2479 18.794 16.4574 18.7073 16.6118 18.553C16.7662 18.3986 16.8531 18.1892 16.8532 17.9709V17.1472H16.0296ZM16.8532 13.0296C16.8531 12.8112 16.7662 12.6018 16.6118 12.4475C16.4574 12.2931 16.2479 12.2064 16.0296 12.2064C15.8112 12.2064 15.6018 12.2931 15.4473 12.4475C15.2929 12.6018 15.2061 12.8112 15.2059 13.0296C15.2059 13.248 15.2927 13.4575 15.4472 13.612C15.6016 13.7664 15.8111 13.8532 16.0296 13.8532H16.8532V13.0296ZM20.9704 13.8532C21.1888 13.8532 21.3983 13.7664 21.5528 13.612C21.7073 13.4575 21.794 13.248 21.794 13.0296C21.7939 12.8112 21.7071 12.6018 21.5526 12.4475C21.3982 12.2931 21.1888 12.2064 20.9704 12.2064C20.752 12.2064 20.5426 12.2931 20.3882 12.4475C20.2337 12.6018 20.1469 12.8112 20.1468 13.0296V13.8532H20.9704Z" fill="#71717A"/>
</svg>
