<svg width="24" height="24" viewBox="0 0 24 24" fill="none" xmlns="http://www.w3.org/2000/svg">
<path fill-rule="evenodd" clip-rule="evenodd" d="M5 4C3.34315 4 2 5.34315 2 7V17C2 18.6569 3.34315 20 5 20H11V18H5C4.44772 18 4 17.5523 4 17V7C4 6.44772 4.44772 6 5 6H7.78388C8.01539 6 8.23973 6.08033 8.41862 6.22727L10.8119 8.19318C11.3486 8.63402 12.0216 8.875 12.7161 8.875H19C19.5523 8.875 20 9.32272 20 9.875V10H22V9.875C22 8.21815 20.6569 6.875 19 6.875H12.7161C12.4846 6.875 12.2603 6.79467 12.0814 6.64773L9.6881 4.68182C9.15142 4.24098 8.47841 4 7.78388 4H5Z" fill="#64748B"/>
<path fill-rule="evenodd" clip-rule="evenodd" d="M7.14231 11C6.33956 11 5.61459 11.4799 5.30108 12.2189L3.17988 17.2189C2.62035 18.5378 3.58837 20 5.02105 20H18.674C19.5449 20 20.3157 19.4364 20.5798 18.6064L20.7727 18H14C13.4477 18 13 17.5523 13 17V14C13 13.4477 13.4477 13 14 13H22.2663C22.2681 11.9344 21.4052 11 20.2648 11L11.0682 11H7.7273L7.14231 11Z" fill="#64748B"/>
<path d="M23.3446 14H14.6554C14.2934 14 14 14.2955 14 14.6601V16.3399C14 16.7045 14.2934 17 14.6554 17H23.3446C23.7066 17 24 16.7045 24 16.3399V14.6601C24 14.2955 23.7066 14 23.3446 14Z" fill="#D7CCC8"/>
</svg>
