<svg width="24" height="24" viewBox="0 0 24 24" fill="none" xmlns="http://www.w3.org/2000/svg">
<path fill-rule="evenodd" clip-rule="evenodd" d="M5 4C3.34315 4 2 5.34315 2 7V17C2 18.6569 3.34315 20 5 20H13V18H5C4.44772 18 4 17.5523 4 17V7C4 6.44772 4.44772 6 5 6H7.78388C8.01539 6 8.23973 6.08033 8.41862 6.22727L10.8119 8.19318C11.3486 8.63402 12.0216 8.875 12.7161 8.875H19C19.5523 8.875 20 9.32272 20 9.875V10H22V9.875C22 8.21815 20.6569 6.875 19 6.875H12.7161C12.4846 6.875 12.2603 6.79467 12.0814 6.64773L9.6881 4.68182C9.15142 4.24098 8.47841 4 7.78388 4H5Z" fill="#64748B"/>
<path fill-rule="evenodd" clip-rule="evenodd" d="M7.14231 11C6.33956 11 5.61459 11.4799 5.30108 12.2189L3.17988 17.2189C2.62035 18.5378 3.58837 20 5.02105 20H18.674C19.0085 20 19.3283 19.9168 19.6102 19.7673L16.5 15.4159V17.2C16.5 17.7523 16.0523 18.2 15.5 18.2C14.9477 18.2 14.5 17.7523 14.5 17.2V12.7C14.5 12.1477 14.9477 11.7 15.5 11.7C15.9375 11.7 16.3094 11.981 16.4451 12.3723L18.5 15.2473V12.7C18.5 12.1477 18.9477 11.7 19.5 11.7C20.0523 11.7 20.5 12.1477 20.5 12.7V15.7C20.5 16.2396 20.0726 16.6794 19.5379 16.6993L20.6787 18.2955L22.1707 13.6064C22.5811 12.3165 21.6185 11 20.2648 11L11.0682 11H7.7273L7.14231 11Z" fill="#64748B"/>
<path fill-rule="evenodd" clip-rule="evenodd" d="M21 19.7547L19.9697 18.262L17.3893 14.5236C16.5383 13.2931 15.8265 12.2711 15.8074 12.2503C15.7392 12.1799 15.6955 12.1695 15.4364 12.1695C15.2155 12.1695 15.1937 12.1721 15.1418 12.1955C15.1118 12.2138 15.0682 12.2451 15.0464 12.2711C15.0216 12.3032 15.0081 12.3426 15.008 12.3832L15.0027 14.7712L15.0001 17.1682C15 17.2069 15.0094 17.2449 15.0273 17.2791C15.0467 17.3153 15.0759 17.346 15.1118 17.3678C15.151 17.3933 15.1967 17.4069 15.2435 17.4069H15.3928C15.5864 17.4069 15.6219 17.4017 15.6628 17.3808C15.7135 17.3587 15.7542 17.3198 15.7774 17.2713C15.799 17.2301 15.7992 17.1581 15.8045 15.4482L15.8046 15.3943C15.806 14.8777 15.8082 14.4092 15.8106 14.0756C15.813 13.7542 15.9298 13.7186 16.117 13.9799C16.4599 14.4585 16.8004 14.9387 17.1384 15.4204L18.4504 17.274L19.4978 18.627C20.04 19.3278 20.5015 19.9189 20.5562 19.9866C20.5599 19.9912 20.5664 19.9942 20.5661 20M19.7883 12.0827C19.7658 12.058 19.7385 12.0379 19.7078 12.0235C19.6669 12 19.6342 12 19.4432 12C19.2414 12 19.225 12 19.1705 12.0261C19.1398 12.0424 19.113 12.0644 19.0914 12.0908C19.0699 12.1172 19.0541 12.1475 19.045 12.1799C19.0368 12.2086 19.0314 12.7899 19.0314 13.8223V15.1138C19.0314 15.3152 19.0922 15.5119 19.2059 15.6782L19.4378 16.0174C19.5627 16.1988 19.8469 16.1104 19.8469 15.8902V14.4115C19.8496 12.8786 19.8469 12.1981 19.8387 12.1668C19.8279 12.1359 19.8107 12.1073 19.7883 12.0827Z" fill="#CFD8DC"/>
</svg>
