<svg width="24" height="24" viewBox="0 0 24 24" fill="none" xmlns="http://www.w3.org/2000/svg">
<path fill-rule="evenodd" clip-rule="evenodd" d="M5 4C3.34315 4 2 5.34315 2 7V17C2 18.6569 3.34315 20 5 20H13V18H5C4.44772 18 4 17.5523 4 17V7C4 6.44772 4.44772 6 5 6H7.78388C8.01539 6 8.23973 6.08033 8.41862 6.22727L10.8119 8.19318C11.3486 8.63402 12.0216 8.875 12.7161 8.875H19C19.5523 8.875 20 9.32272 20 9.875V10H22V9.875C22 8.21815 20.6569 6.875 19 6.875H12.7161C12.4846 6.875 12.2603 6.79467 12.0814 6.64773L9.6881 4.68182C9.15142 4.24098 8.47841 4 7.78388 4H5Z" fill="#64748B"/>
<path fill-rule="evenodd" clip-rule="evenodd" d="M19.7525 19.6842C19.2107 19.887 18.6243 19.9985 18.0121 20H18.674C19.0661 20 19.438 19.8857 19.7525 19.6842ZM17.9879 20H5.02105C3.58837 20 2.62035 18.5378 3.17988 17.2189L5.30108 12.2189C5.61459 11.4799 6.33956 11 7.14231 11L7.7273 11H11.0682L14.9995 11C13.7853 11.9122 13 13.3644 13 15C13 17.7574 15.232 19.9934 17.9879 20ZM21.483 11.4126C21.6644 11.5888 21.8325 11.7786 21.9856 11.9804C21.8559 11.762 21.6853 11.5687 21.483 11.4126Z" fill="#64748B"/>
<path fill-rule="evenodd" clip-rule="evenodd" d="M22 14.1643H18.9861L20.204 12.9111C18.9909 11.7112 17.0265 11.6661 15.8127 12.8667C15.5244 13.1514 15.2955 13.4905 15.1393 13.8644C14.9831 14.2383 14.9026 14.6394 14.9026 15.0446C14.9026 15.4498 14.9831 15.851 15.1393 16.2248C15.2955 16.5987 15.5244 16.9378 15.8127 17.2225C16.398 17.7992 17.1867 18.1225 18.0084 18.1225C18.83 18.1225 19.6187 17.7992 20.204 17.2225C20.8084 16.6223 21.1107 15.9242 21.1107 15.0446H22C22 15.9249 21.6091 17.0666 20.8265 17.8402C19.2668 19.3866 16.7333 19.3866 15.1729 17.8402C13.6175 16.2979 13.6036 13.7907 15.1639 12.2484C15.912 11.5075 16.9222 11.0919 17.9751 11.0919C19.0279 11.0919 20.0382 11.5075 20.7863 12.2484L21.9993 11L22 14.1643ZM18.2215 13.2216V15.1112L19.7777 16.0358L19.4574 16.5731L17.5554 15.4446V13.2223L18.2215 13.2216Z" fill="#8CDBFF"/>
</svg>
