<svg width="24" height="24" viewBox="0 0 24 24" fill="none" xmlns="http://www.w3.org/2000/svg">
<path fill-rule="evenodd" clip-rule="evenodd" d="M5 4C3.34315 4 2 5.34315 2 7V17C2 18.6569 3.34315 20 5 20H10.4484V18H5C4.44772 18 4 17.5523 4 17V7C4 6.44772 4.44772 6 5 6H7.78388C8.01539 6 8.23973 6.08033 8.41862 6.22727L10.8119 8.19318C11.3486 8.63402 12.0216 8.875 12.7161 8.875H19C19.5523 8.875 20 9.32272 20 9.875V10H22V9.875C22 8.21815 20.6569 6.875 19 6.875H12.7161C12.4846 6.875 12.2603 6.79467 12.0814 6.64773L9.6881 4.68182C9.15142 4.24098 8.47841 4 7.78388 4H5Z" fill="#64748B"/>
<path fill-rule="evenodd" clip-rule="evenodd" d="M21.5929 11.5039C21.5477 11.5602 21.5057 11.6202 21.4674 11.6839L20.4459 13.3819C20.345 13.2782 20.2284 13.1863 20.0971 13.1102C19.6253 12.8366 19.0725 12.8285 18.6118 13.04C18.8633 12.3228 18.5787 11.5055 17.8971 11.1102C17.8224 11.0669 17.7457 11.0302 17.6676 11L20.2648 11C20.7833 11 21.2443 11.1931 21.5929 11.5039ZM21.2512 16.4962L20.5798 18.6064C20.3157 19.4364 19.5449 20 18.674 20H5.02105C3.58837 20 2.62035 18.5378 3.17988 17.2189L5.30108 12.2189C5.61459 11.4799 6.33956 11 7.14231 11L7.7273 11H11.0682L16.5067 11C16.1746 11.1276 15.8822 11.3653 15.6898 11.6971L14.6466 13.496C14.5254 13.3449 14.3747 13.2132 14.1971 13.1102C13.4255 12.6627 12.4373 12.9255 11.9898 13.6971L10.6002 16.0933C10.1528 16.8649 10.4155 17.8531 11.1871 18.3006C11.9587 18.748 12.9469 18.4852 13.3944 17.7137L14.4376 15.9148C14.5588 16.0659 14.7095 16.1975 14.8871 16.3006C15.3589 16.5742 15.9117 16.5822 16.3724 16.3708C16.1209 17.0879 16.4055 17.9053 17.0871 18.3006C17.8587 18.748 18.8469 18.4852 19.2944 17.7137L20.2737 16.0248C20.3666 16.1187 20.4725 16.2027 20.5908 16.2738C20.7991 16.3992 21.0244 16.472 21.2512 16.4962Z" fill="#64748B"/>
<path d="M13.8415 14.592C13.9643 14.3777 13.8891 14.1064 13.6735 13.9859C13.4578 13.8655 13.1835 13.9415 13.0607 14.1558L11.6191 16.6713C11.4963 16.8856 11.5716 17.1569 11.7872 17.2774C12.0028 17.3978 12.2772 17.3218 12.4 17.1075L13.8415 14.592Z" fill="#4ADE80"/>
<path d="M17.4487 12.6633C17.5715 12.449 17.4962 12.1776 17.2806 12.0572C17.065 11.9367 16.7906 12.0128 16.6678 12.2271L15.2263 14.7426C15.1035 14.9568 15.1787 15.2282 15.3943 15.3487C15.61 15.4691 15.8843 15.393 16.0071 15.1787L17.4487 12.6633Z" fill="#4ADE80"/>
<path d="M23.2297 12.6634C23.3525 12.4491 23.2773 12.1777 23.0617 12.0573C22.846 11.9368 22.5717 12.0129 22.4489 12.2272L21.0073 14.7426C20.8845 14.9569 20.9598 15.2283 21.1754 15.3487C21.391 15.4692 21.6654 15.3931 21.7882 15.1788L23.2297 12.6634Z" fill="#4ADE80"/>
<path d="M19.6218 14.592C19.7446 14.3777 19.6694 14.1064 19.4538 13.9859C19.2381 13.8655 18.9638 13.9415 18.841 14.1558L17.3995 16.6713C17.2767 16.8856 17.3519 17.1569 17.5675 17.2774C17.7831 17.3978 18.0575 17.3218 18.1803 17.1075L19.6218 14.592Z" fill="#4ADE80"/>
</svg>
