<svg width="24" height="24" viewBox="0 0 24 24" fill="none" xmlns="http://www.w3.org/2000/svg">
<path fill-rule="evenodd" clip-rule="evenodd" d="M5 4C3.34315 4 2 5.34315 2 7V17C2 18.6569 3.34315 20 5 20H13V18H5C4.44772 18 4 17.5523 4 17V7C4 6.44772 4.44772 6 5 6H7.78388C8.01539 6 8.23973 6.08033 8.41862 6.22727L10.8119 8.19318C11.3486 8.63402 12.0216 8.875 12.7161 8.875H19C19.5523 8.875 20 9.32272 20 9.875V10H22V9.875C22 8.21815 20.6569 6.875 19 6.875H12.7161C12.4846 6.875 12.2603 6.79467 12.0814 6.64773L9.6881 4.68182C9.15142 4.24098 8.47841 4 7.78388 4H5Z" fill="#64748B"/>
<path fill-rule="evenodd" clip-rule="evenodd" d="M15.8936 11L11.0682 11H7.7273L7.14231 11C6.33956 11 5.61459 11.4799 5.30108 12.2189L3.17988 17.2189C2.62035 18.5378 3.58837 20 5.02105 20H17.4929C17.0802 19.9988 16.6615 19.9185 16.2575 19.7485C15.2814 19.3286 14.6426 18.5738 14.3503 17.4989C14.3053 17.2989 14.2333 17.2489 14.0489 17.3239C13.8599 17.3889 13.662 17.4339 13.4641 17.4789L13.4641 17.4789C13.1492 17.5589 12.9333 17.3289 13.0188 16.999C13.0592 16.849 13.1222 16.704 13.1852 16.559C13.6261 15.5691 14.2064 14.6693 14.9306 13.8844C15.16 13.6344 15.2949 13.3545 15.3624 13.0295C15.4081 12.8122 15.4495 12.5917 15.4907 12.3725C15.5224 12.2034 15.554 12.0351 15.5873 11.8697C15.6323 11.6397 15.6998 11.4148 15.7943 11.1998C15.8255 11.13 15.8586 11.0634 15.8936 11ZM17.5118 20C17.6017 19.9997 17.6913 19.9957 17.7803 19.9881C17.85 19.9957 17.9207 19.9997 17.9924 20H17.5118Z" fill="#64748B"/>
<path d="M19.0468 13.5396C18.8789 13.6516 18.3471 13.9556 18.2671 14.0156C18.1111 14.1395 17.9672 14.1315 17.8113 14.0116C17.7313 13.9476 17.1995 13.6436 17.0315 13.5356C16.8396 13.4116 16.8516 13.2557 17.0635 13.1677C17.7193 12.8917 18.3751 12.9117 19.0268 13.1797C19.2227 13.2637 19.2307 13.4196 19.0468 13.5396ZM21.9337 16.4512C21.5618 15.6154 21.054 14.8554 20.3983 14.1876C20.1863 13.9676 20.0544 13.7196 19.9744 13.4356C19.9345 13.3037 19.9065 13.1677 19.8785 13.0317C19.7985 12.6797 19.7625 12.3198 19.5986 11.9878C19.3067 11.356 18.7989 11.028 18.0631 11C17.3395 11.02 16.7997 11.324 16.4838 11.9598C16.3998 12.1319 16.3398 12.3118 16.2999 12.4958C16.2319 12.7998 16.1719 13.1157 16.0999 13.4236C16.0399 13.6836 15.92 13.9076 15.7161 14.1075C15.0723 14.7355 14.5565 15.4553 14.1647 16.2472C14.1087 16.3632 14.0527 16.4792 14.0167 16.5992C13.9407 16.8631 14.1327 17.0471 14.4125 16.9832C14.5885 16.9471 14.7644 16.9111 14.9323 16.8591C15.0963 16.7992 15.1603 16.8391 15.2003 16.9992C15.4601 17.859 16.0279 18.4629 16.8956 18.7989C18.543 19.4228 20.4663 18.5349 20.8821 16.9671C20.9101 16.8591 20.9501 16.8192 21.07 16.8591C21.2539 16.9151 21.4419 16.9551 21.6298 16.9992C21.8257 17.0351 21.9697 16.9351 21.9977 16.7432C22.0097 16.6392 21.9737 16.5472 21.9337 16.4512Z" fill="#CFD8DC"/>
</svg>
