<svg width="24" height="24" viewBox="0 0 24 24" fill="none" xmlns="http://www.w3.org/2000/svg">
<path fill-rule="evenodd" clip-rule="evenodd" d="M5 4C3.34315 4 2 5.34315 2 7V17C2 18.6569 3.34315 20 5 20H13V18H5C4.44772 18 4 17.5523 4 17V7C4 6.44772 4.44772 6 5 6H7.78388C8.01539 6 8.23973 6.08033 8.41862 6.22727L10.8119 8.19318C11.3486 8.63402 12.0216 8.875 12.7161 8.875H19C19.5523 8.875 20 9.32272 20 9.875V10H22V9.875C22 8.21815 20.6569 6.875 19 6.875H12.7161C12.4846 6.875 12.2603 6.79467 12.0814 6.64773L9.6881 4.68182C9.15142 4.24098 8.47841 4 7.78388 4H5Z" fill="#64748B"/>
<path fill-rule="evenodd" clip-rule="evenodd" d="M13.2675 11C13.0974 11.2942 13 11.6357 13 12V18C13 19.102 13.8913 19.9958 14.9924 20H5.02105C3.58837 20 2.62035 18.5378 3.17988 17.2189L5.30108 12.2189C5.61459 11.4799 6.33956 11 7.14231 11L7.7273 11H11.0682L13.2675 11Z" fill="#64748B"/>
<path fill-rule="evenodd" clip-rule="evenodd" d="M21.1109 11.8891V18.1117H14.8883V11.8891H21.1109ZM21.5994 11H14.3998C14.3473 10.9998 14.2952 11.01 14.2466 11.03C14.198 11.0501 14.1538 11.0795 14.1167 11.1167C14.0795 11.1538 14.0501 11.198 14.03 11.2466C14.01 11.2952 13.9998 11.3473 14 11.3998V18.5994C14 18.7775 14.1774 19 14.3998 19H21.5994C21.7775 19 22 18.7775 22 18.6002V11.4006C22 11.1774 21.7768 11 21.5994 11ZM17.5547 12.7774H20.2219V13.6664H17.5547V12.7774ZM17.5547 14.5555H20.2219V15.4445H17.5547V14.5555ZM17.5547 16.3336H20.2219V17.2226H17.5547V16.3336ZM15.7774 12.7774H16.6664V13.6664H15.7774V12.7774ZM15.7774 14.5555H16.6664V15.4445H15.7774V14.5555ZM15.7774 16.3336H16.6664V17.2226H15.7774V16.3336Z" fill="#FFCE50"/>
</svg>
