<svg width="24" height="24" viewBox="0 0 24 24" fill="none" xmlns="http://www.w3.org/2000/svg">
<path fill-rule="evenodd" clip-rule="evenodd" d="M5 4C3.34315 4 2 5.34315 2 7V17C2 18.6569 3.34315 20 5 20H13V18H5C4.44772 18 4 17.5523 4 17V7C4 6.44772 4.44772 6 5 6H7.78388C8.01539 6 8.23973 6.08033 8.41862 6.22727L10.8119 8.19318C11.3486 8.63402 12.0216 8.875 12.7161 8.875H19C19.5523 8.875 20 9.32272 20 9.875V10H22V9.875C22 8.21815 20.6569 6.875 19 6.875H12.7161C12.4846 6.875 12.2603 6.79467 12.0814 6.64773L9.6881 4.68182C9.15142 4.24098 8.47841 4 7.78388 4H5Z" fill="#64748B"/>
<path fill-rule="evenodd" clip-rule="evenodd" d="M19.35 15.8C20.7307 15.8 21.85 14.6807 21.85 13.3C21.85 12.2687 21.2255 11.3833 20.3341 11.0011C21.6511 11.0451 22.5741 12.3386 22.1707 13.6064L21.4753 15.7921C20.4223 16.0866 19.65 17.0531 19.65 18.2C19.65 18.672 19.7808 19.1134 20.0081 19.49C19.6498 19.8107 19.1787 20 18.674 20H18.3349C18.8066 19.5453 19.1 18.9069 19.1 18.2C19.1 16.8193 17.9807 15.7 16.6 15.7C15.2193 15.7 14.1 16.8193 14.1 18.2C14.1 18.9069 14.3934 19.5453 14.865 20H5.02105C3.58837 20 2.62035 18.5378 3.17988 17.2189L5.30108 12.2189C5.61459 11.4799 6.33956 11 7.14231 11L7.7273 11H11.0682L18.3685 11C17.4757 11.3815 16.85 12.2677 16.85 13.3C16.85 14.6807 17.9693 15.8 19.35 15.8Z" fill="#64748B"/>
<circle cx="19.3872" cy="13.3596" r="1.83385" fill="#C084FC"/>
<circle cx="16.6083" cy="18.1662" r="1.83385" fill="#C084FC"/>
<circle cx="22.1662" cy="18.1662" r="1.83385" fill="#C084FC"/>
</svg>
