<svg width="24" height="24" viewBox="0 0 24 24" fill="none" xmlns="http://www.w3.org/2000/svg">
<path fill-rule="evenodd" clip-rule="evenodd" d="M5 4C3.34315 4 2 5.34315 2 7V17C2 18.6569 3.34315 20 5 20H13V18H5C4.44772 18 4 17.5523 4 17V7C4 6.44772 4.44772 6 5 6H7.78388C8.01539 6 8.23973 6.08033 8.41862 6.22727L10.8119 8.19318C11.3486 8.63402 12.0216 8.875 12.7161 8.875H19C19.5523 8.875 20 9.32272 20 9.875V10H22V9.875C22 8.21815 20.6569 6.875 19 6.875H12.7161C12.4846 6.875 12.2603 6.79467 12.0814 6.64773L9.6881 4.68182C9.15142 4.24098 8.47841 4 7.78388 4H5Z" fill="#64748B"/>
<path fill-rule="evenodd" clip-rule="evenodd" d="M13.2675 11C13.0974 11.2942 13 11.6357 13 12V18C13 19.102 13.8913 19.9958 14.9924 20H5.02105C3.58837 20 2.62035 18.5378 3.17988 17.2189L5.30108 12.2189C5.61459 11.4799 6.33956 11 7.14231 11L7.7273 11H11.0682L13.2675 11Z" fill="#64748B"/>
<path fill-rule="evenodd" clip-rule="evenodd" d="M17.748 14.5274C17.6296 14.8967 17.4787 15.2548 17.2969 15.5975C17.2086 15.7661 17.1236 15.9243 17.0772 16.0577L17.1256 16.0394C17.6066 15.8559 18.104 15.7184 18.6109 15.6289C18.5465 15.584 18.4843 15.536 18.4246 15.485C18.1625 15.2582 17.9304 14.9294 17.748 14.5274ZM20.6252 16.2218C20.5532 16.3081 20.4166 16.3545 20.2257 16.3545C19.8858 16.3545 19.3464 16.2531 18.8986 16.0263C18.1232 16.1067 17.5519 16.2126 17.1001 16.3597L17.0184 16.3911C16.466 17.3344 16.0574 17.7554 15.6965 17.7554C15.6286 17.7554 15.5616 17.7395 15.501 17.7089L15.2879 17.569L15.2774 17.5455C15.2432 17.4706 15.2349 17.3864 15.2539 17.3063C15.301 17.0709 15.5448 16.6996 16.0907 16.3649C16.175 16.3035 16.3064 16.2303 16.4862 16.1472C16.6176 15.9152 16.7602 15.6459 16.9092 15.3452C17.1367 14.8895 17.2779 14.4365 17.3923 14.0456L17.3904 14.0404C17.2269 13.5017 17.1289 13.1788 17.293 12.5891C17.342 12.4179 17.4793 12.2446 17.646 12.2446H17.7512C17.8558 12.2446 17.9493 12.2826 18.0212 12.3538C18.3141 12.6467 18.1801 13.3612 18.0311 13.9515L18.0154 14.0142C18.1906 14.5156 18.4416 14.9183 18.7247 15.1504C18.8384 15.2399 18.9666 15.3275 19.1078 15.4105C19.3105 15.3883 19.5046 15.3778 19.6851 15.3778C20.2362 15.3778 20.5676 15.4772 20.6971 15.6825C20.7443 15.7549 20.7638 15.8419 20.752 15.9276C20.7496 16.0384 20.7041 16.1439 20.6252 16.2218ZM21.1109 11H14.8891C14.6533 11 14.4272 11.0937 14.2604 11.2604C14.0937 11.4271 14 11.6532 14 11.889V18.111C14 18.6012 14.3975 19 14.8891 19H21.1109C21.6012 19 22 18.6012 22 18.111V11.889C22 11.3981 21.6012 11 21.1109 11ZM20.4506 15.908C20.4009 15.8609 20.2185 15.7498 19.5981 15.7498C19.5674 15.7498 19.5367 15.7498 19.4961 15.7942C19.8243 15.9368 20.1394 16.0217 20.3414 16.0217C20.3705 16.0217 20.3996 16.0195 20.4284 16.0152L20.4434 16.0126C20.465 16.006 20.4794 15.9989 20.4833 15.9551C20.4768 15.9439 20.4669 15.9269 20.4506 15.908ZM16.3686 16.5545C16.2948 16.5958 16.2242 16.6426 16.1574 16.6944C15.839 16.9827 15.6416 17.2742 15.6174 17.4462C15.8194 17.3769 16.0809 17.0853 16.3692 16.5545H16.3686ZM17.7088 13.4854L17.7336 13.469C17.7663 13.3252 17.7872 13.2017 17.8049 13.103L17.8179 13.0311C17.8611 12.7905 17.8558 12.6519 17.7748 12.544L17.7094 12.5218C17.7009 12.5349 17.6878 12.5538 17.6793 12.5741C17.6055 12.7585 17.6068 13.0847 17.7088 13.4854Z" fill="#FF7C7C"/>
</svg>
