<svg width="24" height="24" viewBox="0 0 24 24" fill="none" xmlns="http://www.w3.org/2000/svg">
<path fill-rule="evenodd" clip-rule="evenodd" d="M5 4C3.34315 4 2 5.34315 2 7V17C2 18.6569 3.34315 20 5 20H13V18H5C4.44772 18 4 17.5523 4 17V7C4 6.44772 4.44772 6 5 6H7.78388C8.01539 6 8.23973 6.08033 8.41862 6.22727L10.8119 8.19318C11.3486 8.63402 12.0216 8.875 12.7161 8.875H19C19.5523 8.875 20 9.32272 20 9.875V10H22V9.875C22 8.21815 20.6569 6.875 19 6.875H12.7161C12.4846 6.875 12.2603 6.79467 12.0814 6.64773L9.6881 4.68182C9.15142 4.24098 8.47841 4 7.78388 4H5Z" fill="#64748B"/>
<path fill-rule="evenodd" clip-rule="evenodd" d="M12 11V12H13L14.5224 15L13.8092 16.8132C13.7228 16.9609 13.6776 17.1256 13.6778 17.2928C13.6778 17.4241 13.7062 17.5542 13.7615 17.6755C13.8168 17.7969 13.8978 17.9071 14 18C14.0587 18.0533 14.1237 18.1003 14.1937 18.1402C14.0695 18.4007 14 18.6922 14 19C14 19.3643 14.0974 19.7058 14.2676 20H5.02105C3.58837 20 2.62035 18.5378 3.17988 17.2189L5.30108 12.2189C5.61459 11.4799 6.33956 11 7.14231 11L7.7273 11H11.0682L12 11Z" fill="#64748B"/>
<path fill-rule="evenodd" clip-rule="evenodd" d="M20.9998 17.9998C20.445 17.9998 19.9998 18.445 19.9998 18.9999C19.9998 19.1313 20.0256 19.2613 20.0759 19.3826C20.1261 19.504 20.1998 19.6142 20.2927 19.7071C20.3855 19.7999 20.4958 19.8736 20.6171 19.9239C20.7385 19.9741 20.8685 20 20.9998 20C21.1312 20 21.2612 19.9741 21.3826 19.9239C21.5039 19.8736 21.6141 19.7999 21.707 19.7071C21.7999 19.6142 21.8735 19.504 21.9238 19.3826C21.974 19.2613 21.9999 19.1313 21.9999 18.9999C21.9999 18.445 21.5498 17.9998 20.9998 17.9998ZM13 10V11.0001H14.0001L15.8006 14.795L15.1196 16.0201C15.0411 16.1678 15 16.3325 15.0002 16.4997C15.0002 16.631 15.026 16.7611 15.0763 16.8824C15.1265 17.0038 15.2002 17.114 15.2931 17.2069C15.3859 17.2997 15.4962 17.3734 15.6175 17.4237C15.7389 17.4739 15.8689 17.4998 16.0002 17.4998H21.9991V16.4997H16.2098C16.1765 16.4997 16.1447 16.4865 16.1212 16.463C16.0977 16.4396 16.0845 16.4077 16.0845 16.3745C16.0837 16.3535 16.0891 16.3327 16.1001 16.3148L16.5502 15.4996H20.2747C20.4532 15.4992 20.6284 15.4513 20.7823 15.3608C20.9361 15.2703 21.0632 15.1406 21.1504 14.9849L22.9394 11.7497C22.9765 11.6715 22.9971 11.5866 23 11.5001C23.0001 11.4344 22.9872 11.3694 22.9622 11.3086C22.9371 11.2479 22.9002 11.1928 22.8538 11.1463C22.8073 11.0998 22.7522 11.063 22.6914 11.0379C22.6307 11.0128 22.5657 11 22.5 11.0001H15.1049L14.6352 10M16.0002 17.9998C15.4446 17.9998 15.0002 18.445 15.0002 18.9999C15.0002 19.1313 15.026 19.2613 15.0763 19.3826C15.1265 19.504 15.2002 19.6142 15.2931 19.7071C15.3859 19.7999 15.4962 19.8736 15.6175 19.9239C15.7389 19.9741 15.8689 20 16.0002 20C16.1316 20 16.2616 19.9741 16.383 19.9239C16.5043 19.8736 16.6145 19.7999 16.7074 19.7071C16.8003 19.6142 16.8739 19.504 16.9242 19.3826C16.9745 19.2613 17.0003 19.1313 17.0003 18.9999C17.0003 18.445 16.5502 17.9998 16.0002 17.9998Z" fill="#CFD8DC"/>
</svg>
