<svg width="24" height="24" viewBox="0 0 24 24" fill="none" xmlns="http://www.w3.org/2000/svg">
<path fill-rule="evenodd" clip-rule="evenodd" d="M5 4C3.34315 4 2 5.34315 2 7V17C2 18.6569 3.34315 20 5 20H10V18H5C4.44772 18 4 17.5523 4 17V7C4 6.44772 4.44772 6 5 6H7.78388C8.01539 6 8.23973 6.08033 8.41862 6.22727L10.8119 8.19318C11.3486 8.63402 12.0216 8.875 12.7161 8.875H19C19.5523 8.875 20 9.32272 20 9.875V10H22V9.875C22 8.21815 20.6569 6.875 19 6.875H12.7161C12.4846 6.875 12.2603 6.79467 12.0814 6.64773L9.6881 4.68182C9.15142 4.24098 8.47841 4 7.78388 4H5Z" fill="#64748B"/>
<path fill-rule="evenodd" clip-rule="evenodd" d="M7.14231 11C6.33956 11 5.61459 11.4799 5.30108 12.2189L3.17988 17.2189C2.62035 18.5378 3.58837 20 5.02105 20H18.674C19.3989 20 20.0544 19.6095 20.4062 19H11C10.4477 19 10 18.5523 10 18V12C10 11.451 10.4424 11.0053 10.9902 11H7.7273L7.14231 11Z" fill="#64748B"/>
<path fill-rule="evenodd" clip-rule="evenodd" d="M11 18V12.006L12.4521 12C14.8292 12 15.9586 12.3644 16 13.8274C15.924 15.3278 14.863 15.7532 12.4437 15.656V18H11ZM12.4352 14.8299L12.4268 12.7892C14.0115 12.7163 14.7982 13.0605 14.787 13.8219C14.7757 14.5829 13.9918 14.9189 12.4352 14.8299Z" fill="#E8E8E8"/>
<path fill-rule="evenodd" clip-rule="evenodd" d="M17 17.9876L17.0153 13.0871L20.0311 15.3195L22.9693 13L23 18L17 17.9876Z" fill="#FFD180"/>
<path fill-rule="evenodd" clip-rule="evenodd" d="M17 12.0216L20.0468 14L23 12L17 12.0216Z" fill="#FFD180"/>
</svg>
