<svg width="24" height="24" viewBox="0 0 24 24" fill="none" xmlns="http://www.w3.org/2000/svg">
<path fill-rule="evenodd" clip-rule="evenodd" d="M5 4C3.34315 4 2 5.34315 2 7V17C2 18.6569 3.34315 20 5 20H11V18H5C4.44772 18 4 17.5523 4 17V7C4 6.44772 4.44772 6 5 6H7.78388C8.01539 6 8.23973 6.08033 8.41862 6.22727L10.8119 8.19318C11.3486 8.63402 12.0216 8.875 12.7161 8.875H19C19.5523 8.875 20 9.32272 20 9.875V10H22V9.875C22 8.21815 20.6569 6.875 19 6.875H12.7161C12.4846 6.875 12.2603 6.79467 12.0814 6.64773L9.6881 4.68182C9.15142 4.24098 8.47841 4 7.78388 4H5Z" fill="#64748B"/>
<path fill-rule="evenodd" clip-rule="evenodd" d="M11.0682 11L14.9847 11C14.538 11.0032 14.0896 11.1552 13.7196 11.4636L10.7196 13.9636C10.2636 14.3435 10 14.9064 10 15.5C10 16.0936 10.2636 16.6565 10.7196 17.0364L13.7196 19.5364C14.0891 19.8443 14.5367 19.9964 14.9828 20H5.02105C3.58837 20 2.62035 18.5378 3.17988 17.2189L5.30108 12.2189C5.61459 11.4799 6.33956 11 7.14231 11L7.7273 11H11.0682Z" fill="#64748B"/>
<path fill-rule="evenodd" clip-rule="evenodd" d="M15.7028 12.8191C15.9098 13.2715 15.787 13.8499 15.4284 14.1111L12.3988 16.3181C12.0402 16.5792 11.5818 16.4242 11.3748 15.9719C11.1677 15.5195 11.2906 14.941 11.6491 14.6798L14.6788 12.4729C15.0373 12.2117 15.4958 12.3667 15.7028 12.8191Z" fill="#F87171"/>
<path fill-rule="evenodd" clip-rule="evenodd" d="M11.3748 15.0281C11.5818 14.5757 12.0403 14.4207 12.3988 14.6819L15.4285 16.8889C15.787 17.15 15.9099 17.7285 15.7029 18.1809C15.4959 18.6333 15.0374 18.7883 14.6788 18.5271L11.6492 16.3201C11.2907 16.059 11.1678 15.4805 11.3748 15.0281Z" fill="#2563EB"/>
<path fill-rule="evenodd" clip-rule="evenodd" d="M21.6252 15.0281C21.4182 14.5757 20.9597 14.4207 20.6012 14.6819L17.5715 16.8889C17.213 17.15 17.0901 17.7285 17.2971 18.1809C17.5041 18.6333 17.9626 18.7883 18.3212 18.5271L21.3508 16.3201C21.7093 16.059 21.8322 15.4805 21.6252 15.0281Z" fill="#F59E0B"/>
<path fill-rule="evenodd" clip-rule="evenodd" d="M17.2972 12.8191C17.0902 13.2715 17.213 13.8499 17.5716 14.1111L20.6012 16.3181C20.9598 16.5792 21.4182 16.4242 21.6252 15.9719C21.8323 15.5195 21.7094 14.941 21.3509 14.6798L18.3212 12.4729C17.9627 12.2117 17.5042 12.3667 17.2972 12.8191Z" fill="#2DD4BF"/>
</svg>
