<svg width="24" height="24" viewBox="0 0 24 24" fill="none" xmlns="http://www.w3.org/2000/svg">
<path fill-rule="evenodd" clip-rule="evenodd" d="M5 4C3.34315 4 2 5.34315 2 7V17C2 18.6569 3.34315 20 5 20H13V18H5C4.44772 18 4 17.5523 4 17V7C4 6.44772 4.44772 6 5 6H7.78388C8.01539 6 8.23973 6.08033 8.41862 6.22727L10.8119 8.19318C11.3486 8.63402 12.0216 8.875 12.7161 8.875H19C19.5523 8.875 20 9.32272 20 9.875V10H22V9.875C22 8.21815 20.6569 6.875 19 6.875H12.7161C12.4846 6.875 12.2603 6.79467 12.0814 6.64773L9.6881 4.68182C9.15142 4.24098 8.47841 4 7.78388 4H5Z" fill="#64748B"/>
<path fill-rule="evenodd" clip-rule="evenodd" d="M15.3369 11L11.0682 11H7.7273L7.14231 11C6.33956 11 5.61459 11.4799 5.30108 12.2189L3.17988 17.2189C2.62035 18.5378 3.58837 20 5.02105 20H15.3369C13.9234 19.0046 13 17.3601 13 15.5C13 13.6398 13.9234 11.9954 15.3369 11Z" fill="#64748B"/>
<path fill-rule="evenodd" clip-rule="evenodd" d="M18.4983 11C17.556 11.0004 16.6375 11.2965 15.8725 11.8467C15.1075 12.397 14.5345 13.1735 14.2344 14.0667C13.9342 14.96 13.9221 15.925 14.1996 16.8255C14.4772 17.726 15.0305 18.5167 15.7814 19.086C16.5324 19.6553 17.4431 19.9745 18.3851 19.9985C19.3271 20.0226 20.253 19.7503 21.032 19.2201C21.811 18.6899 22.4039 17.9285 22.7271 17.0433C23.0503 16.1581 23.0874 15.1938 22.8332 14.2863H22.8318C22.8296 14.2728 22.8261 14.2594 22.8214 14.2465C22.82 14.2416 22.8151 14.2325 22.8151 14.2325C22.7971 14.1938 22.7685 14.1609 22.7326 14.1379C22.6966 14.1149 22.6549 14.1025 22.6122 14.1024C22.5526 14.1022 22.4953 14.1256 22.453 14.1676C22.4106 14.2096 22.3866 14.2666 22.3863 14.3262C22.3864 14.351 22.3906 14.3756 22.3988 14.399L22.3981 14.3997C22.4981 14.7579 22.5485 15.1281 22.5478 15.5C22.5494 16.032 22.4454 16.5591 22.2418 17.0507C22.0383 17.5422 21.7393 17.9886 21.3622 18.3638C20.9869 18.741 20.5406 19.04 20.049 19.2435C19.5574 19.447 19.0304 19.551 18.4983 19.5495C17.9662 19.5511 17.439 19.4472 16.9473 19.2436C16.4556 19.0401 16.0091 18.7411 15.6338 18.3638C15.2566 17.9886 14.9575 17.5423 14.7538 17.0507C14.5502 16.5592 14.446 16.0321 14.4474 15.5C14.4474 14.4178 14.8692 13.4007 15.6338 12.6355C16.0091 12.2582 16.4556 11.9591 16.9473 11.7556C17.439 11.5521 17.9662 11.4481 18.4983 11.4498C19.4637 11.4498 20.3779 11.7856 21.1075 12.4025C21.0824 12.4667 21.0696 12.5351 21.0698 12.604C21.0698 12.7209 21.1072 12.8348 21.1764 12.929C21.2455 13.0233 21.343 13.093 21.4545 13.1281C21.566 13.1632 21.6859 13.1619 21.7966 13.1242C21.9073 13.0866 22.0031 13.0147 22.0701 12.9189C22.1371 12.823 22.1719 12.7084 22.1693 12.5915C22.1667 12.4746 22.1269 12.3616 22.0557 12.2688C21.9845 12.1761 21.8856 12.1085 21.7733 12.0758C21.661 12.0431 21.5413 12.047 21.4314 12.0871C20.616 11.3843 19.5748 10.9984 18.4983 11ZM17.9296 13.0979L16.2718 17.3999H17.3112L17.582 16.671H19.1482L18.8649 15.8645H17.8331L18.5046 14.0142L19.6973 17.3999H20.7354L19.0775 13.0979H17.9296Z" fill="#CFD8DC"/>
</svg>
