<svg width="24" height="24" viewBox="0 0 24 24" fill="none" xmlns="http://www.w3.org/2000/svg">
<path fill-rule="evenodd" clip-rule="evenodd" d="M5 4C3.34315 4 2 5.34315 2 7V17C2 18.6569 3.34315 20 5 20H13V18H5C4.44772 18 4 17.5523 4 17V7C4 6.44772 4.44772 6 5 6H7.78388C8.01539 6 8.23973 6.08033 8.41862 6.22727L10.8119 8.19318C11.3486 8.63402 12.0216 8.875 12.7161 8.875H19C19.5523 8.875 20 9.32272 20 9.875V10H22V9.875C22 8.21815 20.6569 6.875 19 6.875H12.7161C12.4846 6.875 12.2603 6.79467 12.0814 6.64773L9.6881 4.68182C9.15142 4.24098 8.47841 4 7.78388 4H5Z" fill="#64748B"/>
<path fill-rule="evenodd" clip-rule="evenodd" d="M16.5678 11L11.0682 11H7.7273L7.14231 11C6.33956 11 5.61459 11.4799 5.30108 12.2189L3.17988 17.2189C2.62035 18.5378 3.58837 20 5.02105 20H14.5L13 18.5L18 13.0984C17.7687 12.9387 17.4405 12.791 17.049 12.6148C16.7344 12.4732 16.3789 12.3132 16 12.1138L16.5678 11Z" fill="#64748B"/>
<path fill-rule="evenodd" clip-rule="evenodd" d="M18.9452 14.6047L14.5456 19L14 18.455L18.3953 14.0554L18.9452 14.6047ZM20.6912 13.4787L20.921 13.2483L20.6131 12.9404L20.8625 12.6911L20.3089 12.1382L20.0596 12.3875L19.7517 12.0796L19.5219 12.3095C18.8435 11.7549 18.0805 11.3128 17.2621 11L16.9384 11.6974C17.6186 12.0554 18.2544 12.4922 18.8324 12.9989L18.6374 13.194L19.8066 14.3633L20.0017 14.1682C20.5082 14.7463 20.9448 15.382 21.3026 16.0623L22 15.7392C21.6874 14.9205 21.2455 14.1573 20.6912 13.4787Z" fill="#8CDBFF"/>
</svg>
