<svg width="24" height="24" viewBox="0 0 24 24" fill="none" xmlns="http://www.w3.org/2000/svg">
<path fill-rule="evenodd" clip-rule="evenodd" d="M5 4C3.34315 4 2 5.34315 2 7V17C2 18.6569 3.34315 20 5 20H11V18H5C4.44772 18 4 17.5523 4 17V7C4 6.44772 4.44772 6 5 6H7.78388C8.01539 6 8.23973 6.08033 8.41862 6.22727L10.8119 8.19318C11.3486 8.63402 12.0216 8.875 12.7161 8.875H19C19.5523 8.875 20 9.32272 20 9.875V10H22V9.875C22 8.21815 20.6569 6.875 19 6.875H12.7161C12.4846 6.875 12.2603 6.79467 12.0814 6.64773L9.6881 4.68182C9.15142 4.24098 8.47841 4 7.78388 4H5Z" fill="#64748B"/>
<path fill-rule="evenodd" clip-rule="evenodd" d="M12 11L11.0682 11H7.7273L7.14231 11C6.33956 11 5.61459 11.4799 5.30108 12.2189L3.17988 17.2189C2.62035 18.5378 3.58837 20 5.02105 20H17.6667V19.9996L16.25 19.9991L17.2057 17.7772L16 17L14 19L12.5 17.5L14.5 15.2647C13.9398 14.5798 13.8349 14.3221 13.5138 13.5338L13.5 13.5H12V11Z" fill="#64748B"/>
<path fill-rule="evenodd" clip-rule="evenodd" d="M17.8558 16.2276L16.8169 15.2237L16.8291 15.2118C17.5221 14.4587 18.0399 13.5676 18.3468 12.6H19.5453V11.8H16.6818V11H15.8635V11.8H13V12.6H17.5699C17.2872 13.3904 16.8463 14.1177 16.273 14.7398C15.8996 14.3353 15.5818 13.8849 15.3277 13.4H14.5095C14.8083 14.052 15.2171 14.668 15.7284 15.2237L13.6458 17.2314L14.227 17.7997L16.2723 15.7993L17.5448 17.0435L17.8558 16.2276ZM20.1591 14.2H19.3409L17.5 19H18.3182L18.7759 17.7997H20.7193L21.1811 18.9993H22L20.1591 14.1993M19.0869 16.9997L19.7497 15.2676L20.4124 16.9997H19.0869Z" fill="#CFD8DC"/>
</svg>
