<svg width="24" height="24" viewBox="0 0 24 24" fill="none" xmlns="http://www.w3.org/2000/svg">
<path fill-rule="evenodd" clip-rule="evenodd" d="M5 4C3.34315 4 2 5.34315 2 7V17C2 18.6569 3.34315 20 5 20H11V18H5C4.44772 18 4 17.5523 4 17V7C4 6.44772 4.44772 6 5 6H7.78388C8.01539 6 8.23973 6.08033 8.41862 6.22727L10.8119 8.19318C11.3486 8.63402 12.0216 8.875 12.7161 8.875H19C19.5523 8.875 20 9.32272 20 9.875V10H22V9.875C22 8.21815 20.6569 6.875 19 6.875H12.7161C12.4846 6.875 12.2603 6.79467 12.0814 6.64773L9.6881 4.68182C9.15142 4.24098 8.47841 4 7.78388 4H5Z" fill="#64748B"/>
<path fill-rule="evenodd" clip-rule="evenodd" d="M11 11H7.7273L7.14231 11C6.33956 11 5.61459 11.4799 5.30108 12.2189L3.17988 17.2189C2.62035 18.5378 3.58837 20 5.02105 20H11.9946C11.4448 19.9971 11 19.5505 11 19V11Z" fill="#64748B"/>
<rect x="12" y="17.85" width="4.45" height="1.15" fill="#F472B6"/>
<rect x="12" y="15.57" width="4.45" height="1.15" fill="#0EA5E9"/>
<rect x="12" y="13.28" width="4.45" height="1.15" fill="#8CDBFF"/>
<rect x="12" y="11" width="4.45" height="1.15" fill="#0D9488"/>
<rect x="17.5" y="11" width="4.5" height="8" fill="#C084FC"/>
</svg>
