<svg width="24" height="24" viewBox="0 0 24 24" fill="none" xmlns="http://www.w3.org/2000/svg">
<path fill-rule="evenodd" clip-rule="evenodd" d="M5 4C3.34315 4 2 5.34315 2 7V17C2 18.6569 3.34315 20 5 20H11V18H5C4.44772 18 4 17.5523 4 17V7C4 6.44772 4.44772 6 5 6H7.78388C8.01539 6 8.23973 6.08033 8.41862 6.22727L10.8119 8.19318C11.3486 8.63402 12.0216 8.875 12.7161 8.875H19C19.5523 8.875 20 9.32272 20 9.875V10H22V9.875C22 8.21815 20.6569 6.875 19 6.875H12.7161C12.4846 6.875 12.2603 6.79467 12.0814 6.64773L9.6881 4.68182C9.15142 4.24098 8.47841 4 7.78388 4H5Z" fill="#64748B"/>
<path fill-rule="evenodd" clip-rule="evenodd" d="M11.2675 11C11.0974 11.2942 11 11.6357 11 12V17C11 18.1046 11.8954 19 13 19H17C17 19.5505 17.4448 19.9971 17.9946 20H5.02105C3.58837 20 2.62035 18.5378 3.17988 17.2189L5.30108 12.2189C5.61459 11.4799 6.33956 11 7.14231 11L7.7273 11H11.0682L11.2675 11Z" fill="#64748B"/>
<path fill-rule="evenodd" clip-rule="evenodd" d="M12.8698 11H20.2611C20.4918 11 20.713 11.0937 20.8761 11.2604C21.0393 11.4272 21.1309 11.6533 21.1309 11.8891V12.7775H19.3913V11.8891H13.7389V17.2225H17.6524V18.1116H12.8691C12.6385 18.1114 12.4175 18.0176 12.2545 17.8509C12.0915 17.6842 12 17.4582 12 17.2225V11.8891C12 11.6534 12.0915 11.4274 12.2545 11.2607C12.4175 11.094 12.6392 11.0002 12.8698 11ZM18.9564 13.6667H21.5658C21.681 13.6669 21.7915 13.7138 21.8729 13.7971C21.9543 13.8805 22 13.9935 22 14.1112V18.5554C22 18.6732 21.9543 18.7862 21.8729 18.8695C21.7915 18.9529 21.681 18.9998 21.5658 19H18.9564C18.8411 18.9998 18.7307 18.9529 18.6493 18.8695C18.5679 18.7862 18.5222 18.6732 18.5222 18.5554V14.1112C18.5222 13.9935 18.5679 13.8805 18.6493 13.7971C18.7307 13.7138 18.8411 13.6669 18.9564 13.6667ZM19.3913 14.5558V17.667H21.1309V14.5558H19.3913Z" fill="#FF7C7C"/>
</svg>
