<svg width="24" height="24" viewBox="0 0 24 24" fill="none" xmlns="http://www.w3.org/2000/svg">
<path fill-rule="evenodd" clip-rule="evenodd" d="M5 4C3.34315 4 2 5.34315 2 7V17C2 18.6569 3.34315 20 5 20H13V18H5C4.44772 18 4 17.5523 4 17V7C4 6.44772 4.44772 6 5 6H7.78388C8.01539 6 8.23973 6.08033 8.41862 6.22727L10.8119 8.19318C11.3486 8.63402 12.0216 8.875 12.7161 8.875H19C19.5523 8.875 20 9.32272 20 9.875V10H22V9.875C22 8.21815 20.6569 6.875 19 6.875H12.7161C12.4846 6.875 12.2603 6.79467 12.0814 6.64773L9.6881 4.68182C9.15142 4.24098 8.47841 4 7.78388 4H5Z" fill="#64748B"/>
<path fill-rule="evenodd" clip-rule="evenodd" d="M7.14231 11C6.33956 11 5.61459 11.4799 5.30108 12.2189L3.17988 17.2189C2.62035 18.5378 3.58837 20 5.02105 20H18.674C18.7861 20 18.8966 19.9906 19.0046 19.9726L16.9784 18.4436L17.9433 17.1649L17.5931 16.8946C17.2544 17.0272 16.8857 17.1 16.5 17.1C14.8431 17.1 13.5 15.7569 13.5 14.1C13.5 12.4432 14.8431 11.1 16.5 11.1C18.1569 11.1 19.5 12.4432 19.5 14.1C19.5 14.2439 19.4899 14.3854 19.4703 14.5239L21.404 16.016L22.1707 13.6064C22.5811 12.3165 21.6185 11 20.2648 11L11.0682 11H7.7273L7.14231 11Z" fill="#64748B"/>
<path fill-rule="evenodd" clip-rule="evenodd" d="M18.5023 14.7696C18.6505 14.3305 18.6612 13.8599 18.5329 13.4228C18.4047 12.9856 18.1437 12.6033 17.7861 12.3288C17.327 11.9768 16.7427 11.8271 16.1614 11.9125C15.5801 11.9979 15.0494 12.3114 14.6856 12.7842C14.3225 13.2576 14.1564 13.8514 14.2238 14.4351C14.2912 15.0189 14.5866 15.5449 15.0452 15.8977C15.4028 16.1724 15.8395 16.3258 16.2951 16.3369C16.7507 16.3479 17.2026 16.2161 17.5886 15.9594L18.8429 16.9227L17.9291 18.1125L19.0829 18.9986L19.9967 17.8088L20.5736 18.2519L21.4873 17.062L18.5023 14.7696ZM15.9589 14.7079C15.6417 14.4643 15.5877 13.9971 15.8389 13.6699C16.0902 13.3428 16.5555 13.2744 16.8727 13.5181C17.1899 13.7617 17.244 14.2289 16.9927 14.556C16.7415 14.8832 16.2762 14.9515 15.9589 14.7079Z" fill="#8CDBFF"/>
</svg>
