<svg width="24" height="24" viewBox="0 0 24 24" fill="none" xmlns="http://www.w3.org/2000/svg">
<path fill-rule="evenodd" clip-rule="evenodd" d="M5 4C3.34315 4 2 5.34315 2 7V17C2 18.6569 3.34315 20 5 20H10V18H5C4.44772 18 4 17.5523 4 17V7C4 6.44772 4.44772 6 5 6H7.78388C8.01539 6 8.23973 6.08033 8.41862 6.22727L10.8119 8.19318C11.3486 8.63402 12.0216 8.875 12.7161 8.875H19C19.5523 8.875 20 9.32272 20 9.875V10H22V9.875C22 8.21815 20.6569 6.875 19 6.875H12.7161C12.4846 6.875 12.2603 6.79467 12.0814 6.64773L9.6881 4.68182C9.15142 4.24098 8.47841 4 7.78388 4H5Z" fill="#64748B"/>
<path fill-rule="evenodd" clip-rule="evenodd" d="M15 19.3082H18.3998V16.8908L19.9442 19.5448C19.5946 19.8322 19.1492 20 18.674 20H5.02105C3.58837 20 2.62035 18.5378 3.17988 17.2189L5.30108 12.2189C5.61459 11.4799 6.33956 11 7.14231 11L7.7273 11H11.0682L13.4534 11L10 11.0033V19.3104L13.6998 19.3082V17.5L14.4 18.5L15 17.5V19.3082ZM13.5 11L14.3 12.5L15.2609 11L13.5 11ZM20.3559 11.002C20.3258 11.0007 20.2954 11 20.2648 11L18.3998 11V14.5H19V11.0033L20.3559 11.002Z" fill="#64748B"/>
<path fill-rule="evenodd" clip-rule="evenodd" d="M17.7199 18.4619L15.7997 18.4636V15.2327L14.3599 17.3043L12.9202 15.2327V18.4636H11V12.0025H12.9202L14.3599 14.1565L15.7997 12.0025L17.7199 12V18.4619ZM20.5865 19L18.2003 15.2327H19.6401V12.0025H21.5602V15.2327H23L20.5865 19Z" fill="#8CDBFF"/>
</svg>
