<svg width="24" height="24" viewBox="0 0 24 24" fill="none" xmlns="http://www.w3.org/2000/svg">
<path fill-rule="evenodd" clip-rule="evenodd" d="M5 4C3.34315 4 2 5.34315 2 7V17C2 18.6569 3.34315 20 5 20H13V18H5C4.44772 18 4 17.5523 4 17V7C4 6.44772 4.44772 6 5 6H7.78388C8.01539 6 8.23973 6.08033 8.41862 6.22727L10.8119 8.19318C11.3486 8.63402 12.0216 8.875 12.7161 8.875H19C19.5523 8.875 20 9.32272 20 9.875V10H22V9.875C22 8.21815 20.6569 6.875 19 6.875H12.7161C12.4846 6.875 12.2603 6.79467 12.0814 6.64773L9.6881 4.68182C9.15142 4.24098 8.47841 4 7.78388 4H5Z" fill="#64748B"/>
<path fill-rule="evenodd" clip-rule="evenodd" d="M16.1922 11L11.0682 11H7.7273L7.14231 11C6.33956 11 5.61459 11.4799 5.30108 12.2189L3.17988 17.2189C2.62035 18.5378 3.58837 20 5.02105 20H16.7599C16.5866 19.915 16.4446 19.8195 16.3714 19.7489C16.2047 19.5882 16 19.2273 16 19H13V17.7856L13.889 16.9284V14.3568C13.889 13.0284 14.7915 11.8584 16.1114 11.4815V11.3572C16.1114 11.2327 16.1395 11.111 16.1922 11Z" fill="#64748B"/>
<path fill-rule="evenodd" clip-rule="evenodd" d="M21 17.9761V18.3571H14V17.9761L14.7778 17.2141V14.9282C14.7778 13.7475 15.5676 12.7075 16.7225 12.3725V12.262C16.7225 12.0599 16.8044 11.8661 16.9503 11.7232C17.0962 11.5803 17.294 11.5 17.5003 11.5C17.7066 11.5 17.9044 11.5803 18.0503 11.7232C18.1962 11.8661 18.2781 12.0599 18.2781 12.262V12.3725C18.8402 12.5361 19.3333 12.8734 19.6836 13.334C20.034 13.7946 20.2229 14.3538 20.2222 14.9282V17.2141L21 17.9761ZM18.2775 18.738C18.2775 18.9401 18.1956 19.1339 18.0497 19.2768C17.9038 19.4197 17.706 19.5 17.4997 19.5C17.2934 19.5 17.0956 19.4197 16.9497 19.2768C16.8038 19.1339 16.7219 18.9401 16.7219 18.738" fill="#CFD8DC"/>
</svg>
