<svg width="24" height="24" viewBox="0 0 24 24" fill="none" xmlns="http://www.w3.org/2000/svg">
<path fill-rule="evenodd" clip-rule="evenodd" d="M5 4C3.34315 4 2 5.34315 2 7V17C2 18.6569 3.34315 20 5 20H10V18H5C4.44772 18 4 17.5523 4 17V7C4 6.44772 4.44772 6 5 6H7.78388C8.01539 6 8.23973 6.08033 8.41862 6.22727L10.8119 8.19318C11.3486 8.63402 12.0216 8.875 12.7161 8.875H19C19.5523 8.875 20 9.32272 20 9.875V10H22V9.875C22 8.21815 20.6569 6.875 19 6.875H12.7161C12.4846 6.875 12.2603 6.79467 12.0814 6.64773L9.6881 4.68182C9.15142 4.24098 8.47841 4 7.78388 4H5Z" fill="#64748B"/>
<path fill-rule="evenodd" clip-rule="evenodd" d="M10.2675 11C10.0974 11.2942 10 11.6357 10 12V18C10 19.102 10.8913 19.9958 11.9924 20H5.02105C3.58837 20 2.62035 18.5378 3.17988 17.2189L5.30108 12.2189C5.61459 11.4799 6.33956 11 7.14231 11L7.7273 11H10.2675Z" fill="#64748B"/>
<path fill-rule="evenodd" clip-rule="evenodd" d="M13 12.2H20C20.4418 12.2 20.8 12.5582 20.8 13V17C20.8 17.4418 20.4418 17.8 20 17.8H13C12.5582 17.8 12.2 17.4418 12.2 17V13C12.2 12.5582 12.5582 12.2 13 12.2ZM11 13C11 11.8954 11.8954 11 13 11H20C21.1046 11 22 11.8954 22 13V17C22 18.1046 21.1046 19 20 19H13C11.8954 19 11 18.1046 11 17V13ZM15.125 16.3081V13.6923C15.125 13.4075 15.4604 13.2267 15.7353 13.3632L18.3677 14.671C18.6539 14.8132 18.6539 15.1869 18.3677 15.3291L15.7353 16.6372C15.4605 16.7738 15.125 16.5929 15.125 16.3081Z" fill="#CFD8DC"/>
</svg>
