<svg width="24" height="24" viewBox="0 0 24 24" fill="none" xmlns="http://www.w3.org/2000/svg">
<path fill-rule="evenodd" clip-rule="evenodd" d="M5 4C3.34315 4 2 5.34315 2 7V17C2 18.6569 3.34315 20 5 20H12V18H5C4.44772 18 4 17.5523 4 17V7C4 6.44772 4.44772 6 5 6H7.78388C8.01539 6 8.23973 6.08033 8.41862 6.22727L10.8119 8.19318C11.3486 8.63402 12.0216 8.875 12.7161 8.875H19C19.5523 8.875 20 9.32272 20 9.875V10H22V9.875C22 8.21815 20.6569 6.875 19 6.875H12.7161C12.4846 6.875 12.2603 6.79467 12.0814 6.64773L9.6881 4.68182C9.15142 4.24098 8.47841 4 7.78388 4H5Z" fill="#64748B"/>
<path fill-rule="evenodd" clip-rule="evenodd" d="M19.809 11.0027C19.871 11.001 19.9332 11 19.9957 11L19.8065 11C19.8073 11.0009 19.8081 11.0018 19.809 11.0027ZM14.2143 11C12.9307 11.8755 12 13.2981 12 15.1569C12 17.337 13.3324 19.3015 14.4675 20H5.02105C3.58837 20 2.62035 18.5378 3.17988 17.2189L5.30108 12.2189C5.61459 11.4799 6.33956 11 7.14231 11L7.7273 11H11.0682L14.2143 11ZM20.5947 11.0267C20.4005 11.0092 20.2035 11.0001 20.0042 11H20.2648C20.3777 11 20.4879 11.0092 20.5947 11.0267Z" fill="#64748B"/>
<path d="M22.8092 15.3959C22.2949 14.89 19.7228 14.5741 18.9113 14.4822C18.9508 14.3863 18.9844 14.2879 19.0117 14.1876C19.1223 14.138 19.2418 14.0919 19.3652 14.0533C19.3803 14.0988 19.4511 14.2729 19.4915 14.3555C21.1234 14.4016 21.2072 13.114 21.2736 12.7613C21.3385 12.4163 21.3352 12.0831 21.8949 11.4738C21.061 11.225 19.8618 11.8594 19.46 12.8036C19.3091 12.7457 19.1578 12.703 19.0082 12.6765C18.9009 12.2337 18.3426 11 16.8773 11C15.0221 11 13 12.5668 13 15.2192C13 17.4488 14.4869 19.4027 15.3269 19.4027C15.6938 19.4027 16.0093 19.1214 16.0834 18.8693C16.1455 19.0422 16.3361 19.5796 16.3987 19.7164C16.4912 19.9187 16.9191 20.0938 17.1063 19.8838C17.347 20.0207 17.7888 20.1032 18.0295 19.7381C18.4932 19.8385 18.9031 19.5555 18.9121 19.2177C19.1396 19.2053 19.2512 18.8782 19.2015 18.6178C19.1649 18.426 18.7736 17.738 18.621 17.5005C18.9231 17.752 19.6883 17.8233 19.7812 17.5007C20.2683 17.892 21.0273 17.6866 21.0875 17.3683C21.6793 17.5257 22.3581 17.18 22.2466 16.7613C23.1973 16.694 23.0756 15.6584 22.8089 15.396L22.8092 15.3959Z" fill="black"/>
<path d="M19.9755 13.2523C20.305 12.9016 20.7191 12.5187 21.2422 12.2819C20.6665 12.4063 20.0981 12.7783 19.762 13.1758C19.5942 13.1185 19.4204 13.0664 19.2415 13.0198C19.7103 12.4832 20.7996 12.035 22 12C21.196 12.3911 21.4813 13.2039 20.8203 13.6342C20.6311 13.5323 20.1967 13.3357 19.9755 13.2523ZM19.4557 13.8233C19.4561 13.8098 19.4654 13.7064 19.483 13.6591C19.4369 13.6533 19.1503 13.6232 19.0009 13.6251C18.99 13.7257 19.0798 13.8969 19.1684 14C19.7793 13.9931 20.2205 13.895 20.4801 13.8048C20.2591 13.7496 19.8818 13.7004 19.595 13.6711C19.5629 13.7066 19.4842 13.7971 19.4557 13.8233Z" fill="#60A5FA"/>
<path d="M18.4299 16.9859C18.43 16.9864 18.4303 16.9872 18.4303 16.9877C18.3821 16.8847 18.3308 16.7595 18.2697 16.5958C18.5079 16.9401 19.2546 16.7625 19.2154 16.4541C19.5808 16.7271 20.3331 16.4086 20.1621 16.0258C20.5282 16.1951 20.946 15.8544 20.8523 15.7059C21.4765 15.8254 22.0746 15.9445 22.2623 15.9922C22.1376 16.1941 21.8535 16.3367 21.4253 16.2376C21.6567 16.5505 21.2075 16.926 20.5818 16.7192C20.7195 17.0264 20.1624 17.303 19.5292 16.9827C19.5372 17.2901 18.7437 17.3255 18.4299 16.9859V16.9859ZM19.668 15.4325C20.3924 15.4877 21.5903 15.5949 22.332 15.698C22.2851 15.4584 22.1571 15.3899 21.7546 15.2826C21.3216 15.3284 20.223 15.4355 19.668 15.4325L19.668 15.4325Z" fill="#14B8A6"/>
<path d="M19.2155 16.4541C19.581 16.7271 20.3332 16.4087 20.1622 16.0258C20.5283 16.1952 20.9461 15.8544 20.8524 15.706C20.1145 15.5647 19.3402 15.4229 19.1646 15.3982C19.2711 15.4038 19.4477 15.4158 19.6681 15.4326C20.2232 15.4356 21.3217 15.3285 21.7546 15.2827C21.0536 15.1062 19.6222 14.8486 18.6337 14.7852C18.5879 14.8516 18.5037 14.9644 18.357 15.0842C17.9245 15.9927 17.1409 16.5965 16.2738 16.5965C16.0212 16.5965 15.7385 16.5542 15.4216 16.4537C15.224 16.6638 14.3815 16.8231 13.6979 16.49C14.2401 17.7506 15.4976 18.592 16.8897 18.592C18.062 18.592 18.5818 17.4035 18.4681 17.0891C18.4405 17.0127 18.3311 16.7596 18.2699 16.5959C18.5081 16.9402 19.2548 16.7626 19.2157 16.4541L19.2155 16.4541Z" fill="#F59E0B"/>
<path d="M18.5051 14.0621C18.6087 14.0062 18.9663 13.7909 19.3072 13.71C19.3018 13.6724 19.2978 13.6346 19.2952 13.5967C19.0716 13.6499 18.65 13.8293 18.4084 13.5821C18.9181 13.7348 19.1726 13.446 19.5473 13.446C19.7705 13.446 20.089 13.5079 20.3401 13.6058C20.1382 13.4206 19.4759 12.8615 18.6559 12.8596C18.4728 13.08 18.2749 13.5573 18.5051 14.0621L18.5051 14.0621Z" fill="#CECECE"/>
<path d="M15.4216 16.4535C15.7385 16.554 16.0212 16.5964 16.2739 16.5964C17.1409 16.5964 17.9245 15.9924 18.357 15.084C18.0371 15.349 17.4812 15.5759 16.613 15.5759C17.3863 15.4018 18.0521 15.0192 18.3907 14.4599C18.1527 14.0837 17.8945 13.2515 18.5483 12.5936C18.4477 12.2728 17.9582 11.4259 16.8744 11.4259C14.983 11.4259 13.4155 12.9972 13.4155 15.1029C13.4155 15.6014 13.5169 16.0689 13.698 16.4897C14.3815 16.8228 15.224 16.6636 15.4216 16.4534L15.4216 16.4535Z" fill="#F87171"/>
<path d="M15.9889 13.2472C15.9889 13.7262 16.38 14.1145 16.8625 14.1145C17.3449 14.1145 17.7361 13.7262 17.7361 13.2472C17.7361 12.7682 17.3449 12.3799 16.8625 12.3799C16.38 12.3799 15.9889 12.7682 15.9889 13.2472Z" fill="#F59E0B"/>
<path d="M16.3396 13.2472C16.3396 13.534 16.5738 13.7664 16.8626 13.7664C17.1515 13.7664 17.3856 13.5339 17.3856 13.2472C17.3856 12.9604 17.1515 12.7279 16.8626 12.7279C16.5738 12.7279 16.3396 12.9604 16.3396 13.2472Z" fill="#010101"/>
<path d="M16.8625 13.205C17.0308 13.205 17.1673 13.1208 17.1673 13.0169C17.1673 12.913 17.0308 12.8288 16.8625 12.8288C16.6942 12.8288 16.5577 12.913 16.5577 13.0169C16.5577 13.1208 16.6942 13.205 16.8625 13.205Z" fill="white"/>
</svg>
