<svg width="24" height="24" viewBox="0 0 24 24" fill="none" xmlns="http://www.w3.org/2000/svg">
<path fill-rule="evenodd" clip-rule="evenodd" d="M5 4C3.34315 4 2 5.34315 2 7V17C2 18.6569 3.34315 20 5 20H13V18H5C4.44772 18 4 17.5523 4 17V7C4 6.44772 4.44772 6 5 6H7.78388C8.01539 6 8.23973 6.08033 8.41862 6.22727L10.8119 8.19318C11.3486 8.63402 12.0216 8.875 12.7161 8.875H19C19.5523 8.875 20 9.32272 20 9.875V10H22V9.875C22 8.21815 20.6569 6.875 19 6.875H12.7161C12.4846 6.875 12.2603 6.79467 12.0814 6.64773L9.6881 4.68182C9.15142 4.24098 8.47841 4 7.78388 4H5Z" fill="#64748B"/>
<path fill-rule="evenodd" clip-rule="evenodd" d="M15.1435 17.8574H13V15.5H17.5V20H18.5V15.5H21.5682L21.8864 14.5H18.5V11L17.5 11V14.5H13V12.1435H15.1435V11L11.0682 11H7.7273L7.14231 11C6.33956 11 5.61459 11.4799 5.30108 12.2189L3.17988 17.2189C2.62035 18.5378 3.58837 20 5.02105 20H15.1435V17.8574ZM20.8574 11.0883V12.1435L22.0729 12.144C21.8372 11.6488 21.4022 11.2561 20.8574 11.0883Z" fill="#64748B"/>
<path fill-rule="evenodd" clip-rule="evenodd" d="M14 17.2859H15.7148V19H16.857V16.143H14V17.2859ZM15.7148 12.7148H14V13.857H16.857V11H15.7148V12.7148ZM19.143 19H20.2859V17.2859H22V16.143H19.143V19ZM20.2859 12.7148V11H19.143V13.857H22V12.7155L20.2859 12.7148Z" fill="#CFD8DC"/>
</svg>
