<svg width="24" height="24" viewBox="0 0 24 24" fill="none" xmlns="http://www.w3.org/2000/svg">
<path fill-rule="evenodd" clip-rule="evenodd" d="M5 4C3.34315 4 2 5.34315 2 7V17C2 18.6569 3.34315 20 5 20H13V18H5C4.44772 18 4 17.5523 4 17V7C4 6.44772 4.44772 6 5 6H7.78388C8.01539 6 8.23973 6.08033 8.41862 6.22727L10.8119 8.19318C11.3486 8.63402 12.0216 8.875 12.7161 8.875H19C19.5523 8.875 20 9.32272 20 9.875V10H22V9.875C22 8.21815 20.6569 6.875 19 6.875H12.7161C12.4846 6.875 12.2603 6.79467 12.0814 6.64773L9.6881 4.68182C9.15142 4.24098 8.47841 4 7.78388 4H5Z" fill="#64748B"/>
<path fill-rule="evenodd" clip-rule="evenodd" d="M19.7525 19.6842C19.2107 19.887 18.6243 19.9985 18.0121 20H18.674C19.0661 20 19.438 19.8857 19.7525 19.6842ZM17.9879 20H5.02105C3.58837 20 2.62035 18.5378 3.17988 17.2189L5.30108 12.2189C5.61459 11.4799 6.33956 11 7.14231 11L7.7273 11H11.0682L14.9995 11C13.7853 11.9122 13 13.3644 13 15C13 17.7574 15.232 19.9934 17.9879 20ZM21.483 11.4126C21.6644 11.5888 21.8325 11.7786 21.9856 11.9804C21.8559 11.762 21.6853 11.5687 21.483 11.4126Z" fill="#64748B"/>
<path d="M18 19C17.4533 19 16.9367 18.8949 16.45 18.6848C15.9634 18.4749 15.5384 18.1882 15.1752 17.8248C14.8117 17.4616 14.525 17.0367 14.3152 16.55C14.1051 16.0633 14 15.5466 14 15C14 14.4467 14.1051 13.9284 14.3152 13.4452C14.525 12.9618 14.8118 12.5384 15.1752 12.1752C15.5384 11.8117 15.9633 11.5249 16.45 11.3148C16.9367 11.1049 17.4534 11 18 11C18.5534 11 19.0716 11.1049 19.5548 11.3148C20.0382 11.5249 20.4616 11.8117 20.8248 12.1752C21.1883 12.5384 21.475 12.9618 21.6848 13.4452C21.8949 13.9284 22 14.4467 22 15V15.58C22 15.9733 21.8651 16.3083 21.5952 16.5848C21.325 16.8616 20.9933 17 20.6 17C20.36 17 20.1367 16.9466 19.93 16.84C19.7233 16.7333 19.5533 16.5934 19.42 16.42C19.24 16.6 19.0284 16.7417 18.7852 16.8452C18.5417 16.9484 18.28 17 18 17C17.4466 17 16.975 16.8049 16.5851 16.4148C16.195 16.025 15.9999 15.5534 15.9999 15C15.9999 14.4466 16.195 13.9749 16.5851 13.5848C16.975 13.1948 17.4466 12.9999 18 12.9999C18.5533 12.9999 19.0251 13.1948 19.4152 13.5848C19.805 13.9749 20 14.4466 20 15V15.5799C20 15.7733 20.06 15.9249 20.18 16.0347C20.3 16.1449 20.44 16.2 20.6 16.2C20.76 16.2 20.9 16.1449 21.02 16.0347C21.14 15.9249 21.2 15.7733 21.2 15.5799V15C21.2 14.1266 20.8849 13.3749 20.2548 12.7448C19.6249 12.1148 18.8733 11.7999 18 11.7999C17.1266 11.7999 16.3749 12.1148 15.7447 12.7448C15.1149 13.3749 14.7999 14.1266 14.7999 15C14.7999 15.8733 15.1149 16.6249 15.7447 17.2548C16.3749 17.8849 17.1266 18.2 18 18.2H20V19L18 19ZM18 16.2C18.3333 16.2 18.6167 16.0833 18.85 15.85C19.0834 15.6166 19.2 15.3333 19.2 15C19.2 14.6666 19.0834 14.3833 18.85 14.15C18.6167 13.9166 18.3333 13.8 18 13.8C17.6667 13.8 17.3833 13.9166 17.15 14.15C16.9167 14.3833 16.8 14.6666 16.8 15C16.8 15.3333 16.9167 15.6167 17.15 15.85C17.3833 16.0833 17.6667 16.2 18 16.2Z" fill="#F472B6"/>
</svg>
