<svg width="24" height="24" viewBox="0 0 24 24" fill="none" xmlns="http://www.w3.org/2000/svg">
<path fill-rule="evenodd" clip-rule="evenodd" d="M5 4C3.34315 4 2 5.34315 2 7V17C2 18.6569 3.34315 20 5 20H12V18H5C4.44772 18 4 17.5523 4 17V7C4 6.44772 4.44772 6 5 6H7.78388C8.01539 6 8.23973 6.08033 8.41862 6.22727L10.8119 8.19318C11.3486 8.63402 12.0216 8.875 12.7161 8.875H19C19.5523 8.875 20 9.32272 20 9.875V10H22V9.875C22 8.21815 20.6569 6.875 19 6.875H12.7161C12.4846 6.875 12.2603 6.79467 12.0814 6.64773L9.6881 4.68182C9.15142 4.24098 8.47841 4 7.78388 4H5Z" fill="#64748B"/>
<path fill-rule="evenodd" clip-rule="evenodd" d="M17.0871 11C16.1996 11.4927 15.7235 12.4088 16.3 14C16.4143 14.3155 16.5 14.5 16.7564 15C15.1337 14.8333 13.5466 16.0401 13.0001 17C12.2314 18.344 13.0222 19.4821 14.3243 20H5.02105C3.58837 20 2.62035 18.5378 3.17988 17.2189L5.30108 12.2189C5.61459 11.4799 6.33956 11 7.14231 11L7.7273 11H11.0682L17.0871 11Z" fill="#64748B"/>
<path fill-rule="evenodd" clip-rule="evenodd" d="M19.0941 17.7432C19.9523 16.8838 20.0529 15.9962 19.389 14.3486C18.9685 13.3061 18.271 12.5035 18.7836 11.8559C19.3297 11.1657 20.4906 11.8349 19.5232 12.7578L19.7159 12.8695C20.876 12.9826 21.4478 11.6513 20.5818 11.2716C18.296 10.2716 16.2957 12.1937 17.1773 14.4185C17.5564 15.3629 18.0861 16.3629 17.657 17.1589C17.2873 17.8412 16.5726 18.2432 16.0936 18.2569C15.0935 18.2987 15.7582 16.3772 16.9089 15.8982C17.0095 15.8564 17.1531 15.8001 17.0181 15.659C15.5982 15.5256 14.765 16.074 14.2868 16.8419C12.8903 19.0745 16.9338 19.898 19.0941 17.7432Z" fill="#FFCE50"/>
</svg>
