<svg width="24" height="24" viewBox="0 0 24 24" fill="none" xmlns="http://www.w3.org/2000/svg">
<path fill-rule="evenodd" clip-rule="evenodd" d="M5 4C3.34315 4 2 5.34315 2 7V17C2 18.6569 3.34315 20 5 20H13V18H5C4.44772 18 4 17.5523 4 17V7C4 6.44772 4.44772 6 5 6H7.78388C8.01539 6 8.23973 6.08033 8.41862 6.22727L10.8119 8.19318C11.3486 8.63402 12.0216 8.875 12.7161 8.875H19C19.5523 8.875 20 9.32272 20 9.875V10H22V9.875C22 8.21815 20.6569 6.875 19 6.875H12.7161C12.4846 6.875 12.2603 6.79467 12.0814 6.64773L9.6881 4.68182C9.15142 4.24098 8.47841 4 7.78388 4H5Z" fill="#64748B"/>
<path fill-rule="evenodd" clip-rule="evenodd" d="M19 19.9629C18.9234 19.9787 18.8481 19.9903 18.7758 19.9974C18.8515 19.9936 18.9263 19.9855 19 19.9733V19.9629ZM18.4998 20H5.02105C3.58837 20 2.62035 18.5378 3.17988 17.2189L5.30108 12.2189C5.61459 11.4799 6.33956 11 7.14231 11L7.7273 11H11.0682L15.5931 11C14.7679 11.0049 14.1 11.8985 14.1 13C14.1 13.5571 14.2708 14.061 14.5465 14.4237C14.0419 14.5035 13.5657 14.6255 13.2815 15.0058C12.9289 15.479 12.6635 16.4962 13 17C13.3693 17.5677 14.0954 17.8002 14.8154 18.0308C15.2365 18.1656 15.6555 18.2998 16 18.5C16.3319 18.6926 16.6096 18.9251 16.8773 19.1494C17.3625 19.5558 17.8153 19.935 18.4998 20ZM15.6068 11L17.1746 11C17.008 11.2158 16.8715 11.4748 16.7798 11.7648C16.5065 11.3013 16.0828 11.0028 15.6068 11Z" fill="#64748B"/>
<path fill-rule="evenodd" clip-rule="evenodd" d="M18.4708 11.0378C18.9069 11.2131 19.0794 11.9034 18.8516 12.5852C18.6257 13.2637 18.0926 13.6772 17.6539 13.5051C17.2197 13.335 17.044 12.6427 17.2686 11.959C17.4905 11.2785 18.0301 10.8696 18.4708 11.0378ZM20.9104 12.4536C21.2794 12.7546 21.1935 13.4272 20.7249 13.9651C20.2445 14.5003 19.5643 14.6953 19.1965 14.4002C18.8262 14.1025 18.916 13.4318 19.3905 12.8979C19.8644 12.3588 20.5446 12.1638 20.9104 12.4536ZM15.7389 11.5566C16.2245 11.6142 16.5786 12.226 16.5493 12.9182C16.4972 13.6111 16.0813 14.1286 15.599 14.073C15.1173 14.0174 14.7652 13.4102 14.8049 12.7154C14.8446 12.0205 15.269 11.503 15.7389 11.556M21.8815 15.1212C22.1621 15.5033 21.9284 16.1314 21.3497 16.5135C20.7704 16.8957 20.072 16.893 19.783 16.5005C19.494 16.1092 19.7322 15.4883 20.3031 15.0963C20.8843 14.7254 21.5886 14.7273 21.8815 15.1212ZM19.1874 18.4876C19.0162 18.818 18.5658 19.0326 18.1954 18.9959C17.4228 18.9227 17.0342 17.9196 16.3553 17.5257C15.6764 17.1312 14.5979 17.3151 14.1722 16.6608C13.9275 16.2944 13.9483 15.712 14.2048 15.3679C14.5601 14.8922 15.3289 14.972 15.9049 14.8085C16.6639 14.6037 17.527 13.8924 18.213 14.2916C18.8958 14.6868 18.7429 15.7919 18.918 16.5567C19.0566 17.1953 19.4849 17.915 19.1874 18.4876Z" fill="#CFD8DC"/>
</svg>
