<svg width="24" height="24" viewBox="0 0 24 24" fill="none" xmlns="http://www.w3.org/2000/svg">
<path fill-rule="evenodd" clip-rule="evenodd" d="M5 4C3.34315 4 2 5.34315 2 7V17C2 18.6569 3.34315 20 5 20H14V18H5C4.44772 18 4 17.5523 4 17V7C4 6.44772 4.44772 6 5 6H7.78388C8.01539 6 8.23973 6.08033 8.41862 6.22727L10.8119 8.19318C11.3486 8.63402 12.0216 8.875 12.7161 8.875H19C19.5523 8.875 20 9.32272 20 9.875V10H22V9.875C22 8.21815 20.6569 6.875 19 6.875H12.7161C12.4846 6.875 12.2603 6.79467 12.0814 6.64773L9.6881 4.68182C9.15142 4.24098 8.47841 4 7.78388 4H5Z" fill="#64748B"/>
<path fill-rule="evenodd" clip-rule="evenodd" d="M14.0273 11C14.0093 11.0817 14 11.1654 14 11.25V18.75C14 19.0815 14.1422 19.3994 14.3954 19.6339C14.6471 19.8669 14.9878 19.9984 15.3435 20H5.02105C3.58837 20 2.62035 18.5378 3.17988 17.2189L5.30108 12.2189C5.61459 11.4799 6.33956 11 7.14231 11L7.7273 11H11.0682L14.0273 11Z" fill="#64748B"/>
<path fill-rule="evenodd" clip-rule="evenodd" d="M15.9 11C15.6613 11 15.4324 11.1054 15.2636 11.2929C15.0948 11.4804 15 11.7348 15 12V18C15 18.2652 15.0948 18.5196 15.2636 18.7071C15.4324 18.8946 15.6613 19 15.9 19H20.1C20.3387 19 20.5676 18.8946 20.7364 18.7071C20.9052 18.5196 21 18.2652 21 18V12C21 11.7348 20.9052 11.4804 20.7364 11.2929C20.5676 11.1054 20.3387 11 20.1 11H15.9Z" fill="#CFD8DC"/>
<path fill-rule="evenodd" clip-rule="evenodd" d="M16 13.0007L18 17L20 13.02V13H19.2223L18.0115 15.4096L16.8064 13.0007H16Z" fill="#0D9488"/>
<path fill-rule="evenodd" clip-rule="evenodd" d="M16.5 13L17.9961 16L19.5 13H18.5941L18.0025 14.1801L17.4131 13H16.5Z" fill="#35495E"/>
</svg>
