<svg width="24" height="24" viewBox="0 0 24 24" fill="none" xmlns="http://www.w3.org/2000/svg">
<path fill-rule="evenodd" clip-rule="evenodd" d="M5 4C3.34315 4 2 5.34315 2 7V17C2 18.6569 3.34315 20 5 20H13V18H5C4.44772 18 4 17.5523 4 17V7C4 6.44772 4.44772 6 5 6H7.78388C8.01539 6 8.23973 6.08033 8.41862 6.22727L10.8119 8.19318C11.3486 8.63402 12.0216 8.875 12.7161 8.875H19C19.5523 8.875 20 9.32272 20 9.875V10H22V9.875C22 8.21815 20.6569 6.875 19 6.875H12.7161C12.4846 6.875 12.2603 6.79467 12.0814 6.64773L9.6881 4.68182C9.15142 4.24098 8.47841 4 7.78388 4H5Z" fill="#64748B"/>
<path fill-rule="evenodd" clip-rule="evenodd" d="M13.6327 11.3242C12.5359 12.5661 12.6536 14.4619 13.8955 15.5587L17.9252 19.1173C18.3762 19.5156 18.9134 19.7537 19.4672 19.836C19.222 19.9421 18.9531 20 18.674 20H5.02105C3.58837 20 2.62035 18.5378 3.17988 17.2189L5.30108 12.2189C5.61459 11.4799 6.33956 11 7.14231 11L7.7273 11H11.0682L13.9362 11C13.8686 11.0636 13.8034 11.1309 13.7407 11.2018L13.6327 11.3242ZM18.0443 11L21.913 14.4165L22.1707 13.6064C22.5811 12.3165 21.6185 11 20.2648 11L18.0443 11Z" fill="#64748B"/>
<path fill-rule="evenodd" clip-rule="evenodd" d="M18.61 15.6103C18.5679 15.6496 18.5344 15.6972 18.5115 15.7501C18.4886 15.8029 18.4768 15.8599 18.4768 15.9175C18.4768 15.9751 18.4886 16.0321 18.5115 16.085C18.5344 16.1378 18.5679 16.1854 18.61 16.2248C18.6917 16.3059 18.8021 16.3514 18.9173 16.3514C19.0324 16.3514 19.1429 16.3059 19.2246 16.2248C19.6299 15.8188 19.8575 15.2687 19.8575 14.695C19.8575 14.1214 19.6299 13.5712 19.2246 13.1653L17.6927 11.6329C17.2867 11.2276 16.7365 11 16.1628 11C15.5892 11 15.0389 11.2276 14.633 11.6329C14.2276 12.0389 14 12.589 14 13.1627C14 13.7363 14.2276 14.2865 14.633 14.6924L15.2769 15.3377C15.2718 14.981 15.3304 14.6263 15.4502 14.2904L15.2475 14.0825C15.1262 13.9625 15.0298 13.8196 14.9641 13.6621C14.8983 13.5046 14.8645 13.3356 14.8645 13.1649C14.8645 12.9943 14.8983 12.8253 14.9641 12.6678C15.0298 12.5103 15.1262 12.3674 15.2475 12.2474C15.3675 12.1262 15.5104 12.0299 15.6678 11.9642C15.8253 11.8986 15.9942 11.8647 16.1648 11.8647C16.3354 11.8647 16.5043 11.8986 16.6618 11.9642C16.8192 12.0299 16.9621 12.1262 17.0821 12.2474L18.61 13.7752C18.7313 13.8952 18.8277 14.0381 18.8934 14.1956C18.9592 14.3531 18.993 14.5221 18.993 14.6927C18.993 14.8634 18.9592 15.0324 18.8934 15.1899C18.8277 15.3474 18.7313 15.4903 18.61 15.6103ZM17.3894 13.7752C17.3077 13.6941 17.1972 13.6486 17.0821 13.6486C16.9669 13.6486 16.8565 13.6941 16.7748 13.7752C16.3695 14.1812 16.1418 14.7313 16.1418 15.305C16.1418 15.8786 16.3695 16.4288 16.7748 16.8347L18.3073 18.3671C18.7133 18.7724 19.2635 19 19.8372 19C20.4108 19 20.9611 18.7724 21.367 18.3671C21.7724 17.9611 22 17.411 22 16.8373C22 16.2637 21.7724 15.7135 21.367 15.3076L20.7224 14.6623C20.7273 15.0204 20.6686 15.3766 20.5491 15.7142L20.7525 15.9169C20.8739 16.0369 20.9704 16.1798 21.0362 16.3374C21.102 16.4949 21.1359 16.664 21.1359 16.8347C21.1359 17.0055 21.102 17.1745 21.0362 17.3321C20.9704 17.4896 20.8739 17.6326 20.7525 17.7526C20.6325 17.8739 20.4896 17.9703 20.332 18.036C20.1745 18.1017 20.0056 18.1356 19.8349 18.1356C19.6642 18.1356 19.4952 18.1017 19.3377 18.036C19.1802 17.9703 19.0373 17.8739 18.9173 17.7526L17.3894 16.2248C17.268 16.1048 17.1717 15.9619 17.1059 15.8044C17.0402 15.6469 17.0063 15.4779 17.0063 15.3073C17.0063 15.1366 17.0402 14.9676 17.1059 14.8101C17.1717 14.6526 17.268 14.5097 17.3894 14.3897C17.4314 14.3504 17.4649 14.3028 17.4878 14.2499C17.5107 14.1971 17.5226 14.1401 17.5226 14.0825C17.5226 14.0249 17.5107 13.9679 17.4878 13.915C17.4649 13.8622 17.4314 13.8146 17.3894 13.7752Z" fill="#C084FC"/>
</svg>
