<svg width="24" height="24" viewBox="0 0 24 24" fill="none" xmlns="http://www.w3.org/2000/svg">
<path fill-rule="evenodd" clip-rule="evenodd" d="M5 4C3.34315 4 2 5.34315 2 7V17C2 18.6569 3.34315 20 5 20H13V18H5C4.44772 18 4 17.5523 4 17V7C4 6.44772 4.44772 6 5 6H7.78388C8.01539 6 8.23973 6.08033 8.41862 6.22727L10.8119 8.19318C11.3486 8.63402 12.0216 8.875 12.7161 8.875H19C19.5523 8.875 20 9.32272 20 9.875V10H22V9.875C22 8.21815 20.6569 6.875 19 6.875H12.7161C12.4846 6.875 12.2603 6.79467 12.0814 6.64773L9.6881 4.68182C9.15142 4.24098 8.47841 4 7.78388 4H5Z" fill="#64748B"/>
<path fill-rule="evenodd" clip-rule="evenodd" d="M14.9995 11L11.0682 11H7.7273L7.14231 11C6.33956 11 5.61459 11.4799 5.30108 12.2189L3.17988 17.2189C2.62035 18.5378 3.58837 20 5.02105 20H17.9879C15.232 19.9935 13 17.7574 13 15C13 13.3644 13.7853 11.9122 14.9995 11Z" fill="#64748B"/>
<path fill-rule="evenodd" clip-rule="evenodd" d="M18 18.2002C18.8486 18.2002 19.6624 17.8631 20.2625 17.263C20.8625 16.6629 21.1996 15.849 21.1996 15.0003C21.1996 14.1517 20.8625 13.3378 20.2625 12.7377C19.6624 12.1376 18.8486 11.8005 18 11.8005C17.1515 11.8005 16.3378 12.1375 15.7378 12.7375C15.1378 13.3374 14.8006 14.1511 14.8004 14.9997C14.8003 15.4199 14.883 15.8361 15.0438 16.2244C15.2045 16.6127 15.4402 16.9655 15.7373 17.2627C16.0344 17.56 16.3872 17.7957 16.7754 17.9566C17.1636 18.1174 17.5798 18.2002 18 18.2002ZM18 11C19.0609 11 20.0783 11.4215 20.8284 12.1717C21.5786 12.9219 22 13.9394 22 15.0003C21.9998 16.0612 21.5783 17.0785 20.8282 17.8286C20.0781 18.5786 19.0607 19 18 19C16.9394 18.9991 15.9225 18.5774 15.1726 17.8273C14.4226 17.0773 14.0009 16.0603 14 14.9997C14.0002 13.9388 14.4217 12.9215 15.1718 12.1714C15.9219 11.4214 16.9392 11 18 11ZM18.2003 13.0002V15.0998L20 16.1684L19.6996 16.6597L17.6001 15.4002V13.0002H18.2003Z" fill="#8CDBFF" stroke="#8CDBFF" stroke-width="0.271" stroke-linejoin="round"/>
</svg>
