<svg width="24" height="24" viewBox="0 0 24 24" fill="none" xmlns="http://www.w3.org/2000/svg">
<path fill-rule="evenodd" clip-rule="evenodd" d="M5 4C3.34315 4 2 5.34315 2 7V17C2 18.6569 3.34315 20 5 20H13V18H5C4.44772 18 4 17.5523 4 17V7C4 6.44772 4.44772 6 5 6H7.78388C8.01539 6 8.23973 6.08033 8.41862 6.22727L10.8119 8.19318C11.3486 8.63402 12.0216 8.875 12.7161 8.875H19C19.5523 8.875 20 9.32272 20 9.875V10H22V9.875C22 8.21815 20.6569 6.875 19 6.875H12.7161C12.4846 6.875 12.2603 6.79467 12.0814 6.64773L9.6881 4.68182C9.15142 4.24098 8.47841 4 7.78388 4H5Z" fill="#64748B"/>
<path fill-rule="evenodd" clip-rule="evenodd" d="M15.3369 11L11.0682 11H7.7273L7.14231 11C6.33956 11 5.61459 11.4799 5.30108 12.2189L3.17988 17.2189C2.62035 18.5378 3.58837 20 5.02105 20H15.3369C13.9234 19.0046 13 17.3601 13 15.5C13 13.6398 13.9234 11.9954 15.3369 11Z" fill="#64748B"/>
<path fill-rule="evenodd" clip-rule="evenodd" d="M18.5 19.1002C19.4547 19.1002 20.3702 18.721 21.0453 18.0459C21.7203 17.3708 22.0995 16.4551 22.0995 15.5004C22.0995 14.5456 21.7203 13.63 21.0453 12.9549C20.3702 12.2798 19.4547 11.9005 18.5 11.9005C17.5455 11.9005 16.63 12.2797 15.955 12.9546C15.28 13.6296 14.9007 14.545 14.9005 15.4996C14.9004 15.9724 14.9934 16.4406 15.1742 16.8775C15.3551 17.3143 15.6202 17.7112 15.9545 18.0456C16.2887 18.3799 16.6856 18.6452 17.1223 18.8261C17.5591 19.0071 18.0272 19.1002 18.5 19.1002ZM18.5 11C19.6935 11 20.8381 11.4741 21.682 12.3181C22.5259 13.1621 23 14.3068 23 15.5004C22.9998 16.6938 22.5256 17.8383 21.6817 18.6821C20.8378 19.526 19.6933 20 18.5 20C17.3068 19.999 16.1628 19.5245 15.3191 18.6808C14.4754 17.837 14.001 16.6929 14 15.4996C14.0002 14.3062 14.4744 13.1617 15.3183 12.3179C16.1622 11.474 17.3067 11 18.5 11ZM18.7253 13.2502V15.6123L20.75 16.8145L20.412 17.3672L18.0502 15.9503V13.2502H18.7253Z" fill="#CFD8DC" stroke="#D7CCC8" stroke-width="0.271" stroke-linejoin="round"/>
</svg>
