<svg width="24" height="24" viewBox="0 0 24 24" fill="none" xmlns="http://www.w3.org/2000/svg">
<path fill-rule="evenodd" clip-rule="evenodd" d="M5 4C3.34315 4 2 5.34315 2 7V17C2 18.6569 3.34315 20 5 20H13V18H5C4.44772 18 4 17.5523 4 17V7C4 6.44772 4.44772 6 5 6H7.78388C8.01539 6 8.23973 6.08033 8.41862 6.22727L10.8119 8.19318C11.3486 8.63402 12.0216 8.875 12.7161 8.875H19C19.5523 8.875 20 9.32272 20 9.875V10H22V9.875C22 8.21815 20.6569 6.875 19 6.875H12.7161C12.4846 6.875 12.2603 6.79467 12.0814 6.64773L9.6881 4.68182C9.15142 4.24098 8.47841 4 7.78388 4H5Z" fill="#64748B"/>
<path fill-rule="evenodd" clip-rule="evenodd" d="M14.7141 14.2277H14.0714C13.7872 14.2277 13.5147 14.37 13.3138 14.5933C13.1128 14.8165 13 15.3843 13 15.7C13 16.0157 13.1128 16.5716 13.3138 16.7948C13.5147 17.0181 13.7872 17.1435 14.0714 17.1435H14.7141V18.7614C14.7141 19.0141 14.8393 19.3213 15.0001 19.5C15.1609 19.6786 15.4171 19.7202 15.6445 19.7202H17.0001H18.0001H19.5001L19.6941 19.7203C19.3924 19.8993 19.0421 20 18.674 20H5.02105C3.58837 20 2.62035 18.5378 3.17988 17.2189L5.30108 12.2189C5.61459 11.4799 6.33956 11 7.14231 11L7.7273 11H11.0682L17.2994 11C17.2903 11.0626 17.2856 11.1262 17.2856 11.1904V11.9046H15.5715C15.0996 11.9046 14.7141 12.3282 14.7141 12.8565V14.2277Z" fill="#64748B"/>
<path fill-rule="evenodd" clip-rule="evenodd" d="M14.9524 14.8095H15.5237V13.2852C15.5237 12.8626 15.8663 12.5237 16.2858 12.5237H17.8095V11.9524C17.8095 11.6998 17.9098 11.4575 18.0884 11.2789C18.267 11.1003 18.5092 11 18.7618 11C19.0144 11 19.2567 11.1003 19.4353 11.2789C19.6139 11.4575 19.7142 11.6998 19.7142 11.9524V12.5237H21.2379C21.3379 12.5237 21.4371 12.5434 21.5295 12.5817C21.622 12.62 21.706 12.6761 21.7768 12.7469C21.8475 12.8177 21.9037 12.9017 21.942 12.9941C21.9803 13.0866 22 13.1857 22 13.2858V14.7333H21.4281C20.8568 14.7333 20.3995 15.1905 20.3995 15.7618C20.3995 16.3331 20.8568 16.7904 21.4281 16.7904H21.9994V18.2379C21.9994 18.44 21.9191 18.6338 21.7762 18.7768C21.6332 18.9197 21.4394 19 21.2372 19H19.7904V18.4281C19.7904 17.8568 19.3331 17.3995 18.7618 17.3995C18.1899 17.3995 17.7333 17.8568 17.7333 18.4281V18.9994H16.2858C16.0837 18.9994 15.8898 18.9191 15.7469 18.7762C15.604 18.6332 15.5237 18.4394 15.5237 18.2372V16.7148H14.9524C14.6998 16.7148 14.4575 16.6145 14.2789 16.4359C14.1003 16.2573 14 16.015 14 15.7625C14 15.5099 14.1003 15.2676 14.2789 15.089C14.4575 14.9104 14.6998 14.8101 14.9524 14.8101V14.8095Z" fill="#8CDBFF"/>
</svg>
