<svg width="24" height="24" viewBox="0 0 24 24" fill="none" xmlns="http://www.w3.org/2000/svg">
<path fill-rule="evenodd" clip-rule="evenodd" d="M5 4C3.34315 4 2 5.34315 2 7V17C2 18.6569 3.34315 20 5 20H13V18H5C4.44772 18 4 17.5523 4 17V7C4 6.44772 4.44772 6 5 6H7.78388C8.01539 6 8.23973 6.08033 8.41862 6.22727L10.8119 8.19318C11.3486 8.63402 12.0216 8.875 12.7161 8.875H19C19.5523 8.875 20 9.32272 20 9.875V10H22V9.875C22 8.21815 20.6569 6.875 19 6.875H12.7161C12.4846 6.875 12.2603 6.79467 12.0814 6.64773L9.6881 4.68182C9.15142 4.24098 8.47841 4 7.78388 4H5Z" fill="#64748B"/>
<path fill-rule="evenodd" clip-rule="evenodd" d="M18.7146 11L11.0682 11H7.7273L7.14231 11C6.33956 11 5.61459 11.4799 5.30108 12.2189L3.17988 17.2189C2.62035 18.5378 3.58837 20 5.02105 20H13.9764C13.4153 19.0338 13 17.7398 13 16.5022C13 14.1692 14.9719 12.1443 16.5 12.1443C16.9549 12.1443 17.528 12.256 18.0319 12.3542C18.1273 12.3728 18.2204 12.3909 18.3096 12.4077C18.3169 12.4091 18.3241 12.4104 18.3313 12.4118L18.3316 12.4112C18.3206 12.4095 18.313 12.4083 18.3096 12.4077C18.3053 12.3904 18.306 12.3774 18.3073 12.3515C18.3083 12.3326 18.3096 12.3067 18.3096 12.2672C18.3096 11.812 18.4841 11.3614 18.7146 11Z" fill="#64748B"/>
<path d="M23.1507 14.3299C23.0866 14.3796 21.9545 15.0175 21.9545 16.4359C21.9545 18.0764 23.395 18.6568 23.4381 18.6712C23.4315 18.7066 23.2093 19.4661 22.6786 20.2399C22.2055 20.9209 21.7113 21.6008 20.9595 21.6008C20.2078 21.6008 20.0143 21.1642 19.1465 21.1642C18.3008 21.1642 18.0001 21.6152 17.3125 21.6152C16.6248 21.6152 16.145 20.9851 15.5934 20.2112C14.9544 19.3025 14.4381 17.8907 14.4381 16.5508C14.4381 14.4017 15.8355 13.2619 17.2107 13.2619C17.9415 13.2619 18.5506 13.7417 19.0094 13.7417C19.4461 13.7417 20.1271 13.2332 20.9584 13.2332C21.2735 13.2332 22.4056 13.2619 23.1507 14.3299ZM20.5638 12.3233C20.9076 11.9154 21.1508 11.3494 21.1508 10.7834C21.1508 10.7049 21.1442 10.6253 21.1298 10.5612C20.5704 10.5822 19.9049 10.9337 19.5036 11.3991C19.1885 11.7573 18.8944 12.3233 18.8944 12.8971C18.8944 12.9833 18.9088 13.0696 18.9154 13.0972C18.9508 13.1038 19.0083 13.1116 19.0658 13.1116C19.5677 13.1116 20.199 12.7755 20.5638 12.3233Z" fill="#CFD8DC"/>
</svg>
