<svg width="24" height="24" viewBox="0 0 24 24" fill="none" xmlns="http://www.w3.org/2000/svg">
<path fill-rule="evenodd" clip-rule="evenodd" d="M5 4C3.34315 4 2 5.34315 2 7V17C2 18.6569 3.34315 20 5 20H11V18H5C4.44772 18 4 17.5523 4 17V7C4 6.44772 4.44772 6 5 6H7.78388C8.01539 6 8.23973 6.08033 8.41862 6.22727L10.8119 8.19318C11.3486 8.63402 12.0216 8.875 12.7161 8.875H19C19.5523 8.875 20 9.32272 20 9.875V10H22V9.875C22 8.21815 20.6569 6.875 19 6.875H12.7161C12.4846 6.875 12.2603 6.79467 12.0814 6.64773L9.6881 4.68182C9.15142 4.24098 8.47841 4 7.78388 4H5Z" fill="#64748B"/>
<path fill-rule="evenodd" clip-rule="evenodd" d="M12.6445 11L11.0682 11H7.7273L7.14231 11C6.33956 11 5.61459 11.4799 5.30108 12.2189L3.17988 17.2189C2.62035 18.5378 3.58837 20 5.02105 20H14.8691C14.2305 19.986 13.6714 19.8434 13.1916 19.5569C12.7116 19.27 12.5467 18.8518 12.5467 18.3028V16.6502C12.5467 16.2065 12.3014 15.8669 11.9611 15.6309C11.7556 15.486 11.385 15.372 11 15.2877V14.6485C11.4344 14.5324 11.8163 14.4039 11.9953 14.2632C12.3129 14.0201 12.5471 13.6488 12.5471 13.1492V11.7342C12.5471 11.7075 12.5468 11.6809 12.5466 11.6541C12.5453 11.5007 12.5439 11.3443 12.5858 11.1692C12.6003 11.1104 12.6201 11.054 12.6445 11ZM14.8724 20H14.9924C14.9804 19.9999 14.9685 19.9998 14.9567 19.9995L14.8724 20ZM13 15.0763V14.8834C12.9174 14.9192 12.8307 14.9535 12.7399 14.9865C12.8311 15.0158 12.9178 15.0457 13 15.0763ZM14.566 11.0472C14.5743 11.04 14.5827 11.033 14.5913 11.0262C14.6025 11.0173 14.6147 11.0086 14.6277 11L14.9894 11C14.8441 11.0008 14.7024 11.017 14.566 11.0472Z" fill="#64748B"/>
<path fill-rule="evenodd" clip-rule="evenodd" d="M14.0835 11H14.9169V11.889H14.0835V14.1107C14.0835 14.3465 13.9957 14.5726 13.8394 14.7393C13.6831 14.906 13.4711 14.9997 13.2501 14.9997C13.4711 14.9997 13.6831 15.0933 13.8394 15.26C13.9957 15.4267 14.0835 15.6528 14.0835 15.8886V18.111H14.9169V19H14.0835C13.6373 18.88 13.2501 18.6002 13.2501 18.111V16.3331C13.2501 16.2164 13.2285 16.1008 13.1866 15.9929C13.1448 15.8851 13.0834 15.7871 13.006 15.7045C12.9286 15.622 12.8367 15.5565 12.7356 15.5118C12.6345 15.4671 12.5261 15.4441 12.4167 15.4441H12V14.5552H12.4167C12.5261 14.5552 12.6345 14.5322 12.7356 14.4875C12.8367 14.4428 12.9286 14.3773 13.006 14.2948C13.0834 14.2122 13.1448 14.1142 13.1866 14.0064C13.2285 13.8985 13.2501 13.7829 13.2501 13.6662V11.889C13.2501 11.6532 13.3379 11.4271 13.4942 11.2604C13.6505 11.0937 13.8624 11 14.0835 11ZM19.9165 11C20.1376 11 20.3495 11.0937 20.5058 11.2604C20.6621 11.4271 20.7499 11.6532 20.7499 11.889V13.6662C20.7499 13.902 20.8377 14.1281 20.994 14.2948C21.1503 14.4615 21.3623 14.5552 21.5833 14.5552H22V15.4441H21.5833C21.3623 15.4441 21.1503 15.5378 20.994 15.7045C20.8377 15.8712 20.7499 16.0973 20.7499 16.3331V18.111C20.7499 18.3468 20.6621 18.5729 20.5058 18.7396C20.3495 18.9063 20.1376 19 19.9165 19H19.0831V18.111H19.9165V15.8886C19.9165 15.6528 20.0043 15.4267 20.1606 15.26C20.3169 15.0933 20.5289 14.9997 20.7499 14.9997C20.5289 14.9997 20.3169 14.906 20.1606 14.7393C20.0043 14.5726 19.9165 14.3465 19.9165 14.1107V11.889H19.0831V11H19.9165ZM17.0003 16.3331C17.1108 16.3331 17.2168 16.3799 17.295 16.4633C17.3731 16.5466 17.417 16.6597 17.417 16.7776C17.417 16.8955 17.3731 17.0085 17.295 17.0919C17.2168 17.1752 17.1108 17.2221 17.0003 17.2221C16.8898 17.2221 16.7838 17.1752 16.7057 17.0919C16.6275 17.0085 16.5836 16.8955 16.5836 16.7776C16.5836 16.6597 16.6275 16.5466 16.7057 16.4633C16.7838 16.3799 16.8898 16.3331 17.0003 16.3331ZM15.3336 16.3331C15.4441 16.3331 15.5501 16.3799 15.6282 16.4633C15.7063 16.5466 15.7502 16.6597 15.7502 16.7776C15.7502 16.8955 15.7063 17.0085 15.6282 17.0919C15.5501 17.1752 15.4441 17.2221 15.3336 17.2221C15.223 17.2221 15.117 17.1752 15.0389 17.0919C14.9608 17.0085 14.9169 16.8955 14.9169 16.7776C14.9169 16.6597 14.9608 16.5466 15.0389 16.4633C15.117 16.3799 15.223 16.3331 15.3336 16.3331ZM18.6664 16.3331C18.777 16.3331 18.8829 16.3799 18.9611 16.4633C19.0392 16.5466 19.0831 16.6597 19.0831 16.7776C19.0831 16.8955 19.0392 17.0085 18.9611 17.0919C18.8829 17.1752 18.777 17.2221 18.6664 17.2221C18.6117 17.2221 18.5575 17.2106 18.507 17.1882C18.4564 17.1659 18.4105 17.1332 18.3718 17.0919C18.3331 17.0506 18.3024 17.0016 18.2815 16.9477C18.2605 16.8938 18.2498 16.836 18.2498 16.7776C18.2498 16.7192 18.2605 16.6614 18.2815 16.6075C18.3024 16.5536 18.3331 16.5046 18.3718 16.4633C18.4105 16.422 18.4564 16.3893 18.507 16.3669C18.5575 16.3446 18.6117 16.3331 18.6664 16.3331Z" fill="#FFCE50"/>
</svg>
