<svg width="24" height="24" viewBox="0 0 24 24" fill="none" xmlns="http://www.w3.org/2000/svg">
<path fill-rule="evenodd" clip-rule="evenodd" d="M5 4C3.34315 4 2 5.34315 2 7V17C2 18.6569 3.34315 20 5 20H13V18H5C4.44772 18 4 17.5523 4 17V7C4 6.44772 4.44772 6 5 6H7.78388C8.01539 6 8.23973 6.08033 8.41862 6.22727L10.8119 8.19318C11.3486 8.63402 12.0216 8.875 12.7161 8.875H19C19.5523 8.875 20 9.32272 20 9.875V10H22V9.875C22 8.21815 20.6569 6.875 19 6.875H12.7161C12.4846 6.875 12.2603 6.79467 12.0814 6.64773L9.6881 4.68182C9.15142 4.24098 8.47841 4 7.78388 4H5Z" fill="#64748B"/>
<path fill-rule="evenodd" clip-rule="evenodd" d="M5.30108 12.2189C5.61459 11.4799 6.33956 11 7.14231 11L7.7273 11H11.0682L11.5 11L16.2143 20H5.02105C3.58837 20 2.62035 18.5378 3.17988 17.2189L5.30108 12.2189Z" fill="#64748B"/>
<path fill-rule="evenodd" clip-rule="evenodd" d="M13 12L17.0003 20L21 12.0385V12H19.4445L17.0234 16.8205L14.613 12H13Z" fill="#0D9488"/>
<path fill-rule="evenodd" clip-rule="evenodd" d="M14.5 12L16.9941 17L19.5 12H17.9906L17.0043 13.9681L16.0219 12H14.5Z" fill="#35495E"/>
</svg>
