<svg width="24" height="24" viewBox="0 0 24 24" fill="none" xmlns="http://www.w3.org/2000/svg">
<path fill-rule="evenodd" clip-rule="evenodd" d="M5 4C3.34315 4 2 5.34315 2 7V17C2 18.6569 3.34315 20 5 20H11V18H5C4.44772 18 4 17.5523 4 17V7C4 6.44772 4.44772 6 5 6H7.78388C8.01539 6 8.23973 6.08033 8.41862 6.22727L10.8119 8.19318C11.3486 8.63402 12.0216 8.875 12.7161 8.875H19C19.5523 8.875 20 9.32272 20 9.875V10H22V9.875C22 8.21815 20.6569 6.875 19 6.875H12.7161C12.4846 6.875 12.2603 6.79467 12.0814 6.64773L9.6881 4.68182C9.15142 4.24098 8.47841 4 7.78388 4H5Z" fill="#64748B"/>
<path fill-rule="evenodd" clip-rule="evenodd" d="M14.3095 11L11.0682 11H7.7273L7.14231 11C6.33956 11 5.61459 11.4799 5.30108 12.2189L3.17988 17.2189C2.62035 18.5378 3.58837 20 5.02105 20H14.3096C13.1888 18.8321 12.5 17.2465 12.5 15.5C12.5 13.7535 13.1888 12.1679 14.3095 11Z" fill="#64748B"/>
<path fill-rule="evenodd" clip-rule="evenodd" d="M18 12.4998V13.9995L20.0004 12.0001L18 10V11.4997C17.4746 11.4997 16.9544 11.6032 16.4691 11.8042C15.9837 12.0053 15.5427 12.3 15.1713 12.6714C14.7999 13.0429 14.5052 13.4839 14.3043 13.9692C14.1033 14.4545 13.9999 14.9747 14 15.5C14 16.2841 14.2299 17.0143 14.6196 17.6293L15.35 16.899C15.1192 16.4689 14.9987 15.9882 14.9994 15.5C14.9994 14.7043 15.3156 13.9412 15.8783 13.3785C16.441 12.8159 17.2042 12.4998 18 12.4998ZM21.3804 13.37L20.65 14.1002C20.8784 14.5313 20.9987 15.0114 21.0006 15.4992C21.0006 16.2949 20.6844 17.0581 20.1217 17.6207C19.559 18.1833 18.7958 18.4994 18 18.4994V17.0005L15.9996 19.0006L18 21V19.5003C18.5254 19.5003 19.0456 19.3968 19.5309 19.1958C20.0163 18.9947 20.4573 18.7 20.8287 18.3286C21.2001 17.9571 21.4948 17.5161 21.6957 17.0308C21.8967 16.5455 22.0001 16.0253 22 15.5C22 14.7159 21.7701 13.9857 21.3804 13.3707V13.37Z" fill="#8CDBFF" stroke="#8CDBFF" stroke-width="0.29" stroke-miterlimit="1.414" stroke-linejoin="round"/>
</svg>
