<svg width="24" height="24" viewBox="0 0 24 24" fill="none" xmlns="http://www.w3.org/2000/svg">
<path fill-rule="evenodd" clip-rule="evenodd" d="M5 4C3.34315 4 2 5.34315 2 7V17C2 18.6569 3.34315 20 5 20H13V18H5C4.44772 18 4 17.5523 4 17V7C4 6.44772 4.44772 6 5 6H7.78388C8.01539 6 8.23973 6.08033 8.41862 6.22727L10.8119 8.19318C11.3486 8.63402 12.0216 8.875 12.7161 8.875H19C19.5523 8.875 20 9.32272 20 9.875V10H22V9.875C22 8.21815 20.6569 6.875 19 6.875H12.7161C12.4846 6.875 12.2603 6.79467 12.0814 6.64773L9.6881 4.68182C9.15142 4.24098 8.47841 4 7.78388 4H5Z" fill="#64748B"/>
<path fill-rule="evenodd" clip-rule="evenodd" d="M14.2675 11C14.0974 11.2942 14 11.6357 14 12V18C14 19.102 14.8913 19.9958 15.9924 20H5.02105C3.58837 20 2.62035 18.5378 3.17988 17.2189L5.30108 12.2189C5.61459 11.4799 6.33956 11 7.14231 11L7.7273 11H11.0682L14.2675 11Z" fill="#64748B"/>
<path fill-rule="evenodd" clip-rule="evenodd" d="M15.8753 11C15.7604 11 15.6465 11.0206 15.5403 11.0608C15.4341 11.101 15.3376 11.16 15.2563 11.2343C15.175 11.3086 15.1105 11.3968 15.0665 11.4939C15.0226 11.591 15 11.6951 15 11.8002V18.1986C14.9998 18.3038 15.0223 18.408 15.0662 18.5052C15.1101 18.6025 15.1745 18.6909 15.2558 18.7653C15.3371 18.8397 15.4337 18.8988 15.54 18.9391C15.6463 18.9793 15.7603 19 15.8753 19H21.1247C21.2397 19 21.3537 18.9793 21.46 18.9391C21.5663 18.8988 21.6629 18.8397 21.7442 18.7653C21.8255 18.6909 21.8899 18.6025 21.9338 18.5052C21.9777 18.408 22.0002 18.3038 22 18.1986V11.8002C22 11.6951 21.9774 11.591 21.9335 11.4939C21.8895 11.3968 21.825 11.3086 21.7437 11.2343C21.6624 11.16 21.5659 11.101 21.4597 11.0608C21.3535 11.0206 21.2396 11 21.1247 11H15.8753ZM15.8753 13.8002H21.1247V15.8003H15.8753V13.8002ZM15.8753 16.5993H21.1247V18.1986H15.8754L15.8753 16.5993Z" fill="#B2DFDB"/>
</svg>
