<svg width="24" height="24" viewBox="0 0 24 24" fill="none" xmlns="http://www.w3.org/2000/svg">
<path fill-rule="evenodd" clip-rule="evenodd" d="M5 4C3.34315 4 2 5.34315 2 7V17C2 18.6569 3.34315 20 5 20H11V18H5C4.44772 18 4 17.5523 4 17V7C4 6.44772 4.44772 6 5 6H7.78388C8.01539 6 8.23973 6.08033 8.41862 6.22727L10.8119 8.19318C11.3486 8.63402 12.0216 8.875 12.7161 8.875H19C19.5523 8.875 20 9.32272 20 9.875V10H22V9.875C22 8.21815 20.6569 6.875 19 6.875H12.7161C12.4846 6.875 12.2603 6.79467 12.0814 6.64773L9.6881 4.68182C9.15142 4.24098 8.47841 4 7.78388 4H5Z" fill="#64748B"/>
<path fill-rule="evenodd" clip-rule="evenodd" d="M18.7616 19.9981C18.7325 19.9993 18.7033 20 18.674 20H16.2787C17.058 19.6464 17.6 18.8615 17.6 17.95C17.6 16.7074 16.5926 15.7 15.35 15.7C14.1073 15.7 13.1 16.7074 13.1 17.95C13.1 18.8615 13.642 19.6464 14.4212 20H5.02105C3.58837 20 2.62035 18.5378 3.17988 17.2189L5.30108 12.2189C5.61459 11.4799 6.33956 11 7.14231 11L7.7273 11H11.0682L17.0669 11C16.7448 11.0373 16.4332 11.1411 16.1536 11.3056C15.7849 11.5226 15.393 12.1254 15.1999 12.5C15.0069 12.8746 14.9581 13.521 15 13.938C15.0418 14.3551 15.204 14.7521 15.4678 15.0834C15.7317 15.4147 16.0865 15.6667 16.4913 15.8103C17.5 16 17.863 16.6156 17.6983 17.8131C17.6412 18.2285 17.706 18.6511 17.8852 19.0322C18.0645 19.4133 18.3509 19.7374 18.7114 19.967C18.728 19.9776 18.7448 19.9879 18.7616 19.9981Z" fill="#64748B"/>
<path d="M17.0687 17.9216C17.0687 18.3933 16.8912 18.8456 16.5754 19.1791C16.2595 19.5126 15.831 19.7 15.3843 19.7C14.9376 19.7 14.5092 19.5126 14.1933 19.1791C13.8774 18.8456 13.7 18.3933 13.7 17.9216C13.7 17.45 13.8774 16.9976 14.1933 16.6641C14.5092 16.3306 14.9376 16.1433 15.3843 16.1433C15.831 16.1433 16.2595 16.3306 16.5754 16.6641C16.8912 16.9976 17.0687 17.45 17.0687 17.9216ZM19.1594 13.7124C19.2013 13.3801 19.1533 13.0421 19.021 12.7374C18.8888 12.4327 18.6777 12.1736 18.412 11.9901C18.1463 11.8066 17.8369 11.7061 17.5195 11.7003C17.2021 11.6944 16.8896 11.7834 16.618 11.957C16.3464 12.1306 16.1268 12.3817 15.9846 12.6813C15.8423 12.981 15.7832 13.317 15.814 13.6506C15.8448 13.9842 15.9643 14.3018 16.1587 14.5668C16.3531 14.8318 16.6145 15.0334 16.9127 15.1483C18.2041 15.684 18.5081 16.2253 18.3467 17.6858C18.3046 18.0181 18.3524 18.3562 18.4845 18.661C18.6165 18.9659 18.8275 19.2251 19.0931 19.4088C19.3587 19.5925 19.6681 19.6932 19.9856 19.6992C20.3031 19.7053 20.6157 19.6164 20.8874 19.4429C21.1591 19.2695 21.3788 19.0184 21.5212 18.7188C21.6635 18.4191 21.7228 18.0831 21.692 17.7494C21.6613 17.4158 21.5419 17.0981 21.3475 16.833C21.1531 16.5679 20.8917 16.3663 20.5934 16.2513C19.3021 15.7149 18.9974 15.1729 19.1601 13.7124H19.1594Z" fill="#E676FA"/>
</svg>
