<svg width="24" height="24" viewBox="0 0 24 24" fill="none" xmlns="http://www.w3.org/2000/svg">
<path fill-rule="evenodd" clip-rule="evenodd" d="M5 4C3.34315 4 2 5.34315 2 7V17C2 18.6569 3.34315 20 5 20H13V18H5C4.44772 18 4 17.5523 4 17V7C4 6.44772 4.44772 6 5 6H7.78388C8.01539 6 8.23973 6.08033 8.41862 6.22727L10.8119 8.19318C11.3486 8.63402 12.0216 8.875 12.7161 8.875H19C19.5523 8.875 20 9.32272 20 9.875V10H22V9.875C22 8.21815 20.6569 6.875 19 6.875H12.7161C12.4846 6.875 12.2603 6.79467 12.0814 6.64773L9.6881 4.68182C9.15142 4.24098 8.47841 4 7.78388 4H5Z" fill="#64748B"/>
<path fill-rule="evenodd" clip-rule="evenodd" d="M13.265 11L11.0682 11H7.7273L7.14231 11C6.33956 11 5.61459 11.4799 5.30108 12.2189L3.17988 17.2189C2.62035 18.5378 3.58837 20 5.02105 20H16.9967C16.9035 19.9993 16.812 19.9753 16.7311 19.9303L12.2691 17.4389C12.1872 17.3931 12.1193 17.3273 12.0721 17.2481C12.0248 17.1688 12 17.079 12 16.9875V12.0056C12 11.9142 12.0249 11.8244 12.0722 11.7453C12.1196 11.6662 12.1876 11.6006 12.2695 11.555L13.265 11ZM17.0047 20H18.674C19.5449 20 20.3157 19.4363 20.5798 18.6064L20.7826 17.9689L17.2702 19.9303C17.1894 19.9753 17.0979 19.9993 17.0047 20ZM22 14.1429L22.1707 13.6064C22.351 13.0398 22.2663 12.4681 22 12.005C22 12.006 22 12.0069 22 12.0078V14.1429ZM21.5118 11.4353L20.9367 11.1146C21.1482 11.1897 21.3417 11.2991 21.5118 11.4353Z" fill="#64748B"/>
<path d="M16.7846 10.0554L13.2156 12.0905C13.1501 12.1278 13.0956 12.1815 13.0578 12.2462C13.0199 12.3109 13 12.3844 13 12.4592V16.5352C13 16.6101 13.0199 16.6836 13.0576 16.7484C13.0954 16.8133 13.1498 16.8671 13.2153 16.9046L16.7849 18.943C16.8505 18.9803 16.9249 19 17.0005 19C17.0762 19 17.1506 18.9803 17.2162 18.943L20.7847 16.905C20.8502 16.8675 20.9046 16.8136 20.9424 16.7488C20.9801 16.684 21 16.6104 21 16.5356V12.461C21 12.3862 20.9801 12.3127 20.9422 12.248C20.9044 12.1833 20.8499 12.1296 20.7844 12.0923L17.2162 10.0572C17.1506 10.0197 17.0763 10 17.0005 10C16.9248 10 16.8505 10.0197 16.7849 10.0572L16.7846 10.0554Z" fill="#388E3C"/>
<path d="M13 16.791C13.0354 16.8358 13.0796 16.8734 13.1302 16.9016L16.272 18.6518L16.7951 18.9429C16.8724 18.9858 16.9612 19.0053 17.05 18.9988C17.0794 18.9963 17.1085 18.9911 17.1369 18.9833L21 12.162C20.9705 12.1312 20.9366 12.1046 20.8993 12.0831L18.4989 10.7473L17.2313 10.044C17.1956 10.024 17.157 10.0092 17.1168 10L13 16.791Z" fill="#4CAF50"/>
<path d="M21 16.791C20.9646 16.8358 20.9204 16.8734 20.8698 16.9016L17.728 18.6518L17.2049 18.9429C17.1276 18.9858 17.0388 19.0053 16.95 18.9988C16.9206 18.9963 16.8915 18.9911 16.8631 18.9833L13 12.1613C13.0295 12.1305 13.0634 12.1039 13.1007 12.0824L15.5011 10.7473L16.7687 10.044C16.8044 10.024 16.843 10.0092 16.8832 10L21 16.791Z" fill="#66BB6A"/>
</svg>
