<svg width="24" height="24" viewBox="0 0 24 24" fill="none" xmlns="http://www.w3.org/2000/svg">
<path fill-rule="evenodd" clip-rule="evenodd" d="M5 4C3.34315 4 2 5.34315 2 7V17C2 18.6569 3.34315 20 5 20H13V18H5C4.44772 18 4 17.5523 4 17V7C4 6.44772 4.44772 6 5 6H7.78388C8.01539 6 8.23973 6.08033 8.41862 6.22727L10.8119 8.19318C11.3486 8.63402 12.0216 8.875 12.7161 8.875H19C19.5523 8.875 20 9.32272 20 9.875V10H22V9.875C22 8.21815 20.6569 6.875 19 6.875H12.7161C12.4846 6.875 12.2603 6.79467 12.0814 6.64773L9.6881 4.68182C9.15142 4.24098 8.47841 4 7.78388 4H5Z" fill="#64748B"/>
<path fill-rule="evenodd" clip-rule="evenodd" d="M14.3264 11L12 16.6666H14.5L15 15.5H16.3429L16.3664 15.6032L14.737 17.1779L17.9185 20H5.02105C3.58837 20 2.62035 18.5378 3.17988 17.2189L5.30108 12.2189C5.61459 11.4799 6.33956 11 7.14231 11L7.7273 11H11.0682L14.3264 11ZM17.9185 20H18.674C19.5449 20 20.3157 19.4363 20.5798 18.6064L21.1098 16.9406L17.9185 20Z" fill="#64748B"/>
<path fill-rule="evenodd" clip-rule="evenodd" d="M17.3774 16.3333H18.2935L16.0542 11H15.2394L13 16.3333H13.9162L14.4068 15.1029H16.8775L17.3774 16.3333ZM14.7395 14.2812L15.6464 12.0174L16.5533 14.2812H14.7395ZM21.3825 14.5239L17.8385 17.8428L16.2306 16.3333L15.6116 16.9116L17.8424 19L22 15.1029L21.3825 14.5239Z" fill="#FF7C7C"/>
</svg>
