<svg width="24" height="24" viewBox="0 0 24 24" fill="none" xmlns="http://www.w3.org/2000/svg">
<path fill-rule="evenodd" clip-rule="evenodd" d="M5 4C3.34315 4 2 5.34315 2 7V17C2 18.6569 3.34315 20 5 20H13V18H5C4.44772 18 4 17.5523 4 17V7C4 6.44772 4.44772 6 5 6H7.78388C8.01539 6 8.23973 6.08033 8.41862 6.22727L10.8119 8.19318C11.3486 8.63402 12.0216 8.875 12.7161 8.875H19C19.5523 8.875 20 9.32272 20 9.875V10H22V9.875C22 8.21815 20.6569 6.875 19 6.875H12.7161C12.4846 6.875 12.2603 6.79467 12.0814 6.64773L9.6881 4.68182C9.15142 4.24098 8.47841 4 7.78388 4H5Z" fill="#64748B"/>
<path fill-rule="evenodd" clip-rule="evenodd" d="M14.9995 11L11.0682 11H7.7273L7.14231 11C6.33956 11 5.61459 11.4799 5.30108 12.2189L3.17988 17.2189C2.62035 18.5378 3.58837 20 5.02105 20H17.9879C15.232 19.9934 13 17.7574 13 15C13 13.3644 13.7853 11.9122 14.9995 11Z" fill="#64748B"/>
<path fill-rule="evenodd" clip-rule="evenodd" d="M20.444 15C20.2673 15 20.0978 14.9298 19.9728 14.8049C19.8479 14.6799 19.7777 14.5104 19.7777 14.3337C19.7776 14.2462 19.7948 14.1595 19.8282 14.0786C19.8617 13.9977 19.9108 13.9242 19.9726 13.8622C20.0345 13.8003 20.108 13.7512 20.1889 13.7176C20.2697 13.6841 20.3564 13.6669 20.444 13.6669C20.6207 13.6669 20.7901 13.7371 20.9151 13.862C21.04 13.987 21.1102 14.1564 21.1102 14.3331C21.1103 14.4207 21.0931 14.5074 21.0597 14.5883C21.0262 14.6692 20.9772 14.7427 20.9153 14.8046C20.8534 14.8666 20.7799 14.9157 20.6991 14.9492C20.6182 14.9827 20.5315 15 20.444 15ZM19.1108 13.2223C18.9341 13.2223 18.7647 13.1521 18.6397 13.0272C18.5148 12.9022 18.4446 12.7327 18.4446 12.556C18.4445 12.4685 18.4617 12.3818 18.4951 12.3009C18.5286 12.22 18.5776 12.1465 18.6395 12.0845C18.7014 12.0226 18.7749 11.9735 18.8557 11.9399C18.9366 11.9064 19.0233 11.8892 19.1108 11.8892C19.2875 11.8892 19.457 11.9594 19.5819 12.0843C19.7069 12.2093 19.7771 12.3787 19.7771 12.5554C19.7772 12.643 19.76 12.7297 19.7265 12.8106C19.6931 12.8915 19.644 12.965 19.5822 13.0269C19.5203 13.0889 19.4468 13.138 19.3659 13.1715C19.2851 13.205 19.1984 13.2223 19.1108 13.2223ZM16.8885 13.2223C16.7118 13.2223 16.5424 13.1521 16.4174 13.0272C16.2925 12.9022 16.2223 12.7327 16.2223 12.556C16.2222 12.4685 16.2394 12.3818 16.2728 12.3009C16.3063 12.22 16.3553 12.1465 16.4172 12.0845C16.4791 12.0226 16.5526 11.9735 16.6334 11.9399C16.7143 11.9064 16.801 11.8892 16.8885 11.8892C17.0652 11.8892 17.2347 11.9594 17.3597 12.0843C17.4846 12.2093 17.5548 12.3787 17.5548 12.5554C17.5549 12.643 17.5377 12.7297 17.5043 12.8106C17.4708 12.8915 17.4217 12.965 17.3599 13.0269C17.298 13.0889 17.2245 13.138 17.1437 13.1715C17.0628 13.205 16.9761 13.2223 16.8885 13.2223ZM15.5554 15C15.3787 15 15.2093 14.9298 15.0843 14.8049C14.9594 14.6799 14.8892 14.5104 14.8892 14.3337C14.8891 14.2462 14.9063 14.1595 14.9397 14.0786C14.9731 13.9977 15.0222 13.9242 15.0841 13.8622C15.146 13.8003 15.2194 13.7512 15.3003 13.7176C15.3812 13.6841 15.4679 13.6669 15.5554 13.6669C15.7321 13.6669 15.9016 13.7371 16.0265 13.862C16.1515 13.987 16.2217 14.1564 16.2217 14.3331C16.2218 14.4207 16.2046 14.5074 16.1711 14.5883C16.1377 14.6692 16.0886 14.7427 16.0267 14.8046C15.9649 14.8666 15.8914 14.9157 15.8105 14.9492C15.7297 14.9827 15.643 15 15.5554 15ZM17.9994 11C16.9386 11.0002 15.9214 11.4217 15.1714 12.1718C14.4213 12.9219 14 13.9392 14 15C14 16.0608 14.4213 17.0781 15.1714 17.8282C15.9214 18.5783 16.9386 18.9998 17.9994 19C18.0869 19.0001 18.1736 18.9829 18.2545 18.9495C18.3354 18.916 18.409 18.867 18.4709 18.8051C18.5328 18.7432 18.582 18.6697 18.6155 18.5889C18.649 18.508 18.6663 18.4213 18.6663 18.3337C18.6663 18.1594 18.5996 18.0037 18.4932 17.8885C18.386 17.7653 18.3262 17.6079 18.3244 17.4446C18.3243 17.357 18.3415 17.2703 18.3749 17.1894C18.4084 17.1085 18.4575 17.035 18.5193 16.9731C18.5812 16.9111 18.6547 16.862 18.7356 16.8285C18.8164 16.795 18.9031 16.7777 18.9907 16.7777H19.7771C20.069 16.7778 20.358 16.7204 20.6277 16.6087C20.8974 16.4971 21.1425 16.3334 21.3489 16.127C21.5553 15.9207 21.7191 15.6757 21.8308 15.406C21.9425 15.1363 22 14.8473 22 14.5554C22 12.5915 20.2086 11 17.9994 11Z" fill="#8CDBFF"/>
</svg>
