<svg width="24" height="24" viewBox="0 0 24 24" fill="none" xmlns="http://www.w3.org/2000/svg">
<path fill-rule="evenodd" clip-rule="evenodd" d="M5 4C3.34315 4 2 5.34315 2 7V17C2 18.6569 3.34315 20 5 20H11V18H5C4.44772 18 4 17.5523 4 17V7C4 6.44772 4.44772 6 5 6H7.78388C8.01539 6 8.23973 6.08033 8.41862 6.22727L10.8119 8.19318C11.3486 8.63402 12.0216 8.875 12.7161 8.875H19C19.5523 8.875 20 9.32272 20 9.875V10H22V9.875C22 8.21815 20.6569 6.875 19 6.875H12.7161C12.4846 6.875 12.2603 6.79467 12.0814 6.64773L9.6881 4.68182C9.15142 4.24098 8.47841 4 7.78388 4H5Z" fill="#64748B"/>
<path fill-rule="evenodd" clip-rule="evenodd" d="M7.14231 11C6.33956 11 5.61459 11.4799 5.30108 12.2189L3.17988 17.2189C2.62035 18.5378 3.58837 20 5.02105 20H13V12.8917C13 12.6618 13.0792 12.4389 13.2243 12.2606L13.9499 11.3688C14.1382 11.1374 14.4199 11.0023 14.718 11L11.0682 11H7.7273L7.14231 11Z" fill="#64748B"/>
<path fill-rule="evenodd" clip-rule="evenodd" d="M21.8001 12.9865L21.1826 12.2401C21.1194 12.1647 21.0403 12.104 20.951 12.0625C20.8617 12.021 20.7643 11.9997 20.6658 12H15.3335C15.2352 11.9992 15.138 12.0207 15.0493 12.063C14.9606 12.1054 14.8827 12.1674 14.8216 12.2443L14.2042 12.9865C14.0713 13.1461 13.999 13.3476 14 13.5554V19.1107C14 19.6001 14.3957 20 14.8885 20H21.1108C21.5994 20 22 19.6001 22 19.1114V13.5561C22 13.3378 21.924 13.1421 21.8001 12.9858V12.9865ZM17.9997 14.8882L20.4441 17.3329H18.8889V18.2221H17.1105V17.3329H15.5552L17.9997 14.8882ZM14.9427 12.8886L15.3067 12.445H20.6405L21.0538 12.8886H14.9427Z" fill="#89FF8D"/>
</svg>
