<svg width="24" height="24" viewBox="0 0 24 24" fill="none" xmlns="http://www.w3.org/2000/svg">
<path fill-rule="evenodd" clip-rule="evenodd" d="M5 4C3.34315 4 2 5.34315 2 7V17C2 18.6569 3.34315 20 5 20H12V18H5C4.44772 18 4 17.5523 4 17V7C4 6.44772 4.44772 6 5 6H7.78388C8.01539 6 8.23973 6.08033 8.41862 6.22727L10.8119 8.19318C11.3486 8.63402 12.0216 8.875 12.7161 8.875H19C19.5523 8.875 20 9.32272 20 9.875V10H22V9.875C22 8.21815 20.6569 6.875 19 6.875H12.7161C12.4846 6.875 12.2603 6.79467 12.0814 6.64773L9.6881 4.68182C9.15142 4.24098 8.47841 4 7.78388 4H5Z" fill="#64748B"/>
<path fill-rule="evenodd" clip-rule="evenodd" d="M15.3561 11L11.0682 11H7.7273L7.14231 11C6.33956 11 5.61459 11.4799 5.30108 12.2189L3.17988 17.2189C2.62035 18.5378 3.58837 20 5.02105 20H13.9946C13.7313 19.9986 13.4792 19.8934 13.2929 19.7071C13.1053 19.5195 13 19.2651 13 18.9999V18.5H12.4999C12.3673 18.5 12.2401 18.4473 12.1464 18.3535C12.0527 18.2598 12 18.1326 12 18V15.7361C12 15.6035 12.0527 15.4763 12.1464 15.3826C12.2401 15.2888 12.3673 15.2361 12.4999 15.2361H13C13 14.3079 13 14 14 13C14 13 14.5718 12.5 15.5001 12.5H16V11.865C15.7 11.695 15.3561 11.37 15.3561 11.0001C15.3561 11.0001 15.3561 11 15.3561 11ZM21.9029 14.4481L22.1707 13.6064C22.5811 12.3165 21.6185 11 20.2648 11L19.6389 11C19.6389 11 19.6389 11.0001 19.6389 11.0001C19.6389 11.37 19.3001 11.695 19.0001 11.865V12.5H19.5C20.4284 12.5 21 13 21 13C21.454 13.454 21.7584 13.9056 21.9029 14.4481Z" fill="#64748B"/>
<path fill-rule="evenodd" clip-rule="evenodd" d="M17.5 11C17.717 11 17.9252 11.0843 18.0786 11.2343C18.232 11.3844 18.3182 11.5879 18.3182 11.8001C18.3182 12.096 18.1546 12.356 17.9092 12.492V13H18.3182C19.0778 13 19.806 13.295 20.3431 13.8201C20.8801 14.3452 21.1818 15.0574 21.1818 15.8H21.591C21.6995 15.8 21.8035 15.8421 21.8802 15.9172C21.9569 15.9921 22 16.0939 22 16.2V17.4C22 17.5061 21.9569 17.6078 21.8802 17.6828C21.8035 17.7579 21.6995 17.8 21.591 17.8H21.1818V18.1999C21.1818 18.4121 21.0956 18.6156 20.9422 18.7657C20.7887 18.9157 20.5807 19 20.3637 19H14.6363C14.4193 19 14.2113 18.9157 14.0578 18.7657C13.9044 18.6156 13.8182 18.4121 13.8182 18.1999V17.8H13.409C13.3005 17.8 13.1965 17.7579 13.1198 17.6828C13.0431 17.6078 13 17.5061 13 17.4V16.2C13 16.0939 13.0431 15.9922 13.1198 15.9172C13.1965 15.8421 13.3005 15.8 13.409 15.8H13.8182C13.8182 15.0574 14.1199 14.3452 14.6569 13.8201C15.194 13.2951 15.9223 13 16.6818 13H17.0908V12.492C16.8454 12.356 16.6818 12.096 16.6818 11.8001C16.6818 11.5879 16.768 11.3844 16.9214 11.2343C17.0748 11.0843 17.283 11 17.5 11ZM15.6591 15.4001C15.3878 15.4001 15.1278 15.5054 14.9359 15.693C14.7442 15.8804 14.6364 16.1348 14.6364 16.4C14.6364 16.6652 14.7442 16.9197 14.9359 17.1071C15.1278 17.2947 15.3879 17.4 15.6591 17.4C15.9304 17.4 16.1905 17.2947 16.3823 17.1071C16.5741 16.9196 16.6819 16.6652 16.6819 16.4C16.6819 16.1349 16.5741 15.8805 16.3823 15.693C16.1905 15.5054 15.9304 15.4001 15.6591 15.4001ZM19.3409 15.4001C19.0697 15.4001 18.8096 15.5054 18.6177 15.693C18.426 15.8804 18.3182 16.1348 18.3182 16.4C18.3182 16.6652 18.426 16.9197 18.6177 17.1071C18.8096 17.2947 19.0697 17.4 19.3409 17.4C19.6122 17.4 19.8723 17.2947 20.0641 17.1071C20.2559 16.9196 20.3637 16.6652 20.3637 16.4C20.3637 16.1349 20.2559 15.8805 20.0641 15.693C19.8723 15.5054 19.6122 15.4001 19.3409 15.4001Z" fill="#FF7C7C"/>
</svg>
