<svg width="24" height="24" viewBox="0 0 24 24" fill="none" xmlns="http://www.w3.org/2000/svg">
<path fill-rule="evenodd" clip-rule="evenodd" d="M5 4C3.34315 4 2 5.34315 2 7V17C2 18.6569 3.34315 20 5 20H13V18H5C4.44772 18 4 17.5523 4 17V7C4 6.44772 4.44772 6 5 6H7.78388C8.01539 6 8.23973 6.08033 8.41862 6.22727L10.8119 8.19318C11.3486 8.63402 12.0216 8.875 12.7161 8.875H19C19.5523 8.875 20 9.32272 20 9.875V10H22V9.875C22 8.21815 20.6569 6.875 19 6.875H12.7161C12.4846 6.875 12.2603 6.79467 12.0814 6.64773L9.6881 4.68182C9.15142 4.24098 8.47841 4 7.78388 4H5Z" fill="#64748B"/>
<path fill-rule="evenodd" clip-rule="evenodd" d="M15 13V18.9336L10 16.5V11H7.7273L7.14231 11C6.33956 11 5.61459 11.4799 5.30108 12.2189L3.17988 17.2189C2.62035 18.5378 3.58837 20 5.02105 20H18.5V17L15 18.94V12.94L19 11L22.1888 12.4495C21.953 11.6321 21.2028 11 20.2648 11H19L11.0682 11H11.0001L15 13Z" fill="#64748B"/>
<path fill-rule="evenodd" clip-rule="evenodd" d="M15 13.8855V17.7335L11 15.848V12L15 13.8855ZM19.04 15.848V12L23 13.8855L19.04 15.848Z" fill="#00E676"/>
<path fill-rule="evenodd" clip-rule="evenodd" d="M15 13.8855V17.7335L19.04 15.848V12L15 13.8855ZM19.04 15.848V19.696L23 17.7335V13.8855L19.04 15.848Z" fill="#00C853"/>
</svg>
