<svg width="24" height="24" viewBox="0 0 24 24" fill="none" xmlns="http://www.w3.org/2000/svg">
<path fill-rule="evenodd" clip-rule="evenodd" d="M5 4C3.34315 4 2 5.34315 2 7V17C2 18.6569 3.34315 20 5 20H13V18H5C4.44772 18 4 17.5523 4 17V7C4 6.44772 4.44772 6 5 6H7.78388C8.01539 6 8.23973 6.08033 8.41862 6.22727L10.8119 8.19318C11.3486 8.63402 12.0216 8.875 12.7161 8.875H19C19.5523 8.875 20 9.32272 20 9.875V10H22V9.875C22 8.21815 20.6569 6.875 19 6.875H12.7161C12.4846 6.875 12.2603 6.79467 12.0814 6.64773L9.6881 4.68182C9.15142 4.24098 8.47841 4 7.78388 4H5Z" fill="#64748B"/>
<path fill-rule="evenodd" clip-rule="evenodd" d="M16.6294 12.451L16 13.5L15.5115 15.2097C15.4028 15.0374 15.3248 14.8459 15.2815 14.6443C15.2337 14.4219 15.2291 14.1918 15.268 13.9675C15.3058 13.7473 15.3874 13.5378 15.5075 13.3523C15.6276 13.1669 15.7836 13.0095 15.9655 12.8903L16.6294 12.451ZM16.7218 11L15.3203 11.9295C15.0182 12.127 14.7589 12.3879 14.5591 12.6955C14.3593 13.0031 14.2234 13.3507 14.1599 13.7161C14.0528 14.3327 14.1463 14.9688 14.4258 15.5239C14.2344 15.8262 14.1041 16.1659 14.0426 16.5222C13.9785 16.8955 13.9868 17.2784 14.067 17.6484C14.1471 18.0184 14.2976 18.3679 14.5094 18.6765C15.0516 19.4836 15.9146 19.9459 16.7942 19.9955L16.8 20H5.02105C3.58837 20 2.62035 18.5378 3.17988 17.2189L5.30108 12.2189C5.61459 11.4799 6.33956 11 7.14231 11L7.7273 11H11.0682L16.7218 11Z" fill="#64748B"/>
<path fill-rule="evenodd" clip-rule="evenodd" d="M19.3677 11.0004C18.9235 11.0067 18.4897 11.1297 18.1142 11.3557L16.1553 12.5436C15.8909 12.7016 15.6641 12.9103 15.4892 13.1564C15.3144 13.4025 15.1954 13.6806 15.1399 13.9729C15.0462 14.4662 15.1281 14.9751 15.3725 15.4191C15.2051 15.661 15.0911 15.9327 15.0373 16.2177C14.9812 16.5164 14.9885 16.8227 15.0586 17.1187C15.1288 17.4147 15.2604 17.6943 15.4458 17.9412C16.2271 19.0048 17.7701 19.3198 18.8854 18.6442L20.845 17.4609C21.109 17.3026 21.3356 17.0939 21.5104 16.848C21.6852 16.6021 21.8044 16.3243 21.8604 16.0322C21.9536 15.539 21.8713 15.0303 21.6264 14.5866C21.794 14.3445 21.9085 14.0726 21.963 13.7874C22.0188 13.4887 22.0114 13.1823 21.9411 12.8864C21.8709 12.5904 21.7392 12.3108 21.5539 12.0639V12.0587C21.308 11.7258 20.9803 11.4554 20.5992 11.2709C20.2181 11.0864 19.7953 10.9935 19.3677 11.0004ZM19.5395 11.9129C19.7786 11.9233 20.012 11.9862 20.2215 12.0965C20.431 12.2068 20.6109 12.3615 20.7471 12.5488C20.8588 12.6971 20.9381 12.8652 20.9804 13.0432C21.0227 13.2211 21.0272 13.4053 20.9935 13.585C20.9817 13.6435 20.9662 13.7014 20.9469 13.7581L20.9093 13.8655L20.8094 13.7939C20.5775 13.6319 20.3184 13.5087 20.0431 13.4294L19.9678 13.4092L19.9747 13.3376C19.9834 13.2392 19.9553 13.141 19.8953 13.0604C19.8402 12.9867 19.7628 12.9307 19.6735 12.8999C19.5841 12.8691 19.487 12.8649 19.3951 12.8879C19.3525 12.8986 19.3119 12.9155 19.2747 12.938L17.3151 14.1232C17.267 14.152 17.2258 14.1899 17.194 14.2346C17.1622 14.2793 17.1405 14.3298 17.1303 14.3829C17.1206 14.4372 17.1222 14.4927 17.1352 14.5463C17.1481 14.5999 17.172 14.6506 17.2056 14.6953C17.2601 14.7697 17.337 14.8265 17.4262 14.8582C17.5154 14.89 17.6127 14.8951 17.7051 14.873C17.7476 14.862 17.7881 14.8451 17.8255 14.8229L18.5768 14.3699C18.6996 14.2949 18.8339 14.2387 18.975 14.2033C19.2832 14.127 19.6086 14.1425 19.9072 14.2479C20.2058 14.3532 20.4632 14.5433 20.6445 14.7923C20.7561 14.9407 20.8354 15.1088 20.8777 15.2868C20.92 15.4647 20.9244 15.6489 20.8908 15.8285C20.8577 16.0046 20.7863 16.1722 20.6812 16.3206C20.5761 16.469 20.4397 16.5949 20.2805 16.6903L18.3209 17.8774C18.1978 17.9518 18.0635 18.008 17.9227 18.0441C17.6142 18.1202 17.2886 18.1045 16.9898 17.9991C16.691 17.8936 16.4334 17.7035 16.2518 17.4544C16.1403 17.3061 16.0612 17.1381 16.019 16.9602C15.9768 16.7824 15.9725 16.5983 16.0061 16.4188C16.0172 16.3604 16.0327 16.3027 16.0527 16.2464L16.0896 16.139L16.1902 16.2106C16.4216 16.3714 16.6801 16.4938 16.9545 16.5725L17.0297 16.5926L17.0229 16.6642C17.0157 16.7623 17.0447 16.8597 17.105 16.9395C17.1598 17.0144 17.2374 17.0715 17.3273 17.1031C17.4172 17.1348 17.5151 17.1395 17.6079 17.1166C17.6502 17.1057 17.6906 17.0888 17.7277 17.0665L19.6845 15.8793C19.7325 15.8504 19.7736 15.8124 19.8052 15.7675C19.8367 15.7227 19.8581 15.6721 19.8679 15.6189C19.878 15.5647 19.8765 15.5091 19.8635 15.4555C19.8506 15.4018 19.8265 15.3512 19.7927 15.3065C19.7379 15.2317 19.6603 15.1746 19.5704 15.143C19.4805 15.1113 19.3825 15.1066 19.2897 15.1295C19.2471 15.1402 19.2065 15.1571 19.1693 15.1796L18.418 15.6332C18.2954 15.7074 18.1615 15.7633 18.0212 15.7992C17.7132 15.875 17.3882 15.8591 17.0899 15.7538C16.7917 15.6485 16.5345 15.4588 16.353 15.2102C16.2419 15.0616 16.1632 14.8934 16.1213 14.7155C16.0795 14.5375 16.0755 14.3534 16.1095 14.174C16.1426 13.9979 16.214 13.8303 16.3191 13.6819C16.4242 13.5335 16.5606 13.4076 16.7198 13.3122L18.6822 12.1251C18.8042 12.0511 18.9373 11.9951 19.077 11.9591C19.2279 11.9219 19.3838 11.9059 19.5395 11.9129Z" fill="#FF7C7C"/>
</svg>
