<svg width="24" height="24" viewBox="0 0 24 24" fill="none" xmlns="http://www.w3.org/2000/svg">
<path fill-rule="evenodd" clip-rule="evenodd" d="M5 4C3.34315 4 2 5.34315 2 7V17C2 18.6569 3.34315 20 5 20H12V18H5C4.44772 18 4 17.5523 4 17V7C4 6.44772 4.44772 6 5 6H7.78388C8.01539 6 8.23973 6.08033 8.41862 6.22727L10.8119 8.19318C11.3486 8.63402 12.0216 8.875 12.7161 8.875H19C19.5523 8.875 20 9.32272 20 9.875V10H22V9.875C22 8.21815 20.6569 6.875 19 6.875H12.7161C12.4846 6.875 12.2603 6.79467 12.0814 6.64773L9.6881 4.68182C9.15142 4.24098 8.47841 4 7.78388 4H5Z" fill="#64748B"/>
<path fill-rule="evenodd" clip-rule="evenodd" d="M12.2675 11C12.0974 11.2942 12 11.6357 12 12V18C12 19.102 12.8913 19.9958 13.9924 20H5.02105C3.58837 20 2.62035 18.5378 3.17988 17.2189L5.30108 12.2189C5.61459 11.4799 6.33956 11 7.14231 11L7.7273 11H11.0682L12.2675 11Z" fill="#64748B"/>
<path fill-rule="evenodd" clip-rule="evenodd" d="M21.1 11H13.9C13.662 11.0011 13.4341 11.107 13.2663 11.2944C13.0984 11.4818 13.0043 11.7356 13.0045 12L13 18C13 18.55 13.405 19 13.8993 19H21.1C21.5957 19 22 18.55 22 18.0008V12C22 11.4492 21.5957 11 21.1 11ZM21.1 13L17.5 15.5004L13.9 13V12L17.5 14.5004L21.1 12V13Z" fill="#FF7C7C"/>
</svg>
