<svg width="24" height="24" viewBox="0 0 24 24" fill="none" xmlns="http://www.w3.org/2000/svg">
<path fill-rule="evenodd" clip-rule="evenodd" d="M5 4C3.34315 4 2 5.34315 2 7V17C2 18.6569 3.34315 20 5 20H12V18H5C4.44772 18 4 17.5523 4 17V7C4 6.44772 4.44772 6 5 6H7.78388C8.01539 6 8.23973 6.08033 8.41862 6.22727L10.8119 8.19318C11.3486 8.63402 12.0216 8.875 12.7161 8.875H19C19.5523 8.875 20 9.32272 20 9.875V10H22V9.875C22 8.21815 20.6569 6.875 19 6.875H12.7161C12.4846 6.875 12.2603 6.79467 12.0814 6.64773L9.6881 4.68182C9.15142 4.24098 8.47841 4 7.78388 4H5Z" fill="#64748B"/>
<path fill-rule="evenodd" clip-rule="evenodd" d="M5.30108 12.2189C5.61459 11.4799 6.33956 11 7.14231 11L7.7273 11H11.0682L20 11L19.9978 11.0044C19.9722 11.0058 19.9483 11.0075 19.9266 11.0096C19.8938 11.0125 19.8603 11.0153 19.8261 11.0182C19.2615 11.066 18.5157 11.1292 18.1699 11.5C18.1687 11.159 18.1641 11.0951 18.1488 11.0861C18.143 11.0822 17.4923 11.0833 16.735 11.0846C16.2436 11.0854 15.7073 11.0864 15.2732 11.0861H14.0183C12.8264 11.0876 12.0312 11.084 11.5291 11.0816C11.0109 11.0792 10.8049 11.0783 10.7972 11.0861C10.7829 11.1013 10.7789 11.2509 10.7789 11.8099L10.7973 13.992L11.899 13.996L13 14L12.9825 15.668C12.9825 17.3989 12.9872 18.8289 12.992 18.8466L13 18.8787L14.0215 18.9013C14.7382 18.9013 15.9325 18.8908 15.9404 18.8691C15.9406 18.8688 15.9407 18.8685 15.9408 18.8683C15.945 18.8573 15.9404 18.8428 15.9404 17.1472V13.992L17 13.9881C17.4375 14.8631 17.8572 15.1173 18.2341 15.3455C18.2879 15.3781 18.3409 15.4101 18.3929 15.4434C18.4996 15.5124 18.5179 15.5198 18.5149 15.5143C18.5719 15.5701 18.7734 15.7771 18.7734 15.918C18.5 16 18 15.5 18 15.5C17.98 15.5 16.7535 16.2447 16.5749 16.3597C16.5151 16.3983 16.5 16.416 16.5 16.4466C16.5 16.5109 17 17.5 17.5 18C17.8819 18.4504 19.0233 18.8602 19.701 18.96C19.886 18.9866 20.155 19.001 20.4062 18.9999C20.0545 19.6095 19.3989 20 18.674 20H5.02105C3.58837 20 2.62035 18.5378 3.17988 17.2189L5.30108 12.2189ZM18.5149 15.5143C18.5127 15.5104 18.5 15.5 18.5 15.5C18.5 15.5 18.5055 15.5051 18.5149 15.5143ZM18.1699 11.5V11.5V11.5ZM18.1699 11.5L18.168 12L18.1703 11.8131C18.1703 11.6889 18.1702 11.5857 18.1699 11.5Z" fill="#64748B"/>
<path fill-rule="evenodd" clip-rule="evenodd" d="M19.6707 12C19.5817 12 19.5 12.0018 19.4388 12.0072C18.9612 12.0446 18.5154 12.234 18.2098 12.529C18.057 12.6768 17.9181 12.8885 17.851 13.0779C17.776 13.2866 17.7766 13.283 17.7766 13.61C17.7766 14.028 17.8005 14.1311 17.9573 14.4092C18.1148 14.6891 18.3546 14.9171 18.7014 15.1168C18.8529 15.2049 19.2415 15.3804 19.5584 15.5053C20.2494 15.7767 20.4679 15.9022 20.5689 16.0849L20.6108 16.1603V16.3184C20.6108 16.471 20.6108 16.4788 20.5762 16.5416C20.4985 16.6869 20.3145 16.8064 20.0786 16.8637C19.9896 16.8854 19.9491 16.8884 19.7498 16.8884C19.5551 16.8884 19.5079 16.8848 19.4182 16.8643C19.2804 16.8354 19.1488 16.7859 19.0289 16.7177C18.9027 16.6423 18.6556 16.4161 18.5552 16.2834C18.5107 16.2255 18.4662 16.1778 18.4562 16.1778C18.4396 16.1778 17.5873 16.62 17.4385 16.7062C17.3886 16.7352 17.376 16.7485 17.376 16.7714C17.376 16.8197 17.5753 17.0929 17.7308 17.2588C18.049 17.5966 18.6861 17.8952 19.2508 17.97C19.4741 17.9989 19.8441 18.0086 20.1032 17.9917C20.2813 17.9784 20.4575 17.9483 20.6287 17.9018C21.2957 17.7245 21.7508 17.3469 21.9189 16.8317C21.989 16.6088 22.0139 16.3762 21.9926 16.1453C21.9461 15.6977 21.7947 15.381 21.4957 15.1077C21.218 14.8526 20.8373 14.6481 20.0846 14.3483C19.4322 14.0889 19.2621 13.9876 19.1678 13.8054C19.0867 13.648 19.1027 13.4314 19.2043 13.2963C19.3239 13.1389 19.5677 13.061 19.8401 13.0936C20.0926 13.1238 20.256 13.2149 20.4168 13.4145C20.4998 13.5177 20.5576 13.5714 20.5849 13.5714C20.6128 13.5714 20.7304 13.5056 21.0951 13.2854C21.4671 13.0616 21.5841 12.9856 21.592 12.9627C21.6046 12.9271 21.5455 12.8439 21.3755 12.6545C21.0333 12.2732 20.6314 12.0706 20.1145 12.0199C19.967 12.0068 19.8189 12.0001 19.6707 12ZM15.561 12.0645H14.5153C12.4969 12.067 12.0279 12.07 12.0153 12.0814C12.0033 12.0929 12 12.2051 12 12.6243V13.1533L12.9181 13.1563L13.8356 13.1594V15.5179C13.8356 16.816 13.8396 17.8885 13.8436 17.9018L13.8502 17.9259H14.5179C15.1152 17.9259 15.1856 17.9253 15.1922 17.9091C15.1962 17.9 15.1989 16.8275 15.1989 15.5258V13.1594L16.117 13.1563L17.0345 13.1533V12.6183C17.0345 12.1544 17.0325 12.0814 17.0166 12.073C17.0086 12.0682 16.4811 12.0651 15.5616 12.0645H15.561Z" fill="#8CDBFF"/>
</svg>
