<svg width="24" height="24" viewBox="0 0 24 24" fill="none" xmlns="http://www.w3.org/2000/svg">
<path fill-rule="evenodd" clip-rule="evenodd" d="M5 4C3.34315 4 2 5.34315 2 7V17C2 18.6569 3.34315 20 5 20H14V18H5C4.44772 18 4 17.5523 4 17V7C4 6.44772 4.44772 6 5 6H7.78388C8.01539 6 8.23973 6.08033 8.41862 6.22727L10.8119 8.19318C11.3486 8.63402 12.0216 8.875 12.7161 8.875H19C19.4197 8.875 19.779 9.13352 19.9273 9.5H21.9768C21.7923 8.02013 20.5299 6.875 19 6.875H12.7161C12.4846 6.875 12.2603 6.79467 12.0814 6.64773L9.6881 4.68182C9.15142 4.24098 8.47841 4 7.78388 4H5Z" fill="#64748B"/>
<path fill-rule="evenodd" clip-rule="evenodd" d="M7.14231 11C6.33956 11 5.61459 11.4799 5.30108 12.2189L3.17988 17.2189C2.62035 18.5378 3.58837 20 5.02105 20H16.9995C15.7853 19.0878 15 17.6356 15 16C15 13.2398 17.2365 11.002 19.9962 11L11.0682 11H7.7273L7.14231 11ZM20.0037 11C20.2473 11.0002 20.4867 11.0178 20.721 11.0516C20.5753 11.0179 20.4227 11 20.2648 11L20.0037 11Z" fill="#64748B"/>
<circle cx="20" cy="16" r="3" stroke="#8B5CF6" stroke-width="2"/>
</svg>
