<svg width="24" height="24" viewBox="0 0 24 24" fill="none" xmlns="http://www.w3.org/2000/svg">
<path fill-rule="evenodd" clip-rule="evenodd" d="M2 7C2 5.34315 3.34315 4 5 4H7.78388C8.47841 4 9.15142 4.24098 9.6881 4.68182L12.0814 6.64773C12.2603 6.79467 12.4846 6.875 12.7161 6.875H19C19.0887 6.875 19.1765 6.87885 19.2633 6.88639V8.91002C19.1794 8.88719 19.0911 8.875 19 8.875H12.7161C12.0216 8.875 11.3486 8.63402 10.8119 8.19318L8.41862 6.22727C8.23973 6.08033 8.01539 6 7.78388 6H5C4.44772 6 4 6.44772 4 7V17C4 17.5523 4.44772 18 5 18H12V20H5C3.34315 20 2 18.6569 2 17V7Z" fill="#64748B"/>
<path fill-rule="evenodd" clip-rule="evenodd" d="M19.2742 11C19.1569 11.2897 19.0273 11.5092 18.8824 11.6231C18.1138 12.2282 15.7945 12.4125 14.0718 12.4506C12.3492 12.4887 11.9486 12.8542 11.5563 13.6148C11.5563 13.6148 12.3573 14.0022 12.4756 14.4464C12.5939 14.8904 12.6942 15.8875 12.1834 17.6454C12.0496 18.1053 12.1913 18.4684 12.4425 19.1117C12.5379 19.3562 12.6492 19.6413 12.7671 19.9875H13V20H5.02105C3.58837 20 2.62035 18.5378 3.17988 17.2189L5.30108 12.2189C5.61459 11.4799 6.33956 11 7.14231 11L7.7273 11H11.0682L19.2742 11ZM22.1176 12.2449C22.166 12.897 22.2058 13.3533 22.2058 13.3533C22.2058 13.3533 21.4764 14.722 21 16.005V17.2858L22.1707 13.6064C22.321 13.1342 22.2872 12.6584 22.1176 12.2449Z" fill="#64748B"/>
<path d="M19.5987 12.7334C20.2326 12.2091 20.5136 9.10972 20.7881 7.99561C21.0627 6.8817 22.1977 6.93797 22.1977 6.93797C22.1977 6.93797 21.9031 7.45095 22.0232 7.83371C22.1434 8.21648 22.9669 8.55852 22.9669 8.55852L22.7893 9.02675C22.7893 9.02675 22.4186 8.97931 22.1977 9.42085C21.9769 9.86219 22.3397 14.2333 22.3397 14.2333C22.3397 14.2333 21.0131 16.8497 21.0131 17.9542C21.0131 19.0589 21.5361 19.9846 21.5361 19.9846H20.8025C20.8025 19.9846 19.726 18.7036 19.5053 18.0637C19.2845 17.4235 19.3728 16.7834 19.3728 16.7834C19.3728 16.7834 18.203 16.7172 17.1655 16.7834C16.1283 16.8497 15.4363 17.7414 15.3115 18.2402C15.1866 18.7391 15.1348 19.9846 15.1348 19.9846H14.555C14.2018 18.8949 13.9212 18.5044 14.0735 17.9542C14.4948 16.4302 14.4121 15.5658 14.3145 15.1809C14.2169 14.7959 13.5563 14.46 13.5563 14.46C13.8799 13.8006 14.2102 13.4837 15.631 13.4507C17.0518 13.4177 18.9647 13.2579 19.5987 12.7334Z" fill="#FF7043"/>
<path d="M15.9089 17.8904C15.9089 17.8904 16.0587 19.2776 16.8552 19.9846H17.5377C16.8552 19.2114 16.7809 17.1962 16.7809 17.1962C16.4336 17.3093 15.9531 17.7139 15.9089 17.8904Z" fill="#FF7043"/>
</svg>
