<svg width="24" height="24" viewBox="0 0 24 24" fill="none" xmlns="http://www.w3.org/2000/svg">
<path fill-rule="evenodd" clip-rule="evenodd" d="M5 4C3.34315 4 2 5.34315 2 7V17C2 18.6569 3.34315 20 5 20H14V18H5C4.44772 18 4 17.5523 4 17V7C4 6.44772 4.44772 6 5 6H7.78388C8.01539 6 8.23973 6.08033 8.41862 6.22727L10.8119 8.19318C11.3486 8.63402 12.0216 8.875 12.7161 8.875H19C19.4197 8.875 19.779 9.13352 19.9273 9.5H21.9768C21.7923 8.02013 20.5299 6.875 19 6.875H12.7161C12.4846 6.875 12.2603 6.79467 12.0814 6.64773L9.6881 4.68182C9.15142 4.24098 8.47841 4 7.78388 4H5Z" fill="#64748B"/>
<path fill-rule="evenodd" clip-rule="evenodd" d="M19.7525 19.6842C19.2107 19.887 18.6243 19.9985 18.0121 20H18.674C19.0661 20 19.438 19.8857 19.7525 19.6842ZM17.9879 20H5.02105C3.58837 20 2.62035 18.5378 3.17988 17.2189L5.30108 12.2189C5.61459 11.4799 6.33956 11 7.14231 11L7.7273 11H11.0682L14.9995 11C13.7853 11.9122 13 13.3644 13 15C13 17.7574 15.232 19.9934 17.9879 20ZM21.483 11.4126C21.6644 11.5888 21.8325 11.7786 21.9856 11.9804C21.8559 11.762 21.6853 11.5687 21.483 11.4126Z" fill="#64748B"/>
<path fill-rule="evenodd" clip-rule="evenodd" d="M20.3599 17.156C20.3081 16.995 20.2066 16.8545 20.0702 16.7546C19.9337 16.6547 19.7691 16.6005 19.6 16.5998H19.1997V15.4C19.1998 15.3475 19.1895 15.2954 19.1694 15.2469C19.1494 15.1983 19.12 15.1542 19.0828 15.117C19.0457 15.0798 19.0016 15.0503 18.9531 15.0302C18.9046 15.01 18.8525 14.9997 18.8 14.9997H16.4007V14.1996H17.2C17.2525 14.1997 17.3046 14.1894 17.3532 14.1694C17.4017 14.1493 17.4459 14.1199 17.483 14.0828C17.5202 14.0456 17.5497 14.0016 17.5698 13.953C17.59 13.9045 17.6003 13.8524 17.6003 13.7999V12.9998H18.4003C18.6124 12.9997 18.8157 12.9153 18.9656 12.7653C19.1155 12.6152 19.1997 12.4118 19.1997 12.1998V12.0354C19.6784 12.2283 20.1033 12.5343 20.438 12.9274C20.7726 13.3204 21.007 13.7887 21.121 14.2921C21.2351 14.7955 21.2254 15.3191 21.0929 15.818C20.9603 16.3169 20.7088 16.7762 20.3599 17.1566M17.6003 18.1723C16.8269 18.0761 16.1154 17.7005 15.5996 17.1161C15.0839 16.5318 14.7995 15.7791 14.8 14.9997C14.8 14.7518 14.8322 14.5119 14.8841 14.2838L16.8003 16.2001V16.5998C16.8003 16.812 16.8846 17.0155 17.0346 17.1655C17.1847 17.3156 17.3882 17.3999 17.6003 17.3999M18 11C16.9392 11 15.9219 11.4214 15.1718 12.1714C14.4217 12.9215 14.0002 13.9388 14 14.9997C14 16.0606 14.4214 17.0781 15.1716 17.8283C15.9217 18.5785 16.9391 19 18 19C19.0609 19 20.0783 18.5785 20.8284 17.8283C21.5786 17.0781 22 16.0606 22 14.9997C21.9998 13.9388 21.5783 12.9215 20.8282 12.1714C20.0781 11.4214 19.0608 11 18 11Z" fill="#CFD8DC"/>
</svg>
