<svg width="24" height="24" viewBox="0 0 24 24" fill="none" xmlns="http://www.w3.org/2000/svg">
<path fill-rule="evenodd" clip-rule="evenodd" d="M5 4C3.34315 4 2 5.34315 2 7V17C2 18.6569 3.34315 20 5 20H13V18H5C4.44772 18 4 17.5523 4 17V7C4 6.44772 4.44772 6 5 6H7.78388C8.01539 6 8.23973 6.08033 8.41862 6.22727L10.8119 8.19318C11.3486 8.63402 12.0216 8.875 12.7161 8.875H19C19.5523 8.875 20 9.32272 20 9.875V10H22V9.875C22 8.21815 20.6569 6.875 19 6.875H12.7161C12.4846 6.875 12.2603 6.79467 12.0814 6.64773L9.6881 4.68182C9.15142 4.24098 8.47841 4 7.78388 4H5Z" fill="#64748B"/>
<path fill-rule="evenodd" clip-rule="evenodd" d="M16.8922 11C16.8839 11.0984 16.8893 11.1977 16.9084 11.2952L14.8334 12.4714C14.7804 12.4257 14.7231 12.385 14.6622 12.35H14.6606C14.4057 12.2101 14.105 12.1743 13.8234 12.2503C13.5418 12.3264 13.3021 12.5082 13.1562 12.7563C13.0102 13.0045 12.9698 13.299 13.0437 13.5762C13.1175 13.8533 13.2997 14.0908 13.5507 14.2372C13.6134 14.2727 13.6777 14.3003 13.7436 14.3223V16.6747C13.6793 16.6968 13.615 16.7228 13.554 16.7575C13.2997 16.9025 13.1142 17.1403 13.038 17.419C12.9618 17.6977 13.0011 17.9946 13.1473 18.245C13.4519 18.7653 14.1318 18.9435 14.6638 18.6455C14.7239 18.611 14.7804 18.5708 14.8326 18.5256L16.9084 19.7002C16.8886 19.7991 16.8829 19.9 16.8913 20H5.02105C3.58837 20 2.62035 18.5378 3.17988 17.2189L5.30108 12.2189C5.61459 11.4799 6.33956 11 7.14231 11L7.7273 11H11.0682L16.8922 11Z" fill="#64748B"/>
<path d="M17.9979 11C17.8671 11.0002 17.738 11.0294 17.6198 11.0854C17.5015 11.1415 17.397 11.223 17.3138 11.3242C17.2306 11.4255 17.1707 11.5439 17.1384 11.671C17.106 11.7981 17.1021 11.9309 17.1268 12.0597L15.4667 13.022C15.4243 12.9846 15.3785 12.9514 15.3298 12.9227C15.3293 12.9227 15.3289 12.9227 15.3285 12.9227C15.1246 12.8082 14.884 12.779 14.6587 12.8412C14.4334 12.9034 14.2417 13.0521 14.1249 13.2552C14.0082 13.4582 13.9758 13.6992 14.0349 13.926C14.094 14.1527 14.2398 14.347 14.4406 14.4668C14.4907 14.4958 14.5422 14.5184 14.5949 14.5365V16.4611C14.5435 16.4792 14.492 16.5004 14.4432 16.5288C14.2397 16.6475 14.0914 16.8421 14.0304 17.0701C13.9695 17.2981 14.0009 17.5411 14.1178 17.7459C14.3615 18.1716 14.9054 18.3174 15.3311 18.0736C15.3791 18.0453 15.4243 18.0125 15.4661 17.9755L17.1268 18.9366C17.1028 19.0587 17.1046 19.1845 17.1321 19.3059C17.1595 19.4273 17.212 19.5416 17.2862 19.6414C17.3604 19.7412 17.4545 19.8243 17.5626 19.8853C17.6708 19.9464 17.7904 19.9841 17.9139 19.9959C18.0375 20.0078 18.1621 19.9936 18.2798 19.9542C18.3975 19.9148 18.5056 19.8511 18.5973 19.7672C18.689 19.6833 18.7621 19.5811 18.8121 19.4672C18.862 19.3532 18.8875 19.23 18.8871 19.1056C18.8871 19.0385 18.8787 18.974 18.8646 18.9114L20.5092 17.9575C20.6073 18.0473 20.7242 18.1139 20.8513 18.1525C20.9784 18.1911 21.1124 18.2006 21.2437 18.1805C21.375 18.1603 21.5 18.1109 21.6098 18.036C21.7196 17.961 21.8112 17.8623 21.878 17.7472H21.8793V17.7459C21.9376 17.6446 21.9755 17.5327 21.9907 17.4167C22.0059 17.3007 21.9982 17.1828 21.968 17.0698C21.9378 16.9567 21.8857 16.8508 21.8146 16.758C21.7436 16.6651 21.655 16.5873 21.554 16.5288C21.5056 16.5015 21.4548 16.4788 21.4022 16.4611V14.5352C21.4557 14.5174 21.5074 14.4945 21.5565 14.4668C21.9802 14.2204 22.1255 13.6735 21.8819 13.2491C21.7639 13.0446 21.57 12.8954 21.3425 12.8342C21.1151 12.773 20.8727 12.8049 20.6687 12.9227C20.6682 12.9227 20.6678 12.9227 20.6674 12.9227C20.6185 12.9514 20.5724 12.9846 20.5298 13.022L18.871 12.0623C18.8958 11.9332 18.8919 11.8003 18.8596 11.6729C18.8272 11.5455 18.7672 11.4269 18.6839 11.3255C18.6005 11.224 18.4959 11.1423 18.3774 11.0862C18.259 11.03 18.1296 11.0008 17.9986 11.0006L17.9979 11ZM17.1968 12.7008L15.1813 16.2005V14.53C15.3741 14.4616 15.5458 14.3301 15.6551 14.1392C15.7637 13.9495 15.7901 13.7367 15.7541 13.5361L17.1968 12.7008ZM18.8042 12.7034L20.2418 13.5374C20.2057 13.7373 20.234 13.9502 20.3427 14.1392C20.452 14.3301 20.623 14.4616 20.8159 14.53V16.1979L18.8042 12.7034ZM17.8359 12.766C17.9437 12.7873 18.0547 12.7873 18.1625 12.766L20.4378 16.7204C20.4011 16.7626 20.3683 16.8081 20.3401 16.8565C20.3127 16.9047 20.2899 16.9555 20.272 17.0081H15.7252C15.7073 16.9555 15.6845 16.9047 15.657 16.8565C15.6568 16.8561 15.6566 16.8556 15.6564 16.8552C15.6284 16.8078 15.5961 16.7631 15.5599 16.7217L17.8359 12.766ZM15.9875 17.5969H20.0521L18.5881 18.4444C18.4267 18.2969 18.2163 18.2149 17.9979 18.2142C17.7787 18.2142 17.5794 18.298 17.4244 18.4309L15.9875 17.5982V17.5969Z" fill="#F472B6"/>
</svg>
