<svg width="24" height="24" viewBox="0 0 24 24" fill="none" xmlns="http://www.w3.org/2000/svg">
<path fill-rule="evenodd" clip-rule="evenodd" d="M5 4C3.34315 4 2 5.34315 2 7V17C2 18.6569 3.34315 20 5 20H13V18H5C4.44772 18 4 17.5523 4 17V7C4 6.44772 4.44772 6 5 6H7.78388C8.01539 6 8.23973 6.08033 8.41862 6.22727L10.8119 8.19318C11.3486 8.63402 12.0216 8.875 12.7161 8.875H19C19.5523 8.875 20 9.32272 20 9.875V10H22V9.875C22 8.21815 20.6569 6.875 19 6.875H12.7161C12.4846 6.875 12.2603 6.79467 12.0814 6.64773L9.6881 4.68182C9.15142 4.24098 8.47841 4 7.78388 4H5Z" fill="#64748B"/>
<path fill-rule="evenodd" clip-rule="evenodd" d="M12.9916 11L15 13.0254L13 13L14.7 15H12.5L16.7668 19.9863L17.6007 20H5.02105C3.58837 20 2.62035 18.5378 3.17988 17.2189L5.30108 12.2189C5.61459 11.4799 6.33956 11 7.14231 11L7.7273 11H11.0682L12.9916 11Z" fill="#64748B"/>
<path fill-rule="evenodd" clip-rule="evenodd" d="M14.0094 11L16.4378 13.6664H14.5013L16.4178 15.7715H14L16.9297 18.989V12.155H18.393L19.0329 12.8569H17.6096V15.4911H18.3L19.0679 16.3336H17.569L17.579 16.3445V19H21L19.7714 17.6503V17.1068L20.0367 17.3981V14.7344H19.5454V13.4204L20.4887 14.4554V11.789H18.4555L17.7363 11H16.3598H14.0094Z" fill="#FFCE50" fill-opacity="0.976"/>
</svg>
