<svg width="24" height="24" viewBox="0 0 24 24" fill="none" xmlns="http://www.w3.org/2000/svg">
<path fill-rule="evenodd" clip-rule="evenodd" d="M5 4C3.34315 4 2 5.34315 2 7V17C2 18.6569 3.34315 20 5 20H13V18H5C4.44772 18 4 17.5523 4 17V7C4 6.44772 4.44772 6 5 6H7.78388C8.01539 6 8.23973 6.08033 8.41862 6.22727L10.8119 8.19318C11.3486 8.63402 12.0216 8.875 12.7161 8.875H19C19.5523 8.875 20 9.32272 20 9.875V10H22V9.875C22 8.21815 20.6569 6.875 19 6.875H12.7161C12.4846 6.875 12.2603 6.79467 12.0814 6.64773L9.6881 4.68182C9.15142 4.24098 8.47841 4 7.78388 4H5Z" fill="#64748B"/>
<path fill-rule="evenodd" clip-rule="evenodd" d="M13.2675 11C13.0974 11.2942 13 11.6357 13 12V19C13 19.3643 13.0974 19.7058 13.2676 20H5.02105C3.58837 20 2.62035 18.5378 3.17988 17.2189L5.30108 12.2189C5.61459 11.4799 6.33956 11 7.14231 11L7.7273 11H11.0682L13.2675 11Z" fill="#64748B"/>
<path fill-rule="evenodd" clip-rule="evenodd" d="M15.0004 11C14.869 10.9999 14.7388 11.0231 14.6174 11.0684C14.496 11.1136 14.3857 11.1799 14.2928 11.2635C14.1999 11.3471 14.1262 11.4464 14.0759 11.5557C14.0257 11.665 13.9999 11.7821 14 11.9004V19.0982C13.9997 19.2166 14.0253 19.3339 14.0755 19.4433C14.1256 19.5528 14.1993 19.6522 14.2922 19.736C14.3851 19.8198 14.4955 19.8862 14.6171 19.9315C14.7386 19.9768 14.8688 20.0001 15.0004 20H20.9996C21.1312 20.0001 21.2614 19.9768 21.3829 19.9315C21.5045 19.8862 21.6149 19.8198 21.7078 19.736C21.8007 19.6522 21.8744 19.5528 21.9245 19.4433C21.9747 19.3339 22.0003 19.2166 22 19.0982V11.9011C22.0002 11.7827 21.9745 11.6655 21.9243 11.5562C21.8741 11.4468 21.8004 11.3475 21.7075 11.2638C21.6146 11.1801 21.5042 11.1137 21.3828 11.0684C21.2613 11.0232 21.1311 10.9999 20.9996 11H15.0004ZM15.0004 14.1505H20.9996V16.4H15.0004V14.1505ZM15.0004 17.2989H20.9996V19.0982H15.0004V17.2989Z" fill="#FF7C7C"/>
</svg>
