<svg width="48" height="48" viewBox="0 0 48 48" fill="none" xmlns="http://www.w3.org/2000/svg">
<path fill-rule="evenodd" clip-rule="evenodd" d="M10 8.25C6.82436 8.25 4.25 10.8244 4.25 14V34C4.25 37.1756 6.82436 39.75 10 39.75H20V36.25H10C8.75736 36.25 7.75 35.2426 7.75 34V14C7.75 12.7574 8.75736 11.75 10 11.75H15.5678C16.0887 11.75 16.5934 11.9307 16.9959 12.2614L21.7825 16.1932C22.8111 17.0381 24.1011 17.5 25.4322 17.5H38C39.2426 17.5 40.25 18.5074 40.25 19.75V20H43.75V19.75C43.75 16.5744 41.1756 14 38 14H25.4322C24.9113 14 24.4066 13.8193 24.0041 13.4886L19.2175 9.55682C18.1889 8.71187 16.8989 8.25 15.5678 8.25H10Z" fill="#3D4653"/>
<path d="M34.2829 28.9572H31.3638C31.3105 28.5802 31.2017 28.2452 31.0373 27.9525C30.8729 27.6553 30.6618 27.4024 30.4041 27.1939C30.1464 26.9854 29.8487 26.8257 29.5111 26.7148C29.1778 26.6039 28.8157 26.5485 28.4247 26.5485C27.7183 26.5485 27.1029 26.7237 26.5786 27.0741C26.0543 27.4202 25.6478 27.9259 25.359 28.5913C25.0702 29.2522 24.9258 30.0551 24.9258 31C24.9258 31.9715 25.0702 32.7877 25.359 33.4487C25.6522 34.1096 26.061 34.6087 26.5853 34.9458C27.1096 35.283 27.716 35.4515 28.4047 35.4515C28.7913 35.4515 29.1489 35.4005 29.4777 35.2985C29.811 35.1965 30.1064 35.0478 30.3641 34.8527C30.6218 34.653 30.8351 34.4113 31.0039 34.1274C31.1772 33.8435 31.2972 33.5196 31.3638 33.1559L34.2829 33.1692C34.2074 33.7947 34.0186 34.398 33.7165 34.9791C33.4188 35.5558 33.0167 36.0726 32.5102 36.5295C32.0081 36.9819 31.4083 37.3413 30.7107 37.6074C30.0176 37.8691 29.2334 38 28.3581 38C27.1407 38 26.0521 37.725 25.0924 37.1749C24.1371 36.6248 23.3818 35.8286 22.8264 34.7861C22.2755 33.7437 22 32.4816 22 31C22 29.5139 22.2799 28.2497 22.8397 27.2072C23.3996 26.1648 24.1593 25.3707 25.1191 24.8251C26.0788 24.275 27.1584 24 28.3581 24C29.1489 24 29.8821 24.1109 30.5574 24.3327C31.2372 24.5545 31.8392 24.8783 32.3635 25.3042C32.8878 25.7256 33.3144 26.2424 33.6431 26.8546C33.9764 27.4667 34.1896 28.1676 34.2829 28.9572Z" fill="#5B6071"/>
<path d="M35.1772 24.1863H38.4096L41.522 30.0551H41.6553L44.7676 24.1863H48L43.0215 32.9962V37.8137H40.1557V32.9962L35.1772 24.1863Z" fill="#5B6071"/>
</svg>
