<svg width="48" height="48" viewBox="0 0 48 48" fill="none" xmlns="http://www.w3.org/2000/svg">
<path fill-rule="evenodd" clip-rule="evenodd" d="M10 8.25C6.82436 8.25 4.25 10.8244 4.25 14V34C4.25 37.1756 6.82436 39.75 10 39.75H24V36.25H10C8.75736 36.25 7.75 35.2426 7.75 34V14C7.75 12.7574 8.75736 11.75 10 11.75H15.5678C16.0887 11.75 16.5934 11.9307 16.9959 12.2614L21.7825 16.1932C22.8111 17.0381 24.1011 17.5 25.4322 17.5H38C38.9797 17.5 39.8131 18.1261 40.122 19H43.7015C43.334 16.1787 40.9214 14 38 14H25.4322C24.9113 14 24.4066 13.8193 24.0041 13.4886L19.2175 9.55682C18.1889 8.71187 16.8989 8.25 15.5678 8.25H10Z" fill="#3D4653"/>
<path fill-rule="evenodd" clip-rule="evenodd" d="M38.3638 30.9406H44.4071V32.6171H38.3638V30.9406ZM38.3638 28.1469H44.4071V29.8234H38.3638V28.1469ZM38.3638 33.7343H44.4071V35.4108H38.3638V33.7343ZM45.2709 22H29.726C28.7762 22 28 23.0077 28 24.236V38.7657C28 39.9941 28.7762 41 29.726 41H45.2724C46.2208 41 47 39.9941 47 38.764V24.2343C47 23.0059 46.2223 22 45.2709 22ZM45.2709 38.764H37.5V24.2343H45.2709V38.764Z" fill="#5B6071"/>
</svg>
