<svg width="48" height="48" viewBox="0 0 48 48" fill="none" xmlns="http://www.w3.org/2000/svg">
<path fill-rule="evenodd" clip-rule="evenodd" d="M10 8.25C6.82436 8.25 4.25 10.8244 4.25 14V34C4.25 37.1756 6.82436 39.75 10 39.75H26V36.25H10C8.75736 36.25 7.75 35.2426 7.75 34V14C7.75 12.7574 8.75736 11.75 10 11.75H15.5678C16.0887 11.75 16.5934 11.9307 16.9959 12.2614L21.7825 16.1932C22.8111 17.0381 24.1011 17.5 25.4322 17.5H38C39.2426 17.5 40.25 18.5074 40.25 19.75V20H43.75V19.75C43.75 16.5744 41.1756 14 38 14H25.4322C24.9113 14 24.4066 13.8193 24.0041 13.4886L19.2175 9.55682C18.1889 8.71187 16.8989 8.25 15.5678 8.25H10Z" fill="#3D4653"/>
<path fill-rule="evenodd" clip-rule="evenodd" d="M48 38.1902V39.1426H30V38.1902L32.0002 36.2853V30.5706C32.0002 27.6187 34.0309 25.0188 37.0006 24.1812V23.9049C37.0006 23.3997 37.2113 22.9152 37.5864 22.5579C37.9615 22.2007 38.4703 22 39.0008 22C39.5312 22 40.04 22.2007 40.4151 22.5579C40.7902 22.9152 41.0009 23.3997 41.0009 23.9049V24.1812C42.4463 24.5902 43.7141 25.4334 44.615 26.5849C45.5159 27.7365 46.0017 29.1346 45.9998 30.5706V36.2853L48 38.1902ZM40.9994 40.0951C40.9994 40.6003 40.7887 41.0848 40.4136 41.4421C40.0385 41.7993 39.5297 42 38.9992 42C38.4688 42 37.96 41.7993 37.5849 41.4421C37.2098 41.0848 36.9991 40.6003 36.9991 40.0951" fill="#5B6071"/>
</svg>
