<svg width="48" height="48" viewBox="0 0 48 48" fill="none" xmlns="http://www.w3.org/2000/svg">
<path fill-rule="evenodd" clip-rule="evenodd" d="M10 8.25C6.82439 8.25 4.25003 10.8244 4.25003 14V34C4.25003 37.1756 6.82439 39.75 10 39.75H19V36.25H10C8.75739 36.25 7.75003 35.2426 7.75003 34V14C7.75003 12.7574 8.75739 11.75 10 11.75H15.5678C16.0887 11.75 16.5935 11.9307 16.996 12.2614L21.7825 16.1932C22.8111 17.0381 24.1011 17.5 25.4323 17.5H38C39.2427 17.5 40.25 18.5074 40.25 19.75V20H43.75V19.75C43.75 16.5744 41.1757 14 38 14H25.4323C24.9114 14 24.4066 13.8193 24.0041 13.4886L19.2175 9.55682C18.1889 8.71187 16.899 8.25 15.5678 8.25H10Z" fill="#3D4653"/>
<path fill-rule="evenodd" clip-rule="evenodd" d="M37.7797 22.6264C37.5819 22.3288 37.1447 22.3289 36.9469 22.6265L32.9335 28.6656L36.3006 33.7302L34.4106 35.3349L29.5086 27.9586C29.3108 27.6609 28.8737 27.6609 28.6758 27.9585L22.5164 37.2232C22.2955 37.5555 22.5338 38 22.9328 38H47.0672C47.4662 38 47.7045 37.5555 47.4836 37.2232L37.7797 22.6264Z" fill="#5B6071"/>
</svg>
