<svg width="48" height="48" viewBox="0 0 48 48" fill="none" xmlns="http://www.w3.org/2000/svg">
<path fill-rule="evenodd" clip-rule="evenodd" d="M10 8.25C6.82436 8.25 4.25 10.8244 4.25 14V34C4.25 37.1756 6.82436 39.75 10 39.75H27V36.25H10C8.75736 36.25 7.75 35.2426 7.75 34V14C7.75 12.7574 8.75736 11.75 10 11.75H15.5678C16.0887 11.75 16.5934 11.9307 16.9959 12.2614L21.7825 16.1932C22.8111 17.0381 24.1011 17.5 25.4322 17.5H38C39.2426 17.5 40.25 18.5074 40.25 19.75V20H43.75V19.75C43.75 16.5744 41.1756 14 38 14H25.4322C24.9113 14 24.4066 13.8193 24.0041 13.4886L19.2175 9.55682C18.1889 8.71187 16.8989 8.25 15.5678 8.25H10Z" fill="#3D4653"/>
<path d="M38.5008 29.382C40.0641 29.382 41.5324 29.1295 42.6524 28.6793C43.2093 28.4555 43.7369 28.1601 44.1439 27.7733C44.5536 27.384 44.9155 26.8242 44.9155 26.116C44.9155 25.4078 44.5536 24.8481 44.1439 24.4587C43.7369 24.0719 43.2093 23.7766 42.6524 23.5527C41.5324 23.1026 40.0641 22.85 38.5008 22.85C36.9376 22.85 35.4693 23.1026 34.3493 23.5527C33.7924 23.7766 33.2648 24.0719 32.8577 24.4587C32.448 24.8481 32.0862 25.4078 32.0862 26.116C32.0862 26.8242 32.448 27.384 32.8577 27.7733C33.2648 28.1601 33.7924 28.4555 34.3493 28.6793C35.4693 29.1295 36.9376 29.382 38.5008 29.382Z" stroke="#5B6071" stroke-width="2.3"/>
<path d="M32 39.798V26.5323L33.0829 28.9622L33.6575 30.667L38.2162 30.8826L44.5523 28.3036L45 26.5323V39.798C45 40.4619 44.4618 41 43.798 41H33.202C32.5382 41 32 40.4619 32 39.798Z" fill="#5B6071" stroke="#5B6071" stroke-width="2.3" stroke-linejoin="round"/>
</svg>
