<svg width="48" height="48" viewBox="0 0 48 48" fill="none" xmlns="http://www.w3.org/2000/svg">
<g clip-path="url(#clip0_3475_11452)">
<path fill-rule="evenodd" clip-rule="evenodd" d="M10 8.25C6.82436 8.25 4.25 10.8244 4.25 14V34C4.25 37.1756 6.82436 39.75 10 39.75H22V36.25H10C8.75736 36.25 7.75 35.2426 7.75 34V14C7.75 12.7574 8.75736 11.75 10 11.75H15.5678C16.0887 11.75 16.5934 11.9307 16.9959 12.2614L21.7825 16.1932C22.8111 17.0381 24.1011 17.5 25.4322 17.5H38C39.2426 17.5 40.25 18.5074 40.25 19.75V20H43.75V19.75C43.75 16.5744 41.1756 14 38 14H25.4322C24.9113 14 24.4066 13.8193 24.0041 13.4886L19.2175 9.55682C18.1889 8.71187 16.8989 8.25 15.5678 8.25H10Z" fill="#3D4653"/>
<path d="M35.3041 20C33.9008 20 32.7636 21.1371 32.7636 22.5405V24.0648H28.6989C27.576 24.0648 26.6665 24.9743 26.6665 26.0971V29.1457C26.6665 29.7067 27.1218 30.1619 27.6827 30.1619H28.0459C29.3751 30.1619 30.5843 31.1183 30.7174 32.4404C30.8698 33.9616 29.6805 35.2429 28.1908 35.2429H27.6827C27.1218 35.2429 26.6665 35.6981 26.6665 36.259V39.3076C26.6665 40.4305 27.576 41.34 28.6989 41.34H31.7475C32.3084 41.34 32.7636 40.8847 32.7636 40.3238V39.9606C32.7636 38.6314 33.7201 37.4223 35.0421 37.2891C36.5634 37.1367 37.8446 38.326 37.8446 39.8157V40.3238C37.8446 40.8847 38.2999 41.34 38.8608 41.34H41.9094C43.0323 41.34 43.9417 40.4305 43.9417 39.3076V35.2429H45.466C46.8694 35.2429 48.0065 34.1057 48.0065 32.7024C48.0065 31.299 46.8694 30.1619 45.466 30.1619H43.9417V26.0971C43.9417 24.9743 43.0323 24.0648 41.9094 24.0648H37.8446V22.5405C37.8446 21.1371 36.7075 20 35.3041 20Z" fill="#5B6071"/>
</g>
<defs>
<clipPath id="clip0_3475_11452">
<rect width="48" height="48" fill="white"/>
</clipPath>
</defs>
</svg>
