<svg width="48" height="48" viewBox="0 0 48 48" fill="none" xmlns="http://www.w3.org/2000/svg">
<path fill-rule="evenodd" clip-rule="evenodd" d="M10 8.25C6.82436 8.25 4.25 10.8244 4.25 14V34C4.25 37.1756 6.82436 39.75 10 39.75H26V36.25H10C8.75736 36.25 7.75 35.2426 7.75 34V14C7.75 12.7574 8.75736 11.75 10 11.75H15.5678C16.0887 11.75 16.5934 11.9307 16.9959 12.2614L21.7825 16.1932C22.8111 17.0381 24.1011 17.5 25.4322 17.5H38C39.2426 17.5 40.25 18.5074 40.25 19.75V20H43.75V19.75C43.75 16.5744 41.1756 14 38 14H25.4322C24.9113 14 24.4066 13.8193 24.0041 13.4886L19.2175 9.55682C18.1889 8.71187 16.8989 8.25 15.5678 8.25H10Z" fill="#3D4653"/>
<path d="M35.125 24.375C35.125 23.0633 36.1883 22 37.5 22C38.8117 22 39.875 23.0633 39.875 24.375V38.625C39.875 39.9367 38.8117 41 37.5 41C36.1883 41 35.125 39.9367 35.125 38.625V24.375Z" fill="#5B6071"/>
<path d="M30.375 33.875C29.0633 33.875 28 32.8117 28 31.5C28 30.1883 29.0633 29.125 30.375 29.125H44.625C45.9367 29.125 47 30.1883 47 31.5C47 32.8117 45.9367 33.875 44.625 33.875H30.375Z" fill="#5B6071"/>
</svg>
