<svg width="48" height="48" viewBox="0 0 48 48" fill="none" xmlns="http://www.w3.org/2000/svg">
<path fill-rule="evenodd" clip-rule="evenodd" d="M10 8.25003C6.82439 8.25003 4.25003 10.8244 4.25003 14V34C4.25003 37.1757 6.82439 39.75 10 39.75H26V36.25H10C8.75739 36.25 7.75003 35.2427 7.75003 34V14C7.75003 12.7574 8.75739 11.75 10 11.75H15.5678C16.0887 11.75 16.5935 11.9308 16.996 12.2614L21.7825 16.1932C22.8111 17.0382 24.1011 17.5 25.4323 17.5H38C38.9797 17.5 39.8131 18.1261 40.122 19H43.7016C43.334 16.1788 40.9215 14 38 14H25.4323C24.9114 14 24.4066 13.8193 24.0041 13.4887L19.2175 9.55685C18.1889 8.7119 16.899 8.25003 15.5678 8.25003H10Z" fill="#3D4653"/>
<path fill-rule="evenodd" clip-rule="evenodd" d="M39.7782 36.0005H33.5564V34H39.7782M42.4449 32.001H33.5564V30.0005H42.4449M42.4449 28.0015H33.5564V26.001H42.4449M44.2231 22H31.7782C31.5445 21.999 31.3128 22.0501 31.0967 22.1503C30.8806 22.2505 30.6842 22.3978 30.5189 22.5838C30.3536 22.7697 30.2226 22.9906 30.1336 23.2338C30.0445 23.4769 29.9991 23.7375 30 24.0005V38.001C30.0004 38.5313 30.1879 39.0398 30.5213 39.4146C30.8547 39.7894 31.3068 40 31.7782 40H44.2218C44.6932 40 45.1453 39.7894 45.4787 39.4146C45.8121 39.0398 45.9996 38.5313 46 38.001V24.0005C46 22.8909 45.2001 22.0015 44.2218 22.0015L44.2231 22Z" fill="#5B6071"/>
</svg>
