<svg width="48" height="48" viewBox="0 0 48 48" fill="none" xmlns="http://www.w3.org/2000/svg">
<path fill-rule="evenodd" clip-rule="evenodd" d="M10 8.25C6.82436 8.25 4.25 10.8244 4.25 14V34C4.25 37.1756 6.82436 39.75 10 39.75H22V36.25H10C8.75736 36.25 7.75 35.2426 7.75 34V14C7.75 12.7574 8.75736 11.75 10 11.75H15.5678C16.0887 11.75 16.5934 11.9307 16.9959 12.2614L21.7825 16.1932C22.8111 17.0381 24.1011 17.5 25.4322 17.5H38C38.9797 17.5 39.8131 18.1261 40.122 19H43.7015C43.334 16.1787 40.9214 14 38 14H25.4322C24.9113 14 24.4066 13.8193 24.0041 13.4886L19.2175 9.55682C18.1889 8.71187 16.8989 8.25 15.5678 8.25H10Z" fill="#3D4653"/>
<path fill-rule="evenodd" clip-rule="evenodd" d="M36.5 35.4846C35.6646 35.4846 34.8635 35.1568 34.2728 34.5732C33.6821 33.9897 33.3503 33.1983 33.3503 32.373C33.3503 31.2106 33.9908 30.1949 34.9252 29.6653L45.1208 23.8355L39.3135 33.7732C39.0504 34.2875 38.6483 34.7196 38.1516 35.0217C37.6549 35.3238 37.0833 35.4841 36.5 35.4846ZM36.5 22C38.3293 22.0077 40.126 22.479 41.7182 23.3688L39.5134 24.6239C38.5515 24.2599 37.5301 24.0738 36.5 24.0749C34.2723 24.0749 32.1358 24.9492 30.5605 26.5054C28.9853 28.0616 28.1003 30.1722 28.1003 32.373C28.0967 33.4619 28.312 34.5407 28.7336 35.5468C29.1552 36.553 29.7748 37.4664 30.5565 38.2342H30.5671C30.9759 38.6381 30.9759 39.2918 30.5671 39.6957C30.1582 40.0997 29.4859 40.0997 29.077 39.7062C28.1004 38.7444 27.3258 37.6014 26.7978 36.3429C26.2697 35.0845 25.9986 33.7353 26 32.373C26 29.6219 27.1063 26.9835 29.0754 25.0382C31.0445 23.0929 33.7152 22 36.5 22ZM47 32.373C47.0014 33.7353 46.7303 35.0845 46.2022 36.3429C45.6742 37.6014 44.8996 38.7444 43.923 39.7062C43.7242 39.8964 43.4578 40.0019 43.1811 39.9999C42.9044 39.998 42.6395 39.8887 42.4435 39.6957C42.3462 39.5999 42.269 39.486 42.2164 39.3606C42.1637 39.2352 42.1366 39.1007 42.1366 38.965C42.1366 38.8292 42.1637 38.6948 42.2164 38.5694C42.269 38.444 42.3462 38.3301 42.4435 38.2342C43.2244 37.4658 43.8434 36.5523 44.265 35.5463C44.6865 34.5403 44.9023 33.4618 44.8997 32.373C44.8997 31.3348 44.7013 30.2981 44.3334 29.3646L45.6038 27.1865C46.4745 28.7423 47 30.4851 47 32.373Z" fill="#5B6071"/>
</svg>
