<svg width="48" height="48" viewBox="0 0 48 48" fill="none" xmlns="http://www.w3.org/2000/svg">
<path fill-rule="evenodd" clip-rule="evenodd" d="M10 8.25003C6.82439 8.25003 4.25003 10.8244 4.25003 14V34C4.25003 37.1757 6.82439 39.75 10 39.75H22V36.25H10C8.75739 36.25 7.75003 35.2427 7.75003 34V14C7.75003 12.7574 8.75739 11.75 10 11.75H15.5678C16.0887 11.75 16.5935 11.9308 16.996 12.2614L21.7825 16.1932C22.8111 17.0382 24.1011 17.5 25.4323 17.5H38C38.9797 17.5 39.8131 18.1261 40.122 19H43.7016C43.334 16.1788 40.9215 14 38 14H25.4323C24.9114 14 24.4066 13.8193 24.0041 13.4887L19.2175 9.55685C18.1889 8.7119 16.899 8.25003 15.5678 8.25003H10Z" fill="#3D4653"/>
<path d="M26 24.1111C26 22.9451 26.9451 22 28.1111 22H42.8889C44.0549 22 45 22.9451 45 24.1111V38.8889C45 40.0549 44.0549 41 42.8889 41H28.1111C26.9451 41 26 40.0549 26 38.8889V24.1111ZM27.7273 28.5257V39.2727H43.2727V28.5257H27.7273ZM43.2727 26.7983V23.7273H27.7273V26.7983H43.2727ZM30.3183 31.5017C30.3183 31.0237 30.7057 30.6363 31.1836 30.6363C31.6616 30.6363 32.049 31.0237 32.049 31.5017C32.049 31.9796 31.6616 32.367 31.1836 32.367C30.7057 32.367 30.3183 31.9796 30.3183 31.5017ZM33.7727 31.5017C33.7727 31.0237 34.1601 30.6363 34.638 30.6363C35.116 30.6363 35.5034 31.0237 35.5034 31.5017C35.5034 31.9796 35.116 32.367 34.638 32.367C34.1601 32.367 33.7727 31.9796 33.7727 31.5017ZM37.2273 31.5017C37.2273 31.0237 37.6147 30.6363 38.0927 30.6363C38.5706 30.6363 38.958 31.0237 38.958 31.5017C38.958 31.9796 38.5706 32.367 38.0927 32.367C37.6147 32.367 37.2273 31.9796 37.2273 31.5017Z" fill="#5B6071" stroke="#5B6071" stroke-width="0.5"/>
</svg>
