<svg width="48" height="48" viewBox="0 0 48 48" fill="none" xmlns="http://www.w3.org/2000/svg">
<path fill-rule="evenodd" clip-rule="evenodd" d="M10 8.25C6.82436 8.25 4.25 10.8244 4.25 14V34C4.25 37.1756 6.82436 39.75 10 39.75H25V36.25H10C8.75736 36.25 7.75 35.2426 7.75 34V14C7.75 12.7574 8.75736 11.75 10 11.75H15.5678C16.0887 11.75 16.5934 11.9307 16.9959 12.2614L21.7825 16.1932C22.8111 17.0381 24.1011 17.5 25.4322 17.5H38C38.9797 17.5 39.8131 18.1261 40.122 19H43.7015C43.334 16.1787 40.9214 14 38 14H25.4322C24.9113 14 24.4066 13.8193 24.0041 13.4886L19.2175 9.55682C18.1889 8.71187 16.8989 8.25 15.5678 8.25H10Z" fill="#3D4653"/>
<path fill-rule="evenodd" clip-rule="evenodd" d="M37.5 22C34.9807 22 32.5645 23.0256 30.783 24.8513C29.0014 26.677 28.0004 29.1532 28 31.7353C28.0015 33.7805 28.6296 35.7736 29.7957 37.4332C30.9618 39.0929 32.6071 40.3352 34.4992 40.985C34.9744 41.0623 35.1253 40.7615 35.1253 40.4979V38.8534C32.4935 39.4364 31.9331 37.5484 31.9331 37.5484C31.497 36.4196 30.8792 36.1159 30.8792 36.1159C30.0141 35.5142 30.9449 35.5329 30.9449 35.5329C31.8953 35.6016 32.3985 36.5356 32.3985 36.5356C33.2259 38.0154 34.6208 37.577 35.1631 37.3435C35.2483 36.7104 35.4957 36.2835 35.7613 36.04C33.6522 35.7964 31.4397 34.9584 31.4397 31.2497C31.4397 30.1681 31.8003 29.3015 32.4181 28.611C32.323 28.3675 31.9904 27.3547 32.5131 26.0397C32.5131 26.0397 33.3098 25.7775 35.1253 27.0338C35.8759 26.8189 36.6921 26.7115 37.5014 26.7115C38.3107 26.7115 39.1241 26.8189 39.8746 27.0338C41.6888 25.7775 42.4883 26.0397 42.4883 26.0397C43.0096 27.3547 42.677 28.3675 42.5819 28.611C43.1997 29.3015 43.5603 30.1681 43.5603 31.2497C43.5603 34.9685 41.338 35.7864 39.2191 36.0299C39.5616 36.3308 39.876 36.9253 39.876 37.8306V40.4979C39.876 40.7615 40.027 41.0724 40.512 40.985C42.4019 40.3331 44.0446 39.0899 45.2086 37.4304C46.3725 35.771 46.9991 33.779 47 31.7353C46.9996 29.1532 45.9986 26.677 44.217 24.8513C42.4355 23.0256 40.0193 22 37.5 22Z" fill="#5B6071"/>
</svg>
