<svg width="48" height="48" viewBox="0 0 48 48" fill="none" xmlns="http://www.w3.org/2000/svg">
<path fill-rule="evenodd" clip-rule="evenodd" d="M10 8.25C6.82436 8.25 4.25 10.8244 4.25 14V34C4.25 37.1756 6.82436 39.75 10 39.75H26V36.25H10C8.75736 36.25 7.75 35.2426 7.75 34V14C7.75 12.7574 8.75736 11.75 10 11.75H15.5678C16.0887 11.75 16.5934 11.9307 16.9959 12.2614L21.7825 16.1932C22.8111 17.0381 24.1011 17.5 25.4322 17.5H38C39.2426 17.5 40.25 18.5074 40.25 19.75V20H43.75V19.75C43.75 16.5744 41.1756 14 38 14H25.4322C24.9113 14 24.4066 13.8193 24.0041 13.4886L19.2175 9.55682C18.1889 8.71187 16.8989 8.25 15.5678 8.25H10Z" fill="#3D4653"/>
<path fill-rule="evenodd" clip-rule="evenodd" d="M38.7907 33.762L36.482 31.5034L36.5091 31.4765C38.0492 29.782 39.1998 27.7771 39.8817 25.6H42.545V23.8H36.1817V22H34.3634V23.8H28V25.6H38.1554C37.5271 27.3783 36.5473 29.0149 35.2733 30.4144C34.4435 29.5044 33.7374 28.4911 33.1728 27.4H31.3545C32.0184 28.8669 32.9268 30.2531 34.0631 31.5034L29.435 36.0206L30.7267 37.2993L35.2718 32.7985L38.0996 35.5978L38.7907 33.762ZM43.9092 29.2H42.0908L38 40H39.8183L40.8354 37.2993H45.1541L46.1802 39.9985H48L43.9092 29.1985M41.5265 35.4993L42.9992 31.602L44.472 35.4993H41.5265Z" fill="#5B6071"/>
</svg>
