<svg width="48" height="48" viewBox="0 0 48 48" fill="none" xmlns="http://www.w3.org/2000/svg">
<path fill-rule="evenodd" clip-rule="evenodd" d="M10 8.25C6.82436 8.25 4.25 10.8244 4.25 14V34C4.25 37.1756 6.82436 39.75 10 39.75H24V36.25H10C8.75736 36.25 7.75 35.2426 7.75 34V14C7.75 12.7574 8.75736 11.75 10 11.75H15.5678C16.0887 11.75 16.5934 11.9307 16.9959 12.2614L21.7825 16.1932C22.8111 17.0381 24.1011 17.5 25.4322 17.5H38C39.2426 17.5 40.25 18.5074 40.25 19.75V20H43.75V19.75C43.75 16.5744 41.1756 14 38 14H25.4322C24.9113 14 24.4066 13.8193 24.0041 13.4886L19.2175 9.55682C18.1889 8.71187 16.8989 8.25 15.5678 8.25H10Z" fill="#3D4653"/>
<path fill-rule="evenodd" clip-rule="evenodd" d="M30.4159 36.5036C29.79 36.5036 29.2209 35.9209 29.2209 35.2086C29.2209 34.4964 29.7331 33.9137 30.4159 33.9137C31.0988 33.9137 31.611 34.4964 31.611 35.2086C31.611 35.9209 31.0419 36.5036 30.4159 36.5036ZM45.0978 29.446C44.984 28.4101 44.4149 27.5683 43.6751 26.9209L43.3906 26.6619L43.163 26.9856C42.7077 27.5683 42.537 28.6043 42.5939 29.3813C42.6508 29.964 42.8215 30.5468 43.1061 31C42.8784 31.1295 42.5939 31.259 42.3663 31.3885C41.8541 31.5827 41.342 31.6475 40.8298 31.6475H26.0911L26.0341 32.036C25.9203 33.2662 26.0911 34.5612 26.5463 35.7266L26.7739 36.1799V36.2446C28.1397 38.8345 30.5867 40 33.2613 40C38.3828 40 42.5939 37.4748 44.5856 32.036C45.8945 32.1007 47.2033 31.7122 47.8293 30.2878L48 29.964L47.7155 29.7698C46.9757 29.2518 45.9514 29.1871 45.0978 29.446ZM37.7569 28.4101H35.5375V30.9353H37.7569V28.4101ZM37.7569 25.2374H35.5375V27.7626H37.7569V25.2374ZM37.7569 22H35.5375V24.5252H37.7569V22ZM40.4884 28.4101H38.269V30.9353H40.4884V28.4101ZM32.2369 28.4101H30.0176V30.9353H32.2369V28.4101ZM35.0253 28.4101H32.806V30.9353H35.0253V28.4101ZM29.5054 28.4101H27.2861V30.9353H29.5054V28.4101ZM35.0253 25.2374H32.806V27.7626H35.0253V25.2374ZM32.2369 25.2374H30.0176V27.7626H32.2369V25.2374Z" fill="#5B6071"/>
</svg>
