<svg width="48" height="48" viewBox="0 0 48 48" fill="none" xmlns="http://www.w3.org/2000/svg">
<path fill-rule="evenodd" clip-rule="evenodd" d="M10 8.25003C6.82436 8.25003 4.25 10.8244 4.25 14V34C4.25 37.1757 6.82436 39.75 10 39.75H24V36.25H10C8.75736 36.25 7.75 35.2427 7.75 34V14C7.75 12.7574 8.75736 11.75 10 11.75H15.5678C16.0887 11.75 16.5934 11.9308 16.9959 12.2614L21.7825 16.1932C22.8111 17.0382 24.1011 17.5 25.4322 17.5H38C38.9797 17.5 39.8131 18.1261 40.122 19H43.7015C43.334 16.1788 40.9214 14 38 14H25.4322C24.9113 14 24.4066 13.8193 24.0041 13.4887L19.2175 9.55685C18.1889 8.7119 16.8989 8.25003 15.5678 8.25003H10Z" fill="#3D4653"/>
<path fill-rule="evenodd" clip-rule="evenodd" d="M44.8885 24.1115V38.8903H30.1097V24.1115H44.8885ZM46.0487 22H28.9496C28.8247 21.9995 28.701 22.0238 28.5856 22.0713C28.4702 22.1189 28.3653 22.1888 28.2771 22.2771C28.1888 22.3653 28.1189 22.4702 28.0713 22.5856C28.0238 22.701 27.9995 22.8247 28 22.9496V40.0487C28 40.4717 28.4212 41 28.9496 41H46.0487C46.4717 41 47 40.4717 47 40.0504V22.9513C47 22.4212 46.4699 22 46.0487 22ZM36.4425 26.2212H42.777V28.3327H36.4425V26.2212ZM36.4425 30.4442H42.777V32.5558H36.4425V30.4442ZM36.4425 34.6673H42.777V36.7788H36.4425V34.6673ZM32.2212 26.2212H34.3327V28.3327H32.2212V26.2212ZM32.2212 30.4442H34.3327V32.5558H32.2212V30.4442ZM32.2212 34.6673H34.3327V36.7788H32.2212V34.6673Z" fill="#5B6071"/>
</svg>
