<svg width="48" height="48" viewBox="0 0 48 48" fill="none" xmlns="http://www.w3.org/2000/svg">
<path fill-rule="evenodd" clip-rule="evenodd" d="M10 8.25C6.82436 8.25 4.25 10.8244 4.25 14V34C4.25 37.1756 6.82436 39.75 10 39.75H24V36.25H10C8.75736 36.25 7.75 35.2426 7.75 34V14C7.75 12.7574 8.75736 11.75 10 11.75H15.5678C16.0887 11.75 16.5934 11.9307 16.9959 12.2614L21.7825 16.1932C22.8111 17.0381 24.1011 17.5 25.4322 17.5H38C39.2426 17.5 40.25 18.5074 40.25 19.75V20H43.75V19.75C43.75 16.5744 41.1756 14 38 14H25.4322C24.9113 14 24.4066 13.8193 24.0041 13.4886L19.2175 9.55682C18.1889 8.71187 16.8989 8.25 15.5678 8.25H10Z" fill="#3D4653"/>
<path d="M36.4219 37.554C36.4219 38.7332 35.9782 39.864 35.1885 40.6978C34.3988 41.5316 33.3277 42 32.2109 42C31.0941 42 30.0231 41.5316 29.2334 40.6978C28.4437 39.864 28 38.7332 28 37.554C28 36.3749 28.4437 35.2441 29.2334 34.4103C30.0231 33.5765 31.0941 33.1081 32.2109 33.1081C33.3277 33.1081 34.3988 33.5765 35.1885 34.4103C35.9782 35.2441 36.4219 36.3749 36.4219 37.554ZM41.6487 27.0309C41.7533 26.2002 41.6333 25.3553 41.3027 24.5935C40.9721 23.8316 40.4443 23.184 39.7801 22.7253C39.1159 22.2665 38.3425 22.0153 37.5489 22.0007C36.7554 21.986 35.974 22.2085 35.2951 22.6424C34.6161 23.0764 34.0671 23.7041 33.7115 24.4533C33.3559 25.2024 33.208 26.0424 33.2851 26.8764C33.3621 27.7104 33.6608 28.5045 34.1468 29.167C34.6328 29.8295 35.2863 30.3334 36.0319 30.6207C39.2603 31.9599 40.0203 33.3131 39.6169 36.9645C39.5117 37.7952 39.6311 38.6404 39.9613 39.4026C40.2914 40.1647 40.8189 40.8128 41.483 41.2721C42.147 41.7313 42.9204 41.983 43.7141 41.9981C44.5078 42.0132 45.2893 41.791 45.9685 41.3573C46.6478 40.9236 47.1971 40.296 47.553 39.5469C47.9089 38.7978 48.0571 37.9577 47.9802 37.1235C47.9034 36.2894 47.6048 35.4951 47.1189 34.8325C46.6329 34.1698 45.9794 33.6656 45.2337 33.3782C42.0053 32.0373 41.2436 30.6823 41.6503 27.0309H41.6487Z" fill="#5B6071"/>
</svg>
