<svg width="48" height="48" viewBox="0 0 48 48" fill="none" xmlns="http://www.w3.org/2000/svg">
<path fill-rule="evenodd" clip-rule="evenodd" d="M10 8.25003C6.82439 8.25003 4.25003 10.8244 4.25003 14V34C4.25003 37.1757 6.82439 39.75 10 39.75H26V36.25H10C8.75739 36.25 7.75003 35.2427 7.75003 34V14C7.75003 12.7574 8.75739 11.75 10 11.75H15.5678C16.0887 11.75 16.5935 11.9308 16.996 12.2614L21.7825 16.1932C22.8111 17.0382 24.1011 17.5 25.4323 17.5H38C39.2427 17.5 40.25 18.5074 40.25 19.75V20H43.75V19.75C43.75 16.5744 41.1757 14 38 14H25.4323C24.9114 14 24.4066 13.8193 24.0041 13.4887L19.2175 9.55685C18.1889 8.7119 16.899 8.25003 15.5678 8.25003H10Z" fill="#3D4653"/>
<path d="M29.235 34.0175C28.2612 28.84 30.85 23.8287 36.74 23.1637C36.4318 22.8377 36.0449 22.5964 35.6164 22.4633C35.1879 22.3302 34.7324 22.3097 34.2937 22.4037C33.3912 22.6887 33.415 23.2825 32.3937 24.0425C31.3962 24.6125 30.8737 24.1612 30.1375 24.7787C29.4012 25.3725 29.9 26.75 29.5912 27.0112C29.2825 27.5575 28.3325 28.0325 28.1425 28.6975C28 29.5525 28.5225 30.17 28.5225 30.93C28.5937 31.5475 27.905 31.9037 28 32.4025C28.285 33.21 28.855 33.7087 29.1162 33.9462C29.1875 33.97 29.2587 34.065 29.235 34.0175Z" fill="#5B6071"/>
<path d="M39.7562 26.845C39.6554 26.845 39.5588 26.8049 39.4875 26.7337C39.4163 26.6624 39.3762 26.5658 39.3762 26.465C39.3762 26.2512 39.5425 26.085 39.7562 26.085C39.97 26.085 40.1362 26.2512 40.1362 26.465C40.1362 26.6787 39.97 26.845 39.7562 26.845ZM29.4725 34.5875C28.5225 30.075 31.42 26.3225 37.025 28.175C40.3262 30.0987 44.4587 29.98 44.6487 28.7212C45.1237 27.225 42.5587 24.1612 38.735 23.3537C31.135 21.8812 27.05 30.075 29.4725 34.5875Z" fill="url(#paint0_radial_3475_11567)"/>
<path d="M41.9175 35.0862C42.4848 35.1552 43.0602 35.1064 43.6077 34.9429C44.1553 34.7795 44.6633 34.5049 45.1 34.1362C43.683 35.7215 41.7096 36.6997 39.59 36.8675C40.6112 37.7462 41.6087 38.1262 42.5587 37.96C39.9225 38.6962 37.7137 37.8887 35.0537 35.2287C34.9112 35.9412 35.6712 37.0575 36.455 37.77C31.895 35.7987 31.4912 29.6712 37.025 28.1512C31.3012 25.3962 28.0475 30.7637 29.6387 35.1575C30.5885 37.0076 32.0854 38.52 33.9255 39.4889C35.7656 40.4579 37.8596 40.8362 39.9225 40.5725C41.4479 40.371 42.8908 39.7617 44.0988 38.8086C45.3068 37.8556 46.2353 36.5942 46.7862 35.1575C45.8011 35.9857 44.6261 36.5568 43.3662 36.82C45.9312 35.5375 47.3087 33.3525 46.9287 30.3837C46.4949 31.5207 45.7652 32.521 44.815 33.2812C46.6912 30.3837 46.3587 28.8637 44.9812 27.225C45.9787 29.9325 44.6962 32.925 41.9175 35.0862Z" fill="url(#paint1_radial_3475_11567)"/>
<path d="M40.5875 38.1975C40.3975 38.15 41.0387 38.4587 39.8037 38.1262C38.5687 37.7937 37.31 37.485 35.03 35.205C34.8875 35.9175 35.6475 37.0337 36.4312 37.7462C38.545 39.2187 37.0962 38.53 40.3262 39.6462C40.5875 39.1475 40.5875 38.6962 40.5875 38.1975Z" fill="url(#paint2_linear_3475_11567)"/>
<path d="M36.5025 26.6312C36.5025 26.6312 36.7875 26.2275 36.8825 26.0375C37.025 25.8 37.215 25.3962 37.215 25.3962C37.215 25.3962 35.0537 24.6837 34.5312 24.6125C32.8925 25.04 32.8925 25.7287 33.795 26.7737C33.9137 26.8925 36.5025 26.6312 36.5025 26.6312Z" fill="url(#paint3_linear_3475_11567)"/>
<defs>
<radialGradient id="paint0_radial_3475_11567" cx="0" cy="0" r="1" gradientUnits="userSpaceOnUse" gradientTransform="translate(42.9436 29.2579) scale(17.0924 16.4514)">
<stop stop-color="#5B6071"/>
<stop offset="1" stop-color="#5B6071"/>
</radialGradient>
<radialGradient id="paint1_radial_3475_11567" cx="0" cy="0" r="1" gradientUnits="userSpaceOnUse" gradientTransform="translate(41.0535 23.1552) scale(15.5221 14.9595)">
<stop stop-color="#5B6071"/>
<stop offset="0.2899" stop-color="#5B6071"/>
<stop offset="0.29" stop-color="#5B6071"/>
<stop offset="1" stop-color="#5B6071" stop-opacity="0.537255"/>
</radialGradient>
<linearGradient id="paint2_linear_3475_11567" x1="31.2058" y1="22.6394" x2="42.6547" y2="38.4242" gradientUnits="userSpaceOnUse">
<stop stop-color="#5B6071"/>
<stop offset="0.67" stop-color="#5B6071"/>
<stop offset="0.705295" stop-color="#5B6071" stop-opacity="0.823524"/>
<stop offset="0.83" stop-color="#5B6071" stop-opacity="0.2"/>
<stop offset="1" stop-color="#5B6071" stop-opacity="0"/>
</linearGradient>
<linearGradient id="paint3_linear_3475_11567" x1="35.7543" y1="26.2156" x2="35.3862" y2="25.515" gradientUnits="userSpaceOnUse">
<stop stop-color="#5B6071" stop-opacity="0.15"/>
<stop offset="0.4" stop-color="#5B6071" stop-opacity="0.4"/>
<stop offset="0.65" stop-color="#5B6071" stop-opacity="0.89"/>
<stop offset="0.9999" stop-color="#5B6071" stop-opacity="0.995771"/>
<stop offset="1" stop-color="#5B6071"/>
</linearGradient>
</defs>
</svg>
