<svg width="48" height="48" viewBox="0 0 48 48" fill="none" xmlns="http://www.w3.org/2000/svg">
<path fill-rule="evenodd" clip-rule="evenodd" d="M10 8.25C6.82436 8.25 4.25 10.8244 4.25 14V34C4.25 37.1756 6.82436 39.75 10 39.75H24V36.25H10C8.75736 36.25 7.75 35.2426 7.75 34V14C7.75 12.7574 8.75736 11.75 10 11.75H15.5678C16.0887 11.75 16.5934 11.9307 16.9959 12.2614L21.7825 16.1932C22.8111 17.0381 24.1011 17.5 25.4322 17.5H38C39.1236 17.5 40.0548 18.3236 40.2229 19.4H43.7395C43.5586 16.3873 41.0581 14 38 14H25.4322C24.9113 14 24.4066 13.8193 24.0041 13.4886L19.2175 9.55682C18.1889 8.71187 16.8989 8.25 15.5678 8.25H10Z" fill="#3D4653"/>
<path fill-rule="evenodd" clip-rule="evenodd" d="M37.501 34.8247C36.5943 34.8247 35.7248 34.4743 35.0837 33.8507C34.4425 33.2271 34.0824 32.3812 34.0824 31.4993C34.0828 30.6176 34.4431 29.7721 35.0842 29.1488C35.7253 28.5255 36.5946 28.1753 37.501 28.1753C38.4074 28.1753 39.2768 28.5255 39.9178 29.1488C40.5589 29.7721 40.9193 30.6176 40.9197 31.4993C40.9197 32.3812 40.5595 33.2271 39.9184 33.8507C39.2772 34.4743 38.4077 34.8247 37.501 34.8247ZM44.7575 32.4214C44.796 32.1174 44.8256 31.8134 44.8256 31.4993C44.8256 31.1866 44.796 30.8725 44.7575 30.5498L46.8179 29.0009C46.9082 28.9295 46.9697 28.8292 46.9914 28.718C47.0131 28.6067 46.9936 28.4915 46.9364 28.3929L44.9812 25.1078C44.8641 24.8975 44.6005 24.8125 44.3857 24.8975L41.955 25.8484C41.4503 25.4665 40.8948 25.153 40.3035 24.9162L39.9421 22.3991C39.9224 22.287 39.8625 22.1854 39.773 22.1123C39.6834 22.0392 39.5701 21.9994 39.4533 22H35.5473C35.4304 21.9994 35.3171 22.0392 35.2276 22.1123C35.1381 22.1854 35.0781 22.287 35.0585 22.3991L34.6986 24.9162C34.1079 25.1526 33.5528 25.4657 33.0485 25.847L30.6163 24.8975C30.5079 24.8561 30.3877 24.8545 30.2782 24.8929C30.1686 24.9313 30.0772 25.0072 30.0209 25.1064L28.0672 28.3929C28.0075 28.4909 27.9866 28.6067 28.0084 28.7187C28.0302 28.8306 28.0932 28.9309 28.1856 29.0009L30.2445 30.5498C30.206 30.8725 30.1764 31.1866 30.1764 31.5007C30.1764 31.8148 30.206 32.1174 30.2445 32.4214L28.1856 33.9976C28.0932 34.0676 28.0302 34.168 28.0084 34.2799C27.9866 34.3918 28.0075 34.5076 28.0672 34.6057L30.0209 37.8936C30.079 37.991 30.1705 38.0654 30.2794 38.1036C30.3884 38.1419 30.5077 38.1415 30.6163 38.1025L33.0485 37.1429C33.5551 37.5233 34.0824 37.8461 34.6986 38.0838L35.06 40.6009C35.0796 40.713 35.1396 40.8146 35.2291 40.8877C35.3186 40.9608 35.4319 41.0006 35.5488 41H39.4547C39.5716 41.0006 39.6849 40.9608 39.7744 40.8877C39.864 40.8146 39.9239 40.713 39.9435 40.6009L40.3035 38.0838C40.8951 37.844 41.4506 37.5275 41.955 37.1429L44.3857 38.1025C44.6005 38.1774 44.8641 38.1025 44.9826 37.8936L46.9349 34.6057C46.9923 34.5072 47.012 34.3921 46.9906 34.2809C46.9691 34.1696 46.908 34.0693 46.8179 33.9976L44.7575 32.4214Z" fill="#5B6071"/>
</svg>
