<svg width="48" height="48" viewBox="0 0 48 48" fill="none" xmlns="http://www.w3.org/2000/svg">
<path fill-rule="evenodd" clip-rule="evenodd" d="M10 8.25C6.82436 8.25 4.25 10.8244 4.25 14V34C4.25 37.1756 6.82436 39.75 10 39.75H23V36.25H10C8.75736 36.25 7.75 35.2426 7.75 34V14C7.75 12.7574 8.75736 11.75 10 11.75H15.5678C16.0887 11.75 16.5934 11.9307 16.9959 12.2614L21.7825 16.1932C22.8111 17.0381 24.1011 17.5 25.4322 17.5H38C39.2426 17.5 40.25 18.5074 40.25 19.75V20H43.75V19.75C43.75 16.5744 41.1756 14 38 14H25.4322C24.9113 14 24.4066 13.8193 24.0041 13.4886L19.2175 9.55682C18.1889 8.71187 16.8989 8.25 15.5678 8.25H10Z" fill="#3D4653"/>
<path fill-rule="evenodd" clip-rule="evenodd" d="M30.4832 39.3676C30.319 39.3493 30.1548 39.2715 29.9906 39.1937C29.9173 39.159 29.8548 39.1208 29.803 39.0793C29.5894 38.9082 29.5581 38.6796 29.7091 38.3933C29.7091 38.3488 29.7326 38.3043 29.756 38.2599C29.7795 38.2154 29.803 38.1709 29.803 38.1265C29.4276 38.1265 29.2399 37.9486 29.1461 37.6818C28.6769 36.5257 28.7707 35.6363 29.7091 34.747C29.7343 34.6993 29.7594 34.658 29.7827 34.6197C29.8465 34.5151 29.8968 34.4325 29.8968 34.3023C29.8968 33.1462 30.0845 32.079 30.929 31.1007C31.2105 30.7449 31.5859 30.3892 32.0551 30.1224C32.2428 30.0335 32.2428 29.9445 32.1489 29.7667C31.7736 29.322 31.5859 28.8773 31.4921 28.3437C31.417 27.988 31.5821 27.6323 31.7473 27.2765C31.7886 27.1876 31.8299 27.0986 31.8674 27.0097C31.9613 26.9208 32.0551 26.8318 32.1489 26.8318C32.4243 26.7666 32.6492 26.6056 32.8607 26.4542C32.9374 26.3993 33.0124 26.3456 33.0873 26.2982C33.7442 25.6757 34.4949 25.4089 35.4333 25.4089C35.6154 25.4089 35.7091 25.3252 35.7146 25.239C35.7147 25.2363 35.7148 25.2337 35.7148 25.231C35.7238 25.1972 35.7335 25.1633 35.7442 25.1294C35.7941 24.9704 35.8627 24.8115 35.9501 24.6526C36.0182 24.5287 36.0977 24.4048 36.1885 24.281C36.2172 24.2419 36.2469 24.2029 36.2779 24.1638L36.5594 23.897C36.7031 23.7608 36.9018 23.7289 37.0292 23.8412C37.0314 23.8432 37.0337 23.8453 37.0359 23.8473C37.0718 23.8812 37.1017 23.9271 37.1224 23.986C37.3148 24.2898 37.4633 24.5937 37.598 24.8692C37.6017 24.8768 37.6054 24.8844 37.6091 24.8919C37.6675 25.0113 37.7234 25.1251 37.7793 25.231C37.7801 25.2327 37.781 25.2343 37.7818 25.2359C37.783 25.238 37.7841 25.2401 37.7853 25.2422C37.8771 25.4089 37.969 25.407 38.0608 25.32C38.394 25.1846 38.5582 25.118 38.6635 25.1663C38.766 25.2133 38.8129 25.3689 38.9053 25.6757C38.9522 25.8621 38.9915 26.0476 39.0233 26.2321C39.056 26.4224 39.0807 26.6117 39.0973 26.8C39.2258 28.2605 38.8649 29.6644 37.967 31.0118C37.92 31.1007 37.8497 31.1896 37.7793 31.2786C37.7089 31.3675 37.6385 31.4564 37.5916 31.5454C37.4978 31.7232 37.4978 31.8122 37.6854 31.99C38.53 32.7015 39.093 33.6798 39.2807 34.747C39.302 34.8882 39.3184 35.034 39.3301 35.1822C39.3318 35.2037 39.3333 35.2253 39.3348 35.2469C39.3567 35.5659 39.3565 35.895 39.3341 36.2137C39.332 36.2434 39.3298 36.273 39.3273 36.3024C39.3159 36.4389 39.3004 36.5732 39.2807 36.7035C39.2574 36.7921 39.2456 36.8585 39.2455 36.9071C39.2452 37.0538 39.3507 37.0371 39.5622 36.9703C39.6873 36.9365 39.8125 36.8994 39.9369 36.859C39.9843 36.8437 40.0316 36.8279 40.0787 36.8116C40.3004 36.735 40.5193 36.6481 40.7316 36.5508C40.7465 36.544 40.7613 36.5371 40.7761 36.5302C40.8613 36.4904 40.9454 36.4489 41.0281 36.4058C41.0867 36.3752 41.1447 36.3438 41.2018 36.3115C41.2825 36.266 41.3616 36.2188 41.439 36.1699C41.5195 36.1263 41.5986 36.0827 41.6768 36.0396C42.0764 35.8194 42.4526 35.612 42.8747 35.4829C43.0441 35.4311 43.2209 35.3919 43.4096 35.3695C43.5072 35.3695 43.5935 35.3588 43.6764 35.3486C43.699 35.3458 43.7213 35.343 43.7435 35.3405C43.7982 35.3343 43.8522 35.3297 43.908 35.33C43.9865 35.3304 44.0684 35.3405 44.1603 35.3695C44.4419 35.4585 44.6295 35.7253 44.6295 35.9921C44.6295 36.2589 44.4419 36.4367 44.1603 36.5257C44.01 36.5542 43.8622 36.5895 43.7167 36.6309C43.6713 36.6438 43.6262 36.6574 43.5813 36.6714C43.5237 36.6895 43.4665 36.7086 43.4096 36.7285C43.3231 36.7588 43.2374 36.7912 43.1526 36.8255C42.8311 36.9557 42.5224 37.1134 42.2266 37.2896C42.199 37.306 42.1715 37.3226 42.1441 37.3393C41.9669 37.4477 41.7945 37.5626 41.6267 37.6818C41.1524 37.9964 40.6303 38.2656 40.0965 38.4894C40.0739 38.4988 40.0513 38.5082 40.0287 38.5175C39.7831 38.6186 39.5353 38.71 39.289 38.7918C39.0332 38.8768 38.7789 38.9515 38.53 39.0158C38.4362 39.0158 38.2485 39.1048 38.1546 39.1937C37.8611 39.4023 37.5676 39.4478 37.2292 39.5003C37.1349 39.5149 37.037 39.53 36.9347 39.5494C36.8548 39.5563 36.7755 39.5632 36.6967 39.57C35.7567 39.6516 34.8842 39.7273 33.9319 39.7273C33.8655 39.7273 33.7991 39.7273 33.7315 39.7261C33.7055 39.7462 33.68 39.7639 33.6557 39.7793L33.6503 39.7717C33.6597 39.7561 33.669 39.7406 33.678 39.725C33.6575 39.7244 33.6368 39.7237 33.6159 39.7228C33.4301 39.7152 33.2305 39.6945 32.9935 39.6384C32.9193 39.6149 32.8452 39.5853 32.7744 39.5496C32.7198 39.5219 32.6671 39.4906 32.6181 39.4555C32.5468 39.4046 32.4833 39.3458 32.4323 39.2792C32.3915 39.226 32.3588 39.1679 32.3366 39.1048C32.2696 38.8507 32.2983 38.6419 32.4228 38.4786C32.4299 38.4692 32.4374 38.4599 32.4452 38.4508C32.4916 38.3967 32.5493 38.3479 32.6181 38.3043C32.7165 38.3043 32.789 38.2799 32.8493 38.2567C32.8565 38.2539 32.8634 38.2512 32.8702 38.2486C32.9157 38.2307 32.9546 38.2154 32.9935 38.2154C32.8561 38.1503 32.769 38.0852 32.6954 37.9852C32.6684 37.9486 32.6433 37.9073 32.6181 37.8597C32.5243 37.7707 32.5243 37.7707 32.4304 37.8597C32.4111 37.8964 32.3957 37.933 32.3827 37.9697C32.3825 37.9703 32.3823 37.9709 32.3821 37.9715C32.3639 38.0232 32.3502 38.0748 32.3366 38.1265C32.3131 38.2154 32.2897 38.3043 32.2428 38.3933C32.1086 38.8171 31.9318 39.0996 31.6819 39.2599C31.6491 39.281 31.6149 39.2999 31.5795 39.3168C31.5483 39.3317 31.516 39.345 31.4827 39.3567C31.3407 39.4065 31.179 39.4278 30.994 39.4229C30.8599 39.4193 30.7136 39.4019 30.5537 39.3716C30.5302 39.3716 30.5067 39.3702 30.4832 39.3676ZM30.3134 41.1323C29.7538 41.0777 29.2993 40.8514 29.1775 40.7908C29.1674 40.7857 29.1595 40.7818 29.1541 40.7792C28.7086 40.5681 28.1234 40.1575 27.8643 39.4208C27.8079 39.2607 27.7737 39.1041 27.7569 38.9528C27.5791 38.7249 27.4636 38.4909 27.388 38.2876C27.093 37.5511 26.9012 36.7168 27.0536 35.8295C27.1839 35.071 27.5398 34.4199 28.0351 33.8572C28.0857 32.6302 28.3761 31.274 29.4566 30.007C29.5846 29.8474 29.728 29.6853 29.8875 29.5255C29.7811 29.2436 29.7046 28.955 29.6511 28.6582C29.5209 27.9977 29.6822 27.4335 29.8087 27.0911C29.8748 26.9122 29.9491 26.7489 30.0028 26.6327C30.0174 26.601 30.0304 26.573 30.0422 26.5476C30.0806 26.4647 30.106 26.41 30.1307 26.3514C30.2248 26.1285 30.3657 25.926 30.5448 25.7562C30.5464 25.7547 30.5486 25.7526 30.5514 25.7499C30.5879 25.7149 30.7242 25.5842 30.8859 25.4693C30.993 25.3931 31.2431 25.2252 31.6057 25.1295C31.6392 25.107 31.6782 25.0791 31.7476 25.0295L31.7513 25.0268C31.788 25.0005 31.8368 24.9656 31.8928 24.9271C32.6229 24.2774 33.4482 23.8939 34.3498 23.7302C34.4777 23.5105 34.623 23.3005 34.7815 23.1002C34.8346 23.0331 34.8926 22.9696 34.9552 22.9103L35.2368 22.6435C35.6343 22.2668 36.2875 21.9292 37.0826 22.0129C37.8972 22.0987 38.4962 22.5872 38.795 23.1851C38.838 23.2564 38.8805 23.3298 38.922 23.4038C39.0798 23.4283 39.2473 23.4722 39.4187 23.5444C40.1605 23.8569 40.437 24.4648 40.5132 24.6382C40.5944 24.8228 40.6585 25.0371 40.6944 25.1573C40.6978 25.1686 40.701 25.1791 40.7038 25.1887C40.7115 25.214 40.7185 25.2395 40.7249 25.2651C41.2715 27.4406 40.9905 29.5692 39.8021 31.5569C40.4526 32.3621 40.8968 33.3062 41.0979 34.3077C41.6244 34.0299 42.3379 33.71 43.1776 33.6105C43.2457 33.6025 43.3141 33.598 43.3827 33.597C43.3834 33.5969 43.3842 33.5968 43.385 33.5968C43.3975 33.5953 43.4075 33.5941 43.4261 33.5918C43.4342 33.5908 43.4439 33.5896 43.4562 33.5881C43.4892 33.584 43.541 33.5778 43.5989 33.5723C43.8684 33.5467 44.2737 33.5368 44.7518 33.6878C45.837 34.0306 46.5 35.0028 46.5 35.9921C46.5 37.2783 45.5045 37.9696 44.7518 38.2074C44.6783 38.2306 44.6032 38.2495 44.5272 38.2639C43.9606 38.3713 43.373 38.6564 42.749 39.1C42.7326 39.1116 42.7161 39.123 42.6993 39.1341C41.5902 39.8698 40.3141 40.378 39.1625 40.689C38.4368 41.1529 37.5639 41.2562 37.3478 41.2817C37.3242 41.2845 37.3085 41.2864 37.3016 41.2877C37.2363 41.3001 37.1704 41.3091 37.1041 41.3148C37.0216 41.322 36.9389 41.3291 36.856 41.3363C35.9286 41.417 34.9738 41.5 33.9319 41.5L33.9101 41.5C33.6105 41.5001 33.1396 41.5002 32.5398 41.3581C32.4934 41.3471 32.4474 41.3344 32.402 41.3201C32.2526 41.2729 32.0662 41.2017 31.8677 41.0989C31.306 41.2396 30.7588 41.2063 30.3134 41.1323ZM33.5939 39.8832C33.596 39.8824 33.5956 39.8826 33.5931 39.8835L33.5939 39.8832ZM39.4423 24.419C39.4459 24.426 39.4492 24.4324 39.4523 24.4383L39.4522 24.4381C39.4518 24.4372 39.4485 24.4305 39.4423 24.419ZM31.5549 25.1617C31.5549 25.1617 31.5558 25.1612 31.5575 25.1603C31.5557 25.1613 31.5549 25.1617 31.5549 25.1617ZM31.207 28.5424C31.2109 28.5405 31.2147 28.5387 31.2186 28.5369L31.2174 28.5374C31.2149 28.5386 31.2115 28.5402 31.207 28.5424Z" fill="#5B6071"/>
</svg>
