<svg width="48" height="48" viewBox="0 0 48 48" fill="none" xmlns="http://www.w3.org/2000/svg">
<path fill-rule="evenodd" clip-rule="evenodd" d="M10 8.25C6.82439 8.25 4.25003 10.8244 4.25003 14V34C4.25003 37.1756 6.82439 39.75 10 39.75H24V36.25H10C8.75739 36.25 7.75003 35.2426 7.75003 34V14C7.75003 12.7574 8.75739 11.75 10 11.75H15.5678C16.0887 11.75 16.5935 11.9307 16.996 12.2614L21.7825 16.1932C22.8111 17.0381 24.1011 17.5 25.4323 17.5H38C38.9797 17.5 39.8131 18.1261 40.122 19H43.7016C43.334 16.1787 40.9215 14 38 14H25.4323C24.9114 14 24.4066 13.8193 24.0041 13.4886L19.2175 9.55682C18.1889 8.71187 16.899 8.25 15.5678 8.25H10Z" fill="#3D4653"/>
<path fill-rule="evenodd" clip-rule="evenodd" d="M43.7529 22.0001C43.5188 21.9971 43.2865 22.042 43.0695 22.1322C42.8525 22.2225 42.6553 22.3562 42.4893 22.5257L37.3557 27.8032L42.348 32.9268L47.4903 27.6581C47.817 27.3154 48 26.8549 48 26.3754C48 25.8959 47.817 25.4354 47.4903 25.0926L44.9804 22.5257C44.8198 22.3591 44.6286 22.2269 44.4179 22.1367C44.2072 22.0465 43.9812 22.0001 43.7529 22.0001ZM36.5075 28.6648L31.2426 34.0681C31.0775 34.2387 30.947 34.4411 30.8584 34.6636C30.7699 34.8862 30.7251 35.1246 30.7268 35.3649C30.7284 35.6053 30.7763 35.843 30.8678 36.0643C30.9593 36.2856 31.0926 36.4861 31.2599 36.6544C30.181 37.7691 29.0862 38.8853 28 40H32.9995L33.7597 39.2198C34.0935 39.5507 34.5404 39.7341 35.0044 39.7308C35.4685 39.7274 35.9128 39.5376 36.2421 39.2021L41.4998 33.7987" fill="#5B6071"/>
</svg>
