<svg width="48" height="48" viewBox="0 0 48 48" fill="none" xmlns="http://www.w3.org/2000/svg">
<path fill-rule="evenodd" clip-rule="evenodd" d="M10 8.25C6.82436 8.25 4.25 10.8244 4.25 14V34C4.25 37.1756 6.82436 39.75 10 39.75H25V36.25H10C8.75736 36.25 7.75 35.2426 7.75 34V14C7.75 12.7574 8.75736 11.75 10 11.75H15.5678C16.0887 11.75 16.5934 11.9307 16.9959 12.2614L21.7825 16.1932C22.8111 17.0381 24.1011 17.5 25.4322 17.5H38C39.2426 17.5 40.25 18.5074 40.25 19.75V20H43.75V19.75C43.75 16.5744 41.1756 14 38 14H25.4322C24.9113 14 24.4066 13.8193 24.0041 13.4886L19.2175 9.55682C18.1889 8.71187 16.8989 8.25 15.5678 8.25H10Z" fill="#3D4653"/>
<path fill-rule="evenodd" clip-rule="evenodd" d="M42.2504 32.4501H32.7496V30.5499H42.2504M37.5008 22C34.9813 22 32.565 23.0008 30.7833 24.7822C29.0016 26.5636 28.0004 28.9797 28 31.4992C28 34.019 29.001 36.4355 30.7827 38.2173C32.5645 39.999 34.981 41 37.5008 41C40.0203 40.9996 42.4364 39.9984 44.2178 38.2167C45.9992 36.435 47 34.0187 47 31.4992C46.9996 28.98 45.9986 26.5641 44.2173 24.7827C42.4359 23.0014 40.02 22.0004 37.5008 22Z" fill="#5B6071" fill-opacity="0.94902"/>
</svg>
