<svg width="48" height="48" viewBox="0 0 48 48" fill="none" xmlns="http://www.w3.org/2000/svg">
<g clip-path="url(#clip0_3475_12493)">
<path fill-rule="evenodd" clip-rule="evenodd" d="M10 8.25C6.82436 8.25 4.25 10.8244 4.25 14V34C4.25 37.1756 6.82436 39.75 10 39.75H21V36.25H10C8.75736 36.25 7.75 35.2426 7.75 34V14C7.75 12.7574 8.75736 11.75 10 11.75H15.5678C16.0887 11.75 16.5934 11.9307 16.9959 12.2614L21.7825 16.1932C22.8111 17.0381 24.1011 17.5 25.4322 17.5H38C38.9797 17.5 39.8131 18.1261 40.122 19H43.7015C43.334 16.1787 40.9214 14 38 14H25.4322C24.9113 14 24.4066 13.8193 24.0041 13.4886L19.2175 9.55682C18.1889 8.71187 16.8989 8.25 15.5678 8.25H10Z" fill="#3D4653"/>
<path fill-rule="evenodd" clip-rule="evenodd" d="M25.1157 21.7501L21.7045 21.7501H15.1817L14.1274 21.7501C12.5095 21.75 11.0508 22.7247 10.4317 24.2196L6.29032 34.2195C5.1996 36.8532 7.13532 39.75 9.98594 39.75H25.4495C25.2441 39.568 25.0945 39.2535 25.0945 38.7101L25.0944 35.225C25.0944 31.5589 25.8878 28.8068 28.074 26.6215L25.9348 24.0629C25.9193 24.0444 25.9029 24.025 25.8858 24.0046C25.4948 23.5398 24.7037 22.5993 25.1157 21.7501Z" fill="#3D4653"/>
<path fill-rule="evenodd" clip-rule="evenodd" d="M46.4809 24.3288L44.2244 26.6188C46.5304 28.5748 48 31.514 48 34.7949V36.8455C48 37.4833 47.4903 38 46.8622 38H28.344C27.8896 38 27 38 27 36.8455V34.7953C27 31.514 28.4696 28.5748 30.776 26.6188L28.5191 24.3288C28.075 23.8781 28.075 23.147 28.5191 22.6958C28.9635 22.2449 29.684 22.2449 30.1286 22.6958L32.7099 25.3151C34.1469 24.5646 35.7757 24.1404 37.5 24.1404C39.2243 24.1404 40.8531 24.5646 42.2901 25.3151L44.8714 22.6958C45.3162 22.2449 46.0365 22.2449 46.4809 22.6958C46.925 23.147 46.925 23.8781 46.4809 24.3288ZM29.2756 34.7949V35.6907H45.7244V34.7949C45.7244 30.1932 42.0349 26.4494 37.5 26.4494C32.965 26.4494 29.2756 30.1932 29.2756 34.7949ZM34.4665 32.4397C35.0008 32.4397 35.4336 32.0006 35.4336 31.4587C35.4336 30.9161 35.0008 30.477 34.4665 30.477C33.9321 30.477 33.4993 30.9161 33.4993 31.4587C33.4993 32.0006 33.9321 32.4397 34.4665 32.4397ZM41.6532 31.3011C41.6532 31.8436 41.2199 32.2828 40.6859 32.2828C40.1517 32.2828 39.7184 31.8436 39.7184 31.3011C39.7184 30.7592 40.1517 30.32 40.6859 30.32C41.2199 30.32 41.6532 30.7592 41.6532 31.3011Z" fill="#5B6071"/>
<path d="M44.2244 26.6188L44.1176 26.5136C44.0883 26.5433 44.0727 26.5839 44.0746 26.6255C44.0764 26.6672 44.0956 26.7062 44.1274 26.7332L44.2244 26.6188ZM46.4809 24.3288L46.374 24.2235L46.374 24.2235L46.4809 24.3288ZM30.776 26.6188L30.873 26.7332C30.9049 26.7062 30.924 26.6672 30.9259 26.6255C30.9277 26.5838 30.9121 26.5433 30.8828 26.5135L30.776 26.6188ZM28.5191 24.3288L28.4123 24.434H28.4123L28.5191 24.3288ZM28.5191 22.6958L28.4123 22.5906L28.4123 22.5906L28.5191 22.6958ZM30.1286 22.6958L30.2354 22.5906L30.2354 22.5905L30.1286 22.6958ZM32.7099 25.3151L32.6031 25.4204C32.6493 25.4674 32.7209 25.4786 32.7793 25.4481L32.7099 25.3151ZM42.2901 25.3151L42.2207 25.4481C42.2791 25.4786 42.3506 25.4674 42.3969 25.4204L42.2901 25.3151ZM44.8714 22.6958L44.7646 22.5905L44.7646 22.5906L44.8714 22.6958ZM46.4809 22.6958L46.5877 22.5906L46.5877 22.5906L46.4809 22.6958ZM29.2756 35.6907H29.1256C29.1256 35.7736 29.1927 35.8407 29.2756 35.8407V35.6907ZM45.7244 35.6907V35.8407C45.8073 35.8407 45.8744 35.7736 45.8744 35.6907H45.7244ZM44.3313 26.7241L46.5877 24.434L46.374 24.2235L44.1176 26.5136L44.3313 26.7241ZM48.15 34.7949C48.15 31.4683 46.6598 28.4879 44.3214 26.5044L44.1274 26.7332C46.401 28.6617 47.85 31.5596 47.85 34.7949H48.15ZM48.15 36.8455V34.7949H47.85V36.8455H48.15ZM46.8622 38.15C47.5752 38.15 48.15 37.5641 48.15 36.8455H47.85C47.85 37.4025 47.4055 37.85 46.8622 37.85V38.15ZM28.344 38.15H46.8622V37.85H28.344V38.15ZM26.85 36.8455C26.85 37.1531 26.9093 37.3962 27.0151 37.586C27.1215 37.777 27.27 37.9049 27.4327 37.9889C27.7494 38.1526 28.1225 38.15 28.344 38.15V37.85C28.111 37.85 27.8122 37.8474 27.5705 37.7224C27.4539 37.6622 27.3516 37.5736 27.2771 37.4399C27.2019 37.305 27.15 37.1151 27.15 36.8455H26.85ZM26.85 34.7953V36.8455H27.15V34.7953H26.85ZM30.679 26.5044C28.3402 28.4879 26.85 31.4683 26.85 34.7953H27.15C27.15 31.5596 28.599 28.6617 30.873 26.7332L30.679 26.5044ZM28.4123 24.434L30.6692 26.7241L30.8828 26.5135L28.626 24.2235L28.4123 24.434ZM28.4123 22.5906C27.9106 23.1001 27.9106 23.9249 28.4123 24.434L28.626 24.2235C28.2394 23.8312 28.2393 23.1938 28.626 22.8011L28.4123 22.5906ZM30.2354 22.5905C29.7321 22.0801 28.9154 22.08 28.4123 22.5906L28.626 22.8011C29.0116 22.4099 29.6359 22.4098 30.0218 22.8012L30.2354 22.5905ZM32.8167 25.2099L30.2354 22.5906L30.0217 22.8011L32.6031 25.4204L32.8167 25.2099ZM37.5 23.9904C35.7508 23.9904 34.0983 24.4208 32.6405 25.1822L32.7793 25.4481C34.1956 24.7085 35.8006 24.2904 37.5 24.2904V23.9904ZM42.3595 25.1822C40.9017 24.4208 39.2492 23.9904 37.5 23.9904V24.2904C39.1994 24.2904 40.8044 24.7085 42.2207 25.4481L42.3595 25.1822ZM44.7646 22.5906L42.1833 25.2099L42.3969 25.4204L44.9783 22.8011L44.7646 22.5906ZM46.5877 22.5906C46.0846 22.08 45.2681 22.0801 44.7646 22.5905L44.9782 22.8012C45.3643 22.4098 45.9884 22.4099 46.374 22.8011L46.5877 22.5906ZM46.5877 24.434C47.0894 23.9249 47.0894 23.1001 46.5877 22.5906L46.374 22.8011C46.7607 23.1938 46.7606 23.8312 46.374 24.2235L46.5877 24.434ZM29.4256 35.6907V34.7949H29.1256V35.6907H29.4256ZM45.7244 35.5407H29.2756V35.8407H45.7244V35.5407ZM45.5744 34.7949V35.6907H45.8744V34.7949H45.5744ZM37.5 26.5994C41.95 26.5994 45.5744 30.274 45.5744 34.7949H45.8744C45.8744 30.1124 42.1199 26.2994 37.5 26.2994V26.5994ZM29.4256 34.7949C29.4256 30.274 33.05 26.5994 37.5 26.5994V26.2994C32.8801 26.2994 29.1256 30.1124 29.1256 34.7949H29.4256ZM35.2836 31.4587C35.2836 31.9198 34.9159 32.2897 34.4665 32.2897V32.5897C35.0856 32.5897 35.5836 32.0814 35.5836 31.4587H35.2836ZM34.4665 30.627C34.9158 30.627 35.2836 30.9969 35.2836 31.4587H35.5836C35.5836 30.8354 35.0857 30.327 34.4665 30.327V30.627ZM33.6493 31.4587C33.6493 30.9969 34.017 30.627 34.4665 30.627V30.327C33.8472 30.327 33.3493 30.8354 33.3493 31.4587H33.6493ZM34.4665 32.2897C34.0169 32.2897 33.6493 31.9197 33.6493 31.4587H33.3493C33.3493 32.0814 33.8472 32.5897 34.4665 32.5897V32.2897ZM40.6859 32.4328C41.3048 32.4328 41.8032 31.9244 41.8032 31.3011H41.5032C41.5032 31.7628 41.1351 32.1328 40.6859 32.1328V32.4328ZM39.5684 31.3011C39.5684 31.9244 40.0668 32.4328 40.6859 32.4328V32.1328C40.2365 32.1328 39.8684 31.7628 39.8684 31.3011H39.5684ZM40.6859 30.17C40.0669 30.17 39.5684 30.6783 39.5684 31.3011H39.8684C39.8684 30.8401 40.2365 30.47 40.6859 30.47V30.17ZM41.8032 31.3011C41.8032 30.6784 41.3048 30.17 40.6859 30.17V30.47C41.1351 30.47 41.5032 30.8401 41.5032 31.3011H41.8032Z" fill="#5B6071"/>
</g>
<defs>
<clipPath id="clip0_3475_12493">
<rect width="48" height="48" fill="white"/>
</clipPath>
</defs>
</svg>
