<svg width="48" height="48" viewBox="0 0 48 48" fill="none" xmlns="http://www.w3.org/2000/svg">
<path fill-rule="evenodd" clip-rule="evenodd" d="M10 8.25C6.82436 8.25 4.25 10.8244 4.25 14V34C4.25 37.1756 6.82436 39.75 10 39.75H27V36.25H10C8.75736 36.25 7.75 35.2426 7.75 34V14C7.75 12.7574 8.75736 11.75 10 11.75H15.5678C16.0887 11.75 16.5934 11.9307 16.9959 12.2614L21.7825 16.1932C22.8111 17.0381 24.1011 17.5 25.4322 17.5H38C39.2426 17.5 40.25 18.5074 40.25 19.75V20H43.75V19.75C43.75 16.5744 41.1756 14 38 14H25.4322C24.9113 14 24.4066 13.8193 24.0041 13.4886L19.2175 9.55682C18.1889 8.71187 16.8989 8.25 15.5678 8.25H10Z" fill="#3D4653"/>
<path fill-rule="evenodd" clip-rule="evenodd" d="M34.1874 39.7499C34.0776 39.6783 33.9652 39.6084 33.85 39.5407C33.0683 39.0803 32.1173 38.7717 31.1617 38.4615C29.5276 37.9312 27.8799 37.3965 27.0417 36.0909C26.278 34.9323 26.8804 32.593 27.6807 31.5047C28.0815 30.961 28.6508 30.6468 29.2993 30.4428C28.618 29.5463 28.2 28.3341 28.2 27C28.2 24.2386 29.9908 22 32.2 22C32.9406 22 33.6343 22.2516 34.2292 22.6903C34.4971 22.3301 34.8007 22.014 35.1296 21.75L21.7048 21.7501H15.182L14.1278 21.75C12.5098 21.75 11.0511 22.7247 10.432 24.2195L6.29063 34.2194C5.19991 36.8531 7.13562 39.7499 9.98624 39.7499H34.1874ZM40.0221 22C39.9459 21.9145 39.8662 21.8329 39.7834 21.7555C40.202 21.7772 40.6001 21.8622 40.97 22H40.0221Z" fill="#3D4653"/>
<path fill-rule="evenodd" clip-rule="evenodd" d="M39.6181 22.0897C40.6539 22.5061 41.0635 24.1455 40.5225 25.7648C39.986 27.3762 38.7199 28.3583 37.678 27.9496C36.6469 27.5456 36.2295 25.9015 36.7628 24.2776C37.29 22.6615 38.5715 21.6903 39.6181 22.0897ZM45.4121 25.4524C46.2887 26.1672 46.0846 27.7647 44.9715 29.042C43.8307 30.3132 42.2152 30.7762 41.3418 30.0754C40.4622 29.3684 40.6755 27.7756 41.8025 26.5075C42.9279 25.2271 44.5433 24.764 45.4121 25.4524ZM33.13 23.3219C34.2832 23.4587 35.1242 24.9116 35.0546 26.5557C34.9309 28.2013 33.9431 29.4305 32.7976 29.2984C31.6536 29.1663 30.8173 27.7243 30.9116 26.074C31.0059 24.4237 32.0138 23.1945 33.13 23.3204M47.7186 31.7879C48.3849 32.6954 47.8299 34.1872 46.4556 35.0947C45.0798 36.0022 43.421 35.996 42.7346 35.0636C42.0483 34.1343 42.6141 32.6596 43.9698 31.7288C45.3503 30.8477 47.023 30.8524 47.7186 31.7879ZM41.3201 39.7829C40.9136 40.5677 39.8438 41.0774 38.9642 40.9904C37.1292 40.8163 36.2063 38.4341 34.5939 37.4986C32.9816 36.5616 30.42 36.9983 29.409 35.4443C28.8277 34.5741 28.8772 33.1911 29.4863 32.3737C30.3304 31.244 32.1561 31.4336 33.5242 31.0451C35.3267 30.5587 37.3766 28.8695 39.0059 29.8175C40.6276 30.756 40.2643 33.3807 40.6801 35.1972C41.0094 36.7139 42.0266 38.4232 41.3201 39.7829Z" fill="#5B6071"/>
</svg>
