<svg width="48" height="48" viewBox="0 0 48 48" fill="none" xmlns="http://www.w3.org/2000/svg">
<path fill-rule="evenodd" clip-rule="evenodd" d="M10 8.25C6.82436 8.25 4.25 10.8244 4.25 14V34C4.25 37.1756 6.82436 39.75 10 39.75H25V36.25H10C8.75736 36.25 7.75 35.2426 7.75 34V14C7.75 12.7574 8.75736 11.75 10 11.75H15.5678C16.0887 11.75 16.5934 11.9307 16.9959 12.2614L21.7825 16.1932C22.8111 17.0381 24.1011 17.5 25.4322 17.5H38C39.1236 17.5 40.0548 18.3236 40.2229 19.4H43.7395C43.5586 16.3873 41.0581 14 38 14H25.4322C24.9113 14 24.4066 13.8193 24.0041 13.4886L19.2175 9.55682C18.1889 8.71187 16.8989 8.25 15.5678 8.25H10Z" fill="#3D4653"/>
<path fill-rule="evenodd" clip-rule="evenodd" d="M32.4022 21.7501L21.7045 21.7501H15.1818L14.1275 21.7501C12.5095 21.75 11.0508 22.7247 10.4318 24.2196L6.29039 34.2195C5.19966 36.8532 7.13538 39.75 9.986 39.75H30.224C27.9403 37.7344 26.5 34.7854 26.5 31.5C26.5 27.2646 28.8937 23.5882 32.4022 21.7501Z" fill="#3D4653"/>
<path d="M37.5 41C36.2016 41 34.9746 40.7504 33.8188 40.2513C32.663 39.7529 31.6538 39.072 30.791 38.209C29.9279 37.3463 29.2469 36.3371 28.7487 35.1812C28.2496 34.0254 28 32.7982 28 31.5C28 30.1858 28.2496 28.955 28.7487 27.8074C29.247 26.6592 29.928 25.6537 30.791 24.7911C31.6537 23.9278 32.6629 23.2467 33.8188 22.7476C34.9746 22.2492 36.2017 22 37.5 22C38.8142 22 40.045 22.2492 41.1927 22.7476C42.3408 23.2467 43.3462 23.9278 44.209 24.7911C45.0723 25.6536 45.7531 26.6592 46.2515 27.8074C46.7504 28.955 47 30.1859 47 31.5V32.8775C47 33.8117 46.6796 34.6071 46.0387 35.2639C45.397 35.9213 44.6092 36.25 43.675 36.25C43.105 36.25 42.5746 36.1233 42.0837 35.87C41.5929 35.6166 41.1891 35.2842 40.8725 34.8724C40.4449 35.3 39.9424 35.6366 39.3648 35.8823C38.7865 36.1274 38.1649 36.25 37.4999 36.25C36.1857 36.25 35.0656 35.7867 34.1397 34.8601C33.2131 33.9343 32.7498 32.8142 32.7498 31.4999C32.7498 30.1857 33.2131 29.0653 34.1397 28.1388C35.0656 27.2127 36.1856 26.7499 37.4999 26.7499C38.8142 26.7499 39.9345 27.2127 40.861 28.1388C41.7869 29.0653 42.25 30.1857 42.25 31.4999V32.8774C42.25 33.3366 42.3926 33.6966 42.6776 33.9575C42.9626 34.2192 43.295 34.35 43.675 34.35C44.055 34.35 44.3876 34.2192 44.6726 33.9575C44.9576 33.6966 45.1 33.3366 45.1 32.8774V31.4999C45.1 29.4257 44.3517 27.6404 42.8551 26.1438C41.3592 24.6477 39.5741 23.8999 37.4999 23.8999C35.4257 23.8999 33.6403 24.6477 32.1437 26.1438C30.6478 27.6403 29.8998 29.4257 29.8998 31.4999C29.8998 33.5741 30.6479 35.3592 32.1437 36.8552C33.6403 38.3517 35.4257 39.1 37.4999 39.1H42.25V41L37.5 41ZM37.5 34.3499C38.2916 34.3499 38.9646 34.0728 39.5188 33.5187C40.073 32.9645 40.35 32.2915 40.35 31.4999C40.35 30.7082 40.073 30.0353 39.5188 29.4812C38.9646 28.927 38.2916 28.65 37.5 28.65C36.7084 28.65 36.0354 28.927 35.4812 29.4812C34.9272 30.0354 34.65 30.7082 34.65 31.4999C34.65 32.2916 34.9272 32.9645 35.4812 33.5187C36.0354 34.0727 36.7084 34.3499 37.5 34.3499Z" fill="#5B6071"/>
</svg>
