<svg width="48" height="48" viewBox="0 0 48 48" fill="none" xmlns="http://www.w3.org/2000/svg">
<path fill-rule="evenodd" clip-rule="evenodd" d="M10 8.25003C6.82436 8.25003 4.25 10.8244 4.25 14V34C4.25 37.1757 6.82436 39.75 10 39.75H24V36.25H10C8.75736 36.25 7.75 35.2427 7.75 34V14C7.75 12.7574 8.75736 11.75 10 11.75H15.5678C16.0887 11.75 16.5934 11.9308 16.9959 12.2614L21.7825 16.1932C22.8111 17.0382 24.1011 17.5 25.4322 17.5H38C38.9797 17.5 39.8131 18.1261 40.122 19H43.7015C43.334 16.1788 40.9214 14 38 14H25.4322C24.9113 14 24.4066 13.8193 24.0041 13.4887L19.2175 9.55685C18.1889 8.7119 16.8989 8.25003 15.5678 8.25003H10Z" fill="#3D4653"/>
<path fill-rule="evenodd" clip-rule="evenodd" d="M32.4022 21.7501L21.7046 21.7501H15.1819L14.1276 21.7501C12.5096 21.75 11.0509 22.7247 10.4318 24.2196L6.29045 34.2195C5.19972 36.8532 7.13544 39.75 9.98606 39.75H30.224C27.9403 37.7344 26.5 34.7854 26.5 31.5C26.5 27.2646 28.8937 23.5882 32.4022 21.7501Z" fill="#3D4653"/>
<path fill-rule="evenodd" clip-rule="evenodd" d="M43.1048 36.6204C42.9816 36.2381 42.7408 35.9044 42.4166 35.6672C42.0925 35.4299 41.7017 35.3013 41.3 35.2995H40.3492V32.4501C40.3494 32.3253 40.325 32.2017 40.2774 32.0863C40.2298 31.971 40.1599 31.8661 40.0718 31.7778C39.9836 31.6895 39.8789 31.6194 39.7636 31.5716C39.6483 31.5238 39.5248 31.4992 39.4 31.4992H33.7016V29.5991H35.6C35.7248 29.5993 35.8484 29.5749 35.9637 29.5273C36.0791 29.4796 36.1839 29.4097 36.2722 29.3216C36.3605 29.2334 36.4306 29.1287 36.4784 29.0134C36.5262 28.8981 36.5508 28.7746 36.5508 28.6498V26.7496H38.4508C38.9544 26.7492 39.4373 26.5488 39.7933 26.1925C40.1493 25.8362 40.3492 25.3531 40.3492 24.8495V24.4591C41.4863 24.9172 42.4954 25.644 43.2902 26.5775C44.0849 27.5109 44.6416 28.6231 44.9124 29.8188C45.1833 31.0144 45.1604 32.2579 44.8455 33.4428C44.5307 34.6276 43.9334 35.7185 43.1048 36.622M36.5508 39.0343C34.714 38.8057 33.0241 37.9136 31.7991 36.5258C30.5742 35.138 29.8988 33.3503 29.9 31.4992C29.9 30.9106 29.9765 30.3407 30.0998 29.7989L34.6508 34.3502V35.2995C34.6508 35.8035 34.851 36.2868 35.2073 36.6431C35.5636 36.9995 36.0469 37.1997 36.5508 37.1997M37.5 22C34.9807 22 32.5646 23.0008 30.783 24.7822C29.0015 26.5636 28.0004 28.9797 28 31.4992C28 34.019 29.0009 36.4355 30.7825 38.2173C32.5641 39.999 34.9804 41 37.5 41C40.0196 41 42.4359 39.999 44.2175 38.2173C45.9991 36.4355 47 34.019 47 31.4992C46.9996 28.9797 45.9985 26.5636 44.217 24.7822C42.4354 23.0008 40.0193 22 37.5 22Z" fill="#5B6071"/>
</svg>
