<svg width="48" height="48" viewBox="0 0 48 48" fill="none" xmlns="http://www.w3.org/2000/svg">
<path fill-rule="evenodd" clip-rule="evenodd" d="M10 8.25003C6.82436 8.25003 4.25 10.8244 4.25 14V34C4.25 37.1757 6.82436 39.75 10 39.75H16V36.25H10C8.75736 36.25 7.75 35.2427 7.75 34V14C7.75 12.7574 8.75736 11.75 10 11.75H15.5678C16.0887 11.75 16.5934 11.9308 16.9959 12.2614L21.7825 16.1932C22.8111 17.0382 24.1011 17.5 25.4322 17.5H38C39.2426 17.5 40.25 18.5074 40.25 19.75V20H43.75V19.75C43.75 16.5744 41.1756 14 38 14H25.4322C24.9113 14 24.4066 13.8193 24.0041 13.4887L19.2175 9.55685C18.1889 8.7119 16.8989 8.25003 15.5678 8.25003H10Z" fill="#3D4653"/>
<path fill-rule="evenodd" clip-rule="evenodd" d="M21.7047 21.7501L27.0458 21.7501L18.4126 35.3961C17.3841 37.0219 18.1435 39.0511 19.7362 39.75H9.98618C7.13556 39.75 5.19985 36.8532 6.29057 34.2195L10.4319 24.2196C11.051 22.7247 12.5097 21.75 14.1277 21.7501L15.182 21.7501H21.7047Z" fill="#3D4653"/>
<path d="M36.1472 38H46.1843C46.5031 38 46.8163 37.9215 47.0923 37.7723C47.3684 37.6231 47.5977 37.4084 47.757 37.15C47.9163 36.8915 48.0001 36.5983 48 36.2999C47.9999 36.0015 47.9158 35.7084 47.7562 35.4501L41.0156 24.5215C40.8563 24.2631 40.6271 24.0485 40.3511 23.8993C40.0751 23.7501 39.7619 23.6716 39.4432 23.6716C39.1245 23.6716 38.8113 23.7501 38.5353 23.8993C38.2593 24.0485 38.0301 24.2631 37.8708 24.5215L36.1472 27.3177L32.7774 21.8498C32.618 21.5914 32.3887 21.3769 32.1126 21.2277C31.8365 21.0785 31.5233 21 31.2045 21C30.8858 21 30.5726 21.0785 30.2965 21.2277C30.0204 21.3769 29.7911 21.5914 29.6316 21.8498L21.2438 35.4501C21.0842 35.7084 21.0001 36.0015 21 36.2999C20.9999 36.5983 21.0837 36.8915 21.243 37.15C21.4023 37.4084 21.6316 37.6231 21.9077 37.7723C22.1837 37.9215 22.4969 38 22.8157 38H29.1161C31.6124 38 33.4534 36.9736 34.7201 34.9712L37.7954 29.9858L39.4427 27.3177L44.3864 35.332H37.7954L36.1472 38ZM29.0134 35.3292L24.6165 35.3283L31.2075 24.6433L34.4961 29.9858L32.2942 33.5566C31.453 34.8558 30.4973 35.3292 29.0134 35.3292Z" fill="#5B6071"/>
</svg>
