<svg width="48" height="48" viewBox="0 0 48 48" fill="none" xmlns="http://www.w3.org/2000/svg">
<path fill-rule="evenodd" clip-rule="evenodd" d="M10 8.25C6.82436 8.25 4.25 10.8244 4.25 14V34C4.25 37.1756 6.82436 39.75 10 39.75H26V36.25H10C8.75736 36.25 7.75 35.2426 7.75 34V14C7.75 12.7574 8.75736 11.75 10 11.75H15.5678C16.0887 11.75 16.5934 11.9307 16.9959 12.2614L21.7825 16.1932C22.8111 17.0381 24.1011 17.5 25.4322 17.5H38C38.9797 17.5 39.8131 18.1261 40.122 19H43.7015C43.334 16.1787 40.9214 14 38 14H25.4322C24.9113 14 24.4066 13.8193 24.0041 13.4886L19.2175 9.55682C18.1889 8.71187 16.8989 8.25 15.5678 8.25H10Z" fill="#3D4653"/>
<path fill-rule="evenodd" clip-rule="evenodd" d="M42.0853 22.6388C41.4065 22.0872 40.5376 21.75 39.569 21.75L33.3856 21.75L35.8872 27.0042H40.1031L42.0853 22.6388ZM29.7383 21.7501L26.4346 29.1104L26.401 29.1933C25.9305 30.408 25.8724 31.7411 26.2353 32.9913C26.5982 34.2416 27.3626 35.3413 28.413 36.1244L28.4261 36.1336L28.454 36.1539L33.3043 39.75H9.986C7.13538 39.75 5.19966 36.8532 6.29039 34.2195L10.4318 24.2196C11.0508 22.7247 12.5095 21.75 14.1275 21.7501L15.1818 21.7501H21.7045L29.7383 21.7501Z" fill="#3D4653"/>
<path fill-rule="evenodd" clip-rule="evenodd" d="M47.6671 29.1139L47.6407 29.0458L44.9177 22.422C44.8628 22.2917 44.7649 22.1812 44.6382 22.1063C44.5436 22.0496 44.436 22.0144 44.3242 22.0036C44.2123 21.9928 44.0993 22.0066 43.9942 22.0439C43.8891 22.0812 43.7948 22.141 43.719 22.2185C43.6432 22.296 43.588 22.389 43.5577 22.4901L41.7211 27.7379H34.2801L32.442 22.4901C32.4114 22.3894 32.356 22.2969 32.2803 22.2197C32.2045 22.1426 32.1105 22.083 32.0057 22.0457C31.9009 22.0084 31.7883 21.9945 31.6767 22.005C31.5651 22.0155 31.4577 22.0502 31.3631 22.1063C31.2363 22.1812 31.1385 22.2917 31.0836 22.422L28.3621 29.0473L28.3342 29.1124C27.9421 30.0677 27.8936 31.116 28.1961 32.0992C28.4985 33.0824 29.1355 33.9471 30.0109 34.563L30.0217 34.5702L30.045 34.5862L34.1854 37.4831L37.4875 39.8108C37.6339 39.914 37.8125 39.9699 37.996 39.9699C38.1795 39.9699 38.358 39.914 38.5044 39.8108L41.8065 37.4816L45.978 34.5702L45.9889 34.5615C46.8638 33.9461 47.5007 33.0819 47.8034 32.0993C48.1061 31.1167 48.0582 30.0689 47.6671 29.1139Z" fill="#5B6071"/>
<path fill-rule="evenodd" clip-rule="evenodd" d="M47.479 28.8293L47.438 28.7387C45.3746 29.0766 43.4303 29.7745 41.7444 30.7825L32.4444 36.3971L38.365 39.9699L44.8726 36.0809C46.2336 35.2614 47.224 34.1109 47.6946 32.803C48.1651 31.495 48.0879 30.1004 47.479 28.8293Z" fill="#5B6071"/>
<path fill-rule="evenodd" clip-rule="evenodd" d="M34.2565 30.7809C32.5706 29.7735 30.6263 29.0761 28.563 28.7387L28.5195 28.8274C27.9098 30.099 27.8346 31.4942 28.3054 32.8028C28.7762 34.1114 29.7673 35.2624 31.1294 36.0822L31.1463 36.0918L31.1826 36.115L37.6276 39.9699L43.5556 36.3965L34.2565 30.7809Z" fill="#5B6071"/>
<path fill-rule="evenodd" clip-rule="evenodd" d="M32.4445 36.8306L35.4384 38.8468L37.2578 39.9926C37.4712 40.1272 37.7314 40.2 37.9989 40.2C38.2664 40.2 38.5266 40.1272 38.74 39.9926L40.5594 38.8468L43.5556 36.8306L38 33.0066L32.4445 36.8306Z" fill="#5B6071"/>
</svg>
