<svg width="48" height="48" viewBox="0 0 48 48" fill="none" xmlns="http://www.w3.org/2000/svg">
<path fill-rule="evenodd" clip-rule="evenodd" d="M10 8.25C6.82436 8.25 4.25 10.8244 4.25 14V34C4.25 37.1756 6.82436 39.75 10 39.75H26V36.25H10C8.75736 36.25 7.75 35.2426 7.75 34V14C7.75 12.7574 8.75736 11.75 10 11.75H15.5678C16.0887 11.75 16.5934 11.9307 16.9959 12.2614L21.7825 16.1932C22.8111 17.0381 24.1011 17.5 25.4322 17.5H38C39.2426 17.5 40.25 18.5074 40.25 19.75V20H43.75V19.75C43.75 16.5744 41.1756 14 38 14H25.4322C24.9113 14 24.4066 13.8193 24.0041 13.4886L19.2175 9.55682C18.1889 8.71187 16.8989 8.25 15.5678 8.25H10Z" fill="#3D4653"/>
<path fill-rule="evenodd" clip-rule="evenodd" d="M28.4214 34.2177L31 35L28.3225 35.4852C28.2307 35.5246 28.1511 35.5945 28.0937 35.6861C28.0446 35.7645 28.0429 35.8557 28.0411 35.9512C28.0408 35.9674 28.0405 35.9836 28.04 36L28.0507 39.75H9.98618C7.13556 39.75 5.19985 36.8531 6.29057 34.2194L10.4319 24.2195C11.051 22.7247 12.5097 21.75 14.1277 21.75L15.182 21.7501H21.7047L39.5692 21.75C40.0555 21.75 40.5166 21.835 40.9412 21.9894L28.3208 26.6546C28.2292 26.694 28.1498 26.764 28.0927 26.8557C28.0356 26.9473 28.0033 27.0565 28 27.1694L28.0937 33.701C28.099 33.8146 28.1328 33.9239 28.191 34.0157C28.2492 34.1074 28.3292 34.1776 28.4214 34.2177Z" fill="#3D4653"/>
<path fill-rule="evenodd" clip-rule="evenodd" d="M38.0026 35.1439L32.3419 33.3246C32.2613 33.2946 32.1913 33.2419 32.1404 33.1731C32.0895 33.1043 32.0599 33.0223 32.0552 32.9371L32 28.627C32.0029 28.5424 32.0311 28.4605 32.0811 28.3918C32.1311 28.323 32.2006 28.2706 32.2807 28.241L45.6222 24.0138C45.7805 23.9635 45.9074 24.0552 45.9074 24.2194V28.5279C45.9038 28.6134 45.875 28.6959 45.8246 28.7652C45.7742 28.8346 45.7043 28.8879 45.6237 28.9184L40.1184 30.7362L45.7148 32.4668C45.7957 32.4953 45.866 32.5472 45.9169 32.6158C45.9677 32.6843 45.9966 32.7663 46 32.8513V37.0993C46 37.262 45.8746 37.4365 45.7178 37.4897L32.3419 41.9847C32.1852 42.0379 32.0582 41.9477 32.0567 41.785L32.0299 37.3507C32.0331 37.2659 32.0616 37.184 32.1119 37.1153C32.1621 37.0466 32.2318 36.9942 32.3121 36.9647L38.0026 35.1439Z" fill="#5B6071"/>
</svg>
