<svg width="48" height="48" viewBox="0 0 48 48" fill="none" xmlns="http://www.w3.org/2000/svg">
<path fill-rule="evenodd" clip-rule="evenodd" d="M10 8.25C6.82439 8.25 4.25003 10.8244 4.25003 14V34C4.25003 37.1756 6.82439 39.75 10 39.75H22V36.25H10C8.75739 36.25 7.75003 35.2426 7.75003 34V14C7.75003 12.7574 8.75739 11.75 10 11.75H15.5678C16.0887 11.75 16.5935 11.9307 16.996 12.2614L21.7825 16.1932C22.8111 17.0381 24.1011 17.5 25.4323 17.5H38C38.9797 17.5 39.8131 18.1261 40.122 19H43.7016C43.334 16.1787 40.9215 14 38 14H25.4323C24.9114 14 24.4066 13.8193 24.0041 13.4886L19.2175 9.55682C18.1889 8.71187 16.899 8.25 15.5678 8.25H10Z" fill="#3D4653"/>
<path fill-rule="evenodd" clip-rule="evenodd" d="M31.6735 21.75L21.7047 21.7501H15.182L14.1277 21.7501C12.5097 21.75 11.051 22.7247 10.4319 24.2196L6.29057 34.2195C5.19985 36.8532 7.13556 39.75 9.98618 39.75H24.0568C23.7729 39.2577 23.5599 38.7708 23.3792 38.3574C23.2395 38.0381 23.1191 37.7626 22.9999 37.5625L26.2726 34.2695C26.2726 34.2695 27.3635 35.3672 28.4544 35.3672C28.4544 35.3672 29.5453 35.3672 29.5454 34.2695V32.0742H26.2727V27.6836H29.9833L30.5236 24.6071C30.6118 23.5452 31.0177 22.5471 31.6735 21.75Z" fill="#3D4653"/>
<path fill-rule="evenodd" clip-rule="evenodd" d="M37.462 24.0865C37.1737 24.0621 36.883 24.0914 36.6068 24.1726C36.3305 24.2538 36.0741 24.3853 35.8522 24.5597C35.6304 24.7341 35.4474 24.9479 35.3139 25.1887C35.1804 25.4296 35.099 25.6928 35.0743 25.9632L34.801 28.9448H37.9026V31.0072H34.6012L34.1178 36.2354C34.0355 37.0967 33.6666 37.9119 33.0632 38.566C32.4599 39.2201 31.6527 39.68 30.7555 39.8806C29.8584 40.0813 28.9166 40.0127 28.0633 39.6844C27.21 39.3562 26.4883 38.7849 26 38.0512L27.6499 36.5044C27.736 36.7621 27.8755 37.0012 28.0604 37.2082C28.2454 37.4151 28.4722 37.5858 28.7277 37.7103C28.9832 37.8349 29.2624 37.9108 29.5494 37.9339C29.8363 37.957 30.1253 37.9266 30.3997 37.8447C31.257 37.5965 31.8634 36.8839 31.9402 36.0513L32.4014 31.0072H29.1016V28.9448H32.5995L32.8967 25.7775C32.9979 24.6869 33.5561 23.6785 34.449 22.9731C35.3419 22.2678 36.4966 21.923 37.6601 22.0145C39.0453 22.1266 40.3006 22.8487 41.0248 23.9632L39.3766 25.51C39.2429 25.1221 38.9898 24.7799 38.6491 24.5266C38.3084 24.2733 37.8953 24.1202 37.462 24.0865ZM48 32.7078L46.4492 31.2538L43.3356 34.173L40.2237 31.2538L38.6507 32.7078L41.7848 35.6477L38.6507 38.546L40.222 40L43.3356 37.0809L46.4492 40L48 38.546L44.8864 35.6477L48 32.7078Z" fill="#5B6071"/>
</svg>
