<svg width="48" height="48" viewBox="0 0 48 48" fill="none" xmlns="http://www.w3.org/2000/svg">
<path fill-rule="evenodd" clip-rule="evenodd" d="M10 8.25003C6.82436 8.25003 4.25 10.8244 4.25 14V34C4.25 37.1757 6.82436 39.75 10 39.75H22V36.25H10C8.75736 36.25 7.75 35.2427 7.75 34V14C7.75 12.7574 8.75736 11.75 10 11.75H15.5678C16.0887 11.75 16.5934 11.9308 16.9959 12.2614L21.7825 16.1932C22.8111 17.0382 24.1011 17.5 25.4322 17.5H38C38.9797 17.5 39.8131 18.1261 40.122 19H43.7015C43.334 16.1788 40.9214 14 38 14H25.4322C24.9113 14 24.4066 13.8193 24.0041 13.4887L19.2175 9.55685C18.1889 8.7119 16.8989 8.25003 15.5678 8.25003H10Z" fill="#3D4653"/>
<path fill-rule="evenodd" clip-rule="evenodd" d="M26.2372 21.7501C25.4823 22.3644 25 23.3009 25 24.35C25 26.0024 26.1964 27.3754 27.7702 27.65C26.1964 27.9246 25 29.2976 25 30.95C25 32.7978 26.4961 34.2962 28.343 34.3C26.4961 34.3038 25 35.8022 25 37.65C25 38.4451 25.277 39.1756 25.7398 39.75H9.98594C7.13532 39.75 5.1996 36.8532 6.29033 34.2195L10.4317 24.2196C11.0508 22.7248 12.5095 21.7501 14.1274 21.7501L15.1817 21.7502H21.7045L26.2372 21.7501Z" fill="#3D4653"/>
<path fill-rule="evenodd" clip-rule="evenodd" d="M28.4087 22.0015C28.0968 21.9903 27.7858 22.0411 27.4943 22.1511C27.2028 22.261 26.9367 22.4277 26.712 22.6413C26.4873 22.8549 26.3086 23.111 26.1865 23.3942C26.0645 23.6775 26.0016 23.982 26.0016 24.2898C26.0016 24.5975 26.0645 24.9021 26.1865 25.1854C26.3086 25.4686 26.4873 25.7247 26.712 25.9383C26.9367 26.1519 27.2028 26.3186 27.4943 26.4285C27.7858 26.5385 28.0968 26.5893 28.4087 26.5781H37.583C38.1838 26.5564 38.7527 26.3058 39.17 25.8791C39.5873 25.4523 39.8204 24.8826 39.8204 24.2898C39.8204 23.697 39.5873 23.1273 39.17 22.7005C38.7527 22.2738 38.1838 22.0232 37.583 22.0015H28.4087ZM43.5719 22.0015C42.9435 22.0011 42.3407 22.2418 41.8959 22.6706C41.4511 23.0994 41.2008 23.6812 41.2 24.2883C41.2 24.5891 41.2613 24.887 41.3805 25.1649C41.4998 25.4428 41.6745 25.6953 41.8948 25.9079C42.1151 26.1206 42.3766 26.2892 42.6643 26.4042C42.9521 26.5192 43.2605 26.5783 43.5719 26.5781C44.2001 26.5773 44.8022 26.3357 45.246 25.9063C45.6899 25.477 45.9392 24.895 45.9392 24.2883C45.9384 23.682 45.6887 23.1008 45.2449 22.6722C44.8012 22.2435 44.1995 22.0023 43.5719 22.0015ZM28.4522 28.7883C27.1389 28.7883 26.0849 29.8306 26.0849 31.1255C26.0849 32.4036 27.1405 33.4474 28.4522 33.4628C29.7655 33.4628 30.8242 32.4204 30.8242 31.1255C30.8242 29.8306 29.7655 28.7883 28.4522 28.7883ZM34.1865 28.8357C33.5812 28.8913 33.0219 29.1781 32.6281 29.6349C32.2344 30.0917 32.0375 30.6822 32.0795 31.2802C32.1214 31.8782 32.3989 32.4364 32.8527 32.8353C33.3065 33.2343 33.9005 33.4424 34.5079 33.4153H43.8901C44.4947 33.3591 45.053 33.0722 45.4462 32.6159C45.8393 32.1596 46.0361 31.5699 45.9945 30.9726C45.953 30.3753 45.6765 29.8176 45.224 29.4184C44.7714 29.0192 44.1786 28.8101 43.5719 28.8357H34.1881H34.1865ZM28.4072 35.4219C28.0953 35.4107 27.7843 35.4615 27.4928 35.5715C27.2012 35.6814 26.9352 35.8482 26.7105 36.0617C26.4858 36.2753 26.3071 36.5314 26.185 36.8146C26.0629 37.0979 26 37.4025 26 37.7102C26 38.018 26.0629 38.3225 26.185 38.6058C26.3071 38.889 26.4858 39.1451 26.7105 39.3587C26.9352 39.5723 27.2012 39.739 27.4928 39.8489C27.7843 39.9589 28.0953 40.0097 28.4072 39.9985H37.5815C38.1823 39.9768 38.7511 39.7262 39.1684 39.2995C39.5857 38.8727 39.8189 38.303 39.8189 37.7102C39.8189 37.1174 39.5857 36.5477 39.1684 36.1209C38.7511 35.6942 38.1823 35.4436 37.5815 35.4219H28.4072ZM43.5704 35.4219C42.942 35.4215 42.3391 35.6622 41.8943 36.091C41.4496 36.5198 41.1992 37.1017 41.1984 37.7087C41.1984 38.0095 41.2598 38.3074 41.379 38.5853C41.4982 38.8632 41.673 39.1157 41.8932 39.3283C42.1135 39.541 42.375 39.7096 42.6628 39.8246C42.9505 39.9396 43.2589 39.9987 43.5704 39.9985C44.1985 39.9977 44.8006 39.7561 45.2445 39.3267C45.6884 38.8974 45.9377 38.3154 45.9377 37.7087C45.9368 37.1024 45.6872 36.5213 45.2434 36.0926C44.7996 35.6639 44.198 35.4227 43.5704 35.4219Z" fill="#5B6071"/>
</svg>
