<svg width="48" height="48" viewBox="0 0 48 48" fill="none" xmlns="http://www.w3.org/2000/svg">
<path fill-rule="evenodd" clip-rule="evenodd" d="M10 8.25C6.82436 8.25 4.25 10.8244 4.25 14V34C4.25 37.1756 6.82436 39.75 10 39.75H26V36.25H10C8.75736 36.25 7.75 35.2426 7.75 34V14C7.75 12.7574 8.75736 11.75 10 11.75H15.5678C16.0887 11.75 16.5934 11.9307 16.9959 12.2614L21.7825 16.1932C22.8111 17.0381 24.1011 17.5 25.4322 17.5H38C39.2426 17.5 40.25 18.5074 40.25 19.75V20H43.75V19.75C43.75 16.5744 41.1756 14 38 14H25.4322C24.9113 14 24.4066 13.8193 24.0041 13.4886L19.2175 9.55682C18.1889 8.71187 16.8989 8.25 15.5678 8.25H10Z" fill="#3D4653"/>
<path fill-rule="evenodd" clip-rule="evenodd" d="M32.5803 21.75L21.7045 21.7501H15.1818L14.1275 21.7501C12.5095 21.75 11.0508 22.7247 10.4318 24.2196L6.29039 34.2195C5.19966 36.8532 7.13538 39.75 9.986 39.75H29.3036C27.4378 37.7057 26.3 34.9857 26.3 32C26.3 27.528 28.8526 23.6521 32.5803 21.75Z" fill="#3D4653"/>
<path d="M35.4478 32C35.4478 31.3685 35.7026 30.7629 36.1561 30.3164C36.6095 29.8699 37.2246 29.6191 37.8659 29.6191C38.5072 29.6191 39.1223 29.8699 39.5758 30.3164C40.0293 30.7629 40.284 31.3685 40.284 32C40.284 32.6315 40.0293 33.2371 39.5758 33.6836C39.1223 34.1301 38.5072 34.381 37.8659 34.381C37.2246 34.381 36.6095 34.1301 36.1561 33.6836C35.7026 33.2371 35.4478 32.6315 35.4478 32ZM37.8659 22C35.6084 21.9978 33.4144 22.7363 31.6307 24.0988C29.847 25.4613 28.5751 27.3702 28.0161 29.5238L28 29.6191C28 29.8889 28.2096 30.0952 28.4836 30.0952H32.5783C32.671 30.0937 32.7614 30.066 32.8386 30.0153C32.9157 29.9647 32.9765 29.8932 33.0136 29.8095C33.5193 28.723 34.3873 27.8395 35.4733 27.3056C36.5593 26.7717 37.7981 26.6196 38.984 26.8745C40.17 27.1293 41.2317 27.7758 41.993 28.7067C42.7544 29.6376 43.1695 30.7969 43.1695 31.9921C43.1695 33.1873 42.7544 34.3465 41.993 35.2774C41.2317 36.2083 40.17 36.8548 38.984 37.1097C37.7981 37.3646 36.5593 37.2124 35.4733 36.6785C34.3873 36.1446 33.5193 35.2611 33.0136 34.1746C32.9765 34.0909 32.9157 34.0195 32.8386 33.9688C32.7614 33.9182 32.671 33.8904 32.5783 33.8889H28.4836C28.3554 33.8889 28.2323 33.9391 28.1417 34.0284C28.051 34.1177 28 34.2388 28 34.3651V34.4603C28.4676 36.274 29.4425 37.9221 30.8141 39.2172C32.1856 40.5124 33.8987 41.4027 35.7586 41.7869C37.6184 42.1711 39.5505 42.0338 41.335 41.3906C43.1196 40.7474 44.6851 39.6241 45.8535 38.1484C47.0219 36.6728 47.7464 34.9039 47.9446 33.0429C48.1428 31.182 47.8068 29.3036 46.9747 27.6214C46.1426 25.9391 44.8478 24.5205 43.2376 23.5268C41.6274 22.533 39.7663 22.0041 37.8659 22Z" fill="#5B6071"/>
</svg>
