<svg width="48" height="48" viewBox="0 0 48 48" fill="none" xmlns="http://www.w3.org/2000/svg">
<path fill-rule="evenodd" clip-rule="evenodd" d="M10 8.25C6.82436 8.25 4.25 10.8244 4.25 14V34C4.25 37.1756 6.82436 39.75 10 39.75H28V36.25H10C8.75736 36.25 7.75 35.2426 7.75 34V14C7.75 12.7574 8.75736 11.75 10 11.75H15.5678C16.0887 11.75 16.5934 11.9307 16.9959 12.2614L21.7825 16.1932C22.8111 17.0381 24.1011 17.5 25.4322 17.5H38C39.1236 17.5 40.0548 18.3236 40.2229 19.4H43.7395C43.5586 16.3873 41.0581 14 38 14H25.4322C24.9113 14 24.4066 13.8193 24.0041 13.4886L19.2175 9.55682C18.1889 8.71187 16.8989 8.25 15.5678 8.25H10Z" fill="#3D4653"/>
<path fill-rule="evenodd" clip-rule="evenodd" d="M32.0155 21.7501C31.3928 22.2998 31 23.104 31 24V38C31 38.6531 31.2087 39.2575 31.563 39.75H9.98594C7.13532 39.75 5.1996 36.8532 6.29033 34.2195L10.4317 24.2196C11.0508 22.7248 12.5095 21.7501 14.1274 21.7501L15.1817 21.7502H21.7045L32.0155 21.7501Z" fill="#3D4653"/>
<path d="M39.875 28.3H44.6881L39.875 23.3493V28.3ZM33.75 22H40.75L46 27.4V38.2C46 39.1867 45.2093 40 44.25 40H33.75C33.2859 40 32.8408 39.8104 32.5126 39.4728C32.1844 39.1352 32 38.6774 32 38.2V23.8C32 22.8 32.7778 22 33.75 22ZM41.625 36.4V34.6H33.75V36.4H41.625ZM44.25 32.8V31H33.75V32.8H44.25Z" fill="#5B6071"/>
</svg>
