<svg width="48" height="48" viewBox="0 0 48 48" fill="none" xmlns="http://www.w3.org/2000/svg">
<path fill-rule="evenodd" clip-rule="evenodd" d="M10 8.25C6.82436 8.25 4.25 10.8244 4.25 14V34C4.25 37.1756 6.82436 39.75 10 39.75H25V36.25H10C8.75736 36.25 7.75 35.2426 7.75 34V14C7.75 12.7574 8.75736 11.75 10 11.75H15.5678C16.0887 11.75 16.5934 11.9307 16.9959 12.2614L21.7825 16.1932C22.8111 17.0381 24.1011 17.5 25.4322 17.5H38C38.9797 17.5 39.8131 18.1261 40.122 19H43.7015C43.334 16.1787 40.9214 14 38 14H25.4322C24.9113 14 24.4066 13.8193 24.0041 13.4886L19.2175 9.55682C18.1889 8.71187 16.8989 8.25 15.5678 8.25H10Z" fill="#3D4653"/>
<path fill-rule="evenodd" clip-rule="evenodd" d="M26.6923 21.7501C26.2554 22.3912 26 23.1658 26 24V37C26 38.0652 26.4164 39.0332 27.0953 39.75H9.98594C7.13532 39.75 5.1996 36.8532 6.29033 34.2195L10.4317 24.2196C11.0508 22.7248 12.5095 21.7501 14.1274 21.7501L15.1817 21.7502H21.7045L26.6923 21.7501Z" fill="#3D4653"/>
<rect x="28" y="21.5" width="18" height="18" rx="3" stroke="#5B6071" stroke-width="2" stroke-linejoin="round"/>
<circle cx="39" cy="28.5" r="2" fill="#5B6071"/>
<path d="M29 38L35.683 32.1524C36.437 31.4926 37.563 31.4926 38.317 32.1524L45 38" stroke="#5B6071" stroke-width="2" stroke-linejoin="round"/>
</svg>
