<svg width="48" height="48" viewBox="0 0 48 48" fill="none" xmlns="http://www.w3.org/2000/svg">
<path fill-rule="evenodd" clip-rule="evenodd" d="M10 8.25C6.82436 8.25 4.25 10.8244 4.25 14V34C4.25 37.1756 6.82436 39.75 10 39.75H22V36.25H10C8.75736 36.25 7.75 35.2426 7.75 34V14C7.75 12.7574 8.75736 11.75 10 11.75H15.5678C16.0887 11.75 16.5934 11.9307 16.9959 12.2614L21.7825 16.1932C22.8111 17.0381 24.1011 17.5 25.4322 17.5H38C39.2426 17.5 40.25 18.5074 40.25 19.75V20H43.75V19.75C43.75 16.5744 41.1756 14 38 14H25.4322C24.9113 14 24.4066 13.8193 24.0041 13.4886L19.2175 9.55682C18.1889 8.71187 16.8989 8.25 15.5678 8.25H10Z" fill="#3D4653"/>
<path fill-rule="evenodd" clip-rule="evenodd" d="M31.3352 21.75L21.7047 21.7501H15.182L14.1277 21.75C12.5097 21.75 11.051 22.7247 10.4319 24.2195L6.29057 34.2195C5.19985 36.8532 7.13556 39.75 9.98618 39.75H26.1818V38.7H25.0908C24.8014 38.7 24.5239 38.5841 24.3194 38.3777C24.1149 38.1715 24 37.8917 24 37.5999V32.6195C24 32.3278 24.1149 32.048 24.3194 31.8418C24.5239 31.6353 24.8014 31.5194 25.0908 31.5194H26.1818C26.1818 29.4774 26.1818 28.8 28.3636 26.6C28.3636 26.6 29.9747 25 32 25H33.0907V23.6029C32 23.5 31.3224 22.936 31.3224 22.2002C31.3224 22.0254 31.3267 21.877 31.3352 21.75Z" fill="#3D4653"/>
<path fill-rule="evenodd" clip-rule="evenodd" d="M36.0001 22C36.4822 22 36.9448 22.1896 37.2858 22.5273C37.6266 22.8649 37.8182 23.3228 37.8182 23.8001C37.8182 24.4661 37.4547 25.051 36.9092 25.357V26.5001H37.8182C39.5061 26.5001 41.1245 27.1638 42.318 28.3452C43.5114 29.5267 44.1819 31.1292 44.1819 32.7999H45.091C45.3321 32.7999 45.5634 32.8947 45.7338 33.0636C45.9042 33.2323 46 33.4613 46 33.7V36.3999C46 36.6386 45.9042 36.8676 45.7338 37.0363C45.5634 37.2052 45.3321 37.3 45.091 37.3H44.1819V38.1999C44.1819 38.6772 43.9903 39.1351 43.6493 39.4727C43.3083 39.8104 42.8459 40 42.3638 40H29.6362C29.1541 40 28.6917 39.8104 28.3507 39.4727C28.0097 39.1351 27.8181 38.6772 27.8181 38.1999V37.3H26.909C26.6679 37.3 26.4366 37.2052 26.2662 37.0363C26.0958 36.8676 26 36.6386 26 36.3999V33.7C26 33.4613 26.0958 33.2323 26.2662 33.0636C26.4366 32.8947 26.6679 32.7999 26.909 32.7999H27.8181C27.8181 31.1292 28.4886 29.5267 29.682 28.3452C30.8755 27.1639 32.494 26.5001 34.1818 26.5001H35.0908V25.357C34.5453 25.0509 34.1818 24.466 34.1818 23.8001C34.1818 23.3228 34.3734 22.8649 34.7142 22.5273C35.0552 22.1896 35.5179 22 36.0001 22ZM31.9092 31.9001C31.3063 31.9001 30.7283 32.1371 30.3021 32.5592C29.876 32.981 29.6364 33.5534 29.6364 34.15C29.6364 34.7468 29.876 35.3192 30.3021 35.741C30.7284 36.1631 31.3064 36.4 31.9092 36.4C32.512 36.4 33.09 36.1631 33.5162 35.741C33.9423 35.3192 34.1819 34.7468 34.1819 34.15C34.1819 33.5534 33.9423 32.981 33.5162 32.5592C33.0899 32.1371 32.5119 31.9001 31.9092 31.9001ZM40.091 31.9001C39.4881 31.9001 38.9102 32.1371 38.4839 32.5592C38.0578 32.981 37.8182 33.5534 37.8182 34.15C37.8182 34.7468 38.0578 35.3192 38.4839 35.741C38.9102 36.1631 39.4882 36.4 40.091 36.4C40.6938 36.4 41.2718 36.1631 41.698 35.741C42.1242 35.3192 42.3637 34.7468 42.3637 34.15C42.3637 33.5534 42.1242 32.981 41.698 32.5592C41.2717 32.1371 40.6937 31.9001 40.091 31.9001Z" fill="#5B6071"/>
</svg>
