<svg width="48" height="48" viewBox="0 0 48 48" fill="none" xmlns="http://www.w3.org/2000/svg">
<path fill-rule="evenodd" clip-rule="evenodd" d="M10 8.25C6.82436 8.25 4.25 10.8244 4.25 14V34C4.25 37.1756 6.82436 39.75 10 39.75H22V36.25H10C8.75736 36.25 7.75 35.2426 7.75 34V14C7.75 12.7574 8.75736 11.75 10 11.75H15.5678C16.0887 11.75 16.5934 11.9307 16.9959 12.2614L21.7825 16.1932C22.8111 17.0381 24.1011 17.5 25.4322 17.5H38C39.2426 17.5 40.25 18.5074 40.25 19.75V20H43.75V19.75C43.75 16.5744 41.1756 14 38 14H25.4322C24.9113 14 24.4066 13.8193 24.0041 13.4886L19.2175 9.55682C18.1889 8.71187 16.8989 8.25 15.5678 8.25H10Z" fill="#3D4653"/>
<path fill-rule="evenodd" clip-rule="evenodd" d="M24.0314 21.7501C24.0109 21.83 24 21.9137 24 22V39.75H9.98594C7.13532 39.75 5.1996 36.8532 6.29033 34.2195L10.4317 24.2196C11.0508 22.7247 12.5095 21.7501 14.1274 21.7501L15.1817 21.7501H21.7045L24.0314 21.7501Z" fill="#3D4653"/>
<path d="M25.6279 36.3644H29.1674L28.071 40.1121H25.6279V36.3644ZM25.6279 29.2382H31.252L30.1556 32.9877H25.6279V29.2382ZM25.6279 22.1121H33.3382L32.2402 25.8615H25.6279V22.1121ZM36.8277 22.1121H45.6279V25.8615H35.7297L36.8277 22.1121ZM34.7414 29.2382H45.6279V32.9877H33.645L34.7414 29.2382ZM32.6568 36.3644H45.6279V40.1121H31.5604L32.6568 36.3644Z" fill="#5B6071"/>
</svg>
