<svg width="48" height="48" viewBox="0 0 48 48" fill="none" xmlns="http://www.w3.org/2000/svg">
<path fill-rule="evenodd" clip-rule="evenodd" d="M10 8.25C6.82439 8.25 4.25003 10.8244 4.25003 14V34C4.25003 37.1756 6.82439 39.75 10 39.75H24V36.25H10C8.75739 36.25 7.75003 35.2426 7.75003 34V14C7.75003 12.7574 8.75739 11.75 10 11.75H15.5678C16.0887 11.75 16.5935 11.9307 16.996 12.2614L21.7825 16.1932C22.8111 17.0381 24.1011 17.5 25.4323 17.5H38C38.9797 17.5 39.8131 18.1261 40.122 19H43.7016C43.3341 16.1787 40.9215 14 38 14H25.4323C24.9114 14 24.4066 13.8193 24.0041 13.4886L19.2175 9.55682C18.1889 8.71187 16.899 8.25 15.5678 8.25H10Z" fill="#3D4653"/>
<path fill-rule="evenodd" clip-rule="evenodd" d="M28.0155 21.7501C27.3928 22.2998 27 23.104 27 24V39C27 39.259 27.0328 39.5103 27.0945 39.75H9.98594C7.13532 39.75 5.1996 36.8532 6.29033 34.2195L10.4317 24.2196C11.0508 22.7248 12.5095 21.7501 14.1274 21.7501L15.1817 21.7502H21.7045L28.0155 21.7501Z" fill="#3D4653"/>
<path d="M28 24.1111C28 22.9451 28.9451 22 30.1111 22H44.8889C46.0549 22 47 22.9451 47 24.1111V38.8889C47 40.0549 46.0549 41 44.8889 41H30.1111C28.9451 41 28 40.0549 28 38.8889V24.1111ZM29.7273 28.5257V39.2727H45.2727V28.5257H29.7273ZM45.2727 26.7983V23.7273H29.7273V26.7983H45.2727ZM32.3183 31.5017C32.3183 31.0237 32.7057 30.6363 33.1836 30.6363C33.6616 30.6363 34.049 31.0237 34.049 31.5017C34.049 31.9796 33.6616 32.367 33.1836 32.367C32.7057 32.367 32.3183 31.9796 32.3183 31.5017ZM35.7727 31.5017C35.7727 31.0237 36.1601 30.6363 36.638 30.6363C37.116 30.6363 37.5034 31.0237 37.5034 31.5017C37.5034 31.9796 37.116 32.367 36.638 32.367C36.1601 32.367 35.7727 31.9796 35.7727 31.5017ZM39.2273 31.5017C39.2273 31.0237 39.6147 30.6363 40.0927 30.6363C40.5706 30.6363 40.958 31.0237 40.958 31.5017C40.958 31.9796 40.5706 32.367 40.0927 32.367C39.6147 32.367 39.2273 31.9796 39.2273 31.5017Z" fill="#5B6071" stroke="#5B6071" stroke-width="0.5"/>
</svg>
