<svg width="48" height="48" viewBox="0 0 48 48" fill="none" xmlns="http://www.w3.org/2000/svg">
<path fill-rule="evenodd" clip-rule="evenodd" d="M10 8.25003C6.82436 8.25003 4.25 10.8244 4.25 14V34C4.25 37.1757 6.82436 39.75 10 39.75H23V36.25H10C8.75736 36.25 7.75 35.2427 7.75 34V14C7.75 12.7574 8.75736 11.75 10 11.75H15.5678C16.0887 11.75 16.5934 11.9308 16.9959 12.2614L21.7825 16.1932C22.8111 17.0382 24.1011 17.5 25.4322 17.5H38C39.1236 17.5 40.0548 18.3236 40.2229 19.4H43.7395C43.5586 16.3874 41.0581 14 38 14H25.4322C24.9113 14 24.4066 13.8193 24.0041 13.4887L19.2175 9.55685C18.1889 8.7119 16.8989 8.25003 15.5678 8.25003H10Z" fill="#3D4653"/>
<path fill-rule="evenodd" clip-rule="evenodd" d="M26.2271 21.7501C26.046 21.9964 25.9093 22.2693 25.8359 22.5724C25.7452 22.9576 25.7482 23.3015 25.751 23.6391C25.7515 23.698 25.752 23.7566 25.752 23.8152V26.9283C25.752 28.0275 25.2446 28.8444 24.5564 29.379C24.1686 29.6886 23.3412 29.9712 22.4 30.2268V31.633C23.2342 31.8184 24.0371 32.0693 24.4825 32.388C25.2197 32.9072 25.7512 33.6545 25.7512 34.6305V38.2661C25.7512 38.8217 25.8268 39.3163 26.0096 39.75H9.98624C7.13562 39.75 5.19991 36.8532 6.29063 34.2195L10.432 24.2195C11.0511 22.7247 12.5098 21.75 14.1278 21.75L15.182 21.7501H21.7048L26.2271 21.7501Z" fill="#3D4653"/>
<path fill-rule="evenodd" clip-rule="evenodd" d="M30.5836 22H32.4171V24.0002H30.5836V28.999C30.5836 29.5295 30.3905 30.0383 30.0466 30.4134C29.7028 30.7885 29.2364 30.9992 28.7502 30.9992C29.2364 30.9992 29.7028 31.2099 30.0466 31.5851C30.3905 31.9602 30.5836 32.4689 30.5836 32.9994V37.9998H32.4171V40H30.5836C29.6021 39.73 28.7502 39.1004 28.7502 37.9998V33.9995C28.7502 33.7368 28.7028 33.4767 28.6106 33.234C28.5185 32.9914 28.3834 32.7709 28.2132 32.5851C28.0429 32.3994 27.8408 32.2521 27.6184 32.1516C27.3959 32.051 27.1575 31.9993 26.9167 31.9993H26V29.9991H26.9167C27.1575 29.9991 27.3959 29.9474 27.6184 29.8469C27.8408 29.7464 28.0429 29.599 28.2132 29.4133C28.3834 29.2276 28.5185 29.0071 28.6106 28.7644C28.7028 28.5217 28.7502 28.2616 28.7502 27.999V24.0002C28.7502 23.4697 28.9433 22.9609 29.2872 22.5858C29.631 22.2107 30.0974 22 30.5836 22ZM43.4164 22C43.9026 22 44.369 22.2107 44.7128 22.5858C45.0567 22.9609 45.2498 23.4697 45.2498 24.0002V27.999C45.2498 28.5294 45.443 29.0382 45.7868 29.4133C46.1307 29.7884 46.597 29.9991 47.0833 29.9991H48V31.9993H47.0833C46.597 31.9993 46.1307 32.21 45.7868 32.5851C45.443 32.9602 45.2498 33.469 45.2498 33.9995V37.9998C45.2498 38.5303 45.0567 39.0391 44.7128 39.4142C44.369 39.7893 43.9026 40 43.4164 40H41.5829V37.9998H43.4164V32.9994C43.4164 32.4689 43.6095 31.9602 43.9534 31.5851C44.2972 31.2099 44.7636 30.9992 45.2498 30.9992C44.7636 30.9992 44.2972 30.7885 43.9534 30.4134C43.6095 30.0383 43.4164 29.5295 43.4164 28.999V24.0002H41.5829V22H43.4164ZM37.0007 33.9995C37.2438 33.9995 37.477 34.1048 37.6489 34.2924C37.8209 34.4799 37.9174 34.7343 37.9174 34.9996C37.9174 35.2648 37.8209 35.5192 37.6489 35.7067C37.477 35.8943 37.2438 35.9997 37.0007 35.9997C36.7576 35.9997 36.5244 35.8943 36.3525 35.7067C36.1806 35.5192 36.084 35.2648 36.084 34.9996C36.084 34.7343 36.1806 34.4799 36.3525 34.2924C36.5244 34.1048 36.7576 33.9995 37.0007 33.9995ZM33.3338 33.9995C33.5769 33.9995 33.8101 34.1048 33.982 34.2924C34.154 34.4799 34.2505 34.7343 34.2505 34.9996C34.2505 35.2648 34.154 35.5192 33.982 35.7067C33.8101 35.8943 33.5769 35.9997 33.3338 35.9997C33.0907 35.9997 32.8575 35.8943 32.6856 35.7067C32.5137 35.5192 32.4171 35.2648 32.4171 34.9996C32.4171 34.7343 32.5137 34.4799 32.6856 34.2924C32.8575 34.1048 33.0907 33.9995 33.3338 33.9995ZM40.6662 33.9995C40.9093 33.9995 41.1425 34.1048 41.3144 34.2924C41.4863 34.4799 41.5829 34.7343 41.5829 34.9996C41.5829 35.2648 41.4863 35.5192 41.3144 35.7067C41.1425 35.8943 40.9093 35.9997 40.6662 35.9997C40.5458 35.9997 40.4266 35.9738 40.3154 35.9235C40.2041 35.8733 40.1031 35.7996 40.018 35.7067C39.9328 35.6139 39.8653 35.5036 39.8192 35.3823C39.7732 35.2609 39.7495 35.1309 39.7495 34.9996C39.7495 34.8682 39.7732 34.7382 39.8192 34.6168C39.8653 34.4955 39.9328 34.3853 40.018 34.2924C40.1031 34.1995 40.2041 34.1259 40.3154 34.0756C40.4266 34.0253 40.5458 33.9995 40.6662 33.9995Z" fill="#5B6071"/>
</svg>
