<svg width="48" height="48" viewBox="0 0 48 48" fill="none" xmlns="http://www.w3.org/2000/svg">
<path fill-rule="evenodd" clip-rule="evenodd" d="M10 8.25C6.82436 8.25 4.25 10.8244 4.25 14V34C4.25 37.1756 6.82436 39.75 10 39.75H26V36.25H10C8.75736 36.25 7.75 35.2426 7.75 34V14C7.75 12.7574 8.75736 11.75 10 11.75H15.5678C16.0887 11.75 16.5934 11.9307 16.9959 12.2614L21.7825 16.1932C22.8111 17.0381 24.1011 17.5 25.4322 17.5H38C39.2426 17.5 40.25 18.5074 40.25 19.75V20H43.75V19.75C43.75 16.5744 41.1756 14 38 14H25.4322C24.9113 14 24.4066 13.8193 24.0041 13.4886L19.2175 9.55682C18.1889 8.71187 16.8989 8.25 15.5678 8.25H10Z" fill="#3D4653"/>
<path fill-rule="evenodd" clip-rule="evenodd" d="M40.0458 22H40.97C40.5865 21.8571 40.1726 21.771 39.737 21.7534C39.8441 21.8305 39.9471 21.9129 40.0458 22ZM35.0676 21.75L21.7048 21.7501H15.182L14.1278 21.75C12.5098 21.75 11.0511 22.7247 10.432 24.2195L6.29063 34.2194C5.19991 36.8531 7.13562 39.7499 9.98624 39.7499H29.9067C29.584 39.173 29.4 38.508 29.4 37.8C29.4 36.6728 29.8663 35.6544 30.6165 34.9274L30.3492 33.9473C28.4496 33.6365 27 31.9875 27 30C27 27.7909 28.7909 26 31 26C31.6009 26 32.1708 26.1325 32.6822 26.3698L33.48 25.8C33.4276 25.5415 33.4 25.274 33.4 25C33.4 23.6612 34.0577 22.4761 35.0676 21.75Z" fill="#3D4653"/>
<path fill-rule="evenodd" clip-rule="evenodd" d="M37.1688 22.0128C36.6949 22.0587 36.239 22.2233 35.8404 22.4925C35.4418 22.7616 35.1125 23.1272 34.881 23.5576C34.6494 23.988 34.5226 24.4703 34.5115 24.9628C34.5003 25.4553 34.6052 25.9432 34.817 26.3843L31.5237 28.9305C31.2916 28.7855 31.0181 28.7283 30.7498 28.7687C30.4815 28.8092 30.2351 28.9448 30.0526 29.1524C29.8702 29.36 29.763 29.6267 29.7493 29.907C29.7357 30.1873 29.8165 30.4638 29.9779 30.6894C30.1393 30.9149 30.3713 31.0754 30.6343 31.1436C30.8973 31.2117 31.175 31.1833 31.42 31.0631C31.665 30.9429 31.8621 30.7384 31.9777 30.4845C32.0933 30.2306 32.1201 29.9431 32.0536 29.671L36.1309 26.5702C35.5937 26.0474 35.3134 25.1891 35.5528 24.4124C35.6968 23.951 35.9941 23.5573 36.3919 23.3013C36.7897 23.0453 37.2623 22.9435 37.7257 23.014C38.1892 23.0844 38.6135 23.3226 38.9234 23.6863C39.2332 24.0499 39.4086 24.5154 39.4183 25.0002L40.3672 25.0198C40.3655 24.5992 40.2792 24.1836 40.114 23.7993C39.9487 23.415 39.708 23.0706 39.4072 22.7878C39.1064 22.505 38.7521 22.29 38.3667 22.1566C37.9814 22.0232 37.5734 21.9742 37.1688 22.0128ZM37.525 23.9409C37.3429 23.9404 37.1632 23.9838 37.0001 24.0675C36.8369 24.1512 36.6948 24.2729 36.5849 24.4232C36.4751 24.5735 36.4004 24.7482 36.3669 24.9334C36.3334 25.1187 36.3419 25.3094 36.3918 25.4907C36.4417 25.6719 36.5316 25.8387 36.6544 25.9779C36.7772 26.117 36.9296 26.2247 37.0995 26.2924C37.2694 26.3602 37.4522 26.3862 37.6334 26.3683C37.8147 26.3504 37.9894 26.2892 38.1439 26.1894L42.2459 29.2796C42.5671 28.589 43.2707 28.0511 44.0605 28.0511C44.5318 28.051 44.9879 28.2245 45.347 28.5405C45.7061 28.8566 45.9448 29.2946 46.0205 29.7762C46.0962 30.2578 46.0038 30.7516 45.76 31.1692C45.5162 31.5868 45.1368 31.9009 44.6896 32.0554L44.9612 33.0014C45.3825 32.8613 45.7678 32.6244 46.0883 32.3086C46.4088 31.9927 46.6561 31.6059 46.8119 31.1772C46.9678 30.7484 47.0279 30.2887 46.988 29.8325C46.9481 29.3763 46.8091 28.9353 46.5814 28.5425C46.3538 28.1497 46.0433 27.8153 45.6732 27.5641C45.3031 27.313 44.8829 27.1516 44.4442 27.0922C44.0054 27.0327 43.5593 27.0767 43.1392 27.2207C42.7191 27.3648 42.3359 27.6052 42.0182 27.9241L38.668 25.4399C38.7084 25.2612 38.7093 25.0754 38.6708 24.8963C38.6322 24.7172 38.5551 24.5494 38.4453 24.4054C38.3355 24.2614 38.1957 24.1448 38.0364 24.0644C37.877 23.984 37.7022 23.9418 37.525 23.9409ZM30.9223 26.8951C30.4617 26.8887 30.0063 26.9965 29.5942 27.2094C29.182 27.4223 28.825 27.7342 28.5531 28.1191C28.1001 28.7671 27.9144 29.5749 28.0368 30.3646C28.1592 31.1544 28.5796 31.8615 29.2056 32.3305C29.845 32.814 30.6085 32.9908 31.3325 32.8896L32.6317 36.9091C32.4988 37.0277 32.3934 37.1759 32.3235 37.3426C32.2536 37.5093 32.2209 37.6901 32.2279 37.8717C32.2349 38.0533 32.2815 38.2309 32.364 38.3912C32.4466 38.5516 32.563 38.6906 32.7047 38.7979C32.8282 38.8921 32.9685 38.9602 33.1175 38.9983C33.2664 39.0364 33.4212 39.0437 33.5729 39.0199C33.7246 38.996 33.8703 38.9414 34.0016 38.8593C34.1329 38.7771 34.2473 38.669 34.3382 38.541C34.4279 38.4127 34.4923 38.2673 34.5276 38.1132C34.563 37.9591 34.5686 37.7993 34.5442 37.6429C34.5198 37.4866 34.4658 37.3367 34.3854 37.202C34.305 37.0672 34.1996 36.9502 34.0755 36.8577C33.8995 36.7248 33.6912 36.6453 33.474 36.628L31.912 31.6671C31.2654 32.0237 30.3968 32.0252 29.7618 31.5462C29.552 31.3892 29.3742 31.1911 29.2385 30.963C29.1028 30.7349 29.0118 30.4813 28.9707 30.2168C28.9296 29.9523 28.9393 29.6821 28.9991 29.4214C29.059 29.1608 29.1678 28.9149 29.3195 28.6978C29.8304 27.974 30.7209 27.705 31.5062 27.9665L31.8201 27.0477C31.5281 26.9465 31.223 26.8966 30.9223 26.8951ZM44.1028 28.8897C43.911 28.8725 43.718 28.9045 43.5409 28.9829C43.3639 29.0613 43.2082 29.1838 43.0878 29.3393C42.9674 29.4949 42.8859 29.6788 42.8506 29.8748C42.8153 30.0708 42.8272 30.2727 42.8853 30.4628C42.9522 30.6756 43.0756 30.8647 43.2415 31.0083L41.662 35.9616C42.3919 36.0613 43.0985 36.5872 43.3393 37.3578C43.4181 37.613 43.4476 37.8818 43.4261 38.1488C43.4045 38.4158 43.3324 38.6757 43.2138 38.9139C43.0952 39.152 42.9324 39.3636 42.7348 39.5366C42.5372 39.7096 42.3086 39.8406 42.062 39.9222C41.6689 40.055 41.2455 40.0566 40.8515 39.9267C40.4575 39.7968 40.1129 39.542 39.8665 39.1983L39.0826 39.7514C39.4453 40.269 39.9572 40.6542 40.5447 40.8519C41.1322 41.0495 41.7651 41.0494 42.3525 40.8515C42.7173 40.7307 43.0555 40.5366 43.3478 40.2804C43.6402 40.0242 43.8808 39.7109 44.0561 39.3584C44.2314 39.0059 44.3379 38.6211 44.3694 38.226C44.401 37.8308 44.357 37.4332 44.24 37.0556C44.0083 36.3103 43.5036 35.6886 42.8342 35.3239L44.0897 31.2923C44.2647 31.2768 44.4342 31.2209 44.5856 31.1286C44.737 31.0363 44.8665 30.9101 44.9645 30.7591C45.0626 30.6082 45.1267 30.4365 45.1521 30.2565C45.1775 30.0766 45.1637 29.893 45.1115 29.7193C45.041 29.4936 44.9077 29.2944 44.7282 29.1468C44.5488 28.9992 44.3312 28.9098 44.1028 28.8897ZM31.0595 36.0946C30.7995 36.4628 30.6233 36.8871 30.5442 37.3359C30.4651 37.7846 30.4852 38.246 30.6029 38.6855C30.7206 39.1251 30.9329 39.5314 31.2238 39.8739C31.5148 40.2164 31.8769 40.4863 32.283 40.6634C32.6891 40.8405 33.1286 40.9201 33.5686 40.8963C34.0087 40.8725 34.4378 40.746 34.8239 40.5261C35.2099 40.3062 35.5429 39.9987 35.7978 39.6267C36.0527 39.2546 36.223 38.8277 36.2958 38.3778L40.3935 38.337C40.4982 38.595 40.6861 38.8074 40.9252 38.938C41.1643 39.0686 41.4398 39.1093 41.7046 39.0531C41.9694 38.9969 42.2072 38.8473 42.3775 38.6299C42.5477 38.4125 42.6397 38.1407 42.638 37.8609C42.6362 37.5811 42.5407 37.3105 42.3677 37.0955C42.1948 36.8804 41.9551 36.7341 41.6896 36.6815C41.4241 36.6289 41.1491 36.6733 40.9117 36.8071C40.6743 36.9409 40.4891 37.1559 40.3876 37.4153L35.344 37.4289C35.4783 38.1769 35.2185 39.0382 34.5849 39.5172C34.207 39.8046 33.7425 39.9433 33.2747 39.9082C32.807 39.8732 32.3666 39.6667 32.0326 39.3259C31.6986 38.9851 31.4929 38.5323 31.4523 38.0486C31.4118 37.565 31.5391 37.0822 31.8113 36.6869L31.0595 36.0946Z" fill="#5B6071"/>
</svg>
