<svg width="48" height="48" viewBox="0 0 48 48" fill="none" xmlns="http://www.w3.org/2000/svg">
<path fill-rule="evenodd" clip-rule="evenodd" d="M10 8.25003C6.82436 8.25003 4.25 10.8244 4.25 14V34C4.25 37.1757 6.82436 39.75 10 39.75H24V36.25H10C8.75736 36.25 7.75 35.2427 7.75 34V14C7.75 12.7574 8.75736 11.75 10 11.75H15.5678C16.0887 11.75 16.5934 11.9308 16.9959 12.2614L21.7825 16.1932C22.8111 17.0382 24.1011 17.5 25.4322 17.5H38C39.2426 17.5 40.25 18.5074 40.25 19.75V20H43.75V19.75C43.75 16.5744 41.1756 14 38 14H25.4322C24.9113 14 24.4066 13.8193 24.0041 13.4887L19.2175 9.55685C18.1889 8.7119 16.8989 8.25003 15.5678 8.25003H10Z" fill="#3D4653"/>
<path fill-rule="evenodd" clip-rule="evenodd" d="M31.2591 21.75L26 34.6667H31.4545L32.5455 32.1H35.4754L35.5266 32.3271L31.9716 35.7915L36.3974 39.75H9.98606C7.13544 39.75 5.19972 36.8532 6.29045 34.2195L10.4318 24.2196C11.0509 22.7247 12.5096 21.75 14.1276 21.7501L15.1819 21.7501H21.7046L31.2591 21.75Z" fill="#3D4653"/>
<path fill-rule="evenodd" clip-rule="evenodd" d="M37.7275 34H39.7634L34.787 22H32.9764L28 34H30.0359L31.1261 31.2315H36.6166L37.7275 34ZM31.8655 29.3826L33.8808 24.2891L35.8961 29.3826H31.8655ZM46.6278 29.9288L38.7523 37.3962L35.1791 34L33.8035 35.3011L38.7609 40L48 31.2315L46.6278 29.9288Z" fill="#5B6071"/>
</svg>
