<svg width="48" height="48" viewBox="0 0 48 48" fill="none" xmlns="http://www.w3.org/2000/svg">
<path fill-rule="evenodd" clip-rule="evenodd" d="M10 8.25C6.82436 8.25 4.25 10.8244 4.25 14V34C4.25 37.1756 6.82436 39.75 10 39.75H23V36.25H10C8.75736 36.25 7.75 35.2426 7.75 34V14C7.75 12.7574 8.75736 11.75 10 11.75H15.5678C16.0887 11.75 16.5934 11.9307 16.9959 12.2614L21.7825 16.1932C22.8111 17.0381 24.1011 17.5 25.4322 17.5H38C39.2426 17.5 40.25 18.5074 40.25 19.75V20H43.75V19.75C43.75 16.5744 41.1756 14 38 14H25.4322C24.9113 14 24.4066 13.8193 24.0041 13.4886L19.2175 9.55682C18.1889 8.71187 16.8989 8.25 15.5678 8.25H10Z" fill="#3D4653"/>
<path fill-rule="evenodd" clip-rule="evenodd" d="M41.2239 22.1049C40.7242 21.8779 40.1656 21.75 39.5692 21.75L30.5938 21.75C30.7796 21.9549 30.9414 22.1819 31.0748 22.4266H41.0252C41.0857 22.3156 41.1521 22.2082 41.2239 22.1049ZM24.5 24.1C24.5 23.1955 24.8431 22.3712 25.4061 21.7501L21.7047 21.7501H15.182L14.1277 21.7501C12.5097 21.75 11.051 22.7247 10.4319 24.2196L6.29057 34.2195C5.19985 36.8532 7.13556 39.75 9.98618 39.75H24.5173C24.6381 38.5328 25.3825 37.4991 26.4265 36.9728V27.2272C25.2838 26.6511 24.5 25.4671 24.5 24.1Z" fill="#3D4653"/>
<rect x="28.4266" y="24.4266" width="15.2" height="15.2" stroke="#5B6071" stroke-width="2"/>
<rect x="25.5999" y="21.6" width="5" height="5" rx="2.5" fill="#5B6071"/>
<rect x="41.6" y="21.6" width="5" height="5" rx="2.5" fill="#5B6071"/>
<rect x="41.6" y="37.6" width="5" height="5" rx="2.5" fill="#5B6071"/>
<rect x="25.5999" y="37.6" width="5" height="5" rx="2.5" fill="#5B6071"/>
</svg>
