<svg width="48" height="48" viewBox="0 0 48 48" fill="none" xmlns="http://www.w3.org/2000/svg">
<path fill-rule="evenodd" clip-rule="evenodd" d="M10 8.25C6.82436 8.25 4.25 10.8244 4.25 14V34C4.25 37.1756 6.82436 39.75 10 39.75H26V36.25H10C8.75736 36.25 7.75 35.2426 7.75 34V14C7.75 12.7574 8.75736 11.75 10 11.75H15.5678C16.0887 11.75 16.5934 11.9307 16.9959 12.2614L21.7825 16.1932C22.8111 17.0381 24.1011 17.5 25.4322 17.5H38C39.2426 17.5 40.25 18.5074 40.25 19.75V20H43.75V19.75C43.75 16.5744 41.1756 14 38 14H25.4322C24.9113 14 24.4066 13.8193 24.0041 13.4886L19.2175 9.55682C18.1889 8.71187 16.8989 8.25 15.5678 8.25H10Z" fill="#3D4653"/>
<path fill-rule="evenodd" clip-rule="evenodd" d="M32.5145 21.7501L21.7045 21.7501H15.1817L14.1274 21.7501C12.5095 21.7501 11.0508 22.7247 10.4317 24.2196L6.29033 34.2195C5.1996 36.8532 7.13532 39.75 9.98594 39.75H28.0029V30.4834C28.0028 28.727 27.9547 28.0665 28.2515 27.8181C28.4307 27.6681 28.7357 27.6684 29.2528 27.6684H30.5032V25.5849C30.5029 24.8998 30.6643 24.2214 30.9783 23.5884C31.2922 22.9554 31.7525 22.3802 32.3329 21.8957C32.3923 21.8461 32.4529 21.7976 32.5145 21.7501Z" fill="#3D4653"/>
<path fill-rule="evenodd" clip-rule="evenodd" d="M38 37.2378C38.2628 37.2378 38.5229 37.1885 38.7657 37.0927C39.0084 36.997 39.229 36.8566 39.4148 36.6797C39.6006 36.5027 39.748 36.2927 39.8485 36.0615C39.9491 35.8303 40.0008 35.5825 40.0008 35.3323C40.0008 34.2759 39.1008 33.4283 38 33.4283C37.7372 33.4283 37.4771 33.4776 37.2343 33.5734C36.9916 33.6692 36.771 33.8095 36.5852 33.9865C36.3994 34.1634 36.252 34.3735 36.1515 34.6047C36.0509 34.8358 35.9992 35.0836 35.9992 35.3339C35.9996 35.839 36.2106 36.3232 36.5858 36.6802C36.961 37.0372 37.4696 37.2378 38 37.2378ZM44.0008 28.6661C44.5312 28.6666 45.0397 28.8675 45.4146 29.2248C45.7894 29.5821 46 30.0666 46 30.5717V40.0945C46 40.3447 45.9482 40.5925 45.8477 40.8237C45.7471 41.0549 45.5998 41.2649 45.414 41.4419C45.2282 41.6188 45.0076 41.7592 44.7649 41.855C44.5221 41.9507 44.2619 42 43.9992 42H31.9992C31.4688 41.9996 30.9603 41.7986 30.5854 41.4413C30.2106 41.084 30 40.5996 30 40.0945V30.5717C30 29.5137 30.9 28.6661 31.9992 28.6661H32.9996V26.7638C32.9994 26.1383 33.1285 25.5189 33.3797 24.9409C33.6309 24.3629 33.9992 23.8378 34.4636 23.3954C34.9279 22.953 35.4792 22.6021 36.086 22.3627C36.6928 22.1232 37.3432 22 38 22C38.6568 22 39.3072 22.1232 39.914 22.3627C40.5208 22.6021 41.0721 22.953 41.5364 23.3954C42.0008 23.8378 42.3691 24.3629 42.6203 24.9409C42.8715 25.5189 43.0006 26.1383 43.0004 26.7638V28.6677H44.0008M38 23.9055C37.6059 23.9055 37.2158 23.9795 36.8517 24.1231C36.4877 24.2668 36.1569 24.4774 35.8784 24.7428C35.5998 25.0082 35.3789 25.3233 35.2283 25.6701C35.0776 26.0169 35.0002 26.3885 35.0004 26.7638V28.6677H40.9996V26.7638C40.9998 26.3885 40.9224 26.0169 40.7717 25.6701C40.6211 25.3233 40.4002 25.0082 40.1216 24.7428C39.8431 24.4774 39.5123 24.2668 39.1483 24.1231C38.7842 23.9795 38.3941 23.9055 38 23.9055Z" fill="#5B6071"/>
</svg>
