<svg width="48" height="48" viewBox="0 0 48 48" fill="none" xmlns="http://www.w3.org/2000/svg">
<path fill-rule="evenodd" clip-rule="evenodd" d="M10 8.25003C6.82439 8.25003 4.25003 10.8244 4.25003 14V34C4.25003 37.1757 6.82439 39.75 10 39.75H24V36.25H10C8.75739 36.25 7.75003 35.2427 7.75003 34V14C7.75003 12.7574 8.75739 11.75 10 11.75H15.5678C16.0887 11.75 16.5935 11.9308 16.996 12.2614L21.7825 16.1932C22.8111 17.0382 24.1011 17.5 25.4323 17.5H38C38.9797 17.5 39.8131 18.1261 40.122 19H43.7016C43.334 16.1788 40.9215 14 38 14H25.4323C24.9114 14 24.4066 13.8193 24.0041 13.4887L19.2175 9.55685C18.1889 8.7119 16.899 8.25003 15.5678 8.25003H10Z" fill="#3D4653"/>
<path fill-rule="evenodd" clip-rule="evenodd" d="M30.9 38.4H33.2L33.7806 39.75H9.98618C7.13556 39.75 5.19985 36.8532 6.29057 34.2195L10.4319 24.2196C11.051 22.7247 12.5097 21.75 14.1277 21.7501L15.182 21.7501H21.7047L36.6599 21.75L34.35 22.3L33.43 24.6H30.9L24 31.5L30.9 38.4Z" fill="#3D4653"/>
<path fill-rule="evenodd" clip-rule="evenodd" d="M34.1691 36.7778H31.3332L26 31.5L31.3332 26.2222H34.1691L35.5911 23.8364L42.9693 22L45 29.1141L43.578 31.5L45 33.8859L42.9693 41L35.5927 39.1636L34.1691 36.7778ZM34.3209 36.5139L39.8937 37.9699L36.6791 32.5556H30.2467L34.3209 36.5139ZM41.7854 36.9144L43.2841 31.5L41.7854 26.0856L38.558 31.5L41.7854 36.9144ZM34.3209 26.4861L30.2467 30.4444H36.6791L39.8953 25.0301L34.3209 26.4861Z" fill="#5B6071"/>
</svg>
