<svg width="48" height="48" viewBox="0 0 48 48" fill="none" xmlns="http://www.w3.org/2000/svg">
<path fill-rule="evenodd" clip-rule="evenodd" d="M10 8.25003C6.82436 8.25003 4.25 10.8244 4.25 14V34C4.25 37.1757 6.82436 39.75 10 39.75H26V36.25H10C8.75736 36.25 7.75 35.2427 7.75 34V14C7.75 12.7574 8.75736 11.75 10 11.75H15.5678C16.0887 11.75 16.5934 11.9308 16.9959 12.2614L21.7825 16.1932C22.8111 17.0382 24.1011 17.5 25.4322 17.5H38C39.2426 17.5 40.25 18.5074 40.25 19.75V20H43.75V19.75C43.75 16.5744 41.1756 14 38 14H25.4322C24.9113 14 24.4066 13.8193 24.0041 13.4887L19.2175 9.55685C18.1889 8.7119 16.8989 8.25003 15.5678 8.25003H10Z" fill="#3D4653"/>
<path fill-rule="evenodd" clip-rule="evenodd" d="M28.6929 39.75L26.5834 38.457C26.4069 38.3558 26.2591 38.2038 26.1563 38.0175C26.0534 37.8311 25.9994 37.6176 26 37.4V26.5999C26 26.1443 26.23 25.7477 26.5834 25.543L32.7714 21.7501L21.7045 21.7501H15.1817L14.1274 21.7501C12.5095 21.75 11.0508 22.7247 10.4317 24.2196L6.29033 34.2195C5.1996 36.8532 7.13532 39.75 9.98594 39.75H28.6929Z" fill="#3D4653"/>
<path fill-rule="evenodd" clip-rule="evenodd" d="M37.3017 22.3835C37.2052 22.3987 37.0121 22.4674 36.8727 22.5285C36.4581 22.7194 28.9161 26.9865 28.7731 27.1087C28.4478 27.3987 28.3406 28.0094 28.5336 28.4522C28.5872 28.5743 28.6802 28.7079 28.7481 28.7613C28.891 28.872 36.7727 32.6621 37.0908 32.769C37.3517 32.8606 37.702 32.8453 38.0165 32.727C38.3633 32.5972 46.1233 28.8644 46.2449 28.769C46.4236 28.6278 46.5237 28.3682 46.538 28.0094C46.5558 27.6049 46.4629 27.3262 46.2484 27.1278C46.0983 26.9942 38.4169 22.6392 38.038 22.4751C37.7985 22.372 37.5447 22.3377 37.3017 22.3835ZM41.2861 25.5149C43.4557 26.7591 45.2326 27.9031 45.2326 27.9184C45.2362 27.9336 43.6104 28.7537 41.4444 29.7308L37.5018 31.5018L33.5771 29.7385C31.4182 28.7652 29.8115 27.9151 29.8079 27.896C29.8043 27.8731 31.4039 26.8797 33.5628 25.6392C35.7182 24.395 37.4875 23.3759 37.4875 23.3759C37.4875 23.3759 39.12 24.2706 41.2861 25.5149Z" fill="#5B6071"/>
<path fill-rule="evenodd" clip-rule="evenodd" d="M37.4758 33.1949C37.3074 33.1952 37.1422 33.1697 36.9864 33.1152C36.9265 33.095 36.8912 33.0774 36.8146 33.0431C36.7371 33.0084 36.6351 32.9618 36.5113 32.9044C36.2635 32.7896 35.9285 32.6321 35.535 32.4458C34.7482 32.0733 33.7284 31.5859 32.7139 31.0983C31.6995 30.6108 30.6906 30.1231 29.9257 29.7501C29.5433 29.5636 29.2219 29.4059 28.9906 29.2907C28.8749 29.2331 28.7819 29.1862 28.7137 29.151C28.6796 29.1334 28.6518 29.1189 28.6288 29.1063C28.6058 29.0938 28.6096 29.1035 28.5481 29.0559C28.5474 29.0553 28.5467 29.0548 28.546 29.0542C28.3793 28.9231 28.3025 28.7827 28.2252 28.6066C28.2251 28.6064 28.2253 28.6069 28.2252 28.6066C27.9612 28.0012 28.0772 27.2554 28.5547 26.8296C28.5566 26.8279 28.5584 26.8263 28.5603 26.8247C28.6129 26.7797 28.6124 26.7862 28.6344 26.7723C28.6564 26.7584 28.6831 26.7421 28.7159 26.7223C28.7815 26.6829 28.8708 26.6303 28.9819 26.5655C29.204 26.4359 29.5124 26.2582 29.8797 26.0478C30.6142 25.6272 31.5836 25.0762 32.5616 24.523C33.5396 23.9697 34.526 23.4145 35.2945 22.9852C35.6787 22.7706 36.0083 22.5875 36.2558 22.4517C36.5032 22.3158 36.6466 22.2366 36.7379 22.1945C36.7398 22.1937 36.7416 22.1929 36.7435 22.1921C36.9012 22.123 37.0721 22.0527 37.249 22.0242C37.5586 21.9673 37.8748 22.0128 38.1653 22.1378C38.1651 22.1377 38.1656 22.1379 38.1653 22.1378C38.2701 22.1831 38.4008 22.2572 38.6489 22.393C38.897 22.5289 39.2292 22.7133 39.6176 22.9303C40.3943 23.3643 41.395 23.9284 42.3887 24.4916C43.3824 25.0549 44.3689 25.6171 45.1171 26.0473C45.4911 26.2624 45.8055 26.4444 46.0322 26.5775C46.1456 26.6441 46.2369 26.6983 46.3042 26.7392C46.3379 26.7597 46.3654 26.7767 46.3883 26.7914C46.4112 26.8061 46.4121 26.7999 46.4666 26.8484C46.4682 26.8499 46.4699 26.8514 46.4716 26.8529C46.7683 27.1275 46.899 27.5545 46.8783 28.0259C46.8613 28.4489 46.7376 28.8322 46.4476 29.0614C46.4473 29.0617 46.4478 29.0612 46.4476 29.0614C46.3763 29.1174 46.3874 29.1011 46.3654 29.113C46.3434 29.1249 46.3168 29.1388 46.2838 29.1557C46.2178 29.1895 46.1273 29.235 46.0143 29.291C45.7884 29.4032 45.4735 29.5575 45.0982 29.7404C44.3473 30.1062 43.3548 30.586 42.3551 31.0668C41.3555 31.5477 40.3489 32.0296 39.57 32.3997C39.1805 32.5847 38.848 32.7417 38.6012 32.8569C38.3546 32.9721 38.2263 33.034 38.1296 33.0702C37.9156 33.1507 37.6931 33.1944 37.4758 33.1949ZM37.4273 32.461C37.5752 32.4657 37.7481 32.4424 37.9034 32.384C37.9032 32.384 37.9035 32.3839 37.9034 32.384C37.8933 32.3877 38.0838 32.3045 38.3282 32.1903C38.5726 32.0762 38.9042 31.9196 39.2929 31.7349C40.0703 31.3656 41.0763 30.884 42.0752 30.4035C43.0741 29.923 44.066 29.4435 44.8152 29.0785C45.1898 28.896 45.5039 28.7421 45.727 28.6313C45.8385 28.5759 45.9275 28.5312 45.9887 28.4999C46.0174 28.4851 46.0387 28.4739 46.0534 28.466C46.1177 28.4071 46.1865 28.2719 46.1976 27.994C46.1976 27.9945 46.1976 27.9934 46.1976 27.994C46.212 27.6681 46.1603 27.5341 46.0379 27.4154C46.0376 27.4152 46.0382 27.4156 46.0379 27.4154C46.0229 27.4058 45.998 27.3902 45.9671 27.3714C45.9052 27.3338 45.8157 27.2806 45.7039 27.2149C45.4804 27.0837 45.167 26.9023 44.7939 26.6878C44.0478 26.2587 43.062 25.6969 42.0692 25.1342C41.0764 24.5715 40.0764 24.0077 39.3016 23.5748C38.9142 23.3584 38.583 23.1746 38.3379 23.0403C38.093 22.9062 37.9005 22.8081 37.9101 22.8123C37.7238 22.7322 37.535 22.7089 37.3608 22.7417C37.3577 22.7423 37.3547 22.7428 37.3516 22.7433C37.3366 22.7457 37.126 22.8113 37.0053 22.8638C36.9901 22.8709 36.8101 22.9653 36.5673 23.0986C36.3223 23.2331 35.9936 23.4157 35.6102 23.6298C34.8434 24.0582 33.8577 24.6131 32.8805 25.1658C31.9033 25.7186 30.9345 26.2692 30.2017 26.6889C29.8352 26.8988 29.5277 27.076 29.3085 27.2039C29.1988 27.2678 29.111 27.3196 29.0502 27.3562C29.0199 27.3744 28.9963 27.3889 28.9813 27.3983C28.8149 27.5619 28.7229 28.0238 28.8422 28.2982C28.8665 28.3532 28.9404 28.4444 28.9527 28.4658C28.9678 28.4739 28.9847 28.4829 29.01 28.4959C29.0731 28.5285 29.1644 28.5745 29.2785 28.6313C29.5068 28.745 29.8272 28.9023 30.2087 29.0884C30.9718 29.4605 31.98 29.9478 32.9935 30.435C34.0071 30.9221 35.0262 31.4092 35.8112 31.7808C36.2037 31.9666 36.5377 32.1236 36.7824 32.237C36.9048 32.2937 37.0049 32.3395 37.0778 32.3721C37.1508 32.4047 37.2145 32.4293 37.193 32.422C37.1944 32.4225 37.1958 32.423 37.1972 32.4235C37.2588 32.4451 37.3386 32.4581 37.4273 32.461ZM37.5469 31.8624C37.4868 31.8709 37.4256 31.8622 37.3697 31.8371L33.445 30.0738C33.4449 30.0737 33.4451 30.0738 33.445 30.0738C32.3607 29.5849 31.4152 29.1272 30.7396 28.7888C30.4017 28.6196 30.1314 28.4803 29.9438 28.3812C29.8499 28.3317 29.7771 28.2924 29.7249 28.2634C29.6989 28.2489 29.6785 28.2373 29.6599 28.2261C29.6506 28.2206 29.6425 28.2157 29.629 28.2065C29.6223 28.2019 29.6149 28.1972 29.5986 28.1834C29.5904 28.1766 29.5802 28.1684 29.5615 28.1475C29.5429 28.1267 29.501 28.1122 29.4738 27.9674C29.4731 27.9636 29.4725 27.9597 29.4719 27.9559C29.4486 27.8069 29.4961 27.7434 29.5161 27.7079C29.5361 27.6724 29.5494 27.658 29.5596 27.6464C29.5799 27.6231 29.5893 27.6158 29.5975 27.6087C29.614 27.5944 29.6229 27.5881 29.6328 27.5808C29.6527 27.5662 29.6731 27.5523 29.6991 27.5349C29.7511 27.5002 29.8231 27.4539 29.916 27.3952C30.1019 27.2777 30.3701 27.1119 30.7061 26.908C31.3777 26.5003 32.3191 25.9408 33.4008 25.3193C35.5559 24.0752 37.3258 23.0558 37.3258 23.0558C37.3744 23.0278 37.4287 23.0128 37.484 23.0122C37.5393 23.0116 37.5939 23.0254 37.643 23.0523C37.643 23.0523 39.2783 23.9486 41.4473 25.1944C42.5363 25.819 43.5259 26.4178 44.2441 26.8629C44.6032 27.0855 44.8944 27.2696 45.0969 27.3997C45.1981 27.4648 45.277 27.5162 45.3324 27.5531C45.3601 27.5716 45.3816 27.5861 45.3996 27.5987C45.4086 27.605 45.4161 27.6103 45.4274 27.619C45.433 27.6234 45.4388 27.6276 45.4526 27.6401C45.4595 27.6464 45.4679 27.6534 45.4856 27.6745C45.4945 27.685 45.506 27.6983 45.5229 27.7276C45.537 27.7521 45.5626 27.7874 45.5707 27.8671C45.6038 28.0581 45.5179 28.1217 45.4936 28.1525C45.4679 28.1853 45.4549 28.1949 45.4447 28.2036C45.4243 28.221 45.4164 28.2256 45.409 28.2305C45.3943 28.2404 45.3863 28.2449 45.3769 28.2503C45.3583 28.2611 45.3381 28.2721 45.3121 28.286C45.2602 28.3137 45.1873 28.3514 45.0932 28.3991C44.905 28.4947 44.6332 28.6298 44.2934 28.795C43.6139 29.1254 42.6634 29.5759 41.577 30.0659C41.5769 30.066 41.5772 30.0659 41.577 30.0659L37.634 31.8371C37.6061 31.8496 37.5768 31.8581 37.5469 31.8624ZM37.5018 31.1072L41.3122 29.3955C42.3917 28.9086 43.337 28.4605 44.0109 28.1329C44.1817 28.0498 44.3522 27.966 44.5224 27.8813C44.3162 27.7504 44.1093 27.6207 43.9018 27.4921C43.1892 27.0504 42.2054 26.4551 41.1247 25.8353C41.1247 25.8353 41.1248 25.8354 41.1247 25.8353C39.2599 24.7641 37.8605 23.9907 37.4911 23.7872C37.3565 23.8648 35.7932 24.7651 33.7248 25.9592C33.7246 25.9593 33.725 25.9591 33.7248 25.9592C32.6478 26.578 31.7095 27.1357 31.0427 27.5404C30.8649 27.6483 30.6876 27.7571 30.5107 27.8668C30.6596 27.9435 30.827 28.029 31.0288 28.1301C31.697 28.4648 32.6347 28.9188 33.7091 29.4032L37.5018 31.1072ZM44.9023 28.0066C44.8956 27.9777 44.8921 27.9481 44.8921 27.9184C44.8921 27.9376 44.8933 27.9542 44.8949 27.9697C44.897 27.9821 44.8995 27.9944 44.9023 28.0066Z" fill="#5B6071"/>
<path fill-rule="evenodd" clip-rule="evenodd" d="M28.3656 31.4715C28.4157 32.0173 28.5408 32.4142 28.7195 32.6127C28.816 32.7158 29.631 33.1242 32.9123 34.6967C35.1499 35.7692 37.0479 36.6661 37.1265 36.689C37.3696 36.7578 37.6985 36.7387 37.9773 36.6394C38.2561 36.5402 45.9875 32.8417 46.177 32.7158C46.3486 32.6051 46.5273 32.1852 46.5952 31.7348C46.6917 31.1318 46.7346 31.1547 46.1269 31.4791C45.8338 31.6318 43.775 32.6547 41.5517 33.7501L37.5019 35.7425L33.4556 33.7501C31.2288 32.6547 29.1663 31.6318 28.8732 31.4753L28.3406 31.1929L28.3656 31.4715Z" fill="#5B6071"/>
<path fill-rule="evenodd" clip-rule="evenodd" d="M37.4256 37.0962C37.2937 37.0939 37.1638 37.0758 37.0394 37.0407C37.0386 37.0404 37.0378 37.0402 37.037 37.04C36.9798 37.0233 36.9852 37.0214 36.9634 37.012C36.9416 37.0026 36.9149 36.9907 36.882 36.9759C36.8162 36.9462 36.7262 36.9047 36.6137 36.8524C36.3885 36.7478 36.0736 36.5998 35.6912 36.4191C34.9264 36.0575 33.8921 35.565 32.7729 35.0285C31.1318 34.2421 30.1074 33.7467 29.4777 33.4333C29.1629 33.2766 28.9472 33.1658 28.7985 33.0843C28.6498 33.0029 28.5927 32.9917 28.4787 32.8699C28.4771 32.8682 28.4755 32.8665 28.474 32.8648C28.193 32.5528 28.0805 32.0942 28.0266 31.5069C28.0266 31.5067 28.0267 31.5071 28.0266 31.5069L28.0016 31.2276C27.9958 31.163 28.0062 31.0979 28.0319 31.0391C28.0576 30.9804 28.0975 30.93 28.1476 30.8932C28.1976 30.8564 28.2559 30.8346 28.3165 30.83C28.3771 30.8254 28.4378 30.8382 28.4922 30.867L29.0248 31.1495C29.0245 31.1493 29.025 31.1496 29.0248 31.1495C29.2772 31.2843 31.3719 32.3246 33.5983 33.4197C33.5983 33.4197 33.5984 33.4197 33.5983 33.4197L37.5021 35.3419L41.4093 33.4197C43.6308 32.3252 45.7083 31.2925 45.9767 31.1527C46.1246 31.0737 46.2331 31.0123 46.3305 30.9656C46.3794 30.9421 46.4246 30.9212 46.4875 30.9049C46.5505 30.8886 46.6517 30.8649 46.7806 30.9354C46.9096 31.006 46.9729 31.1602 46.9859 31.2442C46.9988 31.3283 46.9924 31.3814 46.9868 31.4351C46.9756 31.5426 46.9544 31.6501 46.9311 31.7961L46.9316 31.7926C46.8928 32.0498 46.8245 32.2936 46.7351 32.5033C46.646 32.7125 46.5578 32.8943 46.3549 33.0259C46.2835 33.0732 46.2713 33.0734 46.203 33.108C46.1338 33.1431 46.0402 33.1897 45.9245 33.2467C45.6932 33.3607 45.3741 33.5161 44.9958 33.6992C44.2392 34.0656 43.246 34.543 42.25 35.0195C41.254 35.4961 40.2552 35.9718 39.4874 36.3347C39.1036 36.5162 38.7776 36.6695 38.5379 36.781C38.4181 36.8367 38.32 36.8819 38.2462 36.9153C38.1724 36.9487 38.141 36.9646 38.085 36.9845C37.8709 37.0607 37.6455 37.1002 37.4256 37.0962ZM37.4325 36.3632C37.573 36.3641 37.7352 36.3422 37.8696 36.2943C37.8485 36.3019 37.9102 36.2772 37.9803 36.2455C38.0505 36.2137 38.1473 36.1692 38.2659 36.114C38.5032 36.0037 38.8284 35.8508 39.2116 35.6696C39.9778 35.3073 40.976 34.8319 41.9714 34.3557C42.9667 33.8795 43.9594 33.4024 44.7144 33.0368C45.0919 32.8539 45.4102 32.6989 45.639 32.5862C45.7534 32.5298 45.8456 32.4839 45.9106 32.4509C45.9424 32.4348 45.9751 32.4163 45.995 32.4052C45.9985 32.394 46.0654 32.3183 46.115 32.202C46.159 32.0988 46.2002 31.9679 46.2306 31.8291C45.8474 32.0267 43.8711 33.008 41.6943 34.0804C41.6943 34.0804 41.6944 34.0804 41.6943 34.0804L37.6443 36.0729C37.5996 36.0949 37.551 36.1062 37.5017 36.1062C37.4525 36.1062 37.4039 36.0948 37.3592 36.0728L33.3129 34.0804C31.1434 33.0132 29.1727 32.0373 28.7627 31.8223C28.8164 32.0738 28.8887 32.2499 28.9427 32.3309C28.9611 32.3423 29.0244 32.3906 29.1092 32.437C29.243 32.5103 29.4542 32.6191 29.7654 32.774C30.3877 33.0837 31.4114 33.5788 33.0516 34.3649C33.0516 34.3649 33.0516 34.3649 33.0516 34.3649C34.17 34.9009 35.2035 35.3931 35.9668 35.7539C36.3484 35.9343 36.6626 36.0819 36.8853 36.1853C36.9967 36.2371 37.0854 36.2779 37.1472 36.3058C37.1781 36.3198 37.2025 36.3306 37.2182 36.3374C37.2208 36.3385 37.2227 36.3389 37.2255 36.34C37.282 36.3545 37.3534 36.3626 37.4325 36.3632ZM46.001 32.4045C46.0006 32.4048 46.0014 32.4042 46.001 32.4045V32.4045Z" fill="#5B6071"/>
<path fill-rule="evenodd" clip-rule="evenodd" d="M28.3691 35.3799C28.4192 35.9486 28.5872 36.4295 28.7909 36.5936C28.916 36.689 36.8119 40.4868 37.0728 40.5745C37.298 40.6509 37.659 40.6471 37.9128 40.5669C38.1523 40.4944 46.0411 36.7234 46.1948 36.6089C46.4056 36.4524 46.5772 35.9639 46.6344 35.3646L46.6594 35.086L46.0411 35.4142C45.3905 35.7654 37.5554 39.6318 37.5018 39.6318C37.4481 39.6318 29.1019 35.5135 28.7123 35.2959L28.3441 35.086L28.3691 35.3799Z" fill="#5B6071"/>
<path fill-rule="evenodd" clip-rule="evenodd" d="M37.4871 40.9999C37.3102 41.0019 37.1342 40.9769 36.9701 40.9213C36.9037 40.8989 36.8794 40.8848 36.8053 40.8513C36.7311 40.8177 36.6321 40.772 36.5109 40.7155C36.2685 40.6025 35.9377 40.4463 35.5479 40.2612C34.7682 39.891 33.7526 39.4049 32.7411 38.9186C31.7296 38.4323 30.7225 37.9457 29.9598 37.5745C29.5784 37.3889 29.2583 37.2322 29.0286 37.1184C28.9138 37.0615 28.8217 37.0154 28.7547 36.9812C28.7212 36.9641 28.6941 36.9501 28.672 36.9382C28.6499 36.9263 28.6605 36.9411 28.5929 36.8896C28.5905 36.8878 28.5881 36.8859 28.5858 36.884C28.3921 36.728 28.2897 36.514 28.2031 36.2652C28.1165 36.0163 28.0575 35.7265 28.03 35.4139C28.0299 35.4135 28.03 35.4143 28.03 35.4139L28.0049 35.1189C27.9993 35.0536 28.0104 34.9878 28.037 34.9287C28.0636 34.8695 28.1047 34.8191 28.1559 34.7829C28.2071 34.7466 28.2666 34.7258 28.3279 34.7227C28.3893 34.7196 28.4504 34.7342 28.5046 34.7651L28.8704 34.9737C28.9166 34.9995 29.5489 35.3191 30.3863 35.7354C31.2239 36.1519 32.3051 36.687 33.3759 37.2152C34.4467 37.7435 35.5069 38.265 36.3025 38.6542C36.7003 38.8488 37.0319 39.0104 37.265 39.1229C37.3669 39.1721 37.441 39.2075 37.5019 39.2363C37.5738 39.2023 37.6456 39.168 37.7172 39.1334C37.9368 39.0275 38.2495 38.8753 38.6253 38.6915C39.377 38.3238 40.3815 37.8296 41.4046 37.3245C43.4509 36.3143 45.6042 35.2424 45.8873 35.0896C45.8866 35.0899 45.888 35.0892 45.8873 35.0896L46.5077 34.7603C46.5621 34.7314 46.6228 34.7186 46.6834 34.7232C46.744 34.7277 46.8023 34.7495 46.8524 34.7863C46.9024 34.8231 46.9424 34.8735 46.9681 34.9323C46.9937 34.9911 47.0042 35.0561 46.9984 35.1207L46.9734 35.3993C46.9734 35.4 46.9735 35.3986 46.9734 35.3993C46.9423 35.7255 46.8807 36.0264 46.7909 36.281C46.7012 36.5355 46.5954 36.7544 46.3892 36.9075C46.3347 36.9481 46.3349 36.9423 46.3118 36.9547C46.2886 36.9672 46.2606 36.9818 46.2262 36.9994C46.1575 37.0346 46.0639 37.0814 45.9477 37.1389C45.7153 37.2539 45.3932 37.4111 45.0103 37.5967C44.2445 37.9678 43.2362 38.4524 42.2251 38.9356C41.214 39.4189 40.2003 39.9008 39.4237 40.2667C39.0355 40.4497 38.7066 40.6036 38.4662 40.7146C38.346 40.77 38.2481 40.8147 38.1748 40.8474C38.1019 40.8799 38.0888 40.8915 38.007 40.9164C37.8401 40.9688 37.6632 40.9978 37.4871 40.9999ZM37.4772 40.2589C37.6005 40.2581 37.7301 40.2453 37.8162 40.2181C37.8175 40.2177 37.8187 40.2173 37.8199 40.2169C37.7666 40.2331 37.8438 40.2066 37.9124 40.176C37.981 40.1455 38.0773 40.1016 38.196 40.0468C38.4335 39.9372 38.7614 39.7837 39.1488 39.6011C39.9235 39.236 40.9365 38.7545 41.9468 38.2716C42.957 37.7887 43.9647 37.3045 44.7287 36.9342C45.1108 36.749 45.432 36.5923 45.6614 36.4788C45.7761 36.422 45.868 36.376 45.9318 36.3434C45.9635 36.3271 45.9882 36.3142 46.004 36.3057C46.0161 36.2925 46.0938 36.1937 46.1534 36.0245C46.1845 35.9364 46.2131 35.832 46.2373 35.7162L46.1947 35.7388C45.8273 35.9371 43.7379 36.974 41.6906 37.9848C40.6669 38.4902 39.662 38.9846 38.9091 39.3528C38.5327 39.5369 38.2194 39.6895 37.9977 39.7964C37.8869 39.8499 37.7991 39.8919 37.7366 39.9212C37.7054 39.9359 37.6807 39.9473 37.6606 39.9562C37.6505 39.9607 37.6421 39.9645 37.6311 39.9689C37.6256 39.9711 37.62 39.9735 37.609 39.9772C37.598 39.981 37.6221 39.9955 37.5019 39.9955C37.3738 39.9955 37.4036 39.9804 37.3929 39.9766C37.3821 39.9728 37.3766 39.9705 37.3711 39.9683C37.3602 39.9638 37.3515 39.9599 37.3411 39.9552C37.3202 39.9459 37.2942 39.9338 37.2612 39.9182C37.1951 39.8871 37.102 39.8425 36.9844 39.7858C36.7493 39.6723 36.4171 39.5104 36.0188 39.3155C35.2222 38.9257 34.1615 38.4041 33.0903 37.8755C32.019 37.347 30.9373 36.8118 30.0988 36.3948C29.4853 36.0898 29.0274 35.8622 28.7649 35.7282C28.787 35.8332 28.8131 35.9293 28.8418 36.0117C28.8965 36.169 28.9668 36.2684 28.9883 36.2934C29.0083 36.3041 29.0285 36.3145 29.0488 36.3249C29.1113 36.3568 29.2019 36.4022 29.3155 36.4584C29.5425 36.5709 29.8618 36.7273 30.2424 36.9125C31.0036 37.2829 32.0101 37.7692 33.0209 38.2552C34.0316 38.7412 35.0467 39.227 35.8248 39.5964C36.2138 39.7812 36.5438 39.9369 36.7836 40.0487C36.9035 40.1047 37.001 40.1496 37.0712 40.1814C37.1413 40.2131 37.2094 40.239 37.1753 40.2275C37.1751 40.2274 37.1755 40.2276 37.1753 40.2275C37.2363 40.2482 37.3539 40.2597 37.4772 40.2589ZM37.6041 39.2842C37.6028 39.2812 37.608 39.2749 37.5757 39.271C37.5847 39.2752 37.5983 39.2816 37.6041 39.2842ZM37.4019 39.2831C37.4073 39.2807 37.4189 39.2753 37.427 39.2715C37.4024 39.275 37.4032 39.2802 37.4019 39.2831Z" fill="#5B6071"/>
</svg>
