<svg width="48" height="48" viewBox="0 0 48 48" fill="none" xmlns="http://www.w3.org/2000/svg">
<path fill-rule="evenodd" clip-rule="evenodd" d="M10 8.25003C6.82436 8.25003 4.25 10.8244 4.25 14V34C4.25 37.1757 6.82436 39.75 10 39.75H24V36.25H10C8.75736 36.25 7.75 35.2427 7.75 34V14C7.75 12.7574 8.75736 11.75 10 11.75H15.5678C16.0887 11.75 16.5934 11.9308 16.9959 12.2614L21.7825 16.1932C22.8111 17.0382 24.1011 17.5 25.4322 17.5H38C39.2426 17.5 40.25 18.5074 40.25 19.75V20H43.75V19.75C43.75 16.5744 41.1756 14 38 14H25.4322C24.9113 14 24.4066 13.8193 24.0041 13.4887L19.2175 9.55685C18.1889 8.7119 16.8989 8.25003 15.5678 8.25003H10Z" fill="#3D4653"/>
<path fill-rule="evenodd" clip-rule="evenodd" d="M30.0315 21.7501C30.0109 21.83 30 21.9137 30 22V24H27C26.4477 24 26 24.4477 26 25V39.75H9.98594C7.13532 39.75 5.1996 36.8532 6.29033 34.2195L10.4317 24.2196C11.0508 22.7248 12.5095 21.7501 14.1274 21.7501L15.1817 21.7502H21.7045L30.0315 21.7501Z" fill="#3D4653"/>
<path fill-rule="evenodd" clip-rule="evenodd" d="M29.8997 25.7993H28V39.0986C28 40.145 28.855 41 29.8997 41H43.199V39.097H29.8997V25.7993ZM45.1003 22H33.699C32.6543 22 31.7993 22.855 31.7993 23.8997V35.2993C31.7993 36.344 32.6543 37.199 33.699 37.199H45.1003C46.145 37.199 47 36.344 47 35.2993V23.8997C47 22.855 46.145 22 45.1003 22ZM44.1505 30.5502H34.6505V28.6488H44.1488L44.1505 30.5502ZM40.3495 34.3495H34.6522V32.4498H40.3512L40.3495 34.3495ZM44.1505 26.7492H34.6505V24.8495H44.1488L44.1505 26.7492Z" fill="#5B6071"/>
</svg>
