<svg width="48" height="48" viewBox="0 0 48 48" fill="none" xmlns="http://www.w3.org/2000/svg">
<path fill-rule="evenodd" clip-rule="evenodd" d="M10 8.25003C6.82436 8.25003 4.25 10.8244 4.25 14V34C4.25 37.1757 6.82436 39.75 10 39.75H28V36.25H10C8.75736 36.25 7.75 35.2427 7.75 34V14C7.75 12.7574 8.75736 11.75 10 11.75H15.5678C16.0887 11.75 16.5934 11.9308 16.9959 12.2614L21.7825 16.1932C22.8111 17.0382 24.1011 17.5 25.4322 17.5H38C39.1236 17.5 40.0548 18.3236 40.2229 19.4H43.7395C43.5586 16.3874 41.0581 14 38 14H25.4322C24.9113 14 24.4066 13.8193 24.0041 13.4887L19.2175 9.55685C18.1889 8.7119 16.8989 8.25003 15.5678 8.25003H10Z" fill="#3D4653"/>
<path fill-rule="evenodd" clip-rule="evenodd" d="M34.0669 21.75C34.0243 21.8236 34 21.9089 34 22V23H33C31.8954 23 31 23.8954 31 25V39C31 39.2652 31.0516 39.5184 31.1454 39.75H9.98618C7.13556 39.75 5.19985 36.8532 6.29057 34.2195L10.4319 24.2196C11.051 22.7247 12.5097 21.75 14.1277 21.7501L15.182 21.7501H21.7047L34.0669 21.75Z" fill="#3D4653"/>
<path fill-rule="evenodd" clip-rule="evenodd" d="M46.2217 38.1994H33.7783V28.2991H46.2217M46.2217 23.7977H45.3326V22H43.5558V23.7977H36.4442V22H34.6659V23.7977H33.7783C32.791 23.7977 32 24.6088 32 25.5982V38.1994C32 38.677 32.1874 39.1349 32.5208 39.4726C32.8543 39.8103 33.3066 40 33.7783 40H46.2217C46.6934 40 47.1457 39.8103 47.4792 39.4726C47.8126 39.1349 48 38.677 48 38.1994V25.5997C48 25.1222 47.8126 24.6642 47.4792 24.3265C47.1457 23.9888 46.6934 23.7977 46.2217 23.7977ZM44.0263 31.0526L43.0838 30.0997L38.7464 34.4916L36.8613 32.5828L35.9203 33.5372L38.7464 36.3988L44.0263 31.0526Z" fill="#5B6071"/>
</svg>
