<svg width="48" height="48" viewBox="0 0 48 48" fill="none" xmlns="http://www.w3.org/2000/svg">
<path fill-rule="evenodd" clip-rule="evenodd" d="M10 8.25C6.82436 8.25 4.25 10.8244 4.25 14V34C4.25 37.1756 6.82436 39.75 10 39.75H28V36.25H10C8.75736 36.25 7.75 35.2426 7.75 34V14C7.75 12.7574 8.75736 11.75 10 11.75H15.5678C16.0887 11.75 16.5934 11.9307 16.9959 12.2614L21.7825 16.1932C22.8111 17.0381 24.1011 17.5 25.4322 17.5H38C39.1236 17.5 40.0548 18.3236 40.2229 19.4H43.7395C43.5586 16.3873 41.0581 14 38 14H25.4322C24.9113 14 24.4066 13.8193 24.0041 13.4886L19.2175 9.55682C18.1889 8.71187 16.8989 8.25 15.5678 8.25H10Z" fill="#3D4653"/>
<path fill-rule="evenodd" clip-rule="evenodd" d="M34.8154 21.7501L29 24.1816V30.4532C29 33.9665 30.5635 37.3412 33.0698 39.75H9.98594C7.13532 39.75 5.1996 36.8532 6.29033 34.2195L10.4317 24.2196C11.0508 22.7247 12.5095 21.75 14.1274 21.7501L15.1817 21.7501H21.7045L34.8154 21.7501Z" fill="#3D4653"/>
<path fill-rule="evenodd" clip-rule="evenodd" d="M39 22L31 25.4548V30.637C31 35.4301 34.4128 39.9119 39 41C43.5872 39.9119 47 35.4301 47 30.637V25.4534L39 22ZM39 27.1836C40.2444 27.1836 41.4888 28.1328 41.4888 29.3418V30.6384C42.0223 30.6384 42.5559 31.1554 42.5559 31.7613V34.7839C42.5559 35.3008 42.0223 35.8192 41.4001 35.8192H36.5112C35.9777 35.8192 35.4441 35.3008 35.4441 34.6963V31.6737C35.4441 31.1554 35.9777 30.6384 36.5112 30.6384V29.3418C36.5112 28.1328 37.7556 27.1836 39 27.1836ZM39 28.2189C38.2891 28.2189 37.6669 28.6511 37.6669 29.3418V30.6384H40.3331V29.3418C40.3331 28.6511 39.7109 28.2189 39 28.2189Z" fill="#5B6071"/>
</svg>
