<svg width="48" height="48" viewBox="0 0 48 48" fill="none" xmlns="http://www.w3.org/2000/svg">
<path fill-rule="evenodd" clip-rule="evenodd" d="M10 8.25003C6.82436 8.25003 4.25 10.8244 4.25 14V34C4.25 37.1757 6.82436 39.75 10 39.75H24V36.25H10C8.75736 36.25 7.75 35.2427 7.75 34V14C7.75 12.7574 8.75736 11.75 10 11.75H15.5678C16.0887 11.75 16.5934 11.9308 16.9959 12.2614L21.7825 16.1932C22.8111 17.0382 24.1011 17.5 25.4322 17.5H38C39.2426 17.5 40.25 18.5074 40.25 19.75V19.8H43.75V19.75C43.75 16.5744 41.1756 14 38 14H25.4322C24.9113 14 24.4066 13.8193 24.0041 13.4887L19.2175 9.55685C18.1889 8.7119 16.8989 8.25003 15.5678 8.25003H10Z" fill="#3D4653"/>
<path fill-rule="evenodd" clip-rule="evenodd" d="M30.2154 32.5163C30.1892 32.5393 30.1625 32.562 30.1354 32.5843C30.1716 32.5731 30.2081 32.5624 30.245 32.5522L30.2154 32.5163ZM29.3792 39.7499C28.5236 39.2467 27.8642 38.4505 27.6041 37.4829C27.4665 36.9709 27.3289 36.4589 27.4665 35.9469C27.556 34.8657 28.0521 33.8925 28.8794 33.2382C28.6996 33.2925 28.5111 33.3365 28.3144 33.3694C26.7361 33.5144 25.1578 32.3543 25 30.7591V30.034C25.1567 28.5939 26.2474 27.4398 27.8083 27.2819C27.8496 26.0915 28.2694 24.8605 28.8499 23.7877C29.2328 23.0601 29.8212 22.3526 30.6342 21.75L21.7048 21.75H15.182L14.1278 21.75C12.5098 21.75 11.0511 22.7246 10.432 24.2195L6.29063 34.2194C5.19991 36.8531 7.13562 39.7499 9.98624 39.7499H29.3792Z" fill="#3D4653"/>
<path fill-rule="evenodd" clip-rule="evenodd" d="M45.9833 31.6553C46.2924 26.7134 42.2751 21.3913 36.0948 22.0566C33.3136 22.3417 31.6655 23.6722 30.9445 25.0978C29.7084 27.4737 31.0475 30.6099 35.0647 31.6553C37.5368 32.3206 38.0519 33.2709 37.7429 34.4114C37.4338 35.4568 36.6098 36.5972 36.4038 37.5476C36.3008 37.8327 36.3008 38.1178 36.3008 38.4029C36.4038 40.4938 41.0391 41.3491 44.6443 35.7419C45.4683 34.6015 45.8803 33.1759 45.9833 31.6553Z" fill="#5B6071"/>
<path fill-rule="evenodd" clip-rule="evenodd" d="M30.0172 30.5149V30.1348C30.0172 30.0397 30.0172 29.9447 29.9142 29.8496C29.7082 28.8993 28.8842 28.3291 27.8541 28.4241C26.824 28.5191 26.103 29.2794 26 30.2298V30.705C26.103 31.7504 27.1331 32.5107 28.1631 32.4156C29.2962 32.2256 30.0172 31.4653 30.0172 30.5149Z" fill="#5B6071"/>
<path fill-rule="evenodd" clip-rule="evenodd" d="M34.5495 35.5519C34.1375 34.0313 32.4894 33.081 30.8413 33.5561C29.5022 33.8413 28.6782 34.8867 28.5752 36.1221C28.4722 36.5023 28.5752 36.8824 28.6782 37.2626C29.0902 38.7832 30.8413 39.7336 32.4894 39.2584C33.9315 38.8782 34.8585 37.6427 34.7555 36.2172C34.6525 36.0271 34.6525 35.837 34.5495 35.5519Z" fill="#5B6071"/>
</svg>
