<svg width="48" height="48" viewBox="0 0 48 48" fill="none" xmlns="http://www.w3.org/2000/svg">
<g clip-path="url(#clip0_3475_12656)">
<path fill-rule="evenodd" clip-rule="evenodd" d="M10 8.25003C6.82436 8.25003 4.25 10.8244 4.25 14V34C4.25 37.1757 6.82436 39.75 10 39.75H22V36.25H10C8.75736 36.25 7.75 35.2427 7.75 34V14C7.75 12.7574 8.75736 11.75 10 11.75H15.5678C16.0887 11.75 16.5934 11.9308 16.9959 12.2614L21.7825 16.1932C22.8111 17.0382 24.1011 17.5 25.4322 17.5H38C39.2426 17.5 40.25 18.5074 40.25 19.75V21H43.75V19.75C43.75 16.5744 41.1756 14 38 14H25.4322C24.9113 14 24.4066 13.8193 24.0041 13.4887L19.2175 9.55685C18.1889 8.7119 16.8989 8.25003 15.5678 8.25003H10Z" fill="#3D4653"/>
<path fill-rule="evenodd" clip-rule="evenodd" d="M14.1277 21.7501C12.5097 21.75 11.051 22.7247 10.4319 24.2196L6.29057 34.2195C5.19985 36.8532 7.13556 39.75 9.98618 39.75H29.7962L22.145 34.968C21.1217 34.3284 20.5 33.2068 20.5 32C20.5 30.7932 21.1217 29.6716 22.145 29.032L30.145 24.032C31.7842 23.0075 33.9435 23.5058 34.968 25.145C34.9788 25.1623 34.9895 25.1797 35 25.1972C35.0105 25.1797 35.0212 25.1623 35.032 25.145C36.0565 23.5058 38.2158 23.0075 39.855 24.032L43.5285 26.328C43.8805 23.9663 42.0523 21.75 39.5692 21.75L21.7047 21.7501H15.182L14.1277 21.7501ZM35.8334 39.75C35.5248 39.5069 35.2522 39.2073 35.032 38.855C35.0212 38.8377 35.0105 38.8203 35 38.8028C34.9895 38.8203 34.9788 38.8377 34.968 38.855C34.7478 39.2073 34.4752 39.5069 34.1666 39.75H35.8334ZM35 35.1958C35.2753 34.7371 35.6603 34.335 36.145 34.032L39.3962 32L36.145 29.968C35.6603 29.665 35.2753 29.2629 35 28.8042C34.7247 29.2629 34.3397 29.665 33.855 29.968L30.6038 32L33.855 34.032C34.3397 34.335 34.7247 34.7371 35 35.1958Z" fill="#3D4653"/>
<path fill-rule="evenodd" clip-rule="evenodd" d="M33.0434 26.2551C33.5515 27.2245 33.2499 28.464 32.3699 29.0237L24.9335 33.7529C24.0534 34.3125 22.928 33.9804 22.4199 33.011C21.9118 32.0416 22.2134 30.8021 23.0934 30.2424L30.5298 25.5132C31.4099 24.9536 32.5353 25.2857 33.0434 26.2551Z" fill="#5B6071"/>
<path fill-rule="evenodd" clip-rule="evenodd" d="M22.4202 30.9887C22.9283 30.0193 24.0537 29.6872 24.9337 30.2469L32.3701 34.976C33.2502 35.5357 33.5517 36.7752 33.0436 37.7446C32.5355 38.714 31.4102 39.0461 30.5301 38.4865L23.0937 33.7573C22.2136 33.1977 21.9121 31.9581 22.4202 30.9887Z" fill="#5B6071"/>
<path fill-rule="evenodd" clip-rule="evenodd" d="M47.5798 30.9887C47.0717 30.0193 45.9463 29.6872 45.0663 30.2469L37.6299 34.976C36.7498 35.5357 36.4483 36.7752 36.9564 37.7446C37.4645 38.714 38.5898 39.0461 39.4699 38.4865L46.9063 33.7573C47.7864 33.1977 48.0879 31.9581 47.5798 30.9887Z" fill="#5B6071"/>
<path fill-rule="evenodd" clip-rule="evenodd" d="M36.9566 26.2551C36.4485 27.2245 36.7501 28.464 37.6301 29.0237L45.0665 33.7529C45.9466 34.3125 47.072 33.9804 47.5801 33.011C48.0882 32.0416 47.7866 30.8021 46.9066 30.2424L39.4702 25.5132C38.5901 24.9536 37.4647 25.2857 36.9566 26.2551Z" fill="#5B6071"/>
</g>
<defs>
<clipPath id="clip0_3475_12656">
<rect width="48" height="48" fill="white"/>
</clipPath>
</defs>
</svg>
