<svg width="48" height="48" viewBox="0 0 48 48" fill="none" xmlns="http://www.w3.org/2000/svg">
<path fill-rule="evenodd" clip-rule="evenodd" d="M10 8.25003C6.82436 8.25003 4.25 10.8244 4.25 14V34C4.25 37.1757 6.82436 39.75 10 39.75H20V36.25H10C8.75736 36.25 7.75 35.2427 7.75 34V14C7.75 12.7574 8.75736 11.75 10 11.75H15.5678C16.0887 11.75 16.5934 11.9308 16.9959 12.2614L21.7825 16.1932C22.8111 17.0382 24.1011 17.5 25.4322 17.5H38C39.1236 17.5 40.0548 18.3236 40.2229 19.4H43.7395C43.5586 16.3874 41.0581 14 38 14H25.4322C24.9113 14 24.4066 13.8193 24.0041 13.4887L19.2175 9.55685C18.1889 8.7119 16.8989 8.25003 15.5678 8.25003H10Z" fill="#64748B"/>
<path fill-rule="evenodd" clip-rule="evenodd" d="M47.2797 23.904C46.4301 22.4529 44.91 22.0207 43.8375 22.0006C42.5208 21.9759 41.4401 22.6675 41.6436 23.1214C41.6875 23.2186 41.9349 23.728 42.0863 23.938C42.306 24.2405 42.6982 24.0074 42.8349 23.938C43.2467 23.7311 43.6861 23.6647 44.1841 23.7203C44.6594 23.7712 45.2908 24.0507 45.7156 24.8225C46.7133 26.6425 43.6324 30.3859 39.7752 27.7941C35.9196 25.2007 32.1698 26.0605 30.4707 26.5823C28.7732 27.1056 27.992 27.6305 28.6641 28.8453C29.5755 30.4971 29.2728 29.9908 30.1566 31.3569C31.5611 33.5273 34.6355 30.3581 34.6355 30.3581C32.3456 33.5597 30.3828 32.7864 29.6293 31.6672C29.1746 30.9709 28.7722 30.2451 28.4249 29.4952C22.6244 31.4356 24.1934 40 24.1934 40H27.0741C27.8064 36.8463 30.4332 36.9636 30.8824 40H33.0796C35.0245 33.8407 39.951 40 39.951 40H42.8154C42.013 35.8012 44.4266 34.4798 45.9483 32.0176C47.4701 29.5539 48.9104 26.5422 47.2797 23.904ZM39.8907 32.0145C38.3755 31.5452 38.9175 30.1158 38.9175 30.1158C38.9175 30.1158 40.2407 30.5218 42.0293 31.0744C41.9268 31.519 41.0365 32.3696 39.8907 32.0145Z" fill="#E676FA"/>
</svg>
