<svg width="48" height="48" viewBox="0 0 48 48" fill="none" xmlns="http://www.w3.org/2000/svg">
<path fill-rule="evenodd" clip-rule="evenodd" d="M10 8.25C6.82436 8.25 4.25 10.8244 4.25 14V34C4.25 37.1756 6.82436 39.75 10 39.75H24V36.25H10C8.75736 36.25 7.75 35.2426 7.75 34V14C7.75 12.7574 8.75736 11.75 10 11.75H15.5678C16.0887 11.75 16.5934 11.9307 16.9959 12.2614L21.7825 16.1932C22.8111 17.0381 24.1011 17.5 25.4322 17.5H38C39.2426 17.5 40.25 18.5074 40.25 19.75V20H43.75V19.75C43.75 16.5744 41.1756 14 38 14H25.4322C24.9113 14 24.4066 13.8193 24.0041 13.4886L19.2175 9.55682C18.1889 8.71187 16.8989 8.25 15.5678 8.25H10Z" fill="#64748B"/>
<path d="M26 24C26 28.4177 29.4679 32 33.7451 32H36.0691C31.7902 32 28.324 35.5823 28.324 40H29.8744C33.072 40 35.8176 37.9988 37 35.1423C38.1824 37.9988 40.928 40 44.1256 40H45.676C45.676 35.5823 42.21 32 37.9309 32H40.2549C44.5321 32 48 28.4177 48 24H44.1256C40.928 24 38.1824 26.0012 37.0001 28.8577C35.8177 26.0012 33.0721 24 29.8745 24H26ZM37 28.8612C37.3988 29.8257 37.6194 30.8865 37.6194 32C37.6194 33.1135 37.3988 34.1744 37 35.1388C36.5888 34.1405 36.3785 33.075 36.3805 32C36.3805 30.8865 36.6011 29.8256 37 28.8612Z" fill="#F472B6"/>
</svg>
