<svg width="48" height="48" viewBox="0 0 48 48" fill="none" xmlns="http://www.w3.org/2000/svg">
<path fill-rule="evenodd" clip-rule="evenodd" d="M10 8.25C6.82436 8.25 4.25 10.8244 4.25 14V34C4.25 37.1756 6.82436 39.75 10 39.75H23V36.25H10C8.75736 36.25 7.75 35.2426 7.75 34V14C7.75 12.7574 8.75736 11.75 10 11.75H15.5678C16.0887 11.75 16.5934 11.9307 16.9959 12.2614L21.7825 16.1932C22.8111 17.0381 24.1011 17.5 25.4322 17.5H38C38.9797 17.5 39.8131 18.1261 40.122 19H43.7015C43.334 16.1787 40.9214 14 38 14H25.4322C24.9113 14 24.4066 13.8193 24.0041 13.4886L19.2175 9.55682C18.1889 8.71187 16.8989 8.25 15.5678 8.25H10Z" fill="#64748B"/>
<path fill-rule="evenodd" clip-rule="evenodd" d="M27.19 36.8398C26.9402 36.4928 26.9365 36.0509 27.1802 35.7007L36.3547 22.5139C36.865 21.7806 38.0972 21.8447 38.506 22.6258L46.8872 38.6461C47.1982 39.2404 46.8402 39.9398 46.1287 40.128L33.0907 43.5746C32.5662 43.7131 32.001 43.5272 31.7077 43.1197L27.19 36.8398ZM37.4132 26.3696C37.5015 25.9816 38.1047 25.9257 38.283 26.2889L44.0642 38.0767C44.173 38.2987 44.0377 38.5545 43.7747 38.6236L34.7667 40.993C34.4355 41.0803 34.1182 40.8254 34.1865 40.5267L37.4132 26.3696Z" fill="#14B8A6"/>
</svg>
