<svg width="48" height="48" viewBox="0 0 48 48" fill="none" xmlns="http://www.w3.org/2000/svg">
<path fill-rule="evenodd" clip-rule="evenodd" d="M10 8.25003C6.82436 8.25003 4.25 10.8244 4.25 14V34C4.25 37.1757 6.82436 39.75 10 39.75H26V36.25H10C8.75736 36.25 7.75 35.2427 7.75 34V14C7.75 12.7574 8.75736 11.75 10 11.75H15.5678C16.0887 11.75 16.5934 11.9308 16.9959 12.2614L21.7825 16.1932C22.8111 17.0382 24.1011 17.5 25.4322 17.5H38C39.2426 17.5 40.25 18.5074 40.25 19.75V20H43.75V19.75C43.75 16.5744 41.1756 14 38 14H25.4322C24.9113 14 24.4066 13.8193 24.0041 13.4887L19.2175 9.55685C18.1889 8.7119 16.8989 8.25003 15.5678 8.25003H10Z" fill="#64748B"/>
<path fill-rule="evenodd" clip-rule="evenodd" d="M30.2619 31.0475H31.6187V27.4273C31.6187 26.4237 32.4325 25.6187 33.4288 25.6187H37.0475V24.2619C37.0475 23.662 37.2858 23.0867 37.71 22.6625C38.1341 22.2383 38.7095 22 39.3093 22C39.9092 22 40.4845 22.2383 40.9087 22.6625C41.3329 23.0867 41.5712 23.662 41.5712 24.2619V25.6187H45.1899C45.4276 25.6187 45.663 25.6655 45.8826 25.7565C46.1022 25.8474 46.3018 25.9808 46.4698 26.1489C46.6379 26.3169 46.7712 26.5165 46.8622 26.7361C46.9532 26.9557 47 27.1911 47 27.4288V30.8665H45.6417C44.2849 30.8665 43.1988 31.9525 43.1988 33.3093C43.1988 34.6662 44.2849 35.7522 45.6417 35.7522H46.9985V39.1899C46.9985 39.67 46.8078 40.1304 46.4684 40.4698C46.1289 40.8093 45.6685 41 45.1884 41H41.7522V39.6417C41.7522 38.2849 40.6662 37.1988 39.3093 37.1988C37.951 37.1988 36.8665 38.2849 36.8665 39.6417V40.9985H33.4288C32.9487 40.9985 32.4883 40.8078 32.1489 40.4684C31.8094 40.1289 31.6187 39.6685 31.6187 39.1884V35.5727H30.2619C29.662 35.5727 29.0867 35.3344 28.6625 34.9102C28.2383 34.486 28 33.9107 28 33.3108C28 32.7109 28.2383 32.1356 28.6625 31.7114C29.0867 31.2873 29.662 31.049 30.2619 31.049V31.0475Z" fill="#8CDBFF"/>
</svg>
