<svg width="48" height="48" viewBox="0 0 48 48" fill="none" xmlns="http://www.w3.org/2000/svg">
<path fill-rule="evenodd" clip-rule="evenodd" d="M10 8.25003C6.82436 8.25003 4.25 10.8244 4.25 14V34C4.25 37.1757 6.82436 39.75 10 39.75H26V36.25H10C8.75736 36.25 7.75 35.2427 7.75 34V14C7.75 12.7574 8.75736 11.75 10 11.75H15.5678C16.0887 11.75 16.5934 11.9308 16.9959 12.2614L21.7825 16.1932C22.8111 17.0382 24.1011 17.5 25.4322 17.5H38C39.2426 17.5 40.25 18.5074 40.25 19.75V20H43.75V19.75C43.75 16.5744 41.1756 14 38 14H25.4322C24.9113 14 24.4066 13.8193 24.0041 13.4887L19.2175 9.55685C18.1889 8.7119 16.8989 8.25003 15.5678 8.25003H10Z" fill="#64748B"/>
<path fill-rule="evenodd" clip-rule="evenodd" d="M46 42.4175L43.2525 38.8722L36.3716 29.9935C34.1022 27.071 32.2039 24.6439 32.153 24.5944C31.9711 24.4272 31.8548 24.4025 31.1638 24.4025C30.5746 24.4025 30.5164 24.4086 30.3782 24.4644C30.2982 24.5077 30.1818 24.582 30.1237 24.6439C30.058 24.7198 30.0217 24.8168 30.0214 24.9172L30.0073 30.5817L30.0002 36.2707C30.0001 36.3646 30.0251 36.4569 30.0727 36.538C30.1246 36.6239 30.2025 36.6967 30.2982 36.7486C30.403 36.8094 30.5221 36.8414 30.6432 36.8414H31.0474C31.5638 36.8414 31.6584 36.829 31.7675 36.7794C31.9027 36.7269 32.0112 36.6346 32.073 36.5194C32.1306 36.4214 32.1311 36.2505 32.1453 32.1896L32.1457 32.0614C32.1508 30.3796 32.1595 28.9125 32.1693 28.1907C32.1734 27.8889 32.2924 27.8512 32.482 28.086C33.5646 29.4266 34.638 30.7724 35.7025 32.1234L39.201 36.5257L41.9941 39.7391C43.4404 41.404 44.6715 42.8081 44.8167 42.9684C44.8265 42.9791 44.8438 42.9856 44.843 43M42.7687 24.1963C42.7088 24.1379 42.6359 24.0901 42.5542 24.0557C42.4451 24 42.3578 24 41.8486 24C41.3104 24 41.2668 24 41.1213 24.0619C41.0396 24.1006 40.9679 24.1529 40.9104 24.2157C40.8529 24.2784 40.8109 24.3504 40.7867 24.4272C40.7649 24.4953 40.7503 25.8761 40.7503 28.3279V31.79C40.7503 32.0102 40.823 32.2243 40.9571 32.3989L41.8341 33.5413C42.1893 34.0009 42.9252 33.7497 42.9252 33.1688V29.7272C42.9324 26.0866 42.9252 24.4706 42.9033 24.3963C42.8744 24.3227 42.8286 24.2548 42.7687 24.1963Z" fill="#CFD8DC"/>
</svg>
