<svg width="48" height="48" viewBox="0 0 48 48" fill="none" xmlns="http://www.w3.org/2000/svg">
<path fill-rule="evenodd" clip-rule="evenodd" d="M10 8.25C6.82436 8.25 4.25 10.8244 4.25 14V34C4.25 37.1756 6.82436 39.75 10 39.75H24V36.25H10C8.75736 36.25 7.75 35.2426 7.75 34V14C7.75 12.7574 8.75736 11.75 10 11.75H15.5678C16.0887 11.75 16.5934 11.9307 16.9959 12.2614L21.7825 16.1932C22.8111 17.0381 24.1011 17.5 25.4322 17.5H38C39.2426 17.5 40.25 18.5074 40.25 19.75V20H43.75V19.75C43.75 16.5744 41.1756 14 38 14H25.4322C24.9113 14 24.4066 13.8193 24.0041 13.4886L19.2175 9.55682C18.1889 8.71187 16.8989 8.25 15.5678 8.25H10Z" fill="#64748B"/>
<path fill-rule="evenodd" clip-rule="evenodd" d="M40.4241 23.2919C39.6876 22.1515 39.5129 22 38.0143 22H37.9782C36.478 22 36.3124 22.1515 35.5668 23.2919C34.874 24.3619 28 37.1569 28 37.5136C28 38.031 28.131 38.5208 28.6055 39.2157C29.0874 39.9198 29.9203 40.3117 30.5258 39.6887C30.937 39.2693 35.3469 31.5439 37.4781 28.6218C37.5373 28.5371 37.6155 28.4681 37.7063 28.4204C37.7971 28.3728 37.8978 28.3479 38 28.3479C38.1022 28.3479 38.2029 28.3728 38.2937 28.4204C38.3845 28.4681 38.4627 28.5371 38.5219 28.6218C40.6516 31.5439 45.063 39.2693 45.4742 39.6887C46.0797 40.3117 46.9126 39.9183 47.3945 39.2157C47.8675 38.5208 48 38.031 48 37.5136C47.991 37.1569 41.117 24.3527 40.4241 23.2919Z" fill="#0EA5E9"/>
</svg>
