<svg width="48" height="48" viewBox="0 0 48 48" fill="none" xmlns="http://www.w3.org/2000/svg">
<path fill-rule="evenodd" clip-rule="evenodd" d="M10 8.25C6.82436 8.25 4.25 10.8244 4.25 14V34C4.25 37.1756 6.82436 39.75 10 39.75H26V36.25H10C8.75736 36.25 7.75 35.2426 7.75 34V14C7.75 12.7574 8.75736 11.75 10 11.75H15.5678C16.0887 11.75 16.5934 11.9307 16.9959 12.2614L21.7825 16.1932C22.8111 17.0381 24.1011 17.5 25.4322 17.5H38C38.9797 17.5 39.8131 18.1261 40.122 19H43.7015C43.334 16.1787 40.9214 14 38 14H25.4322C24.9113 14 24.4066 13.8193 24.0041 13.4886L19.2175 9.55682C18.1889 8.71187 16.8989 8.25 15.5678 8.25H10Z" fill="#64748B"/>
<path fill-rule="evenodd" clip-rule="evenodd" d="M32.4 22C31.7635 22 31.153 22.2634 30.7029 22.7322C30.2529 23.2011 30 23.837 30 24.5V39.5C30 40.163 30.2529 40.7989 30.7029 41.2678C31.153 41.7366 31.7635 42 32.4 42H43.6C44.2365 42 44.847 41.7366 45.2971 41.2678C45.7471 40.7989 46 40.163 46 39.5V24.5C46 23.837 45.7471 23.2011 45.2971 22.7322C44.847 22.2634 44.2365 22 43.6 22H32.4Z" fill="#CFD8DC"/>
<path fill-rule="evenodd" clip-rule="evenodd" d="M32.6667 27.0017L38 37L43.3333 27.05V27H41.2595L38.0307 33.024L34.8172 27.0017H32.6667Z" fill="#0D9488"/>
<path fill-rule="evenodd" clip-rule="evenodd" d="M34 27L37.9895 34.5L42 27H39.5842L38.0067 29.9502L36.4349 27H34Z" fill="#35495E"/>
</svg>
