<svg width="48" height="48" viewBox="0 0 48 48" fill="none" xmlns="http://www.w3.org/2000/svg">
<path fill-rule="evenodd" clip-rule="evenodd" d="M10 8.25003C6.82436 8.25003 4.25 10.8244 4.25 14V34C4.25 37.1757 6.82436 39.75 10 39.75H26V36.25H10C8.75736 36.25 7.75 35.2427 7.75 34V14C7.75 12.7574 8.75736 11.75 10 11.75H15.5678C16.0887 11.75 16.5934 11.9308 16.9959 12.2614L21.7825 16.1932C22.8111 17.0382 24.1011 17.5 25.4322 17.5H38C39.2426 17.5 40.25 18.5074 40.25 19.75V20H43.75V19.75C43.75 16.5744 41.1756 14 38 14H25.4322C24.9113 14 24.4066 13.8193 24.0041 13.4887L19.2175 9.55685C18.1889 8.7119 16.8989 8.25003 15.5678 8.25003H10Z" fill="#64748B"/>
<path d="M29.234 34.0228C28.2603 28.8448 30.849 23.8332 36.7389 23.1681C36.4308 22.842 36.0438 22.6008 35.6154 22.4676C35.1869 22.3345 34.7314 22.314 34.2927 22.408C33.3902 22.6931 33.414 23.2869 32.3927 24.0469C31.3952 24.617 30.8727 24.1657 30.1365 24.7832C29.4002 25.377 29.899 26.7546 29.5902 27.0159C29.2815 27.5622 28.3315 28.0373 28.1415 28.7023C27.999 29.5574 28.5215 30.1749 28.5215 30.935C28.5928 31.5525 27.904 31.9088 27.999 32.4076C28.284 33.2152 28.854 33.714 29.1152 33.9515C29.1865 33.9753 29.2577 34.0703 29.234 34.0228Z" fill="#89FF8D"/>
<path d="M39.7552 26.8497C39.6544 26.8497 39.5577 26.8096 39.4865 26.7383C39.4152 26.6671 39.3752 26.5704 39.3752 26.4696C39.3752 26.2559 39.5414 26.0896 39.7552 26.0896C39.9689 26.0896 40.1352 26.2559 40.1352 26.4696C40.1352 26.6834 39.9689 26.8497 39.7552 26.8497ZM29.4715 34.5928C28.5215 30.0799 31.419 26.3271 37.0239 28.1798C40.3252 30.1037 44.4576 29.9849 44.6476 28.7261C45.1226 27.2297 42.5577 24.1657 38.7339 23.3581C31.134 21.8855 27.049 30.0799 29.4715 34.5928Z" fill="url(#paint0_radial_808_1397)"/>
<path d="M41.9164 35.0916C42.4837 35.1605 43.0591 35.1118 43.6067 34.9483C44.1542 34.7848 44.6622 34.5102 45.0989 34.1415C43.6819 35.7269 41.7085 36.7052 39.5889 36.873C40.6102 37.7518 41.6077 38.1318 42.5577 37.9656C39.9214 38.7019 37.7127 37.8943 35.0527 35.2341C34.9102 35.9467 35.6702 37.063 36.4539 37.7756C31.894 35.8042 31.4902 29.6761 37.0239 28.156C31.3002 25.4008 28.0465 30.7687 29.6377 35.1628C30.5875 37.0131 32.0844 38.5256 33.9245 39.4947C35.7646 40.4637 37.8586 40.8421 39.9214 40.5783C41.4469 40.3768 42.8897 39.7674 44.0977 38.8143C45.3057 37.8611 46.2342 36.5997 46.7851 35.1628C45.8 35.9911 44.625 36.5623 43.3652 36.8255C45.9301 35.5429 47.3076 33.3577 46.9276 30.3887C46.4938 31.5257 45.7641 32.5262 44.8139 33.2864C46.6901 30.3887 46.3576 28.8686 44.9801 27.2297C45.9776 29.9374 44.6951 32.9302 41.9164 35.0916Z" fill="url(#paint1_radial_808_1397)"/>
<path d="M40.5864 38.2031C40.3964 38.1556 41.0377 38.4644 39.8027 38.1318C38.5677 37.7993 37.3089 37.4905 35.029 35.2104C34.8865 35.9229 35.6465 37.0393 36.4302 37.7518C38.5439 39.2244 37.0952 38.5356 40.3252 39.652C40.5864 39.1532 40.5864 38.7019 40.5864 38.2031Z" fill="url(#paint2_linear_808_1397)"/>
<path d="M36.5014 26.6359C36.5014 26.6359 36.7864 26.2321 36.8814 26.0421C37.0239 25.8046 37.2139 25.4008 37.2139 25.4008C37.2139 25.4008 35.0527 24.6882 34.5302 24.617C32.8915 25.0445 32.8915 25.7333 33.794 26.7784C33.9127 26.8972 36.5014 26.6359 36.5014 26.6359Z" fill="url(#paint3_linear_808_1397)"/>
<defs>
<radialGradient id="paint0_radial_808_1397" cx="0" cy="0" r="1" gradientUnits="userSpaceOnUse" gradientTransform="translate(42.9425 29.2628) scale(17.0923 16.4527)">
<stop stop-color="#89FF8D"/>
<stop offset="1" stop-color="#002801"/>
</radialGradient>
<radialGradient id="paint1_radial_808_1397" cx="0" cy="0" r="1" gradientUnits="userSpaceOnUse" gradientTransform="translate(41.0525 23.1596) scale(15.522 14.9607)">
<stop stop-color="#89FF8D"/>
<stop offset="0.29" stop-color="#019606"/>
<stop offset="1" stop-color="#63FF69" stop-opacity="0.537255"/>
</radialGradient>
<linearGradient id="paint2_linear_808_1397" x1="31.2048" y1="22.6437" x2="42.655" y2="38.4289" gradientUnits="userSpaceOnUse">
<stop stop-color="#89FF8D"/>
<stop offset="0.67" stop-color="#89FF8D"/>
<stop offset="0.705295" stop-color="#90D9A4" stop-opacity="0.823524"/>
<stop offset="0.83" stop-color="#5CFF62" stop-opacity="0.2"/>
<stop offset="1" stop-color="#4CFF52" stop-opacity="0"/>
</linearGradient>
<linearGradient id="paint3_linear_808_1397" x1="35.7534" y1="26.2203" x2="35.3852" y2="25.5196" gradientUnits="userSpaceOnUse">
<stop stop-color="#89FF8D" stop-opacity="0.15"/>
<stop offset="0.4" stop-color="#89FF8D" stop-opacity="0.4"/>
<stop offset="0.65" stop-color="#52FF58" stop-opacity="0.89"/>
<stop offset="1" stop-color="#4DFF53"/>
</linearGradient>
</defs>
</svg>
