<svg width="48" height="48" viewBox="0 0 48 48" fill="none" xmlns="http://www.w3.org/2000/svg">
<path fill-rule="evenodd" clip-rule="evenodd" d="M10 8.25C6.82436 8.25 4.25 10.8244 4.25 14V34C4.25 37.1756 6.82436 39.75 10 39.75H24V36.25H10C8.75736 36.25 7.75 35.2426 7.75 34V14C7.75 12.7574 8.75736 11.75 10 11.75H15.5678C16.0887 11.75 16.5934 11.9307 16.9959 12.2614L21.7825 16.1932C22.8111 17.0381 24.1011 17.5 25.4322 17.5H38C38.9797 17.5 39.8131 18.1261 40.122 19H43.7015C43.334 16.1787 40.9214 14 38 14H25.4322C24.9113 14 24.4066 13.8193 24.0041 13.4886L19.2175 9.55682C18.1889 8.71187 16.8989 8.25 15.5678 8.25H10Z" fill="#64748B"/>
<path fill-rule="evenodd" clip-rule="evenodd" d="M28 36.929H32.0726V41H34.7855V34.2145H28V36.929ZM32.0726 26.0726H28V28.7855H34.7855V22H32.0726V26.0726ZM40.2145 41H42.929V36.929H47V34.2145H40.2145V41ZM42.929 26.0726V22H40.2145V28.7855H47V26.0743L42.929 26.0726Z" fill="#CFD8DC"/>
</svg>
