<svg width="48" height="48" viewBox="0 0 48 48" fill="none" xmlns="http://www.w3.org/2000/svg">
<path fill-rule="evenodd" clip-rule="evenodd" d="M10 8.25C6.82436 8.25 4.25 10.8244 4.25 14V34C4.25 37.1756 6.82436 39.75 10 39.75H26V36.25H10C8.75736 36.25 7.75 35.2426 7.75 34V14C7.75 12.7574 8.75736 11.75 10 11.75H15.5678C16.0887 11.75 16.5934 11.9307 16.9959 12.2614L21.7825 16.1932C22.8111 17.0381 24.1011 17.5 25.4322 17.5H38C39.2426 17.5 40.25 18.5074 40.25 19.75V20H43.75V19.75C43.75 16.5744 41.1756 14 38 14H25.4322C24.9113 14 24.4066 13.8193 24.0041 13.4886L19.2175 9.55682C18.1889 8.71187 16.8989 8.25 15.5678 8.25H10Z" fill="#64748B"/>
<path d="M27 28.5833C27 27.985 27.485 27.5 28.0833 27.5C28.6816 27.5 29.1667 27.985 29.1667 28.5833V32.9167C29.1667 33.515 28.6816 34 28.0833 34C27.485 34 27 33.515 27 32.9167V28.5833Z" fill="#CFD8DC"/>
<path d="M31.3333 25.3333C31.3333 24.735 31.8184 24.25 32.4167 24.25C33.015 24.25 33.5 24.735 33.5 25.3333V36.1667C33.5 36.765 33.015 37.25 32.4167 37.25C31.8184 37.25 31.3333 36.765 31.3333 36.1667V25.3333Z" fill="#CFD8DC"/>
<path d="M35.6667 22.0833C35.6667 21.485 36.1517 21 36.75 21C37.3483 21 37.8333 21.485 37.8333 22.0833V39.4167C37.8333 40.015 37.3483 40.5 36.75 40.5C36.1517 40.5 35.6667 40.015 35.6667 39.4167V22.0833Z" fill="#CFD8DC"/>
<path d="M40 25.3333C40 24.735 40.485 24.25 41.0833 24.25C41.6816 24.25 42.1667 24.735 42.1667 25.3333V36.1667C42.1667 36.765 41.6816 37.25 41.0833 37.25C40.485 37.25 40 36.765 40 36.1667V25.3333Z" fill="#CFD8DC"/>
<path d="M44.3333 28.5833C44.3333 27.985 44.8184 27.5 45.4167 27.5C46.015 27.5 46.5 27.985 46.5 28.5833V32.9167C46.5 33.515 46.015 34 45.4167 34C44.8184 34 44.3333 33.515 44.3333 32.9167V28.5833Z" fill="#CFD8DC"/>
</svg>
