<svg width="48" height="48" viewBox="0 0 48 48" fill="none" xmlns="http://www.w3.org/2000/svg">
<path fill-rule="evenodd" clip-rule="evenodd" d="M10 8.25003C6.82439 8.25003 4.25003 10.8244 4.25003 14V34C4.25003 37.1757 6.82439 39.75 10 39.75H22V36.25H10C8.75739 36.25 7.75003 35.2427 7.75003 34V14C7.75003 12.7574 8.75739 11.75 10 11.75H15.5678C16.0887 11.75 16.5935 11.9308 16.996 12.2614L21.7825 16.1932C22.8111 17.0382 24.1011 17.5 25.4323 17.5H38C39.2427 17.5 40.25 18.5074 40.25 19.75V20H43.75V19.75C43.75 16.5744 41.1757 14 38 14H25.4323C24.9114 14 24.4066 13.8193 24.0041 13.4887L19.2175 9.55685C18.1889 8.7119 16.899 8.25003 15.5678 8.25003H10Z" fill="#64748B"/>
<path fill-rule="evenodd" clip-rule="evenodd" d="M40.4097 24C40.196 24 39.9999 24.0039 39.8532 24.0157C38.7068 24.0967 37.6369 24.5071 36.9034 25.1462C36.5367 25.4664 36.2035 25.9251 36.0425 26.3355C35.8623 26.7877 35.8639 26.7799 35.8639 27.4883C35.8639 28.394 35.9213 28.6175 36.2976 29.22C36.6755 29.8264 37.2511 30.3204 38.0834 30.753C38.4469 30.9438 39.3796 31.3242 40.1402 31.5947C41.7984 32.1829 42.3231 32.4547 42.5654 32.8507L42.6659 33.0141V33.3565C42.6659 33.6872 42.6659 33.7041 42.5829 33.8401C42.3964 34.155 41.9547 34.4138 41.3887 34.538C41.175 34.585 41.0778 34.5916 40.5994 34.5916C40.1323 34.5916 40.019 34.5837 39.8038 34.5393C39.4729 34.4767 39.1572 34.3694 38.8694 34.2217C38.5665 34.0583 37.9734 33.5682 37.7326 33.2807C37.6258 33.1552 37.5189 33.052 37.495 33.052C37.4551 33.052 35.4095 34.01 35.0523 34.1969C34.9327 34.2596 34.9024 34.2884 34.9024 34.338C34.9024 34.4426 35.3808 35.0346 35.7539 35.394C36.5176 36.1259 38.0467 36.7729 39.402 36.9349C39.9377 36.9977 40.8258 37.0186 41.4477 36.982C41.8752 36.9533 42.2979 36.888 42.7089 36.7873C44.3098 36.403 45.4019 35.5849 45.8053 34.4687C45.9735 33.9858 46.0334 33.4819 45.9823 32.9814C45.8707 32.0116 45.5072 31.3255 44.7897 30.7334C44.1232 30.1806 43.2096 29.7375 41.4031 29.088C39.8373 28.526 39.4291 28.3064 39.2027 27.9117C39.0082 27.5706 39.0464 27.1014 39.2904 26.8087C39.5774 26.4675 40.1625 26.2989 40.8163 26.3695C41.4222 26.4349 41.8144 26.6322 42.2003 27.0648C42.3996 27.2883 42.5383 27.4046 42.6037 27.4046C42.6706 27.4046 42.9529 27.2622 43.8282 26.7851C44.7211 26.3002 45.0017 26.1356 45.0209 26.0859C45.0512 26.0088 44.9093 25.8284 44.5011 25.418C43.6799 24.592 42.7153 24.1529 41.4748 24.0431C41.1208 24.0147 40.7653 24.0003 40.4097 24ZM30.5463 24.1398H28.0367C23.1927 24.1451 22.067 24.1516 22.0367 24.1764C22.008 24.2013 22 24.4444 22 25.3527V26.4989L24.2035 26.5054L26.4055 26.512V31.6222C26.4055 34.4347 26.4151 36.7585 26.4246 36.7873L26.4406 36.8395H28.043C29.4765 36.8395 29.6454 36.8382 29.6614 36.8029C29.671 36.7833 29.6774 34.4596 29.6774 31.6392V26.512L31.8809 26.5054L34.0829 26.4989V25.3396C34.0829 24.3346 34.0781 24.1764 34.0398 24.1581C34.0207 24.1477 32.7547 24.1411 30.5479 24.1398H30.5463Z" fill="#8CDBFF"/>
</svg>
