<svg width="48" height="48" viewBox="0 0 48 48" fill="none" xmlns="http://www.w3.org/2000/svg">
<path fill-rule="evenodd" clip-rule="evenodd" d="M10 8.25003C6.82436 8.25003 4.25 10.8244 4.25 14V34C4.25 37.1757 6.82436 39.75 10 39.75H28V36.25H10C8.75736 36.25 7.75 35.2427 7.75 34V14C7.75 12.7574 8.75736 11.75 10 11.75H15.5678C16.0887 11.75 16.5934 11.9308 16.9959 12.2614L21.7825 16.1932C22.8111 17.0382 24.1011 17.5 25.4322 17.5H38C39.2426 17.5 40.25 18.5074 40.25 19.75V20H43.75V19.75C43.75 16.5744 41.1756 14 38 14H25.4322C24.9113 14 24.4066 13.8193 24.0041 13.4887L19.2175 9.55685C18.1889 8.7119 16.8989 8.25003 15.5678 8.25003H10Z" fill="#64748B"/>
<path fill-rule="evenodd" clip-rule="evenodd" d="M45.7871 32.4855C45.9068 32.3686 45.9734 32.208 45.9867 32.0181C46 31.6384 45.7471 31.3318 45.4011 31.3026C45.2414 31.288 45.0817 31.361 44.9619 31.4632L33.8093 38.1663C33.5564 38.2832 33.3302 38.4876 33.1838 38.7651C32.7978 39.4661 33.0108 40.3715 33.6629 40.795C34.1154 41.0871 34.6611 41.0579 35.0869 40.7658C35.1135 40.7366 35.1535 40.722 35.1801 40.6928L45.5608 32.6899C45.6141 32.6461 45.7605 32.5293 45.7871 32.4855Z" fill="url(#paint0_linear_808_1121)"/>
<path fill-rule="evenodd" clip-rule="evenodd" d="M45.8137 31.507L37.3228 22.3651C37.1365 22.146 36.8703 22 36.5642 22C35.9919 22 35.5394 22.5111 35.5394 23.1245C35.5394 23.4312 35.6459 23.694 35.8189 23.8985C35.8721 23.9569 35.9254 24.0007 35.9786 24.0445L44.9486 32.4709C45.0551 32.5731 45.1882 32.6461 45.3479 32.6607C45.6939 32.6754 45.9734 32.3979 46 32.0182C46 31.8283 45.9335 31.6385 45.8137 31.507Z" fill="url(#paint1_linear_808_1121)"/>
<path fill-rule="evenodd" clip-rule="evenodd" d="M37.6026 30.6893C37.5893 30.6893 32.359 26.1621 32.2525 26.0891L32.013 25.9577C31.2411 25.6364 30.3893 26.0745 30.0965 26.9215C29.8437 27.6663 30.1231 28.4841 30.7087 28.8784C30.8019 28.9368 30.8817 28.9806 30.9749 29.0099C31.0281 29.0391 37.017 31.7554 37.017 31.7554C37.2566 31.8722 37.536 31.7992 37.6957 31.5801C37.8954 31.3026 37.8554 30.9083 37.6026 30.6893Z" fill="url(#paint2_linear_808_1121)"/>
<path fill-rule="evenodd" clip-rule="evenodd" d="M36.5642 22C36.3379 22 36.1249 22.0876 35.9519 22.2191L30.6551 26.1329C30.6418 26.1475 30.6285 26.1475 30.6285 26.1621H30.6152C30.3889 26.3373 30.2026 26.6002 30.0961 26.9069C29.8033 27.7539 30.203 28.7032 30.9749 29.0099C31.454 29.2143 31.9726 29.112 32.3586 28.8054C32.4518 28.7323 32.5316 28.6593 32.5981 28.5717L37.2029 24.0153C37.4425 23.8109 37.6022 23.4896 37.6022 23.1245C37.6022 22.5111 37.1365 22 36.5642 22Z" fill="url(#paint3_linear_808_1121)"/>
<defs>
<linearGradient id="paint0_linear_808_1121" x1="31.5379" y1="38.2698" x2="47.1927" y2="32.8578" gradientUnits="userSpaceOnUse">
<stop stop-color="#FDD835"/>
<stop offset="1" stop-color="#F57C00"/>
</linearGradient>
<linearGradient id="paint1_linear_808_1121" x1="31.3763" y1="23.7979" x2="48.8939" y2="35.7929" gradientUnits="userSpaceOnUse">
<stop stop-color="#EF5350"/>
<stop offset="0.57" stop-color="#FF6E40"/>
<stop offset="1" stop-color="#F57C00"/>
</linearGradient>
<linearGradient id="paint2_linear_808_1121" x1="44.419" y1="39.3527" x2="30.2551" y2="34.1799" gradientUnits="userSpaceOnUse">
<stop stop-color="#8E24AA"/>
<stop offset="0.385" stop-color="#AB47BC"/>
<stop offset="0.765" stop-color="#EC407A"/>
<stop offset="0.957" stop-color="#EC407A"/>
</linearGradient>
<linearGradient id="paint3_linear_808_1121" x1="36.9467" y1="22.5406" x2="31.0298" y2="26.994" gradientUnits="userSpaceOnUse">
<stop stop-color="#EF5350"/>
<stop offset="0.364" stop-color="#EE4E72"/>
<stop offset="1" stop-color="#EC407A"/>
</linearGradient>
</defs>
</svg>
