<svg width="48" height="48" viewBox="0 0 48 48" fill="none" xmlns="http://www.w3.org/2000/svg">
<path fill-rule="evenodd" clip-rule="evenodd" d="M10 8.25003C6.82439 8.25003 4.25003 10.8244 4.25003 14V34C4.25003 37.1757 6.82439 39.75 10 39.75H28V36.25H10C8.75739 36.25 7.75003 35.2427 7.75003 34V14C7.75003 12.7574 8.75739 11.75 10 11.75H15.5678C16.0887 11.75 16.5935 11.9308 16.996 12.2614L21.7825 16.1932C22.8111 17.0382 24.1011 17.5 25.4323 17.5H38C39.1236 17.5 40.0548 18.3236 40.223 19.4H43.7396C43.5586 16.3874 41.0581 14 38 14H25.4323C24.9114 14 24.4066 13.8193 24.0041 13.4887L19.2175 9.55685C18.1889 8.7119 16.899 8.25003 15.5678 8.25003H10Z" fill="#64748B"/>
<path fill-rule="evenodd" clip-rule="evenodd" d="M46.2217 38.1994H33.7783V28.2991H46.2217M46.2217 23.7977H45.3326V22H43.5558V23.7977H36.4442V22H34.6659V23.7977H33.7783C32.791 23.7977 32 24.6088 32 25.5982V38.1994C32 38.677 32.1874 39.1349 32.5208 39.4726C32.8543 39.8103 33.3066 40 33.7783 40H46.2217C46.6934 40 47.1457 39.8103 47.4792 39.4726C47.8126 39.1349 48 38.677 48 38.1994V25.5997C48 25.1222 47.8126 24.6642 47.4792 24.3265C47.1457 23.9888 46.6934 23.7977 46.2217 23.7977ZM44.0263 31.0526L43.0838 30.0997L38.7464 34.4916L36.8613 32.5828L35.9203 33.5372L38.7464 36.3988L44.0263 31.0526Z" fill="#C5CAE9"/>
</svg>
