<svg width="48" height="48" viewBox="0 0 48 48" fill="none" xmlns="http://www.w3.org/2000/svg">
<g clip-path="url(#clip0_803_105)">
<path fill-rule="evenodd" clip-rule="evenodd" d="M10 8.25C6.82436 8.25 4.25 10.8244 4.25 14V34C4.25 37.1756 6.82436 39.75 10 39.75H23V36.25H10C8.75736 36.25 7.75 35.2426 7.75 34V14C7.75 12.7574 8.75736 11.75 10 11.75H15.5678C16.0887 11.75 16.5934 11.9307 16.9959 12.2614L21.7825 16.1932C22.8111 17.0381 24.1011 17.5 25.4322 17.5H38C38.5358 17.5 39.0279 17.6873 39.4143 18H43.4788C42.7385 15.6801 40.5654 14 38 14H25.4322C24.9113 14 24.4066 13.8193 24.0041 13.4886L19.2175 9.55682C18.1889 8.71187 16.8989 8.25 15.5678 8.25H10Z" fill="#64748B"/>
<ellipse cx="37.8894" cy="24.5134" rx="4.02127" ry="4.21337" fill="#C084FC"/>
<ellipse cx="31.7957" cy="35.5567" rx="4.02127" ry="4.21337" fill="#C084FC"/>
<ellipse cx="43.9833" cy="35.5567" rx="4.02127" ry="4.21337" fill="#C084FC"/>
</g>
<defs>
<clipPath id="clip0_803_105">
<rect width="48" height="48" fill="white"/>
</clipPath>
</defs>
</svg>
