<svg width="48" height="48" viewBox="0 0 48 48" fill="none" xmlns="http://www.w3.org/2000/svg">
<path fill-rule="evenodd" clip-rule="evenodd" d="M10 8.25C6.82439 8.25 4.25003 10.8244 4.25003 14V34C4.25003 37.1756 6.82439 39.75 10 39.75H18V36.25H10C8.75739 36.25 7.75003 35.2426 7.75003 34V14C7.75003 12.7574 8.75739 11.75 10 11.75H15.5678C16.0887 11.75 16.5935 11.9307 16.996 12.2614L21.7825 16.1932C22.8111 17.0381 24.1011 17.5 25.4323 17.5H38C39.2427 17.5 40.25 18.5074 40.25 19.75V20H43.75V19.75C43.75 16.5744 41.1757 14 38 14H25.4323C24.9114 14 24.4066 13.8193 24.0041 13.4886L19.2175 9.55682C18.1889 8.71187 16.899 8.25 15.5678 8.25H10Z" fill="#64748B"/>
<path d="M38 37.4674C38 37.7616 37.7616 38 37.4674 38H31.0861C30.792 38 30.5535 37.7616 30.5535 37.4674C30.5535 37.1733 30.7922 36.9375 31.086 36.9228C31.4488 36.9047 31.7296 36.8663 31.9286 36.8075C32.2161 36.7149 32.3598 36.5027 32.3598 36.1708C32.3598 35.9392 32.3132 35.7038 32.22 35.4645L31.4741 33.6122H26.3467L25.9621 34.631C25.7446 35.2021 25.6358 35.6151 25.6358 35.8698C25.6358 36.3329 25.8145 36.6261 26.1719 36.7496C26.3961 36.8255 26.6423 36.878 26.9105 36.9073C27.2029 36.9392 27.4421 37.1733 27.4421 37.4674C27.4421 37.7616 27.2037 38 26.9095 38H22.5326C22.2384 38 22 37.7616 22 37.4674C22 37.1733 22.2407 36.9429 22.5298 36.889C22.7434 36.8491 22.9358 36.7834 23.1071 36.6918C23.4101 36.5297 23.6975 36.2248 23.9694 35.7771C24.2491 35.3218 24.5482 34.6811 24.8667 33.8553L29.2237 22.5189C29.3439 22.2063 29.6442 22 29.9791 22C30.3116 22 30.6103 22.2034 30.7321 22.5128L35.343 34.2258C35.6926 35.0902 35.949 35.6768 36.1122 35.9855C36.2753 36.2865 36.5006 36.5219 36.7881 36.6918C36.9689 36.7937 37.1958 36.8636 37.4689 36.9014C37.7602 36.9418 38 37.1733 38 37.4674ZM31.0546 32.4776L28.8755 27.0014L26.8012 32.4776H31.0546Z" fill="#FF7C7C"/>
<path d="M48 35.8606C48 36.3238 47.8989 36.72 47.6967 37.0491C47.4945 37.3722 47.2205 37.613 46.8748 37.7714C46.5356 37.9238 46.1507 38 45.7202 38C45.1722 38 44.7156 37.8811 44.3503 37.6434C43.985 37.3996 43.7665 37.1101 43.6947 36.7749C42.6053 37.5916 41.5095 38 40.407 38C39.7025 38 39.1252 37.8415 38.6751 37.5246C38.225 37.2015 38 36.7779 38 36.2537C38 35.821 38.1207 35.4309 38.362 35.0834C38.6034 34.7299 38.9556 34.416 39.4188 34.1417C39.8885 33.8674 40.4462 33.6267 41.092 33.4194C41.7378 33.2061 42.5434 32.9836 43.5088 32.752V32.2309C43.5088 31.7981 43.3979 31.4598 43.1761 31.216C42.9609 30.9661 42.5597 30.8411 41.9726 30.8411C41.4703 30.8411 41.1083 30.9387 40.8865 31.1337C40.6647 31.3288 40.5179 31.6244 40.4462 32.0206C40.394 32.301 40.2962 32.5326 40.1526 32.7154C40.0157 32.8922 39.7254 32.9806 39.2818 32.9806C39.0078 32.9806 38.7665 32.9074 38.5577 32.7611C38.349 32.6149 38.2446 32.3985 38.2446 32.112C38.2446 31.5451 38.574 31.0514 39.2329 30.6309C39.8917 30.2103 40.9028 30 42.2661 30C43.7012 30 44.6862 30.2255 45.2211 30.6766C45.7626 31.1276 46.0333 31.731 46.0333 32.4869V35.376C46.0333 35.7417 46.0431 36.0099 46.0626 36.1806C46.0822 36.3512 46.1344 36.4823 46.2192 36.5737C46.3105 36.659 46.4508 36.7017 46.6399 36.7017C46.8095 36.7017 46.9563 36.6194 47.0802 36.4549C47.2107 36.2903 47.2759 36.0922 47.2759 35.8606H48ZM43.5088 35.9337V33.6663C42.2694 34.032 41.4801 34.3916 41.1409 34.7451C40.8082 35.0926 40.6419 35.4339 40.6419 35.7691C40.6419 36.0495 40.7332 36.275 40.9159 36.4457C41.0985 36.6164 41.3562 36.7017 41.6888 36.7017C42.0476 36.7017 42.364 36.6316 42.638 36.4914C42.9119 36.3512 43.2022 36.1653 43.5088 35.9337Z" fill="#FF7C7C"/>
</svg>
