<svg width="48" height="48" viewBox="0 0 48 48" fill="none" xmlns="http://www.w3.org/2000/svg">
<path fill-rule="evenodd" clip-rule="evenodd" d="M10 8.25003C6.82436 8.25003 4.25 10.8244 4.25 14V34C4.25 37.1757 6.82436 39.75 10 39.75H26V36.25H10C8.75736 36.25 7.75 35.2427 7.75 34V14C7.75 12.7574 8.75736 11.75 10 11.75H15.5678C16.0887 11.75 16.5934 11.9308 16.9959 12.2614L21.7825 16.1932C22.8111 17.0382 24.1011 17.5 25.4322 17.5H38C39.2426 17.5 40.25 18.5074 40.25 19.75V20H43.75V19.75C43.75 16.5744 41.1756 14 38 14H25.4322C24.9113 14 24.4066 13.8193 24.0041 13.4887L19.2175 9.55685C18.1889 8.7119 16.8989 8.25003 15.5678 8.25003H10Z" fill="#64748B"/>
<path d="M29.171 33.3965C28.2485 28.4703 30.701 23.7022 36.2809 23.0695C35.989 22.7592 35.6224 22.5297 35.2165 22.4031C34.8106 22.2764 34.379 22.2569 33.9634 22.3463C33.1084 22.6175 33.1309 23.1825 32.1634 23.9056C31.2185 24.4479 30.7235 24.0186 30.026 24.6061C29.3285 25.171 29.801 26.4817 29.5085 26.7303C29.216 27.25 28.316 27.7019 28.136 28.3347C28.001 29.1482 28.496 29.7357 28.496 30.4588C28.5635 31.0464 27.911 31.3853 28.001 31.8599C28.271 32.6282 28.811 33.1027 29.0585 33.3287C29.126 33.3513 29.1935 33.4417 29.171 33.3965Z" fill="#FFCE50"/>
<path d="M39.1384 26.5721C39.0429 26.5721 38.9514 26.534 38.8838 26.4662C38.8163 26.3984 38.7784 26.3064 38.7784 26.2105C38.7784 26.0071 38.9359 25.849 39.1384 25.849C39.3409 25.849 39.4984 26.0071 39.4984 26.2105C39.4984 26.4139 39.3409 26.5721 39.1384 26.5721ZM29.396 33.9388C28.496 29.6453 31.241 26.0749 36.5509 27.8375C39.6784 29.6679 43.5934 29.5549 43.7734 28.3573C44.2234 26.9336 41.7934 24.0186 38.1709 23.2502C30.971 21.8492 27.101 29.6453 29.396 33.9388Z" fill="url(#paint0_radial_808_1373)"/>
<path d="M41.1859 34.4134C41.7233 34.479 42.2684 34.4326 42.7872 34.2771C43.3059 34.1215 43.7872 33.8602 44.2009 33.5095C42.8585 35.0178 40.9889 35.9486 38.9809 36.1082C39.9484 36.9443 40.8934 37.3059 41.7934 37.1477C39.2959 37.8482 37.2034 37.0799 34.6834 34.549C34.5484 35.2269 35.2684 36.289 36.0109 36.9669C31.6909 35.0913 31.3084 29.2612 36.5509 27.8149C31.1285 25.1936 28.046 30.3007 29.5535 34.4812C30.4533 36.2415 31.8713 37.6805 33.6146 38.6024C35.3578 39.5244 37.3416 39.8843 39.2959 39.6334C40.7411 39.4417 42.1079 38.8619 43.2524 37.9551C44.3968 37.0483 45.2764 35.8482 45.7984 34.4812C44.865 35.2692 43.7519 35.8126 42.5584 36.063C44.9884 34.8427 46.2934 32.7638 45.9334 29.9391C45.5224 31.0209 44.831 31.9727 43.9309 32.696C45.7084 29.9391 45.3934 28.4929 44.0884 26.9336C45.0334 29.5097 43.8184 32.357 41.1859 34.4134Z" fill="url(#paint1_radial_808_1373)"/>
<path d="M39.9259 37.3737C39.7459 37.3285 40.3534 37.6222 39.1834 37.3059C38.0134 36.9895 36.8209 36.6957 34.6609 34.5264C34.5259 35.2043 35.2459 36.2664 35.9884 36.9443C37.9909 38.3453 36.6184 37.69 39.6784 38.7521C39.9259 38.2776 39.9259 37.8482 39.9259 37.3737Z" fill="url(#paint2_linear_808_1373)"/>
<path d="M36.0559 26.3687C36.0559 26.3687 36.3259 25.9845 36.4159 25.8038C36.5509 25.5778 36.7309 25.1936 36.7309 25.1936C36.7309 25.1936 34.6834 24.5157 34.1884 24.4479C32.6359 24.8547 32.6359 25.51 33.4909 26.5043C33.6034 26.6173 36.0559 26.3687 36.0559 26.3687Z" fill="url(#paint3_linear_808_1373)"/>
<defs>
<radialGradient id="paint0_radial_808_1373" cx="0" cy="0" r="1" gradientUnits="userSpaceOnUse" gradientTransform="translate(42.158 28.8679) scale(16.1927 15.653)">
<stop stop-color="#FFCE50"/>
<stop offset="1" stop-color="#684B00"/>
</radialGradient>
<radialGradient id="paint1_radial_808_1373" cx="0" cy="0" r="1" gradientUnits="userSpaceOnUse" gradientTransform="translate(40.3674 23.0613) scale(14.705 14.2335)">
<stop stop-color="#FFCE50"/>
<stop offset="0.29" stop-color="#976D00"/>
<stop offset="1" stop-color="#FFCE50" stop-opacity="0.537255"/>
</radialGradient>
<linearGradient id="paint2_linear_808_1373" x1="31.038" y1="22.5706" x2="41.9459" y2="37.5445" gradientUnits="userSpaceOnUse">
<stop stop-color="#FFCE50"/>
<stop offset="0.67" stop-color="#FFCE50"/>
<stop offset="0.705295" stop-color="#DFCC9A" stop-opacity="0.823524"/>
<stop offset="0.83" stop-color="#FFCE50" stop-opacity="0.2"/>
<stop offset="1" stop-color="#FFCE50" stop-opacity="0"/>
</linearGradient>
<linearGradient id="paint3_linear_808_1373" x1="35.3471" y1="25.9732" x2="34.996" y2="25.3078" gradientUnits="userSpaceOnUse">
<stop stop-color="#FFCE50" stop-opacity="0.15"/>
<stop offset="0.4" stop-color="#FFCE50" stop-opacity="0.4"/>
<stop offset="0.65" stop-color="#FFCE50" stop-opacity="0.89"/>
<stop offset="1" stop-color="#FFCE50"/>
</linearGradient>
</defs>
</svg>
