<svg width="48" height="48" viewBox="0 0 48 48" fill="none" xmlns="http://www.w3.org/2000/svg">
<path fill-rule="evenodd" clip-rule="evenodd" d="M10 8.25003C6.82439 8.25003 4.25003 10.8244 4.25003 14V34C4.25003 37.1757 6.82439 39.75 10 39.75H26V36.25H10C8.75739 36.25 7.75003 35.2427 7.75003 34V14C7.75003 12.7574 8.75739 11.75 10 11.75H15.5678C16.0887 11.75 16.5935 11.9308 16.996 12.2614L21.7825 16.1932C22.8111 17.0382 24.1011 17.5 25.4323 17.5H38C39.2427 17.5 40.25 18.5074 40.25 19.75V20H43.75V19.75C43.75 16.5744 41.1757 14 38 14H25.4323C24.9114 14 24.4066 13.8193 24.0041 13.4887L19.2175 9.55685C18.1889 8.7119 16.899 8.25003 15.5678 8.25003H10Z" fill="#64748B"/>
<path d="M39.1791 40.6965C38.6871 41.2846 37.6845 40.9615 37.6727 40.2119L37.4996 34.6658L37.464 29.2376H45.3068C46.7199 29.2376 47.5105 30.782 46.63 31.8289L39.179 40.6982L39.1791 40.6965ZM35.8999 22.3282C36.3987 21.6933 37.4098 22.0406 37.4216 22.8484L37.4997 34.6676H29.7078C28.2827 34.6676 27.4854 33.0036 28.3727 31.8776L35.8999 22.3265L35.8999 22.3282Z" fill="#89FF8D"/>
</svg>
