<svg width="24" height="24" viewBox="0 0 24 24" fill="none" xmlns="http://www.w3.org/2000/svg">
<path d="M21 16.5C21 16.88 20.79 17.21 20.47 17.38L12.57 21.82C12.41 21.94 12.21 22 12 22C11.79 22 11.59 21.94 11.43 21.82L3.53 17.38C3.36968 17.2958 3.23552 17.1692 3.14208 17.014C3.04864 16.8589 2.9995 16.6811 3 16.5V7.5C3 7.12 3.21 6.79 3.53 6.62L11.43 2.18C11.59 2.06 11.79 2 12 2C12.21 2 12.41 2.06 12.57 2.18L20.47 6.62C20.79 6.79 21 7.12 21 7.5V16.5ZM12.245 4.28771C12.0929 4.20219 11.9071 4.20219 11.755 4.28771L6.81546 7.06413C6.47544 7.25525 6.47544 7.74475 6.81545 7.93587L11.755 10.7123C11.9071 10.7978 12.0929 10.7978 12.245 10.7123L17.1846 7.93587C17.5246 7.74475 17.5246 7.25525 17.1846 7.06413L12.245 4.28771ZM5 15.6178C5 15.7983 5.09731 15.9648 5.2546 16.0534L10.2546 18.8701C10.5879 19.0579 11 18.817 11 18.4345V12.8726C11 12.6919 10.9025 12.5252 10.7449 12.4367L5.74486 9.62836C5.41156 9.44116 5 9.68203 5 10.0643V15.6178ZM18.7454 16.0534C18.9027 15.9648 19 15.7983 19 15.6178V10.0643C19 9.68203 18.5884 9.44116 18.2551 9.62836L13.2551 12.4367C13.0976 12.5252 13 12.6919 13 12.8726V18.4345C13 18.817 13.4121 19.0579 13.7454 18.8701L18.7454 16.0534Z" fill="#5B6071"/>
</svg>
