<svg width="24" height="24" viewBox="0 0 24 24" fill="none" xmlns="http://www.w3.org/2000/svg">
<path d="M10.355 1.614C12.9405 1.19809 15.5878 1.76753 17.7746 3.20998C19.9614 4.65243 21.5289 6.86314 22.168 9.406C22.5614 10.8778 22.6252 12.4185 22.3546 13.9178C22.0841 15.4171 21.4859 16.8381 20.603 18.079C19.7922 19.2165 18.7647 20.1822 17.5796 20.9204C16.3946 21.6587 15.0754 22.1549 13.698 22.3806C12.3207 22.6062 10.9124 22.5569 9.55413 22.2353C8.1959 21.9138 6.91461 21.3264 5.78401 20.507C4.62984 19.6695 3.65962 18.6037 2.9334 17.3755C2.20718 16.1474 1.74042 14.7831 1.56201 13.367C1.30698 11.3143 1.6541 9.23155 2.56101 7.373C3.30278 5.8566 4.39846 4.54144 5.7553 3.53882C7.11215 2.5362 8.69023 1.87562 10.356 1.613M10.626 5.438C9.67701 7.518 8.72601 9.598 7.79601 11.688C7.31701 13.033 6.66901 14.303 6.08001 15.603C5.90601 16.011 5.61201 16.456 5.79301 16.915C5.84869 17.0645 5.93646 17.1999 6.05012 17.3117C6.16377 17.4235 6.30053 17.5089 6.45075 17.5619C6.60096 17.615 6.76097 17.6343 6.91946 17.6186C7.07796 17.6029 7.23108 17.5525 7.36801 17.471C7.82601 17.21 7.93401 16.643 8.14601 16.199C9.09801 13.794 10.276 11.491 11.256 9.095C11.4492 8.53224 11.7097 7.99499 12.032 7.495C12.6 8.901 13.218 10.286 13.805 11.685C14.1868 12.3899 14.5108 13.1247 14.774 13.882C13.264 13.867 11.754 13.878 10.243 13.872C12.316 15.105 14.445 16.251 16.548 17.434C16.7216 17.5511 16.9252 17.616 17.1345 17.6207C17.3438 17.6255 17.5501 17.5701 17.7289 17.461C17.9077 17.3519 18.0515 17.1938 18.1431 17.0054C18.2348 16.8169 18.2705 16.6061 18.246 16.398C17.821 15.248 17.232 14.161 16.746 13.034C15.829 10.641 14.67 8.349 13.649 5.998C13.508 5.55272 13.2537 5.15189 12.911 4.835C12.726 4.70854 12.5159 4.62336 12.2952 4.58522C12.0744 4.54709 11.848 4.5569 11.6313 4.61398C11.4147 4.67106 11.2128 4.77409 11.0393 4.91608C10.8659 5.05808 10.7249 5.23572 10.626 5.437V5.438Z" fill="#5B6071"/>
</svg>
