<svg width="24" height="24" viewBox="0 0 24 24" fill="none" xmlns="http://www.w3.org/2000/svg">
<path d="M12.0002 1.97186C10.9183 1.97186 9.88065 2.40167 9.11559 3.16673C8.35053 3.93179 7.92072 4.96943 7.92072 6.05138C7.92147 7.12841 8.34809 8.16144 9.10753 8.92514L5.9352 13.9423C5.68408 13.8939 5.42896 13.8691 5.1732 13.8684C4.63745 13.8684 4.10694 13.9739 3.61197 14.1789C3.11699 14.3839 2.66724 14.6844 2.28839 15.0632C1.90955 15.442 1.60903 15.8918 1.404 16.3867C1.19897 16.8817 1.09344 17.4122 1.09344 17.9479C1.09351 19.0299 1.52334 20.0674 2.28839 20.8324C3.05344 21.5974 4.09105 22.0272 5.17296 22.0272C6.25492 22.0272 7.29256 21.5974 8.05762 20.8324C8.82268 20.0673 9.25248 19.0297 9.25248 17.9477C9.25175 17.3019 9.0977 16.6655 8.803 16.0908C8.50831 15.5161 8.08139 15.0197 7.55736 14.6422L10.5756 9.86858C11.031 10.0403 11.5135 10.1292 12.0002 10.1309C12.5055 10.1308 13.0063 10.0368 13.4772 9.8537L16.4861 14.6129C15.95 14.9885 15.5122 15.4876 15.2096 16.068C14.907 16.6484 14.7485 17.2931 14.7475 17.9477C14.7475 18.4835 14.8529 19.014 15.0579 19.509C15.2629 20.004 15.5634 20.4538 15.9422 20.8327C16.321 21.2115 16.7708 21.5121 17.2658 21.7171C17.7607 21.9222 18.2913 22.0277 18.827 22.0277C19.3628 22.0277 19.8933 21.9222 20.3883 21.7171C20.8833 21.5121 21.333 21.2115 21.7119 20.8327C22.0907 20.4538 22.3912 20.004 22.5962 19.509C22.8012 19.014 22.9066 18.4835 22.9066 17.9477C22.9066 16.8657 22.4768 15.8281 21.7117 15.063C20.9466 14.298 19.909 13.8682 18.827 13.8682C18.5897 13.8685 18.3528 13.8895 18.119 13.9311L14.929 8.8853C15.6654 8.12568 16.078 7.10964 16.0795 6.05162C16.0795 4.96967 15.6497 3.93202 14.8847 3.16697C14.1196 2.40191 13.082 1.9721 12 1.9721L12.0002 1.97186Z" fill="#5B6071"/>
</svg>
