<svg width="24" height="24" viewBox="0 0 24 24" fill="none" xmlns="http://www.w3.org/2000/svg">
<path d="M18.733 19.499C17.903 20.739 17.023 21.949 15.683 21.969C14.343 21.999 13.913 21.179 12.393 21.179C10.863 21.179 10.393 21.949 9.12298 21.999C7.81298 22.049 6.82298 20.679 5.98298 19.469C4.27298 16.999 2.96298 12.449 4.72298 9.38902C5.59298 7.86902 7.15298 6.90902 8.84298 6.87902C10.123 6.85902 11.343 7.74902 12.133 7.74902C12.913 7.74902 14.393 6.67902 15.943 6.83902C16.593 6.86902 18.413 7.09902 19.583 8.81902C19.493 8.87902 17.413 10.099 17.433 12.629C17.463 15.649 20.083 16.659 20.113 16.669C20.083 16.739 19.693 18.109 18.733 19.499ZM13.023 3.49902C13.753 2.66902 14.963 2.03902 15.963 1.99902C16.093 3.16902 15.623 4.34902 14.923 5.18902C14.233 6.03902 13.093 6.69902 11.973 6.60902C11.823 5.45902 12.383 4.25902 13.023 3.49902Z" fill="#5B6071"/>
</svg>
