<svg width="24" height="24" viewBox="0 0 24 24" fill="none" xmlns="http://www.w3.org/2000/svg">
<path d="M2.69972 1.54672C2.14755 1.54689 1.70001 1.99456 1.70001 2.54672V21.45C1.70001 22.0023 2.14773 22.45 2.70001 22.45H4.08201C4.6343 22.45 5.08201 22.0023 5.08201 21.45V21.2075C5.08201 20.7406 4.70347 20.362 4.23651 20.362V20.362C3.76956 20.362 3.39101 19.9835 3.39101 19.5165V4.48152C3.39101 4.01456 3.76956 3.63602 4.23651 3.63602V3.63602C4.70347 3.63602 5.08201 3.25748 5.08201 2.79052V2.54632C5.08201 1.99392 4.63412 1.54615 4.08172 1.54632L2.69972 1.54672ZM19.9183 1.54732C19.3659 1.54715 18.918 1.99492 18.918 2.54732V2.79002C18.918 3.25781 19.2972 3.63702 19.765 3.63702V3.63702C20.2328 3.63702 20.612 4.01624 20.612 4.48402V19.517C20.612 19.9848 20.2328 20.364 19.765 20.364V20.364C19.2972 20.364 18.918 20.7432 18.918 21.211V21.454C18.918 22.0063 19.3657 22.454 19.918 22.454H21.301C21.8533 22.454 22.301 22.0063 22.301 21.454V2.54772C22.301 1.99556 21.8535 1.54789 21.3013 1.54772L19.9183 1.54732ZM15.165 4.00802C14.665 4.00802 14.235 4.08302 13.875 4.23302C13.515 4.38202 13.223 4.60502 12.998 4.90302C12.7591 5.23531 12.591 5.61311 12.504 6.01302C12.3928 6.51862 12.3405 7.03539 12.348 7.55302C12.342 8.06565 12.3923 8.57738 12.498 9.07902C12.599 9.52102 12.763 9.89102 12.988 10.189C13.211 10.488 13.501 10.714 13.861 10.866C14.221 11.018 14.656 11.096 15.165 11.096C15.683 11.096 16.119 11.021 16.473 10.871C16.8159 10.7273 17.1151 10.4963 17.341 10.201C17.561 9.91102 17.722 9.53902 17.826 9.08802C17.93 8.63402 17.982 8.12102 17.982 7.54802C17.982 6.97502 17.93 6.47002 17.83 6.03402C17.7472 5.63558 17.582 5.25886 17.345 4.92802C17.1223 4.62539 16.8221 4.38841 16.476 4.24202C16.123 4.08602 15.686 4.00802 15.165 4.00802ZM8.83465 4.12802C8.5648 4.12802 8.35398 4.35591 8.21301 4.58602V4.58602C8.12406 4.71576 8.00081 4.81824 7.85701 4.88202C7.69733 4.95313 7.5277 4.99933 7.35401 5.01902C7.32853 5.02206 7.30303 5.02492 7.27751 5.02759C6.97254 5.05948 6.72301 5.30487 6.72301 5.6115V5.6115C6.72301 5.91775 6.97128 6.16602 7.27753 6.16602H7.44051C7.83678 6.16602 8.15801 6.48726 8.15801 6.88352V9.04852C8.15801 9.44478 7.83678 9.76602 7.44051 9.76602H7.31701C6.98895 9.76602 6.72301 10.032 6.72301 10.36V10.36C6.72301 10.6881 6.98896 10.954 7.31701 10.954H10.6735C11.0018 10.954 11.268 10.6879 11.268 10.3595V10.3595C11.268 10.0312 11.0018 9.76502 10.6735 9.76502H10.5655C10.1775 9.76502 9.86301 9.4505 9.86301 9.06252V4.89751C9.86301 4.47253 9.5185 4.12802 9.09353 4.12802H8.83465ZM15.165 5.26602C15.54 5.26602 15.808 5.44202 15.97 5.79302C16.131 6.14002 16.211 6.72502 16.211 7.54902C16.211 8.36202 16.129 8.94802 15.964 9.30402C15.8 9.66102 15.534 9.83802 15.165 9.83802C14.796 9.83802 14.529 9.66102 14.364 9.30402C14.199 8.94702 14.117 8.36402 14.117 7.55602C14.117 6.72602 14.199 6.14002 14.36 5.79302C14.522 5.44302 14.79 5.26602 15.165 5.26602ZM8.83501 12.9055C8.83501 12.9058 8.83479 12.906 8.83451 12.906C8.33472 12.9061 7.90489 12.9791 7.54501 13.129C7.19702 13.2696 6.89386 13.5023 6.66801 13.802C6.44201 14.103 6.27801 14.472 6.17401 14.908C6.07001 15.344 6.01901 15.857 6.01901 16.448C6.01901 17.021 6.06801 17.53 6.16901 17.975C6.26901 18.417 6.43301 18.788 6.65901 19.087C6.88101 19.386 7.17301 19.611 7.53301 19.764C7.89301 19.917 8.32601 19.992 8.83501 19.992C9.35301 19.992 9.78901 19.917 10.143 19.767C10.486 19.623 10.7855 19.3921 11.012 19.097C11.231 18.807 11.392 18.435 11.496 17.984C11.6 17.53 11.652 17.017 11.652 16.444C11.652 15.871 11.602 15.366 11.502 14.93C11.4185 14.5315 11.2526 14.1547 11.015 13.824C10.793 13.5215 10.4935 13.2845 10.148 13.138C9.79513 12.9821 9.3563 12.9051 8.83552 12.905C8.83524 12.905 8.83501 12.9052 8.83501 12.9055V12.9055ZM14.68 13.024C14.6745 13.1859 14.6273 13.3437 14.543 13.482C14.4538 13.6119 14.3302 13.7144 14.186 13.778C14.052 13.842 13.885 13.888 13.684 13.915C13.6589 13.918 13.6337 13.9208 13.6085 13.9235C13.303 13.9555 13.053 14.2013 13.053 14.5085V14.5085C13.053 14.8153 13.3017 15.064 13.6085 15.064H13.7705C14.1668 15.064 14.488 15.3853 14.488 15.7815V17.9435C14.488 18.3398 14.1668 18.661 13.7705 18.661H13.6475C13.3192 18.661 13.053 18.9272 13.053 19.2555V19.2555C13.053 19.5839 13.3192 19.85 13.6475 19.85H17.002C17.3306 19.85 17.597 19.5836 17.597 19.255V19.255C17.597 18.9264 17.3306 18.66 17.002 18.66H16.895C16.5073 18.66 16.193 18.3457 16.193 17.958V13.7795C16.193 13.3617 15.8543 13.023 15.4365 13.023H14.681C14.6805 13.023 14.68 13.0235 14.68 13.024V13.024ZM8.83501 14.162C9.21001 14.162 9.47801 14.338 9.64001 14.689C9.80101 15.036 9.88101 15.621 9.88101 16.444C9.88101 17.258 9.80101 17.844 9.63601 18.2C9.47201 18.557 9.20401 18.734 8.83601 18.734C8.46801 18.734 8.19901 18.557 8.03401 18.2C7.86901 17.843 7.78901 17.261 7.78901 16.454C7.78901 15.624 7.86901 15.036 8.03001 14.689C8.19201 14.339 8.46001 14.162 8.83501 14.162Z" fill="#5B6071"/>
</svg>
