<svg width="24" height="24" viewBox="0 0 24 24" fill="none" xmlns="http://www.w3.org/2000/svg">
<path d="M15.787 13.71V13.71C15.4526 13.71 15.3343 14.1141 15.571 14.3503C16.2802 15.0578 16.734 15.9317 16.734 17.024V18.391C16.734 18.9433 17.1817 19.391 17.734 19.391H21.414C21.9663 19.391 22.414 18.9433 22.414 18.391V17.024C22.414 14.818 17.994 13.71 15.787 13.71ZM8.21198 13.71C6.00598 13.71 1.58398 14.818 1.58398 17.024V18.391C1.58398 18.9433 2.0317 19.391 2.58398 19.391H13.84C14.3923 19.391 14.84 18.9433 14.84 18.391V17.024C14.84 14.818 10.419 13.71 8.21198 13.71ZM8.21198 11.816C8.58502 11.8161 8.95443 11.7428 9.29911 11.6001C9.64379 11.4574 9.95699 11.2483 10.2208 10.9845C10.4846 10.7208 10.6939 10.4077 10.8367 10.063C10.9795 9.71841 11.053 9.34902 11.053 8.97599C11.053 8.22277 10.7538 7.50041 10.2212 6.9678C9.68856 6.4352 8.9662 6.13599 8.21298 6.13599C7.83995 6.13586 7.47054 6.20922 7.12586 6.35188C6.78118 6.49455 6.46798 6.70372 6.20415 6.96745C5.94033 7.23118 5.73105 7.5443 5.58826 7.88893C5.44548 8.23356 5.37198 8.60295 5.37198 8.97599C5.37198 9.7292 5.6712 10.4516 6.2038 10.9842C6.7364 11.5168 7.45877 11.816 8.21198 11.816ZM15.787 11.816C16.5402 11.816 17.2626 11.5168 17.7952 10.9842C18.3278 10.4516 18.627 9.7292 18.627 8.97599C18.627 8.22277 18.3278 7.50041 17.7952 6.9678C17.2626 6.4352 16.5402 6.13599 15.787 6.13599C15.0338 6.13599 14.3114 6.4352 13.7788 6.9678C13.2462 7.50041 12.947 8.22277 12.947 8.97599C12.947 9.7292 13.2462 10.4516 13.7788 10.9842C14.3114 11.5168 15.0338 11.816 15.787 11.816Z" fill="#5B6071"/>
</svg>
