<svg width="24" height="24" viewBox="0 0 24 24" fill="none" xmlns="http://www.w3.org/2000/svg">
<path d="M7.19489 2.38983L12 7.19489L7.19489 12L2.38983 7.19489L7.19489 2.38983Z" fill="#5B6071"/>
<path d="M2.38983 7.19489V11.9999L7.19489 16.805V11.9999L2.38983 7.19489Z" fill="#5B6071"/>
<path d="M16.805 2.38983L21.6101 7.19489L16.805 12L11.9999 7.19489L16.805 2.38983Z" fill="#5B6071"/>
<path d="M21.6101 7.19489V11.9999L16.805 16.805V11.9999L21.6101 7.19489ZM11.9999 7.19489L16.805 11.9999L11.9999 16.805L7.19489 11.9999L11.9999 7.19489Z" fill="#5B6071"/>
<path d="M11.9999 16.805V21.6101L7.19489 16.805V11.9999L11.9999 16.805Z" fill="#5B6071"/>
<path d="M11.9999 16.805L16.805 11.9999V16.805L11.9999 21.6101V16.805Z" fill="#5B6071"/>
</svg>
