<svg width="24" height="24" viewBox="0 0 24 24" fill="none" xmlns="http://www.w3.org/2000/svg">
<path d="M2.9853 3.33251C2.89518 3.33135 2.80589 3.34993 2.72371 3.38694C2.64153 3.42396 2.56845 3.47852 2.5096 3.54679C2.45075 3.61505 2.40755 3.69537 2.38305 3.78211C2.35854 3.86885 2.35332 3.9599 2.36775 4.04887L4.98925 19.9631C5.02191 20.1579 5.12215 20.3349 5.27235 20.4631C5.42256 20.5912 5.61313 20.6624 5.81059 20.664H18.387C18.535 20.6659 18.6788 20.6146 18.7921 20.5194C18.9055 20.4242 18.9809 20.2914 19.0045 20.1453L21.6322 4.05504C21.6466 3.96607 21.6414 3.87502 21.6169 3.78829C21.5924 3.70155 21.5492 3.62123 21.4904 3.55296C21.4315 3.48469 21.3584 3.43014 21.2762 3.39312C21.1941 3.3561 21.1048 3.33752 21.0146 3.33869L2.9853 3.33251ZM14.024 14.8344H10.0099L8.92304 9.15909H14.9966L14.024 14.8344Z" fill="#5B6071"/>
<path d="M20.7923 9.15909H14.9966L14.024 14.8344H10.0099L5.27023 20.4633C5.42046 20.5932 5.61199 20.6655 5.81059 20.6671H18.3901C18.5381 20.669 18.6819 20.6177 18.7952 20.5225C18.9086 20.4273 18.9839 20.2945 19.0076 20.1484L20.7923 9.15909Z" fill="url(#paint0_linear_3475_10773)"/>
<defs>
<linearGradient id="paint0_linear_3475_10773" x1="22.1324" y1="10.7462" x2="12.5542" y2="18.2247" gradientUnits="userSpaceOnUse">
<stop offset="0.18" stop-color="#5B6071"/>
<stop offset="1" stop-color="#5B6071"/>
</linearGradient>
</defs>
</svg>
