<svg width="24" height="24" viewBox="0 0 24 24" fill="none" xmlns="http://www.w3.org/2000/svg">
<path d="M21.0443 11.1698C20.9651 10.3883 20.7908 9.59107 20.5427 8.84659C19.8299 6.71875 18.5046 4.53811 16.8308 3.03331C16.7569 2.96995 16.4771 2.80099 16.3715 2.85907C16.0969 3.01219 16.6144 4.06291 16.6777 4.25299C17.0684 5.41459 17.3166 6.64483 17.0368 7.85923C16.6619 9.46435 15.4316 10.589 13.7896 10.7263C12.8867 10.8002 11.9785 10.6999 11.0756 10.8055C9.72396 10.9639 8.34588 11.4285 7.48524 12.5373C7.38492 12.664 7.29516 12.8066 7.21068 12.9544H7.18956C6.85692 12.9914 6.52428 12.8488 6.3606 12.7591C6.31836 12.7327 6.27612 12.7115 6.24444 12.6957C5.24124 12.1413 4.50204 10.9005 4.04796 9.87619C3.84204 9.40099 3.6678 8.90467 3.55692 8.40307C3.50412 8.17603 3.49884 7.93843 3.48828 7.70611C3.483 7.56355 3.50412 7.36291 3.42492 7.23619C3.25068 6.96163 3.02892 7.22563 2.99196 7.44739C2.93388 7.81171 2.88108 8.17075 2.89692 8.54035C2.92332 9.16339 3.09756 9.78115 3.31932 10.3619C3.64668 11.2173 4.10604 12.004 4.70268 12.7063C4.95084 12.9967 5.21484 13.2659 5.49996 13.5141C5.7534 13.7411 6.07548 13.9207 6.26556 14.2111C6.48732 14.5437 6.52428 14.9555 6.50316 15.341C6.45036 16.36 6.41868 17.3157 6.70908 18.3083C6.96252 19.1901 7.27932 20.093 7.80732 20.848C8.07132 21.2229 8.39868 21.6189 8.75772 21.8987C9.0006 22.0888 9.45996 22.1099 9.19596 21.413C8.60988 19.8659 8.55708 18.2608 9.47052 16.8141C10.2361 15.6103 11.5878 14.5384 13.1137 14.7285C15.3577 15.0083 16.9206 17.0675 16.8097 19.2693C16.778 19.8871 16.7569 20.4151 16.5616 20.9959C16.4824 21.2282 16.4243 21.5239 16.4824 21.7667C16.5774 22.1786 17.0368 22.0255 17.2374 21.7562C17.7812 21.017 18.3515 20.2989 18.8636 19.5386C20.5321 17.0464 21.3452 14.1635 21.0443 11.1698Z" fill="#5B6071"/>
<path d="M8.47261 5.10306C8.50957 5.2245 8.54652 5.3565 8.57292 5.49906C8.5782 5.55714 8.59404 5.6205 8.62572 5.67858C8.763 6.03762 9.09564 6.23298 9.40716 6.41778C9.59724 6.53394 9.94044 6.64482 10.1516 6.7293C10.4262 6.84018 11.0176 6.69762 11.2974 6.6765C11.9416 6.6237 12.5382 6.39666 13.1296 6.73986C10.0988 10.2933 12.9606 11.0853 15.1782 9.37458C17.7126 7.42098 15.326 2.81154 15.326 2.81154C15.326 2.81154 15.2732 2.4525 14.3123 2.2413C14.2246 2.19476 14.1347 2.15247 14.043 2.11458C13.0926 1.67634 12.2372 2.39442 11.5508 2.9805C11.3502 3.14946 11.1548 3.31842 10.9436 3.47682C10.6585 3.68802 10.3523 3.86226 10.0302 4.01538C9.69228 4.17378 9.291 4.3533 8.91612 4.36914C8.86332 4.36914 8.763 4.3797 8.6574 4.40082C8.49372 4.41666 8.40924 4.4589 8.37228 4.53282C8.30892 4.58562 8.26668 4.65954 8.27724 4.75458C8.2878 4.88658 8.35116 4.99746 8.4198 5.08194C8.44092 5.08722 8.45677 5.09778 8.47261 5.10306Z" fill="#5B6071"/>
</svg>
