<svg width="24" height="24" viewBox="0 0 24 24" fill="none" xmlns="http://www.w3.org/2000/svg">
<path d="M12.2788 2.19215C17.6984 2.3444 21.9596 6.85921 21.8074 12.2788C21.6551 17.6984 17.1403 21.9596 11.7208 21.8075C6.30965 21.6552 2.04843 17.1572 2.19215 11.7462C2.33587 6.32652 6.84234 2.04843 12.2618 2.19215H12.2788ZM12.2281 3.2068C7.37503 3.07996 3.33356 6.91837 3.21525 11.78C3.0884 16.633 6.92681 20.6745 11.78 20.7928C16.633 20.9196 20.6745 17.0812 20.7928 12.2281C20.9281 7.36658 17.0897 3.33355 12.2281 3.2068Z" fill="#5B6071"/>
<path d="M12.9281 8.75653C12.5392 9.12853 12.6914 9.95709 13.2917 10.5912C13.892 11.2253 14.7205 11.4198 15.0925 11.0393C15.4645 10.6589 15.3462 9.82181 14.7374 9.18769C14.1287 8.55356 13.2916 8.36756 12.9027 8.73956L12.9281 8.75653ZM17.8235 6.39759C18.5929 7.20084 19.1763 8.15616 19.5483 9.19612C19.5483 9.19612 19.802 9.8894 18.9987 9.8894H17.0372C17.0372 9.8894 16.4115 9.83878 16.3862 10.3713C16.3439 11.0308 16.3609 11.5889 16.3609 11.5889C16.3862 11.9693 16.5299 12.3413 16.7666 12.6373L18.7873 14.768C18.9459 14.9134 19.0443 15.113 19.0631 15.3274C19.0819 15.5418 19.0197 15.7554 18.8888 15.9262C17.8658 17.6679 16.2255 18.9531 14.2894 19.5365C13.6974 19.714 13.6383 19.2321 13.6552 18.9023C13.6552 18.6909 13.9004 13.9901 13.9004 13.9901C13.968 13.4828 13.8074 12.9671 13.4523 12.595C12.8182 11.9186 12.4208 11.4875 12.4208 11.4875C12.4208 11.4875 11.9726 11.0393 11.3301 10.3715C10.9749 10.0079 10.4846 9.8219 9.97725 9.85575H5.06503C4.74375 9.85575 4.25335 9.77962 4.46475 9.19622C5.1496 7.29384 6.51928 5.72128 8.32013 4.79972C8.68369 4.54612 9.18253 4.61372 9.46997 4.9604L11.4907 7.09106C11.7781 7.34465 12.1417 7.4969 12.5222 7.53919C12.5222 7.53919 13.0718 7.58137 13.7397 7.57294C14.2639 7.57294 14.2554 6.93881 14.2554 6.93881C14.2554 6.93881 14.34 5.63681 14.3654 4.97728C14.3401 4.69828 14.543 4.45312 14.8135 4.42772C14.9064 4.41928 14.991 4.43615 15.0756 4.47C16.1071 4.90969 17.0455 5.56069 17.8149 6.37237L17.8235 6.39759Z" fill="#5B6071"/>
</svg>
