<svg width="24" height="24" viewBox="0 0 24 24" fill="none" xmlns="http://www.w3.org/2000/svg">
<path d="M22.61 11.7756C21.4753 10.6853 15.8009 10.0046 14.0104 9.80651C14.0977 9.59986 14.1717 9.38782 14.2319 9.17171C14.476 9.06491 14.7395 8.96543 15.0119 8.88239C15.0451 8.98031 15.2015 9.35549 15.2906 9.53357C18.8908 9.63287 19.0757 6.85811 19.2221 6.09797C19.3653 5.35463 19.358 4.63643 20.5929 3.32351C18.7531 2.78735 16.1074 4.15451 15.2211 6.18923C14.8881 6.06443 14.5543 5.97233 14.2242 5.91533C13.9876 4.96103 12.7558 2.30243 9.52308 2.30243C5.43018 2.30243 0.969059 5.67899 0.969059 11.3949C0.969059 16.1996 4.24938 20.4104 6.1026 20.4104C6.912 20.4104 7.60824 19.8042 7.77168 19.2609C7.90872 19.6335 8.3292 20.7915 8.46726 21.0864C8.67138 21.5224 9.6153 21.8996 10.0283 21.4472C10.5595 21.7422 11.534 21.92 12.0652 21.1331C13.0881 21.3495 13.9924 20.7395 14.0122 20.0117C14.5141 19.9849 14.7603 19.2801 14.6507 18.7188C14.5699 18.3056 13.7068 16.8229 13.3701 16.3111C14.0366 16.8532 15.7247 17.0066 15.9297 16.3114C17.0042 17.1548 18.6787 16.7121 18.8115 16.0262C20.1172 16.3655 21.6147 15.6204 21.3688 14.718C23.4662 14.573 23.1977 12.3414 22.6093 11.7758L22.61 11.7756Z" fill="#5B6071"/>
<path d="M16.7696 7.01609C17.2214 6.11981 17.789 5.14109 18.506 4.53569C17.7169 4.85369 16.9377 5.80445 16.477 6.82067C16.247 6.67417 16.0088 6.54103 15.7634 6.42191C16.406 5.05019 17.8993 3.90461 19.5449 3.81509C18.4427 4.81481 18.8339 6.89249 17.9277 7.99247C17.6684 7.73195 17.0729 7.22927 16.7696 7.01609ZM16.0571 8.47565C16.0576 8.44133 16.0704 8.17679 16.0945 8.05601C16.0313 8.04113 15.6385 7.96427 15.4336 7.96907C15.4187 8.22635 15.5417 8.66393 15.6633 8.92739C16.5007 8.90987 17.1055 8.65907 17.4614 8.42855C17.1584 8.28731 16.6412 8.16167 16.248 8.08655C16.2041 8.17733 16.0961 8.40863 16.0571 8.47565Z" fill="#5B6071"/>
<path d="M12.9458 15.567C12.946 15.5681 12.9465 15.5698 12.9467 15.571C12.8405 15.3426 12.7278 15.0652 12.5932 14.7026C13.1173 15.4655 14.76 15.072 14.6738 14.3884C15.4778 14.9933 17.1328 14.2876 16.7566 13.4393C17.5619 13.8146 18.4812 13.0595 18.275 12.7305C19.6481 12.9953 20.964 13.2592 21.3771 13.3649C21.1027 13.8123 20.4777 14.1283 19.5357 13.9087C20.0447 14.6022 19.0564 15.4341 17.6798 14.9758C17.9829 15.6567 16.7572 16.2695 15.3642 15.5599C15.3819 16.241 13.636 16.3194 12.9458 15.5669V15.567ZM15.6696 12.1247C17.2632 12.247 19.8987 12.4846 21.5303 12.713C21.4273 12.182 21.1457 12.0303 20.26 11.7924C19.3074 11.894 16.8906 12.1314 15.6696 12.1247L15.6696 12.1247Z" fill="#5B6071"/>
<path d="M14.6739 14.3885C15.4779 14.9935 17.1329 14.2877 16.7567 13.4395C17.5621 13.8148 18.4813 13.0596 18.2752 12.7306C16.6518 12.4176 14.9483 12.1035 14.5619 12.0485C14.7963 12.061 15.1848 12.0876 15.6697 12.1248C16.8908 12.1316 19.3075 11.8942 20.2601 11.7926C18.7177 11.4015 15.5686 10.8308 13.394 10.6902C13.2932 10.8375 13.1079 11.0873 12.7853 11.3527C11.8337 13.3659 10.1098 14.7041 8.2023 14.7041C7.64643 14.7041 7.02446 14.6103 6.32736 14.3875C5.89262 14.8532 4.03911 15.2062 2.53516 14.468C3.7281 17.2613 6.49463 19.126 9.55717 19.126C12.1362 19.126 13.2799 16.4923 13.0296 15.7955C12.9689 15.6263 12.7282 15.0653 12.5936 14.7027C13.1178 15.4656 14.7604 15.0721 14.6743 14.3885L14.6739 14.3885Z" fill="#5B6071"/>
<path d="M13.111 9.08783C13.3388 8.96395 14.1257 8.48694 14.8755 8.3077C14.8636 8.22437 14.8548 8.14061 14.8493 8.05662C14.3573 8.17446 13.4298 8.57203 12.8983 8.0242C14.0196 8.36258 14.5795 7.72266 15.4037 7.72266C15.8948 7.72266 16.5956 7.85987 17.148 8.07672C16.7037 7.66626 15.2467 6.42751 13.4427 6.42325C13.0399 6.91154 12.6046 7.96928 13.111 9.08778L13.111 9.08783Z" fill="#5B6071"/>
<path d="M6.32736 14.3871C7.02446 14.6099 7.64643 14.7037 8.2023 14.7037C10.1098 14.7037 11.8337 13.3654 12.7853 11.3523C12.0815 11.9397 10.8584 12.4423 8.94834 12.4423C10.6497 12.0566 12.1144 11.2087 12.8594 9.96941C12.3357 9.13583 11.7676 7.29169 13.2061 5.83388C12.9849 5.12295 11.9078 3.24625 9.52348 3.24625C5.36245 3.24625 1.91397 6.72812 1.91397 11.3942C1.91397 12.4988 2.13696 13.5348 2.53531 14.4672C4.03916 15.2055 5.89267 14.8526 6.32741 14.3868L6.32736 14.3871Z" fill="#5B6071"/>
<path d="M7.57542 7.28218C7.57542 8.3436 8.43588 9.2041 9.49729 9.2041C10.5587 9.2041 11.4193 8.34355 11.4193 7.28218C11.4193 6.22076 10.5587 5.36026 9.49729 5.36026C8.43588 5.36026 7.57542 6.22076 7.57542 7.28218Z" fill="#5B6071"/>
<path d="M8.34682 7.28217C8.34682 7.91763 8.86208 8.43279 9.49744 8.43279C10.133 8.43279 10.6481 7.91758 10.6481 7.28217C10.6481 6.64666 10.133 6.1315 9.49744 6.1315C8.86203 6.1315 8.34682 6.64671 8.34682 7.28217Z" fill="#5B6071"/>
<path d="M9.4973 7.18876C9.86761 7.18876 10.1678 7.00211 10.1678 6.77187C10.1678 6.54163 9.86761 6.35498 9.4973 6.35498C9.12698 6.35498 8.82677 6.54163 8.82677 6.77187C8.82677 7.00211 9.12698 7.18876 9.4973 7.18876Z" fill="#5B6071"/>
</svg>
