<svg width="24" height="24" viewBox="0 0 24 24" fill="none" xmlns="http://www.w3.org/2000/svg">
<path d="M12 22.2562C17.6644 22.2562 22.2562 17.6644 22.2562 12C22.2562 6.33564 17.6644 1.74377 12 1.74377C6.33564 1.74377 1.74377 6.33564 1.74377 12C1.74377 17.6644 6.33564 22.2562 12 22.2562Z" fill="#5B6071"/>
<path d="M11.171 3.24979C10.3327 3.84361 9.65177 4.7083 9.14966 5.6947C8.77286 5.30384 8.43223 4.82899 8.10206 4.20807C7.53326 5.0611 7.20789 6.10921 7.09183 7.20739C6.61063 6.97853 6.13183 6.66224 5.6124 6.2107C5.38714 7.21013 5.45897 8.30487 5.74389 9.37116C5.20149 9.33293 4.62994 9.2083 3.96789 8.96727C4.11617 9.98213 4.57612 10.9793 5.22497 11.8732C4.71446 12.0249 4.1472 12.1102 3.45926 12.1222C3.96309 13.0193 4.75303 13.7875 5.68303 14.3902C5.2536 14.7261 4.74394 15.0166 4.08892 15.2813C4.8768 15.9353 5.88446 16.3684 6.96309 16.5988C6.68537 17.0525 6.32143 17.495 5.81897 17.9633C6.78754 18.2911 7.88126 18.3346 8.96932 18.1639C8.874 18.695 8.69057 19.2463 8.3844 19.8739H8.38474C9.40937 19.8328 10.4491 19.4796 11.4058 18.9276C11.5087 19.4604 11.5361 20.0436 11.4747 20.7436C13.5399 19.8538 15.1425 17.5485 15.7082 15.2662C15.8625 14.8534 15.9456 14.2581 15.9456 13.432C15.9456 13.2103 15.9403 12.9981 15.9326 12.79C17.6026 12.5062 18.8193 11.9326 19.5178 11.5231C19.7739 11.3728 20.0338 11.152 20.1171 10.9711V10.9708C20.2234 10.8452 20.2922 10.6923 20.3159 10.5295C20.3395 10.3667 20.3171 10.2006 20.251 10.0499C20.1849 9.8993 20.0779 9.77023 19.9421 9.67739C19.8063 9.58455 19.6472 9.53167 19.4829 9.52476C19.2806 9.51663 19.0818 9.57852 18.92 9.69998C18.7581 9.82144 18.6431 9.99503 18.5943 10.1914C17.2366 9.48482 15.6835 8.05253 16.0608 5.9827C16.343 5.58859 16.7374 5.19361 17.2831 4.77996C16.2627 4.6603 15.1786 4.84716 14.1456 5.24402C14.1293 4.70659 14.1936 4.1311 14.3619 3.45601C13.3718 3.70853 12.4313 4.26739 11.6121 5.0023C11.4029 4.50482 11.256 3.94287 11.171 3.24979ZM15.7078 6.60241C15.7053 7.65104 16.1618 8.59579 16.9785 9.39344C17.7269 10.1246 18.7658 10.6877 19.5941 10.9012C19.6452 10.9574 19.6509 11.026 19.5881 11.1214C19.5209 11.1736 19.4467 11.2248 19.3694 11.2701C18.5787 11.7336 17.6112 12.1305 16.4774 12.3854C16.2936 12.4265 16.1081 12.4639 15.9202 12.4966C15.8748 11.6489 15.7749 10.9121 15.6765 10.2466C15.7618 10.2626 15.8495 10.2594 15.9334 10.2373C16.0174 10.2152 16.0953 10.1748 16.1617 10.1189C16.2281 10.063 16.2812 9.99304 16.3173 9.91411C16.3533 9.83519 16.3714 9.74924 16.3702 9.66247C16.3691 9.5757 16.3486 9.49028 16.3104 9.41238C16.2722 9.33447 16.2171 9.26602 16.1492 9.21198C16.0814 9.15793 16.0023 9.11963 15.9178 9.09984C15.8333 9.08005 15.7455 9.07927 15.6607 9.09756C15.7418 9.12019 15.8127 9.17009 15.8614 9.23886C15.91 9.30762 15.9335 9.39105 15.9279 9.47511C15.9223 9.55916 15.8878 9.63871 15.8304 9.70037C15.773 9.76202 15.6961 9.80201 15.6127 9.81362C15.4224 8.53904 15.2973 7.54767 15.7078 6.60241Z" fill="#5B6071"/>
</svg>
