<svg width="24" height="25" viewBox="0 0 24 25" fill="none" xmlns="http://www.w3.org/2000/svg">
<path d="M16.9196 10.4375H14.4309C14.3855 10.1155 14.2927 9.82955 14.1525 9.57955C14.0124 9.32576 13.8324 9.10985 13.6127 8.93182C13.393 8.75379 13.1393 8.61742 12.8514 8.52273C12.5673 8.42803 12.2586 8.38068 11.9252 8.38068C11.323 8.38068 10.7984 8.5303 10.3514 8.82955C9.90441 9.125 9.55782 9.55682 9.31161 10.125C9.0654 10.6894 8.94229 11.375 8.94229 12.1818C8.94229 13.0114 9.0654 13.7083 9.31161 14.2727C9.56161 14.8371 9.91009 15.2633 10.3571 15.5511C10.804 15.839 11.3211 15.983 11.9082 15.983C12.2377 15.983 12.5427 15.9394 12.823 15.8523C13.1071 15.7652 13.359 15.6383 13.5787 15.4716C13.7984 15.3011 13.9802 15.0947 14.1241 14.8523C14.2718 14.6098 14.3741 14.3333 14.4309 14.0227L16.9196 14.0341C16.8552 14.5682 16.6942 15.0833 16.4366 15.5795C16.1828 16.072 15.84 16.5133 15.4082 16.9034C14.9802 17.2898 14.4688 17.5966 13.8741 17.8239C13.2832 18.0473 12.6146 18.1591 11.8684 18.1591C10.8305 18.1591 9.90252 17.9242 9.08434 17.4545C8.26994 16.9848 7.626 16.3049 7.15252 15.4148C6.68282 14.5246 6.44797 13.447 6.44797 12.1818C6.44797 10.9129 6.68661 9.83333 7.16388 8.94318C7.64115 8.05303 8.28888 7.375 9.10706 6.90909C9.92524 6.43939 10.8457 6.20455 11.8684 6.20455C12.5427 6.20455 13.1677 6.29924 13.7434 6.48864C14.323 6.67803 14.8362 6.95455 15.2832 7.31818C15.7302 7.67803 16.0938 8.11932 16.3741 8.64205C16.6582 9.16477 16.84 9.76326 16.9196 10.4375Z" fill="#5B6071"/>
</svg>
