<svg width="24" height="24" viewBox="0 0 24 24" fill="none" xmlns="http://www.w3.org/2000/svg">
<path d="M12 7.175C12.2375 7.17513 12.4726 7.12846 12.6921 7.03764C12.9115 6.94683 13.1108 6.81366 13.2788 6.64574C13.4467 6.47783 13.5798 6.27846 13.6707 6.05905C13.7615 5.83963 13.8081 5.60447 13.808 5.367C13.808 5.024 13.718 4.707 13.546 4.437L12 1.75L10.454 4.435C10.2794 4.71389 10.1885 5.037 10.192 5.366C10.1919 5.60351 10.2386 5.83873 10.3294 6.0582C10.4202 6.27767 10.5533 6.4771 10.7212 6.6451C10.8891 6.81309 11.0885 6.94636 11.3079 7.03728C11.5273 7.1282 11.7625 7.175 12 7.175ZM16.158 16.215L15.191 15.238L14.215 16.215C13.04 17.381 10.978 17.39 9.79501 16.215L8.83601 15.238L7.84201 16.215C7.32334 16.7271 6.64239 17.0424 5.91634 17.1067C5.19029 17.1709 4.46455 16.9801 3.86401 16.567V20.734C3.86401 20.9738 3.95926 21.2037 4.12879 21.3732C4.29832 21.5428 4.52826 21.638 4.76801 21.638H19.231C19.4708 21.638 19.7007 21.5428 19.8702 21.3732C20.0398 21.2037 20.135 20.9738 20.135 20.734V16.567C19.5345 16.9797 18.8089 17.1702 18.083 17.1058C17.3572 17.0413 16.6765 16.727 16.158 16.215ZM17.423 9.887H12.903V8.079H11.096V9.887H6.57601C5.85675 9.887 5.16694 10.1727 4.65834 10.6813C4.14974 11.1899 3.86401 11.8797 3.86401 12.599V13.991C3.86401 14.967 4.65901 15.763 5.63601 15.763C6.12401 15.763 6.57601 15.582 6.88301 15.247L8.83601 13.322L10.743 15.247C11.412 15.917 12.578 15.917 13.247 15.247L15.163 13.322L17.107 15.247C17.423 15.582 17.875 15.763 18.354 15.763C19.331 15.763 20.135 14.967 20.135 13.991V12.599C20.135 11.8797 19.8493 11.1899 19.3407 10.6813C18.8321 10.1727 18.1423 9.887 17.423 9.887Z" fill="#5B6071"/>
</svg>
