<svg width="24" height="25" viewBox="0 0 24 25" fill="none" xmlns="http://www.w3.org/2000/svg">
<path d="M13.8197 10.9489H11.331C11.2856 10.6269 11.1928 10.3409 11.0526 10.0909C10.9125 9.83714 10.7326 9.62123 10.5129 9.4432C10.2932 9.26517 10.0394 9.1288 9.75149 9.03411C9.4674 8.93941 9.15869 8.89206 8.82536 8.89206C8.22308 8.89206 7.69846 9.04168 7.25149 9.34092C6.80452 9.63638 6.45793 10.0682 6.21172 10.6364C5.96551 11.2008 5.8424 11.8864 5.8424 12.6932C5.8424 13.5227 5.96551 14.2197 6.21172 14.7841C6.46172 15.3485 6.8102 15.7746 7.25717 16.0625C7.70414 16.3504 8.22119 16.4943 8.80831 16.4943C9.13786 16.4943 9.44278 16.4508 9.72308 16.3637C10.0072 16.2765 10.2591 16.1496 10.4788 15.983C10.6985 15.8125 10.8803 15.6061 11.0242 15.3637C11.1719 15.1212 11.2742 14.8447 11.331 14.5341L13.8197 14.5455C13.7553 15.0796 13.5943 15.5947 13.3367 16.0909C13.0829 16.5833 12.7401 17.0246 12.3083 17.4148C11.8803 17.8012 11.3689 18.108 10.7742 18.3352C10.1833 18.5587 9.51475 18.6705 8.76854 18.6705C7.73066 18.6705 6.80263 18.4356 5.98445 17.9659C5.17005 17.4962 4.52611 16.8163 4.05263 15.9262C3.58293 15.036 3.34808 13.9583 3.34808 12.6932C3.34808 11.4243 3.58672 10.3447 4.06399 9.45456C4.54127 8.56441 5.18899 7.88638 6.00717 7.42047C6.82536 6.95077 7.74581 6.71592 8.76854 6.71592C9.44278 6.71592 10.0678 6.81062 10.6435 7.00001C11.2231 7.18941 11.7363 7.46592 12.1833 7.82956C12.6303 8.18941 12.9939 8.6307 13.2742 9.15342C13.5583 9.67615 13.7401 10.2746 13.8197 10.9489Z" fill="#5B6071"/>
<path d="M20.2316 9.78411V11.6023H14.8452V9.78411H20.2316ZM16.0782 18.5114V9.15342C16.0782 8.52085 16.2013 7.99623 16.4475 7.57956C16.6975 7.16289 17.0384 6.85039 17.4702 6.64206C17.9021 6.43373 18.3926 6.32956 18.9418 6.32956C19.313 6.32956 19.6521 6.35797 19.9589 6.41479C20.2695 6.47161 20.5005 6.52274 20.6521 6.5682L20.2202 8.38638C20.1255 8.35607 20.0081 8.32767 19.868 8.30115C19.7316 8.27464 19.5915 8.26138 19.4475 8.26138C19.0915 8.26138 18.8433 8.34471 18.7032 8.51138C18.563 8.67426 18.493 8.90342 18.493 9.19888V18.5114H16.0782Z" fill="#5B6071"/>
</svg>
