<svg width="24" height="25" viewBox="0 0 24 25" fill="none" xmlns="http://www.w3.org/2000/svg">
<path d="M2.46908 3.42206V8.86922H4.28313V3.42206H2.46908ZM15.1785 5.23811C13.6249 5.23879 12.1123 5.73693 10.8623 6.65956C9.61236 7.5822 8.69066 8.88084 8.23225 10.3653L6.10019 12.5003L8.23325 14.6334C9.14928 17.6015 11.9104 19.7625 15.1785 19.7625C19.1906 19.7625 22.4397 16.5125 22.4397 12.5003C22.4397 8.48821 19.1906 5.23811 15.1785 5.23811ZM18.1195 8.94122L19.4616 10.5713L13.9714 16.0594L10.7933 12.5923L12.1334 11.2523L13.9714 13.0903L18.1195 8.94122ZM3.37711 10.6843C2.37908 10.6843 1.56105 11.5013 1.56105 12.5003C1.56085 12.8598 1.66728 13.2112 1.86686 13.5102C2.06645 13.8092 2.35022 14.0422 2.68229 14.1799C3.01435 14.3175 3.37978 14.3536 3.73235 14.2835C4.08492 14.2134 4.40878 14.0404 4.66296 13.7862C4.91714 13.532 5.09021 13.2081 5.16029 12.8556C5.23037 12.503 5.19431 12.1376 5.05665 11.8055C4.919 11.4734 4.68595 11.1897 4.38698 10.9901C4.08802 10.7905 3.73657 10.6841 3.37711 10.6843ZM2.47008 16.1304V21.5776H4.28413V16.1304H2.47008Z" fill="#5B6071"/>
</svg>
