<svg width="24" height="25" viewBox="0 0 24 25" fill="none" xmlns="http://www.w3.org/2000/svg">
<path d="M6.61 3.51699C7.56292 3.51699 8.47682 3.89554 9.15063 4.56936C9.82445 5.24318 10.203 6.15707 10.203 7.10999V8.90699H13.797V7.10999C13.7969 6.63807 13.8897 6.17074 14.0702 5.7347C14.2507 5.29866 14.5154 4.90246 14.849 4.56871C15.1827 4.23496 15.5788 3.97022 16.0148 3.78959C16.4508 3.60896 16.9181 3.51599 17.39 3.51599C17.8619 3.51599 18.3292 3.60896 18.7652 3.78959C19.2012 3.97022 19.5973 4.23496 19.931 4.56871C20.2646 4.90246 20.5293 5.29866 20.7098 5.7347C20.8903 6.17074 20.9831 6.63807 20.983 7.10999C20.983 7.58183 20.8901 8.04905 20.7095 8.48497C20.5289 8.9209 20.2643 9.31699 19.9306 9.65063C19.597 9.98427 19.2009 10.2489 18.765 10.4295C18.3291 10.6101 17.8618 10.703 17.39 10.703H15.593V14.297H17.39C17.8618 14.297 18.3291 14.3899 18.765 14.5705C19.2009 14.7511 19.597 15.0157 19.9306 15.3494C20.2643 15.683 20.5289 16.0791 20.7095 16.515C20.8901 16.9509 20.983 17.4182 20.983 17.89C20.983 18.3618 20.8901 18.8291 20.7095 19.265C20.5289 19.7009 20.2643 20.097 19.9306 20.4306C19.597 20.7643 19.2009 21.0289 18.765 21.2095C18.3291 21.3901 17.8618 21.483 17.39 21.483C16.9182 21.483 16.4509 21.3901 16.015 21.2095C15.5791 21.0289 15.183 20.7643 14.8494 20.4306C14.5157 20.097 14.2511 19.7009 14.0705 19.265C13.8899 18.8291 13.797 18.3618 13.797 17.89V16.093H10.203V17.89C10.203 18.3618 10.1101 18.8291 9.9295 19.265C9.74893 19.7009 9.48427 20.097 9.15063 20.4306C8.81699 20.7643 8.4209 21.0289 7.98498 21.2095C7.54906 21.3901 7.08184 21.483 6.61 21.483C6.13808 21.4831 5.67075 21.3903 5.23471 21.2098C4.79867 21.0293 4.40246 20.7646 4.06872 20.431C3.73497 20.0973 3.47022 19.7012 3.2896 19.2652C3.10897 18.8292 3.016 18.3619 3.016 17.89C3.016 17.4181 3.10897 16.9508 3.2896 16.5148C3.47022 16.0788 3.73497 15.6827 4.06872 15.349C4.40246 15.0153 4.79867 14.7507 5.23471 14.5702C5.67075 14.3897 6.13808 14.2969 6.61 14.297H8.407V10.703H6.61C6.13808 10.7031 5.67075 10.6103 5.23471 10.4298C4.79867 10.2493 4.40246 9.98463 4.06872 9.65098C3.73497 9.31733 3.47022 8.92119 3.2896 8.4852C3.10897 8.04922 3.016 7.58192 3.016 7.10999C3.01587 6.63798 3.10874 6.17058 3.28931 5.73447C3.46988 5.29837 3.7346 4.90212 4.06836 4.56836C4.40212 4.2346 4.79838 3.96987 5.23448 3.7893C5.67058 3.60873 6.13799 3.51686 6.61 3.51699ZM15.593 17.89C15.593 18.3666 15.7823 18.8237 16.1193 19.1607C16.4563 19.4977 16.9134 19.687 17.39 19.687C17.8666 19.687 18.3237 19.4977 18.6607 19.1607C18.9977 18.8237 19.187 18.3666 19.187 17.89C19.1867 17.4136 18.9973 16.9568 18.6603 16.62C18.3233 16.2832 17.8664 16.094 17.39 16.094H15.593V17.891M13.797 10.704H10.203V14.297H13.797V10.704ZM6.61 16.094C6.13341 16.094 5.67633 16.2833 5.33933 16.6203C5.00233 16.9573 4.813 17.4144 4.813 17.891C4.81326 18.3674 5.00271 18.8242 5.33968 19.161C5.67666 19.4978 6.13358 19.687 6.61 19.687C7.08642 19.687 7.54334 19.4978 7.88032 19.161C8.21729 18.8242 8.40673 18.3674 8.407 17.891V16.094H6.61ZM8.407 7.10999C8.40673 6.63357 8.21729 6.17675 7.88032 5.83997C7.54334 5.50318 7.08642 5.31399 6.61 5.31399C6.13358 5.31399 5.67666 5.50318 5.33968 5.83997C5.00271 6.17675 4.81326 6.63357 4.813 7.10999C4.813 7.58659 5.00233 8.04366 5.33933 8.38066C5.67633 8.71767 6.13341 8.90699 6.61 8.90699H8.407V7.10999ZM17.39 8.90699C17.8666 8.90699 18.3237 8.71767 18.6607 8.38066C18.9977 8.04366 19.187 7.58659 19.187 7.10999C19.1867 6.63357 18.9973 6.17675 18.6603 5.83997C18.3233 5.50318 17.8664 5.31399 17.39 5.31399C16.9136 5.31399 16.4567 5.50318 16.1197 5.83997C15.7827 6.17675 15.5933 6.63357 15.593 7.10999V8.90699H17.39Z" fill="#5B6071"/>
</svg>
