<svg width="24" height="25" viewBox="0 0 24 25" fill="none" xmlns="http://www.w3.org/2000/svg">
<path d="M6.5 15L9.53109 20.25H3.46891L6.5 15Z" fill="#5B6071"/>
<circle cx="16.5" cy="19" r="3.5" fill="#5B6071"/>
<rect x="3" y="4.5" width="7" height="7" rx="1" fill="#5B6071"/>
<path d="M15.5621 5.03451C15.8843 4.16389 17.1157 4.16389 17.4379 5.03451L17.8259 6.08326C17.9272 6.35698 18.143 6.57279 18.4167 6.67407L19.4655 7.06215C20.3361 7.38431 20.3361 8.61569 19.4655 8.93785L18.4167 9.32593C18.143 9.42721 17.9272 9.64302 17.8259 9.91674L17.4379 10.9655C17.1157 11.8361 15.8843 11.8361 15.5621 10.9655L15.1741 9.91674C15.0728 9.64302 14.857 9.42721 14.5833 9.32593L13.5345 8.93785C12.6639 8.61569 12.6639 7.38431 13.5345 7.06215L14.5833 6.67407C14.857 6.57279 15.0728 6.35698 15.1741 6.08326L15.5621 5.03451Z" fill="#5B6071"/>
</svg>
