<svg width="24" height="25" viewBox="0 0 24 25" fill="none" xmlns="http://www.w3.org/2000/svg">
<path d="M10.0783 21.545L10.0775 20.6323C10.0771 20.3091 9.86837 20.0229 9.56063 19.924V19.924C9.27665 19.8326 8.80053 19.6348 8.50257 19.4843V19.4843C8.17927 19.321 7.78767 19.3836 7.53138 19.6395L6.98026 20.1899V20.1899C6.43859 20.7308 5.56108 20.7305 5.01978 20.1892L4.69537 19.8648L4.36324 19.5327C3.82582 18.9952 3.82445 18.1243 4.36017 17.5852V17.5852L4.87763 17.0645C5.14694 16.7935 5.21111 16.3798 5.03659 16.04V16.04C4.87561 15.7265 4.65922 15.2067 4.55572 14.885V14.885C4.44345 14.5363 4.11902 14.3 3.75275 14.3H2.93367V14.3C2.14187 14.3 1.5 13.6581 1.5 12.8663V12.44V12.0349C1.5 11.2311 2.15119 10.5793 2.95499 10.5785V10.5785L3.86039 10.5777C4.18783 10.5774 4.47754 10.3655 4.57711 10.0536V10.0536C4.66903 9.76562 4.88023 9.26225 5.04643 8.93499V8.93499C5.2267 8.58006 5.15837 8.14947 4.87707 7.86778L4.36974 7.35974V7.35974C3.829 6.81826 3.8293 5.94104 4.37041 5.39993L4.69517 5.07517L4.99835 4.77199C5.55193 4.21841 6.4489 4.21657 7.00474 4.76788V4.76788L7.63425 5.39226C7.85829 5.61448 8.19994 5.66717 8.48053 5.52277V5.52277C8.73934 5.38958 9.21184 5.191 9.53053 5.08148V5.08148C9.87796 4.96208 10.1127 4.63703 10.1168 4.26968L10.1261 3.44117V3.44117C10.135 2.64265 10.7848 2 11.5834 2H12H12.4108C13.2126 2 13.865 2.64526 13.8739 3.447V3.447L13.8837 4.32818C13.8875 4.66638 14.1065 4.96454 14.428 5.06934V5.06934C14.7239 5.16576 15.2184 5.36989 15.5267 5.52295V5.52295C15.8618 5.68925 16.2656 5.62326 16.5303 5.35895L17.044 4.84605V4.84605C17.5724 4.31841 18.4284 4.31873 18.9564 4.84675L19.3048 5.19518L19.6505 5.54084C20.18 6.0704 20.1804 6.92887 19.6512 7.45882V7.45882L19.1481 7.96266C18.8764 8.23472 18.8092 8.65001 18.9811 8.9939V8.9939C19.1394 9.31056 19.3411 9.79686 19.4294 10.0746V10.0746C19.5251 10.3753 19.8043 10.5795 20.1198 10.5796L21.045 10.5798V10.5798C21.8486 10.5799 22.5 11.2314 22.5 12.0351V12.4401V12.8698C22.5 13.6597 21.8596 14.3001 21.0697 14.3001V14.3001H20.2554C19.8878 14.3001 19.5618 14.536 19.4468 14.8851V14.8851C19.3409 15.2068 19.1226 15.7266 18.9618 16.0401V16.0401C18.7874 16.3799 18.8517 16.7934 19.1211 17.0643L19.6393 17.5853V17.5853C20.1753 18.1244 20.1741 18.9956 19.6366 19.5331L19.3048 19.8649L18.9804 20.1893C18.4391 20.7306 17.5616 20.7309 17.0199 20.19V20.19L16.4706 19.6414C16.2132 19.3844 15.82 19.3215 15.4954 19.4855V19.4855C15.1963 19.6366 14.6924 19.8458 14.3758 19.9504V19.9504C14.0321 20.0639 13.8 20.385 13.8 20.7469V21.5703V21.5703C13.8 22.3599 13.1599 23 12.3703 23H11.94H11.5351C10.7312 23 10.0793 22.3488 10.0783 21.545V21.545ZM13.149 17.6333C14.8049 17.2823 16.2339 16.0829 16.8605 14.5181C17.1265 13.8537 17.2178 13.3533 17.2178 12.56C17.2178 11.7696 17.1265 11.2662 16.8643 10.6114C16.2337 9.03652 14.8093 7.83852 13.149 7.48661C12.6361 7.37791 11.4838 7.37791 10.9709 7.48661C9.31055 7.83852 7.88618 9.03652 7.25556 10.6114C6.99338 11.2662 6.90206 11.7696 6.90206 12.56C6.90206 13.6882 7.1604 14.5564 7.76761 15.469C8.48139 16.5417 9.67639 17.355 10.9439 17.6308C11.434 17.7374 12.6513 17.7385 13.149 17.6333ZM9.57977 14.4909V14.4909C9.35903 14.2701 9.35885 13.9123 9.57936 13.6913L9.97425 13.2956L10.7683 12.5L9.97425 11.7043L9.57936 11.3086C9.35885 11.0876 9.35903 10.7298 9.57977 10.509V10.509V10.509C9.80154 10.2873 10.1601 10.2842 10.3857 10.5021L11.1996 11.2888C11.8708 11.9374 12.42 12.4824 12.42 12.5C12.42 12.5175 11.8708 13.0625 11.1996 13.7111L10.3857 14.4978C10.1601 14.7157 9.80154 14.7126 9.57977 14.4909V14.4909ZM12.3998 14.4909V14.4909C12.179 14.2701 12.1788 13.9123 12.3993 13.6913L12.7942 13.2956L13.5883 12.5L12.7942 11.7043L12.3993 11.3086C12.1788 11.0876 12.179 10.7298 12.3998 10.509V10.509V10.509C12.6215 10.2873 12.9801 10.2842 13.2057 10.5021L14.0196 11.2888C14.6908 11.9374 15.2399 12.4824 15.2399 12.5C15.2399 12.5175 14.6908 13.0625 14.0196 13.7111L13.2057 14.4978C12.9801 14.7157 12.6215 14.7126 12.3998 14.4909V14.4909Z" fill="#5B6071"/>
</svg>
