<svg width="24" height="25" viewBox="0 0 24 25" fill="none" xmlns="http://www.w3.org/2000/svg">
<path d="M4.80005 7.1C4.80005 6.4785 5.08382 5.93598 5.49686 5.49823C5.90651 5.06406 6.46776 4.7037 7.11006 4.41577C8.39622 3.83921 10.1257 3.5 12 3.5C13.8744 3.5 15.6038 3.83921 16.89 4.41577C17.5323 4.7037 18.0936 5.06406 18.5033 5.49823C18.9163 5.93598 19.2 6.4785 19.2 7.1V17.9C19.2 18.5215 18.9163 19.0641 18.5033 19.5018C18.0936 19.936 17.5323 20.2963 16.89 20.5842C15.6038 21.1608 13.8744 21.5 12 21.5C10.1257 21.5 8.39622 21.1608 7.11006 20.5842C6.46776 20.2963 5.90651 19.936 5.49686 19.5018C5.08382 19.0641 4.80005 18.5215 4.80005 17.9V7.1ZM6.15005 7.1C6.15005 7.28622 6.23144 7.51318 6.47877 7.77531C6.72949 8.04103 7.1238 8.31095 7.66229 8.55235C8.73772 9.03443 10.2708 9.35 12 9.35C13.7293 9.35 15.2624 9.03443 16.3378 8.55235C16.8762 8.31095 17.2706 8.04103 17.5214 7.77531C17.7687 7.51318 17.85 7.28622 17.85 7.1C17.85 6.91378 17.7687 6.68682 17.5214 6.42469C17.2706 6.15897 16.8762 5.88904 16.3378 5.64765C15.2624 5.16557 13.7293 4.85 12 4.85C10.2708 4.85 8.73772 5.16557 7.66229 5.64765C7.1238 5.88904 6.72949 6.15897 6.47877 6.42469C6.23144 6.68682 6.15005 6.91378 6.15005 7.1ZM17.85 9.25318C17.5612 9.45154 17.2375 9.62848 16.89 9.78423C15.6038 10.3608 13.8744 10.7 12 10.7C10.1257 10.7 8.39622 10.3608 7.11006 9.78423C6.76262 9.62848 6.43889 9.45154 6.15005 9.25318V17.9C6.15005 18.0862 6.23144 18.3132 6.47877 18.5753C6.72949 18.841 7.1238 19.111 7.66229 19.3523C8.73772 19.8345 10.2708 20.15 12 20.15C13.7293 20.15 15.2624 19.8345 16.3378 19.3523C16.8762 19.111 17.2706 18.841 17.5214 18.5753C17.7687 18.3132 17.85 18.0862 17.85 17.9V9.25318Z" fill="#5B6071"/>
<path fill-rule="evenodd" clip-rule="evenodd" d="M7.0078 4.18764C8.33299 3.59359 10.0988 3.25 12 3.25C13.9012 3.25 15.6671 3.59359 16.9923 4.18764C17.6538 4.4842 18.246 4.86129 18.6851 5.32665C19.1286 5.79673 19.45 6.39769 19.45 7.1V17.9C19.45 18.6024 19.1286 19.2033 18.6851 19.6734C18.246 20.1387 17.6538 20.5159 16.9923 20.8124C15.6671 21.4064 13.9012 21.75 12 21.75C10.0988 21.75 8.33299 21.4064 7.0078 20.8124C6.34627 20.5159 5.75411 20.1387 5.31502 19.6734C4.87148 19.2033 4.55005 18.6024 4.55005 17.9V7.1C4.55005 6.39769 4.87148 5.79673 5.31502 5.32666C5.75411 4.86129 6.34627 4.48419 7.0078 4.18764ZM6.66061 7.60374C6.88189 7.83827 7.24529 8.09144 7.76456 8.32422C8.80096 8.78881 10.2977 9.1 12 9.1C13.7024 9.1 15.1991 8.78881 16.2355 8.32422C16.7548 8.09144 17.1182 7.83827 17.3395 7.60374C17.5557 7.37463 17.6 7.20614 17.6 7.1C17.6 6.99386 17.5557 6.82537 17.3395 6.59626C17.1182 6.36173 16.7548 6.10855 16.2355 5.87578C15.1991 5.41119 13.7024 5.1 12 5.1C10.2977 5.1 8.80096 5.41119 7.76456 5.87578C7.2453 6.10855 6.88189 6.36173 6.66061 6.59626C6.44442 6.82539 6.40005 6.99388 6.40005 7.1C6.40005 7.20612 6.44442 7.37461 6.66061 7.60374ZM17.5214 6.42469C17.7687 6.68682 17.85 6.91378 17.85 7.1C17.85 7.28622 17.7687 7.51318 17.5214 7.77531C17.2706 8.04103 16.8762 8.31095 16.3378 8.55235C15.2624 9.03443 13.7293 9.35 12 9.35C10.2708 9.35 8.73772 9.03443 7.66229 8.55235C7.1238 8.31095 6.72949 8.04103 6.47877 7.77531C6.23144 7.51318 6.15005 7.28622 6.15005 7.1C6.15005 6.91378 6.23144 6.68682 6.47877 6.42469C6.72949 6.15897 7.1238 5.88904 7.66229 5.64765C8.73772 5.16557 10.2708 4.85 12 4.85C13.7293 4.85 15.2624 5.16557 16.3378 5.64765C16.8762 5.88904 17.2706 6.15897 17.5214 6.42469ZM7.11006 20.5842C6.46776 20.2963 5.90651 19.936 5.49686 19.5018C5.08382 19.0641 4.80005 18.5215 4.80005 17.9V7.1C4.80005 6.4785 5.08382 5.93598 5.49686 5.49823C5.90651 5.06406 6.46776 4.7037 7.11006 4.41577C8.39622 3.83921 10.1257 3.5 12 3.5C13.8744 3.5 15.6038 3.83921 16.89 4.41577C17.5323 4.7037 18.0936 5.06406 18.5033 5.49823C18.9163 5.93598 19.2 6.4785 19.2 7.1V17.9C19.2 18.5215 18.9163 19.0641 18.5033 19.5018C18.0936 19.936 17.5323 20.2963 16.89 20.5842C15.6038 21.1608 13.8744 21.5 12 21.5C10.1257 21.5 8.39622 21.1608 7.11006 20.5842ZM6.66063 18.4037C6.8819 18.6383 7.24529 18.8914 7.76455 19.1242C8.80095 19.5888 10.2977 19.9 12 19.9C13.7024 19.9 15.1991 19.5888 16.2355 19.1242C16.7548 18.8914 17.1182 18.6383 17.3395 18.4037C17.5557 18.1747 17.6 18.0061 17.6 17.9V9.70456C17.4066 9.81531 17.2031 9.91784 16.9923 10.0124C15.6671 10.6064 13.9012 10.95 12 10.95C10.0988 10.95 8.33299 10.6064 7.0078 10.0124C6.79694 9.91784 6.59351 9.8153 6.40005 9.70454V17.9C6.40005 18.0061 6.44445 18.1746 6.66063 18.4037ZM6.15005 9.25318C6.23074 9.30859 6.31416 9.36233 6.40005 9.41441C6.62162 9.54875 6.85968 9.67199 7.11006 9.78423C8.39622 10.3608 10.1257 10.7 12 10.7C13.8744 10.7 15.6038 10.3608 16.89 9.78423C17.1404 9.67199 17.3785 9.54875 17.6 9.41442C17.6859 9.36234 17.7694 9.3086 17.85 9.25318V17.9C17.85 18.0862 17.7687 18.3132 17.5214 18.5753C17.2706 18.841 16.8762 19.1109 16.3378 19.3523C15.2624 19.8345 13.7293 20.15 12 20.15C10.2708 20.15 8.73772 19.8345 7.66229 19.3523C7.1238 19.1109 6.72949 18.841 6.47877 18.5753C6.23144 18.3132 6.15005 18.0862 6.15005 17.9V9.25318Z" fill="#5B6071"/>
</svg>
