<svg width="24" height="25" viewBox="0 0 24 25" fill="none" xmlns="http://www.w3.org/2000/svg">
<g clip-path="url(#clip0_3475_10637)">
<path d="M10.8381 21.5H4.54334V3.74291H10.8901C12.6762 3.74291 14.2138 4.0984 15.5028 4.80937C16.7918 5.51457 17.7831 6.52901 18.4768 7.8527C19.1762 9.17639 19.5259 10.7602 19.5259 12.6041C19.5259 14.4538 19.1762 16.0434 18.4768 17.3729C17.7831 18.7023 16.786 19.7226 15.4855 20.4335C14.1907 21.1445 12.6415 21.5 10.8381 21.5ZM8.29765 18.2833H10.682C11.7918 18.2833 12.7254 18.0867 13.4826 17.6937C14.2456 17.2948 14.8178 16.6792 15.1993 15.8469C15.5866 15.0087 15.7803 13.9278 15.7803 12.6041C15.7803 11.292 15.5866 10.2197 15.1993 9.38737C14.8178 8.55501 14.2485 7.9423 13.4913 7.54924C12.734 7.15618 11.8005 6.95965 10.6907 6.95965H8.29765V18.2833Z" fill="#5B6071"/>
</g>
<defs>
<clipPath id="clip0_3475_10637">
<rect y="0.5" width="24" height="24" fill="white"/>
</clipPath>
</defs>
</svg>
