<svg width="24" height="25" viewBox="0 0 24 25" fill="none" xmlns="http://www.w3.org/2000/svg">
<path d="M11.2887 3.20008C11.2887 2.81349 11.6021 2.50009 11.9887 2.50009H13.859C14.2456 2.50009 14.559 2.81349 14.559 3.20009V17.058C14.559 17.3943 14.3199 17.6839 13.9886 17.7415C12.5922 17.9842 11.4935 18.0835 10.3119 18.0835C6.31953 18.0834 4.23846 16.2787 4.23846 12.8171C4.23846 9.48302 6.44708 7.3173 9.86586 7.3173C10.3967 7.3173 10.8002 7.35963 11.2886 7.48694L11.2887 3.20008ZM11.2887 10.6243C11.2887 10.3229 11.0972 10.0459 10.8 9.99585C10.6041 9.96286 10.4073 9.94993 10.1845 9.94993C8.52814 9.94993 7.57251 10.9693 7.57251 12.7529C7.57251 14.4944 8.48573 15.4499 10.1633 15.4499C10.3421 15.4499 10.5053 15.4447 10.6813 15.4317C11.0304 15.406 11.2887 15.104 11.2887 14.7539V10.6243Z" fill="#5B6071"/>
<path d="M18.7617 7.55045C19.314 7.55044 19.7618 7.99816 19.7618 8.55045V15.1314C19.7618 17.7434 19.5706 18.9963 18.9973 20.0794C18.5223 21.0105 17.9113 21.6353 16.7539 22.2737C16.4843 22.4224 16.1591 22.4231 15.8811 22.2909L15.1939 21.9641C14.4315 21.6016 14.4512 20.5149 15.0742 19.9451C15.4226 19.6265 15.6748 19.28 15.8755 18.869C16.3427 17.9347 16.4915 16.8516 16.4915 14.0061V8.55049C16.4915 7.99821 16.9392 7.5505 17.4915 7.55049L18.7617 7.55045ZM16.4916 3.51758C16.4916 2.96529 16.9393 2.51758 17.4916 2.51758H18.7618C19.314 2.51758 19.7618 2.96529 19.7618 3.51758V4.87279C19.7618 5.42507 19.314 5.87279 18.7618 5.87279H17.4916C16.9393 5.87279 16.4916 5.42507 16.4916 4.87279V3.51758Z" fill="#5B6071"/>
</svg>
