<svg width="24" height="25" viewBox="0 0 24 25" fill="none" xmlns="http://www.w3.org/2000/svg">
<path d="M20.8943 11.0301C20.8423 10.9862 20.3571 10.5959 19.3337 10.5959C19.0635 10.5971 18.7938 10.6218 18.5273 10.6697C18.3293 9.22368 17.2069 8.51866 17.1565 8.48703L16.8817 8.31824L16.701 8.59603C16.4747 8.9692 16.3094 9.38056 16.2124 9.81264C16.0292 10.6381 16.1406 11.4134 16.5343 12.0762C16.0589 12.3584 15.2963 12.4278 15.142 12.434H2.51665C2.18688 12.4344 1.91929 12.7183 1.91749 13.0695C1.90277 14.2476 2.09016 15.4187 2.47044 16.5251C2.90536 17.7399 3.5524 18.6348 4.39421 19.1824C5.33752 19.7978 6.87009 20.1494 8.60733 20.1494C9.39214 20.152 10.1755 20.0764 10.9471 19.9235C12.0196 19.7137 13.0517 19.3144 14.0007 18.742C14.7825 18.2597 15.4862 17.6462 16.0845 16.925C17.0848 15.719 17.6807 14.3758 18.1238 13.182H18.3004C19.3956 13.182 20.0691 12.7152 20.4404 12.3241C20.6872 12.0746 20.8799 11.7707 21.0049 11.4336L21.0834 11.1892L20.8943 11.0301Z" fill="#5B6071"/>
<path d="M3.68696 12.0401H5.37882C5.46042 12.0401 5.52654 11.9697 5.52654 11.8828V10.2776C5.52699 10.1907 5.46122 10.1199 5.37965 10.1194C5.37938 10.1194 5.37909 10.1194 5.37882 10.1194H3.68696C3.60537 10.1194 3.53925 10.1898 3.53925 10.2767V10.2776V11.8828C3.53925 11.9697 3.60537 12.0401 3.68696 12.0401V12.0401Z" fill="#5B6071"/>
<path d="M6.01839 12.0401H7.71024C7.79184 12.0401 7.85796 11.9697 7.85796 11.8828V10.2776C7.85842 10.1907 7.79265 10.1199 7.71105 10.1194C7.71078 10.1194 7.71048 10.1194 7.71022 10.1194H6.01836C5.93631 10.1194 5.86981 10.1902 5.86981 10.2776V11.8828C5.87029 11.9698 5.93666 12.0401 6.01839 12.0401" fill="#5B6071"/>
<path d="M8.38529 12.0401H10.0771C10.1587 12.0401 10.2249 11.9697 10.2249 11.8828V10.2776C10.2253 10.1907 10.1596 10.1199 10.078 10.1194C10.0777 10.1194 10.0774 10.1194 10.0771 10.1194H8.38527C8.30367 10.1194 8.23755 10.1898 8.23755 10.2767V10.2776V11.8828C8.23758 11.9697 8.30372 12.0401 8.38529 12.0401V12.0401Z" fill="#5B6071"/>
<path d="M10.7242 12.0401H12.4161C12.4978 12.0401 12.5642 11.9698 12.5646 11.8828V10.2776C12.5646 10.1902 12.4981 10.1194 12.4161 10.1194H10.7242C10.6426 10.1194 10.5765 10.1898 10.5765 10.2767V10.2776V11.8828C10.5765 11.9697 10.6427 12.0401 10.7242 12.0401V12.0401Z" fill="#5B6071"/>
<path d="M6.01836 9.73083H7.71022C7.79192 9.73034 7.85793 9.65963 7.85793 9.5726V7.96746C7.85793 7.88055 7.79179 7.81012 7.71022 7.81012H6.01836C5.93666 7.81012 5.87027 7.8804 5.86981 7.96746V9.5726C5.87027 9.6598 5.9365 9.73034 6.01836 9.73083Z" fill="#5B6071"/>
<path d="M8.38533 9.73083H10.0772C10.1589 9.73034 10.2249 9.65963 10.2249 9.5726V7.96746C10.2249 7.88055 10.1588 7.81012 10.0772 7.81012H8.38533C8.30373 7.81012 8.23761 7.88058 8.23761 7.96746V9.5726C8.23761 9.65963 8.30362 9.73034 8.38533 9.73083Z" fill="#5B6071"/>
<path d="M10.7242 9.73083H12.4161C12.4979 9.73034 12.5642 9.6598 12.5646 9.5726V7.96746C12.5642 7.8804 12.4978 7.81012 12.4161 7.81012H10.7242C10.6426 7.81012 10.5765 7.88058 10.5765 7.96746V9.5726C10.5765 9.65963 10.6425 9.73034 10.7242 9.73083Z" fill="#5B6071"/>
<path d="M10.7242 7.42074H12.4161C12.4978 7.42074 12.5642 7.35042 12.5646 7.2634V5.65734C12.5642 5.57028 12.4978 5.5 12.4161 5.5H10.7242C10.6426 5.5 10.5765 5.57043 10.5765 5.65734V7.26337C10.5765 7.35028 10.6427 7.42074 10.7242 7.42074Z" fill="#5B6071"/>
<path d="M13.0838 12.0401H14.7756C14.8573 12.0401 14.9237 11.9698 14.9242 11.8828V10.2776C14.9242 10.1902 14.8577 10.1194 14.7756 10.1194H13.0838C13.0022 10.1194 12.936 10.1898 12.936 10.2767V10.2776V11.8828C12.936 11.9697 13.0022 12.0401 13.0838 12.0401" fill="#5B6071"/>
</svg>
