<svg width="24" height="24" viewBox="0 0 24 24" fill="none" xmlns="http://www.w3.org/2000/svg">
<path d="M6 3C5.44772 3 5 3.44772 5 4V20C5 20.5523 5.44772 21 6 21H18C18.5523 21 19 20.5523 19 20V8C19 7.69622 18.8619 7.4089 18.6247 7.21913L13.6247 3.21913C13.4474 3.07728 13.2271 3 13 3H6Z" stroke="#5B6071" stroke-width="2" stroke-linejoin="round"/>
<path d="M12 4V9H18" stroke="#5B6071" stroke-width="2" stroke-linejoin="round"/>
<path d="M13.9694 14.5604C14.2655 15.6244 13.6499 16.7305 12.6137 16.9966L12.0642 17.1376C12.0219 17.4184 12 17.7065 12 18C12 18.3072 12.024 18.6083 12.0702 18.9012L12.5776 19.028C13.6241 19.2896 14.2462 20.407 13.9415 21.4781L13.7663 22.0942C14.1794 22.4706 14.6501 22.7762 15.1624 22.9936L15.6264 22.4873C16.3681 21.6781 17.6119 21.6783 18.3535 22.4878L18.8226 23C19.3338 22.785 19.8041 22.4823 20.2174 22.1091L20.0311 21.4397C19.735 20.3756 20.3506 19.2695 21.3868 19.0035L21.9358 18.8625C21.9781 18.5817 22 18.2936 22 18C22 17.6929 21.976 17.3917 21.9298 17.0987L21.4228 16.972C20.3763 16.7105 19.7543 15.5931 20.059 14.5219L20.234 13.9063C19.821 13.5297 19.3502 13.2241 18.8379 13.0066L18.3741 13.5127C17.6324 14.322 16.3885 14.3217 15.647 13.5122L15.1778 13C14.6666 13.2149 14.1962 13.5175 13.783 13.8907L13.9694 14.5604ZM17 19.464C16.2469 19.464 15.6364 18.8085 15.6364 18C15.6364 17.1916 16.2469 16.5361 17 16.5361C17.7531 16.5361 18.3636 17.1916 18.3636 18C18.3636 18.8085 17.7531 19.464 17 19.464Z" fill="#5B6071"/>
</svg>
