<svg width="24" height="25" viewBox="0 0 24 25" fill="none" xmlns="http://www.w3.org/2000/svg">
<path d="M5.949 4.33029L5.86198 4.41732L9.41356 7.9688C8.91133 8.75287 8.62218 9.71579 8.62218 10.8111C8.62218 13.856 10.8575 15.8779 13.689 15.8779C14.7471 15.8779 15.7217 15.5956 16.5278 15.083L20.0975 18.6528C18.2479 21.0957 15.309 22.6337 12 22.6337C6.40417 22.6337 1.86639 18.2351 1.86639 12.5001C1.86639 9.08949 3.47126 6.15148 5.949 4.33029ZM7.63839 3.32741C8.95944 2.70894 10.4386 2.36636 11.9999 2.36636C17.5957 2.36636 22.1336 6.76515 22.1336 12.5C22.1336 14.0774 21.7903 15.5537 21.1761 16.8652L17.9642 13.6534C18.4665 12.8693 18.7556 11.9064 18.7556 10.811C18.7556 7.76615 16.5203 5.74421 13.6888 5.74421C12.6307 5.74421 11.6561 6.02657 10.85 6.53902L7.63839 3.32741ZM13.6889 13.8512C11.99 13.8512 10.6488 12.6381 10.6488 10.811C10.6488 8.984 11.99 7.77095 13.6889 7.77095C15.3878 7.77095 16.729 8.9841 16.729 10.811C16.729 12.6379 15.3878 13.8512 13.6889 13.8512Z" fill="#5B6071"/>
</svg>
