<svg width="24" height="25" viewBox="0 0 24 25" fill="none" xmlns="http://www.w3.org/2000/svg">
<path d="M12.78 4.49999C14.57 4.46999 15.96 4.84999 16.9 6.48999C19.26 12.37 10.82 15.41 10.48 15.53H10.47C10.47 15.53 10.22 17.13 12.64 17.07C15.62 17.07 18.74 14.76 19.94 13.77C20.23 13.54 20.65 13.56 20.91 13.83L21.8 14.76C22.05 15.03 22.06 15.45 21.82 15.73C21.05 16.6 19.23 18.38 16.49 19.52C16.49 19.52 11.92 21.65 8.84 19.64C7.01 18.44 6.5 17 6.29 15.51C6.29 15.51 4.06 15.39 2.63 14.84C1.19 14.27 2.64 12.58 2.64 12.58C2.64 12.58 3.08 11.87 3.92 12.58C4.75 13.29 6.32 12.97 6.32 12.97C6.46 11.86 6.69 10.4 7.38 8.85999C8.81 5.63999 11 4.53999 12.78 4.49999ZM13.83 7.73999C12.89 6.82999 10.16 8.64999 10.05 12.83C10.05 12.83 10.86 13.07 12.63 11.85C14.42 10.62 14.76 8.65999 13.82 7.73999H13.83Z" fill="#5B6071"/>
</svg>
