<svg width="24" height="25" viewBox="0 0 24 25" fill="none" xmlns="http://www.w3.org/2000/svg">
<path d="M12 2.54251C9.3591 2.54251 6.82637 3.5916 4.95898 5.459C3.09159 7.32639 2.0425 9.85912 2.0425 12.5C2.0425 15.1409 3.09159 17.6736 4.95898 19.541C6.82637 21.4084 9.3591 22.4575 12 22.4575C14.6409 22.4575 17.1736 21.4084 19.041 19.541C20.9084 17.6736 21.9575 15.1409 21.9575 12.5C21.9575 9.85912 20.9084 7.32639 19.041 5.459C17.1736 3.5916 14.6409 2.54251 12 2.54251ZM7.26355 7.279C7.4588 7.08372 7.7754 7.08371 7.97067 7.27897L12.8384 12.1466C13.0337 12.3418 13.0337 12.6584 12.8384 12.8537L7.97065 17.7213C7.77539 17.9165 7.45881 17.9165 7.26355 17.7213L6.28105 16.7388C6.08579 16.5435 6.08579 16.2269 6.28105 16.0317L9.45894 12.8538C9.6542 12.6585 9.6542 12.3419 9.45894 12.1467L6.28103 8.96874C6.08577 8.77349 6.08576 8.45692 6.28101 8.26166L7.26355 7.279ZM13.238 7.279C13.4333 7.08372 13.7499 7.08371 13.9452 7.27897L18.8129 12.1466C19.0082 12.3418 19.0082 12.6584 18.8129 12.8537L13.9452 17.7213C13.7499 17.9165 13.4333 17.9165 13.238 17.7213L12.2555 16.7388C12.0603 16.5435 12.0603 16.2269 12.2555 16.0317L15.4334 12.8538C15.6287 12.6585 15.6287 12.3419 15.4334 12.1467L12.2555 8.96874C12.0603 8.77349 12.0603 8.45692 12.2555 8.26166L13.238 7.279Z" fill="#5B6071"/>
</svg>
