<svg width="24" height="25" viewBox="0 0 24 25" fill="none" xmlns="http://www.w3.org/2000/svg">
<path d="M8.818 22.11C10.575 22.11 12.001 20.675 12.001 18.907V15.704H8.818C7.063 15.704 5.637 17.138 5.637 18.907C5.637 20.676 7.063 22.11 8.818 22.11Z" fill="#5B6071"/>
<path d="M5.637 12.5C5.637 10.732 7.063 9.297 8.818 9.297H12.001V15.704H8.818C7.063 15.704 5.637 14.269 5.637 12.5Z" fill="#5B6071"/>
<path d="M5.637 6.09401C5.637 4.32601 7.063 2.89001 8.818 2.89001H12.001V9.29701H8.818C7.063 9.29701 5.637 7.86201 5.637 6.09401Z" fill="#5B6071"/>
<path d="M12 2.89001H15.182C16.938 2.89001 18.364 4.32601 18.364 6.09401C18.364 7.86201 16.938 9.29701 15.182 9.29701H12V2.89001Z" fill="#5B6071"/>
<path d="M18.364 12.5C18.364 14.269 16.938 15.704 15.182 15.704C13.426 15.704 12 14.269 12 12.5C12 10.731 13.426 9.297 15.182 9.297C16.938 9.297 18.364 10.732 18.364 12.5Z" fill="#5B6071"/>
</svg>
