<svg width="24" height="25" viewBox="0 0 24 25" fill="none" xmlns="http://www.w3.org/2000/svg">
<path d="M11.6464 2.9867C11.8417 2.79144 12.1583 2.79144 12.3536 2.9867L21.0133 11.6464C21.3283 11.9614 21.1052 12.5 20.6597 12.5H16.2286V18.0565C16.2286 18.1983 16.1684 18.3332 16.0635 18.4285C14.8268 19.5509 13.5902 20.7776 12.3536 22.0133C12.1583 22.2085 11.8417 22.2086 11.6464 22.0133L2.4867 12.8536C2.29144 12.6583 2.29144 12.3417 2.4867 12.1464L11.6464 2.9867ZM7.91235 12.5L12 16.5876V12.5H16.0876C14.819 11.0904 13.4095 9.6809 12 8.41235C10.5904 9.68094 9.1809 11.0904 7.91235 12.5Z" fill="#5B6071"/>
</svg>
