<svg width="24" height="25" viewBox="0 0 24 25" fill="none" xmlns="http://www.w3.org/2000/svg">
<path d="M12 1.77115C6.09913 1.77115 1.27115 6.59913 1.27115 12.5C1.27115 18.4008 6.09913 23.2288 12 23.2288C17.9008 23.2288 22.7288 18.4008 22.7288 12.5C22.7288 6.59913 17.9008 1.77115 12 1.77115ZM6.02249 18.4775C4.41317 16.8682 3.57019 14.7224 3.57019 12.6533L11.9234 20.9298C9.77759 20.8532 7.63182 20.0868 6.02249 18.4775ZM13.8392 20.6999L3.80009 10.6608C4.64307 6.90566 8.01499 4.07019 12 4.07019C14.8355 4.07019 17.2878 5.44961 18.8205 7.51874L17.6709 8.51499C16.3682 6.7524 14.299 5.60288 12 5.60288C9.01124 5.60288 6.4823 7.51874 5.48605 10.201L14.299 19.0139C16.5214 18.2476 18.2074 16.3317 18.7438 14.0327H15.0654V12.5H20.4298C20.4298 16.485 17.5943 19.8569 13.8392 20.6999Z" fill="#5B6071"/>
</svg>
