<svg width="24" height="24" viewBox="0 0 24 24" fill="none" xmlns="http://www.w3.org/2000/svg">
<path d="M21.3175 8.71953C20.884 7.7043 20.0016 6.60635 19.3101 6.26042C19.8027 7.18963 20.1439 8.18749 20.3215 9.21837L20.3233 9.23466C19.1932 6.50232 17.2787 5.39936 15.7048 2.9929C15.6256 2.87133 15.5464 2.7495 15.4692 2.62191C15.4251 2.54846 15.3898 2.48228 15.3591 2.42137C15.294 2.29878 15.244 2.16922 15.2099 2.03533C15.21 2.02917 15.2077 2.02321 15.2035 2.01859C15.1993 2.01397 15.1935 2.011 15.1872 2.01027C15.1811 2.00862 15.1746 2.00862 15.1684 2.01027C15.1671 2.01027 15.165 2.01252 15.1635 2.01302C15.1619 2.01352 15.1586 2.01578 15.1563 2.01678L15.1601 2.01027C12.647 3.4391 11.8059 6.09623 11.7285 7.39973C10.7224 7.46516 9.76013 7.82426 8.96768 8.43C8.88527 8.36219 8.79914 8.29876 8.70966 8.23999C8.48235 7.46532 8.47264 6.64566 8.68154 5.86612C7.75899 6.3002 6.93926 6.91564 6.27422 7.67347H6.26958C5.87223 7.18466 5.90061 5.57534 5.92383 5.23943C5.80695 5.28528 5.69538 5.343 5.59099 5.41165C5.24098 5.65379 4.91374 5.92558 4.6131 6.22383C4.27093 6.5613 3.95849 6.92605 3.67907 7.31425C3.03728 8.19643 2.58131 9.19291 2.33737 10.2469L2.32396 10.311C2.30512 10.3965 2.23726 10.8249 2.22565 10.9177C2.22565 10.9249 2.2241 10.9317 2.22333 10.939C2.1358 11.3808 2.08155 11.8281 2.06104 12.2776V12.3277C2.07666 14.754 3.02516 17.087 4.72036 18.8687C6.41555 20.6505 8.73501 21.7523 11.2234 21.958C13.7119 22.1636 16.1896 21.4582 18.1702 19.9803C20.1508 18.5023 21.4913 16.3585 21.9285 13.9696C21.9453 13.8443 21.9589 13.7202 21.9739 13.5936C22.1811 11.9373 21.9584 10.2569 21.3263 8.70549L21.3175 8.71953ZM9.78405 16.3149C9.83075 16.3367 9.87462 16.3603 9.92261 16.3811L9.92958 16.3854C9.88107 16.3628 9.83256 16.3393 9.78405 16.3149ZM20.3319 9.21335V9.20408L20.3337 9.21435L20.3319 9.21335Z" fill="url(#paint0_linear_3475_8869)"/>
<path d="M21.3177 8.71957C20.8842 7.70434 20.0018 6.6064 19.3103 6.26047C19.8029 7.18968 20.1441 8.18753 20.3218 9.21841V9.22768L20.3236 9.23796C21.0969 11.3841 20.985 13.7378 20.0114 15.8056C18.8658 18.1945 16.0895 20.6436 11.7548 20.5182C7.05881 20.3891 2.93051 17.0088 2.15645 12.5719C2.01583 11.8725 2.15645 11.5191 2.22715 10.9526C2.13072 11.3938 2.0769 11.8427 2.06641 12.2937V12.3438C2.08203 14.7701 3.03053 17.1031 4.72573 18.8848C6.42092 20.6666 8.74038 21.7684 11.2288 21.9741C13.7172 22.1797 16.1949 21.4743 18.1755 19.9963C20.1561 18.5184 21.4966 16.3746 21.9339 13.9857C21.9506 13.8604 21.9643 13.7363 21.9793 13.6097C22.1864 11.9533 21.9638 10.273 21.3316 8.72158L21.3177 8.71957Z" fill="url(#paint1_radial_3475_8869)"/>
<path d="M21.3177 8.71957C20.8842 7.70434 20.0018 6.6064 19.3103 6.26047C19.8029 7.18968 20.1441 8.18753 20.3218 9.21841V9.22768L20.3236 9.23796C21.0969 11.3841 20.985 13.7378 20.0114 15.8056C18.8658 18.1945 16.0895 20.6436 11.7548 20.5182C7.05881 20.3891 2.93051 17.0088 2.15645 12.5719C2.01583 11.8725 2.15645 11.5191 2.22715 10.9526C2.13072 11.3938 2.0769 11.8427 2.06641 12.2937V12.3438C2.08203 14.7701 3.03053 17.1031 4.72573 18.8848C6.42092 20.6666 8.74038 21.7684 11.2288 21.9741C13.7172 22.1797 16.1949 21.4743 18.1755 19.9963C20.1561 18.5184 21.4966 16.3746 21.9339 13.9857C21.9506 13.8604 21.9643 13.7363 21.9793 13.6097C22.1864 11.9533 21.9638 10.273 21.3316 8.72158L21.3177 8.71957Z" fill="url(#paint2_radial_3475_8869)"/>
<path d="M16.4667 9.8726C16.4883 9.88739 16.5085 9.90218 16.5289 9.91697C16.2778 9.48379 15.9651 9.08717 15.6 8.73881C12.5038 5.73073 14.7846 2.19624 15.1717 2.02077L15.1755 2.01526C12.6624 3.44409 11.8213 6.10123 11.7439 7.40473C11.8605 7.39696 11.9761 7.38743 12.0948 7.38743C12.9867 7.38933 13.8622 7.62035 14.6325 8.05706C15.4029 8.49378 16.0406 9.12065 16.4811 9.87411L16.4667 9.8726Z" fill="url(#paint3_radial_3475_8869)"/>
<path d="M12.0807 10.4743C12.0642 10.7159 11.1854 11.5497 10.8783 11.5497C8.04012 11.5497 7.57568 13.2217 7.57568 13.2217C7.7016 14.6279 8.71097 15.7785 9.93139 16.4052C9.98713 16.4333 10.0436 16.4586 10.1001 16.4834C10.198 16.5255 10.2961 16.5645 10.3943 16.6002C10.8128 16.7443 11.2511 16.8265 11.6947 16.8441C16.6745 17.0712 17.6549 11.0536 14.0478 9.29887C14.8959 9.19249 15.7545 9.39522 16.4577 9.8679C16.0172 9.11445 15.3795 8.48757 14.6091 8.05086C13.8388 7.61414 12.9633 7.38312 12.0714 7.38123C11.9527 7.38123 11.8366 7.39075 11.7205 7.39852C10.7144 7.46395 9.75215 7.82305 8.9597 8.42879C9.11219 8.55412 9.2848 8.72208 9.64603 9.068C10.3246 9.71725 12.0662 10.3916 12.0688 10.4693L12.0807 10.4743Z" fill="url(#paint4_radial_3475_8869)"/>
<path d="M12.0807 10.4743C12.0642 10.7159 11.1854 11.5497 10.8783 11.5497C8.04012 11.5497 7.57568 13.2217 7.57568 13.2217C7.7016 14.6279 8.71097 15.7785 9.93139 16.4052C9.98713 16.4333 10.0436 16.4586 10.1001 16.4834C10.198 16.5255 10.2961 16.5645 10.3943 16.6002C10.8128 16.7443 11.2511 16.8265 11.6947 16.8441C16.6745 17.0712 17.6549 11.0536 14.0478 9.29887C14.8959 9.19249 15.7545 9.39522 16.4577 9.8679C16.0172 9.11445 15.3795 8.48757 14.6091 8.05086C13.8388 7.61414 12.9633 7.38312 12.0714 7.38123C11.9527 7.38123 11.8366 7.39075 11.7205 7.39852C10.7144 7.46395 9.75215 7.82305 8.9597 8.42879C9.11219 8.55412 9.2848 8.72208 9.64603 9.068C10.3246 9.71725 12.0662 10.3916 12.0688 10.4693L12.0807 10.4743Z" fill="url(#paint5_radial_3475_8869)"/>
<path d="M9.78394 16.34C9.83244 16.3643 9.88095 16.3877 9.92946 16.4105L9.92249 16.4062C9.87527 16.3854 9.83064 16.3618 9.78394 16.34Z" fill="url(#paint6_radial_3475_8869)"/>
<path d="M9.78394 16.34C9.83244 16.3643 9.88095 16.3877 9.92946 16.4105L9.92249 16.4062C9.87527 16.3854 9.83064 16.3618 9.78394 16.34Z" fill="url(#paint7_radial_3475_8869)"/>
<path d="M8.52004 8.11793C8.60106 8.16807 8.66788 8.21168 8.72645 8.25104C8.49914 7.47637 8.48943 6.65671 8.69833 5.87717C7.77579 6.31125 6.95605 6.92669 6.29102 7.68452C6.33978 7.68327 7.7901 7.65795 8.5203 8.11818L8.52004 8.11793Z" fill="url(#paint8_radial_3475_8869)"/>
<path d="M2.16078 12.5799C2.93226 17.0168 7.06314 20.4009 11.7591 20.5263C16.0938 20.6456 18.8804 18.1975 20.0157 15.8136C20.9894 13.7458 21.1013 11.3921 20.3279 9.24597V9.2367C20.3279 9.22943 20.3263 9.22517 20.3279 9.22742L20.3297 9.24372C20.6858 11.4948 19.5066 13.6806 17.6721 15.1596L17.6664 15.1721C14.08 18.0047 10.6483 16.8842 9.95166 16.4255C9.90315 16.4029 9.85465 16.3795 9.80614 16.3551C7.71361 15.3824 6.83892 13.5225 7.04534 11.9432C6.54856 11.9503 6.06035 11.8171 5.63991 11.56C5.21948 11.3028 4.88489 10.9326 4.67672 10.4943C5.2243 10.1692 5.84828 9.9854 6.48949 9.9603C7.1307 9.93521 7.76788 10.0697 8.34059 10.3509C9.52842 10.8765 10.8812 10.928 12.1077 10.4943C12.1038 10.4154 10.3635 9.74231 9.68487 9.09306C9.32364 8.74713 9.15077 8.57918 8.99854 8.45385C8.91612 8.38603 8.82999 8.3226 8.74052 8.26384C8.68118 8.22448 8.61435 8.18187 8.53411 8.13073C7.80391 7.66949 6.35385 7.69456 6.30482 7.69707H6.30018C5.90283 7.20825 5.93121 5.59893 5.95443 5.26303C5.83755 5.30888 5.72598 5.3666 5.62159 5.43524C5.27158 5.67739 4.94434 5.94918 4.6437 6.24742C4.29985 6.58389 3.98569 6.94781 3.70451 7.33534C3.06272 8.21752 2.60675 9.214 2.36281 10.268C2.35791 10.2878 2.00159 11.7971 2.17781 12.5792L2.16078 12.5799Z" fill="url(#paint9_radial_3475_8869)"/>
<path d="M15.5896 8.74455C15.9547 9.09291 16.2674 9.48953 16.5185 9.92271C16.5735 9.96307 16.6248 10.0032 16.6684 10.042C18.9364 12.0725 17.7469 14.9552 17.6592 15.1558C19.5014 13.6818 20.678 11.4959 20.3168 9.23988C19.1867 6.50754 17.2722 5.40458 15.6983 2.99812C15.619 2.87655 15.5398 2.75472 15.4627 2.62713C15.4186 2.55368 15.3832 2.4875 15.3525 2.42659C15.2875 2.304 15.2374 2.17444 15.2034 2.04055C15.2034 2.03439 15.2011 2.02843 15.1969 2.02381C15.1928 2.01919 15.187 2.01622 15.1807 2.01548C15.1745 2.01384 15.168 2.01384 15.1618 2.01548C15.1605 2.01548 15.1585 2.01774 15.1569 2.01824C15.1554 2.01874 15.152 2.021 15.1497 2.022C14.7627 2.20023 12.4663 5.73196 15.578 8.74004L15.5896 8.74455Z" fill="url(#paint10_radial_3475_8869)"/>
<path d="M16.6732 10.023C16.6296 9.98419 16.5783 9.94408 16.5233 9.90372C16.5029 9.88893 16.4828 9.87415 16.4611 9.85936C15.7579 9.38667 14.8993 9.18394 14.0512 9.29033C17.6377 11.0375 16.683 17.0612 11.6981 16.8356C11.2545 16.8179 10.8162 16.7357 10.3977 16.5917C10.2998 16.5561 10.2018 16.5171 10.1036 16.4749C10.0471 16.4498 9.99055 16.4247 9.93481 16.3967L9.94178 16.4009C10.6359 16.8622 14.0701 17.9877 17.6565 15.1476L17.6622 15.135C17.7518 14.932 18.9394 12.0517 16.6714 10.0213L16.6732 10.023Z" fill="url(#paint11_radial_3475_8869)"/>
<path d="M7.59097 13.2066C7.59097 13.2066 8.05283 11.5346 10.8936 11.5346C11.2007 11.5346 12.0805 10.7024 12.096 10.4592C10.8695 10.8929 9.51673 10.8414 8.32891 10.3158C7.75619 10.0346 7.11901 9.90011 6.4778 9.92521C5.83659 9.9503 5.21261 10.1341 4.66504 10.4592C4.87321 10.8975 5.2078 11.2677 5.62823 11.5249C6.04866 11.782 6.53687 11.9152 7.03365 11.9081C6.84839 13.4974 7.71224 15.3423 9.79445 16.32C9.84115 16.3418 9.88502 16.3653 9.93301 16.3861C8.71258 15.7745 7.70373 14.6139 7.5773 13.2026L7.59097 13.2066Z" fill="url(#paint12_radial_3475_8869)"/>
<path d="M21.3176 8.71953C20.8841 7.7043 20.0017 6.60635 19.3102 6.26043C19.8028 7.18963 20.144 8.18749 20.3216 9.21837L20.3234 9.23466C19.1933 6.50233 17.2788 5.39936 15.7049 2.9929C15.6257 2.87133 15.5464 2.7495 15.4693 2.62191C15.4252 2.54846 15.3898 2.48228 15.3591 2.42137C15.2941 2.29878 15.244 2.16922 15.21 2.03533C15.21 2.02917 15.2077 2.02321 15.2036 2.01859C15.1994 2.01397 15.1936 2.011 15.1873 2.01027C15.1811 2.00862 15.1746 2.00862 15.1685 2.01027C15.1672 2.01027 15.1651 2.01252 15.1635 2.01302C15.162 2.01352 15.1586 2.01578 15.1563 2.01678L15.1602 2.01027C12.6471 3.4391 11.806 6.09624 11.7285 7.39973C11.8452 7.39196 11.9608 7.38244 12.0795 7.38244C12.9713 7.38433 13.8469 7.61535 14.6172 8.05207C15.3875 8.48878 16.0253 9.11566 16.4658 9.86911C15.7625 9.39643 14.904 9.1937 14.0559 9.30009C17.6423 11.0473 16.6877 17.0709 11.7027 16.8453C11.2592 16.8277 10.8208 16.7455 10.4023 16.6014C10.3045 16.5658 10.2064 16.5269 10.1082 16.4846C10.0517 16.4596 9.99518 16.4345 9.93944 16.4064L9.94641 16.4107C9.8979 16.3881 9.8494 16.3646 9.80089 16.3402C9.84759 16.362 9.89145 16.3856 9.93944 16.4064C8.71902 15.7923 7.71016 14.6342 7.58373 13.2229C7.58373 13.2229 8.04559 11.5509 10.8864 11.5509C11.1934 11.5509 12.0733 10.7186 12.0887 10.4755C12.0849 10.3965 10.3445 9.72347 9.66594 9.07423C9.30472 8.7283 9.13184 8.56035 8.97961 8.43501C8.8972 8.3672 8.81107 8.30377 8.72159 8.245C8.49428 7.47034 8.48457 6.65067 8.69347 5.87113C7.77093 6.30522 6.95119 6.92065 6.28616 7.67848H6.28151C5.88416 7.18967 5.91254 5.58035 5.93577 5.24445C5.81888 5.29029 5.70731 5.34802 5.60292 5.41666C5.25291 5.6588 4.92567 5.93059 4.62503 6.22884C4.28286 6.56631 3.97042 6.93107 3.691 7.31927V7.32077V7.31902C3.04921 8.2012 2.59324 9.19792 2.34931 10.2519L2.33589 10.3161C2.31705 10.4015 2.23268 10.835 2.22055 10.9277C2.14342 11.3756 2.09413 11.8277 2.07297 12.2813V12.3315C2.08859 14.7577 3.0371 17.0907 4.73229 18.8725C6.42748 20.6542 8.74694 21.7561 11.2354 21.9617C13.7238 22.1674 16.2015 21.462 18.1821 19.984C20.1627 18.506 21.5032 16.3622 21.9404 13.9734C21.9572 13.848 21.9709 13.724 21.9858 13.5974C22.193 11.941 21.9704 10.2606 21.3382 8.70925L21.3176 8.71953Z" fill="url(#paint13_linear_3475_8869)"/>
<defs>
<linearGradient id="paint0_linear_3475_8869" x1="21.0337" y1="7.13926" x2="4.01893" y2="18.1863" gradientUnits="userSpaceOnUse">
<stop stop-color="#5B6071"/>
<stop offset="0.406" stop-color="#5B6071"/>
<stop offset="0.421" stop-color="#5B6071"/>
<stop offset="0.818" stop-color="#5B6071"/>
<stop offset="1" stop-color="#5B6071"/>
</linearGradient>
<radialGradient id="paint1_radial_3475_8869" cx="0" cy="0" r="1" gradientUnits="userSpaceOnUse" gradientTransform="translate(19.3568 4.25759) scale(20.8479 20.2544)">
<stop offset="0.108" stop-color="#5B6071"/>
<stop offset="0.122" stop-color="#5B6071"/>
<stop offset="0.254" stop-color="#5B6071"/>
<stop offset="0.358" stop-color="#5B6071"/>
<stop offset="0.42" stop-color="#5B6071"/>
<stop offset="0.487" stop-color="#5B6071"/>
<stop offset="0.64" stop-color="#5B6071"/>
<stop offset="0.71" stop-color="#5B6071"/>
<stop offset="0.795" stop-color="#5B6071"/>
<stop offset="0.86" stop-color="#5B6071"/>
</radialGradient>
<radialGradient id="paint2_radial_3475_8869" cx="0" cy="0" r="1" gradientUnits="userSpaceOnUse" gradientTransform="translate(11.6162 12.5298) scale(20.8479 20.2544)">
<stop offset="0.3" stop-color="#5B6071"/>
<stop offset="0.341" stop-color="#5B6071" stop-opacity="0.787"/>
<stop offset="0.43" stop-color="#5B6071" stop-opacity="0.364"/>
<stop offset="0.495" stop-color="#5B6071" stop-opacity="0.1"/>
<stop offset="0.53" stop-color="#5B6071" stop-opacity="0"/>
</radialGradient>
<radialGradient id="paint3_radial_3475_8869" cx="0" cy="0" r="1" gradientUnits="userSpaceOnUse" gradientTransform="translate(14.1961 -0.254585) scale(15.0941 14.6644)">
<stop offset="0.132" stop-color="#5B6071"/>
<stop offset="0.289" stop-color="#5B6071"/>
<stop offset="0.526" stop-color="#5B6071"/>
</radialGradient>
<radialGradient id="paint4_radial_3475_8869" cx="0" cy="0" r="1" gradientUnits="userSpaceOnUse" gradientTransform="translate(9.29409 17.7939) scale(9.93372 9.65091)">
<stop offset="0.287" stop-color="#5B6071"/>
<stop offset="0.417" stop-color="#5B6071"/>
<stop offset="0.604" stop-color="#5B6071"/>
<stop offset="0.748" stop-color="#5B6071"/>
<stop offset="0.833" stop-color="#5B6071"/>
</radialGradient>
<radialGradient id="paint5_radial_3475_8869" cx="0" cy="0" r="1" gradientUnits="userSpaceOnUse" gradientTransform="translate(12.6246 6.5337) rotate(-13.2184) scale(5.25544 6.00618)">
<stop offset="0.206" stop-color="#5B6071" stop-opacity="0"/>
<stop offset="0.251" stop-color="#5B6071" stop-opacity="0.055"/>
<stop offset="0.725" stop-color="#5B6071" stop-opacity="0.591"/>
<stop offset="0.956" stop-color="#5B6071" stop-opacity="0.8"/>
</radialGradient>
<radialGradient id="paint6_radial_3475_8869" cx="0" cy="0" r="1" gradientUnits="userSpaceOnUse" gradientTransform="translate(9.80974 16.2899) scale(0.16152 0.15692)">
<stop offset="0.353" stop-color="#5B6071"/>
<stop offset="0.472" stop-color="#5B6071"/>
<stop offset="0.669" stop-color="#5B6071"/>
<stop offset="1" stop-color="#5B6071"/>
</radialGradient>
<radialGradient id="paint7_radial_3475_8869" cx="0" cy="0" r="1" gradientUnits="userSpaceOnUse" gradientTransform="translate(10.8364 12.8369) rotate(-13.2183) scale(0.0577069 0.0659499)">
<stop offset="0.206" stop-color="#5B6071" stop-opacity="0"/>
<stop offset="0.278" stop-color="#5B6071" stop-opacity="0.064"/>
<stop offset="0.747" stop-color="#5B6071" stop-opacity="0.45"/>
<stop offset="0.975" stop-color="#5B6071" stop-opacity="0.6"/>
</radialGradient>
<radialGradient id="paint8_radial_3475_8869" cx="0" cy="0" r="1" gradientUnits="userSpaceOnUse" gradientTransform="translate(11.3582 3.50555) scale(7.14712 6.94364)">
<stop stop-color="#5B6071"/>
<stop offset="0.235" stop-color="#5B6071"/>
<stop offset="0.572" stop-color="#5B6071"/>
<stop offset="0.792" stop-color="#5B6071"/>
</radialGradient>
<radialGradient id="paint9_radial_3475_8869" cx="0" cy="0" r="1" gradientUnits="userSpaceOnUse" gradientTransform="translate(17.0345 -1.00655) scale(30.4462 29.5794)">
<stop offset="0.126" stop-color="#5B6071"/>
<stop offset="0.429" stop-color="#5B6071"/>
<stop offset="0.479" stop-color="#5B6071"/>
<stop offset="0.624" stop-color="#5B6071"/>
<stop offset="0.69" stop-color="#5B6071"/>
<stop offset="0.904" stop-color="#5B6071"/>
</radialGradient>
<radialGradient id="paint10_radial_3475_8869" cx="0" cy="0" r="1" gradientUnits="userSpaceOnUse" gradientTransform="translate(14.5018 0.634777) rotate(83.8008) scale(21.7017 14.6504)">
<stop stop-color="#5B6071"/>
<stop offset="0.095" stop-color="#5B6071"/>
<stop offset="0.197" stop-color="#5B6071"/>
<stop offset="0.257" stop-color="#5B6071"/>
<stop offset="0.369" stop-color="#5B6071"/>
<stop offset="0.423" stop-color="#5B6071"/>
<stop offset="0.737" stop-color="#5B6071"/>
</radialGradient>
<radialGradient id="paint11_radial_3475_8869" cx="0" cy="0" r="1" gradientUnits="userSpaceOnUse" gradientTransform="translate(11.358 6.01228) scale(19.016 18.4746)">
<stop offset="0.137" stop-color="#5B6071"/>
<stop offset="0.435" stop-color="#5B6071"/>
<stop offset="0.484" stop-color="#5B6071"/>
<stop offset="0.622" stop-color="#707070"/>
<stop offset="0.685" stop-color="#5B6071"/>
</radialGradient>
<radialGradient id="paint12_radial_3475_8869" cx="0" cy="0" r="1" gradientUnits="userSpaceOnUse" gradientTransform="translate(16.2604 7.01498) scale(20.8221 20.2293)">
<stop offset="0.094" stop-color="#5B6071"/>
<stop offset="0.242" stop-color="#5B6071"/>
<stop offset="0.543" stop-color="#5B6071"/>
<stop offset="0.626" stop-color="#5B6071"/>
</radialGradient>
<linearGradient id="paint13_linear_3475_8869" x1="19.7952" y1="5.03361" x2="6.08915" y2="19.1414" gradientUnits="userSpaceOnUse">
<stop offset="0.167" stop-color="#5B6071" stop-opacity="0.8"/>
<stop offset="0.236" stop-color="#5B6071" stop-opacity="0.639"/>
<stop offset="0.361" stop-color="#5B6071" stop-opacity="0.368"/>
<stop offset="0.466" stop-color="#5B6071" stop-opacity="0.169"/>
<stop offset="0.545" stop-color="#5B6071" stop-opacity="0.046"/>
<stop offset="0.589" stop-color="#5B6071" stop-opacity="0"/>
</linearGradient>
</defs>
</svg>
