<svg width="24" height="25" viewBox="0 0 24 25" fill="none" xmlns="http://www.w3.org/2000/svg">
<rect x="4" y="4.5" width="16" height="16" rx="3" stroke="#5B6071" stroke-width="2" stroke-linejoin="round"/>
<path d="M12.1148 10.0281C12.4526 10.0281 12.7328 10.3082 12.7328 10.6461V14.3539C12.7328 14.6918 12.4526 14.9719 12.1148 14.9719C11.777 14.9719 11.4968 14.6918 11.4968 14.3539V10.6461C11.4968 10.3082 11.777 10.0281 12.1148 10.0281ZM10.2609 10.6461C10.2609 10.3082 9.9807 10.0281 9.64287 10.0281H6.96496C6.47058 10.0281 6.14099 10.4401 6.14099 10.852V14.1479C6.14099 14.5599 6.47058 14.9719 6.96496 14.9719H9.43688C9.93126 14.9719 10.2609 14.5599 10.2609 14.1479V13.118C10.2609 12.7801 9.9807 12.5 9.64287 12.5C9.30504 12.5 9.02489 12.7801 9.02489 13.118V13.736H7.37695V11.264H9.64287C9.9807 11.264 10.2609 10.9839 10.2609 10.6461ZM17.6766 10.6461C17.6766 10.3082 17.3965 10.0281 17.0586 10.0281H14.7927C14.3395 10.0281 13.9687 10.3989 13.9687 10.852V14.3539C13.9687 14.6918 14.2489 14.9719 14.5867 14.9719C14.9245 14.9719 15.2047 14.6918 15.2047 14.3539V13.324H16.2346C16.5725 13.324 16.8526 13.0438 16.8526 12.706C16.8526 12.3682 16.5725 12.088 16.2346 12.088H15.2047V11.264H17.0586C17.3965 11.264 17.6766 10.9839 17.6766 10.6461Z" fill="#5B6071" stroke="#5B6071" stroke-width="0.5"/>
</svg>
