<svg width="24" height="25" viewBox="0 0 24 25" fill="none" xmlns="http://www.w3.org/2000/svg">
<path d="M10.857 2.061C8.22297 2.061 6.10097 4.514 6.10097 7.563V12.163L6.07397 12.16V16.87C6.07397 19.92 8.19598 22.372 10.83 22.372H13.117C15.751 22.372 17.873 19.919 17.873 16.87V12.27C17.882 12.271 17.891 12.272 17.9 12.273V7.563C17.9 4.514 15.778 2.061 13.144 2.061H10.857Z" fill="#5B6071"/>
<path d="M5.51436 3.48878L5.49545 3.52288C5.19418 4.06627 5.38301 4.76398 5.91721 5.08126L6.85009 5.63531C7.38429 5.95259 8.06158 5.76929 8.36285 5.2259L8.38176 5.19179C8.68304 4.64841 8.49421 3.9507 7.96 3.63342L7.02713 3.07937C6.49292 2.76209 5.81564 2.94539 5.51436 3.48878Z" fill="#5B6071"/>
<path d="M18.8267 3.76655L18.8218 3.7567C18.5399 3.19185 17.855 2.96523 17.2919 3.25053L16.307 3.74948C15.7439 4.03478 15.5159 4.72396 15.7978 5.28882L15.8027 5.29866C16.0845 5.86351 16.7695 6.09013 17.3326 5.80483L18.3174 5.30588C18.8805 5.02058 19.1085 4.3314 18.8267 3.76655Z" fill="#5B6071"/>
<path d="M9.549 7.55002C10.6834 7.55002 11.603 6.63041 11.603 5.49602C11.603 4.36162 10.6834 3.44202 9.549 3.44202C8.4146 3.44202 7.495 4.36162 7.495 5.49602C7.495 6.63041 8.4146 7.55002 9.549 7.55002Z" fill="#5B6071" stroke="#5B6071" stroke-width="0.1"/>
<path d="M14.496 7.53601C15.6304 7.53601 16.55 6.6164 16.55 5.48201C16.55 4.34762 15.6304 3.42801 14.496 3.42801C13.3616 3.42801 12.442 4.34762 12.442 5.48201C12.442 6.6164 13.3616 7.53601 14.496 7.53601Z" fill="#5B6071" stroke="#5B6071" stroke-width="0.1"/>
<path d="M8.32099 6.31799C8.7584 6.31799 9.11299 5.9146 9.11299 5.41699C9.11299 4.91938 8.7584 4.51599 8.32099 4.51599C7.88358 4.51599 7.52899 4.91938 7.52899 5.41699C7.52899 5.9146 7.88358 6.31799 8.32099 6.31799Z" fill="#5B6071"/>
<path d="M12.074 9.922L12.837 10.06C12.8424 10.1054 12.8451 10.1517 12.845 10.198C12.8451 10.2886 12.8347 10.3783 12.8145 10.462C12.7943 10.5457 12.7646 10.6218 12.7272 10.6858C12.6897 10.7499 12.6453 10.8008 12.5964 10.8355C12.5474 10.8701 12.495 10.888 12.442 10.888C12.389 10.888 12.3366 10.8701 12.2876 10.8355C12.2387 10.8008 12.1943 10.7499 12.1568 10.6858C12.1194 10.6218 12.0897 10.5457 12.0695 10.462C12.0493 10.3783 12.0389 10.2886 12.039 10.198C12.0394 10.1029 12.0513 10.0089 12.074 9.922Z" fill="#5B6071" stroke="#5B6071" stroke-width="0.155"/>
<path d="M8.79199 5.897C8.86821 5.897 8.92999 5.82268 8.92999 5.731C8.92999 5.63932 8.86821 5.565 8.79199 5.565C8.71578 5.565 8.65399 5.63932 8.65399 5.731C8.65399 5.82268 8.71578 5.897 8.79199 5.897Z" fill="#5B6071"/>
<path d="M13.227 6.45599C13.6644 6.45599 14.019 6.0526 14.019 5.55499C14.019 5.05738 13.6644 4.65399 13.227 4.65399C12.7896 4.65399 12.435 5.05738 12.435 5.55499C12.435 6.0526 12.7896 6.45599 13.227 6.45599Z" fill="#5B6071"/>
<path d="M13.696 5.978C13.7722 5.978 13.834 5.90368 13.834 5.812C13.834 5.72032 13.7722 5.646 13.696 5.646C13.6198 5.646 13.558 5.72032 13.558 5.812C13.558 5.90368 13.6198 5.978 13.696 5.978Z" fill="#5B6071"/>
<path d="M6.68127 11.9099C6.43306 11.6077 5.87691 11.6544 5.43906 12.0141C5.00121 12.3738 4.84748 12.9103 5.09569 13.2124C5.34389 13.5146 5.90005 13.4679 6.3379 13.1082C6.77574 12.7485 6.92948 12.212 6.68127 11.9099Z" fill="#5B6071"/>
<path d="M12.054 9.91901L11.297 10.054C11.2917 10.0981 11.289 10.143 11.289 10.188C11.2889 10.2763 11.2992 10.3638 11.3193 10.4455C11.3393 10.5271 11.3688 10.6013 11.4059 10.6638C11.4431 10.7263 11.4872 10.7759 11.5358 10.8098C11.5844 10.8436 11.6364 10.861 11.689 10.861C11.7951 10.861 11.8968 10.7902 11.9718 10.6642C12.0469 10.5382 12.089 10.3672 12.089 10.189C12.0886 10.0959 12.0767 10.004 12.054 9.91901Z" fill="#5B6071" stroke="#5B6071" stroke-width="0.153"/>
<path d="M17.3196 11.9797C17.5674 11.678 18.1233 11.725 18.5611 12.0847C18.999 12.4444 19.153 12.9806 18.9051 13.2823C18.6573 13.584 18.1014 13.537 17.6636 13.1773C17.2257 12.8176 17.0717 12.2814 17.3196 11.9797Z" fill="#5B6071"/>
<path d="M14.9163 21.7551C15.062 21.3008 15.732 21.0692 16.4129 21.2379C17.0937 21.4066 17.5275 21.9117 17.3817 22.366C17.236 22.8204 16.5659 23.052 15.8851 22.8833C15.2043 22.7146 14.7705 22.2095 14.9163 21.7551Z" fill="#5B6071"/>
<path d="M9.15518 21.5312C9.26327 21.996 8.80702 22.5386 8.13611 22.7432C7.46521 22.9478 6.83371 22.7369 6.72562 22.2721C6.61753 21.8073 7.07378 21.2647 7.74469 21.0601C8.41559 20.8555 9.04709 21.0665 9.15518 21.5312Z" fill="#5B6071"/>
<path d="M10.99 8.758C10.9117 8.75799 10.8343 8.77346 10.762 8.8035C10.6897 8.83354 10.6241 8.87756 10.5689 8.93303C10.5137 8.98851 10.47 9.05435 10.4404 9.12676C10.4107 9.19917 10.3956 9.27674 10.396 9.355V9.47C10.396 9.801 10.661 10.068 10.99 10.068H11.376C11.4665 9.99385 11.5748 9.93485 11.6945 9.89448C11.8142 9.85412 11.9429 9.83321 12.073 9.833C12.2033 9.83311 12.3321 9.85396 12.452 9.89433C12.5719 9.9347 12.6804 9.99375 12.771 10.068H13.105C13.435 10.068 13.7 9.801 13.7 9.47V9.356C13.7003 9.27769 13.6851 9.2001 13.6553 9.12768C13.6255 9.05526 13.5817 8.98944 13.5264 8.93397C13.4712 8.87851 13.4055 8.8345 13.3332 8.80448C13.2608 8.77445 13.1833 8.75899 13.105 8.759L10.99 8.758Z" fill="#5B6071" stroke="#5B6071" stroke-width="0.1"/>
<path d="M12.016 9.24901C12.6831 9.24901 13.224 8.94456 13.224 8.56901C13.224 8.19345 12.6831 7.88901 12.016 7.88901C11.3488 7.88901 10.808 8.19345 10.808 8.56901C10.808 8.94456 11.3488 9.24901 12.016 9.24901Z" fill="#5B6071" stroke="#5B6071" stroke-width="0.162"/>
</svg>
