<svg width="24" height="25" viewBox="0 0 24 25" fill="none" xmlns="http://www.w3.org/2000/svg">
<path d="M20.0217 6.72911C19.4986 6.2057 18.7925 5.90599 18.0526 5.89319C17.3127 5.88039 16.5967 6.15551 16.0557 6.66051C16.029 6.68572 16.0075 6.71596 15.9926 6.74949C15.9776 6.78302 15.9694 6.81919 15.9684 6.8559C15.9688 6.92975 15.9979 7.00055 16.0495 7.05337L16.4049 7.42129C16.4513 7.46746 16.5127 7.49539 16.578 7.49997C16.6433 7.50455 16.708 7.48547 16.7604 7.44623C17.0423 7.23345 17.3862 7.11883 17.7394 7.11989C18.0635 7.11847 18.3806 7.21345 18.6505 7.39274C18.9205 7.57204 19.131 7.82755 19.2553 8.1268C19.3796 8.42605 19.4122 8.75551 19.3488 9.07329C19.2854 9.39108 19.1289 9.68284 18.8993 9.91147C16.6336 12.1772 13.6092 5.82907 6.74561 9.09457C6.62885 9.14915 6.52466 9.22733 6.4396 9.32417C6.35455 9.42101 6.29047 9.53442 6.25141 9.65725C6.21236 9.78008 6.19917 9.90967 6.21267 10.0379C6.22618 10.166 6.26609 10.29 6.32989 10.402L7.50638 12.437C7.62916 12.6487 7.83021 12.8038 8.06622 12.8687C8.30222 12.9337 8.55429 12.9033 8.7681 12.7841L8.7972 12.7675L8.77434 12.7841L9.29607 12.491C9.87753 12.13 10.4269 11.7197 10.9382 11.2646C10.9906 11.2197 11.0573 11.195 11.1263 11.195C11.1953 11.195 11.262 11.2197 11.3144 11.2646C11.3459 11.2894 11.3715 11.3209 11.3891 11.3569C11.4068 11.3929 11.416 11.4324 11.4163 11.4725C11.417 11.5115 11.4094 11.5502 11.394 11.5861C11.3786 11.6219 11.3557 11.6541 11.3269 11.6804C10.7884 12.1584 10.209 12.5882 9.59539 12.965H9.57876L9.05703 13.256C8.8365 13.3809 8.58715 13.4461 8.33367 13.4451C8.07185 13.4451 7.81457 13.3767 7.5874 13.2465C7.36022 13.1163 7.17106 12.929 7.0387 12.703L5.92664 10.7803C3.78982 12.2894 2.49276 15.1974 3.1891 18.8869C3.20148 18.9486 3.23467 19.0041 3.2831 19.0442C3.33154 19.0843 3.39228 19.1066 3.45516 19.1073H4.72312C4.78902 19.1073 4.85265 19.0832 4.90203 19.0395C4.95142 18.9959 4.98315 18.9357 4.99126 18.8703C5.04776 18.4217 5.26604 18.0092 5.60512 17.7101C5.94421 17.4111 6.38079 17.2461 6.83291 17.2461C7.28504 17.2461 7.72161 17.4111 8.0607 17.7101C8.39979 18.0092 8.61807 18.4217 8.67457 18.8703C8.68315 18.9359 8.7153 18.9961 8.76503 19.0397C8.81475 19.0833 8.87865 19.1073 8.94479 19.1073H10.1795C10.2454 19.1073 10.309 19.0832 10.3584 19.0395C10.4078 18.9959 10.4395 18.9357 10.4476 18.8703C10.506 18.4228 10.7251 18.0119 11.0642 17.7142C11.4032 17.4164 11.8391 17.2522 12.2903 17.2522C12.7416 17.2522 13.1774 17.4164 13.5165 17.7142C13.8555 18.0119 14.0747 18.4228 14.133 18.8703C14.1411 18.9357 14.1729 18.9959 14.2222 19.0395C14.2716 19.0832 14.3352 19.1073 14.4012 19.1073H15.6213C15.6923 19.1073 15.7604 19.0794 15.8109 19.0296C15.8615 18.9798 15.8904 18.9121 15.8915 18.8412C15.9206 17.1222 16.3842 15.1475 17.7061 14.1581C22.2853 10.7325 21.0818 7.79544 20.0217 6.72911ZM15.3511 11.9111L14.4781 11.4725C14.4777 11.3786 14.5015 11.2862 14.547 11.2041C14.5926 11.122 14.6585 11.053 14.7383 11.0037C14.8182 10.9543 14.9094 10.9263 15.0032 10.9222C15.097 10.9182 15.1903 10.9383 15.2741 10.9806C15.3579 11.0229 15.4295 11.086 15.4819 11.1639C15.5344 11.2417 15.566 11.3318 15.5737 11.4253C15.5814 11.5189 15.565 11.6129 15.526 11.6983C15.4871 11.7837 15.4268 11.8577 15.3511 11.9132V11.9111Z" fill="#5B6071"/>
</svg>
