<svg width="24" height="25" viewBox="0 0 24 25" fill="none" xmlns="http://www.w3.org/2000/svg">
<path d="M11.9305 2.3615C6.02655 2.45927 1.80441 7.35184 1.84849 12.3857C1.8482 12.3996 1.84644 12.4131 1.84644 12.427C1.84644 12.4975 1.85035 12.5665 1.85173 12.6365C1.85202 12.6448 1.85173 12.6529 1.85202 12.6611C1.85202 12.6627 1.85251 12.6643 1.85251 12.6658C1.98152 18.7532 6.99635 22.7625 12.0697 22.6371C18.169 22.4676 22.4974 17.1697 22.132 12.4405C22.1252 12.3667 22.1137 12.2933 22.0978 12.2209C21.9315 11.3815 21.1694 10.747 20.2776 10.747H17.6121C16.6021 10.747 15.7832 11.5609 15.7832 12.5647C15.7832 13.5688 16.602 14.3825 17.6121 14.3825H18.2785C17.542 16.7438 15.215 18.9976 11.9828 19.0874C8.74384 19.1673 5.50345 16.5956 5.40941 12.6045C5.40931 12.5855 5.41068 12.5668 5.4099 12.5477C5.28461 9.40026 7.85937 6.08532 12.077 5.90968C13.054 5.86893 13.8132 5.04177 13.7727 4.06198C13.7321 3.08229 12.9071 2.32095 11.9301 2.3617L11.9305 2.3615ZM12.0069 10.7469C11.0043 10.7469 10.1907 11.5618 10.1907 12.5672C10.1907 13.5725 11.0043 14.3877 12.0069 14.3877C13.0095 14.3877 13.8233 13.5726 13.8233 12.5672C13.8233 11.5618 13.0096 10.7469 12.0069 10.7469Z" fill="#5B6071"/>
</svg>
