<svg width="24" height="25" viewBox="0 0 24 25" fill="none" xmlns="http://www.w3.org/2000/svg">
<path d="M12 21.5C16.9706 21.5 21 17.4706 21 12.5C21 7.52944 16.9706 3.5 12 3.5C7.02944 3.5 3 7.52944 3 12.5C3 17.4706 7.02944 21.5 12 21.5ZM12 4.625C12.739 4.625 13.5826 5.28903 14.2745 6.77166C14.5192 7.29596 14.7318 7.8985 14.9032 8.5625H9.09679C9.26819 7.8985 9.48082 7.29596 9.7255 6.77166C10.4174 5.28903 11.261 4.625 12 4.625ZM8.70604 6.29591C8.39509 6.96223 8.13561 7.72658 7.93798 8.5625H5.17853C6.11956 6.93574 7.6258 5.67684 9.42872 5.05434C9.15709 5.42624 8.91556 5.84694 8.70604 6.29591ZM7.71673 9.6875C7.57564 10.5744 7.5 11.5205 7.5 12.5C7.5 13.4795 7.57564 14.4256 7.71673 15.3125H4.64208C4.30801 14.4391 4.125 13.4909 4.125 12.5C4.125 11.5091 4.30801 10.5609 4.64208 9.6875H7.71673ZM7.93798 16.4375C8.13561 17.2734 8.39509 18.0378 8.70604 18.7041C8.91556 19.1531 9.15709 19.5738 9.42872 19.9457C7.6258 19.3232 6.11956 18.0643 5.17853 16.4375H7.93798ZM9.09679 16.4375H14.9032C14.7318 17.1015 14.5192 17.704 14.2745 18.2283C13.5826 19.711 12.739 20.375 12 20.375C11.261 20.375 10.4174 19.711 9.7255 18.2283C9.48082 17.704 9.26819 17.1015 9.09679 16.4375ZM15.1431 15.3125H8.85694C8.70763 14.4409 8.625 13.4937 8.625 12.5C8.625 11.5063 8.70763 10.5591 8.85694 9.6875H15.1431C15.2924 10.5591 15.375 11.5063 15.375 12.5C15.375 13.4937 15.2924 14.4409 15.1431 15.3125ZM16.062 16.4375H18.8215C17.8804 18.0643 16.3742 19.3232 14.5713 19.9457C14.8429 19.5738 15.0844 19.1531 15.294 18.7041C15.6049 18.0378 15.8644 17.2734 16.062 16.4375ZM19.3579 15.3125H16.2833C16.4244 14.4256 16.5 13.4795 16.5 12.5C16.5 11.5205 16.4244 10.5744 16.2833 9.6875H19.3579C19.692 10.5609 19.875 11.5091 19.875 12.5C19.875 13.4909 19.692 14.4391 19.3579 15.3125ZM14.5713 5.05434C16.3742 5.67684 17.8804 6.93574 18.8215 8.5625H16.062C15.8644 7.72658 15.6049 6.96223 15.294 6.29591C15.0844 5.84694 14.8429 5.42624 14.5713 5.05434Z" fill="#5B6071" stroke="#5B6071" stroke-width="0.5"/>
</svg>
