<svg width="24" height="24" viewBox="0 0 24 24" fill="none" xmlns="http://www.w3.org/2000/svg">
<path d="M11.8969 3.90002C14.7281 3.90002 17.1563 5.6344 18.1875 8.10002C20.925 8.69065 22.9781 11.1188 22.9781 14.0344C22.9781 17.3813 20.2594 20.1 16.9125 20.1H11.1563C10.9313 20.1 10.725 20.1 10.5 20.1C10.3031 20.1 10.125 20.1 9.92813 20.1H5.69063C3.1125 20.1 1.03125 18.0094 1.03125 15.4406C1.03125 13.0688 2.79375 11.1188 5.08125 10.8188V10.7438C5.08125 6.96565 8.1375 3.90002 11.8969 3.90002ZM12.1406 8.49377C11.8125 8.49377 11.55 8.75627 11.55 9.09377V17.2219C11.55 17.55 11.8125 17.8219 12.1406 17.8219C12.4688 17.8219 12.7313 17.5594 12.7313 17.2219V9.09377C12.7313 8.76565 12.4688 8.49377 12.1406 8.49377ZM8.29688 10.9031C8.27813 11.8781 8.14688 12.8719 7.95 13.7531C7.86563 14.1188 7.78125 14.4469 7.6875 14.7C7.65 14.8125 7.6125 14.9063 7.58438 14.9813C7.575 15.0094 7.55625 15.0375 7.54688 15.0469C7.34063 15.3 7.3875 15.675 7.64063 15.8813C7.89375 16.0875 8.26875 16.05 8.475 15.7875C8.925 15.225 9.44063 12.9375 9.47813 10.9219C9.4875 10.5938 9.225 10.3219 8.89688 10.3125C8.56875 10.3031 8.30625 10.575 8.29688 10.9031ZM15.3563 10.3125H15.3469C15.0188 10.3219 14.7563 10.5938 14.7656 10.9219C14.8031 12.9375 15.3188 15.225 15.7688 15.7875C15.975 16.0406 16.35 16.0875 16.6031 15.8813C16.8563 15.675 16.8938 15.3 16.6969 15.0469C16.6875 15.0281 16.6781 15.0094 16.6594 14.9813C16.6313 14.9156 16.5938 14.8125 16.5563 14.7C16.4719 14.4469 16.3781 14.1188 16.2938 13.7531C16.0969 12.8719 15.9656 11.8781 15.9469 10.9031C15.9375 10.575 15.6656 10.3125 15.3375 10.3219L15.3563 10.3125Z" fill="#5B6071"/>
</svg>
