<svg width="24" height="25" viewBox="0 0 24 25" fill="none" xmlns="http://www.w3.org/2000/svg">
<path fill-rule="evenodd" clip-rule="evenodd" d="M12 4.89999C7.80263 4.89999 4.39999 8.30263 4.39999 12.5C4.39999 16.6974 7.80263 20.1 12 20.1C16.1974 20.1 19.6 16.6974 19.6 12.5C19.6 12.2815 19.5908 12.0652 19.5728 11.8515L19.5728 11.8515C19.5638 11.7458 19.5528 11.6407 19.5396 11.5363C19.4884 11.1308 19.4052 10.7355 19.2928 10.353L19.3134 10.3519C19.4164 10.3458 19.518 10.3343 19.6178 10.3176C20.3628 10.1929 21.0102 9.77989 21.4413 9.19712C21.5317 9.45538 21.6117 9.71842 21.681 9.98574C21.8893 10.7898 22 11.6325 22 12.5C22 18.0228 17.5228 22.5 12 22.5C6.47715 22.5 2 18.0228 2 12.5C2 6.97715 6.47715 2.5 12 2.5C14.2284 2.5 16.2876 3.22986 17.9498 4.46198C18.1442 4.40537 18.3498 4.37501 18.5625 4.37501C19.7706 4.37501 20.75 5.35439 20.75 6.56251C20.75 7.77064 19.7706 8.75001 18.5625 8.75001C17.3544 8.75001 16.375 7.77064 16.375 6.56251C16.375 6.47228 16.3805 6.38333 16.3911 6.29597C15.1507 5.41615 13.6362 4.89999 12 4.89999ZM12 16.875C14.4106 16.875 16.375 14.9143 16.375 12.5C16.375 10.0894 14.4143 8.12502 12 8.12502C9.58571 8.12502 7.62502 10.0894 7.62502 12.5C7.62502 14.9106 9.58943 16.875 12 16.875Z" fill="#5B6071"/>
</svg>
