<svg width="24" height="24" viewBox="0 0 24 24" fill="none" xmlns="http://www.w3.org/2000/svg">
<path d="M17.778 7.74701V9.74701H19.778V19.747H9.77795V17.747H7.77795V21.747H21.778V7.74701H17.778Z" fill="#5B6071"/>
<path d="M6.15778 6.99994H7.82965V12.5781C7.82965 13.0937 7.71377 13.5416 7.48199 13.9218C7.25283 14.302 6.93382 14.595 6.52496 14.8007C6.11611 15.0064 5.64085 15.1093 5.09918 15.1093C4.61741 15.1093 4.17991 15.0247 3.78668 14.8554C3.39606 14.6835 3.08616 14.4231 2.85699 14.0742C2.62783 13.7226 2.51455 13.2812 2.51715 12.7499H4.20074C4.20595 12.9609 4.24892 13.1419 4.32965 13.2929C4.41298 13.4413 4.52627 13.5559 4.66949 13.6367C4.81533 13.7148 4.9872 13.7538 5.18512 13.7538C5.39345 13.7538 5.56923 13.7096 5.71246 13.621C5.8583 13.5299 5.96897 13.3971 6.04449 13.2226C6.12002 13.0481 6.15778 12.8333 6.15778 12.5781V6.99994ZM13.5679 9.30072C13.5367 8.98562 13.4026 8.74082 13.1656 8.56634C12.9286 8.39187 12.607 8.30463 12.2007 8.30463C11.9247 8.30463 11.6916 8.34369 11.5015 8.42181C11.3114 8.49733 11.1656 8.6028 11.064 8.73822C10.9651 8.87364 10.9156 9.02728 10.9156 9.19916C10.9104 9.34239 10.9403 9.46739 11.0054 9.57416C11.0731 9.68093 11.1656 9.77338 11.2828 9.8515C11.4 9.92702 11.5354 9.99343 11.689 10.0507C11.8427 10.1054 12.0067 10.1523 12.1812 10.1913L12.9 10.3632C13.2489 10.4413 13.5692 10.5455 13.8609 10.6757C14.1526 10.8059 14.4052 10.9661 14.6187 11.1562C14.8323 11.3463 14.9976 11.5703 15.1148 11.8281C15.2346 12.0859 15.2958 12.3814 15.2984 12.7148C15.2958 13.2044 15.1708 13.6288 14.9234 13.9882C14.6786 14.345 14.3244 14.6223 13.8609 14.8203C13.4 15.0156 12.844 15.1132 12.1929 15.1132C11.5471 15.1132 10.9846 15.0143 10.5054 14.8163C10.0289 14.6184 9.65647 14.3255 9.38824 13.9374C9.12262 13.5468 8.9833 13.0637 8.97028 12.4882H10.607C10.6252 12.7564 10.702 12.9804 10.8375 13.1601C10.9755 13.3372 11.1591 13.4713 11.3882 13.5624C11.62 13.651 11.8817 13.6953 12.1734 13.6953C12.4599 13.6953 12.7086 13.6536 12.9195 13.5703C13.133 13.4869 13.2984 13.371 13.4156 13.2226C13.5328 13.0742 13.5914 12.9036 13.5914 12.7109C13.5914 12.5312 13.538 12.3801 13.4312 12.2578C13.327 12.1354 13.1734 12.0312 12.9703 11.9453C12.7698 11.8593 12.5237 11.7812 12.232 11.7109L11.3609 11.4921C10.6864 11.3281 10.1539 11.0716 9.76324 10.7226C9.37262 10.3736 9.17861 9.90358 9.18121 9.31244C9.17861 8.82806 9.30752 8.40489 9.56793 8.04291C9.83095 7.68093 10.1916 7.39838 10.65 7.19525C11.1083 6.99213 11.6291 6.89056 12.2125 6.89056C12.8062 6.89056 13.3244 6.99213 13.7672 7.19525C14.2125 7.39838 14.5588 7.68093 14.8062 8.04291C15.0536 8.40489 15.1812 8.82416 15.189 9.30072H13.5679Z" fill="#5B6071"/>
</svg>
