<svg width="24" height="24" viewBox="0 0 24 24" fill="none" xmlns="http://www.w3.org/2000/svg">
<path d="M15.9694 13.5604C16.2655 14.6244 15.6499 15.7305 14.6137 15.9966L14.0642 16.1376C14.0219 16.4184 14 16.7065 14 17C14 17.3072 14.024 17.6083 14.0702 17.9012L14.5776 18.028C15.6241 18.2896 16.2462 19.407 15.9415 20.4781L15.7663 21.0942C16.1794 21.4706 16.6501 21.7762 17.1624 21.9936L17.6264 21.4873C18.3681 20.6781 19.6119 20.6783 20.3535 21.4878L20.8226 22C21.3338 21.785 21.8041 21.4823 22.2174 21.1091L22.0311 20.4397C21.735 19.3756 22.3506 18.2695 23.3868 18.0035L23.9358 17.8625C23.9781 17.5817 24 17.2936 24 17C24 16.6929 23.976 16.3917 23.9298 16.0987L23.4228 15.972C22.3763 15.7105 21.7543 14.5931 22.059 13.5219L22.234 12.9063C21.821 12.5297 21.3502 12.2241 20.8379 12.0066L20.3741 12.5127C19.6324 13.322 18.3885 13.3217 17.647 12.5122L17.1778 12C16.6666 12.2149 16.1962 12.5175 15.783 12.8907L15.9694 13.5604ZM19 18.464C18.2469 18.464 17.6364 17.8085 17.6364 17C17.6364 16.1916 18.2469 15.5361 19 15.5361C19.7531 15.5361 20.3636 16.1916 20.3636 17C20.3636 17.8085 19.7531 18.464 19 18.464Z" fill="#5B6071"/>
<path fill-rule="evenodd" clip-rule="evenodd" d="M9.31025 6.31834H7.18241V13.4178C7.18241 13.7426 7.13435 14.016 7.03823 14.2381C6.94211 14.4602 6.80125 14.6292 6.61565 14.7452C6.43335 14.8579 6.20963 14.9142 5.94448 14.9142C5.69259 14.9142 5.47384 14.8645 5.28823 14.7651C5.10594 14.6623 4.96176 14.5165 4.8557 14.3276C4.75296 14.1353 4.69827 13.905 4.69164 13.6365H2.54888C2.54557 14.3127 2.68975 14.8745 2.98141 15.3219C3.27308 15.766 3.66749 16.0975 4.16465 16.3162C4.66512 16.5316 5.22194 16.6394 5.83511 16.6394C6.5245 16.6394 7.12938 16.5084 7.64974 16.2466C8.1701 15.9848 8.57611 15.6119 8.86778 15.128C9.16276 14.6441 9.31025 14.074 9.31025 13.4178V6.31834ZM18.2349 9.24661H18.6767C18.6668 8.64008 18.5044 8.10646 18.1895 7.64576C17.8746 7.18506 17.4338 6.82545 16.8671 6.56692C16.3036 6.3084 15.6441 6.17914 14.8884 6.17914C14.1459 6.17914 13.4831 6.3084 12.8997 6.56692C12.3164 6.82545 11.8574 7.18506 11.5226 7.64576C11.1912 8.10646 11.0271 8.64505 11.0304 9.26152C11.0271 10.0139 11.274 10.6121 11.7712 11.0563C12.2535 11.4871 12.9058 11.8073 13.7281 12.0166C13.7283 11.4164 13.9798 10.8329 14.4384 10.4187C14.4796 10.3816 14.5211 10.3449 14.5631 10.3087C14.4453 10.276 14.3317 10.2401 14.2222 10.2012C14.0266 10.1282 13.8543 10.0437 13.7051 9.9476C13.556 9.84817 13.4383 9.73051 13.3522 9.59462C13.2693 9.45873 13.2312 9.29964 13.2378 9.11735C13.2378 8.8986 13.3008 8.70305 13.4267 8.5307C13.556 8.35835 13.7416 8.22412 13.9835 8.128C14.2255 8.02857 14.5221 7.97885 14.8735 7.97885C15.3905 7.97885 15.7998 8.08989 16.1014 8.31195C16.3647 8.50575 16.5282 8.76772 16.592 9.09785C17.1439 8.92528 17.7351 8.9844 18.2349 9.24661ZM12.0011 15.8703C12.0069 15.5229 12.0356 15.18 12.0862 14.8437C12.1682 14.2986 12.4529 13.8185 12.8655 13.4863C12.8561 13.4272 12.8493 13.3663 12.845 13.3034H10.762C10.7785 14.0359 10.9558 14.6507 11.2939 15.1479C11.4872 15.4274 11.7229 15.6682 12.0011 15.8703Z" fill="#5B6071"/>
</svg>
