<svg width="24" height="25" viewBox="0 0 24 25" fill="none" xmlns="http://www.w3.org/2000/svg">
<path d="M9.8808 16.6769C9.8808 18.4721 8.4967 19.8539 6.8779 19.8539C5.2591 19.8539 3.875 18.4721 3.875 16.6769C3.875 14.8818 5.2591 13.5 6.8779 13.5C8.4967 13.5 9.8808 14.8818 9.8808 16.6769Z" stroke="#5B6071" stroke-width="2"/>
<path d="M14.5029 8.32306C14.5029 10.1182 13.1188 11.5 11.5 11.5C9.8812 11.5 8.4971 10.1182 8.4971 8.32306C8.4971 6.52792 9.8812 5.14612 11.5 5.14612C13.1188 5.14612 14.5029 6.52792 14.5029 8.32306Z" stroke="#5B6071" stroke-width="2"/>
<path d="M19.125 16.6769C19.125 18.4721 17.7409 19.8539 16.1221 19.8539C14.5033 19.8539 13.1192 18.4721 13.1192 16.6769C13.1192 14.8818 14.5033 13.5 16.1221 13.5C17.7409 13.5 19.125 14.8818 19.125 16.6769Z" stroke="#5B6071" stroke-width="2"/>
</svg>
