<svg width="24" height="25" viewBox="0 0 24 25" fill="none" xmlns="http://www.w3.org/2000/svg">
<path d="M21.134 7.3408C21.134 7.332 21.1252 7.3231 21.1252 7.3143C21.1163 7.2966 21.1163 7.2789 21.1075 7.27C21.0986 7.2612 21.0898 7.2523 21.0898 7.2435C21.0809 7.2346 21.0721 7.2169 21.0632 7.2081L21.0367 7.1816C21.0278 7.1727 21.019 7.1639 21.0013 7.155L17.4538 5.1114C17.4096 5.08533 17.3591 5.07157 17.3078 5.07157C17.2564 5.07157 17.206 5.08533 17.1618 5.1114L13.6145 7.155C13.6056 7.1639 13.5968 7.1727 13.5791 7.1816L13.5525 7.2081C13.5437 7.2169 13.5348 7.2346 13.526 7.2435C13.5171 7.2523 13.5083 7.2612 13.5083 7.27C13.4994 7.2877 13.4906 7.2966 13.4906 7.3143C13.4906 7.3231 13.4818 7.332 13.4818 7.3408C13.4729 7.3673 13.4729 7.3938 13.4729 7.4204V11.2952L10.5182 12.9938V5.4033C10.5182 5.3768 10.5182 5.3503 10.5094 5.3237C10.5094 5.3149 10.5005 5.306 10.5005 5.2972C10.4917 5.2795 10.4917 5.2618 10.4828 5.2529C10.474 5.2441 10.4651 5.2352 10.4651 5.2264C10.4563 5.2175 10.4474 5.1998 10.4386 5.191L10.412 5.1645C10.4032 5.1556 10.3944 5.1468 10.3767 5.1379L6.82029 3.112C6.77606 3.08593 6.72564 3.07217 6.67429 3.07217C6.62294 3.07217 6.57253 3.08593 6.52829 3.112L2.98079 5.1556C2.97199 5.1645 2.96309 5.1733 2.94539 5.1822L2.91889 5.2087C2.90999 5.2175 2.90119 5.2352 2.89229 5.2441C2.88349 5.2529 2.87469 5.2618 2.87469 5.2706C2.86579 5.2883 2.85699 5.2972 2.85699 5.3149C2.85699 5.3237 2.84809 5.3326 2.84809 5.3414C2.83929 5.3679 2.83929 5.3944 2.83929 5.421V17.558C2.83929 17.6642 2.89229 17.7615 2.98969 17.8146L10.0759 21.8929C10.0936 21.9017 10.1113 21.9106 10.1201 21.9106C10.1289 21.9106 10.1378 21.9194 10.1466 21.9194C10.1732 21.9283 10.1997 21.9283 10.2263 21.9283C10.2529 21.9283 10.2793 21.9283 10.3059 21.9194C10.3147 21.9194 10.3147 21.9106 10.3236 21.9106C10.3413 21.9017 10.359 21.9017 10.3766 21.8929L17.4629 17.8146C17.5513 17.7615 17.6133 17.6642 17.6133 17.558V13.6832L21.0103 11.7282C21.0988 11.675 21.1608 11.5777 21.1608 11.4716V7.411C21.1431 7.3844 21.1342 7.3579 21.1342 7.3402L21.134 7.3408ZM10.209 17.205L7.26309 15.533L10.3594 13.746L13.7565 11.7909L16.7112 13.4894L14.5438 14.7279L10.209 17.205ZM17.0032 9.6234V12.9852L15.7647 12.2686L14.0485 11.2778V7.91601L15.287 8.6326L17.0032 9.6234ZM17.304 5.7132L20.2587 7.4117L17.304 9.1102L14.3493 7.4117L17.304 5.7132ZM8.20079 14.321L6.96229 15.0376V7.6152L8.67849 6.6243L9.91699 5.9078V13.3213L8.20079 14.321ZM6.67029 3.705L9.62499 5.4035L6.67029 7.1109L3.71559 5.4124L6.67029 3.705ZM3.41479 5.9167L4.65329 6.6333L6.36949 7.6241V15.5507C6.36949 15.5596 6.36949 15.5773 6.37829 15.5861C6.37829 15.6038 6.37829 15.6126 6.38719 15.6303C6.38719 15.6392 6.39599 15.6569 6.40489 15.6657C6.41369 15.6746 6.41369 15.6923 6.42259 15.7011L6.44909 15.7277C6.45789 15.7365 6.46679 15.7453 6.47559 15.763C6.48449 15.7719 6.49329 15.7807 6.50219 15.7807C6.51099 15.7896 6.51989 15.7984 6.53759 15.8073L9.91699 17.7182V21.1152L3.41469 17.3731L3.41479 5.9167ZM17.0038 17.3737L10.5015 21.1159V17.7188L15.3141 14.9675L17.0038 14.0032V17.3737ZM20.5513 11.2872L17.5966 12.9858V9.624L19.3128 8.6332L20.5513 7.9166V11.2872Z" fill="#5B6071" stroke="#5B6071" stroke-width="0.4802"/>
</svg>
