<svg width="24" height="24" viewBox="0 0 24 24" fill="none" xmlns="http://www.w3.org/2000/svg">
<path fill-rule="evenodd" clip-rule="evenodd" d="M11.9979 1.525L11.9217 1.55L11.4417 2.344L10.968 3.107L9.69704 5.196H9.6793L5.65565 3.5L5.5513 3.453H5.53252V3.545L5.55861 3.708V3.794L5.69635 5.021V5.103L5.72974 5.355V5.437L5.9593 7.574V7.649L5.97809 7.731V7.791L3.52696 8.297L3.48522 8.312L3.00939 8.412L2.9833 8.422H2.93843L1.79582 8.667L1.75409 8.674L1.57669 8.709V8.791L1.59548 8.801L3.5353 10.887L3.58956 10.94L3.70956 11.072L4.54852 11.98V11.986L4.49322 12.036L4.26365 12.292L1.58817 15.168L1.57774 15.175V15.257L1.65182 15.263L1.95965 15.337L3.73043 15.704V15.71L5.96348 16.181H5.97809V16.228L5.94156 16.48V16.56L5.89252 16.972V17.054L5.856 17.299V17.381L5.808 17.793V17.873L5.75582 18.282V18.362L5.71826 18.607V18.689L5.67026 19.101V19.183L5.61809 19.59V19.672L5.58469 19.92V20.002L5.53252 20.409V20.513H5.57113L9.37148 18.913L9.67826 18.778H9.69704L9.88174 19.09L10.4442 20.002L10.4598 20.034L11.351 21.499L11.5179 21.761L11.9395 22.455L11.9468 22.477H12.0428L12.048 22.455L12.0657 22.43L12.6501 21.484L12.6657 21.441L13.2908 20.409L13.6205 19.869L14.2936 18.779L14.3457 18.791L18.4205 20.513H18.457V20.428L18.313 19.108V19.026L18.2797 18.781V18.7L18.2431 18.456V18.371L18.2087 18.126V18.046L18.1753 17.801V17.719L18.1419 17.474V17.389L18.1054 17.145V17.063L18.072 16.818V16.736L18.0376 16.491V16.406L18.0115 16.236V16.184L19.7144 15.829L19.7593 15.822L20.2372 15.715H20.2664V15.705L20.5064 15.655L20.5377 15.645H20.5816L20.9802 15.555L21.0063 15.545H21.0511L21.2536 15.495H21.288L22.3471 15.265L22.4202 15.258V15.193L22.4045 15.18L21.1628 13.838L21.1336 13.811L20.928 13.591L19.4379 11.987V11.981L19.7457 11.657L20.1631 11.2L22.4045 8.792L22.4202 8.782V8.717L22.3837 8.71L21.0397 8.43L20.6515 8.345L20.6024 8.335L18.0136 7.791V7.746L18.4643 3.482V3.462H18.4205L18.1054 3.596L18.095 3.611H18.0689L14.6191 5.06L14.3092 5.195H14.2936L12.1774 1.712L12.0741 1.567L12.0595 1.522L11.9979 1.525ZM11.9958 2.638L13.4212 4.962L13.776 5.553L13.7677 5.578L12.5363 7.09L11.9958 7.75L11.9843 7.739L11.7151 7.405L11.6734 7.355L10.2157 5.568L10.247 5.505L11.6849 3.139L11.9843 2.649L11.9958 2.638ZM17.1193 4.678L17.111 4.702L16.9346 4.928L16.3743 4.994L17.1193 4.678ZM6.87443 4.682L6.92869 4.702L7.63513 5.001H7.11652L6.88278 4.702L6.87443 4.682ZM17.6692 5L17.5409 6.248L17.423 5.321L17.6577 5.013L17.6692 5ZM8.00661 5.157L8.06191 5.18L8.79756 5.49L8.00661 5.315V5.157ZM15.7148 5.272L15.7357 5.441L14.3614 5.844L14.3635 5.841L14.5304 5.769L15.5896 5.325L15.7148 5.272ZM10.0748 6.39L11.0598 7.594V7.604L9.88069 7.201L10.0748 6.39ZM13.7791 6.561L13.9972 7.244L13.7541 7.327L13.6602 7.349L12.9297 7.604L12.936 7.582L13.7468 6.601L13.7791 6.561ZM8.56174 7.397L9.59061 7.753L10.5277 8.065L10.5777 8.086L11.6765 8.458L11.689 11.544L11.3113 11.427L10.6122 11.203L10.5277 11.165L9.75965 10.92L8.95722 10.664L8.65356 10.564L8.64313 10.31L8.60869 9.114L8.59826 8.827L8.58365 7.934L8.56904 7.636L8.56174 7.397ZM15.431 7.397L15.4184 7.625L15.3892 8.525L15.3819 8.827L15.3485 10.302L15.3381 10.564L14.9864 10.682L14.2205 10.926L13.417 11.183L12.673 11.427L12.3037 11.544L12.3141 8.458L14.017 7.881L15.431 7.397ZM16.0403 7.834L16.1343 8.569L16.9586 8.473L16.0038 9.775L15.9861 9.781L15.9965 9.598L16.0153 8.72L16.0403 7.834ZM6.17843 8.37L6.33704 8.59L7.848 10.64L5.12661 11.607L5.07443 11.622L3.01774 9.41L2.72556 9.098L2.72869 9.088L2.84765 9.07L3.29113 8.97L3.43722 8.948L3.78782 8.871L3.83165 8.861L6.17843 8.37ZM17.809 8.373L21.2358 9.086L21.2671 9.096L21.2431 9.122L19.2042 11.313L18.9162 11.625L18.8191 11.59L16.1447 10.64L16.6393 9.958L16.799 9.743L17.809 8.373ZM7.06643 8.523H7.96487L8.00139 9.781L7.98782 9.775L7.19165 8.697L7.06643 8.523ZM8.48348 11.147L8.64209 11.207L9.44556 11.459L10.1896 11.704L10.967 11.952L11.4783 12.119L11.4104 12.211L9.61252 14.544L8.55339 14.243L8.46782 14.225L8.4313 14.21L6.44765 13.65L7.42539 12.43L8.45009 11.153L8.48348 11.147ZM15.5061 11.147L15.5405 11.153L17.4052 13.481L17.543 13.651L17.4104 13.686L17.376 13.701L15.0856 14.342L14.975 14.375L14.3864 14.545L14.3687 14.542L13.2689 13.102L13.0873 12.862L12.5176 12.136L12.5092 12.119L12.9997 11.959L13.801 11.704L14.5461 11.46L15.3485 11.208L15.5061 11.147ZM7.40348 11.452L7.39513 11.472L6.97356 11.996L6.66991 11.704L7.35548 11.459L7.40348 11.452ZM16.5882 11.452L16.632 11.46L17.2362 11.672L17.9802 11.942L17.2915 12.336L16.9002 11.856L16.8689 11.814L16.5955 11.473L16.5882 11.452ZM5.27374 12.202L4.57461 12.87L4.94504 12.473L5.16 12.243L5.27374 12.202ZM18.745 12.218L18.816 12.243L18.863 12.286L19.441 12.913L19.4859 12.955L19.6977 13.184L19.4317 13.318L18.745 12.218ZM11.9906 12.483L12.0136 12.498L13.4536 14.37L13.487 14.42L13.8449 14.886L13.8532 14.916L13.7614 15.034L13.321 15.662L13.272 15.737L13.0163 16.08L12.0042 17.51L11.9906 17.517L10.7593 15.797L10.6602 15.637L10.1447 14.928L10.1374 14.892L11.8247 12.7L11.832 12.69L11.9906 12.483ZM20.1579 13.677L20.7485 14.31L20.8143 14.392L20.5294 14.3L20.4918 14.287L20.1579 13.677ZM3.68661 13.825L3.99756 14.124L3.33287 14.342L3.17322 14.392L3.21287 14.335L3.68661 13.825ZM17.4866 14.295L16.5944 14.744L16.9555 15.403L16.7624 15.346L16.4807 15.258L15.3412 14.909L15.3537 14.899L17.4866 14.295ZM7.37843 14.55L8.65356 14.906L8.6473 14.914L8.16939 15.059L7.70713 15.193L7.67374 15.203L7.16243 15.36L7.37843 14.55ZM4.49322 14.599L4.82504 14.918L6.9193 15.435L6.32765 15.615L6.27026 15.62L4.07582 15.15L3.29948 14.994L3.30678 14.988L4.49322 14.599ZM20.1099 14.804L20.6817 14.991V14.994L20.2049 15.094L20.16 15.108L19.0435 15.338L20.1099 14.804ZM9.43304 15.31L9.44035 15.537L9.45078 15.884L9.47687 17.246L9.50296 17.937L9.49565 18.192L9.24522 18.299L6.25774 19.555L6.29217 19.183L6.32556 18.928L6.3433 18.701L6.37565 18.444L6.41426 18.037L6.46122 17.618L6.48 17.388L6.51339 17.136L6.54678 16.725L6.59896 16.31L6.61252 16.17L8.13078 15.714L8.13391 15.699L8.44904 15.601L9.43304 15.31ZM14.5555 15.31L15.8546 15.7V15.714L16.1802 15.814L17.375 16.175L17.3979 16.405L17.4303 16.66L17.4751 17.069L17.5169 17.488L17.5346 17.718L17.568 17.97L17.6014 18.381L17.6463 18.706L17.7266 19.555L17.6463 19.515L14.4897 18.192L14.4845 17.888L14.5471 15.519L14.5555 15.31ZM10.0737 15.926L10.0883 15.934L10.1593 16.041L10.7843 16.915L10.1176 17.447L10.081 16.008L10.0737 15.926ZM13.9033 15.926H13.9117L13.9064 15.986L13.8856 16.664L13.8814 16.878L13.3805 16.656L13.9033 15.926ZM10.8897 19.531L11.6859 20.447L11.687 20.817L11.6692 20.81L11.6431 20.76L11.159 19.97L11.1464 19.952L10.8897 19.531ZM12.4863 20.141L12.6783 20.224L12.3203 20.81L12.3016 20.817L12.3037 20.286L12.4863 20.141Z" fill="#5B6071" stroke="#5B6071" stroke-width="0.775" stroke-linejoin="round"/>
</svg>
