<svg width="24" height="24" viewBox="0 0 24 24" fill="none" xmlns="http://www.w3.org/2000/svg">
<path fill-rule="evenodd" clip-rule="evenodd" d="M6.975 10.9993L1.74567 12.9212L5.78967 15.7819L9.01473 12.5884L6.97483 10.9993L6.975 10.9993Z" fill="#5B6071"/>
<path fill-rule="evenodd" clip-rule="evenodd" d="M16.0063 2.38153C15.5689 2.441 15.6875 2.4153 15.0597 2.9179C14.4594 3.39847 12.7288 6.2629 11.8039 7.22657C10.9809 8.08393 10.6552 7.6332 9.80047 8.3486C8.94447 9.06506 7.6247 10.4974 7.6247 10.4974L9.7573 12.0747L13.1383 7.42537C13.9366 6.32763 13.9281 6.18317 14.3631 5.03133C14.5759 4.4678 14.9551 4.0347 15.2883 3.5044C15.7045 2.84193 16.2945 2.34257 16.0064 2.38173L16.0063 2.38153Z" fill="#5B6071"/>
<path fill-rule="evenodd" clip-rule="evenodd" d="M15.9403 2.32654C14.8981 2.32028 13.8714 6.90154 12.0883 10.4162C10.2702 14.0002 6.68034 16.3102 6.68034 16.3102C7.28557 16.585 7.8364 16.4739 8.4882 17.09C8.93404 17.6288 10.2246 20.2892 10.994 21.9607C10.994 21.9607 11.6262 21.6175 12.4271 21.0376C13.2281 20.4576 14.1979 19.641 14.8733 18.6942C15.7694 17.4378 16.4698 16.6595 17.0634 16.1852C17.6569 15.7109 18.1435 15.5406 18.612 15.5005C20.2866 15.357 22.7647 18.3602 22.7647 18.3602C22.7647 18.3602 17.5757 2.33658 15.94 2.32658L15.9403 2.32654Z" fill="#5B6071"/>
</svg>
