<svg width="24" height="24" viewBox="0 0 24 24" fill="none" xmlns="http://www.w3.org/2000/svg">
<path d="M4.79479 4.26436C4.87701 3.78418 5.29328 3.43314 5.78044 3.43314H7.37798C7.80997 3.43314 8.19313 3.71054 8.328 4.12094L12.0292 15.3836L15.7863 4.11679C15.9224 3.70851 16.3045 3.43314 16.7349 3.43314H18.2862C18.7748 3.43314 19.1919 3.78627 19.2725 4.26823L21.8027 19.4015C21.9046 20.0112 21.4345 20.5664 20.8164 20.5664H19.7243C19.2362 20.5664 18.8194 20.2141 18.7382 19.7328L17.0538 9.74652L13.6667 19.8834C13.5304 20.2914 13.1484 20.5664 12.7182 20.5664H11.3085C10.8769 20.5664 10.494 20.2896 10.3588 19.8797L7.01627 9.74652L5.29928 19.7358C5.2168 20.2157 4.80066 20.5664 4.31374 20.5664H3.18907C2.56933 20.5664 2.09882 20.0085 2.20342 19.3977L4.79479 4.26436Z" fill="#5B6071"/>
</svg>
