<svg width="24" height="24" viewBox="0 0 24 24" fill="none" xmlns="http://www.w3.org/2000/svg">
<path fill-rule="evenodd" clip-rule="evenodd" d="M12 1.75809C11.7337 2.77443 9.45994 3.42365 9.30262 4.71234L9.04593 3.94171C7.70719 5.64674 7.82559 6.51056 7.82559 6.51056L7.71309 5.89246C6.73603 7.52615 6.94294 8.32649 7.05572 8.57052L7.10306 8.65415C7.10306 8.65415 7.08197 8.62724 7.05572 8.57052L6.79809 8.11621C5.78334 10.9232 6.66956 11.7849 6.66956 11.7849L6.12375 11.1508C5.88253 13.3014 6.50906 14.1853 6.50906 14.1853L6.11569 13.8159C6.06562 15.2767 7.0229 16.144 7.0229 16.144L6.39197 15.7114C7.60612 21.0157 10.0169 21.1586 10.3278 21.1546L9.36684 21.1856C10.0077 21.8717 10.8258 22.1377 11.3791 22.2419C11.6808 20.6419 11.9581 16.7674 12 6.61471C12.0419 16.7669 12.3194 20.6416 12.6211 22.2419C13.1745 22.1376 13.9926 21.8715 14.6333 21.1856L13.6726 21.1547C13.9838 21.1586 16.3942 21.0152 17.6082 15.7114L16.9773 16.1441C16.9773 16.1441 17.9346 15.2769 17.8845 13.816L17.4911 14.1854C17.4911 14.1854 18.1177 13.3016 17.8764 11.1509L17.3306 11.785C17.3306 11.785 18.2168 10.9233 17.2021 8.11631L16.9447 8.57006C16.9183 8.62715 16.897 8.65396 16.897 8.65396L16.9447 8.57006C17.0575 8.32546 17.2637 7.52531 16.287 5.89256L16.1746 6.51065C16.1746 6.51065 16.2931 5.64674 14.9542 3.94171L14.6974 4.71243C14.5402 3.42384 12.2664 2.77462 12.0001 1.75837L12 1.75809Z" fill="#5B6071"/>
</svg>
