<svg width="24" height="24" viewBox="0 0 24 24" fill="none" xmlns="http://www.w3.org/2000/svg">
<path d="M17.5579 4.56511C17.7462 4.57042 17.8234 4.80917 17.674 4.92374L15.591 6.521L16.3395 9.03817C16.3933 9.21898 16.1899 9.36688 16.0345 9.25993L13.871 7.771L11.7075 9.25993C11.5521 9.36688 11.3486 9.21898 11.4024 9.03817L12.151 6.521L10.068 4.92374C9.91854 4.80917 9.9958 4.57042 10.184 4.56511L12.811 4.491L13.6824 2.0247C13.7452 1.84687 13.9967 1.84687 14.0596 2.0247L14.931 4.491L17.5579 4.56511ZM21.0517 11.4772C21.2406 11.4818 21.3184 11.7216 21.1681 11.8362L19.981 12.741L20.4091 14.1778C20.463 14.3586 20.2595 14.5066 20.104 14.3996L18.871 13.551L17.6379 14.3996C17.4825 14.5066 17.279 14.3586 17.3328 14.1778L17.761 12.741L16.5739 11.8362C16.4236 11.7216 16.5013 11.4818 16.6903 11.4772L18.181 11.441L18.6824 10.0238C18.7453 9.84613 18.9966 9.84613 19.0595 10.0238L19.561 11.441L21.0517 11.4772ZM19.341 16.441C20.171 16.361 21.061 17.541 20.531 18.291C20.211 18.741 19.871 19.161 19.451 19.561C15.541 23.491 9.21098 23.491 5.31098 19.561C1.40098 15.661 1.40098 9.321 5.31098 5.421C5.71098 5.021 6.13098 4.661 6.58098 4.341C7.33098 3.811 8.51098 4.701 8.43098 5.531C8.16098 8.391 9.12098 11.361 11.321 13.551C12.3606 14.5962 13.6193 15.3976 15.0062 15.8974C16.3931 16.3972 17.8736 16.5828 19.341 16.441ZM17.701 18.461C14.7653 18.2922 11.992 17.0585 9.90098 14.991C7.73098 12.801 6.57098 9.991 6.41098 7.171C3.60098 10.311 3.71098 15.131 6.72098 18.151C9.74098 21.161 14.561 21.271 17.701 18.461Z" fill="#5B6071"/>
</svg>
