<svg width="24" height="24" viewBox="0 0 24 24" fill="none" xmlns="http://www.w3.org/2000/svg">
<path d="M11.999 1.48102C10.6168 1.47785 9.24764 1.74774 7.97005 2.27519C6.69246 2.80263 5.53164 3.57724 4.55425 4.55455C3.57685 5.53185 2.80213 6.6926 2.27456 7.97013C1.74699 9.24767 1.47697 10.6168 1.48001 11.999C1.48001 17.827 6.17001 22.519 11.998 22.519C17.825 22.519 22.518 17.826 22.518 11.999C22.5209 10.6168 22.2508 9.2476 21.7231 7.97006C21.1954 6.69252 20.4206 5.53178 19.4431 4.55449C18.4656 3.5772 17.3048 2.8026 16.0271 2.27517C14.7495 1.74773 13.3812 1.47785 11.999 1.48102ZM7.95301 6.89902C7.99121 6.89826 8.0289 6.90794 8.06201 6.92702L13.724 10.197C13.7562 10.2158 13.7928 10.2257 13.83 10.2257C13.8673 10.2257 13.9038 10.2158 13.936 10.197L15.938 9.04002C15.9698 9.02116 16.0061 9.01106 16.0431 9.01072C16.0801 9.01038 16.1165 9.01983 16.1487 9.0381C16.1809 9.05637 16.2077 9.08281 16.2263 9.11476C16.245 9.1467 16.2549 9.18302 16.255 9.22002V16.89C16.2554 16.9273 16.2459 16.964 16.2275 16.9963C16.209 17.0287 16.1823 17.0556 16.15 17.0742C16.1177 17.0928 16.0811 17.1025 16.0438 17.1023C16.0066 17.1021 15.9701 17.092 15.938 17.073L10.276 13.803C10.2441 13.7846 10.2079 13.7749 10.171 13.7749C10.1341 13.7749 10.0979 13.7846 10.066 13.803L8.06201 14.963C8.02992 14.9815 7.99351 14.9912 7.95647 14.9912C7.91942 14.9911 7.88306 14.9812 7.85107 14.9625C7.81909 14.9438 7.79261 14.917 7.77433 14.8848C7.75606 14.8525 7.74663 14.8161 7.74701 14.779V7.11002C7.747 7.05501 7.76857 7.00219 7.80709 6.96292C7.84561 6.92365 7.89801 6.90006 7.95301 6.89902Z" fill="#5B6071"/>
</svg>
