<svg width="24" height="25" viewBox="0 0 24 25" fill="none" xmlns="http://www.w3.org/2000/svg">
<path fill-rule="evenodd" clip-rule="evenodd" d="M13.5986 3.5C13.4684 3.5 13.3476 3.52789 13.236 3.56508C13.4731 3.72313 13.6033 3.93231 13.6683 4.16939C13.673 4.20193 13.6823 4.22517 13.6869 4.25771C13.6916 4.2856 13.6962 4.31349 13.6962 4.34138C13.7148 4.75045 13.5893 4.80159 13.501 5.04331C13.3662 5.35476 13.4034 5.68946 13.5661 5.95907C13.58 5.99161 13.5986 6.0288 13.6219 6.06134C13.4452 4.88526 14.426 4.70862 14.6073 4.34138C14.6213 4.02064 14.3563 3.8068 14.1471 3.65805C13.9472 3.53719 13.766 3.5 13.5986 3.5ZM15.0768 3.76497C15.0582 3.87188 15.0722 3.84399 15.0675 3.89977C15.0629 3.93696 15.0629 3.98345 15.0583 4.02064C15.049 4.05782 15.0397 4.09501 15.0257 4.1322C15.0164 4.16939 15.0025 4.20658 14.9885 4.24376C14.9699 4.28095 14.956 4.31349 14.9374 4.35068C14.9235 4.36928 14.9142 4.38787 14.9002 4.40646C14.8909 4.42041 14.8816 4.43435 14.8723 4.4483C14.8491 4.48084 14.8258 4.51338 14.8026 4.54127C14.7747 4.56916 14.7515 4.6017 14.7189 4.62495V4.6296C14.691 4.65284 14.6631 4.68073 14.6306 4.70398C14.533 4.77835 14.4214 4.83413 14.3191 4.90386C14.2866 4.9271 14.2541 4.9457 14.2262 4.97359C14.1936 4.99683 14.1657 5.02007 14.1379 5.04797C14.1053 5.07586 14.0821 5.10375 14.0542 5.13629C14.0309 5.16418 14.003 5.19672 13.9844 5.22926C13.9612 5.2618 13.938 5.29434 13.9194 5.32688C13.9008 5.36406 13.8868 5.39661 13.8682 5.43379C13.8543 5.47098 13.8403 5.50352 13.831 5.54071C13.8171 5.58255 13.8078 5.61973 13.7985 5.65692C13.7939 5.67553 13.7939 5.69876 13.7892 5.71735C13.7846 5.73596 13.7846 5.75454 13.7799 5.77314C13.7799 5.81032 13.7753 5.85216 13.7753 5.88935C13.7753 5.91724 13.7753 5.94513 13.7799 5.97302C13.7799 6.01021 13.7846 6.0474 13.7939 6.08924C13.7985 6.12642 13.8078 6.16361 13.8171 6.2008C13.8311 6.23799 13.8404 6.27518 13.8543 6.31236C13.8636 6.33561 13.8775 6.35885 13.8868 6.37744L12.8177 5.96373C12.6364 5.91259 12.4597 5.86611 12.2785 5.82427C12.1808 5.80103 12.0832 5.77778 11.9856 5.75454C11.7067 5.69876 11.4231 5.65692 11.1396 5.62903C11.1303 5.62903 11.1256 5.62438 11.1163 5.62438C10.8374 5.59649 10.5631 5.58254 10.2842 5.58254C10.0797 5.58254 9.87516 5.59183 9.67528 5.60578C9.39172 5.62439 9.10816 5.66157 8.8246 5.70805C8.75487 5.71734 8.68514 5.7313 8.61541 5.74524C8.47131 5.77313 8.33185 5.80567 8.19705 5.83821C8.12732 5.85681 8.05759 5.8754 7.98786 5.89399C7.91814 5.92188 7.85306 5.95442 7.78797 5.98231C7.73684 6.00556 7.68571 6.0288 7.63457 6.05204C7.62528 6.0567 7.61597 6.0567 7.61133 6.06133C7.56485 6.08458 7.52301 6.10317 7.48117 6.12641C7.46723 6.13107 7.45793 6.1357 7.44863 6.14036C7.3975 6.1636 7.34637 6.19149 7.30453 6.21473C7.27199 6.22868 7.23945 6.24727 7.21156 6.26122C7.19761 6.27051 7.17902 6.27982 7.16972 6.28446C7.12789 6.3077 7.08605 6.33095 7.04886 6.35419C7.00702 6.37743 6.96984 6.40067 6.93729 6.42392C6.90476 6.44716 6.87222 6.46575 6.84432 6.489C6.83967 6.49365 6.83503 6.49365 6.83038 6.49829C6.80249 6.51689 6.76995 6.54012 6.74206 6.56337C6.74206 6.56337 6.7374 6.56802 6.73277 6.57266C6.70953 6.59126 6.68628 6.60984 6.66304 6.62844C6.65375 6.63309 6.64444 6.64238 6.63515 6.64704C6.61191 6.66564 6.58866 6.68888 6.56542 6.70747C6.56077 6.71676 6.55148 6.72142 6.54682 6.72607C6.51893 6.75396 6.49104 6.77721 6.46315 6.8051C6.45849 6.8051 6.45849 6.80975 6.45386 6.81439C6.42596 6.83763 6.39807 6.86552 6.37018 6.89341C6.36553 6.89807 6.36553 6.9027 6.36089 6.9027C6.33765 6.92594 6.31441 6.94919 6.29116 6.97708C6.28187 6.98637 6.26792 6.99568 6.25863 7.00497C6.23538 7.03286 6.20749 7.06075 6.1796 7.08864C6.17494 7.09793 6.16566 7.10259 6.161 7.11188C6.12381 7.14907 6.09127 7.18626 6.05408 7.22345C6.04943 7.22811 6.04479 7.23274 6.04014 7.2374C5.96576 7.31642 5.88673 7.39545 5.80306 7.46517C5.71939 7.53955 5.63107 7.60928 5.54274 7.66971C5.44977 7.73479 5.36145 7.79057 5.26383 7.84635C5.17086 7.89748 5.07324 7.94397 4.97098 7.98581C4.87336 8.02765 4.77109 8.06483 4.66882 8.09737C4.47358 8.13921 4.2737 8.21823 4.1017 8.23218C4.06451 8.23218 4.02268 8.24147 3.98549 8.24612C3.94365 8.25541 3.90646 8.26473 3.86928 8.27402C3.83209 8.28796 3.7949 8.30191 3.75771 8.31585C3.72052 8.3298 3.68333 8.34839 3.64615 8.36699C3.61361 8.39023 3.57642 8.40882 3.54388 8.43207C3.51134 8.45531 3.4788 8.4832 3.45091 8.51109C3.41837 8.53434 3.38583 8.56687 3.35794 8.59476C3.33004 8.62731 3.30215 8.6552 3.27891 8.68773C3.25567 8.72492 3.22778 8.75746 3.20918 8.79465C3.18594 8.82719 3.1627 8.86438 3.1441 8.90157C3.1255 8.94341 3.10692 8.98059 3.09297 9.02243C3.07902 9.05962 3.06508 9.10145 3.05113 9.14329C3.04184 9.18048 3.03253 9.21767 3.02789 9.25485C3.02789 9.25952 3.02324 9.26415 3.02324 9.2688C3.01395 9.31064 3.01395 9.36642 3.00929 9.39431C3.00463 9.42685 3 9.45474 3 9.48728C3 9.50589 3 9.52912 3.00466 9.54771C3.00931 9.58026 3.01395 9.60815 3.02326 9.63604C3.03255 9.66393 3.04186 9.69182 3.0558 9.71971V9.72437C3.06974 9.75226 3.08834 9.78015 3.10693 9.80804C3.12553 9.83593 3.14412 9.86382 3.16736 9.89171C3.1906 9.91496 3.21849 9.94285 3.24639 9.96609C3.27428 9.99398 3.30217 10.0172 3.33471 10.0405C3.44627 10.1381 3.47416 10.1706 3.61827 10.245C3.64151 10.2589 3.66475 10.2682 3.69265 10.2822C3.6973 10.2822 3.70194 10.2868 3.70659 10.2868C3.70659 10.2961 3.70659 10.3008 3.71125 10.3101C3.7159 10.3473 3.72519 10.3845 3.73449 10.4217C3.74378 10.4635 3.75773 10.5007 3.77168 10.5332C3.78563 10.5611 3.79492 10.589 3.80887 10.6169C3.81352 10.6262 3.81816 10.6355 3.82281 10.6401C3.84141 10.6773 3.86 10.7099 3.87859 10.7424C3.90184 10.7749 3.92508 10.8075 3.94832 10.84C3.97156 10.8679 3.99946 10.9005 4.02735 10.9283C4.05524 10.9562 4.08313 10.9795 4.11567 11.0074C4.11567 11.0074 4.12033 11.012 4.12496 11.012C4.15285 11.0353 4.18074 11.0585 4.20863 11.0771C4.24117 11.1003 4.27371 11.1189 4.3109 11.1375C4.34344 11.1561 4.38063 11.1747 4.41782 11.1887C4.44571 11.2026 4.47825 11.2119 4.51079 11.2212C4.51544 11.2259 4.52008 11.2259 4.52939 11.2305C4.54799 11.2352 4.57122 11.2398 4.58982 11.2444C4.57587 11.4955 4.57122 11.7325 4.60842 11.8162C4.65026 11.9092 4.85479 11.6256 5.05933 11.3002C5.03144 11.621 5.01284 11.9975 5.05933 12.1091C5.11046 12.2253 5.38937 11.8627 5.6311 11.4629C8.9269 10.7006 11.9345 12.9783 12.2506 16.1951C12.1902 15.6931 11.5719 15.4142 11.2884 15.4839C11.1489 15.8279 10.9118 16.2695 10.5306 16.5438C10.5632 16.237 10.5492 15.9209 10.4842 15.6141C10.3819 16.0417 10.182 16.4415 9.90774 16.7855C9.46613 16.818 9.02452 16.6042 8.79209 16.2835C8.77349 16.2695 8.76885 16.2416 8.75491 16.223C8.74096 16.1905 8.72701 16.1579 8.71772 16.1254C8.70377 16.0929 8.69448 16.0603 8.68983 16.0278C8.68517 15.9952 8.68517 15.9627 8.68517 15.9255C8.68517 15.9023 8.68517 15.879 8.68517 15.8558C8.68983 15.8232 8.69912 15.7907 8.70841 15.7582C8.7177 15.7256 8.72701 15.6931 8.74095 15.6605C8.75955 15.628 8.77349 15.5955 8.79674 15.5629C8.87576 15.3398 8.87576 15.1585 8.73166 15.0516C8.70376 15.033 8.67587 15.0191 8.64333 15.0051C8.62473 15.0005 8.6015 14.9912 8.5829 14.9865C8.56896 14.9818 8.55966 14.9772 8.54572 14.9726C8.51317 14.9633 8.48063 14.954 8.4481 14.9493C8.41555 14.94 8.38302 14.9354 8.35048 14.9354C8.31794 14.9307 8.28075 14.9261 8.24821 14.9261C8.22497 14.9261 8.20172 14.9307 8.17848 14.9307C8.14129 14.9307 8.10875 14.9354 8.07621 14.9447C8.04367 14.9493 8.01113 14.954 7.97859 14.9633C7.94606 14.9726 7.91351 14.9819 7.88097 14.9958C7.84844 15.0098 7.82054 15.0237 7.788 15.0377C7.76011 15.0516 7.73222 15.0702 7.69968 15.0841C6.61657 15.7907 7.26272 17.4456 8.00184 17.9244C7.72292 17.9755 7.43937 18.036 7.36034 18.0964C7.35568 18.101 7.35105 18.1057 7.35105 18.1057C7.55094 18.2265 7.76012 18.3288 7.9786 18.4171C8.27611 18.5147 8.59221 18.6031 8.73166 18.6403V18.6449C9.11749 18.7239 9.50797 18.7518 9.90309 18.7286C11.9624 18.5845 13.6498 17.0179 13.9566 14.954C13.9659 14.9958 13.9752 15.033 13.9845 15.0748C13.9984 15.1585 14.017 15.2468 14.0263 15.3352V15.3398C14.0356 15.3817 14.0403 15.4235 14.0449 15.4607V15.4793C14.0496 15.5211 14.0542 15.563 14.0542 15.6001C14.0589 15.6513 14.0635 15.7024 14.0635 15.7536V15.8279C14.0635 15.8512 14.0682 15.8791 14.0682 15.9023C14.0682 15.9302 14.0635 15.9581 14.0635 15.986V16.0511C14.0635 16.0836 14.0589 16.1115 14.0589 16.144C14.0589 16.1626 14.0589 16.1812 14.0542 16.2045C14.0542 16.237 14.0495 16.2695 14.0495 16.3067C14.0449 16.3207 14.0449 16.3346 14.0449 16.3486C14.0402 16.3857 14.0356 16.4183 14.0309 16.4555C14.0309 16.4694 14.0309 16.4834 14.0263 16.4973C14.0216 16.5438 14.0123 16.5856 14.0077 16.6321V16.6368V16.6414C13.9984 16.6833 13.9891 16.7298 13.9798 16.7716V16.7855C13.9705 16.8274 13.9612 16.8692 13.9519 16.911C13.9519 16.9157 13.9472 16.925 13.9472 16.9296C13.938 16.9715 13.9286 17.0133 13.9147 17.0552V17.0691C13.9008 17.1156 13.8868 17.1574 13.8775 17.1993C13.8729 17.2039 13.8729 17.2086 13.8729 17.2086C13.8589 17.255 13.845 17.3015 13.831 17.348C13.8124 17.3945 13.7985 17.4363 13.7799 17.4828C13.7613 17.5293 13.7474 17.5758 13.7288 17.6176C13.7102 17.6641 13.6916 17.706 13.673 17.7524H13.6683C13.6497 17.7943 13.6311 17.8408 13.6079 17.8826C13.6032 17.8965 13.5986 17.9058 13.5939 17.9151C13.5893 17.9198 13.5893 17.9244 13.5847 17.9291C13.2825 18.538 12.8362 19.0726 12.2784 19.491C12.2412 19.5142 12.204 19.5421 12.1669 19.57C12.1576 19.5793 12.1436 19.584 12.1343 19.5932C12.1018 19.6165 12.0692 19.6397 12.032 19.663L12.046 19.6909H12.0506C12.1157 19.6816 12.1808 19.6723 12.2459 19.663H12.2505C12.3714 19.6444 12.4923 19.6211 12.6131 19.5979C12.6457 19.5932 12.6829 19.584 12.7154 19.5747C12.7386 19.57 12.7572 19.5654 12.7805 19.5607C12.813 19.556 12.8455 19.5468 12.8781 19.5421C12.906 19.5328 12.9339 19.5282 12.9618 19.5189C13.4266 19.4073 13.8775 19.2539 14.3098 19.0726C13.5707 20.0813 12.5806 20.8948 11.4231 21.4294C11.9577 21.3922 12.4923 21.3039 13.0082 21.1551C14.8816 20.602 16.4575 19.3422 17.4011 17.6455C17.2105 18.7193 16.7829 19.742 16.1507 20.6345C16.6016 20.337 17.0153 19.993 17.3918 19.6025C18.4331 18.5148 19.1164 17.1342 19.3488 15.6513C19.5069 16.3858 19.5534 17.1435 19.4836 17.8919C22.8399 13.2108 19.7626 8.35775 18.4749 7.07941C18.4703 7.07012 18.4656 7.06546 18.4656 7.05616C18.461 7.06082 18.461 7.06082 18.461 7.06545C18.461 7.0608 18.461 7.0608 18.4563 7.05616C18.4563 7.11195 18.4517 7.16773 18.447 7.22351C18.4331 7.33043 18.4191 7.43269 18.4005 7.53496C18.3773 7.63723 18.3494 7.7395 18.3215 7.84176C18.289 7.93938 18.2518 8.04165 18.2099 8.13927C18.1681 8.23224 18.1216 8.32986 18.0705 8.42283C18.0194 8.51115 17.9636 8.60412 17.9031 8.6878C17.8427 8.77612 17.7776 8.85979 17.7126 8.93882C17.6428 9.02249 17.5684 9.09687 17.4941 9.17124C17.4476 9.21308 17.4057 9.25027 17.3593 9.28745C17.3221 9.32 17.2895 9.34789 17.2523 9.38043C17.1687 9.44551 17.085 9.50594 16.992 9.56172C16.9037 9.6175 16.8107 9.67328 16.7178 9.71977C16.6201 9.76626 16.5225 9.80809 16.4249 9.84993C16.3273 9.88711 16.225 9.91966 16.1228 9.94755C16.0205 9.97544 15.9136 9.99868 15.8113 10.0173C15.7044 10.0359 15.5975 10.0452 15.4952 10.0545C15.4208 10.0591 15.3465 10.0638 15.2721 10.0638C15.1652 10.0638 15.0582 10.0545 14.956 10.0452C14.8491 10.0359 14.7421 10.0219 14.6399 9.99867C14.533 9.98006 14.4307 9.95218 14.3284 9.91964H14.3238C14.426 9.91035 14.5283 9.90104 14.6306 9.88245C14.7375 9.86385 14.8398 9.84062 14.942 9.81272C15.0443 9.78483 15.1466 9.75229 15.2442 9.71511C15.3464 9.67792 15.4441 9.63143 15.537 9.58495C15.6347 9.53846 15.723 9.48733 15.8159 9.43155C15.9043 9.37111 15.9926 9.31068 16.0763 9.2456C16.1599 9.18053 16.239 9.1108 16.3133 9.03642C16.3924 8.96669 16.4621 8.88767 16.5318 8.80864C16.6015 8.72497 16.6666 8.6413 16.7271 8.55762C16.7363 8.54368 16.7457 8.52508 16.755 8.51114C16.8014 8.43676 16.8479 8.36238 16.8898 8.28801C16.9409 8.19504 16.9874 8.10207 17.0292 8.00445C17.071 7.90683 17.1082 7.80921 17.1408 7.70694C17.1733 7.60932 17.1966 7.50706 17.2198 7.40479C17.2384 7.29787 17.257 7.1956 17.2663 7.09334C17.2756 6.98642 17.2849 6.8795 17.2849 6.77724C17.2849 6.70286 17.2802 6.62848 17.2756 6.55411C17.2663 6.44719 17.2524 6.34492 17.2384 6.24266C17.2198 6.13574 17.1966 6.03347 17.1687 5.9312C17.1361 5.83359 17.1036 5.73132 17.0664 5.6337C17.0292 5.53608 16.9827 5.43846 16.9363 5.34549C16.8851 5.25252 16.834 5.15955 16.7782 5.07123C16.7178 4.98291 16.6573 4.89923 16.5923 4.81556C16.5225 4.73653 16.4528 4.65751 16.3784 4.57848C16.3412 4.5413 16.2994 4.49946 16.2576 4.46227C16.0484 4.29957 15.8299 4.14617 15.6114 4.00672C15.5789 3.98811 15.551 3.97418 15.5185 3.96023C15.3651 3.86261 15.2209 3.81145 15.0768 3.76497Z" fill="#5B6071"/>
</svg>
