<svg width="24" height="24" viewBox="0 0 24 24" fill="none" xmlns="http://www.w3.org/2000/svg">
<g clip-path="url(#clip0_3475_10206)">
<path d="M4.1869 14.416C3.25107 9.06679 5.739 3.88938 11.3996 3.20233C11.1034 2.86545 10.7315 2.61624 10.3198 2.47871C9.908 2.34118 9.47023 2.31998 9.04862 2.41713C8.18127 2.71158 8.2041 3.32502 7.22262 4.11022C6.26397 4.69912 5.76182 4.2329 5.05425 4.87088C4.34667 5.48432 4.826 6.90749 4.52927 7.1774C4.23255 7.74177 3.31955 8.23252 3.13695 8.91957C3 9.80292 3.50215 10.4409 3.50215 11.2261C3.57062 11.8641 2.9087 12.2321 3 12.7474C3.2739 13.5817 3.8217 14.097 4.07277 14.3424C4.14125 14.3669 4.20972 14.465 4.1869 14.416Z" fill="#5B6071"/>
<path d="M14.2984 7.00566C14.2015 7.00566 14.1086 6.96429 14.0402 6.89067C13.9717 6.81704 13.9332 6.71718 13.9332 6.61306C13.9332 6.39222 14.093 6.22046 14.2984 6.22046C14.5038 6.22046 14.6636 6.39222 14.6636 6.61306C14.6636 6.83389 14.5038 7.00566 14.2984 7.00566ZM4.41516 15.0049C3.50216 10.3428 6.28681 6.46583 11.6735 8.37976C14.8462 10.3673 18.8177 10.2446 19.0003 8.94412C19.4568 7.39826 16.9917 4.23292 13.3169 3.39864C6.01291 1.87732 2.08701 10.3428 4.41516 15.0049Z" fill="url(#paint0_radial_3475_10206)"/>
<path d="M16.3755 15.5202C16.9207 15.5914 17.4736 15.541 17.9999 15.3721C18.5262 15.2032 19.0144 14.9195 19.434 14.5387C18.0722 16.1765 16.1757 17.1871 14.1386 17.3605C15.1201 18.2684 16.0787 18.661 16.9917 18.4892C14.4582 19.2499 12.3354 18.4156 9.77904 15.6674C9.64209 16.4035 10.3725 17.5568 11.1257 18.2929C6.74331 16.2563 6.35529 9.92562 11.6735 8.35522C6.17269 5.50887 3.04566 11.0543 4.57494 15.5938C5.48775 17.5052 6.92629 19.0678 8.69475 20.0689C10.4632 21.0699 12.4757 21.4608 14.4582 21.1883C15.9242 20.9802 17.3109 20.3506 18.4718 19.366C19.6328 18.3813 20.5251 17.0781 21.0546 15.5938C20.1078 16.4494 18.9786 17.0395 17.7678 17.3114C20.2329 15.9864 21.5567 13.7289 21.1915 10.6617C20.7746 11.8364 20.0733 12.8699 19.1601 13.6553C20.9633 10.6617 20.6437 9.09134 19.3199 7.39825C20.2785 10.1955 19.046 13.2873 16.3755 15.5202Z" fill="url(#paint1_radial_3475_10206)"/>
<path d="M15.0972 18.7345C14.9146 18.6855 15.5309 19.0045 14.344 18.6609C13.1571 18.3174 11.9474 17.9984 9.75619 15.6428C9.61924 16.3789 10.3496 17.5322 11.1029 18.2683C13.1343 19.7897 11.742 19.0781 14.8462 20.2313C15.0972 19.716 15.0972 19.2498 15.0972 18.7345Z" fill="url(#paint2_linear_3475_10206)"/>
<path d="M11.1713 6.78478C11.1713 6.78478 11.4452 6.36765 11.5365 6.17135C11.6735 5.92597 11.8561 5.50883 11.8561 5.50883C11.8561 5.50883 9.77902 4.77271 9.27687 4.6991C7.70194 5.14077 7.70194 5.85236 8.56929 6.93201C8.68342 7.0547 11.1713 6.78478 11.1713 6.78478Z" fill="url(#paint3_linear_3475_10206)"/>
</g>
<defs>
<radialGradient id="paint0_radial_3475_10206" cx="0" cy="0" r="1" gradientUnits="userSpaceOnUse" gradientTransform="translate(15.7934 7.66817) scale(13.7723 10.5911)">
<stop stop-color="#5B6071"/>
<stop offset="1" stop-color="#5B6071"/>
</radialGradient>
<radialGradient id="paint1_radial_3475_10206" cx="0" cy="0" r="1" gradientUnits="userSpaceOnUse" gradientTransform="translate(15.919 8.01169) scale(13.9404 11.3365)">
<stop stop-color="#5B6071"/>
<stop offset="0.29" stop-color="#5B6071"/>
<stop offset="1" stop-color="#5B6071"/>
</radialGradient>
<linearGradient id="paint2_linear_3475_10206" x1="10.6464" y1="15.7164" x2="13.3953" y2="19.9822" gradientUnits="userSpaceOnUse">
<stop stop-color="#5B6071"/>
<stop offset="0.67" stop-color="#5B6071"/>
<stop offset="0.83" stop-color="#5B6071" stop-opacity="0.2"/>
<stop offset="1" stop-color="#5B6071" stop-opacity="0"/>
</linearGradient>
<linearGradient id="paint3_linear_3475_10206" x1="10.4524" y1="6.35538" x2="10.0568" y2="5.65511" gradientUnits="userSpaceOnUse">
<stop stop-color="#5B6071" stop-opacity="0.15"/>
<stop offset="0.4" stop-color="#5B6071" stop-opacity="0.4"/>
<stop offset="0.65" stop-color="#5B6071" stop-opacity="0.89"/>
<stop offset="1" stop-color="#5B6071"/>
</linearGradient>
<clipPath id="clip0_3475_10206">
<rect width="18.26" height="19.63" fill="white" transform="translate(3 2)"/>
</clipPath>
</defs>
</svg>
