<svg width="24" height="24" viewBox="0 0 24 24" fill="none" xmlns="http://www.w3.org/2000/svg">
<path d="M11.5408 2.11601L3.68882 6.63841C3.54463 6.72121 3.42484 6.84054 3.34155 6.98437C3.25826 7.1282 3.21441 7.29144 3.21442 7.4576V16.5152C3.21437 16.6815 3.2581 16.8449 3.34123 16.989C3.42436 17.133 3.54396 17.2527 3.68802 17.336L11.5416 21.8656C11.6859 21.9486 11.8495 21.9923 12.016 21.9923C12.1825 21.9923 12.3461 21.9486 12.4904 21.8656L20.3416 17.3368C20.4857 17.2535 20.6053 17.1338 20.6884 16.9898C20.7715 16.8457 20.8153 16.6823 20.8152 16.516V7.46161C20.8152 7.29544 20.7714 7.1322 20.6881 6.98837C20.6048 6.84455 20.485 6.72521 20.3408 6.6424L12.4904 2.12001C12.3462 2.03679 12.1826 1.99298 12.016 1.99298C11.8495 1.99298 11.6858 2.03679 11.5416 2.12001L11.5408 2.11601Z" fill="#5B6071"/>
<path d="M3.43842 17.0808C3.51424 17.1804 3.60915 17.2639 3.71762 17.3264L10.4536 21.212L11.5752 21.8584C11.7407 21.9536 11.9311 21.9968 12.1216 21.9824C12.1847 21.977 12.2471 21.9655 12.308 21.948L20.5904 6.80403C20.5272 6.73557 20.4545 6.67656 20.3744 6.62883L15.228 3.66323L12.5104 2.10163C12.4337 2.05731 12.351 2.02443 12.2648 2.00403L3.43842 17.0808Z" fill="#5B6071"/>
<path d="M20.5904 17.0808C20.5146 17.1804 20.4197 17.2639 20.3112 17.3264L13.5752 21.212L12.4536 21.8584C12.2881 21.9536 12.0977 21.9968 11.9072 21.9824C11.8441 21.977 11.7817 21.9655 11.7208 21.948L3.43842 6.80243C3.50161 6.73397 3.57436 6.67496 3.65442 6.62723L8.80082 3.66323L11.5184 2.10163C11.5951 2.05731 11.6778 2.02443 11.764 2.00403L20.5904 17.0808Z" fill="#5B6071"/>
</svg>
