<svg width="24" height="25" viewBox="0 0 24 25" fill="none" xmlns="http://www.w3.org/2000/svg">
<path fill-rule="evenodd" clip-rule="evenodd" d="M20.125 4.5C20.125 3.94772 19.6773 3.5 19.125 3.5H3.875C3.32272 3.5 2.875 3.94772 2.875 4.5V20.6C2.875 21.1523 3.32272 21.6 3.875 21.6H19.125C19.6773 21.6 20.125 21.1523 20.125 20.6V4.5ZM11.5 17.5C11.5 18.0523 11.0523 18.5 10.5 18.5H6.75001C6.19772 18.5 5.75001 18.0523 5.75001 17.5V7.50004C5.75001 6.94775 6.19772 6.50004 6.75001 6.50004H16.25C16.8023 6.50004 17.25 6.94775 17.25 7.50004V17.5C17.25 18.0523 16.8023 18.5 16.25 18.5H15.375C14.8227 18.5 14.375 18.0523 14.375 17.5V10.5C14.375 9.94775 13.9273 9.50004 13.375 9.50004H12.5C11.9477 9.50004 11.5 9.94775 11.5 10.5V17.5Z" fill="#5B6071"/>
</svg>
