<svg width="24" height="24" viewBox="0 0 24 24" fill="none" xmlns="http://www.w3.org/2000/svg">
<path d="M21.8399 7.54866C21.8399 5.67424 18.3256 1.45711 18.0915 1.22296C18.9341 5.01597 18.8293 4.44967 18.9703 5.66099C19.0076 5.98029 19.0233 6.31163 18.8956 6.60683C18.3104 7.95832 16.2167 8.71941 16.2167 8.71941L19.4964 11.5308C19.4964 11.5308 21.8399 9.18812 21.8399 7.54866ZM2.15997 7.54866C2.15997 5.67424 5.67425 1.45711 5.9084 1.22296C5.06578 5.01597 5.1702 4.44967 5.02963 5.66099C4.99228 5.98029 4.97661 6.31163 5.10433 6.60683C5.68951 7.95832 7.78321 8.71941 7.78321 8.71941L4.50349 11.5308C4.50349 11.5308 2.15997 9.18812 2.15997 7.54866Z" fill="#5B6071"/>
<path d="M11.9999 5.67426C15.6725 5.67426 18.3393 8.25554 19.4972 11.5312V17.1541C19.4972 17.1541 17.1541 18.0915 15.7484 19.0285C14.3427 19.9655 12.2341 22.7769 12.2341 22.7769H11.9999V5.67426Z" fill="#5B6071"/>
<path d="M11.9999 5.67426C8.32742 5.67426 5.66059 8.25554 4.50269 11.5312V17.1541C4.50269 17.1541 6.8458 18.0915 8.25151 19.0285C9.65722 19.9655 11.7658 22.7769 11.7658 22.7769H11.9999V5.67426Z" fill="#5B6071"/>
<path d="M11.9999 12.4683C12.5174 12.4683 12.9369 12.0487 12.9369 11.5312C12.9369 11.0138 12.5174 10.5942 11.9999 10.5942C11.4824 10.5942 11.0629 11.0138 11.0629 11.5312C11.0629 12.0487 11.4824 12.4683 11.9999 12.4683Z" fill="#5B6071"/>
</svg>
