<svg width="24" height="24" viewBox="0 0 24 24" fill="none" xmlns="http://www.w3.org/2000/svg">
<path d="M4.52403 20.862C4.26649 20.5448 3.56575 18.1795 3.20533 16.411C1.96733 10.3361 3.30519 6.01401 7.02933 4.05701C8.62453 3.21875 9.94713 2.94331 12.3997 2.93861C15.6111 2.93249 17.501 3.55555 19.2071 5.18281C21.7263 7.58571 21.9417 11.915 19.666 14.405C18.3987 15.7916 15.0684 17.2253 13.1147 17.2253H12.5221L12.1144 15.9865C11.8902 15.3052 11.6579 14.4838 11.5983 14.1614L11.49 13.5751L12.146 13.6631C12.9228 13.7673 14.0351 13.3923 14.5115 12.8655C15.509 11.7626 15.3352 9.27015 14.2094 8.53245C13.1457 7.83551 11.0849 7.87931 10.0433 8.62098C8.15459 9.96588 8.66089 14.8688 11.2146 19.964C11.4627 20.4589 11.621 20.9085 11.5665 20.963C11.512 21.0176 9.94159 21.0622 8.07679 21.0622C5.55739 21.0622 4.64463 21.0105 4.52403 20.862Z" fill="#5B6071"/>
</svg>
