<svg width="24" height="24" viewBox="0 0 24 24" fill="none" xmlns="http://www.w3.org/2000/svg">
<path d="M19 22.003H5V20.003H19V22.003ZM16 18.003H8L10.18 10.003H8V8.003H10.72L10.79 7.743C10.1002 7.44318 9.54981 6.89281 9.25 6.203C8.58 4.683 9.27 2.913 10.79 2.253C12.31 1.583 14.08 2.273 14.74 3.793C14.8993 4.15332 14.9858 4.54158 14.9946 4.93546C15.0034 5.32934 14.9342 5.72106 14.7911 6.08813C14.648 6.45519 14.4338 6.79035 14.1607 7.07435C13.8877 7.35835 13.5612 7.58558 13.2 7.743L13.27 8.003H16V10.003H13.82L16 18.003Z" fill="#5B6071"/>
</svg>
