<svg width="24" height="25" viewBox="0 0 24 25" fill="none" xmlns="http://www.w3.org/2000/svg">
<path d="M8.78965 3.5C8.53313 3.54484 8.31308 3.68545 8.07118 3.76926C7.56003 4.11204 7.14929 4.63838 7.04407 5.27219C6.72411 6.34454 5.78335 7.04947 5.45484 8.11281C5.18433 8.79471 4.70005 9.33196 4.24778 9.87954C3.93609 10.2856 3.97022 10.8302 3.83289 11.305C3.69564 11.4342 3.59819 11.7305 3.85482 11.7626C3.84786 12.004 3.68934 12.2727 3.85651 12.5035C3.98637 13.0077 4.21601 13.4905 4.44342 13.9572C4.48863 14.1271 4.76708 14.3244 4.8094 14.0504C4.84324 13.6596 5.00532 13.1949 4.74194 12.8502C4.57317 12.4082 4.712 11.9416 4.79085 11.5004C4.7527 11.2282 4.84579 10.9176 4.98649 10.7014C5.13176 10.783 5.08234 11.057 5.13991 11.204C5.27868 12.2616 5.32068 13.3612 5.06407 14.4042C4.96854 14.8128 5.12555 15.2452 5.03371 15.6466C4.70409 16.0204 4.95942 16.5569 4.98818 16.9912C5.14837 17.7969 5.06068 18.6337 4.82964 19.404C4.82451 19.6806 4.73183 19.9331 4.67617 20.1977C4.76851 20.5305 5.20695 20.6475 5.4992 20.569C5.68116 20.4409 6.02804 20.6851 6.11479 20.3807C6.1411 20.0503 5.8317 19.8031 5.85675 19.4673C5.66391 18.5461 5.51899 17.5865 5.70631 16.6471C5.80289 16.1014 5.76512 15.5178 5.9124 14.992C6.23748 14.5661 6.46016 14.0624 6.59883 13.5348C6.79208 13.0963 6.91172 12.5637 7.02889 12.1463C7.53343 12.9925 7.83665 14.0066 7.70473 15.0165C7.72177 15.4104 7.48567 15.8718 7.80287 16.1828C8.18745 16.8105 8.67278 17.4025 8.86723 18.1263C8.88263 18.4289 8.49179 18.4337 8.38825 18.6789C8.15861 19.0273 8.18294 19.4711 8.15719 19.8739C8.37396 19.9617 8.69222 20.1955 8.87566 19.9143C9.05477 19.7172 9.13116 19.3724 9.31753 19.2209C9.43241 19.4479 9.32525 19.8156 9.62111 19.9266C10.0455 20.0855 10.5351 20.1296 10.9754 20.0199C11.2016 19.8153 10.8923 19.5266 10.7005 19.448C10.3823 19.3496 10.1956 19.0908 10.0866 18.7775C9.98656 18.6044 9.91509 18.402 10.1102 18.2688C10.5693 17.6877 11.2009 17.303 11.6871 16.7589C11.9805 16.3336 11.9032 15.7412 11.7917 15.2612C11.6542 14.9812 11.5548 14.6874 11.6298 14.369C11.6809 14.0949 11.5008 13.8117 11.5117 13.5682C11.7691 13.5508 12.0698 13.5606 12.2993 13.6509C12.3616 14.0842 12.2693 14.5463 12.3887 14.9656C12.5835 15.1597 12.6758 15.4663 12.6889 15.7452C12.8709 15.9788 12.756 16.3224 12.8053 16.6075C12.6889 17.0721 12.8544 17.5304 12.9908 17.9714C13.2404 18.8105 13.1349 19.715 13.3484 20.5567C13.5106 20.7957 13.2385 21.1947 13.5558 21.3521C14.0466 21.5435 14.7041 21.5983 15.1226 21.2131C15.2502 20.9471 14.8737 20.7943 14.6926 20.7098C14.438 20.652 14.2448 20.4664 14.1907 20.1916C13.8034 19.3577 13.6143 18.4224 13.7497 17.4931C13.7693 17.0453 13.8282 16.6025 13.9387 16.1764C13.9905 15.7408 13.9971 15.2929 14.1191 14.8793C14.1909 14.2965 14.0691 13.6825 14.2254 13.1159C14.478 13.2834 14.749 13.4528 15.0484 13.4767C15.243 13.6307 15.4521 13.4771 15.5577 13.2919C15.7139 13.0681 15.9015 13.6659 16.0443 13.3628C16.2214 13.1532 16.4499 13.0037 16.6506 12.8396C16.7644 12.6461 16.998 12.6521 17.1617 12.5633C17.2753 12.4084 17.0884 12.1634 17.2983 12.0442C17.3699 11.8457 17.5523 12.1074 17.6356 11.9192C17.724 11.7146 17.7099 11.4327 17.9459 11.3438C18.3744 10.9886 18.2461 10.341 18.3228 9.83923C18.3179 9.33879 18.4129 8.80849 18.2956 8.32621C18.1582 7.94447 17.9324 7.5564 17.8413 7.17637C18.259 6.82858 18.9975 7.11683 19.2816 6.54458C19.4048 6.12594 19.0175 5.76853 18.7622 5.50273C18.5139 5.25858 18.1222 5.37486 17.8186 5.25482C17.583 5.1714 17.2165 5.26375 17.1549 4.92902C17.0561 4.66435 16.7469 4.66648 16.5815 4.46617C16.3167 4.32389 16.0764 4.64904 15.8158 4.67559C15.5257 4.88691 15.1932 5.09303 15.0079 5.41474C14.9287 5.62455 14.9972 5.89856 14.7803 6.02894C14.4183 6.46321 14.5703 7.10743 14.5357 7.6357C14.5403 7.87705 14.5342 8.12145 14.6656 8.31853C14.6854 8.61471 14.9436 8.8091 14.8976 9.11398C14.8615 9.31418 15.0303 9.74168 14.7128 9.64899C14.6161 9.48064 14.6305 9.19426 14.5404 8.9967C14.2749 8.14467 13.8725 7.22125 13.0684 6.79448C12.5012 6.36099 12.0963 5.73097 11.8608 5.04693C11.6381 4.69989 11.2281 4.48608 11.053 4.11068C10.8228 4.00837 10.545 4.04378 10.316 3.91005C10.0316 3.77839 9.77441 3.54001 9.43395 3.5821C9.20943 3.59934 9.00243 3.51768 8.78965 3.5ZM9.20454 13.0579C9.40123 13.126 9.34058 13.4459 9.41198 13.6122C9.50409 13.8457 9.42628 14.2599 9.68689 14.3778C9.83395 14.6318 9.74272 14.9756 9.89096 15.2102C9.8567 15.3767 9.80456 15.6879 10.0529 15.6924C10.2755 15.6723 10.3365 15.932 10.4931 16.0479C10.6379 16.2592 10.7996 16.5587 10.5757 16.7818C10.3586 17.0566 10.21 17.4882 9.81001 17.4998C9.64522 17.5182 9.4176 17.7861 9.34283 17.5103C9.05785 17.0085 8.81541 16.4745 8.8706 15.8772C8.8749 14.9393 9.07967 14.0177 9.18261 13.0931C9.17765 13.0672 9.18621 13.0562 9.20454 13.0579Z" fill="#5B6071"/>
</svg>
