<svg width="24" height="24" viewBox="0 0 24 24" fill="none" xmlns="http://www.w3.org/2000/svg">
<path d="M22 2C19.977 2.139 5.76601 3.492 4.77301 13.234C4.65706 14.2758 4.57901 15.3215 4.53901 16.369L8.85201 12.061C8.58344 12.2807 8.247 12.4005 7.90001 12.4C7.50218 12.4 7.12065 12.242 6.83935 11.9607C6.55804 11.6794 6.40001 11.2978 6.40001 10.9C6.40001 10.5022 6.55804 10.1206 6.83935 9.83934C7.12065 9.55804 7.50218 9.4 7.90001 9.4C8.29783 9.4 8.67936 9.55804 8.96067 9.83934C9.24197 10.1206 9.40001 10.5022 9.40001 10.9C9.40027 11.252 9.27673 11.5929 9.05101 11.863L11.527 9.389C11.6442 9.27164 11.8033 9.20566 11.9692 9.20556C12.135 9.20547 12.2942 9.27127 12.4115 9.3885C12.5289 9.50573 12.5949 9.66477 12.5949 9.83065C12.595 9.99652 12.5292 10.1556 12.412 10.273L9.88701 12.795C10.1634 12.5413 10.5248 12.4003 10.9 12.4C11.2978 12.4 11.6794 12.558 11.9607 12.8393C12.242 13.1206 12.4 13.5022 12.4 13.9C12.4 14.2978 12.242 14.6794 11.9607 14.9607C11.6794 15.242 11.2978 15.4 10.9 15.4C10.5022 15.4 10.1207 15.242 9.83935 14.9607C9.55804 14.6794 9.40001 14.2978 9.40001 13.9C9.39968 13.5321 9.53457 13.1769 9.77901 12.902L2.27501 20.4C2.18801 20.4871 2.11902 20.5905 2.07199 20.7043C2.02495 20.8181 2.00079 20.9401 2.00089 21.0632C2.00098 21.1863 2.02532 21.3082 2.07253 21.422C2.11973 21.5357 2.18888 21.639 2.27601 21.726C2.36314 21.813 2.46656 21.882 2.58035 21.929C2.69414 21.9761 2.81609 22.0002 2.93922 22.0001C3.06235 22 3.18425 21.9757 3.29798 21.9285C3.4117 21.8813 3.51501 21.8121 3.60201 21.725L5.83401 19.496C7.47806 19.4914 9.12058 19.3956 10.754 19.209C12.843 18.996 14.545 18.176 15.934 17.002H11.988L17.723 15.092C18.1623 14.5075 18.5596 13.8926 18.912 13.252H15.742L19.904 11.174C21.543 7.191 21.929 3.025 22 2Z" fill="#5B6071"/>
</svg>
