<svg width="24" height="24" viewBox="0 0 24 24" fill="none" xmlns="http://www.w3.org/2000/svg">
<path d="M12.038 3.115C11.904 3.117 11.767 3.198 11.612 3.355C11.145 3.833 4.84801 12.743 4.84801 12.927C4.84801 13.191 5.30601 13.604 5.59801 13.604C5.75201 13.604 6.32201 13.364 6.86601 13.069C7.57801 12.683 7.87801 12.434 7.94101 12.177C8.19501 11.137 8.81401 10.607 9.76801 10.607C10.498 10.607 11.262 11.33 11.368 12.124C11.441 12.666 11.542 12.784 12.627 13.587C13.276 14.067 13.871 14.461 13.95 14.461C14.03 14.461 14.278 14.365 14.503 14.247C15.048 13.963 15.389 13.977 15.985 14.31C16.258 14.462 16.541 14.59 16.612 14.595C16.832 14.609 19.001 13.288 19.075 13.095C19.113 12.995 19.075 12.784 18.992 12.625C18.873 12.405 13.749 5.13 12.572 3.511C12.377 3.244 12.21 3.114 12.038 3.115Z" fill="#5B6071"/>
<path d="M8.39199 13.584L4.91999 15.554L3.38599 17.684C1.77199 19.925 1.56599 20.327 1.85199 20.672C2.00499 20.856 3.33999 20.884 11.92 20.884C17.36 20.884 21.914 20.845 22.038 20.798C22.162 20.75 22.264 20.568 22.264 20.391C22.264 20.05 18.934 15.202 18.616 15.081C18.233 14.933 17.125 15.755 16.775 16.445C16.383 17.218 15.892 17.53 15.101 17.509C14.403 17.491 13.795 16.959 13.527 16.131C13.373 15.653 13.13 15.406 12.07 14.646C11.208 14.028 10.725 13.766 10.571 13.835C10.069 14.058 9.29699 14.052 8.85099 13.821L8.39199 13.584Z" fill="#5B6071"/>
</svg>
