<svg width="24" height="24" viewBox="0 0 24 24" fill="none" xmlns="http://www.w3.org/2000/svg">
<path d="M19.7619 6.40822L12.9906 2.53037C12.3774 2.1786 11.6238 2.1786 11.0107 2.53037L4.23938 6.40822C3.84867 6.63208 3.55252 6.9769 3.38567 7.38151C3.28834 7.61788 3.23689 7.87372 3.23689 8.13789V15.8644C3.23689 16.5791 3.60674 17.1728 4.22686 17.5287L5.18625 18.0752L5.21545 9.01107C5.21545 8.81919 5.25716 8.62037 5.32251 8.44656C5.45043 8.13233 5.68679 7.84591 5.99129 7.67211L11.2345 4.67021C11.7101 4.39769 12.2926 4.39769 12.7682 4.67021L18.0114 7.67211C18.3771 7.88206 18.6371 8.22966 18.7386 8.62732C18.7706 8.75106 18.7872 8.87898 18.7872 9.01107V14.994C18.7872 15.5474 18.4911 16.0577 18.0114 16.333L12.7682 19.3349C12.529 19.4725 12.262 19.5393 11.9951 19.5379L11.9965 21.7333C12.3385 21.7333 12.6833 21.6457 12.9892 21.4705L19.7605 17.5927C20.3806 17.2381 20.763 16.5777 20.763 15.863V8.13789C20.763 7.95436 20.738 7.775 20.6893 7.60398C20.5531 7.10482 20.2235 6.6724 19.7619 6.40822Z" fill="#5B6071"/>
<path d="M12.5499 17.259L16.3109 15.1052C16.6557 14.9078 16.8671 14.5421 16.8671 14.1445V9.85504C16.8671 9.76466 16.856 9.67707 16.8351 9.59086C16.7642 9.30026 16.5765 9.04721 16.3109 8.89426L12.5499 6.74191C12.2092 6.54725 11.7907 6.54725 11.45 6.74191L7.69038 8.89426C7.45401 9.03052 7.27882 9.24604 7.19261 9.49492C7.15646 9.60755 7.13282 9.73407 7.13282 9.85504L7.11892 19.1652L9.12528 20.2915V15.9283L11.45 17.259C11.6169 17.3549 11.8032 17.4036 11.9895 17.405C12.1828 17.4077 12.3775 17.3591 12.5499 17.259ZM9.44229 13.8441C9.2379 13.7273 9.11138 13.509 9.11138 13.2741V10.7268C9.11138 10.649 9.12528 10.5739 9.15031 10.503C9.20314 10.3584 9.30464 10.2346 9.44229 10.1568L11.6753 8.87897C11.8769 8.76357 12.1258 8.76357 12.3288 8.87897L14.5618 10.1568C14.7259 10.2513 14.8399 10.4098 14.8774 10.5906C14.8844 10.6295 14.8913 10.6865 14.8913 10.7268V13.2741C14.8913 13.509 14.7648 13.7273 14.5604 13.8441L12.3274 15.1219C12.2259 15.1803 12.1133 15.2095 12.0006 15.2095C11.888 15.2095 11.7754 15.1803 11.6739 15.1233L9.44229 13.8441Z" fill="#5B6071"/>
</svg>
