<svg width="24" height="25" viewBox="0 0 24 25" fill="none" xmlns="http://www.w3.org/2000/svg">
<path d="M19.1666 8.26815C19.1666 8.82044 18.7189 9.26815 18.1666 9.26815H15.5971C15.0448 9.26815 14.5971 8.82044 14.5971 8.26815V5.49994C14.5971 4.94765 15.0448 4.49994 15.5971 4.49994H18.1666C18.7189 4.49994 19.1666 4.94765 19.1666 5.49994V8.26815Z" fill="#5B6071"/>
<path d="M13.7847 8.26815C13.7847 8.82044 13.337 9.26815 12.7847 9.26815H10.2152C9.66293 9.26815 9.21521 8.82044 9.21521 8.26815V5.49994C9.21521 4.94765 9.66293 4.49994 10.2152 4.49994H12.7847C13.337 4.49994 13.7847 4.94765 13.7847 5.49994V8.26815Z" fill="#5B6071"/>
<path d="M8.40285 8.26815C8.40285 8.82044 7.95513 9.26815 7.40285 9.26815H4.83331C4.28103 9.26815 3.83331 8.82044 3.83331 8.26815V5.49994C3.83331 4.94765 4.28103 4.49994 4.83331 4.49994H7.40285C7.95513 4.49994 8.40285 4.94765 8.40285 5.49994V8.26815Z" fill="#5B6071"/>
<path d="M19.1666 13.8841C19.1666 14.4363 18.7189 14.8841 18.1666 14.8841H15.5971C15.0448 14.8841 14.5971 14.4363 14.5971 13.8841V11.1158C14.5971 10.5636 15.0448 10.1158 15.5971 10.1158H18.1666C18.7189 10.1158 19.1666 10.5636 19.1666 11.1158V13.8841Z" fill="#5B6071"/>
<path d="M13.7847 13.8841C13.7847 14.4363 13.337 14.8841 12.7847 14.8841H10.2152C9.66293 14.8841 9.21521 14.4363 9.21521 13.8841V11.1158C9.21521 10.5636 9.66293 10.1158 10.2152 10.1158H12.7847C13.337 10.1158 13.7847 10.5636 13.7847 11.1158V13.8841Z" fill="#5B6071"/>
<path d="M13.7847 19.4999C13.7847 20.0522 13.337 20.4999 12.7847 20.4999H10.2152C9.66293 20.4999 9.21521 20.0522 9.21521 19.4999V16.7317C9.21521 16.1794 9.66293 15.7317 10.2152 15.7317H12.7847C13.337 15.7317 13.7847 16.1794 13.7847 16.7317V19.4999Z" fill="#5B6071"/>
<path d="M19.1666 19.4999C19.1666 20.0522 18.7189 20.4999 18.1666 20.4999H15.5971C15.0448 20.4999 14.5971 20.0522 14.5971 19.4999V16.7317C14.5971 16.1794 15.0448 15.7317 15.5971 15.7317H18.1666C18.7189 15.7317 19.1666 16.1794 19.1666 16.7317V19.4999Z" fill="#5B6071"/>
<path d="M8.40285 19.4999C8.40285 20.0522 7.95513 20.4999 7.40285 20.4999H4.83331C4.28103 20.4999 3.83331 20.0522 3.83331 19.4999V16.7317C3.83331 16.1794 4.28103 15.7317 4.83331 15.7317H7.40285C7.95513 15.7317 8.40285 16.1794 8.40285 16.7317V19.4999Z" fill="#5B6071"/>
</svg>
