<svg width="24" height="24" viewBox="0 0 24 24" fill="none" xmlns="http://www.w3.org/2000/svg">
<path d="M6.17601 16.747C7.44701 16.747 8.64701 16.253 9.50301 15.397L15.706 9.89102C15.9836 9.61249 16.3138 9.39188 16.6774 9.24202C17.041 9.09215 17.4307 9.01601 17.824 9.01802C19.474 9.01802 20.824 10.35 20.824 12C20.824 13.65 19.474 14.982 17.824 14.982C17.4226 14.9824 17.0253 14.9022 16.6555 14.7463C16.2857 14.5903 15.9509 14.3617 15.671 14.074L14.674 13.191L13.324 14.374L14.453 15.353C15.353 16.253 16.553 16.747 17.823 16.747C20.453 16.747 22.588 14.612 22.588 12C22.588 9.38802 20.453 7.25302 17.824 7.25302C16.553 7.25302 15.353 7.74702 14.497 8.60302L8.29401 14.109C8.0165 14.3874 7.68647 14.608 7.32306 14.7578C6.95965 14.9077 6.5701 14.9839 6.17701 14.982C4.52701 14.982 3.17701 13.65 3.17701 12C3.17701 10.35 4.52701 9.01802 6.17701 9.01802C6.97101 9.01802 7.72901 9.32602 8.32901 9.92602L9.35301 10.818L10.676 9.63502L9.54701 8.64702C9.10401 8.20582 8.57831 7.85637 8.00002 7.61871C7.42173 7.38104 6.80223 7.25983 6.17701 7.26202C3.54701 7.26202 1.41201 9.38802 1.41201 12C1.41121 12.6251 1.53401 13.2441 1.77335 13.8215C2.01269 14.3989 2.36385 14.9233 2.80661 15.3645C3.24937 15.8056 3.775 16.1549 4.35325 16.3922C4.93151 16.6295 5.55097 16.7501 6.17601 16.747Z" fill="#5B6071"/>
<path d="M17.824 6.96301C16.479 6.96301 15.205 7.48301 14.293 8.39501L14.291 8.39601L8.094 13.896L8.088 13.902C7.83781 14.1542 7.53986 14.3539 7.21156 14.4896C6.88326 14.6252 6.53121 14.694 6.176 14.692C4.682 14.692 3.466 13.492 3.466 12C3.466 10.508 4.682 9.30901 6.176 9.30901C6.894 9.30901 7.574 9.58401 8.123 10.133L8.131 10.139L9.355 11.205L11.115 9.63301L9.752 8.43901H9.75C8.80036 7.49526 7.51483 6.96724 6.176 6.97101C3.389 6.97001 1.12 9.22901 1.12 12C1.12 14.803 3.39 17.037 6.175 17.037C7.52 17.037 8.793 16.517 9.705 15.605L15.905 10.103L15.911 10.097C16.1613 9.84503 16.4593 9.64547 16.7876 9.51C17.1159 9.37453 17.4679 9.30586 17.823 9.30801C19.316 9.30801 20.532 10.508 20.532 12C20.532 13.492 19.316 14.691 17.823 14.691C17.095 14.691 16.425 14.417 15.876 13.867L15.868 13.861L14.673 12.803L12.88 14.375L14.247 15.558C14.716 16.0283 15.2734 16.4011 15.8872 16.6549C16.5009 16.9088 17.1588 17.0386 17.823 17.037C20.61 17.037 22.878 14.77 22.878 12C22.878 9.23001 20.611 6.96301 17.824 6.96301ZM17.824 7.54301C20.296 7.54301 22.297 9.54701 22.297 12C22.297 14.453 20.296 16.457 17.824 16.457C17.2359 16.4588 16.6532 16.344 16.1098 16.1191C15.5664 15.8942 15.0729 15.5638 14.658 15.147L14.652 15.141L13.765 14.373L14.672 13.578L15.465 14.279L15.467 14.281C15.7741 14.5949 16.1408 14.8443 16.5455 15.0146C16.9502 15.1849 17.3849 15.2728 17.824 15.273C19.631 15.273 21.115 13.809 21.115 12C21.115 10.191 19.631 8.72701 17.824 8.72701C16.947 8.72701 16.12 9.06701 15.502 9.68401L15.5 9.68601L9.302 15.186L9.297 15.192C8.497 15.991 7.371 16.457 6.175 16.457C5.58796 16.4607 5.006 16.3481 4.46274 16.1256C3.91948 15.9031 3.42569 15.5752 3.00988 15.1608C2.59408 14.7463 2.2645 14.2537 2.04019 13.7111C1.81588 13.1686 1.70127 12.5871 1.703 12C1.703 9.54701 3.703 7.55301 6.175 7.55301C7.38 7.55301 8.495 8.01501 9.341 8.85301L9.349 8.85901L10.236 9.63701L9.349 10.43L8.535 9.72001C8.22704 9.40639 7.85982 9.15709 7.45468 8.98662C7.04953 8.81615 6.61455 8.72791 6.175 8.72701C4.369 8.72701 2.885 10.191 2.885 12C2.885 13.809 4.369 15.273 6.175 15.273C6.60618 15.2745 7.0334 15.1908 7.43208 15.0265C7.83076 14.8623 8.19301 14.6208 8.498 14.316L14.697 8.81401L14.703 8.80901C15.503 8.00901 16.63 7.54301 17.824 7.54301Z" fill="#5B6071"/>
</svg>
