<svg width="24" height="25" viewBox="0 0 24 25" fill="none" xmlns="http://www.w3.org/2000/svg">
<path d="M9.1726 20.6428H4.24403C4.0172 20.6428 3.83331 20.8347 3.83331 21.0714C3.83331 21.3081 4.0172 21.5 4.24403 21.5H9.1726C9.39943 21.5 9.58331 21.3081 9.58331 21.0714C9.58331 20.8347 9.39943 20.6428 9.1726 20.6428Z" fill="#5B6071"/>
<path d="M9.17259 18.9285H7.52973C7.3029 18.9285 7.11902 19.1203 7.11902 19.357C7.11902 19.5937 7.3029 19.7856 7.52973 19.7856H9.17259C9.39942 19.7856 9.5833 19.5937 9.5833 19.357C9.5833 19.1203 9.39942 18.9285 9.17259 18.9285Z" fill="#5B6071"/>
<path d="M5.88688 18.9285H4.24403C4.0172 18.9285 3.83331 19.1204 3.83331 19.3571C3.83331 19.5938 4.0172 19.7857 4.24403 19.7857H5.88688C6.11372 19.7857 6.2976 19.5938 6.2976 19.3571C6.2976 19.1204 6.11372 18.9285 5.88688 18.9285Z" fill="#5B6071"/>
<path d="M9.1726 17.2142H4.24403C4.0172 17.2142 3.83331 17.4061 3.83331 17.6428C3.83331 17.8795 4.0172 18.0714 4.24403 18.0714H9.1726C9.39943 18.0714 9.58331 17.8795 9.58331 17.6428C9.58331 17.4061 9.39943 17.2142 9.1726 17.2142Z" fill="#5B6071"/>
<path d="M14.1012 15.5001H6.70832C6.48149 15.5001 6.29761 15.692 6.29761 15.9287C6.29761 16.1654 6.48149 16.3573 6.70832 16.3573H14.1012C14.328 16.3573 14.5119 16.1654 14.5119 15.9287C14.5119 15.692 14.328 15.5001 14.1012 15.5001Z" fill="#5B6071"/>
<path d="M5.06546 15.5001H4.24403C4.0172 15.5001 3.83331 15.6919 3.83331 15.9286C3.83331 16.1653 4.0172 16.3572 4.24403 16.3572H5.06546C5.29229 16.3572 5.47617 16.1653 5.47617 15.9286C5.47617 15.6919 5.29229 15.5001 5.06546 15.5001Z" fill="#5B6071"/>
<path d="M16.5654 13.7857H14.1011C13.8743 13.7857 13.6904 13.9776 13.6904 14.2143C13.6904 14.451 13.8743 14.6428 14.1011 14.6428H16.5654C16.7923 14.6428 16.9761 14.451 16.9761 14.2143C16.9761 13.9776 16.7923 13.7857 16.5654 13.7857Z" fill="#5B6071"/>
<path d="M12.4583 13.7857H9.17262C8.94578 13.7857 8.7619 13.9776 8.7619 14.2143C8.7619 14.451 8.94578 14.6428 9.17262 14.6428H12.4583C12.6852 14.6428 12.869 14.451 12.869 14.2143C12.869 13.9776 12.6852 13.7857 12.4583 13.7857Z" fill="#5B6071"/>
<path d="M7.52974 13.7858H4.24403C4.0172 13.7858 3.83331 13.9776 3.83331 14.2143C3.83331 14.451 4.0172 14.6429 4.24403 14.6429H7.52974C7.75657 14.6429 7.94046 14.451 7.94046 14.2143C7.94046 13.9776 7.75657 13.7858 7.52974 13.7858Z" fill="#5B6071"/>
<path d="M17.3869 12.0714H10.8154C10.5886 12.0714 10.4047 12.2633 10.4047 12.5C10.4047 12.7367 10.5886 12.9286 10.8154 12.9286H17.3869C17.6137 12.9286 17.7976 12.7367 17.7976 12.5C17.7976 12.2633 17.6137 12.0714 17.3869 12.0714Z" fill="#5B6071"/>
<path d="M9.17261 12.0714H6.70832C6.48149 12.0714 6.29761 12.2633 6.29761 12.5C6.29761 12.7367 6.48149 12.9286 6.70832 12.9286H9.17261C9.39944 12.9286 9.58332 12.7367 9.58332 12.5C9.58332 12.2633 9.39944 12.0714 9.17261 12.0714Z" fill="#5B6071"/>
<path d="M5.06546 12.0714H4.24403C4.0172 12.0714 3.83331 12.2633 3.83331 12.5C3.83331 12.7367 4.0172 12.9286 4.24403 12.9286H5.06546C5.29229 12.9286 5.47617 12.7367 5.47617 12.5C5.47617 12.2633 5.29229 12.0714 5.06546 12.0714Z" fill="#5B6071"/>
<path d="M18.2083 10.3571H14.1011C13.8743 10.3571 13.6904 10.5489 13.6904 10.7856C13.6904 11.0223 13.8743 11.2142 14.1011 11.2142H18.2083C18.4351 11.2142 18.619 11.0223 18.619 10.7856C18.619 10.5489 18.4351 10.3571 18.2083 10.3571Z" fill="#5B6071"/>
<path d="M7.52974 10.3571H4.24403C4.0172 10.3571 3.83331 10.549 3.83331 10.7857C3.83331 11.0224 4.0172 11.2143 4.24403 11.2143H7.52974C7.75657 11.2143 7.94046 11.0224 7.94046 10.7857C7.94046 10.549 7.75657 10.3571 7.52974 10.3571Z" fill="#5B6071"/>
<path d="M18.2083 8.64282H14.1011C13.8743 8.64282 13.6904 8.8347 13.6904 9.07139C13.6904 9.30809 13.8743 9.49997 14.1011 9.49997H18.2083C18.4351 9.49997 18.619 9.30809 18.619 9.07139C18.619 8.8347 18.4351 8.64282 18.2083 8.64282Z" fill="#5B6071"/>
<path d="M7.52974 8.64282H4.24403C4.0172 8.64282 3.83331 8.8347 3.83331 9.07139C3.83331 9.30809 4.0172 9.49997 4.24403 9.49997H7.52974C7.75657 9.49997 7.94046 9.30809 7.94046 9.07139C7.94046 8.8347 7.75657 8.64282 7.52974 8.64282Z" fill="#5B6071"/>
<path d="M17.3869 6.92859H16.5654C16.3386 6.92859 16.1547 7.12047 16.1547 7.35716C16.1547 7.59385 16.3386 7.78573 16.5654 7.78573H17.3869C17.6137 7.78573 17.7976 7.59385 17.7976 7.35716C17.7976 7.12047 17.6137 6.92859 17.3869 6.92859Z" fill="#5B6071"/>
<path d="M14.9226 6.92859H11.6369C11.4101 6.92859 11.2262 7.12047 11.2262 7.35716C11.2262 7.59385 11.4101 7.78573 11.6369 7.78573H14.9226C15.1495 7.78573 15.3333 7.59385 15.3333 7.35716C15.3333 7.12047 15.1495 6.92859 14.9226 6.92859Z" fill="#5B6071"/>
<path d="M9.99403 6.92859H4.24403C4.0172 6.92859 3.83331 7.12047 3.83331 7.35716C3.83331 7.59385 4.0172 7.78573 4.24403 7.78573H9.99403C10.2209 7.78573 10.4047 7.59385 10.4047 7.35716C10.4047 7.12047 10.2209 6.92859 9.99403 6.92859Z" fill="#5B6071"/>
<path d="M16.5654 5.21423H8.35114C8.12431 5.21423 7.94043 5.40611 7.94043 5.6428C7.94043 5.8795 8.12431 6.07138 8.35114 6.07138H16.5654C16.7923 6.07138 16.9761 5.8795 16.9761 5.6428C16.9761 5.40611 16.7923 5.21423 16.5654 5.21423Z" fill="#5B6071"/>
<path d="M6.70831 5.21429H4.24403C4.0172 5.21429 3.83331 5.40617 3.83331 5.64287C3.83331 5.87956 4.0172 6.07144 4.24403 6.07144H6.70831C6.93514 6.07144 7.11903 5.87956 7.11903 5.64287C7.11903 5.40617 6.93514 5.21429 6.70831 5.21429Z" fill="#5B6071"/>
<path d="M14.1012 3.5H4.24403C4.0172 3.5 3.83331 3.69188 3.83331 3.92857C3.83331 4.16526 4.0172 4.35714 4.24403 4.35714H14.1012C14.328 4.35714 14.5119 4.16526 14.5119 3.92857C14.5119 3.69188 14.328 3.5 14.1012 3.5Z" fill="#5B6071"/>
</svg>
