<svg width="24" height="24" viewBox="0 0 24 24" fill="none" xmlns="http://www.w3.org/2000/svg">
<path d="M12 15.385C12.4698 16.0957 13.1099 16.6777 13.862 17.078L12 18.94L10.138 17.078C10.8918 16.6801 11.5324 16.0976 12 15.385ZM16.232 11.322C15.783 11.322 15.3524 11.5004 15.0349 11.8179C14.7174 12.1354 14.539 12.566 14.539 13.015C14.539 13.464 14.7174 13.8946 15.0349 14.2121C15.3524 14.5296 15.783 14.708 16.232 14.708C16.4543 14.708 16.6745 14.6642 16.8799 14.5791C17.0853 14.494 17.2719 14.3693 17.4291 14.2121C17.5863 14.0549 17.711 13.8683 17.7961 13.6629C17.8812 13.4575 17.925 13.2373 17.925 13.015C17.925 12.075 17.163 11.322 16.232 11.322ZM7.76799 11.322C7.31898 11.322 6.88836 11.5004 6.57086 11.8179C6.25336 12.1354 6.07499 12.566 6.07499 13.015C6.07499 13.464 6.25336 13.8946 6.57086 14.2121C6.88836 14.5296 7.31898 14.708 7.76799 14.708C8.21701 14.708 8.64763 14.5296 8.96513 14.2121C9.28263 13.8946 9.46099 13.464 9.46099 13.015C9.46099 12.075 8.69899 11.322 7.76799 11.322ZM16.232 9.206C16.6766 9.206 17.1169 9.29358 17.5276 9.46376C17.9384 9.63393 18.3116 9.88336 18.6259 10.1978C18.9402 10.5122 19.1896 10.8855 19.3596 11.2963C19.5297 11.7071 19.6171 12.1474 19.617 12.592C19.617 13.0365 19.5294 13.4767 19.3593 13.8874C19.1892 14.2981 18.9399 14.6712 18.6256 14.9856C18.3112 15.2999 17.9381 15.5492 17.5274 15.7193C17.1167 15.8894 16.6765 15.977 16.232 15.977C15.7874 15.9771 15.3471 15.8897 14.9363 15.7196C14.5255 15.5496 14.1522 15.3002 13.8378 14.9859C13.5234 14.6716 13.2739 14.2984 13.1038 13.8876C12.9336 13.4769 12.846 13.0366 12.846 12.592C12.8459 12.1473 12.9334 11.7069 13.1035 11.2961C13.2736 10.8852 13.523 10.5119 13.8374 10.1974C14.1519 9.88299 14.5252 9.63359 14.9361 9.46347C15.3469 9.29336 15.7873 9.20586 16.232 9.206ZM7.76799 9.206C8.21269 9.20586 8.65305 9.29336 9.06392 9.46347C9.47478 9.63359 9.84811 9.88299 10.1626 10.1974C10.477 10.5119 10.7264 10.8852 10.8965 11.2961C11.0666 11.7069 11.1541 12.1473 11.154 12.592C11.154 13.0366 11.0664 13.4769 10.8962 13.8876C10.7261 14.2984 10.4766 14.6716 10.1622 14.9859C9.84776 15.3002 9.47449 15.5496 9.06368 15.7196C8.65288 15.8897 8.2126 15.9771 7.76799 15.977C6.87024 15.977 6.00925 15.6204 5.37444 14.9856C4.73963 14.3507 4.38299 13.4898 4.38299 12.592C4.38286 12.1474 4.47032 11.7071 4.64038 11.2963C4.81043 10.8855 5.05974 10.5122 5.37408 10.1978C5.68842 9.88336 6.06163 9.63393 6.47238 9.46376C6.88313 9.29358 7.32339 9.206 7.76799 9.206ZM3.73999 2.69C5.22999 5.822 4.15499 8.158 3.15599 10.477C2.85124 11.1409 2.69266 11.8625 2.69099 12.593C2.69099 13.9398 3.226 15.2314 4.17831 16.1837C5.13062 17.136 6.42222 17.671 7.76899 17.671C7.94723 17.6655 8.1251 17.6515 8.30199 17.629L10.808 20.134L12 21.31L13.194 20.133L15.699 17.628C15.877 17.653 16.054 17.662 16.232 17.67C17.5788 17.67 18.8704 17.135 19.8227 16.1827C20.775 15.2304 21.31 13.9388 21.31 12.592C21.3083 11.8615 21.1497 11.1399 20.845 10.476C19.846 8.157 18.771 5.821 20.261 2.689C18.026 4.433 14.844 5.812 12.001 5.821C9.15599 5.813 5.97399 4.433 3.73999 2.689V2.69Z" fill="#5B6071"/>
</svg>
