<svg width="24" height="24" viewBox="0 0 24 24" fill="none" xmlns="http://www.w3.org/2000/svg">
<path d="M23.5853 9.22751L19.0594 4.69919L17.8387 5.92031L21.7538 9.83759L17.8387 13.7544L19.0594 14.9753L23.5853 10.4486C23.6658 10.3684 23.7296 10.273 23.773 10.1679C23.8165 10.0629 23.8387 9.9503 23.8385 9.83663C23.8386 9.72338 23.8162 9.61123 23.7728 9.50665C23.7293 9.40207 23.6656 9.30736 23.5853 9.22751ZM6.16224 10.2465L4.94088 9.02519L0.413521 13.5523C0.333211 13.6324 0.269618 13.7276 0.226439 13.8325C0.18326 13.9373 0.161356 14.0497 0.162001 14.1631C0.162001 14.3937 0.251041 14.6105 0.413521 14.7732L4.94088 19.3008L6.16224 18.0799L2.2452 14.1631L6.16224 10.2465Z" fill="#5B6071"/>
<path d="M16.9777 8.53067L15.1301 6.80603H7.01321L8.86082 8.53067H16.9777ZM15.1301 12.858L16.9777 11.1305H8.86082L7.01321 12.858H15.1301ZM16.9777 17.1824L15.1301 15.4549H7.01321L8.86082 17.1824H16.9777Z" fill="#5B6071"/>
</svg>
