<svg width="24" height="25" viewBox="0 0 24 25" fill="none" xmlns="http://www.w3.org/2000/svg">
<path d="M13.425 3C14.7208 3 15.7713 4.05043 15.7713 5.34621L15.7706 5.85H19.125C19.6497 5.85 20.075 6.27533 20.075 6.8L20.0741 10.124L18.6213 10.125C17.3773 10.125 16.3595 11.093 16.2801 12.3169L16.275 12.4712V12.5288C16.275 13.7727 17.2431 14.7905 18.467 14.87L18.6213 14.875L20.0741 14.874L20.075 18.2028C20.075 18.7274 19.6497 19.1528 19.125 19.1528L15.7706 19.1519L15.7713 19.6538C15.7713 20.9496 14.7208 22 13.425 22C12.1292 22 11.0788 20.9496 11.0788 19.6538L11.0785 19.1519L7.72505 19.1528C7.20038 19.1528 6.77505 18.7274 6.77505 18.2028L6.7741 14.8474L6.27126 14.8476C4.97548 14.8476 3.92505 13.7971 3.92505 12.5014C3.92505 11.2056 4.97548 10.1552 6.27126 10.1552L6.7741 10.1545L6.77505 6.8C6.77505 6.27533 7.20038 5.85 7.72505 5.85H11.0785L11.0788 5.34621C11.0788 4.05043 12.1292 3 13.425 3Z" stroke="#5B6071" stroke-width="2" stroke-linejoin="round"/>
</svg>
