<svg width="24" height="24" viewBox="0 0 24 24" fill="none" xmlns="http://www.w3.org/2000/svg">
<path d="M19.5127 17.8937C20.7875 16.2706 21.5478 14.2241 21.5478 12.0001C21.5478 6.72651 17.2733 2.45154 12.0001 2.45154C10.8531 2.45154 9.75336 2.65402 8.7345 3.02489C12.6107 5.0584 17.7378 11.6929 19.5127 17.8939V17.8937Z" fill="#5B6071"/>
<path d="M10.6325 8.54236C9.14306 6.93766 7.47512 5.66325 5.70868 4.81802C3.71279 6.56819 2.45227 9.13676 2.45227 11.9999C2.45227 14.4075 3.34355 16.6066 4.8137 18.2862C6.10972 14.3919 8.54619 10.6387 10.6327 8.54217L10.6325 8.54236ZM12.3919 10.7076C10.3249 12.9355 8.26526 16.8354 7.51982 20.4335C8.85598 21.1449 10.3808 21.5487 12.0003 21.5487C13.6652 21.5487 15.2302 21.1222 16.5929 20.373C15.8075 16.7434 14.3248 13.4193 12.3923 10.7074L12.3919 10.7076Z" fill="#5B6071"/>
</svg>
