<svg width="24" height="24" viewBox="0 0 24 24" fill="none" xmlns="http://www.w3.org/2000/svg">
<path d="M4.49111 6.36835H2.61389V19.5089C2.61389 20.5461 3.45395 21.3861 4.49111 21.3861H17.6317V19.5089H4.49111V6.36835Z" fill="#5B6071"/>
<path d="M19.5089 2.61392H8.24557C7.2084 2.61392 6.36835 3.45398 6.36835 4.49114V15.7545C6.36835 16.7916 7.2084 17.6317 8.24557 17.6317H19.5089C20.5461 17.6317 21.3861 16.7916 21.3861 15.7545V4.49114C21.3861 3.45398 20.5461 2.61392 19.5089 2.61392ZM13.1048 12.7218C13.6764 13.3413 14.4723 13.6632 15.5104 13.6707L16.5804 13.5741C16.9268 13.5093 17.2159 13.4211 17.4571 13.3169L17.795 15.2795C17.5857 15.3922 17.2478 15.4963 16.7972 15.593C16.3392 15.6981 15.8004 15.7545 15.181 15.7545C13.4032 15.7225 12.0676 15.1913 11.174 14.1776C10.257 13.1555 9.82243 11.8602 9.82243 10.2918C9.85435 8.4333 10.4016 7.00943 11.4641 6.01169C12.4937 5.00644 13.8125 4.49114 15.4062 4.49114C16.0097 4.49114 16.5326 4.54746 16.9671 4.64414C17.4017 4.74081 17.7237 4.845 17.933 4.96608L17.4496 6.96907L16.6133 6.69594C16.2913 6.61522 15.9131 6.57486 15.4869 6.57486C14.5615 6.56641 13.789 6.86489 13.1864 7.45997C12.5754 8.04754 12.2694 8.9486 12.2375 10.1472C12.244 11.2407 12.5341 12.0939 13.1048 12.7218Z" fill="#5B6071"/>
</svg>
