<svg width="24" height="24" viewBox="0 0 24 24" fill="none" xmlns="http://www.w3.org/2000/svg">
<path fill-rule="evenodd" clip-rule="evenodd" d="M15.8781 15.7869C16.6201 15.7101 17.183 15.0704 17.1574 14.3028C17.1318 13.5352 16.4922 12.9211 15.7245 12.9211H15.6734C14.8802 12.9467 14.2661 13.612 14.2917 14.4052C14.3173 14.789 14.4708 15.1216 14.7011 15.3519C13.8311 17.0662 12.5006 18.32 10.5048 19.369C9.14869 20.0855 7.7414 20.3413 6.33412 20.1622C5.1827 20.0087 4.28716 19.497 3.72425 18.6526C2.90546 17.3988 2.8287 16.0427 3.51955 14.6866C4.0057 13.7143 4.77331 12.9979 5.25947 12.6397C5.15712 12.307 5.0036 11.7441 4.92683 11.3347C1.21672 14.0214 1.60052 17.6547 2.72635 19.369C3.57072 20.6484 5.28505 21.4416 7.17849 21.4416C7.69023 21.4416 8.20197 21.3904 8.71371 21.2625C11.9888 20.6228 14.4708 18.6782 15.8781 15.7869Z" fill="#5B6071" stroke="#5B6071" stroke-width="0.435465" stroke-linejoin="round"/>
<path fill-rule="evenodd" clip-rule="evenodd" d="M20.3814 12.6141C18.4368 10.3369 15.571 9.0831 12.2959 9.0831H11.8865C11.6562 8.62253 11.1701 8.31549 10.6327 8.31549H10.5816C9.78837 8.34108 9.17428 9.00634 9.19987 9.79954C9.22546 10.5671 9.86513 11.1812 10.6327 11.1812H10.6839C11.2468 11.1556 11.733 10.7974 11.9377 10.3113H12.3982C14.3429 10.3113 16.1851 10.8742 17.8483 11.9744C19.1276 12.8188 20.0488 13.919 20.5605 15.2496C20.9955 16.3242 20.9699 17.3733 20.5093 18.2688C19.7929 19.6249 18.5903 20.367 17.0039 20.367C15.9804 20.367 15.0081 20.0599 14.4964 19.8296C14.2149 20.0855 13.7032 20.4949 13.345 20.7508C14.4452 21.2625 15.571 21.544 16.6457 21.544C19.102 21.544 20.9187 20.1879 21.6096 18.8317C22.3516 17.3477 22.3004 14.789 20.3814 12.6141Z" fill="#5B6071" stroke="#5B6071" stroke-width="0.435465" stroke-linejoin="round"/>
<path fill-rule="evenodd" clip-rule="evenodd" d="M7.38318 16.2219C7.40877 16.9895 8.04844 17.6036 8.81605 17.6036H8.86723C9.66042 17.578 10.2745 16.9127 10.2489 16.1195C10.2233 15.3519 9.58366 14.7378 8.81605 14.7378H8.76488C8.7137 14.7378 8.63694 14.7378 8.58577 14.7634C7.5367 13.0235 7.10172 11.13 7.25525 9.08309C7.35759 7.54787 7.86933 6.21734 8.76488 5.1171C9.5069 4.17038 10.9398 3.70982 11.9121 3.68423C14.6243 3.63306 15.7757 7.01054 15.8525 8.36665C16.1851 8.44341 16.748 8.62252 17.1318 8.75046C16.8248 4.60536 14.2661 2.45605 11.8097 2.45605C9.5069 2.45605 7.38318 4.11921 6.53881 6.57556C5.36181 9.8507 6.12942 12.9979 7.56229 15.4798C7.43435 15.6589 7.35759 15.9404 7.38318 16.2219Z" fill="#5B6071" stroke="#5B6071" stroke-width="0.435465" stroke-linejoin="round"/>
</svg>
