<svg width="24" height="24" viewBox="0 0 24 24" fill="none" xmlns="http://www.w3.org/2000/svg">
<path d="M12.87 2.68701C17.734 2.68701 20.152 4.96701 20.152 8.61001C20.152 11.335 18.45 13.112 16.152 13.408C18.092 13.793 19.226 14.888 19.436 17.051L19.466 17.449L19.493 17.821L19.515 18.168L19.531 18.43L19.548 18.74L19.557 18.917L19.569 19.197L19.579 19.462L19.585 19.613L19.591 19.857L19.597 20.137L19.599 20.271L19.603 20.662V21.313H14.588V21.211L14.59 21.014L14.593 20.821L14.603 20.356L14.604 20.2L14.606 19.955V19.8L14.604 19.635L14.602 19.506L14.598 19.326L14.592 19.135L14.584 18.931L14.574 18.715L14.568 18.601L14.558 18.423L14.545 18.237L14.527 17.973L14.512 17.763C14.5075 17.6996 14.5022 17.6363 14.496 17.573L14.483 17.452C14.317 16.02 13.741 15.435 12.753 15.239L12.67 15.224C12.6125 15.2141 12.5549 15.2054 12.497 15.198L12.409 15.188C12.3937 15.1863 12.3783 15.1846 12.363 15.183L12.273 15.176L12.178 15.169L12.082 15.164L11.986 15.16L11.887 15.158L11.787 15.156H3.847V11.276H11.975C12.108 11.276 12.237 11.275 12.362 11.269L12.485 11.263L12.605 11.256L12.724 11.246L12.782 11.241L12.895 11.229C12.97 11.219 13.043 11.21 13.115 11.199L13.22 11.18C14.539 10.946 15.198 10.256 15.198 8.91001C15.198 7.40001 14.124 6.48401 11.976 6.48401H3.848V2.68701H12.87ZM9.151 18.42C9.81 18.42 10.084 18.78 10.183 19.125L10.195 19.175L10.206 19.224L10.213 19.262L10.216 19.28L10.221 19.32L10.225 19.357L10.226 19.374L10.228 19.41L10.229 19.428V21.313H3.848V18.42H9.151Z" fill="#5B6071"/>
</svg>
