<svg width="24" height="24" viewBox="0 0 24 24" fill="none" xmlns="http://www.w3.org/2000/svg">
<path d="M13.061 3.72198L12.354 3.01498C12.1665 2.8275 11.9122 2.72219 11.647 2.72219C11.3818 2.72219 11.1275 2.8275 10.94 3.01498L2.454 11.5C2.26653 11.6875 2.16121 11.9418 2.16121 12.207C2.16121 12.4721 2.26653 12.7264 2.454 12.914L5.283 15.743C5.47053 15.9304 5.72483 16.0358 5.99 16.0358C6.25516 16.0358 6.50947 15.9304 6.697 15.743L15.182 7.25698C15.3695 7.06945 15.4748 6.81514 15.4748 6.54998C15.4748 6.28481 15.3695 6.0305 15.182 5.84298L14.475 5.13598L15.182 4.42898L18.011 7.25698L10.94 14.328L18.718 22.107C18.9055 22.2944 19.1598 22.3998 19.425 22.3998C19.6902 22.3998 19.9445 22.2944 20.132 22.107L21.546 20.692C21.7335 20.5044 21.8388 20.2501 21.8388 19.985C21.8388 19.7198 21.7335 19.4655 21.546 19.278L15.182 12.914L20.839 7.25698L15.182 1.59998L13.061 3.72198Z" fill="#5B6071"/>
</svg>
