<svg width="24" height="24" viewBox="0 0 24 24" fill="none" xmlns="http://www.w3.org/2000/svg">
<path d="M5.34 2.59723C4.6905 2.59723 4.164 3.12298 4.164 3.77248V7.69048C4.164 8.33923 4.6905 8.86573 5.34 8.86573H12V3.77248C12 3.12298 11.4735 2.59723 10.8247 2.59723H5.34ZM12 8.86498V15.1335H18.66C19.3095 15.1335 19.836 14.607 19.836 13.9582V10.0402C19.836 9.39148 19.3095 8.86498 18.66 8.86498H12ZM12 15.1335H5.34C4.6905 15.1335 4.164 15.66 4.164 16.3087V20.2267C4.164 20.8755 4.6905 21.402 5.34 21.402H10.8247C11.4735 21.402 12 20.8755 12 20.2267V15.1335Z" fill="#5B6071"/>
</svg>
