<svg width="24" height="25" viewBox="0 0 24 25" fill="none" xmlns="http://www.w3.org/2000/svg">
<path d="M8.58742 3.01065C6.05494 3.01065 4.78846 3.01089 3.90142 3.65649C3.61517 3.86385 3.36378 4.11548 3.1567 4.40193C2.51062 5.28873 2.51062 6.55473 2.51062 9.09081V15.9087C2.51062 18.4412 2.51062 19.7065 3.15622 20.5943C3.36417 20.8812 3.61559 21.1339 3.90142 21.3433C4.78822 21.9891 6.05494 21.9891 8.58742 21.9891H15.4087C17.9412 21.9891 19.2065 21.9891 20.0942 21.3433C20.3805 21.1331 20.633 20.8805 20.8433 20.5943C21.4893 19.7077 21.4893 18.4415 21.4893 15.9087V9.09081C21.4884 6.55473 21.4884 5.28873 20.8433 4.40193C20.6339 4.11604 20.3813 3.86454 20.0945 3.65649C19.2077 3.01089 17.9417 3.01065 15.4087 3.01065H8.58742ZM8.9671 4.06809H15.029C17.2797 4.06809 18.4046 4.06785 19.1925 4.64145C19.4474 4.82633 19.6718 5.04981 19.8578 5.30385C20.4309 6.09177 20.4309 7.21737 20.4319 9.47097V15.5288C20.4319 17.7793 20.4319 18.9044 19.8578 19.6923C19.6711 19.9465 19.4467 20.1707 19.1925 20.3574C18.4037 20.9312 17.2795 20.9317 15.029 20.9317H8.9671C6.71662 20.9317 5.59174 20.9312 4.80358 20.3574C4.54956 20.1715 4.32608 19.9471 4.14118 19.6923C3.56758 18.9035 3.56806 17.7791 3.56806 15.5288V9.47097C3.56806 7.21737 3.56734 6.09177 4.14118 5.30385C4.32538 5.04926 4.54899 4.82565 4.80358 4.64145C5.59174 4.06785 6.71662 4.06809 8.9671 4.06809Z" fill="#5B6071"/>
<path d="M9.51333 7.61431C8.79909 7.61431 8.43957 7.61431 8.16765 7.75207C7.92721 7.8752 7.73158 8.07084 7.60845 8.31128C7.47021 8.58367 7.46997 8.94271 7.46997 9.66031V15.919C7.46997 16.5126 7.47045 16.813 7.56717 17.0475C7.6967 17.3598 7.94486 17.608 8.25717 17.7375C8.49141 17.834 8.79189 17.834 9.38517 17.834C9.98253 17.834 10.2792 17.834 10.5137 17.7375C10.8261 17.6079 11.0742 17.3595 11.2037 17.047C11.3001 16.8128 11.3001 16.5126 11.3001 15.919V7.61407L9.51333 7.61431ZM15.3722 7.68944C14.7804 7.69808 14.2158 7.93923 13.8003 8.36079C13.3849 8.78235 13.152 9.35046 13.152 9.94232C13.152 10.5342 13.3849 11.1023 13.8003 11.5238C14.2158 11.9454 14.7804 12.1866 15.3722 12.1952H15.3751C15.9722 12.1948 16.5446 11.9573 16.9666 11.5348C17.3885 11.1124 17.6254 10.5396 17.6251 9.94256C17.6251 9.64667 17.5669 9.35368 17.4537 9.08031C17.3405 8.80693 17.1745 8.55853 16.9653 8.34929C16.7561 8.14004 16.5078 7.97405 16.2344 7.8608C15.9611 7.74754 15.6681 7.68948 15.3722 7.68944Z" fill="#5B6071"/>
</svg>
