<svg width="24" height="24" viewBox="0 0 24 24" fill="none" xmlns="http://www.w3.org/2000/svg">
<path d="M21.3102 7.57322C21.204 6.90434 20.8016 6.30634 20.2057 5.96218L13.1479 1.88722C12.8037 1.68858 12.4117 1.58362 12.0144 1.58362C11.6171 1.58362 11.2252 1.68858 10.8811 1.88706L3.82344 5.96194C3.12408 6.36594 2.68976 7.1181 2.68976 7.9253V16.0746C2.68976 16.8818 3.12408 17.634 3.8232 18.0378L10.8809 22.1126C11.2253 22.3114 11.6173 22.4163 12.0145 22.4163C12.4117 22.4163 12.8035 22.3114 13.1478 22.1127L20.2054 18.038C20.8016 17.6935 21.2042 17.0956 21.3102 16.4267V7.57322ZM19.513 16.8386L12.4554 20.9131C12.3213 20.9905 12.1692 21.0313 12.0143 21.0313C11.8594 21.0313 11.7073 20.9905 11.5732 20.9131L4.51568 16.8386C4.38159 16.7611 4.27025 16.6498 4.19283 16.5156C4.11542 16.3815 4.07465 16.2294 4.07464 16.0746V7.9253C4.07465 7.77045 4.11542 7.61833 4.19283 7.48423C4.27025 7.35012 4.38159 7.23875 4.51568 7.1613L11.5732 3.08658C11.7096 3.0077 11.862 2.96842 12.0143 2.96842C12.1666 2.96842 12.319 3.0077 12.4554 3.08658L19.513 7.1613C19.6471 7.23873 19.7584 7.35009 19.8358 7.4842C19.9133 7.61832 19.954 7.77045 19.954 7.9253V16.0746C19.954 16.2294 19.9132 16.3815 19.8358 16.5156C19.7584 16.6498 19.647 16.7611 19.513 16.8386Z" fill="#5B6071"/>
<path d="M19.9543 7.92532C19.9543 7.77048 19.9135 7.61836 19.8361 7.48425C19.7587 7.35015 19.6474 7.23878 19.5133 7.16132L12.4558 3.0866C12.3194 3.00772 12.167 2.96844 12.0146 2.96844C11.8623 2.96844 11.7099 3.00772 11.5735 3.0866L4.516 7.16132C4.38189 7.23875 4.27053 7.35012 4.19311 7.48423C4.11569 7.61834 4.07494 7.77047 4.07496 7.92532V16.0746C4.07497 16.2295 4.11574 16.3816 4.19315 16.5157C4.27057 16.6498 4.38191 16.7612 4.516 16.8386L11.5735 20.9131C11.7076 20.9906 11.8598 21.0313 12.0146 21.0313C12.1695 21.0313 12.3217 20.9906 12.4558 20.9131L19.5133 16.8386C19.6474 16.7612 19.7587 16.6498 19.8361 16.5157C19.9135 16.3816 19.9543 16.2295 19.9543 16.0746V7.92532ZM14.8654 11.3728C14.8783 11.3652 14.8918 11.36 14.9051 11.3565C14.9099 11.3552 14.9147 11.3555 14.9194 11.3546C14.9277 11.3532 14.9359 11.3514 14.9442 11.3514L14.9458 11.3516C14.948 11.3516 14.9499 11.352 14.9522 11.3522C14.9623 11.3528 14.9722 11.3543 14.9819 11.3565C14.9855 11.3575 14.9891 11.3587 14.9928 11.3598C15.0012 11.3625 15.0091 11.366 15.0171 11.3702C15.0202 11.3716 15.0233 11.3731 15.0262 11.3748C15.0365 11.381 15.0462 11.3881 15.0549 11.3964C15.0557 11.3973 15.0562 11.3984 15.0571 11.3991C15.0647 11.4068 15.0716 11.4154 15.0776 11.4247C15.0795 11.4279 15.0812 11.4311 15.083 11.4344C15.0874 11.4423 15.0909 11.4505 15.0938 11.4594C15.0951 11.463 15.0962 11.4664 15.0973 11.4701C15.1003 11.4827 15.1026 11.4956 15.1026 11.5094V13.2732L14.7459 13.4792C14.7114 13.4996 14.6852 13.5316 14.6722 13.5696C14.6654 13.5875 14.6618 13.6064 14.6614 13.6255V14.0373L13.1339 14.9192C13.1336 14.9194 13.1331 14.9194 13.1328 14.9196C13.1202 14.9267 13.1072 14.932 13.0943 14.9355C13.0894 14.9368 13.0845 14.9367 13.0796 14.9375C13.0716 14.9388 13.0633 14.9407 13.0551 14.9407L13.0536 14.9405C13.0514 14.9404 13.0494 14.94 13.0472 14.9399C13.0372 14.9393 13.0272 14.9378 13.0175 14.9354C13.0138 14.9345 13.0103 14.9333 13.0066 14.9321C12.9982 14.9295 12.9901 14.926 12.9823 14.9219C12.9791 14.9203 12.9762 14.9189 12.9732 14.9171C12.9629 14.911 12.9533 14.9038 12.9446 14.8956C12.9436 14.8948 12.943 14.8935 12.9421 14.8926C12.9345 14.8849 12.9278 14.8765 12.9219 14.8674C12.9198 14.8642 12.9182 14.8608 12.9163 14.8576C12.9121 14.8496 12.9085 14.8413 12.9058 14.8327C12.9044 14.829 12.9032 14.8254 12.9022 14.8216C12.8988 14.8089 12.897 14.7958 12.8969 14.7827V12.6004C12.8969 12.5727 12.9042 12.5455 12.918 12.5215C12.9319 12.4976 12.9519 12.4777 12.9759 12.4639L14.8654 11.3728ZM11.9356 4.91484C11.9596 4.90094 11.9869 4.89361 12.0146 4.89361C12.0423 4.89361 12.0696 4.90094 12.0936 4.91484L17.071 7.78868C17.1762 7.8494 17.1762 8.00132 17.071 8.06204L15.1814 9.15317C15.1573 9.167 15.1301 9.17428 15.1023 9.17428C15.0746 9.17428 15.0473 9.167 15.0233 9.15317L13.3377 8.17996L13.5257 8.07164C13.6382 8.00652 13.6382 7.84404 13.5257 7.77908L12.099 6.9554C12.073 6.9402 12.0438 6.93285 12.0146 6.93285C11.9855 6.93285 11.9564 6.94028 11.9303 6.9554L11.5736 7.16132L10.0461 6.27948C9.9408 6.21868 9.9408 6.06692 10.0461 6.00604L11.9356 4.91484ZM8.9268 6.67644C8.95416 6.67644 8.98136 6.68356 9.00584 6.69756L10.6914 7.67061L10.5034 7.77908C10.3909 7.84404 10.3909 8.00652 10.5034 8.07164L10.6914 8.17996L9.006 9.15317C8.98196 9.16699 8.95472 9.17426 8.927 9.17426C8.89927 9.17426 8.87203 9.16699 8.848 9.15317L6.95832 8.06196C6.85296 8.00132 6.85296 7.8494 6.95832 7.78868L8.84792 6.69756C8.87248 6.68356 8.8996 6.67644 8.9268 6.67644ZM7.88664 16.7232C7.85898 16.7231 7.83184 16.7158 7.80792 16.7019L5.91832 15.6109C5.89431 15.5971 5.87437 15.5772 5.86049 15.5532C5.84662 15.5292 5.8393 15.502 5.83928 15.4743V9.72684C5.83928 9.6346 5.9148 9.56869 5.99728 9.56869C6.02368 9.56869 6.05064 9.5754 6.07608 9.59012L7.96576 10.681C8.01464 10.7093 8.0448 10.7613 8.0448 10.8178V12.764L7.8568 12.6556C7.8296 12.6398 7.8008 12.6328 7.7728 12.6328C7.75058 12.6327 7.72858 12.6371 7.70805 12.6455C7.68752 12.654 7.66886 12.6665 7.65315 12.6822C7.63744 12.6979 7.62498 12.7165 7.61649 12.7371C7.608 12.7576 7.60365 12.7796 7.60368 12.8018V14.4492C7.60368 14.5096 7.63568 14.5653 7.688 14.5955L8.04464 14.8016V16.5653C8.0448 16.6573 7.96912 16.7232 7.88664 16.7232ZM11.1324 18.3477C11.1324 18.3754 11.1251 18.4026 11.1112 18.4266C11.0973 18.4506 11.0774 18.4705 11.0534 18.4844C11.0294 18.4982 11.0022 18.5056 10.9745 18.5056C10.9468 18.5056 10.9196 18.4983 10.8956 18.4845L9.006 17.3936C8.98198 17.3797 8.96203 17.3598 8.94815 17.3358C8.93428 17.3117 8.92697 17.2845 8.92696 17.2568V15.3106L9.1148 15.419C9.142 15.4348 9.1708 15.442 9.19888 15.442C9.28712 15.442 9.368 15.3714 9.368 15.2727V15.0559L11.0534 16.0289C11.1022 16.0572 11.1324 16.1092 11.1324 16.1657V18.3477ZM11.1324 14.7821C11.1324 14.7959 11.1302 14.8088 11.1271 14.8212C11.1262 14.8251 11.1248 14.8285 11.1236 14.8322C11.1208 14.841 11.1172 14.8493 11.1129 14.8572C11.111 14.8604 11.1094 14.8638 11.1074 14.8669C11.1013 14.8762 11.0946 14.8848 11.087 14.8925C11.0861 14.8933 11.0854 14.8944 11.0846 14.8952C11.0759 14.9035 11.0663 14.9107 11.0559 14.9168C11.0531 14.9186 11.0499 14.92 11.047 14.9216C11.0358 14.9274 11.024 14.9319 11.0118 14.9351C11.0018 14.9376 10.9918 14.9391 10.9815 14.9396C10.9795 14.9396 10.9775 14.9402 10.9755 14.9402L10.9739 14.9403C10.9655 14.9403 10.957 14.9384 10.9486 14.9371C10.9438 14.9363 10.9394 14.9364 10.935 14.9352C10.921 14.9316 10.9076 14.9261 10.8951 14.9189L9.36792 14.0371V13.6253C9.36795 13.5957 9.36015 13.5666 9.34532 13.5409C9.33048 13.5152 9.30914 13.4939 9.28344 13.4792L8.92696 13.2733V11.5099C8.92696 11.496 8.92912 11.4831 8.93232 11.4706C8.93328 11.4668 8.93456 11.4634 8.93576 11.4597C8.93857 11.4511 8.94218 11.4427 8.94656 11.4348C8.9484 11.4316 8.95 11.428 8.95216 11.4248C8.958 11.4157 8.96472 11.4072 8.9724 11.3994C8.97328 11.3986 8.974 11.3975 8.97472 11.3967C8.98336 11.3884 8.99304 11.3812 9.00336 11.3751C9.00632 11.3733 9.00944 11.3719 9.01248 11.3704C9.03275 11.3597 9.05507 11.3536 9.07792 11.3523C9.07992 11.3523 9.08176 11.3517 9.08384 11.3517L9.08544 11.3516C9.094 11.3516 9.10256 11.3536 9.1112 11.3548C9.11552 11.3556 9.12 11.3555 9.12448 11.3568C9.13792 11.3601 9.1512 11.3655 9.16432 11.373L11.0534 12.4636C11.0775 12.4775 11.0974 12.4975 11.1113 12.5216C11.1251 12.5456 11.1325 12.5729 11.1325 12.6006L11.1324 14.7821ZM10.046 9.84476C10.0212 9.83055 10.0007 9.80987 9.9868 9.78492C9.97384 9.76137 9.96705 9.73493 9.96705 9.70804C9.96705 9.68116 9.97384 9.65472 9.9868 9.63116C10.0007 9.60619 10.0212 9.5855 10.046 9.57132L11.5736 8.68948L11.9302 8.89532C11.9558 8.91009 11.9849 8.91785 12.0146 8.91785C12.0442 8.91785 12.0733 8.91009 12.099 8.89532L12.4556 8.68932L13.9832 9.57132C14.0886 9.63204 14.0886 9.78396 13.9832 9.84476L12.0936 10.9357C12.0696 10.9496 12.0423 10.957 12.0146 10.957C11.9869 10.957 11.9596 10.9496 11.9356 10.9357L10.046 9.84476ZM18.19 15.4741C18.19 15.5018 18.1827 15.5291 18.1689 15.5531C18.155 15.5771 18.1351 15.597 18.111 15.6108L13.1337 18.4845C13.1098 18.4985 13.0826 18.5059 13.0549 18.5059C12.9725 18.5059 12.8968 18.4399 12.8968 18.3477V16.1656C12.8968 16.1092 12.927 16.0572 12.9759 16.0288L14.6612 15.056V15.2728C14.6612 15.3713 14.7421 15.442 14.8302 15.442C14.8585 15.442 14.8871 15.4348 14.9145 15.4191L16.341 14.5953C16.3667 14.5805 16.388 14.5592 16.4028 14.5335C16.4177 14.5078 16.4255 14.4787 16.4254 14.4491V14.0373L17.953 13.1554C17.9785 13.1407 18.0054 13.134 18.0318 13.134C18.1142 13.134 18.1899 13.2 18.1899 13.2921V15.4741H18.19ZM18.19 11.9089C18.19 11.9654 18.16 12.0174 18.111 12.0456L16.4256 13.0187V12.8019C16.4256 12.7032 16.3446 12.6328 16.2565 12.6328C16.2269 12.6327 16.1978 12.6406 16.1723 12.6556L15.9844 12.764V10.8178C15.9844 10.7613 16.0146 10.7093 16.0636 10.681L17.9532 9.59012C17.9771 9.57616 18.0042 9.56876 18.0319 9.56869C18.1144 9.56869 18.19 9.6346 18.19 9.72684V11.9089Z" fill="#5B6071"/>
<path d="M11.0533 16.0294L9.36776 15.0563V15.2732C9.36776 15.3718 9.28696 15.4424 9.19872 15.4424C9.17048 15.4424 9.14176 15.4352 9.11456 15.4194L8.9268 15.3111V17.2573C8.9268 17.3138 8.9568 17.3658 9.00576 17.3941L10.8954 18.485C10.9208 18.4998 10.9478 18.5064 10.9742 18.5064C10.995 18.5064 11.0156 18.5023 11.0347 18.4944C11.0539 18.4864 11.0713 18.4748 11.086 18.4601C11.1007 18.4454 11.1123 18.4279 11.1203 18.4088C11.1282 18.3896 11.1323 18.369 11.1322 18.3482V16.1662C11.1322 16.1384 11.1249 16.1112 11.111 16.0872C11.0972 16.0632 11.0773 16.0433 11.0533 16.0294ZM9.08512 11.3515L9.08352 11.3516C9.09248 11.3515 9.1016 11.3532 9.11072 11.3548C9.10216 11.3534 9.0936 11.3515 9.08512 11.3515ZM10.9738 14.9402L10.9754 14.94C10.9666 14.9402 10.9574 14.9383 10.9485 14.9368C10.957 14.9382 10.9654 14.9402 10.9738 14.9402ZM14.9444 11.3514C14.9362 11.3514 14.928 11.3534 14.9196 11.3546C14.9284 11.353 14.9372 11.3514 14.9459 11.3515L14.9444 11.3514ZM18.0315 9.56864C18.0053 9.56864 17.9783 9.57536 17.9527 9.59008L16.0631 10.681C16.0391 10.6948 16.0191 10.7148 16.0052 10.7388C15.9914 10.7628 15.984 10.79 15.984 10.8178V12.7639L16.172 12.6555C16.1992 12.6398 16.228 12.6326 16.256 12.6327C16.3442 12.6327 16.4252 12.7031 16.4252 12.8018V13.0186L18.1106 12.0455C18.1594 12.0174 18.1896 11.9654 18.1896 11.9089V9.7268C18.1896 9.70603 18.1855 9.68546 18.1776 9.66627C18.1697 9.64708 18.158 9.62964 18.1433 9.61495C18.1287 9.60026 18.1112 9.58861 18.092 9.58066C18.0729 9.57272 18.0523 9.56863 18.0315 9.56864ZM13.0546 14.9402C13.0626 14.9402 13.0709 14.9382 13.079 14.937C13.0704 14.9384 13.0618 14.94 13.0532 14.94L13.0546 14.9402ZM18.0315 13.1338C18.0038 13.1339 17.9767 13.1412 17.9527 13.1551L16.4252 14.037V14.4488C16.4252 14.4785 16.4174 14.5076 16.4026 14.5333C16.3878 14.559 16.3664 14.5803 16.3407 14.5951L14.9142 15.4188C14.8868 15.4345 14.8582 15.4417 14.8299 15.4417C14.8077 15.4417 14.7857 15.4373 14.7652 15.4288C14.7447 15.4203 14.7261 15.4078 14.7104 15.3921C14.6947 15.3764 14.6823 15.3577 14.6738 15.3372C14.6653 15.3167 14.6609 15.2947 14.661 15.2725V15.0557L12.9756 16.0286C12.9516 16.0425 12.9316 16.0624 12.9177 16.0865C12.9038 16.1105 12.8965 16.1377 12.8965 16.1654V18.3475C12.8965 18.4397 12.9721 18.5056 13.0546 18.5056C13.081 18.5056 13.1079 18.4989 13.1334 18.4842L18.1107 15.6106C18.1595 15.5824 18.1898 15.5302 18.1898 15.4738V13.2918C18.1896 13.1998 18.114 13.1338 18.0315 13.1338ZM10.0456 6.00592C9.9404 6.06672 9.9404 6.21856 10.0456 6.27936L11.5732 7.1612L11.9298 6.9552C11.956 6.94008 11.9851 6.93272 12.0142 6.93272C12.0434 6.93272 12.0726 6.94008 12.0986 6.9552L13.5252 7.77896C13.6378 7.84392 13.6378 8.0064 13.5252 8.07144L13.3373 8.17984L15.0229 9.15296C15.0469 9.16678 15.0742 9.17406 15.1019 9.17406C15.1296 9.17406 15.1568 9.16678 15.1809 9.15296L17.0705 8.06184C17.1758 8.00112 17.1758 7.84928 17.0705 7.78856L12.0932 4.91472C12.0692 4.90082 12.0419 4.89349 12.0142 4.89349C11.9865 4.89349 11.9592 4.90082 11.9352 4.91472L10.0456 6.00592ZM6.95808 7.78864C6.85272 7.84936 6.85272 8.00128 6.95808 8.062L8.84776 9.15312C8.87179 9.16694 8.89903 9.17422 8.92676 9.17422C8.95448 9.17422 8.98172 9.16694 9.00576 9.15312L10.6911 8.17992L10.5031 8.0716C10.3906 8.00648 10.3906 7.844 10.5031 7.77904L10.6911 7.67056L9.0056 6.6976C8.98157 6.68381 8.95435 6.67656 8.92664 6.67656C8.89893 6.67656 8.87171 6.68381 8.84768 6.6976L6.95808 7.78864ZM8.04448 16.5648V14.801L7.68776 14.5949C7.66209 14.5801 7.64078 14.5588 7.62597 14.5331C7.61117 14.5074 7.6034 14.4783 7.60344 14.4486V12.8013C7.6034 12.7791 7.60774 12.7571 7.61623 12.7365C7.62471 12.716 7.63717 12.6973 7.65288 12.6816C7.66859 12.6659 7.68725 12.6534 7.70779 12.645C7.72833 12.6365 7.75034 12.6321 7.77256 12.6322C7.80072 12.6322 7.82944 12.6392 7.85664 12.655L8.04464 12.7635V10.8172C8.04464 10.7607 8.01456 10.7087 7.9656 10.6804L6.07592 9.58968C6.05202 9.57568 6.02482 9.56828 5.99712 9.56824C5.97636 9.56824 5.95581 9.57233 5.93664 9.58028C5.91746 9.58822 5.90004 9.59987 5.88537 9.61455C5.8707 9.62923 5.85906 9.64666 5.85112 9.66583C5.84319 9.68501 5.83911 9.70557 5.83912 9.72632V15.4737C5.83912 15.53 5.86912 15.5822 5.91808 15.6103L7.80768 16.7014C7.8332 16.716 7.86016 16.7226 7.88648 16.7226C7.96888 16.7227 8.04448 16.6569 8.04448 16.5648Z" fill="#5B6071"/>
<path d="M12.9426 12.4896C12.9131 12.5191 12.8965 12.5591 12.8965 12.6009V14.783L12.8966 14.7832C12.8966 14.797 12.8988 14.8098 12.9018 14.8222C12.9029 14.8258 12.9041 14.8294 12.9054 14.8332C12.9082 14.8418 12.9118 14.8502 12.9161 14.8581C12.9179 14.8613 12.9195 14.8647 12.9217 14.8679C12.9276 14.877 12.9342 14.8855 12.9417 14.8931C12.9427 14.8941 12.9434 14.8953 12.9442 14.8961C12.9529 14.9045 12.9626 14.9115 12.9729 14.9177C12.9758 14.9194 12.9789 14.9208 12.982 14.9224C13.0021 14.9329 13.0242 14.939 13.0468 14.9403C13.049 14.9405 13.0511 14.9409 13.0533 14.941C13.0619 14.941 13.0705 14.9393 13.0792 14.9379C13.0841 14.9372 13.089 14.9373 13.0938 14.936C13.1068 14.9326 13.1198 14.9273 13.1324 14.9201C13.1327 14.9199 13.1332 14.9199 13.1335 14.9197L14.661 14.0378V13.626C14.661 13.6064 14.6654 13.5878 14.6717 13.57C14.6847 13.532 14.7109 13.5 14.7455 13.4797L15.1022 13.2738V11.5099C15.1022 11.4961 15.0999 11.4832 15.0969 11.4707C15.0958 11.467 15.0946 11.4635 15.0934 11.4598C15.0906 11.4512 15.087 11.4429 15.0826 11.435C15.0807 11.4316 15.0791 11.4283 15.0771 11.4252C15.0712 11.416 15.0644 11.4074 15.0567 11.3996C15.0558 11.3987 15.0551 11.3978 15.0544 11.397C15.0457 11.3887 15.0361 11.3814 15.0258 11.3754C15.0229 11.3736 15.0197 11.3722 15.0166 11.3706C15.0055 11.3648 14.9937 11.3602 14.9814 11.357C14.9717 11.3547 14.9618 11.3533 14.9518 11.3527C14.9494 11.3526 14.9475 11.3521 14.9454 11.352C14.9366 11.352 14.9278 11.3536 14.919 11.3551C14.9144 11.3559 14.9096 11.3558 14.9048 11.357C14.8909 11.3606 14.8775 11.366 14.865 11.3733L12.9754 12.4642C12.9634 12.4712 12.9524 12.4797 12.9426 12.4896ZM11.0531 12.4635L9.164 11.3728C9.15153 11.3656 9.13812 11.3601 9.12416 11.3566C9.11968 11.3553 9.1152 11.3555 9.11088 11.3547C9.10176 11.3531 9.09264 11.3515 9.0836 11.3516C9.08152 11.3516 9.0796 11.3521 9.0776 11.3521C9.0672 11.3527 9.05712 11.3543 9.04736 11.3566C9.0436 11.3576 9.04024 11.3588 9.03656 11.3598C9.02814 11.3626 9.01997 11.3661 9.01216 11.3702C9.00912 11.3718 9.006 11.3731 9.00304 11.3749C8.99273 11.381 8.98313 11.3882 8.9744 11.3965L8.97216 11.3993C8.96451 11.407 8.95768 11.4156 8.95176 11.4247C8.94976 11.4279 8.94808 11.4314 8.94624 11.4346C8.94192 11.4426 8.9384 11.4509 8.93544 11.4595C8.92983 11.4757 8.92686 11.4926 8.92664 11.5097V13.2732L9.28312 13.479C9.30882 13.4938 9.33016 13.5151 9.34499 13.5408C9.35983 13.5664 9.36762 13.5955 9.3676 13.6252V14.037L10.8948 14.9188C10.9078 14.9262 10.9212 14.9316 10.9346 14.935C10.9391 14.9363 10.9436 14.9361 10.9482 14.9369C10.9572 14.9384 10.9663 14.9401 10.9752 14.9401C10.9773 14.9401 10.9792 14.9395 10.9812 14.9394C10.9916 14.939 11.0017 14.9373 11.0114 14.9349C11.0152 14.9341 11.0186 14.9329 11.0222 14.9318C11.0306 14.929 11.0388 14.9254 11.0467 14.9214C11.0497 14.9198 11.0528 14.9185 11.0557 14.9167C11.066 14.9106 11.0756 14.9033 11.0844 14.8951C11.0852 14.8942 11.0859 14.8931 11.0866 14.8924C11.0942 14.8846 11.1011 14.8761 11.1071 14.8668C11.109 14.8636 11.1107 14.8602 11.1126 14.857C11.1169 14.8492 11.1204 14.8408 11.1234 14.8321C11.129 14.8159 11.132 14.799 11.1322 14.7819V12.6005C11.1321 12.5727 11.1248 12.5455 11.1109 12.5214C11.0971 12.4974 11.0771 12.4774 11.0531 12.4635ZM12.0933 10.9357L13.9829 9.84471C14.0882 9.78391 14.0882 9.63191 13.9829 9.57127L12.4554 8.68927L12.0986 8.89527C12.073 8.91003 12.0439 8.9178 12.0142 8.9178C11.9846 8.9178 11.9555 8.91003 11.9298 8.89527L11.5733 8.68943L10.0457 9.57127C10.0209 9.58545 10.0004 9.60614 9.98648 9.63111C9.97352 9.65466 9.96673 9.68111 9.96673 9.70799C9.96673 9.73487 9.97352 9.76132 9.98648 9.78487C9.99968 9.80855 10.0195 9.82951 10.0457 9.84471L11.9354 10.9357C11.9594 10.9496 11.9866 10.9569 12.0144 10.9569C12.0421 10.9569 12.0693 10.9496 12.0933 10.9357Z" fill="#5B6071"/>
</svg>
