<svg width="24" height="24" viewBox="0 0 24 24" fill="none" xmlns="http://www.w3.org/2000/svg">
<path d="M10.0975 15.4324C10.866 14.906 11.3941 14.096 11.5655 13.1803C11.7368 12.2647 11.5375 11.3184 11.0113 10.5498L8.11538 12.5319C7.73042 12.7938 7.25729 12.8925 6.79973 12.8061C6.34216 12.7198 5.93752 12.4555 5.67452 12.0712C5.4124 11.6862 5.3136 11.213 5.39977 10.7553C5.48594 10.2976 5.75005 9.89276 6.13421 9.62944L8.7798 7.81857L10.4771 6.65537C10.8579 6.39481 11.1836 6.06179 11.4357 5.67533C11.6877 5.28888 11.8611 4.85656 11.9461 4.40306C12.031 3.94956 12.0258 3.48377 11.9307 3.0323C11.8356 2.58082 11.6525 2.1525 11.3919 1.77179L8.49597 3.75854L4.15212 6.72795L4.14654 6.73354C3.57551 7.12441 3.08712 7.624 2.70929 8.20374C2.33145 8.78349 2.07159 9.43201 1.94455 10.1122C1.8175 10.7925 1.82578 11.4911 1.96889 12.1681C2.11201 12.8452 2.38716 13.4873 2.77861 14.058C4.41361 16.4597 7.69569 17.073 10.0975 15.4324ZM13.9072 8.56767C13.896 8.57325 13.8904 8.57884 13.8848 8.58442L13.9072 8.56767C13.1386 9.09403 12.6106 9.90412 12.4392 10.8198C12.2678 11.7354 12.4672 12.6816 12.9934 13.4503L15.8883 11.4682C16.0786 11.3372 16.2929 11.2451 16.5189 11.1972C16.745 11.1494 16.9782 11.1469 17.2052 11.1897C17.4322 11.2325 17.6485 11.3199 17.8416 11.4468C18.0347 11.5736 18.2007 11.7375 18.3301 11.9289C18.881 12.7291 18.6763 13.8198 17.876 14.3706L15.2304 16.1815L13.5275 17.3447C13.1467 17.6053 12.821 17.9383 12.569 18.3247C12.3169 18.7112 12.1435 19.1435 12.0586 19.597C11.9736 20.0505 11.9788 20.5163 12.0739 20.9678C12.169 21.4193 12.3521 21.8476 12.6128 22.2283L15.5087 20.2462L19.8516 17.2721C21.0047 16.4828 21.7972 15.2678 22.0549 13.8944C22.3126 12.521 22.0145 11.1014 21.226 9.94769C20.8374 9.37491 20.3394 8.88461 19.7607 8.50499C19.1819 8.12536 18.5338 7.86391 17.8536 7.73565C17.1734 7.6074 16.4746 7.61489 15.7973 7.75767C15.1201 7.90046 14.4777 8.17574 13.9072 8.56767Z" fill="#5B6071"/>
</svg>
