<svg width="24" height="24" viewBox="0 0 24 24" fill="none" xmlns="http://www.w3.org/2000/svg">
<path d="M9.164 21.221L8.181 21.165C4.779 20.975 2.527 20.451 2.056 19.738C1.92 19.533 1.91 19.223 2.034 19.057C2.149 18.903 2.411 18.777 2.778 18.702L3.091 18.638L3.464 18.76C5.032 19.277 6.367 19.349 8.339 19.023C9.159 18.888 9.599 18.733 10.075 18.41C10.258 18.286 10.335 18.258 10.488 18.258C11.108 18.256 12.069 18.09 12.554 17.901C13.946 17.357 15.209 15.878 15.533 14.411C15.692 13.694 15.605 12.581 15.322 11.718L15.192 11.321L15.22 10.574C15.243 9.968 15.267 9.756 15.346 9.451C15.636 8.343 16.337 7.573 17.303 7.306C17.677 7.203 18.473 7.213 18.892 7.326C19.5018 7.48286 20.0548 7.80909 20.487 8.267C20.992 8.815 21.194 9.292 21.222 10.005C21.243 10.555 21.188 10.814 20.939 11.321C20.728 11.751 20.397 12.154 20.03 12.428C19.88 12.541 19.728 12.658 19.694 12.688C19.642 12.734 19.627 12.88 19.607 13.525C19.593 13.955 19.554 14.511 19.521 14.76C19.063 18.114 17.287 20.181 14.214 20.934C13.191 21.184 12.844 21.217 11.031 21.226C10.123 21.231 9.283 21.228 9.164 21.221ZM5.197 18.344L4.747 18.274L4.447 17.952C2.933 16.339 2.362 13.95 3.017 11.972C3.663 10.019 5.337 8.582 7.513 8.112C8.07 7.991 9.425 7.979 9.95 8.089C10.5156 8.20449 11.0638 8.39272 11.581 8.649C13.409 9.553 14.563 11.144 14.786 13.07C14.897 14.025 14.656 14.863 14.023 15.721C13.311 16.687 12.405 17.246 11.342 17.375L11.109 17.403L11.376 17.126C11.851 16.631 11.972 16.196 11.972 14.976C11.972 14.293 11.961 14.145 11.885 13.842C11.703 13.121 11.409 12.603 10.918 12.137C10.275 11.526 9.478 11.214 8.569 11.217C7.274 11.222 6.373 12.045 6.373 13.223C6.373 13.621 6.442 13.918 6.613 14.256C6.748 14.525 7.059 14.876 7.293 15.025C7.661 15.258 8.277 15.375 8.488 15.25C8.54077 15.2218 8.58628 15.1817 8.62095 15.1329C8.65562 15.0842 8.6785 15.028 8.68781 14.9689C8.69711 14.9098 8.69258 14.8493 8.67456 14.7922C8.65655 14.7352 8.62555 14.6831 8.584 14.64C8.494 14.539 8.434 14.514 8.22 14.486C7.883 14.443 7.783 14.4 7.578 14.211C7.318 13.972 7.183 13.641 7.181 13.247C7.179 12.978 7.195 12.899 7.291 12.704C7.424 12.434 7.687 12.207 7.994 12.101C8.321 11.987 8.974 12.005 9.38 12.139C10.234 12.42 10.836 13.057 11.079 13.936C11.133 14.132 11.149 14.337 11.149 14.839C11.149 15.409 11.138 15.522 11.057 15.78C10.954 16.107 10.747 16.538 10.569 16.799C10.274 17.228 9.716 17.726 9.286 17.943C8.595 18.291 6.306 18.516 5.196 18.343L5.197 18.344ZM19.199 6.578L18.955 6.5L19.095 6.1C19.632 4.556 20.429 3.579 21.152 3.579C21.719 3.579 22.195 4.167 22.014 4.646C21.969 4.766 21.77 4.991 21.644 5.065C21.6 5.09 21.334 5.119 21.047 5.13C20.55 5.149 20.523 5.154 20.359 5.269C20.138 5.423 19.856 5.844 19.669 6.299C19.588 6.499 19.503 6.66 19.481 6.659C19.3858 6.63634 19.2917 6.60931 19.199 6.578ZM17.014 6.518C16.946 6.403 16.887 5.681 16.888 4.973C16.889 4.334 16.903 4.11 16.958 3.893C17.152 3.128 17.487 2.772 18.013 2.772C18.601 2.772 18.945 3.192 18.795 3.729C18.723 3.987 18.612 4.094 18.204 4.297C17.892 4.452 17.81 4.513 17.708 4.666C17.532 4.928 17.48 5.256 17.508 5.919L17.531 6.457L17.366 6.484C17.276 6.498 17.164 6.519 17.117 6.531C17.071 6.542 17.025 6.536 17.014 6.518Z" fill="#5B6071"/>
</svg>
