<svg width="24" height="24" viewBox="0 0 24 24" fill="none" xmlns="http://www.w3.org/2000/svg">
<path fill-rule="evenodd" clip-rule="evenodd" d="M16.332 7.84058C15.965 9.16514 15.167 13.0703 15.167 13.0703C15.167 13.0703 13.6994 12.5241 12.0301 12.5214H12.0179C11.9262 12.5219 11.8356 12.5241 11.7452 12.5271V21.7617H13.2257V21.7624H14.515V21.7617H19.1398C19.1642 19.9487 18.6882 15.7605 18.6882 15.7605C18.4469 15.2553 18.79 14.0603 18.79 14.0603C16.8238 12.0443 16.3321 7.8407 16.3321 7.8407L16.332 7.84058ZM15.5878 17.587C16.8019 17.587 15.8941 18.6159 15.7872 18.733H13.4918C13.7011 18.4711 14.4907 17.587 15.5878 17.587Z" fill="#5B6071"/>
<path fill-rule="evenodd" clip-rule="evenodd" d="M7.7304 7.84009C7.7304 7.84009 7.23876 12.0442 5.27208 14.06C5.27208 14.06 5.61528 15.2555 5.37408 15.7604C5.37408 15.7604 4.89732 19.95 4.92216 21.7616H9.19536V21.7624H10.765V21.7616H12.0386V12.521H12.033C10.3631 12.5239 8.89548 13.0705 8.89548 13.0705C8.89548 13.0705 8.09712 9.16477 7.73028 7.83997L7.7304 7.84009ZM8.454 17.5871C9.55152 17.5871 10.3409 18.4711 10.5499 18.733H8.25456C8.14824 18.6158 7.24056 17.587 8.454 17.587V17.5871Z" fill="#5B6071"/>
<path fill-rule="evenodd" clip-rule="evenodd" d="M15.979 19.4916H13.4322V19.5184C13.4322 20.4071 14.2012 21.127 15.1032 21.127C16.0056 21.127 16.7747 20.407 16.7747 19.5184V19.4916H15.979Z" fill="#5B6071"/>
<path fill-rule="evenodd" clip-rule="evenodd" d="M14.0688 19.4916V19.5184C14.0688 20.0471 14.4947 20.4754 15.024 20.4754C15.5533 20.4754 15.9791 20.047 15.9791 19.5184V19.4916H14.0688Z" fill="#5B6071"/>
<path fill-rule="evenodd" clip-rule="evenodd" d="M15.3187 19.4916H14.8711C14.8667 19.4916 14.863 19.4938 14.8591 19.4945C14.9146 19.5061 14.9454 19.6319 14.9334 19.7155C14.9154 19.8434 14.8064 19.9322 14.6814 19.9345C14.6998 20.0187 14.7436 20.0953 14.8069 20.1538C14.8702 20.2123 14.95 20.2499 15.0354 20.2615C15.267 20.2943 15.4811 20.1356 15.5138 19.9045C15.5375 19.7344 15.4556 19.4916 15.3187 19.4916Z" fill="#5B6071"/>
<path fill-rule="evenodd" clip-rule="evenodd" d="M9.83136 19.4916H7.28484V19.5184C7.28484 20.4071 8.05404 21.127 8.95584 21.127C9.85824 21.127 10.6274 20.407 10.6274 19.5184V19.4916H9.83136Z" fill="#5B6071"/>
<path fill-rule="evenodd" clip-rule="evenodd" d="M7.92155 19.4916V19.5184C7.92155 20.0471 8.34767 20.4754 8.87627 20.4754C9.40583 20.4754 9.83147 20.047 9.83147 19.5184V19.4916H7.92155Z" fill="#5B6071"/>
<path fill-rule="evenodd" clip-rule="evenodd" d="M9.17148 19.4916H8.7234C8.71944 19.4916 8.71524 19.4938 8.71176 19.4945C8.76696 19.5061 8.79768 19.6319 8.78604 19.7155C8.76804 19.8434 8.65944 19.9322 8.5338 19.9345C8.55232 20.0187 8.5962 20.0952 8.65951 20.1536C8.72283 20.2121 8.80254 20.2498 8.88792 20.2615C9.1194 20.2943 9.33384 20.1356 9.36624 19.9045C9.39012 19.7344 9.3084 19.4916 9.17148 19.4916Z" fill="#5B6071"/>
<path fill-rule="evenodd" clip-rule="evenodd" d="M7.5414 2.23801L6.6096 3.94501C6.28296 4.55305 3.40488 9.93997 3.40488 11.8864V12.0007L4.72248 15.5071C4.54512 17.1162 4.23384 20.3058 4.32768 21.7615H5.59848C5.51976 20.9221 5.742 17.9908 6.02016 15.4979L6.03708 15.3479L5.79864 14.7067C6.61764 13.849 7.1922 12.6684 7.58868 11.5447L7.62732 11.8184L8.92848 13.9535L9.43656 13.7357C9.44928 13.7302 10.7525 13.1762 12.018 13.1762C13.2756 13.1762 14.6003 13.7306 14.6126 13.736L15.1204 13.9524L16.4196 11.8181L16.4706 11.4616C16.863 12.5963 17.437 13.7976 18.2598 14.6746L18.0102 15.3472L18.027 15.4975C18.3061 18 18.5293 20.944 18.4518 21.7618H19.7106C19.8006 20.3057 19.4778 17.1162 19.3008 15.5074L20.5951 12.0004V11.8864C20.5951 9.93997 17.7403 4.55305 17.414 3.94513L16.5012 2.23801L15.1936 11.3796L14.59 12.3725C14.0072 12.177 13.0157 11.9045 12.0172 11.9045C11.02 11.9045 10.0349 12.1764 9.45468 12.3721L8.85108 11.3796L8.39208 8.17525C8.3928 8.16997 8.39364 8.16277 8.39364 8.15953L8.38992 8.15869L7.5414 2.23801ZM6.8394 6.31585L7.10688 8.17981C7.00488 8.87665 6.53892 11.6096 5.289 13.3324L4.713 11.7827C4.78524 10.7731 5.83656 8.35429 6.8394 6.31585ZM17.208 6.31585C18.2107 8.35429 19.2626 10.7731 19.3348 11.7827L18.7723 13.2956C17.4218 11.3992 16.9984 8.31589 16.9615 8.03413L17.208 6.31585Z" fill="#5B6071"/>
</svg>
