<svg width="24" height="24" viewBox="0 0 24 24" fill="none" xmlns="http://www.w3.org/2000/svg">
<path d="M5.04244 4.80831C8.99393 0.973073 15.3122 1.07617 19.1402 5.05575C19.5724 4.4784 19.9428 3.83919 20.2104 3.17937C21.4658 7.01461 22.2273 10.2313 21.9392 12.7262C21.7951 14.8294 20.9719 16.8501 19.6135 18.4585C16.0737 22.6649 9.77599 23.201 5.57754 19.6544L5.49722 19.5828L5.49295 19.58C5.4798 19.5708 5.46683 19.5613 5.45406 19.5513C5.41574 19.5214 5.38094 19.4889 5.34966 19.4542L5.3384 19.4414L5.20709 19.3245C5.07903 19.2145 4.95098 19.1045 4.83737 18.9801L4.79548 18.9327C0.967476 14.9738 1.09096 8.64355 5.04244 4.80831ZM6.52425 18.2317C6.1538 17.943 5.6187 17.9842 5.33057 18.3554C5.07722 18.6817 5.07847 19.1356 5.33432 19.4367L5.3384 19.4414L5.49722 19.5828L5.51281 19.5935C5.87254 19.8304 6.35654 19.7815 6.63261 19.4465L6.64774 19.4276C6.93586 19.0564 6.87412 18.5203 6.52425 18.2317ZM20.1075 4.21035C19.0784 6.3754 16.5264 8.02497 14.3243 8.54046C12.2457 9.03532 10.4346 8.62293 8.52057 9.36524C4.15748 11.0354 4.2398 16.2316 6.62715 17.4069L6.77122 17.4893C6.77122 17.4893 8.49567 17.1458 10.201 16.6922L10.347 16.653C11.0282 16.4691 11.6982 16.2687 12.2457 16.0666C15.0858 15.015 18.2141 12.4169 19.2431 9.40648C18.708 12.5407 16.0119 15.5717 13.3159 16.9532C11.8752 17.6955 10.7639 17.8605 8.39709 18.6853C8.10896 18.7884 7.88257 18.8915 7.88257 18.8915C7.91145 18.8875 7.94033 18.8836 7.96914 18.8798L8.02666 18.8723L8.08387 18.8651C8.60658 18.8002 9.07625 18.7678 9.07625 18.7678C12.4309 18.6028 17.6995 19.7163 20.1486 16.4378C22.6595 13.0974 21.26 7.69505 20.1075 4.21035Z" fill="#5B6071"/>
</svg>
