<svg width="24" height="24" viewBox="0 0 24 24" fill="none" xmlns="http://www.w3.org/2000/svg">
<path d="M19.2 10.7C19 10.7 18.9 10.7 18.7 10.8L16.3 6.99999C16.9 6.49999 17.4 5.69999 17.4 4.79999C17.4 3.19999 16.1 1.79999 14.4 1.79999C12.7 1.79999 11.4 3.09999 11.4 4.79999C11.4 5.09999 11.4 5.29999 11.5 5.59999L7 7.89999C6.5 7.29999 5.7 6.89999 4.8 6.89999C3.2 6.89999 1.8 8.19999 1.8 9.89999C1.8 11.6 3.1 12.9 4.8 12.9C5 12.9 5.2 12.9 5.4 12.8L7.7 17.1C7.1 17.6 6.8 18.4 6.8 19.2C6.8 20.8 8.1 22.2 9.8 22.2C11.5 22.2 12.8 20.9 12.8 19.2C12.8 19 12.8 18.8 12.7 18.6L16.9 15.5C17.4 16.2 18.3 16.6 19.2 16.6C20.8 16.6 22.2 15.3 22.2 13.6C22.2 11.9 20.8 10.7 19.2 10.7ZM14.4 3.79999C15 3.79999 15.4 4.29999 15.4 4.79999C15.4 5.39999 14.9 5.79999 14.4 5.79999C13.9 5.79999 13.4 5.29999 13.4 4.79999C13.4 4.19999 13.8 3.79999 14.4 3.79999ZM4.8 10.9C4.2 10.9 3.8 10.4 3.8 9.89999C3.8 9.29999 4.3 8.89999 4.8 8.89999C5.3 8.89999 5.8 9.39999 5.8 9.89999C5.9 10.5 5.4 10.9 4.8 10.9ZM6.8 12.1C7.4 11.6 7.8 10.8 7.8 9.89999C7.8 9.59999 7.8 9.39999 7.7 9.19999L12.2 6.79999C12.4 6.99999 12.6 7.19999 12.9 7.29999L10.1 16.3H9.8C9.5 16.3 9.2 16.4 9 16.4L6.8 12.1ZM9.8 20.3C9.2 20.3 8.8 19.8 8.8 19.3C8.8 18.7 9.3 18.3 9.8 18.3C10.3 18.3 10.8 18.8 10.8 19.3C10.8 19.8 10.4 20.3 9.8 20.3ZM16.2 13.7C16.2 13.9 16.2 14 16.3 14.2L12.1 17.3L11.5 16.7L14.4 7.69999H14.5C14.7 7.69999 14.9 7.69999 15.1 7.59999L17.4 11.3C16.7 11.9 16.2 12.8 16.2 13.7ZM19.2 14.7C18.6 14.7 18.2 14.2 18.2 13.7C18.2 13.1 18.7 12.7 19.2 12.7C19.7 12.7 20.2 13.2 20.2 13.7C20.2 14.3 19.7 14.7 19.2 14.7Z" fill="#5B6071"/>
</svg>
