<svg width="24" height="24" viewBox="0 0 24 24" fill="none" xmlns="http://www.w3.org/2000/svg">
<g clip-path="url(#clip0_3475_9842)">
<mask id="mask0_3475_9842" style="mask-type:luminance" maskUnits="userSpaceOnUse" x="0" y="0" width="24" height="24">
<path d="M0 0H24V24H0V0Z" fill="white"/>
</mask>
<g mask="url(#mask0_3475_9842)">
<path fill-rule="evenodd" clip-rule="evenodd" d="M11.232 13.667L6.86999 12.252C6.80802 12.2285 6.75416 12.1876 6.71494 12.1342C6.67572 12.0808 6.65282 12.0172 6.64899 11.951L6.60699 8.59899C6.60907 8.53317 6.63073 8.46947 6.66921 8.41603C6.70769 8.36259 6.76123 8.32184 6.82299 8.29899L17.102 5.01099C17.224 4.97199 17.322 5.04299 17.322 5.17099V8.52199C17.3191 8.58837 17.2968 8.65244 17.2579 8.70629C17.219 8.76014 17.1651 8.80141 17.103 8.82499L12.862 10.239L17.173 11.585C17.295 11.623 17.393 11.757 17.393 11.884V15.188C17.3901 15.2542 17.368 15.3182 17.3295 15.3721C17.291 15.4261 17.2377 15.4677 17.176 15.492L6.86999 18.988C6.74999 19.03 6.65199 18.959 6.65099 18.833L6.62999 15.384C6.63241 15.3181 6.65433 15.2545 6.69296 15.2011C6.73159 15.1476 6.7852 15.1069 6.84699 15.084L11.232 13.667Z" fill="#5B6071"/>
</g>
</g>
<defs>
<clipPath id="clip0_3475_9842">
<rect width="24" height="24" fill="white"/>
</clipPath>
</defs>
</svg>
