<svg width="24" height="25" viewBox="0 0 24 25" fill="none" xmlns="http://www.w3.org/2000/svg">
<mask id="path-1-outside-1_3475_9191" maskUnits="userSpaceOnUse" x="3.56238" y="2.5" width="16" height="20" fill="black">
<rect fill="white" x="3.56238" y="2.5" width="16" height="20"/>
<path d="M10.1375 20.3767C9.40986 20.5741 8.64172 20.5337 7.93678 20.261C7.23184 19.9884 6.62407 19.4965 6.19553 18.852C5.93252 18.4677 5.74567 18.0326 5.64595 17.572C5.54623 17.1114 5.53563 16.6347 5.61479 16.1698C5.64158 16.0172 5.67848 15.8667 5.72523 15.7194L5.81227 15.4419L6.04928 15.6234C6.59614 16.0429 7.20765 16.362 7.85744 16.5667L8.02922 16.6211L8.01344 16.8002C7.99257 17.0546 8.0587 17.3085 8.2001 17.517C8.32914 17.7113 8.51224 17.8596 8.72466 17.9418C8.93707 18.024 9.16856 18.0362 9.38782 17.9766C9.48813 17.9488 9.58378 17.9051 9.67145 17.8472L14.295 14.7717C14.4082 14.6974 14.5052 14.5993 14.5801 14.4836C14.6549 14.368 14.7058 14.2374 14.7295 14.1001C14.7532 13.9599 14.75 13.8162 14.7199 13.6774C14.6898 13.5386 14.6335 13.4074 14.5544 13.2915C14.4253 13.0972 14.2422 12.9489 14.0298 12.8667C13.8174 12.7844 13.5859 12.7721 13.3667 12.8315C13.2663 12.8593 13.1707 12.903 13.083 12.961L11.3186 14.1346C11.0283 14.3271 10.7115 14.4722 10.3791 14.5649C9.65148 14.7623 8.88333 14.7219 8.17839 14.4493C7.47344 14.1766 6.86567 13.6847 6.43715 13.0401C6.17406 12.6559 5.98716 12.2208 5.8874 11.7602C5.78765 11.2996 5.77705 10.8229 5.85623 10.358C5.93481 9.90214 6.10369 9.46846 6.35206 9.08464C6.60044 8.70083 6.92286 8.37533 7.29868 8.12897L11.9228 5.05408C12.2131 4.86132 12.5299 4.71604 12.8623 4.62327C13.5899 4.42591 14.3581 4.46629 15.063 4.73897C15.768 5.01164 16.3757 5.50347 16.8043 6.14804C17.0673 6.53227 17.2542 6.96743 17.354 7.428C17.4537 7.88858 17.4643 8.36531 17.3852 8.83022C17.3582 8.98281 17.3212 9.1333 17.2746 9.28064L17.1875 9.55811L16.9507 9.37702C16.4039 8.95739 15.7924 8.63834 15.1425 8.43363L14.9706 8.37925L14.9865 8.20019C15.0074 7.94561 14.9413 7.69155 14.8001 7.48284C14.671 7.28855 14.4879 7.14028 14.2755 7.05807C14.0631 6.97586 13.8316 6.96368 13.6123 7.02317C13.512 7.05101 13.4164 7.09467 13.3287 7.15266L8.70391 10.2283C8.59077 10.3026 8.49373 10.4006 8.41898 10.5162C8.34422 10.6319 8.29341 10.7625 8.26977 10.8998C8.24594 11.0399 8.24912 11.1836 8.27914 11.3225C8.30915 11.4613 8.36538 11.5926 8.44456 11.7085C8.57364 11.9028 8.75673 12.051 8.96912 12.1333C9.18151 12.2156 9.41298 12.2279 9.63227 12.1685C9.73256 12.1406 9.8282 12.097 9.91591 12.039L11.6801 10.8659C11.9703 10.6731 12.2872 10.5278 12.6196 10.4353C13.3472 10.2379 14.1154 10.2783 14.8203 10.551C15.5252 10.8236 16.1329 11.3155 16.5614 11.96C16.8245 12.3442 17.0114 12.7794 17.1112 13.24C17.2109 13.7006 17.2215 14.1773 17.1423 14.6422C17.0639 15.098 16.8952 15.5318 16.6471 15.9157C16.3989 16.2996 16.0767 16.6253 15.7011 16.872L11.077 19.9459C10.7868 20.1387 10.4699 20.284 10.1375 20.3767"/>
</mask>
<path d="M7.93678 20.261L8.65829 18.3957L7.93678 20.261ZM6.19553 18.852L7.86103 17.7447C7.85605 17.7372 7.85101 17.7297 7.84592 17.7223L6.19553 18.852ZM5.61479 16.1698L3.64488 15.824L3.64317 15.8341L5.61479 16.1698ZM5.72523 15.7194L7.63154 16.3244L7.63354 16.318L5.72523 15.7194ZM5.81227 15.4419L7.0281 13.8539C6.50988 13.4571 5.83066 13.3382 5.20845 13.5352C4.58624 13.7323 4.09931 14.2205 3.90396 14.8433L5.81227 15.4419ZM6.04928 15.6234L7.26671 14.0366L7.26511 14.0353L6.04928 15.6234ZM7.85744 16.5667L8.4611 14.66L8.45856 14.6592L7.85744 16.5667ZM8.02922 16.6211L10.0215 16.7967C10.1038 15.8629 9.52651 14.9973 8.63288 14.7144L8.02922 16.6211ZM8.01344 16.8002L6.02112 16.6246L6.02013 16.6367L8.01344 16.8002ZM8.2001 17.517L9.86621 16.4106C9.86255 16.4051 9.85887 16.3996 9.85515 16.3941L8.2001 17.517ZM9.38782 17.9766L9.91177 19.9068L9.92257 19.9038L9.38782 17.9766ZM9.67145 17.8472L10.7747 19.5153L10.7791 19.5124L9.67145 17.8472ZM14.295 14.7717L13.197 13.1L13.1873 13.1065L14.295 14.7717ZM14.7295 14.1001L16.7003 14.4409L16.7015 14.4337L14.7295 14.1001ZM14.5544 13.2915L12.8884 14.3981C12.8932 14.4054 12.8981 14.4126 12.903 14.4198L14.5544 13.2915ZM13.3667 12.8315L12.844 10.9009L12.8315 10.9044L13.3667 12.8315ZM13.083 12.961L11.98 11.2926L11.9753 11.2957L13.083 12.961ZM11.3186 14.1346L12.4237 15.8016L12.4264 15.7999L11.3186 14.1346ZM10.3791 14.5649L10.9028 16.4952L10.9163 16.4914L10.3791 14.5649ZM6.43715 13.0401L8.10269 11.9329C8.09762 11.9253 8.09251 11.9177 8.08734 11.9101L6.43715 13.0401ZM5.85623 10.358L3.8853 10.0182L3.88462 10.0222L5.85623 10.358ZM7.29868 8.12897L8.39516 9.80167L8.40613 9.79438L7.29868 8.12897ZM11.9228 5.05408L10.8164 3.38796L10.8153 3.38868L11.9228 5.05408ZM12.8623 4.62327L12.3388 2.69302C12.3341 2.69429 12.3294 2.69558 12.3247 2.69688L12.8623 4.62327ZM16.8043 6.14804L15.1388 7.25534C15.1438 7.26288 15.1489 7.27038 15.154 7.27785L16.8043 6.14804ZM17.3852 8.83022L19.3546 9.17893L19.3568 9.16581L17.3852 8.83022ZM17.2746 9.28064L15.3678 8.67707L15.3663 8.68201L17.2746 9.28064ZM17.1875 9.55811L15.9727 11.1469C16.491 11.5432 17.17 11.6618 17.792 11.4646C18.4139 11.2674 18.9006 10.7793 19.0958 10.1567L17.1875 9.55811ZM16.9507 9.37702L15.7331 10.9637L15.7359 10.9658L16.9507 9.37702ZM15.1425 8.43363L14.5395 10.3405L14.5416 10.3412L15.1425 8.43363ZM14.9706 8.37925L12.9785 8.20175C12.8952 9.13636 13.4729 10.0032 14.3675 10.2861L14.9706 8.37925ZM14.9865 8.20019L16.9787 8.37768C16.9791 8.37284 16.9795 8.36801 16.9799 8.36316L14.9865 8.20019ZM14.8001 7.48284L13.1341 8.58941C13.1373 8.59424 13.1405 8.59906 13.1438 8.60386L14.8001 7.48284ZM13.6123 7.02317L13.0886 5.09293L13.0776 5.09599L13.6123 7.02317ZM13.3287 7.15266L12.2254 5.48449L12.2212 5.4873L13.3287 7.15266ZM8.70391 10.2283L9.80145 11.9003L9.81142 11.8936L8.70391 10.2283ZM8.26977 10.8998L6.29877 10.5604L6.29807 10.5645L8.26977 10.8998ZM8.44456 11.7085L10.1104 10.6017C10.1057 10.5946 10.1009 10.5875 10.0961 10.5804L8.44456 11.7085ZM9.63227 12.1685L10.1547 14.0991C10.1593 14.0978 10.1638 14.0966 10.1684 14.0953L9.63227 12.1685ZM9.91591 12.039L11.0181 13.708L11.0233 13.7044L9.91591 12.039ZM11.6801 10.8659L10.5733 9.20007L10.5727 9.2005L11.6801 10.8659ZM12.6196 10.4353L12.096 8.50499L12.0832 8.50857L12.6196 10.4353ZM16.5614 11.96L14.8959 13.0673C14.9009 13.0749 14.9061 13.0825 14.9112 13.09L16.5614 11.96ZM17.1423 14.6422L19.1134 14.9813L19.1139 14.978L17.1423 14.6422ZM15.7011 16.872L14.6033 15.2001L14.5939 15.2064L15.7011 16.872ZM11.077 19.9459L12.1836 21.6119L12.1842 21.6115L11.077 19.9459ZM9.61394 18.4465C9.29877 18.532 8.96682 18.5151 8.65829 18.3957L7.21526 22.1264C8.31662 22.5524 9.52095 22.6162 10.6611 22.307L9.61394 18.4465ZM8.65829 18.3957C8.34857 18.2759 8.06666 18.054 7.86103 17.7447L4.53003 19.9593C5.18147 20.9391 6.11511 21.7008 7.21526 22.1264L8.65829 18.3957ZM7.84592 17.7223C7.7309 17.5542 7.64629 17.3595 7.60066 17.1487L3.69124 17.9952C3.84506 18.7056 4.13413 19.3812 4.54514 19.9817L7.84592 17.7223ZM7.60066 17.1487C7.55501 16.9379 7.55009 16.7188 7.58642 16.5055L3.64317 15.8341C3.52118 16.5505 3.53744 17.2849 3.69124 17.9952L7.60066 17.1487ZM7.58467 16.5156C7.59611 16.4504 7.6118 16.3865 7.63153 16.3244L3.81893 15.1144C3.74517 15.3468 3.68706 15.5839 3.64491 15.824L7.58467 16.5156ZM7.63354 16.318L7.72058 16.0405L3.90396 14.8433L3.81692 15.1207L7.63354 16.318ZM4.59644 17.0299L4.83345 17.2114L7.26511 14.0353L7.0281 13.8539L4.59644 17.0299ZM4.83185 17.2101C5.56165 17.7701 6.38131 18.1985 7.25632 18.4743L8.45856 14.6592C8.03399 14.5254 7.63064 14.3158 7.26671 14.0366L4.83185 17.2101ZM7.25378 18.4735L7.42556 18.5278L8.63288 14.7144L8.4611 14.66L7.25378 18.4735ZM6.03693 16.4456L6.02116 16.6246L10.0057 16.9757L10.0215 16.7967L6.03693 16.4456ZM6.02013 16.6367C5.96252 17.3392 6.14368 18.0482 6.54506 18.6398L9.85515 16.3941C9.97372 16.5689 10.0226 16.77 10.0067 16.9637L6.02013 16.6367ZM6.534 18.6234C6.88588 19.1533 7.39495 19.5717 8.00279 19.807L9.44652 16.0766C9.62954 16.1474 9.7724 16.2693 9.86621 16.4106L6.534 18.6234ZM8.00279 19.807C8.61184 20.0427 9.2798 20.0783 9.91176 19.9068L8.86387 16.0465C9.05732 15.994 9.26231 16.0053 9.44652 16.0766L8.00279 19.807ZM9.92257 19.9038C10.2268 19.8194 10.514 19.6877 10.7747 19.5153L8.56816 16.179C8.65353 16.1225 8.74948 16.0782 8.85306 16.0495L9.92257 19.9038ZM10.7791 19.5124L15.4027 16.437L13.1873 13.1065L8.56378 16.1819L10.7791 19.5124ZM15.393 16.4434C15.7426 16.2137 16.0362 15.9148 16.2593 15.5699L12.9008 13.3973C12.9743 13.2837 13.0737 13.181 13.197 13.1001L15.393 16.4434ZM16.2593 15.5699C16.4823 15.2253 16.6311 14.8406 16.7003 14.4409L12.7588 13.7592C12.7804 13.6341 12.8274 13.5107 12.9008 13.3973L16.2593 15.5699ZM16.7015 14.4337C16.7677 14.0426 16.7586 13.642 16.6745 13.254L12.7652 14.1008C12.7413 13.9905 12.7388 13.8772 12.7575 13.7664L16.7015 14.4337ZM16.6745 13.254C16.5905 12.866 16.4323 12.4949 16.2057 12.1632L12.903 14.4198C12.8347 14.3199 12.7891 14.2112 12.7652 14.1008L16.6745 13.254ZM16.2203 12.1849C15.8685 11.6553 15.3597 11.237 14.7522 11.0017L13.3074 14.7316C13.1247 14.6609 12.9821 14.5392 12.8884 14.3981L16.2203 12.1849ZM14.7522 11.0017C14.1435 10.7659 13.4758 10.7299 12.844 10.901L13.8893 14.762C13.6961 14.8143 13.4914 14.8029 13.3074 14.7316L14.7522 11.0017ZM12.8315 10.9044C12.5276 10.9888 12.2406 11.1203 11.9801 11.2926L14.186 14.6293C14.1008 14.6856 14.0051 14.7299 13.9018 14.7586L12.8315 10.9044ZM11.9753 11.2957L10.2109 12.4694L12.4264 15.7999L14.1907 14.6262L11.9753 11.2957ZM10.2136 12.4677C10.096 12.5456 9.97055 12.6025 9.8419 12.6384L10.9163 16.4914C11.4524 16.3419 11.9606 16.1087 12.4237 15.8016L10.2136 12.4677ZM9.85549 12.6347C9.54034 12.7202 9.20841 12.7033 8.8999 12.5839L7.45687 16.3146C8.55825 16.7406 9.76262 16.8044 10.9027 16.4951L9.85549 12.6347ZM8.8999 12.5839C8.5902 12.4641 8.3083 12.2422 8.10269 11.9329L4.77161 14.1474C5.42304 15.1273 6.35669 15.889 7.45687 16.3146L8.8999 12.5839ZM8.08734 11.9101C7.97233 11.7422 7.88771 11.5475 7.84208 11.3368L3.93272 12.1835C4.0866 12.894 4.3758 13.5697 4.78696 14.1701L8.08734 11.9101ZM7.84208 11.3368C7.79644 11.1261 7.79152 10.907 7.82784 10.6937L3.88462 10.0222C3.76259 10.7387 3.77886 11.4731 3.93272 12.1835L7.84208 11.3368ZM7.82717 10.6977C7.86042 10.5048 7.93123 10.3256 8.03115 10.1712L4.67298 7.99805C4.27614 8.61128 4.00919 9.2995 3.8853 10.0182L7.82717 10.6977ZM8.03115 10.1712C8.13094 10.017 8.25633 9.89262 8.39514 9.80163L6.20223 6.45631C5.58939 6.85804 5.06995 7.38463 4.67298 7.99805L8.03115 10.1712ZM8.40613 9.79438L13.0302 6.71949L10.8153 3.38868L6.19124 6.46357L8.40613 9.79438ZM13.0291 6.72021C13.1464 6.64234 13.2716 6.58548 13.3999 6.54966L12.3247 2.69688C11.7883 2.84659 11.2797 3.0803 10.8164 3.38796L13.0291 6.72021ZM13.3859 6.55353C13.701 6.46804 14.033 6.48495 14.3415 6.60429L15.7845 2.87365C14.6832 2.44764 13.4789 2.38378 12.3388 2.69302L13.3859 6.55353ZM14.3415 6.60429C14.6512 6.72409 14.9331 6.94604 15.1388 7.25534L18.4698 5.04075C17.8183 4.06089 16.8847 3.29919 15.7845 2.87365L14.3415 6.60429ZM15.154 7.27785C15.269 7.44588 15.3536 7.64061 15.3993 7.85136L19.3086 7.00465C19.1548 6.29425 18.8656 5.61866 18.4546 5.01823L15.154 7.27785ZM15.3993 7.85136C15.4449 8.06217 15.4499 8.28127 15.4136 8.49464L19.3568 9.16581C19.4788 8.44934 19.4625 7.71499 19.3086 7.00465L15.3993 7.85136ZM15.4158 8.48152C15.404 8.5481 15.388 8.61345 15.3678 8.67707L19.1813 9.88422C19.2545 9.65316 19.3123 9.41752 19.3546 9.17893L15.4158 8.48152ZM15.3663 8.68201L15.2792 8.95948L19.0958 10.1567L19.1829 9.87928L15.3663 8.68201ZM18.4024 7.96935L18.1655 7.78826L15.7359 10.9658L15.9727 11.1469L18.4024 7.96935ZM18.1683 7.79035C17.4384 7.23028 16.6187 6.80175 15.7435 6.52605L14.5416 10.3412C14.9661 10.4749 15.3693 10.6845 15.7331 10.9637L18.1683 7.79035ZM15.7456 6.52673L15.5737 6.47234L14.3675 10.2861L14.5395 10.3405L15.7456 6.52673ZM16.9627 8.55674L16.9787 8.37768L12.9944 8.0227L12.9785 8.20175L16.9627 8.55674ZM16.9799 8.36316C17.0373 7.6614 16.8566 6.9532 16.4564 6.36183L13.1438 8.60386C13.026 8.42989 12.9775 8.22982 12.9932 8.03721L16.9799 8.36316ZM16.466 6.37628C16.1141 5.84647 15.6051 5.42811 14.9974 5.19289L13.5536 8.92326C13.3707 8.85245 13.2279 8.73063 13.1341 8.58941L16.466 6.37628ZM14.9974 5.19289C14.3884 4.9572 13.7205 4.92151 13.0886 5.09296L14.1361 8.95339C13.9427 9.00586 13.7378 8.99452 13.5536 8.92326L14.9974 5.19289ZM13.0776 5.09599C12.7734 5.1804 12.4862 5.31206 12.2254 5.4845L14.432 8.82082C14.3466 8.87729 14.2507 8.92162 14.1471 8.95036L13.0776 5.09599ZM12.2212 5.4873L7.5964 8.56293L9.81142 11.8936L14.4362 8.81802L12.2212 5.4873ZM7.60638 8.55633C7.25646 8.78603 6.96261 9.08518 6.73944 9.43035L10.0985 11.6021C10.0248 11.7161 9.92508 11.8191 9.80143 11.9002L7.60638 8.55633ZM6.73944 9.43035C6.5164 9.77532 6.36764 10.1604 6.29877 10.5604L10.2408 11.2391C10.2192 11.3646 10.172 11.4884 10.0985 11.6021L6.73944 9.43035ZM6.29807 10.5645C6.23153 10.9558 6.24036 11.3567 6.32427 11.745L10.234 10.9C10.2579 11.0105 10.2603 11.124 10.2415 11.235L6.29807 10.5645ZM6.32427 11.745C6.4082 12.1333 6.56634 12.5046 6.79305 12.8365L10.0961 10.5804C10.1644 10.6805 10.2101 10.7894 10.234 10.9L6.32427 11.745ZM6.7787 12.8152C7.13053 13.3448 7.6393 13.763 8.24675 13.9983L9.69149 10.2683C9.87415 10.3391 10.0167 10.4607 10.1104 10.6017L6.7787 12.8152ZM8.24675 13.9983C8.85539 14.234 9.52295 14.27 10.1547 14.0991L9.10984 10.238C9.303 10.1857 9.50763 10.1971 9.69149 10.2683L8.24675 13.9983ZM10.1684 14.0953C10.4716 14.011 10.758 13.8797 11.0181 13.7079L8.81375 10.3701C8.89842 10.3142 8.99353 10.2703 9.09619 10.2417L10.1684 14.0953ZM11.0233 13.7044L12.7875 12.5313L10.5727 9.2005L8.80847 10.3736L11.0233 13.7044ZM12.7869 12.5317C12.9037 12.4542 13.0283 12.3976 13.1561 12.362L12.0832 8.50857C11.5461 8.65812 11.037 8.89198 10.5733 9.20007L12.7869 12.5317ZM13.1432 12.3655C13.4584 12.28 13.7903 12.2969 14.0987 12.4163L15.5418 8.68565C14.4405 8.25962 13.2361 8.19577 12.096 8.50504L13.1432 12.3655ZM14.0987 12.4163C14.4084 12.5361 14.6903 12.758 14.8959 13.0673L18.227 10.8528C17.5756 9.87295 16.642 9.11121 15.5418 8.68565L14.0987 12.4163ZM14.9112 13.09C15.0262 13.258 15.1109 13.4527 15.1565 13.6633L19.0658 12.8166C18.912 12.1062 18.6228 11.4305 18.2116 10.8301L14.9112 13.09ZM15.1565 13.6633C15.2021 13.8741 15.2071 14.0931 15.1707 14.3064L19.1139 14.978C19.236 14.2615 19.2197 13.5271 19.0658 12.8166L15.1565 13.6633ZM15.1713 14.3031C15.1381 14.4962 15.0673 14.6754 14.9674 14.83L18.3268 17.0014C18.7232 16.3881 18.9898 15.6999 19.1134 14.9813L15.1713 14.3031ZM14.9674 14.83C14.8676 14.9844 14.7422 15.109 14.6034 15.2002L16.7989 18.5438C17.4113 18.1416 17.9302 17.6149 18.3268 17.0014L14.9674 14.83ZM14.5939 15.2064L9.96982 18.2804L12.1842 21.6115L16.8083 18.5375L14.5939 15.2064ZM9.97049 18.2799C9.85335 18.3577 9.7283 18.4145 9.60009 18.4503L10.6749 22.3032C11.2115 22.1535 11.7202 21.9197 12.1836 21.6119L9.97049 18.2799Z" fill="#5B6071" mask="url(#path-1-outside-1_3475_9191)"/>
</svg>
