<svg width="24" height="24" viewBox="0 0 24 24" fill="none" xmlns="http://www.w3.org/2000/svg">
<path d="M10.3082 1.83527C10.1501 2.44487 10.0306 3.03911 9.92881 3.64007C9.08243 3.83666 8.27019 4.15861 7.51897 4.59527C7.03345 4.25207 6.53881 3.91991 6.01465 3.61511L3.61609 5.99783C3.90296 6.485 4.21044 6.95975 4.53769 7.42079C4.03202 8.20142 3.65384 9.05757 3.41737 9.95711C2.88889 10.0519 2.36497 10.1604 1.83649 10.3003V13.686C2.32873 13.817 2.81665 13.9188 3.30889 14.0066C3.51099 14.9819 3.87845 15.9153 4.39537 16.7666C4.11898 17.1626 3.85978 17.5702 3.61849 17.9885L6.01489 20.3849C6.42121 20.1501 6.80761 19.8972 7.18465 19.6373C8.05068 20.1949 9.00895 20.5942 10.0147 20.8164C10.0959 21.2695 10.1946 21.7193 10.3106 22.1647H13.7122C13.8319 21.7039 13.9291 21.2431 14.0148 20.7847C14.9922 20.5464 15.9213 20.1414 16.7611 19.5876C17.1677 19.8631 17.5742 20.1297 17.9942 20.3803L20.3885 17.9817C20.1222 17.5317 19.8382 17.0925 19.537 16.6651C20.0167 15.8451 20.36 14.9526 20.5534 14.0225C21.091 13.9231 21.6262 13.8168 22.1638 13.6745V10.2979C21.5969 10.1467 21.0298 10.0315 20.4494 9.93431C20.2236 9.08105 19.8712 8.26647 19.4038 7.51775C19.7571 7.02515 20.0886 6.5173 20.3974 5.99567L17.9942 3.60383C17.4499 3.92447 16.9327 4.27007 16.427 4.63127C15.698 4.1957 14.9087 3.87003 14.0846 3.66479C13.9831 3.05495 13.8612 2.44511 13.6985 1.83527H10.3082ZM11.9162 5.80583C11.9223 5.80582 11.9284 5.80582 11.9345 5.80583C12.6827 5.8047 13.4251 5.93626 14.1274 6.19439C14.2879 6.25295 14.4437 6.31631 14.5994 6.39743C15.9434 7.01644 17.033 8.07975 17.6846 9.40823C17.7456 9.53255 17.8022 9.65903 17.8565 9.78551C18.4519 11.2336 18.4944 12.8501 17.976 14.3275C17.9513 14.3997 17.9263 14.4698 17.8992 14.5308C17.2846 16.0946 16.0835 17.3565 14.5519 18.0475L14.5092 18.0768C13.7163 18.4241 12.8613 18.6074 11.9957 18.6156C11.1302 18.6238 10.2719 18.4566 9.47257 18.1243C9.47336 18.1206 9.47336 18.1167 9.47257 18.113C8.67948 17.7788 7.96144 17.289 7.36088 16.6726C6.76031 16.0562 6.28941 15.3256 5.97601 14.5241L5.94433 14.4381C5.36742 12.8886 5.41275 11.1759 6.07081 9.65903C6.10681 9.57335 6.14521 9.48743 6.18841 9.40391C6.86389 8.0248 8.00891 6.93169 9.41785 6.32087C9.5581 6.2607 9.70052 6.2057 9.84481 6.15599C10.5112 5.92608 11.2113 5.80777 11.9162 5.80583ZM14.0009 7.35959C13.8589 7.35781 13.7186 7.39027 13.5919 7.45423C13.4652 7.51819 13.3557 7.61176 13.2728 7.72701C13.1899 7.84226 13.136 7.9758 13.1157 8.1163C13.0954 8.2568 13.1092 8.40013 13.1561 8.53415C13.2019 8.66192 13.277 8.77718 13.3754 8.87063L12.5623 10.2801C12.3099 10.17 12.0355 10.1198 11.7605 10.1333C11.4554 10.1503 11.1599 10.2466 10.9033 10.4125C10.6467 10.5784 10.4377 10.8083 10.297 11.0796L8.55337 10.3953V10.3771C8.57369 10.1811 8.52217 9.98444 8.40837 9.82359C8.29457 9.66275 8.12625 9.5487 7.93468 9.50264C7.74311 9.45658 7.54133 9.48164 7.36685 9.57317C7.19238 9.6647 7.05707 9.81646 6.98608 10.0003C6.91509 10.1841 6.91325 10.3874 6.9809 10.5724C7.04855 10.7575 7.1811 10.9117 7.35389 11.0063C7.52668 11.101 7.72798 11.1297 7.92035 11.0871C8.11272 11.0445 8.28308 10.9335 8.39977 10.7748L10.1434 11.459C10.0609 11.7842 10.0731 12.1261 10.1783 12.4445C10.2835 12.763 10.4775 13.0448 10.7374 13.2569L9.92425 14.5262C9.77823 14.4668 9.62084 14.4406 9.46345 14.4494C9.21477 14.4647 8.97895 14.5652 8.79568 14.734C8.61241 14.9028 8.49287 15.1296 8.45717 15.3761C8.42148 15.6227 8.4718 15.8741 8.59969 16.0879C8.72757 16.3017 8.9252 16.465 9.15933 16.5502C9.39345 16.6354 9.64978 16.6373 9.88519 16.5557C10.1206 16.4741 10.3207 16.3139 10.4518 16.1021C10.583 15.8902 10.6371 15.6397 10.6052 15.3926C10.5733 15.1455 10.4572 14.9169 10.2766 14.7453L11.0897 13.4805C11.426 13.6439 11.8055 13.696 12.1733 13.6294C12.5412 13.5628 12.8783 13.3809 13.1359 13.11L14.1523 13.8689C14.0566 14.0516 14.0061 14.2547 14.0053 14.4611C14.0045 14.6674 14.0532 14.8709 14.1475 15.0545C14.2418 15.238 14.3788 15.3962 14.547 15.5157C14.7152 15.6352 14.9096 15.7126 15.114 15.7412C15.3183 15.7699 15.5266 15.749 15.7211 15.6803C15.9157 15.6116 16.0909 15.4972 16.232 15.3466C16.3731 15.196 16.4759 15.0138 16.5318 14.8152C16.5878 14.6165 16.5951 14.4074 16.5533 14.2053C16.5068 13.9788 16.4002 13.7689 16.2446 13.5978C16.089 13.4266 15.8902 13.3006 15.669 13.2329C15.4478 13.1652 15.2125 13.1583 14.9878 13.213C14.763 13.2677 14.5572 13.3819 14.3918 13.5437L13.3776 12.7896C13.597 12.417 13.671 11.9765 13.5856 11.5526C13.5001 11.1287 13.2612 10.7513 12.9146 10.4928L13.7278 9.08327C13.8491 9.12267 13.9775 9.13533 14.1042 9.12037C14.2308 9.10541 14.3528 9.0632 14.4616 8.99663C14.5704 8.93006 14.6634 8.84071 14.7344 8.73473C14.8054 8.62875 14.8526 8.50866 14.8727 8.38271C14.8929 8.25675 14.8855 8.12794 14.8511 8.00511C14.8167 7.88228 14.7561 7.76836 14.6735 7.67119C14.5909 7.57401 14.4882 7.49588 14.3725 7.44217C14.2568 7.38847 14.1308 7.36046 14.0033 7.36007L14.0009 7.35959Z" fill="#5B6071"/>
</svg>
