<svg width="32" height="32" viewBox="0 0 32 32" fill="none" xmlns="http://www.w3.org/2000/svg">
<path d="M5.19402 11.4467C5.19202 11.4493 5.13136 11.456 5.06002 11.4647C4.99069 11.4713 4.91002 11.4827 4.88069 11.4893C4.85402 11.496 4.80736 11.5053 4.77602 11.5093C4.70002 11.5207 4.53002 11.568 4.47402 11.5927C4.44936 11.6013 4.36669 11.6347 4.28802 11.666C3.89469 11.8227 3.49202 12.14 3.21269 12.518C3.15002 12.6033 3.08936 12.684 3.08069 12.6973C2.98002 12.8293 2.76736 13.348 2.72736 13.558C2.65536 13.932 2.64669 14.3453 2.70469 14.6207C2.80136 15.0813 2.93936 15.39 3.20602 15.7453C3.27269 15.8347 3.75402 16.336 4.27736 16.8573C4.95936 17.5393 5.23669 17.8347 5.26802 17.9013C5.37736 18.1427 5.26336 18.436 5.01269 18.548C4.93469 18.5813 4.85402 18.588 4.42002 18.59C4.14536 18.59 3.87202 18.6013 3.81669 18.6127C3.32869 18.718 2.97069 19.1447 2.95536 19.6433C2.94202 20.0327 3.11869 20.3773 3.44736 20.6053C3.67069 20.7573 3.83202 20.7867 4.49602 20.7867C4.99069 20.7867 5.16936 20.7733 5.37936 20.726C5.41069 20.7193 5.46469 20.708 5.50069 20.7013C5.70402 20.666 6.29002 20.3927 6.38602 20.29C6.39269 20.2833 6.43536 20.25 6.48202 20.216C6.63002 20.1047 6.85602 19.872 6.99202 19.686C7.24269 19.344 7.44402 18.832 7.49536 18.4113C7.51336 18.2547 7.51536 17.8547 7.49736 17.7627C7.49069 17.7313 7.47536 17.644 7.45936 17.566C7.39469 17.2033 7.18869 16.7587 6.95202 16.4587C6.88269 16.3693 6.39936 15.8727 5.88069 15.352C4.84736 14.3167 4.84536 14.3167 4.87202 14.0947C4.91202 13.7507 5.24802 13.554 5.55402 13.6927C5.62536 13.724 6.44202 14.5287 8.83269 16.9173C10.582 18.6687 12.0487 20.1287 12.0914 20.1647C12.134 20.2007 12.248 20.2813 12.346 20.346C13.288 20.9633 14.502 20.9273 15.4214 20.2607C15.5647 20.156 15.846 19.876 15.958 19.7287L16.0367 19.6233L16.2934 19.8787C16.5194 20.1 16.58 20.156 16.6854 20.2407C16.6987 20.25 16.772 20.3013 16.8507 20.3527C17.7407 20.9433 18.9934 20.932 19.8854 20.3213C20.042 20.214 20.0934 20.1713 20.2614 20.0107C20.6327 19.6507 20.9187 19.1047 21.0194 18.5567C21.0527 18.3867 21.0574 17.794 21.028 17.6507C21.0214 17.6193 21.0107 17.5593 21.0034 17.5167C20.9454 17.2193 20.7467 16.788 20.5294 16.4967C20.4647 16.4073 19.9907 15.9133 19.476 15.3987C18.962 14.8847 18.5167 14.428 18.4874 14.388C18.418 14.292 18.4007 14.0747 18.4494 13.9587C18.494 13.8513 18.5814 13.748 18.6707 13.6993C18.7334 13.6633 18.8187 13.6587 19.4094 13.652L20.0754 13.6453L20.0574 13.764C20.0354 13.9047 20.0374 14.4327 20.0574 14.542C20.0667 14.5847 20.078 14.6493 20.0847 14.6873C20.1134 14.84 20.194 15.0793 20.2767 15.256C20.4827 15.696 20.456 15.6647 22.7327 17.9487C23.8954 19.116 24.9287 20.1333 25.0274 20.2093C25.4094 20.5067 25.7587 20.6633 26.2347 20.7487C26.4407 20.784 26.8007 20.7953 26.9727 20.7707C27.21 20.7353 27.3354 20.708 27.494 20.6567C28.4867 20.3367 29.2114 19.4467 29.3214 18.416C29.3767 17.8927 29.2427 17.528 28.8987 17.2593C28.552 16.9913 28.082 16.962 27.6887 17.1833C27.3667 17.3627 27.1587 17.716 27.138 18.1093C27.1207 18.4447 26.8634 18.644 26.5454 18.566C26.4407 18.5413 26.36 18.4627 24.394 16.5013C23.2714 15.3807 22.3254 14.4193 22.294 14.368C22.1887 14.1913 22.2294 13.9273 22.3834 13.7793C22.504 13.6633 22.578 13.648 23.0587 13.648C23.598 13.648 23.7547 13.6167 23.9874 13.4573C24.6894 12.9813 24.6267 11.9527 23.8707 11.5633C23.6447 11.4467 23.674 11.4493 21.158 11.4467C18.662 11.4467 18.5367 11.4513 18.2507 11.5273C18.2014 11.5387 18.1454 11.5547 18.1274 11.5567C18.0607 11.572 17.7987 11.6753 17.7027 11.724C17.4054 11.874 17.0047 12.2007 16.7927 12.4647C16.6447 12.65 16.448 13.0193 16.3627 13.2653C16.0854 14.0747 16.2 14.9247 16.678 15.6407C16.7927 15.8127 16.9914 16.0253 17.7987 16.8347C18.338 17.376 18.796 17.848 18.8167 17.886C18.8967 18.0427 18.8567 18.286 18.7227 18.4293C18.6107 18.55 18.5414 18.5767 18.34 18.5767C18.1947 18.5767 18.1454 18.568 18.0827 18.5273C18.04 18.5007 16.4774 16.9507 14.6054 15.0813C12.044 12.5207 11.172 11.662 11.074 11.6033C10.832 11.458 10.53 11.4133 10.2507 11.478C9.85936 11.57 9.51069 11.9347 9.43469 12.328C9.38069 12.608 9.44802 12.93 9.60869 13.1667C9.64269 13.216 10.7 14.2873 11.9614 15.5487C14.0507 17.64 14.256 17.85 14.2807 17.942C14.33 18.1187 14.3034 18.2547 14.1894 18.416C14.0774 18.57 13.784 18.628 13.5987 18.532C13.556 18.5073 12.0687 17.038 10.2934 15.2667C7.73269 12.706 7.03269 12.0193 6.89402 11.928C6.42402 11.6147 5.95469 11.4627 5.41802 11.4493C5.29669 11.4467 5.19602 11.4447 5.19402 11.4467Z" fill="url(#paint0_linear_3475_8816)"/>
<defs>
<linearGradient id="paint0_linear_3475_8816" x1="2.66669" y1="16.1167" x2="29.3334" y2="16.1167" gradientUnits="userSpaceOnUse">
<stop stop-color="#5B6071"/>
<stop offset="1" stop-color="#5B6071"/>
</linearGradient>
</defs>
</svg>
