<svg width="24" height="24" viewBox="0 0 24 24" fill="none" xmlns="http://www.w3.org/2000/svg">
<path d="M15.4772 9.29839C15.4772 9.67202 15.3663 10.0372 15.1587 10.3479C14.9511 10.6585 14.6561 10.9007 14.3109 11.0437C13.9657 11.1866 13.5859 11.2241 13.2194 11.1512C12.853 11.0784 12.5163 10.8985 12.2521 10.6343C12.0324 10.4147 11.8702 10.1442 11.78 9.84686C11.6898 9.54955 11.6743 9.23457 11.7349 8.92983C11.7955 8.62509 11.9303 8.34001 12.1274 8.09982C12.3245 7.85963 12.5778 7.67177 12.8648 7.55286C13.1519 7.43395 13.4638 7.38767 13.773 7.41812C14.0822 7.44858 14.3792 7.55482 14.6375 7.72744C14.8958 7.90006 15.1076 8.13373 15.2541 8.40776C15.4005 8.68178 15.4772 8.98769 15.4772 9.29839Z" fill="#5B6071"/>
<path d="M10.41 12.8194C9.36656 12.8194 8.52075 13.6652 8.52075 14.7085C8.52075 15.752 9.36656 16.5978 10.41 16.5978C11.4533 16.5978 12.2993 15.752 12.2993 14.7085C12.2993 13.6652 11.4533 12.8194 10.41 12.8194Z" fill="#5B6071"/>
<path fill-rule="evenodd" clip-rule="evenodd" d="M17.5031 15.3525C16.7439 15.8434 15.8991 16.1872 15.0128 16.3659C15.2697 15.6336 15.3549 14.8521 15.2619 14.0816C16.0133 13.8189 16.6922 13.3828 17.2437 12.8087C17.7951 12.2346 18.2035 11.5387 18.4359 10.7773C18.7864 9.62861 18.7174 8.39274 18.2412 7.29018C17.7651 6.18762 16.9127 5.29006 15.8362 4.75763C14.7597 4.2252 13.529 4.09247 12.3638 4.38312C11.1985 4.67377 10.1744 5.36891 9.47402 6.34453C8.51276 6.45268 7.57734 6.72574 6.70886 7.15172C7.22692 5.48003 8.3351 4.05371 9.8269 3.13855C11.3187 2.2234 13.0923 1.88184 14.8173 2.17753C16.5423 2.4731 18.101 3.38574 19.2029 4.74539C20.3049 6.10504 20.8749 7.81895 20.8068 9.56775C20.7617 10.7266 20.4379 11.8574 19.8628 12.8645C19.2877 13.8715 18.4782 14.7251 17.5031 15.3527L17.5031 15.3525ZM6.79502 8.46544L8.56399 8.68013C8.6041 8.33851 8.67889 8.00187 8.78721 7.67541C8.08751 7.8381 7.41605 8.10438 6.79502 8.46544Z" fill="#5B6071"/>
<path fill-rule="evenodd" clip-rule="evenodd" d="M6.48583 8.65444C7.24966 8.15857 8.1005 7.81184 8.99336 7.63257C8.72327 8.36475 8.62627 9.1495 8.70995 9.92541C7.96113 10.1919 7.2855 10.6308 6.73764 11.2066C6.18979 11.7824 5.78507 12.4791 5.5562 13.2402C5.32728 14.0014 5.28068 14.8058 5.42016 15.5883C5.55964 16.3708 5.88129 17.1096 6.3591 17.7448C6.83692 18.38 7.45749 18.8939 8.17066 19.2448C8.88383 19.5958 9.66958 19.7741 10.4644 19.7652C11.2592 19.7564 12.0407 19.5607 12.7459 19.1939C13.451 18.8271 14.06 18.2996 14.5236 17.654C15.4843 17.5486 16.4197 17.2784 17.2887 16.8554C16.9446 17.962 16.3389 18.9693 15.5229 19.7922C14.7069 20.615 13.7047 21.2292 12.601 21.5826C11.4974 21.9361 10.3249 22.0185 9.18271 21.8228C8.04051 21.6271 6.96228 21.159 6.03929 20.4583C5.11633 19.7576 4.37575 18.8449 3.88026 17.7974C3.38476 16.7498 3.14893 15.5983 3.19271 14.4403C3.2365 13.2824 3.55862 12.152 4.13181 11.1449C4.705 10.1377 5.51239 9.28353 6.48564 8.65454L6.48583 8.65444Z" fill="#5B6071"/>
</svg>
