<svg width="24" height="24" viewBox="0 0 24 24" fill="none" xmlns="http://www.w3.org/2000/svg">
<path d="M14.69 5.74937C14.69 6.45528 14.4208 7.05427 13.8823 7.54617C13.3438 8.03807 12.6882 8.28414 11.9157 8.28414C11.1198 8.28414 10.4524 8.03815 9.91393 7.54617C9.37548 7.05419 9.10625 6.45527 9.10625 5.74937C9.10625 5.04352 9.37548 4.44457 9.91393 3.95257C10.4524 3.46059 11.1197 3.2146 11.9157 3.2146C12.6883 3.2146 13.3439 3.46059 13.8823 3.95257C14.4208 4.44455 14.69 5.04347 14.69 5.74937ZM9.0711 14.6327C9.0711 13.9268 9.34033 13.3279 9.87885 12.8359C10.4407 12.3224 11.1197 12.0658 11.9156 12.0658C12.6647 12.0658 13.3203 12.3224 13.8822 12.8359C14.4442 13.3278 14.7719 13.8841 14.8655 14.5043C15.0528 15.6594 14.8188 16.8038 14.1631 17.9375C13.5311 19.0712 12.6179 19.9375 11.4238 20.5364C10.7683 20.8786 10.2299 20.868 9.80845 20.5043C9.41042 20.162 9.5275 19.7556 10.1597 19.2851C10.5108 19.0497 10.8034 18.7502 11.0376 18.3866C11.2718 18.0229 11.4238 17.6487 11.4941 17.2636C11.5175 17.0925 11.4355 17.007 11.2483 17.007C10.78 16.9855 10.3001 16.7502 9.80844 16.301C9.31677 15.8519 9.0711 15.2958 9.0711 14.6327Z" fill="#5B6071"/>
</svg>
