<svg width="24" height="24" viewBox="0 0 24 24" fill="none" xmlns="http://www.w3.org/2000/svg">
<path d="M2 8.00001C2 4.6863 4.68629 2 8 2H15C18.3137 2 21 4.68629 21 8V16C21 19.3137 18.3137 22 15 22H8C4.68629 22 2 19.3137 2 16V8.00001ZM10.2929 15.7929C10.6834 16.1834 11.3166 16.1834 11.7071 15.7929L17.2947 10.2053C17.6842 9.81581 17.6842 9.18425 17.2947 8.79471V8.79471C16.9054 8.40542 16.2743 8.40514 15.8847 8.79408L11 13.67L8.61557 11.2933C8.22571 10.9047 7.5948 10.9052 7.20557 11.2945V11.2945C6.81589 11.6841 6.8159 12.3159 7.20557 12.7056L10.2929 15.7929Z" fill="#5B6071"/>
</svg>
