<svg width="24" height="24" viewBox="0 0 24 24" fill="none" xmlns="http://www.w3.org/2000/svg">
<path d="M12.7053 17.2489C12.7053 14.7257 14.7507 12.6804 17.2738 12.6804C19.7969 12.6804 21.8423 14.7257 21.8423 17.2489C21.8423 19.772 19.7969 21.8175 17.2738 21.8175C14.7507 21.8175 12.7053 19.772 12.7053 17.2489Z" fill="#5B6071"/>
<path d="M12.7053 6.75138C12.7053 4.22828 14.7507 2.18286 17.2738 2.18286C19.7969 2.18286 21.8423 4.22828 21.8423 6.75138V10.863C21.8423 11.1153 21.6377 11.3199 21.3854 11.3199H13.1621C12.9098 11.3199 12.7053 11.1153 12.7053 10.863V6.75138Z" fill="#5B6071"/>
<path d="M11.2945 17.2489C11.2945 19.772 9.24909 21.8175 6.72599 21.8175C4.20289 21.8175 2.15747 19.772 2.15747 17.2489L2.15747 13.1373C2.15747 12.8849 2.36201 12.6804 2.61432 12.6804H10.8377C11.09 12.6804 11.2945 12.8849 11.2945 13.1373L11.2945 17.2489Z" fill="#5B6071"/>
</svg>
