<svg width="24" height="24" viewBox="0 0 24 24" fill="none" xmlns="http://www.w3.org/2000/svg">
<g clip-path="url(#clip0_3475_9730)">
<path d="M12 4.92426C11.0708 4.92424 10.1507 5.10726 9.29223 5.46284C8.43375 5.81843 7.65372 6.33963 6.99667 6.99667C6.33963 7.65372 5.81843 8.43375 5.46284 9.29223C5.10726 10.1507 4.92424 11.0708 4.92426 12C4.92426 12.9292 5.10728 13.8493 5.46287 14.7078C5.81846 15.5662 6.33966 16.3463 6.9967 17.0033C7.65375 17.6603 8.43378 18.1815 9.29225 18.5371C10.1507 18.8927 11.0708 19.0757 12 19.0757C13.8766 19.0757 15.6763 18.3302 17.0033 17.0033C18.3302 15.6763 19.0757 13.8766 19.0757 12C19.0757 11.0708 18.8927 10.1507 18.5371 9.29225C18.1815 8.43378 17.6603 7.65375 17.0033 6.9967C16.3463 6.33966 15.5662 5.81846 14.7078 5.46287C13.8493 5.10728 12.9292 4.92426 12 4.92426ZM12.0009 6.93082C13.3451 6.93082 14.6342 7.46479 15.5847 8.41527C16.5352 9.36575 17.0691 10.6549 17.0691 11.9991C17.0691 13.3432 16.5352 14.6324 15.5847 15.5828C14.6342 16.5333 13.3451 17.0673 12.0009 17.0673C10.6567 17.0673 9.36759 16.5333 8.41711 15.5828C7.46663 14.6324 6.93265 13.3432 6.93265 11.9991C6.93265 10.6549 7.46663 9.36575 8.41711 8.41527C9.36759 7.46479 10.6567 6.93082 12.0009 6.93082Z" fill="#5B6071"/>
<path d="M3.60063 15.4477L0.977051 18.0713L3.60063 20.6948V19.0752H11.9999V17.0673H3.60063V15.4477ZM5.92702 0.976929L3.30345 3.6005H4.92312V11.9998H6.93099V3.6005H8.55064L5.92702 0.976929ZM20.3991 3.3043V4.92398H11.9999V6.9318H20.3991V8.55147L23.0227 5.9279L20.3991 3.3043ZM17.0656 11.9999V20.3991H15.446L18.0696 23.0227L20.6931 20.3991H19.0735V11.9999H17.0656Z" fill="#5B6071"/>
</g>
<defs>
<clipPath id="clip0_3475_9730">
<rect width="24" height="24" fill="white"/>
</clipPath>
</defs>
</svg>
