<svg width="24" height="24" viewBox="0 0 24 24" fill="none" xmlns="http://www.w3.org/2000/svg">
<path d="M17.282 17.282H6.71703V6.71703H17.282M21.508 10.943V8.83003H19.395V6.71703C19.395 5.54403 18.445 4.60403 17.282 4.60403H15.169V2.49103H13.056V4.60403H10.943V2.49103H8.83003V4.60403H6.71703C5.54403 4.60403 4.60403 5.54403 4.60403 6.71703V8.83003H2.49103V10.943H4.60403V13.056H2.49103V15.169H4.60403V17.282C4.60403 17.8424 4.82665 18.3799 5.22291 18.7761C5.61918 19.1724 6.15663 19.395 6.71703 19.395H8.83003V21.508H10.943V19.395H13.056V21.508H15.169V19.395H17.282C17.8424 19.395 18.3799 19.1724 18.7761 18.7761C19.1724 18.3799 19.395 17.8424 19.395 17.282V15.169H21.508V13.056H19.395V10.943M13.056 13.056H10.943V10.943H13.056M15.169 8.83003H8.83003V15.169H15.169V8.83003Z" fill="#5B6071"/>
</svg>
