<svg width="24" height="24" viewBox="0 0 24 24" fill="none" xmlns="http://www.w3.org/2000/svg">
<path d="M17.5753 8.32786L12.3188 15.928C12.2631 16.0086 12.1825 16.069 12.0893 16.0999C11.996 16.1309 11.8953 16.1306 11.8022 16.0995C11.7092 16.0682 11.6289 16.0076 11.5737 15.9268C11.5185 15.846 11.4912 15.7494 11.4961 15.6518L11.7065 11.4557L8.3103 10.7355C8.23771 10.7201 8.17009 10.6871 8.11341 10.6395C8.05673 10.5918 8.01273 10.531 7.98532 10.4624C7.95792 10.3937 7.94795 10.3194 7.9563 10.246C7.96465 10.1725 7.99105 10.1023 8.03318 10.0414L13.2896 2.44121C13.3453 2.36059 13.4259 2.30024 13.5192 2.2693C13.6124 2.23836 13.7132 2.23852 13.8063 2.26978C13.8993 2.30102 13.9796 2.36165 14.0348 2.44246C14.09 2.52326 14.1172 2.61983 14.1123 2.71752L13.9019 6.91359L17.2982 7.63379C17.3707 7.64917 17.4384 7.68214 17.4951 7.72977C17.5518 7.7774 17.5958 7.83823 17.6231 7.90687C17.6506 7.97551 17.6605 8.04984 17.6522 8.12326C17.6439 8.1967 17.6175 8.26696 17.5753 8.32786Z" fill="#5B6071"/>
<path d="M12.0708 22.304C11.931 22.3042 11.7926 22.2768 11.6634 22.2233C11.5342 22.1698 11.4169 22.0912 11.3182 21.9923L6.3515 17.0259C6.15281 16.8262 6.04144 16.5558 6.0418 16.274C6.04218 15.9923 6.15427 15.722 6.35351 15.5229C6.55274 15.3236 6.82286 15.2115 7.10462 15.2111C7.3864 15.2108 7.65683 15.322 7.85661 15.5207L12.0709 19.7346L21.2517 10.5542C21.4518 10.3573 21.7216 10.2474 22.0024 10.2486C22.2832 10.2497 22.5522 10.3618 22.7506 10.5603C22.9491 10.7588 23.0613 11.0278 23.0624 11.3085C23.0634 11.5893 22.9536 11.8591 22.7567 12.0593L12.8233 21.9924C12.7246 22.0914 12.6073 22.1698 12.4782 22.2234C12.349 22.2769 12.2106 22.3042 12.0708 22.304Z" fill="#5B6071"/>
<path d="M12.0665 22.304C12.2063 22.3042 12.3447 22.2768 12.4739 22.2233C12.6031 22.1698 12.7204 22.0912 12.8191 21.9923L17.7858 17.0259C17.9845 16.8262 18.0959 16.5558 18.0955 16.274C18.0952 15.9923 17.983 15.722 17.7838 15.5229C17.5845 15.3236 17.3144 15.2115 17.0326 15.2111C16.7509 15.2108 16.4805 15.322 16.2806 15.5207L12.0664 19.7346L2.88559 10.5542C2.68544 10.3573 2.4156 10.2474 2.13484 10.2486C1.85407 10.2497 1.58512 10.3618 1.38659 10.5603C1.18806 10.7588 1.07602 11.0278 1.07487 11.3085C1.07372 11.5893 1.18357 11.8591 1.38048 12.0593L11.314 21.9924C11.4127 22.0914 11.53 22.1698 11.6591 22.2234C11.7883 22.2769 11.9267 22.3042 12.0665 22.304Z" fill="#5B6071" fill-opacity="0.50196"/>
</svg>
