<svg width="24" height="24" viewBox="0 0 24 24" fill="none" xmlns="http://www.w3.org/2000/svg">
<path d="M6 3.5C5.44772 3.5 5 3.94772 5 4.5V20.5C5 21.0523 5.44772 21.5 6 21.5H18C18.5523 21.5 19 21.0523 19 20.5V8.5C19 8.19622 18.8619 7.9089 18.6247 7.71913L13.6247 3.71913C13.4474 3.57728 13.2271 3.5 13 3.5H6Z" stroke="#5B6071" stroke-width="2" stroke-linejoin="round"/>
<path d="M12 4.5V9.5H18" stroke="#5B6071" stroke-width="2" stroke-linejoin="round"/>
<path d="M12.0938 13.029L17.9521 23.1401L23.8104 13.0778V13.0285H21.5328L17.9865 19.1204L14.4551 13.029H12.0938Z" fill="#5B6071"/>
<path d="M14.4557 13.029L17.9859 19.1215L21.5328 13.029H19.3964L18.0003 15.4271L16.6093 13.0285L14.4557 13.029Z" fill="#5B6071"/>
</svg>
