<svg width="24" height="24" viewBox="0 0 24 24" fill="none" xmlns="http://www.w3.org/2000/svg">
<g clip-path="url(#clip0_3475_9649)">
<path d="M20.3636 0.5H3.63636C1.9042 0.5 0.5 1.9042 0.5 3.63636V20.3636C0.5 22.0958 1.9042 23.5 3.63636 23.5H20.3636C22.0958 23.5 23.5 22.0958 23.5 20.3636V3.63636C23.5 1.9042 22.0958 0.5 20.3636 0.5Z" stroke="#5B6071" stroke-width="2"/>
<path d="M11.2615 4.27271H9.51147C9.02823 4.27271 8.63647 4.72042 8.63647 5.27271V7.27271C8.63647 7.82499 9.02823 8.27271 9.51147 8.27271H11.2615C11.7447 8.27271 12.1365 7.82499 12.1365 7.27271V5.27271C12.1365 4.72042 11.7447 4.27271 11.2615 4.27271Z" fill="#5B6071"/>
<path d="M11.2615 12.2727H9.51147C9.02823 12.2727 8.63647 12.7204 8.63647 13.2727V15.2727C8.63647 15.825 9.02823 16.2727 9.51147 16.2727H11.2615C11.7447 16.2727 12.1365 15.825 12.1365 15.2727V13.2727C12.1365 12.7204 11.7447 12.2727 11.2615 12.2727Z" fill="#5B6071"/>
<path d="M14.7615 16.2727H13.0115C12.5282 16.2727 12.1365 16.7204 12.1365 17.2727V19.2727C12.1365 19.825 12.5282 20.2727 13.0115 20.2727H14.7615C15.2447 20.2727 15.6365 19.825 15.6365 19.2727V17.2727C15.6365 16.7204 15.2447 16.2727 14.7615 16.2727Z" fill="#5B6071"/>
<path d="M14.7615 8.27271H13.0115C12.5282 8.27271 12.1365 8.72042 12.1365 9.27271V11.2727C12.1365 11.825 12.5282 12.2727 13.0115 12.2727H14.7615C15.2447 12.2727 15.6365 11.825 15.6365 11.2727V9.27271C15.6365 8.72042 15.2447 8.27271 14.7615 8.27271Z" fill="#5B6071"/>
</g>
<defs>
<clipPath id="clip0_3475_9649">
<rect width="24" height="24" rx="3" fill="white"/>
</clipPath>
</defs>
</svg>
