<svg width="24" height="24" viewBox="0 0 24 24" fill="none" xmlns="http://www.w3.org/2000/svg">
<path d="M13.295 11.033V7.64998L15.421 5.51398C16.195 4.75098 16.34 3.53298 15.798 2.58498C15.5916 2.21748 15.2915 1.91125 14.9282 1.69747C14.5649 1.48369 14.1515 1.37 13.73 1.36798C13.527 1.36798 13.295 1.39698 13.111 1.45498C12.067 1.73498 11.362 2.70098 11.362 3.78498V6.91498L8.327 9.97998C7.53937 10.7837 7.00505 11.801 6.7903 12.9057C6.57556 14.0103 6.68985 15.1537 7.119 16.194C7.47669 17.0792 8.05391 17.8588 8.79624 18.4592C9.53856 19.0597 10.4216 19.4612 11.362 19.626V20.216C11.358 20.3427 11.3058 20.4631 11.216 20.5527C11.1263 20.6423 11.0057 20.6942 10.879 20.698H9.429V22.632H10.879C11.5188 22.6283 12.1313 22.3724 12.5837 21.9199C13.036 21.4674 13.2916 20.8548 13.295 20.215V19.732C15.257 19.732 17.315 17.876 17.315 15.141C17.315 12.918 15.46 11.033 13.295 11.033ZM13.295 3.78398C13.295 3.56198 13.401 3.38798 13.605 3.32998C13.7069 3.30068 13.8156 3.30666 13.9136 3.34696C14.0117 3.38726 14.0932 3.45951 14.145 3.55198C14.2 3.64476 14.2224 3.75331 14.2084 3.86028C14.1944 3.96725 14.145 4.06644 14.068 4.14198L13.295 4.97198V3.78498M11.362 11.517C10.424 12.136 9.719 13.199 9.468 14.185L11.362 14.688V17.636C10.8078 17.4874 10.2953 17.2129 9.86451 16.8339C9.43368 16.455 9.09609 15.9817 8.878 15.451C8.59708 14.7642 8.52334 14.0102 8.66585 13.282C8.80837 12.5538 9.16091 11.8832 9.68 11.353L11.362 9.58398V11.517ZM13.295 17.8V12.91C14.425 12.91 15.402 13.972 15.402 15.142C15.402 16.833 14.175 17.8 13.295 17.8Z" fill="#5B6071"/>
</svg>
