<svg width="24" height="24" viewBox="0 0 24 24" fill="none" xmlns="http://www.w3.org/2000/svg">
<path d="M4.74399 2.73101C4.74399 2.34441 4.42903 2.02371 4.04565 2.07353C3.2437 2.17776 2.63965 2.47359 2.23399 2.96101C1.71899 3.57301 1.46299 4.63901 1.46299 6.15801V8.62501C1.46299 9.57874 1.27854 10.209 0.911198 10.5164C0.614716 10.7645 0.261993 11.0494 0.261993 11.436V12.071C0.261993 12.4576 0.613882 12.7409 0.913752 12.9849C1.27925 13.2823 1.46199 13.8898 1.46199 14.807V17.461C1.46199 18.973 1.72199 20.023 2.24199 20.613C2.64987 21.0758 3.25155 21.3571 4.04558 21.4569C4.42916 21.5051 4.74399 21.1846 4.74399 20.798V20.13C4.74399 19.7434 4.40263 19.4674 4.07233 19.2665C3.95325 19.194 3.85382 19.0975 3.77399 18.977C3.57899 18.674 3.48199 18.162 3.48199 17.439V15.172C3.48199 13.3796 3.08451 12.2524 2.28759 11.7882C2.27553 11.7812 2.26799 11.7684 2.26799 11.7544V11.7544C2.26799 11.7406 2.27544 11.7278 2.28738 11.7207C3.08444 11.2501 3.48199 10.1368 3.48199 8.38101V6.02501C3.48199 5.14128 3.68126 4.56167 4.08044 4.28651C4.39874 4.06709 4.74399 3.78661 4.74399 3.40001V2.73101ZM20.1022 2.07427C19.719 2.02358 19.404 2.34441 19.404 2.73101V3.40001C19.404 3.78661 19.7492 4.06709 20.0675 4.28651C20.4667 4.56167 20.666 5.14128 20.666 6.02501V8.29301C20.666 10.121 21.0615 11.2702 21.8534 11.7415C21.8655 11.7487 21.873 11.7617 21.873 11.7757V11.7757C21.873 11.7901 21.8651 11.8033 21.8527 11.8104C21.0612 12.2597 20.666 13.3579 20.666 15.105V17.461C20.666 18.176 20.566 18.681 20.367 18.977C20.2883 19.0959 20.1908 19.1913 20.0746 19.2634C19.7461 19.4672 19.404 19.7434 19.404 20.13V20.798C19.404 21.1846 19.7188 21.5051 20.1024 21.4571C20.8988 21.3576 21.4976 21.0762 21.898 20.613C22.414 20.023 22.67 18.95 22.67 17.394V14.84C22.67 13.9036 22.856 13.2854 23.2271 12.9847C23.5274 12.7413 23.879 12.4576 23.879 12.071V11.436C23.879 11.0494 23.5272 10.7653 23.2277 10.5209C22.8558 10.2174 22.669 9.59262 22.669 8.64601V6.11301C22.669 4.62301 22.414 3.57301 21.899 2.96101C21.4943 2.47474 20.8952 2.17916 20.1022 2.07427ZM16.349 6.4905C16.349 6.49078 16.3488 6.49101 16.3485 6.49101C15.8937 6.49105 15.4628 6.54805 15.056 6.66401C14.6654 6.76668 14.299 6.9458 13.978 7.19101C13.671 7.43201 13.428 7.74001 13.248 8.11501C13.068 8.48501 12.978 8.93201 12.978 9.45101C12.978 10.114 13.143 10.678 13.47 11.146C13.802 11.614 14.302 12.01 14.972 12.334C15.236 12.459 15.482 12.583 15.709 12.703C15.936 12.823 16.131 12.948 16.295 13.078C16.462 13.208 16.594 13.349 16.689 13.502C16.784 13.655 16.834 13.829 16.834 14.023C16.834 14.167 16.804 14.303 16.744 14.428C16.6787 14.5542 16.5845 14.6632 16.469 14.746C16.3311 14.8424 16.177 14.9132 16.014 14.955C15.8068 15.0093 15.5931 15.0349 15.379 15.031C14.964 15.031 14.553 14.948 14.146 14.781V14.781C13.6798 14.5804 13.016 14.8816 13.016 15.3891V15.8358C13.016 16.0859 13.1474 16.3219 13.3764 16.4225C13.6139 16.5267 13.8621 16.6058 14.117 16.658C14.544 16.751 14.992 16.797 15.463 16.797C15.922 16.797 16.356 16.747 16.767 16.644C17.1603 16.5524 17.531 16.3823 17.857 16.144C18.168 15.908 18.414 15.602 18.594 15.227C18.777 14.847 18.869 14.378 18.869 13.822C18.869 13.419 18.816 13.067 18.713 12.766C18.609 12.46 18.459 12.189 18.263 11.953C18.067 11.717 17.833 11.506 17.558 11.32C17.2656 11.1177 16.9576 10.9388 16.637 10.785C16.385 10.665 16.16 10.549 15.961 10.437C15.761 10.322 15.591 10.206 15.451 10.09C15.3237 9.98363 15.2149 9.85692 15.129 9.71501C15.0515 9.57669 15.0115 9.42053 15.013 9.26201C15.0105 9.1194 15.0457 8.97865 15.115 8.85401C15.1858 8.72645 15.285 8.61694 15.405 8.53401C15.528 8.44501 15.68 8.37801 15.859 8.33201C16.0538 8.27843 16.255 8.25218 16.457 8.25401C16.617 8.25401 16.783 8.26901 16.959 8.29701C17.139 8.32501 17.319 8.36701 17.498 8.42701C17.678 8.48301 17.852 8.55701 18.019 8.64501V8.64501C18.2201 8.74789 18.492 8.6116 18.492 8.38571V7.32834C18.492 7.05047 18.3291 6.79353 18.0637 6.71137C17.8906 6.65782 17.714 6.61591 17.535 6.58601C17.1436 6.51755 16.7468 6.48541 16.3495 6.49C16.3492 6.49 16.349 6.49023 16.349 6.4905V6.4905ZM8.09022 6.65601C7.78424 6.65601 7.51373 6.85473 7.42224 7.14671L4.73791 15.7137C4.59664 16.1646 4.93341 16.623 5.40589 16.623H6.01242C6.32805 16.623 6.60463 16.4118 6.68773 16.1073L7.01126 14.9217C7.09435 14.6172 7.37094 14.406 7.68657 14.406H9.67158C9.98666 14.406 10.2629 14.6165 10.3465 14.9203L10.6735 16.1087C10.7571 16.4125 11.0333 16.623 11.3484 16.623H11.9755C12.4461 16.623 12.7826 16.1679 12.6448 15.718L10.0206 7.15099C9.93051 6.85685 9.65894 6.65601 9.35131 6.65601H8.09022ZM8.64631 8.45959C8.6473 8.44631 8.65832 8.43601 8.67164 8.43601V8.43601C8.68483 8.43601 8.69581 8.44616 8.69691 8.45931C8.7252 8.79641 8.77352 9.08762 8.83999 9.33201L9.76199 12.682H7.56399L8.49799 9.30501C8.57584 9.02476 8.62528 8.74357 8.64631 8.45959Z" fill="#5B6071"/>
</svg>
