<svg width="24" height="24" viewBox="0 0 24 24" fill="none" xmlns="http://www.w3.org/2000/svg">
<path d="M12 1.594C6.25299 1.594 1.59399 6.253 1.59399 12C1.59399 17.747 6.25299 22.406 12 22.406C17.748 22.406 22.406 17.746 22.406 12C22.406 11.028 22.273 10.087 22.024 9.194H22.022C22.0166 9.1623 22.0082 9.13116 21.997 9.101C21.994 9.091 21.983 9.07 21.983 9.07C21.9415 8.98016 21.8752 8.90402 21.792 8.85053C21.7087 8.79703 21.612 8.7684 21.513 8.768C21.4445 8.76774 21.3767 8.781 21.3134 8.80701C21.2501 8.83303 21.1925 8.87129 21.144 8.9196C21.0955 8.96791 21.057 9.02533 21.0308 9.08855C21.0045 9.15177 20.991 9.21955 20.991 9.288C20.9916 9.34455 21.0014 9.40062 21.02 9.454L21.018 9.456C21.2494 10.2841 21.3662 11.1401 21.365 12C21.3685 13.2304 21.128 14.4493 20.6573 15.5861C20.1867 16.723 19.4952 17.7552 18.623 18.623C17.7552 19.4953 16.723 20.1868 15.5862 20.6574C14.4493 21.1281 13.2304 21.3686 12 21.365C10.7694 21.3687 9.55031 21.1283 8.41329 20.6576C7.27627 20.187 6.24391 19.4954 5.37599 18.623C4.50363 17.7552 3.81202 16.7231 3.34118 15.5862C2.87035 14.4494 2.62964 13.2305 2.63299 12C2.63299 9.498 3.60699 7.145 5.37599 5.376C6.24399 4.50379 7.27639 3.81242 8.41341 3.34192C9.55042 2.87142 10.7695 2.63115 12 2.635C14.234 2.635 16.347 3.411 18.034 4.837C17.9757 4.98544 17.9458 5.14352 17.946 5.303C17.946 5.57356 18.0323 5.83707 18.1923 6.05523C18.3523 6.2734 18.5777 6.43487 18.8358 6.51616C19.0938 6.59746 19.3711 6.59436 19.6273 6.50731C19.8834 6.42026 20.1052 6.25379 20.2603 6.0321C20.4154 5.8104 20.4957 5.54503 20.4897 5.27454C20.4836 5.00405 20.3915 4.74254 20.2267 4.52799C20.0618 4.31344 19.8329 4.15704 19.5731 4.08151C19.3133 4.00599 19.0362 4.01527 18.782 4.108C16.8964 2.48298 14.4892 1.59063 12 1.594ZM10.685 6.445L6.85199 16.394H9.25499L9.88099 14.709H13.503L12.847 12.843H10.462L12.014 8.564L14.773 16.394H17.173L13.34 6.444L10.685 6.445Z" fill="#5B6071"/>
</svg>
