<svg width="24" height="25" viewBox="0 0 24 25" fill="none" xmlns="http://www.w3.org/2000/svg">
<path fill-rule="evenodd" clip-rule="evenodd" d="M5.16534 14.4152C4.89712 15.3095 4.76387 15.7563 4.79654 16.1806C4.82749 16.5546 4.94956 16.9144 5.15158 17.2256C5.38026 17.5773 5.75335 17.8374 6.50126 18.3568L9.80153 20.6532C10.4678 21.1161 10.8013 21.3484 11.1615 21.439C11.4796 21.5198 11.8123 21.5198 12.1312 21.4417C12.4923 21.352 12.8276 21.1215 13.4964 20.6613L16.8328 18.3604C17.5875 17.8392 17.9658 17.58 18.1979 17.2247C18.4013 16.9122 18.5233 16.5499 18.5521 16.1734C18.5856 15.7455 18.4472 15.2961 18.1738 14.3954L15.251 4.79707C15.1091 4.3306 15.0386 4.09827 14.9028 3.92514C14.7831 3.77305 14.6284 3.65515 14.4532 3.58247C14.2555 3.49994 14.0216 3.49994 13.5531 3.49994H9.74393C9.27369 3.49994 9.03728 3.49994 8.8387 3.58426C8.66284 3.6571 8.50777 3.77569 8.38823 3.92873C8.25241 4.10275 8.18277 4.33688 8.04351 4.80514L5.16534 14.4161V14.4152ZM13.7018 5.53713C13.8136 5.68245 13.8721 5.8807 13.9864 6.27271L16.4958 14.8736C15.5531 14.3636 14.5414 14.0067 13.4955 13.8151L11.8622 8.05334C11.8487 8.00789 11.8217 7.96813 11.785 7.93988C11.7484 7.91163 11.704 7.89639 11.6584 7.89639C11.6128 7.89639 11.5685 7.91163 11.5318 7.93988C11.4951 7.96813 11.4681 8.00789 11.4547 8.05334L9.84021 13.8106C8.78969 14.0017 7.77349 14.3599 6.82708 14.8727L9.34934 6.27181C9.46368 5.87801 9.52128 5.68155 9.63389 5.53623C9.73362 5.40795 9.86343 5.30838 10.0096 5.24649C10.1763 5.17652 10.3732 5.17652 10.7669 5.17652H12.5679C12.9617 5.17652 13.1594 5.17652 13.3262 5.24649C13.4723 5.30838 13.6013 5.40795 13.7018 5.53713V5.53713ZM11.7564 15.9043C12.7072 15.9043 13.5333 15.6531 13.9468 15.2835C14.0203 15.5249 14.0464 15.7793 14.0235 16.0315C14.0006 16.2836 13.9292 16.5284 13.8136 16.7511C13.5488 17.2624 13.1646 17.5163 12.8181 17.745C12.3831 18.033 12.0092 18.2814 12.0092 18.9471C12.0092 19.1668 12.0573 19.3767 12.1441 19.5624C11.8511 19.4353 11.6008 19.2206 11.4247 18.9452C11.2486 18.6698 11.1546 18.3461 11.1546 18.015V17.9738C11.1546 17.5145 11.1555 16.9484 10.534 16.9484C10.4476 16.9483 10.3621 16.966 10.2822 17.0003C10.2024 17.0347 10.1298 17.0852 10.0687 17.1488C10.0075 17.2124 9.959 17.288 9.92585 17.3712C9.8927 17.4545 9.87557 17.5437 9.87546 17.6338C9.17741 16.9045 9.23845 15.8549 9.23845 15.8549C9.23845 15.6405 9.25908 15.3068 9.35106 15.0153C9.61068 15.5248 10.589 15.9034 11.7564 15.9034V15.9043Z" fill="#5B6071"/>
</svg>
