<svg width="24" height="24" viewBox="0 0 24 24" fill="none" xmlns="http://www.w3.org/2000/svg">
<path d="M8.203 5.44699L5.83 6.77699L7.159 4.40299L5.829 2.02899L8.203 3.35899L10.577 2.02899L9.247 4.40299L10.577 6.77699L8.203 5.44699ZM19.597 14.752L21.971 13.423L20.641 15.797L21.971 18.17L19.597 16.841L17.223 18.171L18.553 15.797L17.223 13.423L19.597 14.753M21.971 2.02899L20.641 4.40299L21.971 6.77699L19.597 5.44699L17.223 6.77699L18.553 4.40299L17.223 2.02899L19.597 3.35899L21.971 2.02899ZM13.748 12.265L16.065 9.94899L14.052 7.93599L11.735 10.253L13.748 12.265ZM14.726 7.05299L16.948 9.27499C17.318 9.62499 17.318 10.243 16.948 10.613L5.867 21.694C5.497 22.064 4.88 22.064 4.528 21.694L2.306 19.473C1.936 19.121 1.936 18.504 2.306 18.133L13.387 7.05299C13.757 6.68299 14.375 6.68299 14.727 7.05299H14.726Z" fill="#5B6071"/>
</svg>
