<svg width="24" height="24" viewBox="0 0 24 24" fill="none" xmlns="http://www.w3.org/2000/svg">
<path fill-rule="evenodd" clip-rule="evenodd" d="M14.7735 5.53999C14.9268 5.7697 14.8648 6.08019 14.6351 6.23346L13.6371 6.89934C13.4074 7.05259 13.0969 6.99063 12.9437 6.76094L11.6141 4.76839C11.4608 4.53873 11.5227 4.22832 11.7524 4.07502L12.7501 3.4089C12.9798 3.25555 13.2903 3.31748 13.4436 3.5472L14.7735 5.53999Z" fill="url(#paint0_linear_3475_10819)"/>
<path fill-rule="evenodd" clip-rule="evenodd" d="M16.5385 14.4408L19.1096 18.2938C19.4161 18.7532 19.2923 19.3741 18.8329 19.6807L16.7726 21.0556C16.3132 21.3622 15.6922 21.2383 15.3857 20.7789L12.8146 16.9259V16.9259C12.5134 16.4752 12.6348 15.8656 13.0857 15.5646L15.1755 14.1695C15.6268 13.8682 16.2369 13.9897 16.5385 14.4408V14.4408Z" fill="url(#paint1_linear_3475_10819)"/>
<path fill-rule="evenodd" clip-rule="evenodd" d="M11.8484 17.5715L12.2592 18.1866C12.4126 18.4163 12.3507 18.7269 12.1209 18.8802L10.1182 20.2164C9.88858 20.3696 9.57821 20.3077 9.42491 20.0781L8.74617 19.0615C8.59278 18.8318 8.65476 18.5212 8.88458 18.3679L9.08778 18.2324L10.8873 17.0315C11.1171 16.8782 11.4277 16.9403 11.5809 17.1701L11.8484 17.5715Z" fill="url(#paint2_linear_3475_10819)"/>
<path fill-rule="evenodd" clip-rule="evenodd" d="M18.0865 12.2258L18.4657 11.9729C18.6954 11.8196 19.0059 11.8816 19.1591 12.1113L19.8377 13.1283C19.991 13.358 19.929 13.6684 19.6993 13.8217L18.7014 14.4875C18.4716 14.6408 18.1611 14.5787 18.0079 14.3489L17.5976 13.7335L18.2163 13.3207C18.4461 13.1674 18.508 12.8567 18.3546 12.627L18.0865 12.2258ZM17.5976 13.7335L17.3297 13.3322C17.1764 13.1025 17.2383 12.792 17.468 12.6387L18.0865 12.2258L18.3546 12.627C18.508 12.8567 18.4461 13.1674 18.2163 13.3207L17.5976 13.7335Z" fill="url(#paint3_linear_3475_10819)"/>
<path fill-rule="evenodd" clip-rule="evenodd" d="M5.25608 12.4922L5.05259 12.6279C4.82288 12.7811 4.51248 12.7191 4.35924 12.4894L3.02958 10.4964C2.87634 10.2668 2.93828 9.95634 3.16793 9.80306L5.17032 8.46658C5.40003 8.31326 5.71053 8.37522 5.86382 8.60495L6.90747 10.1691L7.19368 10.5972C7.34722 10.8269 7.28539 11.1376 7.0556 11.291L5.25608 12.4922Z" fill="url(#paint4_linear_3475_10819)"/>
<path fill-rule="evenodd" clip-rule="evenodd" d="M11.5983 7.03911L11.6068 7.05176C11.9135 7.51117 11.7896 8.13223 11.3301 8.43882L9.26971 9.81363C8.81026 10.1202 8.18927 9.99622 7.88276 9.53672L7.87442 9.52421L5.33259 5.71552C5.026 5.25613 5.14988 4.63519 5.60928 4.32862L7.66958 2.9537C8.12896 2.64713 8.74987 2.77101 9.05645 3.23038L11.5983 7.03911Z" fill="url(#paint5_linear_3475_10819)"/>
<path fill-rule="evenodd" clip-rule="evenodd" d="M14.2568 6.48653L13.2219 7.17704L12.6577 6.33203L11.8917 5.18393C11.5853 4.72461 11.7091 4.10385 12.1683 3.79727L12.3346 3.68627C12.794 3.3796 13.4149 3.5034 13.7216 3.96277L14.5211 5.16055C14.8142 5.59971 14.6959 6.19334 14.2568 6.48653V6.48653Z" fill="url(#paint6_linear_3475_10819)"/>
<path fill-rule="evenodd" clip-rule="evenodd" d="M9.63198 19.05L9.08698 18.232L11.302 16.754L11.848 17.571L9.63198 19.05Z" fill="#5B6071"/>
<path fill-rule="evenodd" clip-rule="evenodd" d="M17.597 13.735L17.052 12.918L18.087 12.227L18.632 13.044L17.597 13.735Z" fill="#5B6071"/>
<path fill-rule="evenodd" clip-rule="evenodd" d="M5.25596 12.492L4.69196 11.647L6.90796 10.169L7.47096 11.014L5.25596 12.492Z" fill="#5B6071"/>
<path fill-rule="evenodd" clip-rule="evenodd" d="M14.221 6.17697L13.657 5.33197L14.692 4.64197L15.256 5.48597L14.221 6.17697Z" fill="#5B6071"/>
<path fill-rule="evenodd" clip-rule="evenodd" d="M16.538 14.441L12.814 16.926L12.269 16.109L15.993 13.624L16.538 14.441Z" fill="#5B6071"/>
<path fill-rule="evenodd" clip-rule="evenodd" d="M11.598 7.039L12.162 7.883L8.43796 10.368L7.87396 9.524L11.598 7.039Z" fill="#5B6071"/>
<path fill-rule="evenodd" clip-rule="evenodd" d="M3.95036 6.52965C4.0882 6.43763 4.27455 6.47481 4.36651 6.61269L4.73647 7.16737C4.82842 7.30523 4.79118 7.49153 4.6533 7.58345L4.09942 7.95271C3.96163 8.04457 3.77546 8.0074 3.68351 7.86967L3.31355 7.31551C3.22155 7.17771 3.25868 6.99143 3.39648 6.89943L3.95036 6.52965Z" fill="#5B6071"/>
<path fill-rule="evenodd" clip-rule="evenodd" d="M7.74638 19.1567C7.88422 19.0646 8.07057 19.1018 8.16253 19.2397L8.53253 19.7944C8.62446 19.9323 8.58725 20.1186 8.44941 20.2105L7.89474 20.5804C7.75683 20.6724 7.57047 20.6351 7.47858 20.4972L7.10911 19.9424C7.01734 19.8046 7.05453 19.6186 7.19223 19.5266L7.74638 19.1567Z" fill="#5B6071"/>
<path fill-rule="evenodd" clip-rule="evenodd" d="M6.05955 19.4938C5.59895 19.8012 4.97625 19.6758 4.67059 19.214L2.69035 16.2225C2.38654 15.7636 2.51073 15.1454 2.96821 14.8394L17.8096 4.91159C18.2606 4.60988 18.87 4.72294 19.1828 5.16636L21.2624 8.11463C21.5866 8.5742 21.4681 9.21062 21.0003 9.52281L6.05955 19.4938Z" fill="url(#paint7_linear_3475_10819)"/>
<defs>
<linearGradient id="paint0_linear_3475_10819" x1="-3.0809" y1="-2.70137" x2="21.9634" y2="18.4104" gradientUnits="userSpaceOnUse">
<stop stop-color="#5B6071"/>
<stop offset="1" stop-color="#5B6071"/>
</linearGradient>
<linearGradient id="paint1_linear_3475_10819" x1="17.6639" y1="20.3666" x2="3.80561" y2="2.84521" gradientUnits="userSpaceOnUse">
<stop stop-color="#5B6071"/>
<stop offset="0.14" stop-color="#5B6071"/>
<stop offset="0.29" stop-color="#5B6071"/>
<stop offset="0.84" stop-color="#5B6071"/>
<stop offset="1" stop-color="#5B6071"/>
</linearGradient>
<linearGradient id="paint2_linear_3475_10819" x1="-3.07982" y1="-9.18757" x2="17.6618" y2="22.2118" gradientUnits="userSpaceOnUse">
<stop stop-color="#5B6071"/>
<stop offset="1" stop-color="#5B6071"/>
</linearGradient>
<linearGradient id="paint3_linear_3475_10819" x1="-8.10433" y1="-2.70248" x2="20.222" y2="20.4869" gradientUnits="userSpaceOnUse">
<stop stop-color="#5B6071"/>
<stop offset="1" stop-color="#5B6071"/>
</linearGradient>
<linearGradient id="paint4_linear_3475_10819" x1="-3.87192" y1="-2.70192" x2="22.5108" y2="20.5612" gradientUnits="userSpaceOnUse">
<stop stop-color="#5B6071"/>
<stop offset="1" stop-color="#5B6071" stop-opacity="0.85098"/>
</linearGradient>
<linearGradient id="paint5_linear_3475_10819" x1="18.8879" y1="22.6393" x2="4.99911" y2="5.03601" gradientUnits="userSpaceOnUse">
<stop stop-color="#5B6071"/>
<stop offset="0.14" stop-color="#5B6071"/>
<stop offset="0.29" stop-color="#5B6071"/>
<stop offset="0.84" stop-color="#5B6071"/>
<stop offset="1" stop-color="#5B6071"/>
</linearGradient>
<linearGradient id="paint6_linear_3475_10819" x1="-3.08022" y1="-3.90259" x2="22.3648" y2="21.9654" gradientUnits="userSpaceOnUse">
<stop stop-color="#5B6071"/>
<stop offset="1" stop-color="#5B6071"/>
</linearGradient>
<linearGradient id="paint7_linear_3475_10819" x1="3.71253" y1="17.8502" x2="20.4102" y2="6.79292" gradientUnits="userSpaceOnUse">
<stop stop-color="#5B6071"/>
<stop offset="0.14" stop-color="#5B6071"/>
<stop offset="0.53" stop-color="#5B6071"/>
<stop offset="0.79" stop-color="#5B6071"/>
<stop offset="1" stop-color="#5B6071"/>
</linearGradient>
</defs>
</svg>
