<svg width="24" height="24" viewBox="0 0 24 24" fill="none" xmlns="http://www.w3.org/2000/svg">
<path d="M8.48 4.17C8.814 4.744 9.527 4.968 10.176 4.806C10.7726 4.65757 11.3852 4.58268 12 4.583C12.62 4.583 13.223 4.658 13.799 4.8C14.446 4.959 15.156 4.735 15.49 4.16C15.88 3.492 15.606 2.628 14.86 2.409C13.9311 2.13691 12.968 1.99918 12 2C10.994 2 10.023 2.146 9.106 2.419C8.363 2.639 8.091 3.502 8.479 4.169L8.48 4.17Z" fill="#5B6071"/>
<path d="M5.03897 4.77199C5.60297 4.23699 6.49697 4.43199 6.88697 5.10299C7.21997 5.67499 7.06297 6.39499 6.60297 6.87199C5.99315 7.50354 5.50018 8.23826 5.14697 9.04199C4.90497 9.59399 4.38497 9.99999 3.77997 9.99999C2.92597 9.99999 2.28397 9.21899 2.58897 8.42799C3.12425 7.04263 3.96115 5.79377 5.03897 4.77199Z" fill="#5B6071"/>
<path d="M3.19698 12C3.91498 12 4.51698 12.583 4.64098 13.286C5.25398 16.769 8.31598 19.416 12 19.416C15.684 19.416 18.746 16.769 19.359 13.286C19.483 12.583 20.085 12 20.803 12C21.522 12 22.082 12.581 21.99 13.289C21.353 18.203 17.123 22 12 22C6.87698 22 2.64698 18.203 2.00998 13.289C1.91798 12.58 2.47798 12 3.19698 12Z" fill="#5B6071"/>
<path d="M20.203 9.95799C21.06 9.95799 21.703 9.17199 21.393 8.37999C20.8522 7.00252 20.0127 5.76209 18.935 4.74799C18.371 4.21499 17.48 4.41199 17.09 5.08099C16.757 5.65399 16.916 6.37599 17.379 6.85299C17.9884 7.47981 18.4823 8.20935 18.838 9.00799C19.081 9.55599 19.6 9.95799 20.203 9.95799Z" fill="#5B6071"/>
<path d="M7.13297 9.32C6.69097 8.832 7.18597 8.058 7.78997 8.293L12.702 10.203C13.816 10.637 14.24 12.043 13.564 13.058C13.415 13.2888 13.2148 13.4821 12.9789 13.6228C12.743 13.7635 12.4778 13.8479 12.2039 13.8694C11.9301 13.8909 11.655 13.8489 11.4 13.7466C11.145 13.6444 10.9171 13.4847 10.734 13.28L7.13297 9.32Z" fill="#5B6071"/>
</svg>
