<svg width="24" height="24" viewBox="0 0 24 24" fill="none" xmlns="http://www.w3.org/2000/svg">
<path d="M8.89402 3.20499H14.419L8.68402 20.197C8.62518 20.3718 8.51294 20.5238 8.36313 20.6314C8.21332 20.7391 8.0335 20.797 7.84902 20.797H3.54902C3.40934 20.7971 3.27166 20.7638 3.14737 20.7001C3.02309 20.6363 2.91579 20.5439 2.83437 20.4304C2.75294 20.3169 2.69973 20.1857 2.67915 20.0475C2.65857 19.9094 2.67121 19.7683 2.71602 19.636L8.06002 3.80399C8.11903 3.62933 8.23134 3.47759 8.38114 3.37013C8.53093 3.26267 8.71067 3.20491 8.89502 3.20499H8.89402Z" fill="#5B6071"/>
<path d="M16.922 14.603H8.16203C8.08048 14.6027 8.00073 14.627 7.93322 14.6727C7.8657 14.7184 7.81357 14.7835 7.78364 14.8593C7.75371 14.9352 7.74737 15.0183 7.76546 15.0978C7.78355 15.1774 7.82523 15.2496 7.88503 15.305L13.514 20.558C13.677 20.711 13.894 20.796 14.117 20.796H19.077L16.922 14.603Z" fill="#5B6071"/>
<path d="M15.95 3.80299C15.891 3.62887 15.779 3.47763 15.6295 3.37053C15.4801 3.26344 15.3009 3.2059 15.117 3.20599H8.96002C9.144 3.20584 9.32339 3.26335 9.47299 3.37043C9.62258 3.47752 9.73486 3.62879 9.79402 3.80299L15.137 19.635C15.1816 19.7674 15.1941 19.9085 15.1733 20.0466C15.1526 20.1847 15.0993 20.316 15.0178 20.4294C14.9363 20.5429 14.829 20.6353 14.7047 20.699C14.5804 20.7628 14.4427 20.796 14.303 20.796H20.46C20.5997 20.7962 20.7373 20.7631 20.8617 20.6995C20.986 20.6358 21.0933 20.5435 21.1748 20.4301C21.2564 20.3167 21.3097 20.1856 21.3304 20.0475C21.3511 19.9094 21.3387 19.7683 21.294 19.636L15.95 3.80299Z" fill="#5B6071"/>
</svg>
