<svg width="24" height="24" viewBox="0 0 24 24" fill="none" xmlns="http://www.w3.org/2000/svg">
<path d="M7.48831 2.94H5.978V7.21258L7.81981 9.05439H5.6098L3.19718 6.64177V2.94008H1.59492V7.32316L4.873 10.6014H9.29293L10.8768 12.1851H6.64092L10.2138 15.8685L4.98342 21.0619H7.04623L12.2764 15.7949L10.2874 13.8059H20.8589V14.4689L16.2916 17.1945L12.461 21.0619H14.6341L17.2491 18.41L22.4059 15.3161V12.1852H17.5439L15.8864 10.5277L17.7649 8.64917V4.45023H16.1994V7.94947L14.6709 9.45953L13.3081 8.0323V4.45015H11.8347V8.72289L15.2796 12.185H13.1777L7.48855 6.54958V2.94" fill="#5B6071"/>
<path d="M15.4808 14.7631H13.4182L14.4127 15.8311L15.4808 14.7631Z" fill="#5B6071"/>
</svg>
