<svg width="24" height="24" viewBox="0 0 24 24" fill="none" xmlns="http://www.w3.org/2000/svg">
<path d="M21.6546 12.711C21.6546 16.9065 17.3322 20.3079 12 20.3079C6.6678 20.3079 2.3454 16.9068 2.3454 12.711C2.3454 10.1098 4.00047 7.81202 6.5436 6.44942C9.08688 5.08673 10.6701 3.69098 11.9997 3.69098C13.3293 3.69098 14.4658 4.83023 17.4558 6.44942C19.9991 7.81211 21.654 10.11 21.654 12.711H21.6546Z" fill="#5B6071"/>
<path d="M21.6546 12.711C21.6532 12.172 21.579 11.6357 21.4339 11.1166C20.6808 20.3023 9.47621 20.7436 5.07071 17.9962C7.05098 19.5311 9.49465 20.3463 11.9998 20.3078C17.3236 20.3078 21.6546 16.9014 21.6546 12.711Z" fill="#5B6071"/>
<path d="M8.28456 5.94451C9.51759 5.20525 11.1561 3.81775 12.7669 3.81499C12.519 3.73488 12.2604 3.69302 12 3.69086C11.3324 3.69086 10.6208 4.03568 9.72426 4.55426C9.41256 4.73632 9.08982 4.93766 8.74776 5.14733C8.10504 5.54453 7.36854 5.99417 6.54099 6.44378C3.91497 7.8644 2.34549 10.2061 2.34549 12.7108V13.039C4.01712 7.13324 7.05426 6.68401 8.28456 5.94451Z" fill="#5B6071"/>
<path fill-rule="evenodd" clip-rule="evenodd" d="M11.2056 4.38872C11.2095 5.04005 11.0727 5.68455 10.8047 6.27819C10.5367 6.87184 10.1437 7.40065 9.65259 7.82852C9.57535 7.89748 9.63604 8.02989 9.73534 7.99127C10.6649 7.62992 11.92 6.5486 11.3904 4.36667C11.3683 4.24254 11.2056 4.27563 11.2056 4.38872ZM11.8318 4.38872C12.1693 4.93944 12.3838 5.55665 12.4604 6.19802C12.5371 6.8394 12.4741 7.48976 12.2759 8.10452C12.2428 8.20107 12.3614 8.28382 12.4276 8.20383C13.0317 7.43148 13.5585 5.89776 11.9807 4.24263C11.9007 4.1709 11.7766 4.28124 11.8318 4.37779L11.8318 4.38872ZM12.5931 4.34183C13.1217 4.71602 13.5638 5.19921 13.8898 5.7588C14.2157 6.31839 14.4179 6.94137 14.4826 7.58573C14.4799 7.60895 14.4861 7.63236 14.5001 7.6511C14.5141 7.66983 14.5348 7.68246 14.5578 7.68637C14.5809 7.69027 14.6046 7.68514 14.624 7.67206C14.6433 7.65897 14.657 7.63892 14.662 7.61607C14.9157 6.65337 14.7723 5.0121 12.6841 4.15977C12.5738 4.11564 12.5021 4.26459 12.5931 4.3308L12.5931 4.34183ZM7.5009 7.21061C8.12962 7.02278 8.71174 6.70464 9.20935 6.2769C9.70695 5.84916 10.1089 5.32141 10.389 4.72802C10.4387 4.62872 10.5959 4.66734 10.5711 4.77767C10.0938 6.98444 8.49671 7.44509 7.50356 7.3844C7.39873 7.38716 7.40159 7.24095 7.5009 7.21061Z" fill="#5B6071"/>
<path d="M13.9449 14.7246C13.821 15.2321 13.5389 15.6871 13.1394 16.0238C12.8395 16.3146 12.4513 16.497 12.036 16.5424C11.6083 16.5042 11.2065 16.3213 10.8968 16.0238C10.5014 15.6855 10.2233 15.2307 10.1024 14.7246C10.0984 14.6945 10.1013 14.664 10.1109 14.6352C10.1205 14.6065 10.1366 14.5803 10.1579 14.5588C10.1792 14.5372 10.2052 14.5208 10.2338 14.5108C10.2624 14.5008 10.2929 14.4975 10.323 14.5012H13.7268C13.7567 14.498 13.7869 14.5016 13.8152 14.5118C13.8435 14.522 13.869 14.5385 13.89 14.56C13.911 14.5815 13.9268 14.6075 13.9363 14.636C13.9458 14.6645 13.9488 14.6948 13.9449 14.7246Z" fill="#5B6071"/>
<path d="M10.8966 16.0461C11.2056 16.3437 11.6061 16.5284 12.0331 16.5702C12.4591 16.5278 12.8585 16.3432 13.1668 16.0461C13.2654 15.9542 13.3576 15.8555 13.4427 15.7509C13.2727 15.5582 13.0652 15.4022 12.8327 15.2926C12.6003 15.183 12.3479 15.1222 12.091 15.1137C11.8162 15.1202 11.5471 15.1934 11.3068 15.327C11.0665 15.4606 10.8623 15.6506 10.7118 15.8806C10.7752 15.9385 10.8304 15.9937 10.8966 16.0461Z" fill="#5B6071"/>
<path d="M10.9407 15.8283C11.0774 15.6515 11.2525 15.5081 11.4527 15.4087C11.6529 15.3093 11.873 15.2566 12.0965 15.2546C12.5096 15.2667 12.9032 15.433 13.1999 15.7207C13.2633 15.6518 13.324 15.5801 13.3819 15.5083C13.031 15.1741 12.5672 14.9841 12.0827 14.976C11.8237 14.9782 11.5685 15.0377 11.3353 15.1503C11.1021 15.2628 10.8967 15.4256 10.7338 15.627C10.799 15.6978 10.8681 15.765 10.9407 15.8283Z" fill="#5B6071"/>
<path d="M12.0249 16.7082C11.5652 16.6679 11.1327 16.4735 10.7974 16.1565C10.3704 15.7954 10.0698 15.3073 9.9395 14.7635C9.93016 14.7151 9.93175 14.6652 9.94415 14.6174C9.95656 14.5697 9.97948 14.5254 10.0112 14.4876C10.049 14.442 10.0968 14.4056 10.1508 14.3812C10.2048 14.3568 10.2637 14.3451 10.3229 14.347H13.7267C13.7859 14.3457 13.8446 14.3577 13.8985 14.382C13.9524 14.4064 14.0002 14.4425 14.0384 14.4876C14.0699 14.5255 14.0924 14.57 14.1043 14.6177C14.1163 14.6655 14.1173 14.7153 14.1074 14.7635C13.977 15.3073 13.6765 15.7954 13.2495 16.1565C12.9149 16.4729 12.4836 16.6673 12.0249 16.7082ZM10.3229 14.6669C10.2788 14.6669 10.2678 14.6863 10.265 14.6918C10.3816 15.1634 10.6454 15.5856 11.0181 15.8972C11.2906 16.1657 11.6449 16.3356 12.0249 16.38C12.4039 16.3361 12.7578 16.1684 13.0317 15.9028C13.4032 15.5906 13.666 15.1685 13.782 14.6973C13.776 14.6885 13.7677 14.6815 13.7579 14.6771C13.7482 14.6727 13.7374 14.6711 13.7268 14.6725L10.3229 14.6669Z" fill="#5B6071"/>
<path d="M16.1982 14.8956C17.0894 14.8956 17.8119 14.4708 17.8119 13.9467C17.8119 13.4226 17.0894 12.9978 16.1982 12.9978C15.307 12.9978 14.5845 13.4226 14.5845 13.9467C14.5845 14.4708 15.307 14.8956 16.1982 14.8956Z" fill="#5B6071"/>
<path d="M7.84859 14.8956C8.73982 14.8956 9.46229 14.4708 9.46229 13.9467C9.46229 13.4226 8.73982 12.9978 7.84859 12.9978C6.95737 12.9978 6.23489 13.4226 6.23489 13.9467C6.23489 14.4708 6.95737 14.8956 7.84859 14.8956Z" fill="#5B6071"/>
<path fill-rule="evenodd" clip-rule="evenodd" d="M8.60731 13.566C8.90804 13.5666 9.20217 13.4779 9.45249 13.3112C9.70281 13.1446 9.89805 12.9074 10.0135 12.6297C10.129 12.352 10.1595 12.0463 10.1012 11.7513C10.0428 11.4563 9.89829 11.1852 9.68583 10.9723C9.47338 10.7595 9.20256 10.6145 8.90765 10.5556C8.61274 10.4967 8.30699 10.5267 8.0291 10.6416C7.75121 10.7566 7.51366 10.9514 7.34653 11.2014C7.17939 11.4514 7.09018 11.7454 7.09018 12.0461C7.09018 12.4487 7.24993 12.8349 7.53437 13.1199C7.8188 13.4048 8.20469 13.5653 8.60731 13.566ZM15.4401 13.566C15.7412 13.5682 16.0361 13.4809 16.2875 13.3153C16.5389 13.1496 16.7354 12.913 16.8522 12.6354C16.9689 12.3579 17.0006 12.052 16.9432 11.7564C16.8858 11.4608 16.7419 11.189 16.5298 10.9753C16.3177 10.7617 16.0469 10.6158 15.7518 10.5562C15.4566 10.4967 15.1505 10.5261 14.8721 10.6409C14.5937 10.7556 14.3557 10.9504 14.1882 11.2005C14.0207 11.4507 13.9312 11.745 13.9312 12.0461C13.9305 12.4475 14.0889 12.8329 14.3717 13.1178C14.6545 13.4027 15.0387 13.5638 15.4401 13.566Z" fill="#5B6071"/>
<path fill-rule="evenodd" clip-rule="evenodd" d="M8.13808 12.1428C8.25113 12.1433 8.3618 12.1103 8.45606 12.0479C8.55032 11.9855 8.62393 11.8965 8.66757 11.7922C8.71121 11.6879 8.72292 11.5731 8.7012 11.4621C8.67948 11.3512 8.62532 11.2492 8.54557 11.169C8.46583 11.0889 8.36409 11.0343 8.25326 11.012C8.14242 10.9897 8.02747 11.0009 7.92298 11.044C7.81848 11.0872 7.72914 11.1603 7.66628 11.2543C7.60341 11.3483 7.56986 11.4588 7.56985 11.5718C7.56985 11.7228 7.62963 11.8676 7.73612 11.9746C7.8426 12.0816 7.98713 12.1421 8.13808 12.1428ZM14.9709 12.1428C15.0839 12.1433 15.1946 12.1103 15.2889 12.0479C15.3831 11.9855 15.4567 11.8965 15.5004 11.7922C15.544 11.6879 15.5557 11.5731 15.534 11.4621C15.5123 11.3512 15.4581 11.2492 15.3784 11.169C15.2986 11.0889 15.1969 11.0343 15.0861 11.012C14.9752 10.9897 14.8603 11.0009 14.7558 11.044C14.6513 11.0872 14.5619 11.1603 14.4991 11.2543C14.4362 11.3483 14.4027 11.4588 14.4027 11.5718C14.4026 11.7218 14.4617 11.8658 14.567 11.9727C14.6723 12.0795 14.8154 12.1406 14.9654 12.1428H14.9709Z" fill="#5B6071"/>
</svg>
