<svg width="24" height="25" viewBox="0 0 24 25" fill="none" xmlns="http://www.w3.org/2000/svg">
<path d="M19.8709 8.85819C19.8304 8.81515 19.7873 8.77211 19.7443 8.73161C19.7013 8.6911 19.6608 8.64553 19.6177 8.60502C19.5747 8.56452 19.5342 8.51895 19.4911 8.47844C19.4481 8.43793 19.4076 8.39236 19.3646 8.35186C19.3215 8.31135 19.281 8.26578 19.238 8.22527C19.1949 8.18477 19.1544 8.1392 19.1114 8.09869C19.0684 8.05818 19.0279 8.01261 18.9848 7.97211C20.2406 9.20622 20.9599 10.8851 20.9874 12.6456C20.9874 16.8405 16.7291 20.2532 11.4936 20.2532C8.56199 20.2532 5.9392 19.1823 4.19489 17.5038L4.32147 17.6304L4.44805 17.757L4.57463 17.8836L4.70122 18.0101L4.8278 18.1367L4.95438 18.2633L5.08096 18.3899C6.82274 20.1393 9.50377 21.2659 12.5063 21.2659C17.7418 21.2659 22 17.8532 22 13.6709C22 11.8835 21.2304 10.1898 19.8709 8.85819Z" fill="#5B6071"/>
<path d="M20.3545 12.6455C20.3545 16.4962 16.3874 19.6177 11.4937 19.6177C6.60004 19.6177 2.63293 16.4962 2.63293 12.6455C2.63293 10.2582 4.15193 8.14931 6.48611 6.89867C8.8203 5.64802 10.2735 4.367 11.4937 4.367C12.714 4.367 13.757 5.41258 16.5013 6.89867C18.8355 8.14931 20.3545 10.2582 20.3545 12.6455Z" fill="#5B6071"/>
<path d="M20.3545 12.6456C20.3533 12.1509 20.2852 11.6587 20.152 11.1823C19.4609 19.6127 9.17727 20.0177 5.13422 17.4962C6.9517 18.9049 9.19451 19.6531 11.4937 19.6177C16.3798 19.6177 20.3545 16.4911 20.3545 12.6456Z" fill="#5B6071"/>
<path d="M8.08359 6.43537C9.21524 5.75689 10.719 4.48346 12.1975 4.48093C11.9701 4.40741 11.7328 4.36899 11.4937 4.367C10.8811 4.367 10.2279 4.68346 9.40511 5.15941C9.11904 5.3265 8.82283 5.51131 8.50891 5.70372C7.91903 6.06828 7.24308 6.48094 6.48358 6.8936C4.07345 8.19741 2.63293 10.3468 2.63293 12.6455C2.63293 12.7468 2.63293 12.8481 2.63293 12.9468C4.16712 7.52652 6.95447 7.11386 8.08359 6.43537Z" fill="#5B6071"/>
<path fill-rule="evenodd" clip-rule="evenodd" d="M10.7646 5.00751C10.7681 5.6053 10.6426 6.1968 10.3966 6.74164C10.1507 7.28647 9.78999 7.77181 9.33927 8.1645C9.26839 8.22779 9.32408 8.34931 9.41522 8.31386C10.2684 7.98222 11.4203 6.9898 10.9342 4.98726C10.914 4.87334 10.7646 4.90372 10.7646 5.00751ZM11.3393 5.00751C11.649 5.51294 11.8459 6.07938 11.9162 6.66799C11.9866 7.2566 11.9288 7.85346 11.7469 8.41766C11.7165 8.50627 11.8254 8.58222 11.8861 8.5088C12.4405 7.79994 12.9241 6.39233 11.476 4.87334C11.4026 4.80751 11.2886 4.90878 11.3393 4.99739V5.00751ZM12.038 4.96448C12.5231 5.30791 12.9289 5.75137 13.2281 6.26496C13.5272 6.77855 13.7128 7.35032 13.7722 7.94171C13.7696 7.96302 13.7754 7.9845 13.7882 8.00169C13.8011 8.01889 13.82 8.03048 13.8412 8.03406C13.8624 8.03764 13.8841 8.03294 13.9019 8.02093C13.9197 8.00892 13.9322 7.99052 13.9368 7.96956C14.1697 7.08601 14.038 5.57967 12.1216 4.79739C12.0203 4.75688 11.9545 4.89359 12.038 4.95435V4.96448ZM7.36458 7.5974C7.94161 7.42501 8.47587 7.13303 8.93256 6.74045C9.38926 6.34788 9.75815 5.86352 10.0152 5.31891C10.0608 5.22777 10.2051 5.26321 10.1823 5.36448C9.74434 7.38981 8.27851 7.81259 7.36711 7.7569C7.27091 7.75943 7.27344 7.62525 7.36458 7.5974Z" fill="#5B6071"/>
<path d="M11.4937 20.2532C6.25824 20.2532 2 16.8405 2 12.6455C2 10.1139 3.56456 7.75185 6.18483 6.33665C6.94432 5.93158 7.59496 5.52398 8.17471 5.16702C8.4937 4.96955 8.79496 4.78474 9.0861 4.61259C9.97471 4.086 10.7342 3.7341 11.4937 3.7341C12.2532 3.7341 12.9165 4.0379 13.7469 4.52904C14 4.67335 14.2532 4.83031 14.5241 5.00246C15.1545 5.39234 15.8659 5.83285 16.8026 6.33665C19.4229 7.75185 20.9874 10.1114 20.9874 12.6455C20.9874 16.8405 16.7292 20.2532 11.4937 20.2532ZM11.4937 4.36702C10.881 4.36702 10.2279 4.68347 9.40509 5.15943C9.11901 5.32651 8.82281 5.51133 8.50889 5.70373C7.91901 6.06829 7.24306 6.48095 6.48356 6.89361C4.07343 8.19742 2.63291 10.3468 2.63291 12.6455C2.63291 16.4911 6.60761 19.6203 11.4937 19.6203C16.3798 19.6203 20.3545 16.4911 20.3545 12.6455C20.3545 10.3468 18.914 8.19742 16.5013 6.89868C15.5444 6.39234 14.7975 5.91639 14.1925 5.54171C13.9165 5.37208 13.6633 5.21512 13.433 5.07588C12.6659 4.62018 12.1064 4.36702 11.4937 4.36702Z" fill="#5B6071"/>
<path d="M13.2785 14.4937C13.1648 14.9595 12.9059 15.3771 12.5393 15.6861C12.264 15.9529 11.9077 16.1204 11.5266 16.162C11.1341 16.127 10.7652 15.9591 10.481 15.6861C10.1181 15.3756 9.8629 14.9582 9.75191 14.4937C9.74823 14.4661 9.75091 14.438 9.75975 14.4117C9.76859 14.3853 9.78335 14.3613 9.8029 14.3415C9.82244 14.3217 9.84627 14.3066 9.87253 14.2975C9.8988 14.2883 9.92682 14.2853 9.95444 14.2886H13.0785C13.1059 14.2857 13.1337 14.289 13.1596 14.2984C13.1855 14.3077 13.209 14.3229 13.2283 14.3426C13.2475 14.3623 13.2621 14.3862 13.2708 14.4124C13.2795 14.4385 13.2821 14.4663 13.2785 14.4937Z" fill="#5B6071"/>
<path d="M10.481 15.7063C10.7647 15.9795 11.1322 16.149 11.5241 16.1874C11.9151 16.1484 12.2816 15.979 12.5646 15.7063C12.6551 15.622 12.7397 15.5315 12.8177 15.4355C12.6618 15.2585 12.4713 15.1154 12.2579 15.0148C12.0446 14.9142 11.813 14.8584 11.5772 14.8506C11.325 14.8566 11.078 14.9238 10.8575 15.0464C10.637 15.169 10.4496 15.3434 10.3114 15.5544C10.3696 15.6076 10.4203 15.6582 10.481 15.7063Z" fill="#5B6071"/>
<path d="M10.5215 15.5063C10.6471 15.3441 10.8077 15.2124 10.9914 15.1212C11.1752 15.03 11.3772 14.9816 11.5823 14.9798C11.9614 14.9909 12.3227 15.1436 12.595 15.4076C12.6532 15.3443 12.7089 15.2785 12.7621 15.2127C12.44 14.9059 12.0143 14.7315 11.5696 14.7241C11.332 14.7261 11.0977 14.7807 10.8837 14.884C10.6697 14.9873 10.4811 15.1367 10.3317 15.3215C10.3915 15.3866 10.4549 15.4483 10.5215 15.5063Z" fill="#5B6071"/>
<path d="M11.5165 16.3139C11.0946 16.277 10.6976 16.0986 10.3899 15.8076C9.99801 15.4762 9.72217 15.0282 9.60255 14.5291C9.59397 14.4847 9.59543 14.4389 9.60682 14.3951C9.61821 14.3513 9.63924 14.3106 9.66838 14.276C9.70307 14.2341 9.74688 14.2006 9.79646 14.1783C9.84604 14.1559 9.90008 14.1451 9.95445 14.1468H13.0785C13.1328 14.1457 13.1867 14.1567 13.2362 14.179C13.2857 14.2014 13.3295 14.2345 13.3646 14.276C13.3934 14.3107 13.4141 14.3515 13.4251 14.3953C13.436 14.4392 13.437 14.4849 13.4279 14.5291C13.3083 15.0282 13.0324 15.4762 12.6405 15.8076C12.3335 16.098 11.9375 16.2764 11.5165 16.3139ZM9.95445 14.4405C9.91395 14.4405 9.90382 14.4582 9.90129 14.4633C10.0083 14.8961 10.2504 15.2836 10.5924 15.5696C10.8425 15.8161 11.1677 15.972 11.5165 16.0127C11.8643 15.9724 12.1892 15.8185 12.4405 15.5747C12.7815 15.2882 13.0227 14.9008 13.1291 14.4684C13.1236 14.4603 13.116 14.4539 13.107 14.4498C13.0981 14.4458 13.0882 14.4443 13.0785 14.4456L9.95445 14.4405Z" fill="#5B6071"/>
<path d="M15.3469 14.6506C16.1649 14.6506 16.8279 14.2607 16.8279 13.7797C16.8279 13.2988 16.1649 12.9088 15.3469 12.9088C14.529 12.9088 13.8659 13.2988 13.8659 13.7797C13.8659 14.2607 14.529 14.6506 15.3469 14.6506Z" fill="#5B6071"/>
<path d="M7.68359 14.6506C8.50154 14.6506 9.16461 14.2607 9.16461 13.7797C9.16461 13.2988 8.50154 12.9088 7.68359 12.9088C6.86565 12.9088 6.20258 13.2988 6.20258 13.7797C6.20258 14.2607 6.86565 14.6506 7.68359 14.6506Z" fill="#5B6071"/>
<path fill-rule="evenodd" clip-rule="evenodd" d="M8.37978 13.4304C8.65578 13.4309 8.92572 13.3495 9.15545 13.1965C9.38518 13.0435 9.56437 12.8258 9.67034 12.571C9.77631 12.3161 9.80429 12.0356 9.75075 11.7648C9.69722 11.4941 9.56456 11.2453 9.36958 11.0499C9.17459 10.8546 8.92604 10.7215 8.65538 10.6675C8.38472 10.6134 8.10411 10.6409 7.84907 10.7464C7.59403 10.8519 7.37602 11.0307 7.22263 11.2602C7.06924 11.4896 6.98737 11.7594 6.98737 12.0354C6.98737 12.4049 7.13398 12.7594 7.39504 13.0209C7.65609 13.2824 8.01025 13.4297 8.37978 13.4304ZM14.6507 13.4304C14.927 13.4324 15.1977 13.3523 15.4284 13.2002C15.6591 13.0482 15.8395 12.831 15.9466 12.5763C16.0538 12.3216 16.0828 12.0408 16.0302 11.7695C15.9775 11.4983 15.8454 11.2488 15.6508 11.0527C15.4561 10.8566 15.2076 10.7227 14.9367 10.6681C14.6658 10.6134 14.3848 10.6404 14.1294 10.7457C13.8739 10.851 13.6554 11.0298 13.5017 11.2594C13.348 11.489 13.2659 11.7591 13.2659 12.0354C13.2652 12.4038 13.4106 12.7575 13.6701 13.019C13.9297 13.2804 14.2823 13.4284 14.6507 13.4304Z" fill="#5B6071"/>
<path fill-rule="evenodd" clip-rule="evenodd" d="M7.94944 12.124C8.05319 12.1245 8.15476 12.0942 8.24127 12.0369C8.32779 11.9797 8.39535 11.898 8.4354 11.8023C8.47545 11.7066 8.48619 11.6011 8.46626 11.4993C8.44633 11.3975 8.39662 11.3039 8.32343 11.2303C8.25024 11.1568 8.15687 11.1066 8.05514 11.0862C7.95342 11.0658 7.84792 11.076 7.75201 11.1156C7.65611 11.1552 7.57411 11.2223 7.51641 11.3086C7.45872 11.3948 7.42792 11.4962 7.42792 11.6C7.42792 11.7385 7.48278 11.8714 7.58051 11.9696C7.67824 12.0679 7.81089 12.1234 7.94944 12.124ZM14.2203 12.124C14.3241 12.1245 14.4257 12.0942 14.5122 12.0369C14.5987 11.9797 14.6663 11.898 14.7063 11.8023C14.7464 11.7066 14.7571 11.6011 14.7372 11.4993C14.7172 11.3975 14.6675 11.3039 14.5943 11.2303C14.5211 11.1568 14.4278 11.1066 14.3261 11.0862C14.2243 11.0658 14.1188 11.076 14.0229 11.1156C13.927 11.1552 13.845 11.2223 13.7873 11.3086C13.7296 11.3948 13.6988 11.4962 13.6988 11.6C13.6988 11.7377 13.753 11.8698 13.8496 11.9679C13.9463 12.0659 14.0776 12.122 14.2153 12.124H14.2203Z" fill="#5B6071"/>
</svg>
