<svg width="24" height="24" viewBox="0 0 24 24" fill="none" xmlns="http://www.w3.org/2000/svg">
<path d="M7.20066 3.25583L13.7019 2.05599C14.2366 1.95731 14.9354 2.22942 15.2628 2.66375L21.6176 11.0946C21.945 11.5289 21.7769 11.961 21.2423 12.0597L14.741 13.2596C14.2064 13.3582 13.5075 13.0861 13.1801 12.6518L6.8253 4.22093C6.49792 3.7866 6.66597 3.35451 7.20066 3.25583Z" fill="#5B6071"/>
<path d="M14.2547 13.9966L21.1091 12.8075C21.5745 12.7268 21.6908 13.0167 21.369 13.4552L16.7046 19.8093C16.3827 20.2478 15.7446 20.6687 15.2792 20.7494L8.42482 21.9385C7.95946 22.0192 7.84313 21.7293 8.16497 21.2908L12.8294 14.9367C13.1512 14.4982 13.7894 14.0774 14.2547 13.9966Z" fill="#5B6071"/>
<path fill-rule="evenodd" clip-rule="evenodd" d="M4.16897 11.411C4.06153 11.6922 2.06561 13.2709 2.10945 13.5932C2.15329 13.9156 4.49441 14.875 4.67265 15.1153C4.85089 15.3557 5.51625 18.4488 5.76089 18.5154C6.00553 18.5819 7.26713 16.0134 7.48473 15.8808C7.70233 15.7482 10.1094 16.081 10.2167 15.8C10.3242 15.5188 8.76281 12.9718 8.71905 12.6495C8.67521 12.3271 9.49761 9.43991 9.31921 9.19951C9.14089 8.95911 6.91441 9.95367 6.66977 9.88703C6.42505 9.82039 4.52633 7.70303 4.30865 7.83559C4.09105 7.96815 4.27633 11.1298 4.16897 11.411Z" fill="#5B6071"/>
</svg>
