<svg width="24" height="24" viewBox="0 0 24 24" fill="none" xmlns="http://www.w3.org/2000/svg">
<path d="M4 2.5C2.89 2.5 2 3.39 2 4.5V14.5C2 15.0304 2.21071 15.5391 2.58579 15.9142C2.96086 16.2893 3.46957 16.5 4 16.5H12V21.5L15 18.5L18 21.5V16.5H20C20.5304 16.5 21.0391 16.2893 21.4142 15.9142C21.7893 15.5391 22 15.0304 22 14.5V4.5C22 3.96957 21.7893 3.46086 21.4142 3.08579C21.0391 2.71071 20.5304 2.5 20 2.5H4ZM12 4.5L15 6.5L18 4.5V8L21 9.5L18 11V14.5L15 12.5L12 14.5V11L9 9.5L12 8V4.5ZM4 4.5H9V6.5H4V4.5ZM4 8.5H7V10.5H4V8.5ZM4 12.5H9V14.5H4V12.5Z" fill="#5B6071"/>
</svg>
