<svg width="24" height="24" viewBox="0 0 24 24" fill="none" xmlns="http://www.w3.org/2000/svg">
<path d="M19 22H4.99997V20H19V22ZM17 10C15.58 10 14.26 10.77 13.55 12H13V7H16V5H13V2H11V5H7.99997V7H11V12H10.45C9.34997 10.09 6.89997 9.43 4.99997 10.54C4.07886 11.0669 3.40392 11.9371 3.12281 12.9603C2.8417 13.9836 2.97731 15.0765 3.49997 16C4.23997 17.24 5.56997 18 6.99997 18H17C18.0608 18 19.0783 17.5786 19.8284 16.8284C20.5785 16.0783 21 15.0609 21 14C21 12.9391 20.5785 11.9217 19.8284 11.1716C19.0783 10.4214 18.0608 10 17 10Z" fill="#5B6071"/>
</svg>
