<svg width="24" height="24" viewBox="0 0 24 24" fill="none" xmlns="http://www.w3.org/2000/svg">
<path d="M12 14.4177C13.3353 14.4177 14.4177 13.3352 14.4177 12C14.4177 10.6647 13.3353 9.58231 12 9.58231C10.6648 9.58231 9.58234 10.6647 9.58234 12C9.58234 13.3352 10.6648 14.4177 12 14.4177Z" fill="#5B6071"/>
<path d="M11.848 1.84625C7.11717 1.84625 3.14237 5.08273 2.01437 9.46169C2.00373 9.50108 1.99801 9.54162 1.99733 9.58241C1.99735 9.71064 2.0483 9.83362 2.13898 9.92429C2.22965 10.015 2.35262 10.0659 2.48085 10.0659H6.57461C6.76973 10.0659 6.93621 9.95009 7.01261 9.78337C7.01261 9.78337 7.01885 9.77185 7.02077 9.76633C7.86477 7.94505 9.70805 6.68137 11.847 6.68137C14.7844 6.68137 17.1657 9.06233 17.1657 12C17.1657 14.9377 14.785 17.3187 11.8477 17.3187C9.70861 17.3187 7.86565 16.0547 7.02141 14.2337C7.01917 14.2279 7.01325 14.2167 7.01325 14.2167C6.97503 14.1325 6.91342 14.0611 6.83576 14.011C6.7581 13.9609 6.66767 13.9342 6.57525 13.9341H2.48077C2.41727 13.9341 2.35439 13.9466 2.29571 13.9709C2.23704 13.9951 2.18373 14.0308 2.13883 14.0757C2.09392 14.1206 2.05831 14.1739 2.03402 14.2326C2.00972 14.2912 1.99723 14.3541 1.99725 14.4176C1.99725 14.4594 2.00429 14.4999 2.01429 14.5384C3.14205 18.9174 7.11685 22.1538 11.8479 22.1538C17.4557 22.1538 22.0015 17.6075 22.0015 12.0002C22.0015 6.39273 17.4555 1.84657 11.8479 1.84657L11.848 1.84625Z" fill="#5B6071"/>
</svg>
