<svg width="24" height="24" viewBox="0 0 24 24" fill="none" xmlns="http://www.w3.org/2000/svg">
<path d="M14.13 10.1C14.73 9.60001 15.11 8.91001 15.1 8.14001C15.09 6.67001 13.7 5.48001 12 5.48001C10.3 5.48001 8.90997 6.66001 8.89997 8.13001C8.88997 8.90001 9.26997 9.60001 9.86997 10.09C10.62 10.7 11.23 11.93 11.27 13.27C11.31 14.76 11.21 16.49 11.15 17.37C10.35 17.48 9.78997 17.75 9.78997 18.06C9.78997 18.47 10.78 18.95 12.01 18.95C13.24 18.95 14.23 18.47 14.23 18.06C14.23 17.75 13.67 17.48 12.87 17.37C12.81 16.49 12.71 14.77 12.75 13.27C12.79 11.93 13.4 10.7 14.15 10.09L14.13 10.1Z" fill="#5B6071"/>
<path d="M17.89 18.77C18.0092 18.7208 18.1332 18.6839 18.26 18.66C18.4015 18.63 18.5454 18.6133 18.69 18.61L18.67 18.49C18.67 18.42 18.63 18.33 18.6 18.23L18.55 18.1C18.53 18.06 18.51 18.02 18.49 17.99L18.43 17.88C18.2815 17.8555 18.1345 17.8221 17.99 17.78C17.8539 17.7416 17.7203 17.6948 17.59 17.64C17.37 17.55 17.16 17.44 17.05 17.32C16.9983 17.2801 16.9568 17.2284 16.929 17.1693C16.9012 17.1102 16.8878 17.0453 16.89 16.98C16.8983 16.9242 16.9226 16.8721 16.96 16.83C17.0041 16.779 17.0587 16.738 17.12 16.71L16.99 16.64C16.95 16.62 16.91 16.59 16.85 16.57C16.8 16.54 16.74 16.52 16.68 16.49C16.57 16.44 16.46 16.38 16.36 16.35L16.21 16.29C16.0971 16.3032 15.9836 16.3099 15.87 16.31C15.75 16.31 15.62 16.31 15.5 16.3C15.26 16.28 15.01 16.25 14.8 16.18C14.704 16.1547 14.6103 16.1212 14.52 16.08C14.4468 16.0497 14.3765 16.0129 14.31 15.97C14.2 15.89 14.12 15.81 14.12 15.72L13.95 15.69C13.85 15.67 13.62 15.64 13.48 15.62C13.48 15.64 13.46 15.67 13.46 15.71L13.42 15.88C13.35 16.23 13.55 16.58 13.89 16.68C14.72 16.92 15.35 17.32 15.53 17.81C15.9 18.8 14.35 19.77 12.01 19.77C9.65999 19.77 8.11999 18.8 8.47999 17.81C8.65999 17.33 9.25999 16.94 10.07 16.7C10.2419 16.6466 10.3875 16.5307 10.4782 16.3752C10.5689 16.2197 10.5981 16.0359 10.56 15.86L10.51 15.62L10.2 15.66C10.06 15.68 9.92999 15.7 9.82999 15.72L9.65999 15.75C9.66999 15.83 9.60999 15.92 9.49999 16C9.43678 16.0455 9.36988 16.0856 9.29999 16.12C9.21206 16.1587 9.1219 16.1921 9.02999 16.22C8.92175 16.2534 8.81154 16.2802 8.69999 16.3C8.581 16.3233 8.46082 16.3399 8.33999 16.35C8.08999 16.37 7.83999 16.37 7.60999 16.35L7.56999 16.37C7.54999 16.38 7.49999 16.4 7.45999 16.42L7.14999 16.57C7.03999 16.62 6.93999 16.69 6.85999 16.73L6.75999 16.78L6.72999 16.8C6.88999 16.87 6.96999 16.97 6.98999 17.08C7.02999 17.19 6.97999 17.31 6.86999 17.43C6.80252 17.4968 6.72885 17.5571 6.64999 17.61C6.54874 17.6763 6.44163 17.7332 6.32999 17.78C6.06551 17.9016 5.78659 17.989 5.49999 18.04C5.47918 18.0746 5.46241 18.1115 5.44999 18.15L5.35999 18.4L5.31999 18.66C5.31077 18.6993 5.3074 18.7397 5.30999 18.78C5.62999 18.78 5.91999 18.84 6.13999 18.92C6.38999 19 6.53999 19.13 6.65999 19.28C6.74999 19.44 6.78999 19.61 6.70999 19.81C6.64999 20 6.48999 20.22 6.23999 20.41L6.27999 20.44L6.39999 20.52C6.49999 20.59 6.62999 20.69 6.77999 20.78L7.21999 21.02C7.27999 21.05 7.33999 21.08 7.37999 21.09C7.39968 21.1006 7.41969 21.1106 7.43999 21.12C7.79999 20.97 8.18999 20.89 8.57999 20.84C8.76936 20.8204 8.96005 20.8171 9.14999 20.83C9.33999 20.84 9.52999 20.85 9.69999 20.9C9.87999 20.95 10.05 20.99 10.2 21.06C10.3465 21.128 10.487 21.2083 10.62 21.3C10.88 21.47 11.07 21.72 11.16 21.98L11.49 21.99C11.69 22 11.95 22.01 12.22 22L12.94 21.97L13.26 21.94C13.2894 21.8028 13.3473 21.6733 13.43 21.56C13.4719 21.5027 13.5188 21.4491 13.57 21.4C13.7237 21.2326 13.9112 21.0997 14.12 21.01C14.2732 20.9357 14.4342 20.8786 14.6 20.84C14.78 20.8 14.95 20.77 15.14 20.76C15.33 20.75 15.52 20.75 15.71 20.76C16.103 20.783 16.4906 20.8638 16.86 21L17.06 20.89C17.17 20.82 17.34 20.74 17.47 20.64C17.6 20.54 17.74 20.45 17.82 20.38L17.95 20.25C17.68 20.06 17.52 19.86 17.43 19.67C17.3905 19.5854 17.3701 19.4933 17.37 19.4C17.3612 19.3123 17.3823 19.2241 17.43 19.15C17.5 18.99 17.68 18.88 17.88 18.78M9.94999 13.9C9.94999 13.9 10.3 12.58 8.77999 10.87L8.72999 10.82C8.09616 10.0631 7.74919 9.10719 7.74999 8.11998C7.74999 5.79998 9.63999 3.91998 11.95 3.91998H12.05C13.1639 3.91998 14.2322 4.36248 15.0198 5.15014C15.8075 5.93779 16.25 7.00608 16.25 8.11998C16.248 9.10844 15.8974 10.0645 15.26 10.82C15.25 10.83 15.24 10.85 15.21 10.87C13.87 12.22 14.04 13.9 14.04 13.9C15.238 13.4855 16.2782 12.7101 17.0177 11.6805C17.7572 10.6509 18.1597 9.4176 18.17 8.14998C18.19 4.90998 15.57 2.14998 12.34 1.99998C12.3 1.99903 12.26 1.99903 12.22 1.99998H11.64C8.40999 2.15998 5.78999 4.91998 5.80999 8.14998C5.81999 10.74 7.47999 13.05 9.93999 13.9H9.94999Z" fill="#5B6071"/>
</svg>
