<svg width="24" height="25" viewBox="0 0 24 25" fill="none" xmlns="http://www.w3.org/2000/svg">
<path d="M8.042 3.53599C7.79202 3.60088 7.54595 3.68001 7.305 3.77299C6.778 3.99299 6.322 4.26499 5.92 4.59699C5.83282 4.67268 5.74097 4.74282 5.645 4.80699C5.519 4.86299 4.945 5.46199 4.638 5.85899C2.906 8.10599 2.196 11.372 2.778 14.424C2.854 14.82 3.117 15.786 3.243 16.13C4.007 18.215 5.379 19.849 7.171 20.803C8.583 21.556 10.255 21.863 11.993 21.69C12.341 21.656 12.517 21.627 13.078 21.525C13.311 21.482 14.459 21.14 14.737 21.03C17.129 20.084 19.102 18.448 20.309 16.412C20.815 15.557 21.105 14.743 21.338 13.53C21.708 11.607 20.836 9.26799 19.014 7.30099C16.371 4.44699 12.226 2.84199 8.834 3.35899C8.56677 3.40416 8.30307 3.46324 8.042 3.53599ZM8.462 5.04299C8.742 4.96699 9.037 4.90399 9.275 4.87599C9.93799 4.79928 10.608 4.80734 11.269 4.89999C14.4 5.31999 17.577 7.38799 19.075 9.97699C19.573 10.838 19.863 11.767 19.878 12.555C19.89 13.19 19.749 13.735 19.447 14.234C19.3014 14.4788 19.1158 14.6974 18.898 14.881C18.285 15.419 17.443 15.757 16.397 15.886C15.849 15.953 15.477 16.092 15.167 16.346C15.099 16.402 14.525 16.934 13.888 17.528C12.64 18.694 12.651 18.685 12.468 18.632C12.4127 18.6132 12.3617 18.5837 12.318 18.545C12.188 18.423 12.192 18.385 12.397 17.321C12.502 16.778 12.585 16.268 12.584 16.189C12.5776 15.9116 12.4723 15.6456 12.287 15.439C12.174 15.314 11.987 15.195 11.74 15.089C9.381 14.082 7.397 12.313 6.445 10.367C6.26773 10.0207 6.12954 9.65582 6.033 9.27899C5.743 8.21799 5.813 7.36599 6.252 6.59599C6.574 6.03099 7.029 5.63199 7.739 5.29399C7.917 5.20999 8.182 5.11899 8.462 5.04299Z" fill="#5B6071"/>
</svg>
