<svg width="24" height="25" viewBox="0 0 24 25" fill="none" xmlns="http://www.w3.org/2000/svg">
<path d="M15.6172 14.685V10.3149H16.676V14.685H15.6172ZM14.0526 13.0524V11.9475H18.2406V13.0524H14.0526Z" fill="#5B6071"/>
<path d="M20.3766 14.685V10.3149H21.4354V14.685H20.3766ZM18.812 13.0524V11.9475H23V13.0524H18.812Z" fill="#5B6071"/>
<path d="M13.8878 10.4375H11.3991C11.3537 10.1155 11.2609 9.82955 11.1207 9.57955C10.9806 9.32576 10.8006 9.10985 10.5809 8.93182C10.3612 8.75379 10.1075 8.61742 9.81958 8.52273C9.53549 8.42803 9.22678 8.38068 8.89345 8.38068C8.29117 8.38068 7.76655 8.5303 7.31958 8.82955C6.87261 9.125 6.52602 9.55682 6.27981 10.125C6.0336 10.6894 5.91049 11.375 5.91049 12.1818C5.91049 13.0114 6.0336 13.7083 6.27981 14.2727C6.52981 14.8371 6.87829 15.2633 7.32526 15.5511C7.77223 15.839 8.28928 15.983 8.8764 15.983C9.20595 15.983 9.51087 15.9394 9.79117 15.8523C10.0753 15.7652 10.3272 15.6383 10.5469 15.4716C10.7666 15.3011 10.9484 15.0947 11.0923 14.8523C11.24 14.6098 11.3423 14.3333 11.3991 14.0227L13.8878 14.0341C13.8234 14.5682 13.6624 15.0833 13.4048 15.5795C13.151 16.072 12.8082 16.5133 12.3764 16.9034C11.9484 17.2898 11.437 17.5966 10.8423 17.8239C10.2514 18.0473 9.58284 18.1591 8.83663 18.1591C7.79875 18.1591 6.87072 17.9242 6.05254 17.4545C5.23814 16.9848 4.5942 16.3049 4.12072 15.4148C3.65102 14.5246 3.41617 13.447 3.41617 12.1818C3.41617 10.9129 3.65481 9.83333 4.13208 8.94318C4.60935 8.05303 5.25708 7.375 6.07526 6.90909C6.89345 6.43939 7.8139 6.20455 8.83663 6.20455C9.51087 6.20455 10.1359 6.29924 10.7116 6.48864C11.2912 6.67803 11.8044 6.95455 12.2514 7.31818C12.6984 7.67803 13.062 8.11932 13.3423 8.64205C13.6264 9.16477 13.8082 9.76326 13.8878 10.4375Z" fill="#5B6071"/>
</svg>
