<svg width="24" height="25" viewBox="0 0 24 25" fill="none" xmlns="http://www.w3.org/2000/svg">
<path d="M3 4.5C3 3.94772 3.44772 3.5 4 3.5H20C20.5523 3.5 21 3.94772 21 4.5V4.5C21 5.05228 20.5523 5.5 20 5.5H4C3.44772 5.5 3 5.05228 3 4.5V4.5ZM7 8.5C7 7.94772 7.44772 7.5 8 7.5H16C16.5523 7.5 17 7.94772 17 8.5V8.5C17 9.05228 16.5523 9.5 16 9.5H8C7.44772 9.5 7 9.05228 7 8.5V8.5ZM3 12.5C3 11.9477 3.44772 11.5 4 11.5H20C20.5523 11.5 21 11.9477 21 12.5V12.5C21 13.0523 20.5523 13.5 20 13.5H4C3.44772 13.5 3 13.0523 3 12.5V12.5ZM7 16.5C7 15.9477 7.44772 15.5 8 15.5H16C16.5523 15.5 17 15.9477 17 16.5V16.5C17 17.0523 16.5523 17.5 16 17.5H8C7.44772 17.5 7 17.0523 7 16.5V16.5ZM3 20.5C3 19.9477 3.44772 19.5 4 19.5H20C20.5523 19.5 21 19.9477 21 20.5V20.5C21 21.0523 20.5523 21.5 20 21.5H4C3.44772 21.5 3 21.0523 3 20.5V20.5Z" fill="#5B6071"/>
</svg>
