<svg width="24" height="25" viewBox="0 0 24 25" fill="none" xmlns="http://www.w3.org/2000/svg">
<path d="M21.5236 15.1004L14.6088 22.0013C14.5812 22.0289 14.5397 22.0428 14.5121 22.0289L5.06652 19.4981C5.025 19.4843 4.99728 19.4567 4.99728 19.4289L2.4528 9.9973C2.439 9.9559 2.4528 9.92818 2.4804 9.90058L9.39528 2.99962C9.42288 2.97202 9.4644 2.9581 9.49212 2.97202L18.9377 5.50282C18.9791 5.5165 19.0068 5.54422 19.0068 5.57182L21.5376 15.0035C21.5652 15.045 21.5514 15.0727 21.5238 15.1003L21.5236 15.1004ZM12.2578 7.59082L2.97816 10.0664C2.96436 10.0664 2.95056 10.094 2.96436 10.1078L9.75468 16.8842C9.76848 16.898 9.7962 16.898 9.7962 16.8704L12.2855 7.60462C12.2993 7.60462 12.2717 7.57702 12.2579 7.5907L12.2578 7.59082Z" fill="#5B6071"/>
</svg>
