<svg width="24" height="25" viewBox="0 0 24 25" fill="none" xmlns="http://www.w3.org/2000/svg">
<g clip-path="url(#clip0_3475_10645)">
<path d="M17.767 8V10H19.767V20H9.767V18H7.767V22H21.767V8H17.767Z" fill="#5B6071"/>
<path d="M4.38426 5.2222C4.38426 4.179 5.22995 3.33331 6.27315 3.33331C6.62088 3.33331 6.90278 3.61521 6.90278 3.96294C6.90278 4.31067 6.62088 4.59257 6.27315 4.59257C5.92542 4.59257 5.64352 4.87447 5.64352 5.2222V7.70197C5.64352 8.03201 5.55799 8.34592 5.40563 8.61974C5.27667 8.85152 5.27667 9.14844 5.40563 9.38022C5.55799 9.65404 5.64352 9.96796 5.64352 10.298V12.7778C5.64352 13.1255 5.92542 13.4074 6.27315 13.4074C6.62088 13.4074 6.90278 13.6893 6.90278 14.037C6.90278 14.3848 6.62088 14.6666 6.27315 14.6666C5.22995 14.6666 4.38426 13.821 4.38426 12.7778V10.298C4.38426 10.0091 4.18763 9.75724 3.90734 9.68716L3.60192 9.61078C3.32163 9.54077 3.125 9.28892 3.125 8.99998C3.125 8.71104 3.32163 8.45919 3.60192 8.38918L3.90734 8.3128C4.18763 8.24272 4.38426 7.99087 4.38426 7.70197V5.2222ZM14.4583 5.2222C14.4583 4.179 13.6127 3.33331 12.5694 3.33331C12.2217 3.33331 11.9398 3.61521 11.9398 3.96294C11.9398 4.31067 12.2217 4.59257 12.5694 4.59257C12.9172 4.59257 13.1991 4.87447 13.1991 5.2222V7.70197C13.1991 8.03202 13.2846 8.34593 13.437 8.61976C13.5659 8.85152 13.5659 9.14844 13.437 9.3802C13.2846 9.65403 13.1991 9.96795 13.1991 10.298V12.7778C13.1991 13.1255 12.9172 13.4074 12.5694 13.4074C12.2217 13.4074 11.9398 13.6893 11.9398 14.037C11.9398 14.3848 12.2217 14.6666 12.5694 14.6666C13.6127 14.6666 14.4583 13.821 14.4583 12.7778V10.298C14.4583 10.0091 14.655 9.75724 14.9353 9.68716L15.2406 9.61078C15.521 9.54077 15.7176 9.28892 15.7176 8.99998C15.7176 8.71104 15.521 8.45919 15.2406 8.38918L14.9353 8.3128C14.655 8.24272 14.4583 7.99087 14.4583 7.70197V5.2222Z" fill="#5B6071"/>
</g>
<defs>
<clipPath id="clip0_3475_10645">
<rect width="24" height="24" fill="white" transform="translate(0 0.5)"/>
</clipPath>
</defs>
</svg>
