<svg width="24" height="25" viewBox="0 0 24 25" fill="none" xmlns="http://www.w3.org/2000/svg">
<mask id="path-1-outside-1_3475_11090" maskUnits="userSpaceOnUse" x="3" y="3.5" width="18" height="18" fill="black">
<rect fill="white" x="3" y="3.5" width="18" height="18"/>
<path fill-rule="evenodd" clip-rule="evenodd" d="M15.8889 5.5H8.11111C6.39289 5.5 5 6.89289 5 8.61111V16.3889C5 18.1071 6.39289 19.5 8.11111 19.5H15.8889C17.6071 19.5 19 18.1071 19 16.3889V8.61111C19 6.89289 17.6071 5.5 15.8889 5.5ZM15.8889 17.9444L8.11111 17.9444C8.05741 17.9444 8.00436 17.9417 7.95206 17.9364C8.00436 17.9417 8.05742 17.9444 8.11111 17.9444H15.8889ZM17.4444 16.3889C17.4444 17.1943 16.8323 17.8568 16.0479 17.9364C16.8323 17.8567 17.4444 17.1943 17.4444 16.3889V8.61111C17.4444 8.61111 17.4444 8.61111 17.4444 8.61111V16.3889Z"/>
</mask>
<path d="M15.8889 19.9444C16.9935 19.9444 17.8889 19.049 17.8889 17.9444C17.8889 16.8399 16.9935 15.9444 15.8889 15.9444V19.9444ZM8.11111 17.9444L8.11111 15.9444H8.11111V17.9444ZM7.95206 17.9364L8.15412 15.9466C7.05521 15.8351 6.0739 16.6354 5.9623 17.7343C5.8507 18.8333 6.65107 19.8146 7.74998 19.9262L7.95206 17.9364ZM16.0479 17.9364L15.8458 15.9467C14.7469 16.0583 13.9466 17.0396 14.0582 18.1385C14.1698 19.2374 15.1511 20.0378 16.25 19.9262L16.0479 17.9364ZM19.4444 8.61111C19.4444 7.50654 18.549 6.61111 17.4444 6.61111C16.3399 6.61111 15.4444 7.50654 15.4444 8.61111H19.4444ZM8.11111 7.5H15.8889V3.5H8.11111V7.5ZM7 8.61111C7 7.99746 7.49746 7.5 8.11111 7.5V3.5C5.28832 3.5 3 5.78832 3 8.61111H7ZM7 16.3889V8.61111H3V16.3889H7ZM8.11111 17.5C7.49746 17.5 7 17.0025 7 16.3889H3C3 19.2117 5.28832 21.5 8.11111 21.5V17.5ZM15.8889 17.5H8.11111V21.5H15.8889V17.5ZM17 16.3889C17 17.0025 16.5025 17.5 15.8889 17.5V21.5C18.7117 21.5 21 19.2117 21 16.3889H17ZM17 8.61111V16.3889H21V8.61111H17ZM15.8889 7.5C16.5025 7.5 17 7.99746 17 8.61111H21C21 5.78832 18.7117 3.5 15.8889 3.5V7.5ZM15.8889 15.9444L8.11111 15.9444L8.1111 19.9444L15.8889 19.9444L15.8889 15.9444ZM8.11111 15.9444C8.12488 15.9444 8.13926 15.9451 8.15412 15.9466L7.75001 19.9262C7.86945 19.9383 7.98995 19.9444 8.11111 19.9444V15.9444ZM7.74998 19.9262C7.86933 19.9383 7.98983 19.9444 8.11111 19.9444V15.9444C8.125 15.9444 8.13939 15.9452 8.15415 15.9466L7.74998 19.9262ZM8.11111 19.9444H15.8889V15.9444H8.11111V19.9444ZM16.25 19.9262C18.0451 19.7439 19.4444 18.2311 19.4444 16.3889H15.4444C15.4444 16.1575 15.6196 15.9696 15.8459 15.9466L16.25 19.9262ZM15.4444 16.3889C15.4444 16.1575 15.6196 15.9696 15.8458 15.9467L16.25 19.9262C18.045 19.7439 19.4444 18.2311 19.4444 16.3889H15.4444ZM15.4444 8.61111V16.3889H19.4444V8.61111H15.4444ZM19.4444 8.61111C19.4444 8.53956 19.4406 8.46515 19.432 8.38844C19.4234 8.31166 19.4102 8.23366 19.3917 8.15501C19.3733 8.07632 19.3501 7.9985 19.322 7.92201C19.2939 7.84553 19.2616 7.77196 19.2257 7.70156C19.1897 7.6312 19.1508 7.56527 19.1099 7.50376C19.0691 7.44231 19.0267 7.38601 18.9841 7.33464C18.8991 7.23213 18.8137 7.14986 18.7373 7.08514C18.699 7.05269 18.6624 7.02414 18.6284 6.9992C18.5944 6.97426 18.5625 6.95248 18.5335 6.93364C18.5045 6.91481 18.4777 6.89846 18.4538 6.8845C18.4299 6.87054 18.4082 6.85852 18.3894 6.84844C18.3706 6.83836 18.3539 6.8298 18.3401 6.82286C18.3262 6.81592 18.3144 6.81018 18.3053 6.80585C18.2963 6.80156 18.289 6.79816 18.2846 6.79614C18.2824 6.7951 18.2806 6.79427 18.2795 6.79376C18.2789 6.79351 18.2785 6.7933 18.2782 6.79317C18.278 6.79311 18.2779 6.79306 18.2779 6.79303C18.2778 6.79302 18.2778 6.793 18.2778 6.79299C18.2778 6.79298 18.2778 6.79298 18.2778 6.79298C18.2772 6.79271 18.2806 6.79429 18.2846 6.79614C18.289 6.79816 18.2963 6.80155 18.3053 6.80585C18.3144 6.81018 18.3262 6.81592 18.3401 6.82286C18.3539 6.8298 18.3706 6.83836 18.3894 6.84844C18.4082 6.85852 18.4299 6.87054 18.4538 6.8845C18.4777 6.89846 18.5045 6.91481 18.5335 6.93364C18.5625 6.95247 18.5944 6.97426 18.6284 6.9992C18.6623 7.02414 18.699 7.05269 18.7373 7.08514C18.8137 7.14986 18.8991 7.23212 18.9841 7.33463C19.0267 7.38601 19.069 7.44231 19.1099 7.50376C19.1508 7.56527 19.1897 7.6312 19.2256 7.70155C19.2616 7.77196 19.2939 7.84552 19.322 7.92201C19.35 7.99849 19.3733 8.07632 19.3917 8.155C19.4102 8.23365 19.4234 8.31165 19.432 8.38844C19.4406 8.46515 19.4444 8.53956 19.4444 8.61111H15.4444C15.4444 8.68265 15.4483 8.75706 15.4569 8.83378C15.4655 8.91056 15.4787 8.98856 15.4971 9.06721C15.5156 9.14589 15.5388 9.22372 15.5669 9.30021C15.595 9.37669 15.6273 9.45026 15.6632 9.52066C15.6992 9.59102 15.7381 9.65695 15.779 9.71846C15.8198 9.7799 15.8622 9.83621 15.9048 9.88758C15.9897 9.99009 16.0752 10.0724 16.1516 10.1371C16.1899 10.1695 16.2265 10.1981 16.2605 10.223C16.2944 10.248 16.3263 10.2697 16.3554 10.2886C16.3844 10.3074 16.4112 10.3238 16.4351 10.3377C16.459 10.3517 16.4807 10.3637 16.4995 10.3738C16.5183 10.3839 16.5349 10.3924 16.5488 10.3994C16.5627 10.4063 16.5745 10.412 16.5836 10.4164C16.5926 10.4207 16.5999 10.4241 16.6043 10.4261C16.6065 10.4271 16.6083 10.4279 16.6094 10.4285C16.61 10.4287 16.6104 10.4289 16.6107 10.429C16.6108 10.4291 16.611 10.4292 16.611 10.4292C16.6111 10.4292 16.6111 10.4292 16.6111 10.4292C16.6111 10.4292 16.6111 10.4292 16.6111 10.4292C16.6117 10.4295 16.6083 10.4279 16.6043 10.4261C16.5999 10.4241 16.5926 10.4207 16.5836 10.4164C16.5745 10.412 16.5627 10.4063 16.5488 10.3994C16.5349 10.3924 16.5183 10.3839 16.4995 10.3738C16.4807 10.3637 16.459 10.3517 16.4351 10.3377C16.4112 10.3238 16.3844 10.3074 16.3554 10.2886C16.3264 10.2697 16.2944 10.248 16.2605 10.223C16.2265 10.1981 16.1899 10.1695 16.1516 10.1371C16.0752 10.0724 15.9897 9.99009 15.9048 9.88758C15.8622 9.83621 15.8198 9.77991 15.779 9.71846C15.7381 9.65695 15.6992 9.59102 15.6632 9.52066C15.6273 9.45026 15.595 9.37669 15.5669 9.30021C15.5388 9.22372 15.5156 9.1459 15.4971 9.06721C15.4787 8.98856 15.4655 8.91056 15.4569 8.83378C15.4483 8.75707 15.4444 8.68266 15.4444 8.61111H19.4444ZM19.4444 16.3889V8.61111H15.4444V16.3889H19.4444Z" fill="#5B6071" mask="url(#path-1-outside-1_3475_11090)"/>
<rect x="7" y="7.5" width="4" height="2" rx="1" fill="#5B6071"/>
<rect x="7" y="11.5" width="4" height="2" rx="1" fill="#5B6071"/>
<rect x="7" y="15.5" width="4" height="2" rx="1" fill="#5B6071"/>
<rect x="13" y="7.5" width="4" height="2" rx="1" fill="#5B6071"/>
<rect x="13" y="11.5" width="4" height="2" rx="1" fill="#5B6071"/>
<rect x="13" y="15.5" width="4" height="2" rx="1" fill="#5B6071"/>
</svg>
