<svg width="24" height="25" viewBox="0 0 24 25" fill="none" xmlns="http://www.w3.org/2000/svg">
<path d="M9.16346 9.52387V8.19391C9.29486 8.18575 9.42626 8.17747 9.55754 8.17747C13.2028 8.06251 15.5919 11.3137 15.5919 11.3137C15.5919 11.3137 13.0139 14.8933 10.2472 14.8933C9.8777 14.8933 9.5165 14.8357 9.17174 14.7207V10.6815C10.5921 10.8538 10.8793 11.4778 11.725 12.898L13.6215 11.3053C13.6215 11.3053 12.234 9.49087 9.90242 9.49087C9.65606 9.48271 9.40982 9.49927 9.16346 9.52387ZM9.16346 5.12335V7.11007L9.55754 7.08547C14.6231 6.91303 17.9316 11.2396 17.9316 11.2396C17.9316 11.2396 14.1387 15.8536 10.1897 15.8536C9.84494 15.8536 9.50834 15.8208 9.17174 15.7633V16.9947C9.45086 17.0276 9.73814 17.0523 10.0173 17.0523C13.6953 17.0523 16.3553 15.1722 18.9333 12.9555C19.3602 13.3004 21.1089 14.1296 21.4701 14.4908C19.0235 16.5433 13.3176 18.1935 10.0829 18.1935C9.7709 18.1935 9.47546 18.1771 9.1799 18.1443V19.8766H23.1527V5.12383L9.16346 5.12335ZM9.16346 14.7206V15.7714C5.76458 15.164 4.82042 11.6254 4.82042 11.6254C4.82042 11.6254 6.45422 9.81955 9.16346 9.52387V10.6732H9.1553C7.73498 10.5008 6.6185 11.8308 6.6185 11.8308C6.6185 11.8308 7.25054 14.0721 9.16346 14.7206ZM3.12926 11.4777C3.12926 11.4777 5.1407 8.50567 9.17162 8.19379V7.11019C4.70558 7.47127 0.846863 11.2478 0.846863 11.2478C0.846863 11.2478 3.03074 17.5694 9.16346 18.1442V16.9947C4.66442 16.4365 3.12926 11.4777 3.12926 11.4777Z" fill="#5B6071"/>
</svg>
