<svg width="24" height="25" viewBox="0 0 24 25" fill="none" xmlns="http://www.w3.org/2000/svg">
<path d="M11.4651 10.9737H9.28758C9.2478 10.692 9.1666 10.4418 9.04397 10.223C8.92134 10.001 8.7639 9.81204 8.57167 9.65626C8.37943 9.50048 8.15737 9.38117 7.90547 9.29831C7.65689 9.21545 7.38677 9.17402 7.0951 9.17402C6.56812 9.17402 6.10907 9.30494 5.71797 9.56677C5.32687 9.8253 5.02361 10.2031 4.80817 10.7003C4.59274 11.1941 4.48502 11.794 4.48502 12.5C4.48502 13.2259 4.59274 13.8357 4.80817 14.3296C5.02692 14.8234 5.33185 15.1963 5.72294 15.4482C6.11404 15.7001 6.56646 15.826 7.08019 15.826C7.36854 15.826 7.63535 15.7879 7.88062 15.7117C8.12919 15.6354 8.3496 15.5244 8.54184 15.3786C8.73407 15.2294 8.89316 15.0488 9.01911 14.8367C9.14837 14.6245 9.23786 14.3826 9.28758 14.1108L11.4651 14.1207C11.4088 14.5881 11.2679 15.0388 11.0425 15.473C10.8205 15.9039 10.5205 16.29 10.1427 16.6314C9.76816 16.9695 9.32072 17.2379 8.80036 17.4368C8.28331 17.6324 7.69832 17.7301 7.04539 17.7301C6.13724 17.7301 5.32522 17.5246 4.60931 17.1136C3.89671 16.7027 3.33327 16.1077 2.91897 15.3288C2.50798 14.55 2.30249 13.607 2.30249 12.5C2.30249 11.3897 2.5113 10.4451 2.92891 9.6662C3.34652 8.88732 3.91329 8.29405 4.62919 7.88637C5.3451 7.47539 6.1505 7.2699 7.04539 7.2699C7.63535 7.2699 8.18223 7.35276 8.68601 7.51848C9.19312 7.6842 9.64222 7.92615 10.0333 8.24433C10.4244 8.5592 10.7426 8.94532 10.9879 9.40271C11.2364 9.8601 11.3955 10.3838 11.4651 10.9737Z" fill="#5B6071"/>
<path d="M12.1322 7.4091H14.5434L16.8652 11.794H16.9646L19.2863 7.4091H21.6976L17.9838 13.9915V17.5909H15.846V13.9915L12.1322 7.4091Z" fill="#5B6071"/>
</svg>
