<svg width="24" height="25" viewBox="0 0 24 25" fill="none" xmlns="http://www.w3.org/2000/svg">
<path d="M22.5768 4.2832C22.2424 4.2832 21.9217 4.41646 21.6853 4.65365C21.4488 4.89085 21.316 5.21256 21.316 5.548C21.3159 5.71417 21.3484 5.87872 21.4117 6.03227C21.4751 6.18581 21.5679 6.32534 21.685 6.44287C21.8021 6.5604 21.9411 6.65364 22.0941 6.71725C22.2471 6.78086 22.4112 6.8136 22.5768 6.8136C22.7424 6.8136 22.9064 6.78086 23.0595 6.71725C23.2125 6.65364 23.3515 6.5604 23.4686 6.44287C23.5857 6.32534 23.6785 6.18581 23.7418 6.03227C23.8052 5.87872 23.8377 5.71417 23.8376 5.548C23.8376 5.21256 23.7048 4.89085 23.4683 4.65365C23.2319 4.41646 22.9112 4.2832 22.5768 4.2832ZM8.67519 4.7064L3.49679 4.7152C3.47439 4.7152 3.45279 4.712 3.43119 4.7152C3.17759 4.752 2.97919 4.9912 2.97839 5.28L2.99439 20.0328C2.99439 20.256 3.04559 20.7168 3.57919 20.7168L8.37439 20.6944C9.73985 20.6912 10.6566 20.6642 11.2045 20.5833C11.2085 20.5827 11.2124 20.5824 11.2165 20.5824V20.5824C11.221 20.5824 11.2254 20.582 11.2298 20.5813C11.751 20.4955 12.3033 20.3382 12.9032 20.108C13.9512 19.7224 14.88 19.152 15.6784 18.3904C16.4608 17.6528 17.0672 16.7792 17.4928 15.7968C17.8491 14.975 18.057 14.1137 18.1148 13.2235C18.1312 12.9708 18.3219 12.7629 18.5683 12.7043C19.2582 12.5402 19.8852 12.1744 20.3629 11.6505C20.9398 11.0178 21.2586 10.199 21.2584 9.3504C21.2584 8.4353 20.8875 7.55768 20.2274 6.9106C19.5673 6.26353 18.672 5.9 17.7384 5.9C17.0444 5.90002 16.3692 6.10106 15.7957 6.47317C15.5895 6.60691 15.3174 6.60629 15.123 6.45604C14.729 6.15153 14.3035 5.88608 13.848 5.6608C12.5288 5.0016 10.8088 4.7016 8.67519 4.7064ZM8.45119 7.7472C9.49439 7.7448 10.2368 7.7824 10.6576 7.8504C11.084 7.9192 11.552 8.0648 12.0464 8.2904C12.5376 8.5104 12.9648 8.78 13.3328 9.116C14.3432 10.0424 14.82 11.1384 14.8224 12.5896C14.8248 14.0752 14.364 15.2328 13.3792 16.2032C13.076 16.4976 12.7392 16.7472 12.3672 16.9544C12.016 17.1472 11.5584 17.3128 10.9792 17.456C10.4336 17.5848 9.60559 17.6584 8.52639 17.66L6.7299 17.6631C6.45364 17.6636 6.22934 17.44 6.22903 17.1637L6.21896 8.25087C6.21865 7.97486 6.44205 7.7508 6.71806 7.75031L8.45119 7.7472Z" fill="#5B6071"/>
</svg>
