<svg width="24" height="25" viewBox="0 0 24 25" fill="none" xmlns="http://www.w3.org/2000/svg">
<path fill-rule="evenodd" clip-rule="evenodd" d="M13.5431 4.09153L16.4942 7.17093L5.82737 6.5794L11.2743 3.73688C11.5216 3.58205 11.9046 3.5 12.2952 3.5C12.7492 3.5 13.2856 3.82157 13.5431 4.09153ZM5.82611 16.1709C5.82611 17.1211 5.94025 17.354 6.39299 17.8291L6.847 18.3028L6.84701 18.3028L9.91096 21.5H17.0611L17.0611 18.3028L17.0611 18.3028L12.0682 12.3822L5.82611 6.57941V16.1709Z" fill="#5B6071"/>
<path fill-rule="evenodd" clip-rule="evenodd" d="M5.8261 6.57812H14.9051C15.5303 6.57812 15.9831 6.63635 16.4929 7.16966L20.125 10.9597V18.3015H17.061L5.8261 6.57812ZM3.44188 14.7497L6.39298 17.8291L5.82609 6.57941L3.10201 12.5C3.00436 12.7144 2.875 13.0889 2.875 13.3284C2.875 13.8458 3.09186 14.3752 3.44188 14.7497Z" fill="#5B6071"/>
</svg>
