<svg width="24" height="25" viewBox="0 0 24 25" fill="none" xmlns="http://www.w3.org/2000/svg">
<path fill-rule="evenodd" clip-rule="evenodd" d="M19.0711 5.42893C17.1957 3.55357 14.6522 2.5 12 2.5C9.34784 2.5 6.8043 3.55357 4.92893 5.42893C3.05357 7.3043 2 9.84784 2 12.5C2 15.1522 3.05357 17.6957 4.92893 19.5711C6.8043 21.4464 9.34784 22.5 12 22.5C14.6522 22.5 17.1957 21.4464 19.0711 19.5711C20.9464 17.6957 22 15.1522 22 12.5C22 9.84784 20.9464 7.3043 19.0711 5.42893ZM6.41406 6.1914C6.48828 5.9414 6.75391 5.79296 7.00781 5.85936C7.26562 5.92968 7.41797 6.1914 7.35547 6.4453L7.35156 6.46093L6.6875 8.92187L6.68359 8.93358C6.64623 9.05477 6.56319 9.15667 6.45203 9.21771C6.34087 9.27876 6.21033 9.29416 6.08801 9.26067C5.9657 9.22717 5.86122 9.1474 5.79668 9.03824C5.73213 8.92908 5.71259 8.79909 5.74219 8.67577L5.74609 8.66405L6.41016 6.20311L6.41406 6.1914ZM14.9453 6.65624C15.0195 6.40624 15.2852 6.2578 15.543 6.32421C15.7969 6.39452 15.9492 6.65624 15.8867 6.91405V6.92577L15.3633 8.85936L15.3203 8.82421C15.0608 8.63359 14.785 8.46627 14.4961 8.32421L14.9414 6.66796L14.9453 6.65624ZM10.2695 3.68358C10.5769 3.62313 10.8872 3.5788 11.1992 3.55077C11.2146 3.62303 11.2133 3.69786 11.1953 3.76952L11.1914 3.78124L10.5273 6.24218L10.5234 6.2539C10.4843 6.37238 10.4012 6.47138 10.2914 6.53056C10.1815 6.58974 10.0532 6.60461 9.93267 6.57211C9.81218 6.53962 9.70871 6.46222 9.6435 6.35582C9.57829 6.24943 9.5563 6.1221 9.58203 5.99999L9.58594 5.98827L10.2031 3.6953L10.2695 3.68358ZM17.1797 5.73436L17.3086 5.24999L17.3672 5.29296C17.6354 5.49337 17.8924 5.70855 18.1367 5.93749L18.1211 5.98827L18.1172 5.99999C18.078 6.11848 17.995 6.21748 17.8851 6.27666C17.7753 6.33583 17.6469 6.3507 17.5264 6.31821C17.4059 6.28571 17.3025 6.20832 17.2373 6.10192C17.172 5.99552 17.15 5.86819 17.1758 5.74608L17.1797 5.73436ZM13.2109 4.5039L13.4453 3.6328L13.5156 3.64452C13.813 3.69468 14.1077 3.75986 14.3984 3.83983L14.1523 4.7578L14.1484 4.76952C14.1093 4.88801 14.0262 4.98701 13.9164 5.04619C13.8065 5.10537 13.6782 5.12023 13.5577 5.08774C13.4372 5.05524 13.3337 4.97785 13.2685 4.87145C13.2033 4.76505 13.1813 4.63772 13.207 4.51561L13.2109 4.5039ZM6.4375 12.2695C6.4375 9.99218 8.70312 8.16015 11.6094 8.16015C13.0078 8.16015 14.207 8.54686 15.1523 9.28515C15.957 9.91405 16.5469 10.7812 16.8516 11.7617L16.8594 11.7851L16.8672 11.8125L16.8828 11.8633L16.9063 11.957L16.9688 12.1758L17.0352 12.4258L17.3281 13.4961L18.6719 18.5156L18.6289 18.5625C17.2383 20.082 15.332 21.1211 13.1875 21.4062L13.168 21.2773L13.1328 21.0195L13.1016 20.832L13.0664 20.5859L13.0195 20.2851L13 20.168L12.957 19.8828L12.9297 19.7148L12.8945 19.4961L12.8594 19.2851L12.8242 19.082L12.7891 18.8828L12.7578 18.6875L12.7227 18.5L12.6914 18.3203L12.668 18.1875L12.6406 18.0586L12.5938 17.8125L12.5703 17.6953L12.543 17.5508L12.5195 17.4492L12.5 17.3516L12.4805 17.2578L12.4687 17.1953L12.4414 17.0781L12.4023 16.9062L12.3867 16.8516L12.3672 16.7734L12.3516 16.6992L12.332 16.625L12.3125 16.5547L12.3008 16.5117L12.2813 16.4453L12.2656 16.3828L12.2539 16.3398L12.2383 16.3008L12.2266 16.2656L12.2109 16.2109L12.1992 16.1719L12.1914 16.1484C12.1703 16.0864 12.1468 16.0251 12.1211 15.9648L12.1094 15.9414L12.1992 15.707L11.8437 15.7187L11.7461 15.7226C8.51953 15.7891 6.4375 14.418 6.4375 12.2695ZM8.46094 18.918C8.53516 18.6641 8.80078 18.5156 9.05469 18.5859C9.3125 18.6523 9.46484 18.9141 9.40234 19.1719L9.39844 19.1836L8.92578 20.9453L8.85938 20.918C8.57341 20.8113 8.29309 20.69 8.01953 20.5547L8.45703 18.9297L8.46094 18.918ZM11.1797 17.7266C11.2539 17.4726 11.5195 17.3242 11.7773 17.3945C11.8424 17.4123 11.903 17.4433 11.9554 17.4857C12.0079 17.528 12.051 17.5808 12.082 17.6406L12.0977 17.7109L12.1211 17.8242L12.1367 17.9062L12.1328 17.9258L12.1211 17.9805V17.9922L11.457 20.4531L11.4531 20.4648C11.414 20.5833 11.3309 20.6823 11.2211 20.7415C11.1112 20.8007 10.9828 20.8155 10.8624 20.7831C10.7419 20.7506 10.6384 20.6732 10.5732 20.5668C10.508 20.4604 10.486 20.333 10.5117 20.2109V20.1992L11.1758 17.7383L11.1797 17.7266ZM7.11719 14.9336L7.14844 14.8594C7.39453 15.0742 7.67969 15.2695 7.99219 15.4336L7.39062 17.668L7.38672 17.6797C7.34936 17.8009 7.26631 17.9028 7.15515 17.9638C7.044 18.0249 6.91345 18.0403 6.79114 18.0068C6.66883 17.9733 6.56434 17.8935 6.4998 17.7843C6.43526 17.6752 6.41572 17.5452 6.44531 17.4219L6.44922 17.4101L7.11328 14.9492L7.11719 14.9336ZM4.96875 12.3594C5.04297 12.1094 5.30859 11.9609 5.56641 12.0273C5.82031 12.0976 5.97266 12.3594 5.91016 12.6172V12.6289L5.24609 15.0898L5.24219 15.1016C5.20482 15.2227 5.12178 15.3246 5.01062 15.3857C4.89947 15.4467 4.76892 15.4621 4.64661 15.4286C4.5243 15.3951 4.41981 15.3154 4.35527 15.2062C4.29073 15.097 4.27119 14.9671 4.30078 14.8437V14.832L4.96484 12.3711L4.96875 12.3594ZM19.8594 11.8008C19.9336 11.5508 20.1992 11.4023 20.4531 11.4687C20.7109 11.5391 20.8633 11.8008 20.8008 12.0547V12.0703L20.1328 14.5312V14.543C20.0986 14.6683 20.016 14.775 19.9032 14.8394C19.7904 14.9039 19.6566 14.9209 19.5312 14.8867C19.4059 14.8525 19.2993 14.7699 19.2348 14.6571C19.1703 14.5443 19.1533 14.4105 19.1875 14.2851L19.1914 14.2734L19.8555 11.8125L19.8594 11.8008ZM3.07422 11.457C3.20652 10.3086 3.56074 9.19686 4.11719 8.18358C4.15673 8.1841 4.19608 8.18935 4.23438 8.19921C4.49219 8.26952 4.64453 8.53124 4.58203 8.78905L4.57812 8.80077L3.91406 11.2617L3.91016 11.2734C3.83594 11.5234 3.57031 11.6719 3.31641 11.6055C3.22266 11.5813 3.1383 11.5296 3.07422 11.457ZM18.1758 8.53124C18.2539 8.28124 18.5156 8.1328 18.7734 8.19921C19.0273 8.26952 19.1836 8.53124 19.1211 8.78905L19.1172 8.80077L18.4531 11.2617L18.4492 11.2734C18.4119 11.3946 18.3288 11.4965 18.2177 11.5576C18.1065 11.6186 17.976 11.634 17.8536 11.6005C17.7313 11.567 17.6268 11.4872 17.5623 11.3781C17.4978 11.2689 17.4782 11.1389 17.5078 11.0156L17.5117 11.0039L18.1758 8.54296V8.53124Z" fill="#5B6071"/>
<path d="M12.2344 9.80469C12.4001 9.80469 12.5591 9.87054 12.6763 9.98775C12.7935 10.105 12.8594 10.2639 12.8594 10.4297C12.8594 10.5954 12.7935 10.7544 12.6763 10.8716C12.5591 10.9888 12.4001 11.0547 12.2344 11.0547C12.0686 11.0547 11.9096 10.9888 11.7924 10.8716C11.6752 10.7544 11.6094 10.5954 11.6094 10.4297C11.6094 10.2639 11.6752 10.105 11.7924 9.98775C11.9096 9.87054 12.0686 9.80469 12.2344 9.80469Z" fill="#5B6071"/>
</svg>
