<svg width="24" height="25" viewBox="0 0 24 25" fill="none" xmlns="http://www.w3.org/2000/svg">
<path d="M13.11 6.93999V8.05999H4.22C3.61 8.05999 3.12 8.55999 3.12 9.15999V13.61H2.37C2.17 13.61 2 13.78 2 13.98V17.68C2 17.89 2.17 18.06 2.37 18.06H3.11V20.28C3.11 20.89 3.61 21.38 4.22 21.38H19.78C20.39 21.38 20.88 20.89 20.88 20.28V18.06H21.63C21.83 18.06 22 17.89 22 17.69V13.99C22 13.78 21.83 13.61 21.63 13.61H20.89V9.16999C20.89 8.54999 20.39 8.05999 19.78 8.05999H14.22V3.97999C14.22 3.77999 14.06 3.60999 13.85 3.60999H11.25C11.05 3.60999 10.89 3.77999 10.89 3.97999V6.57999C10.89 6.77999 11.05 6.93999 11.26 6.93999H13.11ZM17.98 14.48L15.65 16.81C15.5659 16.8924 15.4528 16.9386 15.335 16.9386C15.2172 16.9386 15.1041 16.8924 15.02 16.81L13.62 15.41C13.5375 15.3259 13.4914 15.2128 13.4914 15.095C13.4914 14.9772 13.5375 14.8641 13.62 14.78L14.09 14.3C14.1741 14.2175 14.2872 14.1713 14.405 14.1713C14.5228 14.1713 14.6359 14.2175 14.72 14.3L15.33 14.9L16.87 13.37C16.9541 13.2875 17.0672 13.2414 17.185 13.2414C17.3028 13.2414 17.4159 13.2875 17.5 13.37L17.98 13.85C18.15 14.02 18.15 14.31 17.98 14.48ZM8.24 16.81C8.15588 16.8924 8.04279 16.9386 7.925 16.9386C7.80721 16.9386 7.69412 16.8924 7.61 16.81L6.21 15.41C6.12755 15.3259 6.08136 15.2128 6.08136 15.095C6.08136 14.9772 6.12755 14.8641 6.21 14.78L6.68 14.3C6.72185 14.2577 6.77168 14.2241 6.82661 14.2011C6.88154 14.1782 6.94048 14.1664 7 14.1664C7.05952 14.1664 7.11846 14.1782 7.17339 14.2011C7.22832 14.2241 7.27815 14.2577 7.32 14.3L7.92 14.9L9.46 13.37C9.54412 13.2875 9.65721 13.2414 9.775 13.2414C9.89279 13.2414 10.0059 13.2875 10.09 13.37L10.57 13.85C10.75 14.02 10.75 14.31 10.57 14.48L8.24 16.81Z" fill="#5B6071"/>
</svg>
