<svg width="24" height="24" viewBox="0 0 24 24" fill="none" xmlns="http://www.w3.org/2000/svg">
<path d="M20.8944 10.5889C20.8424 10.5467 20.3571 10.1721 19.3338 10.1721C19.0635 10.1732 18.7939 10.1969 18.5274 10.2429C18.3293 8.85473 17.2069 8.17791 17.1566 8.14754L16.8818 7.9855L16.7011 8.25218C16.4747 8.61043 16.3095 9.00533 16.2125 9.42013C16.0293 10.2126 16.1407 10.9569 16.5343 11.5931C16.059 11.8641 15.2964 11.9307 15.1421 11.9366H2.51672C2.18694 11.937 1.91935 12.2096 1.91755 12.5467C1.90283 13.6777 2.09022 14.8019 2.4705 15.8641C2.90542 17.0303 3.55246 17.8894 4.39427 18.4151C5.33758 19.0059 6.87015 19.3434 8.60739 19.3434C9.3922 19.3459 10.1755 19.2733 10.9471 19.1266C12.0197 18.9251 13.0518 18.5418 14.0007 17.9923C14.7826 17.5293 15.4863 16.9403 16.0846 16.248C17.0849 15.0902 17.6807 13.8008 18.1239 12.6547H18.3005C19.3957 12.6547 20.0691 12.2066 20.4405 11.8311C20.6873 11.5916 20.88 11.2999 21.005 10.9762L21.0834 10.7416L20.8944 10.5889Z" fill="#5B6071"/>
<path d="M3.68703 11.5585H5.37888C5.46048 11.5585 5.5266 11.4909 5.5266 11.4075V9.8665C5.52705 9.78308 5.46128 9.71511 5.37971 9.71463C5.37998 9.71463 5.37944 9.71463 5.37971 9.71463H3.68703C3.60543 9.71463 3.53931 9.78221 3.53931 9.86564V11.4075C3.53931 11.4909 3.60543 11.5585 3.68703 11.5585Z" fill="#5B6071"/>
<path d="M6.01845 11.5585H7.7103C7.7919 11.5585 7.85802 11.4909 7.85802 11.4075V9.8665C7.85848 9.78308 7.79271 9.71511 7.71111 9.71463C7.71138 9.71463 7.71084 9.71463 7.71111 9.71463H6.01842C5.93637 9.71463 5.86987 9.7826 5.86987 9.8665V11.4075C5.87036 11.491 5.93672 11.5585 6.01845 11.5585Z" fill="#5B6071"/>
<path d="M8.38529 11.5585H10.0771C10.1587 11.5585 10.2249 11.4909 10.2249 11.4075V9.8665C10.2253 9.78308 10.1596 9.71511 10.078 9.71463C10.0783 9.71463 10.0777 9.71463 10.078 9.71463H8.38527C8.30367 9.71463 8.23755 9.78221 8.23755 9.86564V11.4075C8.23758 11.4909 8.30372 11.5585 8.38529 11.5585Z" fill="#5B6071"/>
<path d="M10.7244 11.5585H12.4162C12.498 11.5585 12.5643 11.491 12.5648 11.4075V9.8665C12.5648 9.7826 12.4983 9.71463 12.4162 9.71463H10.7244C10.6428 9.71463 10.5767 9.78221 10.5767 9.86564V11.4075C10.5767 11.4909 10.6428 11.5585 10.7244 11.5585Z" fill="#5B6071"/>
<path d="M6.01842 9.34165H7.71028C7.79198 9.34118 7.858 9.2733 7.858 9.18975V7.64882C7.858 7.56539 7.79185 7.49777 7.71028 7.49777H6.01842C5.93672 7.49777 5.87033 7.56525 5.86987 7.64882V9.18975C5.87033 9.27347 5.93656 9.34118 6.01842 9.34165Z" fill="#5B6071"/>
<path d="M8.38527 9.34165H10.0771C10.1588 9.34118 10.2248 9.2733 10.2248 9.18975V7.64882C10.2248 7.56539 10.1587 7.49777 10.0771 7.49777H8.38527C8.30367 7.49777 8.23755 7.56541 8.23755 7.64882V9.18975C8.23755 9.2733 8.30356 9.34118 8.38527 9.34165Z" fill="#5B6071"/>
<path d="M10.7244 9.34165H12.4162C12.4981 9.34118 12.5643 9.27347 12.5648 9.18975V7.64882C12.5643 7.56525 12.498 7.49777 12.4162 7.49777H10.7244C10.6428 7.49777 10.5767 7.56541 10.5767 7.64882V9.18975C10.5767 9.2733 10.6427 9.34118 10.7244 9.34165Z" fill="#5B6071"/>
<path d="M10.7244 7.12391H12.4162C12.498 7.12391 12.5643 7.0564 12.5648 6.97286V5.43105C12.5643 5.34747 12.498 5.28 12.4162 5.28H10.7244C10.6428 5.28 10.5767 5.34761 10.5767 5.43105V6.97283C10.5767 7.05627 10.6428 7.12391 10.7244 7.12391Z" fill="#5B6071"/>
<path d="M13.0838 11.5585H14.7756C14.8573 11.5585 14.9237 11.491 14.9242 11.4075V9.8665C14.9242 9.7826 14.8577 9.71463 14.7756 9.71463H13.0838C13.0022 9.71463 12.936 9.78221 12.936 9.86564V11.4075C12.936 11.4909 13.0022 11.5585 13.0838 11.5585Z" fill="#5B6071"/>
</svg>
