<svg width="24" height="25" viewBox="0 0 24 25" fill="none" xmlns="http://www.w3.org/2000/svg">
<path d="M19.4196 7.65841C18.6717 7.65841 17.9821 7.90609 17.4272 8.32343C17.2341 8.4687 16.9674 8.49216 16.7709 8.35147L13.5741 6.06233C13.421 5.95272 13.3584 5.76098 13.3584 5.57272V5.57272C13.3584 4.83932 12.7639 4.24469 12.0304 4.24469C11.297 4.24469 10.7024 4.83932 10.7024 5.57272C10.7024 6.30621 11.297 6.90075 12.0304 6.90075C12.1678 6.90075 12.3 6.87954 12.4244 6.84049C12.6185 6.77957 12.837 6.77869 13.0015 6.8984L16.8825 9.72271C17.1351 9.90653 17.4926 9.8125 17.6939 9.57361C18.1128 9.07639 18.7386 8.73439 19.4196 8.73439C20.6589 8.73439 21.6637 9.73906 21.6637 10.9784C21.6637 11.7976 21.2248 12.5142 20.5693 12.906C20.3383 13.0441 20.1921 13.3115 20.2682 13.5697L20.2915 13.6485C20.3709 13.9179 20.6591 14.0722 20.91 13.9459C21.9951 13.3998 22.7396 12.2761 22.7396 10.9784C22.7396 9.14485 21.2532 7.65841 19.4196 7.65841Z" fill="#5B6071"/>
<path d="M8.7751 4.4333C8.54941 5.14383 8.57645 5.87389 8.80529 6.5272C8.88518 6.75527 8.82679 7.01656 8.63322 7.16122L5.49259 9.50827C5.34227 9.62061 5.14064 9.62293 4.962 9.56546V9.56546C4.26476 9.34395 3.51994 9.72966 3.29852 10.4269C3.07701 11.1241 3.46272 11.869 4.15988 12.0904C4.85712 12.3119 5.60194 11.9263 5.82344 11.229C5.86378 11.102 5.88439 10.9701 5.88514 10.8381C5.88628 10.6342 5.95158 10.425 6.11585 10.3042L9.97013 7.46954C10.2218 7.28445 10.2404 6.91524 10.0738 6.65095C9.72826 6.1027 9.59247 5.40512 9.79789 4.75826C10.1722 3.58008 11.4307 2.92832 12.6089 3.30261C13.3872 3.54982 13.9358 4.18297 14.1106 4.92393C14.1724 5.18586 14.3831 5.40608 14.6521 5.4117L14.7315 5.41335C15.0124 5.41921 15.2466 5.19128 15.2021 4.91394C15.0103 3.71799 14.167 2.67147 12.9338 2.27974C11.1908 1.72605 9.32879 2.6902 8.7751 4.4333Z" fill="#5B6071"/>
<path d="M2.62485 13.4078C3.20478 13.8325 3.90391 14.0546 4.61535 14.047C4.8556 14.0445 5.08339 14.1817 5.15963 14.4096L6.3996 18.1153C6.45851 18.2913 6.39756 18.4814 6.28751 18.631V18.631C5.86044 19.2163 5.99267 20.0399 6.58286 20.4705C7.17304 20.9012 7.99764 20.7757 8.42472 20.1904C8.85187 19.6051 8.71964 18.7816 8.12946 18.3509C8.02143 18.272 7.9026 18.2104 7.77723 18.1676C7.58565 18.1022 7.40947 17.9749 7.34669 17.7824L5.86833 13.2497C5.77191 12.9541 5.42965 12.8204 5.12729 12.893C4.50099 13.0433 3.79895 12.9486 3.25136 12.5491C2.25416 11.8214 2.03073 10.4298 2.75239 9.44071C3.22841 8.78838 3.99661 8.47411 4.7506 8.54448C5.01946 8.56958 5.29628 8.43915 5.38671 8.18472L5.41012 8.11883C5.50388 7.85501 5.36266 7.56164 5.0866 7.51499C3.89551 7.31371 2.64216 7.77345 1.88658 8.80891C0.818903 10.2722 1.1494 12.3312 2.62485 13.4078Z" fill="#5B6071"/>
<path d="M19.6226 18.567C19.3954 17.8636 18.9521 17.2901 18.3894 16.8948C18.1909 16.7553 18.0861 16.5076 18.1604 16.2766L19.3545 12.5669C19.412 12.3885 19.5746 12.2697 19.7532 12.2127V12.2127C20.4484 11.9881 20.8309 11.2453 20.6075 10.5538C20.3841 9.86207 19.6393 9.4835 18.9441 9.70811C18.2489 9.93264 17.8664 10.6754 18.0898 11.3671C18.1302 11.4919 18.189 11.6094 18.2638 11.7157C18.3816 11.8832 18.4505 12.0924 18.3862 12.2869L16.8952 16.8C16.7969 17.0975 16.997 17.41 17.2871 17.5285C17.8836 17.772 18.3959 18.2563 18.6027 18.8965C18.9803 20.0652 18.334 21.3203 17.1592 21.6998C16.3836 21.9504 15.5715 21.7567 15.0005 21.2598C14.798 21.0834 14.4993 21.0267 14.2773 21.1778L14.2132 21.2215C13.9806 21.3799 13.9222 21.7024 14.1207 21.9019C14.969 22.755 16.2589 23.1113 17.4869 22.7145C19.225 22.153 20.1812 20.2961 19.6226 18.567Z" fill="#5B6071"/>
<path d="M9.33793 22.1195C9.9371 21.6811 10.3448 21.0786 10.5452 20.419C10.6155 20.1878 10.8169 20.0113 11.0585 20.0088L14.9643 19.969C15.1513 19.9671 15.3148 20.0838 15.4247 20.2352V20.2352C15.8552 20.8236 16.6811 20.9516 17.2695 20.5211C17.858 20.0906 17.9859 19.2647 17.5555 18.6763C17.125 18.0878 16.299 17.9598 15.7106 18.3903C15.6037 18.4686 15.5097 18.5622 15.4316 18.6676C15.3101 18.8313 15.1339 18.9616 14.93 18.9621L10.1652 18.9743C9.85285 18.9751 9.61986 19.2621 9.598 19.5737C9.55287 20.2173 9.25171 20.8573 8.70639 21.2563C7.71212 21.9838 6.31638 21.7675 5.58893 20.7732C5.10875 20.1168 5.03983 19.2855 5.33441 18.587C5.43898 18.3391 5.39902 18.037 5.18518 17.8736L5.12497 17.8276C4.90178 17.657 4.5781 17.7027 4.4504 17.9529C3.90189 19.0274 3.96478 20.3645 4.72573 21.4047C5.80196 22.8757 7.86693 23.1958 9.33793 22.1195Z" fill="#5B6071"/>
</svg>
