<svg width="24" height="25" viewBox="0 0 24 25" fill="none" xmlns="http://www.w3.org/2000/svg">
<path d="M18.846 8.13801H17.9235C17.7515 7.49001 17.3905 6.79702 16.8405 6.05902C16.2995 5.32102 15.7785 4.91501 15.2775 4.84101C15.0235 4.80801 14.72 4.78351 14.367 4.76751C14.023 4.75151 13.6295 4.74351 13.1865 4.74351H10.2585V11.756H12.264C12.871 11.756 13.3425 11.6945 13.6785 11.5715C14.0145 11.4405 14.3015 11.2435 14.5395 10.9805C14.7035 10.8005 14.851 10.5215 14.982 10.1435C15.122 9.75852 15.212 9.34852 15.252 8.91352H16.188V15.767H15.2535C15.2285 15.406 15.1425 14.996 14.9955 14.537C14.8555 14.077 14.7035 13.7445 14.5395 13.5395C14.2935 13.2365 13.982 13.0315 13.605 12.9245C13.235 12.8095 12.788 12.752 12.264 12.752H10.2585V18.767C10.2585 19.039 10.312 19.2815 10.419 19.4945C10.525 19.7075 10.7135 19.8795 10.9845 20.0105C11.1075 20.0685 11.374 20.1385 11.784 20.2205C12.194 20.3025 12.5055 20.3475 12.7185 20.3555V21.2285H5.1525V20.3555C5.3985 20.3395 5.7265 20.3145 6.1365 20.2805C6.5465 20.2405 6.813 20.1915 6.936 20.1335C7.182 20.0275 7.3585 19.872 7.4655 19.667C7.5805 19.453 7.638 19.1985 7.638 18.9035V6.30501C7.638 6.03501 7.593 5.79751 7.503 5.59251C7.413 5.37851 7.224 5.20601 6.936 5.07501C6.715 4.96901 6.416 4.87451 6.039 4.79151C5.669 4.70951 5.374 4.66051 5.154 4.64451V3.77151H18.846V8.13801Z" fill="#5B6071"/>
</svg>
