<svg width="24" height="25" viewBox="0 0 24 25" fill="none" xmlns="http://www.w3.org/2000/svg">
<path d="M8.87822 23.9067C9.015 23.8682 9.26685 23.8323 9.43779 23.8269L9.74866 23.8171V23.4113C9.74866 22.6367 9.24024 21.4205 8.64113 20.7622C8.54356 20.655 8.20302 20.4355 7.88444 20.2745C7.31957 19.989 7.28757 19.983 6.59951 20.0319C6.21146 20.0595 5.67005 20.1432 5.39649 20.2179C3.70445 20.6801 1.0905 19.4078 1.08677 18.1201C1.08544 17.6435 1.29352 17.4539 1.97436 17.3114C2.79414 17.1399 3.35735 16.8731 3.41911 16.6271C3.51345 16.2513 3.39482 15.0777 3.23201 14.776C3.11728 14.5632 3.07799 14.3126 3.07683 13.7864C3.07533 13.114 3.08959 13.059 3.38703 12.5844C3.55847 12.3108 3.87448 11.8692 4.08935 11.6032C4.4536 11.1521 4.48204 11.082 4.51064 10.567C4.5438 9.97053 4.31972 8.91415 4.01557 8.23223C3.67237 7.46269 3.72252 5.37779 4.12234 3.8009C4.53045 2.19101 5.34178 0.899453 5.84464 1.05912C6.01126 1.11192 6.02188 1.14019 6.5957 3.05655C6.76539 3.62325 6.78802 3.65334 7.2942 3.98617C8.13064 4.53612 8.89804 5.42794 9.67322 6.75117L9.88793 7.11775L10.7041 7.22087C12.0882 7.39562 13.7096 8.02341 14.5951 8.7273C14.7758 8.87096 14.981 8.97069 15.051 8.94897C15.1211 8.92725 15.6048 8.71603 16.1261 8.4796C17.2524 7.9687 18.3869 7.58761 19.9308 7.2018C21.5619 6.79411 22.472 6.62848 22.7283 6.69281C22.9508 6.74868 22.952 6.75283 22.9006 7.30576C22.8421 7.93429 22.4972 9.02267 22.1199 9.76917C21.5413 10.9138 20.1196 12.4892 18.7688 13.4825C18.1603 13.9301 18.1292 13.969 18.0791 14.3455C17.6605 17.4992 16.8095 19.2396 14.5995 21.462C13.5637 22.5035 13.4822 22.5658 12.567 23.0141C11.3197 23.6253 10.674 23.795 9.04385 23.9398C8.72096 23.9686 8.68432 23.9613 8.87806 23.9067L8.87822 23.9067ZM2.44672 19.4001C2.42765 19.3871 2.33754 19.3219 2.24635 19.255C2.09299 19.1425 2.08909 19.1442 2.19437 19.2784C2.25696 19.3582 2.34707 19.4235 2.39466 19.4235C2.44224 19.4235 2.4657 19.413 2.44672 19.4001Z" fill="#5B6071"/>
<path d="M8.87822 23.9067C9.015 23.8682 9.26684 23.8323 9.43778 23.8269L9.74865 23.8172L9.74765 23.4234C9.74649 22.9645 9.59927 22.366 9.34725 21.7965C9.21694 21.5018 9.20285 21.4214 9.29503 21.4978C9.53063 21.6935 9.51678 21.5088 9.26892 21.1495C8.98035 20.7312 8.55989 20.3784 7.9185 20.0164C7.66591 19.8738 7.37767 19.6634 7.27803 19.5489C7.1686 19.423 7.00877 19.3406 6.87415 19.3406C6.65786 19.3406 6.6616 19.3485 6.99791 19.607C7.18858 19.7536 7.3446 19.8973 7.3446 19.9263C7.3446 19.9553 7.01814 20.0024 6.61923 20.0308C6.22024 20.059 5.67005 20.1433 5.39648 20.218C3.70444 20.6801 1.09049 19.4078 1.08676 18.1201C1.08535 17.6435 1.29351 17.454 1.97435 17.3115C2.79687 17.1394 3.35735 16.8733 3.4196 16.6253C3.51875 16.2301 3.3852 15.0071 3.19661 14.5837C3.05477 14.2652 3.02302 14.0622 3.04764 13.6303C3.08221 13.0229 3.3256 12.5492 4.08934 11.6032C4.45351 11.152 4.48203 11.0821 4.51063 10.5669C4.54371 9.97055 4.31972 8.91409 4.01556 8.23217C3.67236 7.46271 3.72252 5.37773 4.12233 3.80084C4.53044 2.19103 5.34177 0.899391 5.84463 1.05905C6.01126 1.11194 6.02187 1.14021 6.59569 3.05649C6.76538 3.62327 6.78802 3.65336 7.29419 3.98611C8.13064 4.53614 8.89803 5.42788 9.67321 6.75111L9.88792 7.11777L10.7041 7.22089C12.0882 7.39564 13.7096 8.02343 14.5951 8.72732C14.7758 8.87098 14.9809 8.97071 15.051 8.94899C15.121 8.92727 15.6048 8.71605 16.1261 8.47962C17.2524 7.96872 18.3869 7.58763 19.9308 7.20183C21.5619 6.79413 22.472 6.6285 22.7283 6.69283C22.9508 6.7487 22.9519 6.75285 22.9006 7.30578C22.8421 7.93432 22.4972 9.02269 22.1199 9.76919C21.5413 10.9138 20.1196 12.4893 18.7688 13.4825C18.1602 13.9301 18.1292 13.969 18.0791 14.3455C17.6605 17.4992 16.8095 19.2396 14.5994 21.462C13.5637 22.5035 13.4821 22.5658 12.567 23.0141C11.3197 23.6252 10.674 23.795 9.04385 23.9398C8.72096 23.9686 8.68432 23.9612 8.87805 23.9068L8.87822 23.9067ZM11.1572 22.4861C12.3743 22.0167 13.5249 21.0989 14.2587 20.0122C15.1242 18.7306 15.7493 16.7688 15.9738 14.6304L16.081 13.6092L16.6462 13.1082C17.2566 12.567 17.9461 11.5959 18.4158 10.6158C18.7765 9.86311 18.7855 9.60613 18.4571 9.43643C17.9393 9.16867 16.2627 9.35171 14.7561 9.84048C13.718 10.1773 13.5754 10.1924 13.1844 10.0069L12.9061 9.8748L12.3014 10.2757C11.9688 10.4962 11.2889 11.0779 10.7904 11.5683C9.89538 12.4489 9.66575 12.6008 9.66575 12.3128C9.66575 12.1077 10.8124 10.8452 11.6364 10.143C12.1757 9.68347 12.3793 9.55838 12.5897 9.55738C12.7837 9.55647 12.8243 9.53525 12.7375 9.48029C12.6716 9.43859 12.446 9.42475 12.2363 9.44962C11.9147 9.48775 11.7643 9.44986 11.2784 9.20896C10.9613 9.0517 10.3101 8.75857 9.83146 8.55755C9.04302 8.22637 8.89778 8.12946 8.2898 7.5282C7.92057 7.16311 7.38397 6.51004 7.09723 6.07689C6.48767 5.15589 6.30662 4.94284 5.99816 4.78235C5.46148 4.50307 5.09125 4.94525 4.81379 6.19726C4.64343 6.96556 4.68289 8.55191 4.90042 9.68123C5.10103 10.7231 4.98995 11.1726 4.31574 12.0455C3.57288 13.0075 3.45492 13.6191 3.81263 14.6549C4.08014 15.4295 4.20266 16.2368 4.09589 16.5221C3.90912 17.0213 3.11479 17.5998 2.61599 17.5998C2.3731 17.5998 2.36066 17.6145 2.41081 17.8429C2.47431 18.1318 2.21783 18.9261 2.06098 18.9261C1.90339 18.9261 1.93448 19.0653 2.13368 19.2509C2.4172 19.5151 3.01854 19.7621 3.47888 19.8035C3.8438 19.8365 3.8748 19.8287 3.6969 19.7486C3.5447 19.6798 3.39272 19.6105 3.24096 19.5407L2.99226 19.426L3.32386 19.487C3.8753 19.5883 5.0285 19.5436 5.66143 19.3964C5.98954 19.3202 6.4638 19.2577 6.71523 19.2577C7.57928 19.2577 8.70869 19.8439 9.3708 20.6361C9.70546 21.0365 10.2431 22.156 10.2449 22.4562C10.247 22.8091 10.3135 22.8113 11.157 22.4861H11.1572ZM10.7021 19.0532C7.97446 18.5743 7.64693 18.5076 7.52473 18.4062C7.29759 18.2177 7.73679 18.2172 10.0669 18.4035C11.3278 18.5043 12.3818 18.5605 12.409 18.5285C12.4363 18.4964 12.4986 18.0661 12.5473 17.5722C12.5961 17.0783 12.6585 16.6519 12.6859 16.6245C12.8226 16.4878 12.9081 16.8416 12.9901 17.8837C13.0915 19.1705 13.0714 19.2369 12.5616 19.2965C12.405 19.3148 11.5684 19.2053 10.7021 19.0532ZM6.4638 16.6711C6.39673 16.5626 6.62902 16.3738 7.37502 15.93C8.15277 15.4675 9.10204 15.1357 9.98284 15.0184C11.0557 14.8756 11.3522 15.0536 10.4724 15.3125C10.136 15.4115 9.99237 15.5088 9.83171 15.7467C9.5671 16.1388 9.06449 16.5029 8.69186 16.5729C8.5317 16.6029 8.15111 16.5804 7.84605 16.5228C7.33498 16.4264 7.26128 16.4317 6.90515 16.5892C6.64543 16.7041 6.50077 16.7309 6.46388 16.6712L6.4638 16.6711ZM4.94402 15.0513C4.61409 14.5831 4.53749 14.118 4.71895 13.6837C4.80633 13.4746 4.83186 13.238 4.80011 12.9308C4.75054 12.4502 4.84919 12.2811 5.07152 12.4656C5.13958 12.5221 5.32842 12.8063 5.49107 13.0973C5.83899 13.7195 5.88774 14.2997 5.65164 15.0103C5.46844 15.5618 5.31035 15.5709 4.94402 15.0513Z" fill="#5B6071"/>
<path d="M8.87822 23.9067C9.015 23.8682 9.26684 23.8323 9.43778 23.8269C9.62555 23.821 9.74898 23.776 9.74948 23.7135C9.74981 23.6552 10.1754 23.4681 10.7235 23.2855C11.9546 22.8753 12.7415 22.5134 13.4551 22.0294C15.7759 20.4551 17.2893 17.5213 17.2917 14.5909C17.2926 13.7546 17.3174 13.7149 18.1593 13.2061C18.8357 12.7973 20.6083 11.0143 20.6083 10.7427C20.6083 10.6998 20.7249 10.4887 20.8674 10.2736C21.1866 9.79173 21.6977 8.40758 21.747 7.89162C21.7818 7.52678 21.7728 7.50763 21.5482 7.46469C20.7214 7.30677 18.3264 7.91184 16.2147 8.81212C14.6672 9.47191 14.7217 9.46644 13.9665 9.03545C12.7218 8.32518 11.4411 7.82629 10.3133 7.61233C9.94073 7.5417 9.63044 7.47505 9.62381 7.46419C9.52648 7.30702 8.55649 6.02392 8.32421 5.74513C8.15319 5.53995 7.73405 5.13135 7.39276 4.83698C6.72883 4.26456 6.47085 3.87336 6.19098 3.01487C5.97926 2.36544 5.81189 2.09635 5.62247 2.10133C5.54371 2.1034 5.32279 2.28429 5.13146 2.50322C4.74101 2.95013 4.52215 3.62384 4.35155 4.90321C4.2175 5.90877 4.30413 8.10864 4.52663 9.35121C4.77698 10.7491 4.66424 11.2403 3.93722 11.9211L3.58308 12.2527L3.93059 11.8263C4.42997 11.2134 4.52497 10.9903 4.5253 10.429C4.52564 9.90862 4.20946 8.57909 3.97983 8.13509C3.79696 7.78153 3.72923 6.17114 3.85665 5.20629C4.1574 2.92874 5.15807 0.84119 5.84455 1.05896C6.01118 1.11194 6.02187 1.14012 6.59561 3.05648C6.76538 3.62318 6.78793 3.65327 7.29419 3.98611C8.13064 4.53605 8.89803 5.42788 9.67321 6.7511L9.88792 7.11768L10.7008 7.22039C12.1064 7.39787 13.7896 8.06711 14.7397 8.82613L14.9643 9.00561L15.7162 8.65627C16.1297 8.46411 16.7933 8.18143 17.1909 8.02807C18.7092 7.44239 22.2784 6.57983 22.7223 6.69133C22.952 6.74894 22.9523 6.74961 22.9006 7.30577C22.8422 7.93423 22.4973 9.0226 22.1199 9.76918C21.5414 10.9138 20.1196 12.4892 18.7688 13.4825C18.1603 13.93 18.1292 13.9689 18.0792 14.3455C17.6606 17.4992 16.8095 19.2396 14.5994 21.462C13.5637 22.5035 13.4821 22.5658 12.567 23.0141C11.3197 23.6252 10.674 23.7949 9.04385 23.9398C8.72096 23.9685 8.68432 23.9612 8.87805 23.9067H8.87822ZM3.61417 20.2022C2.95339 20.025 1.96308 19.5133 1.62303 19.1733C1.04374 18.594 0.901318 17.9127 1.28663 17.564C1.37251 17.4863 1.68802 17.3714 1.9877 17.3087C2.6901 17.1617 3.17166 16.9445 3.51933 16.6178C3.67236 16.4739 3.84952 16.3562 3.9131 16.3562C4.31565 16.3562 3.41521 17.2849 2.86808 17.4341C2.66291 17.49 2.44878 17.5488 2.39233 17.5648C2.31706 17.5861 2.31134 17.651 2.37102 17.8079C2.46644 18.0589 2.30653 18.5167 2.01439 18.8287L1.83185 19.0237L2.08055 19.2254C2.96416 19.9422 3.97229 20.0796 5.64742 19.7115C6.67901 19.4849 6.70802 19.483 6.97703 19.6279C7.4701 19.8934 7.39566 19.9755 6.61211 20.0309C6.2171 20.0589 5.6887 20.1384 5.43793 20.2075C4.87174 20.3638 4.20979 20.3619 3.61417 20.2022ZM11.904 19.1277C11.8356 19.1125 10.9488 18.9661 9.93326 18.8025C7.97114 18.4863 7.81795 18.4517 7.88667 18.3404C7.93276 18.2659 7.96982 18.2677 10.6496 18.4743C11.5783 18.546 12.3847 18.5868 12.4414 18.565C12.5086 18.5393 12.5655 18.2334 12.6039 17.6904C12.6616 16.8767 12.7661 16.5702 12.8549 16.9539C12.8791 17.0584 12.9339 17.5328 12.9767 18.0083C13.075 19.1011 13.0407 19.178 12.4606 19.1652C12.2228 19.1599 11.9723 19.1431 11.9039 19.1277H11.904ZM6.87664 16.325C7.66027 15.6101 9.51015 14.9633 10.6032 15.0218C10.8138 15.0331 10.707 15.1662 10.4333 15.2335C10.3076 15.2645 9.97836 15.5265 9.7019 15.8157C9.0746 16.4718 8.74417 16.5875 7.94876 16.4294C7.51719 16.3436 7.36748 16.3438 7.15294 16.43C6.60498 16.6502 6.54496 16.6274 6.87664 16.325ZM4.99559 14.8876C4.66258 14.3629 4.62611 14.1041 4.81984 13.6405C4.91169 13.4206 4.93209 13.2088 4.89213 12.889C4.84206 12.4878 4.85143 12.4466 4.9868 12.4727C5.06945 12.4886 5.26841 12.7254 5.42898 12.9989C5.79506 13.6225 5.86478 14.2757 5.63175 14.8986C5.54794 15.1228 5.43885 15.3197 5.38935 15.3361C5.33978 15.3527 5.16263 15.1508 4.99559 14.8876ZM9.74865 12.2556C9.74865 12.0944 10.7754 10.9369 11.3744 10.4229C12.1085 9.79289 12.3347 9.64144 12.5418 9.64144C12.8792 9.64144 12.7495 9.86385 12.1734 10.2728C11.8656 10.4912 11.2248 11.0541 10.7492 11.5236C10.2736 11.993 9.85393 12.3771 9.81663 12.3771C9.77932 12.3771 9.74865 12.3224 9.74865 12.2556Z" fill="#5B6071"/>
</svg>
