<svg width="24" height="25" viewBox="0 0 24 25" fill="none" xmlns="http://www.w3.org/2000/svg">
<path d="M14.7481 8.80527H15.371L17.1462 7.02999L17.2335 6.27628C16.2165 5.37865 14.9874 4.7551 13.6624 4.46452C12.3375 4.17395 10.9603 4.22595 9.66097 4.61561C8.36167 5.00528 7.18316 5.71974 6.23675 6.69151C5.29035 7.66328 4.6073 8.86028 4.25214 10.1694C4.44991 10.0884 4.66899 10.0752 4.87504 10.1321L8.42559 9.54653C8.42559 9.54653 8.60624 9.24753 8.69967 9.26621C9.46044 8.43069 10.5118 7.91756 11.6385 7.83187C12.7653 7.74618 13.8821 8.09441 14.7605 8.80527H14.7481Z" fill="#5B6071"/>
<path d="M19.6752 10.1694C19.2672 8.66676 18.4294 7.31586 17.2646 6.2825L14.773 8.77412C15.2923 9.19842 15.7084 9.7351 15.99 10.3437C16.2717 10.9523 16.4114 11.6168 16.3988 12.2873V12.7296C16.9869 12.7296 17.5509 12.9632 17.9668 13.3791C18.3827 13.7949 18.6163 14.359 18.6163 14.9471C18.6163 15.5352 18.3827 16.0993 17.9668 16.5151C17.5509 16.931 16.9869 17.1646 16.3988 17.1646H11.9637L11.5214 17.6131V20.2729L11.9637 20.7152H16.3988C17.6372 20.7248 18.8459 20.3356 19.846 19.605C20.8462 18.8745 21.5846 17.8414 21.952 16.6587C22.3195 15.4759 22.2965 14.2063 21.8865 13.0376C21.4764 11.869 20.7011 10.8633 19.6752 10.1694Z" fill="#5B6071"/>
<path d="M7.52238 20.6903H11.9575V17.1397H7.52238C7.2064 17.1397 6.89412 17.0717 6.60671 16.9404L5.9838 17.1335L4.19607 18.9088L4.04034 19.5317C5.04287 20.2887 6.26615 20.6957 7.52238 20.6903Z" fill="#5B6071"/>
<path d="M7.52239 9.1728C6.3207 9.17998 5.15125 9.56231 4.17739 10.2664C3.20353 10.9704 2.47389 11.9611 2.09038 13.1C1.70687 14.2388 1.68864 15.4691 2.03823 16.6188C2.38783 17.7685 3.08779 18.7804 4.04036 19.513L6.61295 16.9404C6.28603 16.7927 5.99982 16.5679 5.77889 16.2853C5.55795 16.0026 5.40888 15.6706 5.34447 15.3177C5.28006 14.9648 5.30223 14.6015 5.40908 14.2591C5.51593 13.9166 5.70427 13.6052 5.95794 13.3515C6.2116 13.0978 6.52303 12.9095 6.86548 12.8027C7.20794 12.6958 7.57121 12.6736 7.92412 12.7381C8.27703 12.8025 8.60905 12.9515 8.89168 13.1725C9.17432 13.3934 9.39913 13.6796 9.54683 14.0065L12.1194 11.4339C11.5795 10.728 10.8835 10.1566 10.086 9.76435C9.28855 9.37209 8.41113 9.16963 7.52239 9.1728Z" fill="#5B6071"/>
</svg>
