<svg width="24" height="25" viewBox="0 0 24 25" fill="none" xmlns="http://www.w3.org/2000/svg">
<path fill-rule="evenodd" clip-rule="evenodd" d="M11.5 2.7467C6.2052 2.7467 1.91666 7.2217 1.91666 12.7467C1.91666 17.1717 4.65989 20.9092 8.46926 22.2342C8.94843 22.3217 9.12811 22.0217 9.12811 21.7592C9.12811 21.5217 9.11614 20.7342 9.11614 19.8967C6.70832 20.3592 6.08541 19.2842 5.89374 18.7217C5.78593 18.4342 5.31874 17.5467 4.91145 17.3092C4.57603 17.1217 4.09686 16.6592 4.89947 16.6467C5.65416 16.6342 6.19322 17.3717 6.37291 17.6717C7.23541 19.1842 8.61301 18.7592 9.16405 18.4967C9.24791 17.8467 9.49947 17.4092 9.77499 17.1592C7.6427 16.9092 5.41457 16.0467 5.41457 12.2217C5.41457 11.1342 5.78593 10.2342 6.39686 9.5342C6.30103 9.2842 5.96561 8.2592 6.4927 6.8842C6.4927 6.8842 7.2953 6.6217 9.12811 7.9092C9.89478 7.6842 10.7094 7.5717 11.5239 7.5717C12.3385 7.5717 13.1531 7.6842 13.9198 7.9092C15.7526 6.6092 16.5552 6.8842 16.5552 6.8842C17.0823 8.2592 16.7469 9.2842 16.651 9.5342C17.262 10.2342 17.6333 11.1217 17.6333 12.2217C17.6333 16.0592 15.3932 16.9092 13.2609 17.1592C13.6083 17.4717 13.9078 18.0717 13.9078 19.0092C13.9078 20.3467 13.8958 21.4217 13.8958 21.7592C13.8958 22.0217 14.0755 22.3342 14.5547 22.2342C16.4571 21.564 18.1103 20.2882 19.2815 18.5862C20.4526 16.8843 21.0828 14.842 21.0833 12.7467C21.0833 7.2217 16.7948 2.7467 11.5 2.7467Z" fill="#5B6071"/>
</svg>
