<svg width="24" height="25" viewBox="0 0 24 25" fill="none" xmlns="http://www.w3.org/2000/svg">
<mask id="mask0_3475_10525" style="mask-type:luminance" maskUnits="userSpaceOnUse" x="2" y="2" width="20" height="21">
<path d="M2.13501 2.63501H21.8661V22.3661H2.13501V2.63501Z" fill="white"/>
</mask>
<g mask="url(#mask0_3475_10525)">
<path fill-rule="evenodd" clip-rule="evenodd" d="M13.7024 3.61745C13.8301 3.83978 13.9126 4.08519 13.9451 4.33955C13.9776 4.5939 13.9594 4.85216 13.8916 5.09946C13.8238 5.34676 13.7078 5.5782 13.5501 5.78044C13.3925 5.98269 13.1964 6.15174 12.9732 6.27786L7.12782 9.59926C7.05217 9.64217 6.98921 9.70431 6.94532 9.77938C6.90143 9.85446 6.87817 9.93981 6.87789 10.0268V15.2415C6.87817 15.3285 6.90143 15.4139 6.94532 15.4889C6.98921 15.564 7.05217 15.6261 7.12782 15.6691L11.7548 18.299C11.8297 18.3416 11.9144 18.364 12.0006 18.364C12.0868 18.364 12.1715 18.3416 12.2464 18.299L16.8733 15.6699C16.9491 15.6269 17.0122 15.5646 17.0561 15.4894C17.1 15.4142 17.1231 15.3286 17.1233 15.2415V11.9991L12.9633 14.3323C12.5107 14.5863 11.9759 14.6511 11.4757 14.5125C10.9755 14.3739 10.5504 14.0431 10.293 13.5923C10.1666 13.3693 10.0856 13.1235 10.0546 12.8691C10.0237 12.6147 10.0433 12.3566 10.1125 12.1098C10.1816 11.863 10.2989 11.6323 10.4576 11.431C10.6163 11.2297 10.8132 11.0617 11.037 10.9369L16.9884 7.59738C18.8012 6.58123 21.044 7.88266 21.044 9.95278V15.637C21.0433 16.2923 20.8689 16.9357 20.5386 17.5016C20.2083 18.0676 19.734 18.5359 19.1638 18.8589L13.852 21.877C13.2876 22.1975 12.6497 22.366 12.0006 22.366C11.3515 22.366 10.7135 22.1975 10.1491 21.877L4.83736 18.8589C4.26715 18.536 3.79273 18.0677 3.46245 17.5017C3.13216 16.9357 2.95781 16.2923 2.95715 15.637V9.63133C2.95715 8.29948 3.67487 7.07039 4.83736 6.41022L11.028 2.89151C11.4793 2.63502 12.0138 2.56739 12.5148 2.70338C13.0158 2.83938 13.4427 3.16795 13.7024 3.61745Z" fill="#5B6071"/>
</g>
</svg>
