<svg width="24" height="25" viewBox="0 0 24 25" fill="none" xmlns="http://www.w3.org/2000/svg">
<g clip-path="url(#clip0_3475_9351)">
<g clip-path="url(#clip1_3475_9351)">
<path fill-rule="evenodd" clip-rule="evenodd" d="M1.47761 10.2942C1.43317 10.2942 1.42206 10.271 1.44428 10.2362L1.67761 9.92314C1.69983 9.88836 1.75539 9.86517 1.79983 9.86517H5.7665C5.81094 9.86517 5.82206 9.89996 5.79983 9.93474L5.61094 10.2362C5.58872 10.271 5.53317 10.3058 5.49983 10.3058L1.47761 10.2942Z" fill="#5B6071"/>
<path fill-rule="evenodd" clip-rule="evenodd" d="M-0.200184 11.3609C-0.244629 11.3609 -0.25574 11.3377 -0.233518 11.3029L-0.000184438 10.9899C0.0220378 10.9551 0.0775933 10.9319 0.122038 10.9319H5.1887C5.23315 10.9319 5.25537 10.9667 5.24426 11.0015L5.15537 11.2797C5.14426 11.3261 5.09982 11.3493 5.05537 11.3493L-0.200184 11.3609Z" fill="#5B6071"/>
<path fill-rule="evenodd" clip-rule="evenodd" d="M2.48872 12.4275C2.44427 12.4275 2.43316 12.3927 2.45539 12.358L2.61094 12.0681C2.63316 12.0333 2.67761 11.9985 2.72205 11.9985H4.94427C4.98872 11.9985 5.01094 12.0333 5.01094 12.0797L4.98872 12.358C4.98872 12.4043 4.94427 12.4391 4.91094 12.4391L2.48872 12.4275Z" fill="#5B6071"/>
<path fill-rule="evenodd" clip-rule="evenodd" d="M14.022 10.0855C13.322 10.271 12.8442 10.4101 12.1553 10.5956C11.9887 10.642 11.9776 10.6536 11.8331 10.4797C11.6665 10.2826 11.5442 10.155 11.3109 10.0391C10.6109 9.67968 9.93312 9.78403 9.29979 10.213C8.54424 10.7232 8.15535 11.4768 8.16646 12.4159C8.17757 13.3435 8.78868 14.1087 9.66646 14.2362C10.422 14.3406 11.0553 14.0623 11.5553 13.471C11.6553 13.3435 11.7442 13.2043 11.8553 13.042C11.4553 13.042 10.9553 13.042 9.7109 13.042C9.47757 13.042 9.42201 12.8913 9.49979 12.6942C9.64424 12.3348 9.9109 11.7319 10.0665 11.4304C10.0998 11.3608 10.1776 11.2449 10.3442 11.2449H14.3887C14.3665 11.5579 14.3665 11.871 14.322 12.184C14.1998 13.0188 13.8998 13.784 13.4109 14.4565C12.6109 15.5579 11.5665 16.242 10.2442 16.4275C9.15535 16.5782 8.14424 16.3579 7.25535 15.6623C6.43312 15.013 5.96646 14.155 5.84424 13.0884C5.69979 11.8246 6.05535 10.6884 6.78868 9.69128C7.57757 8.61302 8.62201 7.92896 9.89979 7.68548C10.9442 7.48838 11.9442 7.61592 12.8442 8.2536C13.4331 8.65939 13.8553 9.21592 14.1331 9.88838C14.1998 9.99273 14.1553 10.0507 14.022 10.0855V10.0855Z" fill="#5B6071"/>
<path d="M17.6998 16.4971C16.6887 16.4739 15.7665 16.1724 14.9887 15.4768C14.3331 14.8855 13.922 14.1319 13.7887 13.2391C13.5887 11.929 13.9331 10.7695 14.6887 9.73766C15.4998 8.62461 16.4776 8.0449 17.7998 7.80142C18.9331 7.59273 19.9998 7.70867 20.9665 8.39273C21.8442 9.01881 22.3887 9.86519 22.5331 10.9782C22.722 12.5435 22.2887 13.8188 21.2554 14.9087C20.522 15.6855 19.622 16.1724 18.5887 16.3927C18.2887 16.4507 17.9887 16.4623 17.6998 16.4971V16.4971ZM20.3442 11.813C20.3331 11.6623 20.3331 11.5464 20.3109 11.4304C20.1109 10.2826 19.0998 9.63331 18.0442 9.88838C17.0109 10.1319 16.3442 10.8159 16.0998 11.9058C15.8998 12.8101 16.322 13.7261 17.122 14.0971C17.7331 14.3753 18.3442 14.3406 18.9331 14.0275C19.8109 13.5521 20.2887 12.8101 20.3442 11.813V11.813Z" fill="#5B6071"/>
</g>
</g>
<defs>
<clipPath id="clip0_3475_9351">
<rect width="24" height="24" fill="white" transform="translate(0 0.5)"/>
</clipPath>
<clipPath id="clip1_3475_9351">
<rect width="23" height="9.04348" fill="white" transform="translate(-0.322388 7.5)"/>
</clipPath>
</defs>
</svg>
