<svg width="24" height="25" viewBox="0 0 24 25" fill="none" xmlns="http://www.w3.org/2000/svg">
<path d="M9.97713 3.12384C9.068 3.32555 8.17023 3.60682 7.32787 4.03155C7.34775 4.7759 7.39463 5.489 7.49265 6.21204C7.16593 6.42086 6.82074 6.60126 6.51533 6.84701C6.20424 7.08566 5.88746 7.31436 5.6062 7.5942C5.03777 7.21592 4.4472 6.87201 3.83766 6.56433C3.17854 7.27458 2.56062 8.04166 2.05634 8.89965C2.43561 9.51332 2.83194 10.0886 3.25951 10.6341H3.27088V15.9014L3.29929 15.9028L6.52812 16.2139C6.61015 16.2218 6.68673 16.2585 6.74422 16.3175C6.8017 16.3766 6.83637 16.4541 6.84205 16.5363L6.94149 17.9611L9.75837 18.1614L9.95298 16.846C9.96523 16.7636 10.0067 16.6882 10.0697 16.6338C10.1328 16.5793 10.2134 16.5492 10.2967 16.5491H13.7031C13.875 16.5491 14.0213 16.6756 14.0469 16.846L14.2415 18.1614L17.0584 17.9611L17.1578 16.5363C17.1638 16.4542 17.1985 16.3768 17.256 16.3179C17.3134 16.2589 17.3898 16.222 17.4718 16.2139L20.6992 15.9028L20.7276 15.9014V15.4809H20.729V10.6355H20.7404C21.1679 10.09 21.5643 9.51474 21.9435 8.90107C21.4361 8.06043 20.8388 7.27739 20.1622 6.56575C19.55 6.874 18.9548 7.22345 18.3937 7.5942C18.1124 7.31436 17.7956 7.08566 17.4845 6.84701C17.1791 6.60126 16.8354 6.42228 16.5087 6.21204C16.6052 5.48758 16.6535 4.77448 16.6734 4.03155C15.8311 3.60682 14.9319 3.32697 14.0228 3.12384C13.6591 3.73324 13.3281 4.39378 13.0383 5.04011C12.6972 4.98582 12.3524 4.95827 12.007 4.95773H11.9928C11.6474 4.95821 11.3026 4.98576 10.9615 5.04011C10.6718 4.39378 10.3408 3.73324 9.97713 3.12384ZM7.42304 10.8287C7.68293 10.8216 7.94162 10.8666 8.18382 10.9611C8.42602 11.0557 8.64683 11.1978 8.8332 11.379C9.01958 11.5603 9.16774 11.7771 9.26894 12.0166C9.37014 12.2561 9.42233 12.5134 9.42243 12.7734C9.42252 13.0334 9.37052 13.2907 9.26949 13.5303C9.16847 13.7699 9.02046 13.9867 8.83422 14.1682C8.64798 14.3496 8.42728 14.4918 8.18514 14.5865C7.94301 14.6812 7.68436 14.7264 7.42446 14.7195C6.91761 14.706 6.43603 14.4952 6.08225 14.132C5.72846 13.7688 5.5304 13.2818 5.53021 12.7748C5.53003 12.2678 5.72774 11.7807 6.08126 11.4172C6.43478 11.0537 6.91619 10.8426 7.42304 10.8287ZM16.5768 10.8287C17.093 10.8287 17.588 11.0337 17.9529 11.3987C18.3179 11.7637 18.5229 12.2587 18.5229 12.7748C18.5229 13.291 18.3179 13.786 17.9529 14.1509C17.588 14.5159 17.093 14.7209 16.5768 14.7209C16.0607 14.7209 15.5657 14.5159 15.2007 14.1509C14.8358 13.786 14.6307 13.291 14.6307 12.7748C14.6307 12.2587 14.8358 11.7637 15.2007 11.3987C15.5657 11.0337 16.0607 10.8287 16.5768 10.8287ZM11.9999 11.9665C12.3465 11.9665 12.6264 12.2222 12.6264 12.5362V14.3274C12.6264 14.6414 12.3451 14.8971 11.9999 14.8971C11.6533 14.8971 11.3735 14.6428 11.3735 14.3274V12.5362C11.3735 12.2208 11.6533 11.9665 11.9999 11.9665Z" fill="#5B6071"/>
<path d="M17.8297 16.8787L17.7303 18.312C17.7247 18.3956 17.6889 18.4744 17.6296 18.5337C17.5703 18.593 17.4915 18.6288 17.4078 18.6344L13.9688 18.8788L13.9432 18.8802C13.8599 18.8801 13.7793 18.85 13.7162 18.7955C13.6531 18.7411 13.6117 18.6657 13.5994 18.5833L13.4034 17.2452H10.5965L10.399 18.5833C10.3863 18.6702 10.3411 18.749 10.2726 18.8038C10.204 18.8587 10.1172 18.8854 10.0297 18.8788L6.59062 18.633C6.50717 18.6268 6.42872 18.5908 6.36955 18.5316C6.31037 18.4725 6.2744 18.394 6.26817 18.3106L6.16873 16.8773L3.2652 16.5974L3.27088 17.319C3.27088 20.3859 7.16025 21.859 11.9928 21.876H12.0042C16.8368 21.859 20.7262 20.3859 20.7262 17.319L20.7319 16.5974L17.8297 16.8787Z" fill="#5B6071"/>
</svg>
