<svg width="24" height="24" viewBox="0 0 24 24" fill="none" xmlns="http://www.w3.org/2000/svg">
<path d="M4.88361 6.33763C4.88361 6.33763 5.26105 7.79307 5.31481 8.27835C5.36881 8.76347 4.34457 9.84155 4.34457 10.3807C4.34457 10.9199 4.55985 11.8903 5.74601 12.3755C6.93217 12.8607 7.09377 14.1005 7.09377 14.8555C7.09377 15.6101 6.66257 17.0655 6.66257 17.0655C6.66257 17.0655 6.39313 20.6774 7.84857 21.3243C9.30393 21.9711 8.98065 21.9711 9.30393 21.9711C9.62689 21.9711 11.999 22.942 13.4007 22.5644C14.8026 22.1875 15.1795 21.756 15.1795 21.756C15.1795 21.756 16.5813 21.8639 17.0121 20.6239C17.4436 19.3846 17.7127 16.7967 17.5509 15.6107C17.3891 14.4247 17.1733 12.8618 18.1435 12.3223C19.1139 11.7836 20.138 11.1363 19.9762 10.5975C19.8143 10.0587 18.952 9.30379 18.952 9.30379C18.952 9.30379 18.7363 7.95659 18.8974 7.63299C19.0592 7.30995 20.0295 6.50083 19.4901 5.90819C18.9514 5.31547 17.9804 5.31547 17.9804 5.31547L16.7411 5.42267C16.7411 5.42267 14.6395 3.53547 11.8899 3.64331C9.14217 3.75115 7.41673 5.42203 7.41673 5.42203C7.41673 5.42203 6.50041 5.09851 5.69177 5.42203C4.88265 5.74563 4.72153 5.42203 4.88329 6.33835L4.88361 6.33763Z" fill="#5B6071"/>
<path d="M9.80987 14.3642C9.80987 14.3642 8.74227 15.9965 7.95923 17.1549C7.83811 17.3341 8.74227 17.3465 8.74227 17.3465L9.80995 14.3641L9.80987 14.3642ZM10.3181 10.9799C10.3181 10.9799 9.99635 11.7827 9.82003 12.2083C9.62867 12.671 8.89915 12.9011 8.89915 12.9011C8.89915 12.9011 9.27739 12.5045 9.27739 11.4996C9.27739 11.0786 9.82155 10.9109 9.82155 10.9109L10.3182 10.9806L10.3181 10.9799Z" fill="#5B6071"/>
<path d="M9.99274 11.4336C9.99274 11.4336 9.33338 12.2184 8.10922 11.779C6.88474 11.3395 6.7593 9.76961 6.7593 9.33009C6.7593 8.89057 9.0825 9.76961 9.39642 9.95801C9.71034 10.1464 10.3067 10.8998 9.99274 11.4336ZM5.36834 3.04721C5.36834 3.04721 6.49842 2.82721 7.25186 3.42377C8.00562 4.02025 8.22506 4.49129 8.22506 4.49129L6.95514 5.49793C6.95514 5.49793 6.34154 5.21337 6.15306 4.39705C5.96482 3.58081 6.0905 3.20417 5.36834 3.04721Z" fill="#5B6071"/>
<path d="M9.66321 9.16682C9.17649 8.4761 8.37465 8.17482 7.73441 8.12482C6.64273 8.03954 6.12441 8.42546 6.12441 8.42546C6.12441 8.42546 7.91233 8.50114 8.42761 9.17802C9.38697 10.4377 10.7866 10.54 11.0103 10.2634C10.7515 10.2763 10.4669 10.148 10.1622 9.85994C9.97177 9.6797 9.81745 9.38602 9.66305 9.16682H9.66321ZM6.64481 11.6091C6.64481 11.6091 4.66121 10.9271 5.03809 10.2366C5.41489 9.54578 5.11505 9.16938 5.11505 9.16938C5.11505 9.16938 4.00729 9.99634 4.28945 10.8753C4.46305 11.4147 4.75409 11.8054 6.35209 12.554C7.11849 13.9775 6.51033 16.5403 6.54681 16.5522C6.60753 16.5719 7.62297 16.0503 7.55361 13.6525C7.53257 12.9158 7.47401 11.9113 6.64521 11.6081L6.64481 11.6091ZM9.24441 4.27578C8.41257 4.69842 7.27305 5.28682 7.27305 5.28682L7.72153 5.51114C7.67881 5.58058 7.65809 5.62194 7.65809 5.62194L8.11793 5.83122C8.11793 5.83122 9.24145 6.6453 9.93017 7.16858C9.70057 6.46178 9.02633 5.35122 9.02633 5.35122C9.02633 5.35122 8.83489 4.84098 9.24337 4.2757L9.24441 4.27578ZM12.0076 21.5011C9.45097 21.5011 8.58497 20.2033 8.58497 20.2033L8.98457 21.1762C9.13561 21.5972 10.7467 22.9069 12.0038 22.9069" fill="#5B6071"/>
<path d="M8.86521 19.326C8.86521 19.326 9.10041 20.7636 10.0422 20.7636C10.8426 20.7636 11.0784 19.5493 11.0784 19.2983L8.86521 19.326ZM7.29777 17.158C7.38145 16.9276 7.67449 15.9962 7.76857 15.1487C7.88105 14.1335 7.84033 12.6488 7.84033 12.6488C7.84033 12.6488 7.58905 13.6221 7.36865 13.7794C7.14897 13.9362 6.74041 15.0035 6.74041 15.0035C6.74041 15.0035 6.52137 16.5925 6.41745 17.1266C6.70561 17.1843 6.94769 17.0146 7.29633 17.158H7.29777ZM5.02337 10.8594C5.02337 10.8594 5.55681 10.671 5.71409 9.50952C5.87089 8.34784 5.52553 7.3432 5.52553 7.3432C5.52553 7.3432 5.55689 8.94432 5.36865 9.2584C5.18009 9.57216 5.02329 9.6664 4.80345 10.0747C4.58353 10.483 4.89753 10.7338 5.02337 10.8595V10.8594Z" fill="#5B6071"/>
<path d="M5.66039 3.32193L5.55151 3.25281C5.23031 3.26377 5.66039 3.32193 5.66039 3.32193Z" fill="#5B6071"/>
<path d="M9.67896 3.93169C9.67896 3.93169 9.17672 3.84801 8.92544 3.47137C8.67424 3.09457 7.96272 2.34097 6.8284 2.33257C5.69432 2.32401 4.57208 2.63401 4.57208 2.63401L5.5516 3.25241C5.65528 3.24905 5.8364 3.25041 6.136 3.26025C7.36528 3.30105 7.55456 4.51665 7.55456 4.51665L11.8875 3.92009" fill="#5B6071"/>
<path d="M10.0973 10.6475C10.0973 10.6475 9.51119 11.2336 8.61119 11.0451C7.71111 10.8568 7.16679 10.4591 7.12495 9.76832C7.08311 9.0776 7.31351 8.8056 7.31351 8.8056C7.31351 8.8056 8.31863 9.12 8.80015 9.5384C9.28167 9.95744 9.63751 10.627 10.098 10.6481L10.0973 10.6475Z" fill="#5B6071"/>
<path d="M9.38815 10.4384C9.38815 10.4384 8.87991 10.6706 8.31175 10.4814C7.56799 10.2334 7.51839 9.45978 7.51839 9.45978C7.51839 9.45978 7.06223 10.7987 8.34135 11.0565C9.36735 11.2631 9.97415 10.6687 9.97415 10.6687L9.38815 10.4384Z" fill="#5B6071"/>
<path d="M9.7493 3.64769C9.69458 2.49937 10.6359 1.58473 10.9621 1.54593C10.9801 1.74049 10.9439 2.49945 11.2699 2.73281C11.3649 2.11313 11.6859 1.42961 12.9535 0.981689C12.682 1.70169 12.9173 2.30489 13.0293 2.58441C13.8949 1.79881 14.4781 1.92857 14.4781 1.92857C14.4781 1.92857 13.8767 2.96641 14.1119 3.64745C12.3743 3.51113 9.75778 3.83201 9.7493 3.64769ZM6.06538 5.39673C5.65082 5.05273 5.95978 4.73353 5.92706 4.34273C5.9093 4.13481 5.8929 3.93857 5.82426 3.83025C5.44266 3.22785 4.54282 3.04505 4.53362 3.04313L4.1113 2.96041L4.3909 2.63321C4.42706 2.59081 5.57562 1.49521 7.35298 2.06881C8.59626 2.46985 9.5165 3.82937 9.55074 3.88441L8.92778 4.17745C8.92058 4.16585 8.19306 2.88793 7.12674 2.54409C6.26498 2.26585 5.47034 2.53049 5.12962 2.70393C5.49138 2.84841 5.96434 3.11145 6.24986 3.56153C6.38474 3.77393 6.40706 4.04169 6.42882 4.30073C6.4577 4.64377 6.48466 4.96761 6.7373 5.17729L6.06634 5.39673H6.06538ZM4.95802 10.4179C4.95802 10.4179 5.48042 9.77017 5.63514 8.50977C5.69594 8.01329 5.58794 7.03409 5.41522 6.65737C5.44658 7.58361 5.21122 8.50977 5.21122 8.50977C5.21122 8.50977 5.05266 10.2295 4.95858 10.4179H4.95802Z" fill="#5B6071"/>
<path d="M7.71282 4.74248C7.7125 4.7412 7.54514 4.00984 7.0813 3.64064C6.42674 3.12008 5.6277 3.39704 5.61994 3.39944L5.50418 3.04097C5.54298 3.02849 6.45666 2.74064 7.29802 3.33232C8.14458 3.92744 8.24658 4.4668 8.25514 4.5264L7.71306 4.74248H7.71282ZM6.59898 9.95336C6.59898 9.95336 6.3249 9.56104 6.37418 9.1296C6.39874 8.91648 6.49746 8.69784 6.67378 8.62024C7.0013 8.4768 7.14674 8.84784 7.14674 8.84784C7.14674 8.84784 6.68562 8.9616 6.59938 9.9536L6.59898 9.95336Z" fill="#5B6071"/>
<path d="M9.60792 10.5514C9.61936 10.5729 9.6252 10.5848 9.6252 10.5848C9.6252 10.5848 8.7704 11.2263 7.89448 10.5754C7.42544 10.2267 7.46984 9.36432 7.61344 8.99856C7.98704 9.08344 8.30384 9.23608 8.56872 9.41432C8.23408 9.11568 7.94104 8.89592 7.94184 8.89072L7.56144 8.7828L6.82208 8.5296C6.81256 8.58616 6.54288 9.8504 7.32128 10.7115C7.6664 11.0937 9.28392 11.9489 10.0519 10.4866L9.60792 10.553V10.5514Z" fill="#5B6071"/>
<path d="M9.52761 10.6456C10.0089 11.378 11.2231 10.9595 11.2022 10.1851C11.2022 10.1851 10.3909 10.6329 9.67417 9.80842C9.25561 9.32762 7.91449 8.0001 6.09601 8.44154C7.35185 8.71778 9.01441 9.86498 9.52761 10.6465V10.6456Z" fill="#5B6071"/>
<path d="M5.92617 12.7124C6.04193 12.7793 6.45017 13.2021 6.45041 13.8346C6.45041 14.1517 6.41881 15.7449 6.26185 16.7181C6.49801 16.8715 6.66249 16.9041 6.89753 17.0605C7.01529 15.9333 7.09961 14.2995 7.06025 13.64C7.01553 12.8882 6.61297 12.3836 6.24001 12.1685C6.12033 12.1002 5.9997 12.0336 5.87817 11.9687C5.23881 11.6232 4.57769 11.2658 4.57769 10.6555C4.57769 10.1782 4.76321 10.0289 4.95985 9.87057L4.98097 9.85345C5.11121 9.74809 5.25921 9.62865 5.34665 9.43249C5.58545 8.89617 5.62425 7.53009 5.34665 7.18321C5.20857 7.01025 4.83753 6.42881 4.94409 6.03865C4.98489 5.88937 5.07897 5.77881 5.23153 5.70057C5.39337 5.61769 5.61177 5.57553 5.88081 5.57553C6.40905 5.57553 6.99521 5.73609 7.29705 5.83209C8.37721 6.17417 9.68025 7.16089 10.0539 7.45561L10.0723 7.46937L10.3111 7.63577L10.1619 7.38521C10.1527 7.36937 9.20601 5.81241 7.51281 5.24137C7.18321 5.13017 6.53665 4.94409 5.90057 4.94409C5.52233 4.94409 5.20057 5.00985 4.94609 5.14009C4.63625 5.29865 4.42641 5.55185 4.33889 5.87161C4.12513 6.65561 4.82177 7.52857 4.84545 7.55689C4.92705 7.70161 4.96121 8.75409 4.77369 9.17577C4.74809 9.23361 4.67769 9.29089 4.58753 9.36321C4.55993 9.38561 4.52833 9.40929 4.49481 9.43425C4.23041 9.63361 3.83041 9.93553 3.83041 10.6308C3.83041 11.582 4.79545 12.0984 5.57033 12.5128C5.69793 12.5812 5.81897 12.6456 5.92881 12.7088L5.92617 12.7124Z" fill="#5B6071"/>
<path d="M6.06538 5.39672C5.65082 5.05272 5.95978 4.73352 5.92706 4.34272C5.9093 4.1348 5.8929 3.93856 5.82426 3.83024C5.44266 3.22784 4.54282 3.04504 4.53362 3.04312L4.1113 2.9604L4.3909 2.6332C4.42706 2.5908 5.57562 1.4952 7.35298 2.0688C8.59626 2.46984 9.5165 3.82936 9.55074 3.8844L8.92778 4.17744C8.92058 4.16584 8.19306 2.88792 7.12674 2.54408C6.26498 2.26584 5.47034 2.53048 5.12962 2.70392C5.49138 2.8484 5.96434 3.11144 6.24986 3.56152C6.38474 3.77392 6.40706 4.04168 6.42882 4.30072C6.4577 4.64376 6.48466 4.9676 6.7373 5.17728L6.06634 5.39672H6.06538Z" fill="#5B6071"/>
<path d="M6.05193 5.4672L6.02513 5.44496C5.71769 5.1904 5.77225 4.93848 5.82505 4.69576C5.84905 4.58392 5.87441 4.46744 5.86409 4.3484C5.84729 4.1484 5.83129 3.9596 5.77097 3.86424C5.40785 3.29064 4.52969 3.10712 4.52113 3.10512L3.99353 3.0012L4.34353 2.59272C4.35009 2.58552 5.08753 1.84088 6.33601 1.84088C6.67681 1.84088 7.02537 1.89744 7.37201 2.00992C8.66929 2.42832 9.59545 3.83792 9.60401 3.85176L9.64153 3.9116L8.90409 4.25896L8.87449 4.21224C8.79553 4.07736 8.09633 2.92424 7.10697 2.6052C6.86425 2.52624 6.60833 2.4868 6.34657 2.4868C5.87297 2.4868 5.48873 2.6164 5.28417 2.70256C5.62625 2.85648 6.04001 3.11568 6.30249 3.52944C6.44521 3.75504 6.46825 4.03 6.49057 4.29584C6.51825 4.62664 6.54457 4.93784 6.77673 5.13056L6.86425 5.20288L6.05249 5.46928L6.05193 5.4672Z" fill="#5B6071"/>
<path d="M7.71282 4.74248C7.7125 4.7412 7.54514 4.00984 7.0813 3.64064C6.42674 3.12008 5.6277 3.39704 5.61994 3.39944L5.50418 3.04097C5.54298 3.02849 6.45666 2.74064 7.29802 3.33232C8.14458 3.92744 8.24658 4.4668 8.25514 4.5264L7.71306 4.74248H7.71282Z" fill="#5B6071"/>
<path d="M7.66738 4.82803L7.65106 4.75603C7.64938 4.74907 7.4853 4.04275 7.04146 3.68995C6.78866 3.48867 6.4837 3.38675 6.1357 3.38675C5.86402 3.38675 5.6621 3.45187 5.6401 3.45907L5.5801 3.47947L5.4249 3.00123L5.48466 2.98219C5.5117 2.97363 5.75378 2.89795 6.09714 2.89795C6.5497 2.89795 6.9773 3.03083 7.33442 3.28211C8.20274 3.89251 8.30866 4.45635 8.31786 4.51883L8.32578 4.56811L7.6693 4.82995L7.66738 4.82803ZM6.1357 3.26099C6.50754 3.26099 6.8481 3.37539 7.11978 3.59147C7.51386 3.90531 7.69914 4.45915 7.75522 4.65787L8.18218 4.48763C8.14354 4.33683 7.97338 3.88443 7.26122 3.38379C6.92066 3.14435 6.52874 3.02307 6.09626 3.02307C5.8589 3.02307 5.67466 3.06083 5.58346 3.08387L5.66042 3.32203C5.81556 3.28133 5.9753 3.26081 6.1357 3.26099ZM10.0028 20.4186C9.81722 20.4186 9.62794 20.3514 9.49674 20.2378C9.39626 20.1511 9.05666 19.8391 8.90682 19.4569C8.8509 19.3139 8.86338 19.1997 8.94458 19.1173C9.0005 19.061 9.11658 18.9935 9.3521 18.9935L9.5197 18.9933C9.7197 18.9931 10.0558 18.9931 10.3433 18.9931H10.6189C10.7985 18.9931 10.9267 19.0319 11.0004 19.1075C11.0951 19.2049 11.0649 19.3292 11.0386 19.3943C10.9925 19.5087 10.8018 19.8811 10.4781 20.2265C10.3623 20.3508 10.1939 20.4192 10.0039 20.4192L10.0028 20.4186ZM10.1972 10.6883L9.52754 10.6452C9.52754 10.6452 9.69874 10.9471 9.80962 11.3374C9.93482 11.7787 9.69514 12.4241 9.69514 12.4241C9.69514 12.4241 10.5881 11.4131 10.1972 10.6881V10.6883ZM9.36106 22.1868C6.9773 22.0036 6.13866 19.7511 6.13866 19.2819L6.76114 19.2822C6.76434 19.4854 7.39778 21.4122 9.40882 21.5668L9.36114 22.1877L9.36106 22.1868Z" fill="#5B6071"/>
<path d="M8.69153 18.1517C8.65433 17.9365 8.65049 17.7323 8.69593 17.5317C8.51473 17.3955 8.18969 17.3449 7.94577 17.2653C7.74577 17.1389 6.72553 17.3941 5.98481 16.4982C5.05665 15.376 5.25201 14.7057 5.25201 14.7057C5.01393 14.9701 4.78369 14.8689 4.42057 16.1016C4.05745 17.3343 4.59097 18.1934 5.58553 19.0558C6.05513 19.463 6.71961 19.6307 7.29057 19.6952C7.09913 19.5031 7.61753 19.4833 7.97465 19.3498C7.94577 19.061 7.99377 18.7815 8.20889 18.5558C8.33849 18.4197 8.50553 18.3388 8.67849 18.2737C8.68841 18.2513 8.69633 18.2309 8.70553 18.2092C8.69939 18.1893 8.69431 18.1691 8.69033 18.1487L8.69153 18.1517Z" fill="#5B6071"/>
<path d="M7.97056 19.3444C7.95 19.2838 7.9344 19.222 7.91912 19.16C7.90264 19.0922 7.8204 18.9 7.92176 19.1194C7.89684 19.0642 7.87816 19.0064 7.86608 18.947C6.25576 18.945 4.85464 17.8394 5.12568 15.5146C4.91512 15.2347 4.61976 16.079 4.61976 16.079C4.61976 16.079 3.814 18.42 5.896 19.3272C6.59 19.6298 7.20312 19.8467 7.34784 19.7592C7.64904 19.8204 7.92144 19.6104 8.02336 19.4722C8.00432 19.4298 7.9872 19.3874 7.97208 19.3442L7.97056 19.3444Z" fill="#5B6071"/>
<path d="M8.66264 17.8144C8.66504 17.6181 8.7052 17.428 8.80008 17.2387C8.80664 17.2256 8.8144 17.2131 8.82144 17.2005C8.20184 17.1952 7.48808 17.1358 6.88032 16.8927C6.21264 16.6254 5.37712 15.7112 5.23312 14.6371C5.23312 14.6371 3.97544 15.6079 4.34512 17.6858C4.69176 19.637 6.3244 20.2731 8.18672 20.3807C8.188 20.3681 7.97752 19.9334 8.04392 19.6673C6.98688 19.7443 5.80408 19.3358 5.23376 18.3964C4.71152 17.5374 4.85816 16.0698 5.07264 15.8547C5.59688 17.5078 7.48152 17.8439 8.6636 17.815L8.66264 17.8144Z" fill="#5B6071"/>
<path d="M8.85737 16.6309C8.52225 17.6143 7.83777 18.4101 7.83777 18.4101C7.83777 18.4101 8.77937 18.3667 8.83129 18.2002C8.86977 18.0773 9.68145 16.1775 9.99297 13.9514C9.69993 14.433 8.88601 16.5458 8.85737 16.6301V16.6309Z" fill="#5B6071"/>
<path d="M14.1915 14.3642C14.1915 14.3642 15.2587 15.9965 16.0421 17.1549C16.1633 17.3341 15.2588 17.3465 15.2588 17.3465L14.1915 14.3642ZM13.683 10.9799C13.683 10.9799 14.005 11.7827 14.181 12.2083C14.3724 12.671 15.1019 12.9011 15.1019 12.9011C15.1019 12.9011 14.7237 12.5045 14.7237 11.4996C14.7237 11.0786 14.1795 10.9109 14.1795 10.9109L13.6835 10.9806L13.683 10.9799Z" fill="#5B6071"/>
<path d="M14.008 11.4336C14.008 11.4336 14.6673 12.2184 15.8918 11.779C17.1162 11.3395 17.2418 9.76961 17.2418 9.33009C17.2418 8.89057 14.9186 9.76961 14.6046 9.95801C14.2905 10.1464 13.6942 10.8998 14.008 11.4336ZM18.6323 3.04721C18.6323 3.04721 17.5022 2.82721 16.7486 3.42377C15.9948 4.02025 15.775 4.49129 15.775 4.49129L17.0446 5.49785C17.0446 5.49785 17.6584 5.21337 17.8466 4.39705C18.0346 3.58081 17.909 3.20417 18.6314 3.04721H18.6323Z" fill="#5B6071"/>
<path d="M14.3382 9.16682C14.8248 8.4761 15.6264 8.17482 16.2669 8.12482C17.3587 8.03954 17.8767 8.42546 17.8767 8.42546C17.8767 8.42546 16.0887 8.50114 15.5734 9.17802C14.6139 10.4377 13.2149 10.54 12.9911 10.2634C13.2496 10.2763 13.5344 10.148 13.8391 9.85994C14.0291 9.6797 14.1837 9.38602 14.3376 9.16682H14.3382ZM17.3563 11.6091C17.3563 11.6091 19.3399 10.9271 18.9632 10.2365C18.5865 9.54514 18.8861 9.1689 18.8861 9.1689C18.8861 9.1689 19.9941 9.99578 19.7115 10.8746C19.538 11.414 19.2471 11.8047 17.649 12.5533C16.882 13.9768 17.4905 16.5397 17.4543 16.5515C17.3931 16.5712 16.3781 16.0496 16.4471 13.6519C16.4683 12.9159 16.5268 11.9107 17.3556 11.6074L17.3563 11.6091ZM14.757 4.27578C15.4149 4.61108 16.072 4.9481 16.7282 5.28682L16.2802 5.51114C16.323 5.58058 16.344 5.62194 16.344 5.62194L15.8843 5.83122C15.8843 5.83122 14.7607 6.6453 14.072 7.16858C14.3016 6.46178 14.9752 5.35122 14.9752 5.35122C14.9752 5.35122 15.1666 4.84098 14.7581 4.2757L14.757 4.27578ZM11.9938 21.5011C14.55 21.5011 15.416 20.2033 15.416 20.2033L15.0167 21.1762C14.8657 21.5972 13.2545 22.9069 11.9976 22.9069" fill="#5B6071"/>
<path d="M15.1361 19.326C15.1361 19.326 14.9007 20.7636 13.9591 20.7636C13.1588 20.7636 12.9231 19.5493 12.9231 19.2983L15.1361 19.326ZM16.7035 17.158C16.6198 16.9276 16.3268 15.9962 16.2325 15.1487C16.1196 14.1335 16.161 12.6488 16.161 12.6488C16.161 12.6488 16.4123 13.6221 16.6317 13.7794C16.8517 13.9362 17.2597 15.0035 17.2597 15.0035C17.2597 15.0035 17.4783 16.5925 17.5823 17.1266C17.2944 17.1843 17.0522 17.0146 16.7035 17.158H16.7035ZM18.9782 10.8594C18.9782 10.8594 18.4443 10.671 18.2875 9.50952C18.1305 8.34784 18.4759 7.3432 18.4759 7.3432C18.4759 7.3432 18.4443 8.94432 18.6324 9.2584C18.8206 9.57232 18.9778 9.6664 19.1975 10.0747C19.4172 10.4829 19.1027 10.7338 18.9778 10.8595L18.9782 10.8594Z" fill="#5B6071"/>
<path d="M18.3403 3.32193L18.4495 3.25281C18.7707 3.26377 18.3403 3.32193 18.3403 3.32193Z" fill="#5B6071"/>
<path d="M14.3224 3.93169C14.3224 3.93169 14.8248 3.84801 15.0758 3.47137C15.3271 3.09457 16.0389 2.34097 17.1731 2.33257C18.3074 2.32401 19.4294 2.63401 19.4294 2.63401L18.4499 3.25241C18.3462 3.24905 18.1651 3.25041 17.8653 3.26025C16.6362 3.30105 16.4469 4.51665 16.4469 4.51665L12.1146 3.92009" fill="#5B6071"/>
<path d="M13.904 10.6475C13.904 10.6475 14.4902 11.2336 15.39 11.0451C16.2902 10.8568 16.8344 10.4591 16.8762 9.76832C16.918 9.0776 16.6879 8.8056 16.6879 8.8056C16.6879 8.8056 15.6831 9.12 15.2018 9.5384C14.7204 9.9568 14.3646 10.627 13.904 10.6481V10.6475Z" fill="#5B6071"/>
<path d="M14.6131 10.4384C14.6131 10.4384 15.1216 10.6706 15.6896 10.4814C16.4336 10.2334 16.483 9.45978 16.483 9.45978C16.483 9.45978 16.939 10.7987 15.6598 11.0565C14.6341 11.2631 14.0272 10.6687 14.0272 10.6687L14.6131 10.4384Z" fill="#5B6071"/>
<path d="M17.9357 5.39672C18.3503 5.05272 18.0415 4.73352 18.0742 4.34272C18.0918 4.1348 18.1082 3.93856 18.1769 3.83024C18.5585 3.22784 19.4585 3.04504 19.4677 3.04312L19.8901 2.9604L19.6105 2.6332C19.5742 2.5908 18.4257 1.4952 16.6483 2.0688C15.4051 2.46984 14.4848 3.82936 14.4506 3.8844L15.0735 4.17744C15.0807 4.16584 15.8083 2.88792 16.8753 2.54408C17.737 2.26584 18.5317 2.53048 18.8717 2.70392C18.5099 2.8484 18.0369 3.11144 17.7515 3.56152C17.6166 3.77392 17.5942 4.04168 17.5725 4.30072C17.5436 4.64376 17.516 4.9676 17.2633 5.17728L17.9337 5.39672H17.9357ZM19.0428 10.4179C19.0428 10.4179 18.5207 9.77016 18.366 8.50976C18.3052 8.01328 18.4129 7.03408 18.5857 6.65736C18.5542 7.5836 18.7899 8.50976 18.7899 8.50976C18.7899 8.50976 18.9487 10.2295 19.0428 10.4179Z" fill="#5B6071"/>
<path d="M16.2886 4.74248C16.2889 4.7412 16.4563 4.00984 16.9203 3.64064C17.5747 3.12008 18.3739 3.39704 18.3813 3.39944L18.4977 3.04097C18.4589 3.02849 17.5456 2.74064 16.7036 3.33232C15.8564 3.92744 15.755 4.4668 15.7458 4.5264L16.2879 4.74248H16.2886ZM17.4025 9.95336C17.4025 9.95336 17.6765 9.56104 17.627 9.1296C17.6027 8.91648 17.5039 8.69784 17.3277 8.62024C17.0001 8.4768 16.8549 8.84784 16.8549 8.84784C16.8549 8.84784 17.3159 8.9616 17.4025 9.9536V9.95336Z" fill="#5B6071"/>
<path d="M14.3934 10.5514C14.3821 10.5729 14.3762 10.5848 14.3762 10.5848C14.3762 10.5848 15.2306 11.2263 16.1066 10.5754C16.5758 10.2267 16.5316 9.36432 16.3875 8.99856C16.0142 9.08344 15.6974 9.23608 15.4323 9.41432C15.7672 9.11568 16.0602 8.89592 16.0591 8.89072L16.4398 8.7828L17.1786 8.5296C17.1878 8.58616 17.4574 9.8504 16.6786 10.7115C16.3333 11.0937 14.7157 11.9489 13.948 10.4866L14.392 10.553L14.3934 10.5514Z" fill="#5B6071"/>
<path d="M14.473 10.6456C13.9918 11.378 12.7778 10.9595 12.7989 10.1851C12.7989 10.1851 13.61 10.6329 14.3267 9.80842C14.7452 9.32762 16.0865 8.0001 17.905 8.44154C16.6493 8.71778 14.9865 9.86498 14.473 10.6465V10.6456Z" fill="#5B6071"/>
<path d="M18.0752 12.7124C17.9594 12.7793 17.5509 13.2021 17.5509 13.8346C17.5506 14.1517 17.5823 15.7449 17.7394 16.7181C17.5033 16.8715 17.3388 16.9041 17.1038 17.0605C16.986 15.9333 16.9014 14.2995 16.941 13.64C16.9859 12.8882 17.3883 12.3836 17.7615 12.1685C17.8784 12.1013 18.0007 12.0351 18.124 11.9687C18.7634 11.6232 19.4245 11.2658 19.4245 10.6555C19.4245 10.1782 19.2387 10.0289 19.0423 9.87057L19.0213 9.85345C18.891 9.74809 18.7431 9.62865 18.656 9.43249C18.4172 8.89617 18.3777 7.53009 18.6553 7.18321C18.7934 7.01025 19.1645 6.42881 19.0579 6.03865C19.0171 5.88937 18.923 5.77881 18.7704 5.70057C18.6086 5.61769 18.3902 5.57553 18.1212 5.57553C17.593 5.57553 17.0068 5.73609 16.7049 5.83209C15.6248 6.17417 14.3217 7.16089 13.9474 7.45561C13.9369 7.46345 13.9302 7.46873 13.929 7.46937L13.6895 7.63577L13.8388 7.38521C13.8481 7.36937 14.7946 5.81241 16.4878 5.24137C16.8174 5.13017 17.464 4.94409 18.1001 4.94409C18.4783 4.94409 18.7994 5.00985 19.0539 5.14009C19.3638 5.29865 19.5736 5.55185 19.6611 5.87161C19.8749 6.65561 19.179 7.52857 19.1546 7.55689C19.073 7.70161 19.0388 8.75409 19.2263 9.17577C19.2519 9.23361 19.323 9.29089 19.4125 9.36321C19.4407 9.38561 19.4717 9.40929 19.5052 9.43425C19.7696 9.63361 20.1696 9.93553 20.1696 10.6308C20.1696 11.582 19.2052 12.0984 18.4304 12.5128C18.3034 12.5812 18.1817 12.6456 18.0725 12.7088L18.0752 12.7124Z" fill="#5B6071"/>
<path d="M16.9247 5.28483C16.7713 5.02491 16.379 4.52323 15.4747 4.08227C14.4657 3.59051 13.2978 3.34091 12.003 3.34027V3.34003H11.9984V3.34067C10.7038 3.34131 9.5356 3.59131 8.52648 4.08267C7.62272 4.52411 7.23064 5.02531 7.07672 5.28515L7.01096 5.37267L7.78512 5.54491L7.80992 5.51403L7.82296 5.48547C7.8348 5.43411 7.93872 5.15787 8.802 4.73691C9.72488 4.28683 10.8011 4.05867 12.001 4.05803C13.2008 4.05851 14.277 4.28675 15.1998 4.73691C16.0629 5.15787 16.1674 5.43411 16.1793 5.48531L16.1918 5.51379L16.2162 5.54475L16.9904 5.37235L16.9246 5.28531L16.9247 5.28483Z" fill="#5B6071"/>
<path d="M17.9357 5.39672C18.3503 5.05272 18.0415 4.73352 18.0742 4.34272C18.0918 4.1348 18.1082 3.93856 18.1769 3.83024C18.5585 3.22784 19.4585 3.04504 19.4677 3.04312L19.8901 2.9604L19.6105 2.6332C19.5742 2.5908 18.4257 1.4952 16.6483 2.0688C15.4051 2.46984 14.4848 3.82936 14.4506 3.8844L15.0735 4.17744C15.0807 4.16584 15.8083 2.88792 16.8753 2.54408C17.737 2.26584 18.5317 2.53048 18.8717 2.70392C18.5099 2.8484 18.0369 3.11144 17.7515 3.56152C17.6166 3.77392 17.5942 4.04168 17.5725 4.30072C17.5436 4.64376 17.516 4.9676 17.2633 5.17728L17.9337 5.39672H17.9357Z" fill="#5B6071"/>
<path d="M17.1378 5.20139L17.225 5.12875C17.4573 4.93611 17.4833 4.62507 17.5113 4.29435C17.5338 4.02795 17.557 3.75299 17.6996 3.52739C17.9615 3.11363 18.3762 2.85507 18.7178 2.70051C18.5133 2.61363 18.129 2.48475 17.6551 2.48475C17.3933 2.48475 17.1379 2.52419 16.8949 2.60251C15.9056 2.92155 15.2066 4.07403 15.1274 4.20947L15.0978 4.25619L14.3604 3.90955L14.3979 3.84971C14.4067 3.83587 15.332 2.42619 16.6295 2.00779C16.9769 1.89531 17.3255 1.83875 17.6662 1.83875C18.9154 1.83875 19.6528 2.58339 19.6587 2.59067L20.0087 2.99979L19.4811 3.10307C19.4725 3.10443 18.5944 3.28859 18.2313 3.86219C18.1714 3.95755 18.1556 4.14635 18.1385 4.34635C18.1286 4.46539 18.1537 4.58115 18.178 4.69363C18.2306 4.93635 18.2852 5.18835 17.978 5.44291L17.9517 5.46459L17.14 5.19819L17.1378 5.20139Z" fill="#5B6071"/>
<path d="M16.2886 4.74248C16.2889 4.7412 16.4563 4.00984 16.9203 3.64064C17.5747 3.12008 18.3739 3.39704 18.3813 3.39944L18.4977 3.04097C18.4589 3.02849 17.5456 2.74064 16.7036 3.33232C15.8564 3.92744 15.755 4.4668 15.7458 4.5264L16.2879 4.74248H16.2886Z" fill="#5B6071"/>
<path d="M15.6774 4.5664L15.6846 4.5172C15.6939 4.45496 15.8 3.89096 16.6678 3.28088C17.025 3.03 17.4533 2.89728 17.9052 2.89728C18.2486 2.89728 18.4906 2.97296 18.5176 2.98152L18.5775 3.0012L18.4223 3.47944L18.3623 3.45968C18.34 3.45248 18.1381 3.38736 17.8671 3.38736C17.5191 3.38736 17.2145 3.49 16.9619 3.69128C16.5186 4.04448 16.3541 4.75032 16.3528 4.7576L16.337 4.82992L15.6805 4.56808L15.6774 4.5664ZM18.341 3.32184L18.4182 3.08384C18.327 3.06064 18.1425 3.02304 17.9051 3.02304C17.4727 3.02304 17.0807 3.14448 16.7402 3.38384C16.0279 3.8844 15.8578 4.3368 15.8191 4.4876L16.2465 4.65776C16.3024 4.45912 16.4875 3.90512 16.8817 3.59144C17.154 3.37528 17.4941 3.26104 17.8657 3.26104C18.0795 3.26104 18.2518 3.29784 18.3414 3.32184H18.341ZM13.5242 20.2262C13.2008 19.8803 13.0094 19.5082 12.9632 19.3938C12.9368 19.3287 12.9066 19.2046 13.0015 19.107C13.0754 19.0316 13.2036 18.9929 13.3828 18.9929H13.659C13.9466 18.9929 14.2826 18.9929 14.4826 18.9935L14.6504 18.9942C14.8858 18.9942 15.0023 19.0619 15.0576 19.1178C15.1392 19.2001 15.1516 19.3146 15.0957 19.4579C14.9458 19.8401 14.6063 20.1526 14.5057 20.2387C14.3741 20.3526 14.1853 20.4197 13.9998 20.4197C13.8097 20.4197 13.6413 20.3512 13.5255 20.2276L13.5242 20.2262ZM13.8042 10.688L14.4736 10.6449C14.4736 10.6449 14.3026 10.9467 14.1918 11.337C14.0662 11.7784 14.3062 12.4238 14.3062 12.4238C14.3062 12.4238 13.4129 11.4126 13.8037 10.6878L13.8042 10.688Z" fill="#5B6071"/>
<path d="M12.0003 8.29719C11.5734 8.29719 11.0169 8.28551 10.5994 7.98535C10.5994 7.98535 11.1461 8.94391 11.9996 8.94391L12.0002 8.82263L12.001 8.94391C12.8546 8.94391 13.4014 7.98551 13.4014 7.98551C12.9838 8.28551 12.4268 8.29727 12.0003 8.29727V8.29719Z" fill="#5B6071"/>
<path d="M13.1758 8.29254C12.7476 8.55174 12.3653 8.6415 12.0006 8.6495C11.6358 8.6415 11.2534 8.55174 10.8252 8.29262C10.8252 8.29262 11.4488 9.05366 11.9974 9.05958V9.0603H12.0005C12.0014 9.0603 12.0024 9.06094 12.0035 9.06094C12.5522 9.05502 13.1764 8.29454 13.1764 8.29454L13.1758 8.29254ZM14.6398 22.1874L14.592 21.5668C16.603 21.4122 17.2364 19.4853 17.2397 19.2825H17.8626C17.8633 19.7515 17.0239 22.0042 14.6407 22.1873L14.6398 22.1874Z" fill="#5B6071"/>
<path d="M15.3097 18.1517C15.3471 17.9365 15.3507 17.7323 15.3054 17.5317C15.4868 17.3955 15.8116 17.3449 16.0555 17.2653C16.255 17.1389 17.2759 17.3941 18.0165 16.4982C18.9441 15.376 18.7485 14.7057 18.7485 14.7057C18.9867 14.9701 19.217 14.8689 19.5799 16.1016C19.943 17.3344 19.4092 18.1934 18.4148 19.0558C17.9452 19.463 17.2809 19.6307 16.7097 19.6952C16.901 19.5031 16.3833 19.4833 16.0261 19.3498C16.0551 19.061 16.0071 18.7815 15.792 18.5558C15.663 18.4197 15.496 18.3388 15.323 18.2737C15.3131 18.2513 15.3052 18.2309 15.296 18.2092C15.3019 18.1894 15.3072 18.1697 15.3112 18.1487L15.3097 18.1517Z" fill="#5B6071"/>
<path d="M16.0301 19.3444C16.051 19.2838 16.0663 19.222 16.0816 19.16C16.0984 19.0922 16.1807 18.9 16.0792 19.1194C16.1041 19.0642 16.1228 19.0064 16.1348 18.947C17.7452 18.945 19.1463 17.8394 18.8754 15.5146C19.0862 15.2347 19.3816 16.079 19.3816 16.079C19.3816 16.079 20.1879 18.42 18.1056 19.3273C17.4119 19.6298 16.7988 19.8468 16.6541 19.7593C16.3525 19.8205 16.0805 19.6105 15.9787 19.4722C15.9978 19.4298 16.0155 19.3874 16.0307 19.3443L16.0301 19.3444Z" fill="#5B6071"/>
<path d="M15.3387 17.8144C15.3365 17.618 15.2962 17.428 15.2015 17.2387C15.1949 17.2256 15.1871 17.2131 15.1801 17.2004C15.7998 17.1952 16.5135 17.1357 17.1213 16.8926C17.7893 16.6253 18.6249 15.7112 18.7685 14.6371C18.7685 14.6371 20.0266 15.6079 19.6569 17.6857C19.3096 19.6369 17.6771 20.2731 15.815 20.3807C15.814 20.368 16.0246 19.9333 15.958 19.6672C17.015 19.7442 18.1978 19.3357 18.7688 18.3964C19.2911 17.5373 19.1444 16.0697 18.9299 15.8546C18.4063 17.5077 16.5211 17.8438 15.339 17.8149L15.3387 17.8144Z" fill="#5B6071"/>
<path d="M16.0906 18.3037C15.8682 18.0633 15.4591 17.7765 14.516 17.7765L12.0045 17.775H11.9986C11.275 17.7756 9.48641 17.7766 9.48641 17.7766C8.54377 17.7766 8.13457 18.0633 7.91225 18.3037C7.58793 18.6537 7.53729 19.1406 7.76161 19.7493C8.35761 21.3692 9.19561 23.0149 11.9992 23.0173V23.0175H12.0025C12.0038 23.0175 12.0045 23.0181 12.0058 23.0181C14.8094 23.0162 15.6474 21.3704 16.2434 19.7501C16.4677 19.1417 16.417 18.6549 16.0927 18.3049L16.0906 18.3037ZM15.6541 19.6357C15.3701 20.4491 14.6069 22.4181 12.0006 22.4215C9.39417 22.4181 8.63121 20.4492 8.34713 19.6357C8.19009 19.1845 8.20201 18.8504 8.38393 18.6429C8.50833 18.5011 8.79377 18.3317 9.44433 18.3317L10.1241 18.3316C10.6255 18.3311 11.2551 18.3305 12.0008 18.3302C12.7461 18.3305 13.376 18.331 13.8774 18.3316L14.5568 18.3318C15.2076 18.3318 15.493 18.5009 15.6174 18.6422C15.7991 18.8495 15.8112 19.1837 15.6541 19.6349V19.6357Z" fill="#5B6071"/>
<path d="M15.1434 16.6309C15.4784 17.6143 16.1628 18.4101 16.1628 18.4101C16.1628 18.4101 15.2215 18.3667 15.1695 18.2002C15.1314 18.0773 14.3196 16.1775 14.0085 13.9514C14.3018 14.433 15.1156 16.5458 15.1445 16.6301L15.1434 16.6309Z" fill="#5B6071"/>
</svg>
