<svg width="24" height="25" viewBox="0 0 24 25" fill="none" xmlns="http://www.w3.org/2000/svg">
<path d="M8.56199 16.542C8.39501 14.8817 8.23501 13.2207 8.08199 11.559C8.08299 11.517 7.85599 11.483 7.57599 11.483H7.06799V9.54999H11.034V5.79999L12.905 4.67499C14.045 3.98999 14.883 3.54999 15.049 3.54999C15.449 3.54999 15.915 4.05599 15.915 4.48999C15.915 4.67899 15.858 4.91099 15.788 5.00699C15.718 5.10199 15.066 5.53699 14.338 5.97199L13.017 6.76499L12.989 8.15699L12.96 9.54999H16.932V11.483H15.952L15.458 16.466L14.963 21.449H9.04699L8.56199 16.542V16.542Z" fill="#5B6071"/>
</svg>
