<svg width="24" height="24" viewBox="0 0 24 24" fill="none" xmlns="http://www.w3.org/2000/svg">
<path d="M9.87 12.15L9 6.45999C10.952 5.84 13.048 5.84 15 6.45999L14.13 12.15C14.06 12.64 13.63 13 13.13 13H10.86C10.6206 13.0003 10.3889 12.9147 10.2073 12.7587C10.0256 12.6027 9.90592 12.3867 9.87 12.15ZM22 16C22 15.21 21.53 14.5 20.8 14.17C20.3187 11.8578 18.9557 9.82401 17 8.49999L15.24 13.34C15.1 13.74 14.72 14 14.3 14H9.7C9.28 14 8.9 13.74 8.76 13.34L7 8.49999C5.0468 9.82202 3.68414 11.8517 3.2 14.16C2.47 14.5 2 15.2 2 16L8.45 17.84C8.81 17.94 9.18 18 9.55 18H14.43C14.8 18 15.17 17.94 15.53 17.84L22 16Z" fill="#5B6071"/>
</svg>
