<svg width="24" height="24" viewBox="0 0 24 24" fill="none" xmlns="http://www.w3.org/2000/svg">
<path d="M19.6517 1.93292H4.34901C3.29267 1.93292 2.43617 2.7445 2.43617 3.74508V20.2555C2.43617 21.2562 3.29284 22.0677 4.34901 22.0677H19.6513C20.7077 22.0677 21.5642 21.2561 21.5642 20.2555V3.74524C21.5642 2.7445 20.7075 1.93308 19.6513 1.93308L19.6517 1.93292ZM7.21834 19.0475V15.0205L9.60934 17.034L7.21834 19.0475ZM14.657 19.0475V13.0348C14.6467 12.5648 14.4078 12.0003 13.3287 12.0003C11.1677 12.0003 8.74367 13.0299 8.71967 13.0402L7.21834 13.6847V4.95313H9.34367V10.6691C10.4047 10.3419 11.888 9.98682 13.3287 9.98682C14.6423 9.98682 15.4287 10.4761 15.857 10.8867C16.7712 11.7625 16.7837 12.8782 16.7823 13.007V19.0475H14.657ZM15.1883 8.22503H13.063C13.8983 7.18687 14.4227 6.09424 14.657 4.95313H16.7823C16.639 6.09677 16.1495 7.19319 15.1883 8.22503Z" fill="#5B6071"/>
</svg>
