<svg width="24" height="24" viewBox="0 0 24 24" fill="none" xmlns="http://www.w3.org/2000/svg">
<path fill-rule="evenodd" clip-rule="evenodd" d="M12.839 14.958L10.392 12.54L10.421 12.51C12.0529 10.6963 13.2723 8.55032 13.995 6.21999H16.818V4.29099H10.074V2.36499H8.14701V4.29199H1.40201V6.21999H12.164C11.4983 8.12401 10.4601 9.87642 9.11001 11.375C8.23065 10.4005 7.48232 9.31531 6.88401 8.14699H4.95801C5.68045 9.75164 6.64875 11.2338 7.82801 12.54L2.92501 17.377L4.29301 18.745L9.11001 13.928L12.107 16.924L12.839 14.958ZM18.263 10.074H16.336L12.001 21.636H13.928L15.007 18.746H19.583L20.672 21.636H22.599L18.263 10.074ZM15.739 16.818L17.299 12.646L18.86 16.818H15.739Z" fill="#5B6071"/>
</svg>
