<svg width="24" height="24" viewBox="0 0 24 24" fill="none" xmlns="http://www.w3.org/2000/svg">
<path d="M12.3684 22.7341C11.416 22.4142 11.4079 22.4079 11.1968 21.8321C11.08 21.5132 10.9206 20.7474 10.8426 20.1305C10.723 19.1828 10.7309 18.8399 10.8932 17.9234C11.2266 16.0425 12.048 14.6023 14.2139 12.101C16.7183 9.20867 17.1551 8.20967 16.6424 6.54623C16.2037 5.12231 15.0275 3.78983 12.6089 1.97687C11.0591 0.815266 10.9939 0.740506 12.0073 1.28855C14.7138 2.75207 16.8511 4.57811 17.5723 6.04307C18.0742 7.06247 18.1879 8.19347 17.892 9.21803C17.5774 10.3071 17.0038 11.2959 15.3551 13.5918C13.1114 16.716 12.4591 18.2287 12.5753 20.0385C12.6246 20.8077 12.7129 21.0969 13.1758 22.0061C13.8002 23.2325 13.8143 23.2199 12.3684 22.7341ZM10.3535 12.7245C9.83989 11.0955 8.72101 10.0115 6.84793 9.32831C6.35269 9.14771 5.94745 8.97215 5.94745 8.93831C5.94745 8.81507 8.22013 9.04007 8.70505 9.21119C9.91609 9.63839 10.5102 10.5235 10.6009 12.0356C10.6781 13.3227 10.6056 13.5247 10.3534 12.7247L10.3535 12.7245ZM12.3382 10.1618C11.6125 8.19371 10.3991 7.08011 8.28745 6.44411C7.15225 6.10223 7.20097 5.99483 8.44909 6.08807C10.9134 6.27215 11.9786 6.96383 12.4861 8.70959C12.6005 9.10307 12.6647 9.68411 12.6433 10.1333L12.6074 10.892L12.3382 10.1618ZM13.9427 7.17599C13.3403 5.79347 12.4897 5.02235 10.8379 4.36151C10.1906 4.10255 10.0219 3.99143 10.1803 3.92855C10.4776 3.81059 11.9522 4.04615 12.4776 4.29551C13.0673 4.57535 13.8074 5.44247 14.0405 6.12671C14.2268 6.67391 14.43 7.95215 14.3304 7.95215C14.303 7.95215 14.1286 7.60295 13.9426 7.17611L13.9427 7.17599Z" fill="#5B6071"/>
<path d="M11.3496 0.899621C11.3394 0.898541 11.3273 0.896261 11.3068 0.906461C11.2862 0.916661 11.2685 0.951701 11.2704 0.971261C11.274 1.01062 11.2884 1.01626 11.3014 1.03114C11.3534 1.09078 11.4726 1.18738 11.6815 1.34962C11.8903 1.51186 12.185 1.73434 12.5725 2.02486C14.9873 3.83494 16.1519 5.15866 16.5848 6.56374C16.8388 7.38766 16.8574 8.03134 16.5043 8.83894C16.1513 9.64654 15.4193 10.6169 14.1683 12.0617C11.9999 14.5661 11.1692 16.0205 10.8338 17.9129C10.671 18.8315 10.6627 19.1882 10.7827 20.1378C10.8611 20.7588 11.0186 21.5211 11.1401 21.8527C11.2457 22.1408 11.3064 22.3022 11.4677 22.4264C11.6292 22.5507 11.8728 22.6309 12.3491 22.7909C12.7104 22.9123 12.9806 23.0045 13.1768 23.0557C13.275 23.0814 13.3543 23.0972 13.4206 23.1005C13.4868 23.1038 13.5451 23.0957 13.5884 23.0567C13.6316 23.0177 13.6423 22.9568 13.6352 22.8963C13.6282 22.8359 13.606 22.7671 13.5716 22.6829C13.5032 22.5144 13.3849 22.2855 13.2288 21.9791C12.7668 21.0719 12.6839 20.8004 12.6348 20.0349C12.5772 19.1382 12.7088 18.3199 13.1348 17.3319C13.5608 16.344 14.2826 15.1875 15.4033 13.6269C17.053 11.3299 17.632 10.3334 17.9494 9.23494C18.2498 8.19502 18.1337 7.04854 17.6257 6.01678C16.8925 4.52734 14.7488 2.7031 12.0356 1.23598C11.782 1.09882 11.5961 1.00066 11.4806 0.947261C11.423 0.920501 11.3903 0.904061 11.3496 0.899621ZM11.6602 1.17562C11.76 1.22722 11.8314 1.26202 11.9784 1.34146C14.6782 2.80126 16.8089 4.6291 17.5181 6.0697C18.0137 7.0765 18.1256 8.19202 17.834 9.20146C17.522 10.2812 16.9536 11.2623 15.3059 13.5569C14.1829 15.1205 13.4567 16.2824 13.0247 17.2843C12.5927 18.2863 12.4564 19.1294 12.5149 20.0426C12.5645 20.8154 12.6581 21.1226 13.122 22.0334C13.2781 22.3401 13.3958 22.5692 13.4604 22.7281C13.4927 22.8075 13.5112 22.8697 13.516 22.9105C13.5208 22.9512 13.5143 22.962 13.5079 22.9676C13.5017 22.9733 13.4778 22.9831 13.4263 22.9805C13.3751 22.9781 13.3014 22.9644 13.2072 22.9397C13.0189 22.8905 12.7488 22.7987 12.3871 22.6772C11.9111 22.5173 11.6743 22.4343 11.5409 22.3316C11.4074 22.2289 11.3582 22.0992 11.2529 21.8114C11.1406 21.5051 10.9792 20.7359 10.9018 20.1228C10.7824 19.1774 10.7898 18.8481 10.9519 17.934C11.2831 16.0646 12.0955 14.6388 14.259 12.1404C15.5123 10.6928 16.251 9.71782 16.6142 8.88694C16.9775 8.05606 16.9582 7.36822 16.6994 6.5287C16.2551 5.08606 15.0671 3.74482 12.6446 1.9291C12.2573 1.6387 11.9627 1.41634 11.7551 1.25506C11.7008 1.21294 11.7029 1.21018 11.6603 1.17586L11.6602 1.17562ZM10.5935 3.84106C10.4022 3.83146 10.2545 3.83434 10.158 3.87274C10.1338 3.88234 10.1122 3.89338 10.0933 3.91282C10.0745 3.93226 10.0609 3.96562 10.0657 3.9955C10.0751 4.05538 10.1173 4.08454 10.1737 4.1215C10.2865 4.1959 10.4905 4.28722 10.8152 4.41718C12.4586 5.07478 13.2901 5.82886 13.8875 7.19986C13.9677 7.38559 14.0526 7.56928 14.142 7.75078C14.1775 7.82182 14.208 7.87954 14.2325 7.92106C14.2446 7.9417 14.255 7.95826 14.2652 7.97182C14.2704 7.97866 14.2752 7.98478 14.2824 7.9915C14.2896 7.99822 14.2967 8.0119 14.3302 8.0119C14.3458 8.01141 14.3609 8.00623 14.3735 7.99702C14.3862 7.98782 14.3957 7.97502 14.401 7.9603C14.4082 7.94155 14.4125 7.9218 14.4137 7.90174C14.4179 7.8595 14.417 7.80574 14.413 7.73974C14.4048 7.6081 14.3827 7.43014 14.3518 7.23502C14.2897 6.84454 14.1926 6.38794 14.097 6.10714C13.8564 5.40094 13.1185 4.5331 12.503 4.24114C12.2273 4.11022 11.7275 3.9907 11.2526 3.91474C11.0152 3.87694 10.7849 3.85054 10.5936 3.84094L10.5935 3.84106ZM10.5875 3.96082C10.7725 3.97006 10.9996 3.9961 11.2336 4.03342C11.7017 4.10818 12.202 4.23118 12.4516 4.34962C13.0154 4.61722 13.7579 5.48374 13.9835 6.14602C14.0743 6.4123 14.1719 6.86842 14.2331 7.25386C14.2637 7.44658 14.2854 7.62238 14.2931 7.74742C14.2939 7.76182 14.2928 7.76722 14.2933 7.78018C14.2786 7.75246 14.2669 7.73266 14.2493 7.69726C14.1797 7.55806 14.0899 7.36474 13.9973 7.1521C13.3901 5.75806 12.5201 4.96978 10.86 4.30558C10.5374 4.17658 10.3334 4.0831 10.2396 4.02118C10.2034 3.99742 10.2007 3.9895 10.1969 3.9871C10.1996 3.98566 10.1987 3.98566 10.2023 3.98422C10.2544 3.96358 10.4022 3.95158 10.5875 3.96082ZM7.73628 5.99602C7.65324 5.99722 7.58868 6.00166 7.53912 6.01042C7.51428 6.01486 7.4934 6.02002 7.47372 6.02866C7.45404 6.03742 7.4322 6.0499 7.41936 6.07822C7.40652 6.10642 7.41528 6.14134 7.42824 6.16066C7.4412 6.17998 7.45704 6.19282 7.47576 6.2059C7.51332 6.23206 7.56492 6.25738 7.63476 6.28654C7.7742 6.34486 7.98492 6.41566 8.26956 6.50134C10.369 7.13374 11.5608 8.2279 12.2815 10.1826L12.5508 10.9127L12.6671 10.8948L12.7028 10.1359C12.7244 9.6787 12.6604 9.09574 12.5432 8.6929C12.2869 7.81126 11.8844 7.18546 11.2336 6.76282C10.5827 6.34018 9.69 6.12082 8.45292 6.02842C8.14008 6.0049 7.90212 5.99386 7.73628 5.99626V5.99602ZM7.73808 6.11602C7.89696 6.11386 8.13288 6.12442 8.44404 6.14782C9.67128 6.2395 10.5436 6.4579 11.168 6.8635C11.7928 7.2691 12.1768 7.86226 12.4279 8.72626C12.5395 9.11026 12.604 9.68926 12.5831 10.1303L12.561 10.5941L12.394 10.1409C11.6633 8.15938 10.4284 7.02622 8.30436 6.3865C8.02152 6.3013 7.81248 6.23062 7.68084 6.17554C7.63404 6.15598 7.6098 6.14158 7.58364 6.12682C7.62168 6.12154 7.66908 6.11698 7.73808 6.11602ZM6.3114 8.84482C6.1998 8.84158 6.10788 8.84218 6.04044 8.84782C6.01164 8.84949 5.98308 8.85415 5.95524 8.86174C5.94182 8.86532 5.92917 8.87134 5.91792 8.8795C5.90873 8.88639 5.90118 8.89525 5.89582 8.90542C5.89047 8.91558 5.88744 8.92682 5.88696 8.9383C5.88696 8.97034 5.90088 8.98018 5.90856 8.98798C5.91612 8.9959 5.92308 9.00106 5.931 9.00658C5.94684 9.0175 5.96604 9.02854 5.99004 9.04126C6.03828 9.06646 6.10524 9.09766 6.18768 9.1333C6.35244 9.2047 6.57828 9.29386 6.8268 9.38458C8.68788 10.0633 9.78744 11.1302 10.2958 12.7427C10.3594 12.9443 10.4105 13.0823 10.4566 13.1648C10.4796 13.206 10.4946 13.2397 10.5451 13.2551C10.5588 13.2582 10.573 13.2582 10.5867 13.255C10.6003 13.2518 10.613 13.2454 10.6238 13.2365C10.6393 13.2218 10.6506 13.2034 10.6567 13.1831C10.684 13.1072 10.6898 12.9882 10.6897 12.7987C10.6897 12.6091 10.6795 12.3545 10.6602 12.032C10.6144 11.2688 10.4412 10.6581 10.1224 10.1831C9.8034 9.70798 9.33936 9.37162 8.7246 9.15466C8.59332 9.10834 8.36088 9.0631 8.07816 9.01966C7.79544 8.97622 7.4652 8.93578 7.14984 8.90446C6.83448 8.87314 6.53448 8.8513 6.3114 8.84482ZM6.3078 8.96482C6.5262 8.97118 6.82464 8.99314 7.13808 9.0241C7.45152 9.05518 7.78008 9.09526 8.0598 9.13822C8.33964 9.1813 8.5734 9.22858 8.68464 9.26782C9.2808 9.47818 9.71904 9.79786 10.0226 10.2501C10.3262 10.7024 10.4954 11.2902 10.5404 12.0391C10.5596 12.3602 10.5696 12.6133 10.5697 12.7987C10.5697 12.9469 10.5589 13.0181 10.5488 13.0736C10.5133 13.0037 10.4676 12.8888 10.4101 12.7065C9.89136 11.061 8.75304 9.95926 6.86796 9.27178C6.62124 9.18178 6.39672 9.0931 6.2352 9.02314C6.18348 9.0007 6.1512 8.9845 6.114 8.96674C6.1692 8.96446 6.2256 8.96242 6.3078 8.96482Z" fill="#5B6071"/>
</svg>
