<svg width="24" height="24" viewBox="0 0 24 24" fill="none" xmlns="http://www.w3.org/2000/svg">
<path d="M4.25 1.52001C3.56574 1.52001 2.90951 1.79394 2.42567 2.28153C1.94182 2.76913 1.67 3.43045 1.67 4.12001V19.78C1.6687 20.1223 1.73447 20.4615 1.86354 20.7781C1.99261 21.0947 2.18244 21.3825 2.42215 21.625C2.66185 21.8674 2.94671 22.0599 3.26038 22.1911C3.57405 22.3224 3.91036 22.39 4.25 22.39H19.73C20.0688 22.39 20.4043 22.3228 20.7173 22.1921C21.0303 22.0614 21.3148 21.8699 21.5543 21.6285C21.7939 21.3871 21.984 21.1004 22.1136 20.785C22.2433 20.4695 22.31 20.1314 22.31 19.79V4.12001C22.3127 3.43217 22.0427 2.7713 21.5591 2.28211C21.0755 1.79293 20.4178 1.5153 19.73 1.51001H4.25V1.52001ZM4.49 5.82001H18.32C19.27 5.82001 20.05 6.62001 20.05 7.60001V10.26C20.05 10.7294 19.8677 11.1796 19.5433 11.5116C19.2189 11.8435 18.7788 12.03 18.32 12.03H16.6V14.53C16.6026 14.9887 16.5151 15.4434 16.3424 15.8679C16.1696 16.2924 15.9152 16.6784 15.5936 17.0037C15.2721 17.329 14.8898 17.5871 14.4687 17.7632C14.0476 17.9393 13.5961 18.03 13.14 18.03H7.94C7.48479 18.0287 7.03431 17.937 6.61438 17.7603C6.19445 17.5836 5.81332 17.3253 5.49283 17.0001C5.17234 16.675 4.91878 16.2894 4.7467 15.8656C4.57462 15.4417 4.48738 14.9878 4.49 14.53V5.83001V5.82001ZM16.59 7.60001V10.26H18.32V7.60001H16.6H16.59Z" fill="#5B6071"/>
</svg>
