<svg width="24" height="25" viewBox="0 0 24 25" fill="none" xmlns="http://www.w3.org/2000/svg">
<mask id="mask0_3475_9414" style="mask-type:luminance" maskUnits="userSpaceOnUse" x="1" y="2" width="21" height="21">
<path d="M1.38147 2.06583H21.9681V22.6524H1.38147V2.06583Z" fill="white"/>
</mask>
<g mask="url(#mask0_3475_9414)">
<path fill-rule="evenodd" clip-rule="evenodd" d="M16.6427 18.2818L14.86 18.5492L12.4534 18.8166L10.8935 18.8611L9.37834 18.8166L8.21943 18.46L7.19452 17.346L6.39227 15.073L6.21409 14.5827L5.14442 14.2263L4.52049 13.2013L4.07489 11.7306L4.56525 10.4381L5.72387 10.037L6.65969 10.4828L7.10543 11.4632L7.64027 11.374L7.81845 11.1512L7.64027 10.1263L7.59565 8.83364L7.86307 7.05109L7.85252 6.03288L8.66518 4.73371L10.0914 3.7088L12.5871 2.63913L15.35 3.04026L17.7567 4.77833L18.8709 6.56087L19.584 7.85335L19.7622 11.0621L19.2273 13.8252L18.247 16.2763L17.3111 17.5686" fill="#5B6071"/>
<path fill-rule="evenodd" clip-rule="evenodd" d="M15.128 25.9916L8.75483 26.259V27.3285L9.28967 31.0721L9.02225 31.3842L4.56567 29.869L4.25349 29.3341L3.80789 24.2983L2.78298 21.2677L2.56018 20.5547L6.12527 18.1036L7.2397 17.6579L8.22 18.8611L9.06672 19.6187L10.0474 19.9306L10.4929 20.0643L11.0277 22.3817L11.4289 22.8721L12.4538 22.5154L11.7408 23.8971L15.618 25.7243L15.1278 25.9917" fill="#5B6071"/>
<path fill-rule="evenodd" clip-rule="evenodd" d="M4.56584 10.438L5.72446 10.0369L6.66042 10.4826L7.10616 11.4631L7.64085 11.3738L7.77456 10.8391L7.50715 9.81424L7.77456 7.36286L7.55176 6.02592L8.35387 5.0901L10.0919 3.70854L9.60158 3.03999L7.15064 4.24337L6.12558 5.04548L5.54627 6.29333L4.65493 7.49671L4.38751 8.92289L4.56584 10.438Z" fill="#5B6071"/>
<path fill-rule="evenodd" clip-rule="evenodd" d="M6.39282 6.24957C6.39282 6.24957 7.06136 4.60073 9.73525 3.79848C12.4093 2.99623 9.86896 3.21903 9.86896 3.21903L6.97227 4.33332L5.85798 5.44746L5.36791 6.3388L6.39282 6.24957ZM5.05587 10.1261C5.05587 10.1261 4.11991 7.00635 7.68529 6.56075L7.55158 6.02591L5.10049 6.60537L4.38733 8.92275L4.56565 10.438L5.05587 10.1261Z" fill="#5B6071"/>
<path fill-rule="evenodd" clip-rule="evenodd" d="M6.48212 14.2708L7.0657 13.7055C7.0657 13.7055 7.32899 13.736 7.3736 14.0479C7.41808 14.36 7.55179 17.1676 9.46804 18.6829C9.64295 18.8212 8.04201 18.46 8.04201 18.46L6.61597 16.2318M14.6825 13.4241C14.6825 13.4241 14.7865 12.0732 15.1501 12.1771C15.514 12.281 15.514 12.6446 15.514 12.6446C15.514 12.6446 14.6305 13.2162 14.6825 13.4241Z" fill="#5B6071"/>
<path d="M18.3817 8.47728C18.3817 8.47728 17.6472 8.63237 17.5795 9.27954C17.5119 9.9267 18.3817 9.41324 18.5154 9.36863M12.9888 8.5219C12.9888 8.5219 12.0082 8.65561 12.0082 9.27939C12.0082 9.90346 13.1225 9.85885 13.4344 9.59157" fill="#5B6071"/>
<path fill-rule="evenodd" clip-rule="evenodd" d="M6.9277 11.4186C6.9277 11.4186 5.2341 10.3935 5.05592 11.3741C4.87773 12.3544 4.47646 13.0676 5.32333 14.0925L4.74402 13.9143L4.20919 12.5329L4.03101 11.1958L5.05592 10.1261L6.21468 10.2153L6.88322 10.75L6.9277 11.4186ZM7.72995 8.61098C7.72995 8.61098 8.48758 4.68924 12.3204 3.9316C15.4758 3.30796 17.1335 4.06531 17.7574 4.77833C17.7574 4.77833 14.9498 1.43604 12.2758 2.46095C9.60173 3.486 7.641 5.35778 7.68547 6.56087C7.76131 8.61027 7.72995 8.61098 7.72995 8.61098ZM18.0696 5.22321C18.0696 5.22321 16.7772 5.17874 16.7325 6.3375C16.7325 6.3375 16.7325 6.51568 16.8216 6.69387C16.8216 6.69387 17.8468 5.53511 18.4706 6.15918" fill="#5B6071"/>
<path fill-rule="evenodd" clip-rule="evenodd" d="M12.4102 6.81546C12.4102 6.81546 12.1878 5.0369 10.6712 6.07094C9.69079 6.73948 9.78003 7.6753 9.95821 7.85348C10.1364 8.03167 10.0879 8.39088 10.2236 8.14428C10.3593 7.89796 10.3146 7.0957 10.8049 6.87305C11.2952 6.6501 12.099 6.40122 12.4102 6.81546Z" fill="#5B6071"/>
<path fill-rule="evenodd" clip-rule="evenodd" d="M8.22014 18.8611L4.03098 20.7329C4.03098 20.7329 5.76905 27.6407 4.8777 29.7799L4.25378 29.5571L4.20916 26.9277L3.05054 21.9364L2.56018 20.5548L6.92767 17.6137L8.22014 18.8614M8.65091 22.6818L9.24533 23.4069V26.0811H8.53217C8.53217 26.0811 8.44308 24.2092 8.44308 23.9862C8.44308 23.7634 8.53203 22.9613 8.53203 22.9613M8.66574 26.4821L6.66025 26.5712L7.2397 26.9721L8.66574 27.1951" fill="#5B6071"/>
<path fill-rule="evenodd" clip-rule="evenodd" d="M15.9741 26.0363L18.4698 25.9026C18.4698 25.9026 19.4947 23.3178 19.4947 23.1843C19.4947 23.0504 20.3861 19.4406 20.3861 19.4406L18.3806 17.346L17.9796 16.9895L16.9099 18.059V22.2037L15.9741 26.0363Z" fill="#5B6071"/>
<path fill-rule="evenodd" clip-rule="evenodd" d="M17.0889 25.7243L15.5291 26.0362L15.7519 27.2842C16.3312 27.5516 17.3118 26.8384 17.3118 26.8384M17.133 17.9253L20.2527 20.2427L20.3419 19.1731L17.9799 16.9893L17.133 17.9253Z" fill="#5B6071"/>
<path d="M15.8729 25.6802L14.8925 23.1845L13.8676 21.7139C13.8676 21.7139 14.0902 21.09 14.4021 21.09H15.4273L16.4077 21.4465L16.3186 23.0954L15.8729 25.6804" fill="#5B6071"/>
<path fill-rule="evenodd" clip-rule="evenodd" d="M16.0639 24.8329C16.0639 24.8329 14.8159 22.4265 14.8159 22.07C14.8159 22.07 15.0387 21.5351 15.3507 21.6688C15.6629 21.8025 16.3313 22.1591 16.3313 22.1591V21.3123L14.816 21.0001L13.7911 21.134L15.5292 25.2341L15.8856 25.2787" fill="#5B6071"/>
<path d="M10.6135 18.9508L9.37894 18.8165L8.22003 18.46V18.8611L8.78623 19.4855L10.5689 20.2876" fill="#5B6071"/>
<path fill-rule="evenodd" clip-rule="evenodd" d="M8.62144 19.0843C8.62144 19.0843 10.0031 19.6638 10.4487 19.5301L10.4931 20.0643L9.24551 19.7975L8.48773 19.2626L8.62144 19.0843Z" fill="#5B6071"/>
<path fill-rule="evenodd" clip-rule="evenodd" d="M17.6505 21.2416C16.8943 21.2194 16.211 21.1296 15.6129 20.9608C15.6535 20.7156 15.5774 20.475 15.6386 20.2984C15.8054 20.1782 16.0847 20.1801 16.3368 20.152C16.1188 20.0448 15.8126 20.0025 15.5613 20.0643C15.5553 19.8941 15.4789 19.7886 15.4327 19.6555C15.8578 19.5038 16.8616 18.5089 17.4261 18.8384C17.6951 18.9951 17.8094 19.89 17.8302 20.3252C17.8476 20.6863 17.7974 21.0505 17.6505 21.2418" fill="#5B6071"/>
<path d="M17.6505 21.2416C16.8943 21.2194 16.211 21.1296 15.6129 20.9608C15.6535 20.7156 15.5774 20.475 15.6386 20.2984C15.8054 20.1782 16.0847 20.1801 16.3368 20.152C16.1188 20.0448 15.8126 20.0025 15.5613 20.0643C15.5553 19.8941 15.4789 19.7886 15.4327 19.6555C15.8578 19.5038 16.8616 18.5089 17.4261 18.8384C17.6951 18.9951 17.8094 19.89 17.8302 20.3252C17.8476 20.6863 17.7974 21.0505 17.6505 21.2418V21.2416Z" stroke="#5B6071" stroke-width="0.285093"/>
<path fill-rule="evenodd" clip-rule="evenodd" d="M14.0341 20.0055C14.0321 20.0626 14.0298 20.1203 14.0274 20.1779C13.7913 20.3332 13.4101 20.3313 13.151 20.4616C13.533 20.4783 13.8338 20.5704 14.0938 20.6999L14.077 21.1323C13.6442 21.4285 13.2488 21.8697 12.7393 22.1475C12.4984 22.2789 11.6528 22.6171 11.3965 22.5573C11.2516 22.5237 11.2384 22.3436 11.1804 22.174C11.057 21.8108 10.7726 21.2325 10.7478 20.6858C10.7161 19.995 10.6466 18.8374 11.3907 18.9797C11.9912 19.0943 12.6897 19.371 13.1547 19.625C13.4388 19.7804 13.603 19.9722 14.0341 20.0055Z" fill="#5B6071"/>
<path d="M14.0341 20.0055C14.0321 20.0626 14.0298 20.1203 14.0274 20.1779C13.7913 20.3332 13.4101 20.3313 13.151 20.4616C13.533 20.4783 13.8338 20.5704 14.0938 20.6999L14.077 21.1323C13.6442 21.4285 13.2488 21.8697 12.7393 22.1475C12.4984 22.2789 11.6528 22.6171 11.3965 22.5573C11.2516 22.5237 11.2384 22.3436 11.1804 22.174C11.057 21.8108 10.7726 21.2325 10.7478 20.6858C10.7161 19.995 10.6466 18.8374 11.3907 18.9797C11.9912 19.0943 12.6897 19.371 13.1547 19.625C13.4388 19.7804 13.603 19.9722 14.0341 20.0055Z" stroke="#5B6071" stroke-width="0.285093"/>
<path fill-rule="evenodd" clip-rule="evenodd" d="M14.4638 20.8295C14.3978 20.4532 14.3214 20.3459 14.3509 20.0177C15.3545 19.3488 15.5428 21.1668 14.4638 20.8295Z" fill="#5B6071"/>
<path d="M14.4638 20.8295C14.3978 20.4532 14.3214 20.3459 14.3509 20.0177C15.3545 19.3488 15.5428 21.1668 14.4638 20.8295Z" stroke="#5B6071" stroke-width="0.285093"/>
<path fill-rule="evenodd" clip-rule="evenodd" d="M15.9171 21.1344C15.9171 21.1344 15.6049 20.6887 15.8278 20.555C16.0508 20.4213 16.2736 20.555 16.4073 20.3322C16.541 20.1094 16.4073 19.9757 16.4519 19.7082C16.4965 19.4408 16.7195 19.3962 16.9423 19.3517C17.1649 19.3071 17.789 19.218 17.8781 19.4408L17.6107 18.6387L17.0758 18.4605L15.3824 19.4408L15.2931 19.9312V20.9115M11.2374 22.6052C11.1838 21.9096 11.1272 21.2151 11.0642 20.5203C10.9698 19.4827 11.3134 19.6638 12.2127 19.6638C12.3501 19.6638 13.0584 19.8277 13.1092 19.9312C13.3522 20.4277 12.7028 20.3174 13.3891 20.6917C13.9686 21.0076 14.9922 20.4998 14.758 19.7975C14.627 19.6414 14.0754 19.7489 13.8777 19.6464L12.8332 19.1047C12.3902 18.8749 11.3664 18.5399 10.8942 18.8611C9.69747 19.675 10.9697 21.7083 11.3965 22.5573" fill="#5B6071"/>
<path fill-rule="evenodd" clip-rule="evenodd" d="M12.4102 6.81546C11.1955 6.5325 10.592 7.32378 10.2238 8.14442C9.89508 8.06474 10.0258 7.61771 10.1089 7.38978C10.3263 6.79194 11.2025 5.99596 11.9184 6.10401C12.2264 6.15033 12.6434 6.43215 12.4102 6.81546ZM18.329 8.19816L18.3866 8.20044C18.6611 8.77063 18.8988 9.37474 19.245 9.87807C19.0129 10.4183 17.4885 10.8964 17.5121 9.92625C17.8418 9.78228 18.4108 9.89689 18.7032 9.71286C18.5341 9.24901 18.2902 8.85416 18.329 8.19816ZM13.032 8.21384C13.2924 8.69137 13.3772 9.19285 13.7474 9.55378C13.9142 9.71628 14.2383 9.91428 14.0775 10.366C14.0401 10.4725 13.7655 10.7101 13.6071 10.7567C13.0284 10.9278 11.6798 10.7921 12.1365 10.0705C12.6152 10.0929 13.2585 10.3813 13.6161 10.0339C13.3414 9.59469 12.8516 8.72573 13.032 8.21384ZM18.1109 13.0657C17.2395 13.6255 16.2678 14.2342 14.8399 14.093C14.5348 13.8279 14.4185 13.2375 14.7149 12.8476C14.8691 13.1129 14.7722 13.6008 15.2022 13.6742C16.0125 13.8128 16.9554 13.1786 17.5381 12.9569C17.8995 12.3476 17.5069 12.1235 17.1814 11.7315C16.5149 10.9281 15.6209 9.93224 15.6533 8.72943C15.9227 8.53414 15.9459 9.02764 15.9847 9.11744C16.3325 9.93196 17.2084 10.9735 17.8478 11.6707C18.0046 11.8425 18.2631 12.0071 18.2918 12.1208C18.3748 12.4508 18.0761 12.8463 18.1108 13.0658M6.62278 12.4764C6.34966 12.3205 6.28466 11.634 5.96393 11.6143C5.50564 11.5865 5.58918 12.5052 5.59103 13.0423C5.27557 12.7559 5.22012 11.8743 5.4519 11.4216C5.18776 11.2919 5.06988 11.5645 4.92334 11.6606C5.1115 10.2929 6.92412 11.0263 6.62278 12.4764ZM18.6654 13.6353C18.2597 14.4075 17.686 15.2578 16.4956 15.2824C16.4713 15.033 16.4528 14.6537 16.4968 14.5036C17.4069 14.416 17.9688 13.9529 18.6654 13.6353ZM12.9634 14.1359C13.7226 14.5351 15.1178 14.5781 16.1497 14.5479C16.2051 14.774 16.2038 15.0532 16.2059 15.3291C14.8795 15.3951 13.3112 15.0668 12.9634 14.1359ZM12.819 14.8803C13.344 16.1984 15.1484 16.0466 16.67 16.0103C16.603 16.1813 16.4578 16.3838 16.2773 16.4567C15.7898 16.6552 14.4449 16.8057 13.7679 16.4462C13.3387 16.218 13.0629 15.7022 12.8277 15.3999C12.7141 15.2539 12.1483 14.881 12.819 14.8803Z" fill="#5B6071"/>
<path fill-rule="evenodd" clip-rule="evenodd" d="M18.0482 22.1512C17.4321 23.2064 16.8427 24.2901 16.1117 25.2208C16.4182 24.3199 16.5493 22.8118 16.5955 21.6621C17.2367 21.3621 17.7856 21.7299 18.0482 22.1512Z" fill="#5B6071"/>
<path fill-rule="evenodd" clip-rule="evenodd" d="M15.8401 18.8058C15.5228 19.0129 15.2527 19.2715 14.9479 19.4926C14.2722 19.5261 13.9035 19.4458 13.407 19.0578C13.4151 19.0266 13.465 19.0406 13.4669 19.0022C14.1903 19.3247 15.1097 18.8711 15.8401 18.8058Z" fill="#5B6071"/>
<path fill-rule="evenodd" clip-rule="evenodd" d="M12.0432 23.7362C12.2419 22.8752 13.0207 22.429 13.7277 21.9548C14.4575 22.8811 14.9014 24.0723 15.3902 25.222C14.2353 24.8737 13.0555 24.3088 12.0432 23.7362Z" fill="#5B6071"/>
<path fill-rule="evenodd" clip-rule="evenodd" d="M16.1038 30.6158C16.0743 31.32 16.1731 32.4489 16.2062 33.1875C16.6742 33.188 16.8749 33.0851 17.2242 32.9672C17.2636 32.0983 16.9491 31.2942 16.8585 30.5006C16.6734 30.4513 16.334 30.6309 16.1038 30.6158ZM8.81542 26.6116C9.12403 29.4492 9.57106 31.8344 10.3911 34.3471C12.2109 34.8996 14.4048 34.9478 16.0133 34.4491C15.718 33.0311 15.847 31.3046 15.6743 29.7911C15.5443 28.6536 15.6106 27.5091 15.4323 26.3486C13.4833 25.9432 10.7281 26.2538 8.81542 26.6116ZM15.893 26.3665C15.8766 27.5851 15.9476 28.7872 16.0407 30.0074C16.5085 29.9371 16.8261 29.8902 17.2609 29.795C17.1198 28.6203 17.137 27.2984 16.8495 26.2593C16.5171 26.2625 16.2244 26.2554 15.893 26.3665ZM18.2668 26.17C18.0447 26.1191 17.7862 26.168 17.5741 26.1722C17.6738 27.1656 17.9157 28.2618 18.001 29.3045C18.3348 29.3149 18.5132 29.1574 18.7878 29.1045C18.8024 28.1892 18.7077 26.9281 18.2668 26.17ZM21.8612 29.454C22.5571 29.285 22.9947 28.4327 22.8 27.5574C22.6694 26.9691 22.4368 25.8614 22.1877 25.4851C22.0038 25.2067 21.5049 24.8422 21.1067 25.0974C20.4588 25.5122 19.3174 25.6326 18.8449 26.1348C19.0818 26.9237 19.1553 28.0072 19.2531 29.0066C20.0625 29.057 21.0585 28.7839 21.7316 29.0737C21.2616 29.2259 20.6518 29.2272 20.2458 29.449C20.5777 29.6094 21.3545 29.5769 21.8612 29.454ZM15.3897 25.2218C14.9007 24.0725 14.457 22.8812 13.7272 21.9549C13.0201 22.4292 12.2414 22.8752 12.0427 23.7363C13.0548 24.3089 14.2349 24.8739 15.3898 25.222L15.3897 25.2218ZM16.5946 21.6623C16.5483 22.8119 16.4171 24.3199 16.1107 25.221C16.8417 24.2901 17.4311 23.2065 18.0472 22.1514C17.7846 21.7298 17.2357 21.3622 16.5946 21.6623ZM15.2287 21.1769C14.9518 21.147 14.7167 21.4952 14.3568 21.3447C14.2741 21.4359 14.1993 21.5347 14.1152 21.6238C14.9104 22.5821 15.2718 23.9419 15.886 25.0681C16.2156 23.9862 16.1775 22.8011 16.2502 21.6202C15.7974 21.6489 15.546 21.2107 15.2287 21.1769ZM14.3505 20.0177C14.3209 20.346 14.3973 20.4533 14.4633 20.8295C15.5423 21.1669 15.3539 19.3487 14.3505 20.0177ZM13.154 19.625C12.6891 19.371 11.9906 19.0943 11.3901 18.9797C10.6457 18.8373 10.7156 19.9951 10.7472 20.6857C10.7719 21.2325 11.0563 21.8108 11.1798 22.174C11.2377 22.3437 11.2508 22.5237 11.3958 22.5575C11.6521 22.6171 12.4977 22.2789 12.7386 22.1476C13.2482 21.8697 13.6435 21.4285 14.0762 21.1323C14.082 20.9882 14.0874 20.8442 14.0932 20.7001C13.8329 20.5704 13.5323 20.4784 13.1503 20.4616C13.4094 20.3313 13.7906 20.3332 14.0266 20.1781C14.0289 20.1204 14.0313 20.0626 14.0333 20.0056C13.6023 19.9722 13.4382 19.7804 13.154 19.625ZM8.71336 18.8183C8.32748 19.21 9.79557 19.744 10.263 19.7728C10.2604 19.5249 10.4042 19.2913 10.3753 19.1134C9.82009 19.0159 9.09068 19.0803 8.71336 18.8183ZM13.4666 19.0022C13.4647 19.0407 13.4148 19.0267 13.4067 19.0578C13.9031 19.4458 14.272 19.5261 14.9476 19.4926C15.2523 19.2715 15.5225 19.0129 15.8398 18.8058C15.1094 18.8711 14.19 19.3247 13.4667 19.0024L13.4666 19.0022ZM17.8294 20.3253C17.8085 19.8901 17.6942 18.9951 17.4252 18.8384C16.8606 18.5089 15.8569 19.5038 15.4319 19.6555C15.4781 19.7886 15.5545 19.8941 15.5603 20.0643C15.8118 20.0025 16.1179 20.0448 16.3358 20.152C16.0839 20.1802 15.8045 20.1784 15.6377 20.2984C15.5766 20.475 15.6527 20.7156 15.612 20.9608C16.2102 21.1296 16.8934 21.2194 17.6496 21.2416C17.7967 21.0505 17.8468 20.6864 17.8294 20.3253ZM8.06377 19.1971C7.94261 19.1107 7.12296 18.0443 7.01064 18.0885C5.52744 18.6734 4.1406 19.6849 2.9013 20.6415C4.08301 23.177 4.55983 26.2834 4.64422 29.2773C5.99784 29.9103 7.18668 30.823 9.02354 30.9183C8.811 29.4144 8.617 28.0727 8.49626 26.6568C8.03484 26.4623 7.37271 26.6657 6.94065 26.5965C6.93708 26.0761 7.60035 26.3685 7.65552 26.0186C7.69714 25.7538 7.2906 25.7338 7.42303 25.3169C7.76058 25.4396 7.9379 25.7107 8.29798 25.8125C8.62712 25.0927 8.29342 23.819 8.34074 23.2175C8.34986 23.1046 8.39733 22.5917 8.65035 22.6816C8.87415 22.7613 8.63752 24.0457 8.66204 24.615C8.68442 25.1396 8.59875 25.6473 8.81115 25.9766C10.6346 25.7268 12.4702 25.5764 14.31 25.5261C13.8875 25.3448 13.3856 25.1733 12.8354 24.8632C12.537 24.695 11.5966 24.345 11.5107 24.0618C11.3733 23.6103 11.8711 23.3697 11.9562 22.9827C11.0602 23.4713 10.8855 22.5143 10.6735 21.8363C10.4815 21.2222 10.3722 20.7635 10.325 20.4094C9.55324 20.0415 8.72804 19.6689 8.06377 19.1971ZM17.0455 18.2175C18.2814 17.6182 18.504 20.457 18.0197 21.3716C18.0945 21.6445 18.3519 21.7488 18.4571 21.994C17.7675 23.2294 17.0016 24.3825 16.2978 25.6033C16.8213 25.2774 17.5689 25.545 18.1849 25.3011C18.4101 25.2121 18.5729 24.6967 18.7434 24.2843C19.2123 23.1499 19.7046 21.7199 19.9237 20.6371C19.973 20.3905 20.1078 19.8531 20.0776 19.6336C20.0237 19.2404 19.4903 18.9489 19.2192 18.7059C18.7194 18.2568 18.4047 17.8618 17.8834 17.442C17.672 17.7541 17.2183 17.9638 17.0455 18.2175ZM5.2375 7.25879C4.64878 7.90667 4.77194 9.12074 4.84322 9.98443C5.90761 9.31488 7.32025 10.0375 7.30699 11.1761C7.81517 11.1627 7.49686 10.5415 7.40492 10.1414C7.10458 8.83436 7.91096 7.41445 7.44141 6.21906C6.52983 6.28819 5.78075 6.66053 5.2375 7.25879ZM9.45089 3.49841C8.1178 3.87616 6.40938 4.84491 5.86157 6.04244C6.28579 5.98086 6.58015 5.7669 6.99866 5.74039C7.15689 5.73012 7.36401 5.80681 7.54576 5.76148C7.90783 5.67168 8.21359 4.85959 8.48685 4.55739C8.75313 4.26232 9.07329 4.13631 9.29238 3.86732C9.43322 3.79933 9.64134 3.80403 9.64932 3.59263C9.58831 3.52749 9.52402 3.4776 9.45089 3.49841ZM16.3902 3.85378C15.0065 3.07305 12.6646 2.4859 11.1927 3.21959C10.0051 3.81187 8.39976 4.79145 7.85238 6.03303C8.36369 7.23114 7.70099 8.32889 7.65851 9.54538C7.63613 10.1925 7.96342 10.7576 7.98851 11.4621C7.81346 11.7507 7.27891 11.7864 6.90886 11.7665C6.78442 11.1433 6.56632 10.4427 5.92443 10.3724C5.01627 10.2731 4.35214 11.0247 4.31095 11.81C4.2622 12.7337 5.02054 14.2647 6.0952 14.1585C6.51044 14.1176 6.61251 13.7013 7.06481 13.7056C7.30999 14.1948 6.68663 14.3485 6.62248 14.6983C6.60581 14.7887 6.67423 15.1419 6.714 15.3075C6.90929 16.1141 7.34434 17.1581 7.77269 17.7722C8.31637 18.5511 9.38447 18.6685 10.5338 18.7448C10.7391 18.3027 11.495 18.3391 11.9878 18.4547C11.3972 18.2209 10.8484 17.654 10.3934 17.1522C9.87098 16.5765 9.3417 15.959 9.31491 15.2065C10.3023 16.5764 11.1181 17.7727 12.9136 18.3753C14.2721 18.8309 15.8589 18.1665 16.9029 17.4333C17.3361 17.1287 17.5947 16.6452 17.9026 16.2026C19.0547 14.5454 19.5924 12.1801 19.4741 9.88735C19.4253 8.94184 19.4275 7.99947 19.1103 7.36342C18.7787 6.6983 17.6573 6.10331 17.0006 6.70486C16.879 6.05812 17.5465 5.65799 18.3307 5.89091C17.7716 5.1692 17.1848 4.30223 16.3901 3.85392L16.3902 3.85378ZM18.968 25.1873C20.0492 24.6499 22.0694 23.7406 22.7472 25.1893C22.9974 25.7233 23.2909 26.626 23.4205 27.1773C23.6035 27.955 23.222 29.5896 22.4226 29.8506C21.7166 30.0811 20.8927 30.067 20.0421 29.8962C19.942 29.8128 19.8306 29.6677 19.7527 29.5163C19.1454 29.4928 18.5767 29.549 18.0971 29.7986C18.1425 30.2476 17.8388 30.3197 17.554 30.4122C17.343 31.2493 17.9763 32.3424 17.8248 33.1058C17.7165 33.6496 17.0475 33.7337 16.5558 33.8353C16.5397 34.1375 16.5772 34.3898 16.6109 34.6454C16.4984 35.0598 15.9941 35.2956 15.5163 35.3535C13.9441 35.5425 11.557 35.6274 10.0447 35.0836C9.62281 34.0486 9.29039 32.7896 8.93887 31.6078C7.46408 31.7653 6.27111 30.9714 5.1467 30.4513C4.7574 30.2708 4.21872 30.1713 4.07332 29.8614C3.9322 29.5614 3.99007 28.9862 3.95501 28.4431C3.86592 27.0557 3.78965 25.7176 3.42331 24.297C3.25881 23.6595 2.97215 23.097 2.77216 22.4828C2.58727 21.9134 2.26426 21.2098 2.17987 20.6425C2.05486 19.801 2.84713 19.7541 3.35375 19.3895C4.1369 18.8259 4.75156 18.514 5.59971 18.0052C5.85088 17.8546 6.60851 17.4731 6.69461 17.2974C6.86595 16.9491 6.40068 16.458 6.27624 16.1851C6.07952 15.7531 5.97689 15.3865 5.94867 14.9606C5.23707 14.8481 4.69782 14.4246 4.3721 13.9472C3.83313 13.1571 3.45937 11.6953 3.92564 10.5833C3.96228 10.4957 4.14459 10.3235 4.17154 10.1891C4.22456 9.92427 4.07175 9.57204 4.06206 9.29037C4.01317 7.84495 4.30667 6.5998 5.27955 6.16403C5.67455 4.5906 7.08818 4.06717 8.42014 3.2853C8.91806 2.99308 9.46686 2.80635 10.0338 2.59766C12.0669 1.84929 15.1868 1.99027 16.8742 3.26649C17.5897 3.80774 18.7335 4.95039 19.1426 5.77773C20.2231 7.96198 20.1465 11.6123 19.3907 14.2694C19.2892 14.6262 19.1418 15.1505 18.9359 15.579C18.7925 15.8783 18.3467 16.477 18.4008 16.7411C18.4566 17.0143 19.4175 17.7438 19.6235 17.9425C19.9945 18.3003 20.6994 18.7754 20.7564 19.2272C20.8177 19.7078 20.5447 20.3652 20.4063 20.8291C19.9438 22.3769 19.4923 23.8076 18.9679 25.1876" fill="#5B6071"/>
<path fill-rule="evenodd" clip-rule="evenodd" d="M11.7553 14.4731C11.8139 14.395 12.1365 14.2764 12.5878 14.4936C12.5878 14.4936 12.0529 14.5828 12.0974 15.4745L11.8745 15.4298C11.8745 15.4298 11.6443 14.6213 11.7553 14.4731Z" fill="#5B6071"/>
<path fill-rule="evenodd" clip-rule="evenodd" d="M15.6633 22.1368C15.6633 22.2018 15.6375 22.2642 15.5915 22.3102C15.5455 22.3561 15.4831 22.3819 15.4181 22.3819C15.3531 22.3819 15.2907 22.356 15.2447 22.3101C15.1988 22.2641 15.173 22.2017 15.173 22.1367C15.173 22.0716 15.1988 22.0093 15.2448 21.9633C15.2908 21.9174 15.3532 21.8915 15.4182 21.8916C15.4833 21.8916 15.5456 21.9174 15.5916 21.9634C15.6375 22.0094 15.6634 22.0718 15.6633 22.1368ZM15.9085 23.2732C15.9085 23.3054 15.9022 23.3373 15.8899 23.367C15.8775 23.3968 15.8595 23.4238 15.8367 23.4466C15.8139 23.4693 15.7869 23.4874 15.7572 23.4997C15.7274 23.512 15.6955 23.5184 15.6633 23.5184C15.6311 23.5184 15.5993 23.512 15.5695 23.4997C15.5398 23.4874 15.5127 23.4693 15.49 23.4466C15.4672 23.4238 15.4491 23.3968 15.4368 23.367C15.4245 23.3373 15.4182 23.3054 15.4182 23.2732C15.4182 23.2082 15.444 23.1458 15.49 23.0998C15.5359 23.0538 15.5983 23.028 15.6633 23.028C15.7284 23.028 15.7907 23.0538 15.8367 23.0998C15.8827 23.1458 15.9085 23.2082 15.9085 23.2732Z" fill="#5B6071"/>
<path d="M11.0928 22.3536H3.28739C3.22548 22.3536 3.17529 22.4038 3.17529 22.4657V22.7114C3.17529 22.7733 3.22548 22.8235 3.28739 22.8235H11.0928C11.1547 22.8235 11.2049 22.7733 11.2049 22.7114V22.4657C11.2049 22.4038 11.1547 22.3536 11.0928 22.3536Z" fill="#5B6071"/>
<path d="M19.4641 22.3535H12.5556C12.4937 22.3535 12.4435 22.4036 12.4435 22.4655V22.7113C12.4435 22.7732 12.4937 22.8233 12.5556 22.8233H19.4641C19.526 22.8233 19.5762 22.7732 19.5762 22.7113V22.4655C19.5762 22.4036 19.526 22.3535 19.4641 22.3535Z" fill="#5B6071"/>
<path d="M10.8792 22.1254H3.28733C3.22546 22.1254 3.17529 22.1756 3.17529 22.2374V22.4832C3.17529 22.5451 3.22546 22.5952 3.28733 22.5952H10.8792C10.9411 22.5952 10.9913 22.5451 10.9913 22.4832V22.2374C10.9913 22.1756 10.9411 22.1254 10.8792 22.1254Z" fill="#5B6071"/>
<path d="M19.4641 22.1254H13.2389C13.1771 22.1254 13.1269 22.1756 13.1269 22.2374V22.4832C13.1269 22.5451 13.1771 22.5952 13.2389 22.5952H19.4641C19.526 22.5952 19.5761 22.5451 19.5761 22.4832V22.2374C19.5761 22.1756 19.526 22.1254 19.4641 22.1254Z" fill="#5B6071"/>
</g>
</svg>
