<svg width="24" height="25" viewBox="0 0 24 25" fill="none" xmlns="http://www.w3.org/2000/svg">
<path d="M8.38255 7.81818H10.5104V14.9176C10.5104 15.5739 10.3629 16.1439 10.0679 16.6278C9.77625 17.1117 9.37024 17.4846 8.84988 17.7464C8.32952 18.0083 7.72464 18.1392 7.03525 18.1392C6.42208 18.1392 5.86526 18.0315 5.36479 17.8161C4.86763 17.5973 4.47322 17.2659 4.18155 16.8217C3.88989 16.3743 3.74571 15.8125 3.74902 15.1364H5.89178C5.89841 15.4048 5.9531 15.6352 6.05584 15.8274C6.1619 16.0163 6.30608 16.1622 6.48837 16.2649C6.67398 16.3643 6.89273 16.4141 7.14462 16.4141C7.40977 16.4141 7.63349 16.3577 7.81578 16.245C8.00139 16.129 8.14225 15.96 8.23837 15.7379C8.33449 15.5159 8.38255 15.2424 8.38255 14.9176V7.81818ZM17.8137 10.7464C17.7739 10.3454 17.6032 10.0339 17.3016 9.81179C17 9.58972 16.5906 9.47869 16.0736 9.47869C15.7223 9.47869 15.4256 9.52841 15.1837 9.62784C14.9417 9.72396 14.7561 9.85819 14.6269 10.0305C14.5009 10.2029 14.4379 10.3984 14.4379 10.6172C14.4313 10.7995 14.4694 10.9586 14.5523 11.0945C14.6385 11.2304 14.7561 11.348 14.9053 11.4474C15.0544 11.5436 15.2268 11.6281 15.4223 11.701C15.6179 11.7706 15.8267 11.8303 16.0487 11.88L16.9635 12.0987C17.4076 12.1982 17.8153 12.3307 18.1865 12.4964C18.5577 12.6622 18.8792 12.866 19.151 13.108C19.4228 13.3499 19.6333 13.6349 19.7824 13.9631C19.9349 14.2912 20.0128 14.6674 20.0161 15.0916C20.0128 15.7147 19.8537 16.255 19.5388 16.7124C19.2272 17.1664 18.7765 17.5194 18.1865 17.7713C17.5999 18.0199 16.8923 18.1442 16.0637 18.1442C15.2417 18.1442 14.5258 18.0182 13.9159 17.7663C13.3094 17.5144 12.8354 17.1416 12.4941 16.6477C12.156 16.1506 11.9787 15.5357 11.9621 14.8033H14.0452C14.0684 15.1446 14.1662 15.4297 14.3385 15.6584C14.5142 15.8838 14.7478 16.0545 15.0395 16.1705C15.3345 16.2831 15.6676 16.3395 16.0388 16.3395C16.4034 16.3395 16.7199 16.2865 16.9884 16.1804C17.2602 16.0743 17.4706 15.9268 17.6198 15.7379C17.7689 15.549 17.8435 15.3319 17.8435 15.0866C17.8435 14.858 17.7755 14.6657 17.6396 14.5099C17.5071 14.3542 17.3115 14.2216 17.053 14.1122C16.7978 14.0028 16.4846 13.9034 16.1134 13.8139L15.0047 13.5355C14.1463 13.3267 13.4685 13.0002 12.9713 12.5561C12.4742 12.112 12.2272 11.5137 12.2306 10.7614C12.2272 10.1449 12.3913 9.6063 12.7227 9.1456C13.0575 8.6849 13.5165 8.32528 14.0999 8.06676C14.6832 7.80824 15.3461 7.67898 16.0885 7.67898C16.8442 7.67898 17.5038 7.80824 18.0672 8.06676C18.634 8.32528 19.0748 8.6849 19.3896 9.1456C19.7045 9.6063 19.8669 10.1399 19.8769 10.7464H17.8137Z" fill="#5B6071"/>
</svg>
