<svg width="24" height="25" viewBox="0 0 24 25" fill="none" xmlns="http://www.w3.org/2000/svg">
<path d="M10.8808 16.6769C10.8808 18.9838 9.08867 20.8539 6.8779 20.8539C4.66713 20.8539 2.875 18.9838 2.875 16.6769C2.875 14.3701 4.66713 12.5 6.8779 12.5C9.08867 12.5 10.8808 14.3701 10.8808 16.6769Z" fill="#5B6071"/>
<path d="M15.5029 8.32306C15.5029 10.6299 13.7108 12.5 11.5 12.5C9.28923 12.5 7.4971 10.6299 7.4971 8.32306C7.4971 6.01617 9.28923 4.14612 11.5 4.14612C13.7108 4.14612 15.5029 6.01617 15.5029 8.32306Z" fill="#5B6071"/>
<path d="M20.125 16.6769C20.125 18.9838 18.3329 20.8539 16.1221 20.8539C13.9113 20.8539 12.1192 18.9838 12.1192 16.6769C12.1192 14.3701 13.9113 12.5 16.1221 12.5C18.3329 12.5 20.125 14.3701 20.125 16.6769Z" fill="#5B6071"/>
</svg>
