<svg width="24" height="24" viewBox="0 0 24 24" fill="none" xmlns="http://www.w3.org/2000/svg">
<path d="M12 3.36C10.0603 3.36218 8.17765 4.01692 6.65514 5.21884C5.13264 6.42077 4.05878 8.09998 3.6064 9.98624C4.30787 9.05946 5.47745 8.26923 6.96975 7.71377C8.46206 7.15831 10.2113 6.86212 12 6.862C13.7926 6.86315 15.5449 7.16163 17.0382 7.72021C18.5315 8.27878 19.6996 9.07271 20.3968 10.0029C19.9475 8.11299 18.8746 6.42959 17.3511 5.22434C15.8277 4.01909 13.9426 3.36236 12 3.36ZM3.60321 14.0008C4.05249 15.8907 5.12542 17.5741 6.64887 18.7794C8.17233 19.9846 10.0574 20.6414 12 20.6438C13.9398 20.6416 15.8224 19.9868 17.3449 18.7849C18.8674 17.583 19.9412 15.9038 20.3936 14.0175C19.6921 14.9443 18.5226 15.7345 17.0303 16.29C15.538 16.8455 13.7887 17.1416 12 17.1418C10.2074 17.1406 8.45511 16.8421 6.96182 16.2836C5.46853 15.725 4.30039 14.931 3.60321 14.0008Z" fill="#5B6071"/>
<path d="M4.92002 23.1542C5.91974 23.1542 6.73018 22.3438 6.73018 21.344C6.73018 20.3443 5.91974 19.5339 4.92002 19.5339C3.9203 19.5339 3.10986 20.3443 3.10986 21.344C3.10986 22.3438 3.9203 23.1542 4.92002 23.1542Z" fill="#5B6071"/>
<path d="M3.704 5.21738C4.43818 5.21738 5.03335 4.6222 5.03335 3.88801C5.03335 3.15382 4.43818 2.55865 3.704 2.55865C2.96981 2.55865 2.37463 3.15382 2.37463 3.88801C2.37463 4.6222 2.96981 5.21738 3.704 5.21738Z" fill="#5B6071"/>
<path d="M19.344 4.36906C20.2813 4.36906 21.041 3.60927 21.041 2.67202C21.041 1.73477 20.2813 0.974976 19.344 0.974976C18.4068 0.974976 17.647 1.73477 17.647 2.67202C17.647 3.60927 18.4068 4.36906 19.344 4.36906Z" fill="#5B6071"/>
</svg>
