<svg width="24" height="24" viewBox="0 0 24 24" fill="none" xmlns="http://www.w3.org/2000/svg">
<path d="M1.12299 4.88101V13.337L4.76599 9.69402C4.84309 9.61735 4.90427 9.52619 4.94602 9.4258C4.98777 9.3254 5.00926 9.21775 5.00926 9.10901C5.00926 9.00028 4.98777 8.89263 4.94602 8.79223C4.90427 8.69183 4.84309 8.60068 4.76599 8.52401L1.12299 4.88101ZM5.57299 18.947V10.491L1.92999 14.134C1.85289 14.2107 1.7917 14.3018 1.74995 14.4022C1.7082 14.5026 1.68671 14.6103 1.68671 14.719C1.68671 14.8277 1.7082 14.9354 1.74995 15.0358C1.7917 15.1362 1.85289 15.2273 1.92999 15.304L5.57299 18.947ZM22.952 8.25001L12.848 9.31601L12.815 9.35002L17.333 13.868L22.952 8.25001ZM6.59499 4.64001C6.59499 4.64001 6.63899 10.885 6.58899 13.054C6.55199 14.673 7.29199 15.16 7.99899 15.902C9.01699 16.969 11.021 18.87 11.021 18.87C11.417 19.26 12.046 19.263 12.439 18.87L15.924 15.385C16.0173 15.2921 16.0913 15.1817 16.1418 15.0601C16.1923 14.9385 16.2183 14.8082 16.2183 14.6765C16.2183 14.5449 16.1923 14.4145 16.1418 14.2929C16.0913 14.1713 16.0173 14.0609 15.924 13.968L6.59499 4.64001Z" fill="#5B6071"/>
</svg>
