<svg width="24" height="25" viewBox="0 0 24 25" fill="none" xmlns="http://www.w3.org/2000/svg">
<path fill-rule="evenodd" clip-rule="evenodd" d="M7 10.4998H17C18.6569 10.4998 20 11.843 20 13.4998V18.4998C20 20.1567 18.6569 21.4998 17 21.4998H7C5.34314 21.4998 4 20.1567 4 18.4998V13.4998C4 11.843 5.34315 10.4998 7 10.4998ZM7 12.4998C6.44772 12.4998 6 12.9476 6 13.4998V18.4998C6 19.0521 6.44772 19.4998 7 19.4998H17C17.5523 19.4998 18 19.0521 18 18.4998V13.4998C18 12.9476 17.5523 12.4998 17 12.4998H7Z" fill="#5B6071"/>
<path fill-rule="evenodd" clip-rule="evenodd" d="M16.2689 5.4315C15.3544 4.11179 13.6806 3.575 12.3531 3.50779C10.9524 3.43686 9.15252 3.84358 7.98517 5.341C7.49028 5.97583 7.2821 6.74824 7.17477 7.32772C7.05797 7.95832 7.01207 8.64809 7.00214 9.31525C6.99154 10.0276 7.02146 10.7772 7.07178 11.4996H9.07693C8.93005 9.50976 8.94468 7.36317 9.5625 6.57064C10.8281 4.94715 13.7812 5.35302 14.625 6.57064C15.0474 7.18021 15.0469 9.41727 14.941 11.4996H16.9435C16.9827 10.7007 17.0069 9.87261 16.9983 9.10985C16.9911 8.47562 16.961 7.83891 16.8867 7.28083C16.8271 6.83338 16.6993 6.05267 16.2689 5.4315Z" fill="#5B6071"/>
</svg>
