<svg width="24" height="24" viewBox="0 0 24 24" fill="none" xmlns="http://www.w3.org/2000/svg">
<path d="M13.921 16.802H7.19799V14.882H13.921M16.802 12.96H7.19799V11.04H16.802M16.802 9.11799H7.19799V7.19799H16.802M18.723 3.35599H5.27699C4.21099 3.35599 3.35699 4.21099 3.35699 5.27599V18.723C3.35699 19.2322 3.55928 19.7206 3.91935 20.0806C4.27942 20.4407 4.76778 20.643 5.27699 20.643H18.723C18.9752 20.6431 19.225 20.5936 19.4581 20.4971C19.6911 20.4007 19.9029 20.2593 20.0813 20.081C20.2597 19.9027 20.4012 19.691 20.4977 19.458C20.5943 19.225 20.644 18.9752 20.644 18.723V5.27699C20.6441 5.02477 20.5946 4.77499 20.4981 4.54193C20.4017 4.30887 20.2603 4.09709 20.082 3.9187C19.9037 3.7403 19.692 3.59879 19.459 3.50223C19.226 3.40568 18.9762 3.35599 18.724 3.35599H18.723Z" fill="#5B6071"/>
</svg>
