<svg width="24" height="24" viewBox="0 0 24 24" fill="none" xmlns="http://www.w3.org/2000/svg">
<path d="M12 7.68701L10.65 7.77801C9.778 6.74301 7.332 4.13501 4.896 4.13501C4.896 4.13501 2.897 7.13901 4.856 11.148C4.297 11.99 3.952 12.426 3.881 13.431L1.923 13.725L2.136 14.72L3.922 14.456L4.064 15.176L2.471 16.13L2.948 17.034L4.419 16.13C5.586 18.607 8.539 19.865 12 19.865C15.46 19.865 18.414 18.607 19.58 16.13L21.052 17.034L21.529 16.13L19.936 15.177L20.078 14.456L21.864 14.72L22.077 13.725L20.119 13.431C20.048 12.426 19.703 11.99 19.144 11.148C21.103 7.13901 19.104 4.13501 19.104 4.13501C16.668 4.13501 14.223 6.74301 13.35 7.77801L12 7.68701ZM8.956 10.731C9.22502 10.7313 9.48293 10.8383 9.67306 11.0286C9.8632 11.219 9.97 11.477 9.97 11.746C9.97 12.015 9.8632 12.273 9.67306 12.4634C9.48293 12.6537 9.22502 12.7607 8.956 12.761C8.6868 12.761 8.42863 12.6541 8.23828 12.4637C8.04793 12.2734 7.941 12.0152 7.941 11.746C7.941 11.4768 8.04793 11.2186 8.23828 11.0283C8.42863 10.8379 8.6868 10.731 8.956 10.731ZM15.045 10.731C15.314 10.7313 15.5719 10.8383 15.7621 11.0286C15.9522 11.219 16.059 11.477 16.059 11.746C16.059 12.015 15.9522 12.273 15.7621 12.4634C15.5719 12.6537 15.314 12.7607 15.045 12.761C14.7758 12.761 14.5176 12.6541 14.3273 12.4637C14.1369 12.2734 14.03 12.0152 14.03 11.746C14.03 11.4768 14.1369 11.2186 14.3273 11.0283C14.5176 10.8379 14.7758 10.731 15.045 10.731ZM10.985 13.776H13.015L12.305 15.186C12.508 15.836 13.075 16.313 13.776 16.313C14.1797 16.313 14.5668 16.1527 14.8522 15.8672C15.1376 15.5818 15.298 15.1947 15.298 14.791H15.806C15.806 15.3294 15.5921 15.8457 15.2114 16.2264C14.8307 16.6071 14.3144 16.821 13.776 16.821C13.015 16.821 12.356 16.405 12 15.806C11.8174 16.1147 11.5576 16.3705 11.2463 16.5485C10.9349 16.7264 10.5826 16.8203 10.224 16.821C9.68561 16.821 9.16927 16.6071 8.78857 16.2264C8.40787 15.8457 8.194 15.3294 8.194 14.791H8.702C8.702 15.1947 8.86235 15.5818 9.14778 15.8672C9.43321 16.1527 9.82034 16.313 10.224 16.313C10.924 16.313 11.492 15.836 11.695 15.187L10.985 13.776Z" fill="#5B6071"/>
</svg>
