<svg width="24" height="24" viewBox="0 0 24 24" fill="none" xmlns="http://www.w3.org/2000/svg">
<g clip-path="url(#clip0_3475_10303)">
<path d="M4.002 5.52002C3.347 6.59002 2.682 7.65802 2.026 8.72802C1.371 9.79002 0.718 10.871 0.0629997 11.941L0.0649997 11.943L0.0629997 11.945C0.718 13.015 1.371 14.095 2.026 15.156C2.681 16.226 3.346 17.296 4.002 18.367H7.332C6.668 17.297 6.014 16.227 5.358 15.157C4.705 14.087 4.051 13.011 3.397 11.943C4.051 10.875 4.705 9.79602 5.358 8.72802C6.01265 7.65663 6.67065 6.58729 7.332 5.52002H4.002Z" fill="#5B6071"/>
<path d="M3.999 5.52001L3.997 5.52101C4.652 6.59101 5.307 7.67201 5.961 8.73301C6.616 9.80301 7.281 10.873 7.935 11.943H11.266C10.602 10.873 9.947 9.80301 9.292 8.73301C8.639 7.66501 7.986 6.58801 7.332 5.51901L3.999 5.52001Z" fill="#5B6071"/>
<path d="M15.203 5.52001L15.205 5.52101C14.55 6.59101 13.895 7.67201 13.24 8.73301C12.585 9.80301 11.921 10.873 11.266 11.943H7.936C8.59706 10.8751 9.25473 9.80509 9.909 8.73301C10.563 7.66501 11.216 6.58801 11.87 5.51901L15.203 5.52001Z" fill="#5B6071"/>
<path d="M11.874 5.52001C12.5353 6.58729 13.1933 7.65663 13.848 8.72801C14.501 9.79601 15.155 10.875 15.809 11.943C15.155 13.011 14.501 14.088 13.848 15.156C13.1934 16.2281 12.5354 17.2981 11.874 18.366H15.204C15.859 17.295 16.523 16.226 17.178 15.156C17.833 14.096 18.488 13.016 19.144 11.946L19.142 11.943L19.144 11.941C18.489 10.871 17.834 9.78901 17.178 8.72801C16.523 7.65801 15.859 6.58901 15.204 5.51901L11.874 5.52001Z" fill="#5B6071"/>
<path d="M16.74 5.52001C17.4013 6.58729 18.0593 7.65663 18.714 8.72801C19.367 9.79601 20.019 10.875 20.674 11.943C20.019 13.011 19.367 14.088 18.714 15.156C18.059 16.226 17.404 17.296 16.74 18.367H20.07C20.725 17.297 21.389 16.227 22.044 15.157C22.699 14.095 23.354 13.015 24.01 11.945L24.008 11.943L24.01 11.941C23.355 10.871 22.7 9.78901 22.044 8.72801C21.389 7.65801 20.725 6.58901 20.07 5.51901L16.74 5.52001Z" fill="#5B6071"/>
</g>
<defs>
<clipPath id="clip0_3475_10303">
<rect width="24" height="24" fill="white"/>
</clipPath>
</defs>
</svg>
