<svg width="24" height="24" viewBox="0 0 24 24" fill="none" xmlns="http://www.w3.org/2000/svg">
<path d="M12.08 2.04534C5.91065 5.56534 2.07999 12.1627 2.04532 19.328C8.49865 22.8853 16.0787 22.764 21.952 19.3653C21.952 19.348 21.952 19.3307 21.9547 19.3133C21.9467 12.1867 18.1827 5.60401 12.08 2.04401V2.04534ZM15.4 9.67467C16.316 10.3013 16.18 11.8147 16.032 12.8507C15.8453 13.992 14.7627 15.8667 13.3573 17.0907C13.5387 17.3547 13.6453 17.68 13.644 18.0253C12.772 18.4707 11.908 17.9693 10.8627 17.064C9.81732 16.1587 8.68932 14.3453 8.31599 12.4813C7.97838 12.518 7.63835 12.4385 7.35199 12.256C7.42799 11.212 8.52532 10.5907 9.49865 10.224C10.4693 9.85734 12.9747 9.73334 14.7413 10.368C14.88 10.076 15.1067 9.83067 15.4 9.67467Z" fill="#5B6071"/>
</svg>
