<svg width="24" height="24" viewBox="0 0 24 24" fill="none" xmlns="http://www.w3.org/2000/svg">
<path d="M4.31613 2.85059H13.5139C14.7981 2.85059 15.8415 3.89397 15.8415 5.17813C15.8415 6.46229 14.7981 7.50567 13.5139 7.50567H4.31613C3.03197 7.50567 1.98859 6.46229 1.98859 5.17813C1.98859 3.89397 3.03197 2.85059 4.31613 2.85059Z" fill="#5B6071"/>
<path d="M19.5174 7.50567C20.8294 7.50567 21.8931 6.46359 21.8931 5.17813C21.8931 3.89266 20.8294 2.85059 19.5174 2.85059C18.2053 2.85059 17.1417 3.89266 17.1417 5.17813C17.1417 6.46359 18.2053 7.50567 19.5174 7.50567Z" fill="#5B6071"/>
<path d="M10.4319 9.8011H19.5174C20.8015 9.70478 21.9091 10.684 22.0054 11.9681C22.1017 13.2523 21.1226 14.3599 19.8384 14.4562H10.4319C9.14779 14.5525 8.0402 13.5733 7.94389 12.2892C7.84758 11.005 8.82675 9.89741 10.1109 9.8011H10.3356H10.4319Z" fill="#5B6071"/>
<path d="M4.36428 9.75296C5.68055 9.75296 6.73998 10.8124 6.73998 12.1287C6.73998 13.4449 5.68055 14.5044 4.36428 14.5044C3.04802 14.4883 1.98859 13.4289 1.98859 12.1287C1.98859 10.8124 3.04802 9.75296 4.36428 9.75296Z" fill="#5B6071"/>
<path d="M4.31613 16.4948H13.5139C14.7981 16.4948 15.8415 17.5382 15.8415 18.8223C15.8415 20.1065 14.7981 21.1499 13.5139 21.1499H4.31613C3.03197 21.1499 1.98859 20.1065 1.98859 18.8223C1.98859 17.5382 3.03197 16.4948 4.31613 16.4948Z" fill="#5B6071"/>
<path d="M19.5174 21.1499C20.8294 21.1499 21.8931 20.1078 21.8931 18.8223C21.8931 17.5369 20.8294 16.4948 19.5174 16.4948C18.2053 16.4948 17.1417 17.5369 17.1417 18.8223C17.1417 20.1078 18.2053 21.1499 19.5174 21.1499Z" fill="#5B6071"/>
</svg>
