<svg width="24" height="24" viewBox="0 0 24 24" fill="none" xmlns="http://www.w3.org/2000/svg">
<path d="M13.7905 1.95276C13.6471 1.95276 13.5106 1.9869 13.3876 2.02787C13.6539 2.2054 13.7973 2.43756 13.8724 2.70386C13.8793 2.738 13.8861 2.76531 13.8929 2.79945C13.8998 2.83359 13.9066 2.8609 13.9066 2.89504C13.9271 3.35253 13.7837 3.40716 13.6881 3.68028C13.5379 4.02852 13.5788 4.40407 13.7632 4.70451C13.7769 4.73865 13.7973 4.77962 13.8246 4.82059C13.6266 3.50275 14.726 3.30473 14.9308 2.89504C14.9445 2.53315 14.6509 2.29417 14.4187 2.13029C14.1797 1.99373 13.9749 1.95276 13.7905 1.95276ZM15.4429 2.24637C15.4224 2.36928 15.4361 2.33514 15.4293 2.39659C15.4224 2.43756 15.4224 2.49218 15.4156 2.53315C15.402 2.57412 15.3951 2.61509 15.3815 2.65606L15.3405 2.77897C15.32 2.81993 15.3064 2.85408 15.2859 2.90187L15.2449 2.96333C15.2312 2.97698 15.2244 2.99747 15.2108 3.01112C15.1835 3.04526 15.1561 3.08623 15.1357 3.11355C15.1015 3.14769 15.081 3.18183 15.0401 3.20914V3.21597C15.0059 3.24328 14.9786 3.27059 14.9445 3.29791C14.8352 3.37984 14.7123 3.4413 14.5962 3.52324C14.5621 3.55055 14.5211 3.57103 14.4938 3.59834C14.4597 3.62566 14.4255 3.65297 14.3982 3.68028L14.3026 3.77588C14.2753 3.81002 14.248 3.84416 14.2275 3.8783C14.2002 3.91244 14.1729 3.95341 14.1524 3.98755C14.1319 4.02852 14.1183 4.06266 14.0978 4.11046C14.0841 4.15143 14.0636 4.18557 14.0568 4.23336C14.0431 4.28116 14.0295 4.32213 14.0227 4.3631C14.0158 4.38358 14.0158 4.4109 14.009 4.43138C14.0022 4.45186 14.0022 4.47235 13.9954 4.49283C13.9954 4.5338 13.9885 4.5816 13.9885 4.62257C13.9885 4.65671 13.9885 4.68402 13.9954 4.71816C13.9954 4.75913 14.0022 4.8001 14.009 4.8479C14.0158 4.88887 14.0227 4.92984 14.0363 4.97081L14.0773 5.09371C14.0909 5.12102 14.1046 5.14834 14.1114 5.16882L12.9165 4.70451C12.7117 4.64988 12.5136 4.59526 12.3156 4.54746C12.2064 4.52015 12.0971 4.49283 11.9879 4.47235C11.6738 4.4109 11.3597 4.3631 11.0388 4.32896C11.0251 4.32896 11.0251 4.32213 11.0114 4.32213C10.6974 4.28799 10.3901 4.27433 10.0828 4.27433C9.85066 4.27433 9.62533 4.28799 9.4 4.30165C9.08591 4.32213 8.76498 4.3631 8.45089 4.41772C8.37578 4.43138 8.29384 4.44504 8.21873 4.45869C8.05485 4.49283 7.90463 4.52697 7.74759 4.56112C7.67248 4.5816 7.59054 4.60208 7.51543 4.62257C7.44032 4.65671 7.36521 4.69085 7.2901 4.71816C7.23547 4.74548 7.17402 4.77279 7.11939 4.79327C7.10574 4.8001 7.09891 4.8001 7.09208 4.80693C7.03746 4.83424 6.99649 4.85473 6.94869 4.88204C6.93503 4.88887 6.92138 4.8957 6.91455 4.8957C6.85992 4.92301 6.79847 4.95032 6.75067 4.97763C6.71653 4.99129 6.67556 5.01177 6.64825 5.03226C6.6346 5.04591 6.61411 5.05274 6.60045 5.05957C6.55266 5.08688 6.50486 5.1142 6.46389 5.13468C6.41609 5.16199 6.37513 5.18931 6.34098 5.20979C6.30684 5.2371 6.26587 5.25759 6.23856 5.2849C6.23173 5.29173 6.22491 5.29173 6.22491 5.29856C6.19076 5.31904 6.15662 5.34635 6.12931 5.37367L6.11565 5.38732C6.08834 5.40781 6.06103 5.42829 6.04055 5.44878C6.02689 5.4556 6.02006 5.46243 6.0064 5.46926C5.97909 5.48975 5.95178 5.51706 5.93129 5.53754C5.92447 5.5512 5.91764 5.5512 5.91081 5.55803C5.87667 5.59217 5.84936 5.61265 5.81522 5.64679C5.80839 5.64679 5.80839 5.65362 5.80156 5.66045C5.76742 5.68776 5.74011 5.71507 5.70597 5.74922C5.69914 5.75604 5.69914 5.76287 5.69231 5.76287C5.665 5.79018 5.63768 5.8175 5.6172 5.84481C5.60354 5.85847 5.58989 5.86529 5.58306 5.87895C5.55575 5.91309 5.52843 5.9404 5.49429 5.97454C5.48746 5.9882 5.48064 5.9882 5.47381 6.00186C5.43284 6.04283 5.3987 6.0838 5.3509 6.12476L5.33724 6.13842C5.25531 6.22719 5.16654 6.31595 5.07095 6.39106C4.97535 6.473 4.87976 6.55494 4.77734 6.62322C4.67491 6.69833 4.57249 6.75978 4.46324 6.82124C4.36082 6.87586 4.25157 6.93049 4.13549 6.97828C4.02624 7.02608 3.91016 7.06705 3.79408 7.10119C3.57558 7.14899 3.35025 7.23775 3.15906 7.25141C3.11809 7.25141 3.0703 7.26507 3.02933 7.26507C2.98153 7.27872 2.94056 7.28555 2.89959 7.29921C2.85862 7.31286 2.81765 7.33335 2.77668 7.34701C2.73572 7.36066 2.69475 7.38115 2.65378 7.40163C2.61964 7.42894 2.57867 7.44943 2.5377 7.47674C2.50356 7.50405 2.46259 7.53136 2.43528 7.5655C2.40114 7.59282 2.36017 7.62696 2.33285 7.6611C2.29871 7.69524 2.2714 7.72938 2.24409 7.76352C2.21678 7.80449 2.18946 7.83863 2.16898 7.88643C2.14167 7.92057 2.11435 7.96154 2.09387 8.00934C2.07338 8.05713 2.0529 8.0981 2.03924 8.1459C2.02559 8.18687 2.0051 8.23466 1.99145 8.28246C1.97779 8.32343 1.97096 8.3644 1.96413 8.40537C1.96413 8.4122 1.95731 8.41902 1.95731 8.41902C1.94365 8.46682 1.94365 8.52828 1.94365 8.56242C1.93682 8.59656 1.92999 8.6307 1.92999 8.66484C1.92999 8.68532 1.92999 8.71264 1.93682 8.73312C1.94365 8.76726 1.95048 8.8014 1.95731 8.82871C1.97096 8.86286 1.97779 8.89017 1.99145 8.92431V8.93114C2.0051 8.96528 2.02559 8.99259 2.04607 9.02673C2.06656 9.06087 2.08704 9.08819 2.11435 9.12233C2.14167 9.14964 2.16898 9.17695 2.20312 9.20426C2.23726 9.2384 2.26457 9.25889 2.29871 9.2862C2.42162 9.39545 2.45576 9.42959 2.61281 9.51836L2.69475 9.55933C2.70157 9.55933 2.7084 9.56616 2.7084 9.56616C2.7084 9.57981 2.7084 9.57981 2.71523 9.59347C2.72206 9.63444 2.72889 9.67541 2.74254 9.71638C2.7562 9.76417 2.76986 9.80514 2.78351 9.83928C2.79717 9.87342 2.81083 9.90074 2.82448 9.93488C2.83131 9.94853 2.83814 9.95536 2.83814 9.96219C2.85862 10.0032 2.87911 10.0373 2.89959 10.0783C2.9269 10.1124 2.95422 10.1534 2.9747 10.1875C3.00201 10.2217 3.02933 10.2558 3.06347 10.2831C3.09761 10.3173 3.12492 10.3377 3.15906 10.3719C3.15906 10.3719 3.16589 10.3787 3.17272 10.3787C3.20686 10.406 3.23417 10.4333 3.26831 10.4538C3.30245 10.4811 3.34342 10.5016 3.38439 10.5221C3.41853 10.5426 3.4595 10.5631 3.5073 10.5767C3.54144 10.5904 3.57558 10.604 3.60972 10.6109C3.61655 10.6177 3.62338 10.6177 3.6302 10.6245C3.65069 10.6313 3.678 10.6382 3.69849 10.6382C3.68483 10.9181 3.678 11.1844 3.71897 11.28C3.76677 11.3824 3.9921 11.0684 4.22425 10.6996C4.19011 11.0615 4.16963 11.478 4.22425 11.6078C4.27888 11.7375 4.59298 11.3346 4.8661 10.884C8.55331 10.0305 11.9196 12.5774 12.2747 16.1826C12.2064 15.6227 11.5167 15.3086 11.1958 15.3837C11.0388 15.7661 10.7725 16.2646 10.3491 16.5718C10.3833 16.2304 10.3696 15.8754 10.2945 15.534C10.1784 16.0119 9.95308 16.4626 9.65264 16.845C9.16101 16.8791 8.66256 16.6401 8.40309 16.2851C8.3826 16.2714 8.37578 16.2373 8.36212 16.2168C8.34846 16.1826 8.32798 16.1417 8.32115 16.1075C8.30749 16.0734 8.29384 16.0324 8.28701 15.9983C8.28018 15.9641 8.28018 15.9232 8.28018 15.8822V15.8071C8.28701 15.773 8.29384 15.732 8.30749 15.6978C8.32115 15.6637 8.32798 15.6227 8.34164 15.5886C8.36212 15.5545 8.37578 15.5135 8.40309 15.4793C8.49185 15.2267 8.49185 15.0287 8.32798 14.9058C8.29384 14.8853 8.26653 14.8716 8.23238 14.8512C8.2119 14.8443 8.18459 14.8375 8.1641 14.8307C8.15045 14.8238 8.13679 14.817 8.12313 14.817C8.08899 14.8034 8.04802 14.7965 8.01388 14.7897C7.97974 14.776 7.93877 14.776 7.90463 14.776C7.87049 14.7692 7.82952 14.7624 7.78855 14.7624C7.76124 14.7624 7.73393 14.7692 7.71344 14.7692C7.67248 14.7692 7.63833 14.776 7.59737 14.7829C7.56323 14.7897 7.52226 14.7965 7.48812 14.8034C7.45397 14.817 7.41301 14.8238 7.37886 14.8375C7.34472 14.8512 7.31058 14.8716 7.27644 14.8853C7.2423 14.8989 7.21499 14.9194 7.18085 14.9399C5.96544 15.732 6.68922 17.5824 7.52226 18.115C7.20816 18.1696 6.89407 18.2379 6.8053 18.3062L6.79164 18.3199C7.01697 18.4564 7.24913 18.5725 7.49494 18.6681C7.82952 18.7773 8.18459 18.8729 8.33481 18.9207V18.9276C8.76498 19.0163 9.20198 19.0505 9.64581 19.0232C11.9469 18.8593 13.8383 17.1113 14.1797 14.7965C14.1934 14.8443 14.2002 14.8853 14.2139 14.9331C14.2275 15.0287 14.248 15.1243 14.2617 15.2267V15.2335C14.2753 15.2813 14.2753 15.3291 14.2821 15.3701V15.3906C14.289 15.4384 14.2958 15.4862 14.2958 15.5271C14.3026 15.5818 14.3094 15.6432 14.3094 15.6978V15.7798C14.3094 15.8071 14.3163 15.8344 14.3163 15.8617C14.3163 15.8959 14.3094 15.9232 14.3094 15.9573V16.0324C14.3094 16.0666 14.3026 16.1007 14.3026 16.1348C14.3026 16.1553 14.3026 16.1758 14.2958 16.2031C14.2958 16.2373 14.289 16.2782 14.289 16.3192C14.2821 16.3329 14.2821 16.3533 14.2821 16.367C14.2753 16.408 14.2685 16.4421 14.2685 16.4899C14.2685 16.5036 14.2685 16.5241 14.2617 16.5377C14.2548 16.5923 14.248 16.6333 14.2412 16.6879V16.7016C14.2275 16.7494 14.2207 16.7972 14.207 16.845V16.8586C14.1934 16.9064 14.1865 16.9542 14.1729 17.002C14.1729 17.0089 14.1661 17.0157 14.1661 17.0225C14.1524 17.0703 14.1456 17.1181 14.1319 17.1659V17.1796C14.1183 17.2342 14.0978 17.2751 14.0909 17.3229C14.0841 17.3298 14.0841 17.3366 14.0841 17.3366C14.0705 17.3912 14.05 17.439 14.0363 17.4937C14.0158 17.5483 14.0022 17.5892 13.9817 17.6439C13.9612 17.6985 13.9476 17.7463 13.9271 17.7941C13.9066 17.8487 13.8861 17.8897 13.8656 17.9443H13.8588C13.8383 17.9921 13.8178 18.0399 13.7905 18.0877C13.7837 18.1014 13.7769 18.115 13.7769 18.1218C13.77 18.1287 13.77 18.1355 13.7632 18.1355C13.4218 18.8183 12.9233 19.4124 12.302 19.8835C12.261 19.9108 12.22 19.9381 12.1791 19.9723C12.1654 19.9859 12.1517 19.9859 12.1449 19.9996C12.1108 20.0269 12.0698 20.0542 12.0288 20.0747L12.0425 20.1088H12.0493C12.1244 20.0952 12.1927 20.0884 12.2678 20.0747H12.2747C12.4112 20.0542 12.5478 20.0269 12.6775 19.9996C12.7117 19.9928 12.7526 19.9859 12.7936 19.9723C12.8209 19.9654 12.8414 19.9586 12.8687 19.9586C12.9028 19.9518 12.9438 19.945 12.978 19.9381C13.0121 19.9245 13.0394 19.9245 13.0736 19.9108C13.5925 19.7879 14.0978 19.6172 14.5826 19.4124C13.7564 20.539 12.6502 21.454 11.3529 22.048C11.9537 22.0071 12.5478 21.9046 13.1282 21.7408C15.2244 21.1194 16.9861 19.7128 18.0445 17.8146C17.8328 19.0163 17.3548 20.1635 16.6447 21.1604C17.15 20.8258 17.6143 20.4434 18.0308 20.0064C19.1984 18.791 19.9632 17.241 20.2226 15.5818C20.4002 16.4011 20.4548 17.2547 20.3729 18.0877C24.1283 12.8505 20.687 7.41529 19.2462 5.9882C19.2394 5.97455 19.2326 5.97454 19.2326 5.96089C19.2257 5.96772 19.2257 5.96772 19.2257 5.97454C19.2257 5.96772 19.2257 5.96772 19.2189 5.96089C19.2189 6.02234 19.2121 6.0838 19.2052 6.14525C19.1916 6.26816 19.1711 6.37741 19.1506 6.49349C19.1233 6.60956 19.096 6.72564 19.0618 6.83489C19.0277 6.94414 18.9867 7.06022 18.9389 7.16947C18.8911 7.27189 18.8433 7.38115 18.7819 7.48357C18.7273 7.57916 18.659 7.68841 18.5975 7.77718C18.5293 7.87277 18.4541 7.96837 18.3859 8.05713C18.3107 8.15273 18.222 8.23466 18.14 8.3166C18.0854 8.3644 18.0445 8.40537 17.9898 8.44634C17.9489 8.48048 17.9147 8.51462 17.8669 8.54876C17.7713 8.62387 17.6826 8.69215 17.5733 8.75361C17.4777 8.81506 17.3685 8.87651 17.266 8.93114C17.1568 8.98576 17.0475 9.02673 16.9383 9.07453C16.829 9.1155 16.713 9.14964 16.5969 9.18378C16.4808 9.21792 16.3647 9.23841 16.2486 9.25889C16.1257 9.27937 16.0097 9.29303 15.8936 9.29986C15.8116 9.30669 15.7297 9.31351 15.6409 9.31351C15.518 9.31351 15.402 9.29986 15.2859 9.29303C15.163 9.27937 15.0469 9.26572 14.9308 9.2384C14.8079 9.21792 14.6987 9.18378 14.5826 9.14964H14.5757C14.6918 9.13598 14.8079 9.12915 14.9172 9.10867C15.0401 9.08818 15.1493 9.06087 15.2654 9.03356C15.3815 8.99942 15.4975 8.96528 15.6068 8.92431C15.7229 8.88334 15.8321 8.82872 15.9346 8.78092C16.0438 8.72629 16.1394 8.67167 16.2486 8.61021C16.3442 8.54193 16.4467 8.47365 16.5423 8.40537C16.6379 8.33026 16.7266 8.25515 16.8086 8.17321C16.8973 8.0981 16.9724 8.00934 17.0544 7.92057C17.1295 7.82498 17.2046 7.73621 17.2729 7.64062C17.2865 7.62696 17.2934 7.60648 17.307 7.58599C17.3616 7.50405 17.4094 7.42211 17.4572 7.33335C17.5119 7.23093 17.5665 7.1285 17.6143 7.01925C17.6621 6.91 17.703 6.80075 17.7372 6.68467C17.7713 6.57542 17.7986 6.45934 17.826 6.34326C17.8464 6.22036 17.8669 6.11111 17.8806 5.99503C17.8942 5.87212 17.9011 5.75604 17.9011 5.63997C17.9011 5.55803 17.8942 5.47609 17.8874 5.38732C17.8737 5.26442 17.8601 5.15517 17.8464 5.03909C17.826 4.91618 17.7986 4.80693 17.7713 4.69085C17.7372 4.5816 17.6962 4.46552 17.6552 4.35627C17.6143 4.24702 17.5597 4.13777 17.5119 4.03535C17.4572 3.93293 17.3958 3.8305 17.3343 3.72808L17.1295 3.4413C17.0544 3.35253 16.9724 3.26377 16.8905 3.175C16.8495 3.13403 16.8017 3.08623 16.7539 3.04526C16.5218 2.8609 16.276 2.6902 16.0301 2.53315C15.996 2.51267 15.9619 2.49901 15.9277 2.47853C15.7638 2.35562 15.6068 2.30099 15.4429 2.24637Z" fill="#5B6071"/>
</svg>
