<svg width="24" height="24" viewBox="0 0 24 24" fill="none" xmlns="http://www.w3.org/2000/svg">
<path fill-rule="evenodd" clip-rule="evenodd" d="M18.7603 21.2751L16.6486 17.935L11.3602 9.57C9.61601 6.81667 8.15699 4.53001 8.11786 4.48334C7.9781 4.32584 7.88866 4.30251 7.35758 4.30251C6.90476 4.30251 6.86005 4.30834 6.75383 4.36084C6.69234 4.40167 6.60289 4.47167 6.55817 4.53001V4.53001C6.50724 4.60214 6.47981 4.68822 6.47963 4.77652L6.46872 10.1242L6.46327 15.4899C6.46318 15.575 6.48224 15.6591 6.51903 15.7358V15.7358C6.55893 15.8168 6.61874 15.8853 6.69234 15.9342V15.9342C6.77234 15.9911 6.86808 16.0217 6.96626 16.0217H7.26813C7.66505 16.0217 7.73772 16.01 7.82157 15.9633C7.92552 15.9138 8.00888 15.8268 8.05636 15.7183C8.10063 15.626 8.10108 15.465 8.11193 11.639L8.11226 11.5183C8.11604 9.99989 8.12235 8.66716 8.12949 7.96019C8.13288 7.62427 8.25166 7.59196 8.43638 7.87255C9.24614 9.10259 10.0493 10.3373 10.8459 11.5767L13.5348 15.7242L15.6815 18.7517C16.7926 20.3195 17.7384 21.6419 17.8508 21.7939C17.8583 21.8041 17.8717 21.8112 17.8711 21.8239V21.8239M16.2768 4.10829C16.2308 4.05323 16.1747 4.00821 16.112 3.97584C16.0281 3.92334 15.961 3.92334 15.5697 3.92334C15.156 3.92334 15.1225 3.92334 15.0107 3.98167C14.9479 4.01816 14.8928 4.06742 14.8486 4.12654C14.8044 4.18566 14.7721 4.25343 14.7535 4.32584C14.7368 4.39001 14.7256 5.69084 14.7256 8.00084V11.2952C14.7256 11.4829 14.7784 11.6669 14.8781 11.826L15.5585 12.9125V12.9125C15.8015 13.2978 16.3971 13.1257 16.3971 12.6702V9.31917C16.4026 5.88917 16.3971 4.36667 16.3803 4.29667C16.3581 4.22737 16.3229 4.16335 16.2768 4.10829Z" fill="#5B6071"/>
</svg>
