<svg width="24" height="24" viewBox="0 0 24 24" fill="none" xmlns="http://www.w3.org/2000/svg">
<path d="M4.383 15.808L2.56766 5.82279C2.47437 5.30966 3.13052 5.01434 3.45275 5.42443L8.192 11.456L11.5528 4.73356C11.737 4.365 12.263 4.365 12.4472 4.73356L15.808 11.456L20.5472 5.42443C20.8695 5.01434 21.5256 5.30966 21.4323 5.82279L19.617 15.808H4.383ZM19.617 19.072C19.6171 19.215 19.5891 19.3565 19.5345 19.4887C19.4798 19.6208 19.3997 19.7408 19.2987 19.842C19.1976 19.9431 19.0777 20.0233 18.9456 20.0781C18.8135 20.1328 18.672 20.161 18.529 20.161H5.47C5.32704 20.161 5.18548 20.1328 5.05341 20.0781C4.92134 20.0233 4.80136 19.9431 4.70031 19.842C4.59927 19.7408 4.51915 19.6208 4.46453 19.4887C4.40991 19.3565 4.38187 19.215 4.382 19.072V17.984H19.616L19.617 19.072Z" fill="#5B6071"/>
</svg>
