<svg width="24" height="25" viewBox="0 0 24 25" fill="none" xmlns="http://www.w3.org/2000/svg">
<path fill-rule="evenodd" clip-rule="evenodd" d="M11.2348 22.2945C11.4696 22.4297 11.7356 22.5 12.0034 22.5L12.0027 22.4961C12.2737 22.4968 12.5401 22.4259 12.775 22.2907L20.1019 18.0586C20.5752 17.7834 20.8705 17.2716 20.8705 16.7231V8.26619C20.8704 7.99581 20.7993 7.7302 20.6644 7.49586C20.5296 7.26152 20.3356 7.06666 20.1019 6.9307L12.775 2.69675C12.3146 2.43442 11.6982 2.43442 11.2341 2.69675L3.89804 6.92886C3.42291 7.20036 3.12939 7.71401 3.12939 8.26435V16.7212C3.12958 16.9919 3.20064 17.2577 3.33549 17.4923C3.47035 17.727 3.6643 17.9222 3.89804 18.0586L5.82056 19.1666C6.75247 19.6252 7.08634 19.6252 7.5101 19.6252C8.88779 19.6252 9.68028 18.7905 9.68028 17.3376V8.98713C9.68028 8.86789 9.58488 8.77617 9.46931 8.77617H8.54107C8.42183 8.77617 8.32828 8.86789 8.32828 8.98713V17.334C8.32828 17.9797 7.66236 18.6218 6.57269 18.0769L4.56578 16.9175C4.49607 16.879 4.45205 16.802 4.45205 16.7212V8.26435C4.45205 8.18364 4.49717 8.10475 4.56817 8.0644L11.8925 3.83779C11.9603 3.79743 12.0502 3.79743 12.1181 3.83779L19.4439 8.0644C19.5132 8.10659 19.5572 8.1818 19.5572 8.26619V16.7231C19.5572 16.8038 19.5132 16.8827 19.4453 16.9212L12.1166 21.1515C12.0537 21.1882 11.9574 21.1882 11.8895 21.1515L10.0099 20.0361C9.95398 20.0031 9.88244 19.9921 9.82777 20.0233C9.3077 20.3186 9.20882 20.3572 8.72159 20.5278C8.60106 20.5694 8.42275 20.6417 8.78818 20.846L11.2348 22.2945ZM10.3882 13.9661C10.3882 15.2007 11.0605 16.6726 14.2672 16.6726L14.2565 16.6813C16.5789 16.6813 17.9108 15.7659 17.9108 14.1699C17.9108 12.5867 16.8413 12.1648 14.5886 11.8658C12.3138 11.5649 12.0827 11.409 12.0827 10.8752C12.0827 10.4349 12.279 9.84786 13.9648 9.84786C15.4709 9.84786 16.0249 10.1726 16.2542 11.187C16.2744 11.2824 16.3606 11.3521 16.4597 11.3521H17.4118C17.4413 11.3521 17.4705 11.346 17.4976 11.3341C17.5246 11.3223 17.5489 11.3049 17.5689 11.2832C17.5889 11.2615 17.6042 11.2359 17.6137 11.2079C17.6233 11.18 17.627 11.1504 17.6246 11.121C17.4778 9.3709 16.3148 8.5564 13.9685 8.5564C11.879 8.5564 10.6316 9.43694 10.6316 10.9155C10.6316 12.5207 11.8717 12.9628 13.8786 13.1609C16.2781 13.3957 16.4652 13.7461 16.4652 14.2176C16.4652 15.0367 15.8085 15.3856 14.2638 15.3856C12.3248 15.3856 11.8992 14.8991 11.7561 13.9345C11.7396 13.8312 11.6516 13.7551 11.547 13.7551H10.6004C10.4828 13.7551 10.3882 13.8487 10.3882 13.9661Z" fill="#5B6071"/>
</svg>
