<svg width="24" height="24" viewBox="0 0 24 24" fill="none" xmlns="http://www.w3.org/2000/svg">
<path d="M9.70417 3.75454C8.01161 3.76212 6.36249 4.29109 4.98132 5.26946C3.60014 6.24782 2.55401 7.62805 1.98534 9.22224C1.41666 10.8164 1.35306 12.5471 1.80319 14.1788C2.25333 15.8104 3.19533 17.2637 4.50097 18.3408C4.32712 18.3074 4.15956 18.247 4.00441 18.1617C3.72001 17.9973 3.39267 17.9224 3.06505 17.9467C2.80313 17.9643 2.54902 18.0432 2.32324 18.1771C2.09746 18.311 1.90635 18.4962 1.76534 18.7176C1.62433 18.939 1.53737 19.1905 1.5115 19.4518C1.48563 19.713 1.52157 19.9766 1.61641 20.2214C2.05321 20.0601 2.51126 19.9634 2.97601 19.9346C3.24857 19.9164 3.52219 19.9212 3.79393 19.949C4.01852 19.9702 4.24444 19.9734 4.46953 19.9586C4.58809 19.9502 4.7057 19.9375 4.82234 19.9202C5.31748 19.8443 5.79469 19.679 6.23065 19.4323C6.57205 19.5915 6.92448 19.7258 7.28521 19.8343C9.66197 20.5145 12.2013 20.3471 14.4682 19.3608C14.5713 19.3139 14.6677 19.2535 14.755 19.1813L22.4969 19.8878L15.1109 18.4125C15.0994 18.1574 14.8757 17.9822 14.791 17.8733C14.7494 17.8255 14.7224 17.7667 14.7132 17.7041C14.646 16.7669 14.2467 15.8844 13.5871 15.2153C12.9275 14.5461 12.0508 14.1343 11.1147 14.0537C11.0155 13.8628 10.867 13.702 10.6846 13.5881C10.5413 13.4744 10.4257 13.3298 10.3464 13.165C10.2671 13.0002 10.2263 12.8196 10.2269 12.6367C9.94123 12.6627 9.67127 12.779 9.45619 12.9688C9.24111 13.1586 9.09208 13.412 9.03073 13.6922C8.5564 13.4576 8.14441 13.114 7.82851 12.6895C7.51261 12.2649 7.3018 11.7716 7.21336 11.2499C7.12491 10.7281 7.16135 10.1929 7.31968 9.68797C7.47801 9.18304 7.75374 8.72282 8.12426 8.34502C8.53017 7.91643 9.01951 7.57546 9.56215 7.34309C10.1048 7.11071 10.6892 6.99185 11.2795 6.99382C12.2458 6.99155 13.1857 7.30873 13.953 7.89601C14.7204 8.48328 15.272 9.30771 15.5223 10.241C15.192 10.6444 14.7289 10.9171 14.2159 11.0102C13.7704 11.0885 13.3604 11.3038 13.0431 11.6262C12.7258 11.9487 12.5171 12.362 12.4459 12.8088C13.2893 12.8088 13.8504 13.9565 15.4167 13.9565C15.699 13.9565 15.975 13.8724 16.2094 13.715C16.4438 13.5576 16.626 13.3339 16.7328 13.0725C16.84 13.3341 17.0227 13.5578 17.2574 13.7152C17.4922 13.8726 17.7685 13.9566 18.0511 13.9565C18.1122 13.9558 18.1733 13.9532 18.2343 13.9485V13.9519C18.2535 13.9507 18.2707 13.9476 18.2895 13.9461C18.3259 13.943 18.3623 13.9392 18.3987 13.9346C18.4553 13.9281 18.511 13.9202 18.565 13.9106C18.5947 13.9053 18.6243 13.8996 18.6538 13.8933C18.7167 13.8801 18.7774 13.8645 18.8367 13.8477C18.8608 13.8411 18.8849 13.8341 18.9089 13.8269C18.9831 13.8036 19.0546 13.7784 19.1235 13.7508C19.1336 13.7468 19.1438 13.7428 19.1539 13.7388L19.1779 13.7285C19.2118 13.7142 19.2454 13.6994 19.2787 13.6838V13.6824C20.0002 13.3437 20.4463 12.8129 21.0214 12.8129C20.9509 12.371 20.7457 11.9617 20.4338 11.6408C20.122 11.3199 19.7187 11.1031 19.279 11.0201H19.2775C19.2688 11.0181 19.2601 11.0162 19.2514 11.0143C19.0971 10.9859 18.9463 10.941 18.8016 10.8804L18.787 10.8744C18.7253 10.8482 18.6648 10.8192 18.6058 10.7875L18.5753 10.7697C18.5253 10.742 18.4764 10.7123 18.4287 10.6807L18.4023 10.6629C18.3471 10.6252 18.2937 10.5849 18.2422 10.5422C17.9818 10.3277 17.7735 10.0557 17.6655 9.75046C17.1762 8.01834 16.1329 6.49425 14.6951 5.41139C13.2574 4.32853 11.5045 3.74656 9.70466 3.75454H9.70417ZM6.04849 10.1256C6.20209 10.1357 6.31513 10.3245 6.29953 10.5453C6.28369 10.7661 6.14593 10.9358 5.99089 10.9257C5.83609 10.9157 5.72569 10.7265 5.74129 10.5055C5.75689 10.2845 5.89489 10.1155 6.04849 10.1256ZM5.04722 10.8456L5.04314 10.8494C5.12066 10.8494 5.18642 10.9344 5.18642 11.0448C5.18642 11.1552 5.13193 11.2471 5.05441 11.25C4.97713 11.2529 4.91138 11.1665 4.91138 11.0561C4.91138 10.9457 4.97114 10.8497 5.04722 10.8456ZM4.98601 12.1157C5.11537 12.1233 5.25001 12.2589 5.29417 12.4471C5.34433 12.6624 5.26273 12.8664 5.11201 12.9007C4.96153 12.9353 4.79906 12.7903 4.7489 12.5736C4.69874 12.3571 4.78489 12.1519 4.93537 12.1159L4.93105 12.1205C4.94912 12.1161 4.96748 12.1145 4.98601 12.1157ZM5.96281 13.6577C5.98201 13.656 6.00169 13.656 6.02185 13.6577C6.15673 13.6685 6.30793 13.7505 6.42433 13.8905C6.61081 14.1141 6.63097 14.3995 6.47473 14.5289C6.31825 14.6577 6.04393 14.5802 5.85769 14.3565C5.67121 14.1326 5.65537 13.8473 5.80729 13.7181C5.85181 13.6827 5.90604 13.6616 5.96281 13.6577ZM10.1367 17.7761C10.2125 17.7787 10.3097 17.8145 10.4201 17.8418C10.6409 17.8963 10.8346 17.8891 10.7842 18.0972L10.7803 18.1015C10.7507 18.2032 10.683 18.2895 10.5914 18.3425C10.4997 18.3956 10.3912 18.4113 10.2882 18.3863C10.1853 18.3614 10.096 18.2977 10.0388 18.2086C9.98159 18.1195 9.96094 18.0118 9.98114 17.9078C10.0063 17.8029 10.0608 17.7732 10.1367 17.7761Z" fill="#5B6071"/>
</svg>
