<svg width="24" height="24" viewBox="0 0 24 24" fill="none" xmlns="http://www.w3.org/2000/svg">
<path d="M13.4642 19H22.386C22.6694 19 22.9478 18.9353 23.1932 18.8124C23.4386 18.6896 23.6424 18.5128 23.784 18.3C23.9256 18.0871 24.0001 17.8457 24 17.5999C23.9999 17.3542 23.9251 17.1128 23.7833 16.9001L17.7917 7.90007C17.65 7.68726 17.4463 7.51055 17.201 7.38768C16.9556 7.26482 16.6773 7.20013 16.394 7.20013C16.1106 7.20013 15.8323 7.26482 15.587 7.38768C15.3416 7.51055 15.1379 7.68726 14.9962 7.90007L13.4642 10.2028L10.4688 5.69983C10.3271 5.48705 10.1233 5.31036 9.87786 5.18752C9.63243 5.06467 9.35405 5 9.0707 5C8.78735 5 8.50894 5.06467 8.26354 5.18752C8.01811 5.31036 7.81429 5.48705 7.67257 5.69983L0.216706 16.9001C0.0748645 17.1128 0.000123487 17.3542 1.52886e-07 17.5999C-0.000123181 17.8457 0.0743759 18.0871 0.216004 18.3C0.357631 18.5128 0.561394 18.6896 0.8068 18.8124C1.0522 18.9353 1.33059 19 1.61397 19H7.21433C9.43326 19 11.0697 18.1548 12.1957 16.5057L14.9293 12.4001L16.3935 10.2028L20.7879 16.8028H14.9293L13.4642 19ZM7.12306 16.8005L3.2147 16.7998L9.07333 8.00035L11.9965 12.4001L10.0393 15.3407C9.29155 16.4107 8.44206 16.8005 7.12306 16.8005Z" fill="#5B6071"/>
</svg>
