<svg width="24" height="25" viewBox="0 0 24 25" fill="none" xmlns="http://www.w3.org/2000/svg">
<path d="M5.26836 4.65668C4.97051 4.65656 4.67556 4.71512 4.40034 4.82902C4.12513 4.94293 3.87505 5.10993 3.6644 5.3205C3.45375 5.53108 3.28664 5.78109 3.17263 6.05626C3.05862 6.33142 2.99994 6.62636 2.99994 6.92421V11.8709C3.32438 11.7541 3.79083 11.0638 3.93733 10.8958C4.19347 10.6019 4.2402 10.228 4.36693 9.99162C4.65722 9.45507 4.70755 9.08479 5.36722 9.08479C5.67459 9.08479 5.79682 9.15669 6.00533 9.4353C6.14913 9.62943 6.39898 9.98803 6.51582 10.228C6.65063 10.5039 6.87172 10.8787 6.96788 10.9542C7.03978 11.0099 7.11168 11.053 7.17729 11.0773C7.28424 11.1169 7.37322 11.0441 7.44422 10.9874C7.53589 10.9137 7.57453 10.7654 7.65992 10.5677C7.78125 10.2828 7.91426 9.94129 7.98975 9.82176C8.12097 9.61505 8.16501 9.37149 8.30611 9.25286C8.51462 9.0776 8.78694 9.06592 8.86153 9.05064C9.28035 8.96795 9.46998 9.25286 9.67669 9.4371C9.8115 9.55663 9.99574 9.79929 10.1261 10.1246C10.2285 10.379 10.3597 10.6136 10.4137 10.7601C10.4667 10.9021 10.5961 11.1285 10.6734 11.4009C10.7426 11.648 10.9304 11.8376 11.0014 11.9545C11.0014 11.9545 11.1102 12.2601 11.7726 12.5387C11.9164 12.5989 12.2058 12.6968 12.3783 12.7598C12.6659 12.864 12.9445 12.8505 13.2995 12.8083C13.5521 12.8083 13.6896 12.4416 13.8046 12.1486C13.872 11.9752 13.9376 11.479 13.9817 11.3379C14.0248 11.2004 13.9241 11.0953 14.0095 10.974C14.1102 10.8337 14.1695 10.8266 14.227 10.6432C14.351 10.2514 15.0682 10.2316 15.4709 10.2316C15.807 10.2316 15.7648 10.5578 16.3337 10.4464C16.6608 10.3817 16.9754 10.4877 17.3223 10.5803C17.6135 10.6576 17.8885 10.7457 18.0521 10.938C18.159 11.0629 18.4223 11.6876 18.1536 11.7136C18.1797 11.7451 18.1986 11.8026 18.2471 11.8341C18.1869 12.0695 17.9262 11.9015 17.7815 11.8709C17.5865 11.8305 17.449 11.8772 17.2576 11.9617C16.9313 12.1073 16.4541 12.0902 16.1701 12.3275C15.9274 12.5279 15.9283 12.9755 15.816 13.2262C15.816 13.2262 15.5032 14.0306 14.822 14.5231C14.6476 14.6489 14.3061 14.9518 13.5637 15.0668C13.2364 15.1139 12.9051 15.1269 12.5751 15.1055C12.408 15.0974 12.2498 15.0893 12.0817 15.0875C11.9829 15.0857 11.6503 15.0758 11.6674 15.1073L11.6306 15.1998L11.6521 15.3239C11.6656 15.3985 11.6692 15.4578 11.6719 15.5261C11.6773 15.6672 11.6602 15.8137 11.6674 15.9557C11.6827 16.2505 11.7914 16.5192 11.8058 16.8167C11.8211 17.1474 11.9847 17.4979 12.1428 17.7685C12.2031 17.8709 12.2947 17.8835 12.3343 18.0102C12.381 18.1549 12.337 18.3095 12.3594 18.4641C12.4493 19.0644 12.6219 19.6918 12.8915 20.2346C12.8937 20.2389 12.8961 20.2431 12.8987 20.2472C13.2321 20.1915 13.5664 20.071 14.0005 20.0072C14.7959 19.8886 15.9014 19.9497 16.6123 19.8832C18.4098 19.7142 19.3849 20.6202 20.9999 20.249V6.92421C20.9999 6.32282 20.761 5.74607 20.3358 5.32082C19.9106 4.89558 19.3338 4.65668 18.7324 4.65668H5.26836ZM4.4532 14.6723C4.43972 14.6723 4.42624 14.6723 4.41186 14.675C4.26896 14.6975 4.13056 14.7469 4.04158 14.8907C3.96968 15.0075 3.94452 15.2097 3.89419 15.3445C3.83667 15.5018 3.73601 15.6483 3.64793 15.7984C3.48616 16.0725 3.19497 16.3206 3.06914 16.5884C3.04398 16.6423 3.02151 16.7052 3.00084 16.7682V19.8257C3.14733 19.8508 3.30012 19.8814 3.47178 19.9272C4.73631 20.2643 5.04458 20.293 6.28484 20.1519L6.40168 20.1358C6.49604 19.938 6.56974 19.2658 6.63086 19.0573C6.67939 18.8973 6.745 18.7697 6.77016 18.6079C6.79353 18.4524 6.76746 18.305 6.75488 18.1648C6.71893 17.8116 7.01102 17.6858 7.15033 17.3829C7.27615 17.1097 7.34805 16.7978 7.45231 16.5174C7.55117 16.2496 7.70755 15.8694 7.97268 15.7337C7.94032 15.6969 7.41815 15.6798 7.27885 15.6654C7.12811 15.6519 6.97813 15.6309 6.82948 15.6025C6.54727 15.545 6.2399 15.4892 5.96219 15.4227C5.67381 15.3385 5.38976 15.2402 5.11108 15.1279C4.84326 15.0039 4.65902 14.6813 4.4532 14.6723ZM9.60929 15.4182C8.94422 15.5522 8.73751 16.2055 8.42295 16.7223C8.25039 17.009 8.06705 17.2526 7.93044 17.5564C7.80461 17.8368 7.8154 18.1468 7.5997 18.3868C7.38509 18.6266 7.22341 18.909 7.12516 19.2154C7.10449 19.2757 7.04607 19.9129 6.98316 20.063L7.97268 19.9929C8.89479 20.0558 8.62876 20.4099 10.0685 20.3326L12.3415 20.2625C12.281 20.0834 12.2126 19.9071 12.1365 19.734C12.0736 19.6019 11.9927 19.344 11.9406 19.2307C11.8618 19.0654 11.7689 18.9073 11.6629 18.758C11.4975 18.5647 11.4589 18.5513 11.4113 18.3059C11.3259 17.8808 11.1021 17.1106 10.8388 16.5776C10.7031 16.3026 10.4766 16.0725 10.269 15.873C10.0892 15.6978 9.68029 15.4039 9.60929 15.4191V15.4182Z" fill="#5B6071"/>
</svg>
