<svg width="24" height="24" viewBox="0 0 24 24" fill="none" xmlns="http://www.w3.org/2000/svg">
<path d="M2.22299 3.198C2.22243 3.198 2.22198 3.19845 2.22198 3.199V8.15306C2.22198 8.49951 2.52052 8.65333 2.73598 8.38203C2.83321 8.25959 2.91398 8.14913 2.95798 8.099C3.15798 7.868 3.19499 7.574 3.29499 7.389C3.52299 6.967 3.56198 6.677 4.08098 6.677C4.32198 6.677 4.41798 6.732 4.58098 6.952C4.69498 7.104 4.89098 7.386 4.98298 7.574C5.08898 7.791 5.26198 8.085 5.33798 8.144C5.38749 8.18436 5.44277 8.21706 5.50198 8.241C5.58598 8.273 5.65598 8.215 5.71198 8.171C5.78398 8.113 5.81499 7.996 5.88099 7.841C5.97699 7.617 6.08098 7.349 6.14098 7.255C6.24298 7.093 6.27798 6.901 6.38898 6.808C6.55298 6.671 6.76598 6.661 6.82498 6.65C7.15398 6.585 7.30298 6.808 7.46498 6.953C7.57098 7.047 7.71498 7.238 7.81898 7.493C7.89898 7.693 8.00098 7.877 8.04398 7.993C8.08498 8.103 8.18698 8.282 8.24798 8.495C8.29514 8.66132 8.40991 8.79457 8.47699 8.88718C8.49719 8.91506 8.51172 8.94644 8.53025 8.97546C8.58129 9.05538 8.7284 9.22787 9.11098 9.389C9.22398 9.436 9.45098 9.513 9.58698 9.563C9.81298 9.645 10.032 9.634 10.31 9.601C10.509 9.601 10.617 9.313 10.707 9.083C10.76 8.947 10.812 8.557 10.847 8.446C10.88 8.338 10.801 8.255 10.868 8.16C10.947 8.05 10.994 8.044 11.039 7.9C11.137 7.593 11.699 7.577 12.016 7.577C12.28 7.577 12.246 7.833 12.694 7.746C12.95 7.696 13.197 7.779 13.47 7.851C13.699 7.911 13.914 7.981 14.043 8.132C14.1136 8.21442 14.2713 8.57411 14.1941 8.69948C14.1749 8.73072 14.1453 8.78284 14.1689 8.8109V8.8109C14.1817 8.82609 14.1934 8.84839 14.1852 8.86649C14.1233 9.00369 13.9368 8.88654 13.83 8.865C13.677 8.833 13.569 8.87 13.42 8.935C13.163 9.05 12.788 9.037 12.564 9.223C12.3777 9.37695 12.375 9.71937 12.292 9.91741C12.2887 9.92522 12.2856 9.93253 12.2824 9.94035C12.2464 10.0271 11.9988 10.5914 11.506 10.947C11.369 11.047 11.101 11.284 10.517 11.374C10.2604 11.4113 10.0007 11.4217 9.74198 11.405C9.60998 11.399 9.48598 11.392 9.35398 11.39C9.29845 11.39 9.14721 11.3853 9.07208 11.3921C9.04137 11.3949 9.02222 11.4225 9.0105 11.451V11.451C9.00298 11.4693 9.0008 11.4893 9.00422 11.5088L9.01598 11.576C9.02698 11.635 9.02998 11.681 9.03198 11.736C9.03598 11.846 9.02299 11.961 9.02899 12.073C9.03999 12.304 9.12598 12.515 9.13698 12.749C9.14898 13.009 9.27699 13.284 9.40199 13.496C9.44899 13.577 9.52198 13.586 9.55198 13.686C9.58898 13.8 9.55498 13.921 9.57198 14.043C9.62225 14.4047 9.7142 14.759 9.84574 15.0987C9.92602 15.3061 10.1454 15.415 10.361 15.3606C10.5128 15.3223 10.6752 15.2818 10.861 15.254C11.485 15.162 12.354 15.209 12.911 15.157C14.172 15.0383 14.9177 15.5934 15.9648 15.5066C16.197 15.4874 16.358 15.28 16.358 15.0471V3.698C16.358 3.42186 16.1341 3.198 15.858 3.198H2.22299V3.198ZM3.36298 11.064C3.35298 11.064 3.34098 11.064 3.32998 11.066C3.21798 11.084 3.10998 11.122 3.03998 11.236C2.98298 11.327 2.96399 11.486 2.92399 11.592C2.87799 11.715 2.79998 11.831 2.72998 11.948C2.60298 12.164 2.37499 12.358 2.27599 12.568C2.26664 12.5886 2.25795 12.61 2.24961 12.6321C2.23028 12.6833 2.22198 12.7379 2.22198 12.7927V14.7323C2.22198 14.9512 2.38049 15.1346 2.59198 15.191V15.191C3.58498 15.456 3.82799 15.478 4.80199 15.367V15.367C4.85879 15.3595 4.90807 15.3239 4.92377 15.2688C4.98394 15.0576 5.03178 14.6479 5.07298 14.508C5.11098 14.382 5.16299 14.282 5.18299 14.154C5.20099 14.033 5.18099 13.917 5.16999 13.806C5.14299 13.53 5.37198 13.431 5.48098 13.193C5.57998 12.978 5.63698 12.733 5.71798 12.513C5.73984 12.4542 5.76514 12.3884 5.79484 12.3218C5.90919 12.0654 5.86229 11.8722 5.58299 11.844V11.844C5.46422 11.8333 5.34608 11.8166 5.22899 11.794C5.00799 11.749 4.76598 11.706 4.54898 11.654C4.32194 11.5874 4.09833 11.5097 3.87898 11.421C3.66898 11.324 3.52498 11.071 3.36298 11.064ZM7.41298 11.65C6.88998 11.755 6.72698 12.268 6.48098 12.674C6.34498 12.899 6.20098 13.09 6.09398 13.329C5.99398 13.549 6.00399 13.793 5.83399 13.981C5.66578 14.1692 5.53904 14.3906 5.46198 14.631V14.631C5.364 14.925 5.71646 15.2721 6.02554 15.2502L6.12698 15.243C6.85098 15.293 6.64198 15.57 7.77298 15.509L9.11291 15.4677C9.33441 15.4609 9.4862 15.2418 9.39699 15.039V15.039C9.34699 14.936 9.28398 14.733 9.24298 14.644C9.18154 14.5144 9.10858 14.3906 9.02498 14.274C8.89498 14.121 8.86498 14.11 8.82698 13.918C8.72891 13.4499 8.57829 12.9943 8.37799 12.56C8.27098 12.345 8.09299 12.163 7.93099 12.007C7.78899 11.87 7.46798 11.639 7.41298 11.65ZM18.278 6.802C18.0018 6.802 17.778 7.02586 17.778 7.302V8.302C17.778 8.57814 18.0018 8.802 18.278 8.802H19.278C19.5541 8.802 19.778 9.02586 19.778 9.302V18.302C19.778 18.5781 19.5541 18.802 19.278 18.802H10.278C10.0018 18.802 9.77798 18.5781 9.77798 18.302V17.302C9.77798 17.0259 9.55413 16.802 9.27798 16.802H8.27798C8.00184 16.802 7.77798 17.0259 7.77798 17.302V20.302C7.77798 20.5781 8.00184 20.802 8.27798 20.802H21.278C21.5541 20.802 21.778 20.5781 21.778 20.302V7.302C21.778 7.02586 21.5541 6.802 21.278 6.802H18.278Z" fill="#5B6071"/>
</svg>
