<svg width="24" height="24" viewBox="0 0 24 24" fill="none" xmlns="http://www.w3.org/2000/svg">
<path d="M12 5.9569C10.3973 5.95691 8.8602 6.59359 7.7269 7.7269C6.59359 8.8602 5.95691 10.3973 5.9569 12C5.9569 13.6028 6.59358 15.1399 7.72689 16.2732C8.86019 17.4065 10.3973 18.0432 12 18.0432C13.6028 18.0432 15.1399 17.4065 16.2732 16.2732C17.4065 15.1399 18.0432 13.6028 18.0432 12C18.0432 11.2064 17.8869 10.4206 17.5832 9.68743C17.2795 8.95424 16.8343 8.28805 16.2732 7.72689C15.712 7.16573 15.0458 6.72059 14.3127 6.41689C13.5795 6.11319 12.7936 5.95688 12 5.95688L12 5.9569ZM22.0721 12C22.0721 13.3227 21.8115 14.6324 21.3054 15.8544C20.7992 17.0764 20.0573 18.1868 19.122 19.122C18.1868 20.0573 17.0764 20.7992 15.8544 21.3054C14.6324 21.8115 13.3227 22.0721 12 22.0721C10.6773 22.0721 9.36763 21.8115 8.14564 21.3054C6.92364 20.7992 5.81332 20.0573 4.87805 19.122C3.94278 18.1867 3.20088 17.0764 2.69472 15.8544C2.18855 14.6324 1.92804 13.3227 1.92804 12C1.92805 9.32877 2.9892 6.76692 4.87806 4.87806C6.76692 2.9892 9.32877 1.92805 12 1.92804C13.3227 1.92804 14.6324 2.18855 15.8544 2.69472C17.0764 3.20088 18.1867 3.94278 19.122 4.87805C20.0573 5.81332 20.7992 6.92364 21.3054 8.14564C21.8115 9.36763 22.0721 10.6773 22.0721 12Z" fill="#5B6071"/>
<path d="M16.3112 10.5665H14.1531L14.153 13.4333H16.3112L16.3112 10.5665ZM13.4318 7.68884H10.5684V16.3113H13.4318L13.4318 7.68884ZM9.84724 10.5665H7.68903V13.4333H9.84715L9.84724 10.5665Z" fill="#5B6071"/>
</svg>
