<svg width="24" height="24" viewBox="0 0 24 24" fill="none" xmlns="http://www.w3.org/2000/svg">
<path d="M21.46 10.086C21.236 10.676 20.448 10.934 19.919 10.355C18.251 8.43001 14.983 8.41001 14.074 11.318C13.38 13.41 15.109 15.598 18.167 15.321C18.838 15.268 19.312 15.869 19.101 16.531L17.58 20.688C17.194 21.711 16.204 22.262 15.033 21.879L3.384 17.631C2.335 17.261 1.76 16.118 2.104 15.091L6.419 3.29801C6.884 2.24601 7.687 1.77001 8.966 2.10701L20.615 6.35301C21.666 6.72601 22.24 7.86801 21.896 8.89401L21.46 10.086ZM19.237 12.16C19.237 10.589 17.524 9.60101 16.162 10.387C14.799 11.173 14.799 13.147 16.162 13.933C17.525 14.719 19.237 13.731 19.237 12.16Z" fill="#5B6071"/>
</svg>
