<svg width="24" height="25" viewBox="0 0 24 25" fill="none" xmlns="http://www.w3.org/2000/svg">
<path d="M20.7986 12.5C20.7986 14.8335 19.8716 17.0715 18.2215 18.7215C16.5715 20.3716 14.3335 21.2986 12 21.2986C9.66646 21.2986 7.42851 20.3716 5.77846 18.7215C4.12841 17.0715 3.20142 14.8335 3.20142 12.5C3.20142 10.1665 4.12841 7.92851 5.77846 6.27846C7.42851 4.62841 9.66646 3.70142 12 3.70142C14.3335 3.70142 16.5715 4.62841 18.2215 6.27846C19.8716 7.92851 20.7986 10.1665 20.7986 12.5" stroke="#5B6071" stroke-width="2" stroke-linecap="round"/>
<path d="M19.772 16.3984H4.22797L11.9998 5.17896L19.772 16.3984Z" stroke="#5B6071" stroke-width="2" stroke-linecap="square" stroke-linejoin="round"/>
<path d="M8.88483 9.67352H15.1151V15.9038H8.88483V9.67352Z" stroke="#5B6071" stroke-width="2" stroke-linecap="square" stroke-linejoin="round"/>
</svg>
