<svg width="24" height="25" viewBox="0 0 24 25" fill="none" xmlns="http://www.w3.org/2000/svg">
<path fill-rule="evenodd" clip-rule="evenodd" d="M4.1393 15.8551C3.95617 15.5663 3.95341 15.1983 4.13216 14.9067L10.8627 3.9279C11.237 3.31726 12.141 3.37066 12.4408 4.02111L18.5895 17.359C18.8176 17.8539 18.555 18.4361 18.033 18.5927L8.46831 21.4621C8.08349 21.5775 7.66884 21.4229 7.45373 21.0835L4.1393 15.8551ZM11.6392 7.13801C11.7041 6.81504 12.1466 6.76847 12.2773 7.07086L16.5185 16.8849C16.5983 17.0697 16.499 17.2828 16.3061 17.3403L9.69768 19.313C9.45478 19.3855 9.22209 19.1733 9.272 18.9247L11.6392 7.13801Z" fill="#5B6071"/>
</svg>
