<svg width="24" height="25" viewBox="0 0 24 25" fill="none" xmlns="http://www.w3.org/2000/svg">
<path fill-rule="evenodd" clip-rule="evenodd" d="M10.405 8.24833C10.8192 8.96576 10.5734 9.88315 9.85599 10.2974L3.79381 13.7974C3.07637 14.2116 2.15899 13.9658 1.74478 13.2483C1.33056 12.5309 1.57637 11.6135 2.29381 11.1993L8.35599 7.69929C9.07343 7.28507 9.99082 7.53089 10.405 8.24833Z" fill="#5B6071"/>
<path fill-rule="evenodd" clip-rule="evenodd" d="M1.74475 11.7516C2.15896 11.0342 3.07635 10.7884 3.79379 11.2026L9.85597 14.7026C10.5734 15.1168 10.8192 16.0342 10.405 16.7516C9.99079 17.4691 9.07341 17.7149 8.35597 17.3007L2.29379 13.8007C1.57635 13.3864 1.33054 12.4691 1.74475 11.7516Z" fill="#5B6071"/>
<path fill-rule="evenodd" clip-rule="evenodd" d="M22.2552 11.7516C21.841 11.0342 20.9236 10.7884 20.2062 11.2026L14.144 14.7026C13.4266 15.1168 13.1808 16.0342 13.595 16.7516C14.0092 17.4691 14.9266 17.7149 15.644 17.3007L21.7062 13.8007C22.4236 13.3864 22.6695 12.4691 22.2552 11.7516Z" fill="#5B6071"/>
<path fill-rule="evenodd" clip-rule="evenodd" d="M13.595 8.24833C13.1808 8.96576 13.4266 9.88315 14.144 10.2974L20.2062 13.7974C20.9236 14.2116 21.841 13.9658 22.2552 13.2483C22.6694 12.5309 22.4236 11.6135 21.7062 11.1993L15.644 7.69929C14.9266 7.28507 14.0092 7.53089 13.595 8.24833Z" fill="#5B6071"/>
</svg>
