<svg width="24" height="25" viewBox="0 0 24 25" fill="none" xmlns="http://www.w3.org/2000/svg">
<path fill-rule="evenodd" clip-rule="evenodd" d="M14.6217 21.8218C14.0212 21.9327 13.3384 21.9964 12.6233 21.9998C11.908 22.0033 11.1627 21.9472 10.4441 21.8224C9.30845 21.6238 8.35217 20.736 8.35217 19.5532V15.3974C8.35217 14.1794 9.28115 13.1803 10.4441 13.1803H14.6218C16.0403 13.1803 17.2348 11.909 17.2348 10.4683V8.47424H18.673C19.8885 8.47424 20.5986 9.39429 20.896 10.6865C21.297 12.4217 21.28 13.4603 20.896 15.1223C20.5637 16.572 19.4985 17.3345 18.283 17.3345H16.7136H12.5313V17.8889H16.7136V19.5526C16.7136 20.8125 16.3923 21.4954 14.6217 21.8218ZM14.446 18.9845C13.9139 18.9845 13.4825 19.4346 13.4825 19.9899C13.4825 20.5451 13.9139 20.9953 14.446 20.9953C14.9781 20.9953 15.4095 20.5451 15.4095 19.9899C15.4095 19.4346 14.9781 18.9845 14.446 18.9845Z" fill="#5B6071"/>
<path fill-rule="evenodd" clip-rule="evenodd" d="M9.37835 3.17823C9.9788 3.06725 10.6616 3.00361 11.3767 3.00015C12.092 2.99673 12.8373 3.05277 13.5559 3.17758C14.6916 3.37617 15.6478 4.26399 15.6478 5.44677V9.60261C15.6478 10.8205 14.7189 11.8197 13.5559 11.8197H9.3782C7.95969 11.8197 6.7652 13.091 6.7652 14.5317V16.5257H5.32703C4.11148 16.5257 3.40137 15.6057 3.10404 14.3135C2.70296 12.5783 2.71996 11.5397 3.10404 9.87771C3.43632 8.42797 4.50148 7.66549 5.71703 7.66549H7.28639H11.4688V7.11106H7.28639V5.44742C7.28639 4.18748 7.60775 3.50461 9.37835 3.17823ZM9.55398 6.01616C10.0861 6.01616 10.5175 5.56603 10.5175 5.01077C10.5175 4.45551 10.0861 4.00539 9.55398 4.00539C9.02186 4.00539 8.59049 4.45551 8.59049 5.01077C8.59049 5.56603 9.02186 6.01616 9.55398 6.01616Z" fill="#5B6071"/>
</svg>
