<svg width="24" height="25" viewBox="0 0 24 25" fill="none" xmlns="http://www.w3.org/2000/svg">
<path d="M11.5 14.1773C12.3878 14.1773 13.1074 13.4264 13.1074 12.5C13.1074 11.5737 12.3878 10.8228 11.5 10.8228C10.6123 10.8228 9.89264 11.5737 9.89264 12.5C9.89264 13.4264 10.6123 14.1773 11.5 14.1773Z" fill="#5B6071"/>
<path d="M11.5 15.9364C16.2635 15.9364 20.125 14.3979 20.125 12.5C20.125 10.6022 16.2635 9.06366 11.5 9.06366C6.73654 9.06366 2.875 10.6022 2.875 12.5C2.875 14.3979 6.73654 15.9364 11.5 15.9364Z" stroke="#5B6071"/>
<path d="M8.64803 14.2182C11.0298 18.5228 14.2374 21.2432 15.8125 20.2942C17.3876 19.3453 16.7337 15.0865 14.352 10.7818C11.9703 6.4772 8.76262 3.75687 7.18751 4.70579C5.61241 5.65472 6.2663 9.91357 8.64803 14.2182Z" stroke="#5B6071"/>
<path d="M8.64803 10.7819C6.2663 15.0865 5.61241 19.3454 7.18751 20.2943C8.76262 21.2432 11.9703 18.5229 14.352 14.2182C16.7337 9.91361 17.3876 5.65476 15.8125 4.70583C14.2374 3.7569 11.0298 6.47724 8.64803 10.7819Z" stroke="#5B6071"/>
</svg>
