<svg width="24" height="25" viewBox="0 0 24 25" fill="none" xmlns="http://www.w3.org/2000/svg">
<path d="M20.8433 4.40193C20.6339 4.11604 20.3813 3.86454 20.0945 3.65649C19.2079 3.01089 17.9417 3.01089 15.4087 3.01089H8.58718C6.0547 3.01089 4.78846 3.01089 3.90142 3.65649C3.615 3.86381 3.36344 4.11545 3.15622 4.40193C2.51038 5.28873 2.51038 6.55498 2.51038 9.09106V15.909C2.51038 18.4415 2.51038 19.707 3.15598 20.5947C3.36402 20.8816 3.61552 21.1342 3.90142 21.3435C4.78822 21.9894 6.05446 21.9894 8.58718 21.9894H15.4087C17.9412 21.9894 19.2067 21.9894 20.0945 21.3435C20.3806 21.1334 20.6331 20.8809 20.8433 20.5947C21.4893 19.7082 21.4893 18.4417 21.4893 15.909V9.09106C21.4884 6.55498 21.4884 5.28873 20.8433 4.40193ZM11.2997 15.9195C11.2997 16.5131 11.2997 16.8133 11.2032 17.0475C11.0736 17.36 10.8254 17.6082 10.5129 17.7378C10.2785 17.8343 9.98182 17.8343 9.3847 17.8343C8.79118 17.8343 8.49094 17.8343 8.2567 17.7378C7.94429 17.6083 7.69604 17.3601 7.56646 17.0478C7.46974 16.8133 7.46974 16.5131 7.46974 15.9195V9.66057C7.46974 8.94297 7.46974 8.58417 7.60798 8.31177C7.73104 8.07137 7.92658 7.87574 8.16694 7.75257C8.43886 7.61457 8.79838 7.61457 9.51262 7.61457H11.2999L11.2997 15.9195ZM15.3715 12.1959C14.9259 12.1959 14.4903 12.0638 14.1197 11.8162C13.7492 11.5686 13.4604 11.2168 13.2899 10.805C13.1194 10.3933 13.0747 9.94032 13.1617 9.50325C13.2486 9.06619 13.4632 8.66472 13.7783 8.34962C14.0934 8.03451 14.4949 7.81993 14.9319 7.73299C15.369 7.64605 15.822 7.69067 16.2337 7.8612C16.6454 8.03174 16.9973 8.32052 17.2449 8.69105C17.4925 9.06157 17.6246 9.49719 17.6246 9.94282C17.6248 10.2385 17.5668 10.5313 17.4539 10.8046C17.3409 11.0778 17.1752 11.3262 16.9663 11.5354C16.7574 11.7446 16.5093 11.9106 16.2362 12.024C15.963 12.1373 15.6703 12.1957 15.3746 12.1959H15.3715Z" fill="#5B6071"/>
</svg>
