<svg width="24" height="24" viewBox="0 0 24 24" fill="none" xmlns="http://www.w3.org/2000/svg">
<path d="M16.8192 12.9936H7.18079C6.72479 12.9936 6.35519 12.6192 6.35519 12.168C6.35519 11.7168 6.72959 11.3424 7.18079 11.3424H16.8144C17.2704 11.3424 17.64 11.7168 17.64 12.168C17.64 12.6192 17.2752 12.9936 16.8192 12.9936Z" fill="#5B6071"/>
<path d="M7.18079 11.3184C6.71629 11.3184 6.33124 11.7035 6.33124 12.168C6.33124 12.6323 6.71164 13.0175 7.18079 13.0175H16.8192C17.2883 13.0175 17.664 12.6321 17.664 12.168C17.664 11.7037 17.2835 11.3184 16.8144 11.3184H7.18079ZM7.18079 11.3664H16.8144C17.2572 11.3664 17.6159 11.7299 17.6159 12.168C17.6159 12.6062 17.262 12.9695 16.8191 12.9695H7.18074C6.73789 12.9695 6.37919 12.6061 6.37919 12.168C6.37919 11.7301 6.74284 11.3664 7.18074 11.3664H7.18079Z" fill="#5B6071"/>
<path d="M5.88335 8.60896C5.88335 8.58438 5.91484 8.40813 5.95334 8.21723C6.21052 6.94139 6.92332 5.70083 7.89062 4.84571C8.35583 4.43435 8.75558 4.16349 9.28996 3.89733C11.9482 2.57325 15.2189 3.34432 16.9949 5.71379C17.4947 6.38061 17.8454 7.08731 18.0444 7.82886C18.117 8.09925 18.1997 8.51089 18.1997 8.60166C18.1997 8.6524 18.0614 8.6536 12.0418 8.6536C6.37684 8.6536 5.88388 8.65 5.88388 8.60896H5.88335ZM5.8344 15.4288C5.57654 15.3594 5.39059 15.2301 5.21783 15.0003C5.05713 14.7864 5.00327 14.5717 5.00327 14.1448V13.7862L4.86441 13.653C4.78531 13.5772 4.69358 13.4517 4.65134 13.3616L4.57718 13.2034V11.279L4.65417 11.1222C4.69852 11.0319 4.78886 10.9136 4.86724 10.8431L5.00332 10.7208V10.3598C5.00332 10.0677 5.01417 9.96669 5.06015 9.83022C5.20075 9.41286 5.54169 9.12669 5.97263 9.06433C6.19919 9.03155 17.8003 9.03155 18.0274 9.06433C18.4583 9.12669 18.7992 9.41281 18.9398 9.83022C18.9858 9.96673 18.9966 10.0677 18.9966 10.3598V10.7208L19.1327 10.8431C19.2111 10.9136 19.3014 11.0319 19.3458 11.1222L19.4228 11.279V12.2549C19.4228 13.383 19.4244 13.3743 19.1512 13.6411L19.0017 13.7871L18.9923 14.21C18.9832 14.618 18.9798 14.6392 18.897 14.8117C18.7883 15.0376 18.658 15.1863 18.4705 15.2985C18.1607 15.4838 18.6217 15.4717 11.9877 15.4696C6.89054 15.4681 5.9579 15.4619 5.83502 15.4288L5.8344 15.4288ZM17.1744 12.9214C17.4662 12.7655 17.6234 12.5285 17.6428 12.2155C17.6646 11.8632 17.4866 11.5583 17.1679 11.4014L17.0308 11.334L12.0561 11.3268C6.52075 11.3187 6.91819 11.3053 6.66187 11.508C6.46838 11.661 6.37103 11.8557 6.35572 12.1203C6.34497 12.3061 6.35236 12.3509 6.41716 12.4925C6.49799 12.6693 6.58967 12.7781 6.73185 12.8662C6.95025 13.0013 6.69844 12.9955 12.0411 12.9892L17.0581 12.9835L17.1744 12.9214ZM8.48112 20.7194C8.11243 20.6738 7.62705 20.4888 7.31635 20.2756C7.13721 20.1527 6.83342 19.8573 6.69047 19.6672C6.43084 19.3219 6.24321 18.848 6.18849 18.3996C6.17073 18.2543 6.15825 17.6503 6.15825 16.9357L6.15811 15.7192H7.58764L7.58822 16.8945C7.58851 17.5408 7.60118 18.1563 7.61644 18.2622C7.675 18.6691 7.91985 19.0051 8.28945 19.1857L8.48112 19.2794L9.03096 19.2874C9.52233 19.2946 9.59063 19.2901 9.67329 19.2449C9.73089 19.2135 9.92788 18.9879 10.1956 18.6468C10.4321 18.3457 10.6675 18.071 10.7189 18.0364L10.8123 17.9735H12.0481C13.1373 17.9735 13.2951 17.9789 13.379 18.0187C13.4463 18.0507 13.6037 18.2284 13.917 18.6267C14.1605 18.9363 14.398 19.2128 14.4445 19.2412C14.5682 19.3167 15.4484 19.3179 15.6884 19.243C16.0673 19.1247 16.354 18.838 16.4723 18.4591C16.5178 18.3134 16.5224 18.1797 16.5224 17.0089V15.7192H17.9846L17.9728 17.087L17.9611 18.4547L17.8877 18.7294C17.5979 19.814 16.7212 20.5866 15.6289 20.7199C15.3291 20.7565 8.77694 20.7561 8.48126 20.7194L8.48112 20.7194Z" fill="#5B6071"/>
<path d="M9.49871 17.2312C9.36296 17.1122 9.24795 17.0029 9.24306 16.9883C9.23816 16.9737 9.36522 16.812 9.5253 16.629L9.81637 16.2963L14.1441 16.2984L14.7335 16.9801L14.5213 17.1662C14.4315 17.245 14.3416 17.3237 14.2516 17.4023C14.1949 17.4516 14.192 17.4497 14.021 17.2454L13.8478 17.0385L10.1304 17.0368L9.74552 17.4476L9.49871 17.2312Z" fill="#5B6071"/>
</svg>
