<svg width="24" height="24" viewBox="0 0 24 24" fill="none" xmlns="http://www.w3.org/2000/svg">
<path d="M18.206 6.52199C17.525 6.52199 16.931 6.72599 16.348 6.92099C15.667 5.74399 14.392 4.96499 13.02 4.96499C11.95 4.96499 10.977 5.45199 10.286 6.13299C9.50701 5.15999 8.33001 4.46899 6.96801 4.46899C4.70101 4.46899 2.75501 6.32699 2.75501 8.59499C2.75501 9.16899 2.95901 9.75199 3.15401 10.336C2.59338 10.6432 2.12527 11.095 1.79835 11.6444C1.47143 12.1938 1.29763 12.8207 1.29501 13.46C1.29501 15.406 2.86201 17.08 4.81801 17.08C5.11001 17.08 5.40101 17.08 5.59601 16.982C5.98601 18.451 7.45401 19.532 9.21601 19.532C10.87 19.532 12.242 18.548 12.728 17.176C13.224 17.381 13.711 17.576 14.198 17.576C15.472 17.576 16.64 16.866 17.223 15.814C17.525 15.892 17.836 15.892 18.109 15.892C20.649 15.892 22.701 13.858 22.701 11.222C22.799 8.59499 20.755 6.52199 18.206 6.52199Z" fill="#5B6071"/>
</svg>
