<svg width="24" height="25" viewBox="0 0 24 25" fill="none" xmlns="http://www.w3.org/2000/svg">
<path d="M18.4162 13.2599C17.7461 13.2639 17.1658 13.4348 16.6791 13.6892C16.4994 13.3116 16.3197 12.9816 16.2898 12.7352C16.2561 12.449 16.2149 12.274 16.2561 11.9322C16.2972 11.5903 16.4844 11.1053 16.4844 11.0656C16.4807 11.0298 16.4433 10.8549 16.0576 10.8509C15.672 10.8469 15.3388 10.9304 15.3014 11.0377C15.2639 11.1451 15.1891 11.3915 15.1404 11.6459C15.073 12.0196 14.3692 13.3434 13.9686 14.0391C13.8376 13.7687 13.7252 13.5302 13.7028 13.3394C13.6691 13.0532 13.6279 12.8783 13.6691 12.5364C13.7103 12.1945 13.8975 11.7095 13.8975 11.6698C13.8937 11.634 13.8563 11.4591 13.4707 11.4551C13.085 11.4512 12.7518 11.5346 12.7144 11.642C12.677 11.7493 12.6358 12.0037 12.5534 12.2502C12.4748 12.4967 11.5389 14.7069 11.2955 15.2833C11.172 15.5775 11.0634 15.812 10.9848 15.9711C10.9061 16.1301 10.981 15.983 10.9735 15.9989C10.9061 16.134 10.8687 16.2096 10.8687 16.2096V16.2135C10.8163 16.3129 10.7601 16.4083 10.7339 16.4083C10.7152 16.4083 10.6778 16.142 10.7414 15.7763C10.8799 15.009 11.2169 13.8125 11.2131 13.7687C11.2131 13.7489 11.2768 13.5382 10.996 13.4308C10.7227 13.3235 10.6254 13.5024 10.6029 13.5024C10.5804 13.5024 10.5617 13.566 10.5617 13.566C10.5617 13.566 10.865 12.2184 9.98142 12.2184C9.42734 12.2184 8.6636 12.8584 8.28547 13.4428C8.04587 13.5819 7.53671 13.8761 6.9976 14.1901C6.79169 14.3094 6.57829 14.4366 6.37613 14.5519L6.33495 14.5042C5.26421 13.2917 3.28374 12.4331 3.3661 10.8032C3.39605 10.2109 3.59073 8.64858 7.16982 6.75635C10.1012 5.20599 12.4486 5.63134 12.8567 6.57746C13.437 7.92906 11.6025 10.4414 8.55503 10.8032C7.39445 10.9423 6.7842 10.4653 6.63071 10.2864C6.46972 10.0996 6.44726 10.0916 6.38736 10.1274C6.29002 10.183 6.34992 10.35 6.38736 10.4494C6.47721 10.6998 6.85159 11.1451 7.48804 11.3677C8.04587 11.5625 9.40862 11.6698 11.0559 10.994C12.9016 10.2347 14.343 8.12782 13.9199 6.36677C13.4894 4.57392 10.689 3.98557 8.04213 4.98337C6.46598 5.57966 4.7588 6.50988 3.53083 7.73029C2.07074 9.17729 1.83862 10.4414 1.93596 10.9662C2.27665 12.8385 4.70639 14.0589 5.67978 14.9613C5.63111 14.9892 5.58618 15.017 5.545 15.0408C5.05831 15.2953 3.20512 16.3249 2.74088 17.4141C2.21675 18.6464 2.82325 19.5329 3.22758 19.6522C4.47801 20.0219 5.7584 19.358 6.451 18.2648C7.13987 17.1716 7.0575 15.7524 6.73928 15.1044L6.72805 15.0806L7.10992 14.8421C7.35701 14.687 7.60036 14.5439 7.81375 14.4207C7.69395 14.7665 7.60784 15.176 7.56292 15.7723C7.5105 16.4719 7.78006 17.3783 8.13572 17.7361C8.29296 17.8911 8.48015 17.8951 8.59621 17.8951C9.00803 17.8951 9.19522 17.5333 9.40113 17.1C9.65571 16.5713 9.88034 15.9591 9.88034 15.9591C9.88034 15.9591 9.59955 17.6168 10.367 17.6168C10.6478 17.6168 10.9286 17.2312 11.0559 17.0325V17.0364C11.0559 17.0364 11.0634 17.0245 11.0784 16.9967C11.1083 16.949 11.1233 16.9211 11.1233 16.9211V16.9132C11.2356 16.7065 11.4864 16.2334 11.8608 15.4503C12.3438 14.4406 12.808 13.1764 12.808 13.1764C12.808 13.1764 12.8529 13.4865 12.9915 13.9953C13.0738 14.2975 13.2535 14.6274 13.392 14.9494C13.2797 15.1164 13.2123 15.2118 13.2123 15.2118L13.2161 15.2157C13.1262 15.343 13.0251 15.4781 12.9203 15.6133C12.5384 16.0983 12.0817 16.6508 12.0218 16.8098C11.9507 16.9967 11.9656 17.1358 12.1042 17.2471C12.2053 17.3266 12.385 17.3425 12.5759 17.3266C12.9203 17.3028 13.1599 17.2113 13.2797 17.1557C13.4669 17.0841 13.6803 16.9768 13.8862 16.8178C14.2606 16.5236 14.489 16.1062 14.4665 15.5497C14.4553 15.2436 14.3617 14.9415 14.2456 14.6552C14.2793 14.6036 14.313 14.5519 14.3467 14.4962C14.9382 13.5779 15.395 12.5682 15.395 12.5682C15.395 12.5682 15.4399 12.8783 15.5784 13.3871C15.6496 13.6455 15.7918 13.9278 15.9191 14.206C15.365 14.687 15.0169 15.2436 14.8971 15.6093C14.6762 16.2851 14.8484 16.5912 15.1741 16.6628C15.3201 16.6946 15.5298 16.623 15.687 16.5514C15.8817 16.4839 16.1175 16.3686 16.3347 16.1976C16.7091 15.9035 17.0685 15.494 17.0497 14.9415C17.0385 14.687 16.9749 14.4366 16.8888 14.1981C17.3605 13.9914 17.9707 13.8721 18.7457 13.9715C20.4117 14.1782 20.7412 15.2833 20.6775 15.7445C20.6139 16.2056 20.2657 16.46 20.1496 16.5395C20.0336 16.615 19.9961 16.6429 20.0074 16.6985C20.0223 16.782 20.0748 16.778 20.1758 16.7621C20.3144 16.7383 21.0519 16.3845 21.0818 15.5338C21.1268 14.4406 20.1496 13.248 18.4162 13.2599V13.2599ZM5.56746 17.8593C5.01712 18.4993 4.24215 18.7418 3.9127 18.5351C3.55703 18.3165 3.69556 17.3743 4.37319 16.6946C4.78501 16.2811 5.32037 15.8995 5.67229 15.665C5.75091 15.6133 5.87071 15.5377 6.01298 15.4463C6.03544 15.4304 6.05042 15.4225 6.05042 15.4225C6.07662 15.4066 6.10657 15.3867 6.13652 15.3668C6.38736 16.3368 6.14776 17.1875 5.56746 17.8593V17.8593ZM9.59207 14.9534C9.40113 15.4503 8.9968 16.7264 8.75345 16.6548C8.5438 16.5952 8.41651 15.6292 8.71227 14.6751C8.86202 14.1941 9.18025 13.6217 9.36744 13.399C9.67069 13.0413 10.0001 12.922 10.0825 13.0691C10.1798 13.2599 9.71187 14.6433 9.59207 14.9534ZM12.9128 16.6389C12.8305 16.6826 12.7556 16.7144 12.7219 16.6906C12.6957 16.6747 12.7556 16.615 12.7556 16.615C12.7556 16.615 13.1712 16.142 13.3359 15.9234C13.4295 15.7961 13.5418 15.6491 13.6616 15.4821V15.5298C13.6616 16.1022 13.1449 16.4839 12.9128 16.6389V16.6389ZM15.4736 16.0188C15.4137 15.9711 15.4212 15.824 15.6234 15.3628C15.702 15.18 15.8817 14.8739 16.1924 14.5837C16.2299 14.7029 16.2523 14.8182 16.2486 14.9256C16.2448 15.6411 15.7656 15.9074 15.4736 16.0188Z" fill="#5B6071"/>
</svg>
