<svg width="24" height="25" viewBox="0 0 24 25" fill="none" xmlns="http://www.w3.org/2000/svg">
<path fill-rule="evenodd" clip-rule="evenodd" d="M6.01678 10.1979C6.17379 10.4143 7.49776 10.8226 9.47268 11.2478C11.4476 11.6263 13.5014 13.1208 15.0987 12.66C16.1791 12.3477 17.3511 9.5648 17.3511 9.15148V9.10905C17.3511 8.82049 17.1347 8.5888 16.7672 8.39614C15.2608 7.62638 14.9756 7.34291 14.4172 7.49653C11.518 8.29685 6.39955 7.88778 6.01678 10.1979Z" fill="#5B6071"/>
<path fill-rule="evenodd" clip-rule="evenodd" d="M6.01678 15.8485C6.17379 16.0684 7.49776 16.4732 9.47268 16.8992C11.6793 17.3015 13.5982 18.6128 15.1963 18.1511C16.2767 17.8387 17.3511 15.2163 17.3511 14.8021V14.7614C17.3511 14.4737 17.1347 14.2411 16.7672 14.0493C15.6181 13.4383 14.0998 12.7652 13.5422 12.9188C10.6379 13.7175 6.756 13.8932 6.01678 15.8485Z" fill="#5B6071"/>
<path fill-rule="evenodd" clip-rule="evenodd" d="M15.192 4.59227C12.522 5.36374 8.28617 5.79912 6.00403 5.79912V10.1572C6.00475 10.1722 6.01042 10.1865 6.02015 10.1979C7.57751 10.1979 12.3854 9.68869 15.2862 8.89092C15.7921 8.76215 16.2882 8.59737 16.7706 8.39783C17.1253 8.23827 17.3545 8.07023 17.3545 7.8954V3.5C17.3511 3.91416 16.2724 4.2808 15.192 4.59227Z" fill="#5B6071"/>
<path fill-rule="evenodd" clip-rule="evenodd" d="M15.192 10.2438C13.5939 10.7046 11.4374 11.0475 9.47265 11.2478C8.15378 11.3827 6.92147 11.4532 6.00403 11.4532V15.8078C6.00475 15.8228 6.01042 15.8371 6.02015 15.8486C7.57751 15.8486 12.3854 15.3393 15.2862 14.5424C15.792 14.4133 16.288 14.2485 16.7706 14.0493C17.1253 13.8889 17.3545 13.7217 17.3545 13.5469V9.15149C17.3511 9.5648 16.2724 9.93144 15.192 10.2438Z" fill="#5B6071"/>
<path fill-rule="evenodd" clip-rule="evenodd" d="M15.192 15.8986C13.5939 16.3594 11.4374 16.7014 9.47266 16.9026C8.15209 17.0375 6.91808 17.108 6.00064 17.108V21.5C7.54187 21.5 12.3743 20.995 15.2828 20.1938C16.3547 19.8985 17.3511 19.5624 17.3511 19.1975V14.8021C17.3511 15.2196 16.2724 15.5829 15.192 15.8986Z" fill="#5B6071"/>
</svg>
