<svg width="24" height="24" viewBox="0 0 24 24" fill="none" xmlns="http://www.w3.org/2000/svg">
<path d="M7.49251 20.2344C5.01819 18.7987 2.90827 17.5419 2.80387 17.4416C2.62811 17.2727 2.61411 16.8682 2.61571 12.0007C2.61651 9.10849 2.65323 6.68761 2.69707 6.62081C2.76427 6.51857 11.8915 1.15521 11.9979 1.15521C12.1047 1.15521 21.2315 6.51857 21.2987 6.62081C21.4344 6.82753 21.3989 17.2224 21.2618 17.3872C21.1676 17.5008 17.26 19.8032 12.4282 22.5923L11.9909 22.8447L7.49251 20.2344ZM13.4828 21.1567C14.2771 20.7016 15.0124 20.2324 15.1168 20.1141C15.5302 19.6457 15.2944 18.3199 14.4832 16.5499C14.2084 15.9506 14.0119 15.4319 14.0465 15.3974C14.2198 15.2242 16.4465 17.105 16.9036 17.8107C17.6072 18.8967 17.379 18.8725 18.8737 18.0195C19.6008 17.6047 20.2916 17.1779 20.409 17.0711C20.6042 16.8935 20.6224 16.7294 20.6224 15.1498C20.6224 13.1783 20.653 13.2506 19.5948 12.7151C19.0083 12.4183 17.4287 12.1189 16.4251 12.1143C16.175 12.1131 15.9416 12.0655 15.9063 12.0083C15.8248 11.8766 16.1743 11.6991 17.5307 11.1831C18.3855 10.858 18.8225 10.7575 19.5919 10.7091L20.5682 10.6476V6.96417L19.2141 6.17513C18.4693 5.74113 17.7679 5.38609 17.6553 5.38609C17.2883 5.38609 16.1836 6.14905 15.7127 6.72769C15.4596 7.03873 15.0327 7.61921 14.7643 8.01769C14.4957 8.41625 14.2324 8.74377 14.1791 8.74569C14.0432 8.75049 14.1835 7.39729 14.4417 6.21337C14.5758 5.59833 14.7805 5.02553 14.9821 4.70089C15.1606 4.41353 15.3067 4.11529 15.3067 4.03825C15.3067 3.91233 12.2019 2.02313 11.995 2.02313C11.8507 2.02313 8.93419 3.75713 8.79371 3.92633C8.70459 4.03377 8.67723 4.37433 8.70923 4.97969C8.75083 5.76729 8.82475 6.03009 9.32747 7.17617C9.64155 7.89217 9.92451 8.53897 9.95627 8.61361C10.0847 8.91457 9.72907 8.70729 8.70819 7.88609C7.47939 6.89769 7.11699 6.51273 6.73667 5.79161C6.58763 5.50897 6.41667 5.28153 6.35699 5.28617C6.29723 5.29073 5.61363 5.67065 4.83803 6.13033L3.42763 6.96617V10.754L4.02283 11.1096C4.80523 11.5771 5.13211 11.663 6.68219 11.8076C7.39819 11.8744 8.02619 11.9662 8.07779 12.0115C8.19827 12.1171 7.81107 12.3123 6.46515 12.8243C5.61035 13.1494 5.17331 13.2499 4.40395 13.2983L3.42763 13.3599L3.39787 15.116C3.36267 17.1903 3.20787 16.9272 5.10043 18.0071L6.40059 18.749L6.97211 18.441C7.69371 18.0523 8.21891 17.5153 9.05067 16.316C9.41275 15.7939 9.74803 15.3668 9.79579 15.3668C9.93019 15.3668 9.90075 15.7792 9.66667 17.1731C9.50427 18.1405 9.35627 18.6451 9.06875 19.2128C8.74507 19.8516 8.70931 19.9898 8.83531 20.1158C8.98939 20.2699 11.8321 21.9595 11.9641 21.9754C12.0051 21.9803 12.6886 21.612 13.4829 21.1569L13.4828 21.1567ZM11.2385 14.0117C10.6469 13.8043 10.0339 13.0989 9.90011 12.4717C9.53259 10.7485 11.2878 9.30913 12.8658 10.0397C14.2495 10.6803 14.5802 12.3791 13.533 13.4663C12.8845 14.1395 12.1208 14.3211 11.2385 14.0117ZM12.5217 13.3745C12.7165 13.2931 13.0079 13.0697 13.1691 12.878C13.7351 12.2055 13.4672 11.0433 12.6578 10.6592C11.6203 10.1669 10.5333 10.871 10.5333 12.0352C10.5333 12.6038 10.8928 13.1271 11.45 13.3699C11.8759 13.5554 12.0866 13.5563 12.5217 13.3745Z" fill="#5B6071"/>
</svg>
