<svg width="24" height="24" viewBox="0 0 24 24" fill="none" xmlns="http://www.w3.org/2000/svg">
<path d="M18.3307 8.27259V15.6872L12.0303 19.4148L11.9733 19.4667V22.2379L12.0303 22.2917L20.9035 17.1662V6.83461L20.8197 6.81396L18.3182 8.21249L18.3308 8.27288" fill="#5B6071"/>
<path d="M5.70978 15.7481L12.0304 19.4149V22.2917L3.09637 17.146V6.85477L3.18805 6.84094L5.68242 8.29112L5.70978 8.37416V15.7483" fill="#5B6071"/>
<path d="M5.70978 8.3734L3.09637 6.85401L12.0102 1.70831L20.9036 6.83375L18.3308 8.27212L12.0102 4.66607L5.70978 8.3734Z" fill="#5B6071"/>
<path d="M11.9218 14.8995L11.8534 14.8297V12.0455L11.9218 12.0101L11.9384 11.9415L14.3254 10.5491L14.3984 10.5654V13.4343L11.9218 14.8995Z" fill="#5B6071"/>
<path d="M9.40405 13.5238V10.545L9.47317 10.5416L11.9012 11.9546L11.9219 12.0102V14.8996L9.40405 13.5238Z" fill="#5B6071"/>
<path d="M11.8805 9.07999L9.40393 10.5453L11.9218 12.0106L14.3984 10.5659L11.8805 9.07999Z" fill="#5B6071"/>
<path d="M8.83993 16.7158L8.77148 16.646V13.8617L8.83993 13.8264L8.85654 13.7577L11.2434 12.3654L11.3164 12.3817V15.2503L8.83984 16.7157" fill="#5B6071"/>
<path d="M6.32206 15.3401V12.3612L6.39118 12.3578L8.81921 13.7709L8.83985 13.8266V16.716L6.32196 15.3401" fill="#5B6071"/>
<path d="M8.79866 10.8963L6.32196 12.3615L8.83994 13.8269L11.3166 12.3822L8.79866 10.8963Z" fill="#5B6071"/>
<path d="M15.2242 16.7849L15.1558 16.7151V13.9309L15.2243 13.8955L15.2409 13.8269L17.6278 12.4345L17.7008 12.4508V15.3195L15.2242 16.7848" fill="#5B6071"/>
<path d="M12.7062 15.4092V12.4304L12.7753 12.427L15.2033 13.8401L15.2241 13.8958V16.7851L12.7062 15.4092Z" fill="#5B6071"/>
<path d="M15.1828 10.9645L12.7062 12.4297L15.2241 13.895L17.7007 12.4503L15.1828 10.9645Z" fill="#5B6071"/>
<path d="M12.1417 18.6012L12.0732 18.5314V15.7471L12.1417 15.7118L12.1583 15.6431L14.5452 14.2508L14.6182 14.2671V17.136L12.1416 18.6013" fill="#5B6071"/>
<path d="M9.62455 17.2256V14.2467L9.69367 14.2433L12.1218 15.6563L12.1423 15.712V18.6015L9.62455 17.2256Z" fill="#5B6071"/>
<path d="M12.1004 12.7808L9.62372 14.2461L12.1417 15.7114L14.6183 14.2667L12.1004 12.7808Z" fill="#5B6071"/>
<path d="M11.9218 10.951L11.8534 10.8811V8.0969L11.9218 8.06157L11.9384 7.99293L14.3254 6.60065L14.3984 6.61697V9.48564L11.9218 10.951Z" fill="#5B6071"/>
<path d="M9.40405 9.57532V6.59644L9.47317 6.59308L11.9012 8.00601L11.9219 8.06169V10.9512L9.40405 9.57532Z" fill="#5B6071"/>
<path d="M11.8805 5.13049L9.40393 6.59584L11.9218 8.06118L14.3984 6.61648L11.8805 5.13049Z" fill="#5B6071"/>
<path d="M8.83993 12.7673L8.77148 12.6975V9.91332L8.83993 9.87789L8.85654 9.80925L11.2434 8.41687L11.3164 8.43319V11.3021L8.83993 12.7673Z" fill="#5B6071"/>
<path d="M6.32206 11.3917V8.41288L6.39118 8.40942L8.81921 9.82254L8.83985 9.87822V12.7675L6.32196 11.3917" fill="#5B6071"/>
<path d="M8.7987 6.94681L6.3219 8.41216L8.83988 9.8774L11.3165 8.4327L8.7986 6.94672" fill="#5B6071"/>
<path d="M15.2242 12.8365L15.1558 12.7667V9.98247L15.2243 9.94705L15.2409 9.87841L17.6278 8.48602L17.7008 8.50234V11.3712L15.2242 12.8365Z" fill="#5B6071"/>
<path d="M12.7062 11.4598V8.48102L12.7753 8.47766L15.2033 9.89059L15.2241 9.94627V12.8357L12.7062 11.4598Z" fill="#5B6071"/>
<path d="M15.1828 7.01597L12.7062 8.48131L15.2241 9.94656L17.7007 8.50185L15.1828 7.01597Z" fill="#5B6071"/>
<path d="M12.1417 14.6518L12.0732 14.582V11.7977L12.1417 11.7624L12.1583 11.6938L14.5452 10.3014L14.6182 10.3177V13.1864L12.1416 14.6517" fill="#5B6071"/>
<path d="M9.62455 13.2761V10.2972L9.69367 10.2938L12.1218 11.7069L12.1423 11.7626V14.652L9.62455 13.2761Z" fill="#5B6071"/>
<path d="M12.1004 8.83228L9.62372 10.2976L12.1417 11.763L14.6183 10.3183L12.1004 8.83228Z" fill="#5B6071"/>
</svg>
