<svg width="24" height="24" viewBox="0 0 24 24" fill="none" xmlns="http://www.w3.org/2000/svg">
<path d="M10.469 17.102C10.469 18.1849 10.0388 19.2234 9.27313 19.9891C8.50742 20.7548 7.46889 21.185 6.38601 21.185C5.30313 21.185 4.2646 20.7548 3.49889 19.9891C2.73318 19.2234 2.30301 18.1849 2.30301 17.102C2.30301 16.0191 2.73318 14.9806 3.49889 14.2149C4.2646 13.4492 5.30313 13.019 6.38601 13.019C7.46889 13.019 8.50742 13.4492 9.27313 14.2149C10.0388 14.9806 10.469 16.0191 10.469 17.102ZM15.538 7.43601C15.6398 6.67293 15.5238 5.89662 15.2034 5.19664C14.8829 4.49666 14.3711 3.90153 13.727 3.4799C13.0829 3.05828 12.3327 2.82735 11.563 2.81375C10.7933 2.80015 10.0354 3.00443 9.3768 3.40303C8.71819 3.80163 8.18568 4.37831 7.84072 5.06653C7.49576 5.75475 7.35239 6.52648 7.42717 7.29267C7.50194 8.05887 7.7918 8.78832 8.26331 9.39687C8.73482 10.0054 9.36876 10.4683 10.092 10.732C13.222 11.963 13.959 13.206 13.567 16.56C13.465 17.3231 13.5809 18.0995 13.9012 18.7995C14.2215 19.4996 14.7332 20.0949 15.3772 20.5166C16.0213 20.9384 16.7715 21.1695 17.5412 21.1832C18.311 21.1969 19.0689 20.9928 19.7276 20.5942C20.3863 20.1957 20.9189 19.6191 21.264 18.9308C21.609 18.2426 21.7525 17.4709 21.6778 16.7046C21.603 15.9384 21.3132 15.2089 20.8417 14.6003C20.3702 13.9917 19.7363 13.5288 19.013 13.265C15.883 12.033 15.144 10.79 15.538 7.43601Z" fill="#5B6071"/>
</svg>
