<svg width="24" height="24" viewBox="0 0 24 24" fill="none" xmlns="http://www.w3.org/2000/svg">
<path d="M21.6182 18.3178L12.8242 4.63851C12.736 4.49979 12.6142 4.38558 12.4701 4.30646C12.3259 4.22734 12.1642 4.18585 11.9998 4.18585C11.8354 4.18585 11.6736 4.22734 11.5295 4.30646C11.3854 4.38558 11.2636 4.49979 11.1754 4.63851L2.38142 18.3178C2.28885 18.4655 2.23744 18.6352 2.23252 18.8093C2.2276 18.9835 2.26936 19.1559 2.35345 19.3085C2.43755 19.4611 2.56093 19.5884 2.7108 19.6773C2.86068 19.7662 3.0316 19.8134 3.20586 19.814H20.7937C20.968 19.8134 21.1389 19.7662 21.2888 19.6773C21.4387 19.5884 21.562 19.4611 21.6461 19.3085C21.7302 19.1559 21.772 18.9835 21.7671 18.8093C21.7622 18.6352 21.7107 18.4655 21.6182 18.3178ZM12 6.95897L14.5954 11.0201H12L10.0458 12.9743L8.88549 11.814L12 6.95897Z" fill="#5B6071"/>
</svg>
