<svg width="24" height="24" viewBox="0 0 24 24" fill="none" xmlns="http://www.w3.org/2000/svg">
<path fill-rule="evenodd" clip-rule="evenodd" d="M11.999 2.208C6.59088 2.208 2.208 6.59295 2.208 12.001C2.208 14.555 3.1861 16.8802 4.78752 18.623C5.97437 18.2634 7.17298 17.9287 8.1491 17.6738C10.2931 17.1139 13.5918 16.2601 15.363 15.1943C14.7793 14.8201 13.7776 14.4134 11.4011 13.6615C9.02251 12.909 6.38458 12.1133 6.56026 11.2917C6.56026 11.2917 6.56661 11.2688 6.58669 11.2304C6.58141 11.2389 6.5731 11.2469 6.56813 11.2554C6.9608 10.2519 8.147 7.62395 8.147 7.62395C8.9978 6.22777 12.7643 5.22894 15.3916 4.50284C16.0045 4.33348 16.7364 4.12557 17.5066 3.90246C15.9374 2.83307 14.041 2.20792 11.9986 2.20792L11.999 2.208ZM20.7197 7.5432C18.9527 7.82829 13.3781 8.84021 11.9496 9.16253C11.3684 9.29366 10.5698 9.46501 9.76224 9.68285C10.9044 10.2445 11.2606 10.5254 12.839 11.1085C14.4203 11.6926 16.7915 13.0246 16.5274 14.0663C16.5274 14.0663 16.516 14.0964 16.497 14.1388C16.2944 14.6952 15.6527 16.1263 15.6527 16.1263C14.7582 16.9989 10.6933 17.9666 8.01683 18.4817C7.16305 18.646 6.18855 18.8359 5.20047 19.0453C6.9615 20.7449 9.35785 21.7919 11.9987 21.7919C17.4069 21.7919 21.7917 17.4089 21.7917 12.0009C21.7917 10.3954 21.4043 8.88028 20.7194 7.54319L20.7197 7.5432ZM8.1696 10.1941C8.14346 10.2044 8.11786 10.2148 8.09207 10.2252C8.11715 10.2149 8.14369 10.2045 8.1696 10.1941ZM7.8936 10.3097C7.82525 10.3395 7.75865 10.3697 7.69363 10.4005C7.75558 10.3708 7.82474 10.3402 7.8936 10.3097ZM7.64892 10.4226C7.43154 10.5279 7.23633 10.6392 7.0685 10.7572C7.21578 10.6548 7.40447 10.5424 7.64892 10.4226ZM6.98037 10.8208C6.95272 10.842 6.92381 10.8628 6.89806 10.8844C6.9229 10.864 6.95179 10.8423 6.98037 10.8208Z" fill="#5B6071"/>
</svg>
