<svg width="24" height="24" viewBox="0 0 24 24" fill="none" xmlns="http://www.w3.org/2000/svg">
<path fill-rule="evenodd" clip-rule="evenodd" d="M12 3.30451C7.19738 3.30451 3.30376 7.19738 3.30376 12C3.30376 16.8026 7.19738 20.6959 12 20.6959C16.8026 20.6959 20.6955 16.8026 20.6955 12C20.6955 7.19738 16.8026 3.30451 12 3.30451ZM1.97626 12C1.97626 6.46426 6.46463 1.97626 12 1.97626C17.5354 1.97626 22.0238 6.46463 22.0238 12C22.0238 17.5354 17.5354 22.0238 12 22.0238C6.46463 22.0238 1.97626 17.5354 1.97626 12Z" fill="#5B6071"/>
<path fill-rule="evenodd" clip-rule="evenodd" d="M21.4421 14.109L9.14401 21.2093L8.81176 20.6344L21.1103 13.5338L21.4421 14.109ZM15.3098 3.4875L3.01164 10.5885L2.67976 10.0136L14.9779 2.91263L15.3098 3.4875ZM17.7574 12.8715C17.8013 12.9478 17.8132 13.0384 17.7904 13.1235C17.7676 13.2085 17.7121 13.2811 17.6359 13.3253L6.45526 19.7801C6.37898 19.8241 6.28834 19.836 6.20328 19.8132C6.11822 19.7904 6.04571 19.7347 6.0017 19.6584C5.95769 19.5822 5.94579 19.4915 5.96861 19.4065C5.99143 19.3214 6.04711 19.2489 6.12339 19.2049L17.3036 12.75C17.3414 12.7282 17.3831 12.714 17.4264 12.7082C17.4696 12.7025 17.5136 12.7054 17.5557 12.7167C17.5979 12.728 17.6374 12.7474 17.672 12.774C17.7066 12.8006 17.7356 12.8337 17.7574 12.8715ZM18.12 4.46325C18.2119 4.62225 18.1575 4.82513 17.9989 4.917L6.81864 11.3719C6.74236 11.4159 6.65169 11.4279 6.5666 11.4051C6.48151 11.3823 6.40895 11.3267 6.36489 11.2504C6.32083 11.1741 6.30888 11.0834 6.33166 10.9983C6.35445 10.9132 6.41011 10.8407 6.48639 10.7966L17.6666 4.34175C17.7044 4.3199 17.7461 4.30571 17.7894 4.29999C17.8326 4.29427 17.8766 4.29713 17.9187 4.30842C17.9609 4.3197 18.0004 4.33919 18.035 4.36575C18.0696 4.39232 18.0982 4.42545 18.12 4.46325Z" fill="#5B6071"/>
<path fill-rule="evenodd" clip-rule="evenodd" d="M8.97902 9.69152C9.00497 9.65645 9.03759 9.62684 9.075 9.60439C9.1124 9.58194 9.15387 9.56709 9.19703 9.56068C9.24018 9.55427 9.28417 9.55644 9.32649 9.56705C9.36881 9.57766 9.40862 9.59651 9.44364 9.62252L15.4313 14.0621C15.502 14.1146 15.549 14.1929 15.5619 14.28C15.5749 14.367 15.5527 14.4557 15.5003 14.5264C15.4479 14.5971 15.3695 14.6441 15.2824 14.657C15.1954 14.67 15.1067 14.6478 15.036 14.5954L9.04802 10.155C9.01301 10.1291 8.98345 10.0965 8.96103 10.0591C8.93861 10.0217 8.92378 9.98029 8.91737 9.93718C8.91096 9.89407 8.91311 9.85012 8.92369 9.80784C8.93426 9.76556 8.95307 9.72578 8.97902 9.69077V9.69152ZM11.2151 8.40077C11.2411 8.36575 11.2737 8.33619 11.3111 8.31378C11.3484 8.29136 11.3899 8.27652 11.433 8.27012C11.4761 8.26371 11.52 8.26586 11.5623 8.27643C11.6046 8.28701 11.6444 8.30581 11.6794 8.33177L17.667 12.771C17.7377 12.8234 17.7847 12.9018 17.7977 12.9889C17.8106 13.0759 17.7884 13.1646 17.736 13.2353C17.6836 13.306 17.6052 13.353 17.5182 13.3659C17.4311 13.3789 17.3425 13.3567 17.2718 13.3043L11.2838 8.86502C11.2487 8.83903 11.2192 8.8064 11.1967 8.76898C11.1743 8.73156 11.1595 8.69008 11.1531 8.64693C11.1468 8.60378 11.149 8.55979 11.1596 8.51749C11.1702 8.47519 11.1891 8.43539 11.2151 8.40039V8.40077ZM6.38252 10.8911C6.40787 10.8557 6.43997 10.8256 6.47697 10.8025C6.51397 10.7794 6.55515 10.7639 6.59815 10.7568C6.64116 10.7496 6.68516 10.751 6.72762 10.7609C6.77009 10.7708 6.81019 10.7889 6.84564 10.8143L13.1906 15.3495C13.2261 15.3749 13.2562 15.407 13.2793 15.444C13.3023 15.481 13.3179 15.5222 13.325 15.5652C13.3321 15.6082 13.3307 15.6522 13.3209 15.6946C13.311 15.7371 13.2929 15.7772 13.2675 15.8126C13.2422 15.8481 13.2101 15.8782 13.1731 15.9013C13.1361 15.9243 13.0949 15.9399 13.0519 15.947C13.0089 15.9541 12.9649 15.9527 12.9224 15.9429C12.88 15.933 12.8399 15.9149 12.8044 15.8895L6.45939 11.3543C6.42393 11.3289 6.39381 11.2968 6.37075 11.2598C6.34769 11.2228 6.33214 11.1816 6.32501 11.1386C6.31787 11.0956 6.31927 11.0516 6.32914 11.0092C6.33901 10.9667 6.35715 10.9266 6.38252 10.8911Z" fill="#5B6071"/>
</svg>
