<svg width="24" height="24" viewBox="0 0 24 24" fill="none" xmlns="http://www.w3.org/2000/svg">
<path d="M11.095 2.49799V3.90199C9.25713 4.10543 7.54331 4.92862 6.23572 6.23603C4.92812 7.54345 4.10469 9.25715 3.90099 11.095H2.49899V12.905H3.90299C4.10643 14.7429 4.92963 16.4567 6.23704 17.7643C7.54446 19.0719 9.25815 19.8953 11.096 20.099V21.502H12.906V20.099C14.7438 19.8953 16.4575 19.0719 17.7649 17.7643C19.0724 16.4567 19.8956 14.7429 20.099 12.905H21.503V11.095H20.099C19.8953 9.2573 19.0721 7.54372 17.7647 6.23632C16.4573 4.92893 14.7437 4.10564 12.906 3.90199V2.49799H11.095ZM11.095 5.72899V7.02299H12.905V5.72899C14.2601 5.92111 15.5161 6.54829 16.4839 7.51608C17.4517 8.48387 18.0789 9.73988 18.271 11.095H16.977V12.905H18.271C18.0789 14.2601 17.4517 15.5161 16.4839 16.4839C15.5161 17.4517 14.2601 18.0789 12.905 18.271V16.977H11.095V18.271C9.73989 18.0789 8.48387 17.4517 7.51608 16.4839C6.5483 15.5161 5.92112 14.2601 5.72899 12.905H7.02299V11.095H5.72899C5.92112 9.73988 6.5483 8.48387 7.51608 7.51608C8.48387 6.54829 9.73989 5.92111 11.095 5.72899Z" fill="#5B6071"/>
<path d="M10.945 2.34799V3.78999C9.12823 4.0208 7.43967 4.84875 6.14471 6.14371C4.84974 7.43868 4.02179 9.12724 3.79098 10.944H2.34698V13.054H3.79098C4.02179 14.8707 4.84974 16.5593 6.14471 17.8543C7.43967 19.1492 9.12823 19.9772 10.945 20.208V21.651H13.055V20.21C14.8717 19.9792 16.5603 19.1512 17.8553 17.8563C19.1502 16.5613 19.9782 14.8727 20.209 13.056H21.652V10.946H20.21C19.9791 9.12909 19.151 7.44042 17.8559 6.14543C16.5607 4.85045 14.8719 4.02259 13.055 3.79199V2.34799H10.945ZM11.244 2.64799H12.756V4.03799L12.888 4.05099C14.6917 4.25097 16.3735 5.05906 17.6567 6.34226C18.9399 7.62547 19.748 9.30732 19.948 11.111L19.963 11.244H21.351V12.756H19.963L19.949 12.889C19.749 14.6927 18.9409 16.3745 17.6577 17.6577C16.3745 18.9409 14.6927 19.749 12.889 19.949L12.756 19.963V21.352H11.244V19.962L11.111 19.949C9.30731 19.749 7.62546 18.9409 6.34226 17.6577C5.05905 16.3745 4.25096 14.6927 4.05099 12.889L4.03699 12.756H2.64798V11.244H4.03699L4.05099 11.111C4.25096 9.30732 5.05905 7.62547 6.34226 6.34226C7.62546 5.05906 9.30731 4.25097 11.111 4.05099L11.244 4.03699V2.64799ZM11.244 5.55699L11.074 5.57999C9.68657 5.77676 8.40063 6.41891 7.40977 7.40978C6.41891 8.40064 5.77675 9.68658 5.57998 11.074L5.55599 11.244H6.87298V12.756H5.55599L5.57998 12.926C5.77675 14.3134 6.41891 15.5993 7.40977 16.5902C8.40063 17.5811 9.68657 18.2232 11.074 18.42L11.244 18.443V17.127H12.756V18.443L12.926 18.42C14.3134 18.2232 15.5993 17.5811 16.5902 16.5902C17.5811 15.5993 18.2232 14.3134 18.42 12.926L18.443 12.756H17.127V11.244H18.443L18.42 11.074C18.2232 9.68644 17.5809 8.40039 16.5898 7.40951C15.5987 6.41862 14.3126 5.77656 12.925 5.57999L12.755 5.55699V6.87299H11.244V5.55699ZM10.945 5.92999V7.17399H13.055V5.92999C14.3073 6.14366 15.4624 6.74089 16.3608 7.63923C17.2591 8.53756 17.8563 9.69266 18.07 10.945H16.826V13.055H18.07C17.8563 14.3075 17.2589 15.4627 16.3603 16.361C15.4618 17.2594 14.3065 17.8565 13.054 18.07V16.826H10.945V18.07C9.69247 17.8565 8.53715 17.2594 7.63862 16.361C6.7401 15.4627 6.14271 14.3075 5.92898 13.055H7.17299V10.945H5.92998C6.14371 9.69252 6.7411 8.53732 7.63962 7.63897C8.53815 6.74062 9.69347 6.14347 10.946 5.92999H10.945Z" fill="#5B6071"/>
</svg>
