<svg width="24" height="24" viewBox="0 0 24 24" fill="none" xmlns="http://www.w3.org/2000/svg">
<path fill-rule="evenodd" clip-rule="evenodd" d="M12.1449 22.0379C14.37 13.7388 14.3055 13.7012 15.9139 7.78386L16.3007 8.01684C16.5108 8.14345 16.6828 8.03991 16.6828 7.78736V4.9654C17.1096 3.40623 17.4441 2.20143 17.5421 1.83917H19.2847L22.1794 4.63631L20.2782 6.35001L21.7158 7.97115L12.2411 22.0377C12.1948 22.1171 12.1303 22.099 12.1449 22.0377V22.0379ZM13.18 4.14991C13.2656 4.14991 13.3355 4.19926 13.3355 4.2605V5.70672C13.3355 5.76781 13.2656 5.81746 13.1801 5.81746H10.8395C10.7535 5.81746 10.6838 5.76801 10.6838 5.70672V4.2605C10.6838 4.19946 10.7534 4.14991 10.8395 4.14991H13.1801H13.18Z" fill="#5B6071"/>
<path fill-rule="evenodd" clip-rule="evenodd" d="M16.0689 2.54891L13.4941 4.09933C13.524 4.14671 13.5421 4.20131 13.5421 4.26086V5.70712C13.5421 5.78217 13.5142 5.8498 13.4683 5.9044L16.0689 7.47038C16.2462 7.57715 16.3917 7.48979 16.3917 7.2765V2.743C16.3917 2.52949 16.2463 2.44239 16.0689 2.54891ZM10.4768 5.70702V4.26081C10.4768 4.20157 10.4949 4.14697 10.5245 4.09958L7.94961 2.54891C7.77242 2.44239 7.62714 2.52954 7.62714 2.743V7.27644C7.62714 7.48969 7.77222 7.57726 7.94961 7.47012L10.5501 5.90399C10.5044 5.84939 10.4767 5.78192 10.4767 5.70687L10.4768 5.70702Z" fill="#5B6071"/>
<path fill-rule="evenodd" clip-rule="evenodd" d="M11.7721 22.0379H11.8682C9.64352 13.7388 9.70757 13.7012 8.0993 7.78386L7.71248 8.01684C7.50245 8.14345 7.3304 8.03991 7.3304 7.78736V4.9654C6.90348 3.40623 6.56915 2.20143 6.47088 1.83917H4.72848L1.83377 4.63631L3.73474 6.35001L2.29719 7.97115L11.7721 22.0379Z" fill="#5B6071"/>
<path d="M11.9361 8.83726C12.3242 8.83726 12.6388 8.50908 12.6388 8.10424C12.6388 7.6994 12.3242 7.37122 11.9361 7.37122C11.5479 7.37122 11.2333 7.6994 11.2333 8.10424C11.2333 8.50908 11.5479 8.83726 11.9361 8.83726Z" fill="#5B6071"/>
<path d="M11.9361 13.196C12.3242 13.196 12.6388 12.8678 12.6388 12.4629C12.6388 12.0581 12.3242 11.7299 11.9361 11.7299C11.5479 11.7299 11.2333 12.0581 11.2333 12.4629C11.2333 12.8678 11.5479 13.196 11.9361 13.196Z" fill="#5B6071"/>
<path d="M11.9361 17.5546C12.3242 17.5546 12.6388 17.2264 12.6388 16.8216C12.6388 16.4168 12.3242 16.0886 11.9361 16.0886C11.548 16.0886 11.2333 16.4168 11.2333 16.8216C11.2333 17.2264 11.548 17.5546 11.9361 17.5546Z" fill="#5B6071"/>
</svg>
