<svg width="24" height="25" viewBox="0 0 24 25" fill="none" xmlns="http://www.w3.org/2000/svg">
<path d="M14.6029 18.6722C16.2191 16.7391 16.4093 14.7427 15.1575 11.0351C14.3652 8.69013 13.0501 6.8838 14.0166 5.4261C15.0466 3.87335 17.2331 5.37863 15.4109 7.45422L15.7754 7.7077C17.9619 7.96128 19.0394 4.96651 17.4074 4.11093C13.0977 1.86101 9.32656 6.18663 10.9903 11.1935C11.7033 13.3167 12.7015 15.5667 11.8934 17.3572C11.1963 18.8941 9.84941 19.7973 8.94635 19.829C7.06086 19.9241 8.31267 15.5985 10.4833 14.521C10.6734 14.4261 10.9428 14.2992 10.6893 13.9823C8.01161 13.6813 6.44296 14.9171 5.5398 16.6443C2.90956 21.6671 10.5309 23.5209 14.603 18.6723L14.6029 18.6722Z" fill="#5B6071"/>
</svg>
