<svg width="24" height="24" viewBox="0 0 24 24" fill="none" xmlns="http://www.w3.org/2000/svg">
<path fill-rule="evenodd" clip-rule="evenodd" d="M8.7536 2.89193C7.19856 3.55351 3.6448 6.95969 3.63272 9.64345C3.65364 12.418 7.19856 15.7334 8.7536 16.3951C9.11004 16.5467 9.66344 16.7563 10.2477 16.7563C10.7806 16.7563 11.2318 16.4936 11.6908 15.9412C12.4625 15.013 12.3697 13.6782 11.3413 12.9207C10.1105 12.0148 9.10334 11.2017 9.08238 9.64344C9.1033 8.08544 10.1107 6.99792 11.3413 6.09184C12.3696 5.33434 12.5701 4.18528 11.7984 3.25704C11.3393 2.70481 10.7805 2.53033 10.2476 2.53033C9.66344 2.53033 9.11008 2.74016 8.7536 2.89193Z" fill="#5B6071"/>
<path fill-rule="evenodd" clip-rule="evenodd" d="M10.1688 7.14688C9.88551 7.47238 9.62171 7.80117 9.3813 8.13128C8.97976 8.64368 8.63419 9.18256 8.35474 9.72504L8.35154 9.72824C8.3473 9.73647 8.34324 9.74501 8.33903 9.75324C8.33231 9.76648 8.32669 9.77897 8.31872 9.79543C7.96603 10.4947 7.72135 11.1987 7.60466 11.861C7.60419 11.8637 7.60355 11.8662 7.6031 11.8689C7.14851 13.9874 7.79311 15.8076 9.7031 16.6892C10.4582 16.9517 11.1056 16.6475 11.6953 15.9767C12.3778 15.2005 12.4617 13.6601 11.3906 12.9205C9.88897 11.8837 9.12233 10.8949 9.13121 9.6283C9.14019 8.37142 9.84107 7.52648 10.1688 7.14688Z" fill="#5B6071"/>
<path fill-rule="evenodd" clip-rule="evenodd" d="M13.784 21.4696C13.2539 21.4696 12.6977 21.2952 12.2408 20.7433C11.4729 19.8155 11.6736 18.6672 12.6969 17.9104C13.9218 17.0048 14.923 15.9177 14.944 14.3605C14.923 12.8033 13.9206 11.7691 12.6969 10.8588C11.7936 10.187 11.4728 8.90572 12.2408 7.97772C12.6977 7.42588 13.2537 7.2514 13.7842 7.2514C14.3657 7.2514 14.9163 7.4612 15.2712 7.61259C16.8186 8.27376 20.34 11.5792 20.3672 14.3606C20.3585 16.9822 16.8186 20.4471 15.2712 21.1086C14.9163 21.26 14.3656 21.4696 13.784 21.4696Z" fill="#5B6071"/>
<g style="mix-blend-mode:multiply">
<path fill-rule="evenodd" clip-rule="evenodd" d="M13.7752 7.2156C13.2019 7.20681 12.64 7.47482 12.1955 7.9781C11.5095 8.75415 11.6249 10.1475 12.7018 10.8875C14.2111 11.9243 14.931 13.1127 14.9221 14.3796C14.9118 15.816 13.9932 16.715 13.7643 16.9952C14.2887 16.61 14.7403 16.1599 15.1236 15.6703C15.0951 15.7243 15.0658 15.7725 15.0392 15.8078C15.437 15.3403 15.7752 14.7822 16.0376 14.1874C16.0587 14.1423 16.0839 14.0847 16.1095 14.0218C16.1164 14.0049 16.1227 13.9915 16.1298 13.9734C16.3145 13.5172 16.453 13.0428 16.5423 12.5734C16.6503 12.0493 16.7078 11.4921 16.6376 11.025C16.6337 10.9778 16.6305 10.9307 16.6251 10.8844C16.4983 9.32748 15.7527 7.96356 14.3486 7.31876C14.1588 7.25313 13.9663 7.21854 13.7752 7.2156Z" fill="#5B6071"/>
</g>
</svg>
