<svg width="24" height="25" viewBox="0 0 24 25" fill="none" xmlns="http://www.w3.org/2000/svg">
<path d="M16.2707 19.2082C16.3141 19.186 16.3554 19.1608 16.3944 19.133C16.7473 18.9985 17.1258 18.8972 17.4641 18.9183C17.7684 18.9373 18.098 19.049 18.3858 19.6175L18.3858 19.6175L18.39 19.6257C18.4403 19.7228 18.5925 19.9904 18.9275 20.1337C19.3704 20.3233 19.7758 20.1621 19.9996 19.9788C20.1823 19.8291 20.2743 19.6529 20.3142 19.5678C20.3627 19.4648 20.3946 19.3635 20.4164 19.2781C20.5002 18.9512 20.5208 18.5254 20.4791 18.0707C20.4016 17.2274 20.0941 16.1112 19.3228 14.9993C20.1744 11.2526 17.8291 7.1007 14.232 4.92658C13.8167 4.67562 13.2813 4.75892 12.9619 5.12416C12.6425 5.4894 12.6314 6.03119 12.9355 6.40922C13.582 7.21282 14.0399 8.15121 14.2757 9.15526C14.4472 9.88596 14.4978 10.6379 14.4274 11.3814C12.2832 9.89248 10.2827 8.20519 8.45253 6.34139C8.09346 5.97572 7.51607 5.94069 7.11543 6.26027C6.84031 6.47972 6.7097 6.81761 6.74446 7.14747C6.67125 7.09359 6.59711 7.03923 6.52203 6.98437C6.13912 6.70458 5.61234 6.73223 5.26082 7.05056C4.9093 7.36889 4.82971 7.89035 5.07027 8.29905C5.33182 8.74341 5.63326 9.16303 5.97084 9.55271C7.50159 11.5951 9.23676 13.474 11.1485 15.1608C9.86309 15.4627 8.29072 15.3139 6.64677 14.548L6.64679 14.548L6.63797 14.544C6.09626 14.2979 5.5862 13.9875 5.11886 13.6193C4.7364 13.318 4.19253 13.3359 3.83075 13.6617C3.46898 13.9876 3.39446 14.5266 3.65428 14.9384C4.8759 16.8745 6.65413 18.396 8.7555 19.3034C9.9267 19.8676 11.2125 20.1536 12.5127 20.1389C13.8206 20.1241 15.1071 19.8055 16.2707 19.2082Z" stroke="#5B6071" stroke-width="2" stroke-linejoin="round"/>
</svg>
