<svg width="24" height="24" viewBox="0 0 24 24" fill="none" xmlns="http://www.w3.org/2000/svg">
<path d="M21.492 2.51001C21.492 2.51001 14.24 2.15701 8.526 9.98801C4.141 15.996 2.508 21.492 2.508 21.492L4.35 20.542C5.716 18.17 6.428 17.192 7.767 15.797C10.168 16.499 12.674 16.414 14.847 13.898C12.949 13.368 11.431 13.49 9.19 13.718C11.706 12 13.424 11.62 15.797 12L16.746 10.102C15.037 9.77901 13.898 9.75001 12.209 10.14C14.079 8.82001 15.379 8.08001 17.695 8.20301L18.843 6.37101C17.363 6.26701 16.471 6.42801 14.771 6.84601C16.3 5.46001 17.695 4.83401 19.726 4.71001C19.726 4.71001 20.723 2.91701 21.492 2.50801V2.51001Z" fill="#5B6071"/>
</svg>
