<svg width="24" height="24" viewBox="0 0 24 24" fill="none" xmlns="http://www.w3.org/2000/svg">
<path d="M8.26399 3.08798C8.04199 3.21598 7.73999 3.39798 7.59999 3.48798C7.52499 3.53498 7.05999 3.81598 6.56699 4.11198C6.07399 4.40798 5.66699 4.66198 5.66099 4.67298C5.65793 4.67952 5.65315 4.68512 5.64716 4.68917C5.64118 4.69322 5.63421 4.69557 5.62699 4.69598C5.60299 4.69598 4.26699 5.49098 3.96699 5.68398C3.88712 5.73501 3.81504 5.79732 3.75299 5.86898L3.68499 5.95998L3.67799 7.05498C3.66999 8.38198 3.68499 8.43498 4.07999 8.51898C4.23599 8.55198 8.87199 8.52698 8.95399 8.49198C9.27999 8.35598 9.27499 8.39798 9.26599 5.70198L9.25799 3.37798L9.18499 3.26498C9.01599 3.00498 8.55799 2.91698 8.26499 3.08798M10.543 3.09098C10.475 3.13398 10.411 3.19498 10.401 3.22598C10.391 3.25698 10.371 3.28298 10.358 3.28298C10.344 3.28298 10.334 3.29298 10.335 3.30298C10.3369 3.31432 10.3362 3.32593 10.333 3.33698C10.33 3.34498 10.32 3.38698 10.31 3.43198C10.263 3.64298 10.29 20.654 10.338 20.654C10.352 20.654 10.355 20.666 10.348 20.68C10.319 20.724 10.539 20.92 10.65 20.951C11.024 21.055 16.15 20.977 16.15 20.866C16.15 20.854 16.17 20.844 16.192 20.844C16.216 20.844 16.228 20.834 16.222 20.822C16.213 20.809 16.232 20.779 16.26 20.754C16.29 20.729 16.313 20.686 16.313 20.659C16.313 20.631 16.319 20.602 16.327 20.594C16.335 20.587 16.341 17.966 16.34 14.772C16.34 9.73998 16.345 8.95198 16.38 8.86898C16.401 8.81698 16.413 8.77398 16.405 8.77398C16.337 8.77398 16.632 8.51998 16.721 8.50198C16.743 8.49798 17.461 8.48998 18.317 8.48498C20.183 8.47498 20.107 8.48498 20.26 8.21698L20.323 8.10798V5.75598C20.323 3.15198 20.334 3.32598 20.15 3.15298C19.99 3.00298 20.275 3.00998 15.284 3.01098L10.667 3.01198L10.543 3.09098Z" fill="#5B6071"/>
</svg>
