<svg width="24" height="24" viewBox="0 0 24 24" fill="none" xmlns="http://www.w3.org/2000/svg">
<path d="M10.8605 21.7059C10.3174 21.7058 9.87367 21.2723 9.86088 20.7294L9.55233 7.63496C9.51072 5.86927 7.64077 4.71588 6.62363 6.15978V6.15978C5.94913 7.12903 5.61188 8.33403 5.61188 9.77478C5.61188 10.1033 5.62888 10.3729 5.66288 10.5837C5.70463 10.7859 5.74663 10.9502 5.78888 11.0764C5.83113 11.1944 5.86926 11.2872 5.90326 11.3547V11.3547C5.95847 11.4439 5.88073 11.532 5.7758 11.529C5.40622 11.5187 5.0737 11.4775 4.77826 11.4057C4.43251 11.3127 4.14163 11.1693 3.90563 10.9755C3.67813 10.7823 3.50126 10.5254 3.37501 10.2049C3.25676 9.8849 3.19763 9.48903 3.19763 9.01728C3.19763 8.44428 3.31963 7.87978 3.56363 7.32378C3.81638 6.76803 4.15763 6.2414 4.58738 5.7439C5.02563 5.24715 5.53563 4.78803 6.11738 4.36653C6.70738 3.94528 7.33501 3.5829 8.00026 3.2794C8.67401 2.96765 9.37326 2.72765 10.098 2.5594C10.831 2.3819 11.5599 2.29315 12.2846 2.29315C12.4784 2.29315 12.6554 2.2974 12.8156 2.3059V2.3059C13.1037 2.32003 13.3235 2.56118 13.3276 2.84954L13.5073 15.4012C13.5154 15.9616 14.298 16.0866 14.4801 15.5566L18.8793 2.75627C18.9487 2.55435 19.1386 2.41878 19.3521 2.41878H20.0824C20.4311 2.41878 20.6727 2.76671 20.5509 3.09344L13.8544 21.0554C13.7085 21.4467 13.3348 21.7061 12.9173 21.7061L10.8605 21.7059Z" fill="#5B6071"/>
</svg>
