<svg width="24" height="25" viewBox="0 0 24 25" fill="none" xmlns="http://www.w3.org/2000/svg">
<path d="M20.0807 6.16759L11.9723 21.2875C11.8049 21.5997 11.3748 21.6015 11.2049 21.2909L2.93579 6.16905C2.75067 5.83052 3.02827 5.42046 3.39614 5.48903L11.5132 7.00202C11.5649 7.01167 11.618 7.01158 11.6697 7.00174L19.617 5.4912C19.9837 5.42151 20.2626 5.82839 20.0807 6.16759Z" fill="#5B6071"/>
<path d="M15.3797 3.5045L9.37931 4.7306C9.28069 4.75075 9.20767 4.8379 9.20172 4.9425L8.83261 11.4434C8.82393 11.5965 8.95878 11.7153 9.10208 11.6809L10.7727 11.2788C10.929 11.2412 11.0702 11.3848 11.0381 11.5487L10.5418 14.0832C10.5084 14.2538 10.6619 14.3997 10.8217 14.3491L11.8535 14.0221C12.0135 13.9715 12.1672 14.1178 12.1334 14.2885L11.3446 18.2696C11.2952 18.5187 11.6129 18.6545 11.7453 18.441L11.8338 18.2984L16.7233 8.1228C16.8052 7.95242 16.664 7.75815 16.4846 7.79426L14.7649 8.14035C14.6033 8.17284 14.4659 8.01591 14.5115 7.85104L15.6338 3.79367C15.6795 3.62852 15.5415 3.47145 15.3797 3.5045Z" fill="#5B6071"/>
</svg>
