<svg width="24" height="24" viewBox="0 0 24 24" fill="none" xmlns="http://www.w3.org/2000/svg">
<path d="M14.9587 20.8019L21.2412 3.33131C21.3478 3.03501 21.1798 2.81896 20.8664 2.8492L15.9257 3.32512C15.6123 3.35536 15.2738 3.62128 15.1703 3.91854L9.35525 20.6151C9.25166 20.9124 9.42322 21.1538 9.73805 21.1538H14.5472C14.7047 21.1538 14.8757 21.0335 14.929 20.8853L14.9587 20.8019Z" fill="#5B6071"/>
<path d="M3.13334 2.84923L8.07398 3.32515C8.38738 3.35539 8.7263 3.62116 8.83032 3.91833L14.7686 20.8842C14.8206 21.0329 14.735 21.1534 14.5776 21.1534H9.7381C9.42322 21.1534 9.08107 20.9129 8.97456 20.6166L2.75866 3.3311C2.6521 3.03479 2.8201 2.81875 3.13349 2.84899L3.13334 2.84923Z" fill="#5B6071"/>
</svg>
