<svg width="24" height="24" viewBox="0 0 24 24" fill="none" xmlns="http://www.w3.org/2000/svg">
<path d="M20.2499 6.0001C20.3978 5.99962 20.5425 6.04266 20.6661 6.12385L16.1549 3.12375C16.0313 3.04256 15.8865 2.99953 15.7386 3C15.6309 2.99983 15.5243 3.02323 15.4265 3.06856C15.3287 3.11389 15.242 3.18005 15.1724 3.26241L10.3836 8.82385L7.64987 11.9964L6.00005 13.9125L4.31986 15.8624L7.31995 18.1124L10.3836 15.1762L13.6951 12L16.4923 9.31886L19.6801 6.26251L19.7324 6.20991C19.8006 6.14264 19.8814 6.08947 19.9702 6.05347C20.059 6.01747 20.1541 5.99933 20.2499 6.0001Z" fill="#5B6071"/>
<path d="M16.1661 20.8763L20.6661 17.8762C20.5425 17.9574 20.3978 18.0004 20.2499 17.9999C20.1541 18.0007 20.059 17.9826 19.9702 17.9465C19.8814 17.9105 19.8006 17.8574 19.7324 17.7902L19.6801 17.7375L16.4963 14.6851L13.6951 12L10.3836 8.82386L7.31995 5.8876L4.31986 8.13367L6.00005 10.0839L7.64987 11.9964L10.3836 15.1762L15.1801 20.7413C15.3007 20.8788 15.4667 20.968 15.6479 20.9928C15.8291 21.0176 16.0131 20.9763 16.1661 20.8763Z" fill="#5B6071"/>
<path d="M21.0001 6.74988V17.25C21.0002 17.3739 20.9698 17.4957 20.9115 17.6049C20.8533 17.7141 20.769 17.8073 20.6662 17.8762L16.1661 20.8762C16.2691 20.8074 16.3533 20.7141 16.4115 20.6049C16.4697 20.4956 16.5001 20.3737 16.5 20.2499V3.75006C16.4984 3.62535 16.466 3.50297 16.4058 3.39372C16.3457 3.28448 16.2595 3.19175 16.1549 3.12372L20.6662 6.12381C20.7687 6.19294 20.8528 6.28616 20.911 6.39531C20.9692 6.50444 20.9998 6.62619 21.0001 6.74988Z" fill="#5B6071"/>
<path opacity="0.4" d="M21.0001 6.74988V17.25C21.0002 17.3739 20.9698 17.4957 20.9115 17.6049C20.8533 17.7141 20.769 17.8073 20.6662 17.8762L16.1661 20.8762C16.2691 20.8074 16.3533 20.7141 16.4115 20.6049C16.4697 20.4956 16.5001 20.3737 16.5 20.2499V3.75006C16.4984 3.62535 16.466 3.50297 16.4058 3.39372C16.3457 3.28448 16.2595 3.19175 16.1549 3.12372L20.6662 6.12381C20.7687 6.19294 20.8528 6.28616 20.911 6.39531C20.9692 6.50444 20.9998 6.62619 21.0001 6.74988Z" fill="#5B6071"/>
</svg>
