<svg width="24" height="24" viewBox="0 0 24 24" fill="none" xmlns="http://www.w3.org/2000/svg">
<path d="M12 22.7771C17.9378 22.7771 22.7514 17.952 22.7514 12C22.7514 6.04797 17.9378 1.2229 12 1.2229C6.06214 1.2229 1.24857 6.04797 1.24857 12C1.24857 17.952 6.06214 22.7771 12 22.7771Z" fill="#5B6071"/>
<path d="M10.9183 22.7456C8.88903 22.5137 7.10234 21.8013 5.47154 20.574C4.17308 19.5967 2.95571 18.0953 2.26714 16.6219L2.04246 16.1411L3.51057 14.6307C4.318 13.7998 5.08326 13.0235 5.21103 12.9054L5.44343 12.6907L6.15771 13.3417C7.10029 14.2006 7.69017 14.6716 8.50343 15.2145C9.35714 15.7845 9.86726 16.0495 10.5535 16.2797C11.8577 16.7172 12.9592 16.6229 14.3297 15.9566C15.3485 15.4611 16.8667 14.339 18.1113 13.1615L18.6186 12.6815L20.2842 14.3505C21.2002 15.2684 21.9497 16.0597 21.9497 16.1089C21.9497 16.1582 21.8583 16.3903 21.7466 16.6247C20.6953 18.8319 18.9203 20.6248 16.7297 21.692C15.7164 22.1857 14.7905 22.4817 13.6689 22.6706C13.0883 22.7684 11.4972 22.8118 10.9182 22.7456H10.9183ZM11.2783 15.6607C10.2807 15.4426 9.03394 14.7215 7.63057 13.5512C6.88766 12.9317 6.10971 12.1896 6.10971 12.1005C6.10971 12.028 7.06926 11.1209 7.80686 10.4961C8.96846 9.51214 9.91748 8.92188 10.8785 8.5856C11.237 8.46015 11.3499 8.44566 11.9726 8.44566C12.595 8.44566 12.7082 8.46015 13.0661 8.58542C14.3583 9.03759 15.9621 10.141 17.5911 11.6986C17.8103 11.9081 17.9897 12.1007 17.9897 12.1265C17.9897 12.1895 16.7482 13.3155 16.1383 13.8057C15.0295 14.6968 13.7501 15.4254 12.9286 15.6333C12.4562 15.7529 11.7534 15.7645 11.2783 15.6607V15.6607ZM13.4195 14.4906C14.231 14.0791 14.4739 13.9323 14.5498 13.8075C14.6387 13.6613 14.6465 13.5249 14.6465 12.1021C14.6465 10.6753 14.6389 10.5432 14.549 10.3954C14.4725 10.2694 14.2286 10.1215 13.4049 9.70099C12.3663 9.17082 12.3553 9.16664 11.9871 9.16515C11.6191 9.16366 11.6081 9.16767 10.6757 9.64492C10.0974 9.94094 9.67097 10.1937 9.56823 10.3015L9.40108 10.4767L9.40126 12.0368C9.40143 13.4782 9.40891 13.6093 9.49908 13.7575C9.57343 13.8797 9.79543 14.0211 10.4298 14.3504C11.5813 14.9479 11.7398 15.0112 12.0893 15.0131C12.3647 15.0146 12.4599 14.9772 13.4195 14.4906ZM11.084 13.781C10.666 13.5629 10.2889 13.3492 10.246 13.3061C10.1785 13.2385 10.1729 13.0628 10.2039 12.0078L10.2399 10.7878L11.0335 10.3752C11.4962 10.1347 11.8899 9.9627 11.9775 9.9627C12.1463 9.9627 13.6129 10.679 13.7732 10.8397C13.8692 10.936 13.8754 11.0134 13.8754 12.1272V13.3123L13.6777 13.4373C13.569 13.5062 13.199 13.7037 12.8556 13.8762C12.3967 14.1067 12.1799 14.1882 12.0376 14.1838C11.9045 14.1795 11.6064 14.0536 11.084 13.781ZM1.68571 15.0892C1.60143 14.8678 1.44617 14.1884 1.34474 13.5971C1.20731 12.796 1.2196 11.1148 1.36897 10.272C1.50668 9.49519 1.60988 9.09051 1.68971 9.01422C1.73383 8.97206 2.14554 9.36293 3.28617 10.5298C4.13154 11.3946 4.82343 12.1138 4.82366 12.1282C4.82388 12.1425 4.13097 12.8488 3.28377 13.6977L1.74343 15.241L1.68571 15.0892ZM20.748 13.6657C19.9383 12.8364 19.2758 12.1376 19.2758 12.1129C19.2758 12.0228 22.2345 9.03358 22.3101 9.04727C22.3954 9.06273 22.5009 9.43522 22.6515 10.2536C22.786 10.9839 22.7854 13.0163 22.6506 13.7517C22.5151 14.4898 22.3444 15.1322 22.2776 15.1545C22.246 15.165 21.5577 14.4951 20.748 13.6657ZM3.7 9.7892C2.16326 8.24828 1.98857 8.05639 2.02263 7.94624C2.09891 7.69949 2.49863 6.88492 2.74063 6.48299C4.3868 3.74894 7.07388 1.91159 10.2503 1.34808C11.1207 1.19365 12.8333 1.17945 13.6424 1.3199C16.0325 1.73483 17.9987 2.74231 19.6373 4.3915C20.5277 5.28774 21.2209 6.26785 21.7499 7.37867C22.1032 8.12043 22.2489 7.86835 20.3539 9.79499C19.4406 10.7237 18.6747 11.491 18.6521 11.5001C18.6295 11.5092 18.3267 11.257 17.9793 10.9395C16.1194 9.24007 14.4444 8.1481 13.1155 7.76851C12.6714 7.64163 12.5825 7.6335 11.8555 7.65343C11.143 7.67291 11.0311 7.68935 10.6003 7.83741C9.24177 8.30436 7.76177 9.33286 6.0028 11.0325C5.73137 11.2947 5.48817 11.5093 5.4624 11.5093C5.43663 11.5093 4.6436 10.7353 3.70017 9.78926L3.7 9.7892Z" fill="#5B6071"/>
</svg>
