<svg width="24" height="24" viewBox="0 0 24 24" fill="none" xmlns="http://www.w3.org/2000/svg">
<path d="M16.6625 14.4294L16.1061 16.9325H17.838L17.1993 14.4294H16.6625Z" fill="#5B6071"/>
<path d="M14.2041 2.37201C14.2059 2.40658 14.2059 2.44121 14.2041 2.47578C14.2041 2.76572 14.147 3.05283 14.0361 3.3207C13.9251 3.58857 13.7625 3.83196 13.5575 4.03698C13.1434 4.45104 12.5818 4.68366 11.9963 4.68366C11.7066 4.68342 11.4197 4.62613 11.1522 4.51504C10.8846 4.40396 10.6415 4.24126 10.4369 4.03624C10.2322 3.83122 10.0699 3.5879 9.95922 3.32015C9.84857 3.05241 9.79174 2.76549 9.79197 2.47578C9.79019 2.44121 9.79019 2.40658 9.79197 2.37201L2.37216 2.37201V21.6274H21.6275V2.37201H14.2041ZM11.5615 19.5662L10.6222 14.9268H10.6061L9.59337 19.5662H8.30157L6.83801 12.7494H8.1137L8.98683 17.3906H9.00294L10.055 12.7494H11.2484L12.1931 17.4478H12.211L13.2058 12.7494H14.4582L12.8318 19.5662H11.5615ZM18.5859 19.5662L18.1511 18.049H15.8556L15.521 19.5662H14.2453L15.8949 12.7494H17.9078L19.9135 19.5662H18.5859Z" fill="#5B6071"/>
</svg>
