<svg width="24" height="25" viewBox="0 0 24 25" fill="none" xmlns="http://www.w3.org/2000/svg">
<path fill-rule="evenodd" clip-rule="evenodd" d="M5 4.5C3.34315 4.5 2 5.84315 2 7.5V17.5C2 19.1569 3.34315 20.5 5 20.5H13V18.5H5C4.44772 18.5 4 18.0523 4 17.5V7.5C4 6.94772 4.44772 6.5 5 6.5H7.78388C8.01539 6.5 8.23973 6.58033 8.41862 6.72727L10.8119 8.69318C11.3486 9.13402 12.0216 9.375 12.7161 9.375H19C19.5523 9.375 20 9.82272 20 10.375V10.5H22V10.375C22 8.71815 20.6569 7.375 19 7.375H12.7161C12.4846 7.375 12.2603 7.29467 12.0814 7.14773L9.6881 5.18182C9.15142 4.74098 8.47841 4.5 7.78388 4.5H5Z" fill="#64748B"/>
<path fill-rule="evenodd" clip-rule="evenodd" d="M18.278 17.7224H15.5559V16.8333H18.278M19.4446 15.9449H15.5559V15.0558H19.4446M19.4446 14.1673H15.5559V13.2782H19.4446M20.2226 11.5H14.778C14.6757 11.4996 14.5744 11.5223 14.4798 11.5668C14.3852 11.6113 14.2993 11.6768 14.227 11.7594C14.1547 11.8421 14.0974 11.9403 14.0584 12.0484C14.0195 12.1564 13.9996 12.2722 14 12.3891V18.6116C14.0002 18.8472 14.0822 19.0732 14.2281 19.2398C14.374 19.4064 14.5717 19.5 14.778 19.5H20.222C20.4283 19.5 20.6261 19.4064 20.7719 19.2398C20.9178 19.0732 20.9998 18.8472 21 18.6116V12.3891C21 11.896 20.6501 11.5007 20.222 11.5007L20.2226 11.5Z" fill="#CDDC39"/>
</svg>
