<svg width="24" height="24" viewBox="0 0 24 24" fill="none" xmlns="http://www.w3.org/2000/svg">
<path fill-rule="evenodd" clip-rule="evenodd" d="M5 4C3.34315 4 2 5.34315 2 7V17C2 18.6569 3.34315 20 5 20H13V18H5C4.44772 18 4 17.5523 4 17V7C4 6.44772 4.44772 6 5 6H7.78388C8.01539 6 8.23973 6.08033 8.41862 6.22727L10.8119 8.19318C11.3486 8.63402 12.0216 8.875 12.7161 8.875H19C19.5523 8.875 20 9.32272 20 9.875V10H22V9.875C22 8.21815 20.6569 6.875 19 6.875H12.7161C12.4846 6.875 12.2603 6.79467 12.0814 6.64773L9.6881 4.68182C9.15142 4.24098 8.47841 4 7.78388 4H5Z" fill="#64748B"/>
<path fill-rule="evenodd" clip-rule="evenodd" d="M20.222 18.1997H14.778V13.7996H20.222M20.222 11.799H19.833V11H19.0557V11.799H15.9443V11H15.1664V11.799H14.778C14.3461 11.799 14 12.1595 14 12.5992V18.1997C14 18.412 14.082 18.6155 14.2279 18.7656C14.3738 18.9157 14.5717 19 14.778 19H20.222C20.4283 19 20.6262 18.9157 20.7721 18.7656C20.918 18.6155 21 18.412 21 18.1997V12.5999C21 12.3876 20.918 12.1841 20.7721 12.034C20.6262 11.8839 20.4283 11.799 20.222 11.799ZM19.2615 15.0234L18.8492 14.5999L16.9516 16.5518L16.1268 15.7035L15.7151 16.1276L16.9516 17.3995L19.2615 15.0234Z" fill="#C5CAE9"/>
</svg>
