<svg width="24" height="25" viewBox="0 0 24 25" fill="none" xmlns="http://www.w3.org/2000/svg">
<path fill-rule="evenodd" clip-rule="evenodd" d="M5 4.5C3.34315 4.5 2 5.84315 2 7.5V17.5C2 19.1569 3.34315 20.5 5 20.5H13V18.5H5C4.44772 18.5 4 18.0523 4 17.5V7.5C4 6.94772 4.44772 6.5 5 6.5H7.78388C8.01539 6.5 8.23973 6.58033 8.41862 6.72727L10.8119 8.69318C11.3486 9.13402 12.0216 9.375 12.7161 9.375H19C19.5523 9.375 20 9.82272 20 10.375V10.5H22V10.375C22 8.71815 20.6569 7.375 19 7.375H12.7161C12.4846 7.375 12.2603 7.29467 12.0814 7.14773L9.6881 5.18182C9.15142 4.74098 8.47841 4.5 7.78388 4.5H5Z" fill="#64748B"/>
<path fill-rule="evenodd" clip-rule="evenodd" d="M20.8002 13.5003H16.7999V12.7003H20.8002M19.2001 16.7003H16.8006V15.9003H19.2001M20.8002 15.1003H16.7999V14.3003H20.8002M21.1999 11.5H16.4002C16.2951 11.5 16.191 11.5207 16.0939 11.561C15.9968 11.6012 15.9085 11.6602 15.8342 11.7345C15.7599 11.8089 15.701 11.8972 15.6608 11.9943C15.6207 12.0914 15.6 12.1955 15.6001 12.3007V17.1C15.6001 17.3122 15.6844 17.5157 15.8345 17.6657C15.9845 17.8157 16.188 17.9 16.4002 17.9H21.1999C21.4121 17.9 21.6156 17.8157 21.7657 17.6657C21.9157 17.5157 22 17.3122 22 17.1V12.3007C22 12.0885 21.9157 11.885 21.7657 11.735C21.6156 11.5849 21.4121 11.5007 21.1999 11.5007M14.8001 13.1007H14V18.7C14 18.9122 14.0843 19.1157 14.2343 19.2657C14.3844 19.4157 14.5879 19.5 14.8001 19.5H20.4005V18.7H14.7994L14.8001 13.1007Z" fill="#FFCE50"/>
</svg>
