<svg width="24" height="25" viewBox="0 0 24 25" fill="none" xmlns="http://www.w3.org/2000/svg">
<path fill-rule="evenodd" clip-rule="evenodd" d="M5 4.5C3.34315 4.5 2 5.84315 2 7.5V17.5C2 19.1569 3.34315 20.5 5 20.5H13V18.5H5C4.44772 18.5 4 18.0523 4 17.5V7.5C4 6.94772 4.44772 6.5 5 6.5H7.78388C8.01539 6.5 8.23973 6.58033 8.41862 6.72727L10.8119 8.69318C11.3486 9.13402 12.0216 9.375 12.7161 9.375H19C19.5523 9.375 20 9.82272 20 10.375V10.5H22V10.375C22 8.71815 20.6569 7.375 19 7.375H12.7161C12.4846 7.375 12.2603 7.29467 12.0814 7.14773L9.6881 5.18182C9.15142 4.74098 8.47841 4.5 7.78388 4.5H5Z" fill="#64748B"/>
<path fill-rule="evenodd" clip-rule="evenodd" d="M18 11.5C15.7899 11.5 14 12.2956 14 13.2779C14 14.2603 15.7899 15.0558 18 15.0558C20.2101 15.0558 22 14.2603 22 13.2779C22 12.2956 20.2101 11.5 18 11.5ZM14 14.1669V15.5003C14 16.4826 15.7899 17.2782 18 17.2782C20.2101 17.2782 22 16.4826 22 15.5003V14.1669C22 15.1492 20.2101 15.9448 18 15.9448C15.7899 15.9448 14 15.1492 14 14.1669ZM14 16.3893V17.7227C14 18.7044 15.7899 19.5 18 19.5C20.2101 19.5 22 18.7044 22 17.7221V16.3893C22 17.3716 20.2101 18.1672 18 18.1672C15.7899 18.1672 14 17.3716 14 16.3893Z" fill="#F472B6"/>
</svg>
