<svg width="24" height="25" viewBox="0 0 24 25" fill="none" xmlns="http://www.w3.org/2000/svg">
<path fill-rule="evenodd" clip-rule="evenodd" d="M5 4.5C3.34315 4.5 2 5.84315 2 7.5V17.5C2 19.1569 3.34315 20.5 5 20.5H11V18.5H5C4.44772 18.5 4 18.0523 4 17.5V7.5C4 6.94772 4.44772 6.5 5 6.5H7.78388C8.01539 6.5 8.23973 6.58033 8.41862 6.72727L10.8119 8.69318C11.3486 9.13402 12.0216 9.375 12.7161 9.375H19C19.5523 9.375 20 9.82272 20 10.375V10.5H22V10.375C22 8.71815 20.6569 7.375 19 7.375H12.7161C12.4846 7.375 12.2603 7.29467 12.0814 7.14773L9.6881 5.18182C9.15142 4.74098 8.47841 4.5 7.78388 4.5H5Z" fill="#64748B"/>
<path d="M17.4605 11.5V11.5072H20V11.5H17.4605ZM12 11.5216L15.6042 19.5H16.7812L19.0333 14.5134H17.0206L16.194 16.3451L14.0139 11.5208L12 11.5216ZM18.4188 13.5207L19.453 13.5264L19.4556 13.5207H18.4188Z" fill="#8CDBFF"/>
<path d="M18.2214 11.5V11.9573H18.9931L18.8661 12.2461H17.6036V12.7013H18.663L18.5123 13.0448H17V13.5H20.1367L21 11.5071H20.6593V11.5H18.2214Z" fill="#FF707E"/>
</svg>
