<svg width="24" height="24" viewBox="0 0 24 24" fill="none" xmlns="http://www.w3.org/2000/svg">
<path fill-rule="evenodd" clip-rule="evenodd" d="M5 4C3.34315 4 2 5.34315 2 7V17C2 18.6569 3.34315 20 5 20H13V18H5C4.44772 18 4 17.5523 4 17V7C4 6.44772 4.44772 6 5 6H7.78388C8.01539 6 8.23973 6.08033 8.41862 6.22727L10.8119 8.19318C11.3486 8.63402 12.0216 8.875 12.7161 8.875H19C19.5523 8.875 20 9.32272 20 9.875V10H22V9.875C22 8.21815 20.6569 6.875 19 6.875H12.7161C12.4846 6.875 12.2603 6.79467 12.0814 6.64773L9.6881 4.68182C9.15142 4.24098 8.47841 4 7.78388 4H5Z" fill="#64748B"/>
<path fill-rule="evenodd" clip-rule="evenodd" d="M21 17.4761V17.8571H14V17.4761L14.7778 16.7141V14.4282C14.7778 13.2475 15.5676 12.2075 16.7225 11.8725V11.762C16.7225 11.5599 16.8044 11.3661 16.9503 11.2232C17.0962 11.0803 17.294 11 17.5003 11C17.7066 11 17.9044 11.0803 18.0503 11.2232C18.1962 11.3661 18.2781 11.5599 18.2781 11.762V11.8725C18.8402 12.0361 19.3333 12.3734 19.6836 12.834C20.034 13.2946 20.2229 13.8538 20.2222 14.4282V16.7141L21 17.4761ZM18.2775 18.238C18.2775 18.4401 18.1956 18.6339 18.0497 18.7768C17.9038 18.9197 17.706 19 17.4997 19C17.2934 19 17.0956 18.9197 16.9497 18.7768C16.8038 18.6339 16.7219 18.4401 16.7219 18.238" fill="#CFD8DC"/>
</svg>
