<svg width="24" height="25" viewBox="0 0 24 25" fill="none" xmlns="http://www.w3.org/2000/svg">
<path fill-rule="evenodd" clip-rule="evenodd" d="M5 4.5C3.34315 4.5 2 5.84315 2 7.5V17.5C2 19.1569 3.34315 20.5 5 20.5H13V18.5H5C4.44772 18.5 4 18.0523 4 17.5V7.5C4 6.94772 4.44772 6.5 5 6.5H7.78388C8.01539 6.5 8.23973 6.58033 8.41862 6.72727L10.8119 8.69318C11.3486 9.13402 12.0216 9.375 12.7161 9.375H19C19.5523 9.375 20 9.82272 20 10.375V10.5H22V10.375C22 8.71815 20.6569 7.375 19 7.375H12.7161C12.4846 7.375 12.2603 7.29467 12.0814 7.14773L9.6881 5.18182C9.15142 4.74098 8.47841 4.5 7.78388 4.5H5Z" fill="#64748B"/>
<path fill-rule="evenodd" clip-rule="evenodd" d="M17.144 11.5C16.8406 11.5 16.5496 11.6205 16.3351 11.8351C16.1205 12.0496 16 12.3406 16 12.644V13.316H17.716C17.872 13.316 18 13.544 18 13.7H15.144C14.8406 13.7 14.5496 13.8205 14.3351 14.0351C14.1205 14.2496 14 14.5406 14 14.844V16.3568C14 16.9888 14.512 17.5 15.144 17.5H15.616V16.428C15.6155 16.278 15.6446 16.1293 15.7016 15.9905C15.7587 15.8517 15.8426 15.7256 15.9485 15.6193C16.0544 15.513 16.1802 15.4287 16.3188 15.3712C16.4574 15.3136 16.606 15.284 16.756 15.284H18.856C19.006 15.2845 19.1547 15.2554 19.2935 15.1984C19.4323 15.1413 19.5584 15.0574 19.6647 14.9515C19.771 14.8456 19.8553 14.7198 19.9128 14.5812C19.9704 14.4426 20 14.294 20 14.144V12.644C20 12.3406 19.8795 12.0496 19.6649 11.8351C19.4504 11.6205 19.1594 11.5 18.856 11.5H17.144ZM16.856 12.144C17.016 12.144 17.144 12.1924 17.144 12.4284C17.144 12.6644 17.016 12.7844 16.856 12.7844C16.7 12.7844 16.572 12.6644 16.572 12.4284C16.572 12.1924 16.7 12.1444 16.856 12.1444V12.144Z" fill="#58B0FA"/>
<path fill-rule="evenodd" clip-rule="evenodd" d="M20.3836 13.5V14.572C20.3841 14.722 20.355 14.8707 20.298 15.0095C20.2409 15.1483 20.157 15.2744 20.0511 15.3807C19.9452 15.487 19.8194 15.5713 19.6808 15.6288C19.5422 15.6864 19.3936 15.716 19.2436 15.716H17.144C16.994 15.7155 16.8454 15.7445 16.7067 15.8016C16.568 15.8586 16.4419 15.9424 16.3356 16.0482C16.2293 16.154 16.145 16.2798 16.0874 16.4183C16.0298 16.5567 16.0001 16.7052 16 16.8552V18.3552C15.9999 18.5055 16.0294 18.6543 16.0869 18.7932C16.1443 18.9321 16.2285 19.0583 16.3348 19.1646C16.441 19.271 16.5672 19.3553 16.706 19.4128C16.8449 19.4704 16.9937 19.5 17.144 19.5H18.856C19.0063 19.5 19.1551 19.4704 19.2939 19.4129C19.4327 19.3554 19.5588 19.2711 19.6651 19.1648C19.7713 19.0585 19.8556 18.9324 19.913 18.7935C19.9705 18.6547 20.0001 18.5059 20 18.3556V17.6836H18.2836C18.1276 17.6836 18 17.456 18 17.3H20.856C21.0063 17.3 21.1551 17.2704 21.2939 17.2129C21.4327 17.1554 21.5588 17.0711 21.6651 16.9648C21.7713 16.8585 21.8556 16.7324 21.913 16.5935C21.9705 16.4547 22.0001 16.3059 22 16.1556V14.6436C21.9999 14.3403 21.8793 14.0494 21.6648 13.8349C21.4503 13.6205 21.1593 13.5 20.856 13.5H20.3836ZM16.528 15.3056L16.5264 15.3072C16.5312 15.306 16.5364 15.3064 16.5416 15.3056H16.528ZM19.144 18.2156C19.3 18.2156 19.428 18.3356 19.428 18.5716C19.428 18.6089 19.4207 18.6458 19.4064 18.6803C19.3921 18.7147 19.3712 18.746 19.3448 18.7724C19.3184 18.7988 19.2871 18.8197 19.2527 18.834C19.2182 18.8483 19.1813 18.8556 19.144 18.8556C18.984 18.8556 18.856 18.8076 18.856 18.5716C18.856 18.3356 18.984 18.2156 19.144 18.2156Z" fill="#FFE368"/>
</svg>
