<svg width="24" height="25" viewBox="0 0 24 25" fill="none" xmlns="http://www.w3.org/2000/svg">
<path fill-rule="evenodd" clip-rule="evenodd" d="M5 4.5C3.34315 4.5 2 5.84315 2 7.5V17.5C2 19.1569 3.34315 20.5 5 20.5H14V18.5H5C4.44772 18.5 4 18.0523 4 17.5V7.5C4 6.94772 4.44772 6.5 5 6.5H7.78388C8.01539 6.5 8.23973 6.58033 8.41862 6.72727L10.8119 8.69318C11.3486 9.13402 12.0216 9.375 12.7161 9.375H19C19.5523 9.375 20 9.82272 20 10.375V10.5H22V10.375C22 8.71815 20.6569 7.375 19 7.375H12.7161C12.4846 7.375 12.2603 7.29467 12.0814 7.14773L9.6881 5.18182C9.15142 4.74098 8.47841 4.5 7.78388 4.5H5Z" fill="#64748B"/>
<path fill-rule="evenodd" clip-rule="evenodd" d="M20.9992 11.5L21 13.36C20.9999 13.3755 20.9937 13.3905 20.9823 13.4027C20.9134 13.508 20.8031 13.5906 20.6697 13.6367C20.5491 13.6813 19.9745 13.9593 18.1575 14.166C16.5855 14.3447 15.7328 14.4393 15.3294 14.4907C14.9693 14.5367 15.0007 14.5793 15.0007 14.5793V12.7553C15.0006 12.7402 15.0066 12.7256 15.0179 12.7137C15.0291 12.7018 15.0449 12.6935 15.0626 12.69C15.1719 12.6653 15.4483 12.6127 16.0527 12.5533C17.2734 12.4333 18.753 12.244 19.911 12.0087C21.0064 11.7867 20.9992 11.5 20.9992 11.5ZM20.9992 14.0087L21 15.8687C20.9999 15.8839 20.9937 15.8987 20.9823 15.9107C20.9134 16.016 20.8031 16.0986 20.6697 16.1447C20.5491 16.1893 19.9745 16.4673 18.1575 16.6747C16.5855 16.8533 15.7328 16.9473 15.3294 16.9987C14.9693 17.0447 15.0007 17.0873 15.0007 17.0873V15.264C15.0006 15.2489 15.0066 15.2342 15.0179 15.2224C15.0291 15.2105 15.0449 15.2021 15.0626 15.1987C15.1719 15.1733 15.4483 15.1213 16.0527 15.062C17.2734 14.942 18.753 14.752 19.911 14.5173C21.0064 14.2953 20.9992 14.0087 20.9992 14.0087ZM20.9992 16.4207L21 18.2813C20.9999 18.2966 20.9937 18.3113 20.9823 18.3233C20.9134 18.4287 20.8031 18.5112 20.6697 18.5573C20.5491 18.602 19.9745 18.88 18.1575 19.0867C16.5855 19.266 15.7328 19.36 15.3294 19.4113C14.9693 19.4573 15.0007 19.5 15.0007 19.5V17.676C15.0006 17.6609 15.0066 17.6462 15.0179 17.6344C15.0291 17.6225 15.0449 17.6141 15.0626 17.6107C15.1719 17.586 15.4483 17.5333 16.0527 17.474C17.2734 17.3547 18.753 17.1647 19.911 16.93C21.0064 16.7073 20.9992 16.4207 20.9992 16.4207Z" fill="#FF7C7C"/>
</svg>
