<svg width="24" height="25" viewBox="0 0 24 25" fill="none" xmlns="http://www.w3.org/2000/svg">
<path fill-rule="evenodd" clip-rule="evenodd" d="M5 4.5C3.34315 4.5 2 5.84315 2 7.5V17.5C2 19.1569 3.34315 20.5 5 20.5H13V18.5H5C4.44772 18.5 4 18.0523 4 17.5V7.5C4 6.94772 4.44772 6.5 5 6.5H7.78388C8.01539 6.5 8.23973 6.58033 8.41862 6.72727L10.8119 8.69318C11.3486 9.13402 12.0216 9.375 12.7161 9.375H19C19.5523 9.375 20 9.82272 20 10.375V10.5H22V10.375C22 8.71815 20.6569 7.375 19 7.375H12.7161C12.4846 7.375 12.2603 7.29467 12.0814 7.14773L9.6881 5.18182C9.15142 4.74098 8.47841 4.5 7.78388 4.5H5Z" fill="#64748B"/>
<path fill-rule="evenodd" clip-rule="evenodd" d="M18 13.318V14.4087L19.5003 12.9546L18 11.5V12.5907C17.606 12.5907 17.2158 12.666 16.8518 12.8122C16.4878 12.9584 16.1571 13.1727 15.8785 13.4429C15.5999 13.713 15.3789 14.0337 15.2282 14.3867C15.0775 14.7397 14.9999 15.118 15 15.5C15 16.0702 15.1724 16.6013 15.4647 17.0486L16.0125 16.5175C15.8394 16.2046 15.749 15.855 15.7496 15.5C15.7496 14.9213 15.9867 14.3663 16.4087 13.9571C16.8307 13.5479 17.4031 13.318 18 13.318ZM20.5353 13.9509L19.9875 14.482C20.1588 14.7955 20.249 15.1446 20.2504 15.4994C20.2504 16.0781 20.0133 16.6331 19.5913 17.0423C19.1693 17.4515 18.5969 17.6814 18 17.6814V16.5913L16.4997 18.0459L18 19.5V18.4093C18.394 18.4093 18.7842 18.334 19.1482 18.1878C19.5122 18.0416 19.8429 17.8273 20.1215 17.5571C20.4001 17.287 20.6211 16.9663 20.7718 16.6133C20.9225 16.2603 21.0001 15.882 21 15.5C21 14.9298 20.8276 14.3987 20.5353 13.9514V13.9509Z" fill="#FF7C7C" stroke="#FF7C7C" stroke-width="0.29" stroke-miterlimit="1.414" stroke-linejoin="round"/>
</svg>
