<svg width="24" height="25" viewBox="0 0 24 25" fill="none" xmlns="http://www.w3.org/2000/svg">
<path fill-rule="evenodd" clip-rule="evenodd" d="M5 4.5C3.34315 4.5 2 5.84315 2 7.5V17.5C2 19.1569 3.34315 20.5 5 20.5H13V18.5H5C4.44772 18.5 4 18.0523 4 17.5V7.5C4 6.94772 4.44772 6.5 5 6.5H7.78388C8.01539 6.5 8.23973 6.58033 8.41862 6.72727L10.8119 8.69318C11.3486 9.13402 12.0216 9.375 12.7161 9.375H19C19.5523 9.375 20 9.82272 20 10.375V10.5H22V10.375C22 8.71815 20.6569 7.375 19 7.375H12.7161C12.4846 7.375 12.2603 7.29467 12.0814 7.14773L9.6881 5.18182C9.15142 4.74098 8.47841 4.5 7.78388 4.5H5Z" fill="#64748B"/>
<path d="M17.9979 10.5C17.8671 10.5002 17.738 10.5294 17.6198 10.5854C17.5015 10.6415 17.397 10.723 17.3138 10.8242C17.2306 10.9255 17.1707 11.0439 17.1384 11.171C17.106 11.2981 17.1021 11.4309 17.1268 11.5597L15.4667 12.522C15.4243 12.4846 15.3785 12.4514 15.3298 12.4227C15.3293 12.4227 15.3289 12.4227 15.3285 12.4227C15.1246 12.3082 14.884 12.279 14.6587 12.3412C14.4334 12.4034 14.2417 12.5521 14.1249 12.7552C14.0082 12.9582 13.9758 13.1992 14.0349 13.426C14.094 13.6527 14.2398 13.847 14.4406 13.9668C14.4907 13.9958 14.5422 14.0184 14.5949 14.0365V15.9611C14.5435 15.9792 14.492 16.0004 14.4432 16.0288C14.2397 16.1475 14.0914 16.3421 14.0304 16.5701C13.9695 16.7981 14.0009 17.0411 14.1178 17.2459C14.3615 17.6716 14.9054 17.8174 15.3311 17.5736C15.3791 17.5453 15.4243 17.5125 15.4661 17.4755L17.1268 18.4366C17.1028 18.5587 17.1046 18.6845 17.1321 18.8059C17.1595 18.9273 17.212 19.0416 17.2862 19.1414C17.3604 19.2412 17.4545 19.3243 17.5626 19.3853C17.6708 19.4464 17.7904 19.4841 17.9139 19.4959C18.0375 19.5078 18.1621 19.4936 18.2798 19.4542C18.3975 19.4148 18.5056 19.3511 18.5973 19.2672C18.689 19.1833 18.7621 19.0811 18.8121 18.9672C18.862 18.8532 18.8875 18.73 18.8871 18.6056C18.8871 18.5385 18.8787 18.474 18.8646 18.4114L20.5092 17.4575C20.6073 17.5473 20.7242 17.6139 20.8513 17.6525C20.9784 17.6911 21.1124 17.7006 21.2437 17.6805C21.375 17.6603 21.5 17.6109 21.6098 17.536C21.7196 17.461 21.8112 17.3623 21.878 17.2472H21.8793V17.2459C21.9376 17.1446 21.9755 17.0327 21.9907 16.9167C22.0059 16.8007 21.9982 16.6828 21.968 16.5698C21.9378 16.4567 21.8857 16.3508 21.8146 16.258C21.7436 16.1651 21.655 16.0873 21.554 16.0288C21.5056 16.0015 21.4548 15.9788 21.4022 15.9611V14.0352C21.4557 14.0174 21.5074 13.9945 21.5565 13.9668C21.9802 13.7204 22.1255 13.1735 21.8819 12.7491C21.7639 12.5446 21.57 12.3954 21.3425 12.3342C21.1151 12.273 20.8727 12.3049 20.6687 12.4227C20.6682 12.4227 20.6678 12.4227 20.6674 12.4227C20.6185 12.4514 20.5724 12.4846 20.5298 12.522L18.871 11.5623C18.8958 11.4332 18.8919 11.3003 18.8596 11.1729C18.8272 11.0455 18.7672 10.9269 18.6839 10.8255C18.6005 10.724 18.4959 10.6423 18.3774 10.5862C18.259 10.53 18.1296 10.5008 17.9986 10.5006L17.9979 10.5ZM17.1968 12.2008L15.1813 15.7005V14.03C15.3741 13.9616 15.5458 13.8301 15.6551 13.6392C15.7637 13.4495 15.7901 13.2367 15.7541 13.0361L17.1968 12.2008ZM18.8042 12.2034L20.2418 13.0374C20.2057 13.2373 20.234 13.4502 20.3427 13.6392C20.452 13.8301 20.623 13.9616 20.8159 14.03V15.6979L18.8042 12.2034ZM17.8359 12.266C17.9437 12.2873 18.0547 12.2873 18.1625 12.266L20.4378 16.2204C20.4011 16.2626 20.3683 16.3081 20.3401 16.3565C20.3127 16.4047 20.2899 16.4555 20.272 16.5081H15.7252C15.7073 16.4555 15.6845 16.4047 15.657 16.3565C15.6568 16.3561 15.6566 16.3556 15.6564 16.3552C15.6284 16.3078 15.5961 16.2631 15.5599 16.2217L17.8359 12.266ZM15.9875 17.0969H20.0521L18.5881 17.9444C18.4267 17.7969 18.2163 17.7149 17.9979 17.7142C17.7787 17.7142 17.5794 17.798 17.4244 17.9309L15.9875 17.0982V17.0969Z" fill="#F472B6"/>
</svg>
