<svg width="24" height="24" viewBox="0 0 24 24" fill="none" xmlns="http://www.w3.org/2000/svg">
<path fill-rule="evenodd" clip-rule="evenodd" d="M5 4C3.34315 4 2 5.34315 2 7V17C2 18.6569 3.34315 20 5 20H13V18H5C4.44772 18 4 17.5523 4 17V7C4 6.44772 4.44772 6 5 6H7.78388C8.01539 6 8.23973 6.08033 8.41862 6.22727L10.8119 8.19318C11.3486 8.63402 12.0216 8.875 12.7161 8.875H19C19.5523 8.875 20 9.32272 20 9.875V10H22V9.875C22 8.21815 20.6569 6.875 19 6.875H12.7161C12.4846 6.875 12.2603 6.79467 12.0814 6.64773L9.6881 4.68182C9.15142 4.24098 8.47841 4 7.78388 4H5Z" fill="#64748B"/>
<path fill-rule="evenodd" clip-rule="evenodd" d="M22.997 12.919C23.6392 13.4772 24 14.2342 24 15.0235C24 15.8127 23.6392 16.5697 22.997 17.1279C22.5528 17.5133 21.9955 17.7856 21.3856 17.9149C20.7758 18.0443 20.1368 18.0258 19.5381 17.8615C18.8622 18.045 18.1378 18.045 17.4619 17.8615C16.8632 18.0258 16.2242 18.0443 15.6144 17.9149C15.0045 17.7856 14.4472 17.5133 14.003 17.1279C13.3608 16.5697 13 15.8127 13 15.0235C13 14.2342 13.3608 13.4772 14.003 12.919C14.4472 12.5336 15.0045 12.2613 15.6144 12.132C16.2242 12.0026 16.8632 12.0211 17.4619 12.1854C18.1375 12.0021 18.8615 12.0021 19.5372 12.1854C20.1359 12.0209 20.7751 12.0023 21.3851 12.1317C21.9952 12.2611 22.5527 12.5334 22.997 12.919ZM16.0783 17.1279C15.4361 16.5697 15.0753 15.8127 15.0753 15.0235C15.0753 14.2342 15.4361 13.4772 16.0783 12.919C15.57 12.9823 15.0855 13.1806 14.6938 13.5202C14.2352 13.9188 13.9776 14.4594 13.9776 15.023C13.9776 15.5867 14.2352 16.1272 14.6938 16.5259C15.0845 16.8663 15.569 17.0646 16.0783 17.1279ZM18.1536 17.1279C17.5114 16.5697 17.1506 15.8127 17.1506 15.0235C17.1506 14.2342 17.5114 13.4772 18.1536 12.919C17.6453 12.9823 17.1608 13.1806 16.7701 13.5202C16.3115 13.9188 16.0539 14.4594 16.0539 15.023C16.0539 15.5867 16.3115 16.1272 16.7701 16.5259C17.1608 16.8663 17.6453 17.0646 18.1536 17.1279ZM22.3052 13.5202C21.9318 13.1941 21.4459 12.983 20.9217 12.919C21.5639 13.4772 21.9247 14.2342 21.9247 15.0235C21.9247 15.8127 21.5639 16.5697 20.9217 17.1279C21.43 17.0646 21.9145 16.8663 22.3052 16.5267C22.7638 16.1281 23.0214 15.5875 23.0214 15.0239C23.0214 14.4602 22.7638 13.9197 22.3052 13.521M18.8464 13.521C18.3878 13.9197 18.1302 14.4602 18.1302 15.0239C18.1302 15.5875 18.3878 16.1281 18.8464 16.5267C19.0527 16.7069 19.285 16.8481 19.5372 16.9477C19.7952 16.8449 20.0296 16.7023 20.2289 16.5267C20.6875 16.1281 20.9451 15.5875 20.9451 15.0239C20.9451 14.4602 20.6875 13.9197 20.2289 13.521C20.0297 13.3452 19.7953 13.2022 19.5372 13.0992C19.2791 13.202 19.0447 13.3446 18.8454 13.5202L18.8464 13.521Z" fill="#FF7C7C"/>
</svg>
