<svg width="24" height="25" viewBox="0 0 24 25" fill="none" xmlns="http://www.w3.org/2000/svg">
<path fill-rule="evenodd" clip-rule="evenodd" d="M2 7.5C2 5.84315 3.34315 4.5 5 4.5H7.78388C8.47841 4.5 9.15142 4.74098 9.6881 5.18182L12.0814 7.14773C12.2603 7.29467 12.4846 7.375 12.7161 7.375H19C19.0887 7.375 19.1765 7.37885 19.2633 7.38639V9.41002C19.1794 9.38719 19.0911 9.375 19 9.375H12.7161C12.0216 9.375 11.3486 9.13402 10.8119 8.69318L8.41862 6.72727C8.23973 6.58033 8.01539 6.5 7.78388 6.5H5C4.44772 6.5 4 6.94772 4 7.5V17.5C4 18.0523 4.44772 18.5 5 18.5H13V20.5H5C3.34315 20.5 2 19.1569 2 17.5V7.5Z" fill="#64748B"/>
<path d="M19.5987 13.2334C20.2326 12.7091 20.5136 9.60972 20.7881 8.49561C21.0627 7.3817 22.1977 7.43797 22.1977 7.43797C22.1977 7.43797 21.9031 7.95095 22.0232 8.33371C22.1434 8.71648 22.9669 9.05852 22.9669 9.05852L22.7893 9.52675C22.7893 9.52675 22.4186 9.47931 22.1977 9.92085C21.9769 10.3622 22.3397 14.7333 22.3397 14.7333C22.3397 14.7333 21.0131 17.3497 21.0131 18.4542C21.0131 19.5589 21.5361 20.4846 21.5361 20.4846H20.8025C20.8025 20.4846 19.726 19.2036 19.5053 18.5637C19.2845 17.9235 19.3728 17.2834 19.3728 17.2834C19.3728 17.2834 18.203 17.2172 17.1655 17.2834C16.1283 17.3497 15.4363 18.2414 15.3115 18.7402C15.1866 19.2391 15.1348 20.4846 15.1348 20.4846H14.555C14.2018 19.3949 13.9212 19.0044 14.0735 18.4542C14.4948 16.9302 14.4121 16.0658 14.3145 15.6809C14.2169 15.2959 13.5563 14.96 13.5563 14.96C13.8799 14.3006 14.2102 13.9837 15.631 13.9507C17.0518 13.9177 18.9647 13.7579 19.5987 13.2334Z" fill="#FF7043"/>
<path d="M15.9089 18.3904C15.9089 18.3904 16.0587 19.7776 16.8552 20.4846H17.5377C16.8552 19.7114 16.7809 17.6962 16.7809 17.6962C16.4336 17.8093 15.9531 18.2139 15.9089 18.3904Z" fill="#FF7043"/>
</svg>
