<svg width="24" height="25" viewBox="0 0 24 25" fill="none" xmlns="http://www.w3.org/2000/svg">
<path fill-rule="evenodd" clip-rule="evenodd" d="M5 4.5C3.34315 4.5 2 5.84315 2 7.5V17.5C2 19.1569 3.34315 20.5 5 20.5H13V18.5H5C4.44772 18.5 4 18.0523 4 17.5V7.5C4 6.94772 4.44772 6.5 5 6.5H7.78388C8.01539 6.5 8.23973 6.58033 8.41862 6.72727L10.8119 8.69318C11.3486 9.13402 12.0216 9.375 12.7161 9.375H19C19.5523 9.375 20 9.82272 20 10.375V10.5H22V10.375C22 8.71815 20.6569 7.375 19 7.375H12.7161C12.4846 7.375 12.2603 7.29467 12.0814 7.14773L9.6881 5.18182C9.15142 4.74098 8.47841 4.5 7.78388 4.5H5Z" fill="#64748B"/>
<path fill-rule="evenodd" clip-rule="evenodd" d="M15.0004 11.5C14.869 11.4999 14.7388 11.5231 14.6174 11.5684C14.496 11.6136 14.3857 11.6799 14.2928 11.7635C14.1999 11.8471 14.1262 11.9464 14.0759 12.0557C14.0257 12.165 13.9999 12.2821 14 12.4004V19.5982C13.9997 19.7166 14.0253 19.8339 14.0755 19.9433C14.1256 20.0528 14.1993 20.1522 14.2922 20.236C14.3851 20.3198 14.4955 20.3862 14.6171 20.4315C14.7386 20.4768 14.8688 20.5001 15.0004 20.5H20.9996C21.1312 20.5001 21.2614 20.4768 21.3829 20.4315C21.5045 20.3862 21.6149 20.3198 21.7078 20.236C21.8007 20.1522 21.8744 20.0528 21.9245 19.9433C21.9747 19.8339 22.0003 19.7166 22 19.5982V12.4011C22.0002 12.2827 21.9745 12.1655 21.9243 12.0562C21.8741 11.9468 21.8004 11.8475 21.7075 11.7638C21.6146 11.6801 21.5042 11.6137 21.3828 11.5684C21.2613 11.5232 21.1311 11.4999 20.9996 11.5H15.0004ZM15.0004 14.6505H20.9996V16.9H15.0004V14.6505ZM15.0004 17.7989H20.9996V19.5982H15.0004V17.7989Z" fill="#FF7C7C"/>
</svg>
