<svg width="24" height="25" viewBox="0 0 24 25" fill="none" xmlns="http://www.w3.org/2000/svg">
<path fill-rule="evenodd" clip-rule="evenodd" d="M5 4.5C3.34315 4.5 2 5.84315 2 7.5V17.5C2 19.1569 3.34315 20.5 5 20.5H13V18.5H5C4.44772 18.5 4 18.0523 4 17.5V7.5C4 6.94772 4.44772 6.5 5 6.5H7.78388C8.01539 6.5 8.23973 6.58033 8.41862 6.72727L10.8119 8.69318C11.3486 9.13402 12.0216 9.375 12.7161 9.375H19C19.5523 9.375 20 9.82272 20 10.375V10.5H22V10.375C22 8.71815 20.6569 7.375 19 7.375H12.7161C12.4846 7.375 12.2603 7.29467 12.0814 7.14773L9.6881 5.18182C9.15142 4.74098 8.47841 4.5 7.78388 4.5H5Z" fill="#64748B"/>
<path fill-rule="evenodd" clip-rule="evenodd" d="M14 12.389H14.889V11.5C14.3997 11.5 14 11.8997 14 12.389ZM14 15.9438H14.889V15.0548H14V15.9438ZM15.7781 19.5H16.6671V18.611H15.7781V19.5ZM14 14.1657H14.889V13.2781H14V14.1657ZM18.4452 11.5H17.5555V12.389H18.4445L18.4452 11.5ZM21.1116 11.5V12.389H22C22 11.8997 21.601 11.5 21.1116 11.5ZM14.889 19.5V18.611H14C14 19.1003 14.3997 19.5 14.889 19.5ZM14 17.7219H14.889V16.8343H14V17.7219ZM16.6671 11.5H15.7781V12.389H16.6671V11.5ZM17.5555 19.5H18.4445V18.611H17.5555V19.5ZM21.1116 15.9445H22V15.0555H21.111L21.1116 15.9445ZM21.1116 19.5C21.5996 19.5 22 19.1003 22 18.611H21.111L21.1116 19.5ZM21.1116 14.1664H22V13.2781H21.111L21.1116 14.1664ZM21.1116 17.7219H22V16.8343H21.111L21.1116 17.7219ZM19.3336 19.5H20.2226V18.611H19.3336V19.5ZM19.3336 12.389H20.2226V11.5H19.3336V12.389ZM15.7781 17.7219H20.2226V13.2781H15.7774L15.7781 17.7219ZM16.6671 14.1671H19.3336V16.8336H16.6671V14.1671Z" fill="#C084FC"/>
</svg>
