<svg width="24" height="25" viewBox="0 0 24 25" fill="none" xmlns="http://www.w3.org/2000/svg">
<path fill-rule="evenodd" clip-rule="evenodd" d="M5 4.5C3.34315 4.5 2 5.84315 2 7.5V17.5C2 19.1569 3.34315 20.5 5 20.5H13V18.5H5C4.44772 18.5 4 18.0523 4 17.5V7.5C4 6.94772 4.44772 6.5 5 6.5H7.78388C8.01539 6.5 8.23973 6.58033 8.41862 6.72727L10.8119 8.69318C11.3486 9.13402 12.0216 9.375 12.7161 9.375H19C19.5523 9.375 20 9.82272 20 10.375V10.5H22V10.375C22 8.71815 20.6569 7.375 19 7.375H12.7161C12.4846 7.375 12.2603 7.29467 12.0814 7.14773L9.6881 5.18182C9.15142 4.74098 8.47841 4.5 7.78388 4.5H5Z" fill="#64748B"/>
<path fill-rule="evenodd" clip-rule="evenodd" d="M17.8605 11.5054C17.661 11.5247 17.4691 11.594 17.3012 11.7074C17.1334 11.8207 16.9947 11.9746 16.8973 12.1558C16.7998 12.3371 16.7464 12.5401 16.7417 12.7475C16.737 12.9549 16.7811 13.1603 16.8703 13.346L15.4837 14.4181C15.386 14.357 15.2708 14.333 15.1578 14.35C15.0448 14.367 14.9411 14.4241 14.8643 14.5115C14.7874 14.599 14.7423 14.7113 14.7366 14.8293C14.7308 14.9473 14.7648 15.0637 14.8328 15.1587C14.9007 15.2536 14.9984 15.3212 15.1092 15.3499C15.2199 15.3786 15.3368 15.3666 15.44 15.316C15.5432 15.2654 15.6262 15.1793 15.6748 15.0724C15.7235 14.9655 15.7348 14.8444 15.7068 14.7299L17.4235 13.4243C17.1973 13.2042 17.0793 12.8428 17.1801 12.5157C17.2407 12.3215 17.3659 12.1557 17.5334 12.0479C17.7009 11.9401 17.8999 11.8973 18.095 11.9269C18.2902 11.9566 18.4688 12.0569 18.5993 12.21C18.7298 12.3631 18.8036 12.5591 18.8077 12.7632L19.2072 12.7715C19.2065 12.5944 19.1702 12.4194 19.1006 12.2576C19.031 12.0958 18.9297 11.9508 18.803 11.8317C18.6764 11.7126 18.5272 11.6221 18.3649 11.5659C18.2027 11.5098 18.0309 11.4891 17.8605 11.5054ZM18.0105 12.3172C17.9338 12.317 17.8582 12.3353 17.7895 12.3705C17.7208 12.4057 17.661 12.457 17.6147 12.5203C17.5684 12.5836 17.537 12.6571 17.5229 12.7351C17.5088 12.8131 17.5124 12.8934 17.5334 12.9698C17.5544 13.0461 17.5923 13.1163 17.644 13.1749C17.6957 13.2335 17.7598 13.2788 17.8314 13.3073C17.9029 13.3359 17.9799 13.3468 18.0562 13.3393C18.1325 13.3317 18.2061 13.306 18.2711 13.264L19.9983 14.5651C20.1335 14.2743 20.4298 14.0478 20.7623 14.0478C20.9608 14.0478 21.1528 14.1208 21.304 14.2539C21.4552 14.387 21.5557 14.5714 21.5876 14.7742C21.6194 14.977 21.5806 15.1849 21.4779 15.3607C21.3752 15.5365 21.2155 15.6688 21.0272 15.7339L21.1415 16.1322C21.3189 16.0732 21.4812 15.9735 21.6161 15.8404C21.7511 15.7074 21.8552 15.5446 21.9208 15.3641C21.9864 15.1835 22.0118 14.99 21.995 14.7979C21.9782 14.6058 21.9196 14.4201 21.8238 14.2548C21.7279 14.0894 21.5972 13.9485 21.4413 13.8428C21.2855 13.737 21.1086 13.6691 20.9239 13.6441C20.7391 13.619 20.5513 13.6375 20.3744 13.6982C20.1975 13.7589 20.0362 13.8601 19.9024 13.9944L18.4918 12.9484C18.5088 12.8732 18.5092 12.7949 18.4929 12.7195C18.4767 12.6441 18.4443 12.5734 18.398 12.5128C18.3518 12.4522 18.2929 12.4031 18.2258 12.3692C18.1588 12.3354 18.0851 12.3176 18.0105 12.3172ZM15.2304 13.5611C15.0365 13.5584 14.8448 13.6038 14.6712 13.6934C14.4977 13.7831 14.3474 13.9144 14.2329 14.0765C14.0422 14.3493 13.964 14.6894 14.0155 15.022C14.067 15.3545 14.244 15.6522 14.5076 15.8497C14.7768 16.0533 15.0983 16.1277 15.4032 16.0851L15.9502 17.7775C15.8942 17.8275 15.8499 17.8899 15.8204 17.96C15.791 18.0302 15.7772 18.1064 15.7802 18.1828C15.7831 18.2593 15.8027 18.3341 15.8375 18.4016C15.8722 18.4691 15.9213 18.5276 15.9809 18.5728C16.0329 18.6125 16.092 18.6411 16.1547 18.6572C16.2174 18.6732 16.2826 18.6763 16.3465 18.6663C16.4104 18.6562 16.4717 18.6332 16.527 18.5986C16.5823 18.564 16.6304 18.5185 16.6687 18.4646C16.7065 18.4106 16.7336 18.3494 16.7485 18.2845C16.7634 18.2196 16.7657 18.1523 16.7555 18.0865C16.7452 18.0207 16.7225 17.9576 16.6886 17.9008C16.6547 17.8441 16.6104 17.7948 16.5581 17.7559C16.484 17.6999 16.3963 17.6664 16.3049 17.6592L15.6472 15.5704C15.3749 15.7205 15.0092 15.7211 14.7418 15.5195C14.6535 15.4534 14.5786 15.3699 14.5215 15.2739C14.4643 15.1778 14.426 15.0711 14.4087 14.9597C14.3914 14.8484 14.3955 14.7346 14.4207 14.6248C14.4459 14.5151 14.4917 14.4115 14.5556 14.3201C14.7707 14.0154 15.1456 13.9021 15.4763 14.0122L15.6085 13.6254C15.4855 13.5827 15.3571 13.5617 15.2304 13.5611ZM20.7801 14.4009C20.6993 14.3937 20.6181 14.4072 20.5435 14.4402C20.469 14.4732 20.4035 14.5247 20.3528 14.5902C20.3021 14.6558 20.2678 14.7332 20.2529 14.8157C20.238 14.8982 20.243 14.9832 20.2675 15.0633C20.2957 15.1529 20.3476 15.2325 20.4175 15.293L19.7524 17.3786C20.0598 17.4206 20.3572 17.642 20.4587 17.9665C20.4918 18.0739 20.5043 18.1871 20.4952 18.2995C20.4861 18.4119 20.4557 18.5214 20.4058 18.6216C20.3559 18.7219 20.2873 18.811 20.2041 18.8838C20.1209 18.9567 20.0247 19.0118 19.9208 19.0462C19.7553 19.1021 19.577 19.1028 19.4112 19.0481C19.2453 18.9934 19.1002 18.8861 18.9964 18.7414L18.6663 18.9743C18.8191 19.1922 19.0346 19.3544 19.282 19.4376C19.5294 19.5208 19.7958 19.5208 20.0432 19.4375C20.1968 19.3866 20.3392 19.3049 20.4623 19.197C20.5853 19.0892 20.6867 18.9572 20.7605 18.8088C20.8343 18.6604 20.8791 18.4984 20.8924 18.332C20.9057 18.1656 20.8872 17.9982 20.8379 17.8392C20.7403 17.5254 20.5278 17.2636 20.246 17.1101L20.7746 15.4126C20.8483 15.406 20.9197 15.3825 20.9834 15.3436C21.0472 15.3048 21.1017 15.2516 21.143 15.1881C21.1842 15.1245 21.2112 15.0522 21.2219 14.9764C21.2326 14.9007 21.2268 14.8234 21.2049 14.7502C21.1752 14.6552 21.119 14.5713 21.0435 14.5092C20.9679 14.447 20.8763 14.4094 20.7801 14.4009ZM15.2882 17.4346C15.1787 17.5896 15.1045 17.7683 15.0712 17.9572C15.0379 18.1461 15.0464 18.3404 15.096 18.5255C15.1455 18.7106 15.2349 18.8816 15.3574 19.0258C15.4799 19.1701 15.6324 19.2837 15.8034 19.3583C15.9743 19.4328 16.1594 19.4664 16.3447 19.4563C16.53 19.4463 16.7107 19.393 16.8732 19.3005C17.0358 19.2079 17.176 19.0784 17.2833 18.9218C17.3906 18.7651 17.4623 18.5853 17.493 18.3959L19.2183 18.3787C19.2624 18.4874 19.3415 18.5768 19.4422 18.6318C19.5429 18.6868 19.6589 18.7039 19.7704 18.6802C19.8819 18.6566 19.982 18.5936 20.0537 18.5021C20.1253 18.4105 20.1641 18.2961 20.1634 18.1783C20.1626 18.0604 20.1224 17.9465 20.0496 17.856C19.9768 17.7654 19.8758 17.7038 19.764 17.6817C19.6522 17.6595 19.5365 17.6782 19.4365 17.7346C19.3365 17.7909 19.2585 17.8814 19.2158 17.9906L17.0922 17.9964C17.1488 18.3113 17.0394 18.674 16.7726 18.8757C16.6135 18.9967 16.4179 19.0551 16.2209 19.0403C16.024 19.0255 15.8386 18.9386 15.6979 18.7951C15.5573 18.6516 15.4707 18.461 15.4536 18.2573C15.4365 18.0537 15.4901 17.8504 15.6048 17.684L15.2882 17.4346Z" fill="#CFD8DC"/>
</svg>
