<svg width="24" height="24" viewBox="0 0 24 24" fill="none" xmlns="http://www.w3.org/2000/svg">
<path fill-rule="evenodd" clip-rule="evenodd" d="M5 4C3.34315 4 2 5.34315 2 7V17C2 18.6569 3.34315 20 5 20H13V18H5C4.44772 18 4 17.5523 4 17V7C4 6.44772 4.44772 6 5 6H7.78388C8.01539 6 8.23973 6.08033 8.41862 6.22727L10.8119 8.19318C11.3486 8.63402 12.0216 8.875 12.7161 8.875H19C19.5523 8.875 20 9.32272 20 9.875V10H22V9.875C22 8.21815 20.6569 6.875 19 6.875H12.7161C12.4846 6.875 12.2603 6.79467 12.0814 6.64773L9.6881 4.68182C9.15142 4.24098 8.47841 4 7.78388 4H5Z" fill="#64748B"/>
<path fill-rule="evenodd" clip-rule="evenodd" d="M20.9069 15.4149C20.9593 15.3657 20.9884 15.2981 20.9942 15.2182C21 15.0583 20.8894 14.9292 20.738 14.9169C20.6681 14.9107 20.5983 14.9415 20.5459 14.9845L15.6666 17.8069C15.556 17.8561 15.457 17.9421 15.393 18.059C15.2241 18.3541 15.3173 18.7354 15.6026 18.9137C15.8005 19.0367 16.0393 19.0244 16.2256 18.9014C16.2372 18.8891 16.2547 18.8829 16.2663 18.8706L20.8079 15.501C20.8312 15.4826 20.8952 15.4334 20.9069 15.4149Z" fill="url(#paint0_linear_808_1121)"/>
<path fill-rule="evenodd" clip-rule="evenodd" d="M20.9184 15.003L17.2037 11.1537C17.1222 11.0615 17.0057 11 16.8718 11C16.6214 11 16.4235 11.2152 16.4235 11.4735C16.4235 11.6026 16.47 11.7133 16.5457 11.7994C16.569 11.824 16.5923 11.8424 16.6156 11.8609L20.54 15.4088C20.5866 15.4518 20.6448 15.4826 20.7147 15.4887C20.866 15.4949 20.9883 15.378 21 15.2182C21 15.1382 20.9708 15.0583 20.9184 15.003Z" fill="url(#paint1_linear_808_1121)"/>
<path fill-rule="evenodd" clip-rule="evenodd" d="M17.3261 14.6586C17.3203 14.6586 15.032 12.7525 14.9854 12.7217L14.8806 12.6664C14.5429 12.5311 14.1703 12.7156 14.0422 13.0722C13.9316 13.3858 14.0538 13.7302 14.31 13.8962C14.3508 13.9208 14.3857 13.9392 14.4265 13.9515C14.4498 13.9638 17.0699 15.1075 17.0699 15.1075C17.1747 15.1567 17.297 15.126 17.3668 15.0337C17.4542 14.9169 17.4367 14.7509 17.3261 14.6586Z" fill="url(#paint2_linear_808_1121)"/>
<path fill-rule="evenodd" clip-rule="evenodd" d="M16.8718 11C16.7728 11 16.6797 11.0369 16.604 11.0922L14.2866 12.7402C14.2808 12.7463 14.275 12.7463 14.275 12.7524H14.2692C14.1702 12.8262 14.0887 12.9369 14.0421 13.066C13.914 13.4227 14.0887 13.8224 14.4264 13.9515C14.636 14.0376 14.863 13.9945 15.0319 13.8654C15.0727 13.8347 15.1076 13.8039 15.1367 13.767L17.1513 11.8486C17.2561 11.7625 17.326 11.6272 17.326 11.4735C17.326 11.2152 17.1222 11 16.8718 11Z" fill="url(#paint3_linear_808_1121)"/>
<defs>
<linearGradient id="paint0_linear_808_1121" x1="15.8553" y1="18.4131" x2="20.5497" y2="15.7302" gradientUnits="userSpaceOnUse">
<stop stop-color="#FDD835"/>
<stop offset="1" stop-color="#F57C00"/>
</linearGradient>
<linearGradient id="paint1_linear_808_1121" x1="16.8171" y1="11.4248" x2="21.1793" y2="15.0409" gradientUnits="userSpaceOnUse">
<stop stop-color="#EF5350"/>
<stop offset="0.57" stop-color="#FF6E40"/>
<stop offset="1" stop-color="#F57C00"/>
</linearGradient>
<linearGradient id="paint2_linear_808_1121" x1="17.0843" y1="14.9133" x2="14.5413" y2="13.4094" gradientUnits="userSpaceOnUse">
<stop stop-color="#8E24AA"/>
<stop offset="0.385" stop-color="#AB47BC"/>
<stop offset="0.765" stop-color="#EC407A"/>
<stop offset="0.957" stop-color="#EC407A"/>
</linearGradient>
<linearGradient id="paint3_linear_808_1121" x1="17.0392" y1="11.2276" x2="14.523" y2="13.1954" gradientUnits="userSpaceOnUse">
<stop stop-color="#EF5350"/>
<stop offset="0.364" stop-color="#EE4E72"/>
<stop offset="1" stop-color="#EC407A"/>
</linearGradient>
</defs>
</svg>
