<svg width="24" height="25" viewBox="0 0 24 25" fill="none" xmlns="http://www.w3.org/2000/svg">
<path fill-rule="evenodd" clip-rule="evenodd" d="M5 4.5C3.34315 4.5 2 5.84315 2 7.5V17.5C2 19.1569 3.34315 20.5 5 20.5H14V18.5H5C4.44772 18.5 4 18.0523 4 17.5V7.5C4 6.94772 4.44772 6.5 5 6.5H7.78388C8.01539 6.5 8.23973 6.58033 8.41862 6.72727L10.8119 8.69318C11.3486 9.13402 12.0216 9.375 12.7161 9.375H19C19.5523 9.375 20 9.82272 20 10.375V10.5H22V10.375C22 8.71815 20.6569 7.375 19 7.375H12.7161C12.4846 7.375 12.2603 7.29467 12.0814 7.14773L9.6881 5.18182C9.15142 4.74098 8.47841 4.5 7.78388 4.5H5Z" fill="#64748B"/>
<path fill-rule="evenodd" clip-rule="evenodd" d="M19 17.5951C19.0985 17.5951 19.1961 17.5754 19.2871 17.5371C19.3782 17.4988 19.4609 17.4426 19.5306 17.3719C19.6002 17.3011 19.6555 17.2171 19.6932 17.1246C19.7309 17.0321 19.7503 16.933 19.7503 16.8329C19.7503 16.4104 19.4128 16.0713 19 16.0713C18.9015 16.0713 18.8039 16.0911 18.7129 16.1294C18.6218 16.1677 18.5391 16.2238 18.4694 16.2946C18.3998 16.3654 18.3445 16.4494 18.3068 16.5419C18.2691 16.6343 18.2497 16.7335 18.2497 16.8335C18.2499 17.0356 18.329 17.2293 18.4697 17.3721C18.6104 17.5149 18.8011 17.5951 19 17.5951ZM21.2503 14.1665C21.4492 14.1666 21.6399 14.247 21.7805 14.3899C21.921 14.5328 22 14.7266 22 14.9287V18.7378C22 18.8379 21.9806 18.937 21.9429 19.0295C21.9052 19.122 21.8499 19.206 21.7802 19.2768C21.7106 19.3475 21.6279 19.4037 21.5368 19.442C21.4458 19.4803 21.3482 19.5 21.2497 19.5H16.7497C16.5508 19.4998 16.3601 19.4195 16.2195 19.2765C16.079 19.1336 16 18.9398 16 18.7378V14.9287C16 14.5055 16.3375 14.1665 16.7497 14.1665H17.1248V13.4055C17.1248 13.1553 17.1732 12.9075 17.2674 12.6764C17.3616 12.4452 17.4997 12.2351 17.6738 12.0582C17.848 11.8812 18.0547 11.7408 18.2823 11.6451C18.5098 11.5493 18.7537 11.5 19 11.5C19.2463 11.5 19.4902 11.5493 19.7177 11.6451C19.9453 11.7408 20.152 11.8812 20.3262 12.0582C20.5003 12.2351 20.6384 12.4452 20.7326 12.6764C20.8268 12.9075 20.8752 13.1553 20.8752 13.4055V14.1671H21.2503M19 12.2622C18.8522 12.2622 18.7059 12.2918 18.5694 12.3493C18.4329 12.4067 18.3089 12.4909 18.2044 12.5971C18.0999 12.7033 18.0171 12.8293 17.9606 12.968C17.9041 13.1068 17.8751 13.2554 17.8752 13.4055V14.1671H20.1248V13.4055C20.1249 13.2554 20.0959 13.1068 20.0394 12.968C19.9829 12.8293 19.9001 12.7033 19.7956 12.5971C19.6911 12.4909 19.5671 12.4067 19.4306 12.3493C19.2941 12.2918 19.1478 12.2622 19 12.2622Z" fill="#FFCE50"/>
</svg>
