<svg width="24" height="25" viewBox="0 0 24 25" fill="none" xmlns="http://www.w3.org/2000/svg">
<path fill-rule="evenodd" clip-rule="evenodd" d="M5 4.5C3.34315 4.5 2 5.84315 2 7.5V17.5C2 19.1569 3.34315 20.5 5 20.5H10V18.5H5C4.44772 18.5 4 18.0523 4 17.5V7.5C4 6.94772 4.44772 6.5 5 6.5H7.78388C8.01539 6.5 8.23973 6.58033 8.41862 6.72727L10.8119 8.69318C11.3486 9.13402 12.0216 9.375 12.7161 9.375H19C19.5523 9.375 20 9.82272 20 10.375V10.5H22V10.375C22 8.71815 20.6569 7.375 19 7.375H12.7161C12.4846 7.375 12.2603 7.29467 12.0814 7.14773L9.6881 5.18182C9.15142 4.74098 8.47841 4.5 7.78388 4.5H5Z" fill="#64748B"/>
<path fill-rule="evenodd" clip-rule="evenodd" d="M15.8541 11.8775C15.7832 11.7626 15.682 11.6673 15.5603 11.6011C15.4387 11.5348 15.301 11.5 15.1609 11.5C15.0207 11.5 14.883 11.5348 14.7614 11.6011C14.6398 11.6673 14.5385 11.7626 14.4676 11.8775L11.1085 17.3664C10.8001 17.8701 11.186 18.5 11.8022 18.5H14.4241C14.2877 18.3886 14.1969 18.2352 14.1674 18.0666C14.1379 17.8981 14.1717 17.725 14.2628 17.5777L16.8064 13.4335L15.8541 11.8775Z" fill="#69F0AE"/>
<path d="M17.9826 13.0817C18.042 12.9875 18.1261 12.9095 18.2267 12.8554C18.3272 12.8013 18.4408 12.7728 18.5564 12.7728C18.672 12.7728 18.7856 12.8013 18.8861 12.8554C18.9867 12.9095 19.0708 12.9875 19.1302 13.0817L21.9103 17.5731C22.165 17.985 21.8471 18.4999 21.3361 18.4999H15.7775C15.2673 18.4999 14.9486 17.985 15.204 17.5731L17.9826 13.0817Z" fill="#97FF9A"/>
</svg>
