<svg width="24" height="25" viewBox="0 0 24 25" fill="none" xmlns="http://www.w3.org/2000/svg">
<path fill-rule="evenodd" clip-rule="evenodd" d="M5 4.5C3.34315 4.5 2 5.84315 2 7.5V17.5C2 19.1569 3.34315 20.5 5 20.5H13V18.5H5C4.44772 18.5 4 18.0523 4 17.5V7.5C4 6.94772 4.44772 6.5 5 6.5H7.78388C8.01539 6.5 8.23973 6.58033 8.41862 6.72727L10.8119 8.69318C11.3486 9.13402 12.0216 9.375 12.7161 9.375H19C19.5523 9.375 20 9.82272 20 10.375V10.5H22V10.375C22 8.71815 20.6569 7.375 19 7.375H12.7161C12.4846 7.375 12.2603 7.29467 12.0814 7.14773L9.6881 5.18182C9.15142 4.74098 8.47841 4.5 7.78388 4.5H5Z" fill="#64748B"/>
<path d="M16.5846 11.5C16.1731 11.5861 15.7669 11.706 15.3856 11.8872C15.3946 12.2048 15.4159 12.509 15.4602 12.8175C15.3124 12.9066 15.1561 12.9835 15.0179 13.0884C14.8771 13.1902 14.7338 13.2878 14.6065 13.4071C14.3494 13.2459 14.0819 13.0993 13.8061 12.9678C13.5079 13.2708 13.2282 13.598 13 13.9641C13.1716 14.2259 13.351 14.4713 13.5445 14.704H13.5496V16.9511L13.5625 16.9517L15.0237 17.0845C15.0609 17.0877 15.0956 17.1033 15.1217 17.1285C15.1477 17.1538 15.1633 17.1869 15.1658 17.222L15.2108 17.8299L16.4856 17.9153L16.5736 17.3541C16.5792 17.319 16.5979 17.2868 16.6265 17.2636C16.655 17.2403 16.6915 17.2275 16.7292 17.2275H18.2708C18.3486 17.2275 18.4148 17.2814 18.4264 17.3541L18.5144 17.9153L19.7892 17.8299L19.8342 17.222C19.837 17.187 19.8528 17.1541 19.8788 17.1289C19.9047 17.1038 19.9393 17.088 19.9763 17.0845L21.4369 16.9517L21.4497 16.9511V16.7717H21.4504V14.7046H21.4555C21.649 14.4719 21.8284 14.2265 22 13.9647C21.7704 13.606 21.5001 13.272 21.1939 12.9684C20.9168 13.0999 20.6474 13.249 20.3935 13.4071C20.2662 13.2878 20.1229 13.1902 19.9821 13.0884C19.8439 12.9835 19.6883 12.9072 19.5404 12.8175C19.5841 12.5084 19.606 12.2042 19.615 11.8872C19.2338 11.706 18.8269 11.5867 18.4154 11.5C18.2509 11.76 18.1011 12.0418 17.9699 12.3175C17.8156 12.2943 17.6595 12.2826 17.5032 12.2824H17.4968C17.3406 12.2824 17.1844 12.2945 17.0301 12.3175C16.8989 12.0418 16.7491 11.76 16.5846 11.5ZM15.4287 14.787C15.5444 14.784 15.6596 14.8025 15.7678 14.8415C15.8759 14.8804 15.9748 14.9391 16.0589 15.0141C16.143 15.0891 16.2105 15.179 16.2577 15.2787C16.3049 15.3783 16.3308 15.4858 16.3339 15.5948C16.3371 15.7039 16.3173 15.8125 16.2759 15.9144C16.2345 16.0163 16.1722 16.1095 16.0925 16.1887C16.0129 16.2679 15.9175 16.3315 15.8117 16.3759C15.706 16.4203 15.592 16.4447 15.4763 16.4475C15.2428 16.4533 15.0165 16.3714 14.847 16.22C14.6775 16.0685 14.5788 15.8598 14.5725 15.6397C14.5662 15.4196 14.6528 15.2062 14.8134 15.0463C14.9739 14.8864 15.1953 14.7932 15.4287 14.787ZM19.5713 14.787C19.8049 14.7869 20.0289 14.8742 20.1942 15.0298C20.3595 15.1854 20.4525 15.3965 20.4526 15.6167C20.4528 15.8369 20.3602 16.0481 20.1951 16.2039C20.0301 16.3597 19.8062 16.4474 19.5726 16.4475H19.5719C19.3383 16.4476 19.1143 16.3602 18.9491 16.2046C18.7838 16.0489 18.691 15.8378 18.6909 15.6176C18.6908 15.3974 18.7835 15.1862 18.9486 15.0304C19.1137 14.8747 19.3377 14.7871 19.5713 14.787ZM17.5 15.2725C17.6569 15.2725 17.7835 15.3815 17.7835 15.5155V16.2797C17.7835 16.4136 17.6562 16.5227 17.5 16.5227C17.3431 16.5227 17.2165 16.4142 17.2165 16.2797V15.5155C17.2165 15.3809 17.3431 15.2725 17.5 15.2725Z" fill="#8CDBFF"/>
<path d="M20.1383 17.368L20.0933 17.9795C20.0909 18.0152 20.0748 18.0489 20.0479 18.0742C20.021 18.0996 19.9853 18.1148 19.9474 18.1171L18.391 18.2213L18.3795 18.2219C18.3418 18.2219 18.3053 18.2091 18.2768 18.1858C18.2482 18.1626 18.2294 18.1304 18.2239 18.0953L18.1352 17.5244H16.8649L16.7755 18.0953C16.7698 18.1323 16.7494 18.1659 16.7183 18.1893C16.6873 18.2127 16.648 18.2242 16.6084 18.2213L15.052 18.1165C15.0143 18.1137 14.9789 18.0983 14.9521 18.0731C14.9254 18.0479 14.9091 18.0145 14.9061 17.9789L14.8611 17.3674L13.5471 17.248L13.5497 17.5559C13.5497 18.8643 15.3098 19.4927 17.4968 19.5H17.502C19.689 19.4927 21.4491 18.8643 21.4491 17.5559L21.4517 17.248L20.1383 17.368Z" fill="#8CDBFF"/>
</svg>
