<svg width="24" height="25" viewBox="0 0 24 25" fill="none" xmlns="http://www.w3.org/2000/svg">
<path fill-rule="evenodd" clip-rule="evenodd" d="M5 4.5C3.34315 4.5 2 5.84315 2 7.5V17.5C2 19.1569 3.34315 20.5 5 20.5H13V18.5H5C4.44772 18.5 4 18.0523 4 17.5V7.5C4 6.94772 4.44772 6.5 5 6.5H7.78388C8.01539 6.5 8.23973 6.58033 8.41862 6.72727L10.8119 8.69318C11.3486 9.13402 12.0216 9.375 12.7161 9.375H19C19.5523 9.375 20 9.82272 20 10.375V10.5H22V10.375C22 8.71815 20.6569 7.375 19 7.375H12.7161C12.4846 7.375 12.2603 7.29467 12.0814 7.14773L9.6881 5.18182C9.15142 4.74098 8.47841 4.5 7.78388 4.5H5Z" fill="#64748B"/>
<path d="M16.7724 13.9044C17.0389 14.862 16.4849 15.8575 15.5523 16.0969L15.0577 16.2238C15.0197 16.4765 15 16.7358 15 17C15 17.2765 15.0216 17.5474 15.0632 17.8111L15.5198 17.9252C16.4617 18.1606 17.0216 19.1663 16.7474 20.1303L16.5896 20.6848C16.9615 21.0235 17.3851 21.2986 17.8461 21.4942L18.2638 21.0386C18.9313 20.3103 20.0507 20.3105 20.7181 21.039L21.1403 21.5C21.6004 21.3065 22.0237 21.034 22.3956 20.6982L22.228 20.0957C21.9615 19.138 22.5155 18.1425 23.4481 17.9032L23.9423 17.7762C23.9803 17.5235 24 17.2643 24 17C24 16.7236 23.9784 16.4526 23.9368 16.1888L23.4805 16.0748C22.5387 15.8395 21.9789 14.8338 22.2531 13.8697L22.4106 13.3156C22.0389 12.9768 21.6152 12.7017 21.1541 12.506L20.7367 12.9614C20.0691 13.6898 18.9497 13.6895 18.2823 12.961L17.86 12.5C17.3999 12.6934 16.9766 12.9658 16.6047 13.3017L16.7724 13.9044ZM19.5 18.3176C18.8222 18.3176 18.2727 17.7277 18.2727 17C18.2727 16.2724 18.8222 15.6825 19.5 15.6825C20.1778 15.6825 20.7273 16.2724 20.7273 17C20.7273 17.7277 20.1778 18.3176 19.5 18.3176Z" fill="#0EA5E9"/>
</svg>
