<svg width="24" height="24" viewBox="0 0 24 24" fill="none" xmlns="http://www.w3.org/2000/svg">
<path fill-rule="evenodd" clip-rule="evenodd" d="M5 4C3.34315 4 2 5.34315 2 7V17C2 18.6569 3.34315 20 5 20H13V18H5C4.44772 18 4 17.5523 4 17V7C4 6.44772 4.44772 6 5 6H7.78388C8.01539 6 8.23973 6.08033 8.41862 6.22727L10.8119 8.19318C11.3486 8.63402 12.0216 8.875 12.7161 8.875H19C19.5523 8.875 20 9.32272 20 9.875V10H22V9.875C22 8.21815 20.6569 6.875 19 6.875H12.7161C12.4846 6.875 12.2603 6.79467 12.0814 6.64773L9.6881 4.68182C9.15142 4.24098 8.47841 4 7.78388 4H5Z" fill="#64748B"/>
<path fill-rule="evenodd" clip-rule="evenodd" d="M21.3009 12.7794C21.2513 12.6275 21.1464 12.5018 21.0085 12.4292L18.2214 11.0476C18.1498 11.0138 18.0717 10.9976 17.9931 11.0003C17.9196 11.0003 17.8377 11.0003 17.7647 11.0188L14.9771 12.4107C14.9086 12.4433 14.8482 12.4917 14.8007 12.5524C14.7532 12.613 14.7198 12.6842 14.7031 12.7603L14.0091 15.8743C13.9813 16.0352 14.018 16.1962 14.1094 16.3283L16.0376 18.7984C16.1473 18.9126 16.3027 18.9882 16.4575 18.9974H19.537C19.6178 19.0062 19.6995 18.9924 19.7734 18.9574C19.8474 18.9224 19.9109 18.8675 19.9575 18.7984L21.8857 16.3283C21.977 16.1962 22.0138 16.0347 21.9954 15.8743L21.3009 12.7794Z" fill="#71717A"/>
<path fill-rule="evenodd" clip-rule="evenodd" d="M20.8599 15.7508C20.851 15.7508 20.851 15.7508 20.851 15.7416C20.851 15.7318 20.8232 15.7318 20.8143 15.7318C20.7775 15.7226 20.7408 15.7226 20.7046 15.7226C20.6862 15.7226 20.6678 15.7226 20.65 15.7128H20.6405C20.5355 15.7031 20.4316 15.6842 20.3297 15.6562C20.3152 15.6504 20.3021 15.6415 20.2911 15.6301C20.2802 15.6187 20.2717 15.605 20.2662 15.5899C20.2662 15.5806 20.2568 15.5806 20.2568 15.5806L20.1838 15.5616C20.2172 15.2838 20.2048 15.0021 20.147 14.7286C20.0826 14.4535 19.9745 14.1913 19.8273 13.9527L19.8825 13.8956V13.8864C19.8825 13.8581 19.8914 13.82 19.9098 13.801C19.989 13.7326 20.0747 13.6725 20.1654 13.6216L20.2205 13.5928C20.2573 13.5743 20.2841 13.5547 20.3208 13.5362C20.3297 13.5264 20.3392 13.5264 20.3481 13.5172L20.3575 13.5079C20.3771 13.4933 20.3936 13.4747 20.4061 13.4533C20.4186 13.4319 20.4268 13.4081 20.4302 13.3833C20.4336 13.3586 20.4322 13.3334 20.4261 13.3092C20.4199 13.285 20.4091 13.2624 20.3943 13.2426C20.3787 13.2228 20.3592 13.2066 20.3371 13.1952C20.3151 13.1837 20.2909 13.1773 20.2662 13.1763C20.2197 13.1775 20.1749 13.1941 20.1381 13.2236L20.1287 13.2334C20.1198 13.2426 20.1108 13.2524 20.1014 13.2524C20.0741 13.2807 20.0468 13.3089 20.0284 13.3372C20.0195 13.3562 20.0011 13.366 19.9917 13.3753C19.9223 13.4523 19.8458 13.5221 19.7633 13.5835C19.7449 13.5928 19.7265 13.6026 19.7087 13.6026C19.6992 13.6026 19.6814 13.6026 19.6719 13.5928L19.599 13.6499C19.5255 13.5737 19.4436 13.4982 19.3706 13.4226C19.0264 13.1475 18.615 12.9771 18.1826 12.9305L18.1737 12.8544L18.1642 12.8451C18.1369 12.8261 18.1275 12.7978 18.1186 12.7696C18.1186 12.6657 18.1186 12.5613 18.1369 12.4477V12.4384C18.1369 12.4194 18.1459 12.4004 18.1459 12.3813C18.1553 12.3433 18.1553 12.3058 18.1642 12.2677V12.2111C18.1737 12.1165 18.1002 12.0219 18.0089 12.0219C17.955 12.0204 17.9026 12.0407 17.8629 12.0785C17.8457 12.0957 17.832 12.1163 17.8225 12.1391C17.813 12.1619 17.808 12.1864 17.8078 12.2111V12.2585C17.8078 12.2965 17.8172 12.3346 17.8262 12.3721C17.8356 12.3911 17.8356 12.4102 17.8356 12.4286V12.4384C17.8535 12.5423 17.8535 12.6467 17.8535 12.7603C17.8445 12.7886 17.8356 12.8169 17.8078 12.8359L17.7989 12.8451L17.7899 12.9213C17.6892 12.9305 17.5889 12.9495 17.4792 12.9686C17.0484 13.0664 16.6565 13.2973 16.3552 13.6308L16.3001 13.5928H16.2912C16.2822 13.5928 16.2728 13.6026 16.2544 13.6026C16.236 13.6026 16.2088 13.5928 16.1998 13.5835C16.1174 13.5172 16.0444 13.4416 15.9715 13.366C15.962 13.347 15.9442 13.3372 15.9347 13.328C15.9074 13.2997 15.889 13.2709 15.8612 13.2426C15.8523 13.2334 15.8434 13.2334 15.8345 13.2236L15.825 13.2143C15.7884 13.185 15.7437 13.1684 15.6974 13.167C15.671 13.1658 15.6448 13.1712 15.6208 13.1828C15.5969 13.1943 15.576 13.2117 15.5599 13.2334C15.5341 13.2746 15.5235 13.3242 15.5303 13.3729C15.5371 13.4216 15.5606 13.4661 15.5966 13.4982C15.6056 13.4982 15.6056 13.5079 15.6056 13.5079C15.6056 13.5079 15.6239 13.5264 15.6334 13.5264C15.6607 13.5455 15.6974 13.5645 15.7337 13.5835L15.7888 13.6118C15.8801 13.6689 15.962 13.7254 16.0444 13.7912C16.0628 13.8108 16.0812 13.8483 16.0717 13.8766V13.8864L16.1269 13.9429C16.1174 13.962 16.1085 13.9717 16.099 13.9902C15.8165 14.4513 15.7062 15.0033 15.7888 15.5426L15.7153 15.5616C15.7153 15.5708 15.7064 15.5709 15.7064 15.5709C15.6974 15.5991 15.6696 15.6182 15.6423 15.6372C15.5407 15.6662 15.4366 15.6853 15.3315 15.6943H15.3226C15.3042 15.6943 15.2859 15.6943 15.2675 15.7035C15.2307 15.7035 15.1945 15.7128 15.1583 15.7128C15.1488 15.7128 15.1399 15.7226 15.1215 15.7226C15.1126 15.7226 15.1126 15.7226 15.1032 15.7318C15.0797 15.7358 15.0572 15.7447 15.037 15.7579C15.0169 15.7711 14.9995 15.7884 14.9859 15.8086C14.9723 15.8289 14.9628 15.8518 14.9578 15.876C14.9529 15.9001 14.9527 15.925 14.9572 15.9493C14.967 15.9905 14.9909 16.0267 15.0245 16.0511C15.0581 16.0755 15.0991 16.0865 15.1399 16.082C15.1583 16.082 15.1672 16.082 15.1856 16.0727C15.1945 16.0727 15.1945 16.0727 15.1945 16.0629C15.1945 16.0537 15.2129 16.0537 15.2313 16.0537C15.268 16.0444 15.3042 16.0254 15.3315 16.0156C15.3483 16.0052 15.3672 15.9989 15.3866 15.9971H15.3956C15.4869 15.9591 15.5877 15.9308 15.688 15.9118H15.6969C15.7247 15.9118 15.752 15.921 15.7704 15.94C15.7793 15.94 15.7793 15.9493 15.7793 15.9493L15.8617 15.94C15.9978 16.3791 16.2589 16.7652 16.6109 17.0476C16.6933 17.114 16.7663 17.1705 16.8576 17.2178L16.8209 17.2939C16.8209 17.3032 16.8303 17.3032 16.8303 17.3032C16.8384 17.3173 16.8434 17.3331 16.8449 17.3494C16.8465 17.3658 16.8445 17.3823 16.8392 17.3978C16.8025 17.4924 16.7479 17.587 16.6933 17.6724V17.6816C16.6838 17.7006 16.6749 17.7099 16.6565 17.7289C16.6382 17.7479 16.6198 17.7855 16.5925 17.8235C16.5836 17.8328 16.5836 17.8426 16.5746 17.8518C16.5746 17.8518 16.5747 17.8616 16.5652 17.8616C16.5438 17.9059 16.5394 17.957 16.5531 18.0044C16.5667 18.0519 16.5973 18.0922 16.6387 18.1171C16.6614 18.1288 16.6863 18.1351 16.7117 18.1356C16.7476 18.1342 16.7825 18.123 16.8129 18.1031C16.8433 18.0833 16.8682 18.0555 16.8849 18.0225C16.8849 18.0225 16.8849 18.0127 16.8944 18.0127C16.8944 18.0035 16.9033 17.9937 16.9127 17.9845C16.9217 17.9464 16.94 17.9181 16.9495 17.8801L16.9673 17.8235C16.9946 17.7197 17.0408 17.6245 17.086 17.5299C17.1037 17.5032 17.1296 17.4833 17.1595 17.4734C17.1684 17.4734 17.1684 17.4734 17.1684 17.4641L17.2051 17.388C17.4608 17.4924 17.7259 17.5397 17.9999 17.5397C18.166 17.5395 18.3314 17.5204 18.4934 17.4826C18.5937 17.4641 18.6945 17.4261 18.7858 17.3978L18.8226 17.4641C18.8315 17.4641 18.8315 17.4641 18.8315 17.4734C18.8613 17.4833 18.8872 17.5032 18.905 17.5299C18.9501 17.6245 18.9869 17.7197 19.0231 17.8143V17.8235L19.0415 17.8801C19.0509 17.9181 19.0598 17.9562 19.0782 17.9845C19.0871 17.9937 19.0871 18.0035 19.0966 18.0127C19.0966 18.0127 19.0966 18.0225 19.1055 18.0225C19.1223 18.0555 19.1471 18.0833 19.1775 18.1031C19.2079 18.123 19.2428 18.1342 19.2787 18.1356C19.3066 18.1356 19.325 18.1264 19.3522 18.1171C19.3726 18.1071 19.3905 18.0925 19.4047 18.0745C19.419 18.0564 19.4292 18.0354 19.4347 18.0127C19.4452 17.9624 19.4419 17.9101 19.4252 17.8616C19.4252 17.8518 19.4163 17.8518 19.4163 17.8518C19.4163 17.8426 19.4068 17.8328 19.3979 17.8235C19.3819 17.7884 19.3603 17.7564 19.3339 17.7289C19.3245 17.7109 19.3121 17.6949 19.2971 17.6816V17.6724C19.2363 17.5884 19.1872 17.496 19.1512 17.3978C19.1459 17.3823 19.1439 17.3658 19.1455 17.3494C19.147 17.3331 19.152 17.3173 19.1601 17.3032C19.1601 17.2934 19.1695 17.2934 19.1695 17.2934L19.1422 17.2178C19.6131 16.9271 19.9668 16.4701 20.1381 15.9308L20.2116 15.94C20.2205 15.94 20.2205 15.9308 20.2205 15.9308C20.2403 15.9117 20.2665 15.9014 20.2935 15.902H20.3024C20.4032 15.921 20.5035 15.9498 20.5948 15.9873H20.6043C20.6221 15.9971 20.641 16.0064 20.6589 16.0064C20.6956 16.0254 20.7229 16.0347 20.7597 16.0444C20.7686 16.0444 20.7775 16.0537 20.7964 16.0537C20.8053 16.0537 20.8054 16.0537 20.8143 16.0629C20.8283 16.0707 20.8441 16.0741 20.8599 16.0727C20.8997 16.072 20.9384 16.059 20.9709 16.0354C21.0035 16.0117 21.0285 15.9785 21.0426 15.94C21.0153 15.8454 20.9513 15.7699 20.8599 15.7508ZM18.2283 15.4572L17.9816 15.5806L17.7348 15.4572L17.6613 15.1832L17.8356 14.9559H18.1191L18.2923 15.1832L18.2283 15.4572ZM19.7176 14.8423C19.7633 15.0413 19.7727 15.2397 19.7544 15.4387L18.8861 15.1832C18.8042 15.1641 18.7585 15.0788 18.7764 14.994C18.783 14.969 18.7956 14.9461 18.8131 14.9276L19.4982 14.2838C19.599 14.454 19.6719 14.6438 19.7176 14.8423ZM19.2241 13.9337L18.4839 14.4828C18.4204 14.5209 18.3286 14.5111 18.2829 14.4448C18.274 14.4364 18.2669 14.4262 18.2622 14.4147C18.2575 14.4033 18.2552 14.3909 18.2556 14.3785L18.201 13.4226C18.5877 13.4699 18.948 13.6498 19.2247 13.9337H19.2241ZM17.5705 13.4508L17.7532 13.4128L17.6981 14.3594C17.6981 14.4448 17.6251 14.5111 17.5427 14.5111C17.5154 14.5111 17.497 14.5013 17.4697 14.4921L16.7295 13.9337C16.9606 13.6942 17.252 13.5269 17.5705 13.4508ZM16.4555 14.2838L17.1316 14.9086C17.1469 14.9214 17.1595 14.9373 17.1687 14.9553C17.1779 14.9733 17.1835 14.993 17.1852 15.0133C17.1869 15.0336 17.1847 15.054 17.1786 15.0734C17.1726 15.0928 17.1629 15.1107 17.15 15.1261C17.1316 15.1544 17.1133 15.1641 17.0765 15.1734L16.1998 15.4387C16.165 15.0354 16.2545 14.6311 16.4555 14.2838ZM16.3001 15.8835L17.2046 15.7226C17.2781 15.7226 17.3511 15.7699 17.36 15.8454C17.3653 15.8609 17.3673 15.8774 17.3657 15.8938C17.3642 15.9101 17.3592 15.9259 17.3511 15.94L17.0035 16.8111C16.6782 16.589 16.4313 16.2635 16.3001 15.8835ZM18.3742 17.0569C18.2422 17.0871 18.1074 17.103 17.9721 17.1042C17.7805 17.1042 17.5794 17.0661 17.3967 17.0096L17.8445 16.1668C17.8655 16.1387 17.8955 16.1195 17.9291 16.1126C17.9627 16.1057 17.9975 16.1116 18.0272 16.1293C18.0545 16.1483 18.0729 16.1673 18.1007 16.1956L18.5391 17.0193C18.4934 17.0286 18.4383 17.0378 18.3742 17.0574V17.0569ZM19.4893 16.2337C19.35 16.463 19.1627 16.657 18.9412 16.8013L18.5842 15.921C18.574 15.8845 18.5766 15.8453 18.5917 15.8107C18.6069 15.776 18.6334 15.748 18.6666 15.7318C18.693 15.721 18.7208 15.7145 18.7491 15.7128L19.6625 15.8737C19.6174 16.0064 19.5628 16.1293 19.4893 16.2337Z" fill="white"/>
</svg>
