<svg width="24" height="25" viewBox="0 0 24 25" fill="none" xmlns="http://www.w3.org/2000/svg">
<path fill-rule="evenodd" clip-rule="evenodd" d="M5 4.5C3.34315 4.5 2 5.84315 2 7.5V17.5C2 19.1569 3.34315 20.5 5 20.5H13V18.5H5C4.44772 18.5 4 18.0523 4 17.5V7.5C4 6.94772 4.44772 6.5 5 6.5H7.78388C8.01539 6.5 8.23973 6.58033 8.41862 6.72727L10.8119 8.69318C11.3486 9.13402 12.0216 9.375 12.7161 9.375H19C19.5523 9.375 20 9.82272 20 10.375V10.5H22V10.375C22 8.71815 20.6569 7.375 19 7.375H12.7161C12.4846 7.375 12.2603 7.29467 12.0814 7.14773L9.6881 5.18182C9.15142 4.74098 8.47841 4.5 7.78388 4.5H5Z" fill="#64748B"/>
<path d="M19.0468 14.0396C18.8789 14.1516 18.3471 14.4556 18.2671 14.5156C18.1111 14.6395 17.9672 14.6315 17.8113 14.5116C17.7313 14.4476 17.1995 14.1436 17.0315 14.0356C16.8396 13.9116 16.8516 13.7557 17.0635 13.6677C17.7193 13.3917 18.3751 13.4117 19.0268 13.6797C19.2227 13.7637 19.2307 13.9196 19.0468 14.0396ZM21.9337 16.9512C21.5618 16.1154 21.054 15.3554 20.3983 14.6876C20.1863 14.4676 20.0544 14.2196 19.9744 13.9356C19.9345 13.8037 19.9065 13.6677 19.8785 13.5317C19.7985 13.1797 19.7625 12.8198 19.5986 12.4878C19.3067 11.856 18.7989 11.528 18.0631 11.5C17.3395 11.52 16.7997 11.824 16.4838 12.4598C16.3998 12.6319 16.3398 12.8118 16.2999 12.9958C16.2319 13.2998 16.1719 13.6157 16.0999 13.9236C16.0399 14.1836 15.92 14.4076 15.7161 14.6075C15.0723 15.2355 14.5565 15.9553 14.1647 16.7472C14.1087 16.8632 14.0527 16.9792 14.0167 17.0992C13.9407 17.3631 14.1327 17.5471 14.4125 17.4832C14.5885 17.4471 14.7644 17.4111 14.9323 17.3591C15.0963 17.2992 15.1603 17.3391 15.2003 17.4992C15.4601 18.359 16.0279 18.9629 16.8956 19.2989C18.543 19.9228 20.4663 19.0349 20.8821 17.4671C20.9101 17.3591 20.9501 17.3192 21.07 17.3591C21.2539 17.4151 21.4419 17.4551 21.6298 17.4992C21.8257 17.5351 21.9697 17.4351 21.9977 17.2432C22.0097 17.1392 21.9737 17.0472 21.9337 16.9512Z" fill="#CFD8DC"/>
</svg>
