<svg width="24" height="25" viewBox="0 0 24 25" fill="none" xmlns="http://www.w3.org/2000/svg">
<path fill-rule="evenodd" clip-rule="evenodd" d="M5 4.5C3.34315 4.5 2 5.84315 2 7.5V17.5C2 19.1569 3.34315 20.5 5 20.5H13V18.5H5C4.44772 18.5 4 18.0523 4 17.5V7.5C4 6.94772 4.44772 6.5 5 6.5H7.78388C8.01539 6.5 8.23973 6.58033 8.41862 6.72727L10.8119 8.69318C11.3486 9.13402 12.0216 9.375 12.7161 9.375H19C19.5523 9.375 20 9.82272 20 10.375V10.5H22V10.375C22 8.71815 20.6569 7.375 19 7.375H12.7161C12.4846 7.375 12.2603 7.29467 12.0814 7.14773L9.6881 5.18182C9.15142 4.74098 8.47841 4.5 7.78388 4.5H5Z" fill="#64748B"/>
<path d="M15.6408 19.2442C16.5469 19.2442 17.2815 18.5012 17.2815 17.5847C17.2815 16.6682 16.5469 15.9252 15.6408 15.9252C14.7346 15.9252 14 16.6682 14 17.5847C14 18.5012 14.7346 19.2442 15.6408 19.2442Z" fill="#2BD3C1"/>
<path d="M17.8285 14.8189C18.7346 14.8189 19.4692 14.076 19.4692 13.1595C19.4692 12.243 18.7346 11.5 17.8285 11.5C16.9223 11.5 16.1877 12.243 16.1877 13.1595C16.1877 14.076 16.9223 14.8189 17.8285 14.8189Z" fill="#2BD3C1"/>
<path d="M20.8913 21.2355C21.7974 21.2355 22.532 20.4925 22.532 19.576C22.532 18.6595 21.7974 17.9166 20.8913 17.9166C19.9851 17.9166 19.2505 18.6595 19.2505 19.576C19.2505 20.4925 19.9851 21.2355 20.8913 21.2355Z" fill="#2BD3C1"/>
</svg>
