<svg width="24" height="25" viewBox="0 0 24 25" fill="none" xmlns="http://www.w3.org/2000/svg">
<path fill-rule="evenodd" clip-rule="evenodd" d="M5 4.5C3.34315 4.5 2 5.84315 2 7.5V17.5C2 19.1569 3.34315 20.5 5 20.5H13V18.5H5C4.44772 18.5 4 18.0523 4 17.5V7.5C4 6.94772 4.44772 6.5 5 6.5H7.78388C8.01539 6.5 8.23973 6.58033 8.41862 6.72727L10.8119 8.69318C11.3486 9.13402 12.0216 9.375 12.7161 9.375H19C19.5523 9.375 20 9.82272 20 10.375V10.5H22V10.375C22 8.71815 20.6569 7.375 19 7.375H12.7161C12.4846 7.375 12.2603 7.29467 12.0814 7.14773L9.6881 5.18182C9.15142 4.74098 8.47841 4.5 7.78388 4.5H5Z" fill="#64748B"/>
<path fill-rule="evenodd" clip-rule="evenodd" d="M18.8104 15.5C18.8104 15.6025 18.7895 15.704 18.7487 15.7988C18.708 15.8935 18.6482 15.9795 18.573 16.052C18.4977 16.1245 18.4083 16.182 18.3099 16.2213C18.2116 16.2605 18.1061 16.2807 17.9997 16.2807C17.7848 16.2805 17.5787 16.1982 17.4268 16.0518C17.2749 15.9054 17.1896 15.7069 17.1896 15.5C17.1896 15.2931 17.2749 15.0946 17.4268 14.9482C17.5787 14.8018 17.7848 14.7195 17.9997 14.7193C18.2147 14.7193 18.4209 14.8015 18.573 14.948C18.725 15.0944 18.8104 15.2929 18.8104 15.5ZM21.5973 13.4993C21.4212 13.2076 21.2075 12.9385 20.9612 12.6984L20.0239 13.2198C19.7351 12.9819 19.4037 12.7969 19.0459 12.6737C18.7332 12.9758 18.477 13.3276 18.2886 13.7138C19.3315 13.6453 20.4083 14.009 21.4085 14.761L21.998 14.4332C21.9059 14.1071 21.7713 13.7935 21.5973 13.5V13.4993ZM21.5973 17.5C21.7719 17.207 21.9072 16.8939 22 16.5681L21.0634 16.0468C21.1328 15.6871 21.1335 15.3183 21.0654 14.9585C20.6372 14.8489 20.1926 14.8114 19.7511 14.8477C20.3338 15.6831 20.5456 16.763 20.369 17.9725L20.9585 18.3003C21.2057 18.0606 21.4203 17.7917 21.5973 17.5ZM18.0003 19.5C18.3509 19.4989 18.7 19.4552 19.0392 19.3697V18.3283C19.3977 18.2064 19.73 18.0224 20.0198 17.7854C19.9044 17.3736 19.716 16.984 19.4628 16.6339C19.0026 17.5378 18.137 18.254 16.9608 18.7121V19.3677C17.3001 19.4539 17.6494 19.4984 18.0003 19.5ZM14.4027 17.5C14.579 17.792 14.7929 18.0613 15.0395 18.3016L15.9761 17.7802C16.2685 18.0213 16.6001 18.2051 16.9547 18.3263C17.2673 18.0242 17.5232 17.6723 17.7114 17.2863C16.6691 17.3547 15.5917 16.991 14.5915 16.239L14.0027 16.5668C14.0946 16.8929 14.229 17.2064 14.4027 17.5ZM14.4027 13.5C14.2281 13.793 14.0928 14.1061 14 14.4319L14.9373 14.9532C14.8679 15.3129 14.8672 15.6817 14.9353 16.0415C15.3759 16.1523 15.8164 16.1895 16.2496 16.1523C15.6662 15.3169 15.455 14.237 15.6317 13.0269L15.0415 12.6991C14.7943 12.9392 14.5796 13.2079 14.4027 13.5ZM17.9997 11.5C17.6491 11.5011 17.3 11.5448 16.9608 11.6303V12.6717C16.6026 12.7937 16.2705 12.9777 15.9809 13.2146C16.0962 13.6264 16.2847 14.016 16.5379 14.3661C16.9981 13.4622 17.863 12.746 19.0398 12.2879V11.6323C18.7003 11.546 18.3508 11.5016 17.9997 11.5Z" fill="#8CDBFF"/>
</svg>
