<svg width="24" height="24" viewBox="0 0 24 24" fill="none" xmlns="http://www.w3.org/2000/svg">
<path fill-rule="evenodd" clip-rule="evenodd" d="M5 4C3.34315 4 2 5.34315 2 7V17C2 18.6569 3.34315 20 5 20H13V18H5C4.44772 18 4 17.5523 4 17V7C4 6.44772 4.44772 6 5 6H7.78388C8.01539 6 8.23973 6.08033 8.41862 6.22727L10.8119 8.19318C11.3486 8.63402 12.0216 8.875 12.7161 8.875H19C19.5523 8.875 20 9.32272 20 9.875V10H22V9.875C22 8.21815 20.6569 6.875 19 6.875H12.7161C12.4846 6.875 12.2603 6.79467 12.0814 6.64773L9.6881 4.68182C9.15142 4.24098 8.47841 4 7.78388 4H5Z" fill="#64748B"/>
<path fill-rule="evenodd" clip-rule="evenodd" d="M18 11C16.9391 11.0004 15.9218 11.422 15.1717 12.1721C14.4216 12.9223 14.0002 13.9396 14 15.0003C14.0004 16.061 14.4219 17.0781 15.172 17.8281C15.922 18.5781 16.9392 18.9996 18 19C19.0608 18.9996 20.078 18.5781 20.828 17.8281C21.5781 17.0781 21.9996 16.061 22 15.0003C21.9998 13.9397 21.5785 12.9225 20.8285 12.1723C20.0786 11.4222 19.0608 11.0005 18 11ZM18 18.1991C17.5797 18.1993 17.1635 18.1167 16.7752 17.956C16.3869 17.7952 16.034 17.5596 15.7368 17.2625C15.4396 16.9653 15.2039 16.6126 15.043 16.2243C14.8822 15.836 14.7995 15.4199 14.7996 14.9997C14.7996 14.2594 15.052 13.5796 15.476 13.0399L19.96 17.5234C19.4013 17.9628 18.7108 18.2004 18 18.1991ZM20.524 16.9595L16.04 12.4759C16.5987 12.0365 17.2892 11.7983 18 11.7995C18.4203 11.7994 18.8365 11.8822 19.2247 12.043C19.613 12.2038 19.9658 12.4395 20.263 12.7367C20.5601 13.0339 20.7958 13.3867 20.9565 13.775C21.1173 14.1633 21.1999 14.5794 21.1997 14.9997C21.1997 15.74 20.948 16.4197 20.524 16.9595Z" fill="#FF7C7C" stroke="#FF7C7C"/>
</svg>
