<svg width="24" height="25" viewBox="0 0 24 25" fill="none" xmlns="http://www.w3.org/2000/svg">
<path fill-rule="evenodd" clip-rule="evenodd" d="M5 4.5C3.34315 4.5 2 5.84315 2 7.5V17.5C2 19.1569 3.34315 20.5 5 20.5H13V18.5H5C4.44772 18.5 4 18.0523 4 17.5V7.5C4 6.94772 4.44772 6.5 5 6.5H7.78388C8.01539 6.5 8.23973 6.58033 8.41862 6.72727L10.8119 8.69318C11.3486 9.13402 12.0216 9.375 12.7161 9.375H19C19.5523 9.375 20 9.82272 20 10.375V10.5H22V10.375C22 8.71815 20.6569 7.375 19 7.375H12.7161C12.4846 7.375 12.2603 7.29467 12.0814 7.14773L9.6881 5.18182C9.15142 4.74098 8.47841 4.5 7.78388 4.5H5Z" fill="#64748B"/>
<path fill-rule="evenodd" clip-rule="evenodd" d="M15.076 18.2366C14.9761 18.0791 14.9746 17.8785 15.0721 17.7195L18.7419 11.7333C18.946 11.4004 19.4389 11.4295 19.6024 11.7841L22.9549 19.0566C23.0793 19.3264 22.9361 19.6439 22.6515 19.7293L17.4363 21.2939C17.2265 21.3568 17.0004 21.2724 16.8831 21.0874L15.076 18.2366ZM19.1653 13.4836C19.2006 13.3075 19.4419 13.2821 19.5132 13.447L21.8257 18.7981C21.8692 18.8989 21.8151 19.015 21.7099 19.0464L18.1067 20.122C17.9742 20.1616 17.8473 20.0459 17.8746 19.9103L19.1653 13.4836Z" fill="#14B8A6"/>
</svg>
