<svg width="24" height="24" viewBox="0 0 24 24" fill="none" xmlns="http://www.w3.org/2000/svg">
<path fill-rule="evenodd" clip-rule="evenodd" d="M5 4C3.34315 4 2 5.34315 2 7V17C2 18.6569 3.34315 20 5 20H13V18H5C4.44772 18 4 17.5523 4 17V7C4 6.44772 4.44772 6 5 6H7.78388C8.01539 6 8.23973 6.08033 8.41862 6.22727L10.8119 8.19318C11.3486 8.63402 12.0216 8.875 12.7161 8.875H19C19.5523 8.875 20 9.32272 20 9.875V10H22V9.875C22 8.21815 20.6569 6.875 19 6.875H12.7161C12.4846 6.875 12.2603 6.79467 12.0814 6.64773L9.6881 4.68182C9.15142 4.24098 8.47841 4 7.78388 4H5Z" fill="#64748B"/>
<path fill-rule="evenodd" clip-rule="evenodd" d="M21.9925 15.2913C22.1316 13.0948 20.3238 10.7295 17.5426 11.0251C16.2911 11.1519 15.5495 11.7432 15.225 12.3768C14.6688 13.4327 15.2714 14.8266 17.0791 15.2913C18.1916 15.5869 18.4234 16.0093 18.2843 16.5162C18.1452 16.9808 17.7744 17.4877 17.6817 17.91C17.6354 18.0368 17.6354 18.1635 17.6354 18.2902C17.6817 19.2194 19.7676 19.5996 21.3899 17.1075C21.7608 16.6006 21.9462 15.9671 21.9925 15.2913Z" fill="#CFD8DC"/>
<path fill-rule="evenodd" clip-rule="evenodd" d="M14.8078 14.7844V14.6155C14.8078 14.5732 14.8078 14.531 14.7614 14.4887C14.6687 14.0664 14.2979 13.8129 13.8344 13.8552C13.3708 13.8974 13.0464 14.2353 13 14.6577V14.8689C13.0464 15.3335 13.5099 15.6714 13.9734 15.6292C14.4833 15.5447 14.8078 15.2068 14.8078 14.7844Z" fill="#CFD8DC"/>
<path fill-rule="evenodd" clip-rule="evenodd" d="M16.8473 17.0231C16.6619 16.3473 15.9203 15.9249 15.1786 16.1361C14.576 16.2628 14.2052 16.7274 14.1588 17.2765C14.1125 17.4455 14.1588 17.6144 14.2052 17.7834C14.3906 18.4592 15.1786 18.8816 15.9203 18.6704C16.5692 18.5014 16.9864 17.9523 16.94 17.3187C16.8937 17.2343 16.8937 17.1498 16.8473 17.0231Z" fill="#CFD8DC"/>
</svg>
