<svg width="24" height="25" viewBox="0 0 24 25" fill="none" xmlns="http://www.w3.org/2000/svg">
<path fill-rule="evenodd" clip-rule="evenodd" d="M5 4.5C3.34315 4.5 2 5.84315 2 7.5V17.5C2 19.1569 3.34315 20.5 5 20.5H13V18.5H5C4.44772 18.5 4 18.0523 4 17.5V7.5C4 6.94772 4.44772 6.5 5 6.5H7.78388C8.01539 6.5 8.23973 6.58033 8.41862 6.72727L10.8119 8.69318C11.3486 9.13402 12.0216 9.375 12.7161 9.375H19C19.5523 9.375 20 9.82272 20 10.375V10.5H22V10.375C22 8.71815 20.6569 7.375 19 7.375H12.7161C12.4846 7.375 12.2603 7.29467 12.0814 7.14773L9.6881 5.18182C9.15142 4.74098 8.47841 4.5 7.78388 4.5H5Z" fill="#64748B"/>
<path fill-rule="evenodd" clip-rule="evenodd" d="M18 11.5C16.9392 11.5 15.9219 11.9318 15.1718 12.7006C14.4217 13.4693 14.0002 14.5119 14 15.5991C14.0006 16.4602 14.2651 17.2994 14.7561 17.9982C15.2471 18.697 15.9398 19.2201 16.7365 19.4937C16.9366 19.5262 17.0001 19.3996 17.0001 19.2886V18.5962C15.892 18.8417 15.656 18.0467 15.656 18.0467C15.4724 17.5714 15.2123 17.4435 15.2123 17.4435C14.848 17.1902 15.24 17.198 15.24 17.198C15.6401 17.227 15.852 17.6203 15.852 17.6203C16.2004 18.2433 16.7877 18.0588 17.016 17.9604C17.0519 17.6938 17.1561 17.5141 17.2679 17.4116C16.3799 17.309 15.4483 16.9562 15.4483 15.3946C15.4483 14.9392 15.6001 14.5743 15.8602 14.2836C15.8202 14.181 15.6802 13.7546 15.9003 13.2009C15.9003 13.2009 16.2357 13.0905 17.0001 13.6195C17.3162 13.529 17.6598 13.4838 18.0006 13.4838C18.3413 13.4838 18.6838 13.529 18.9999 13.6195C19.7637 13.0905 20.1003 13.2009 20.1003 13.2009C20.3198 13.7546 20.1798 14.181 20.1398 14.2836C20.3999 14.5743 20.5517 14.9392 20.5517 15.3946C20.5517 16.9604 19.616 17.3048 18.7238 17.4073C18.868 17.534 19.0004 17.7843 19.0004 18.1655V19.2886C19.0004 19.3996 19.064 19.5305 19.2682 19.4937C20.064 19.2192 20.7556 18.6957 21.2457 17.997C21.7358 17.2983 21.9996 16.4596 22 15.5991C21.9998 14.5119 21.5783 13.4693 20.8282 12.7006C20.0781 11.9318 19.0608 11.5 18 11.5Z" fill="#CFD8DC"/>
</svg>
