<svg width="24" height="25" viewBox="0 0 24 25" fill="none" xmlns="http://www.w3.org/2000/svg">
<path fill-rule="evenodd" clip-rule="evenodd" d="M5 4.5C3.34315 4.5 2 5.84315 2 7.5V17.5C2 19.1569 3.34315 20.5 5 20.5H12V18.5H5C4.44772 18.5 4 18.0523 4 17.5V7.5C4 6.94772 4.44772 6.5 5 6.5H7.78388C8.01539 6.5 8.23973 6.58033 8.41862 6.72727L10.8119 8.69318C11.3486 9.13402 12.0216 9.375 12.7161 9.375H19C19.5523 9.375 20 9.82272 20 10.375V10.5H22V10.375C22 8.71815 20.6569 7.375 19 7.375H12.7161C12.4846 7.375 12.2603 7.29467 12.0814 7.14773L9.6881 5.18182C9.15142 4.74098 8.47841 4.5 7.78388 4.5H5Z" fill="#64748B"/>
<path fill-rule="evenodd" clip-rule="evenodd" d="M13 19.5H21.0999V18.611H13M21.0999 13.7223H20.1997V12.389H21.0999M21.0999 11.5H13.9001V15.9445C13.9003 16.4159 14.09 16.8678 14.4274 17.2011C14.7649 17.5344 15.2225 17.7217 15.6997 17.7219H18.3994C18.8768 17.7219 19.3346 17.5347 19.6722 17.2014C20.0098 16.8681 20.1995 16.416 20.1997 15.9445V14.6113H21.0999C21.3386 14.6113 21.5675 14.5176 21.7364 14.3509C21.9052 14.1842 22 13.958 22 13.7223V12.389C22 12.1533 21.9052 11.9271 21.7364 11.7604C21.5675 11.5937 21.3386 11.5 21.0999 11.5Z" fill="#FF7C7C"/>
</svg>
