<svg width="24" height="24" viewBox="0 0 24 24" fill="none" xmlns="http://www.w3.org/2000/svg">
<path fill-rule="evenodd" clip-rule="evenodd" d="M5 3C3.34315 3 2 4.34315 2 6V16C2 17.6569 3.34315 19 5 19H12V17H5C4.44772 17 4 16.5523 4 16V6C4 5.44772 4.44772 5 5 5H7.78388C8.01539 5 8.23973 5.08033 8.41862 5.22727L10.8119 7.19318C11.3486 7.63402 12.0216 7.875 12.7161 7.875H19C19.5523 7.875 20 8.32272 20 8.875V9H22V8.875C22 7.21815 20.6569 5.875 19 5.875H12.7161C12.4846 5.875 12.2603 5.79467 12.0814 5.64773L9.6881 3.68182C9.15142 3.24098 8.47841 3 7.78388 3H5Z" fill="#64748B"/>
<path fill-rule="evenodd" clip-rule="evenodd" d="M15.429 17.1252C15.3616 17.1177 15.2943 17.0857 15.2269 17.0538C15.1969 17.0396 15.1712 17.0239 15.1499 17.0069C15.0623 16.9367 15.0495 16.8429 15.1114 16.7254C15.1114 16.7072 15.1211 16.689 15.1307 16.6707C15.1403 16.6525 15.1499 16.6342 15.1499 16.616C14.9959 16.616 14.9189 16.543 14.8804 16.4336C14.688 15.9592 14.7264 15.5944 15.1114 15.2295C15.1217 15.21 15.1321 15.193 15.1416 15.1773C15.1678 15.1344 15.1884 15.1005 15.1884 15.0471C15.1884 14.5728 15.2654 14.135 15.6119 13.7336C15.7274 13.5877 15.8814 13.4417 16.0739 13.3323C16.1509 13.2958 16.1509 13.2593 16.1124 13.1863C15.9584 13.0039 15.8814 12.8215 15.8429 12.6026C15.8121 12.4566 15.8799 12.3107 15.9476 12.1647C15.9645 12.1282 15.9815 12.0918 15.9969 12.0553C16.0354 12.0188 16.0739 11.9823 16.1124 11.9823C16.2254 11.9555 16.3176 11.8895 16.4044 11.8274C16.4359 11.8048 16.4666 11.7828 16.4974 11.7634C16.7668 11.508 17.0748 11.3985 17.4598 11.3985C17.5345 11.3985 17.573 11.3642 17.5752 11.3288C17.5753 11.3277 17.5753 11.3266 17.5753 11.3256C17.579 11.3117 17.583 11.2978 17.5874 11.2839C17.6078 11.2186 17.636 11.1534 17.6718 11.0882C17.6998 11.0374 17.7324 10.9866 17.7697 10.9358C17.7814 10.9198 17.7936 10.9037 17.8063 10.8877L17.9218 10.7783C17.9808 10.7224 18.0623 10.7093 18.1145 10.7554C18.1155 10.7562 18.1164 10.757 18.1173 10.7579C18.132 10.7718 18.1443 10.7906 18.1528 10.8147C18.2317 10.9394 18.2927 11.0641 18.3479 11.1771C18.3494 11.1802 18.3509 11.1833 18.3525 11.1864C18.3764 11.2354 18.3993 11.2821 18.4223 11.3256C18.4226 11.3262 18.423 11.3269 18.4233 11.3275C18.4238 11.3284 18.4243 11.3293 18.4247 11.3301C18.4624 11.3985 18.5001 11.3977 18.5378 11.362C18.6744 11.3065 18.7418 11.2792 18.785 11.299C18.8271 11.3183 18.8463 11.3821 18.8842 11.508C18.9035 11.5844 18.9196 11.6605 18.9326 11.7363C18.9461 11.8143 18.9562 11.892 18.963 11.9692C19.0157 12.5684 18.8676 13.1444 18.4993 13.6971C18.48 13.7336 18.4511 13.7701 18.4223 13.8066C18.3934 13.8431 18.3645 13.8796 18.3453 13.916C18.3068 13.989 18.3068 14.0255 18.3838 14.0985C18.7303 14.3904 18.9612 14.7917 19.0382 15.2295C19.047 15.2875 19.0537 15.3473 19.0585 15.4081C19.0592 15.4169 19.0598 15.4258 19.0604 15.4346C19.0694 15.5655 19.0693 15.7005 19.0602 15.8313C19.0593 15.8434 19.0584 15.8556 19.0574 15.8677C19.0527 15.9237 19.0463 15.9787 19.0382 16.0322C19.0287 16.0685 19.0238 16.0958 19.0238 16.1157C19.0237 16.1759 19.067 16.1691 19.1537 16.1417C19.2051 16.1278 19.2564 16.1126 19.3075 16.096C19.3269 16.0897 19.3463 16.0832 19.3656 16.0765C19.4566 16.0451 19.5464 16.0095 19.6335 15.9696C19.6396 15.9668 19.6457 15.9639 19.6517 15.9611C19.6867 15.9448 19.7212 15.9278 19.7551 15.9101C19.7792 15.8975 19.8029 15.8846 19.8264 15.8714C19.8595 15.8527 19.892 15.8334 19.9237 15.8133C19.9567 15.7954 19.9892 15.7775 20.0213 15.7598C20.1852 15.6695 20.3395 15.5844 20.5127 15.5314C20.5822 15.5102 20.6547 15.4941 20.7322 15.4849C20.7722 15.4849 20.8076 15.4805 20.8416 15.4763C20.8509 15.4752 20.86 15.4741 20.8691 15.473C20.8915 15.4705 20.9137 15.4686 20.9366 15.4687C20.9688 15.4689 21.0024 15.473 21.0401 15.4849C21.1556 15.5214 21.2326 15.6309 21.2326 15.7403C21.2326 15.8498 21.1556 15.9228 21.0401 15.9592C20.9785 15.9709 20.9178 15.9854 20.8581 16.0024C20.8395 16.0077 20.821 16.0133 20.8026 16.0191C20.779 16.0265 20.7555 16.0343 20.7322 16.0425C20.6966 16.0549 20.6615 16.0682 20.6267 16.0823C20.4948 16.1357 20.3682 16.2004 20.2468 16.2726C20.2355 16.2794 20.2242 16.2862 20.213 16.2931C20.1403 16.3375 20.0695 16.3846 20.0007 16.4336C19.8061 16.5626 19.5919 16.6731 19.3729 16.7649C19.3637 16.7688 19.3544 16.7726 19.3451 16.7764C19.2443 16.8179 19.1427 16.8554 19.0416 16.889C18.9367 16.9238 18.8323 16.9545 18.7303 16.9809C18.6918 16.9809 18.6148 17.0173 18.5763 17.0538C18.4558 17.1394 18.3354 17.1581 18.1966 17.1796C18.1579 17.1856 18.1178 17.1918 18.0758 17.1998C18.043 17.2026 18.0105 17.2054 17.9781 17.2082C17.5925 17.2417 17.2346 17.2727 16.8438 17.2727C16.8166 17.2727 16.7894 17.2727 16.7616 17.2723C16.751 17.2805 16.7405 17.2878 16.7305 17.2941L16.7283 17.291C16.7322 17.2846 16.736 17.2782 16.7397 17.2718C16.7313 17.2715 16.7228 17.2713 16.7142 17.2709C16.638 17.2678 16.5561 17.2593 16.4589 17.2363C16.4284 17.2266 16.398 17.2145 16.369 17.1998C16.3466 17.1885 16.325 17.1756 16.3049 17.1612C16.2756 17.1403 16.2495 17.1162 16.2286 17.0889C16.2119 17.0671 16.1985 17.0432 16.1894 17.0173C16.1619 16.9131 16.1737 16.8275 16.2247 16.7604C16.2277 16.7566 16.2307 16.7528 16.2339 16.7491C16.253 16.7268 16.2766 16.7068 16.3049 16.689C16.3452 16.689 16.375 16.6789 16.3997 16.6694C16.4027 16.6683 16.4055 16.6672 16.4083 16.6661C16.427 16.6587 16.4429 16.6525 16.4589 16.6525C16.4025 16.6258 16.3668 16.5991 16.3366 16.558C16.3255 16.543 16.3152 16.5261 16.3049 16.5065C16.2664 16.47 16.2664 16.47 16.2279 16.5065C16.2199 16.5216 16.2136 16.5366 16.2083 16.5517C16.2082 16.5519 16.2081 16.5522 16.208 16.5524C16.2006 16.5736 16.195 16.5948 16.1894 16.616C16.1798 16.6525 16.1701 16.689 16.1509 16.7254C16.0958 16.8993 16.0233 17.0152 15.9208 17.081C15.9073 17.0896 15.8933 17.0974 15.8788 17.1043C15.866 17.1104 15.8527 17.1159 15.8391 17.1207C15.7808 17.1411 15.7144 17.1499 15.6385 17.1478C15.5835 17.1464 15.5235 17.1392 15.4579 17.1268C15.4483 17.1268 15.4386 17.1262 15.429 17.1252ZM15.3593 17.8492C15.1297 17.8268 14.9433 17.7339 14.8934 17.709C14.8892 17.707 14.886 17.7054 14.8837 17.7043C14.701 17.6177 14.4609 17.4492 14.3546 17.147C14.3315 17.0813 14.3174 17.0171 14.3105 16.955C14.2376 16.8615 14.1902 16.7655 14.1592 16.6821C14.0382 16.3799 13.9595 16.0377 14.022 15.6736C14.0754 15.3625 14.2215 15.0953 14.4247 14.8645C14.4454 14.3611 14.5645 13.8047 15.0078 13.2849C15.0603 13.2194 15.1192 13.1529 15.1846 13.0874C15.141 12.9717 15.1096 12.8534 15.0876 12.7316C15.0342 12.4606 15.1004 12.2291 15.1523 12.0887C15.1794 12.0153 15.2099 11.9483 15.2319 11.9006C15.2379 11.8876 15.2432 11.8761 15.2481 11.8657C15.2638 11.8317 15.2742 11.8092 15.2844 11.7852C15.323 11.6937 15.3808 11.6107 15.4543 11.541C15.4549 11.5404 15.4558 11.5395 15.457 11.5384C15.472 11.524 15.5279 11.4704 15.5942 11.4233C15.6382 11.3921 15.7408 11.3232 15.8895 11.2839C15.9032 11.2747 15.9193 11.2632 15.9477 11.2429L15.9493 11.2418C15.9643 11.231 15.9843 11.2167 16.0073 11.2009C16.3068 10.9343 16.6454 10.777 17.0153 10.7098C17.0678 10.6197 17.1274 10.5335 17.1924 10.4514C17.2142 10.4238 17.238 10.3978 17.2637 10.3735L17.3792 10.264C17.5423 10.1095 17.8102 9.97093 18.1365 10.0053C18.4706 10.0405 18.7164 10.2409 18.839 10.4862C18.8566 10.5154 18.874 10.5456 18.8911 10.5759C18.9558 10.586 19.0245 10.604 19.0948 10.6336C19.3992 10.7618 19.5126 11.0112 19.5439 11.0823C19.5772 11.1581 19.6035 11.246 19.6182 11.2953C19.6196 11.2999 19.6209 11.3043 19.6221 11.3082C19.6252 11.3186 19.6281 11.329 19.6307 11.3395C19.855 12.232 19.7397 13.1053 19.2522 13.9208C19.519 14.2511 19.7013 14.6385 19.7837 15.0493C19.9997 14.9353 20.2925 14.8041 20.637 14.7633C20.6649 14.76 20.693 14.7581 20.7211 14.7577C20.7214 14.7577 20.7217 14.7577 20.722 14.7576C20.7272 14.7571 20.7313 14.7566 20.7389 14.7556C20.7422 14.7552 20.7462 14.7547 20.7513 14.7541C20.7648 14.7524 20.786 14.7499 20.8098 14.7476C20.9204 14.7371 21.0866 14.733 21.2828 14.795C21.728 14.9356 22 15.3345 22 15.7403C22 16.268 21.5916 16.5516 21.2828 16.6492C21.2526 16.6587 21.2218 16.6665 21.1906 16.6724C20.9582 16.7164 20.7171 16.8334 20.4611 17.0154C20.4544 17.0201 20.4476 17.0248 20.4407 17.0294C19.9857 17.3312 19.4622 17.5397 18.9897 17.6673C18.692 17.8576 18.3339 17.9 18.2453 17.9105C18.2356 17.9116 18.2291 17.9124 18.2263 17.9129C18.1995 17.918 18.1725 17.9217 18.1453 17.924C18.1114 17.927 18.0775 17.9299 18.0435 17.9329C17.663 17.9659 17.2713 18 16.8438 18L16.8349 18C16.712 18 16.5188 18.0001 16.2727 17.9418C16.2537 17.9373 16.2348 17.9321 16.2162 17.9262C16.1549 17.9068 16.0784 17.8776 15.997 17.8355C15.7666 17.8932 15.5421 17.8795 15.3593 17.8492ZM16.7052 17.3367C16.706 17.3364 16.7059 17.3364 16.7049 17.3368L16.7052 17.3367ZM19.1045 10.9924C19.106 10.9953 19.1074 10.9979 19.1086 11.0003L19.1086 11.0003C19.1084 10.9999 19.1071 10.9971 19.1045 10.9924ZM15.8687 11.2971C15.8687 11.2971 15.869 11.2969 15.8697 11.2965C15.869 11.2969 15.8687 11.2971 15.8687 11.2971ZM15.726 12.6841C15.7275 12.6833 15.7291 12.6825 15.7307 12.6818L15.7302 12.682C15.7292 12.6825 15.7278 12.6832 15.726 12.6841Z" fill="#60A5FA"/>
</svg>
