<svg width="24" height="25" viewBox="0 0 24 25" fill="none" xmlns="http://www.w3.org/2000/svg">
<path fill-rule="evenodd" clip-rule="evenodd" d="M5 4.5C3.34315 4.5 2 5.84315 2 7.5V17.5C2 19.1569 3.34315 20.5 5 20.5H13V18.5H5C4.44772 18.5 4 18.0523 4 17.5V7.5C4 6.94772 4.44772 6.5 5 6.5H7.78388C8.01539 6.5 8.23973 6.58033 8.41862 6.72727L10.8119 8.69318C11.3486 9.13402 12.0216 9.375 12.7161 9.375H19C19.5523 9.375 20 9.82272 20 10.375V10.5H22V10.375C22 8.71815 20.6569 7.375 19 7.375H12.7161C12.4846 7.375 12.2603 7.29467 12.0814 7.14773L9.6881 5.18182C9.15142 4.74098 8.47841 4.5 7.78388 4.5H5Z" fill="#64748B"/>
<path fill-rule="evenodd" clip-rule="evenodd" d="M21.8687 15.1381C21.7137 14.3942 21.2933 13.7247 20.679 13.2436C20.0647 12.7625 19.2946 12.4997 18.5 12.5C17.8717 12.5002 17.2554 12.6645 16.7181 12.9753C16.1807 13.2861 15.7428 13.7314 15.4518 14.2629C14.7777 14.3336 14.1547 14.6392 13.7023 15.1213C13.2498 15.6034 12.9997 16.2279 13 16.8752C13 17.5713 13.2897 18.239 13.8055 18.7312C14.3212 19.2235 15.0207 19.5 15.75 19.5H21.7081C22.316 19.5 22.8989 19.2695 23.3287 18.8593C23.7585 18.449 24 17.8926 24 17.3124C24 16.1579 23.0602 15.221 21.8687 15.1381Z" fill="#FFCE50"/>
</svg>
