<svg width="24" height="25" viewBox="0 0 24 25" fill="none" xmlns="http://www.w3.org/2000/svg">
<path fill-rule="evenodd" clip-rule="evenodd" d="M5 4.5C3.34315 4.5 2 5.84315 2 7.5V17.5C2 19.1569 3.34315 20.5 5 20.5H12V18.5H5C4.44772 18.5 4 18.0523 4 17.5V7.5C4 6.94772 4.44772 6.5 5 6.5H7.78388C8.01539 6.5 8.23973 6.58033 8.41862 6.72727L10.8119 8.69318C11.3486 9.13402 12.0216 9.375 12.7161 9.375H19C19.5523 9.375 20 9.82272 20 10.375V10.5H22V10.375C22 8.71815 20.6569 7.375 19 7.375H12.7161C12.4846 7.375 12.2603 7.29467 12.0814 7.14773L9.6881 5.18182C9.15142 4.74098 8.47841 4.5 7.78388 4.5H5Z" fill="#64748B"/>
<path fill-rule="evenodd" clip-rule="evenodd" d="M14.0839 11.5007C13.9436 11.4957 13.8036 11.5183 13.6724 11.5671C13.5413 11.616 13.4215 11.6901 13.3204 11.785C13.2193 11.88 13.1389 11.9938 13.0839 12.1197C13.029 12.2455 13.0007 12.3809 13.0007 12.5177C13.0007 12.6545 13.029 12.7898 13.0839 12.9157C13.1389 13.0416 13.2193 13.1554 13.3204 13.2503C13.4215 13.3453 13.5413 13.4194 13.6724 13.4682C13.8036 13.5171 13.9436 13.5397 14.0839 13.5347H18.2124C18.4827 13.5251 18.7387 13.4137 18.9265 13.224C19.1143 13.0344 19.2192 12.7812 19.2192 12.5177C19.2192 12.2542 19.1143 12.001 18.9265 11.8113C18.7387 11.6217 18.4827 11.5103 18.2124 11.5007H14.0839ZM20.9074 11.5007C20.6246 11.5005 20.3533 11.6075 20.1532 11.798C19.953 11.9886 19.8404 12.2472 19.84 12.517C19.84 12.6507 19.8676 12.7831 19.9212 12.9066C19.9749 13.0301 20.0535 13.1423 20.1527 13.2369C20.2518 13.3314 20.3694 13.4063 20.4989 13.4574C20.6284 13.5085 20.7672 13.5348 20.9074 13.5347C21.19 13.5343 21.461 13.427 21.6607 13.2361C21.8605 13.0453 21.9727 12.7867 21.9727 12.517C21.9723 12.2476 21.8599 11.9893 21.6602 11.7987C21.4605 11.6082 21.1898 11.501 20.9074 11.5007ZM14.1035 14.517C13.5125 14.517 13.0382 14.9803 13.0382 15.5558C13.0382 16.1238 13.5132 16.5878 14.1035 16.5946C14.6945 16.5946 15.1709 16.1313 15.1709 15.5558C15.1709 14.9803 14.6945 14.517 14.1035 14.517ZM16.6839 14.5381C16.4115 14.5628 16.1598 14.6903 15.9827 14.8933C15.8055 15.0963 15.7169 15.3587 15.7358 15.6245C15.7546 15.8903 15.8795 16.1384 16.0837 16.3157C16.2879 16.493 16.5552 16.5855 16.8285 16.5735H21.0506C21.3226 16.5485 21.5739 16.421 21.7508 16.2182C21.9277 16.0154 22.0162 15.7533 21.9975 15.4878C21.9789 15.2223 21.8544 14.9745 21.6508 14.7971C21.4471 14.6196 21.1804 14.5267 20.9074 14.5381H16.6846H16.6839ZM14.0832 17.4653C13.9429 17.4603 13.8029 17.4829 13.6717 17.5318C13.5406 17.5806 13.4208 17.6547 13.3197 17.7497C13.2186 17.8446 13.1382 17.9584 13.0832 18.0843C13.0283 18.2102 13 18.3455 13 18.4823C13 18.6191 13.0283 18.7545 13.0832 18.8803C13.1382 19.0062 13.2186 19.12 13.3197 19.215C13.4208 19.3099 13.5406 19.384 13.6717 19.4329C13.8029 19.4817 13.9429 19.5043 14.0832 19.4993H18.2117C18.482 19.4897 18.738 19.3783 18.9258 19.1887C19.1136 18.999 19.2185 18.7458 19.2185 18.4823C19.2185 18.2188 19.1136 17.9656 18.9258 17.776C18.738 17.5863 18.482 17.4749 18.2117 17.4653H14.0832ZM20.9067 17.4653C20.6239 17.4651 20.3526 17.5721 20.1525 17.7627C19.9523 17.9532 19.8397 18.2118 19.8393 18.4816C19.8393 18.6153 19.8669 18.7477 19.9205 18.8712C19.9742 18.9948 20.0528 19.107 20.152 19.2015C20.2511 19.296 20.3688 19.3709 20.4982 19.422C20.6277 19.4731 20.7665 19.4994 20.9067 19.4993C21.1893 19.499 21.4603 19.3916 21.66 19.2008C21.8598 19.01 21.972 18.7513 21.972 18.4816C21.9716 18.2122 21.8592 17.9539 21.6595 17.7634C21.4598 17.5728 21.1891 17.4657 20.9067 17.4653Z" fill="#FF7043"/>
</svg>
