<svg width="24" height="25" viewBox="0 0 24 25" fill="none" xmlns="http://www.w3.org/2000/svg">
<path fill-rule="evenodd" clip-rule="evenodd" d="M5 4.5C3.34315 4.5 2 5.84315 2 7.5V17.5C2 19.1569 3.34315 20.5 5 20.5H13V18.5H5C4.44772 18.5 4 18.0523 4 17.5V7.5C4 6.94772 4.44772 6.5 5 6.5H7.78388C8.01539 6.5 8.23973 6.58033 8.41862 6.72727L10.8119 8.69318C11.3486 9.13402 12.0216 9.375 12.7161 9.375H19C19.5523 9.375 20 9.82272 20 10.375V10.5H22V10.375C22 8.71815 20.6569 7.375 19 7.375H12.7161C12.4846 7.375 12.2603 7.29467 12.0814 7.14773L9.6881 5.18182C9.15142 4.74098 8.47841 4.5 7.78388 4.5H5Z" fill="#64748B"/>
<path fill-rule="evenodd" clip-rule="evenodd" d="M19.5681 11.5518C19.101 11.4827 18.6265 11.4827 18.1594 11.5518L17.8512 12.3619C17.4624 12.4608 17.0898 12.6163 16.7454 12.8233L15.9588 12.4701C15.5803 12.7539 15.2448 13.0918 14.9631 13.4731L15.3137 14.2655C15.1082 14.6124 14.9539 14.9876 14.8557 15.3793L14.0514 15.6898C13.9829 16.1602 13.9829 16.6383 14.0514 17.1087L14.8557 17.4192C14.9539 17.8109 15.1082 18.1861 15.3137 18.5331L14.9631 19.3254C15.2448 19.7067 15.5803 20.0446 15.9588 20.3284L16.7454 19.9752C17.0898 20.1822 17.4624 20.3377 17.8512 20.4366L18.1594 21.2467C18.6263 21.3158 19.1012 21.3158 19.5681 21.2467L19.8763 20.4366C20.2652 20.3377 20.6377 20.1822 20.9821 19.9752L21.7687 20.3284C22.1472 20.0446 22.4827 19.7067 22.7644 19.3254L22.4138 18.5331C22.6193 18.1861 22.7736 17.8109 22.8719 17.4192L23.6761 17.1087C23.7447 16.6384 23.7447 16.1601 23.6761 15.6898L22.8719 15.3793C22.7736 14.9876 22.6193 14.6124 22.4138 14.2655L22.7644 13.4731C22.4827 13.0918 22.1472 12.7539 21.7687 12.4701L20.9821 12.8233C20.6377 12.6163 20.2652 12.4608 19.8763 12.3619L19.5681 11.5518ZM18.8638 13.2598C20.5837 13.2598 21.9805 14.6667 21.9805 16.3993C21.9805 18.1318 20.5837 19.5387 18.8638 19.5387C17.1438 19.5387 15.747 18.1318 15.747 16.3993C15.747 14.6667 17.1438 13.2598 18.8638 13.2598Z" fill="#0EA5E9"/>
<path fill-rule="evenodd" clip-rule="evenodd" d="M20.1151 17.6575C19.9511 17.8236 19.7561 17.9553 19.5414 18.0451C19.3266 18.135 19.0963 18.1811 18.8638 18.1808C17.8875 18.1808 17.0952 17.3827 17.0952 16.3993C17.0952 15.4159 17.8875 14.6178 18.8638 14.6178C19.3524 14.6178 19.795 14.8178 20.1151 15.1411L19.4899 15.7704C19.3663 15.6456 19.2088 15.5605 19.0372 15.5259C18.8656 15.4913 18.6876 15.5088 18.5259 15.5761C18.3641 15.6434 18.2258 15.7576 18.1286 15.9041C18.0313 16.0507 17.9793 16.223 17.9793 16.3993C17.9793 16.5756 18.0313 16.7479 18.1286 16.8945C18.2258 17.041 18.3641 17.1552 18.5259 17.2225C18.6876 17.2899 18.8656 17.3073 19.0372 17.2727C19.2088 17.2381 19.3663 17.153 19.4899 17.0282L20.1151 17.6575Z" fill="#0EA5E9"/>
</svg>
