<svg width="24" height="25" viewBox="0 0 24 25" fill="none" xmlns="http://www.w3.org/2000/svg">
<path fill-rule="evenodd" clip-rule="evenodd" d="M5 4.5C3.34315 4.5 2 5.84315 2 7.5V17.5C2 19.1569 3.34315 20.5 5 20.5H13V18.5H5C4.44772 18.5 4 18.0523 4 17.5V7.5C4 6.94772 4.44772 6.5 5 6.5H7.78388C8.01539 6.5 8.23973 6.58033 8.41862 6.72727L10.8119 8.69318C11.3486 9.13402 12.0216 9.375 12.7161 9.375H19C19.5523 9.375 20 9.82272 20 10.375V10.5H22V10.375C22 8.71815 20.6569 7.375 19 7.375H12.7161C12.4846 7.375 12.2603 7.29467 12.0814 7.14773L9.6881 5.18182C9.15142 4.74098 8.47841 4.5 7.78388 4.5H5Z" fill="#64748B"/>
<path fill-rule="evenodd" clip-rule="evenodd" d="M19.0941 18.2432C19.9523 17.3838 20.0529 16.4962 19.389 14.8486C18.9685 13.8061 18.271 13.0035 18.7836 12.3559C19.3297 11.6657 20.4906 12.3349 19.5232 13.2578L19.7159 13.3695C20.876 13.4826 21.4478 12.1513 20.5818 11.7716C18.296 10.7716 16.2957 12.6937 17.1773 14.9185C17.5564 15.8629 18.0861 16.8629 17.657 17.6589C17.2873 18.3412 16.5726 18.7432 16.0936 18.7569C15.0935 18.7987 15.7582 16.8772 16.9089 16.3982C17.0095 16.3564 17.1531 16.3001 17.0181 16.159C15.5982 16.0256 14.765 16.574 14.2868 17.3419C12.8903 19.5745 16.9338 20.398 19.0941 18.2432Z" fill="#FFCE50"/>
</svg>
