<svg width="24" height="25" viewBox="0 0 24 25" fill="none" xmlns="http://www.w3.org/2000/svg">
<path fill-rule="evenodd" clip-rule="evenodd" d="M5 4.5C3.34315 4.5 2 5.84315 2 7.5V17.5C2 19.1569 3.34315 20.5 5 20.5H13V18.5H5C4.44772 18.5 4 18.0523 4 17.5V7.5C4 6.94772 4.44772 6.5 5 6.5H7.78388C8.01539 6.5 8.23973 6.58033 8.41862 6.72727L10.8119 8.69318C11.3486 9.13402 12.0216 9.375 12.7161 9.375H19C19.5523 9.375 20 9.82272 20 10.375V10.5H22V10.375C22 8.71815 20.6569 7.375 19 7.375H12.7161C12.4846 7.375 12.2603 7.29467 12.0814 7.14773L9.6881 5.18182C9.15142 4.74098 8.47841 4.5 7.78388 4.5H5Z" fill="#64748B"/>
<path fill-rule="evenodd" clip-rule="evenodd" d="M18 13.837C18.3535 13.837 18.6925 13.7139 18.9425 13.4949C19.1925 13.2759 19.3329 12.9788 19.3329 12.6691C19.3331 12.5156 19.2987 12.3636 19.2318 12.2218C19.1649 12.0799 19.0668 11.9511 18.943 11.8425C18.8192 11.7339 18.6722 11.6478 18.5104 11.589C18.3486 11.5302 18.1751 11.5 18 11.5C17.8249 11.5 17.6515 11.5302 17.4898 11.589C17.328 11.6477 17.181 11.7338 17.0573 11.8423C16.9335 11.9508 16.8353 12.0796 16.7684 12.2214C16.7014 12.3631 16.667 12.5151 16.6671 12.6685C16.667 12.8219 16.7014 12.9738 16.7684 13.1156C16.8353 13.2574 16.9335 13.3862 17.0573 13.4947C17.181 13.6032 17.328 13.6893 17.4898 13.748C17.6515 13.8068 17.8249 13.837 18 13.837ZM18 15.2157C16.9148 14.3278 15.4848 13.8348 14 13.837V18.1213C15.5553 18.1213 16.9512 18.6471 18 19.5C19.0852 18.6121 20.5152 18.1191 22 18.1213V13.837C20.5152 13.8348 19.0852 14.3278 18 15.2157Z" fill="#0EA5E9"/>
</svg>
