<svg width="24" height="25" viewBox="0 0 24 25" fill="none" xmlns="http://www.w3.org/2000/svg">
<path fill-rule="evenodd" clip-rule="evenodd" d="M5 4.5C3.34315 4.5 2 5.84315 2 7.5V17.5C2 19.1569 3.34315 20.5 5 20.5H13V18.5H5C4.44772 18.5 4 18.0523 4 17.5V7.5C4 6.94772 4.44772 6.5 5 6.5H7.78388C8.01539 6.5 8.23973 6.58033 8.41862 6.72727L10.8119 8.69318C11.3486 9.13402 12.0216 9.375 12.7161 9.375H19C19.5523 9.375 20 9.82272 20 10.375V10.5H22V10.375C22 8.71815 20.6569 7.375 19 7.375H12.7161C12.4846 7.375 12.2603 7.29467 12.0814 7.14773L9.6881 5.18182C9.15142 4.74098 8.47841 4.5 7.78388 4.5H5Z" fill="#64748B"/>
<path d="M16 17L17.7321 20H14.2679L16 17Z" fill="#C084FC"/>
<circle cx="21" cy="18.5" r="2" fill="#60A5FA"/>
<rect x="14" y="11.5" width="4" height="4" rx="1" fill="#0D9488"/>
<path d="M20.3075 12.3713C20.5454 11.7285 21.4546 11.7285 21.6925 12.3713C21.7672 12.5734 21.9266 12.7328 22.1287 12.8075C22.7715 13.0454 22.7715 13.9546 22.1287 14.1925C21.9266 14.2672 21.7672 14.4266 21.6925 14.6287C21.4546 15.2715 20.5454 15.2715 20.3075 14.6287C20.2328 14.4266 20.0734 14.2672 19.8713 14.1925C19.2285 13.9546 19.2285 13.0454 19.8713 12.8075C20.0734 12.7328 20.2328 12.5734 20.3075 12.3713Z" fill="#F472B6"/>
</svg>
