<svg width="24" height="25" viewBox="0 0 24 25" fill="none" xmlns="http://www.w3.org/2000/svg">
<path fill-rule="evenodd" clip-rule="evenodd" d="M5 4.5C3.34315 4.5 2 5.84315 2 7.5V17.5C2 19.1569 3.34315 20.5 5 20.5H13V18.5H5C4.44772 18.5 4 18.0523 4 17.5V7.5C4 6.94772 4.44772 6.5 5 6.5H7.78388C8.01539 6.5 8.23973 6.58033 8.41862 6.72727L10.8119 8.69318C11.3486 9.13402 12.0216 9.375 12.7161 9.375H19C19.5523 9.375 20 9.82272 20 10.375V10.5H22V10.375C22 8.71815 20.6569 7.375 19 7.375H12.7161C12.4846 7.375 12.2603 7.29467 12.0814 7.14773L9.6881 5.18182C9.15142 4.74098 8.47841 4.5 7.78388 4.5H5Z" fill="#64748B"/>
<path d="M18.375 14.3H20.4378L18.375 12.0997V14.3ZM15.75 11.5H18.75L21 13.9V18.7C21 19.1385 20.6611 19.5 20.25 19.5H15.75C15.5511 19.5 15.3603 19.4157 15.2197 19.2657C15.079 19.1157 15 18.9122 15 18.7V12.3C15 11.8556 15.3333 11.5 15.75 11.5ZM19.125 17.9V17.1H15.75V17.9H19.125ZM20.25 16.3V15.5H15.75V16.3H20.25Z" fill="#8CDBFF"/>
</svg>
