<svg width="24" height="24" viewBox="0 0 24 24" fill="none" xmlns="http://www.w3.org/2000/svg">
<path fill-rule="evenodd" clip-rule="evenodd" d="M5 4C3.34315 4 2 5.34315 2 7V17C2 18.6569 3.34315 20 5 20H12V18H5C4.44772 18 4 17.5523 4 17V7C4 6.44772 4.44772 6 5 6H7.78388C8.01539 6 8.23973 6.08033 8.41862 6.22727L10.8119 8.19318C11.3486 8.63402 12.0216 8.875 12.7161 8.875H19C19.5523 8.875 20 9.32272 20 9.875V10H22V9.875C22 8.21815 20.6569 6.875 19 6.875H12.7161C12.4846 6.875 12.2603 6.79467 12.0814 6.64773L9.6881 4.68182C9.15142 4.24098 8.47841 4 7.78388 4H5Z" fill="#64748B"/>
<path fill-rule="evenodd" clip-rule="evenodd" d="M22 13.1999V12H19.7503C19.452 12 19.1659 12.1264 18.9549 12.3514C18.744 12.5765 18.6255 12.8816 18.6255 13.1999V14.3997C18.6255 14.7178 18.7439 15.0229 18.9547 15.2479C19.1655 15.4729 19.4515 15.5994 19.7497 15.5996H20.8752V16.7995H18.6242V17.9993H20.8745C21.1726 17.9992 21.4585 17.8728 21.6693 17.6479C21.8801 17.423 21.9986 17.1181 21.9988 16.8001V15.5996C21.9986 15.2816 21.8801 14.9767 21.6693 14.7518C21.4585 14.527 21.1726 14.4006 20.8745 14.4004H19.7497V13.1999M16.9373 16.7995H15.8124V13.1999H16.9366M16.9366 12H15.8124C15.5141 12 15.228 12.1264 15.017 12.3514C14.8061 12.5765 14.6876 12.8816 14.6876 13.1999V16.7995C14.6875 16.957 14.7165 17.1131 14.773 17.2587C14.8294 17.4043 14.9122 17.5366 15.0166 17.6481C15.121 17.7596 15.2449 17.848 15.3814 17.9084C15.5178 17.9688 15.6641 17.9999 15.8118 18H16.9373C17.085 18 17.2314 17.9689 17.3679 17.9086C17.5044 17.8483 17.6284 17.7598 17.7329 17.6483C17.8373 17.5368 17.9202 17.4045 17.9767 17.2588C18.0332 17.1132 18.0622 16.9571 18.0621 16.7995V13.1999C18.0621 12.8816 17.9436 12.5765 17.7327 12.3514C17.5217 12.1264 17.235 12 16.9366 12ZM13 18H14.1248V14.3997H13.0006M13.0006 13.1999H14.1255V12H13.0006V13.1999Z" fill="#CFD8DC"/>
</svg>
