<svg width="24" height="25" viewBox="0 0 24 25" fill="none" xmlns="http://www.w3.org/2000/svg">
<path fill-rule="evenodd" clip-rule="evenodd" d="M5 4.5C3.34315 4.5 2 5.84315 2 7.5V17.5C2 19.1569 3.34315 20.5 5 20.5H13V18.5H5C4.44772 18.5 4 18.0523 4 17.5V7.5C4 6.94772 4.44772 6.5 5 6.5H7.78388C8.01539 6.5 8.23973 6.58033 8.41862 6.72727L10.8119 8.69318C11.3486 9.13402 12.0216 9.375 12.7161 9.375H19C19.5523 9.375 20 9.82272 20 10.375V10.5H22V10.375C22 8.71815 20.6569 7.375 19 7.375H12.7161C12.4846 7.375 12.2603 7.29467 12.0814 7.14773L9.6881 5.18182C9.15142 4.74098 8.47841 4.5 7.78388 4.5H5Z" fill="#64748B"/>
<path fill-rule="evenodd" clip-rule="evenodd" d="M18.8001 13.1841H17.2005V12.342H18.8001M21.1996 13.1841H19.5999V12.342L18.8001 11.5H17.2005L16.4001 12.342V13.1841H14.7998C14.3558 13.1841 14 13.5587 14 14.0261V18.658C14 18.7685 14.0207 18.878 14.0609 18.9802C14.1011 19.0824 14.16 19.1752 14.2343 19.2534C14.3085 19.3316 14.3967 19.3936 14.4937 19.4359C14.5908 19.4782 14.6948 19.5 14.7998 19.5H21.2002C21.3052 19.5 21.4092 19.4782 21.5063 19.4359C21.6033 19.3936 21.6915 19.3316 21.7657 19.2534C21.84 19.1752 21.8989 19.0824 21.9391 18.9802C21.9793 18.878 22 18.7685 22 18.658V14.0255C22 13.558 21.6398 13.1834 21.2002 13.1834L21.1996 13.1841Z" fill="#FF7C7C"/>
</svg>
