<svg width="24" height="24" viewBox="0 0 24 24" fill="none" xmlns="http://www.w3.org/2000/svg">
<path fill-rule="evenodd" clip-rule="evenodd" d="M5 4C3.34315 4 2 5.34315 2 7V17C2 18.6569 3.34315 20 5 20H13V18H5C4.44772 18 4 17.5523 4 17V7C4 6.44772 4.44772 6 5 6H7.78388C8.01539 6 8.23973 6.08033 8.41862 6.22727L10.8119 8.19318C11.3486 8.63402 12.0216 8.875 12.7161 8.875H19C19.5523 8.875 20 9.32272 20 9.875V10H22V9.875C22 8.21815 20.6569 6.875 19 6.875H12.7161C12.4846 6.875 12.2603 6.79467 12.0814 6.64773L9.6881 4.68182C9.15142 4.24098 8.47841 4 7.78388 4H5Z" fill="#64748B"/>
<path fill-rule="evenodd" clip-rule="evenodd" d="M14.7999 12.5997H14V18.1994C14 18.64 14.36 19 14.7999 19H20.3996V18.1987H14.7999V12.5997ZM21.2001 11H16.3996C15.9597 11 15.5997 11.36 15.5997 11.7999V16.5997C15.5997 17.0396 15.9597 17.3996 16.3996 17.3996H21.2001C21.64 17.3996 22 17.0396 22 16.5997V11.7999C22 11.36 21.64 11 21.2001 11ZM20.8002 14.6001H16.8002V13.7995H20.7995L20.8002 14.6001ZM19.1998 16.1998H16.8009V15.3999H19.2005L19.1998 16.1998ZM20.8002 12.9996H16.8002V12.1998H20.7995L20.8002 12.9996Z" fill="#89FF8D"/>
</svg>
