<svg width="24" height="25" viewBox="0 0 24 25" fill="none" xmlns="http://www.w3.org/2000/svg">
<path fill-rule="evenodd" clip-rule="evenodd" d="M5 4.5C3.34315 4.5 2 5.84315 2 7.5V17.5C2 19.1569 3.34315 20.5 5 20.5H13V18.5H5C4.44772 18.5 4 18.0523 4 17.5V7.5C4 6.94772 4.44772 6.5 5 6.5H7.78388C8.01539 6.5 8.23973 6.58033 8.41862 6.72727L10.8119 8.69318C11.3486 9.13402 12.0216 9.375 12.7161 9.375H19C19.5523 9.375 20 9.82272 20 10.375V10.5H22V10.375C22 8.71815 20.6569 7.375 19 7.375H12.7161C12.4846 7.375 12.2603 7.29467 12.0814 7.14773L9.6881 5.18182C9.15142 4.74098 8.47841 4.5 7.78388 4.5H5Z" fill="#64748B"/>
<path fill-rule="evenodd" clip-rule="evenodd" d="M20.444 15.5C20.2673 15.5 20.0978 15.4298 19.9728 15.3049C19.8479 15.1799 19.7777 15.0104 19.7777 14.8337C19.7776 14.7462 19.7948 14.6595 19.8282 14.5786C19.8617 14.4977 19.9108 14.4242 19.9726 14.3622C20.0345 14.3003 20.108 14.2512 20.1889 14.2176C20.2697 14.1841 20.3564 14.1669 20.444 14.1669C20.6207 14.1669 20.7901 14.2371 20.9151 14.362C21.04 14.487 21.1102 14.6564 21.1102 14.8331C21.1103 14.9207 21.0931 15.0074 21.0597 15.0883C21.0262 15.1692 20.9772 15.2427 20.9153 15.3046C20.8534 15.3666 20.7799 15.4157 20.6991 15.4492C20.6182 15.4827 20.5315 15.5 20.444 15.5ZM19.1108 13.7223C18.9341 13.7223 18.7647 13.6521 18.6397 13.5272C18.5148 13.4022 18.4446 13.2327 18.4446 13.056C18.4445 12.9685 18.4617 12.8818 18.4951 12.8009C18.5286 12.72 18.5776 12.6465 18.6395 12.5845C18.7014 12.5226 18.7749 12.4735 18.8557 12.4399C18.9366 12.4064 19.0233 12.3892 19.1108 12.3892C19.2875 12.3892 19.457 12.4594 19.5819 12.5843C19.7069 12.7093 19.7771 12.8787 19.7771 13.0554C19.7772 13.143 19.76 13.2297 19.7265 13.3106C19.6931 13.3915 19.644 13.465 19.5822 13.5269C19.5203 13.5889 19.4468 13.638 19.3659 13.6715C19.2851 13.705 19.1984 13.7223 19.1108 13.7223ZM16.8885 13.7223C16.7118 13.7223 16.5424 13.6521 16.4174 13.5272C16.2925 13.4022 16.2223 13.2327 16.2223 13.056C16.2222 12.9685 16.2394 12.8818 16.2728 12.8009C16.3063 12.72 16.3553 12.6465 16.4172 12.5845C16.4791 12.5226 16.5526 12.4735 16.6334 12.4399C16.7143 12.4064 16.801 12.3892 16.8885 12.3892C17.0652 12.3892 17.2347 12.4594 17.3597 12.5843C17.4846 12.7093 17.5548 12.8787 17.5548 13.0554C17.5549 13.143 17.5377 13.2297 17.5043 13.3106C17.4708 13.3915 17.4217 13.465 17.3599 13.5269C17.298 13.5889 17.2245 13.638 17.1437 13.6715C17.0628 13.705 16.9761 13.7223 16.8885 13.7223ZM15.5554 15.5C15.3787 15.5 15.2093 15.4298 15.0843 15.3049C14.9594 15.1799 14.8892 15.0104 14.8892 14.8337C14.8891 14.7462 14.9063 14.6595 14.9397 14.5786C14.9731 14.4977 15.0222 14.4242 15.0841 14.3622C15.146 14.3003 15.2194 14.2512 15.3003 14.2176C15.3812 14.1841 15.4679 14.1669 15.5554 14.1669C15.7321 14.1669 15.9016 14.2371 16.0265 14.362C16.1515 14.487 16.2217 14.6564 16.2217 14.8331C16.2218 14.9207 16.2046 15.0074 16.1711 15.0883C16.1377 15.1692 16.0886 15.2427 16.0267 15.3046C15.9649 15.3666 15.8914 15.4157 15.8105 15.4492C15.7297 15.4827 15.643 15.5 15.5554 15.5ZM17.9994 11.5C16.9386 11.5002 15.9214 11.9217 15.1714 12.6718C14.4213 13.4219 14 14.4392 14 15.5C14 16.5608 14.4213 17.5781 15.1714 18.3282C15.9214 19.0783 16.9386 19.4998 17.9994 19.5C18.0869 19.5001 18.1736 19.4829 18.2545 19.4495C18.3354 19.416 18.409 19.367 18.4709 19.3051C18.5328 19.2432 18.582 19.1697 18.6155 19.0889C18.649 19.008 18.6663 18.9213 18.6663 18.8337C18.6663 18.6594 18.5996 18.5037 18.4932 18.3885C18.386 18.2653 18.3262 18.1079 18.3244 17.9446C18.3243 17.857 18.3415 17.7703 18.3749 17.6894C18.4084 17.6085 18.4575 17.535 18.5193 17.4731C18.5812 17.4111 18.6547 17.362 18.7356 17.3285C18.8164 17.295 18.9031 17.2777 18.9907 17.2777H19.7771C20.069 17.2778 20.358 17.2204 20.6277 17.1087C20.8974 16.9971 21.1425 16.8334 21.3489 16.627C21.5553 16.4207 21.7191 16.1757 21.8308 15.906C21.9425 15.6363 22 15.3473 22 15.0554C22 13.0915 20.2086 11.5 17.9994 11.5Z" fill="#8CDBFF"/>
</svg>
