<svg width="24" height="24" viewBox="0 0 24 24" fill="none" xmlns="http://www.w3.org/2000/svg">
<path fill-rule="evenodd" clip-rule="evenodd" d="M5 4C3.34315 4 2 5.34315 2 7V17C2 18.6569 3.34315 20 5 20H10V18H5C4.44772 18 4 17.5523 4 17V7C4 6.44772 4.44772 6 5 6H7.78388C8.01539 6 8.23973 6.08033 8.41862 6.22727L10.8119 8.19318C11.3486 8.63402 12.0216 8.875 12.7161 8.875H19C19.5523 8.875 20 9.32272 20 9.875V10H22V9.875C22 8.21815 20.6569 6.875 19 6.875H12.7161C12.4846 6.875 12.2603 6.79467 12.0814 6.64773L9.6881 4.68182C9.15142 4.24098 8.47841 4 7.78388 4H5Z" fill="#64748B"/>
<path fill-rule="evenodd" clip-rule="evenodd" d="M16.5 12C13.4637 12 11 13.206 11 14.6919C11 15.8979 12.6173 16.9157 14.8501 17.2603V19L17.0503 16.846L14.8501 14.6919V16.1627C13.1178 15.8601 12.0997 15.139 12.0997 14.6919C12.0997 14.1213 13.7719 13.0766 16.5 13.0766C19.2281 13.0766 20.9003 14.1213 20.9003 14.6919C20.9003 15.0852 20.0968 15.7097 18.7002 16.0543V17.1586C20.642 16.7434 22 15.7963 22 14.6919C22 13.206 19.5363 12 16.5 12Z" fill="#C084FC"/>
</svg>
