<svg width="24" height="25" viewBox="0 0 24 25" fill="none" xmlns="http://www.w3.org/2000/svg">
<path fill-rule="evenodd" clip-rule="evenodd" d="M5 4.5C3.34315 4.5 2 5.84315 2 7.5V17.5C2 19.1569 3.34315 20.5 5 20.5H13V18.5H5C4.44772 18.5 4 18.0523 4 17.5V7.5C4 6.94772 4.44772 6.5 5 6.5H7.78388C8.01539 6.5 8.23973 6.58033 8.41862 6.72727L10.8119 8.69318C11.3486 9.13402 12.0216 9.375 12.7161 9.375H19C19.5523 9.375 20 9.82272 20 10.375V10.5H22V10.375C22 8.71815 20.6569 7.375 19 7.375H12.7161C12.4846 7.375 12.2603 7.29467 12.0814 7.14773L9.6881 5.18182C9.15142 4.74098 8.47841 4.5 7.78388 4.5H5Z" fill="#64748B"/>
<path fill-rule="evenodd" clip-rule="evenodd" d="M22 14.6643H18.9861L20.204 13.4111C18.9909 12.2112 17.0265 12.1661 15.8127 13.3667C15.5244 13.6514 15.2955 13.9905 15.1393 14.3644C14.9831 14.7383 14.9026 15.1394 14.9026 15.5446C14.9026 15.9498 14.9831 16.351 15.1393 16.7248C15.2955 17.0987 15.5244 17.4378 15.8127 17.7225C16.398 18.2992 17.1867 18.6225 18.0084 18.6225C18.83 18.6225 19.6187 18.2992 20.204 17.7225C20.8084 17.1223 21.1107 16.4242 21.1107 15.5446H22C22 16.4249 21.6091 17.5666 20.8265 18.3402C19.2668 19.8866 16.7333 19.8866 15.1729 18.3402C13.6175 16.7979 13.6036 14.2907 15.1639 12.7484C15.912 12.0075 16.9222 11.5919 17.9751 11.5919C19.0279 11.5919 20.0382 12.0075 20.7863 12.7484L21.9993 11.5L22 14.6643ZM18.2215 13.7216V15.6112L19.7777 16.5358L19.4574 17.0731L17.5554 15.9446V13.7223L18.2215 13.7216Z" fill="#8CDBFF"/>
</svg>
