<svg width="24" height="25" viewBox="0 0 24 25" fill="none" xmlns="http://www.w3.org/2000/svg">
<path fill-rule="evenodd" clip-rule="evenodd" d="M5 4.5C3.34315 4.5 2 5.84315 2 7.5V17.5C2 19.1569 3.34315 20.5 5 20.5H13V18.5H5C4.44772 18.5 4 18.0523 4 17.5V7.5C4 6.94772 4.44772 6.5 5 6.5H7.78388C8.01539 6.5 8.23973 6.58033 8.41862 6.72727L10.8119 8.69318C11.3486 9.13402 12.0216 9.375 12.7161 9.375H19C19.5523 9.375 20 9.82272 20 10.375V10.5H22V10.375C22 8.71815 20.6569 7.375 19 7.375H12.7161C12.4846 7.375 12.2603 7.29467 12.0814 7.14773L9.6881 5.18182C9.15142 4.74098 8.47841 4.5 7.78388 4.5H5Z" fill="#64748B"/>
<path fill-rule="evenodd" clip-rule="evenodd" d="M18.5 17.4932C18.142 17.4932 17.7986 17.3475 17.5455 17.0881C17.2923 16.8288 17.1501 16.477 17.1501 16.1102C17.1501 15.5936 17.4246 15.1422 17.8251 14.9068L22.1946 12.3158L19.7058 16.7325C19.593 16.9611 19.4207 17.1532 19.2078 17.2874C18.995 17.4217 18.75 17.4929 18.5 17.4932ZM18.5 11.5C19.284 11.5034 20.054 11.7129 20.7364 12.1084L19.7915 12.6662C19.3792 12.5044 18.9415 12.4217 18.5 12.4222C17.5453 12.4222 16.6296 12.8107 15.9545 13.5024C15.2794 14.194 14.9001 15.1321 14.9001 16.1102C14.8986 16.5942 14.9909 17.0737 15.1716 17.5208C15.3522 17.968 15.6178 18.374 15.9528 18.7152H15.9573C16.1325 18.8947 16.1325 19.1853 15.9573 19.3648C15.7821 19.5443 15.4939 19.5443 15.3187 19.3694C14.9002 18.942 14.5682 18.434 14.3419 17.8746C14.1156 17.3153 13.9994 16.7157 14 16.1102C14 14.8875 14.4741 13.7149 15.318 12.8503C16.1619 11.9857 17.3065 11.5 18.5 11.5ZM23 16.1102C23.0006 16.7157 22.8844 17.3153 22.6581 17.8746C22.4318 18.434 22.0998 18.942 21.6813 19.3694C21.5961 19.454 21.4819 19.5008 21.3633 19.5C21.2447 19.4991 21.1312 19.4506 21.0472 19.3648C21.0055 19.3222 20.9724 19.2715 20.9499 19.2158C20.9273 19.1601 20.9157 19.1003 20.9157 19.04C20.9157 18.9796 20.9273 18.9199 20.9499 18.8642C20.9724 18.8084 21.0055 18.7578 21.0472 18.7152C21.3819 18.3737 21.6472 17.9677 21.8278 17.5206C22.0085 17.0735 22.101 16.5941 22.0999 16.1102C22.0999 15.6488 22.0149 15.188 21.8572 14.7732L22.4016 13.8051C22.7748 14.4966 23 15.2712 23 16.1102Z" fill="#CFD8DC"/>
</svg>
