<svg width="24" height="25" viewBox="0 0 24 25" fill="none" xmlns="http://www.w3.org/2000/svg">
<path fill-rule="evenodd" clip-rule="evenodd" d="M5 4.5C3.34315 4.5 2 5.84315 2 7.5V17.5C2 19.1569 3.34315 20.5 5 20.5H13V18.5H5C4.44772 18.5 4 18.0523 4 17.5V7.5C4 6.94772 4.44772 6.5 5 6.5H7.78388C8.01539 6.5 8.23973 6.58033 8.41862 6.72727L10.8119 8.69318C11.3486 9.13402 12.0216 9.375 12.7161 9.375H19C19.5523 9.375 20 9.82272 20 10.375V10.5H22V10.375C22 8.71815 20.6569 7.375 19 7.375H12.7161C12.4846 7.375 12.2603 7.29467 12.0814 7.14773L9.6881 5.18182C9.15142 4.74098 8.47841 4.5 7.78388 4.5H5Z" fill="#64748B"/>
<path fill-rule="evenodd" clip-rule="evenodd" d="M18.3637 15.2644H20.9083V15.9704H18.3637V15.2644ZM18.3637 14.0881H20.9083V14.7941H18.3637V14.0881ZM18.3637 16.4407H20.9083V17.1467H18.3637V16.4407ZM21.272 11.5H14.7267C14.3268 11.5 14 11.9243 14 12.4415V18.5593C14 19.0764 14.3268 19.5 14.7267 19.5H21.2726C21.6719 19.5 22 19.0764 22 18.5585V12.4407C22 11.9236 21.6725 11.5 21.272 11.5ZM21.272 18.5585H18V12.4407H21.272V18.5585Z" fill="#C084FC"/>
</svg>
