<svg width="24" height="24" viewBox="0 0 24 24" fill="none" xmlns="http://www.w3.org/2000/svg">
<path fill-rule="evenodd" clip-rule="evenodd" d="M5 4C3.34315 4 2 5.34315 2 7V17C2 18.6569 3.34315 20 5 20H13V18H5C4.44772 18 4 17.5523 4 17V7C4 6.44772 4.44772 6 5 6H7.78388C8.01539 6 8.23973 6.08033 8.41862 6.22727L10.8119 8.19318C11.3486 8.63402 12.0216 8.875 12.7161 8.875H19C19.5523 8.875 20 9.32272 20 9.875V10H22V9.875C22 8.21815 20.6569 6.875 19 6.875H12.7161C12.4846 6.875 12.2603 6.79467 12.0814 6.64773L9.6881 4.68182C9.15142 4.24098 8.47841 4 7.78388 4H5Z" fill="#64748B"/>
<path fill-rule="evenodd" clip-rule="evenodd" d="M21.1113 11H14.8887C14.4 11 14 11.4 14 11.8887V18.1113C14 18.6 14.4 19 14.8887 19H21.1113C21.6 19 22 18.6 22 18.1113V11.8887C22 11.4 21.6 11 21.1113 11ZM14.8887 11.8844H16.2225C16.2225 12.6225 15.6262 13.2225 14.8887 13.2225V11.8844ZM14.8887 15V14.1113C15.4786 14.1101 16.0439 13.875 16.4606 13.4575C16.8773 13.04 17.1113 12.4742 17.1113 11.8844H18C18.0004 12.2933 17.9202 12.6982 17.764 13.0761C17.6079 13.454 17.3788 13.7974 17.0898 14.0868C16.8009 14.3761 16.4578 14.6057 16.0801 14.7624C15.7025 14.9191 15.2976 14.9998 14.8887 15ZM14.8887 17.6669L16.4451 15.6669L17.5556 17.0051L19.1113 15L21.1113 17.6669H14.8887Z" fill="#8CDBFF"/>
</svg>
