<svg width="24" height="25" viewBox="0 0 24 25" fill="none" xmlns="http://www.w3.org/2000/svg">
<path fill-rule="evenodd" clip-rule="evenodd" d="M5 4.5C3.34315 4.5 2 5.84315 2 7.5V17.5C2 19.1569 3.34315 20.5 5 20.5H12V18.5H5C4.44772 18.5 4 18.0523 4 17.5V7.5C4 6.94772 4.44772 6.5 5 6.5H7.78388C8.01539 6.5 8.23973 6.58033 8.41862 6.72727L10.8119 8.69318C11.3486 9.13402 12.0216 9.375 12.7161 9.375H19C19.5523 9.375 20 9.82272 20 10.375V10.5H22V10.375C22 8.71815 20.6569 7.375 19 7.375H12.7161C12.4846 7.375 12.2603 7.29467 12.0814 7.14773L9.6881 5.18182C9.15142 4.74098 8.47841 4.5 7.78388 4.5H5Z" fill="#64748B"/>
<path fill-rule="evenodd" clip-rule="evenodd" d="M17.5 11.5C17.717 11.5 17.9252 11.5843 18.0786 11.7343C18.232 11.8844 18.3182 12.0879 18.3182 12.3001C18.3182 12.596 18.1546 12.856 17.9092 12.992V13.5H18.3182C19.0778 13.5 19.806 13.795 20.3431 14.3201C20.8801 14.8452 21.1818 15.5574 21.1818 16.3H21.591C21.6995 16.3 21.8035 16.3421 21.8802 16.4172C21.9569 16.4921 22 16.5939 22 16.7V17.9C22 18.0061 21.9569 18.1078 21.8802 18.1828C21.8035 18.2579 21.6995 18.3 21.591 18.3H21.1818V18.6999C21.1818 18.9121 21.0956 19.1156 20.9422 19.2657C20.7887 19.4157 20.5807 19.5 20.3637 19.5H14.6363C14.4193 19.5 14.2113 19.4157 14.0578 19.2657C13.9044 19.1156 13.8182 18.9121 13.8182 18.6999V18.3H13.409C13.3005 18.3 13.1965 18.2579 13.1198 18.1828C13.0431 18.1078 13 18.0061 13 17.9V16.7C13 16.5939 13.0431 16.4922 13.1198 16.4172C13.1965 16.3421 13.3005 16.3 13.409 16.3H13.8182C13.8182 15.5574 14.1199 14.8452 14.6569 14.3201C15.194 13.7951 15.9223 13.5 16.6818 13.5H17.0908V12.992C16.8454 12.856 16.6818 12.596 16.6818 12.3001C16.6818 12.0879 16.768 11.8844 16.9214 11.7343C17.0748 11.5843 17.283 11.5 17.5 11.5ZM15.6591 15.9001C15.3878 15.9001 15.1278 16.0054 14.9359 16.193C14.7442 16.3804 14.6364 16.6348 14.6364 16.9C14.6364 17.1652 14.7442 17.4197 14.9359 17.6071C15.1278 17.7947 15.3879 17.9 15.6591 17.9C15.9304 17.9 16.1905 17.7947 16.3823 17.6071C16.5741 17.4196 16.6819 17.1652 16.6819 16.9C16.6819 16.6349 16.5741 16.3805 16.3823 16.193C16.1905 16.0054 15.9304 15.9001 15.6591 15.9001ZM19.3409 15.9001C19.0697 15.9001 18.8096 16.0054 18.6177 16.193C18.426 16.3804 18.3182 16.6348 18.3182 16.9C18.3182 17.1652 18.426 17.4197 18.6177 17.6071C18.8096 17.7947 19.0697 17.9 19.3409 17.9C19.6122 17.9 19.8723 17.7947 20.0641 17.6071C20.2559 17.4196 20.3637 17.1652 20.3637 16.9C20.3637 16.6349 20.2559 16.3805 20.0641 16.193C19.8723 16.0054 19.6122 15.9001 19.3409 15.9001Z" fill="#FF7C7C"/>
</svg>
