<svg width="24" height="25" viewBox="0 0 24 25" fill="none" xmlns="http://www.w3.org/2000/svg">
<path fill-rule="evenodd" clip-rule="evenodd" d="M5 4.5C3.34315 4.5 2 5.84315 2 7.5V17.5C2 19.1569 3.34315 20.5 5 20.5H13V18.5H5C4.44772 18.5 4 18.0523 4 17.5V7.5C4 6.94772 4.44772 6.5 5 6.5H7.78388C8.01539 6.5 8.23973 6.58033 8.41862 6.72727L10.8119 8.69318C11.3486 9.13402 12.0216 9.375 12.7161 9.375H19C19.5523 9.375 20 9.82272 20 10.375V10.5H22V10.375C22 8.71815 20.6569 7.375 19 7.375H12.7161C12.4846 7.375 12.2603 7.29467 12.0814 7.14773L9.6881 5.18182C9.15142 4.74098 8.47841 4.5 7.78388 4.5H5Z" fill="#64748B"/>
<path fill-rule="evenodd" clip-rule="evenodd" d="M19.677 15.9357L22 18.1716L20.6297 19.4837L18.3235 17.2479V16.8797L19.2972 15.9357H19.677ZM20.0527 14.9239L19.652 14.5401L17.6758 16.4593V17.2479L15.3527 19.5L14 18.1716L16.3062 15.9357H17.1189L17.4408 15.6237L15.8564 14.0838H15.3204L14.1609 12.9479L15.2416 11.9002L16.3971 13.0197V13.5439L18.0017 15.0799L19.0992 14.0159L18.7033 13.6118L19.2393 13.0876H18.1417L17.8737 12.8278L19.2393 11.5L19.512 11.7637V12.8278L20.0527 12.2997L21.4061 13.6118C21.8552 14.0518 21.8552 14.7672 21.4061 15.204L20.5927 14.3997L20.0527 14.9239Z" fill="#8CDBFF"/>
</svg>
