<svg width="24" height="25" viewBox="0 0 24 25" fill="none" xmlns="http://www.w3.org/2000/svg">
<path fill-rule="evenodd" clip-rule="evenodd" d="M5 4.5C3.34315 4.5 2 5.84315 2 7.5V17.5C2 19.1569 3.34315 20.5 5 20.5H13V18.5H5C4.44772 18.5 4 18.0523 4 17.5V7.5C4 6.94772 4.44772 6.5 5 6.5H7.78388C8.01539 6.5 8.23973 6.58033 8.41862 6.72727L10.8119 8.69318C11.3486 9.13402 12.0216 9.375 12.7161 9.375H19C19.5523 9.375 20 9.82272 20 10.375V10.5H22V10.375C22 8.71815 20.6569 7.375 19 7.375H12.7161C12.4846 7.375 12.2603 7.29467 12.0814 7.14773L9.6881 5.18182C9.15142 4.74098 8.47841 4.5 7.78388 4.5H5Z" fill="#64748B"/>
<path fill-rule="evenodd" clip-rule="evenodd" d="M19 15.3889C18.3864 15.3889 17.8889 15.8864 17.8889 16.5C17.8889 17.1136 18.3864 17.6111 19 17.6111C19.6136 17.6111 20.1111 17.1136 20.1111 16.5C20.1111 15.8864 19.6136 15.3889 19 15.3889ZM16.7778 16.5C16.7778 15.2727 17.7727 14.2778 19 14.2778C20.2273 14.2778 21.2222 15.2727 21.2222 16.5C21.2222 17.7273 20.2273 18.7222 19 18.7222C17.7727 18.7222 16.7778 17.7273 16.7778 16.5Z" fill="#C084FC"/>
<path fill-rule="evenodd" clip-rule="evenodd" d="M19 12.6111C16.8522 12.6111 15.1111 14.3522 15.1111 16.5C15.1111 18.6478 16.8522 20.3889 19 20.3889C21.1478 20.3889 22.8889 18.6478 22.8889 16.5C22.8889 14.3522 21.1478 12.6111 19 12.6111ZM14 16.5C14 13.7386 16.2386 11.5 19 11.5C21.7614 11.5 24 13.7386 24 16.5C24 19.2614 21.7614 21.5 19 21.5C16.2386 21.5 14 19.2614 14 16.5Z" fill="#C084FC"/>
</svg>
