<svg width="24" height="25" viewBox="0 0 24 25" fill="none" xmlns="http://www.w3.org/2000/svg">
<path fill-rule="evenodd" clip-rule="evenodd" d="M5 4.5C3.34315 4.5 2 5.84315 2 7.5V17.5C2 19.1569 3.34315 20.5 5 20.5H13V18.5H5C4.44772 18.5 4 18.0523 4 17.5V7.5C4 6.94772 4.44772 6.5 5 6.5H7.78388C8.01539 6.5 8.23973 6.58033 8.41862 6.72727L10.8119 8.69318C11.3486 9.13402 12.0216 9.375 12.7161 9.375H19C19.5523 9.375 20 9.82272 20 10.375V10.5H22V10.375C22 8.71815 20.6569 7.375 19 7.375H12.7161C12.4846 7.375 12.2603 7.29467 12.0814 7.14773L9.6881 5.18182C9.15142 4.74098 8.47841 4.5 7.78388 4.5H5Z" fill="#64748B"/>
<path fill-rule="evenodd" clip-rule="evenodd" d="M18.6897 11.5007C18.5801 11.5007 18.4722 11.5278 18.3756 11.5795C18.279 11.6312 18.1966 11.706 18.1358 11.7972L16.9976 13.5007H14.3329C14.2446 13.5007 14.1599 13.5357 14.0975 13.5982C14.0351 13.6606 14 13.7453 14 13.8336V15.6664L15.1665 16.8686L15.5689 16.4373L16.0689 16.938L15.6625 17.3443L16.1545 17.8376L16.5622 17.4306L17.0656 17.934L16.6667 18.3336L17.8332 19.5H19.6662C19.7101 19.5001 19.7535 19.4915 19.794 19.4748C19.8345 19.4581 19.8713 19.4335 19.9023 19.4025C19.9333 19.3715 19.9579 19.3347 19.9746 19.2942C19.9914 19.2537 19.9999 19.2103 19.9998 19.1664V16.502L21.7035 15.3646C21.7947 15.3036 21.8695 15.2211 21.9212 15.1244C21.9729 15.0277 22 14.9197 22 14.81V11.8336C22.0001 11.7897 21.9915 11.7463 21.9748 11.7058C21.9581 11.6653 21.9335 11.6285 21.9025 11.5975C21.8715 11.5665 21.8347 11.5419 21.7942 11.5252C21.7537 11.5085 21.7102 11.4999 21.6664 11.5L18.6897 11.5007ZM19.9998 12.5C20.1979 12.4995 20.3917 12.5579 20.5565 12.6677C20.7213 12.7775 20.8498 12.9338 20.9256 13.1168C21.0015 13.2997 21.0212 13.5011 20.9823 13.6953C20.9435 13.8895 20.8478 14.0678 20.7074 14.2075C20.5667 14.3482 20.3872 14.4437 20.1919 14.4819C19.9966 14.5201 19.7943 14.4992 19.611 14.4218C19.371 14.3204 19.18 14.1295 19.0786 13.8895C19.0148 13.7375 18.9895 13.572 19.005 13.4079C19.0205 13.2437 19.0763 13.0859 19.1675 12.9485C19.2586 12.8111 19.3823 12.6984 19.5275 12.6202C19.6727 12.5421 19.8349 12.5004 19.9998 12.5ZM14 17.5V19.5H16.0002V18.9003H14.5998V17.5H14Z" fill="#0EA5E9"/>
</svg>
