<svg width="24" height="25" viewBox="0 0 24 25" fill="none" xmlns="http://www.w3.org/2000/svg">
<path fill-rule="evenodd" clip-rule="evenodd" d="M5 4.5C3.34315 4.5 2 5.84315 2 7.5V17.5C2 19.1569 3.34315 20.5 5 20.5H13V18.5H5C4.44772 18.5 4 18.0523 4 17.5V7.5C4 6.94772 4.44772 6.5 5 6.5H7.78388C8.01539 6.5 8.23973 6.58033 8.41862 6.72727L10.8119 8.69318C11.3486 9.13402 12.0216 9.375 12.7161 9.375H19C19.5523 9.375 20 9.82272 20 10.375V10.5H22V10.375C22 8.71815 20.6569 7.375 19 7.375H12.7161C12.4846 7.375 12.2603 7.29467 12.0814 7.14773L9.6881 5.18182C9.15142 4.74098 8.47841 4.5 7.78388 4.5H5Z" fill="#64748B"/>
<path fill-rule="evenodd" clip-rule="evenodd" d="M18.5 19.6002C19.4547 19.6002 20.3702 19.221 21.0453 18.5459C21.7203 17.8708 22.0995 16.9551 22.0995 16.0004C22.0995 15.0456 21.7203 14.13 21.0453 13.4549C20.3702 12.7798 19.4547 12.4005 18.5 12.4005C17.5455 12.4005 16.63 12.7797 15.955 13.4546C15.28 14.1296 14.9007 15.045 14.9005 15.9996C14.9004 16.4724 14.9934 16.9406 15.1742 17.3775C15.3551 17.8143 15.6202 18.2112 15.9545 18.5456C16.2887 18.8799 16.6856 19.1452 17.1223 19.3261C17.5591 19.5071 18.0272 19.6002 18.5 19.6002ZM18.5 11.5C19.6935 11.5 20.8381 11.9741 21.682 12.8181C22.5259 13.6621 23 14.8068 23 16.0004C22.9998 17.1938 22.5256 18.3383 21.6817 19.1821C20.8378 20.026 19.6933 20.5 18.5 20.5C17.3068 20.499 16.1628 20.0245 15.3191 19.1808C14.4754 18.337 14.001 17.1929 14 15.9996C14.0002 14.8062 14.4744 13.6617 15.3183 12.8179C16.1622 11.974 17.3067 11.5 18.5 11.5ZM18.7253 13.7502V16.1123L20.75 17.3145L20.412 17.8672L18.0502 16.4503V13.7502H18.7253Z" fill="#CFD8DC" stroke="#D7CCC8" stroke-width="0.271" stroke-linejoin="round"/>
</svg>
