<svg width="24" height="25" viewBox="0 0 24 25" fill="none" xmlns="http://www.w3.org/2000/svg">
<path fill-rule="evenodd" clip-rule="evenodd" d="M5 4.5C3.34315 4.5 2 5.84315 2 7.5V17.5C2 19.1569 3.34315 20.5 5 20.5H13V18.5H5C4.44772 18.5 4 18.0523 4 17.5V7.5C4 6.94772 4.44772 6.5 5 6.5H7.78388C8.01539 6.5 8.23973 6.58033 8.41862 6.72727L10.8119 8.69318C11.3486 9.13402 12.0216 9.375 12.7161 9.375H19C19.5523 9.375 20 9.82272 20 10.375V10.5H22V10.375C22 8.71815 20.6569 7.375 19 7.375H12.7161C12.4846 7.375 12.2603 7.29467 12.0814 7.14773L9.6881 5.18182C9.15142 4.74098 8.47841 4.5 7.78388 4.5H5Z" fill="#64748B"/>
<path fill-rule="evenodd" clip-rule="evenodd" d="M21.1113 11.5H14.8887C14.4 11.5 14 11.9 14 12.3887V18.6113C14 19.1 14.4 19.5 14.8887 19.5H21.1113C21.6 19.5 22 19.1 22 18.6113V12.3887C22 11.9 21.6 11.5 21.1113 11.5ZM14.8887 12.3844H16.2225C16.2225 13.1225 15.6262 13.7225 14.8887 13.7225V12.3844ZM14.8887 15.5V14.6113C15.4786 14.6101 16.0439 14.375 16.4606 13.9575C16.8773 13.54 17.1113 12.9742 17.1113 12.3844H18C18.0004 12.7933 17.9202 13.1982 17.764 13.5761C17.6079 13.954 17.3788 14.2974 17.0898 14.5868C16.8009 14.8761 16.4578 15.1057 16.0801 15.2624C15.7025 15.4191 15.2976 15.4998 14.8887 15.5ZM14.8887 18.1669L16.4451 16.1669L17.5556 17.5051L19.1113 15.5L21.1113 18.1669H14.8887Z" fill="#8CDBFF"/>
</svg>
