<svg width="24" height="25" viewBox="0 0 24 25" fill="none" xmlns="http://www.w3.org/2000/svg">
<path fill-rule="evenodd" clip-rule="evenodd" d="M5 3.5C3.34315 3.5 2 4.84315 2 6.5V16.5C2 18.1569 3.34315 19.5 5 19.5H12V17.5H5C4.44772 17.5 4 17.0523 4 16.5V6.5C4 5.94772 4.44772 5.5 5 5.5H7.78388C8.01539 5.5 8.23973 5.58033 8.41862 5.72727L10.8119 7.69318C11.3486 8.13402 12.0216 8.375 12.7161 8.375H19C19.5523 8.375 20 8.82272 20 9.375V9.5H22V9.375C22 7.71815 20.6569 6.375 19 6.375H12.7161C12.4846 6.375 12.2603 6.29467 12.0814 6.14773L9.6881 4.18182C9.15142 3.74098 8.47841 3.5 7.78388 3.5H5Z" fill="#64748B"/>
<path fill-rule="evenodd" clip-rule="evenodd" d="M15.429 17.6252C15.3616 17.6177 15.2943 17.5857 15.2269 17.5538C15.1969 17.5396 15.1712 17.5239 15.1499 17.5069C15.0623 17.4367 15.0495 17.3429 15.1114 17.2254C15.1114 17.2072 15.1211 17.189 15.1307 17.1707C15.1403 17.1525 15.1499 17.1342 15.1499 17.116C14.9959 17.116 14.9189 17.043 14.8804 16.9336C14.688 16.4592 14.7264 16.0944 15.1114 15.7295C15.1217 15.71 15.1321 15.693 15.1416 15.6773C15.1678 15.6344 15.1884 15.6005 15.1884 15.5471C15.1884 15.0728 15.2654 14.635 15.6119 14.2336C15.7274 14.0877 15.8814 13.9417 16.0739 13.8323C16.1509 13.7958 16.1509 13.7593 16.1124 13.6863C15.9584 13.5039 15.8814 13.3215 15.8429 13.1026C15.8121 12.9566 15.8799 12.8107 15.9476 12.6647C15.9645 12.6282 15.9815 12.5918 15.9969 12.5553C16.0354 12.5188 16.0739 12.4823 16.1124 12.4823C16.2254 12.4555 16.3176 12.3895 16.4044 12.3274C16.4359 12.3048 16.4666 12.2828 16.4974 12.2634C16.7668 12.008 17.0748 11.8985 17.4598 11.8985C17.5345 11.8985 17.573 11.8642 17.5752 11.8288C17.5753 11.8277 17.5753 11.8266 17.5753 11.8256C17.579 11.8117 17.583 11.7978 17.5874 11.7839C17.6078 11.7186 17.636 11.6534 17.6718 11.5882C17.6998 11.5374 17.7324 11.4866 17.7697 11.4358C17.7814 11.4198 17.7936 11.4037 17.8063 11.3877L17.9218 11.2783C17.9808 11.2224 18.0623 11.2093 18.1145 11.2554C18.1155 11.2562 18.1164 11.257 18.1173 11.2579C18.132 11.2718 18.1443 11.2906 18.1528 11.3147C18.2317 11.4394 18.2927 11.5641 18.3479 11.6771C18.3494 11.6802 18.3509 11.6833 18.3525 11.6864C18.3764 11.7354 18.3993 11.7821 18.4223 11.8256C18.4226 11.8262 18.423 11.8269 18.4233 11.8275C18.4238 11.8284 18.4243 11.8293 18.4247 11.8301C18.4624 11.8985 18.5001 11.8977 18.5378 11.862C18.6744 11.8065 18.7418 11.7792 18.785 11.799C18.8271 11.8183 18.8463 11.8821 18.8842 12.008C18.9035 12.0844 18.9196 12.1605 18.9326 12.2363C18.9461 12.3143 18.9562 12.392 18.963 12.4692C19.0157 13.0684 18.8676 13.6444 18.4993 14.1971C18.48 14.2336 18.4511 14.2701 18.4223 14.3066C18.3934 14.3431 18.3645 14.3796 18.3453 14.416C18.3068 14.489 18.3068 14.5255 18.3838 14.5985C18.7303 14.8904 18.9612 15.2917 19.0382 15.7295C19.047 15.7875 19.0537 15.8473 19.0585 15.9081C19.0592 15.9169 19.0598 15.9258 19.0604 15.9346C19.0694 16.0655 19.0693 16.2005 19.0602 16.3313C19.0593 16.3434 19.0584 16.3556 19.0574 16.3677C19.0527 16.4237 19.0463 16.4787 19.0382 16.5322C19.0287 16.5685 19.0238 16.5958 19.0238 16.6157C19.0237 16.6759 19.067 16.6691 19.1537 16.6417C19.2051 16.6278 19.2564 16.6126 19.3075 16.596C19.3269 16.5897 19.3463 16.5832 19.3656 16.5765C19.4566 16.5451 19.5464 16.5095 19.6335 16.4696C19.6396 16.4668 19.6457 16.4639 19.6517 16.4611C19.6867 16.4448 19.7212 16.4278 19.7551 16.4101C19.7792 16.3975 19.8029 16.3846 19.8264 16.3714C19.8595 16.3527 19.892 16.3334 19.9237 16.3133C19.9567 16.2954 19.9892 16.2775 20.0213 16.2598C20.1852 16.1695 20.3395 16.0844 20.5127 16.0314C20.5822 16.0102 20.6547 15.9941 20.7322 15.9849C20.7722 15.9849 20.8076 15.9805 20.8416 15.9763C20.8509 15.9752 20.86 15.9741 20.8691 15.973C20.8915 15.9705 20.9137 15.9686 20.9366 15.9687C20.9688 15.9689 21.0024 15.973 21.0401 15.9849C21.1556 16.0214 21.2326 16.1309 21.2326 16.2403C21.2326 16.3498 21.1556 16.4228 21.0401 16.4592C20.9785 16.4709 20.9178 16.4854 20.8581 16.5024C20.8395 16.5077 20.821 16.5133 20.8026 16.5191C20.779 16.5265 20.7555 16.5343 20.7322 16.5425C20.6966 16.5549 20.6615 16.5682 20.6267 16.5823C20.4948 16.6357 20.3682 16.7004 20.2468 16.7726C20.2355 16.7794 20.2242 16.7862 20.213 16.7931C20.1403 16.8375 20.0695 16.8846 20.0007 16.9336C19.8061 17.0626 19.5919 17.1731 19.3729 17.2649C19.3637 17.2688 19.3544 17.2726 19.3451 17.2764C19.2443 17.3179 19.1427 17.3554 19.0416 17.389C18.9367 17.4238 18.8323 17.4545 18.7303 17.4809C18.6918 17.4809 18.6148 17.5173 18.5763 17.5538C18.4558 17.6394 18.3354 17.6581 18.1966 17.6796C18.1579 17.6856 18.1178 17.6918 18.0758 17.6998C18.043 17.7026 18.0105 17.7054 17.9781 17.7082C17.5925 17.7417 17.2346 17.7727 16.8438 17.7727C16.8166 17.7727 16.7894 17.7727 16.7616 17.7723C16.751 17.7805 16.7405 17.7878 16.7305 17.7941L16.7283 17.791C16.7322 17.7846 16.736 17.7782 16.7397 17.7718C16.7313 17.7715 16.7228 17.7713 16.7142 17.7709C16.638 17.7678 16.5561 17.7593 16.4589 17.7363C16.4284 17.7266 16.398 17.7145 16.369 17.6998C16.3466 17.6885 16.325 17.6756 16.3049 17.6612C16.2756 17.6403 16.2495 17.6162 16.2286 17.5889C16.2119 17.5671 16.1985 17.5432 16.1894 17.5173C16.1619 17.4131 16.1737 17.3275 16.2247 17.2604C16.2277 17.2566 16.2307 17.2528 16.2339 17.2491C16.253 17.2268 16.2766 17.2068 16.3049 17.189C16.3452 17.189 16.375 17.1789 16.3997 17.1694C16.4027 17.1683 16.4055 17.1672 16.4083 17.1661C16.427 17.1587 16.4429 17.1525 16.4589 17.1525C16.4025 17.1258 16.3668 17.0991 16.3366 17.058C16.3255 17.043 16.3152 17.0261 16.3049 17.0065C16.2664 16.97 16.2664 16.97 16.2279 17.0065C16.2199 17.0216 16.2136 17.0366 16.2083 17.0517C16.2082 17.0519 16.2081 17.0522 16.208 17.0524C16.2006 17.0736 16.195 17.0948 16.1894 17.116C16.1798 17.1525 16.1701 17.189 16.1509 17.2254C16.0958 17.3993 16.0233 17.5152 15.9208 17.581C15.9073 17.5896 15.8933 17.5974 15.8788 17.6043C15.866 17.6104 15.8527 17.6159 15.8391 17.6207C15.7808 17.6411 15.7144 17.6499 15.6385 17.6478C15.5835 17.6464 15.5235 17.6392 15.4579 17.6268C15.4483 17.6268 15.4386 17.6262 15.429 17.6252ZM15.3593 18.3492C15.1297 18.3268 14.9433 18.2339 14.8934 18.209C14.8892 18.207 14.886 18.2054 14.8837 18.2043C14.701 18.1177 14.4609 17.9492 14.3546 17.647C14.3315 17.5813 14.3174 17.5171 14.3105 17.455C14.2376 17.3615 14.1902 17.2655 14.1592 17.1821C14.0382 16.8799 13.9595 16.5377 14.022 16.1736C14.0754 15.8625 14.2215 15.5953 14.4247 15.3645C14.4454 14.8611 14.5645 14.3047 15.0078 13.7849C15.0603 13.7194 15.1192 13.6529 15.1846 13.5874C15.141 13.4717 15.1096 13.3534 15.0876 13.2316C15.0342 12.9606 15.1004 12.7291 15.1523 12.5887C15.1794 12.5153 15.2099 12.4483 15.2319 12.4006C15.2379 12.3876 15.2432 12.3761 15.2481 12.3657C15.2638 12.3317 15.2742 12.3092 15.2844 12.2852C15.323 12.1937 15.3808 12.1107 15.4543 12.041C15.4549 12.0404 15.4558 12.0395 15.457 12.0384C15.472 12.024 15.5279 11.9704 15.5942 11.9233C15.6382 11.8921 15.7408 11.8232 15.8895 11.7839C15.9032 11.7747 15.9193 11.7632 15.9477 11.7429L15.9493 11.7418C15.9643 11.731 15.9843 11.7167 16.0073 11.7009C16.3068 11.4343 16.6454 11.277 17.0153 11.2098C17.0678 11.1197 17.1274 11.0335 17.1924 10.9514C17.2142 10.9238 17.238 10.8978 17.2637 10.8735L17.3792 10.764C17.5423 10.6095 17.8102 10.4709 18.1365 10.5053C18.4706 10.5405 18.7164 10.7409 18.839 10.9862C18.8566 11.0154 18.874 11.0456 18.8911 11.0759C18.9558 11.086 19.0245 11.104 19.0948 11.1336C19.3992 11.2618 19.5126 11.5112 19.5439 11.5823C19.5772 11.6581 19.6035 11.746 19.6182 11.7953C19.6196 11.7999 19.6209 11.8043 19.6221 11.8082C19.6252 11.8186 19.6281 11.829 19.6307 11.8395C19.855 12.732 19.7397 13.6053 19.2522 14.4208C19.519 14.7511 19.7013 15.1385 19.7837 15.5493C19.9997 15.4353 20.2925 15.3041 20.637 15.2633C20.6649 15.26 20.693 15.2581 20.7211 15.2577C20.7214 15.2577 20.7217 15.2577 20.722 15.2576C20.7272 15.2571 20.7313 15.2566 20.7389 15.2556C20.7422 15.2552 20.7462 15.2547 20.7513 15.2541C20.7648 15.2524 20.786 15.2499 20.8098 15.2476C20.9204 15.2371 21.0866 15.233 21.2828 15.295C21.728 15.4356 22 15.8345 22 16.2403C22 16.768 21.5916 17.0516 21.2828 17.1492C21.2526 17.1587 21.2218 17.1665 21.1906 17.1724C20.9582 17.2164 20.7171 17.3334 20.4611 17.5154C20.4544 17.5201 20.4476 17.5248 20.4407 17.5294C19.9857 17.8312 19.4622 18.0397 18.9897 18.1673C18.692 18.3576 18.3339 18.4 18.2453 18.4105C18.2356 18.4116 18.2291 18.4124 18.2263 18.4129C18.1995 18.418 18.1725 18.4217 18.1453 18.424C18.1114 18.427 18.0775 18.4299 18.0435 18.4329C17.663 18.4659 17.2713 18.5 16.8438 18.5L16.8349 18.5C16.712 18.5 16.5188 18.5001 16.2727 18.4418C16.2537 18.4373 16.2348 18.4321 16.2162 18.4262C16.1549 18.4068 16.0784 18.3776 15.997 18.3355C15.7666 18.3932 15.5421 18.3795 15.3593 18.3492ZM16.7052 17.8367C16.706 17.8364 16.7059 17.8364 16.7049 17.8368L16.7052 17.8367ZM19.1045 11.4924C19.106 11.4953 19.1074 11.4979 19.1086 11.5003L19.1086 11.5003C19.1084 11.4999 19.1071 11.4971 19.1045 11.4924ZM15.8687 11.7971C15.8687 11.7971 15.869 11.7969 15.8697 11.7965C15.869 11.7969 15.8687 11.7971 15.8687 11.7971ZM15.726 13.1841C15.7275 13.1833 15.7291 13.1825 15.7307 13.1818L15.7302 13.182C15.7292 13.1825 15.7278 13.1832 15.726 13.1841Z" fill="#60A5FA"/>
</svg>
