<svg width="24" height="25" viewBox="0 0 24 25" fill="none" xmlns="http://www.w3.org/2000/svg">
<path fill-rule="evenodd" clip-rule="evenodd" d="M5 4.5C3.34315 4.5 2 5.84315 2 7.5V17.5C2 19.1569 3.34315 20.5 5 20.5H10V18.5H5C4.44772 18.5 4 18.0523 4 17.5V7.5C4 6.94772 4.44772 6.5 5 6.5H7.78388C8.01539 6.5 8.23973 6.58033 8.41862 6.72727L10.8119 8.69318C11.3486 9.13402 12.0216 9.375 12.7161 9.375H19C19.5523 9.375 20 9.82272 20 10.375V10.5H22V10.375C22 8.71815 20.6569 7.375 19 7.375H12.7161C12.4846 7.375 12.2603 7.29467 12.0814 7.14773L9.6881 5.18182C9.15142 4.74098 8.47841 4.5 7.78388 4.5H5Z" fill="#64748B"/>
<path fill-rule="evenodd" clip-rule="evenodd" d="M16.5 12.5C13.4637 12.5 11 13.706 11 15.1919C11 16.3979 12.6173 17.4157 14.8501 17.7603V19.5L17.0503 17.346L14.8501 15.1919V16.6627C13.1178 16.3601 12.0997 15.639 12.0997 15.1919C12.0997 14.6213 13.7719 13.5766 16.5 13.5766C19.2281 13.5766 20.9003 14.6213 20.9003 15.1919C20.9003 15.5852 20.0968 16.2097 18.7002 16.5543V17.6586C20.642 17.2434 22 16.2963 22 15.1919C22 13.706 19.5363 12.5 16.5 12.5Z" fill="#C084FC"/>
</svg>
