<svg width="24" height="25" viewBox="0 0 24 25" fill="none" xmlns="http://www.w3.org/2000/svg">
<path fill-rule="evenodd" clip-rule="evenodd" d="M5 4.5C3.34315 4.5 2 5.84315 2 7.5V17.5C2 19.1569 3.34315 20.5 5 20.5H13V18.5H5C4.44772 18.5 4 18.0523 4 17.5V7.5C4 6.94772 4.44772 6.5 5 6.5H7.78388C8.01539 6.5 8.23973 6.58033 8.41862 6.72727L10.8119 8.69318C11.3486 9.13402 12.0216 9.375 12.7161 9.375H19C19.5523 9.375 20 9.82272 20 10.375V10.5H22V10.375C22 8.71815 20.6569 7.375 19 7.375H12.7161C12.4846 7.375 12.2603 7.29467 12.0814 7.14773L9.6881 5.18182C9.15142 4.74098 8.47841 4.5 7.78388 4.5H5Z" fill="#64748B"/>
<path fill-rule="evenodd" clip-rule="evenodd" d="M15.8753 11.5C15.7604 11.5 15.6465 11.5206 15.5403 11.5608C15.4341 11.601 15.3376 11.66 15.2563 11.7343C15.175 11.8086 15.1105 11.8968 15.0665 11.9939C15.0226 12.091 15 12.1951 15 12.3002V18.6986C14.9998 18.8038 15.0223 18.908 15.0662 19.0052C15.1101 19.1025 15.1745 19.1909 15.2558 19.2653C15.3371 19.3397 15.4337 19.3988 15.54 19.4391C15.6463 19.4793 15.7603 19.5 15.8753 19.5H21.1247C21.2397 19.5 21.3537 19.4793 21.46 19.4391C21.5663 19.3988 21.6629 19.3397 21.7442 19.2653C21.8255 19.1909 21.8899 19.1025 21.9338 19.0052C21.9777 18.908 22.0002 18.8038 22 18.6986V12.3002C22 12.1951 21.9774 12.091 21.9335 11.9939C21.8895 11.8968 21.825 11.8086 21.7437 11.7343C21.6624 11.66 21.5659 11.601 21.4597 11.5608C21.3535 11.5206 21.2396 11.5 21.1247 11.5H15.8753ZM15.8753 14.3002H21.1247V16.3003H15.8753V14.3002ZM15.8753 17.0993H21.1247V18.6986H15.8754L15.8753 17.0993Z" fill="#B2DFDB"/>
</svg>
