<svg width="24" height="24" viewBox="0 0 24 24" fill="none" xmlns="http://www.w3.org/2000/svg">
<path fill-rule="evenodd" clip-rule="evenodd" d="M5 4C3.34315 4 2 5.34315 2 7V17C2 18.6569 3.34315 20 5 20H13V18H5C4.44772 18 4 17.5523 4 17V7C4 6.44772 4.44772 6 5 6H7.78388C8.01539 6 8.23973 6.08033 8.41862 6.22727L10.8119 8.19318C11.3486 8.63402 12.0216 8.875 12.7161 8.875H19C19.5523 8.875 20 9.32272 20 9.875V10H22V9.875C22 8.21815 20.6569 6.875 19 6.875H12.7161C12.4846 6.875 12.2603 6.79467 12.0814 6.64773L9.6881 4.68182C9.15142 4.24098 8.47841 4 7.78388 4H5Z" fill="#64748B"/>
<path fill-rule="evenodd" clip-rule="evenodd" d="M17.8605 11.0054C17.661 11.0247 17.4691 11.094 17.3012 11.2074C17.1334 11.3207 16.9947 11.4746 16.8973 11.6558C16.7998 11.8371 16.7464 12.0401 16.7417 12.2475C16.737 12.4549 16.7811 12.6603 16.8703 12.846L15.4837 13.9181C15.386 13.857 15.2708 13.833 15.1578 13.85C15.0448 13.867 14.9411 13.9241 14.8643 14.0115C14.7874 14.099 14.7423 14.2113 14.7366 14.3293C14.7308 14.4473 14.7648 14.5637 14.8328 14.6587C14.9007 14.7536 14.9984 14.8212 15.1092 14.8499C15.2199 14.8786 15.3368 14.8666 15.44 14.816C15.5432 14.7654 15.6262 14.6793 15.6748 14.5724C15.7235 14.4655 15.7348 14.3444 15.7068 14.2299L17.4235 12.9243C17.1973 12.7042 17.0793 12.3428 17.1801 12.0157C17.2407 11.8215 17.3659 11.6557 17.5334 11.5479C17.7009 11.4401 17.8999 11.3973 18.095 11.4269C18.2902 11.4566 18.4688 11.5569 18.5993 11.71C18.7298 11.8631 18.8036 12.0591 18.8077 12.2632L19.2072 12.2715C19.2065 12.0944 19.1702 11.9194 19.1006 11.7576C19.031 11.5958 18.9297 11.4508 18.803 11.3317C18.6764 11.2126 18.5272 11.1221 18.3649 11.0659C18.2027 11.0098 18.0309 10.9891 17.8605 11.0054ZM18.0105 11.8172C17.9338 11.817 17.8582 11.8353 17.7895 11.8705C17.7208 11.9057 17.661 11.957 17.6147 12.0203C17.5684 12.0836 17.537 12.1571 17.5229 12.2351C17.5088 12.3131 17.5124 12.3934 17.5334 12.4698C17.5544 12.5461 17.5923 12.6163 17.644 12.6749C17.6957 12.7335 17.7598 12.7788 17.8314 12.8073C17.9029 12.8359 17.9799 12.8468 18.0562 12.8393C18.1325 12.8317 18.2061 12.806 18.2711 12.764L19.9983 14.0651C20.1335 13.7743 20.4298 13.5478 20.7623 13.5478C20.9608 13.5478 21.1528 13.6208 21.304 13.7539C21.4552 13.887 21.5557 14.0714 21.5876 14.2742C21.6194 14.477 21.5806 14.6849 21.4779 14.8607C21.3752 15.0365 21.2155 15.1688 21.0272 15.2339L21.1415 15.6322C21.3189 15.5732 21.4812 15.4735 21.6161 15.3404C21.7511 15.2074 21.8552 15.0446 21.9208 14.8641C21.9864 14.6835 22.0118 14.49 21.995 14.2979C21.9782 14.1058 21.9196 13.9201 21.8238 13.7548C21.7279 13.5894 21.5972 13.4485 21.4413 13.3428C21.2855 13.237 21.1086 13.1691 20.9239 13.1441C20.7391 13.119 20.5513 13.1375 20.3744 13.1982C20.1975 13.2589 20.0362 13.3601 19.9024 13.4944L18.4918 12.4484C18.5088 12.3732 18.5092 12.2949 18.4929 12.2195C18.4767 12.1441 18.4443 12.0734 18.398 12.0128C18.3518 11.9522 18.2929 11.9031 18.2258 11.8692C18.1588 11.8354 18.0851 11.8176 18.0105 11.8172ZM15.2304 13.0611C15.0365 13.0584 14.8448 13.1038 14.6712 13.1934C14.4977 13.2831 14.3474 13.4144 14.2329 13.5765C14.0422 13.8493 13.964 14.1894 14.0155 14.522C14.067 14.8545 14.244 15.1522 14.5076 15.3497C14.7768 15.5533 15.0983 15.6277 15.4032 15.5851L15.9502 17.2775C15.8942 17.3275 15.8499 17.3899 15.8204 17.46C15.791 17.5302 15.7772 17.6064 15.7802 17.6828C15.7831 17.7593 15.8027 17.8341 15.8375 17.9016C15.8722 17.9691 15.9213 18.0276 15.9809 18.0728C16.0329 18.1125 16.092 18.1411 16.1547 18.1572C16.2174 18.1732 16.2826 18.1763 16.3465 18.1663C16.4104 18.1562 16.4717 18.1332 16.527 18.0986C16.5823 18.064 16.6304 18.0185 16.6687 17.9646C16.7065 17.9106 16.7336 17.8494 16.7485 17.7845C16.7634 17.7196 16.7657 17.6523 16.7555 17.5865C16.7452 17.5207 16.7225 17.4576 16.6886 17.4008C16.6547 17.3441 16.6104 17.2948 16.5581 17.2559C16.484 17.1999 16.3963 17.1664 16.3049 17.1592L15.6472 15.0704C15.3749 15.2205 15.0092 15.2211 14.7418 15.0195C14.6535 14.9534 14.5786 14.8699 14.5215 14.7739C14.4643 14.6778 14.426 14.5711 14.4087 14.4597C14.3914 14.3484 14.3955 14.2346 14.4207 14.1248C14.4459 14.0151 14.4917 13.9115 14.5556 13.8201C14.7707 13.5154 15.1456 13.4021 15.4763 13.5122L15.6085 13.1254C15.4855 13.0827 15.3571 13.0617 15.2304 13.0611ZM20.7801 13.9009C20.6993 13.8937 20.6181 13.9072 20.5435 13.9402C20.469 13.9732 20.4035 14.0247 20.3528 14.0902C20.3021 14.1558 20.2678 14.2332 20.2529 14.3157C20.238 14.3982 20.243 14.4832 20.2675 14.5633C20.2957 14.6529 20.3476 14.7325 20.4175 14.793L19.7524 16.8786C20.0598 16.9206 20.3572 17.142 20.4587 17.4665C20.4918 17.5739 20.5043 17.6871 20.4952 17.7995C20.4861 17.9119 20.4557 18.0214 20.4058 18.1216C20.3559 18.2219 20.2873 18.311 20.2041 18.3838C20.1209 18.4567 20.0247 18.5118 19.9208 18.5462C19.7553 18.6021 19.577 18.6028 19.4112 18.5481C19.2453 18.4934 19.1002 18.3861 18.9964 18.2414L18.6663 18.4743C18.8191 18.6922 19.0346 18.8544 19.282 18.9376C19.5294 19.0208 19.7958 19.0208 20.0432 18.9375C20.1968 18.8866 20.3392 18.8049 20.4623 18.697C20.5853 18.5892 20.6867 18.4572 20.7605 18.3088C20.8343 18.1604 20.8791 17.9984 20.8924 17.832C20.9057 17.6656 20.8872 17.4982 20.8379 17.3392C20.7403 17.0254 20.5278 16.7636 20.246 16.6101L20.7746 14.9126C20.8483 14.906 20.9197 14.8825 20.9834 14.8436C21.0472 14.8048 21.1017 14.7516 21.143 14.6881C21.1842 14.6245 21.2112 14.5522 21.2219 14.4764C21.2326 14.4007 21.2268 14.3234 21.2049 14.2502C21.1752 14.1552 21.119 14.0713 21.0435 14.0092C20.9679 13.947 20.8763 13.9094 20.7801 13.9009ZM15.2882 16.9346C15.1787 17.0896 15.1045 17.2683 15.0712 17.4572C15.0379 17.6461 15.0464 17.8404 15.096 18.0255C15.1455 18.2106 15.2349 18.3816 15.3574 18.5258C15.4799 18.6701 15.6324 18.7837 15.8034 18.8583C15.9743 18.9328 16.1594 18.9664 16.3447 18.9563C16.53 18.9463 16.7107 18.893 16.8732 18.8005C17.0358 18.7079 17.176 18.5784 17.2833 18.4218C17.3906 18.2651 17.4623 18.0853 17.493 17.8959L19.2183 17.8787C19.2624 17.9874 19.3415 18.0768 19.4422 18.1318C19.5429 18.1868 19.6589 18.2039 19.7704 18.1802C19.8819 18.1566 19.982 18.0936 20.0537 18.0021C20.1253 17.9105 20.1641 17.7961 20.1634 17.6783C20.1626 17.5604 20.1224 17.4465 20.0496 17.356C19.9768 17.2654 19.8758 17.2038 19.764 17.1817C19.6522 17.1595 19.5365 17.1782 19.4365 17.2346C19.3365 17.2909 19.2585 17.3814 19.2158 17.4906L17.0922 17.4964C17.1488 17.8113 17.0394 18.174 16.7726 18.3757C16.6135 18.4967 16.4179 18.5551 16.2209 18.5403C16.024 18.5255 15.8386 18.4386 15.6979 18.2951C15.5573 18.1516 15.4707 17.961 15.4536 17.7573C15.4365 17.5537 15.4901 17.3504 15.6048 17.184L15.2882 16.9346Z" fill="#CFD8DC"/>
</svg>
