<svg width="24" height="25" viewBox="0 0 24 25" fill="none" xmlns="http://www.w3.org/2000/svg">
<path fill-rule="evenodd" clip-rule="evenodd" d="M5 4.5C3.34315 4.5 2 5.84315 2 7.5V17.5C2 19.1569 3.34315 20.5 5 20.5H12V18.5H5C4.44772 18.5 4 18.0523 4 17.5V7.5C4 6.94772 4.44772 6.5 5 6.5H7.78388C8.01539 6.5 8.23973 6.58033 8.41862 6.72727L10.8119 8.69318C11.3486 9.13402 12.0216 9.375 12.7161 9.375H19C19.5523 9.375 20 9.82272 20 10.375V10.5H22V10.375C22 8.71815 20.6569 7.375 19 7.375H12.7161C12.4846 7.375 12.2603 7.29467 12.0814 7.14773L9.6881 5.18182C9.15142 4.74098 8.47841 4.5 7.78388 4.5H5Z" fill="#64748B"/>
<path fill-rule="evenodd" clip-rule="evenodd" d="M17.21 17.305C17.21 17.4549 17.3849 17.5486 17.5249 17.4736L18.895 16.7397C18.96 16.705 19 16.6406 19 16.5711V15.1033C19 14.9534 18.8251 14.8597 18.6851 14.9347L17.3149 15.6685C17.25 15.7033 17.21 15.7676 17.21 15.8372V17.305ZM18.4751 14.5973C18.6151 14.5223 18.6151 14.3349 18.4751 14.26L17.105 13.5261C17.04 13.4913 16.96 13.4913 16.895 13.5261L15.5022 14.2721C15.3623 14.3471 15.3623 14.5345 15.5022 14.6094L16.8724 15.3433C16.9374 15.3781 17.0174 15.3781 17.0823 15.3433L18.4751 14.5973ZM15.3149 14.9589C15.175 14.8839 15 14.9776 15 15.1276V16.5711C15 16.6406 15.04 16.705 15.105 16.7397L16.4752 17.4736C16.6151 17.5486 16.7901 17.4549 16.7901 17.305V15.8615C16.7901 15.7919 16.75 15.7276 16.6851 15.6928L15.3149 14.9589Z" fill="#2563EB"/>
<path d="M13.6995 12.9706L14.2935 13.2763C14.3551 13.308 14.4309 13.308 14.4925 13.2763L16.5004 12.2428C16.562 12.2111 16.6 12.1526 16.6 12.0892V11.4777C16.6 11.3412 16.4341 11.2558 16.3014 11.3241L13.6995 12.6632C13.5668 12.7315 13.5668 12.9023 13.6995 12.9706Z" fill="#93C5FD"/>
<path d="M17.4 11.4777V12.0892C17.4 12.1526 17.438 12.2111 17.4995 12.2428L19.5075 13.2763C19.5691 13.308 19.6449 13.308 19.7065 13.2763L20.3005 12.9706C20.4332 12.9023 20.4332 12.7315 20.3005 12.6632L17.6986 11.3241C17.5659 11.2558 17.4 11.3412 17.4 11.4777Z" fill="#93C5FD"/>
<path d="M20 14.1374V16.8626C20 16.9462 20.0382 17.0235 20.1003 17.0652L20.6991 17.4683C20.8328 17.5584 21 17.4458 21 17.2657V13.7343C21 13.5542 20.8328 13.4416 20.6991 13.5317L20.1003 13.9348C20.0382 13.9766 20 14.0538 20 14.1374Z" fill="#93C5FD"/>
<path d="M19.5075 17.7239L17.4995 18.7573C17.438 18.789 17.4 18.8476 17.4 18.9109V19.5224C17.4 19.659 17.5659 19.7443 17.6986 19.676L20.3005 18.3369C20.4332 18.2686 20.4332 18.0979 20.3005 18.0296L19.7065 17.7239C19.6449 17.6921 19.5691 17.6921 19.5075 17.7239Z" fill="#93C5FD"/>
<path d="M16.3005 18.7573L14.2926 17.7238C14.231 17.6922 14.1551 17.6922 14.0935 17.7238L13.4995 18.0296C13.3669 18.0978 13.3669 18.2686 13.4995 18.3369L16.1015 19.676C16.2342 19.7443 16.4 19.659 16.4 19.5224V18.911C16.4 18.8475 16.3621 18.789 16.3005 18.7573Z" fill="#93C5FD"/>
<path d="M14 16.8626V14.1374C14 14.0538 13.9618 13.9766 13.8997 13.9348L13.3009 13.5317C13.1672 13.4416 13 13.5542 13 13.7343V17.2657C13 17.4458 13.1672 17.5584 13.3009 17.4683L13.8997 17.0652C13.9618 17.0234 14 16.9462 14 16.8626Z" fill="#93C5FD"/>
</svg>
