<svg width="24" height="25" viewBox="0 0 24 25" fill="none" xmlns="http://www.w3.org/2000/svg">
<path fill-rule="evenodd" clip-rule="evenodd" d="M5 4.5C3.34315 4.5 2 5.84315 2 7.5V17.5C2 19.1569 3.34315 20.5 5 20.5H13V18.5H5C4.44772 18.5 4 18.0523 4 17.5V7.5C4 6.94772 4.44772 6.5 5 6.5H7.78388C8.01539 6.5 8.23973 6.58033 8.41862 6.72727L10.8119 8.69318C11.3486 9.13402 12.0216 9.375 12.7161 9.375H19C19.5523 9.375 20 9.82272 20 10.375V10.5H22V10.375C22 8.71815 20.6569 7.375 19 7.375H12.7161C12.4846 7.375 12.2603 7.29467 12.0814 7.14773L9.6881 5.18182C9.15142 4.74098 8.47841 4.5 7.78388 4.5H5Z" fill="#64748B"/>
<path fill-rule="evenodd" clip-rule="evenodd" d="M19.7441 16.3001C19.7764 16.0363 19.8004 15.7719 19.8004 15.5003C19.8004 15.2288 19.7764 14.9637 19.7441 14.6999H21.0961C21.1601 14.9559 21.1995 15.2236 21.1995 15.5003C21.1979 15.7702 21.1632 16.0388 21.0961 16.3001M19.0361 18.5243C19.276 18.0801 19.4603 17.5997 19.5883 17.0999H20.7683C20.3808 17.7674 19.7659 18.273 19.0361 18.5243ZM18.9359 16.3001H17.0641C17.024 16.0363 17.0001 15.7719 17.0001 15.5003C17.0001 15.2288 17.024 14.9604 17.0647 14.6999H18.9359C18.9721 14.9604 19.0006 15.2281 19.0006 15.5003C19.0006 15.7725 18.9721 16.0363 18.9359 16.3001ZM18.0003 18.684C17.6611 18.2011 17.403 17.666 17.2361 17.0999H18.7639C18.5972 17.666 18.3393 18.201 18.0003 18.684ZM16.4001 13.9001H15.2324C15.6159 13.2311 16.2301 12.725 16.96 12.4763C16.7208 12.9199 16.5397 13.4003 16.4001 13.9001ZM15.2324 17.1006H16.4001C16.5404 17.6004 16.7201 18.0801 16.96 18.5243C16.2315 18.2728 15.6181 17.7678 15.2324 17.1006ZM14.9039 16.3001C14.8368 16.0388 14.8021 15.7702 14.8005 15.5003C14.802 15.2303 14.8368 14.9614 14.9039 14.6999H16.2559C16.2242 14.9643 16.2003 15.2281 16.2003 15.5003C16.2003 15.7725 16.2242 16.0363 16.2559 16.3001M18.0003 12.3121C18.3393 12.7965 18.5973 13.3328 18.7639 13.9001H17.2361C17.403 13.3328 17.6611 12.7964 18.0003 12.3121ZM20.7676 13.9001H19.5883C19.463 13.4047 19.2776 12.9266 19.0361 12.4763C19.7666 12.726 20.3819 13.2318 20.7683 13.9001M18.0003 11.5C16.9397 11.501 15.9228 11.9228 15.1728 12.6728C14.4228 13.4228 14.001 14.4397 14 15.5003C14 16.0256 14.1035 16.5458 14.3045 17.0311C14.5056 17.5164 14.8002 17.9573 15.1717 18.3288C15.5432 18.7002 15.9842 18.9948 16.4695 19.1957C16.9549 19.3967 17.475 19.5001 18.0003 19.5C19.0611 19.5 20.0784 19.0786 20.8285 18.3285C21.5786 17.5784 22 16.5611 22 15.5003C22.0001 14.975 21.8967 14.4549 21.6957 13.9695C21.4948 13.4842 21.2002 13.0432 20.8288 12.6717C20.4573 12.3002 20.0164 12.0056 19.5311 11.8045C19.0458 11.6035 18.5256 11.5 18.0003 11.5Z" fill="#8CDBFF"/>
</svg>
