<svg width="24" height="25" viewBox="0 0 24 25" fill="none" xmlns="http://www.w3.org/2000/svg">
<path fill-rule="evenodd" clip-rule="evenodd" d="M5 4.5C3.34315 4.5 2 5.84315 2 7.5V17.5C2 19.1569 3.34315 20.5 5 20.5H12V18.5H5C4.44772 18.5 4 18.0523 4 17.5V7.5C4 6.94772 4.44772 6.5 5 6.5H7.78388C8.01539 6.5 8.23973 6.58033 8.41862 6.72727L10.8119 8.69318C11.3486 9.13402 12.0216 9.375 12.7161 9.375H19C19.5523 9.375 20 9.82272 20 10.375V10.5H22V10.375C22 8.71815 20.6569 7.375 19 7.375H12.7161C12.4846 7.375 12.2603 7.29467 12.0814 7.14773L9.6881 5.18182C9.15142 4.74098 8.47841 4.5 7.78388 4.5H5Z" fill="#64748B"/>
<path d="M17.1955 11.5L17.1441 11.552V13.422L17.1955 13.4748H17.8139L17.8654 13.422V11.552L17.8139 11.5H17.1955ZM15.3468 12.8197L14.9232 13.2477V13.334L15.5716 13.9891H16.0205L16.0807 13.9283V13.4748L15.4323 12.8197L15.3468 12.8197ZM13.0515 15.1353L13 15.1873V15.8127L13.0515 15.8647H15.5202L15.5717 15.8127V15.1873L15.5202 15.1353H13.0515ZM19.4798 15.1353L19.4283 15.1873V15.8127L19.4798 15.8647H21.9485L22 15.8127V15.1873L21.9485 15.1353H19.4798ZM15.5717 17.0109L14.9232 17.666V17.7516L15.3468 18.1803H15.4323L16.0808 17.5252V17.0709L16.0206 17.0109L15.5717 17.0109ZM17.1955 17.5252L17.1441 17.578V19.448L17.1955 19.5H17.8139L17.8654 19.448V17.578L17.8139 17.5252H17.1955Z" fill="#00BFA5"/>
<path d="M18.6568 16.7989H18.0397L17.9882 16.7468V15.2876C17.9882 15.028 17.8872 14.8267 17.5773 14.8197C17.4178 14.8155 17.2353 14.8197 17.0403 14.8274L17.011 14.8577V16.7461L16.9595 16.7982H16.3424L16.2909 16.7461V14.2534L16.3424 14.2013H17.7312C18.2709 14.2013 18.7083 14.6431 18.7083 15.1884V16.7469L18.6568 16.7989Z" fill="#CFD8DC"/>
</svg>
