<svg width="24" height="25" viewBox="0 0 24 25" fill="none" xmlns="http://www.w3.org/2000/svg">
<path fill-rule="evenodd" clip-rule="evenodd" d="M5 4.5C3.34315 4.5 2 5.84315 2 7.5V17.5C2 19.1569 3.34315 20.5 5 20.5H11V18.5H5C4.44772 18.5 4 18.0523 4 17.5V7.5C4 6.94772 4.44772 6.5 5 6.5H7.78388C8.01539 6.5 8.23973 6.58033 8.41862 6.72727L10.8119 8.69318C11.3486 9.13402 12.0216 9.375 12.7161 9.375H19C19.5523 9.375 20 9.82272 20 10.375V10.5H22V10.375C22 8.71815 20.6569 7.375 19 7.375H12.7161C12.4846 7.375 12.2603 7.29467 12.0814 7.14773L9.6881 5.18182C9.15142 4.74098 8.47841 4.5 7.78388 4.5H5Z" fill="#64748B"/>
<path fill-rule="evenodd" clip-rule="evenodd" d="M22.6698 12.3462C22.2805 11.7013 21.5837 11.5092 21.0922 11.5003C20.4887 11.4893 19.9934 11.7967 20.0866 11.9984C20.1068 12.0416 20.2202 12.268 20.2895 12.3613C20.3902 12.4958 20.57 12.3922 20.6327 12.3613C20.8214 12.2694 21.0228 12.2399 21.2511 12.2646C21.4689 12.2872 21.7583 12.4114 21.953 12.7544C22.4103 13.5633 20.9982 15.2271 19.2303 14.0752C17.4632 12.9225 15.7445 13.3047 14.9657 13.5366C14.1877 13.7692 13.8297 14.0024 14.1377 14.5424C14.5555 15.2765 14.4167 15.0514 14.8218 15.6586C15.4655 16.6233 16.8746 15.2147 16.8746 15.2147C15.8251 16.6377 14.9254 16.2939 14.5801 15.7965C14.3717 15.4871 14.1872 15.1645 14.0281 14.8312C11.3695 15.6936 12.0886 19.5 12.0886 19.5H13.4089C13.7446 18.0983 14.9486 18.1505 15.1545 19.5H16.1615C17.0529 16.7625 19.3109 19.5 19.3109 19.5H20.6237C20.256 17.6339 21.3622 17.0466 22.0597 15.9523C22.7571 14.8573 23.4173 13.5187 22.6698 12.3462ZM19.2833 15.9509C18.5888 15.7423 18.8372 15.107 18.8372 15.107C18.8372 15.107 19.4436 15.2875 20.2634 15.5331C20.2164 15.7307 19.8084 16.1087 19.2833 15.9509Z" fill="#2FFDE6"/>
</svg>
