<svg width="24" height="25" viewBox="0 0 24 25" fill="none" xmlns="http://www.w3.org/2000/svg">
<path fill-rule="evenodd" clip-rule="evenodd" d="M5 4.5C3.34315 4.5 2 5.84315 2 7.5V17.5C2 19.1569 3.34315 20.5 5 20.5H13V18.5H5C4.44772 18.5 4 18.0523 4 17.5V7.5C4 6.94772 4.44772 6.5 5 6.5H7.78388C8.01539 6.5 8.23973 6.58033 8.41862 6.72727L10.8119 8.69318C11.3486 9.13402 12.0216 9.375 12.7161 9.375H19C19.5523 9.375 20 9.82272 20 10.375V10.5H22V10.375C22 8.71815 20.6569 7.375 19 7.375H12.7161C12.4846 7.375 12.2603 7.29467 12.0814 7.14773L9.6881 5.18182C9.15142 4.74098 8.47841 4.5 7.78388 4.5H5Z" fill="#64748B"/>
<path fill-rule="evenodd" clip-rule="evenodd" d="M21.1109 12.3891V18.6117H14.8883V12.3891H21.1109ZM21.5994 11.5H14.3998C14.3473 11.4998 14.2952 11.51 14.2466 11.53C14.198 11.5501 14.1538 11.5795 14.1167 11.6167C14.0795 11.6538 14.0501 11.698 14.03 11.7466C14.01 11.7952 13.9998 11.8473 14 11.8998V19.0994C14 19.2775 14.1774 19.5 14.3998 19.5H21.5994C21.7775 19.5 22 19.2775 22 19.1002V11.9006C22 11.6774 21.7768 11.5 21.5994 11.5ZM17.5547 13.2774H20.2219V14.1664H17.5547V13.2774ZM17.5547 15.0555H20.2219V15.9445H17.5547V15.0555ZM17.5547 16.8336H20.2219V17.7226H17.5547V16.8336ZM15.7774 13.2774H16.6664V14.1664H15.7774V13.2774ZM15.7774 15.0555H16.6664V15.9445H15.7774V15.0555ZM15.7774 16.8336H16.6664V17.7226H15.7774V16.8336Z" fill="#FFCE50"/>
</svg>
