<svg width="24" height="25" viewBox="0 0 24 25" fill="none" xmlns="http://www.w3.org/2000/svg">
<path fill-rule="evenodd" clip-rule="evenodd" d="M5 4.5C3.34315 4.5 2 5.84315 2 7.5V17.5C2 19.1569 3.34315 20.5 5 20.5H13V18.5H5C4.44772 18.5 4 18.0523 4 17.5V7.5C4 6.94772 4.44772 6.5 5 6.5H7.78388C8.01539 6.5 8.23973 6.58033 8.41862 6.72727L10.8119 8.69318C11.3486 9.13402 12.0216 9.375 12.7161 9.375H19C19.5523 9.375 20 9.82272 20 10.375V10.5H22V10.375C22 8.71815 20.6569 7.375 19 7.375H12.7161C12.4846 7.375 12.2603 7.29467 12.0814 7.14773L9.6881 5.18182C9.15142 4.74098 8.47841 4.5 7.78388 4.5H5Z" fill="#64748B"/>
<path d="M16.7846 10.5554L13.2156 12.5905C13.1501 12.6278 13.0956 12.6815 13.0578 12.7462C13.0199 12.8109 13 12.8844 13 12.9592V17.0352C13 17.1101 13.0199 17.1836 13.0576 17.2484C13.0954 17.3133 13.1498 17.3671 13.2153 17.4046L16.7849 19.443C16.8505 19.4803 16.9249 19.5 17.0005 19.5C17.0762 19.5 17.1506 19.4803 17.2162 19.443L20.7847 17.405C20.8502 17.3675 20.9046 17.3136 20.9424 17.2488C20.9801 17.184 21 17.1104 21 17.0356V12.961C21 12.8862 20.9801 12.8127 20.9422 12.748C20.9044 12.6833 20.8499 12.6296 20.7844 12.5923L17.2162 10.5572C17.1506 10.5197 17.0763 10.5 17.0005 10.5C16.9248 10.5 16.8505 10.5197 16.7849 10.5572L16.7846 10.5554Z" fill="#388E3C"/>
<path d="M13 17.291C13.0354 17.3358 13.0796 17.3734 13.1302 17.4016L16.272 19.1518L16.7951 19.4429C16.8724 19.4858 16.9612 19.5053 17.05 19.4988C17.0794 19.4963 17.1085 19.4911 17.1369 19.4833L21 12.662C20.9705 12.6312 20.9366 12.6046 20.8993 12.5831L18.4989 11.2473L17.2313 10.544C17.1956 10.524 17.157 10.5092 17.1168 10.5L13 17.291Z" fill="#4CAF50"/>
<path d="M21 17.291C20.9646 17.3358 20.9204 17.3734 20.8698 17.4016L17.728 19.1518L17.2049 19.4429C17.1276 19.4858 17.0388 19.5053 16.95 19.4988C16.9206 19.4963 16.8915 19.4911 16.8631 19.4833L13 12.6613C13.0295 12.6305 13.0634 12.6039 13.1007 12.5824L15.5011 11.2473L16.7687 10.544C16.8044 10.524 16.843 10.5092 16.8832 10.5L21 17.291Z" fill="#66BB6A"/>
</svg>
