<svg width="24" height="25" viewBox="0 0 24 25" fill="none" xmlns="http://www.w3.org/2000/svg">
<path fill-rule="evenodd" clip-rule="evenodd" d="M5 4.5C3.34315 4.5 2 5.84315 2 7.5V17.5C2 19.1569 3.34315 20.5 5 20.5H13V18.5H5C4.44772 18.5 4 18.0523 4 17.5V7.5C4 6.94772 4.44772 6.5 5 6.5H7.78388C8.01539 6.5 8.23973 6.58033 8.41862 6.72727L10.8119 8.69318C11.3486 9.13402 12.0216 9.375 12.7161 9.375H19C19.5523 9.375 20 9.82272 20 10.375V10.5H22V10.375C22 8.71815 20.6569 7.375 19 7.375H12.7161C12.4846 7.375 12.2603 7.29467 12.0814 7.14773L9.6881 5.18182C9.15142 4.74098 8.47841 4.5 7.78388 4.5H5Z" fill="#64748B"/>
<path fill-rule="evenodd" clip-rule="evenodd" d="M18.61 16.1103C18.5679 16.1496 18.5344 16.1972 18.5115 16.2501C18.4886 16.3029 18.4768 16.3599 18.4768 16.4175C18.4768 16.4751 18.4886 16.5321 18.5115 16.585C18.5344 16.6378 18.5679 16.6854 18.61 16.7248C18.6917 16.8059 18.8021 16.8514 18.9173 16.8514C19.0324 16.8514 19.1429 16.8059 19.2246 16.7248C19.6299 16.3188 19.8575 15.7687 19.8575 15.195C19.8575 14.6214 19.6299 14.0712 19.2246 13.6653L17.6927 12.1329C17.2867 11.7276 16.7365 11.5 16.1628 11.5C15.5892 11.5 15.0389 11.7276 14.633 12.1329C14.2276 12.5389 14 13.089 14 13.6627C14 14.2363 14.2276 14.7865 14.633 15.1924L15.2769 15.8377C15.2718 15.481 15.3304 15.1263 15.4502 14.7904L15.2475 14.5825C15.1262 14.4625 15.0298 14.3196 14.9641 14.1621C14.8983 14.0046 14.8645 13.8356 14.8645 13.6649C14.8645 13.4943 14.8983 13.3253 14.9641 13.1678C15.0298 13.0103 15.1262 12.8674 15.2475 12.7474C15.3675 12.6262 15.5104 12.5299 15.6678 12.4642C15.8253 12.3986 15.9942 12.3647 16.1648 12.3647C16.3354 12.3647 16.5043 12.3986 16.6618 12.4642C16.8192 12.5299 16.9621 12.6262 17.0821 12.7474L18.61 14.2752C18.7313 14.3952 18.8277 14.5381 18.8934 14.6956C18.9592 14.8531 18.993 15.0221 18.993 15.1927C18.993 15.3634 18.9592 15.5324 18.8934 15.6899C18.8277 15.8474 18.7313 15.9903 18.61 16.1103ZM17.3894 14.2752C17.3077 14.1941 17.1972 14.1486 17.0821 14.1486C16.9669 14.1486 16.8565 14.1941 16.7748 14.2752C16.3695 14.6812 16.1418 15.2313 16.1418 15.805C16.1418 16.3786 16.3695 16.9288 16.7748 17.3347L18.3073 18.8671C18.7133 19.2724 19.2635 19.5 19.8372 19.5C20.4108 19.5 20.9611 19.2724 21.367 18.8671C21.7724 18.4611 22 17.911 22 17.3373C22 16.7637 21.7724 16.2135 21.367 15.8076L20.7224 15.1623C20.7273 15.5204 20.6686 15.8766 20.5491 16.2142L20.7525 16.4169C20.8739 16.5369 20.9704 16.6798 21.0362 16.8374C21.102 16.9949 21.1359 17.164 21.1359 17.3347C21.1359 17.5055 21.102 17.6745 21.0362 17.8321C20.9704 17.9896 20.8739 18.1326 20.7525 18.2526C20.6325 18.3739 20.4896 18.4703 20.332 18.536C20.1745 18.6017 20.0056 18.6356 19.8349 18.6356C19.6642 18.6356 19.4952 18.6017 19.3377 18.536C19.1802 18.4703 19.0373 18.3739 18.9173 18.2526L17.3894 16.7248C17.268 16.6048 17.1717 16.4619 17.1059 16.3044C17.0402 16.1469 17.0063 15.9779 17.0063 15.8073C17.0063 15.6366 17.0402 15.4676 17.1059 15.3101C17.1717 15.1526 17.268 15.0097 17.3894 14.8897C17.4314 14.8504 17.4649 14.8028 17.4878 14.7499C17.5107 14.6971 17.5226 14.6401 17.5226 14.5825C17.5226 14.5249 17.5107 14.4679 17.4878 14.415C17.4649 14.3622 17.4314 14.3146 17.3894 14.2752Z" fill="#C084FC"/>
</svg>
