<svg width="24" height="24" viewBox="0 0 24 24" fill="none" xmlns="http://www.w3.org/2000/svg">
<path fill-rule="evenodd" clip-rule="evenodd" d="M5 4C3.34315 4 2 5.34315 2 7V17C2 18.6569 3.34315 20 5 20H12V18H5C4.44772 18 4 17.5523 4 17V7C4 6.44772 4.44772 6 5 6H7.78388C8.01539 6 8.23973 6.08033 8.41862 6.22727L10.8119 8.19318C11.3486 8.63402 12.0216 8.875 12.7161 8.875H19C19.5523 8.875 20 9.32272 20 9.875V10H22V9.875C22 8.21815 20.6569 6.875 19 6.875H12.7161C12.4846 6.875 12.2603 6.79467 12.0814 6.64773L9.6881 4.68182C9.15142 4.24098 8.47841 4 7.78388 4H5Z" fill="#64748B"/>
<path fill-rule="evenodd" clip-rule="evenodd" d="M17.21 16.805C17.21 16.9549 17.3849 17.0486 17.5249 16.9736L18.895 16.2397C18.96 16.205 19 16.1406 19 16.0711V14.6033C19 14.4534 18.8251 14.3597 18.6851 14.4347L17.3149 15.1685C17.25 15.2033 17.21 15.2676 17.21 15.3372V16.805ZM18.4751 14.0973C18.6151 14.0223 18.6151 13.8349 18.4751 13.76L17.105 13.0261C17.04 12.9913 16.96 12.9913 16.895 13.0261L15.5022 13.7721C15.3623 13.8471 15.3623 14.0345 15.5022 14.1094L16.8724 14.8433C16.9374 14.8781 17.0174 14.8781 17.0823 14.8433L18.4751 14.0973ZM15.3149 14.4589C15.175 14.3839 15 14.4776 15 14.6276V16.0711C15 16.1406 15.04 16.205 15.105 16.2397L16.4752 16.9736C16.6151 17.0486 16.7901 16.9549 16.7901 16.805V15.3615C16.7901 15.2919 16.75 15.2276 16.6851 15.1928L15.3149 14.4589Z" fill="#2563EB"/>
<path d="M13.6995 12.4705L14.2935 12.7762C14.3551 12.8079 14.4309 12.8079 14.4925 12.7762L16.5004 11.7428C16.562 11.7111 16.6 11.6525 16.6 11.5891V10.9777C16.6 10.8411 16.4341 10.7557 16.3014 10.824L13.6995 12.1632C13.5668 12.2315 13.5668 12.4022 13.6995 12.4705Z" fill="#93C5FD"/>
<path d="M17.4 10.9777V11.5891C17.4 11.6525 17.438 11.7111 17.4995 11.7428L19.5075 12.7762C19.5691 12.8079 19.6449 12.8079 19.7065 12.7762L20.3005 12.4705C20.4332 12.4022 20.4332 12.2315 20.3005 12.1632L17.6986 10.824C17.5659 10.7557 17.4 10.8411 17.4 10.9777Z" fill="#93C5FD"/>
<path d="M20 13.6374V16.3626C20 16.4462 20.0382 16.5235 20.1003 16.5652L20.6991 16.9683C20.8328 17.0584 21 16.9458 21 16.7657V13.2343C21 13.0542 20.8328 12.9416 20.6991 13.0317L20.1003 13.4348C20.0382 13.4766 20 13.5538 20 13.6374Z" fill="#93C5FD"/>
<path d="M19.5075 17.2238L17.4995 18.2572C17.438 18.2889 17.4 18.3475 17.4 18.4109V19.0223C17.4 19.1589 17.5659 19.2443 17.6986 19.176L20.3005 17.8368C20.4332 17.7685 20.4332 17.5978 20.3005 17.5295L19.7065 17.2238C19.6449 17.1921 19.5691 17.1921 19.5075 17.2238Z" fill="#93C5FD"/>
<path d="M16.3005 18.2572L14.2926 17.2238C14.231 17.1921 14.1551 17.1921 14.0935 17.2238L13.4995 17.5295C13.3669 17.5978 13.3669 17.7685 13.4995 17.8368L16.1015 19.176C16.2342 19.2443 16.4 19.1589 16.4 19.0223V18.4109C16.4 18.3475 16.3621 18.2889 16.3005 18.2572Z" fill="#93C5FD"/>
<path d="M14 16.3626V13.6374C14 13.5538 13.9618 13.4766 13.8997 13.4348L13.3009 13.0317C13.1672 12.9416 13 13.0542 13 13.2343V16.7657C13 16.9458 13.1672 17.0584 13.3009 16.9683L13.8997 16.5652C13.9618 16.5234 14 16.4462 14 16.3626Z" fill="#93C5FD"/>
</svg>
