<svg width="24" height="25" viewBox="0 0 24 25" fill="none" xmlns="http://www.w3.org/2000/svg">
<g clip-path="url(#clip0_808_604)">
<path fill-rule="evenodd" clip-rule="evenodd" d="M5 4.5C3.34315 4.5 2 5.84315 2 7.5V17.5C2 19.1569 3.34315 20.5 5 20.5H13V18.5H5C4.44772 18.5 4 18.0523 4 17.5V7.5C4 6.94772 4.44772 6.5 5 6.5H7.78388C8.01539 6.5 8.23973 6.58033 8.41862 6.72727L10.8119 8.69318C11.3486 9.13402 12.0216 9.375 12.7161 9.375H19C19.5523 9.375 20 9.82272 20 10.375V10.5H22V10.375C22 8.71815 20.6569 7.375 19 7.375H12.7161C12.4846 7.375 12.2603 7.29467 12.0814 7.14773L9.6881 5.18182C9.15142 4.74098 8.47841 4.5 7.78388 4.5H5Z" fill="#64748B"/>
<path fill-rule="evenodd" clip-rule="evenodd" d="M20.2104 12.5023C20.3595 12.7303 20.2986 13.0358 20.0733 13.1892L19.9001 13.3072C19.6688 13.4647 19.3533 13.4017 19.2002 13.1675L18.7176 12.4294C18.5685 12.2013 18.6294 11.8959 18.8545 11.7425L19.0277 11.6245C19.259 11.4669 19.5746 11.5299 19.7277 11.7641L20.2104 12.5023Z" fill="url(#paint0_linear_808_604)"/>
<path fill-rule="evenodd" clip-rule="evenodd" d="M21.2918 17.6453L22.4632 19.4367C22.7614 19.8928 22.6395 20.5037 22.1891 20.8105L21.8074 21.0705C21.3449 21.3855 20.7138 21.2596 20.4075 20.7912L19.2568 19.0313C19.0913 18.7785 19.1588 18.4398 19.4084 18.2696L20.5435 17.4963C20.7907 17.3279 21.128 17.3951 21.2918 17.6453Z" fill="url(#paint1_linear_808_604)"/>
<path fill-rule="evenodd" clip-rule="evenodd" d="M18.7288 19.3914L18.8363 19.5556C18.9856 19.7837 18.9247 20.0893 18.6994 20.2427L17.9771 20.7345C17.7459 20.8919 17.4304 20.829 17.2773 20.5949L17.1059 20.3329C16.9814 20.1427 17.0323 19.8878 17.2202 19.7599L18.0097 19.2223C18.241 19.0647 18.5567 19.1278 18.7098 19.3621L18.7288 19.3914Z" fill="url(#paint2_linear_808_604)"/>
<path fill-rule="evenodd" clip-rule="evenodd" d="M22.1378 16.4099L22.1512 16.4008C22.3824 16.2433 22.6979 16.3063 22.851 16.5405L22.9779 16.7345C23.127 16.9625 23.066 17.268 22.8408 17.4214L22.6677 17.5392C22.4363 17.6968 22.1207 17.6337 21.9677 17.3994L21.8706 17.2508L22.0303 17.142C22.2556 16.9886 22.3165 16.683 22.1672 16.4549L22.1378 16.4099ZM21.8706 17.2508L21.841 17.2056C21.6919 16.9776 21.7528 16.6721 21.978 16.5187L22.1378 16.4099L22.1672 16.4549C22.3165 16.683 22.2556 16.9886 22.0303 17.142L21.8706 17.2508Z" fill="url(#paint3_linear_808_604)"/>
<path fill-rule="evenodd" clip-rule="evenodd" d="M15.1263 16.5585C14.9404 16.685 14.6868 16.6344 14.5638 16.4461L14.0264 15.6241C13.8773 15.396 13.9382 15.0906 14.1634 14.9373L14.8856 14.4453C15.1169 14.2878 15.4324 14.3507 15.5856 14.585L16.0287 15.2628L16.068 15.3229C16.2174 15.5509 16.1566 15.8566 15.9313 16.0101L15.1263 16.5585Z" fill="url(#paint4_linear_808_604)"/>
<path fill-rule="evenodd" clip-rule="evenodd" d="M18.5922 13.5171C18.7633 13.7787 18.6934 14.1291 18.4351 14.305L17.3301 15.0574C17.0747 15.2314 16.7262 15.1618 16.5572 14.9031L15.4018 13.1364C15.1036 12.6803 15.2255 12.0694 15.6759 11.7626L16.0576 11.5026C16.5201 11.1876 17.1512 11.3135 17.4574 11.7818L18.5922 13.5171Z" fill="url(#paint5_linear_808_604)"/>
<path fill-rule="evenodd" clip-rule="evenodd" d="M20.045 13.2089L19.4795 13.5941L19.1711 13.1228L18.774 12.5153C18.5937 12.2395 18.6674 11.8701 18.9397 11.6845C19.2195 11.4939 19.6012 11.57 19.7865 11.8533L20.1917 12.4729C20.3515 12.7172 20.2863 13.0445 20.045 13.2089Z" fill="url(#paint6_linear_808_604)"/>
<path fill-rule="evenodd" clip-rule="evenodd" d="M17.5176 20.216L17.2197 19.7597L18.4302 18.9354L18.7285 19.3911L17.5176 20.216Z" fill="#714896"/>
<rect width="0.261251" height="0.608205" transform="matrix(0.832571 -0.553918 0.538302 0.842752 19.1456 13.0814)" fill="url(#paint7_linear_808_604)"/>
<path fill-rule="evenodd" clip-rule="evenodd" d="M21.8702 17.2516L21.5724 16.796L22.138 16.4106L22.4358 16.8662L21.8702 17.2516Z" fill="#6F4795"/>
<path fill-rule="evenodd" clip-rule="evenodd" d="M15.1262 16.5584L14.818 16.0871L16.029 15.2628L16.3367 15.734L15.1262 16.5584Z" fill="#88519F"/>
<path fill-rule="evenodd" clip-rule="evenodd" d="M20.0254 13.0363L19.7172 12.565L20.2828 12.1802L20.591 12.6509L20.0254 13.0363Z" fill="#85509E"/>
<path fill-rule="evenodd" clip-rule="evenodd" d="M21.2915 17.6454L19.2564 19.0313L18.9586 18.5756L20.9937 17.1897L21.2915 17.6454Z" fill="#8D166A"/>
<path fill-rule="evenodd" clip-rule="evenodd" d="M18.592 13.5171L18.9002 13.9878L16.8651 15.3738L16.5569 14.903L18.592 13.5171Z" fill="#A70D6F"/>
<path fill-rule="evenodd" clip-rule="evenodd" d="M14.2963 13.3123C14.4351 13.2177 14.6245 13.2555 14.7164 13.3961L14.7722 13.4814C14.8616 13.6183 14.825 13.8016 14.6898 13.8936L14.6104 13.9476C14.4716 14.042 14.2824 14.0042 14.1906 13.8638L14.1348 13.7785C14.0453 13.6417 14.0818 13.4584 14.2169 13.3664L14.2963 13.3123Z" fill="#9E61AD"/>
<path fill-rule="evenodd" clip-rule="evenodd" d="M16.3708 20.3546C16.5096 20.2601 16.699 20.2979 16.7908 20.4384L16.8466 20.5238C16.9361 20.6607 16.8995 20.8439 16.7643 20.9359L16.6846 20.9902C16.5457 21.0847 16.3563 21.0469 16.2645 20.9062L16.2088 20.8208C16.1195 20.684 16.1561 20.5009 16.2911 20.4089L16.3708 20.3546Z" fill="#8053A3"/>
<path fill-rule="evenodd" clip-rule="evenodd" d="M15.951 20.2007C15.4891 20.5153 14.8568 20.3854 14.5502 19.9128L13.9574 18.9987C13.6607 18.5413 13.7805 17.9327 14.2273 17.6277L21.6117 12.5863C22.0641 12.2775 22.683 12.3948 22.9969 12.849L23.6217 13.753C23.9385 14.2114 23.8243 14.8381 23.3674 15.1493L15.951 20.2007Z" fill="url(#paint8_linear_808_604)"/>
</g>
<defs>
<linearGradient id="paint0_linear_808_604" x1="10.5703" y1="8.08459" x2="24.4872" y2="19.5797" gradientUnits="userSpaceOnUse">
<stop stop-color="#C06FBB"/>
<stop offset="1" stop-color="#6E4D9B"/>
</linearGradient>
<linearGradient id="paint1_linear_808_604" x1="21.9068" y1="20.9502" x2="14.1429" y2="11.3321" gradientUnits="userSpaceOnUse">
<stop stop-color="#6E4D9B"/>
<stop offset="0.14" stop-color="#77327A"/>
<stop offset="0.29" stop-color="#B31777"/>
<stop offset="0.84" stop-color="#CD0F7E"/>
<stop offset="1" stop-color="#ED2C89"/>
</linearGradient>
<linearGradient id="paint2_linear_808_604" x1="10.5709" y1="4.4671" x2="22.2298" y2="21.7608" gradientUnits="userSpaceOnUse">
<stop stop-color="#C06FBB"/>
<stop offset="1" stop-color="#6E4D9B"/>
</linearGradient>
<linearGradient id="paint3_linear_808_604" x1="7.82505" y1="8.08399" x2="23.5568" y2="20.703" gradientUnits="userSpaceOnUse">
<stop stop-color="#C06FBB"/>
<stop offset="1" stop-color="#6E4D9B"/>
</linearGradient>
<linearGradient id="paint4_linear_808_604" x1="10.138" y1="8.08432" x2="24.8119" y2="20.7621" gradientUnits="userSpaceOnUse">
<stop stop-color="#C06FBB"/>
<stop offset="1" stop-color="#6E4D9B"/>
</linearGradient>
<linearGradient id="paint5_linear_808_604" x1="22.5758" y1="22.2178" x2="14.7944" y2="12.5542" gradientUnits="userSpaceOnUse">
<stop stop-color="#6E4D9B"/>
<stop offset="0.14" stop-color="#77327A"/>
<stop offset="0.29" stop-color="#B31777"/>
<stop offset="0.84" stop-color="#CD0F7E"/>
<stop offset="1" stop-color="#ED2C89"/>
</linearGradient>
<linearGradient id="paint6_linear_808_604" x1="10.5707" y1="7.41466" x2="24.7639" y2="21.5527" gradientUnits="userSpaceOnUse">
<stop stop-color="#C06FBB"/>
<stop offset="1" stop-color="#6E4D9B"/>
</linearGradient>
<linearGradient id="paint7_linear_808_604" x1="0.0669687" y1="3.84415" x2="1.31964" y2="-3.43998" gradientUnits="userSpaceOnUse">
<stop stop-color="#C06FBB"/>
<stop offset="1" stop-color="#6E4D9B"/>
</linearGradient>
<linearGradient id="paint8_linear_808_604" x1="14.2826" y1="19.5468" x2="23.52" y2="13.5531" gradientUnits="userSpaceOnUse">
<stop stop-color="#6E4D9B"/>
<stop offset="0.14" stop-color="#77327A"/>
<stop offset="0.53" stop-color="#B31777"/>
<stop offset="0.79" stop-color="#CD0F7E"/>
<stop offset="1" stop-color="#ED2C89"/>
</linearGradient>
<clipPath id="clip0_808_604">
<rect width="24" height="24" fill="white" transform="translate(0 0.5)"/>
</clipPath>
</defs>
</svg>
