<svg width="24" height="25" viewBox="0 0 24 25" fill="none" xmlns="http://www.w3.org/2000/svg">
<path fill-rule="evenodd" clip-rule="evenodd" d="M5 4.5C3.34315 4.5 2 5.84315 2 7.5V17.5C2 19.1569 3.34315 20.5 5 20.5H13V18.5H5C4.44772 18.5 4 18.0523 4 17.5V7.5C4 6.94772 4.44772 6.5 5 6.5H7.78388C8.01539 6.5 8.23973 6.58033 8.41862 6.72727L10.8119 8.69318C11.3486 9.13402 12.0216 9.375 12.7161 9.375H19C19.5523 9.375 20 9.82272 20 10.375V10.5H22V10.375C22 8.71815 20.6569 7.375 19 7.375H12.7161C12.4846 7.375 12.2603 7.29467 12.0814 7.14773L9.6881 5.18182C9.15142 4.74098 8.47841 4.5 7.78388 4.5H5Z" fill="#64748B"/>
<path fill-rule="evenodd" clip-rule="evenodd" d="M19.5909 12.0742C19.2594 11.5674 19.1808 11.5 18.5064 11.5H18.4902C17.8151 11.5 17.7406 11.5674 17.4051 12.0742C17.0933 12.5497 14 18.2364 14 18.3949C14 18.6249 14.059 18.8426 14.2725 19.1514C14.4893 19.4644 14.8641 19.6385 15.1366 19.3616C15.3216 19.1752 17.3061 15.7417 18.2652 14.443C18.2918 14.4054 18.327 14.3747 18.3678 14.3535C18.4087 14.3323 18.454 14.3213 18.5 14.3213C18.546 14.3213 18.5913 14.3323 18.6322 14.3535C18.673 14.3747 18.7082 14.4054 18.7348 14.443C19.6932 15.7417 21.6784 19.1752 21.8634 19.3616C22.1359 19.6385 22.5107 19.4637 22.7275 19.1514C22.9404 18.8426 23 18.6249 23 18.3949C22.9959 18.2364 19.9026 12.5456 19.5909 12.0742Z" fill="#8CDBFF"/>
</svg>
