<svg width="24" height="25" viewBox="0 0 24 25" fill="none" xmlns="http://www.w3.org/2000/svg">
<path fill-rule="evenodd" clip-rule="evenodd" d="M5 4.5C3.34315 4.5 2 5.84315 2 7.5V17.5C2 19.1569 3.34315 20.5 5 20.5H13V18.5H5C4.44772 18.5 4 18.0523 4 17.5V7.5C4 6.94772 4.44772 6.5 5 6.5H7.78388C8.01539 6.5 8.23973 6.58033 8.41862 6.72727L10.8119 8.69318C11.3486 9.13402 12.0216 9.375 12.7161 9.375H19C19.5523 9.375 20 9.82272 20 10.375V10.5H22V10.375C22 8.71815 20.6569 7.375 19 7.375H12.7161C12.4846 7.375 12.2603 7.29467 12.0814 7.14773L9.6881 5.18182C9.15142 4.74098 8.47841 4.5 7.78388 4.5H5Z" fill="#64748B"/>
<path fill-rule="evenodd" clip-rule="evenodd" d="M16.8001 19.5C16.6939 19.5 16.5921 19.4578 16.5171 19.3828C16.442 19.3077 16.3999 19.2059 16.3999 19.0998V17.8999H14.8004C14.6953 17.8999 14.5912 17.8792 14.4941 17.8389C14.397 17.7987 14.3087 17.7398 14.2344 17.6654C14.1601 17.5911 14.1011 17.5029 14.0609 17.4058C14.0207 17.3087 14 17.2046 14 17.0995V12.3004C14 11.8557 14.3602 11.5 14.8004 11.5H21.2003C21.4124 11.5002 21.6158 11.5846 21.7658 11.7347C21.9158 11.8847 22 12.0882 22 12.3004V17.1001C22 17.2052 21.9793 17.3093 21.9391 17.4064C21.8989 17.5035 21.8399 17.5918 21.7656 17.6661C21.6913 17.7404 21.603 17.7994 21.5059 17.8396C21.4088 17.8798 21.3047 17.9005 21.1996 17.9005H18.7604L17.2803 19.3838C17.2053 19.4571 17.105 19.4987 17.0002 19.5H16.8001ZM15.2006 12.7006V13.501H20.8001V12.7006H15.2006ZM15.2006 14.3007V15.1011H18.4002V14.3007H15.2006ZM15.1999 15.9002V16.7006H19.1993V15.9002H15.1999Z" fill="#FFCE50"/>
</svg>
