<svg width="24" height="25" viewBox="0 0 24 25" fill="none" xmlns="http://www.w3.org/2000/svg">
<path fill-rule="evenodd" clip-rule="evenodd" d="M5 4.5C3.34315 4.5 2 5.84315 2 7.5V17.5C2 19.1569 3.34315 20.5 5 20.5H13V18.5H5C4.44772 18.5 4 18.0523 4 17.5V7.5C4 6.94772 4.44772 6.5 5 6.5H7.78388C8.01539 6.5 8.23973 6.58033 8.41862 6.72727L10.8119 8.69318C11.3486 9.13402 12.0216 9.375 12.7161 9.375H19C19.5523 9.375 20 9.82272 20 10.375V10.5H22V10.375C22 8.71815 20.6569 7.375 19 7.375H12.7161C12.4846 7.375 12.2603 7.29467 12.0814 7.14773L9.6881 5.18182C9.15142 4.74098 8.47841 4.5 7.78388 4.5H5Z" fill="#64748B"/>
<path fill-rule="evenodd" clip-rule="evenodd" d="M19.0001 16.0003H16.9999V15.0006H19.0001M19.0001 18.0004H16.9999V17.0007H19.0001M22 14.0003H20.5954C20.3697 13.6093 20.0585 13.2744 19.6851 13.0208L20.5 12.2052L19.7948 11.5L18.7101 12.5853C18.2452 12.4724 17.76 12.4724 17.2951 12.5853L16.2046 11.5007L15.4993 12.2059L16.3097 13.0201C15.9389 13.2755 15.6297 13.6104 15.4046 14.0003H14V15.0006H15.0448C15.0172 15.1658 15.0022 15.3327 14.9998 15.5001V16.0003H14V17H14.9998V17.5002C14.9998 17.67 15.0193 17.8352 15.0448 18.0004H14V19.0001H15.4046C15.9251 19.8947 16.8902 20.5 18.0003 20.5C19.1104 20.5 20.0749 19.8953 20.5954 19.0001H22V18.0004H20.9552C20.98 17.8352 21.0002 17.67 21.0002 17.5002V17H22V16.0003H21.0002V15.5001C21.0002 15.3304 20.9807 15.1652 20.9552 15.0006H22V14.0003Z" fill="#FFCE50"/>
</svg>
