<svg width="24" height="24" viewBox="0 0 24 24" fill="none" xmlns="http://www.w3.org/2000/svg">
<path fill-rule="evenodd" clip-rule="evenodd" d="M5 4C3.34315 4 2 5.34315 2 7V17C2 18.6569 3.34315 20 5 20H13V18H5C4.44772 18 4 17.5523 4 17V7C4 6.44772 4.44772 6 5 6H7.78388C8.01539 6 8.23973 6.08033 8.41862 6.22727L10.8119 8.19318C11.3486 8.63402 12.0216 8.875 12.7161 8.875H19C19.5523 8.875 20 9.32272 20 9.875V10H22V9.875C22 8.21815 20.6569 6.875 19 6.875H12.7161C12.4846 6.875 12.2603 6.79467 12.0814 6.64773L9.6881 4.68182C9.15142 4.24098 8.47841 4 7.78388 4H5Z" fill="#64748B"/>
<path d="M20.3415 14.646C20.2269 14.5117 20.0868 14.3945 19.9563 14.2802C19.6221 14.0145 19.2401 13.8231 18.9218 13.5431C18.5605 13.2141 18.3239 12.7913 18.2456 12.3348C18.1673 11.8783 18.2513 11.4112 18.4856 11C18.0081 11.1029 17.5943 11.3343 17.2409 11.5857C16.6006 12.0469 16.1395 12.6783 15.9239 13.3893C15.7083 14.1003 15.7492 14.8543 16.0408 15.5432C16.0631 15.586 16.0822 15.6289 16.0822 15.6889C16.0822 15.786 16.0058 15.8775 15.9071 15.9118C15.7925 15.9575 15.6716 15.9289 15.5761 15.8575C15.2752 15.5356 15.083 15.1433 15.0221 14.7267C14.9612 14.3101 15.0341 13.8865 15.2323 13.5059C14.8181 13.823 14.4918 14.2222 14.2791 14.672C14.0664 15.1218 13.9731 15.6098 14.0067 16.0975C14.0385 16.3204 14.0671 16.5432 14.1531 16.7661C14.2199 17.0318 14.3568 17.2976 14.5064 17.5347C14.7796 17.9206 15.1434 18.2484 15.5722 18.4952C16.0011 18.7419 16.4847 18.9017 16.9895 18.9634C18.0559 19.0863 19.2019 18.912 20.0232 18.2548C20.4723 17.8962 20.7868 17.4216 20.9236 16.8963C21.0604 16.3709 21.0127 15.8204 20.7871 15.3203L20.7235 15.206C20.6184 15.0002 20.3383 14.6459 20.3383 14.6459M18.7593 17.4461C18.6161 17.5519 18.3869 17.6662 18.2086 17.7119C17.6484 17.889 17.0881 17.6404 16.757 17.3461C17.0107 17.2985 17.2443 17.1877 17.4312 17.0266C17.6181 16.8654 17.7507 16.6603 17.8139 16.4347C17.8967 16.0803 17.7375 15.786 17.6739 15.446C17.6033 15.1404 17.632 14.823 17.7566 14.5317C17.8521 14.6974 17.954 14.866 18.075 15.0003C18.457 15.446 19.0618 15.6403 19.1923 16.2461C19.2114 16.3061 19.2241 16.3689 19.2241 16.4346C19.2295 16.623 19.1909 16.8103 19.1109 16.9845C19.0308 17.1587 18.9111 17.3159 18.7593 17.4461Z" fill="#FF7043"/>
</svg>
