<svg width="24" height="24" viewBox="0 0 24 24" fill="none" xmlns="http://www.w3.org/2000/svg">
<path fill-rule="evenodd" clip-rule="evenodd" d="M5 4C3.34315 4 2 5.34315 2 7V17C2 18.6569 3.34315 20 5 20H13V18H5C4.44772 18 4 17.5523 4 17V7C4 6.44772 4.44772 6 5 6H7.78388C8.01539 6 8.23973 6.08033 8.41862 6.22727L10.8119 8.19318C11.3486 8.63402 12.0216 8.875 12.7161 8.875H19C19.5523 8.875 20 9.32272 20 9.875V10H22V9.875C22 8.21815 20.6569 6.875 19 6.875H12.7161C12.4846 6.875 12.2603 6.79467 12.0814 6.64773L9.6881 4.68182C9.15142 4.24098 8.47841 4 7.78388 4H5Z" fill="#64748B"/>
<path d="M16.5846 11C16.1731 11.0861 15.7669 11.206 15.3856 11.3872C15.3946 11.7048 15.4159 12.009 15.4602 12.3175C15.3124 12.4066 15.1561 12.4835 15.0179 12.5884C14.8771 12.6902 14.7338 12.7878 14.6065 12.9071C14.3494 12.7459 14.0819 12.5993 13.8061 12.4678C13.5079 12.7708 13.2282 13.098 13 13.4641C13.1716 13.7259 13.351 13.9713 13.5445 14.204H13.5496V16.4511L13.5625 16.4517L15.0237 16.5845C15.0609 16.5877 15.0956 16.6033 15.1217 16.6285C15.1477 16.6538 15.1633 16.6869 15.1658 16.722L15.2108 17.3299L16.4856 17.4153L16.5736 16.8541C16.5792 16.819 16.5979 16.7868 16.6265 16.7636C16.655 16.7403 16.6915 16.7275 16.7292 16.7275H18.2708C18.3486 16.7275 18.4148 16.7814 18.4264 16.8541L18.5144 17.4153L19.7892 17.3299L19.8342 16.722C19.837 16.687 19.8528 16.6541 19.8788 16.6289C19.9047 16.6038 19.9393 16.588 19.9763 16.5845L21.4369 16.4517L21.4497 16.4511V16.2717H21.4504V14.2046H21.4555C21.649 13.9719 21.8284 13.7265 22 13.4647C21.7704 13.106 21.5001 12.772 21.1939 12.4684C20.9168 12.5999 20.6474 12.749 20.3935 12.9071C20.2662 12.7878 20.1229 12.6902 19.9821 12.5884C19.8439 12.4835 19.6883 12.4072 19.5404 12.3175C19.5841 12.0084 19.606 11.7042 19.615 11.3872C19.2338 11.206 18.8269 11.0867 18.4154 11C18.2509 11.26 18.1011 11.5418 17.9699 11.8175C17.8156 11.7943 17.6595 11.7826 17.5032 11.7824H17.4968C17.3406 11.7824 17.1844 11.7945 17.0301 11.8175C16.8989 11.5418 16.7491 11.26 16.5846 11ZM15.4287 14.287C15.5444 14.284 15.6596 14.3025 15.7678 14.3415C15.8759 14.3804 15.9748 14.4391 16.0589 14.5141C16.143 14.5891 16.2105 14.679 16.2577 14.7787C16.3049 14.8783 16.3308 14.9858 16.3339 15.0948C16.3371 15.2039 16.3173 15.3125 16.2759 15.4144C16.2345 15.5163 16.1722 15.6095 16.0925 15.6887C16.0129 15.7679 15.9175 15.8315 15.8117 15.8759C15.706 15.9203 15.592 15.9447 15.4763 15.9475C15.2428 15.9533 15.0165 15.8714 14.847 15.72C14.6775 15.5685 14.5788 15.3598 14.5725 15.1397C14.5662 14.9196 14.6528 14.7062 14.8134 14.5463C14.9739 14.3864 15.1953 14.2932 15.4287 14.287ZM19.5713 14.287C19.8049 14.2869 20.0289 14.3742 20.1942 14.5298C20.3595 14.6854 20.4525 14.8965 20.4526 15.1167C20.4528 15.3369 20.3602 15.5481 20.1951 15.7039C20.0301 15.8597 19.8062 15.9474 19.5726 15.9475H19.5719C19.3383 15.9476 19.1143 15.8602 18.9491 15.7046C18.7838 15.5489 18.691 15.3378 18.6909 15.1176C18.6908 14.8974 18.7835 14.6862 18.9486 14.5304C19.1137 14.3747 19.3377 14.2871 19.5713 14.287ZM17.5 14.7725C17.6569 14.7725 17.7835 14.8815 17.7835 15.0155V15.7797C17.7835 15.9136 17.6562 16.0227 17.5 16.0227C17.3431 16.0227 17.2165 15.9142 17.2165 15.7797V15.0155C17.2165 14.8809 17.3431 14.7725 17.5 14.7725Z" fill="#8CDBFF"/>
<path d="M20.1383 16.868L20.0933 17.4795C20.0909 17.5152 20.0748 17.5489 20.0479 17.5742C20.021 17.5996 19.9853 17.6148 19.9474 17.6171L18.391 17.7213L18.3795 17.7219C18.3418 17.7219 18.3053 17.7091 18.2768 17.6858C18.2482 17.6626 18.2294 17.6304 18.2239 17.5953L18.1352 17.0244H16.8649L16.7755 17.5953C16.7698 17.6323 16.7494 17.6659 16.7183 17.6893C16.6873 17.7127 16.648 17.7242 16.6084 17.7213L15.052 17.6165C15.0143 17.6137 14.9789 17.5983 14.9521 17.5731C14.9254 17.5479 14.9091 17.5145 14.9061 17.4789L14.8611 16.8674L13.5471 16.748L13.5497 17.0559C13.5497 18.3643 15.3098 18.9927 17.4968 19H17.502C19.689 18.9927 21.4491 18.3643 21.4491 17.0559L21.4517 16.748L20.1383 16.868Z" fill="#8CDBFF"/>
</svg>
