<svg width="24" height="25" viewBox="0 0 24 25" fill="none" xmlns="http://www.w3.org/2000/svg">
<path fill-rule="evenodd" clip-rule="evenodd" d="M5 4.5C3.34315 4.5 2 5.84315 2 7.5V17.5C2 19.1569 3.34315 20.5 5 20.5H13V18.5H5C4.44772 18.5 4 18.0523 4 17.5V7.5C4 6.94772 4.44772 6.5 5 6.5H7.78388C8.01539 6.5 8.23973 6.58033 8.41862 6.72727L10.8119 8.69318C11.3486 9.13402 12.0216 9.375 12.7161 9.375H19C19.5523 9.375 20 9.82272 20 10.375V10.5H22V10.375C22 8.71815 20.6569 7.375 19 7.375H12.7161C12.4846 7.375 12.2603 7.29467 12.0814 7.14773L9.6881 5.18182C9.15142 4.74098 8.47841 4.5 7.78388 4.5H5Z" fill="#64748B"/>
<path fill-rule="evenodd" clip-rule="evenodd" d="M18.4983 11.5C17.556 11.5004 16.6375 11.7965 15.8725 12.3467C15.1075 12.897 14.5345 13.6735 14.2344 14.5667C13.9342 15.46 13.9221 16.425 14.1996 17.3255C14.4772 18.226 15.0305 19.0167 15.7814 19.586C16.5324 20.1553 17.4431 20.4745 18.3851 20.4985C19.3271 20.5226 20.253 20.2503 21.032 19.7201C21.811 19.1899 22.4039 18.4285 22.7271 17.5433C23.0503 16.6581 23.0874 15.6938 22.8332 14.7863H22.8318C22.8296 14.7728 22.8261 14.7594 22.8214 14.7465C22.82 14.7416 22.8151 14.7325 22.8151 14.7325C22.7971 14.6938 22.7685 14.6609 22.7326 14.6379C22.6966 14.6149 22.6549 14.6025 22.6122 14.6024C22.5526 14.6022 22.4953 14.6256 22.453 14.6676C22.4106 14.7096 22.3866 14.7666 22.3863 14.8262C22.3864 14.851 22.3906 14.8756 22.3988 14.899L22.3981 14.8997C22.4981 15.2579 22.5485 15.6281 22.5478 16C22.5494 16.532 22.4454 17.0591 22.2418 17.5507C22.0383 18.0422 21.7393 18.4886 21.3622 18.8638C20.9869 19.241 20.5406 19.54 20.049 19.7435C19.5574 19.947 19.0304 20.051 18.4983 20.0495C17.9662 20.0511 17.439 19.9472 16.9473 19.7436C16.4556 19.5401 16.0091 19.2411 15.6338 18.8638C15.2566 18.4886 14.9575 18.0423 14.7538 17.5507C14.5502 17.0592 14.446 16.5321 14.4474 16C14.4474 14.9178 14.8692 13.9007 15.6338 13.1355C16.0091 12.7582 16.4556 12.4591 16.9473 12.2556C17.439 12.0521 17.9662 11.9481 18.4983 11.9498C19.4637 11.9498 20.3779 12.2856 21.1075 12.9025C21.0824 12.9667 21.0696 13.0351 21.0698 13.104C21.0698 13.2209 21.1072 13.3348 21.1764 13.429C21.2455 13.5233 21.343 13.593 21.4545 13.6281C21.566 13.6632 21.6859 13.6619 21.7966 13.6242C21.9073 13.5866 22.0031 13.5147 22.0701 13.4189C22.1371 13.323 22.1719 13.2084 22.1693 13.0915C22.1667 12.9746 22.1269 12.8616 22.0557 12.7688C21.9845 12.6761 21.8856 12.6085 21.7733 12.5758C21.661 12.5431 21.5413 12.547 21.4314 12.5871C20.616 11.8843 19.5748 11.4984 18.4983 11.5ZM17.9296 13.5979L16.2718 17.8999H17.3112L17.582 17.171H19.1482L18.8649 16.3645H17.8331L18.5046 14.5142L19.6973 17.8999H20.7354L19.0775 13.5979H17.9296Z" fill="#CFD8DC"/>
</svg>
