<svg width="24" height="25" viewBox="0 0 24 25" fill="none" xmlns="http://www.w3.org/2000/svg">
<path fill-rule="evenodd" clip-rule="evenodd" d="M5 4.5C3.34315 4.5 2 5.84315 2 7.5V17.5C2 19.1569 3.34315 20.5 5 20.5H13V18.5H5C4.44772 18.5 4 18.0523 4 17.5V7.5C4 6.94772 4.44772 6.5 5 6.5H7.78388C8.01539 6.5 8.23973 6.58033 8.41862 6.72727L10.8119 8.69318C11.3486 9.13402 12.0216 9.375 12.7161 9.375H19C19.5523 9.375 20 9.82272 20 10.375V10.5H22V10.375C22 8.71815 20.6569 7.375 19 7.375H12.7161C12.4846 7.375 12.2603 7.29467 12.0814 7.14773L9.6881 5.18182C9.15142 4.74098 8.47841 4.5 7.78388 4.5H5Z" fill="#64748B"/>
<path fill-rule="evenodd" clip-rule="evenodd" d="M21.8502 14.667L21.8383 14.6367L20.6129 11.6879C20.5883 11.6299 20.5442 11.5806 20.4872 11.5473C20.4446 11.5221 20.3962 11.5064 20.3459 11.5016C20.2955 11.4968 20.2447 11.5029 20.1974 11.5195C20.1501 11.5362 20.1077 11.5628 20.0736 11.5973C20.0395 11.6318 20.0146 11.6732 20.001 11.7182L19.1745 14.0544H15.8261L14.9989 11.7182C14.9851 11.6734 14.9602 11.6322 14.9261 11.5978C14.892 11.5635 14.8497 11.5369 14.8026 11.5203C14.7554 11.5038 14.7047 11.4975 14.6545 11.5022C14.6043 11.5069 14.556 11.5223 14.5134 11.5473C14.4564 11.5806 14.4123 11.6299 14.3876 11.6879L13.163 14.6374L13.1504 14.6664C12.974 15.0916 12.9521 15.5583 13.0882 15.996C13.2243 16.4337 13.511 16.8187 13.9049 17.0929L13.9098 17.0961L13.9203 17.1032L15.7835 18.3929L16.7077 19.0377L17.2694 19.4291C17.3353 19.4751 17.4156 19.5 17.4982 19.5C17.5808 19.5 17.6611 19.4751 17.727 19.4291L18.2887 19.0371L19.2129 18.3922L21.0901 17.0961L21.095 17.0923C21.4887 16.8182 21.7753 16.4335 21.9115 15.9961C22.0477 15.5586 22.0262 15.0922 21.8502 14.667Z" fill="#E53935"/>
<path fill-rule="evenodd" clip-rule="evenodd" d="M21.7656 14.5403L21.7471 14.5C20.8186 14.6504 19.9436 14.9611 19.185 15.4099L15 17.9094L17.6643 19.5L20.584 17.7738L20.5927 17.7687C21.2051 17.4038 21.6508 16.8916 21.8626 16.3094C22.0743 15.7271 22.0396 15.1062 21.7656 14.5403Z" fill="#EF6C00"/>
<path fill-rule="evenodd" clip-rule="evenodd" d="M15.8154 15.4092C15.0568 14.9607 14.1819 14.6502 13.2533 14.5L13.2338 14.5395C12.9594 15.1056 12.9256 15.7267 13.1374 16.3093C13.3493 16.8919 13.7953 17.4043 14.4082 17.7692L14.4159 17.7735L14.4322 17.7838L17.3324 19.5L20 17.9092L15.8154 15.4092Z" fill="#EF6C00"/>
<path fill-rule="evenodd" clip-rule="evenodd" d="M15 18.1024L16.3473 19L17.166 19.5101C17.262 19.57 17.3791 19.6024 17.4995 19.6024C17.6199 19.6024 17.737 19.57 17.833 19.5101L18.6517 19L20 18.1024L17.5 16.4L15 18.1024Z" fill="#F9A825"/>
</svg>
