<svg width="24" height="25" viewBox="0 0 24 25" fill="none" xmlns="http://www.w3.org/2000/svg">
<path fill-rule="evenodd" clip-rule="evenodd" d="M5 4.5C3.34315 4.5 2 5.84315 2 7.5V17.5C2 19.1569 3.34315 20.5 5 20.5H12V18.5H5C4.44772 18.5 4 18.0523 4 17.5V7.5C4 6.94772 4.44772 6.5 5 6.5H7.78388C8.01539 6.5 8.23973 6.58033 8.41862 6.72727L10.8119 8.69318C11.3486 9.13402 12.0216 9.375 12.7161 9.375H19C19.5523 9.375 20 9.82272 20 10.375V10.5H22V10.375C22 8.71815 20.6569 7.375 19 7.375H12.7161C12.4846 7.375 12.2603 7.29467 12.0814 7.14773L9.6881 5.18182C9.15142 4.74098 8.47841 4.5 7.78388 4.5H5Z" fill="#64748B"/>
<path d="M12.814 17.8904H14.4067L13.9134 19.556H12.814V17.8904ZM12.814 14.7232H15.3448L14.8514 16.3897H12.814V14.7232ZM12.814 11.556H16.2836L15.7895 13.2225H12.814V11.556ZM17.8538 11.556H21.814V13.2225H17.3597L17.8538 11.556ZM16.915 14.7232H21.814V16.3897H16.4217L16.915 14.7232ZM15.977 17.8904H21.814V19.556H15.4836L15.977 17.8904Z" fill="#FF7C7C"/>
</svg>
