<svg width="24" height="25" viewBox="0 0 24 25" fill="none" xmlns="http://www.w3.org/2000/svg">
<path fill-rule="evenodd" clip-rule="evenodd" d="M5 4.5C3.34315 4.5 2 5.84315 2 7.5V17.5C2 19.1569 3.34315 20.5 5 20.5H13V18.5H5C4.44772 18.5 4 18.0523 4 17.5V7.5C4 6.94772 4.44772 6.5 5 6.5H7.78388C8.01539 6.5 8.23973 6.58033 8.41862 6.72727L10.8119 8.69318C11.3486 9.13402 12.0216 9.375 12.7161 9.375H19C19.5523 9.375 20 9.82272 20 10.375V10.5H22V10.375C22 8.71815 20.6569 7.375 19 7.375H12.7161C12.4846 7.375 12.2603 7.29467 12.0814 7.14773L9.6881 5.18182C9.15142 4.74098 8.47841 4.5 7.78388 4.5H5Z" fill="#64748B"/>
<path fill-rule="evenodd" clip-rule="evenodd" d="M13.0537 11.5C14.8099 11.7545 16.3154 11.881 17.5702 11.8793C18.8044 11.8777 20.281 11.7513 22 11.5V12.8904C20.281 13.1416 18.8044 13.2681 17.5702 13.2697C16.3154 13.2708 14.8099 13.1443 13.0537 12.8904V11.5Z" fill="#CFD8DC"/>
<path fill-rule="evenodd" clip-rule="evenodd" d="M15.0969 12.6186L14.4948 19.5L15.8064 19.4935L15.9998 13.023L15.0969 12.6186ZM19.8068 12.6121L20.3924 19.4871H19.0966L18.9032 13.0165L19.8068 12.6121Z" fill="#CFD8DC"/>
<path fill-rule="evenodd" clip-rule="evenodd" d="M13 14.3689H21.9463V15.1777H13V14.3689Z" fill="#CFD8DC"/>
<path fill-rule="evenodd" clip-rule="evenodd" d="M17.129 12.6121H17.8172V14.5331H17.129V12.6121Z" fill="#CFD8DC"/>
</svg>
