<svg width="24" height="24" viewBox="0 0 24 24" fill="none" xmlns="http://www.w3.org/2000/svg">
<path fill-rule="evenodd" clip-rule="evenodd" d="M5 4C3.34315 4 2 5.34315 2 7V17C2 18.6569 3.34315 20 5 20H13V18H5C4.44772 18 4 17.5523 4 17V7C4 6.44772 4.44772 6 5 6H7.78388C8.01539 6 8.23973 6.08033 8.41862 6.22727L10.8119 8.19318C11.3486 8.63402 12.0216 8.875 12.7161 8.875H19C19.5523 8.875 20 9.32272 20 9.875V10H22V9.875C22 8.21815 20.6569 6.875 19 6.875H12.7161C12.4846 6.875 12.2603 6.79467 12.0814 6.64773L9.6881 4.68182C9.15142 4.24098 8.47841 4 7.78388 4H5Z" fill="#64748B"/>
<path fill-rule="evenodd" clip-rule="evenodd" d="M19.5909 11.5742C19.2594 11.0674 19.1808 11 18.5064 11H18.4902C17.8151 11 17.7406 11.0674 17.4051 11.5742C17.0933 12.0497 14 17.7364 14 17.8949C14 18.1249 14.059 18.3426 14.2725 18.6514C14.4893 18.9644 14.8641 19.1385 15.1366 18.8616C15.3216 18.6752 17.3061 15.2417 18.2652 13.943C18.2918 13.9054 18.327 13.8747 18.3678 13.8535C18.4087 13.8323 18.454 13.8213 18.5 13.8213C18.546 13.8213 18.5913 13.8323 18.6322 13.8535C18.673 13.8747 18.7082 13.9054 18.7348 13.943C19.6932 15.2417 21.6784 18.6752 21.8634 18.8616C22.1359 19.1385 22.5107 18.9637 22.7275 18.6514C22.9404 18.3426 23 18.1249 23 17.8949C22.9959 17.7364 19.9026 12.0456 19.5909 11.5742Z" fill="#8CDBFF"/>
</svg>
