<svg width="24" height="25" viewBox="0 0 24 25" fill="none" xmlns="http://www.w3.org/2000/svg">
<path fill-rule="evenodd" clip-rule="evenodd" d="M5 4.5C3.34315 4.5 2 5.84315 2 7.5V17.5C2 19.1569 3.34315 20.5 5 20.5H13V18.5H5C4.44772 18.5 4 18.0523 4 17.5V7.5C4 6.94772 4.44772 6.5 5 6.5H7.78388C8.01539 6.5 8.23973 6.58033 8.41862 6.72727L10.8119 8.69318C11.3486 9.13402 12.0216 9.375 12.7161 9.375H19C19.5523 9.375 20 9.82272 20 10.375V10.5H22V10.375C22 8.71815 20.6569 7.375 19 7.375H12.7161C12.4846 7.375 12.2603 7.29467 12.0814 7.14773L9.6881 5.18182C9.15142 4.74098 8.47841 4.5 7.78388 4.5H5Z" fill="#64748B"/>
<path fill-rule="evenodd" clip-rule="evenodd" d="M23.1015 12.6104L22.0193 13.6928C23.1253 14.6173 23.8301 16.0065 23.8301 17.5572V18.5264C23.8301 18.8278 23.5856 19.072 23.2844 19.072H14.4031C14.1852 19.072 13.7585 19.072 13.7585 18.5264V17.5574C13.7585 16.0065 14.4634 14.6173 15.5695 13.6928L14.4871 12.6104C14.2741 12.3974 14.2741 12.0519 14.4871 11.8387C14.7002 11.6256 15.0458 11.6256 15.259 11.8387L16.497 13.0767C17.1862 12.7219 17.9673 12.5214 18.7943 12.5214C19.6213 12.5214 20.4024 12.7219 21.0916 13.0767L22.3296 11.8387C22.5429 11.6256 22.8884 11.6256 23.1015 11.8387C23.3145 12.0519 23.3145 12.3974 23.1015 12.6104ZM14.8499 17.5572V17.9806H22.7387V17.5572C22.7387 15.3822 20.9692 13.6128 18.7943 13.6128C16.6194 13.6128 14.8499 15.3822 14.8499 17.5572ZM17.3395 16.444C17.5957 16.444 17.8033 16.2365 17.8033 15.9803C17.8033 15.7239 17.5957 15.5163 17.3395 15.5163C17.0832 15.5163 16.8756 15.7239 16.8756 15.9803C16.8756 16.2365 17.0832 16.444 17.3395 16.444ZM20.7861 15.9059C20.7861 16.1623 20.5784 16.3699 20.3223 16.3699C20.066 16.3699 19.8583 16.1623 19.8583 15.9059C19.8583 15.6497 20.066 15.4422 20.3223 15.4422C20.5784 15.4422 20.7861 15.6497 20.7861 15.9059Z" fill="#4ADE80"/>
<path d="M22.0193 13.6928L21.9132 13.5868C21.8835 13.6166 21.8676 13.6575 21.8695 13.6995C21.8713 13.7416 21.8908 13.7809 21.9231 13.8079L22.0193 13.6928ZM23.1015 12.6104L22.9954 12.5044L22.9954 12.5044L23.1015 12.6104ZM15.5695 13.6928L15.6657 13.8079C15.698 13.7809 15.7175 13.7416 15.7194 13.6995C15.7212 13.6575 15.7053 13.6165 15.6756 13.5868L15.5695 13.6928ZM14.4871 12.6104L14.3811 12.7165H14.3811L14.4871 12.6104ZM14.4871 11.8387L14.3811 11.7326L14.381 11.7327L14.4871 11.8387ZM15.259 11.8387L15.3651 11.7326L15.365 11.7326L15.259 11.8387ZM16.497 13.0767L16.3909 13.1827C16.437 13.2288 16.5077 13.2399 16.5656 13.21L16.497 13.0767ZM21.0916 13.0767L21.023 13.21C21.081 13.2399 21.1516 13.2288 21.1977 13.1827L21.0916 13.0767ZM22.3296 11.8387L22.2236 11.7326L22.2235 11.7326L22.3296 11.8387ZM23.1015 11.8387L23.2076 11.7327L23.2076 11.7326L23.1015 11.8387ZM14.8499 17.9806H14.6999C14.6999 18.0634 14.7671 18.1306 14.8499 18.1306V17.9806ZM22.7387 17.9806V18.1306C22.8216 18.1306 22.8887 18.0634 22.8887 17.9806H22.7387ZM22.1254 13.7989L23.2076 12.7165L22.9954 12.5044L21.9132 13.5868L22.1254 13.7989ZM23.9801 17.5572C23.9801 15.96 23.254 14.5294 22.1155 13.5777L21.9231 13.8079C22.9966 14.7052 23.6801 16.0529 23.6801 17.5572H23.9801ZM23.9801 18.5264V17.5572H23.6801V18.5264H23.9801ZM23.2844 19.222C23.6684 19.222 23.9801 18.9107 23.9801 18.5264H23.6801C23.6801 18.7449 23.5028 18.922 23.2844 18.922V19.222ZM14.4031 19.222H23.2844V18.922H14.4031V19.222ZM13.6085 18.5264C13.6085 18.6821 13.639 18.8113 13.698 18.9157C13.7577 19.0211 13.8412 19.0917 13.931 19.1375C14.102 19.2246 14.2999 19.222 14.4031 19.222V18.922C14.2884 18.922 14.164 18.9195 14.0672 18.8702C14.0231 18.8477 13.9863 18.816 13.9592 18.768C13.9314 18.7188 13.9085 18.6434 13.9085 18.5264H13.6085ZM13.6085 17.5574V18.5264H13.9085V17.5574H13.6085ZM15.4733 13.5777C14.3346 14.5294 13.6085 15.96 13.6085 17.5574H13.9085C13.9085 16.0529 14.5921 14.7052 15.6657 13.8079L15.4733 13.5777ZM14.3811 12.7165L15.4634 13.7989L15.6756 13.5868L14.5932 12.5044L14.3811 12.7165ZM14.381 11.7327C14.1095 12.0044 14.1094 12.4449 14.3811 12.7165L14.5932 12.5044C14.4388 12.35 14.4387 12.0994 14.5932 11.9447L14.381 11.7327ZM15.365 11.7326C15.0933 11.4609 14.6528 11.4609 14.3811 11.7326L14.5932 11.9447C14.7477 11.7902 14.9983 11.7902 15.153 11.9448L15.365 11.7326ZM16.6031 12.9706L15.3651 11.7326L15.1529 11.9447L16.3909 13.1827L16.6031 12.9706ZM18.7943 12.3714C17.9428 12.3714 17.1382 12.5779 16.4283 12.9433L16.5656 13.21C17.2342 12.8659 17.9918 12.6714 18.7943 12.6714V12.3714ZM21.1603 12.9433C20.4504 12.5779 19.6458 12.3714 18.7943 12.3714V12.6714C19.5968 12.6714 20.3544 12.8659 21.023 13.21L21.1603 12.9433ZM22.2235 11.7326L20.9856 12.9706L21.1977 13.1827L22.4357 11.9447L22.2235 11.7326ZM23.2076 11.7326C22.9358 11.4609 22.4954 11.461 22.2236 11.7326L22.4356 11.9448C22.5904 11.7902 22.8409 11.7902 22.9954 11.9447L23.2076 11.7326ZM23.2076 12.7165C23.4792 12.4449 23.4791 12.0044 23.2076 11.7327L22.9954 11.9447C23.1499 12.0994 23.1498 12.35 22.9954 12.5044L23.2076 12.7165ZM14.9999 17.9806V17.5572H14.6999V17.9806H14.9999ZM22.7387 17.8306H14.8499V18.1306H22.7387V17.8306ZM22.5887 17.5572V17.9806H22.8887V17.5572H22.5887ZM18.7943 13.7628C20.8864 13.7628 22.5887 15.4651 22.5887 17.5572H22.8887C22.8887 15.2994 21.0521 13.4628 18.7943 13.4628V13.7628ZM14.9999 17.5572C14.9999 15.4651 16.7022 13.7628 18.7943 13.7628V13.4628C16.5365 13.4628 14.6999 15.2994 14.6999 17.5572H14.9999ZM17.6533 15.9803C17.6533 16.1536 17.5129 16.294 17.3395 16.294V16.594C17.6785 16.594 17.9533 16.3193 17.9533 15.9803H17.6533ZM17.3395 15.6663C17.5128 15.6663 17.6533 15.8067 17.6533 15.9803H17.9533C17.9533 15.6411 17.6786 15.3663 17.3395 15.3663V15.6663ZM17.0256 15.9803C17.0256 15.8067 17.166 15.6663 17.3395 15.6663V15.3663C17.0003 15.3663 16.7256 15.6411 16.7256 15.9803H17.0256ZM17.3395 16.294C17.166 16.294 17.0256 16.1536 17.0256 15.9803H16.7256C16.7256 16.3193 17.0004 16.594 17.3395 16.594V16.294ZM20.3223 16.5199C20.6612 16.5199 20.9361 16.2452 20.9361 15.9059H20.6361C20.6361 16.0794 20.4956 16.2199 20.3223 16.2199V16.5199ZM19.7083 15.9059C19.7083 16.2452 19.9832 16.5199 20.3223 16.5199V16.2199C20.1488 16.2199 20.0083 16.0794 20.0083 15.9059H19.7083ZM20.3223 15.2922C19.9833 15.2922 19.7083 15.5668 19.7083 15.9059H20.0083C20.0083 15.7327 20.1488 15.5922 20.3223 15.5922V15.2922ZM20.9361 15.9059C20.9361 15.5668 20.6611 15.2922 20.3223 15.2922V15.5922C20.4956 15.5922 20.6361 15.7327 20.6361 15.9059H20.9361Z" fill="#4ADE80"/>
</svg>
