<svg width="24" height="25" viewBox="0 0 24 25" fill="none" xmlns="http://www.w3.org/2000/svg">
<path fill-rule="evenodd" clip-rule="evenodd" d="M5 4.5C3.34315 4.5 2 5.84315 2 7.5V17.5C2 19.1569 3.34315 20.5 5 20.5H13V18.5H5C4.44772 18.5 4 18.0523 4 17.5V7.5C4 6.94772 4.44772 6.5 5 6.5H7.78388C8.01539 6.5 8.23973 6.58033 8.41862 6.72727L10.8119 8.69318C11.3486 9.13402 12.0216 9.375 12.7161 9.375H19C19.5523 9.375 20 9.82272 20 10.375V10.5H22V10.375C22 8.71815 20.6569 7.375 19 7.375H12.7161C12.4846 7.375 12.2603 7.29467 12.0814 7.14773L9.6881 5.18182C9.15142 4.74098 8.47841 4.5 7.78388 4.5H5Z" fill="#64748B"/>
<path fill-rule="evenodd" clip-rule="evenodd" d="M22.5834 18.1873H20.7502V15.1247H22.5834M23.0421 14.2498H20.2915C20.17 14.25 20.0535 14.2962 19.9677 14.3783C19.8818 14.4604 19.8336 14.5716 19.8336 14.6876V19.0622C19.8336 19.1782 19.8818 19.2894 19.9677 19.3715C20.0535 19.4536 20.17 19.4998 20.2915 19.5H23.0421C23.1636 19.4998 23.2801 19.4536 23.3659 19.3715C23.4518 19.2894 23.5 19.1782 23.5 19.0622V14.6876C23.5 14.5716 23.4518 14.4604 23.3659 14.3783C23.2801 14.2962 23.1636 14.25 23.0421 14.2498ZM14.334 13.3749H22.5834V12.5H14.334C14.2135 12.4999 14.0942 12.5225 13.983 12.5664C13.8717 12.6103 13.7705 12.6748 13.6853 12.756C13.6001 12.8373 13.5326 12.9337 13.4864 13.0399C13.4403 13.1461 13.4166 13.26 13.4166 13.3749V18.1873H12.5V19.5H18.917V18.1873H14.334V13.3749Z" fill="#8CDBFF"/>
</svg>
