<svg width="24" height="25" viewBox="0 0 24 25" fill="none" xmlns="http://www.w3.org/2000/svg">
<path fill-rule="evenodd" clip-rule="evenodd" d="M5 4.5C3.34315 4.5 2 5.84315 2 7.5V17.5C2 19.1569 3.34315 20.5 5 20.5H13V18.5H5C4.44772 18.5 4 18.0523 4 17.5V7.5C4 6.94772 4.44772 6.5 5 6.5H7.78388C8.01539 6.5 8.23973 6.58033 8.41862 6.72727L10.8119 8.69318C11.3486 9.13402 12.0216 9.375 12.7161 9.375H19C19.5523 9.375 20 9.82272 20 10.375V10.5H22V10.375C22 8.71815 20.6569 7.375 19 7.375H12.7161C12.4846 7.375 12.2603 7.29467 12.0814 7.14773L9.6881 5.18182C9.15142 4.74098 8.47841 4.5 7.78388 4.5H5Z" fill="#64748B"/>
<path fill-rule="evenodd" clip-rule="evenodd" d="M20.222 18.6997H14.778V14.2996H20.222M20.222 12.299H19.833V11.5H19.0557V12.299H15.9443V11.5H15.1664V12.299H14.778C14.3461 12.299 14 12.6595 14 13.0992V18.6997C14 18.912 14.082 19.1155 14.2279 19.2656C14.3738 19.4157 14.5717 19.5 14.778 19.5H20.222C20.4283 19.5 20.6262 19.4157 20.7721 19.2656C20.918 19.1155 21 18.912 21 18.6997V13.0999C21 12.8876 20.918 12.6841 20.7721 12.534C20.6262 12.3839 20.4283 12.299 20.222 12.299ZM19.2615 15.5234L18.8492 15.0999L16.9516 17.0518L16.1268 16.2035L15.7151 16.6276L16.9516 17.8995L19.2615 15.5234Z" fill="#C5CAE9"/>
</svg>
