<svg width="24" height="25" viewBox="0 0 24 25" fill="none" xmlns="http://www.w3.org/2000/svg">
<path fill-rule="evenodd" clip-rule="evenodd" d="M5 4.5C3.34315 4.5 2 5.84315 2 7.5V17.5C2 19.1569 3.34315 20.5 5 20.5H12V18.5H5C4.44772 18.5 4 18.0523 4 17.5V7.5C4 6.94772 4.44772 6.5 5 6.5H7.78388C8.01539 6.5 8.23973 6.58033 8.41862 6.72727L10.8119 8.69318C11.3486 9.13402 12.0216 9.375 12.7161 9.375H19C19.5523 9.375 20 9.82272 20 10.375V11.5H22V10.375C22 8.71815 20.6569 7.375 19 7.375H12.7161C12.4846 7.375 12.2603 7.29467 12.0814 7.14773L9.6881 5.18182C9.15142 4.74098 8.47841 4.5 7.78388 4.5H5Z" fill="#64748B"/>
<path fill-rule="evenodd" clip-rule="evenodd" d="M17.5 15.3001C17.1745 15.3001 16.8624 15.4266 16.6322 15.6516C16.4021 15.8766 16.2728 16.1818 16.2728 16.5C16.2728 16.8182 16.4021 17.1234 16.6322 17.3484C16.8624 17.5734 17.1745 17.6999 17.5 17.6999C17.8255 17.6999 18.1376 17.5734 18.3678 17.3484C18.5979 17.1234 18.7272 16.8182 18.7272 16.5C18.7272 16.1818 18.5979 15.8766 18.3678 15.6516C18.1376 15.4266 17.8255 15.3001 17.5 15.3001ZM17.5 18.5C16.9575 18.5 16.4372 18.2893 16.0536 17.9142C15.6699 17.5391 15.4544 17.0304 15.4544 16.5C15.4544 15.9696 15.6699 15.4609 16.0536 15.0858C16.4372 14.7107 16.9575 14.5 17.5 14.5C18.0425 14.5 18.5628 14.7107 18.9464 15.0858C19.3301 15.4609 19.5456 15.9696 19.5456 16.5C19.5456 17.0304 19.3301 17.5391 18.9464 17.9142C18.5628 18.2893 18.0425 18.5 17.5 18.5ZM17.5 13.5C16.5286 13.5005 15.5798 13.787 14.7772 14.322C13.9746 14.8571 13.3553 15.616 13 16.5C13.3553 17.384 13.9746 18.1429 14.7772 18.678C15.5798 19.213 16.5286 19.4995 17.5 19.5C18.4714 19.4995 19.4202 19.213 20.2228 18.678C21.0254 18.1429 21.6447 17.384 22 16.5C21.6447 15.616 21.0254 14.8571 20.2228 14.322C19.4202 13.787 18.4714 13.5005 17.5 13.5Z" fill="#8CDBFF"/>
</svg>
