<svg width="24" height="25" viewBox="0 0 24 25" fill="none" xmlns="http://www.w3.org/2000/svg">
<path fill-rule="evenodd" clip-rule="evenodd" d="M5 4.5C3.34315 4.5 2 5.84315 2 7.5V17.5C2 19.1569 3.34315 20.5 5 20.5H13V18.5H5C4.44772 18.5 4 18.0523 4 17.5V7.5C4 6.94772 4.44772 6.5 5 6.5H7.78388C8.01539 6.5 8.23973 6.58033 8.41862 6.72727L10.8119 8.69318C11.3486 9.13402 12.0216 9.375 12.7161 9.375H19C19.5523 9.375 20 9.82272 20 10.375V10.5H22V10.375C22 8.71815 20.6569 7.375 19 7.375H12.7161C12.4846 7.375 12.2603 7.29467 12.0814 7.14773L9.6881 5.18182C9.15142 4.74098 8.47841 4.5 7.78388 4.5H5Z" fill="#64748B"/>
<path fill-rule="evenodd" clip-rule="evenodd" d="M22.997 13.419C23.6392 13.9772 24 14.7342 24 15.5235C24 16.3127 23.6392 17.0697 22.997 17.6279C22.5528 18.0133 21.9955 18.2856 21.3856 18.4149C20.7758 18.5443 20.1368 18.5258 19.5381 18.3615C18.8622 18.545 18.1378 18.545 17.4619 18.3615C16.8632 18.5258 16.2242 18.5443 15.6144 18.4149C15.0045 18.2856 14.4472 18.0133 14.003 17.6279C13.3608 17.0697 13 16.3127 13 15.5235C13 14.7342 13.3608 13.9772 14.003 13.419C14.4472 13.0336 15.0045 12.7613 15.6144 12.632C16.2242 12.5026 16.8632 12.5211 17.4619 12.6854C18.1375 12.5021 18.8615 12.5021 19.5372 12.6854C20.1359 12.5209 20.7751 12.5023 21.3851 12.6317C21.9952 12.7611 22.5527 13.0334 22.997 13.419ZM16.0783 17.6279C15.4361 17.0697 15.0753 16.3127 15.0753 15.5235C15.0753 14.7342 15.4361 13.9772 16.0783 13.419C15.57 13.4823 15.0855 13.6806 14.6938 14.0202C14.2352 14.4188 13.9776 14.9594 13.9776 15.523C13.9776 16.0867 14.2352 16.6272 14.6938 17.0259C15.0845 17.3663 15.569 17.5646 16.0783 17.6279ZM18.1536 17.6279C17.5114 17.0697 17.1506 16.3127 17.1506 15.5235C17.1506 14.7342 17.5114 13.9772 18.1536 13.419C17.6453 13.4823 17.1608 13.6806 16.7701 14.0202C16.3115 14.4188 16.0539 14.9594 16.0539 15.523C16.0539 16.0867 16.3115 16.6272 16.7701 17.0259C17.1608 17.3663 17.6453 17.5646 18.1536 17.6279ZM22.3052 14.0202C21.9318 13.6941 21.4459 13.483 20.9217 13.419C21.5639 13.9772 21.9247 14.7342 21.9247 15.5235C21.9247 16.3127 21.5639 17.0697 20.9217 17.6279C21.43 17.5646 21.9145 17.3663 22.3052 17.0267C22.7638 16.6281 23.0214 16.0875 23.0214 15.5239C23.0214 14.9602 22.7638 14.4197 22.3052 14.021M18.8464 14.021C18.3878 14.4197 18.1302 14.9602 18.1302 15.5239C18.1302 16.0875 18.3878 16.6281 18.8464 17.0267C19.0527 17.2069 19.285 17.3481 19.5372 17.4477C19.7952 17.3449 20.0296 17.2023 20.2289 17.0267C20.6875 16.6281 20.9451 16.0875 20.9451 15.5239C20.9451 14.9602 20.6875 14.4197 20.2289 14.021C20.0297 13.8452 19.7953 13.7022 19.5372 13.5992C19.2791 13.702 19.0447 13.8446 18.8454 14.0202L18.8464 14.021Z" fill="#FF7C7C"/>
</svg>
