<svg width="24" height="25" viewBox="0 0 24 25" fill="none" xmlns="http://www.w3.org/2000/svg">
<path fill-rule="evenodd" clip-rule="evenodd" d="M5 4.5C3.34315 4.5 2 5.84315 2 7.5V17.5C2 19.1569 3.34315 20.5 5 20.5H13V18.5H5C4.44772 18.5 4 18.0523 4 17.5V7.5C4 6.94772 4.44772 6.5 5 6.5H7.78388C8.01539 6.5 8.23973 6.58033 8.41862 6.72727L10.8119 8.69318C11.3486 9.13402 12.0216 9.375 12.7161 9.375H19C19.5523 9.375 20 9.82272 20 10.375V10.5H22V10.375C22 8.71815 20.6569 7.375 19 7.375H12.7161C12.4846 7.375 12.2603 7.29467 12.0814 7.14773L9.6881 5.18182C9.15142 4.74098 8.47841 4.5 7.78388 4.5H5Z" fill="#64748B"/>
<path fill-rule="evenodd" clip-rule="evenodd" d="M17.5 11.5L14 12.9547V15.1366C14 17.1548 15.4931 19.0418 17.5 19.5C19.5069 19.0418 21 17.1548 21 15.1366V12.9541L17.5 11.5ZM17.5 13.6826C18.0444 13.6826 18.5889 14.0822 18.5889 14.5913V15.1372C18.8223 15.1372 19.0557 15.3549 19.0557 15.61V16.8827C19.0557 17.1004 18.8223 17.3186 18.5501 17.3186H16.4111C16.1777 17.3186 15.9443 17.1003 15.9443 16.8458V15.5731C15.9443 15.3549 16.1777 15.1372 16.4111 15.1372V14.5913C16.4111 14.0822 16.9556 13.6826 17.5 13.6826ZM17.5 14.1185C17.189 14.1185 16.9168 14.3005 16.9168 14.5913V15.1372H18.0832V14.5913C18.0832 14.3005 17.811 14.1185 17.5 14.1185Z" fill="#89FF8D"/>
</svg>
