<svg width="24" height="24" viewBox="0 0 24 24" fill="none" xmlns="http://www.w3.org/2000/svg">
<path fill-rule="evenodd" clip-rule="evenodd" d="M5 4C3.34315 4 2 5.34315 2 7V17C2 18.6569 3.34315 20 5 20H13V18H5C4.44772 18 4 17.5523 4 17V7C4 6.44772 4.44772 6 5 6H7.78388C8.01539 6 8.23973 6.08033 8.41862 6.22727L10.8119 8.19318C11.3486 8.63402 12.0216 8.875 12.7161 8.875H19C19.5523 8.875 20 9.32272 20 9.875V10H22V9.875C22 8.21815 20.6569 6.875 19 6.875H12.7161C12.4846 6.875 12.2603 6.79467 12.0814 6.64773L9.6881 4.68182C9.15142 4.24098 8.47841 4 7.78388 4H5Z" fill="#64748B"/>
<path fill-rule="evenodd" clip-rule="evenodd" d="M21.5471 13.3285C21.849 13.629 21.849 14.1172 21.5471 14.3803L20.4904 15.4321L17.5471 12.5025L18.6038 11.4508C18.9057 11.1503 19.3962 11.1503 19.6605 11.4508L20.3395 12.1265L21.4713 11L22 11.5255L20.8682 12.6528L21.5471 13.3285ZM19.3586 15.5068L18.8299 14.9813L17.7739 16.0331L16.9815 15.2437L18.0376 14.1927L17.5096 13.6664L16.4529 14.7182L15.8866 14.1927L14.8306 15.2437C14.5287 15.5442 14.5287 16.0331 14.8306 16.2955L15.5096 16.9713L14 18.4738L14.5287 19L16.0382 17.4975L16.7172 18.1733C17.0191 18.4738 17.5096 18.4738 17.7739 18.1733L18.8299 17.1222L18.3019 16.596L19.3586 15.5068Z" fill="#8CDBFF"/>
</svg>
