<svg width="24" height="25" viewBox="0 0 24 25" fill="none" xmlns="http://www.w3.org/2000/svg">
<path fill-rule="evenodd" clip-rule="evenodd" d="M5 4.5C3.34315 4.5 2 5.84315 2 7.5V17.5C2 19.1569 3.34315 20.5 5 20.5H13V18.5H5C4.44772 18.5 4 18.0523 4 17.5V7.5C4 6.94772 4.44772 6.5 5 6.5H7.78388C8.01539 6.5 8.23973 6.58033 8.41862 6.72727L10.8119 8.69318C11.3486 9.13402 12.0216 9.375 12.7161 9.375H19C19.5523 9.375 20 9.82272 20 10.375V10.5H22V10.375C22 8.71815 20.6569 7.375 19 7.375H12.7161C12.4846 7.375 12.2603 7.29467 12.0814 7.14773L9.6881 5.18182C9.15142 4.74098 8.47841 4.5 7.78388 4.5H5Z" fill="#64748B"/>
<path fill-rule="evenodd" clip-rule="evenodd" d="M18 12.9998V14.4995L20.0004 12.5001L18 10.5V11.9997C17.4746 11.9997 16.9544 12.1032 16.4691 12.3042C15.9837 12.5053 15.5427 12.8 15.1713 13.1714C14.7999 13.5429 14.5052 13.9839 14.3043 14.4692C14.1033 14.9545 13.9999 15.4747 14 16C14 16.7841 14.2299 17.5143 14.6196 18.1293L15.35 17.399C15.1192 16.9689 14.9987 16.4882 14.9994 16C14.9994 15.2043 15.3156 14.4412 15.8783 13.8785C16.441 13.3159 17.2042 12.9998 18 12.9998ZM21.3804 13.87L20.65 14.6002C20.8784 15.0313 20.9987 15.5114 21.0006 15.9992C21.0006 16.7949 20.6844 17.5581 20.1217 18.1207C19.559 18.6833 18.7958 18.9994 18 18.9994V17.5005L15.9996 19.5006L18 21.5V20.0003C18.5254 20.0003 19.0456 19.8968 19.5309 19.6958C20.0163 19.4947 20.4573 19.2 20.8287 18.8286C21.2001 18.4571 21.4948 18.0161 21.6957 17.5308C21.8967 17.0455 22.0001 16.5253 22 16C22 15.2159 21.7701 14.4857 21.3804 13.8707V13.87Z" fill="#8CDBFF" stroke="#8CDBFF" stroke-width="0.29" stroke-miterlimit="1.414" stroke-linejoin="round"/>
</svg>
