<svg width="24" height="25" viewBox="0 0 24 25" fill="none" xmlns="http://www.w3.org/2000/svg">
<path fill-rule="evenodd" clip-rule="evenodd" d="M5 4.5C3.34315 4.5 2 5.84315 2 7.5V17.5C2 19.1569 3.34315 20.5 5 20.5H13V18.5H5C4.44772 18.5 4 18.0523 4 17.5V7.5C4 6.94772 4.44772 6.5 5 6.5H7.78388C8.01539 6.5 8.23973 6.58033 8.41862 6.72727L10.8119 8.69318C11.3486 9.13402 12.0216 9.375 12.7161 9.375H19C19.5523 9.375 20 9.82272 20 10.375V10.5H22V10.375C22 8.71815 20.6569 7.375 19 7.375H12.7161C12.4846 7.375 12.2603 7.29467 12.0814 7.14773L9.6881 5.18182C9.15142 4.74098 8.47841 4.5 7.78388 4.5H5Z" fill="#64748B"/>
<path d="M16.0296 11.8828C16.4663 11.8828 16.8852 12.0563 17.194 12.3651C17.5029 12.674 17.6764 13.0928 17.6764 13.5296V14.3532H19.3236V13.5296C19.3236 13.3133 19.3661 13.0991 19.4488 12.8992C19.5316 12.6994 19.6529 12.5178 19.8058 12.3648C19.9587 12.2119 20.1403 12.0905 20.3401 12.0077C20.5399 11.9249 20.7541 11.8823 20.9704 11.8823C21.1867 11.8823 21.4009 11.9249 21.6007 12.0077C21.8005 12.0905 21.9821 12.2119 22.135 12.3648C22.288 12.5178 22.4092 12.6994 22.492 12.8992C22.5747 13.0991 22.6173 13.3133 22.6172 13.5296C22.6172 13.7458 22.5746 13.96 22.4918 14.1598C22.4091 14.3596 22.2878 14.5411 22.1349 14.694C21.9819 14.847 21.8004 14.9683 21.6006 15.051C21.4008 15.1338 21.1867 15.1764 20.9704 15.1764H20.1468V16.8236H20.9704C21.1867 16.8236 21.4008 16.8662 21.6006 16.949C21.8004 17.0317 21.9819 17.153 22.1349 17.306C22.2878 17.4589 22.4091 17.6404 22.4918 17.8402C22.5746 18.04 22.6172 18.2541 22.6172 18.4704C22.6172 18.6867 22.5746 18.9008 22.4918 19.1006C22.4091 19.3004 22.2878 19.4819 22.1349 19.6349C21.9819 19.7878 21.8004 19.9091 21.6006 19.9918C21.4008 20.0746 21.1867 20.1172 20.9704 20.1172C20.7541 20.1172 20.54 20.0746 20.3402 19.9918C20.1404 19.9091 19.9589 19.7878 19.806 19.6349C19.653 19.4819 19.5317 19.3004 19.449 19.1006C19.3662 18.9008 19.3236 18.6867 19.3236 18.4704V17.6468H17.6764V18.4704C17.6764 18.6867 17.6338 18.9008 17.551 19.1006C17.4683 19.3004 17.347 19.4819 17.194 19.6349C17.0411 19.7878 16.8596 19.9091 16.6598 19.9918C16.46 20.0746 16.2458 20.1172 16.0296 20.1172C15.8133 20.1173 15.5991 20.0747 15.3992 19.992C15.1994 19.9092 15.0178 19.788 14.8648 19.635C14.7119 19.4821 14.5905 19.3005 14.5077 19.1007C14.4249 18.9009 14.3823 18.6867 14.3823 18.4704C14.3823 18.2541 14.4249 18.0399 14.5077 17.8401C14.5905 17.6403 14.7119 17.4587 14.8648 17.3058C15.0178 17.1529 15.1994 17.0316 15.3992 16.9488C15.5991 16.8661 15.8133 16.8236 16.0296 16.8236H16.8532V15.1764H16.0296C15.8133 15.1764 15.5991 15.1339 15.3992 15.0511C15.1994 14.9684 15.0178 14.8471 14.8648 14.6942C14.7119 14.5413 14.5905 14.3597 14.5077 14.1599C14.4249 13.9601 14.3823 13.7459 14.3823 13.5296C14.3823 13.3132 14.4248 13.099 14.5076 12.8991C14.5904 12.6992 14.7117 12.5176 14.8647 12.3647C15.0176 12.2117 15.1992 12.0904 15.3991 12.0076C15.599 11.9248 15.8132 11.8827 16.0296 11.8828ZM20.1468 18.4704C20.1468 18.6888 20.2336 18.8983 20.388 19.0528C20.5425 19.2073 20.752 19.294 20.9704 19.294C21.1888 19.294 21.3983 19.2073 21.5528 19.0528C21.7073 18.8983 21.794 18.6888 21.794 18.4704C21.7939 18.252 21.7071 18.0427 21.5526 17.8883C21.3982 17.734 21.1888 17.6472 20.9704 17.6472H20.1468V18.4709M19.3236 15.1768H17.6764V16.8236H19.3236V15.1768ZM16.0296 17.6472C15.8111 17.6472 15.6016 17.734 15.4472 17.8885C15.2927 18.0429 15.2059 18.2524 15.2059 18.4709C15.2061 18.6892 15.2929 18.8986 15.4473 19.053C15.6018 19.2073 15.8112 19.294 16.0296 19.294C16.2479 19.294 16.4574 19.2073 16.6118 19.053C16.7662 18.8986 16.8531 18.6892 16.8532 18.4709V17.6472H16.0296ZM16.8532 13.5296C16.8531 13.3112 16.7662 13.1018 16.6118 12.9475C16.4574 12.7931 16.2479 12.7064 16.0296 12.7064C15.8112 12.7064 15.6018 12.7931 15.4473 12.9475C15.2929 13.1018 15.2061 13.3112 15.2059 13.5296C15.2059 13.748 15.2927 13.9575 15.4472 14.112C15.6016 14.2664 15.8111 14.3532 16.0296 14.3532H16.8532V13.5296ZM20.9704 14.3532C21.1888 14.3532 21.3983 14.2664 21.5528 14.112C21.7073 13.9575 21.794 13.748 21.794 13.5296C21.7939 13.3112 21.7071 13.1018 21.5526 12.9475C21.3982 12.7931 21.1888 12.7064 20.9704 12.7064C20.752 12.7064 20.5426 12.7931 20.3882 12.9475C20.2337 13.1018 20.1469 13.3112 20.1468 13.5296V14.3532H20.9704Z" fill="#71717A"/>
</svg>
