<svg width="24" height="25" viewBox="0 0 24 25" fill="none" xmlns="http://www.w3.org/2000/svg">
<path fill-rule="evenodd" clip-rule="evenodd" d="M5 4.5C3.34315 4.5 2 5.84315 2 7.5V17.5C2 19.1569 3.34315 20.5 5 20.5H12V18.5H5C4.44772 18.5 4 18.0523 4 17.5V7.5C4 6.94772 4.44772 6.5 5 6.5H7.78388C8.01539 6.5 8.23973 6.58033 8.41862 6.72727L10.8119 8.69318C11.3486 9.13402 12.0216 9.375 12.7161 9.375H19C19.5523 9.375 20 9.82272 20 10.375V10.5H22V10.375C22 8.71815 20.6569 7.375 19 7.375H12.7161C12.4846 7.375 12.2603 7.29467 12.0814 7.14773L9.6881 5.18182C9.15142 4.74098 8.47841 4.5 7.78388 4.5H5Z" fill="#64748B"/>
<path fill-rule="evenodd" clip-rule="evenodd" d="M22 14.1669V13.2775H21.1V12.3887C21.1 11.9 20.695 11.5 20.2 11.5H13.9C13.405 11.5 13 11.9 13 12.3887V18.6113C13 19.1 13.405 19.5 13.9 19.5H20.2C20.695 19.5 21.1 19.1 21.1 18.6113V17.7225H22V16.8331H21.1V15.9444H22V15.0564H21.1V14.1676L22 14.1669ZM20.2 18.6105H13.9V12.3887H20.2V18.6105ZM14.8 15.9444H17.05V17.7225H14.8V15.9444ZM17.5 13.2775H19.3V14.6113H17.5V13.2775ZM14.8 13.2775H17.05V15.5H14.8V13.2775ZM17.5 15.0556H19.3V17.7225H17.5V15.0556Z" fill="#FF7043"/>
</svg>
