<svg width="24" height="25" viewBox="0 0 24 25" fill="none" xmlns="http://www.w3.org/2000/svg">
<path fill-rule="evenodd" clip-rule="evenodd" d="M5 4.5C3.34315 4.5 2 5.84315 2 7.5V17.5C2 19.1569 3.34315 20.5 5 20.5H13V18.5H5C4.44772 18.5 4 18.0523 4 17.5V7.5C4 6.94772 4.44772 6.5 5 6.5H7.78388C8.01539 6.5 8.23973 6.58033 8.41862 6.72727L10.8119 8.69318C11.3486 9.13402 12.0216 9.375 12.7161 9.375H19C19.5523 9.375 20 9.82272 20 10.375V10.5H22V10.375C22 8.71815 20.6569 7.375 19 7.375H12.7161C12.4846 7.375 12.2603 7.29467 12.0814 7.14773L9.6881 5.18182C9.15142 4.74098 8.47841 4.5 7.78388 4.5H5Z" fill="#64748B"/>
<path fill-rule="evenodd" clip-rule="evenodd" d="M14 13.7831C14 13.0745 14.5745 12.5 15.2831 12.5H17.5669C18.2755 12.5 18.85 13.0745 18.85 13.7831V19.9157C18.85 20.6243 18.2755 21.1988 17.5669 21.1988H15.2831C14.5745 21.1988 14 20.6243 14 19.9157V13.7831ZM20.1506 13.7831C20.1506 13.0745 20.7251 12.5 21.4337 12.5H22.7169C23.4255 12.5 24 13.0745 24 13.7831V15.0663C24 15.7749 23.4255 16.3494 22.7169 16.3494H21.4337C20.7251 16.3494 20.1506 15.7749 20.1506 15.0663V13.7831ZM21.1506 17.3494C20.5983 17.3494 20.1506 17.7971 20.1506 18.3494V20.1988C20.1506 20.7511 20.5983 21.1988 21.1506 21.1988H23C23.5523 21.1988 24 20.7511 24 20.1988V18.3494C24 17.7971 23.5523 17.3494 23 17.3494H21.1506Z" fill="#0EA5E9"/>
</svg>
