<svg width="24" height="25" viewBox="0 0 24 25" fill="none" xmlns="http://www.w3.org/2000/svg">
<path fill-rule="evenodd" clip-rule="evenodd" d="M5 4.5C3.34315 4.5 2 5.84315 2 7.5V17.5C2 19.1569 3.34315 20.5 5 20.5H13V18.5H5C4.44772 18.5 4 18.0523 4 17.5V7.5C4 6.94772 4.44772 6.5 5 6.5H7.78388C8.01539 6.5 8.23973 6.58033 8.41862 6.72727L10.8119 8.69318C11.3486 9.13402 12.0216 9.375 12.7161 9.375H19C19.5523 9.375 20 9.82272 20 10.375V10.5H22V10.375C22 8.71815 20.6569 7.375 19 7.375H12.7161C12.4846 7.375 12.2603 7.29467 12.0814 7.14773L9.6881 5.18182C9.15142 4.74098 8.47841 4.5 7.78388 4.5H5Z" fill="#64748B"/>
<path fill-rule="evenodd" clip-rule="evenodd" d="M20.2226 11.5H14.889C14.3951 11.5 14 11.9 14 12.389V18.6117C14 19.1 14.3958 19.5 14.889 19.5H21.1117C21.6 19.5 22 19.1 22 18.6117V13.2781L20.2226 11.5ZM18 18.6117C17.8249 18.6118 17.6514 18.5775 17.4896 18.5105C17.3277 18.4435 17.1807 18.3453 17.0569 18.2214C16.933 18.0975 16.8349 17.9505 16.768 17.7886C16.7011 17.6267 16.6669 17.4532 16.6671 17.2781C16.6671 16.5407 17.2626 15.9445 18 15.9445C18.7374 15.9445 19.3336 16.54 19.3336 17.2781C19.3336 18.0155 18.7381 18.6117 18 18.6117ZM19.3336 14.1664H14.889V12.389H19.3336V14.1664Z" fill="#CFD8DC"/>
</svg>
