<svg width="24" height="24" viewBox="0 0 24 24" fill="none" xmlns="http://www.w3.org/2000/svg">
<path fill-rule="evenodd" clip-rule="evenodd" d="M5 4C3.34315 4 2 5.34315 2 7V17C2 18.6569 3.34315 20 5 20H13V18H5C4.44772 18 4 17.5523 4 17V7C4 6.44772 4.44772 6 5 6H7.78388C8.01539 6 8.23973 6.08033 8.41862 6.22727L10.8119 8.19318C11.3486 8.63402 12.0216 8.875 12.7161 8.875H19C19.5523 8.875 20 9.32272 20 9.875V10H22V9.875C22 8.21815 20.6569 6.875 19 6.875H12.7161C12.4846 6.875 12.2603 6.79467 12.0814 6.64773L9.6881 4.68182C9.15142 4.24098 8.47841 4 7.78388 4H5Z" fill="#64748B"/>
<path fill-rule="evenodd" clip-rule="evenodd" d="M22.5834 17.6873H20.7502V14.6247H22.5834M23.0421 13.7498H20.2915C20.17 13.75 20.0535 13.7962 19.9677 13.8783C19.8818 13.9604 19.8336 14.0716 19.8336 14.1876V18.5622C19.8336 18.6782 19.8818 18.7894 19.9677 18.8715C20.0535 18.9536 20.17 18.9998 20.2915 19H23.0421C23.1636 18.9998 23.2801 18.9536 23.3659 18.8715C23.4518 18.7894 23.5 18.6782 23.5 18.5622V14.1876C23.5 14.0716 23.4518 13.9604 23.3659 13.8783C23.2801 13.7962 23.1636 13.75 23.0421 13.7498ZM14.334 12.8749H22.5834V12H14.334C14.2135 11.9999 14.0942 12.0225 13.983 12.0664C13.8717 12.1103 13.7705 12.1748 13.6853 12.256C13.6001 12.3373 13.5326 12.4337 13.4864 12.5399C13.4403 12.6461 13.4166 12.76 13.4166 12.8749V17.6873H12.5V19H18.917V17.6873H14.334V12.8749Z" fill="#8CDBFF"/>
</svg>
