<svg width="24" height="24" viewBox="0 0 24 24" fill="none" xmlns="http://www.w3.org/2000/svg">
<path fill-rule="evenodd" clip-rule="evenodd" d="M5 4C3.34315 4 2 5.34315 2 7V17C2 18.6569 3.34315 20 5 20H13V18H5C4.44772 18 4 17.5523 4 17V7C4 6.44772 4.44772 6 5 6H7.78388C8.01539 6 8.23973 6.08033 8.41862 6.22727L10.8119 8.19318C11.3486 8.63402 12.0216 8.875 12.7161 8.875H19C19.5523 8.875 20 9.32272 20 9.875V10H22V9.875C22 8.21815 20.6569 6.875 19 6.875H12.7161C12.4846 6.875 12.2603 6.79467 12.0814 6.64773L9.6881 4.68182C9.15142 4.24098 8.47841 4 7.78388 4H5Z" fill="#64748B"/>
<path fill-rule="evenodd" clip-rule="evenodd" d="M17.5725 15.9528L15.1465 15.1443C15.112 15.1309 15.082 15.1075 15.0602 15.0769C15.0383 15.0464 15.0257 15.0099 15.0237 14.972L15 13.0565C15.0012 13.0188 15.0133 12.9824 15.0348 12.9519C15.0562 12.9213 15.086 12.898 15.1203 12.8849L20.8381 11.0061C20.9059 10.9838 20.9603 11.0245 20.9603 11.0975V13.0124C20.9588 13.0504 20.9464 13.087 20.9248 13.1179C20.9032 13.1487 20.8733 13.1724 20.8387 13.186L18.4793 13.9939L20.8778 14.763C20.9124 14.7757 20.9426 14.7988 20.9644 14.8292C20.9862 14.8597 20.9986 14.8962 21 14.9339V16.8219C21 16.8942 20.9462 16.9718 20.8791 16.9954L15.1465 18.9932C15.0794 19.0169 15.025 18.9768 15.0243 18.9044L15.0128 16.9336C15.0142 16.896 15.0264 16.8596 15.0479 16.829C15.0695 16.7985 15.0993 16.7752 15.1337 16.7621L17.5725 15.9528Z" fill="#FFA726"/>
</svg>
