<svg width="24" height="24" viewBox="0 0 24 24" fill="none" xmlns="http://www.w3.org/2000/svg">
<path fill-rule="evenodd" clip-rule="evenodd" d="M5 4C3.34315 4 2 5.34315 2 7V17C2 18.6569 3.34315 20 5 20H13V18H5C4.44772 18 4 17.5523 4 17V7C4 6.44772 4.44772 6 5 6H7.78388C8.01539 6 8.23973 6.08033 8.41862 6.22727L10.8119 8.19318C11.3486 8.63402 12.0216 8.875 12.7161 8.875H19C19.5523 8.875 20 9.32272 20 9.875V10H22V9.875C22 8.21815 20.6569 6.875 19 6.875H12.7161C12.4846 6.875 12.2603 6.79467 12.0814 6.64773L9.6881 4.68182C9.15142 4.24098 8.47841 4 7.78388 4H5Z" fill="#64748B"/>
<path fill-rule="evenodd" clip-rule="evenodd" d="M21.8687 14.6381C21.7137 13.8942 21.2933 13.2247 20.679 12.7436C20.0647 12.2625 19.2946 11.9997 18.5 12C17.8717 12.0002 17.2554 12.1645 16.7181 12.4753C16.1807 12.7861 15.7428 13.2314 15.4518 13.7629C14.7777 13.8336 14.1547 14.1392 13.7023 14.6213C13.2498 15.1034 12.9997 15.7279 13 16.3752C13 17.0713 13.2897 17.739 13.8055 18.2312C14.3212 18.7235 15.0207 19 15.75 19H21.7081C22.316 19 22.8989 18.7695 23.3287 18.3593C23.7585 17.949 24 17.3926 24 16.8124C24 15.6579 23.0602 14.721 21.8687 14.6381Z" fill="#FFCE50"/>
</svg>
