<svg width="24" height="25" viewBox="0 0 24 25" fill="none" xmlns="http://www.w3.org/2000/svg">
<path fill-rule="evenodd" clip-rule="evenodd" d="M5 4.5C3.34315 4.5 2 5.84315 2 7.5V17.5C2 19.1569 3.34315 20.5 5 20.5H13V18.5H5C4.44772 18.5 4 18.0523 4 17.5V7.5C4 6.94772 4.44772 6.5 5 6.5H7.78388C8.01539 6.5 8.23973 6.58033 8.41862 6.72727L10.8119 8.69318C11.3486 9.13402 12.0216 9.375 12.7161 9.375H19C19.5523 9.375 20 9.82272 20 10.375V10.5H22V10.375C22 8.71815 20.6569 7.375 19 7.375H12.7161C12.4846 7.375 12.2603 7.29467 12.0814 7.14773L9.6881 5.18182C9.15142 4.74098 8.47841 4.5 7.78388 4.5H5Z" fill="#64748B"/>
<path fill-rule="evenodd" clip-rule="evenodd" d="M21.1997 13.1848H19.5997V12.3424C19.5997 12.1106 19.5116 11.9007 19.3631 11.749C19.2899 11.6699 19.2023 11.607 19.1056 11.5643C19.0089 11.5215 18.9049 11.4996 18.8 11.5H17.2C16.7596 11.5 16.3997 11.8795 16.3997 12.3417V13.1841H14.7997C14.3593 13.1841 14 13.5636 14 14.0258V18.6583C14 19.1205 14.3593 19.5 14.7997 19.5H21.1997C21.6395 19.5 22 19.1205 22 18.6583V14.0265C22 13.5629 21.6395 13.1848 21.1997 13.1848ZM17.2 12.3424H18.8V13.1848H17.2V12.3424ZM17.5989 18.0265L17.1994 17.6053L18.3992 16.3417L17.1994 15.0788L17.5989 14.6576L19.1989 16.3417L17.5989 18.0265Z" fill="#CFD8DC"/>
</svg>
