<svg width="24" height="25" viewBox="0 0 24 25" fill="none" xmlns="http://www.w3.org/2000/svg">
<path fill-rule="evenodd" clip-rule="evenodd" d="M5 4.5C3.34315 4.5 2 5.84315 2 7.5V17.5C2 19.1569 3.34315 20.5 5 20.5H13V18.5H5C4.44772 18.5 4 18.0523 4 17.5V7.5C4 6.94772 4.44772 6.5 5 6.5H7.78388C8.01539 6.5 8.23973 6.58033 8.41862 6.72727L10.8119 8.69318C11.3486 9.13402 12.0216 9.375 12.7161 9.375H19C19.5523 9.375 20 9.82272 20 10.375V10.5H22V10.375C22 8.71815 20.6569 7.375 19 7.375H12.7161C12.4846 7.375 12.2603 7.29467 12.0814 7.14773L9.6881 5.18182C9.15142 4.74098 8.47841 4.5 7.78388 4.5H5Z" fill="#64748B"/>
<path fill-rule="evenodd" clip-rule="evenodd" d="M19.3677 11.5004C18.9235 11.5067 18.4897 11.6297 18.1142 11.8557L16.1553 13.0436C15.8909 13.2016 15.6641 13.4103 15.4892 13.6564C15.3144 13.9025 15.1954 14.1806 15.1399 14.4729C15.0462 14.9662 15.1281 15.4751 15.3725 15.9191C15.2051 16.161 15.0911 16.4327 15.0373 16.7177C14.9812 17.0164 14.9885 17.3227 15.0586 17.6187C15.1288 17.9147 15.2604 18.1943 15.4458 18.4412C16.2271 19.5048 17.7701 19.8198 18.8854 19.1442L20.845 17.9609C21.109 17.8026 21.3356 17.5939 21.5104 17.348C21.6852 17.1021 21.8044 16.8243 21.8604 16.5322C21.9536 16.039 21.8713 15.5303 21.6264 15.0866C21.794 14.8445 21.9085 14.5726 21.963 14.2874C22.0188 13.9887 22.0114 13.6823 21.9411 13.3864C21.8709 13.0904 21.7392 12.8108 21.5539 12.5639V12.5587C21.308 12.2258 20.9803 11.9554 20.5992 11.7709C20.2181 11.5864 19.7953 11.4935 19.3677 11.5004ZM19.5395 12.4129C19.7786 12.4233 20.012 12.4862 20.2215 12.5965C20.431 12.7068 20.6109 12.8615 20.7471 13.0488C20.8588 13.1971 20.9381 13.3652 20.9804 13.5432C21.0227 13.7211 21.0272 13.9053 20.9935 14.085C20.9817 14.1435 20.9662 14.2014 20.9469 14.2581L20.9093 14.3655L20.8094 14.2939C20.5775 14.1319 20.3184 14.0087 20.0431 13.9294L19.9678 13.9092L19.9747 13.8376C19.9834 13.7392 19.9553 13.641 19.8953 13.5604C19.8402 13.4867 19.7628 13.4307 19.6735 13.3999C19.5841 13.3691 19.487 13.3649 19.3951 13.3879C19.3525 13.3986 19.3119 13.4155 19.2747 13.438L17.3151 14.6232C17.267 14.652 17.2258 14.6899 17.194 14.7346C17.1622 14.7793 17.1405 14.8298 17.1303 14.8829C17.1206 14.9372 17.1222 14.9927 17.1352 15.0463C17.1481 15.0999 17.172 15.1506 17.2056 15.1953C17.2601 15.2697 17.337 15.3265 17.4262 15.3582C17.5154 15.39 17.6127 15.3951 17.7051 15.373C17.7476 15.362 17.7881 15.3451 17.8255 15.3229L18.5768 14.8699C18.6996 14.7949 18.8339 14.7387 18.975 14.7033C19.2832 14.627 19.6086 14.6425 19.9072 14.7479C20.2058 14.8532 20.4632 15.0433 20.6445 15.2923C20.7561 15.4407 20.8354 15.6088 20.8777 15.7868C20.92 15.9647 20.9244 16.1489 20.8908 16.3285C20.8577 16.5046 20.7863 16.6722 20.6812 16.8206C20.5761 16.969 20.4397 17.0949 20.2805 17.1903L18.3209 18.3774C18.1978 18.4518 18.0635 18.508 17.9227 18.5441C17.6142 18.6202 17.2886 18.6045 16.9898 18.4991C16.691 18.3936 16.4334 18.2035 16.2518 17.9544C16.1403 17.8061 16.0612 17.6381 16.019 17.4602C15.9768 17.2824 15.9725 17.0983 16.0061 16.9188C16.0172 16.8604 16.0327 16.8027 16.0527 16.7464L16.0896 16.639L16.1902 16.7106C16.4216 16.8714 16.6801 16.9938 16.9545 17.0725L17.0297 17.0926L17.0229 17.1642C17.0157 17.2623 17.0447 17.3597 17.105 17.4395C17.1598 17.5144 17.2374 17.5715 17.3273 17.6031C17.4172 17.6348 17.5151 17.6395 17.6079 17.6166C17.6502 17.6057 17.6906 17.5888 17.7277 17.5665L19.6845 16.3793C19.7325 16.3504 19.7736 16.3124 19.8052 16.2675C19.8367 16.2227 19.8581 16.1721 19.8679 16.1189C19.878 16.0647 19.8765 16.0091 19.8635 15.9555C19.8506 15.9018 19.8265 15.8512 19.7927 15.8065C19.7379 15.7317 19.6603 15.6746 19.5704 15.643C19.4805 15.6113 19.3825 15.6066 19.2897 15.6295C19.2471 15.6402 19.2065 15.6571 19.1693 15.6796L18.418 16.1332C18.2954 16.2074 18.1615 16.2633 18.0212 16.2992C17.7132 16.375 17.3882 16.3591 17.0899 16.2538C16.7917 16.1485 16.5345 15.9588 16.353 15.7102C16.2419 15.5616 16.1632 15.3934 16.1213 15.2155C16.0795 15.0375 16.0755 14.8534 16.1095 14.674C16.1426 14.4979 16.214 14.3303 16.3191 14.1819C16.4242 14.0335 16.5606 13.9076 16.7198 13.8122L18.6822 12.6251C18.8042 12.5511 18.9373 12.4951 19.077 12.4591C19.2279 12.4219 19.3838 12.4059 19.5395 12.4129Z" fill="#FF7C7C"/>
</svg>
