<svg width="24" height="25" viewBox="0 0 24 25" fill="none" xmlns="http://www.w3.org/2000/svg">
<path fill-rule="evenodd" clip-rule="evenodd" d="M5 4.5C3.34315 4.5 2 5.84315 2 7.5V17.5C2 19.1569 3.34315 20.5 5 20.5H13V18.5H5C4.44772 18.5 4 18.0523 4 17.5V7.5C4 6.94772 4.44772 6.5 5 6.5H7.78388C8.01539 6.5 8.23973 6.58033 8.41862 6.72727L10.8119 8.69318C11.3486 9.13402 12.0216 9.375 12.7161 9.375H19C19.5523 9.375 20 9.82272 20 10.375V10.5H22V10.375C22 8.71815 20.6569 7.375 19 7.375H12.7161C12.4846 7.375 12.2603 7.29467 12.0814 7.14773L9.6881 5.18182C9.15142 4.74098 8.47841 4.5 7.78388 4.5H5Z" fill="#64748B"/>
<path fill-rule="evenodd" clip-rule="evenodd" d="M18.9452 15.1047L14.5456 19.5L14 18.955L18.3953 14.5554L18.9452 15.1047ZM20.6912 13.9787L20.921 13.7483L20.6131 13.4404L20.8625 13.1911L20.3089 12.6382L20.0596 12.8875L19.7517 12.5796L19.5219 12.8095C18.8435 12.2549 18.0805 11.8128 17.2621 11.5L16.9384 12.1974C17.6186 12.5554 18.2544 12.9922 18.8324 13.4989L18.6374 13.694L19.8066 14.8633L20.0017 14.6682C20.5082 15.2463 20.9448 15.882 21.3026 16.5623L22 16.2392C21.6874 15.4205 21.2455 14.6573 20.6912 13.9787Z" fill="#8CDBFF"/>
</svg>
