<svg width="24" height="25" viewBox="0 0 24 25" fill="none" xmlns="http://www.w3.org/2000/svg">
<path fill-rule="evenodd" clip-rule="evenodd" d="M5 4.5C3.34315 4.5 2 5.84315 2 7.5V17.5C2 19.1569 3.34315 20.5 5 20.5H13V18.5H5C4.44772 18.5 4 18.0523 4 17.5V7.5C4 6.94772 4.44772 6.5 5 6.5H7.78388C8.01539 6.5 8.23973 6.58033 8.41862 6.72727L10.8119 8.69318C11.3486 9.13402 12.0216 9.375 12.7161 9.375H19C19.5523 9.375 20 9.82272 20 10.375V10.5H22V10.375C22 8.71815 20.6569 7.375 19 7.375H12.7161C12.4846 7.375 12.2603 7.29467 12.0814 7.14773L9.6881 5.18182C9.15142 4.74098 8.47841 4.5 7.78388 4.5H5Z" fill="#64748B"/>
<path fill-rule="evenodd" clip-rule="evenodd" d="M22 18.025C22.0002 18.1066 21.9784 18.1867 21.9369 18.2565C21.8953 18.3264 21.8356 18.3834 21.7643 18.4214L18.2528 20.4191C18.1824 20.473 18.0929 20.5 18 20.5C17.9071 20.5 17.8176 20.473 17.7472 20.4191L14.2357 18.4214C14.1644 18.3834 14.1047 18.3264 14.0631 18.2565C14.0216 18.1867 13.9998 18.1066 14 18.025V13.975C14 13.8041 14.0929 13.6554 14.2357 13.5786L17.7472 11.5809C17.8176 11.527 17.9064 11.5 18 11.5C18.0936 11.5 18.1824 11.527 18.2528 11.5809L21.7643 13.5786C21.8355 13.6167 21.8951 13.6737 21.9367 13.7436C21.9782 13.8134 22.0001 13.8934 22 13.975V18.025ZM18 12.4677L15.3506 13.975L18 15.4829L20.6487 13.975L18 12.467M14.8888 17.7594L17.5553 19.2805V16.2611L14.8888 14.7442V17.7594ZM21.1112 17.7601V14.7442L18.4441 16.2611V19.2805L21.1112 17.7601Z" fill="#C084FC"/>
</svg>
