<svg width="24" height="25" viewBox="0 0 24 25" fill="none" xmlns="http://www.w3.org/2000/svg">
<path fill-rule="evenodd" clip-rule="evenodd" d="M5 4.5C3.34315 4.5 2 5.84315 2 7.5V17.5C2 19.1569 3.34315 20.5 5 20.5H12V18.5H5C4.44772 18.5 4 18.0523 4 17.5V7.5C4 6.94772 4.44772 6.5 5 6.5H7.78388C8.01539 6.5 8.23973 6.58033 8.41862 6.72727L10.8119 8.69318C11.3486 9.13402 12.0216 9.375 12.7161 9.375H19C19.5523 9.375 20 9.82272 20 10.375V10.5H22V10.375C22 8.71815 20.6569 7.375 19 7.375H12.7161C12.4846 7.375 12.2603 7.29467 12.0814 7.14773L9.6881 5.18182C9.15142 4.74098 8.47841 4.5 7.78388 4.5H5Z" fill="#64748B"/>
<path fill-rule="evenodd" clip-rule="evenodd" d="M19.6707 12.5C19.5817 12.5 19.5 12.5018 19.4388 12.5072C18.9612 12.5446 18.5154 12.734 18.2098 13.029C18.057 13.1768 17.9181 13.3885 17.851 13.5779C17.776 13.7866 17.7766 13.783 17.7766 14.11C17.7766 14.528 17.8005 14.6311 17.9573 14.9092C18.1148 15.1891 18.3546 15.4171 18.7014 15.6168C18.8529 15.7049 19.2415 15.8804 19.5584 16.0053C20.2494 16.2767 20.4679 16.4022 20.5689 16.5849L20.6108 16.6603V16.8184C20.6108 16.971 20.6108 16.9788 20.5762 17.0416C20.4985 17.1869 20.3145 17.3064 20.0786 17.3637C19.9896 17.3854 19.9491 17.3884 19.7498 17.3884C19.5551 17.3884 19.5079 17.3848 19.4182 17.3643C19.2804 17.3354 19.1488 17.2859 19.0289 17.2177C18.9027 17.1423 18.6556 16.9161 18.5552 16.7834C18.5107 16.7255 18.4662 16.6778 18.4562 16.6778C18.4396 16.6778 17.5873 17.12 17.4385 17.2062C17.3886 17.2352 17.376 17.2485 17.376 17.2714C17.376 17.3197 17.5753 17.5929 17.7308 17.7588C18.049 18.0966 18.6861 18.3952 19.2508 18.47C19.4741 18.4989 19.8441 18.5086 20.1032 18.4917C20.2813 18.4784 20.4575 18.4483 20.6287 18.4018C21.2957 18.2245 21.7508 17.8469 21.9189 17.3317C21.989 17.1088 22.0139 16.8762 21.9926 16.6453C21.9461 16.1977 21.7947 15.881 21.4957 15.6077C21.218 15.3526 20.8373 15.1481 20.0846 14.8483C19.4322 14.5889 19.2621 14.4876 19.1678 14.3054C19.0867 14.148 19.1027 13.9314 19.2043 13.7963C19.3239 13.6389 19.5677 13.561 19.8401 13.5936C20.0926 13.6238 20.256 13.7149 20.4168 13.9145C20.4998 14.0177 20.5576 14.0714 20.5849 14.0714C20.6128 14.0714 20.7304 14.0056 21.0951 13.7854C21.4671 13.5616 21.5841 13.4856 21.592 13.4627C21.6046 13.4271 21.5455 13.3439 21.3755 13.1545C21.0333 12.7732 20.6314 12.5706 20.1145 12.5199C19.967 12.5068 19.8189 12.5001 19.6707 12.5ZM15.561 12.5645H14.5153C12.4969 12.567 12.0279 12.57 12.0153 12.5814C12.0033 12.5929 12 12.7051 12 13.1243V13.6533L12.9181 13.6563L13.8356 13.6594V16.0179C13.8356 17.316 13.8396 18.3885 13.8436 18.4018L13.8502 18.4259H14.5179C15.1152 18.4259 15.1856 18.4253 15.1922 18.4091C15.1962 18.4 15.1989 17.3275 15.1989 16.0258V13.6594L16.117 13.6563L17.0345 13.6533V13.1183C17.0345 12.6544 17.0325 12.5814 17.0166 12.573C17.0086 12.5682 16.4811 12.5651 15.5616 12.5645H15.561Z" fill="#8CDBFF"/>
</svg>
