<svg width="24" height="25" viewBox="0 0 24 25" fill="none" xmlns="http://www.w3.org/2000/svg">
<path fill-rule="evenodd" clip-rule="evenodd" d="M5 4.5C3.34315 4.5 2 5.84315 2 7.5V17.5C2 19.1569 3.34315 20.5 5 20.5H13V18.5H5C4.44772 18.5 4 18.0523 4 17.5V7.5C4 6.94772 4.44772 6.5 5 6.5H7.78388C8.01539 6.5 8.23973 6.58033 8.41862 6.72727L10.8119 8.69318C11.3486 9.13402 12.0216 9.375 12.7161 9.375H19C19.5523 9.375 20 9.82272 20 10.375V10.5H22V10.375C22 8.71815 20.6569 7.375 19 7.375H12.7161C12.4846 7.375 12.2603 7.29467 12.0814 7.14773L9.6881 5.18182C9.15142 4.74098 8.47841 4.5 7.78388 4.5H5Z" fill="#64748B"/>
<path fill-rule="evenodd" clip-rule="evenodd" d="M18 18.7002C18.8486 18.7002 19.6624 18.3631 20.2625 17.763C20.8625 17.1629 21.1996 16.349 21.1996 15.5003C21.1996 14.6517 20.8625 13.8378 20.2625 13.2377C19.6624 12.6376 18.8486 12.3005 18 12.3005C17.1515 12.3005 16.3378 12.6375 15.7378 13.2375C15.1378 13.8374 14.8006 14.6511 14.8004 15.4997C14.8003 15.9199 14.883 16.3361 15.0438 16.7244C15.2045 17.1127 15.4402 17.4655 15.7373 17.7627C16.0344 18.06 16.3872 18.2957 16.7754 18.4566C17.1636 18.6174 17.5798 18.7002 18 18.7002ZM18 11.5C19.0609 11.5 20.0783 11.9215 20.8284 12.6717C21.5786 13.4219 22 14.4394 22 15.5003C21.9998 16.5612 21.5783 17.5785 20.8282 18.3286C20.0781 19.0786 19.0607 19.5 18 19.5C16.9394 19.4991 15.9225 19.0774 15.1726 18.3273C14.4226 17.5773 14.0009 16.5603 14 15.4997C14.0002 14.4388 14.4217 13.4215 15.1718 12.6714C15.9219 11.9214 16.9392 11.5 18 11.5ZM18.2003 13.5002V15.5998L20 16.6684L19.6996 17.1597L17.6001 15.9002V13.5002H18.2003Z" fill="#8CDBFF" stroke="#8CDBFF" stroke-width="0.271" stroke-linejoin="round"/>
</svg>
