<svg width="24" height="25" viewBox="0 0 24 25" fill="none" xmlns="http://www.w3.org/2000/svg">
<g clip-path="url(#clip0_808_541)">
<path fill-rule="evenodd" clip-rule="evenodd" d="M5 5C3.34315 5 2 6.34315 2 8V18C2 19.6569 3.34315 21 5 21H10V19H5C4.44772 19 4 18.5523 4 18V8C4 7.44772 4.44772 7 5 7H7.78388C8.01539 7 8.23973 7.08033 8.41862 7.22727L10.8119 9.19318C11.3486 9.63402 12.0216 9.875 12.7161 9.875H19C19.5523 9.875 20 10.3227 20 10.875V11H22V10.875C22 9.21815 20.6569 7.875 19 7.875H12.7161C12.4846 7.875 12.2603 7.79467 12.0814 7.64773L9.6881 5.68182C9.15142 5.24098 8.47841 5 7.78388 5H5Z" fill="#64748B"/>
<path d="M15.1458 14.7971L13 16.9429L15.1458 19.0887" stroke="#89FF8D" stroke-width="1.5" stroke-linecap="round" stroke-linejoin="round"/>
<path d="M21.0766 14.7971L23.2224 16.9429L21.0766 19.0887" stroke="#89FF8D" stroke-width="1.5" stroke-linecap="round" stroke-linejoin="round"/>
<path d="M16.5615 20.5193L19.661 13.3666" stroke="#89FF8D" stroke-width="1.5" stroke-linecap="round" stroke-linejoin="round"/>
</g>
<defs>
<clipPath id="clip0_808_541">
<rect width="24" height="24" fill="white" transform="translate(0 0.5)"/>
</clipPath>
</defs>
</svg>
