<svg width="24" height="25" viewBox="0 0 24 25" fill="none" xmlns="http://www.w3.org/2000/svg">
<path fill-rule="evenodd" clip-rule="evenodd" d="M5 4.5C3.34315 4.5 2 5.84315 2 7.5V17.5C2 19.1569 3.34315 20.5 5 20.5H11V18.5H5C4.44772 18.5 4 18.0523 4 17.5V7.5C4 6.94772 4.44772 6.5 5 6.5H7.78388C8.01539 6.5 8.23973 6.58033 8.41862 6.72727L10.8119 8.69318C11.3486 9.13402 12.0216 9.375 12.7161 9.375H19C19.5523 9.375 20 9.82272 20 10.375V10.5H22V10.375C22 8.71815 20.6569 7.375 19 7.375H12.7161C12.4846 7.375 12.2603 7.29467 12.0814 7.14773L9.6881 5.18182C9.15142 4.74098 8.47841 4.5 7.78388 4.5H5Z" fill="#64748B"/>
<path d="M16.994 11.5423C16.1355 11.7674 15.5861 12.3369 15.5919 12.9954C15.5978 13.4456 15.764 13.8454 16.1825 14.4099C16.4504 14.7728 16.9881 15.4682 17.0038 15.4733C17.0116 15.4766 17.0859 15.4464 17.1661 15.4078C17.7351 15.1356 18.0969 14.7056 18.1751 14.2117C18.1868 14.1394 18.1966 13.9244 18.1966 13.7363C18.1966 13.3583 18.2044 13.3264 18.3139 13.2592C18.441 13.1802 18.5955 13.2054 18.6972 13.3196L18.7539 13.3818L18.7598 13.7279C18.7637 13.9294 18.7578 14.1394 18.7441 14.2285C18.6972 14.5527 18.5701 14.85 18.3628 15.1239C18.2377 15.2885 17.9189 15.5589 17.698 15.6883C17.5005 15.8042 17.1133 15.9873 16.992 16.0226C16.8904 16.0512 16.7926 16.0327 16.7105 15.9672C16.6596 15.9252 15.809 14.8181 15.5821 14.4956C15.3397 14.1529 15.1539 13.7699 15.0737 13.4439C15.0131 13.197 15.0053 12.8341 15.0561 12.6309C15.105 12.4427 15.191 12.2462 15.2927 12.1C15.3397 12.0312 15.3749 11.9724 15.371 11.969C15.367 11.9656 15.2771 11.974 15.1715 11.9908C13.656 12.2109 12.4201 13.2256 12.0897 14.5208C12.0056 14.8433 11.9919 14.9878 12.0036 15.3775C12.0154 15.7589 12.0388 15.8916 12.1444 16.1923C12.2637 16.5299 12.426 16.8273 12.688 17.1851C12.8758 17.4421 12.9794 17.6185 13.042 17.7882C13.1495 18.0721 13.1574 18.1359 13.1691 18.7524C13.1769 19.1439 13.1886 19.3421 13.2043 19.3656C13.216 19.3841 13.2532 19.421 13.2884 19.4496L13.349 19.5H14.7902L14.843 19.458C14.9525 19.3706 14.9505 19.379 14.9505 18.66V17.9965H16.1219L16.1336 19.374L16.2079 19.4362L16.2802 19.5H17.7234L17.7762 19.458C17.872 19.3807 17.8818 19.3454 17.9033 18.9759C17.9404 18.3241 18.0421 17.8487 18.2651 17.2943C18.3843 16.9953 18.4645 16.8357 18.7187 16.3955C18.9358 16.0192 18.9416 16.0125 18.9944 16.0209C19.0238 16.026 19.1528 16.0461 19.2819 16.0646C19.5948 16.1083 19.6925 16.1352 19.8353 16.2141C19.9839 16.2981 20.113 16.4426 20.1755 16.5971C20.2147 16.6996 20.2205 16.7416 20.2205 17.0053C20.2205 17.2892 20.2186 17.301 20.1736 17.3564C20.113 17.4287 19.9761 17.4824 19.8881 17.469C19.8529 17.4623 19.7864 17.4337 19.7395 17.4052C19.6261 17.3346 19.4638 17.3195 19.366 17.3716C19.2526 17.432 18.4547 18.1342 18.4234 18.2014C18.3628 18.3257 18.3961 18.4198 18.5427 18.5391C19.0531 18.9557 19.8685 19.1103 20.5432 18.9188C20.948 18.8045 21.3567 18.5206 21.6324 18.1594C21.781 17.9679 21.8573 17.8285 21.9452 17.5832L22 17.4337V15.7118C22 14.1277 21.998 13.9782 21.9648 13.8522C21.781 13.1197 21.2335 12.515 20.4513 12.1773C20.0797 12.0177 19.5987 11.932 19.0766 11.932H18.8654L18.6503 11.8161C18.2123 11.5843 17.9444 11.5121 17.4829 11.502C17.1876 11.4969 17.1602 11.4986 16.994 11.5423ZM20.0915 14.0118C20.2244 14.0958 20.2557 14.2251 20.1755 14.3393C20.0289 14.5392 19.6632 14.4469 19.6632 14.2083C19.6632 14.0235 19.9252 13.9042 20.0915 14.0118Z" fill="#A855F7"/>
</svg>
