<svg width="24" height="25" viewBox="0 0 24 25" fill="none" xmlns="http://www.w3.org/2000/svg">
<path fill-rule="evenodd" clip-rule="evenodd" d="M5 4.5C3.34315 4.5 2 5.84315 2 7.5V17.5C2 19.1569 3.34315 20.5 5 20.5H12V18.5H5C4.44772 18.5 4 18.0523 4 17.5V7.5C4 6.94772 4.44772 6.5 5 6.5H7.78388C8.01539 6.5 8.23973 6.58033 8.41862 6.72727L10.8119 8.69318C11.3486 9.13402 12.0216 9.375 12.7161 9.375H19C19.5523 9.375 20 9.82272 20 10.375V10.5H22V10.375C22 8.71815 20.6569 7.375 19 7.375H12.7161C12.4846 7.375 12.2603 7.29467 12.0814 7.14773L9.6881 5.18182C9.15142 4.74098 8.47841 4.5 7.78388 4.5H5Z" fill="#64748B"/>
<path fill-rule="evenodd" clip-rule="evenodd" d="M14 17.8336V19.5H15.6664L20.5813 14.5851L18.9149 12.9187L14 17.8336ZM21.87 13.2964C21.9112 13.2553 21.9439 13.2065 21.9662 13.1527C21.9885 13.0989 22 13.0413 22 12.9831C22 12.9249 21.9885 12.8673 21.9662 12.8135C21.9439 12.7598 21.9112 12.7109 21.87 12.6698L20.8302 11.63C20.7891 11.5888 20.7402 11.5561 20.6865 11.5338C20.6327 11.5115 20.5751 11.5 20.5169 11.5C20.4587 11.5 20.4011 11.5115 20.3473 11.5338C20.2935 11.5561 20.2447 11.5888 20.2036 11.63L19.3904 12.4432L21.0568 14.1096L21.87 13.2964Z" fill="#CFD8DC"/>
</svg>
