<svg width="24" height="25" viewBox="0 0 24 25" fill="none" xmlns="http://www.w3.org/2000/svg">
<path fill-rule="evenodd" clip-rule="evenodd" d="M5 4.5C3.34315 4.5 2 5.84315 2 7.5V17.5C2 19.1569 3.34315 20.5 5 20.5H12V18.5H5C4.44772 18.5 4 18.0523 4 17.5V7.5C4 6.94772 4.44772 6.5 5 6.5H7.78388C8.01539 6.5 8.23973 6.58033 8.41862 6.72727L10.8119 8.69318C11.3486 9.13402 12.0216 9.375 12.7161 9.375H19C19.5523 9.375 20 9.82272 20 10.375V10.5H22V10.375C22 8.71815 20.6569 7.375 19 7.375H12.7161C12.4846 7.375 12.2603 7.29467 12.0814 7.14773L9.6881 5.18182C9.15142 4.74098 8.47841 4.5 7.78388 4.5H5Z" fill="#64748B"/>
<path fill-rule="evenodd" clip-rule="evenodd" d="M19.2361 17.0868C19.4019 17.0729 19.5555 16.9993 19.6645 16.8815C19.7736 16.7637 19.8295 16.6109 19.8207 16.4553C19.8118 16.2996 19.7388 16.1533 19.617 16.047C19.4952 15.9407 19.3341 15.8829 19.1676 15.8856H19.1444C19.0601 15.8883 18.9772 15.9066 18.9005 15.9394C18.8237 15.9721 18.7547 16.0188 18.6973 16.0766C18.6398 16.1344 18.5951 16.2023 18.5658 16.2763C18.5364 16.3503 18.5229 16.4291 18.5261 16.508C18.534 16.6565 18.5989 16.7973 18.709 16.9045C18.3201 17.6234 17.7244 18.1487 16.831 18.5881C16.2241 18.8888 15.5946 18.9958 14.9644 18.9205C14.4492 18.8564 14.0483 18.6416 13.7964 18.2881C13.4294 17.7628 13.3955 17.1939 13.7046 16.6262C13.8918 16.2889 14.1579 15.9955 14.4831 15.7679C14.424 15.5881 14.3743 15.4058 14.3342 15.2214C12.6736 16.3468 12.8451 17.8698 13.3497 18.5887C13.7272 19.124 14.4944 19.457 15.3419 19.457C15.5713 19.457 15.8006 19.4352 16.0293 19.3817C17.4951 19.1141 18.6059 18.2987 19.2361 17.0868Z" fill="#E676FA" stroke="#E676FA" stroke-width="0.293" stroke-linejoin="round"/>
<path fill-rule="evenodd" clip-rule="evenodd" d="M21.2516 15.7573C20.3808 14.8032 19.0984 14.2772 17.6327 14.2772H17.4492C17.3964 14.1805 17.316 14.0993 17.217 14.0426C17.118 13.9859 17.0042 13.956 16.8881 13.9561H16.8655C16.6954 13.9589 16.5334 14.0248 16.4152 14.1395C16.297 14.2541 16.2323 14.408 16.2353 14.5673C16.2383 14.7266 16.3088 14.8782 16.4312 14.9889C16.5536 15.0995 16.718 15.1601 16.8881 15.1573H16.9114C17.0321 15.1518 17.1487 15.1146 17.2479 15.05C17.3471 14.9854 17.4249 14.896 17.4724 14.792H17.6785C18.5494 14.792 19.3737 15.0285 20.1182 15.4891C20.6899 15.8432 21.1027 16.3045 21.332 16.8615C21.5261 17.3122 21.5148 17.7516 21.3088 18.1269C20.9884 18.6952 20.4499 19.0064 19.7399 19.0064C19.2813 19.0064 18.8465 18.8776 18.6178 18.7811C18.4915 18.8888 18.2622 19.0599 18.102 19.167C18.5946 19.3817 19.0991 19.5 19.5797 19.5C20.6792 19.5 21.4922 18.9311 21.8014 18.3628C22.1337 17.741 22.1105 16.6686 21.2516 15.7573Z" fill="#E676FA" stroke="#E676FA" stroke-width="0.293" stroke-linejoin="round"/>
<path fill-rule="evenodd" clip-rule="evenodd" d="M15.4336 17.2692C15.4449 17.591 15.7314 17.8481 16.0751 17.8481H16.0977C16.2678 17.8453 16.4298 17.7793 16.548 17.6647C16.6662 17.5501 16.7309 17.3962 16.7279 17.2369C16.7249 17.0776 16.6544 16.9259 16.532 16.8153C16.4096 16.7046 16.2452 16.644 16.0751 16.6468H16.0518C16.0292 16.6468 15.9947 16.6468 15.9721 16.658C15.5027 15.9292 15.3073 15.1356 15.3764 14.2773C15.4223 13.6343 15.6516 13.076 16.0518 12.6154C16.3842 12.2189 17.0257 12.0259 17.4611 12.0147C18.675 11.9936 19.1902 13.409 19.2247 13.9772C19.3736 14.0096 19.6256 14.0843 19.7971 14.1384C19.6595 12.4013 18.5141 11.5 17.4152 11.5C16.3849 11.5 15.4343 12.1971 15.0553 13.2266C14.5289 14.599 14.8725 15.918 15.514 16.958C15.4503 17.0502 15.4222 17.16 15.4343 17.2692H15.4336Z" fill="#E676FA" stroke="#E676FA" stroke-width="0.293" stroke-linejoin="round"/>
</svg>
