<svg width="24" height="24" viewBox="0 0 24 24" fill="none" xmlns="http://www.w3.org/2000/svg">
<path fill-rule="evenodd" clip-rule="evenodd" d="M5 4C3.34315 4 2 5.34315 2 7V17C2 18.6569 3.34315 20 5 20H13V18H5C4.44772 18 4 17.5523 4 17V7C4 6.44772 4.44772 6 5 6H7.78388C8.01539 6 8.23973 6.08033 8.41862 6.22727L10.8119 8.19318C11.3486 8.63402 12.0216 8.875 12.7161 8.875H19C19.5523 8.875 20 9.32272 20 9.875V10H22V9.875C22 8.21815 20.6569 6.875 19 6.875H12.7161C12.4846 6.875 12.2603 6.79467 12.0814 6.64773L9.6881 4.68182C9.15142 4.24098 8.47841 4 7.78388 4H5Z" fill="#64748B"/>
<path d="M16.7242 13.7704H15.6015C15.581 13.6358 15.5391 13.5162 15.4759 13.4116C15.4126 13.3054 15.3315 13.2151 15.2324 13.1407C15.1332 13.0662 15.0187 13.0092 14.8889 12.9696C14.7607 12.93 14.6214 12.9102 14.471 12.9102C14.1993 12.9102 13.9627 12.9728 13.761 13.0979C13.5594 13.2215 13.403 13.4021 13.2919 13.6397C13.1808 13.8758 13.1253 14.1625 13.1253 14.5C13.1253 14.847 13.1808 15.1385 13.2919 15.3745C13.4047 15.6106 13.5619 15.7888 13.7636 15.9092C13.9652 16.0296 14.1985 16.0898 14.4634 16.0898C14.612 16.0898 14.7496 16.0716 14.8761 16.0352C15.0042 15.9987 15.1179 15.9457 15.217 15.876C15.3161 15.8047 15.3981 15.7183 15.4631 15.6169C15.5297 15.5155 15.5758 15.3999 15.6015 15.27L16.7242 15.2747C16.6952 15.4981 16.6225 15.7136 16.5063 15.9211C16.3918 16.1271 16.2372 16.3116 16.0424 16.4748C15.8493 16.6364 15.6186 16.7647 15.3503 16.8598C15.0837 16.9533 14.7821 17 14.4454 17C13.9772 17 13.5585 16.9018 13.1894 16.7053C12.822 16.5089 12.5315 16.2245 12.3179 15.8522C12.106 15.4799 12 15.0292 12 14.5C12 13.9693 12.1077 13.5177 12.323 13.1454C12.5383 12.7731 12.8305 12.4895 13.1996 12.2947C13.5688 12.0982 13.984 12 14.4454 12C14.7496 12 15.0316 12.0396 15.2913 12.1188C15.5528 12.198 15.7843 12.3137 15.986 12.4658C16.1876 12.6163 16.3517 12.8009 16.4781 13.0195C16.6063 13.2381 16.6883 13.4884 16.7242 13.7704Z" fill="#2DD4BF"/>
<path d="M17.0682 12.0665H18.3114L19.5084 14.1625H19.5597L20.7568 12.0665H22L20.0852 15.2129V16.9335H18.983V15.2129L17.0682 12.0665Z" fill="#2DD4BF"/>
</svg>
