<svg width="24" height="25" viewBox="0 0 24 25" fill="none" xmlns="http://www.w3.org/2000/svg">
<path fill-rule="evenodd" clip-rule="evenodd" d="M5 4.5C3.34315 4.5 2 5.84315 2 7.5V17.5C2 19.1569 3.34315 20.5 5 20.5H14V18.5H5C4.44772 18.5 4 18.0523 4 17.5V7.5C4 6.94772 4.44772 6.5 5 6.5H7.78388C8.01539 6.5 8.23973 6.58033 8.41862 6.72727L10.8119 8.69318C11.3486 9.13402 12.0216 9.375 12.7161 9.375H19C19.5523 9.375 20 9.82272 20 10.375V10.5H22V10.375C22 8.71815 20.6569 7.375 19 7.375H12.7161C12.4846 7.375 12.2603 7.29467 12.0814 7.14773L9.6881 5.18182C9.15142 4.74098 8.47841 4.5 7.78388 4.5H5Z" fill="#64748B"/>
<path fill-rule="evenodd" clip-rule="evenodd" d="M21.9569 13.4787C21.7075 12.5388 20.0853 12.23 18.5499 12.7539C17.6361 13.0658 16.6472 13.5552 15.9358 14.1942C15.0901 14.9541 14.9552 15.6153 15.011 15.8917C15.207 16.8666 16.5978 17.5041 17.1695 17.9767V17.9796C17.0008 18.0592 15.7671 18.659 15.4783 19.2723C15.1737 19.9194 15.5269 20.3835 15.7607 20.4461C16.4852 20.6398 17.2285 20.2916 17.6283 19.719C18.0139 19.1665 17.9817 18.4532 17.8141 18.0983C18.0452 18.0398 18.3147 18.0136 18.6571 18.0519C19.6235 18.1604 19.8131 18.7399 19.7769 18.9826C19.7407 19.2252 19.538 19.3586 19.4701 19.3988C19.4023 19.439 19.3817 19.4532 19.3873 19.483C19.3956 19.5266 19.427 19.525 19.4846 19.5155C19.5643 19.5026 19.992 19.3182 20.0105 18.8705C20.0338 18.302 19.4667 17.6661 18.4625 17.6828C18.049 17.6898 17.7889 17.7274 17.6009 17.7946C17.587 17.7794 17.5731 17.7642 17.5583 17.7493C16.9376 17.1131 15.7899 16.6631 15.8384 15.8077C15.8561 15.4968 15.9688 14.678 18.0436 13.6848C19.7434 12.8711 21.1042 13.0952 21.3394 13.5913C21.6753 14.3001 20.6122 15.6176 18.847 15.8077C18.1745 15.8801 17.8203 15.6297 17.7323 15.5365C17.6396 15.4383 17.6259 15.4339 17.591 15.4522C17.5347 15.4824 17.5704 15.5689 17.591 15.6207C17.6438 15.7526 17.86 15.9862 18.2287 16.1024C18.5531 16.2046 19.3425 16.2608 20.2976 15.9061C21.367 15.5081 22.2022 14.4026 21.9569 13.4787ZM17.4068 18.268C17.487 18.5529 17.4781 18.8185 17.3953 19.0588C17.3769 19.1124 17.3549 19.1647 17.3293 19.2154C17.2655 19.3427 17.1797 19.4617 17.0748 19.5716C16.7547 19.907 16.3077 20.034 16.116 19.9271C15.909 19.8117 16.0127 19.3388 16.3836 18.9622C16.7828 18.5568 17.3572 18.2961 17.3572 18.2961L17.3564 18.2946L17.4068 18.268Z" fill="#FF79A6" stroke="#FF79A6" stroke-width="0.501517" stroke-linejoin="round"/>
</svg>
