<svg width="24" height="24" viewBox="0 0 24 24" fill="none" xmlns="http://www.w3.org/2000/svg">
<path fill-rule="evenodd" clip-rule="evenodd" d="M5 4C3.34315 4 2 5.34315 2 7V17C2 18.6569 3.34315 20 5 20H13V18H5C4.44772 18 4 17.5523 4 17V7C4 6.44772 4.44772 6 5 6H7.78388C8.01539 6 8.23973 6.08033 8.41862 6.22727L10.8119 8.19318C11.3486 8.63402 12.0216 8.875 12.7161 8.875H19C19.5523 8.875 20 9.32272 20 9.875V10H22V9.875C22 8.21815 20.6569 6.875 19 6.875H12.7161C12.4846 6.875 12.2603 6.79467 12.0814 6.64773L9.6881 4.68182C9.15142 4.24098 8.47841 4 7.78388 4H5Z" fill="#64748B"/>
<path fill-rule="evenodd" clip-rule="evenodd" d="M17.5 14.2139C17.9309 14.2139 18.2826 14.5633 18.2826 14.9997C18.2826 15.4161 17.9309 15.7696 17.5 15.7696C17.294 15.7689 17.0966 15.6878 16.9502 15.5438C16.8038 15.3998 16.7202 15.2044 16.7174 14.9997C16.7174 14.5633 17.0691 14.2139 17.5 14.2139ZM15.5617 18.3275C15.8258 18.4856 16.4033 18.2446 17.0691 17.6204C16.8453 17.3675 16.6345 17.1036 16.4373 16.8297C16.0999 16.7978 15.7644 16.748 15.4324 16.6805C15.219 17.57 15.2983 18.1824 15.5617 18.3275ZM15.8591 15.9402L15.7375 15.7276C15.6904 15.8444 15.65 15.9639 15.6166 16.0853C15.7298 16.1102 15.855 16.1315 15.9849 16.1522L15.8591 15.9402ZM18.5967 15.624L18.9358 14.9997L18.5967 14.3761C18.4715 14.1558 18.3374 13.9604 18.2158 13.7649C17.9893 13.7519 17.7509 13.7519 17.5006 13.7519C17.2491 13.7519 17.0101 13.7519 16.7842 13.7649C16.6626 13.9604 16.5291 14.1558 16.4033 14.3761L16.0642 14.9997L16.4039 15.624C16.5291 15.8443 16.6626 16.0397 16.7842 16.2351C17.0107 16.2476 17.2491 16.2476 17.5 16.2476C17.7509 16.2476 17.9899 16.2476 18.2158 16.2357C18.3374 16.0397 18.4709 15.8443 18.5967 15.624ZM17.5 12.8286C17.4207 12.9204 17.3367 13.0158 17.2532 13.1283H17.7468C17.6633 13.0158 17.5799 12.9204 17.5 12.8286ZM17.5 17.1709C17.5793 17.0797 17.6633 16.9837 17.7468 16.8718H17.2532C17.3367 16.9843 17.4201 17.0791 17.5 17.1709ZM19.4341 11.6726C19.1742 11.5145 18.5967 11.7555 17.9309 12.3797C18.155 12.6321 18.3659 12.8958 18.5627 13.1698C18.9066 13.2035 19.2458 13.2527 19.5676 13.3196C19.7816 12.4295 19.7017 11.8183 19.4341 11.6732M19.1409 14.0599L19.2625 14.2719C19.3083 14.1517 19.3542 14.0309 19.3834 13.9142C19.2702 13.8893 19.145 13.8686 19.0151 13.8479L19.1409 14.0599ZM19.7476 11.1283C20.3633 11.4772 20.4301 12.3963 20.1708 13.4694C21.2341 13.7815 22 14.2974 22 14.9997C22 15.7027 21.2341 16.2186 20.1702 16.5307C20.4301 17.6038 20.3633 18.5229 19.7476 18.8723C19.1367 19.2218 18.3034 18.822 17.5006 18.061C16.696 18.822 15.8633 19.2218 15.2476 18.8723C14.6367 18.5229 14.5699 17.6038 14.8292 16.5307C13.7665 16.2186 13 15.7027 13 14.9997C13 14.2968 13.7665 13.7815 14.8298 13.4694C14.5699 12.3963 14.6367 11.4772 15.2482 11.1277C15.8633 10.7783 16.6966 11.1775 17.5 11.9391C18.3034 11.1775 19.1367 10.7783 19.7476 11.1277M19.6266 14.9997C19.7691 15.3119 19.8948 15.624 19.9991 15.9402C20.8783 15.6779 21.3718 15.3036 21.3718 14.9997C21.3718 14.6965 20.8783 14.3222 19.9991 14.0599C19.8921 14.3796 19.7677 14.6933 19.6266 14.9997ZM15.3734 14.9997C15.2323 14.6933 15.1079 14.3796 15.0009 14.0599C14.1223 14.3222 13.6282 14.6965 13.6282 14.9997C13.6282 15.3036 14.1223 15.6779 15.0009 15.9402C15.1058 15.624 15.2315 15.3124 15.3734 14.9997ZM19.1409 15.9402L19.0157 16.1522C19.145 16.1315 19.2708 16.1108 19.3834 16.0853C19.3499 15.9639 19.3095 15.8445 19.2625 15.7276L19.1409 15.9402ZM17.9309 17.6204C18.5967 18.244 19.1742 18.485 19.4341 18.3275C19.7023 18.1818 19.7816 17.5706 19.5676 16.6805C19.2458 16.7468 18.906 16.7966 18.5633 16.8303C18.3625 17.1087 18.1491 17.3752 17.9315 17.6204M15.8591 14.0599L15.9843 13.8479C15.855 13.8686 15.7292 13.8893 15.6166 13.9148C15.6458 14.0309 15.6917 14.1517 15.7375 14.2725L15.8591 14.0599ZM17.0691 12.3797C16.4033 11.7561 15.8258 11.5151 15.5617 11.6726C15.2983 11.8183 15.2184 12.4295 15.4324 13.3196C15.7643 13.2522 16.0995 13.2022 16.4367 13.1698C16.6375 12.8914 16.8509 12.6249 17.0685 12.3797H17.0691Z" fill="#0EA5E9"/>
</svg>
