<svg width="24" height="25" viewBox="0 0 24 25" fill="none" xmlns="http://www.w3.org/2000/svg">
<path fill-rule="evenodd" clip-rule="evenodd" d="M5 4.5C3.34315 4.5 2 5.84315 2 7.5V17.5C2 19.1569 3.34315 20.5 5 20.5H12V18.5H5C4.44772 18.5 4 18.0523 4 17.5V7.5C4 6.94772 4.44772 6.5 5 6.5H7.78388C8.01539 6.5 8.23973 6.58033 8.41862 6.72727L10.8119 8.69318C11.3486 9.13402 12.0216 9.375 12.7161 9.375H19C19.5523 9.375 20 9.82272 20 10.375V10.5H22V10.375C22 8.71815 20.6569 7.375 19 7.375H12.7161C12.4846 7.375 12.2603 7.29467 12.0814 7.14773L9.6881 5.18182C9.15142 4.74098 8.47841 4.5 7.78388 4.5H5Z" fill="#64748B"/>
<path d="M15.9329 12.6818H17.1488V16.7386C17.1488 17.1136 17.0645 17.4394 16.896 17.7159C16.7293 17.9924 16.4973 18.2055 16.1999 18.3551C15.9026 18.5047 15.5569 18.5795 15.163 18.5795C14.8126 18.5795 14.4944 18.518 14.2085 18.3949C13.9244 18.2699 13.699 18.0805 13.5323 17.8267C13.3656 17.571 13.2833 17.25 13.2852 16.8636H14.5096C14.5134 17.017 14.5446 17.1487 14.6033 17.2585C14.6639 17.3665 14.7463 17.4498 14.8505 17.5085C14.9566 17.5653 15.0816 17.5938 15.2255 17.5938C15.377 17.5938 15.5049 17.5616 15.609 17.4972C15.7151 17.4309 15.7956 17.3343 15.8505 17.2074C15.9054 17.0805 15.9329 16.9242 15.9329 16.7386V12.6818ZM21.3221 14.3551C21.2994 14.1259 21.2018 13.9479 21.0295 13.821C20.8571 13.6941 20.6232 13.6307 20.3278 13.6307C20.127 13.6307 19.9575 13.6591 19.8192 13.7159C19.681 13.7708 19.5749 13.8475 19.5011 13.946C19.4291 14.0445 19.3931 14.1562 19.3931 14.2812C19.3893 14.3854 19.4111 14.4763 19.4585 14.554C19.5077 14.6316 19.5749 14.6989 19.6602 14.7557C19.7454 14.8106 19.8439 14.8589 19.9556 14.9006C20.0674 14.9403 20.1867 14.9744 20.3136 15.0028L20.8363 15.1278C21.0901 15.1847 21.323 15.2604 21.5352 15.3551C21.7473 15.4498 21.931 15.5663 22.0863 15.7045C22.2416 15.8428 22.3619 16.0057 22.4471 16.1932C22.5342 16.3807 22.5787 16.5956 22.5806 16.8381C22.5787 17.1941 22.4878 17.5028 22.3079 17.7642C22.1299 18.0237 21.8723 18.2254 21.5352 18.3693C21.1999 18.5114 20.7956 18.5824 20.3221 18.5824C19.8524 18.5824 19.4433 18.5104 19.0948 18.3665C18.7482 18.2225 18.4774 18.0095 18.2823 17.7273C18.0891 17.4432 17.9878 17.0919 17.9783 16.6733H19.1687C19.1819 16.8684 19.2378 17.0312 19.3363 17.1619C19.4367 17.2907 19.5702 17.3883 19.7369 17.4545C19.9054 17.5189 20.0958 17.5511 20.3079 17.5511C20.5162 17.5511 20.6971 17.5208 20.8505 17.4602C21.0058 17.3996 21.1261 17.3153 21.2113 17.2074C21.2965 17.0994 21.3391 16.9754 21.3391 16.8352C21.3391 16.7045 21.3003 16.5947 21.2227 16.5057C21.1469 16.4167 21.0352 16.3409 20.8874 16.2784C20.7416 16.2159 20.5626 16.1591 20.3505 16.108L19.717 15.9489C19.2264 15.8295 18.8391 15.643 18.555 15.3892C18.271 15.1354 18.1299 14.7936 18.1317 14.3636C18.1299 14.0114 18.2236 13.7036 18.413 13.4403C18.6043 13.1771 18.8666 12.9716 19.1999 12.8239C19.5333 12.6761 19.9121 12.6023 20.3363 12.6023C20.7681 12.6023 21.145 12.6761 21.467 12.8239C21.7908 12.9716 22.0427 13.1771 22.2227 13.4403C22.4026 13.7036 22.4954 14.0085 22.5011 14.3551H21.3221Z" fill="#FFCE50"/>
</svg>
