<svg width="24" height="25" viewBox="0 0 24 25" fill="none" xmlns="http://www.w3.org/2000/svg">
<path fill-rule="evenodd" clip-rule="evenodd" d="M5 4.5C3.34315 4.5 2 5.84315 2 7.5V17.5C2 19.1569 3.34315 20.5 5 20.5H13V18.5H5C4.44772 18.5 4 18.0523 4 17.5V7.5C4 6.94772 4.44772 6.5 5 6.5H7.78388C8.01539 6.5 8.23973 6.58033 8.41862 6.72727L10.8119 8.69318C11.3486 9.13402 12.0216 9.375 12.7161 9.375H19C19.5523 9.375 20 9.82272 20 10.375V10.5H22V10.375C22 8.71815 20.6569 7.375 19 7.375H12.7161C12.4846 7.375 12.2603 7.29467 12.0814 7.14773L9.6881 5.18182C9.15142 4.74098 8.47841 4.5 7.78388 4.5H5Z" fill="#64748B"/>
<path fill-rule="evenodd" clip-rule="evenodd" d="M22 16.3006H21.2001V17.1006H18.8005V15.9006H19.6004V15.1006H18.8005V13.1006C18.8005 12.9956 18.7798 12.8915 18.7396 12.7945C18.6994 12.6974 18.6405 12.6092 18.5662 12.5349C18.4919 12.4606 18.4038 12.4017 18.3067 12.3615C18.2097 12.3213 18.1057 12.3006 18.0006 12.3006H14.7999V11.5H14V14.7H14.7999V13.9H17.1995V15.1H16.3996V15.9H17.1995V17.9C17.1995 18.0051 17.2202 18.1092 17.2604 18.2063C17.3007 18.3034 17.3597 18.3916 17.434 18.4659C17.5083 18.5402 17.5966 18.5991 17.6937 18.6393C17.7908 18.6794 17.8949 18.7001 18 18.7H21.1995V19.5H21.9994" fill="#8CDBFF"/>
</svg>
