<svg width="24" height="24" viewBox="0 0 24 24" fill="none" xmlns="http://www.w3.org/2000/svg">
<path fill-rule="evenodd" clip-rule="evenodd" d="M5 4C3.34315 4 2 5.34315 2 7V17C2 18.6569 3.34315 20 5 20H13V18H5C4.44772 18 4 17.5523 4 17V7C4 6.44772 4.44772 6 5 6H7.78388C8.01539 6 8.23973 6.08033 8.41862 6.22727L10.8119 8.19318C11.3486 8.63402 12.0216 8.875 12.7161 8.875H19C19.5523 8.875 20 9.32272 20 9.875V10H22V9.875C22 8.21815 20.6569 6.875 19 6.875H12.7161C12.4846 6.875 12.2603 6.79467 12.0814 6.64773L9.6881 4.68182C9.15142 4.24098 8.47841 4 7.78388 4H5Z" fill="#64748B"/>
<path fill-rule="evenodd" clip-rule="evenodd" d="M14.8753 11C14.7603 10.9999 14.6465 11.0206 14.5402 11.0608C14.434 11.101 14.3375 11.1599 14.2562 11.2342C14.1749 11.3086 14.1104 11.3968 14.0664 11.494C14.0225 11.5911 13.9999 11.6952 14 11.8003V18.1984C13.9997 18.3037 14.0222 18.4079 14.0661 18.5052C14.1099 18.6025 14.1744 18.6909 14.2557 18.7653C14.337 18.8398 14.4336 18.8988 14.5399 18.9391C14.6463 18.9794 14.7602 19.0001 14.8753 19H20.1247C20.2398 19.0001 20.3537 18.9794 20.4601 18.9391C20.5664 18.8988 20.663 18.8398 20.7443 18.7653C20.8256 18.6909 20.8901 18.6025 20.9339 18.5052C20.9778 18.4079 21.0003 18.3037 21 18.1984V11.8009C21.0002 11.6958 20.9777 11.5916 20.9337 11.4944C20.8898 11.3972 20.8254 11.3089 20.7441 11.2345C20.6628 11.1601 20.5662 11.1011 20.4599 11.0608C20.3536 11.0206 20.2397 10.9999 20.1247 11H14.8753ZM14.8753 13.8005H20.1247V15.8H14.8753V13.8005ZM14.8753 16.5991H20.1247V18.1984H14.8753V16.5991Z" fill="#8CDBFF"/>
</svg>
