<svg width="24" height="24" viewBox="0 0 24 24" fill="none" xmlns="http://www.w3.org/2000/svg">
<path fill-rule="evenodd" clip-rule="evenodd" d="M5 4C3.34315 4 2 5.34315 2 7V17C2 18.6569 3.34315 20 5 20H13V18H5C4.44772 18 4 17.5523 4 17V7C4 6.44772 4.44772 6 5 6H7.78388C8.01539 6 8.23973 6.08033 8.41862 6.22727L10.8119 8.19318C11.3486 8.63402 12.0216 8.875 12.7161 8.875H19C19.5523 8.875 20 9.32272 20 9.875V10H22V9.875C22 8.21815 20.6569 6.875 19 6.875H12.7161C12.4846 6.875 12.2603 6.79467 12.0814 6.64773L9.6881 4.68182C9.15142 4.24098 8.47841 4 7.78388 4H5Z" fill="#64748B"/>
<g clip-path="url(#clip0_808_1385)">
<path d="M14.52 16.06C14.11 13.88 15.2 11.77 17.68 11.49C17.5503 11.3527 17.3873 11.2511 17.2069 11.1951C17.0265 11.1391 16.8347 11.1304 16.65 11.17C16.27 11.29 16.28 11.54 15.85 11.86C15.43 12.1 15.21 11.91 14.9 12.17C14.59 12.42 14.8 13 14.67 13.11C14.54 13.34 14.14 13.54 14.06 13.82C14 14.18 14.22 14.44 14.22 14.76C14.25 15.02 13.96 15.17 14 15.38C14.12 15.72 14.36 15.93 14.47 16.03C14.5 16.04 14.53 16.08 14.52 16.06Z" fill="#FF7043"/>
<path d="M18.95 13.04C18.9076 13.04 18.8669 13.0231 18.8369 12.9931C18.8069 12.9631 18.79 12.9224 18.79 12.88C18.79 12.79 18.86 12.72 18.95 12.72C19.04 12.72 19.11 12.79 19.11 12.88C19.11 12.97 19.04 13.04 18.95 13.04ZM14.62 16.3C14.22 14.4 15.44 12.82 17.8 13.6C19.19 14.41 20.93 14.36 21.01 13.83C21.21 13.2 20.13 11.91 18.52 11.57C15.32 10.95 13.6 14.4 14.62 16.3Z" fill="url(#paint0_radial_808_1385)"/>
<path d="M19.86 16.51C20.0989 16.539 20.3412 16.5185 20.5717 16.4497C20.8023 16.3809 21.0162 16.2652 21.2 16.11C20.6034 16.7775 19.7725 17.1894 18.88 17.26C19.31 17.63 19.73 17.79 20.13 17.72C19.02 18.03 18.09 17.69 16.97 16.57C16.91 16.87 17.23 17.34 17.56 17.64C15.64 16.81 15.47 14.23 17.8 13.59C15.39 12.43 14.02 14.69 14.69 16.54C15.0899 17.319 15.7202 17.9558 16.495 18.3638C17.2698 18.7718 18.1515 18.9311 19.02 18.82C19.6623 18.7352 20.2698 18.4786 20.7785 18.0773C21.2871 17.676 21.678 17.1449 21.91 16.54C21.4952 16.8887 21.0005 17.1292 20.47 17.24C21.55 16.7 22.13 15.78 21.97 14.53C21.7874 15.0087 21.4801 15.4299 21.08 15.75C21.87 14.53 21.73 13.89 21.15 13.2C21.57 14.34 21.03 15.6 19.86 16.51Z" fill="url(#paint1_radial_808_1385)"/>
<path d="M19.3001 17.82C19.2201 17.8 19.4901 17.93 18.9701 17.79C18.4501 17.65 17.9201 17.52 16.9601 16.56C16.9001 16.86 17.2201 17.33 17.5501 17.63C18.4401 18.25 17.8301 17.96 19.1901 18.43C19.3001 18.22 19.3001 18.03 19.3001 17.82Z" fill="url(#paint2_linear_808_1385)"/>
<path d="M17.58 12.95C17.58 12.95 17.7 12.78 17.74 12.7C17.8 12.6 17.88 12.43 17.88 12.43C17.88 12.43 16.97 12.13 16.75 12.1C16.06 12.28 16.06 12.57 16.44 13.01C16.49 13.06 17.58 12.95 17.58 12.95Z" fill="url(#paint3_linear_808_1385)"/>
</g>
<defs>
<radialGradient id="paint0_radial_808_1385" cx="0" cy="0" r="1" gradientUnits="userSpaceOnUse" gradientTransform="translate(19.605 13.31) scale(6.03385 4.3163)">
<stop stop-color="#FF7043"/>
<stop offset="1" stop-color="#5A1E0B"/>
</radialGradient>
<radialGradient id="paint1_radial_808_1385" cx="0" cy="0" r="1" gradientUnits="userSpaceOnUse" gradientTransform="translate(19.66 13.45) scale(6.1075 4.62009)">
<stop stop-color="#FF7043"/>
<stop offset="0.29" stop-color="#FF7043"/>
<stop offset="1" stop-color="#7D2C12"/>
</radialGradient>
<linearGradient id="paint2_linear_808_1385" x1="17.3501" y1="16.59" x2="18.4351" y2="18.4" gradientUnits="userSpaceOnUse">
<stop stop-color="#FF7043"/>
<stop offset="0.67" stop-color="#FF7043"/>
<stop offset="0.83" stop-color="#FF7043" stop-opacity="0.2"/>
<stop offset="1" stop-color="#FF7043" stop-opacity="0"/>
</linearGradient>
<linearGradient id="paint3_linear_808_1385" x1="17.265" y1="12.775" x2="17.11" y2="12.48" gradientUnits="userSpaceOnUse">
<stop stop-color="#FF7043" stop-opacity="0.15"/>
<stop offset="0.4" stop-color="#FF7043" stop-opacity="0.4"/>
<stop offset="0.65" stop-color="#FF7043" stop-opacity="0.89"/>
<stop offset="1" stop-color="#FF7043" stop-opacity="0.968627"/>
</linearGradient>
<clipPath id="clip0_808_1385">
<rect width="8" height="8" fill="white" transform="translate(14 11)"/>
</clipPath>
</defs>
</svg>
