<svg width="24" height="25" viewBox="0 0 24 25" fill="none" xmlns="http://www.w3.org/2000/svg">
<path fill-rule="evenodd" clip-rule="evenodd" d="M5 4.5C3.34315 4.5 2 5.84315 2 7.5V17.5C2 19.1569 3.34315 20.5 5 20.5H13V18.5H5C4.44772 18.5 4 18.0523 4 17.5V7.5C4 6.94772 4.44772 6.5 5 6.5H7.78388C8.01539 6.5 8.23973 6.58033 8.41862 6.72727L10.8119 8.69318C11.3486 9.13402 12.0216 9.375 12.7161 9.375H19C19.5523 9.375 20 9.82272 20 10.375V10.5H22V10.375C22 8.71815 20.6569 7.375 19 7.375H12.7161C12.4846 7.375 12.2603 7.29467 12.0814 7.14773L9.6881 5.18182C9.15142 4.74098 8.47841 4.5 7.78388 4.5H5Z" fill="#64748B"/>
<path fill-rule="evenodd" clip-rule="evenodd" d="M16.4396 17.7222H15.2455L13 15.5L15.2455 13.2778H16.4396L17.0383 12.2732L20.145 11.5L21 14.4954L20.4013 15.5L21 16.5046L20.145 19.5L17.039 18.7268L16.4396 17.7222ZM16.5035 17.6111L18.85 18.2242L17.4965 15.9444H14.7881L16.5035 17.6111ZM19.6465 17.7797L20.2775 15.5L19.6465 13.2203L18.2876 15.5L19.6465 17.7797ZM16.5035 13.3889L14.7881 15.0556H17.4965L18.8507 12.7758L16.5035 13.3889Z" fill="#CFD8DC"/>
</svg>
