<svg width="24" height="24" viewBox="0 0 24 24" fill="none" xmlns="http://www.w3.org/2000/svg">
<path fill-rule="evenodd" clip-rule="evenodd" d="M5 4C3.34315 4 2 5.34315 2 7V17C2 18.6569 3.34315 20 5 20H12V18H5C4.44772 18 4 17.5523 4 17V7C4 6.44772 4.44772 6 5 6H7.78388C8.01539 6 8.23973 6.08033 8.41862 6.22727L10.8119 8.19318C11.3486 8.63402 12.0216 8.875 12.7161 8.875H19C19.5523 8.875 20 9.32272 20 9.875V10H22V9.875C22 8.21815 20.6569 6.875 19 6.875H12.7161C12.4846 6.875 12.2603 6.79467 12.0814 6.64773L9.6881 4.68182C9.15142 4.24098 8.47841 4 7.78388 4H5Z" fill="#64748B"/>
<path d="M20.6402 12.3334C20.7111 12.3332 20.7805 12.3523 20.8398 12.3884L18.6762 11.055C18.6169 11.0189 18.5475 10.9998 18.4765 11C18.4249 10.9999 18.3737 11.0103 18.3269 11.0305C18.2799 11.0506 18.2384 11.08 18.205 11.1166L15.9082 13.5884L14.5971 14.9984L13.8058 15.8501L13 16.7167L14.4389 17.7167L15.9082 16.4117L17.4964 15L18.838 13.8084L20.3669 12.45L20.392 12.4266C20.4247 12.3967 20.4635 12.3731 20.506 12.3571C20.5486 12.3411 20.5942 12.333 20.6402 12.3334Z" fill="#4E8CD8"/>
<path d="M18.6816 18.9451L20.8398 17.6117C20.7805 17.6478 20.7111 17.667 20.6402 17.6667C20.5942 17.6671 20.5486 17.659 20.506 17.643C20.4635 17.627 20.4247 17.6034 20.392 17.5735L20.3669 17.5501L18.8399 16.1935L17.4964 15.0001L15.9082 13.5885L14.4389 12.2834L13 13.2817L13.8058 14.1485L14.5971 14.9985L15.9082 16.4118L18.2087 18.8851C18.2665 18.9462 18.3461 18.9859 18.433 18.9969C18.5199 19.0079 18.6082 18.9896 18.6816 18.9451Z" fill="#60A5FA"/>
<path d="M21.0001 12.6666V17.3333C21.0001 17.3884 20.9855 17.4425 20.9576 17.4911C20.9297 17.5396 20.8892 17.581 20.8399 17.6116L18.6817 18.945C18.731 18.9144 18.7714 18.873 18.7993 18.8244C18.8272 18.7758 18.8418 18.7217 18.8418 18.6666V11.3333C18.841 11.2779 18.8255 11.2235 18.7966 11.1749C18.7678 11.1264 18.7264 11.0852 18.6763 11.0549L20.8399 12.3883C20.8891 12.419 20.9294 12.4605 20.9573 12.509C20.9852 12.5575 20.9999 12.6116 21.0001 12.6666Z" fill="#87BAF9"/>
<path opacity="0.4" d="M21.0001 12.6666V17.3333C21.0001 17.3884 20.9855 17.4425 20.9576 17.4911C20.9297 17.5396 20.8892 17.581 20.8399 17.6116L18.6817 18.945C18.731 18.9144 18.7714 18.873 18.7993 18.8244C18.8272 18.7758 18.8418 18.7217 18.8418 18.6666V11.3333C18.841 11.2779 18.8255 11.2235 18.7966 11.1749C18.7678 11.1264 18.7264 11.0852 18.6763 11.0549L20.8399 12.3883C20.8891 12.419 20.9294 12.4605 20.9573 12.509C20.9852 12.5575 20.9999 12.6116 21.0001 12.6666Z" fill="#60A5FA"/>
</svg>
