<svg width="24" height="24" viewBox="0 0 24 24" fill="none" xmlns="http://www.w3.org/2000/svg">
<path fill-rule="evenodd" clip-rule="evenodd" d="M5 4C3.34315 4 2 5.34315 2 7V17C2 18.6569 3.34315 20 5 20H13V18H5C4.44772 18 4 17.5523 4 17V7C4 6.44772 4.44772 6 5 6H7.78388C8.01539 6 8.23973 6.08033 8.41862 6.22727L10.8119 8.19318C11.3486 8.63402 12.0216 8.875 12.7161 8.875H19C19.5523 8.875 20 9.32272 20 9.875V10H22V9.875C22 8.21815 20.6569 6.875 19 6.875H12.7161C12.4846 6.875 12.2603 6.79467 12.0814 6.64773L9.6881 4.68182C9.15142 4.24098 8.47841 4 7.78388 4H5Z" fill="#64748B"/>
<path fill-rule="evenodd" clip-rule="evenodd" d="M17.9164 11.1614C17.8758 11.1678 17.7945 11.1968 17.7358 11.2225C17.5612 11.3028 14.3857 13.0996 14.3255 13.151C14.1885 13.2731 14.1434 13.5302 14.2246 13.7167C14.2472 13.7681 14.2863 13.8243 14.3149 13.8468C14.3751 13.8934 17.6937 15.4893 17.8276 15.5343C17.9375 15.5729 18.085 15.5664 18.2174 15.5166C18.3634 15.462 21.6308 13.8902 21.682 13.8501C21.7572 13.7906 21.7993 13.6813 21.8054 13.5302C21.8129 13.3599 21.7738 13.2426 21.6835 13.159C21.6202 13.1028 18.386 11.2691 18.2264 11.2C18.1256 11.1566 18.0188 11.1421 17.9164 11.1614ZM19.594 12.4799C20.5076 13.0038 21.2557 13.4855 21.2557 13.4919C21.2572 13.4983 20.5727 13.8436 19.6607 14.2551L18.0007 15.0007L16.3482 14.2583C15.4392 13.8485 14.7627 13.4905 14.7612 13.4825C14.7597 13.4729 15.4331 13.0546 16.3422 12.5323C17.2497 12.0084 17.9947 11.5793 17.9947 11.5793C17.9947 11.5793 18.682 11.956 19.594 12.4799V12.4799Z" fill="#8CDBFF"/>
<path fill-rule="evenodd" clip-rule="evenodd" d="M17.9898 15.7136C17.9189 15.7138 17.8494 15.703 17.7838 15.6801C17.7586 15.6715 17.7437 15.6641 17.7114 15.6497C17.6788 15.6351 17.6359 15.6155 17.5837 15.5913C17.4794 15.543 17.3383 15.4766 17.1727 15.3982C16.8414 15.2414 16.412 15.0361 15.9848 14.8309C15.5577 14.6256 15.1329 14.4202 14.8109 14.2632C14.6498 14.1847 14.5145 14.1182 14.4171 14.0697C14.3684 14.0455 14.3293 14.0257 14.3005 14.0109C14.2862 14.0035 14.2745 13.9974 14.2648 13.9921C14.2551 13.9868 14.2567 13.9909 14.2308 13.9709C14.2305 13.9706 14.2302 13.9704 14.2299 13.9702C14.1597 13.9149 14.1274 13.8559 14.0949 13.7817C14.0948 13.7816 14.0947 13.7815 14.0947 13.7813C13.9835 13.5264 14.0326 13.2128 14.2336 13.0335C14.2344 13.0328 14.2352 13.0321 14.236 13.0314C14.2581 13.0125 14.2579 13.0152 14.2672 13.0093C14.2764 13.0035 14.2877 12.9966 14.3015 12.9883C14.3291 12.9717 14.3667 12.9495 14.4135 12.9223C14.507 12.8677 14.6369 12.7929 14.7915 12.7043C15.1007 12.5272 15.5089 12.2952 15.9207 12.0622C16.3325 11.8293 16.7478 11.5955 17.0714 11.4148C17.2331 11.3244 17.3719 11.2473 17.4761 11.1901C17.5803 11.1329 17.6407 11.0996 17.6791 11.0819C17.6799 11.0815 17.6807 11.0812 17.6815 11.0808C17.7479 11.0517 17.8198 11.0221 17.8943 11.0102C18.0247 10.9862 18.1578 11.0053 18.2802 11.058C18.2803 11.058 18.2804 11.058 18.2805 11.0581C18.3246 11.0772 18.3793 11.1082 18.4838 11.1654C18.5882 11.2226 18.7281 11.3003 18.8916 11.3917C19.2187 11.5744 19.64 11.8119 20.0584 12.0491C20.4768 12.2862 20.8922 12.5229 21.2072 12.7041C21.3647 12.7946 21.497 12.8713 21.5925 12.9273C21.6403 12.9554 21.6787 12.9782 21.7071 12.9954C21.7212 13.004 21.7328 13.0112 21.7424 13.0174C21.7521 13.0236 21.7525 13.021 21.7754 13.0414C21.7761 13.042 21.7768 13.0426 21.7775 13.0433C21.9025 13.1589 21.9575 13.3387 21.9488 13.5372C21.9416 13.7153 21.8895 13.8767 21.7674 13.9732C21.7673 13.9733 21.7672 13.9734 21.767 13.9735C21.737 13.997 21.7421 13.9899 21.7328 13.9949C21.7235 13.9999 21.7123 14.0058 21.6984 14.0129C21.6706 14.0271 21.6325 14.0463 21.585 14.0699C21.4899 14.1171 21.3573 14.1821 21.1992 14.2591C20.8831 14.4131 20.4652 14.6151 20.0443 14.8176C19.6234 15.02 19.1995 15.223 18.8716 15.3788C18.7076 15.4567 18.5676 15.5228 18.4637 15.5713C18.3599 15.6198 18.3058 15.6459 18.2651 15.6611C18.175 15.695 18.0813 15.7134 17.9898 15.7136L17.9898 15.7136ZM17.9694 15.4046C18.0317 15.4066 18.1045 15.3968 18.1699 15.3722C18.1699 15.3721 18.17 15.3721 18.1701 15.3721C18.1658 15.3737 18.2458 15.3387 18.3487 15.2906C18.4516 15.2426 18.5913 15.1766 18.7549 15.0989C19.0823 14.9434 19.5058 14.7406 19.9264 14.5383C20.347 14.336 20.7647 14.1341 21.0801 13.9804C21.2378 13.9035 21.37 13.8387 21.464 13.7921C21.511 13.7688 21.5484 13.75 21.5742 13.7367C21.5863 13.7305 21.5953 13.7258 21.6015 13.7225C21.6285 13.6977 21.6575 13.6408 21.6621 13.5237C21.6622 13.5235 21.6622 13.5233 21.6622 13.523C21.6682 13.3858 21.6465 13.3301 21.5949 13.2801C21.5948 13.2801 21.5947 13.28 21.5946 13.2799C21.5883 13.2759 21.5781 13.2695 21.5651 13.2616C21.539 13.2457 21.5013 13.2234 21.4543 13.1957C21.3602 13.1405 21.2282 13.0641 21.0711 12.9738C20.757 12.7931 20.3419 12.5565 19.9239 12.3196C19.5059 12.0827 19.0848 11.8453 18.7586 11.663C18.5955 11.5719 18.456 11.4945 18.3528 11.438C18.2497 11.3815 18.1686 11.3402 18.1727 11.342C18.0943 11.3083 18.0148 11.2984 17.9414 11.3122C17.9401 11.3125 17.9388 11.3127 17.9375 11.3129C17.9312 11.3139 17.8426 11.3415 17.7917 11.3636C17.7853 11.3667 17.7095 11.4064 17.6073 11.4625C17.5042 11.5192 17.3658 11.596 17.2043 11.6862C16.8815 11.8665 16.4664 12.1002 16.055 12.3329C15.6435 12.5657 15.2356 12.7975 14.9271 12.9742C14.7728 13.0626 14.6433 13.1372 14.551 13.1911C14.5048 13.218 14.4678 13.2398 14.4422 13.2552C14.4295 13.2629 14.4195 13.269 14.4132 13.2729C14.3432 13.3418 14.3044 13.5363 14.3547 13.6519C14.3649 13.675 14.396 13.7134 14.4012 13.7224C14.4076 13.7258 14.4147 13.7296 14.4253 13.7351C14.4519 13.7488 14.4903 13.7682 14.5384 13.7921C14.6345 13.84 14.7694 13.9062 14.93 13.9845C15.2513 14.1412 15.6758 14.3464 16.1026 14.5515C16.5293 14.7566 16.9584 14.9617 17.2889 15.1182C17.4542 15.1964 17.5948 15.2625 17.6979 15.3103C17.7494 15.3342 17.7916 15.3534 17.8223 15.3672C17.853 15.3809 17.8798 15.3913 17.8708 15.3882C17.8713 15.3884 17.8719 15.3886 17.8725 15.3888C17.8985 15.3979 17.932 15.4034 17.9694 15.4046L17.9694 15.4046ZM18.0198 15.1526C17.9945 15.1562 17.9687 15.1525 17.9452 15.1419L16.2927 14.3994C16.2926 14.3994 16.2926 14.3994 16.2925 14.3994C15.836 14.1936 15.438 14.0009 15.1535 13.8584C15.0113 13.7872 14.8975 13.7285 14.8185 13.6868C14.779 13.6659 14.7483 13.6494 14.7263 13.6372C14.7154 13.6311 14.7068 13.6262 14.6989 13.6215C14.695 13.6191 14.6916 13.6171 14.6859 13.6132C14.6831 13.6113 14.68 13.6093 14.6731 13.6035C14.6697 13.6006 14.6654 13.5972 14.6575 13.5884C14.6497 13.5796 14.632 13.5735 14.6206 13.5126C14.6203 13.5109 14.62 13.5093 14.6198 13.5077C14.61 13.445 14.63 13.4182 14.6384 13.4033C14.6468 13.3883 14.6524 13.3823 14.6567 13.3774C14.6652 13.3676 14.6692 13.3645 14.6727 13.3615C14.6796 13.3555 14.6834 13.3528 14.6875 13.3498C14.6959 13.3436 14.7045 13.3378 14.7154 13.3305C14.7373 13.3159 14.7676 13.2963 14.8068 13.2716C14.885 13.2222 14.998 13.1523 15.1394 13.0665C15.4222 12.8948 15.8186 12.6592 16.2741 12.3975L16.2742 12.3975L16.2743 12.3974C17.1817 11.8736 17.9267 11.4445 17.9267 11.4445C17.9471 11.4327 17.97 11.4264 17.9933 11.4261C18.0166 11.4259 18.0395 11.4317 18.0602 11.443C18.0602 11.443 18.7488 11.8204 19.662 12.345C20.1206 12.608 20.5372 12.8601 20.8396 13.0475C20.9908 13.1412 21.1134 13.2187 21.1987 13.2735C21.2413 13.3009 21.2745 13.3226 21.2979 13.3381C21.3095 13.3459 21.3186 13.352 21.3261 13.3573C21.3299 13.36 21.3331 13.3622 21.3378 13.3659C21.3402 13.3677 21.3427 13.3695 21.3485 13.3748C21.3514 13.3774 21.3549 13.3804 21.3624 13.3892C21.3661 13.3936 21.3709 13.3993 21.378 13.4116C21.384 13.4219 21.3948 13.4367 21.3982 13.4703C21.4121 13.5507 21.3759 13.5775 21.3657 13.5905C21.3549 13.6043 21.3494 13.6083 21.3451 13.612C21.3366 13.6193 21.3332 13.6213 21.3301 13.6233C21.3239 13.6275 21.3205 13.6294 21.3166 13.6317C21.3087 13.6362 21.3002 13.6409 21.2893 13.6467C21.2674 13.6584 21.2368 13.6742 21.1971 13.6943C21.1179 13.7346 21.0034 13.7914 20.8604 13.861C20.5743 14.0001 20.1741 14.1898 19.7167 14.3961C19.7166 14.3962 19.7165 14.3962 19.7165 14.3962L18.0564 15.1419C18.0447 15.1472 18.0324 15.1508 18.0198 15.1526L18.0198 15.1526ZM18.0008 14.8346L19.6051 14.1139C20.0597 13.9088 20.4577 13.7202 20.7414 13.5822C20.8134 13.5473 20.8852 13.5119 20.9568 13.4763C20.87 13.4212 20.7829 13.3666 20.6955 13.3124C20.3954 13.1264 19.9812 12.8758 19.5262 12.6148C19.5262 12.6148 19.5262 12.6148 19.5261 12.6148C18.741 12.1638 18.1518 11.8381 17.9963 11.7525C17.9396 11.7851 17.2814 12.1642 16.4105 12.667C16.4104 12.667 16.4103 12.6671 16.4102 12.6671C15.9567 12.9277 15.5619 13.1623 15.2812 13.3328C15.2063 13.3782 15.1316 13.424 15.0572 13.4702C15.1199 13.5025 15.1904 13.5385 15.2753 13.5811C15.5567 13.722 15.9515 13.9131 16.4039 14.1171L16.404 14.1172L18.0008 14.8346ZM21.1168 13.529C21.1139 13.5169 21.1125 13.5044 21.1125 13.4919C21.1125 13.5 21.113 13.507 21.1136 13.5135C21.1145 13.5187 21.1156 13.5239 21.1168 13.529Z" fill="#8CDBFF"/>
<path fill-rule="evenodd" clip-rule="evenodd" d="M14.154 14.988C14.175 15.2178 14.2277 15.3849 14.303 15.4685C14.3436 15.5119 14.6867 15.6838 16.0683 16.346C17.0105 16.7975 17.8096 17.1752 17.8428 17.1848C17.9451 17.2138 18.0836 17.2057 18.2009 17.164C18.3183 17.1222 21.5737 15.5649 21.6534 15.5119C21.7257 15.4653 21.8009 15.2885 21.8295 15.0989C21.8702 14.8449 21.8882 14.8546 21.6324 14.9912C21.509 15.0555 20.6421 15.4862 19.706 15.9474L18.0008 16.7863L16.2971 15.9474C15.3595 15.4862 14.4911 15.0555 14.3677 14.9896L14.1434 14.8707L14.154 14.988Z" fill="#8CDBFF"/>
<path fill-rule="evenodd" clip-rule="evenodd" d="M17.9687 17.3563C17.9131 17.3553 17.8584 17.3477 17.8061 17.3329C17.8057 17.3328 17.8054 17.3328 17.805 17.3326C17.7809 17.3256 17.7832 17.3248 17.774 17.3209C17.7649 17.3169 17.7536 17.3119 17.7398 17.3057C17.7121 17.2931 17.6742 17.2757 17.6268 17.2537C17.532 17.2096 17.3994 17.1473 17.2384 17.0712C16.9163 16.919 16.4809 16.7116 16.0096 16.4857C15.3186 16.1546 14.8873 15.946 14.6222 15.814C14.4896 15.7481 14.3988 15.7014 14.3362 15.6671C14.2736 15.6328 14.2496 15.6281 14.2015 15.5768C14.2009 15.5761 14.2002 15.5754 14.1996 15.5747C14.0813 15.4433 14.0339 15.2502 14.0112 15.0029C14.0112 15.0028 14.0112 15.0027 14.0112 15.0026L14.0007 14.8853C13.9982 14.8581 14.0026 14.8307 14.0134 14.806C14.0242 14.7812 14.0411 14.76 14.0621 14.7445C14.0832 14.729 14.1078 14.7198 14.1333 14.7179C14.1588 14.716 14.1843 14.7214 14.2072 14.7335L14.4315 14.8524C14.4316 14.8525 14.4317 14.8526 14.4318 14.8526C14.5381 14.9094 15.4197 15.3472 16.3572 15.8083C16.3572 15.8083 16.3572 15.8083 16.3572 15.8083L18.0009 16.6177L19.646 15.8083C20.5814 15.3475 21.4561 14.9127 21.5691 14.8538C21.6314 14.8205 21.6771 14.7947 21.7181 14.775C21.7387 14.7651 21.7577 14.7563 21.7842 14.7494C21.8107 14.7426 21.8533 14.7326 21.9076 14.7623C21.9619 14.792 21.9885 14.8569 21.994 14.8923C21.9995 14.9277 21.9968 14.9501 21.9944 14.9727C21.9897 15.0179 21.9808 15.0632 21.9709 15.1247L21.9712 15.1232C21.9548 15.2315 21.926 15.3342 21.8884 15.4225C21.8509 15.5105 21.8138 15.5871 21.7283 15.6425C21.6983 15.6624 21.6931 15.6625 21.6644 15.6771C21.6352 15.6919 21.5958 15.7115 21.5471 15.7355C21.4497 15.7835 21.3154 15.8489 21.1561 15.926C20.8375 16.0803 20.4194 16.2813 20 16.4819C19.5806 16.6826 19.16 16.8829 18.8368 17.0357C18.6752 17.1121 18.5379 17.1767 18.437 17.2236C18.3865 17.2471 18.3452 17.2661 18.3142 17.2801C18.2831 17.2942 18.2699 17.3009 18.2463 17.3093C18.1562 17.3414 18.0613 17.358 17.9687 17.3563L17.9687 17.3563ZM17.9715 17.0477C18.0307 17.0481 18.099 17.0388 18.1556 17.0187C18.1467 17.0219 18.1727 17.0115 18.2022 16.9981C18.2318 16.9848 18.2725 16.966 18.3225 16.9428C18.4224 16.8963 18.5593 16.8319 18.7206 16.7557C19.0433 16.6031 19.4636 16.4029 19.8826 16.2024C20.3017 16.0019 20.7197 15.801 21.0376 15.6471C21.1966 15.5701 21.3306 15.5048 21.4269 15.4574C21.4751 15.4336 21.5139 15.4143 21.5413 15.4004C21.5547 15.3936 21.5684 15.3858 21.5768 15.3812C21.5783 15.3765 21.6065 15.3445 21.6273 15.2956C21.6458 15.2521 21.6632 15.197 21.676 15.1386C21.5146 15.2218 20.6825 15.6349 19.766 16.0865C19.766 16.0865 19.766 16.0865 19.7659 16.0865L18.0608 16.9254C18.0419 16.9347 18.0214 16.9395 18.0007 16.9395C17.98 16.9395 17.9595 16.9347 17.9407 16.9254L16.237 16.0865C15.3235 15.6372 14.4937 15.2262 14.3211 15.1357C14.3437 15.2416 14.3742 15.3157 14.3969 15.3499C14.4047 15.3547 14.4313 15.375 14.467 15.3946C14.5234 15.4254 14.6123 15.4712 14.7433 15.5364C15.0053 15.6668 15.4364 15.8753 16.127 16.2063C16.127 16.2063 16.127 16.2063 16.127 16.2063C16.5979 16.432 17.0331 16.6392 17.3544 16.7911C17.5151 16.8671 17.6474 16.9292 17.7412 16.9728C17.7881 16.9946 17.8254 17.0118 17.8514 17.0235C17.8645 17.0294 17.8747 17.034 17.8813 17.0368C17.8824 17.0373 17.8832 17.0375 17.8844 17.0379C17.9082 17.044 17.9382 17.0474 17.9715 17.0477L17.9715 17.0477ZM21.5777 15.3819C21.5782 15.3816 21.5788 15.3812 21.5793 15.3809C21.5792 15.381 21.5792 15.3809 21.579 15.381C21.5783 15.3815 21.5787 15.3813 21.5777 15.3819Z" fill="#8CDBFF"/>
<path fill-rule="evenodd" clip-rule="evenodd" d="M14.1554 16.6336C14.1765 16.8731 14.2472 17.0756 14.333 17.1447C14.3857 17.1848 17.7103 18.7839 17.8201 18.8209C17.915 18.853 18.067 18.8514 18.1738 18.8176C18.2746 18.7871 21.5962 17.1993 21.6609 17.1511C21.7497 17.0852 21.822 16.8795 21.846 16.6272L21.8566 16.5099L21.5962 16.6481C21.3223 16.7959 18.0233 18.4239 18.0007 18.4239C17.9782 18.4239 14.464 16.6899 14.2999 16.5983L14.1449 16.5099L14.1554 16.6336Z" fill="#8CDBFF"/>
<path fill-rule="evenodd" clip-rule="evenodd" d="M17.9945 19C17.9201 19.0008 17.846 18.9903 17.7769 18.9669C17.7489 18.9574 17.7387 18.9515 17.7075 18.9374C17.6762 18.9232 17.6345 18.904 17.5835 18.8802C17.4814 18.8326 17.3422 18.7669 17.1781 18.6889C16.8498 18.533 16.4221 18.3284 15.9962 18.1236C15.5704 17.9188 15.1463 17.714 14.8252 17.5577C14.6646 17.4795 14.5298 17.4135 14.4331 17.3656C14.3847 17.3417 14.346 17.3223 14.3178 17.3079C14.3037 17.3007 14.2923 17.2948 14.283 17.2898C14.2736 17.2848 14.2781 17.291 14.2496 17.2693C14.2486 17.2685 14.2476 17.2677 14.2466 17.2669C14.1651 17.2012 14.122 17.1112 14.0855 17.0064C14.049 16.9016 14.0242 16.7796 14.0126 16.6479C14.0126 16.6478 14.0126 16.6476 14.0126 16.6475L14.0021 16.5237C13.9997 16.4962 14.0044 16.4685 14.0156 16.4436C14.0268 16.4187 14.0441 16.3975 14.0656 16.3822C14.0872 16.367 14.1122 16.3582 14.1381 16.3569C14.1639 16.3556 14.1896 16.3618 14.2125 16.3748L14.3665 16.4626C14.3859 16.4735 14.6522 16.608 15.0047 16.7833C15.3574 16.9587 15.8127 17.184 16.2635 17.4064C16.7144 17.6288 17.1608 17.8484 17.4958 18.0123C17.6632 18.0942 17.8029 18.1623 17.9011 18.2097C17.944 18.2304 17.9751 18.2452 18.0008 18.2574C18.031 18.2431 18.0613 18.2286 18.0914 18.2141C18.1839 18.1695 18.3156 18.1054 18.4738 18.028C18.7903 17.8732 19.2132 17.6651 19.644 17.4524C20.5056 17.0271 21.4123 16.5757 21.5315 16.5114C21.5317 16.5112 21.532 16.5111 21.5323 16.5109L21.7927 16.3727C21.8156 16.3606 21.8411 16.3552 21.8666 16.3571C21.8922 16.359 21.9167 16.3682 21.9378 16.3837C21.9589 16.3992 21.9757 16.4204 21.9865 16.4451C21.9973 16.4699 22.0017 16.4973 21.9993 16.5245L21.9888 16.6418C21.9887 16.6421 21.9887 16.6424 21.9887 16.6427C21.9756 16.7801 21.9497 16.9059 21.9119 17.013C21.8741 17.1202 21.8296 17.2124 21.7428 17.2768C21.7198 17.2939 21.7199 17.2915 21.7102 17.2967C21.7004 17.302 21.6886 17.3081 21.6742 17.3155C21.6452 17.3304 21.6058 17.3501 21.5569 17.3743C21.4591 17.4227 21.3234 17.4889 21.1622 17.567C20.8397 17.7233 20.4152 17.9273 19.9895 18.1308C19.5637 18.3343 19.1369 18.5372 18.81 18.6913C18.6465 18.7683 18.508 18.8331 18.4068 18.8798C18.3562 18.9032 18.315 18.922 18.2841 18.9357C18.2534 18.9494 18.2479 18.9543 18.2135 18.9648C18.1432 18.9869 18.0687 18.9991 17.9945 18.9999L17.9945 19ZM17.9904 18.6879C18.0423 18.6876 18.0968 18.6822 18.1331 18.6708C18.1336 18.6706 18.1342 18.6704 18.1347 18.6703C18.1122 18.6771 18.1447 18.6659 18.1736 18.6531C18.2025 18.6402 18.243 18.6217 18.293 18.5986C18.393 18.5525 18.5311 18.4879 18.6942 18.411C19.0204 18.2573 19.4469 18.0545 19.8723 17.8512C20.2977 17.6479 20.7219 17.444 21.0436 17.2881C21.2045 17.2101 21.3397 17.1441 21.4363 17.0963C21.4846 17.0724 21.5233 17.053 21.5502 17.0393C21.5635 17.0325 21.5739 17.027 21.5806 17.0234C21.5857 17.0179 21.6184 16.9763 21.6435 16.905C21.6566 16.868 21.6686 16.824 21.6788 16.7752L21.6609 16.7847C21.5062 16.8683 20.6264 17.3048 19.7644 17.7304C19.3334 17.9432 18.9103 18.1514 18.5933 18.3064C18.4348 18.384 18.3029 18.4482 18.2096 18.4932C18.1629 18.5157 18.1259 18.5334 18.0996 18.5458C18.0864 18.5519 18.0761 18.5567 18.0676 18.5605C18.0634 18.5624 18.0598 18.564 18.0552 18.5659C18.0529 18.5668 18.0505 18.5678 18.0459 18.5694C18.0413 18.571 18.0514 18.577 18.0008 18.577C17.9469 18.577 17.9594 18.5707 17.9549 18.5691C17.9503 18.5675 17.948 18.5665 17.9457 18.5656C17.9411 18.5637 17.9375 18.5621 17.9331 18.5601C17.9243 18.5562 17.9133 18.5511 17.8994 18.5445C17.8716 18.5314 17.8324 18.5126 17.7829 18.4887C17.6839 18.441 17.544 18.3728 17.3763 18.2907C17.0409 18.1266 16.5943 17.907 16.1433 17.6844C15.6922 17.4619 15.2368 17.2365 14.8837 17.061C14.6254 16.9325 14.4326 16.8367 14.3221 16.7803C14.3314 16.8245 14.3424 16.865 14.3544 16.8996C14.3775 16.9659 14.4071 17.0077 14.4161 17.0183C14.4246 17.0227 14.4331 17.0272 14.4416 17.0315C14.4679 17.045 14.5061 17.0641 14.5539 17.0877C14.6495 17.1351 14.7839 17.2009 14.9442 17.2789C15.2646 17.4349 15.6885 17.6396 16.114 17.8443C16.5396 18.0489 16.967 18.2535 17.2946 18.409C17.4584 18.4868 17.5974 18.5524 17.6983 18.5995C17.7488 18.623 17.7899 18.642 17.8194 18.6553C17.849 18.6687 17.8776 18.6796 17.8633 18.6747C17.8634 18.6748 17.8635 18.6748 17.8636 18.6748C17.8892 18.6835 17.9385 18.6882 17.9904 18.6879L17.9904 18.6879ZM18.0438 18.2776C18.0433 18.2763 18.0455 18.2736 18.0319 18.272C18.0357 18.2738 18.0414 18.2765 18.0438 18.2776ZM17.9587 18.2771C17.961 18.2761 17.9658 18.2738 17.9693 18.2722C17.9589 18.2737 17.9592 18.2759 17.9587 18.2771L17.9587 18.2771Z" fill="#8CDBFF"/>
</svg>
