<svg width="24" height="24" viewBox="0 0 24 24" fill="none" xmlns="http://www.w3.org/2000/svg">
<path fill-rule="evenodd" clip-rule="evenodd" d="M5 4C3.34315 4 2 5.34315 2 7V17C2 18.6569 3.34315 20 5 20H10V18H5C4.44772 18 4 17.5523 4 17V7C4 6.44772 4.44772 6 5 6H7.78388C8.01539 6 8.23973 6.08033 8.41862 6.22727L10.8119 8.19318C11.3486 8.63402 12.0216 8.875 12.7161 8.875H19C19.5523 8.875 20 9.32272 20 9.875V10H22V9.875C22 8.21815 20.6569 6.875 19 6.875H12.7161C12.4846 6.875 12.2603 6.79467 12.0814 6.64773L9.6881 4.68182C9.15142 4.24098 8.47841 4 7.78388 4H5Z" fill="#64748B"/>
<path d="M19 18.7337C19 18.8808 18.8808 19 18.7337 19H15.543C15.396 19 15.2768 18.8808 15.2768 18.7337C15.2768 18.5867 15.3961 18.4687 15.543 18.4614C15.7244 18.4524 15.8648 18.4331 15.9643 18.4038C16.108 18.3575 16.1799 18.2513 16.1799 18.0854C16.1799 17.9696 16.1566 17.8519 16.11 17.7323L15.7371 16.8061H13.1733L12.9811 17.3155C12.8723 17.6011 12.8179 17.8075 12.8179 17.9349C12.8179 18.1664 12.9073 18.3131 13.0859 18.3748C13.1981 18.4127 13.3212 18.439 13.4552 18.4536C13.6014 18.4696 13.721 18.5867 13.721 18.7337C13.721 18.8808 13.6018 19 13.4548 19H11.2663C11.1192 19 11 18.8808 11 18.7337C11 18.5867 11.1203 18.4714 11.2649 18.4445C11.3717 18.4246 11.4679 18.3917 11.5535 18.3459C11.705 18.2648 11.8487 18.1124 11.9847 17.8886C12.1245 17.6609 12.2741 17.3406 12.4334 16.9276L14.6119 11.2595C14.6719 11.1032 14.8221 11 14.9895 11C15.1558 11 15.3052 11.1017 15.3661 11.2564L17.6715 17.1129C17.8463 17.5451 17.9745 17.8384 18.0561 17.9928C18.1377 18.1433 18.2503 18.261 18.394 18.3459C18.4844 18.3969 18.5979 18.4318 18.7344 18.4507C18.8801 18.4709 19 18.5867 19 18.7337ZM15.5273 16.2388L14.4377 13.5007L13.4006 16.2388H15.5273Z" fill="#FF7C7C"/>
<path d="M24 17.9303C24 18.1619 23.9494 18.36 23.8483 18.5246C23.7472 18.6861 23.6102 18.8065 23.4374 18.8857C23.2678 18.9619 23.0753 19 22.8601 19C22.5861 19 22.3578 18.9406 22.1751 18.8217C21.9925 18.6998 21.8832 18.555 21.8474 18.3874C21.3027 18.7958 20.7547 19 20.2035 19C19.8513 19 19.5626 18.9208 19.3376 18.7623C19.1125 18.6008 19 18.389 19 18.1269C19 17.9105 19.0603 17.7154 19.181 17.5417C19.3017 17.365 19.4778 17.208 19.7094 17.0709C19.9442 16.9337 20.2231 16.8133 20.546 16.7097C20.8689 16.603 21.2717 16.4918 21.7544 16.376V16.1154C21.7544 15.899 21.699 15.7299 21.5881 15.608C21.4804 15.483 21.2798 15.4206 20.9863 15.4206C20.7352 15.4206 20.5541 15.4693 20.4432 15.5669C20.3324 15.6644 20.259 15.8122 20.2231 16.0103C20.197 16.1505 20.1481 16.2663 20.0763 16.3577C20.0078 16.4461 19.8627 16.4903 19.6409 16.4903C19.5039 16.4903 19.3832 16.4537 19.2789 16.3806C19.1745 16.3074 19.1223 16.1992 19.1223 16.056C19.1223 15.7726 19.287 15.5257 19.6164 15.3154C19.9459 15.1051 20.4514 15 21.1331 15C21.8506 15 22.3431 15.1128 22.6106 15.3383C22.8813 15.5638 23.0166 15.8655 23.0166 16.2434V17.688C23.0166 17.8709 23.0215 18.005 23.0313 18.0903C23.0411 18.1756 23.0672 18.2411 23.1096 18.2869C23.1553 18.3295 23.2254 18.3509 23.32 18.3509C23.4048 18.3509 23.4781 18.3097 23.5401 18.2274C23.6053 18.1451 23.638 18.0461 23.638 17.9303H24ZM21.7544 17.9669V16.8331C21.1347 17.016 20.7401 17.1958 20.5705 17.3726C20.4041 17.5463 20.3209 17.717 20.3209 17.8846C20.3209 18.0248 20.3666 18.1375 20.4579 18.2229C20.5492 18.3082 20.6781 18.3509 20.8444 18.3509C21.0238 18.3509 21.182 18.3158 21.319 18.2457C21.456 18.1756 21.6011 18.0827 21.7544 17.9669Z" fill="#FF7C7C"/>
</svg>
