<svg width="24" height="25" viewBox="0 0 24 25" fill="none" xmlns="http://www.w3.org/2000/svg">
<path fill-rule="evenodd" clip-rule="evenodd" d="M5 4.5C3.34315 4.5 2 5.84315 2 7.5V17.5C2 19.1569 3.34315 20.5 5 20.5H13V18.5H5C4.44772 18.5 4 18.0523 4 17.5V7.5C4 6.94772 4.44772 6.5 5 6.5H7.78388C8.01539 6.5 8.23973 6.58033 8.41862 6.72727L10.8119 8.69318C11.3486 9.13402 12.0216 9.375 12.7161 9.375H19C19.5523 9.375 20 9.82272 20 10.375V10.5H22V10.375C22 8.71815 20.6569 7.375 19 7.375H12.7161C12.4846 7.375 12.2603 7.29467 12.0814 7.14773L9.6881 5.18182C9.15142 4.74098 8.47841 4.5 7.78388 4.5H5Z" fill="#64748B"/>
<path fill-rule="evenodd" clip-rule="evenodd" d="M21.0888 11.5001C20.9835 11.4987 20.8789 11.5187 20.7813 11.5588C20.6836 11.5989 20.5949 11.6583 20.5202 11.7336L18.2101 14.0792L20.4566 16.3563L22.7706 14.0147C22.9177 13.8624 23 13.6577 23 13.4446C23 13.2315 22.9177 13.0268 22.7706 12.8745L21.6412 11.7336C21.5689 11.6596 21.4829 11.6009 21.3881 11.5608C21.2933 11.5207 21.1915 11.5 21.0888 11.5001ZM17.8284 14.4621L15.4592 16.8636C15.3849 16.9394 15.3261 17.0294 15.2863 17.1283C15.2465 17.2272 15.2263 17.3331 15.227 17.44C15.2278 17.5468 15.2493 17.6525 15.2905 17.7508C15.3317 17.8492 15.3917 17.9383 15.467 18.013C14.9814 18.5085 14.4888 19.0046 14 19.5H16.2498L16.5918 19.1533C16.7421 19.3003 16.9432 19.3818 17.152 19.3803C17.3608 19.3789 17.5608 19.2945 17.7089 19.1454L20.0749 16.7439" fill="#CDDC39"/>
</svg>
