<svg width="24" height="24" viewBox="0 0 24 24" fill="none" xmlns="http://www.w3.org/2000/svg">
<path fill-rule="evenodd" clip-rule="evenodd" d="M5 4C3.34315 4 2 5.34315 2 7V17C2 18.6569 3.34315 20 5 20H13V18H5C4.44772 18 4 17.5523 4 17V7C4 6.44772 4.44772 6 5 6H7.78388C8.01539 6 8.23973 6.08033 8.41862 6.22727L10.8119 8.19318C11.3486 8.63402 12.0216 8.875 12.7161 8.875H19C19.5523 8.875 20 9.32272 20 9.875V10H22V9.875C22 8.21815 20.6569 6.875 19 6.875H12.7161C12.4846 6.875 12.2603 6.79467 12.0814 6.64773L9.6881 4.68182C9.15142 4.24098 8.47841 4 7.78388 4H5Z" fill="#64748B"/>
<path fill-rule="evenodd" clip-rule="evenodd" d="M18.5 11L15 12.6363V15.0904C15 17.3613 16.4931 19.4843 18.5 20C20.5069 19.4843 22 17.3613 22 15.0904V12.6363L18.5 11ZM18.5 12.6363C18.8094 12.6363 19.1061 12.7656 19.3248 12.9957C19.5436 13.2258 19.6664 13.5379 19.6664 13.8634C19.6664 14.1888 19.5436 14.5009 19.3248 14.731C19.1061 14.9611 18.8094 15.0904 18.5 15.0904C18.1906 15.0904 17.8939 14.9611 17.6752 14.731C17.4564 14.5009 17.3336 14.1888 17.3336 13.8634C17.3336 13.5379 17.4564 13.2258 17.6752 12.9957C17.8939 12.7656 18.1906 12.6363 18.5 12.6363ZM20.4951 17.5452C20.0239 18.304 19.3198 18.8701 18.5 19.149C17.6802 18.87 16.9761 18.304 16.5049 17.5452C16.3751 17.3473 16.2619 17.138 16.1664 16.9196C16.1664 16.2442 17.2205 15.6918 18.5 15.6918C19.7795 15.6918 20.8329 16.2324 20.8329 16.9196C20.7402 17.136 20.6272 17.3413 20.4951 17.5452Z" fill="#CFD8DC"/>
</svg>
