<svg width="24" height="25" viewBox="0 0 24 25" fill="none" xmlns="http://www.w3.org/2000/svg">
<path fill-rule="evenodd" clip-rule="evenodd" d="M5 4.5C3.34315 4.5 2 5.84315 2 7.5V17.5C2 19.1569 3.34315 20.5 5 20.5H12V18.5H5C4.44772 18.5 4 18.0523 4 17.5V7.5C4 6.94772 4.44772 6.5 5 6.5H7.78388C8.01539 6.5 8.23973 6.58033 8.41862 6.72727L10.8119 8.69318C11.3486 9.13402 12.0216 9.375 12.7161 9.375H19C19.5523 9.375 20 9.82272 20 10.375V10.5H22V10.375C22 8.71815 20.6569 7.375 19 7.375H12.7161C12.4846 7.375 12.2603 7.29467 12.0814 7.14773L9.6881 5.18182C9.15142 4.74098 8.47841 4.5 7.78388 4.5H5Z" fill="#64748B"/>
<path fill-rule="evenodd" clip-rule="evenodd" d="M22 13.6999V12.5H19.7503C19.452 12.5 19.1659 12.6264 18.9549 12.8514C18.744 13.0765 18.6255 13.3816 18.6255 13.6999V14.8997C18.6255 15.2178 18.7439 15.5229 18.9547 15.7479C19.1655 15.9729 19.4515 16.0994 19.7497 16.0996H20.8752V17.2995H18.6242V18.4993H20.8745C21.1726 18.4992 21.4585 18.3728 21.6693 18.1479C21.8801 17.923 21.9986 17.6181 21.9988 17.3001V16.0996C21.9986 15.7816 21.8801 15.4767 21.6693 15.2518C21.4585 15.027 21.1726 14.9006 20.8745 14.9004H19.7497V13.6999M16.9373 17.2995H15.8124V13.6999H16.9366M16.9366 12.5H15.8124C15.5141 12.5 15.228 12.6264 15.017 12.8514C14.8061 13.0765 14.6876 13.3816 14.6876 13.6999V17.2995C14.6875 17.457 14.7165 17.6131 14.773 17.7587C14.8294 17.9043 14.9122 18.0366 15.0166 18.1481C15.121 18.2596 15.2449 18.348 15.3814 18.4084C15.5178 18.4688 15.6641 18.4999 15.8118 18.5H16.9373C17.085 18.5 17.2314 18.4689 17.3679 18.4086C17.5044 18.3483 17.6284 18.2598 17.7329 18.1483C17.8373 18.0368 17.9202 17.9045 17.9767 17.7588C18.0332 17.6132 18.0622 17.4571 18.0621 17.2995V13.6999C18.0621 13.3816 17.9436 13.0765 17.7327 12.8514C17.5217 12.6264 17.235 12.5 16.9366 12.5ZM13 18.5H14.1248V14.8997H13.0006M13.0006 13.6999H14.1255V12.5H13.0006V13.6999Z" fill="#CFD8DC"/>
</svg>
