<svg width="24" height="24" viewBox="0 0 24 24" fill="none" xmlns="http://www.w3.org/2000/svg">
<path fill-rule="evenodd" clip-rule="evenodd" d="M5 4C3.34315 4 2 5.34315 2 7V17C2 18.6569 3.34315 20 5 20H13V18H5C4.44772 18 4 17.5523 4 17V7C4 6.44772 4.44772 6 5 6H7.78388C8.01539 6 8.23973 6.08033 8.41862 6.22727L10.8119 8.19318C11.3486 8.63402 12.0216 8.875 12.7161 8.875H19C19.5523 8.875 20 9.32272 20 9.875V10H22V9.875C22 8.21815 20.6569 6.875 19 6.875H12.7161C12.4846 6.875 12.2603 6.79467 12.0814 6.64773L9.6881 4.68182C9.15142 4.24098 8.47841 4 7.78388 4H5Z" fill="#64748B"/>
<path d="M21.9998 15C21.9998 17.1944 20.1941 19 17.9999 19C15.8057 19 14 17.1943 14 15C14 12.8057 15.8057 11 17.9999 11H18.0001C20.1943 11 22 12.8056 22 15V15.0002" fill="#71717A"/>
<path d="M18.0697 12.9734L19.1405 15.8736L17.5232 14.4755L18.0697 12.9734ZM19.9718 16.5417L18.3249 12.192C18.3058 12.1348 18.271 12.0856 18.2253 12.0512C18.1795 12.0168 18.1251 11.9989 18.0697 12.0001C18.0134 11.9987 17.958 12.0164 17.9111 12.0508C17.8643 12.0851 17.8281 12.1344 17.8076 12.192L16 16.9631H16.6184L17.3339 14.9958L19.4692 16.8892C19.5552 16.9654 19.6171 16.9999 19.6977 16.9999L19.7046 17C19.8666 17 20 16.8536 20 16.6758V16.6755C19.9972 16.6295 19.9877 16.5844 19.9718 16.5417Z" fill="white"/>
</svg>
