<svg width="24" height="25" viewBox="0 0 24 25" fill="none" xmlns="http://www.w3.org/2000/svg">
<path fill-rule="evenodd" clip-rule="evenodd" d="M5 4.5C3.34315 4.5 2 5.84315 2 7.5V17.5C2 19.1569 3.34315 20.5 5 20.5H13V18.5H5C4.44772 18.5 4 18.0523 4 17.5V7.5C4 6.94772 4.44772 6.5 5 6.5H7.78388C8.01539 6.5 8.23973 6.58033 8.41862 6.72727L10.8119 8.69318C11.3486 9.13402 12.0216 9.375 12.7161 9.375H19C19.5523 9.375 20 9.82272 20 10.375V10.5H22V10.375C22 8.71815 20.6569 7.375 19 7.375H12.7161C12.4846 7.375 12.2603 7.29467 12.0814 7.14773L9.6881 5.18182C9.15142 4.74098 8.47841 4.5 7.78388 4.5H5Z" fill="#64748B"/>
<path d="M23.9384 14.7734C23.9381 14.772 23.9379 14.771 23.9376 14.7696C23.9287 14.7272 23.7569 13.9211 23.5263 13.9211C23.3487 13.9211 22.64 14.7188 22.2952 15.1185C22.172 15.2616 21.9944 15.3421 21.8059 15.3421C21.4478 15.3421 21.1579 15.0522 21.1579 14.6941C21.1579 14.5056 21.2384 14.328 21.3815 14.2048C21.7813 13.86 22.5789 13.1513 22.5789 12.9737C22.5789 12.7416 21.7605 12.565 21.7278 12.558C21.7267 12.5578 21.7263 12.5577 21.7252 12.5575C21.54 12.5193 21.3487 12.5 21.1579 12.5C19.5904 12.5 18.3158 13.787 18.3158 15.3687C18.3158 15.3944 18.3162 15.4202 18.317 15.446C18.3274 15.7794 18.2431 16.1199 18.0052 16.3536L15.4447 18.8683C14.8517 19.4694 14.8517 20.4466 15.4452 21.0477C15.7342 21.339 16.1193 21.5001 16.5304 21.5001C16.9411 21.5001 17.3267 21.339 17.6104 21.052L20.2187 18.4893C20.4342 18.2776 20.7375 18.1821 21.0395 18.184C21.079 18.1842 21.1185 18.1842 21.1579 18.1842C22.7514 18.1842 24 16.9475 24 15.3687C24 15.1695 23.9793 14.9688 23.9384 14.7734Z" fill="#C084FC"/>
</svg>
