<svg width="24" height="24" viewBox="0 0 24 24" fill="none" xmlns="http://www.w3.org/2000/svg">
<path fill-rule="evenodd" clip-rule="evenodd" d="M5 3C3.34315 3 2 4.34315 2 6V16C2 17.6569 3.34315 19 5 19H12V17H5C4.44772 17 4 16.5523 4 16V6C4 5.44772 4.44772 5 5 5H7.78388C8.01539 5 8.23973 5.08033 8.41862 5.22727L10.8119 7.19318C11.3486 7.63402 12.0216 7.875 12.7161 7.875H19C19.5523 7.875 20 8.32272 20 8.875V9H22V8.875C22 7.21815 20.6569 5.875 19 5.875H12.7161C12.4846 5.875 12.2603 5.79467 12.0814 5.64773L9.6881 3.68182C9.15142 3.24098 8.47841 3 7.78388 3H5Z" fill="#64748B"/>
<path fill-rule="evenodd" clip-rule="evenodd" d="M17.0006 10C16.3375 9.99996 15.6847 10.1648 15.1012 10.4798C14.5176 10.7948 14.0215 11.2499 13.6576 11.8043L13.9144 11.8093C14.334 11.8093 14.9821 11.7592 14.9821 11.7592C15.197 11.7448 15.2245 12.0611 15.0103 12.0886L14.5481 12.1362L16.0074 16.4575L16.8829 13.8334L16.2591 12.1362L15.8345 12.0886C15.6247 12.0748 15.6479 11.7448 15.8627 11.7592L16.9154 11.8093C17.3351 11.8093 17.9839 11.7592 17.9839 11.7592C18.1981 11.7448 18.2275 12.0611 18.0083 12.0886L17.5511 12.1362L18.9959 16.4243L19.3967 15.0916C19.564 14.5373 19.6999 14.1403 19.6999 13.8002C19.6999 13.3011 19.5226 12.9604 19.3679 12.6948C19.1675 12.3679 18.9765 12.0899 18.9765 11.7586C18.9765 11.3903 19.2577 11.0503 19.6491 11.0503H19.6999C18.9631 10.375 18 10.0002 17.0006 10ZM20.5115 12.0805L20.5391 12.4951C20.5391 12.9009 20.4589 13.3568 20.2309 13.9255L19.0097 17.4545C19.6149 17.1036 20.1174 16.5998 20.4667 15.9937C20.816 15.3875 20.9999 14.7002 21 14.0006C21.0015 13.3296 20.8335 12.6692 20.5115 12.0805ZM13.3445 12.3698C13.1184 12.8841 13.0011 13.4395 13 14.0012C12.9994 14.7526 13.2108 15.4889 13.61 16.1255C14.0091 16.7621 14.5798 17.2731 15.2565 17.5998L13.3445 12.3698ZM17.0708 14.3507L15.8721 17.839C16.2384 17.9472 16.6186 18.0014 17.0006 18C17.4536 18.0017 17.9034 17.9249 18.3302 17.7733L18.3008 17.7163L17.0708 14.3507Z" fill="#E1F5FE"/>
</svg>
