<svg width="24" height="24" viewBox="0 0 24 24" fill="none" xmlns="http://www.w3.org/2000/svg">
<path fill-rule="evenodd" clip-rule="evenodd" d="M5 4C3.34315 4 2 5.34315 2 7V17C2 18.6569 3.34315 20 5 20H13V18H5C4.44772 18 4 17.5523 4 17V7C4 6.44772 4.44772 6 5 6H7.78388C8.01539 6 8.23973 6.08033 8.41862 6.22727L10.8119 8.19318C11.3486 8.63402 12.0216 8.875 12.7161 8.875H19C19.5523 8.875 20 9.32272 20 9.875V10H22V9.875C22 8.21815 20.6569 6.875 19 6.875H12.7161C12.4846 6.875 12.2603 6.79467 12.0814 6.64773L9.6881 4.68182C9.15142 4.24098 8.47841 4 7.78388 4H5Z" fill="#64748B"/>
<path fill-rule="evenodd" clip-rule="evenodd" d="M14.909 17.2586C14.8072 16.3309 14.7098 15.4028 14.6165 14.4744C14.6173 14.4511 14.479 14.4323 14.309 14.4323H14V13.352H16.4123V11.2567L17.5505 10.6287C18.2437 10.2454 18.7535 10 18.8547 10C19.0974 10 19.3811 10.2831 19.3811 10.5249C19.3811 10.6302 19.3463 10.7601 19.3036 10.8139C19.2618 10.8669 18.865 11.1093 18.4223 11.3533L17.6185 11.7961L17.6011 12.5737L17.5837 13.352H20V14.4315H19.404L19.1037 17.2158L18.8017 20H15.2038L14.909 17.2586Z" fill="#FF7C7C"/>
</svg>
