<svg width="24" height="25" viewBox="0 0 24 25" fill="none" xmlns="http://www.w3.org/2000/svg">
<path fill-rule="evenodd" clip-rule="evenodd" d="M5 4.5C3.34315 4.5 2 5.84315 2 7.5V17.5C2 19.1569 3.34315 20.5 5 20.5H13V18.5H5C4.44772 18.5 4 18.0523 4 17.5V7.5C4 6.94772 4.44772 6.5 5 6.5H7.78388C8.01539 6.5 8.23973 6.58033 8.41862 6.72727L10.8119 8.69318C11.3486 9.13402 12.0216 9.375 12.7161 9.375H19C19.5523 9.375 20 9.82272 20 10.375V10.5H22V10.375C22 8.71815 20.6569 7.375 19 7.375H12.7161C12.4846 7.375 12.2603 7.29467 12.0814 7.14773L9.6881 5.18182C9.15142 4.74098 8.47841 4.5 7.78388 4.5H5Z" fill="#64748B"/>
<path fill-rule="evenodd" clip-rule="evenodd" d="M21.3009 13.2794C21.2513 13.1275 21.1464 13.0018 21.0085 12.9292L18.2214 11.5476C18.1498 11.5138 18.0717 11.4976 17.9931 11.5003C17.9196 11.5003 17.8377 11.5003 17.7647 11.5188L14.9771 12.9107C14.9086 12.9433 14.8482 12.9917 14.8007 13.0524C14.7532 13.113 14.7198 13.1842 14.7031 13.2603L14.0091 16.3743C13.9813 16.5352 14.018 16.6962 14.1094 16.8283L16.0376 19.2984C16.1473 19.4126 16.3027 19.4882 16.4575 19.4974H19.537C19.6178 19.5062 19.6995 19.4924 19.7734 19.4574C19.8474 19.4224 19.9109 19.3675 19.9575 19.2984L21.8857 16.8283C21.977 16.6962 22.0138 16.5347 21.9954 16.3743L21.3009 13.2794Z" fill="#71717A"/>
<path fill-rule="evenodd" clip-rule="evenodd" d="M20.8599 16.2508C20.851 16.2508 20.851 16.2508 20.851 16.2416C20.851 16.2318 20.8232 16.2318 20.8143 16.2318C20.7775 16.2226 20.7408 16.2226 20.7046 16.2226C20.6862 16.2226 20.6678 16.2226 20.65 16.2128H20.6405C20.5355 16.2031 20.4316 16.1842 20.3297 16.1562C20.3152 16.1504 20.3021 16.1415 20.2911 16.1301C20.2802 16.1187 20.2717 16.105 20.2662 16.0899C20.2662 16.0806 20.2568 16.0806 20.2568 16.0806L20.1838 16.0616C20.2172 15.7838 20.2048 15.5021 20.147 15.2286C20.0826 14.9535 19.9745 14.6913 19.8273 14.4527L19.8825 14.3956V14.3864C19.8825 14.3581 19.8914 14.32 19.9098 14.301C19.989 14.2326 20.0747 14.1725 20.1654 14.1216L20.2205 14.0928C20.2573 14.0743 20.2841 14.0547 20.3208 14.0362C20.3297 14.0264 20.3392 14.0264 20.3481 14.0172L20.3575 14.0079C20.3771 13.9933 20.3936 13.9747 20.4061 13.9533C20.4186 13.9319 20.4268 13.9081 20.4302 13.8833C20.4336 13.8586 20.4322 13.8334 20.4261 13.8092C20.4199 13.785 20.4091 13.7624 20.3943 13.7426C20.3787 13.7228 20.3592 13.7066 20.3371 13.6952C20.3151 13.6837 20.2909 13.6773 20.2662 13.6763C20.2197 13.6775 20.1749 13.6941 20.1381 13.7236L20.1287 13.7334C20.1198 13.7426 20.1108 13.7524 20.1014 13.7524C20.0741 13.7807 20.0468 13.8089 20.0284 13.8372C20.0195 13.8562 20.0011 13.866 19.9917 13.8753C19.9223 13.9523 19.8458 14.0221 19.7633 14.0835C19.7449 14.0928 19.7265 14.1026 19.7087 14.1026C19.6992 14.1026 19.6814 14.1026 19.6719 14.0928L19.599 14.1499C19.5255 14.0737 19.4436 13.9982 19.3706 13.9226C19.0264 13.6475 18.615 13.4771 18.1826 13.4305L18.1737 13.3544L18.1642 13.3451C18.1369 13.3261 18.1275 13.2978 18.1186 13.2696C18.1186 13.1657 18.1186 13.0613 18.1369 12.9477V12.9384C18.1369 12.9194 18.1459 12.9004 18.1459 12.8813C18.1553 12.8433 18.1553 12.8058 18.1642 12.7677V12.7111C18.1737 12.6165 18.1002 12.5219 18.0089 12.5219C17.955 12.5204 17.9026 12.5407 17.8629 12.5785C17.8457 12.5957 17.832 12.6163 17.8225 12.6391C17.813 12.6619 17.808 12.6864 17.8078 12.7111V12.7585C17.8078 12.7965 17.8172 12.8346 17.8262 12.8721C17.8356 12.8911 17.8356 12.9102 17.8356 12.9286V12.9384C17.8535 13.0423 17.8535 13.1467 17.8535 13.2603C17.8445 13.2886 17.8356 13.3169 17.8078 13.3359L17.7989 13.3451L17.7899 13.4213C17.6892 13.4305 17.5889 13.4495 17.4792 13.4686C17.0484 13.5664 16.6565 13.7973 16.3552 14.1308L16.3001 14.0928H16.2912C16.2822 14.0928 16.2728 14.1026 16.2544 14.1026C16.236 14.1026 16.2088 14.0928 16.1998 14.0835C16.1174 14.0172 16.0444 13.9416 15.9715 13.866C15.962 13.847 15.9442 13.8372 15.9347 13.828C15.9074 13.7997 15.889 13.7709 15.8612 13.7426C15.8523 13.7334 15.8434 13.7334 15.8345 13.7236L15.825 13.7143C15.7884 13.685 15.7437 13.6684 15.6974 13.667C15.671 13.6658 15.6448 13.6712 15.6208 13.6828C15.5969 13.6943 15.576 13.7117 15.5599 13.7334C15.5341 13.7746 15.5235 13.8242 15.5303 13.8729C15.5371 13.9216 15.5606 13.9661 15.5966 13.9982C15.6056 13.9982 15.6056 14.0079 15.6056 14.0079C15.6056 14.0079 15.6239 14.0264 15.6334 14.0264C15.6607 14.0455 15.6974 14.0645 15.7337 14.0835L15.7888 14.1118C15.8801 14.1689 15.962 14.2254 16.0444 14.2912C16.0628 14.3108 16.0812 14.3483 16.0717 14.3766V14.3864L16.1269 14.4429C16.1174 14.462 16.1085 14.4717 16.099 14.4902C15.8165 14.9513 15.7062 15.5033 15.7888 16.0426L15.7153 16.0616C15.7153 16.0708 15.7064 16.0709 15.7064 16.0709C15.6974 16.0991 15.6696 16.1182 15.6423 16.1372C15.5407 16.1662 15.4366 16.1853 15.3315 16.1943H15.3226C15.3042 16.1943 15.2859 16.1943 15.2675 16.2035C15.2307 16.2035 15.1945 16.2128 15.1583 16.2128C15.1488 16.2128 15.1399 16.2226 15.1215 16.2226C15.1126 16.2226 15.1126 16.2226 15.1032 16.2318C15.0797 16.2358 15.0572 16.2447 15.037 16.2579C15.0169 16.2711 14.9995 16.2884 14.9859 16.3086C14.9723 16.3289 14.9628 16.3518 14.9578 16.376C14.9529 16.4001 14.9527 16.425 14.9572 16.4493C14.967 16.4905 14.9909 16.5267 15.0245 16.5511C15.0581 16.5755 15.0991 16.5865 15.1399 16.582C15.1583 16.582 15.1672 16.582 15.1856 16.5727C15.1945 16.5727 15.1945 16.5727 15.1945 16.5629C15.1945 16.5537 15.2129 16.5537 15.2313 16.5537C15.268 16.5444 15.3042 16.5254 15.3315 16.5156C15.3483 16.5052 15.3672 16.4989 15.3866 16.4971H15.3956C15.4869 16.4591 15.5877 16.4308 15.688 16.4118H15.6969C15.7247 16.4118 15.752 16.421 15.7704 16.44C15.7793 16.44 15.7793 16.4493 15.7793 16.4493L15.8617 16.44C15.9978 16.8791 16.2589 17.2652 16.6109 17.5476C16.6933 17.614 16.7663 17.6705 16.8576 17.7178L16.8209 17.7939C16.8209 17.8032 16.8303 17.8032 16.8303 17.8032C16.8384 17.8173 16.8434 17.8331 16.8449 17.8494C16.8465 17.8658 16.8445 17.8823 16.8392 17.8978C16.8025 17.9924 16.7479 18.087 16.6933 18.1724V18.1816C16.6838 18.2006 16.6749 18.2099 16.6565 18.2289C16.6382 18.2479 16.6198 18.2855 16.5925 18.3235C16.5836 18.3328 16.5836 18.3426 16.5746 18.3518C16.5746 18.3518 16.5747 18.3616 16.5652 18.3616C16.5438 18.4059 16.5394 18.457 16.5531 18.5044C16.5667 18.5519 16.5973 18.5922 16.6387 18.6171C16.6614 18.6288 16.6863 18.6351 16.7117 18.6356C16.7476 18.6342 16.7825 18.623 16.8129 18.6031C16.8433 18.5833 16.8682 18.5555 16.8849 18.5225C16.8849 18.5225 16.8849 18.5127 16.8944 18.5127C16.8944 18.5035 16.9033 18.4937 16.9127 18.4845C16.9217 18.4464 16.94 18.4181 16.9495 18.3801L16.9673 18.3235C16.9946 18.2197 17.0408 18.1245 17.086 18.0299C17.1037 18.0032 17.1296 17.9833 17.1595 17.9734C17.1684 17.9734 17.1684 17.9734 17.1684 17.9641L17.2051 17.888C17.4608 17.9924 17.7259 18.0397 17.9999 18.0397C18.166 18.0395 18.3314 18.0204 18.4934 17.9826C18.5937 17.9641 18.6945 17.9261 18.7858 17.8978L18.8226 17.9641C18.8315 17.9641 18.8315 17.9641 18.8315 17.9734C18.8613 17.9833 18.8872 18.0032 18.905 18.0299C18.9501 18.1245 18.9869 18.2197 19.0231 18.3143V18.3235L19.0415 18.3801C19.0509 18.4181 19.0598 18.4562 19.0782 18.4845C19.0871 18.4937 19.0871 18.5035 19.0966 18.5127C19.0966 18.5127 19.0966 18.5225 19.1055 18.5225C19.1223 18.5555 19.1471 18.5833 19.1775 18.6031C19.2079 18.623 19.2428 18.6342 19.2787 18.6356C19.3066 18.6356 19.325 18.6264 19.3522 18.6171C19.3726 18.6071 19.3905 18.5925 19.4047 18.5745C19.419 18.5564 19.4292 18.5354 19.4347 18.5127C19.4452 18.4624 19.4419 18.4101 19.4252 18.3616C19.4252 18.3518 19.4163 18.3518 19.4163 18.3518C19.4163 18.3426 19.4068 18.3328 19.3979 18.3235C19.3819 18.2884 19.3603 18.2564 19.3339 18.2289C19.3245 18.2109 19.3121 18.1949 19.2971 18.1816V18.1724C19.2363 18.0884 19.1872 17.996 19.1512 17.8978C19.1459 17.8823 19.1439 17.8658 19.1455 17.8494C19.147 17.8331 19.152 17.8173 19.1601 17.8032C19.1601 17.7934 19.1695 17.7934 19.1695 17.7934L19.1422 17.7178C19.6131 17.4271 19.9668 16.9701 20.1381 16.4308L20.2116 16.44C20.2205 16.44 20.2205 16.4308 20.2205 16.4308C20.2403 16.4117 20.2665 16.4014 20.2935 16.402H20.3024C20.4032 16.421 20.5035 16.4498 20.5948 16.4873H20.6043C20.6221 16.4971 20.641 16.5064 20.6589 16.5064C20.6956 16.5254 20.7229 16.5347 20.7597 16.5444C20.7686 16.5444 20.7775 16.5537 20.7964 16.5537C20.8053 16.5537 20.8054 16.5537 20.8143 16.5629C20.8283 16.5707 20.8441 16.5741 20.8599 16.5727C20.8997 16.572 20.9384 16.559 20.9709 16.5354C21.0035 16.5117 21.0285 16.4785 21.0426 16.44C21.0153 16.3454 20.9513 16.2699 20.8599 16.2508ZM18.2283 15.9572L17.9816 16.0806L17.7348 15.9572L17.6613 15.6832L17.8356 15.4559H18.1191L18.2923 15.6832L18.2283 15.9572ZM19.7176 15.3423C19.7633 15.5413 19.7727 15.7397 19.7544 15.9387L18.8861 15.6832C18.8042 15.6641 18.7585 15.5788 18.7764 15.494C18.783 15.469 18.7956 15.4461 18.8131 15.4276L19.4982 14.7838C19.599 14.954 19.6719 15.1438 19.7176 15.3423ZM19.2241 14.4337L18.4839 14.9828C18.4204 15.0209 18.3286 15.0111 18.2829 14.9448C18.274 14.9364 18.2669 14.9262 18.2622 14.9147C18.2575 14.9033 18.2552 14.8909 18.2556 14.8785L18.201 13.9226C18.5877 13.9699 18.948 14.1498 19.2247 14.4337H19.2241ZM17.5705 13.9508L17.7532 13.9128L17.6981 14.8594C17.6981 14.9448 17.6251 15.0111 17.5427 15.0111C17.5154 15.0111 17.497 15.0013 17.4697 14.9921L16.7295 14.4337C16.9606 14.1942 17.252 14.0269 17.5705 13.9508ZM16.4555 14.7838L17.1316 15.4086C17.1469 15.4214 17.1595 15.4373 17.1687 15.4553C17.1779 15.4733 17.1835 15.493 17.1852 15.5133C17.1869 15.5336 17.1847 15.554 17.1786 15.5734C17.1726 15.5928 17.1629 15.6107 17.15 15.6261C17.1316 15.6544 17.1133 15.6641 17.0765 15.6734L16.1998 15.9387C16.165 15.5354 16.2545 15.1311 16.4555 14.7838ZM16.3001 16.3835L17.2046 16.2226C17.2781 16.2226 17.3511 16.2699 17.36 16.3454C17.3653 16.3609 17.3673 16.3774 17.3657 16.3938C17.3642 16.4101 17.3592 16.4259 17.3511 16.44L17.0035 17.3111C16.6782 17.089 16.4313 16.7635 16.3001 16.3835ZM18.3742 17.5569C18.2422 17.5871 18.1074 17.603 17.9721 17.6042C17.7805 17.6042 17.5794 17.5661 17.3967 17.5096L17.8445 16.6668C17.8655 16.6387 17.8955 16.6195 17.9291 16.6126C17.9627 16.6057 17.9975 16.6116 18.0272 16.6293C18.0545 16.6483 18.0729 16.6673 18.1007 16.6956L18.5391 17.5193C18.4934 17.5286 18.4383 17.5378 18.3742 17.5574V17.5569ZM19.4893 16.7337C19.35 16.963 19.1627 17.157 18.9412 17.3013L18.5842 16.421C18.574 16.3845 18.5766 16.3453 18.5917 16.3107C18.6069 16.276 18.6334 16.248 18.6666 16.2318C18.693 16.221 18.7208 16.2145 18.7491 16.2128L19.6625 16.3737C19.6174 16.5064 19.5628 16.6293 19.4893 16.7337Z" fill="white"/>
</svg>
