<svg width="24" height="25" viewBox="0 0 24 25" fill="none" xmlns="http://www.w3.org/2000/svg">
<path fill-rule="evenodd" clip-rule="evenodd" d="M5 4.5C3.34315 4.5 2 5.84315 2 7.5V17.5C2 19.1569 3.34315 20.5 5 20.5H13V18.5H5C4.44772 18.5 4 18.0523 4 17.5V7.5C4 6.94772 4.44772 6.5 5 6.5H7.78388C8.01539 6.5 8.23973 6.58033 8.41862 6.72727L10.8119 8.69318C11.3486 9.13402 12.0216 9.375 12.7161 9.375H19C19.5523 9.375 20 9.82272 20 10.375V10.5H22V10.375C22 8.71815 20.6569 7.375 19 7.375H12.7161C12.4846 7.375 12.2603 7.29467 12.0814 7.14773L9.6881 5.18182C9.15142 4.74098 8.47841 4.5 7.78388 4.5H5Z" fill="#64748B"/>
<path fill-rule="evenodd" clip-rule="evenodd" d="M17.9164 11.6614C17.8758 11.6678 17.7945 11.6968 17.7358 11.7225C17.5612 11.8028 14.3857 13.5996 14.3255 13.651C14.1885 13.7731 14.1434 14.0302 14.2246 14.2167C14.2472 14.2681 14.2863 14.3243 14.3149 14.3468C14.3751 14.3934 17.6937 15.9893 17.8276 16.0343C17.9375 16.0729 18.085 16.0664 18.2174 16.0166C18.3634 15.962 21.6308 14.3902 21.682 14.3501C21.7572 14.2906 21.7993 14.1813 21.8054 14.0302C21.8129 13.8599 21.7738 13.7426 21.6835 13.659C21.6202 13.6028 18.386 11.7691 18.2264 11.7C18.1256 11.6566 18.0188 11.6421 17.9164 11.6614ZM19.594 12.9799C20.5076 13.5038 21.2557 13.9855 21.2557 13.9919C21.2572 13.9983 20.5727 14.3436 19.6607 14.7551L18.0007 15.5007L16.3482 14.7583C15.4392 14.3485 14.7627 13.9905 14.7612 13.9825C14.7597 13.9729 15.4331 13.5546 16.3422 13.0323C17.2497 12.5084 17.9947 12.0793 17.9947 12.0793C17.9947 12.0793 18.682 12.456 19.594 12.9799V12.9799Z" fill="#8CDBFF"/>
<path fill-rule="evenodd" clip-rule="evenodd" d="M17.9898 16.2136C17.9189 16.2138 17.8494 16.203 17.7838 16.1801C17.7586 16.1715 17.7437 16.1641 17.7114 16.1497C17.6788 16.1351 17.6359 16.1155 17.5837 16.0913C17.4794 16.043 17.3383 15.9766 17.1727 15.8982C16.8414 15.7414 16.412 15.5361 15.9848 15.3309C15.5577 15.1256 15.1329 14.9202 14.8109 14.7632C14.6498 14.6847 14.5145 14.6182 14.4171 14.5697C14.3684 14.5455 14.3293 14.5257 14.3005 14.5109C14.2862 14.5035 14.2745 14.4974 14.2648 14.4921C14.2551 14.4868 14.2567 14.4909 14.2308 14.4709C14.2305 14.4706 14.2302 14.4704 14.2299 14.4702C14.1597 14.4149 14.1274 14.3559 14.0949 14.2817C14.0948 14.2816 14.0947 14.2815 14.0947 14.2813C13.9835 14.0264 14.0326 13.7128 14.2336 13.5335C14.2344 13.5328 14.2352 13.5321 14.236 13.5314C14.2581 13.5125 14.2579 13.5152 14.2672 13.5093C14.2764 13.5035 14.2877 13.4966 14.3015 13.4883C14.3291 13.4717 14.3667 13.4495 14.4135 13.4223C14.507 13.3677 14.6369 13.2929 14.7915 13.2043C15.1007 13.0272 15.5089 12.7952 15.9207 12.5622C16.3325 12.3293 16.7478 12.0955 17.0714 11.9148C17.2331 11.8244 17.3719 11.7473 17.4761 11.6901C17.5803 11.6329 17.6407 11.5996 17.6791 11.5819C17.6799 11.5815 17.6807 11.5812 17.6815 11.5808C17.7479 11.5517 17.8198 11.5221 17.8943 11.5102C18.0247 11.4862 18.1578 11.5053 18.2802 11.558C18.2803 11.558 18.2804 11.558 18.2805 11.5581C18.3246 11.5772 18.3793 11.6082 18.4838 11.6654C18.5882 11.7226 18.7281 11.8003 18.8916 11.8917C19.2187 12.0744 19.64 12.3119 20.0584 12.5491C20.4768 12.7862 20.8922 13.0229 21.2072 13.2041C21.3647 13.2946 21.497 13.3713 21.5925 13.4273C21.6403 13.4554 21.6787 13.4782 21.7071 13.4954C21.7212 13.504 21.7328 13.5112 21.7424 13.5174C21.7521 13.5236 21.7525 13.521 21.7754 13.5414C21.7761 13.542 21.7768 13.5426 21.7775 13.5433C21.9025 13.6589 21.9575 13.8387 21.9488 14.0372C21.9416 14.2153 21.8895 14.3767 21.7674 14.4732C21.7673 14.4733 21.7672 14.4734 21.767 14.4735C21.737 14.497 21.7421 14.4899 21.7328 14.4949C21.7235 14.4999 21.7123 14.5058 21.6984 14.5129C21.6706 14.5271 21.6325 14.5463 21.585 14.5699C21.4899 14.6171 21.3573 14.6821 21.1992 14.7591C20.8831 14.9131 20.4652 15.1151 20.0443 15.3176C19.6234 15.52 19.1995 15.723 18.8716 15.8788C18.7076 15.9567 18.5676 16.0228 18.4637 16.0713C18.3599 16.1198 18.3058 16.1459 18.2651 16.1611C18.175 16.195 18.0813 16.2134 17.9898 16.2136L17.9898 16.2136ZM17.9694 15.9046C18.0317 15.9066 18.1045 15.8968 18.1699 15.8722C18.1699 15.8721 18.17 15.8721 18.1701 15.8721C18.1658 15.8737 18.2458 15.8387 18.3487 15.7906C18.4516 15.7426 18.5913 15.6766 18.7549 15.5989C19.0823 15.4434 19.5058 15.2406 19.9264 15.0383C20.347 14.836 20.7647 14.6341 21.0801 14.4804C21.2378 14.4035 21.37 14.3387 21.464 14.2921C21.511 14.2688 21.5484 14.25 21.5742 14.2367C21.5863 14.2305 21.5953 14.2258 21.6015 14.2225C21.6285 14.1977 21.6575 14.1408 21.6621 14.0237C21.6622 14.0235 21.6622 14.0233 21.6622 14.023C21.6682 13.8858 21.6465 13.8301 21.5949 13.7801C21.5948 13.7801 21.5947 13.78 21.5946 13.7799C21.5883 13.7759 21.5781 13.7695 21.5651 13.7616C21.539 13.7457 21.5013 13.7234 21.4543 13.6957C21.3602 13.6405 21.2282 13.5641 21.0711 13.4738C20.757 13.2931 20.3419 13.0565 19.9239 12.8196C19.5059 12.5827 19.0848 12.3453 18.7586 12.163C18.5955 12.0719 18.456 11.9945 18.3528 11.938C18.2497 11.8815 18.1686 11.8402 18.1727 11.842C18.0943 11.8083 18.0148 11.7984 17.9414 11.8122C17.9401 11.8125 17.9388 11.8127 17.9375 11.8129C17.9312 11.8139 17.8426 11.8415 17.7917 11.8636C17.7853 11.8667 17.7095 11.9064 17.6073 11.9625C17.5042 12.0192 17.3658 12.096 17.2043 12.1862C16.8815 12.3665 16.4664 12.6002 16.055 12.8329C15.6435 13.0657 15.2356 13.2975 14.9271 13.4742C14.7728 13.5626 14.6433 13.6372 14.551 13.6911C14.5048 13.718 14.4678 13.7398 14.4422 13.7552C14.4295 13.7629 14.4195 13.769 14.4132 13.7729C14.3432 13.8418 14.3044 14.0363 14.3547 14.1519C14.3649 14.175 14.396 14.2134 14.4012 14.2224C14.4076 14.2258 14.4147 14.2296 14.4253 14.2351C14.4519 14.2488 14.4903 14.2682 14.5384 14.2921C14.6345 14.34 14.7694 14.4062 14.93 14.4845C15.2513 14.6412 15.6758 14.8464 16.1026 15.0515C16.5293 15.2566 16.9584 15.4617 17.2889 15.6182C17.4542 15.6964 17.5948 15.7625 17.6979 15.8103C17.7494 15.8342 17.7916 15.8534 17.8223 15.8672C17.853 15.8809 17.8798 15.8913 17.8708 15.8882C17.8713 15.8884 17.8719 15.8886 17.8725 15.8888C17.8985 15.8979 17.932 15.9034 17.9694 15.9046L17.9694 15.9046ZM18.0198 15.6526C17.9945 15.6562 17.9687 15.6525 17.9452 15.6419L16.2927 14.8994C16.2926 14.8994 16.2926 14.8994 16.2925 14.8994C15.836 14.6936 15.438 14.5009 15.1535 14.3584C15.0113 14.2872 14.8975 14.2285 14.8185 14.1868C14.779 14.1659 14.7483 14.1494 14.7263 14.1372C14.7154 14.1311 14.7068 14.1262 14.6989 14.1215C14.695 14.1191 14.6916 14.1171 14.6859 14.1132C14.6831 14.1113 14.68 14.1093 14.6731 14.1035C14.6697 14.1006 14.6654 14.0972 14.6575 14.0884C14.6497 14.0796 14.632 14.0735 14.6206 14.0126C14.6203 14.0109 14.62 14.0093 14.6198 14.0077C14.61 13.945 14.63 13.9182 14.6384 13.9033C14.6468 13.8883 14.6524 13.8823 14.6567 13.8774C14.6652 13.8676 14.6692 13.8645 14.6727 13.8615C14.6796 13.8555 14.6834 13.8528 14.6875 13.8498C14.6959 13.8436 14.7045 13.8378 14.7154 13.8305C14.7373 13.8159 14.7676 13.7963 14.8068 13.7716C14.885 13.7222 14.998 13.6523 15.1394 13.5665C15.4222 13.3948 15.8186 13.1592 16.2741 12.8975L16.2742 12.8975L16.2743 12.8974C17.1817 12.3736 17.9267 11.9445 17.9267 11.9445C17.9471 11.9327 17.97 11.9264 17.9933 11.9261C18.0166 11.9259 18.0395 11.9317 18.0602 11.943C18.0602 11.943 18.7488 12.3204 19.662 12.845C20.1206 13.108 20.5372 13.3601 20.8396 13.5475C20.9908 13.6412 21.1134 13.7187 21.1987 13.7735C21.2413 13.8009 21.2745 13.8226 21.2979 13.8381C21.3095 13.8459 21.3186 13.852 21.3261 13.8573C21.3299 13.86 21.3331 13.8622 21.3378 13.8659C21.3402 13.8677 21.3427 13.8695 21.3485 13.8748C21.3514 13.8774 21.3549 13.8804 21.3624 13.8892C21.3661 13.8936 21.3709 13.8993 21.378 13.9116C21.384 13.9219 21.3948 13.9367 21.3982 13.9703C21.4121 14.0507 21.3759 14.0775 21.3657 14.0905C21.3549 14.1043 21.3494 14.1083 21.3451 14.112C21.3366 14.1193 21.3332 14.1213 21.3301 14.1233C21.3239 14.1275 21.3205 14.1294 21.3166 14.1317C21.3087 14.1362 21.3002 14.1409 21.2893 14.1467C21.2674 14.1584 21.2368 14.1742 21.1971 14.1943C21.1179 14.2346 21.0034 14.2914 20.8604 14.361C20.5743 14.5001 20.1741 14.6898 19.7167 14.8961C19.7166 14.8962 19.7165 14.8962 19.7165 14.8962L18.0564 15.6419C18.0447 15.6472 18.0324 15.6508 18.0198 15.6526L18.0198 15.6526ZM18.0008 15.3346L19.6051 14.6139C20.0597 14.4088 20.4577 14.2202 20.7414 14.0822C20.8134 14.0473 20.8852 14.0119 20.9568 13.9763C20.87 13.9212 20.7829 13.8666 20.6955 13.8124C20.3954 13.6264 19.9812 13.3758 19.5262 13.1148C19.5262 13.1148 19.5262 13.1148 19.5261 13.1148C18.741 12.6638 18.1518 12.3381 17.9963 12.2525C17.9396 12.2851 17.2814 12.6642 16.4105 13.167C16.4104 13.167 16.4103 13.1671 16.4102 13.1671C15.9567 13.4277 15.5619 13.6623 15.2812 13.8328C15.2063 13.8782 15.1316 13.924 15.0572 13.9702C15.1199 14.0025 15.1904 14.0385 15.2753 14.0811C15.5567 14.222 15.9515 14.4131 16.4039 14.6171L16.404 14.6172L18.0008 15.3346ZM21.1168 14.029C21.1139 14.0169 21.1125 14.0044 21.1125 13.9919C21.1125 14 21.113 14.007 21.1136 14.0135C21.1145 14.0187 21.1156 14.0239 21.1168 14.029Z" fill="#8CDBFF"/>
<path fill-rule="evenodd" clip-rule="evenodd" d="M14.154 15.488C14.175 15.7178 14.2277 15.8849 14.303 15.9685C14.3436 16.0119 14.6867 16.1838 16.0683 16.846C17.0105 17.2975 17.8096 17.6752 17.8428 17.6848C17.9451 17.7138 18.0836 17.7057 18.2009 17.664C18.3183 17.6222 21.5737 16.0649 21.6534 16.0119C21.7257 15.9653 21.8009 15.7885 21.8295 15.5989C21.8702 15.3449 21.8882 15.3546 21.6324 15.4912C21.509 15.5555 20.6421 15.9862 19.706 16.4474L18.0008 17.2863L16.2971 16.4474C15.3595 15.9862 14.4911 15.5555 14.3677 15.4896L14.1434 15.3707L14.154 15.488Z" fill="#8CDBFF"/>
<path fill-rule="evenodd" clip-rule="evenodd" d="M17.9687 17.8563C17.9131 17.8553 17.8584 17.8477 17.8061 17.8329C17.8057 17.8328 17.8054 17.8328 17.805 17.8326C17.7809 17.8256 17.7832 17.8248 17.774 17.8209C17.7649 17.8169 17.7536 17.8119 17.7398 17.8057C17.7121 17.7931 17.6742 17.7757 17.6268 17.7537C17.532 17.7096 17.3994 17.6473 17.2384 17.5712C16.9163 17.419 16.4809 17.2116 16.0096 16.9857C15.3186 16.6546 14.8873 16.446 14.6222 16.314C14.4896 16.2481 14.3988 16.2014 14.3362 16.1671C14.2736 16.1328 14.2496 16.1281 14.2015 16.0768C14.2009 16.0761 14.2002 16.0754 14.1996 16.0747C14.0813 15.9433 14.0339 15.7502 14.0112 15.5029C14.0112 15.5028 14.0112 15.5027 14.0112 15.5026L14.0007 15.3853C13.9982 15.3581 14.0026 15.3307 14.0134 15.306C14.0242 15.2812 14.0411 15.26 14.0621 15.2445C14.0832 15.229 14.1078 15.2198 14.1333 15.2179C14.1588 15.216 14.1843 15.2214 14.2072 15.2335L14.4315 15.3524C14.4316 15.3525 14.4317 15.3526 14.4318 15.3526C14.5381 15.4094 15.4197 15.8472 16.3572 16.3083C16.3572 16.3083 16.3572 16.3083 16.3572 16.3083L18.0009 17.1177L19.646 16.3083C20.5814 15.8475 21.4561 15.4127 21.5691 15.3538C21.6314 15.3205 21.6771 15.2947 21.7181 15.275C21.7387 15.2651 21.7577 15.2563 21.7842 15.2494C21.8107 15.2426 21.8533 15.2326 21.9076 15.2623C21.9619 15.292 21.9885 15.3569 21.994 15.3923C21.9995 15.4277 21.9968 15.4501 21.9944 15.4727C21.9897 15.5179 21.9808 15.5632 21.9709 15.6247L21.9712 15.6232C21.9548 15.7315 21.926 15.8342 21.8884 15.9225C21.8509 16.0105 21.8138 16.0871 21.7283 16.1425C21.6983 16.1624 21.6931 16.1625 21.6644 16.1771C21.6352 16.1919 21.5958 16.2115 21.5471 16.2355C21.4497 16.2835 21.3154 16.3489 21.1561 16.426C20.8375 16.5803 20.4194 16.7813 20 16.9819C19.5806 17.1826 19.16 17.3829 18.8368 17.5357C18.6752 17.6121 18.5379 17.6767 18.437 17.7236C18.3865 17.7471 18.3452 17.7661 18.3142 17.7801C18.2831 17.7942 18.2699 17.8009 18.2463 17.8093C18.1562 17.8414 18.0613 17.858 17.9687 17.8563L17.9687 17.8563ZM17.9715 17.5477C18.0307 17.5481 18.099 17.5388 18.1556 17.5187C18.1467 17.5219 18.1727 17.5115 18.2022 17.4981C18.2318 17.4848 18.2725 17.466 18.3225 17.4428C18.4224 17.3963 18.5593 17.3319 18.7206 17.2557C19.0433 17.1031 19.4636 16.9029 19.8826 16.7024C20.3017 16.5019 20.7197 16.301 21.0376 16.1471C21.1966 16.0701 21.3306 16.0048 21.4269 15.9574C21.4751 15.9336 21.5139 15.9143 21.5413 15.9004C21.5547 15.8936 21.5684 15.8858 21.5768 15.8812C21.5783 15.8765 21.6065 15.8445 21.6273 15.7956C21.6458 15.7521 21.6632 15.697 21.676 15.6386C21.5146 15.7218 20.6825 16.1349 19.766 16.5865C19.766 16.5865 19.766 16.5865 19.7659 16.5865L18.0608 17.4254C18.0419 17.4347 18.0214 17.4395 18.0007 17.4395C17.98 17.4395 17.9595 17.4347 17.9407 17.4254L16.237 16.5865C15.3235 16.1372 14.4937 15.7262 14.3211 15.6357C14.3437 15.7416 14.3742 15.8157 14.3969 15.8499C14.4047 15.8547 14.4313 15.875 14.467 15.8946C14.5234 15.9254 14.6123 15.9712 14.7433 16.0364C15.0053 16.1668 15.4364 16.3753 16.127 16.7063C16.127 16.7063 16.127 16.7063 16.127 16.7063C16.5979 16.932 17.0331 17.1392 17.3544 17.2911C17.5151 17.3671 17.6474 17.4292 17.7412 17.4728C17.7881 17.4946 17.8254 17.5118 17.8514 17.5235C17.8645 17.5294 17.8747 17.534 17.8813 17.5368C17.8824 17.5373 17.8832 17.5375 17.8844 17.5379C17.9082 17.544 17.9382 17.5474 17.9715 17.5477L17.9715 17.5477ZM21.5777 15.8819C21.5782 15.8816 21.5788 15.8812 21.5793 15.8809C21.5792 15.881 21.5792 15.8809 21.579 15.881C21.5783 15.8815 21.5787 15.8813 21.5777 15.8819Z" fill="#8CDBFF"/>
<path fill-rule="evenodd" clip-rule="evenodd" d="M14.1554 17.1336C14.1765 17.3731 14.2472 17.5756 14.333 17.6447C14.3857 17.6848 17.7103 19.2839 17.8201 19.3209C17.915 19.353 18.067 19.3514 18.1738 19.3176C18.2746 19.2871 21.5962 17.6993 21.6609 17.6511C21.7497 17.5852 21.822 17.3795 21.846 17.1272L21.8566 17.0099L21.5962 17.1481C21.3223 17.2959 18.0233 18.9239 18.0007 18.9239C17.9782 18.9239 14.464 17.1899 14.2999 17.0983L14.1449 17.0099L14.1554 17.1336Z" fill="#8CDBFF"/>
<path fill-rule="evenodd" clip-rule="evenodd" d="M17.9945 19.5C17.9201 19.5008 17.846 19.4903 17.7769 19.4669C17.7489 19.4574 17.7387 19.4515 17.7075 19.4374C17.6762 19.4232 17.6345 19.404 17.5835 19.3802C17.4814 19.3326 17.3422 19.2669 17.1781 19.1889C16.8498 19.033 16.4221 18.8284 15.9962 18.6236C15.5704 18.4188 15.1463 18.214 14.8252 18.0577C14.6646 17.9795 14.5298 17.9135 14.4331 17.8656C14.3847 17.8417 14.346 17.8223 14.3178 17.8079C14.3037 17.8007 14.2923 17.7948 14.283 17.7898C14.2736 17.7848 14.2781 17.791 14.2496 17.7693C14.2486 17.7685 14.2476 17.7677 14.2466 17.7669C14.1651 17.7012 14.122 17.6112 14.0855 17.5064C14.049 17.4016 14.0242 17.2796 14.0126 17.1479C14.0126 17.1478 14.0126 17.1476 14.0126 17.1475L14.0021 17.0237C13.9997 16.9962 14.0044 16.9685 14.0156 16.9436C14.0268 16.9187 14.0441 16.8975 14.0656 16.8822C14.0872 16.867 14.1122 16.8582 14.1381 16.8569C14.1639 16.8556 14.1896 16.8618 14.2125 16.8748L14.3665 16.9626C14.3859 16.9735 14.6522 17.108 15.0047 17.2833C15.3574 17.4587 15.8127 17.684 16.2635 17.9064C16.7144 18.1288 17.1608 18.3484 17.4958 18.5123C17.6632 18.5942 17.8029 18.6623 17.9011 18.7097C17.944 18.7304 17.9751 18.7452 18.0008 18.7574C18.031 18.7431 18.0613 18.7286 18.0914 18.7141C18.1839 18.6695 18.3156 18.6054 18.4738 18.528C18.7903 18.3732 19.2132 18.1651 19.644 17.9524C20.5056 17.5271 21.4123 17.0757 21.5315 17.0114C21.5317 17.0112 21.532 17.0111 21.5323 17.0109L21.7927 16.8727C21.8156 16.8606 21.8411 16.8552 21.8666 16.8571C21.8922 16.859 21.9167 16.8682 21.9378 16.8837C21.9589 16.8992 21.9757 16.9204 21.9865 16.9451C21.9973 16.9699 22.0017 16.9973 21.9993 17.0245L21.9888 17.1418C21.9887 17.1421 21.9887 17.1424 21.9887 17.1427C21.9756 17.2801 21.9497 17.4059 21.9119 17.513C21.8741 17.6202 21.8296 17.7124 21.7428 17.7768C21.7198 17.7939 21.7199 17.7915 21.7102 17.7967C21.7004 17.802 21.6886 17.8081 21.6742 17.8155C21.6452 17.8304 21.6058 17.8501 21.5569 17.8743C21.4591 17.9227 21.3234 17.9889 21.1622 18.067C20.8397 18.2233 20.4152 18.4273 19.9895 18.6308C19.5637 18.8343 19.1369 19.0372 18.81 19.1913C18.6465 19.2683 18.508 19.3331 18.4068 19.3798C18.3562 19.4032 18.315 19.422 18.2841 19.4357C18.2534 19.4494 18.2479 19.4543 18.2135 19.4648C18.1432 19.4869 18.0687 19.4991 17.9945 19.4999L17.9945 19.5ZM17.9904 19.1879C18.0423 19.1876 18.0968 19.1822 18.1331 19.1708C18.1336 19.1706 18.1342 19.1704 18.1347 19.1703C18.1122 19.1771 18.1447 19.1659 18.1736 19.1531C18.2025 19.1402 18.243 19.1217 18.293 19.0986C18.393 19.0525 18.5311 18.9879 18.6942 18.911C19.0204 18.7573 19.4469 18.5545 19.8723 18.3512C20.2977 18.1479 20.7219 17.944 21.0436 17.7881C21.2045 17.7101 21.3397 17.6441 21.4363 17.5963C21.4846 17.5724 21.5233 17.553 21.5502 17.5393C21.5635 17.5325 21.5739 17.527 21.5806 17.5234C21.5857 17.5179 21.6184 17.4763 21.6435 17.405C21.6566 17.368 21.6686 17.324 21.6788 17.2752L21.6609 17.2847C21.5062 17.3683 20.6264 17.8048 19.7644 18.2304C19.3334 18.4432 18.9103 18.6514 18.5933 18.8064C18.4348 18.884 18.3029 18.9482 18.2096 18.9932C18.1629 19.0157 18.1259 19.0334 18.0996 19.0458C18.0864 19.0519 18.0761 19.0567 18.0676 19.0605C18.0634 19.0624 18.0598 19.064 18.0552 19.0659C18.0529 19.0668 18.0505 19.0678 18.0459 19.0694C18.0413 19.071 18.0514 19.077 18.0008 19.077C17.9469 19.077 17.9594 19.0707 17.9549 19.0691C17.9503 19.0675 17.948 19.0665 17.9457 19.0656C17.9411 19.0637 17.9375 19.0621 17.9331 19.0601C17.9243 19.0562 17.9133 19.0511 17.8994 19.0445C17.8716 19.0314 17.8324 19.0126 17.7829 18.9887C17.6839 18.941 17.544 18.8728 17.3763 18.7907C17.0409 18.6266 16.5943 18.407 16.1433 18.1844C15.6922 17.9619 15.2368 17.7365 14.8837 17.561C14.6254 17.4325 14.4326 17.3367 14.3221 17.2803C14.3314 17.3245 14.3424 17.365 14.3544 17.3996C14.3775 17.4659 14.4071 17.5077 14.4161 17.5183C14.4246 17.5227 14.4331 17.5272 14.4416 17.5315C14.4679 17.545 14.5061 17.5641 14.5539 17.5877C14.6495 17.6351 14.7839 17.7009 14.9442 17.7789C15.2646 17.9349 15.6885 18.1396 16.114 18.3443C16.5396 18.5489 16.967 18.7535 17.2946 18.909C17.4584 18.9868 17.5974 19.0524 17.6983 19.0995C17.7488 19.123 17.7899 19.142 17.8194 19.1553C17.849 19.1687 17.8776 19.1796 17.8633 19.1747C17.8634 19.1748 17.8635 19.1748 17.8636 19.1748C17.8892 19.1835 17.9385 19.1882 17.9904 19.1879L17.9904 19.1879ZM18.0438 18.7776C18.0433 18.7763 18.0455 18.7736 18.0319 18.772C18.0357 18.7738 18.0414 18.7765 18.0438 18.7776ZM17.9587 18.7771C17.961 18.7761 17.9658 18.7738 17.9693 18.7722C17.9589 18.7737 17.9592 18.7759 17.9587 18.7771L17.9587 18.7771Z" fill="#8CDBFF"/>
</svg>
