<svg width="24" height="25" viewBox="0 0 24 25" fill="none" xmlns="http://www.w3.org/2000/svg">
<path fill-rule="evenodd" clip-rule="evenodd" d="M5 4.5C3.34315 4.5 2 5.84315 2 7.5V17.5C2 19.1569 3.34315 20.5 5 20.5H14V18.5H5C4.44772 18.5 4 18.0523 4 17.5V7.5C4 6.94772 4.44772 6.5 5 6.5H7.78388C8.01539 6.5 8.23973 6.58033 8.41862 6.72727L10.8119 8.69318C11.3486 9.13402 12.0216 9.375 12.7161 9.375H19C19.5523 9.375 20 9.82272 20 10.375V10.5H22V10.375C22 8.71815 20.6569 7.375 19 7.375H12.7161C12.4846 7.375 12.2603 7.29467 12.0814 7.14773L9.6881 5.18182C9.15142 4.74098 8.47841 4.5 7.78388 4.5H5Z" fill="#64748B"/>
<path d="M18.753 14.0841C18.753 14.3254 20.6303 14.2111 20.884 14.0397C20.884 12.3762 19.862 11.5 17.9919 11.5C16.129 11.5 15.0852 12.3889 15.0852 13.7222C15.0852 16.0397 18.6587 16.0841 18.6587 17.3476C18.6587 17.7032 18.4558 17.919 18.0209 17.919C17.4482 17.919 17.2235 17.6651 17.2525 16.7952C17.2525 16.6048 15.078 16.5476 15.0127 16.7952C14.846 18.8905 16.3392 19.5 18.0499 19.5C19.6953 19.5 21 18.7254 21 17.3286C21 14.8397 17.3758 14.9095 17.3758 13.6778C17.3758 13.1762 17.7962 13.1063 18.0499 13.1063C18.3108 13.1063 18.7892 13.1508 18.7457 14.0841H18.753Z" fill="#FF79A6"/>
<path d="M5.58132 4.5H7.5V6.51716C7.5 6.69534 7.28457 6.78457 7.15858 6.65858L6.5 6L5.85776 6.64224C5.72954 6.77046 5.51055 6.67555 5.51645 6.49431L5.58132 4.5Z" fill="#FF79A6"/>
</svg>
