<svg width="24" height="24" viewBox="0 0 24 24" fill="none" xmlns="http://www.w3.org/2000/svg">
<path fill-rule="evenodd" clip-rule="evenodd" d="M5 4C3.34315 4 2 5.34315 2 7V17C2 18.6569 3.34315 20 5 20H13V18H5C4.44772 18 4 17.5523 4 17V7C4 6.44772 4.44772 6 5 6H7.78388C8.01539 6 8.23973 6.08033 8.41862 6.22727L10.8119 8.19318C11.3486 8.63402 12.0216 8.875 12.7161 8.875H19C19.5523 8.875 20 9.32272 20 9.875V10H22V9.875C22 8.21815 20.6569 6.875 19 6.875H12.7161C12.4846 6.875 12.2603 6.79467 12.0814 6.64773L9.6881 4.68182C9.15142 4.24098 8.47841 4 7.78388 4H5Z" fill="#64748B"/>
<path fill-rule="evenodd" clip-rule="evenodd" d="M18.6897 11.0007C18.5801 11.0007 18.4722 11.0278 18.3756 11.0795C18.279 11.1312 18.1966 11.206 18.1358 11.2972L16.9976 13.0007H14.3329C14.2446 13.0007 14.1599 13.0357 14.0975 13.0982C14.0351 13.1606 14 13.2453 14 13.3336V15.1664L15.1665 16.3686L15.5689 15.9373L16.0689 16.438L15.6625 16.8443L16.1545 17.3376L16.5622 16.9306L17.0656 17.434L16.6667 17.8336L17.8332 19H19.6662C19.7101 19.0001 19.7535 18.9915 19.794 18.9748C19.8345 18.9581 19.8713 18.9335 19.9023 18.9025C19.9333 18.8715 19.9579 18.8347 19.9746 18.7942C19.9914 18.7537 19.9999 18.7103 19.9998 18.6664V16.002L21.7035 14.8646C21.7947 14.8036 21.8695 14.7211 21.9212 14.6244C21.9729 14.5277 22 14.4197 22 14.31V11.3336C22.0001 11.2897 21.9915 11.2463 21.9748 11.2058C21.9581 11.1653 21.9335 11.1285 21.9025 11.0975C21.8715 11.0665 21.8347 11.0419 21.7942 11.0252C21.7537 11.0085 21.7102 10.9999 21.6664 11L18.6897 11.0007ZM19.9998 12C20.1979 11.9995 20.3917 12.0579 20.5565 12.1677C20.7213 12.2775 20.8498 12.4338 20.9256 12.6168C21.0015 12.7997 21.0212 13.0011 20.9823 13.1953C20.9435 13.3895 20.8478 13.5678 20.7074 13.7075C20.5667 13.8482 20.3872 13.9437 20.1919 13.9819C19.9966 14.0201 19.7943 13.9992 19.611 13.9218C19.371 13.8204 19.18 13.6295 19.0786 13.3895C19.0148 13.2375 18.9895 13.072 19.005 12.9079C19.0205 12.7437 19.0763 12.5859 19.1675 12.4485C19.2586 12.3111 19.3823 12.1984 19.5275 12.1202C19.6727 12.0421 19.8349 12.0004 19.9998 12ZM14 17V19H16.0002V18.4003H14.5998V17H14Z" fill="#0EA5E9"/>
</svg>
