<svg width="24" height="25" viewBox="0 0 24 25" fill="none" xmlns="http://www.w3.org/2000/svg">
<path fill-rule="evenodd" clip-rule="evenodd" d="M5 4.5C3.34315 4.5 2 5.84315 2 7.5V17.5C2 19.1569 3.34315 20.5 5 20.5H13V18.5H5C4.44772 18.5 4 18.0523 4 17.5V7.5C4 6.94772 4.44772 6.5 5 6.5H7.78388C8.01539 6.5 8.23973 6.58033 8.41862 6.72727L10.8119 8.69318C11.3486 9.13402 12.0216 9.375 12.7161 9.375H19C19.5523 9.375 20 9.82272 20 10.375V10.5H22V10.375C22 8.71815 20.6569 7.375 19 7.375H12.7161C12.4846 7.375 12.2603 7.29467 12.0814 7.14773L9.6881 5.18182C9.15142 4.74098 8.47841 4.5 7.78388 4.5H5Z" fill="#64748B"/>
<path d="M13 11.5C13 13.7089 14.734 15.5 16.8726 15.5H18.0345C15.8951 15.5 14.162 17.2911 14.162 19.5H14.9372C16.536 19.5 17.9088 18.4994 18.5 17.0712C19.0912 18.4994 20.464 19.5 22.0628 19.5H22.838C22.838 17.2911 21.105 15.5 18.9655 15.5H20.1274C22.266 15.5 24 13.7089 24 11.5H22.0628C20.464 11.5 19.0912 12.5006 18.5 13.9288C17.9088 12.5006 16.536 11.5 14.9372 11.5H13ZM18.5 13.9306C18.6994 14.4129 18.8097 14.9433 18.8097 15.5C18.8097 16.0567 18.6994 16.5872 18.5 17.0694C18.2944 16.5702 18.1893 16.0375 18.1902 15.5C18.1902 14.9432 18.3005 14.4128 18.5 13.9306Z" fill="#F472B6"/>
</svg>
