<svg width="24" height="25" viewBox="0 0 24 25" fill="none" xmlns="http://www.w3.org/2000/svg">
<path fill-rule="evenodd" clip-rule="evenodd" d="M5 4.5C3.34315 4.5 2 5.84315 2 7.5V17.5C2 19.1569 3.34315 20.5 5 20.5H13V18.5H5C4.44772 18.5 4 18.0523 4 17.5V7.5C4 6.94772 4.44772 6.5 5 6.5H7.78388C8.01539 6.5 8.23973 6.58033 8.41862 6.72727L10.8119 8.69318C11.3486 9.13402 12.0216 9.375 12.7161 9.375H19C19.5523 9.375 20 9.82272 20 10.375V10.5H22V10.375C22 8.71815 20.6569 7.375 19 7.375H12.7161C12.4846 7.375 12.2603 7.29467 12.0814 7.14773L9.6881 5.18182C9.15142 4.74098 8.47841 4.5 7.78388 4.5H5Z" fill="#64748B"/>
<path fill-rule="evenodd" clip-rule="evenodd" d="M21 20.2547L19.9697 18.762L17.3893 15.0236C16.5383 13.7931 15.8265 12.7711 15.8074 12.7503C15.7392 12.6799 15.6955 12.6695 15.4364 12.6695C15.2155 12.6695 15.1937 12.6721 15.1418 12.6955C15.1118 12.7138 15.0682 12.7451 15.0464 12.7711C15.0216 12.8032 15.0081 12.8426 15.008 12.8832L15.0027 15.2712L15.0001 17.6682C15 17.7069 15.0094 17.7449 15.0273 17.7791C15.0467 17.8153 15.0759 17.846 15.1118 17.8678C15.151 17.8933 15.1967 17.9069 15.2435 17.9069H15.3928C15.5864 17.9069 15.6219 17.9017 15.6628 17.8808C15.7135 17.8587 15.7542 17.8198 15.7774 17.7713C15.799 17.7301 15.7992 17.6581 15.8045 15.9482L15.8046 15.8943C15.806 15.3777 15.8082 14.9092 15.8106 14.5756C15.813 14.2542 15.9298 14.2186 16.117 14.4799C16.4599 14.9585 16.8004 15.4387 17.1384 15.9204L18.4504 17.774L19.4978 19.127C20.04 19.8278 20.5015 20.4189 20.5562 20.4866C20.5599 20.4912 20.5664 20.4942 20.5661 20.5M19.7883 12.5827C19.7658 12.558 19.7385 12.5379 19.7078 12.5235C19.6669 12.5 19.6342 12.5 19.4432 12.5C19.2414 12.5 19.225 12.5 19.1705 12.5261C19.1398 12.5424 19.113 12.5644 19.0914 12.5908C19.0699 12.6172 19.0541 12.6475 19.045 12.6799C19.0368 12.7086 19.0314 13.2899 19.0314 14.3223V15.6138C19.0314 15.8152 19.0922 16.0119 19.2059 16.1782L19.4378 16.5174C19.5627 16.6988 19.8469 16.6104 19.8469 16.3902V14.9115C19.8496 13.3786 19.8469 12.6981 19.8387 12.6668C19.8279 12.6359 19.8107 12.6073 19.7883 12.5827Z" fill="#CFD8DC"/>
</svg>
