<svg width="24" height="25" viewBox="0 0 24 25" fill="none" xmlns="http://www.w3.org/2000/svg">
<path fill-rule="evenodd" clip-rule="evenodd" d="M5 4.5C3.34315 4.5 2 5.84315 2 7.5V17.5C2 19.1569 3.34315 20.5 5 20.5H13V18.5H5C4.44772 18.5 4 18.0523 4 17.5V7.5C4 6.94772 4.44772 6.5 5 6.5H7.78388C8.01539 6.5 8.23973 6.58033 8.41862 6.72727L10.8119 8.69318C11.3486 9.13402 12.0216 9.375 12.7161 9.375H19C19.5523 9.375 20 9.82272 20 10.375V10.5H22V10.375C22 8.71815 20.6569 7.375 19 7.375H12.7161C12.4846 7.375 12.2603 7.29467 12.0814 7.14773L9.6881 5.18182C9.15142 4.74098 8.47841 4.5 7.78388 4.5H5Z" fill="#64748B"/>
<path fill-rule="evenodd" clip-rule="evenodd" d="M20.9998 18.4998C20.445 18.4998 19.9998 18.945 19.9998 19.4999C19.9998 19.6313 20.0256 19.7613 20.0759 19.8826C20.1261 20.004 20.1998 20.1142 20.2927 20.2071C20.3855 20.2999 20.4958 20.3736 20.6171 20.4239C20.7385 20.4741 20.8685 20.5 20.9998 20.5C21.1312 20.5 21.2612 20.4741 21.3826 20.4239C21.5039 20.3736 21.6141 20.2999 21.707 20.2071C21.7999 20.1142 21.8735 20.004 21.9238 19.8826C21.974 19.7613 21.9999 19.6313 21.9999 19.4999C21.9999 18.945 21.5498 18.4998 20.9998 18.4998ZM13 10.5V11.5001H14.0001L15.8006 15.295L15.1196 16.5201C15.0411 16.6678 15 16.8325 15.0002 16.9997C15.0002 17.131 15.026 17.2611 15.0763 17.3824C15.1265 17.5038 15.2002 17.614 15.2931 17.7069C15.3859 17.7997 15.4962 17.8734 15.6175 17.9237C15.7389 17.9739 15.8689 17.9998 16.0002 17.9998H21.9991V16.9997H16.2098C16.1765 16.9997 16.1447 16.9865 16.1212 16.963C16.0977 16.9396 16.0845 16.9077 16.0845 16.8745C16.0837 16.8535 16.0891 16.8327 16.1001 16.8148L16.5502 15.9996H20.2747C20.4532 15.9992 20.6284 15.9513 20.7823 15.8608C20.9361 15.7703 21.0632 15.6406 21.1504 15.4849L22.9394 12.2497C22.9765 12.1715 22.9971 12.0866 23 12.0001C23.0001 11.9344 22.9872 11.8694 22.9622 11.8086C22.9371 11.7479 22.9002 11.6928 22.8538 11.6463C22.8073 11.5998 22.7522 11.563 22.6914 11.5379C22.6307 11.5128 22.5657 11.5 22.5 11.5001H15.1049L14.6352 10.5M16.0002 18.4998C15.4446 18.4998 15.0002 18.945 15.0002 19.4999C15.0002 19.6313 15.026 19.7613 15.0763 19.8826C15.1265 20.004 15.2002 20.1142 15.2931 20.2071C15.3859 20.2999 15.4962 20.3736 15.6175 20.4239C15.7389 20.4741 15.8689 20.5 16.0002 20.5C16.1316 20.5 16.2616 20.4741 16.383 20.4239C16.5043 20.3736 16.6145 20.2999 16.7074 20.2071C16.8003 20.1142 16.8739 20.004 16.9242 19.8826C16.9745 19.7613 17.0003 19.6313 17.0003 19.4999C17.0003 18.945 16.5502 18.4998 16.0002 18.4998Z" fill="#CFD8DC"/>
</svg>
