<svg width="24" height="25" viewBox="0 0 24 25" fill="none" xmlns="http://www.w3.org/2000/svg">
<path fill-rule="evenodd" clip-rule="evenodd" d="M5 4.5C3.34315 4.5 2 5.84315 2 7.5V17.5C2 19.1569 3.34315 20.5 5 20.5H13V18.5H5C4.44772 18.5 4 18.0523 4 17.5V7.5C4 6.94772 4.44772 6.5 5 6.5H7.78388C8.01539 6.5 8.23973 6.58033 8.41862 6.72727L10.8119 8.69318C11.3486 9.13402 12.0216 9.375 12.7161 9.375H19C19.5523 9.375 20 9.82272 20 10.375V10.5H22V10.375C22 8.71815 20.6569 7.375 19 7.375H12.7161C12.4846 7.375 12.2603 7.29467 12.0814 7.14773L9.6881 5.18182C9.15142 4.74098 8.47841 4.5 7.78388 4.5H5Z" fill="#64748B"/>
<path fill-rule="evenodd" clip-rule="evenodd" d="M17.8558 16.7276L16.8169 15.7237L16.8291 15.7118C17.5221 14.9587 18.0399 14.0676 18.3468 13.1H19.5453V12.3H16.6818V11.5H15.8635V12.3H13V13.1H17.5699C17.2872 13.8904 16.8463 14.6177 16.273 15.2398C15.8996 14.8353 15.5818 14.3849 15.3277 13.9H14.5095C14.8083 14.552 15.2171 15.168 15.7284 15.7237L13.6458 17.7314L14.227 18.2997L16.2723 16.2993L17.5448 17.5435L17.8558 16.7276ZM20.1591 14.7H19.3409L17.5 19.5H18.3182L18.7759 18.2997H20.7193L21.1811 19.4993H22L20.1591 14.6993M19.0869 17.4997L19.7497 15.7676L20.4124 17.4997H19.0869Z" fill="#CFD8DC"/>
</svg>
