<svg width="24" height="24" viewBox="0 0 24 24" fill="none" xmlns="http://www.w3.org/2000/svg">
<path fill-rule="evenodd" clip-rule="evenodd" d="M5 4C3.34315 4 2 5.34315 2 7V17C2 18.6569 3.34315 20 5 20H13V18H5C4.44772 18 4 17.5523 4 17V7C4 6.44772 4.44772 6 5 6H7.78388C8.01539 6 8.23973 6.08033 8.41862 6.22727L10.8119 8.19318C11.3486 8.63402 12.0216 8.875 12.7161 8.875H19C19.5523 8.875 20 9.32272 20 9.875V10H22V9.875C22 8.21815 20.6569 6.875 19 6.875H12.7161C12.4846 6.875 12.2603 6.79467 12.0814 6.64773L9.6881 4.68182C9.15142 4.24098 8.47841 4 7.78388 4H5Z" fill="#64748B"/>
<path d="M15.1827 11L14.9208 12.485H20.3899L20.2125 13.4447H14.7482L14.4821 14.9244H19.9518L19.6458 16.6177L17.4405 17.4223L15.5292 16.6177L15.6619 15.8887H14.3179L14 17.6662L17.1589 19L20.8006 17.6662L21.2839 14.9869L21.3804 14.4491L22 11H15.1827Z" fill="#BBDEFB"/>
</svg>
