<svg width="24" height="25" viewBox="0 0 24 25" fill="none" xmlns="http://www.w3.org/2000/svg">
<path fill-rule="evenodd" clip-rule="evenodd" d="M5 4.5C3.34315 4.5 2 5.84315 2 7.5V17.5C2 19.1569 3.34315 20.5 5 20.5H13V18.5H5C4.44772 18.5 4 18.0523 4 17.5V7.5C4 6.94772 4.44772 6.5 5 6.5H7.78388C8.01539 6.5 8.23973 6.58033 8.41862 6.72727L10.8119 8.69318C11.3486 9.13402 12.0216 9.375 12.7161 9.375H19C19.5523 9.375 20 9.82272 20 10.375V10.5H22V10.375C22 8.71815 20.6569 7.375 19 7.375H12.7161C12.4846 7.375 12.2603 7.29467 12.0814 7.14773L9.6881 5.18182C9.15142 4.74098 8.47841 4.5 7.78388 4.5H5Z" fill="#64748B"/>
<path fill-rule="evenodd" clip-rule="evenodd" d="M21 17.9761V18.3571H14V17.9761L14.7778 17.2141V14.9282C14.7778 13.7475 15.5676 12.7075 16.7225 12.3725V12.262C16.7225 12.0599 16.8044 11.8661 16.9503 11.7232C17.0962 11.5803 17.294 11.5 17.5003 11.5C17.7066 11.5 17.9044 11.5803 18.0503 11.7232C18.1962 11.8661 18.2781 12.0599 18.2781 12.262V12.3725C18.8402 12.5361 19.3333 12.8734 19.6836 13.334C20.034 13.7946 20.2229 14.3538 20.2222 14.9282V17.2141L21 17.9761ZM18.2775 18.738C18.2775 18.9401 18.1956 19.1339 18.0497 19.2768C17.9038 19.4197 17.706 19.5 17.4997 19.5C17.2934 19.5 17.0956 19.4197 16.9497 19.2768C16.8038 19.1339 16.7219 18.9401 16.7219 18.738" fill="#CFD8DC"/>
</svg>
