<svg width="24" height="25" viewBox="0 0 24 25" fill="none" xmlns="http://www.w3.org/2000/svg">
<path fill-rule="evenodd" clip-rule="evenodd" d="M5 4.5C3.34315 4.5 2 5.84315 2 7.5V17.5C2 19.1569 3.34315 20.5 5 20.5H11V18.5H5C4.44772 18.5 4 18.0523 4 17.5V7.5C4 6.94772 4.44772 6.5 5 6.5H7.78388C8.01539 6.5 8.23973 6.58033 8.41862 6.72727L10.8119 8.69318C11.3486 9.13402 12.0216 9.375 12.7161 9.375H19C19.5523 9.375 20 9.82272 20 10.375V10.5H22V10.375C22 8.71815 20.6569 7.375 19 7.375H12.7161C12.4846 7.375 12.2603 7.29467 12.0814 7.14773L9.6881 5.18182C9.15142 4.74098 8.47841 4.5 7.78388 4.5H5Z" fill="#64748B"/>
<path fill-rule="evenodd" clip-rule="evenodd" d="M14.0835 11.5H14.9169V12.389H14.0835V14.6107C14.0835 14.8465 13.9957 15.0726 13.8394 15.2393C13.6831 15.406 13.4711 15.4997 13.2501 15.4997C13.4711 15.4997 13.6831 15.5933 13.8394 15.76C13.9957 15.9267 14.0835 16.1528 14.0835 16.3886V18.611H14.9169V19.5H14.0835C13.6373 19.38 13.2501 19.1002 13.2501 18.611V16.8331C13.2501 16.7164 13.2285 16.6008 13.1866 16.4929C13.1448 16.3851 13.0834 16.2871 13.006 16.2045C12.9286 16.122 12.8367 16.0565 12.7356 16.0118C12.6345 15.9671 12.5261 15.9441 12.4167 15.9441H12V15.0552H12.4167C12.5261 15.0552 12.6345 15.0322 12.7356 14.9875C12.8367 14.9428 12.9286 14.8773 13.006 14.7948C13.0834 14.7122 13.1448 14.6142 13.1866 14.5064C13.2285 14.3985 13.2501 14.2829 13.2501 14.1662V12.389C13.2501 12.1532 13.3379 11.9271 13.4942 11.7604C13.6505 11.5937 13.8624 11.5 14.0835 11.5ZM19.9165 11.5C20.1376 11.5 20.3495 11.5937 20.5058 11.7604C20.6621 11.9271 20.7499 12.1532 20.7499 12.389V14.1662C20.7499 14.402 20.8377 14.6281 20.994 14.7948C21.1503 14.9615 21.3623 15.0552 21.5833 15.0552H22V15.9441H21.5833C21.3623 15.9441 21.1503 16.0378 20.994 16.2045C20.8377 16.3712 20.7499 16.5973 20.7499 16.8331V18.611C20.7499 18.8468 20.6621 19.0729 20.5058 19.2396C20.3495 19.4063 20.1376 19.5 19.9165 19.5H19.0831V18.611H19.9165V16.3886C19.9165 16.1528 20.0043 15.9267 20.1606 15.76C20.3169 15.5933 20.5289 15.4997 20.7499 15.4997C20.5289 15.4997 20.3169 15.406 20.1606 15.2393C20.0043 15.0726 19.9165 14.8465 19.9165 14.6107V12.389H19.0831V11.5H19.9165ZM17.0003 16.8331C17.1108 16.8331 17.2168 16.8799 17.295 16.9633C17.3731 17.0466 17.417 17.1597 17.417 17.2776C17.417 17.3955 17.3731 17.5085 17.295 17.5919C17.2168 17.6752 17.1108 17.7221 17.0003 17.7221C16.8898 17.7221 16.7838 17.6752 16.7057 17.5919C16.6275 17.5085 16.5836 17.3955 16.5836 17.2776C16.5836 17.1597 16.6275 17.0466 16.7057 16.9633C16.7838 16.8799 16.8898 16.8331 17.0003 16.8331ZM15.3336 16.8331C15.4441 16.8331 15.5501 16.8799 15.6282 16.9633C15.7063 17.0466 15.7502 17.1597 15.7502 17.2776C15.7502 17.3955 15.7063 17.5085 15.6282 17.5919C15.5501 17.6752 15.4441 17.7221 15.3336 17.7221C15.223 17.7221 15.117 17.6752 15.0389 17.5919C14.9608 17.5085 14.9169 17.3955 14.9169 17.2776C14.9169 17.1597 14.9608 17.0466 15.0389 16.9633C15.117 16.8799 15.223 16.8331 15.3336 16.8331ZM18.6664 16.8331C18.777 16.8331 18.8829 16.8799 18.9611 16.9633C19.0392 17.0466 19.0831 17.1597 19.0831 17.2776C19.0831 17.3955 19.0392 17.5085 18.9611 17.5919C18.8829 17.6752 18.777 17.7221 18.6664 17.7221C18.6117 17.7221 18.5575 17.7106 18.507 17.6882C18.4564 17.6659 18.4105 17.6332 18.3718 17.5919C18.3331 17.5506 18.3024 17.5016 18.2815 17.4477C18.2605 17.3938 18.2498 17.336 18.2498 17.2776C18.2498 17.2192 18.2605 17.1614 18.2815 17.1075C18.3024 17.0536 18.3331 17.0046 18.3718 16.9633C18.4105 16.922 18.4564 16.8893 18.507 16.8669C18.5575 16.8446 18.6117 16.8331 18.6664 16.8331Z" fill="#FFCE50"/>
</svg>
