<svg width="24" height="24" viewBox="0 0 24 24" fill="none" xmlns="http://www.w3.org/2000/svg">
<path fill-rule="evenodd" clip-rule="evenodd" d="M5 4C3.34315 4 2 5.34315 2 7V17C2 18.6569 3.34315 20 5 20H13V18H5C4.44772 18 4 17.5523 4 17V7C4 6.44772 4.44772 6 5 6H7.78388C8.01539 6 8.23973 6.08033 8.41862 6.22727L10.8119 8.19318C11.3486 8.63402 12.0216 8.875 12.7161 8.875H19C19.5523 8.875 20 9.32272 20 9.875V10H22V9.875C22 8.21815 20.6569 6.875 19 6.875H12.7161C12.4846 6.875 12.2603 6.79467 12.0814 6.64773L9.6881 4.68182C9.15142 4.24098 8.47841 4 7.78388 4H5Z" fill="#64748B"/>
<path fill-rule="evenodd" clip-rule="evenodd" d="M18 11C16.9392 11 15.9219 11.4318 15.1718 12.2006C14.4217 12.9693 14.0002 14.0119 14 15.0991C14.0006 15.9602 14.2651 16.7994 14.7561 17.4982C15.2471 18.197 15.9398 18.7201 16.7365 18.9937C16.9366 19.0262 17.0001 18.8996 17.0001 18.7886V18.0962C15.892 18.3417 15.656 17.5467 15.656 17.5467C15.4724 17.0714 15.2123 16.9435 15.2123 16.9435C14.848 16.6902 15.24 16.698 15.24 16.698C15.6401 16.727 15.852 17.1203 15.852 17.1203C16.2004 17.7433 16.7877 17.5588 17.016 17.4604C17.0519 17.1938 17.1561 17.0141 17.2679 16.9116C16.3799 16.809 15.4483 16.4562 15.4483 14.8946C15.4483 14.4392 15.6001 14.0743 15.8602 13.7836C15.8202 13.681 15.6802 13.2546 15.9003 12.7009C15.9003 12.7009 16.2357 12.5905 17.0001 13.1195C17.3162 13.029 17.6598 12.9838 18.0006 12.9838C18.3413 12.9838 18.6838 13.029 18.9999 13.1195C19.7637 12.5905 20.1003 12.7009 20.1003 12.7009C20.3198 13.2546 20.1798 13.681 20.1398 13.7836C20.3999 14.0743 20.5517 14.4392 20.5517 14.8946C20.5517 16.4604 19.616 16.8048 18.7238 16.9073C18.868 17.034 19.0004 17.2843 19.0004 17.6655V18.7886C19.0004 18.8996 19.064 19.0305 19.2682 18.9937C20.064 18.7192 20.7556 18.1957 21.2457 17.497C21.7358 16.7983 21.9996 15.9596 22 15.0991C21.9998 14.0119 21.5783 12.9693 20.8282 12.2006C20.0781 11.4318 19.0608 11 18 11Z" fill="#CFD8DC"/>
</svg>
