<svg width="24" height="25" viewBox="0 0 24 25" fill="none" xmlns="http://www.w3.org/2000/svg">
<path fill-rule="evenodd" clip-rule="evenodd" d="M5 4.5C3.34315 4.5 2 5.84315 2 7.5V17.5C2 19.1569 3.34315 20.5 5 20.5H13V18.5H5C4.44772 18.5 4 18.0523 4 17.5V7.5C4 6.94772 4.44772 6.5 5 6.5H7.78388C8.01539 6.5 8.23973 6.58033 8.41862 6.72727L10.8119 8.69318C11.3486 9.13402 12.0216 9.375 12.7161 9.375H19C19.5523 9.375 20 9.82272 20 10.375V10.5H22V10.375C22 8.71815 20.6569 7.375 19 7.375H12.7161C12.4846 7.375 12.2603 7.29467 12.0814 7.14773L9.6881 5.18182C9.15142 4.74098 8.47841 4.5 7.78388 4.5H5Z" fill="#64748B"/>
<path fill-rule="evenodd" clip-rule="evenodd" d="M14.8753 11.5C14.7603 11.4999 14.6465 11.5206 14.5402 11.5608C14.434 11.601 14.3375 11.6599 14.2562 11.7342C14.1749 11.8086 14.1104 11.8968 14.0664 11.994C14.0225 12.0911 13.9999 12.1952 14 12.3003V18.6984C13.9997 18.8037 14.0222 18.9079 14.0661 19.0052C14.1099 19.1025 14.1744 19.1909 14.2557 19.2653C14.337 19.3398 14.4336 19.3988 14.5399 19.4391C14.6463 19.4794 14.7602 19.5001 14.8753 19.5H20.1247C20.2398 19.5001 20.3537 19.4794 20.4601 19.4391C20.5664 19.3988 20.663 19.3398 20.7443 19.2653C20.8256 19.1909 20.8901 19.1025 20.9339 19.0052C20.9778 18.9079 21.0003 18.8037 21 18.6984V12.3009C21.0002 12.1958 20.9777 12.0916 20.9337 11.9944C20.8898 11.8972 20.8254 11.8089 20.7441 11.7345C20.6628 11.6601 20.5662 11.6011 20.4599 11.5608C20.3536 11.5206 20.2397 11.4999 20.1247 11.5H14.8753ZM14.8753 14.3005H20.1247V16.3H14.8753V14.3005ZM14.8753 17.0991H20.1247V18.6984H14.8753V17.0991Z" fill="#8CDBFF"/>
</svg>
