<svg width="24" height="25" viewBox="0 0 24 25" fill="none" xmlns="http://www.w3.org/2000/svg">
<path fill-rule="evenodd" clip-rule="evenodd" d="M5 4.5C3.34315 4.5 2 5.84315 2 7.5V17.5C2 19.1569 3.34315 20.5 5 20.5H13V18.5H5C4.44772 18.5 4 18.0523 4 17.5V7.5C4 6.94772 4.44772 6.5 5 6.5H7.78388C8.01539 6.5 8.23973 6.58033 8.41862 6.72727L10.8119 8.69318C11.3486 9.13402 12.0216 9.375 12.7161 9.375H19C19.5523 9.375 20 9.82272 20 10.375V10.5H22V10.375C22 8.71815 20.6569 7.375 19 7.375H12.7161C12.4846 7.375 12.2603 7.29467 12.0814 7.14773L9.6881 5.18182C9.15142 4.74098 8.47841 4.5 7.78388 4.5H5Z" fill="#64748B"/>
<path fill-rule="evenodd" clip-rule="evenodd" d="M14.4447 11.5H21.5553C21.6731 11.5 21.7861 11.5383 21.8695 11.6064C21.9529 11.6745 21.9998 11.7668 22 11.8632V13.3181C22 13.4146 21.9531 13.5071 21.8698 13.5754C21.7864 13.6436 21.6732 13.6819 21.5553 13.6819H14.4447C14.3268 13.6819 14.2136 13.6436 14.1302 13.5754C14.0469 13.5071 14 13.4146 14 13.3181V11.8632C14.0002 11.7668 14.0471 11.6745 14.1305 11.6064C14.2139 11.5383 14.3269 11.5 14.4447 11.5ZM14.4447 14.409H21.5553C21.6137 14.409 21.6715 14.4184 21.7255 14.4367C21.7794 14.455 21.8285 14.4818 21.8698 14.5156C21.911 14.5494 21.9438 14.5895 21.9662 14.6337C21.9885 14.6778 22 14.7251 22 14.7729V16.2271C22 16.3236 21.9531 16.4162 21.8698 16.4844C21.7864 16.5526 21.6732 16.591 21.5553 16.591H14.4447C14.3268 16.591 14.2136 16.5526 14.1302 16.4844C14.0469 16.4162 14 16.3236 14 16.2271V14.7729C14 14.7251 14.0115 14.6778 14.0339 14.6337C14.0562 14.5895 14.089 14.5494 14.1302 14.5156C14.1715 14.4818 14.2206 14.455 14.2745 14.4367C14.3285 14.4184 14.3863 14.409 14.4447 14.409ZM14.4447 17.3181H21.5553C21.6732 17.3181 21.7864 17.3564 21.8698 17.4246C21.9531 17.4929 22 17.5854 22 17.6819V19.1361C22 19.2326 21.9531 19.3252 21.8698 19.3934C21.7864 19.4617 21.6732 19.5 21.5553 19.5H14.4447C14.3268 19.5 14.2136 19.4617 14.1302 19.3934C14.0469 19.3252 14 19.2326 14 19.1361V17.6826C14 17.586 14.0469 17.4935 14.1302 17.4253C14.2136 17.357 14.3268 17.3181 14.4447 17.3181ZM16.6667 12.9548H17.1114V12.2283H16.6667V12.9548ZM16.6667 15.8645H17.1114V15.1368H16.6667V15.8645ZM16.6667 18.7735H17.1114V18.0458H16.6667V18.7735ZM14.8894 12.2271V12.9542H15.7773V12.2271H14.8894ZM14.8894 15.1361V15.8632H15.7773V15.1368L14.8894 15.1361ZM14.8894 18.0458V18.7729H15.7773V18.0464L14.8894 18.0458Z" fill="#FFCE50"/>
</svg>
