<svg width="24" height="25" viewBox="0 0 24 25" fill="none" xmlns="http://www.w3.org/2000/svg">
<path fill-rule="evenodd" clip-rule="evenodd" d="M5 4.5C3.34315 4.5 2 5.84315 2 7.5V17.5C2 19.1569 3.34315 20.5 5 20.5H13V18.5H5C4.44772 18.5 4 18.0523 4 17.5V7.5C4 6.94772 4.44772 6.5 5 6.5H7.78388C8.01539 6.5 8.23973 6.58033 8.41862 6.72727L10.8119 8.69318C11.3486 9.13402 12.0216 9.375 12.7161 9.375H19C19.5523 9.375 20 9.82272 20 10.375V10.5H22V10.375C22 8.71815 20.6569 7.375 19 7.375H12.7161C12.4846 7.375 12.2603 7.29467 12.0814 7.14773L9.6881 5.18182C9.15142 4.74098 8.47841 4.5 7.78388 4.5H5Z" fill="#64748B"/>
<path fill-rule="evenodd" clip-rule="evenodd" d="M17.5 14.7139C17.9309 14.7139 18.2826 15.0633 18.2826 15.4997C18.2826 15.9161 17.9309 16.2696 17.5 16.2696C17.294 16.2689 17.0966 16.1878 16.9502 16.0438C16.8038 15.8998 16.7202 15.7044 16.7174 15.4997C16.7174 15.0633 17.0691 14.7139 17.5 14.7139ZM15.5617 18.8275C15.8258 18.9856 16.4033 18.7446 17.0691 18.1204C16.8453 17.8675 16.6345 17.6036 16.4373 17.3297C16.0999 17.2978 15.7644 17.248 15.4324 17.1805C15.219 18.07 15.2983 18.6824 15.5617 18.8275ZM15.8591 16.4402L15.7375 16.2276C15.6904 16.3444 15.65 16.4639 15.6166 16.5853C15.7298 16.6102 15.855 16.6315 15.9849 16.6522L15.8591 16.4402ZM18.5967 16.124L18.9358 15.4997L18.5967 14.8761C18.4715 14.6558 18.3374 14.4604 18.2158 14.2649C17.9893 14.2519 17.7509 14.2519 17.5006 14.2519C17.2491 14.2519 17.0101 14.2519 16.7842 14.2649C16.6626 14.4604 16.5291 14.6558 16.4033 14.8761L16.0642 15.4997L16.4039 16.124C16.5291 16.3443 16.6626 16.5397 16.7842 16.7351C17.0107 16.7476 17.2491 16.7476 17.5 16.7476C17.7509 16.7476 17.9899 16.7476 18.2158 16.7357C18.3374 16.5397 18.4709 16.3443 18.5967 16.124ZM17.5 13.3286C17.4207 13.4204 17.3367 13.5158 17.2532 13.6283H17.7468C17.6633 13.5158 17.5799 13.4204 17.5 13.3286ZM17.5 17.6709C17.5793 17.5797 17.6633 17.4837 17.7468 17.3718H17.2532C17.3367 17.4843 17.4201 17.5791 17.5 17.6709ZM19.4341 12.1726C19.1742 12.0145 18.5967 12.2555 17.9309 12.8797C18.155 13.1321 18.3659 13.3958 18.5627 13.6698C18.9066 13.7035 19.2458 13.7527 19.5676 13.8196C19.7816 12.9295 19.7017 12.3183 19.4341 12.1732M19.1409 14.5599L19.2625 14.7719C19.3083 14.6517 19.3542 14.5309 19.3834 14.4142C19.2702 14.3893 19.145 14.3686 19.0151 14.3479L19.1409 14.5599ZM19.7476 11.6283C20.3633 11.9772 20.4301 12.8963 20.1708 13.9694C21.2341 14.2815 22 14.7974 22 15.4997C22 16.2027 21.2341 16.7186 20.1702 17.0307C20.4301 18.1038 20.3633 19.0229 19.7476 19.3723C19.1367 19.7218 18.3034 19.322 17.5006 18.561C16.696 19.322 15.8633 19.7218 15.2476 19.3723C14.6367 19.0229 14.5699 18.1038 14.8292 17.0307C13.7665 16.7186 13 16.2027 13 15.4997C13 14.7968 13.7665 14.2815 14.8298 13.9694C14.5699 12.8963 14.6367 11.9772 15.2482 11.6277C15.8633 11.2783 16.6966 11.6775 17.5 12.4391C18.3034 11.6775 19.1367 11.2783 19.7476 11.6277M19.6266 15.4997C19.7691 15.8119 19.8948 16.124 19.9991 16.4402C20.8783 16.1779 21.3718 15.8036 21.3718 15.4997C21.3718 15.1965 20.8783 14.8222 19.9991 14.5599C19.8921 14.8796 19.7677 15.1933 19.6266 15.4997ZM15.3734 15.4997C15.2323 15.1933 15.1079 14.8796 15.0009 14.5599C14.1223 14.8222 13.6282 15.1965 13.6282 15.4997C13.6282 15.8036 14.1223 16.1779 15.0009 16.4402C15.1058 16.124 15.2315 15.8124 15.3734 15.4997ZM19.1409 16.4402L19.0157 16.6522C19.145 16.6315 19.2708 16.6108 19.3834 16.5853C19.3499 16.4639 19.3095 16.3445 19.2625 16.2276L19.1409 16.4402ZM17.9309 18.1204C18.5967 18.744 19.1742 18.985 19.4341 18.8275C19.7023 18.6818 19.7816 18.0706 19.5676 17.1805C19.2458 17.2468 18.906 17.2966 18.5633 17.3303C18.3625 17.6087 18.1491 17.8752 17.9315 18.1204M15.8591 14.5599L15.9843 14.3479C15.855 14.3686 15.7292 14.3893 15.6166 14.4148C15.6458 14.5309 15.6917 14.6517 15.7375 14.7725L15.8591 14.5599ZM17.0691 12.8797C16.4033 12.2561 15.8258 12.0151 15.5617 12.1726C15.2983 12.3183 15.2184 12.9295 15.4324 13.8196C15.7643 13.7522 16.0995 13.7022 16.4367 13.6698C16.6375 13.3914 16.8509 13.1249 17.0685 12.8797H17.0691Z" fill="#0EA5E9"/>
</svg>
