<svg width="24" height="25" viewBox="0 0 24 25" fill="none" xmlns="http://www.w3.org/2000/svg">
<path fill-rule="evenodd" clip-rule="evenodd" d="M5 4.5C3.34315 4.5 2 5.84315 2 7.5V17.5C2 19.1569 3.34315 20.5 5 20.5H13V18.5H5C4.44772 18.5 4 18.0523 4 17.5V7.5C4 6.94772 4.44772 6.5 5 6.5H7.78388C8.01539 6.5 8.23973 6.58033 8.41862 6.72727L10.8119 8.69318C11.3486 9.13402 12.0216 9.375 12.7161 9.375H19C19.5523 9.375 20 9.82272 20 10.375V10.5H22V10.375C22 8.71815 20.6569 7.375 19 7.375H12.7161C12.4846 7.375 12.2603 7.29467 12.0814 7.14773L9.6881 5.18182C9.15142 4.74098 8.47841 4.5 7.78388 4.5H5Z" fill="#64748B"/>
<path fill-rule="evenodd" clip-rule="evenodd" d="M18.5154 16.6979L21 15.4365V12.9096L18.5154 14.1739" fill="#C5CAE9"/>
<path fill-rule="evenodd" clip-rule="evenodd" d="M15.757 12.9096L18.2423 14.1739V16.6979L15.7577 15.4354M13 14.0257L15.4846 15.2883V12.7632L13.0007 11.5M15.7583 18.2374L18.243 19.5V16.9748L15.7583 15.7117" fill="#C5CAE9"/>
</svg>
