<svg width="24" height="25" viewBox="0 0 24 25" fill="none" xmlns="http://www.w3.org/2000/svg">
<path fill-rule="evenodd" clip-rule="evenodd" d="M5 4.5C3.34315 4.5 2 5.84315 2 7.5V17.5C2 19.1569 3.34315 20.5 5 20.5H13V18.5H5C4.44772 18.5 4 18.0523 4 17.5V7.5C4 6.94772 4.44772 6.5 5 6.5H7.78388C8.01539 6.5 8.23973 6.58033 8.41862 6.72727L10.8119 8.69318C11.3486 9.13402 12.0216 9.375 12.7161 9.375H19C19.5523 9.375 20 9.82272 20 10.375V10.5H22V10.375C22 8.71815 20.6569 7.375 19 7.375H12.7161C12.4846 7.375 12.2603 7.29467 12.0814 7.14773L9.6881 5.18182C9.15142 4.74098 8.47841 4.5 7.78388 4.5H5Z" fill="#64748B"/>
<path d="M17.7239 16.5C17.7239 16.1843 17.8513 15.8815 18.078 15.6582C18.3048 15.435 18.6123 15.3095 18.933 15.3095C19.2536 15.3095 19.5612 15.435 19.7879 15.6582C20.0146 15.8815 20.142 16.1843 20.142 16.5C20.142 16.8157 20.0146 17.1185 19.7879 17.3418C19.5612 17.5651 19.2536 17.6905 18.933 17.6905C18.6123 17.6905 18.3048 17.5651 18.078 17.3418C17.8513 17.1185 17.7239 16.8157 17.7239 16.5ZM18.933 11.5C17.8042 11.4989 16.7072 11.8682 15.8153 12.5494C14.9235 13.2307 14.2876 14.1851 14.0081 15.2619L14 15.3095C14 15.4444 14.1048 15.5476 14.2418 15.5476H16.2892C16.3355 15.5469 16.3807 15.533 16.4193 15.5077C16.4579 15.4823 16.4882 15.4466 16.5068 15.4048C16.7597 14.8615 17.1936 14.4198 17.7366 14.1528C18.2796 13.8859 18.899 13.8098 19.492 13.9372C20.085 14.0647 20.6159 14.3879 20.9965 14.8534C21.3772 15.3188 21.5847 15.8984 21.5847 16.496C21.5847 17.0936 21.3772 17.6733 20.9965 18.1387C20.6159 18.6042 20.085 18.9274 19.492 19.0548C18.899 19.1823 18.2796 19.1062 17.7366 18.8393C17.1936 18.5723 16.7597 18.1306 16.5068 17.5873C16.4882 17.5455 16.4579 17.5097 16.4193 17.4844C16.3807 17.4591 16.3355 17.4452 16.2892 17.4445H14.2418C14.1777 17.4445 14.1162 17.4695 14.0708 17.5142C14.0255 17.5588 14 17.6194 14 17.6825V17.7302C14.2338 18.637 14.7213 19.461 15.407 20.1086C16.0928 20.7562 16.9493 21.2014 17.8793 21.3935C18.8092 21.5856 19.7752 21.5169 20.6675 21.1953C21.5598 20.8737 22.3425 20.3121 22.9267 19.5742C23.511 18.8364 23.8732 17.9519 23.9723 17.0215C24.0714 16.091 23.9034 15.1518 23.4873 14.3107C23.0713 13.4696 22.4239 12.7602 21.6188 12.2634C20.8137 11.7665 19.8831 11.502 18.933 11.5Z" fill="#0EA5E9"/>
</svg>
