<svg width="24" height="25" viewBox="0 0 24 25" fill="none" xmlns="http://www.w3.org/2000/svg">
<path fill-rule="evenodd" clip-rule="evenodd" d="M5 4.5C3.34315 4.5 2 5.84315 2 7.5V17.5C2 19.1569 3.34315 20.5 5 20.5H13V18.5H5C4.44772 18.5 4 18.0523 4 17.5V7.5C4 6.94772 4.44772 6.5 5 6.5H7.78388C8.01539 6.5 8.23973 6.58033 8.41862 6.72727L10.8119 8.69318C11.3486 9.13402 12.0216 9.375 12.7161 9.375H19C19.5523 9.375 20 9.82272 20 10.375V10.5H22V10.375C22 8.71815 20.6569 7.375 19 7.375H12.7161C12.4846 7.375 12.2603 7.29467 12.0814 7.14773L9.6881 5.18182C9.15142 4.74098 8.47841 4.5 7.78388 4.5H5Z" fill="#64748B"/>
<g clip-path="url(#clip0_808_1367)">
<path d="M14.52 16.56C14.11 14.38 15.2 12.27 17.68 11.99C17.5503 11.8527 17.3873 11.7511 17.2069 11.6951C17.0265 11.6391 16.8347 11.6304 16.65 11.67C16.27 11.79 16.28 12.04 15.85 12.36C15.43 12.6 15.21 12.41 14.9 12.67C14.59 12.92 14.8 13.5 14.67 13.61C14.54 13.84 14.14 14.04 14.06 14.32C14 14.68 14.22 14.94 14.22 15.26C14.25 15.52 13.96 15.67 14 15.88C14.12 16.22 14.36 16.43 14.47 16.53C14.5 16.54 14.53 16.58 14.52 16.56Z" fill="#8CDBFF"/>
<path d="M18.95 13.54C18.9076 13.54 18.8669 13.5231 18.8369 13.4931C18.8069 13.4631 18.79 13.4224 18.79 13.38C18.79 13.29 18.86 13.22 18.95 13.22C19.04 13.22 19.11 13.29 19.11 13.38C19.11 13.47 19.04 13.54 18.95 13.54ZM14.62 16.8C14.22 14.9 15.44 13.32 17.8 14.1C19.19 14.91 20.93 14.86 21.01 14.33C21.21 13.7 20.13 12.41 18.52 12.07C15.32 11.45 13.6 14.9 14.62 16.8Z" fill="url(#paint0_radial_808_1367)"/>
<path d="M19.86 17.01C20.0989 17.039 20.3412 17.0185 20.5717 16.9497C20.8023 16.8809 21.0162 16.7652 21.2 16.61C20.6034 17.2775 19.7725 17.6894 18.88 17.76C19.31 18.13 19.73 18.29 20.13 18.22C19.02 18.53 18.09 18.19 16.97 17.07C16.91 17.37 17.23 17.84 17.56 18.14C15.64 17.31 15.47 14.73 17.8 14.09C15.39 12.93 14.02 15.19 14.69 17.04C15.0899 17.819 15.7202 18.4558 16.495 18.8638C17.2698 19.2718 18.1515 19.4311 19.02 19.32C19.6623 19.2352 20.2698 18.9786 20.7785 18.5773C21.2871 18.176 21.678 17.6449 21.91 17.04C21.4952 17.3887 21.0005 17.6292 20.47 17.74C21.55 17.2 22.13 16.28 21.97 15.03C21.7874 15.5087 21.4801 15.9299 21.08 16.25C21.87 15.03 21.73 14.39 21.15 13.7C21.57 14.84 21.03 16.1 19.86 17.01Z" fill="url(#paint1_radial_808_1367)"/>
<path d="M19.3001 18.32C19.2201 18.3 19.4901 18.43 18.9701 18.29C18.4501 18.15 17.9201 18.02 16.9601 17.06C16.9001 17.36 17.2201 17.83 17.5501 18.13C18.4401 18.75 17.8301 18.46 19.1901 18.93C19.3001 18.72 19.3001 18.53 19.3001 18.32Z" fill="url(#paint2_linear_808_1367)"/>
<path d="M17.58 13.45C17.58 13.45 17.7 13.28 17.74 13.2C17.8 13.1 17.88 12.93 17.88 12.93C17.88 12.93 16.97 12.63 16.75 12.6C16.06 12.78 16.06 13.07 16.44 13.51C16.49 13.56 17.58 13.45 17.58 13.45Z" fill="url(#paint3_linear_808_1367)"/>
</g>
<defs>
<radialGradient id="paint0_radial_808_1367" cx="0" cy="0" r="1" gradientUnits="userSpaceOnUse" gradientTransform="translate(19.605 13.81) scale(6.03385 4.3163)">
<stop stop-color="#57CAFF"/>
<stop offset="1" stop-color="#024B6C"/>
</radialGradient>
<radialGradient id="paint1_radial_808_1367" cx="0" cy="0" r="1" gradientUnits="userSpaceOnUse" gradientTransform="translate(19.66 13.95) scale(6.1075 4.62009)">
<stop stop-color="#8CDBFF"/>
<stop offset="0.29" stop-color="#00608C"/>
<stop offset="1" stop-color="#8CDBFF" stop-opacity="0.537255"/>
</radialGradient>
<linearGradient id="paint2_linear_808_1367" x1="17.3501" y1="17.09" x2="18.4351" y2="18.9" gradientUnits="userSpaceOnUse">
<stop stop-color="#8CDBFF"/>
<stop offset="0.67" stop-color="#56CAFF"/>
<stop offset="0.705295" stop-color="#DFCC9A" stop-opacity="0.823524"/>
<stop offset="0.726129" stop-color="#8EC6E0" stop-opacity="0.719357"/>
<stop offset="0.83" stop-color="#4BC7FF" stop-opacity="0.2"/>
<stop offset="1" stop-color="#8CDBFF" stop-opacity="0"/>
</linearGradient>
<linearGradient id="paint3_linear_808_1367" x1="17.265" y1="13.275" x2="17.11" y2="12.98" gradientUnits="userSpaceOnUse">
<stop stop-color="#8CDBFF" stop-opacity="0.15"/>
<stop offset="0.4" stop-color="#8CDBFF" stop-opacity="0.4"/>
<stop offset="0.65" stop-color="#5FCDFF" stop-opacity="0.89"/>
<stop offset="1" stop-color="#8CDBFF"/>
</linearGradient>
<clipPath id="clip0_808_1367">
<rect width="8" height="8" fill="white" transform="translate(14 11.5)"/>
</clipPath>
</defs>
</svg>
