<svg width="24" height="24" viewBox="0 0 24 24" fill="none" xmlns="http://www.w3.org/2000/svg">
<path fill-rule="evenodd" clip-rule="evenodd" d="M5 4C3.34315 4 2 5.34315 2 7V17C2 18.6569 3.34315 20 5 20H13V18H5C4.44772 18 4 17.5523 4 17V7C4 6.44772 4.44772 6 5 6H7.78388C8.01539 6 8.23973 6.08033 8.41862 6.22727L10.8119 8.19318C11.3486 8.63402 12.0216 8.875 12.7161 8.875H19C19.5523 8.875 20 9.32272 20 9.875V10H22V9.875C22 8.21815 20.6569 6.875 19 6.875H12.7161C12.4846 6.875 12.2603 6.79467 12.0814 6.64773L9.6881 4.68182C9.15142 4.24098 8.47841 4 7.78388 4H5Z" fill="#64748B"/>
<path d="M13 11C13 13.2089 14.734 15 16.8726 15H18.0345C15.8951 15 14.162 16.7911 14.162 19H14.9372C16.536 19 17.9088 17.9994 18.5 16.5712C19.0912 17.9994 20.464 19 22.0628 19H22.838C22.838 16.7911 21.105 15 18.9655 15H20.1274C22.266 15 24 13.2089 24 11H22.0628C20.464 11 19.0912 12.0006 18.5 13.4288C17.9088 12.0006 16.536 11 14.9372 11H13ZM18.5 13.4306C18.6994 13.9129 18.8097 14.4433 18.8097 15C18.8097 15.5567 18.6994 16.0872 18.5 16.5694C18.2944 16.0702 18.1893 15.5375 18.1902 15C18.1902 14.4432 18.3005 13.9128 18.5 13.4306Z" fill="#F472B6"/>
</svg>
