<svg width="24" height="24" viewBox="0 0 24 24" fill="none" xmlns="http://www.w3.org/2000/svg">
<path fill-rule="evenodd" clip-rule="evenodd" d="M5 4C3.34315 4 2 5.34315 2 7V17C2 18.6569 3.34315 20 5 20H12V18H5C4.44772 18 4 17.5523 4 17V7C4 6.44772 4.44772 6 5 6H7.78388C8.01539 6 8.23973 6.08033 8.41862 6.22727L10.8119 8.19318C11.3486 8.63402 12.0216 8.875 12.7161 8.875H19C19.5523 8.875 20 9.32272 20 9.875V10H22V9.875C22 8.21815 20.6569 6.875 19 6.875H12.7161C12.4846 6.875 12.2603 6.79467 12.0814 6.64773L9.6881 4.68182C9.15142 4.24098 8.47841 4 7.78388 4H5Z" fill="#64748B"/>
<path d="M17.1955 11L17.1441 11.052V12.922L17.1955 12.9748H17.8139L17.8654 12.922V11.052L17.8139 11H17.1955ZM15.3468 12.3197L14.9232 12.7477V12.834L15.5716 13.4891H16.0205L16.0807 13.4283V12.9748L15.4323 12.3197L15.3468 12.3197ZM13.0515 14.6353L13 14.6873V15.3127L13.0515 15.3647H15.5202L15.5717 15.3127V14.6873L15.5202 14.6353H13.0515ZM19.4798 14.6353L19.4283 14.6873V15.3127L19.4798 15.3647H21.9485L22 15.3127V14.6873L21.9485 14.6353H19.4798ZM15.5717 16.5109L14.9232 17.166V17.2516L15.3468 17.6803H15.4323L16.0808 17.0252V16.5709L16.0206 16.5109L15.5717 16.5109ZM17.1955 17.0252L17.1441 17.078V18.948L17.1955 19H17.8139L17.8654 18.948V17.078L17.8139 17.0252H17.1955Z" fill="#00BFA5"/>
<path d="M18.6568 16.2989H18.0397L17.9882 16.2468V14.7876C17.9882 14.528 17.8872 14.3267 17.5773 14.3197C17.4178 14.3155 17.2353 14.3197 17.0403 14.3274L17.011 14.3577V16.2461L16.9595 16.2982H16.3424L16.2909 16.2461V13.7534L16.3424 13.7013H17.7312C18.2709 13.7013 18.7083 14.1431 18.7083 14.6884V16.2469L18.6568 16.2989Z" fill="#CFD8DC"/>
</svg>
