<svg width="24" height="24" viewBox="0 0 24 24" fill="none" xmlns="http://www.w3.org/2000/svg">
<path fill-rule="evenodd" clip-rule="evenodd" d="M5 4C3.34315 4 2 5.34315 2 7V17C2 18.6569 3.34315 20 5 20H13V18H5C4.44772 18 4 17.5523 4 17V7C4 6.44772 4.44772 6 5 6H7.78388C8.01539 6 8.23973 6.08033 8.41862 6.22727L10.8119 8.19318C11.3486 8.63402 12.0216 8.875 12.7161 8.875H19C19.5523 8.875 20 9.32272 20 9.875V10H22V9.875C22 8.21815 20.6569 6.875 19 6.875H12.7161C12.4846 6.875 12.2603 6.79467 12.0814 6.64773L9.6881 4.68182C9.15142 4.24098 8.47841 4 7.78388 4H5Z" fill="#64748B"/>
<path fill-rule="evenodd" clip-rule="evenodd" d="M18.5154 16.1979L21 14.9365V12.4096L18.5154 13.6739" fill="#C5CAE9"/>
<path fill-rule="evenodd" clip-rule="evenodd" d="M15.757 12.4096L18.2423 13.6739V16.1979L15.7577 14.9354M13 13.5257L15.4846 14.7883V12.2632L13.0007 11M15.7583 17.7374L18.243 19V16.4748L15.7583 15.2117" fill="#C5CAE9"/>
</svg>
