<svg width="24" height="25" viewBox="0 0 24 25" fill="none" xmlns="http://www.w3.org/2000/svg">
<path fill-rule="evenodd" clip-rule="evenodd" d="M5 4.5C3.34315 4.5 2 5.84315 2 7.5V17.5C2 19.1569 3.34315 20.5 5 20.5H13V18.5H5C4.44772 18.5 4 18.0523 4 17.5V7.5C4 6.94772 4.44772 6.5 5 6.5H7.78388C8.01539 6.5 8.23973 6.58033 8.41862 6.72727L10.8119 8.69318C11.3486 9.13402 12.0216 9.375 12.7161 9.375H19C19.5523 9.375 20 9.82272 20 10.375V10.5H22V10.375C22 8.71815 20.6569 7.375 19 7.375H12.7161C12.4846 7.375 12.2603 7.29467 12.0814 7.14773L9.6881 5.18182C9.15142 4.74098 8.47841 4.5 7.78388 4.5H5Z" fill="#64748B"/>
<path fill-rule="evenodd" clip-rule="evenodd" d="M21.8001 12.4865L21.1826 11.7401C21.1194 11.6647 21.0403 11.604 20.951 11.5625C20.8617 11.521 20.7643 11.4997 20.6658 11.5H15.3335C15.2352 11.4992 15.138 11.5207 15.0493 11.563C14.9606 11.6054 14.8827 11.6674 14.8216 11.7443L14.2042 12.4865C14.0713 12.6461 13.999 12.8476 14 13.0554V18.6107C14 19.1001 14.3957 19.5 14.8885 19.5H21.1108C21.5994 19.5 22 19.1001 22 18.6114V13.0561C22 12.8378 21.924 12.6421 21.8001 12.4858V12.4865ZM17.9997 14.3882L20.4441 16.8329H18.8889V17.7221H17.1105V16.8329H15.5552L17.9997 14.3882ZM14.9427 12.3886L15.3067 11.945H20.6405L21.0538 12.3886H14.9427Z" fill="#89FF8D"/>
</svg>
