<svg width="24" height="24" viewBox="0 0 24 24" fill="none" xmlns="http://www.w3.org/2000/svg">
<path fill-rule="evenodd" clip-rule="evenodd" d="M5 4C3.34315 4 2 5.34315 2 7V17C2 18.6569 3.34315 20 5 20H13V18H5C4.44772 18 4 17.5523 4 17V7C4 6.44772 4.44772 6 5 6H7.78388C8.01539 6 8.23973 6.08033 8.41862 6.22727L10.8119 8.19318C11.3486 8.63402 12.0216 8.875 12.7161 8.875H19C19.5523 8.875 20 9.32272 20 9.875V10H22V9.875C22 8.21815 20.6569 6.875 19 6.875H12.7161C12.4846 6.875 12.2603 6.79467 12.0814 6.64773L9.6881 4.68182C9.15142 4.24098 8.47841 4 7.78388 4H5Z" fill="#64748B"/>
<path fill-rule="evenodd" clip-rule="evenodd" d="M19.677 15.4357L22 17.6716L20.6297 18.9837L18.3235 16.7479V16.3797L19.2972 15.4357H19.677ZM20.0527 14.4239L19.652 14.0401L17.6758 15.9593V16.7479L15.3527 19L14 17.6716L16.3062 15.4357H17.1189L17.4408 15.1237L15.8564 13.5838H15.3204L14.1609 12.4479L15.2416 11.4002L16.3971 12.5197V13.0439L18.0017 14.5799L19.0992 13.5159L18.7033 13.1118L19.2393 12.5876H18.1417L17.8737 12.3278L19.2393 11L19.512 11.2637V12.3278L20.0527 11.7997L21.4061 13.1118C21.8552 13.5518 21.8552 14.2672 21.4061 14.704L20.5927 13.8997L20.0527 14.4239Z" fill="#8CDBFF"/>
</svg>
