<svg width="24" height="25" viewBox="0 0 24 25" fill="none" xmlns="http://www.w3.org/2000/svg">
<path fill-rule="evenodd" clip-rule="evenodd" d="M5 4.5C3.34315 4.5 2 5.84315 2 7.5V17.5C2 19.1569 3.34315 20.5 5 20.5H13V18.5H5C4.44772 18.5 4 18.0523 4 17.5V7.5C4 6.94772 4.44772 6.5 5 6.5H7.78388C8.01539 6.5 8.23973 6.58033 8.41862 6.72727L10.8119 8.69318C11.3486 9.13402 12.0216 9.375 12.7161 9.375H19C19.5523 9.375 20 9.82272 20 10.375V10.5H22V10.375C22 8.71815 20.6569 7.375 19 7.375H12.7161C12.4846 7.375 12.2603 7.29467 12.0814 7.14773L9.6881 5.18182C9.15142 4.74098 8.47841 4.5 7.78388 4.5H5Z" fill="#64748B"/>
<path fill-rule="evenodd" clip-rule="evenodd" d="M17.748 15.0274C17.6296 15.3967 17.4787 15.7548 17.2969 16.0975C17.2086 16.2661 17.1236 16.4243 17.0772 16.5577L17.1256 16.5394C17.6066 16.3559 18.104 16.2184 18.6109 16.1289C18.5465 16.084 18.4843 16.036 18.4246 15.985C18.1625 15.7582 17.9304 15.4294 17.748 15.0274ZM20.6252 16.7218C20.5532 16.8081 20.4166 16.8545 20.2257 16.8545C19.8858 16.8545 19.3464 16.7531 18.8986 16.5263C18.1232 16.6067 17.5519 16.7126 17.1001 16.8597L17.0184 16.8911C16.466 17.8344 16.0574 18.2554 15.6965 18.2554C15.6286 18.2554 15.5616 18.2395 15.501 18.2089L15.2879 18.069L15.2774 18.0455C15.2432 17.9706 15.2349 17.8864 15.2539 17.8063C15.301 17.5709 15.5448 17.1996 16.0907 16.8649C16.175 16.8035 16.3064 16.7303 16.4862 16.6472C16.6176 16.4152 16.7602 16.1459 16.9092 15.8452C17.1367 15.3895 17.2779 14.9365 17.3923 14.5456L17.3904 14.5404C17.2269 14.0017 17.1289 13.6788 17.293 13.0891C17.342 12.9179 17.4793 12.7446 17.646 12.7446H17.7512C17.8558 12.7446 17.9493 12.7826 18.0212 12.8538C18.3141 13.1467 18.1801 13.8612 18.0311 14.4515L18.0154 14.5142C18.1906 15.0156 18.4416 15.4183 18.7247 15.6504C18.8384 15.7399 18.9666 15.8275 19.1078 15.9105C19.3105 15.8883 19.5046 15.8778 19.6851 15.8778C20.2362 15.8778 20.5676 15.9772 20.6971 16.1825C20.7443 16.2549 20.7638 16.3419 20.752 16.4276C20.7496 16.5384 20.7041 16.6439 20.6252 16.7218ZM21.1109 11.5H14.8891C14.6533 11.5 14.4272 11.5937 14.2604 11.7604C14.0937 11.9271 14 12.1532 14 12.389V18.611C14 19.1012 14.3975 19.5 14.8891 19.5H21.1109C21.6012 19.5 22 19.1012 22 18.611V12.389C22 11.8981 21.6012 11.5 21.1109 11.5ZM20.4506 16.408C20.4009 16.3609 20.2185 16.2498 19.5981 16.2498C19.5674 16.2498 19.5367 16.2498 19.4961 16.2942C19.8243 16.4368 20.1394 16.5217 20.3414 16.5217C20.3705 16.5217 20.3996 16.5195 20.4284 16.5152L20.4434 16.5126C20.465 16.506 20.4794 16.4989 20.4833 16.4551C20.4768 16.4439 20.4669 16.4269 20.4506 16.408ZM16.3686 17.0545C16.2948 17.0958 16.2242 17.1426 16.1574 17.1944C15.839 17.4827 15.6416 17.7742 15.6174 17.9462C15.8194 17.8769 16.0809 17.5853 16.3692 17.0545H16.3686ZM17.7088 13.9854L17.7336 13.969C17.7663 13.8252 17.7872 13.7017 17.8049 13.603L17.8179 13.5311C17.8611 13.2905 17.8558 13.1519 17.7748 13.044L17.7094 13.0218C17.7009 13.0349 17.6878 13.0538 17.6793 13.0741C17.6055 13.2585 17.6068 13.5847 17.7088 13.9854Z" fill="#FF7C7C"/>
</svg>
