<svg width="24" height="24" viewBox="0 0 24 24" fill="none" xmlns="http://www.w3.org/2000/svg">
<path fill-rule="evenodd" clip-rule="evenodd" d="M5 3C3.34315 3 2 4.34315 2 6V16C2 17.6569 3.34315 19 5 19H12V17H5C4.44772 17 4 16.5523 4 16V6C4 5.44772 4.44772 5 5 5H7.78388C8.01539 5 8.23973 5.08033 8.41862 5.22727L10.8119 7.19318C11.3486 7.63402 12.0216 7.875 12.7161 7.875H19C19.5523 7.875 20 8.32272 20 8.875V9H22V8.875C22 7.21815 20.6569 5.875 19 5.875H12.7161C12.4846 5.875 12.2603 5.79467 12.0814 5.64773L9.6881 3.68182C9.15142 3.24098 8.47841 3 7.78388 3H5Z" fill="#64748B"/>
<path d="M17.1379 16.0689V18H20.5C20.7761 18 21 17.7761 21 17.5V14.138H17.1379V16.0689ZM13 16.0689V17.5C13 17.7761 13.2239 18 13.5 18H16.862V14.138H13V16.0689ZM17.1379 11.931V13.862H21V10.5C21 10.2239 20.7761 10 20.5 10H17.1379V11.931ZM13 11.931V13.862H16.862V10H13.5C13.2239 10 13 10.2239 13 10.5V11.931Z" fill="#8CDBFF"/>
</svg>
