<svg width="24" height="25" viewBox="0 0 24 25" fill="none" xmlns="http://www.w3.org/2000/svg">
<path fill-rule="evenodd" clip-rule="evenodd" d="M5 4.5C3.34315 4.5 2 5.84315 2 7.5V17.5C2 19.1569 3.34315 20.5 5 20.5H13V18.5H5C4.44772 18.5 4 18.0523 4 17.5V7.5C4 6.94772 4.44772 6.5 5 6.5H7.78388C8.01539 6.5 8.23973 6.58033 8.41862 6.72727L10.8119 8.69318C11.3486 9.13402 12.0216 9.375 12.7161 9.375H19C19.5523 9.375 20 9.82272 20 10.375V10.5H22V10.375C22 8.71815 20.6569 7.375 19 7.375H12.7161C12.4846 7.375 12.2603 7.29467 12.0814 7.14773L9.6881 5.18182C9.15142 4.74098 8.47841 4.5 7.78388 4.5H5Z" fill="#64748B"/>
<path fill-rule="evenodd" clip-rule="evenodd" d="M18.5023 15.2696C18.6505 14.8305 18.6612 14.3599 18.5329 13.9228C18.4047 13.4856 18.1437 13.1033 17.7861 12.8288C17.327 12.4768 16.7427 12.3271 16.1614 12.4125C15.5801 12.4979 15.0494 12.8114 14.6856 13.2842C14.3225 13.7576 14.1564 14.3514 14.2238 14.9351C14.2912 15.5189 14.5866 16.0449 15.0452 16.3977C15.4028 16.6724 15.8395 16.8258 16.2951 16.8369C16.7507 16.8479 17.2026 16.7161 17.5886 16.4594L18.8429 17.4227L17.9291 18.6125L19.0829 19.4986L19.9967 18.3088L20.5736 18.7519L21.4873 17.562L18.5023 15.2696ZM15.9589 15.2079C15.6417 14.9643 15.5877 14.4971 15.8389 14.1699C16.0902 13.8428 16.5555 13.7744 16.8727 14.0181C17.1899 14.2617 17.244 14.7289 16.9927 15.056C16.7415 15.3832 16.2762 15.4515 15.9589 15.2079Z" fill="#8CDBFF"/>
</svg>
