<svg width="24" height="24" viewBox="0 0 24 24" fill="none" xmlns="http://www.w3.org/2000/svg">
<path fill-rule="evenodd" clip-rule="evenodd" d="M5 4C3.34315 4 2 5.34315 2 7V17C2 18.6569 3.34315 20 5 20H13V18H5C4.44772 18 4 17.5523 4 17V7C4 6.44772 4.44772 6 5 6H7.78388C8.01539 6 8.23973 6.08033 8.41862 6.22727L10.8119 8.19318C11.3486 8.63402 12.0216 8.875 12.7161 8.875H19C19.5523 8.875 20 9.32272 20 9.875V10H22V9.875C22 8.21815 20.6569 6.875 19 6.875H12.7161C12.4846 6.875 12.2603 6.79467 12.0814 6.64773L9.6881 4.68182C9.15142 4.24098 8.47841 4 7.78388 4H5Z" fill="#64748B"/>
<path fill-rule="evenodd" clip-rule="evenodd" d="M18.5 16.9932C18.142 16.9932 17.7986 16.8475 17.5455 16.5881C17.2923 16.3288 17.1501 15.977 17.1501 15.6102C17.1501 15.0936 17.4246 14.6422 17.8251 14.4068L22.1946 11.8158L19.7058 16.2325C19.593 16.4611 19.4207 16.6532 19.2078 16.7874C18.995 16.9217 18.75 16.9929 18.5 16.9932ZM18.5 11C19.284 11.0034 20.054 11.2129 20.7364 11.6084L19.7915 12.1662C19.3792 12.0044 18.9415 11.9217 18.5 11.9222C17.5453 11.9222 16.6296 12.3107 15.9545 13.0024C15.2794 13.694 14.9001 14.6321 14.9001 15.6102C14.8986 16.0942 14.9909 16.5737 15.1716 17.0208C15.3522 17.468 15.6178 17.874 15.9528 18.2152H15.9573C16.1325 18.3947 16.1325 18.6853 15.9573 18.8648C15.7821 19.0443 15.4939 19.0443 15.3187 18.8694C14.9002 18.442 14.5682 17.934 14.3419 17.3746C14.1156 16.8153 13.9994 16.2157 14 15.6102C14 14.3875 14.4741 13.2149 15.318 12.3503C16.1619 11.4857 17.3065 11 18.5 11ZM23 15.6102C23.0006 16.2157 22.8844 16.8153 22.6581 17.3746C22.4318 17.934 22.0998 18.442 21.6813 18.8694C21.5961 18.954 21.4819 19.0008 21.3633 19C21.2447 18.9991 21.1312 18.9506 21.0472 18.8648C21.0055 18.8222 20.9724 18.7715 20.9499 18.7158C20.9273 18.6601 20.9157 18.6003 20.9157 18.54C20.9157 18.4796 20.9273 18.4199 20.9499 18.3642C20.9724 18.3084 21.0055 18.2578 21.0472 18.2152C21.3819 17.8737 21.6472 17.4677 21.8278 17.0206C22.0085 16.5735 22.101 16.0941 22.0999 15.6102C22.0999 15.1488 22.0149 14.688 21.8572 14.2732L22.4016 13.3051C22.7748 13.9966 23 14.7712 23 15.6102Z" fill="#CFD8DC"/>
</svg>
