<svg width="24" height="24" viewBox="0 0 24 24" fill="none" xmlns="http://www.w3.org/2000/svg">
<path fill-rule="evenodd" clip-rule="evenodd" d="M5 4C3.34315 4 2 5.34315 2 7V17C2 18.6569 3.34315 20 5 20H11V18H5C4.44772 18 4 17.5523 4 17V7C4 6.44772 4.44772 6 5 6H7.78388C8.01539 6 8.23973 6.08033 8.41862 6.22727L10.8119 8.19318C11.3486 8.63402 12.0216 8.875 12.7161 8.875H19C19.5523 8.875 20 9.32272 20 9.875V10H22V9.875C22 8.21815 20.6569 6.875 19 6.875H12.7161C12.4846 6.875 12.2603 6.79467 12.0814 6.64773L9.6881 4.68182C9.15142 4.24098 8.47841 4 7.78388 4H5Z" fill="#64748B"/>
<path fill-rule="evenodd" clip-rule="evenodd" d="M20.3331 17.1245C20.7917 17.1245 21.1624 16.7314 21.1624 16.2498L21.1669 11.8747C21.1669 11.3892 20.7917 11 20.3331 11H13.6662C13.2038 11 12.8331 11.3892 12.8331 11.8747V16.2498C12.8331 16.7314 13.2038 17.1245 13.6662 17.1245H12V18H22V17.1245H20.3331ZM17.4158 15.5804V14.6228C16.2579 14.6228 15.4955 14.9938 14.9158 15.8125C15.1489 14.6441 15.7955 13.4804 17.4165 13.2444V12.3128L19.0827 13.9446L17.4158 15.5804Z" fill="#E676FA"/>
</svg>
