<svg width="24" height="25" viewBox="0 0 24 25" fill="none" xmlns="http://www.w3.org/2000/svg">
<path fill-rule="evenodd" clip-rule="evenodd" d="M5 4.5C3.34315 4.5 2 5.84315 2 7.5V17.5C2 19.1569 3.34315 20.5 5 20.5H13V18.5H5C4.44772 18.5 4 18.0523 4 17.5V7.5C4 6.94772 4.44772 6.5 5 6.5H7.78388C8.01539 6.5 8.23973 6.58033 8.41862 6.72727L10.8119 8.69318C11.3486 9.13402 12.0216 9.375 12.7161 9.375H19C19.5523 9.375 20 9.82272 20 10.375V10.5H22V10.375C22 8.71815 20.6569 7.375 19 7.375H12.7161C12.4846 7.375 12.2603 7.29467 12.0814 7.14773L9.6881 5.18182C9.15142 4.74098 8.47841 4.5 7.78388 4.5H5Z" fill="#64748B"/>
<path d="M16.7242 14.2704H15.6015C15.581 14.1358 15.5391 14.0162 15.4759 13.9116C15.4126 13.8054 15.3315 13.7151 15.2324 13.6407C15.1332 13.5662 15.0187 13.5092 14.8889 13.4696C14.7607 13.43 14.6214 13.4102 14.471 13.4102C14.1993 13.4102 13.9627 13.4728 13.761 13.5979C13.5594 13.7215 13.403 13.9021 13.2919 14.1397C13.1808 14.3758 13.1253 14.6625 13.1253 15C13.1253 15.347 13.1808 15.6385 13.2919 15.8745C13.4047 16.1106 13.5619 16.2888 13.7636 16.4092C13.9652 16.5296 14.1985 16.5898 14.4634 16.5898C14.612 16.5898 14.7496 16.5716 14.8761 16.5352C15.0042 16.4987 15.1179 16.4457 15.217 16.376C15.3161 16.3047 15.3981 16.2183 15.4631 16.1169C15.5297 16.0155 15.5758 15.8999 15.6015 15.77L16.7242 15.7747C16.6952 15.9981 16.6225 16.2136 16.5063 16.4211C16.3918 16.6271 16.2372 16.8116 16.0424 16.9748C15.8493 17.1364 15.6186 17.2647 15.3503 17.3598C15.0837 17.4533 14.7821 17.5 14.4454 17.5C13.9772 17.5 13.5585 17.4018 13.1894 17.2053C12.822 17.0089 12.5315 16.7245 12.3179 16.3522C12.106 15.9799 12 15.5292 12 15C12 14.4693 12.1077 14.0177 12.323 13.6454C12.5383 13.2731 12.8305 12.9895 13.1996 12.7947C13.5688 12.5982 13.984 12.5 14.4454 12.5C14.7496 12.5 15.0316 12.5396 15.2913 12.6188C15.5528 12.698 15.7843 12.8137 15.986 12.9658C16.1876 13.1163 16.3517 13.3009 16.4781 13.5195C16.6063 13.7381 16.6883 13.9884 16.7242 14.2704Z" fill="#2DD4BF"/>
<path d="M17.0682 12.5665H18.3114L19.5084 14.6625H19.5597L20.7568 12.5665H22L20.0852 15.7129V17.4335H18.983V15.7129L17.0682 12.5665Z" fill="#2DD4BF"/>
</svg>
