<svg width="24" height="25" viewBox="0 0 24 25" fill="none" xmlns="http://www.w3.org/2000/svg">
<path fill-rule="evenodd" clip-rule="evenodd" d="M5 4.5C3.34315 4.5 2 5.84315 2 7.5V17.5C2 19.1569 3.34315 20.5 5 20.5H10V18.5H5C4.44772 18.5 4 18.0523 4 17.5V7.5C4 6.94772 4.44772 6.5 5 6.5H7.78388C8.01539 6.5 8.23973 6.58033 8.41862 6.72727L10.8119 8.69318C11.3486 9.13402 12.0216 9.375 12.7161 9.375H19C19.5523 9.375 20 9.82272 20 10.375V10.5H22V10.375C22 8.71815 20.6569 7.375 19 7.375H12.7161C12.4846 7.375 12.2603 7.29467 12.0814 7.14773L9.6881 5.18182C9.15142 4.74098 8.47841 4.5 7.78388 4.5H5Z" fill="#64748B"/>
<path fill-rule="evenodd" clip-rule="evenodd" d="M13 12.7H20C20.4418 12.7 20.8 13.0582 20.8 13.5V17.5C20.8 17.9418 20.4418 18.3 20 18.3H13C12.5582 18.3 12.2 17.9418 12.2 17.5V13.5C12.2 13.0582 12.5582 12.7 13 12.7ZM11 13.5C11 12.3954 11.8954 11.5 13 11.5H20C21.1046 11.5 22 12.3954 22 13.5V17.5C22 18.6046 21.1046 19.5 20 19.5H13C11.8954 19.5 11 18.6046 11 17.5V13.5ZM15.125 16.8081V14.1923C15.125 13.9075 15.4604 13.7267 15.7353 13.8632L18.3677 15.171C18.6539 15.3132 18.6539 15.6869 18.3677 15.8291L15.7353 17.1372C15.4605 17.2738 15.125 17.0929 15.125 16.8081Z" fill="#CFD8DC"/>
</svg>
