<svg width="24" height="24" viewBox="0 0 24 24" fill="none" xmlns="http://www.w3.org/2000/svg">
<path fill-rule="evenodd" clip-rule="evenodd" d="M5 4C3.34315 4 2 5.34315 2 7V17C2 18.6569 3.34315 20 5 20H13V18H5C4.44772 18 4 17.5523 4 17V7C4 6.44772 4.44772 6 5 6H7.78388C8.01539 6 8.23973 6.08033 8.41862 6.22727L10.8119 8.19318C11.3486 8.63402 12.0216 8.875 12.7161 8.875H19C19.5523 8.875 20 9.32272 20 9.875V10H22V9.875C22 8.21815 20.6569 6.875 19 6.875H12.7161C12.4846 6.875 12.2603 6.79467 12.0814 6.64773L9.6881 4.68182C9.15142 4.24098 8.47841 4 7.78388 4H5Z" fill="#64748B"/>
<path fill-rule="evenodd" clip-rule="evenodd" d="M22 17.525C22.0002 17.6066 21.9784 17.6867 21.9369 17.7565C21.8953 17.8264 21.8356 17.8834 21.7643 17.9214L18.2528 19.9191C18.1824 19.973 18.0929 20 18 20C17.9071 20 17.8176 19.973 17.7472 19.9191L14.2357 17.9214C14.1644 17.8834 14.1047 17.8264 14.0631 17.7565C14.0216 17.6867 13.9998 17.6066 14 17.525V13.475C14 13.3041 14.0929 13.1554 14.2357 13.0786L17.7472 11.0809C17.8176 11.027 17.9064 11 18 11C18.0936 11 18.1824 11.027 18.2528 11.0809L21.7643 13.0786C21.8355 13.1167 21.8951 13.1737 21.9367 13.2436C21.9782 13.3134 22.0001 13.3934 22 13.475V17.525ZM18 11.9677L15.3506 13.475L18 14.9829L20.6487 13.475L18 11.967M14.8888 17.2594L17.5553 18.7805V15.7611L14.8888 14.2442V17.2594ZM21.1112 17.2601V14.2442L18.4441 15.7611V18.7805L21.1112 17.2601Z" fill="#C084FC"/>
</svg>
