<svg width="24" height="25" viewBox="0 0 24 25" fill="none" xmlns="http://www.w3.org/2000/svg">
<path fill-rule="evenodd" clip-rule="evenodd" d="M5 4.5C3.34315 4.5 2 5.84315 2 7.5V17.5C2 19.1569 3.34315 20.5 5 20.5H13V18.5H5C4.44772 18.5 4 18.0523 4 17.5V7.5C4 6.94772 4.44772 6.5 5 6.5H7.78388C8.01539 6.5 8.23973 6.58033 8.41862 6.72727L10.8119 8.69318C11.3486 9.13402 12.0216 9.375 12.7161 9.375H19C19.5523 9.375 20 9.82272 20 10.375V10.5H22V10.375C22 8.71815 20.6569 7.375 19 7.375H12.7161C12.4846 7.375 12.2603 7.29467 12.0814 7.14773L9.6881 5.18182C9.15142 4.74098 8.47841 4.5 7.78388 4.5H5Z" fill="#64748B"/>
<path fill-rule="evenodd" clip-rule="evenodd" d="M18.4708 11.5378C18.9069 11.7131 19.0794 12.4034 18.8516 13.0852C18.6257 13.7637 18.0926 14.1772 17.6539 14.0051C17.2197 13.835 17.044 13.1427 17.2686 12.459C17.4905 11.7785 18.0301 11.3696 18.4708 11.5378ZM20.9104 12.9536C21.2794 13.2546 21.1935 13.9272 20.7249 14.4651C20.2445 15.0003 19.5643 15.1953 19.1965 14.9002C18.8262 14.6025 18.916 13.9318 19.3905 13.3979C19.8644 12.8588 20.5446 12.6638 20.9104 12.9536ZM15.7389 12.0566C16.2245 12.1142 16.5786 12.726 16.5493 13.4182C16.4972 14.1111 16.0813 14.6286 15.599 14.573C15.1173 14.5174 14.7652 13.9102 14.8049 13.2154C14.8446 12.5205 15.269 12.003 15.7389 12.056M21.8815 15.6212C22.1621 16.0033 21.9284 16.6314 21.3497 17.0135C20.7704 17.3957 20.072 17.393 19.783 17.0005C19.494 16.6092 19.7322 15.9883 20.3031 15.5963C20.8843 15.2254 21.5886 15.2273 21.8815 15.6212ZM19.1874 18.9876C19.0162 19.318 18.5658 19.5326 18.1954 19.4959C17.4228 19.4227 17.0342 18.4196 16.3553 18.0257C15.6764 17.6312 14.5979 17.8151 14.1722 17.1608C13.9275 16.7944 13.9483 16.212 14.2048 15.8679C14.5601 15.3922 15.3289 15.472 15.9049 15.3085C16.6639 15.1037 17.527 14.3924 18.213 14.7916C18.8958 15.1868 18.7429 16.2919 18.918 17.0567C19.0566 17.6953 19.4849 18.415 19.1874 18.9876Z" fill="#CFD8DC"/>
</svg>
