<svg width="24" height="25" viewBox="0 0 24 25" fill="none" xmlns="http://www.w3.org/2000/svg">
<path fill-rule="evenodd" clip-rule="evenodd" d="M5 4.5C3.34315 4.5 2 5.84315 2 7.5V17.5C2 19.1569 3.34315 20.5 5 20.5H13V18.5H5C4.44772 18.5 4 18.0523 4 17.5V7.5C4 6.94772 4.44772 6.5 5 6.5H7.78388C8.01539 6.5 8.23973 6.58033 8.41862 6.72727L10.8119 8.69318C11.3486 9.13402 12.0216 9.375 12.7161 9.375H19C19.5523 9.375 20 9.82272 20 10.375V10.5H22V10.375C22 8.71815 20.6569 7.375 19 7.375H12.7161C12.4846 7.375 12.2603 7.29467 12.0814 7.14773L9.6881 5.18182C9.15142 4.74098 8.47841 4.5 7.78388 4.5H5Z" fill="#64748B"/>
<path fill-rule="evenodd" clip-rule="evenodd" d="M20.9069 15.9149C20.9593 15.8657 20.9884 15.7981 20.9942 15.7182C21 15.5583 20.8894 15.4292 20.738 15.4169C20.6681 15.4107 20.5983 15.4415 20.5459 15.4845L15.6666 18.3069C15.556 18.3561 15.457 18.4421 15.393 18.559C15.2241 18.8541 15.3173 19.2354 15.6026 19.4137C15.8005 19.5367 16.0393 19.5244 16.2256 19.4014C16.2372 19.3891 16.2547 19.3829 16.2663 19.3706L20.8079 16.001C20.8312 15.9826 20.8952 15.9334 20.9069 15.9149Z" fill="url(#paint0_linear_808_1121)"/>
<path fill-rule="evenodd" clip-rule="evenodd" d="M20.9184 15.503L17.2037 11.6537C17.1222 11.5615 17.0057 11.5 16.8718 11.5C16.6214 11.5 16.4235 11.7152 16.4235 11.9735C16.4235 12.1026 16.47 12.2133 16.5457 12.2994C16.569 12.324 16.5923 12.3424 16.6156 12.3609L20.54 15.9088C20.5866 15.9518 20.6448 15.9826 20.7147 15.9887C20.866 15.9949 20.9883 15.878 21 15.7182C21 15.6382 20.9708 15.5583 20.9184 15.503Z" fill="url(#paint1_linear_808_1121)"/>
<path fill-rule="evenodd" clip-rule="evenodd" d="M17.3261 15.1586C17.3203 15.1586 15.032 13.2525 14.9854 13.2217L14.8806 13.1664C14.5429 13.0311 14.1703 13.2156 14.0422 13.5722C13.9316 13.8858 14.0538 14.2302 14.31 14.3962C14.3508 14.4208 14.3857 14.4392 14.4265 14.4515C14.4498 14.4638 17.0699 15.6075 17.0699 15.6075C17.1747 15.6567 17.297 15.626 17.3668 15.5337C17.4542 15.4169 17.4367 15.2509 17.3261 15.1586Z" fill="url(#paint2_linear_808_1121)"/>
<path fill-rule="evenodd" clip-rule="evenodd" d="M16.8718 11.5C16.7728 11.5 16.6797 11.5369 16.604 11.5922L14.2866 13.2402C14.2808 13.2463 14.275 13.2463 14.275 13.2524H14.2692C14.1702 13.3262 14.0887 13.4369 14.0421 13.566C13.914 13.9227 14.0887 14.3224 14.4264 14.4515C14.636 14.5376 14.863 14.4945 15.0319 14.3654C15.0727 14.3347 15.1076 14.3039 15.1367 14.267L17.1513 12.3486C17.2561 12.2625 17.326 12.1272 17.326 11.9735C17.326 11.7152 17.1222 11.5 16.8718 11.5Z" fill="url(#paint3_linear_808_1121)"/>
<defs>
<linearGradient id="paint0_linear_808_1121" x1="15.8553" y1="18.9131" x2="20.5497" y2="16.2302" gradientUnits="userSpaceOnUse">
<stop stop-color="#FDD835"/>
<stop offset="1" stop-color="#F57C00"/>
</linearGradient>
<linearGradient id="paint1_linear_808_1121" x1="16.8171" y1="11.9248" x2="21.1793" y2="15.5409" gradientUnits="userSpaceOnUse">
<stop stop-color="#EF5350"/>
<stop offset="0.57" stop-color="#FF6E40"/>
<stop offset="1" stop-color="#F57C00"/>
</linearGradient>
<linearGradient id="paint2_linear_808_1121" x1="17.0843" y1="15.4133" x2="14.5413" y2="13.9094" gradientUnits="userSpaceOnUse">
<stop stop-color="#8E24AA"/>
<stop offset="0.385" stop-color="#AB47BC"/>
<stop offset="0.765" stop-color="#EC407A"/>
<stop offset="0.957" stop-color="#EC407A"/>
</linearGradient>
<linearGradient id="paint3_linear_808_1121" x1="17.0392" y1="11.7276" x2="14.523" y2="13.6954" gradientUnits="userSpaceOnUse">
<stop stop-color="#EF5350"/>
<stop offset="0.364" stop-color="#EE4E72"/>
<stop offset="1" stop-color="#EC407A"/>
</linearGradient>
</defs>
</svg>
