<svg width="24" height="25" viewBox="0 0 24 25" fill="none" xmlns="http://www.w3.org/2000/svg">
<path fill-rule="evenodd" clip-rule="evenodd" d="M5 4.5C3.34315 4.5 2 5.84315 2 7.5V17.5C2 19.1569 3.34315 20.5 5 20.5H13V18.5H5C4.44772 18.5 4 18.0523 4 17.5V7.5C4 6.94772 4.44772 6.5 5 6.5H7.78388C8.01539 6.5 8.23973 6.58033 8.41862 6.72727L10.8119 8.69318C11.3486 9.13402 12.0216 9.375 12.7161 9.375H19C19.5523 9.375 20 9.82272 20 10.375V10.5H22V10.375C22 8.71815 20.6569 7.375 19 7.375H12.7161C12.4846 7.375 12.2603 7.29467 12.0814 7.14773L9.6881 5.18182C9.15142 4.74098 8.47841 4.5 7.78388 4.5H5Z" fill="#64748B"/>
<path d="M21.9998 15.5C21.9998 17.6944 20.1941 19.5 17.9999 19.5C15.8057 19.5 14 17.6943 14 15.5C14 13.3057 15.8057 11.5 17.9999 11.5H18.0001C20.1943 11.5 22 13.3056 22 15.5V15.5002" fill="#71717A"/>
<path d="M18.0697 13.4734L19.1405 16.3736L17.5232 14.9755L18.0697 13.4734ZM19.9718 17.0417L18.3249 12.692C18.3058 12.6348 18.271 12.5856 18.2253 12.5512C18.1795 12.5168 18.1251 12.4989 18.0697 12.5001C18.0134 12.4987 17.958 12.5164 17.9111 12.5508C17.8643 12.5851 17.8281 12.6344 17.8076 12.692L16 17.4631H16.6184L17.3339 15.4958L19.4692 17.3892C19.5552 17.4654 19.6171 17.4999 19.6977 17.4999L19.7046 17.5C19.8666 17.5 20 17.3536 20 17.1758V17.1755C19.9972 17.1295 19.9877 17.0844 19.9718 17.0417Z" fill="white"/>
</svg>
