<svg width="24" height="25" viewBox="0 0 24 25" fill="none" xmlns="http://www.w3.org/2000/svg">
<path fill-rule="evenodd" clip-rule="evenodd" d="M5 4.5C3.34315 4.5 2 5.84315 2 7.5V17.5C2 19.1569 3.34315 20.5 5 20.5H13V18.5H5C4.44772 18.5 4 18.0523 4 17.5V7.5C4 6.94772 4.44772 6.5 5 6.5H7.78388C8.01539 6.5 8.23973 6.58033 8.41862 6.72727L10.8119 8.69318C11.3486 9.13402 12.0216 9.375 12.7161 9.375H19C19.5523 9.375 20 9.82272 20 10.375V10.5H22V10.375C22 8.71815 20.6569 7.375 19 7.375H12.7161C12.4846 7.375 12.2603 7.29467 12.0814 7.14773L9.6881 5.18182C9.15142 4.74098 8.47841 4.5 7.78388 4.5H5Z" fill="#64748B"/>
<path d="M22.8092 15.8959C22.2949 15.39 19.7228 15.0741 18.9113 14.9822C18.9508 14.8863 18.9844 14.7879 19.0117 14.6876C19.1223 14.638 19.2418 14.5919 19.3652 14.5533C19.3803 14.5988 19.4511 14.7729 19.4915 14.8555C21.1234 14.9016 21.2072 13.614 21.2736 13.2613C21.3385 12.9163 21.3352 12.5831 21.8949 11.9738C21.061 11.725 19.8618 12.3594 19.46 13.3036C19.3091 13.2457 19.1578 13.203 19.0082 13.1765C18.9009 12.7337 18.3426 11.5 16.8773 11.5C15.0221 11.5 13 13.0668 13 15.7192C13 17.9488 14.4869 19.9027 15.3269 19.9027C15.6938 19.9027 16.0093 19.6214 16.0834 19.3693C16.1455 19.5422 16.3361 20.0796 16.3987 20.2164C16.4912 20.4187 16.9191 20.5938 17.1063 20.3838C17.347 20.5207 17.7888 20.6032 18.0295 20.2381C18.4932 20.3385 18.9031 20.0555 18.9121 19.7177C19.1396 19.7053 19.2512 19.3782 19.2015 19.1178C19.1649 18.926 18.7736 18.238 18.621 18.0005C18.9231 18.252 19.6883 18.3233 19.7812 18.0007C20.2683 18.392 21.0273 18.1866 21.0875 17.8683C21.6793 18.0257 22.3581 17.68 22.2466 17.2613C23.1973 17.194 23.0756 16.1584 22.8089 15.896L22.8092 15.8959Z" fill="black"/>
<path d="M19.9755 13.7523C20.305 13.4016 20.7191 13.0187 21.2422 12.7819C20.6665 12.9063 20.0981 13.2783 19.762 13.6758C19.5942 13.6185 19.4204 13.5664 19.2415 13.5198C19.7103 12.9832 20.7996 12.535 22 12.5C21.196 12.8911 21.4813 13.7039 20.8203 14.1342C20.6311 14.0323 20.1967 13.8357 19.9755 13.7523ZM19.4557 14.3233C19.4561 14.3098 19.4654 14.2064 19.483 14.1591C19.4369 14.1533 19.1503 14.1232 19.0009 14.1251C18.99 14.2257 19.0798 14.3969 19.1684 14.5C19.7793 14.4931 20.2205 14.395 20.4801 14.3048C20.2591 14.2496 19.8818 14.2004 19.595 14.1711C19.5629 14.2066 19.4842 14.2971 19.4557 14.3233Z" fill="#60A5FA"/>
<path d="M18.4299 17.4859C18.43 17.4864 18.4303 17.4871 18.4303 17.4877C18.3821 17.3846 18.3308 17.2594 18.2697 17.0958C18.5079 17.4401 19.2546 17.2625 19.2154 16.954C19.5808 17.227 20.3331 16.9085 20.1621 16.5257C20.5282 16.6951 20.946 16.3543 20.8523 16.2058C21.4765 16.3253 22.0746 16.4445 22.2623 16.4922C22.1376 16.6941 21.8535 16.8366 21.4253 16.7376C21.6567 17.0505 21.2075 17.4259 20.5818 17.2191C20.7195 17.5264 20.1624 17.8029 19.5292 17.4827C19.5372 17.7901 18.7437 17.8255 18.4299 17.4859V17.4859ZM19.668 15.9325C20.3924 15.9877 21.5903 16.0949 22.332 16.198C22.2851 15.9583 22.1571 15.8899 21.7546 15.7825C21.3216 15.8284 20.223 15.9355 19.668 15.9325L19.668 15.9325Z" fill="#14B8A6"/>
<path d="M19.2155 16.9541C19.581 17.2271 20.3332 16.9086 20.1622 16.5258C20.5283 16.6952 20.9461 16.3544 20.8524 16.2059C20.1145 16.0647 19.3402 15.9229 19.1646 15.8981C19.2711 15.9038 19.4477 15.9158 19.6681 15.9326C20.2232 15.9356 21.3217 15.8285 21.7546 15.7826C21.0536 15.6062 19.6222 15.3486 18.6337 15.2852C18.5879 15.3516 18.5037 15.4643 18.357 15.5841C17.9245 16.4927 17.1409 17.0965 16.2738 17.0965C16.0212 17.0965 15.7385 17.0542 15.4216 16.9537C15.224 17.1638 14.3815 17.3231 13.6979 16.99C14.2401 18.2505 15.4976 19.092 16.8897 19.092C18.062 19.092 18.5818 17.9035 18.4681 17.589C18.4405 17.5127 18.3311 17.2595 18.2699 17.0959C18.5081 17.4402 19.2548 17.2626 19.2157 16.9541L19.2155 16.9541Z" fill="#F59E0B"/>
<path d="M18.5051 14.5621C18.6087 14.5062 18.9663 14.2909 19.3072 14.21C19.3018 14.1724 19.2978 14.1346 19.2952 14.0967C19.0716 14.1499 18.65 14.3293 18.4084 14.0821C18.9181 14.2348 19.1726 13.946 19.5473 13.946C19.7705 13.946 20.089 14.0079 20.3401 14.1058C20.1382 13.9206 19.4759 13.3615 18.6559 13.3596C18.4728 13.58 18.2749 14.0573 18.5051 14.5621L18.5051 14.5621Z" fill="#CECECE"/>
<path d="M15.4216 16.9535C15.7385 17.054 16.0212 17.0964 16.2739 17.0964C17.1409 17.0964 17.9245 16.4924 18.357 15.584C18.0371 15.849 17.4812 16.0759 16.613 16.0759C17.3863 15.9018 18.0521 15.5192 18.3907 14.9599C18.1527 14.5837 17.8945 13.7515 18.5483 13.0936C18.4477 12.7728 17.9582 11.9259 16.8744 11.9259C14.983 11.9259 13.4155 13.4972 13.4155 15.6029C13.4155 16.1014 13.5169 16.5689 13.698 16.9897C14.3815 17.3228 15.224 17.1636 15.4216 16.9534L15.4216 16.9535Z" fill="#F87171"/>
<path d="M15.9889 13.7473C15.9889 14.2262 16.38 14.6146 16.8625 14.6146C17.3449 14.6146 17.7361 14.2262 17.7361 13.7473C17.7361 13.2683 17.3449 12.8799 16.8625 12.8799C16.38 12.8799 15.9889 13.2683 15.9889 13.7473Z" fill="#F59E0B"/>
<path d="M16.3396 13.7472C16.3396 14.0339 16.5738 14.2664 16.8626 14.2664C17.1515 14.2664 17.3856 14.0339 17.3856 13.7472C17.3856 13.4604 17.1515 13.2279 16.8626 13.2279C16.5738 13.2279 16.3396 13.4604 16.3396 13.7472Z" fill="#010101"/>
<path d="M16.8625 13.705C17.0308 13.705 17.1673 13.6208 17.1673 13.5169C17.1673 13.413 17.0308 13.3287 16.8625 13.3287C16.6942 13.3287 16.5577 13.413 16.5577 13.5169C16.5577 13.6208 16.6942 13.705 16.8625 13.705Z" fill="white"/>
</svg>
