<svg width="24" height="25" viewBox="0 0 24 25" fill="none" xmlns="http://www.w3.org/2000/svg">
<path fill-rule="evenodd" clip-rule="evenodd" d="M5 4.5C3.34315 4.5 2 5.84315 2 7.5V17.5C2 19.1569 3.34315 20.5 5 20.5H10V18.5H5C4.44772 18.5 4 18.0523 4 17.5V7.5C4 6.94772 4.44772 6.5 5 6.5H7.78388C8.01539 6.5 8.23973 6.58033 8.41862 6.72727L10.8119 8.69318C11.3486 9.13402 12.0216 9.375 12.7161 9.375H19C19.5523 9.375 20 9.82272 20 10.375V10.5H22V10.375C22 8.71815 20.6569 7.375 19 7.375H12.7161C12.4846 7.375 12.2603 7.29467 12.0814 7.14773L9.6881 5.18182C9.15142 4.74098 8.47841 4.5 7.78388 4.5H5Z" fill="#64748B"/>
<path fill-rule="evenodd" clip-rule="evenodd" d="M17.21 12.4273C17.0789 12.4165 16.9468 12.4295 16.8213 12.4656C16.6957 12.5017 16.5791 12.5602 16.4783 12.6377C16.3774 12.7152 16.2943 12.8102 16.2336 12.9172C16.1729 13.0243 16.1359 13.1412 16.1247 13.2614L16.0005 14.5866H17.4103V15.5032H15.9096L15.6899 17.8268C15.6525 18.2096 15.4848 18.572 15.2106 18.8627C14.9363 19.1534 14.5694 19.3578 14.1616 19.4469C13.7538 19.5361 13.3257 19.5056 12.9379 19.3597C12.55 19.2139 12.2219 18.9599 12 18.6339L12.7499 17.9464C12.7891 18.0609 12.8525 18.1672 12.9366 18.2592C13.0206 18.3512 13.1237 18.427 13.2399 18.4824C13.356 18.5377 13.4829 18.5715 13.6134 18.5817C13.7438 18.592 13.8751 18.5785 13.9998 18.5421C14.3896 18.4318 14.6652 18.1151 14.7001 17.745L14.9097 15.5032H13.4098V14.5866H14.9998L15.1349 13.1789C15.1809 12.6942 15.4346 12.246 15.8405 11.9325C16.2463 11.619 16.7712 11.4658 17.3001 11.5064C17.9297 11.5562 18.5003 11.8772 18.8294 12.3725L18.0803 13.06C18.0195 12.8876 17.9044 12.7355 17.7496 12.6229C17.5947 12.5104 17.407 12.4423 17.21 12.4273ZM22 16.259L21.2951 15.6128L19.8798 16.9102L18.4653 15.6128L17.7503 16.259L19.1749 17.5657L17.7503 18.8538L18.4646 19.5L19.8798 18.2026L21.2951 19.5L22 18.8538L20.5847 17.5657L22 16.259Z" fill="#8CDBFF"/>
</svg>
