<svg width="24" height="24" viewBox="0 0 24 24" fill="none" xmlns="http://www.w3.org/2000/svg">
<path fill-rule="evenodd" clip-rule="evenodd" d="M5 4C3.34315 4 2 5.34315 2 7V17C2 18.6569 3.34315 20 5 20H11V18H5C4.44772 18 4 17.5523 4 17V7C4 6.44772 4.44772 6 5 6H7.78388C8.01539 6 8.23973 6.08033 8.41862 6.22727L10.8119 8.19318C11.3486 8.63402 12.0216 8.875 12.7161 8.875H19C19.5523 8.875 20 9.32272 20 9.875V10H22V9.875C22 8.21815 20.6569 6.875 19 6.875H12.7161C12.4846 6.875 12.2603 6.79467 12.0814 6.64773L9.6881 4.68182C9.15142 4.24098 8.47841 4 7.78388 4H5Z" fill="#64748B"/>
<path d="M17.4605 11V11.0072H20V11H17.4605ZM12 11.0216L15.6042 19H16.7812L19.0333 14.0134H17.0206L16.194 15.8451L14.0139 11.0208L12 11.0216ZM18.4188 13.0207L19.453 13.0264L19.4556 13.0207H18.4188Z" fill="#8CDBFF"/>
<path d="M18.2214 11V11.4573H18.9931L18.8661 11.7461H17.6036V12.2013H18.663L18.5123 12.5448H17V13H20.1367L21 11.0071H20.6593V11H18.2214Z" fill="#FF707E"/>
</svg>
