<svg width="24" height="25" viewBox="0 0 24 25" fill="none" xmlns="http://www.w3.org/2000/svg">
<path fill-rule="evenodd" clip-rule="evenodd" d="M5 4.5C3.34315 4.5 2 5.84315 2 7.5V17.5C2 19.1569 3.34315 20.5 5 20.5H13V18.5H5C4.44772 18.5 4 18.0523 4 17.5V7.5C4 6.94772 4.44772 6.5 5 6.5H7.78388C8.01539 6.5 8.23973 6.58033 8.41862 6.72727L10.8119 8.69318C11.3486 9.13402 12.0216 9.375 12.7161 9.375H19C19.5523 9.375 20 9.82272 20 10.375V10.5H22V10.375C22 8.71815 20.6569 7.375 19 7.375H12.7161C12.4846 7.375 12.2603 7.29467 12.0814 7.14773L9.6881 5.18182C9.15142 4.74098 8.47841 4.5 7.78388 4.5H5Z" fill="#64748B"/>
<path fill-rule="evenodd" clip-rule="evenodd" d="M14.909 17.7586C14.8072 16.8309 14.7098 15.9028 14.6165 14.9744C14.6173 14.9511 14.479 14.9323 14.309 14.9323H14V13.852H16.4123V11.7567L17.5505 11.1287C18.2437 10.7454 18.7535 10.5 18.8547 10.5C19.0974 10.5 19.3811 10.7831 19.3811 11.0249C19.3811 11.1302 19.3463 11.2601 19.3036 11.3139C19.2618 11.3669 18.865 11.6093 18.4223 11.8533L17.6185 12.2961L17.6011 13.0737L17.5837 13.852H20V14.9315H19.404L19.1037 17.7158L18.8017 20.5H15.2038L14.909 17.7586Z" fill="#FF7C7C"/>
</svg>
