<svg width="24" height="24" viewBox="0 0 24 24" fill="none" xmlns="http://www.w3.org/2000/svg">
<path fill-rule="evenodd" clip-rule="evenodd" d="M5 4C3.34315 4 2 5.34315 2 7V17C2 18.6569 3.34315 20 5 20H14V18H5C4.44772 18 4 17.5523 4 17V7C4 6.44772 4.44772 6 5 6H7.78388C8.01539 6 8.23973 6.08033 8.41862 6.22727L10.8119 8.19318C11.3486 8.63402 12.0216 8.875 12.7161 8.875H19C19.5523 8.875 20 9.32272 20 9.875V10H22V9.875C22 8.21815 20.6569 6.875 19 6.875H12.7161C12.4846 6.875 12.2603 6.79467 12.0814 6.64773L9.6881 4.68182C9.15142 4.24098 8.47841 4 7.78388 4H5Z" fill="#64748B"/>
<path fill-rule="evenodd" clip-rule="evenodd" d="M19 17.0951C19.0985 17.0951 19.1961 17.0754 19.2871 17.0371C19.3782 16.9988 19.4609 16.9426 19.5306 16.8719C19.6002 16.8011 19.6555 16.7171 19.6932 16.6246C19.7309 16.5321 19.7503 16.433 19.7503 16.3329C19.7503 15.9104 19.4128 15.5713 19 15.5713C18.9015 15.5713 18.8039 15.5911 18.7129 15.6294C18.6218 15.6677 18.5391 15.7238 18.4694 15.7946C18.3998 15.8654 18.3445 15.9494 18.3068 16.0419C18.2691 16.1343 18.2497 16.2335 18.2497 16.3335C18.2499 16.5356 18.329 16.7293 18.4697 16.8721C18.6104 17.0149 18.8011 17.0951 19 17.0951ZM21.2503 13.6665C21.4492 13.6666 21.6399 13.747 21.7805 13.8899C21.921 14.0328 22 14.2266 22 14.4287V18.2378C22 18.3379 21.9806 18.437 21.9429 18.5295C21.9052 18.622 21.8499 18.706 21.7802 18.7768C21.7106 18.8475 21.6279 18.9037 21.5368 18.942C21.4458 18.9803 21.3482 19 21.2497 19H16.7497C16.5508 18.9998 16.3601 18.9195 16.2195 18.7765C16.079 18.6336 16 18.4398 16 18.2378V14.4287C16 14.0055 16.3375 13.6665 16.7497 13.6665H17.1248V12.9055C17.1248 12.6553 17.1732 12.4075 17.2674 12.1764C17.3616 11.9452 17.4997 11.7351 17.6738 11.5582C17.848 11.3812 18.0547 11.2408 18.2823 11.1451C18.5098 11.0493 18.7537 11 19 11C19.2463 11 19.4902 11.0493 19.7177 11.1451C19.9453 11.2408 20.152 11.3812 20.3262 11.5582C20.5003 11.7351 20.6384 11.9452 20.7326 12.1764C20.8268 12.4075 20.8752 12.6553 20.8752 12.9055V13.6671H21.2503M19 11.7622C18.8522 11.7622 18.7059 11.7918 18.5694 11.8493C18.4329 11.9067 18.3089 11.9909 18.2044 12.0971C18.0999 12.2033 18.0171 12.3293 17.9606 12.468C17.9041 12.6068 17.8751 12.7554 17.8752 12.9055V13.6671H20.1248V12.9055C20.1249 12.7554 20.0959 12.6068 20.0394 12.468C19.9829 12.3293 19.9001 12.2033 19.7956 12.0971C19.6911 11.9909 19.5671 11.9067 19.4306 11.8493C19.2941 11.7918 19.1478 11.7622 19 11.7622Z" fill="#FFCE50"/>
</svg>
