<svg width="24" height="24" viewBox="0 0 24 24" fill="none" xmlns="http://www.w3.org/2000/svg">
<path fill-rule="evenodd" clip-rule="evenodd" d="M5 4C3.34315 4 2 5.34315 2 7V17C2 18.6569 3.34315 20 5 20H13V18H5C4.44772 18 4 17.5523 4 17V7C4 6.44772 4.44772 6 5 6H7.78388C8.01539 6 8.23973 6.08033 8.41862 6.22727L10.8119 8.19318C11.3486 8.63402 12.0216 8.875 12.7161 8.875H19C19.5523 8.875 20 9.32272 20 9.875V10H22V9.875C22 8.21815 20.6569 6.875 19 6.875H12.7161C12.4846 6.875 12.2603 6.79467 12.0814 6.64773L9.6881 4.68182C9.15142 4.24098 8.47841 4 7.78388 4H5Z" fill="#64748B"/>
<path fill-rule="evenodd" clip-rule="evenodd" d="M13.0537 11C14.8099 11.2545 16.3154 11.381 17.5702 11.3793C18.8044 11.3777 20.281 11.2513 22 11V12.3904C20.281 12.6416 18.8044 12.7681 17.5702 12.7697C16.3154 12.7708 14.8099 12.6443 13.0537 12.3904V11Z" fill="#7D7D7D"/>
<path fill-rule="evenodd" clip-rule="evenodd" d="M15.097 12.1186L14.4949 19L15.8065 18.9935L15.9999 12.523L15.097 12.1186ZM19.8069 12.1121L20.3926 18.9871H19.0967L18.9033 12.5165L19.8069 12.1121Z" fill="#7D7D7D"/>
<path fill-rule="evenodd" clip-rule="evenodd" d="M13 13.8689H21.9463V14.6777H13V13.8689Z" fill="#7D7D7D"/>
<path fill-rule="evenodd" clip-rule="evenodd" d="M17.129 12.1121H17.8172V14.0331H17.129V12.1121Z" fill="#7D7D7D"/>
</svg>
