<svg width="24" height="25" viewBox="0 0 24 25" fill="none" xmlns="http://www.w3.org/2000/svg">
<path fill-rule="evenodd" clip-rule="evenodd" d="M5 4.5C3.34315 4.5 2 5.84315 2 7.5V17.5C2 19.1569 3.34315 20.5 5 20.5H13V18.5H5C4.44772 18.5 4 18.0523 4 17.5V7.5C4 6.94772 4.44772 6.5 5 6.5H7.78388C8.01539 6.5 8.23973 6.58033 8.41862 6.72727L10.8119 8.69318C11.3486 9.13402 12.0216 9.375 12.7161 9.375H19C19.5523 9.375 20 9.82272 20 10.375V10.5H22V10.375C22 8.71815 20.6569 7.375 19 7.375H12.7161C12.4846 7.375 12.2603 7.29467 12.0814 7.14773L9.6881 5.18182C9.15142 4.74098 8.47841 4.5 7.78388 4.5H5Z" fill="#64748B"/>
<path fill-rule="evenodd" clip-rule="evenodd" d="M16 12.5C15.4477 12.5 15 12.9477 15 13.5V15.0556C15 15.6078 15.4477 16.0556 16 16.0556H17.5556C18.1078 16.0556 18.5556 15.6078 18.5556 15.0556V13.5C18.5556 12.9477 18.1078 12.5 17.5556 12.5H16ZM16 16.9444C15.4477 16.9444 15 17.3922 15 17.9444V19.5C15 20.0523 15.4477 20.5 16 20.5H17.5556C18.1078 20.5 18.5556 20.0523 18.5556 19.5V17.9444C18.5556 17.3922 18.1078 16.9444 17.5556 16.9444H16ZM19.4444 13.5C19.4444 12.9477 19.8922 12.5 20.4444 12.5H22C22.5523 12.5 23 12.9477 23 13.5V15.0556C23 15.6078 22.5523 16.0556 22 16.0556H20.4444C19.8922 16.0556 19.4444 15.6078 19.4444 15.0556V13.5ZM20.4444 16.9444C19.8922 16.9444 19.4444 17.3922 19.4444 17.9444V19.5C19.4444 20.0523 19.8922 20.5 20.4444 20.5H22C22.5523 20.5 23 20.0523 23 19.5V17.9444C23 17.3922 22.5523 16.9444 22 16.9444H20.4444Z" fill="#F87171"/>
</svg>
