<svg width="24" height="25" viewBox="0 0 24 25" fill="none" xmlns="http://www.w3.org/2000/svg">
<path fill-rule="evenodd" clip-rule="evenodd" d="M5 4.5C3.34315 4.5 2 5.84315 2 7.5V17.5C2 19.1569 3.34315 20.5 5 20.5H10.4484V18.5H5C4.44772 18.5 4 18.0523 4 17.5V7.5C4 6.94772 4.44772 6.5 5 6.5H7.78388C8.01539 6.5 8.23973 6.58033 8.41862 6.72727L10.8119 8.69318C11.3486 9.13402 12.0216 9.375 12.7161 9.375H19C19.5523 9.375 20 9.82272 20 10.375V10.5H22V10.375C22 8.71815 20.6569 7.375 19 7.375H12.7161C12.4846 7.375 12.2603 7.29467 12.0814 7.14773L9.6881 5.18182C9.15142 4.74098 8.47841 4.5 7.78388 4.5H5Z" fill="#64748B"/>
<path d="M13.95 15.1542C14.1074 14.8795 14.0108 14.5312 13.7344 14.3768C13.459 14.2229 13.1091 14.32 12.9522 14.5937L11.5107 17.1091C11.3533 17.3838 11.4499 17.7321 11.7262 17.8865C12.0017 18.0404 12.3516 17.9434 12.5084 17.6696L13.95 15.1542ZM17.5571 13.2254C17.7145 12.9508 17.6179 12.6024 17.3416 12.448C17.0661 12.2942 16.7162 12.3912 16.5594 12.6649L15.1178 15.1804C14.9604 15.4551 15.057 15.8034 15.3334 15.9578C15.6088 16.1116 15.9587 16.0146 16.1156 15.7409L17.5571 13.2254ZM23.3382 13.2255C23.4956 12.9509 23.399 12.6025 23.1226 12.4481C22.8472 12.2943 22.4973 12.3913 22.3404 12.665L20.8989 15.1805C20.7415 15.4551 20.8381 15.8035 21.1144 15.9579C21.3899 16.1117 21.7398 16.0147 21.8966 15.741L23.3382 13.2255ZM19.7303 15.1542C19.8877 14.8795 19.7911 14.5312 19.5147 14.3768C19.2393 14.2229 18.8894 14.32 18.7325 14.5937L17.291 17.1091C17.1336 17.3838 17.2302 17.7321 17.5066 17.8865C17.782 18.0404 18.1319 17.9434 18.2888 17.6696L19.7303 15.1542Z" fill="#4ADE80" stroke="#4ADE80" stroke-width="0.25"/>
</svg>
