<svg width="24" height="24" viewBox="0 0 24 24" fill="none" xmlns="http://www.w3.org/2000/svg">
<path fill-rule="evenodd" clip-rule="evenodd" d="M5 4C3.34315 4 2 5.34315 2 7V17C2 18.6569 3.34315 20 5 20H12V18H5C4.44772 18 4 17.5523 4 17V7C4 6.44772 4.44772 6 5 6H7.78388C8.01539 6 8.23973 6.08033 8.41862 6.22727L10.8119 8.19318C11.3486 8.63402 12.0216 8.875 12.7161 8.875H19C19.5523 8.875 20 9.32272 20 9.875V10H22V9.875C22 8.21815 20.6569 6.875 19 6.875H12.7161C12.4846 6.875 12.2603 6.79467 12.0814 6.64773L9.6881 4.68182C9.15142 4.24098 8.47841 4 7.78388 4H5Z" fill="#64748B"/>
<path fill-rule="evenodd" clip-rule="evenodd" d="M19.2361 16.5868C19.4019 16.5729 19.5555 16.4993 19.6645 16.3815C19.7736 16.2637 19.8295 16.1109 19.8207 15.9553C19.8118 15.7996 19.7388 15.6533 19.617 15.547C19.4952 15.4407 19.3341 15.3829 19.1676 15.3856H19.1444C19.0601 15.3883 18.9772 15.4066 18.9005 15.4394C18.8237 15.4721 18.7547 15.5188 18.6973 15.5766C18.6398 15.6344 18.5951 15.7023 18.5658 15.7763C18.5364 15.8503 18.5229 15.9291 18.5261 16.008C18.534 16.1565 18.5989 16.2973 18.709 16.4045C18.3201 17.1234 17.7244 17.6487 16.831 18.0881C16.2241 18.3888 15.5946 18.4958 14.9644 18.4205C14.4492 18.3564 14.0483 18.1416 13.7964 17.7881C13.4294 17.2628 13.3955 16.6939 13.7046 16.1262C13.8918 15.7889 14.1579 15.4955 14.4831 15.2679C14.424 15.0881 14.3743 14.9058 14.3342 14.7214C12.6736 15.8468 12.8451 17.3698 13.3497 18.0887C13.7272 18.624 14.4944 18.957 15.3419 18.957C15.5713 18.957 15.8006 18.9352 16.0293 18.8817C17.4951 18.6141 18.6059 17.7987 19.2361 16.5868Z" fill="#FF7043" stroke="#FF7043" stroke-width="0.293" stroke-linejoin="round"/>
<path fill-rule="evenodd" clip-rule="evenodd" d="M21.2516 15.2573C20.3808 14.3032 19.0984 13.7772 17.6327 13.7772H17.4492C17.3964 13.6805 17.316 13.5993 17.217 13.5426C17.118 13.4859 17.0042 13.456 16.8881 13.4561H16.8655C16.6954 13.4589 16.5334 13.5248 16.4152 13.6395C16.297 13.7541 16.2323 13.908 16.2353 14.0673C16.2383 14.2266 16.3088 14.3782 16.4312 14.4889C16.5536 14.5995 16.718 14.6601 16.8881 14.6573H16.9114C17.0321 14.6518 17.1487 14.6146 17.2479 14.55C17.3471 14.4854 17.4249 14.396 17.4724 14.292H17.6785C18.5494 14.292 19.3737 14.5285 20.1182 14.9891C20.6899 15.3432 21.1027 15.8045 21.332 16.3615C21.5261 16.8122 21.5148 17.2516 21.3088 17.6269C20.9884 18.1952 20.4499 18.5064 19.7399 18.5064C19.2813 18.5064 18.8465 18.3776 18.6178 18.2811C18.4915 18.3888 18.2622 18.5599 18.102 18.667C18.5946 18.8817 19.0991 19 19.5797 19C20.6792 19 21.4922 18.4311 21.8014 17.8628C22.1337 17.241 22.1105 16.1686 21.2516 15.2573Z" fill="#FF7043" stroke="#FF7043" stroke-width="0.293" stroke-linejoin="round"/>
<path fill-rule="evenodd" clip-rule="evenodd" d="M15.4336 16.7692C15.4449 17.091 15.7314 17.3481 16.0751 17.3481H16.0977C16.2678 17.3453 16.4298 17.2793 16.548 17.1647C16.6662 17.0501 16.7309 16.8962 16.7279 16.7369C16.7249 16.5776 16.6544 16.4259 16.532 16.3153C16.4096 16.2046 16.2452 16.144 16.0751 16.1468H16.0518C16.0292 16.1468 15.9947 16.1468 15.9721 16.158C15.5027 15.4292 15.3073 14.6356 15.3764 13.7773C15.4223 13.1343 15.6516 12.576 16.0518 12.1154C16.3842 11.7189 17.0257 11.5259 17.4611 11.5147C18.675 11.4936 19.1902 12.909 19.2247 13.4772C19.3736 13.5096 19.6256 13.5843 19.7971 13.6384C19.6595 11.9013 18.5141 11 17.4152 11C16.3849 11 15.4343 11.6971 15.0553 12.7266C14.5289 14.099 14.8725 15.418 15.514 16.458C15.4503 16.5502 15.4222 16.66 15.4343 16.7692H15.4336Z" fill="#FF7043" stroke="#FF7043" stroke-width="0.293" stroke-linejoin="round"/>
</svg>
