<svg width="24" height="24" viewBox="0 0 24 24" fill="none" xmlns="http://www.w3.org/2000/svg">
<path fill-rule="evenodd" clip-rule="evenodd" d="M5 4C3.34315 4 2 5.34315 2 7V17C2 18.6569 3.34315 20 5 20H13V18H5C4.44772 18 4 17.5523 4 17V7C4 6.44772 4.44772 6 5 6H7.78388C8.01539 6 8.23973 6.08033 8.41862 6.22727L10.8119 8.19318C11.3486 8.63402 12.0216 8.875 12.7161 8.875H19C19.5523 8.875 20 9.32272 20 9.875V10H22V9.875C22 8.21815 20.6569 6.875 19 6.875H12.7161C12.4846 6.875 12.2603 6.79467 12.0814 6.64773L9.6881 4.68182C9.15142 4.24098 8.47841 4 7.78388 4H5Z" fill="#64748B"/>
<path fill-rule="evenodd" clip-rule="evenodd" d="M18 13.337C18.3535 13.337 18.6925 13.2139 18.9425 12.9949C19.1925 12.7759 19.3329 12.4788 19.3329 12.1691C19.3331 12.0156 19.2987 11.8636 19.2318 11.7218C19.1649 11.5799 19.0668 11.4511 18.943 11.3425C18.8192 11.2339 18.6722 11.1478 18.5104 11.089C18.3486 11.0302 18.1751 11 18 11C17.8249 11 17.6515 11.0302 17.4898 11.089C17.328 11.1477 17.181 11.2338 17.0573 11.3423C16.9335 11.4508 16.8353 11.5796 16.7684 11.7214C16.7014 11.8631 16.667 12.0151 16.6671 12.1685C16.667 12.3219 16.7014 12.4738 16.7684 12.6156C16.8353 12.7574 16.9335 12.8862 17.0573 12.9947C17.181 13.1032 17.328 13.1893 17.4898 13.248C17.6515 13.3068 17.8249 13.337 18 13.337ZM18 14.7157C16.9148 13.8278 15.4848 13.3348 14 13.337V17.6213C15.5553 17.6213 16.9512 18.1471 18 19C19.0852 18.1121 20.5152 17.6191 22 17.6213V13.337C20.5152 13.3348 19.0852 13.8278 18 14.7157Z" fill="#0EA5E9"/>
</svg>
