<svg width="24" height="25" viewBox="0 0 24 25" fill="none" xmlns="http://www.w3.org/2000/svg">
<path fill-rule="evenodd" clip-rule="evenodd" d="M5 4.5C3.34315 4.5 2 5.84315 2 7.5V17.5C2 19.1569 3.34315 20.5 5 20.5H13V18.5H5C4.44772 18.5 4 18.0523 4 17.5V7.5C4 6.94772 4.44772 6.5 5 6.5H7.78388C8.01539 6.5 8.23973 6.58033 8.41862 6.72727L10.8119 8.69318C11.3486 9.13402 12.0216 9.375 12.7161 9.375H19C19.5523 9.375 20 9.82272 20 10.375V10.5H22V10.375C22 8.71815 20.6569 7.375 19 7.375H12.7161C12.4846 7.375 12.2603 7.29467 12.0814 7.14773L9.6881 5.18182C9.15142 4.74098 8.47841 4.5 7.78388 4.5H5Z" fill="#64748B"/>
<path fill-rule="evenodd" clip-rule="evenodd" d="M18.0004 16.8999C17.6187 16.8999 17.2525 16.7523 16.9826 16.4898C16.7127 16.2272 16.561 15.871 16.561 15.4997C16.5612 15.1285 16.7129 14.7725 16.9828 14.51C17.2527 14.2476 17.6188 14.1001 18.0004 14.1001C18.3821 14.1001 18.7481 14.2476 19.018 14.51C19.288 14.7725 19.4397 15.1285 19.4399 15.4997C19.4399 15.871 19.2882 16.2272 19.0183 16.4898C18.7483 16.7523 18.3822 16.8999 18.0004 16.8999ZM21.0558 15.888C21.072 15.76 21.0845 15.6319 21.0845 15.4997C21.0845 15.3681 21.072 15.2358 21.0558 15.0999L21.9233 14.4478C21.9614 14.4177 21.9872 14.3755 21.9964 14.3286C22.0055 14.2818 21.9973 14.2333 21.9732 14.1917L21.15 12.8086C21.1007 12.72 20.9897 12.6842 20.8992 12.72L19.8758 13.1204C19.6633 12.9596 19.4294 12.8276 19.1804 12.7279L19.0282 11.668C19.02 11.6209 18.9947 11.5781 18.957 11.5473C18.9193 11.5165 18.8716 11.4998 18.8224 11.5H17.1778C17.1286 11.4998 17.0809 11.5165 17.0432 11.5473C17.0055 11.5781 16.9803 11.6209 16.972 11.668L16.8204 12.7279C16.5717 12.8274 16.338 12.9593 16.1257 13.1198L15.1016 12.72C15.056 12.7026 15.0054 12.7019 14.9592 12.7181C14.9131 12.7343 14.8746 12.7662 14.8509 12.808L14.0283 14.1917C14.0032 14.233 13.9944 14.2818 14.0035 14.3289C14.0127 14.376 14.0393 14.4183 14.0782 14.4478L14.9451 15.0999C14.9289 15.2358 14.9164 15.3681 14.9164 15.5003C14.9164 15.6326 14.9289 15.76 14.9451 15.888L14.0782 16.5516C14.0393 16.5811 14.0127 16.6234 14.0035 16.6705C13.9944 16.7176 14.0032 16.7664 14.0283 16.8077L14.8509 18.192C14.8754 18.2331 14.9139 18.2644 14.9598 18.2805C15.0056 18.2966 15.0559 18.2964 15.1016 18.28L16.1257 17.876C16.339 18.0361 16.561 18.172 16.8204 18.2721L16.9726 19.332C16.9809 19.3791 17.0061 19.4219 17.0438 19.4527C17.0815 19.4835 17.1292 19.5002 17.1784 19.5H18.8231C18.8723 19.5002 18.92 19.4835 18.9577 19.4527C18.9954 19.4219 19.0206 19.3791 19.0289 19.332L19.1804 18.2721C19.4295 18.1712 19.6634 18.0379 19.8758 17.876L20.8992 18.28C20.9897 18.3116 21.1007 18.28 21.1506 18.192L21.9726 16.8077C21.9967 16.7662 22.005 16.7177 21.996 16.6709C21.987 16.624 21.9613 16.5818 21.9233 16.5516L21.0558 15.888Z" fill="#CFD8DC"/>
</svg>
