<svg width="24" height="25" viewBox="0 0 24 25" fill="none" xmlns="http://www.w3.org/2000/svg">
<path fill-rule="evenodd" clip-rule="evenodd" d="M5 4.5C3.34315 4.5 2 5.84315 2 7.5V17.5C2 19.1569 3.34315 20.5 5 20.5H10V18.5H5C4.44772 18.5 4 18.0523 4 17.5V7.5C4 6.94772 4.44772 6.5 5 6.5H7.78388C8.01539 6.5 8.23973 6.58033 8.41862 6.72727L10.8119 8.69318C11.3486 9.13402 12.0216 9.375 12.7161 9.375H19C19.5523 9.375 20 9.82272 20 10.375V10.5H22V10.375C22 8.71815 20.6569 7.375 19 7.375H12.7161C12.4846 7.375 12.2603 7.29467 12.0814 7.14773L9.6881 5.18182C9.15142 4.74098 8.47841 4.5 7.78388 4.5H5Z" fill="#64748B"/>
<path d="M19 19.2337C19 19.3808 18.8808 19.5 18.7337 19.5H15.543C15.396 19.5 15.2768 19.3808 15.2768 19.2337C15.2768 19.0867 15.3961 18.9687 15.543 18.9614C15.7244 18.9524 15.8648 18.9331 15.9643 18.9038C16.108 18.8575 16.1799 18.7513 16.1799 18.5854C16.1799 18.4696 16.1566 18.3519 16.11 18.2323L15.7371 17.3061H13.1733L12.9811 17.8155C12.8723 18.1011 12.8179 18.3075 12.8179 18.4349C12.8179 18.6664 12.9073 18.8131 13.0859 18.8748C13.1981 18.9127 13.3212 18.939 13.4552 18.9536C13.6014 18.9696 13.721 19.0867 13.721 19.2337C13.721 19.3808 13.6018 19.5 13.4548 19.5H11.2663C11.1192 19.5 11 19.3808 11 19.2337C11 19.0867 11.1203 18.9714 11.2649 18.9445C11.3717 18.9246 11.4679 18.8917 11.5535 18.8459C11.705 18.7648 11.8487 18.6124 11.9847 18.3886C12.1245 18.1609 12.2741 17.8406 12.4334 17.4276L14.6119 11.7595C14.6719 11.6032 14.8221 11.5 14.9895 11.5C15.1558 11.5 15.3052 11.6017 15.3661 11.7564L17.6715 17.6129C17.8463 18.0451 17.9745 18.3384 18.0561 18.4928C18.1377 18.6433 18.2503 18.761 18.394 18.8459C18.4844 18.8969 18.5979 18.9318 18.7344 18.9507C18.8801 18.9709 19 19.0867 19 19.2337ZM15.5273 16.7388L14.4377 14.0007L13.4006 16.7388H15.5273Z" fill="#FF7C7C"/>
<path d="M24 18.4303C24 18.6619 23.9494 18.86 23.8483 19.0246C23.7472 19.1861 23.6102 19.3065 23.4374 19.3857C23.2678 19.4619 23.0753 19.5 22.8601 19.5C22.5861 19.5 22.3578 19.4406 22.1751 19.3217C21.9925 19.1998 21.8832 19.055 21.8474 18.8874C21.3027 19.2958 20.7547 19.5 20.2035 19.5C19.8513 19.5 19.5626 19.4208 19.3376 19.2623C19.1125 19.1008 19 18.889 19 18.6269C19 18.4105 19.0603 18.2154 19.181 18.0417C19.3017 17.865 19.4778 17.708 19.7094 17.5709C19.9442 17.4337 20.2231 17.3133 20.546 17.2097C20.8689 17.103 21.2717 16.9918 21.7544 16.876V16.6154C21.7544 16.399 21.699 16.2299 21.5881 16.108C21.4804 15.983 21.2798 15.9206 20.9863 15.9206C20.7352 15.9206 20.5541 15.9693 20.4432 16.0669C20.3324 16.1644 20.259 16.3122 20.2231 16.5103C20.197 16.6505 20.1481 16.7663 20.0763 16.8577C20.0078 16.9461 19.8627 16.9903 19.6409 16.9903C19.5039 16.9903 19.3832 16.9537 19.2789 16.8806C19.1745 16.8074 19.1223 16.6992 19.1223 16.556C19.1223 16.2726 19.287 16.0257 19.6164 15.8154C19.9459 15.6051 20.4514 15.5 21.1331 15.5C21.8506 15.5 22.3431 15.6128 22.6106 15.8383C22.8813 16.0638 23.0166 16.3655 23.0166 16.7434V18.188C23.0166 18.3709 23.0215 18.505 23.0313 18.5903C23.0411 18.6756 23.0672 18.7411 23.1096 18.7869C23.1553 18.8295 23.2254 18.8509 23.32 18.8509C23.4048 18.8509 23.4781 18.8097 23.5401 18.7274C23.6053 18.6451 23.638 18.5461 23.638 18.4303H24ZM21.7544 18.4669V17.3331C21.1347 17.516 20.7401 17.6958 20.5705 17.8726C20.4041 18.0463 20.3209 18.217 20.3209 18.3846C20.3209 18.5248 20.3666 18.6375 20.4579 18.7229C20.5492 18.8082 20.6781 18.8509 20.8444 18.8509C21.0238 18.8509 21.182 18.8158 21.319 18.7457C21.456 18.6756 21.6011 18.5827 21.7544 18.4669Z" fill="#FF7C7C"/>
</svg>
