<svg width="24" height="24" viewBox="0 0 24 24" fill="none" xmlns="http://www.w3.org/2000/svg">
<path fill-rule="evenodd" clip-rule="evenodd" d="M5 4C3.34315 4 2 5.34315 2 7V17C2 18.6569 3.34315 20 5 20H13V18H5C4.44772 18 4 17.5523 4 17V7C4 6.44772 4.44772 6 5 6H7.78388C8.01539 6 8.23973 6.08033 8.41862 6.22727L10.8119 8.19318C11.3486 8.63402 12.0216 8.875 12.7161 8.875H19C19.5523 8.875 20 9.32272 20 9.875V10H22V9.875C22 8.21815 20.6569 6.875 19 6.875H12.7161C12.4846 6.875 12.2603 6.79467 12.0814 6.64773L9.6881 4.68182C9.15142 4.24098 8.47841 4 7.78388 4H5Z" fill="#64748B"/>
<path d="M17.7239 16C17.7239 15.6843 17.8513 15.3815 18.078 15.1582C18.3048 14.935 18.6123 14.8095 18.933 14.8095C19.2536 14.8095 19.5612 14.935 19.7879 15.1582C20.0146 15.3815 20.142 15.6843 20.142 16C20.142 16.3157 20.0146 16.6185 19.7879 16.8418C19.5612 17.0651 19.2536 17.1905 18.933 17.1905C18.6123 17.1905 18.3048 17.0651 18.078 16.8418C17.8513 16.6185 17.7239 16.3157 17.7239 16ZM18.933 11C17.8042 10.9989 16.7072 11.3682 15.8153 12.0494C14.9235 12.7307 14.2876 13.6851 14.0081 14.7619L14 14.8095C14 14.9444 14.1048 15.0476 14.2418 15.0476H16.2892C16.3355 15.0469 16.3807 15.033 16.4193 15.0077C16.4579 14.9823 16.4882 14.9466 16.5068 14.9048C16.7597 14.3615 17.1936 13.9198 17.7366 13.6528C18.2796 13.3859 18.899 13.3098 19.492 13.4372C20.085 13.5647 20.6159 13.8879 20.9965 14.3534C21.3772 14.8188 21.5847 15.3984 21.5847 15.996C21.5847 16.5936 21.3772 17.1733 20.9965 17.6387C20.6159 18.1042 20.085 18.4274 19.492 18.5548C18.899 18.6823 18.2796 18.6062 17.7366 18.3393C17.1936 18.0723 16.7597 17.6306 16.5068 17.0873C16.4882 17.0455 16.4579 17.0097 16.4193 16.9844C16.3807 16.9591 16.3355 16.9452 16.2892 16.9445H14.2418C14.1777 16.9445 14.1162 16.9695 14.0708 17.0142C14.0255 17.0588 14 17.1194 14 17.1825V17.2302C14.2338 18.137 14.7213 18.961 15.407 19.6086C16.0928 20.2562 16.9493 20.7014 17.8793 20.8935C18.8092 21.0856 19.7752 21.0169 20.6675 20.6953C21.5598 20.3737 22.3425 19.8121 22.9267 19.0742C23.511 18.3364 23.8732 17.4519 23.9723 16.5215C24.0714 15.591 23.9034 14.6518 23.4873 13.8107C23.0713 12.9696 22.4239 12.2602 21.6188 11.7634C20.8137 11.2665 19.8831 11.002 18.933 11Z" fill="#0EA5E9"/>
</svg>
