<svg width="24" height="24" viewBox="0 0 24 24" fill="none" xmlns="http://www.w3.org/2000/svg">
<path fill-rule="evenodd" clip-rule="evenodd" d="M5 4C3.34315 4 2 5.34315 2 7V17C2 18.6569 3.34315 20 5 20H13V18H5C4.44772 18 4 17.5523 4 17V7C4 6.44772 4.44772 6 5 6H7.78388C8.01539 6 8.23973 6.08033 8.41862 6.22727L10.8119 8.19318C11.3486 8.63402 12.0216 8.875 12.7161 8.875H19C19.5523 8.875 20 9.32272 20 9.875V10H22V9.875C22 8.21815 20.6569 6.875 19 6.875H12.7161C12.4846 6.875 12.2603 6.79467 12.0814 6.64773L9.6881 4.68182C9.15142 4.24098 8.47841 4 7.78388 4H5Z" fill="#64748B"/>
<path fill-rule="evenodd" clip-rule="evenodd" d="M18.8104 15C18.8104 15.1025 18.7895 15.204 18.7487 15.2988C18.708 15.3935 18.6482 15.4795 18.573 15.552C18.4977 15.6245 18.4083 15.682 18.3099 15.7213C18.2116 15.7605 18.1061 15.7807 17.9997 15.7807C17.7848 15.7805 17.5787 15.6982 17.4268 15.5518C17.2749 15.4054 17.1896 15.2069 17.1896 15C17.1896 14.7931 17.2749 14.5946 17.4268 14.4482C17.5787 14.3018 17.7848 14.2195 17.9997 14.2193C18.2147 14.2193 18.4209 14.3015 18.573 14.448C18.725 14.5944 18.8104 14.7929 18.8104 15ZM21.5973 12.9993C21.4212 12.7076 21.2075 12.4385 20.9612 12.1984L20.0239 12.7198C19.7351 12.4819 19.4037 12.2969 19.0459 12.1737C18.7332 12.4758 18.477 12.8276 18.2886 13.2138C19.3315 13.1453 20.4083 13.509 21.4085 14.261L21.998 13.9332C21.9059 13.6071 21.7713 13.2935 21.5973 13V12.9993ZM21.5973 17C21.7719 16.707 21.9072 16.3939 22 16.0681L21.0634 15.5468C21.1328 15.1871 21.1335 14.8183 21.0654 14.4585C20.6372 14.3489 20.1926 14.3114 19.7511 14.3477C20.3338 15.1831 20.5456 16.263 20.369 17.4725L20.9585 17.8003C21.2057 17.5606 21.4203 17.2917 21.5973 17ZM18.0003 19C18.3509 18.9989 18.7 18.9552 19.0392 18.8697V17.8283C19.3977 17.7064 19.73 17.5224 20.0198 17.2854C19.9044 16.8736 19.716 16.484 19.4628 16.1339C19.0026 17.0378 18.137 17.754 16.9608 18.2121V18.8677C17.3001 18.9539 17.6494 18.9984 18.0003 19ZM14.4027 17C14.579 17.292 14.7929 17.5613 15.0395 17.8016L15.9761 17.2802C16.2685 17.5213 16.6001 17.7051 16.9547 17.8263C17.2673 17.5242 17.5232 17.1723 17.7114 16.7863C16.6691 16.8547 15.5917 16.491 14.5915 15.739L14.0027 16.0668C14.0946 16.3929 14.229 16.7064 14.4027 17ZM14.4027 13C14.2281 13.293 14.0928 13.6061 14 13.9319L14.9373 14.4532C14.8679 14.8129 14.8672 15.1817 14.9353 15.5415C15.3759 15.6523 15.8164 15.6895 16.2496 15.6523C15.6662 14.8169 15.455 13.737 15.6317 12.5269L15.0415 12.1991C14.7943 12.4392 14.5796 12.7079 14.4027 13ZM17.9997 11C17.6491 11.0011 17.3 11.0448 16.9608 11.1303V12.1717C16.6026 12.2937 16.2705 12.4777 15.9809 12.7146C16.0962 13.1264 16.2847 13.516 16.5379 13.8661C16.9981 12.9622 17.863 12.246 19.0398 11.7879V11.1323C18.7003 11.046 18.3508 11.0016 17.9997 11Z" fill="#8CDBFF"/>
</svg>
