<svg width="24" height="25" viewBox="0 0 24 25" fill="none" xmlns="http://www.w3.org/2000/svg">
<path fill-rule="evenodd" clip-rule="evenodd" d="M5 4.5C3.34315 4.5 2 5.84315 2 7.5V17.5C2 19.1569 3.34315 20.5 5 20.5H13V18.5H5C4.44772 18.5 4 18.0523 4 17.5V7.5C4 6.94772 4.44772 6.5 5 6.5H7.78388C8.01539 6.5 8.23973 6.58033 8.41862 6.72727L10.8119 8.69318C11.3486 9.13402 12.0216 9.375 12.7161 9.375H19C19.5523 9.375 20 9.82272 20 10.375V10.5H22V10.375C22 8.71815 20.6569 7.375 19 7.375H12.7161C12.4846 7.375 12.2603 7.29467 12.0814 7.14773L9.6881 5.18182C9.15142 4.74098 8.47841 4.5 7.78388 4.5H5Z" fill="#64748B"/>
<path d="M18 19.5C20.2091 19.5 22 17.7091 22 15.5C22 13.2909 20.2091 11.5 18 11.5C15.7909 11.5 14 13.2909 14 15.5C14 17.7091 15.7909 19.5 18 19.5Z" stroke="#0EA5E9"/>
<path fill-rule="evenodd" clip-rule="evenodd" d="M18.0701 13.0438C16.6666 13.0438 15.5438 14.1666 15.5438 15.5C15.5438 16.9035 16.6666 17.9561 18.0701 17.9561C19.4736 17.9561 20.5965 16.8333 20.5965 15.5C20.5965 14.1666 19.4736 13.0438 18.0701 13.0438ZM18.7719 13.8158C19.2631 13.8158 19.6842 14.2368 19.6842 14.728C19.6842 15.2193 19.2631 15.6403 18.7719 15.6403C18.2807 15.6403 17.8596 15.2193 17.8596 14.728C17.8596 14.1666 18.2807 13.8158 18.7719 13.8158Z" fill="#0EA5E9"/>
<path d="M20.9473 13.5351C21.4512 13.5351 21.8596 13.1266 21.8596 12.6228C21.8596 12.119 21.4512 11.7105 20.9473 11.7105C20.4435 11.7105 20.035 12.119 20.035 12.6228C20.035 13.1266 20.4435 13.5351 20.9473 13.5351Z" fill="#0EA5E9"/>
</svg>
