<svg width="24" height="24" viewBox="0 0 24 24" fill="none" xmlns="http://www.w3.org/2000/svg">
<path fill-rule="evenodd" clip-rule="evenodd" d="M5 4C3.34315 4 2 5.34315 2 7V17C2 18.6569 3.34315 20 5 20H13V18H5C4.44772 18 4 17.5523 4 17V7C4 6.44772 4.44772 6 5 6H7.78388C8.01539 6 8.23973 6.08033 8.41862 6.22727L10.8119 8.19318C11.3486 8.63402 12.0216 8.875 12.7161 8.875H19C19.5523 8.875 20 9.32272 20 9.875V10H22V9.875C22 8.21815 20.6569 6.875 19 6.875H12.7161C12.4846 6.875 12.2603 6.79467 12.0814 6.64773L9.6881 4.68182C9.15142 4.24098 8.47841 4 7.78388 4H5Z" fill="#64748B"/>
<path fill-rule="evenodd" clip-rule="evenodd" d="M14.4447 11H21.5553C21.6731 11 21.7861 11.0383 21.8695 11.1064C21.9529 11.1745 21.9998 11.2668 22 11.3632V12.8181C22 12.9146 21.9531 13.0071 21.8698 13.0754C21.7864 13.1436 21.6732 13.1819 21.5553 13.1819H14.4447C14.3268 13.1819 14.2136 13.1436 14.1302 13.0754C14.0469 13.0071 14 12.9146 14 12.8181V11.3632C14.0002 11.2668 14.0471 11.1745 14.1305 11.1064C14.2139 11.0383 14.3269 11 14.4447 11ZM14.4447 13.909H21.5553C21.6137 13.909 21.6715 13.9184 21.7255 13.9367C21.7794 13.955 21.8285 13.9818 21.8698 14.0156C21.911 14.0494 21.9438 14.0895 21.9662 14.1337C21.9885 14.1778 22 14.2251 22 14.2729V15.7271C22 15.8236 21.9531 15.9162 21.8698 15.9844C21.7864 16.0526 21.6732 16.091 21.5553 16.091H14.4447C14.3268 16.091 14.2136 16.0526 14.1302 15.9844C14.0469 15.9162 14 15.8236 14 15.7271V14.2729C14 14.2251 14.0115 14.1778 14.0339 14.1337C14.0562 14.0895 14.089 14.0494 14.1302 14.0156C14.1715 13.9818 14.2206 13.955 14.2745 13.9367C14.3285 13.9184 14.3863 13.909 14.4447 13.909ZM14.4447 16.8181H21.5553C21.6732 16.8181 21.7864 16.8564 21.8698 16.9246C21.9531 16.9929 22 17.0854 22 17.1819V18.6361C22 18.7326 21.9531 18.8252 21.8698 18.8934C21.7864 18.9617 21.6732 19 21.5553 19H14.4447C14.3268 19 14.2136 18.9617 14.1302 18.8934C14.0469 18.8252 14 18.7326 14 18.6361V17.1826C14 17.086 14.0469 16.9935 14.1302 16.9253C14.2136 16.857 14.3268 16.8181 14.4447 16.8181ZM16.6667 12.4548H17.1114V11.7283H16.6667V12.4548ZM16.6667 15.3645H17.1114V14.6368H16.6667V15.3645ZM16.6667 18.2735H17.1114V17.5458H16.6667V18.2735ZM14.8894 11.7271V12.4542H15.7773V11.7271H14.8894ZM14.8894 14.6361V15.3632H15.7773V14.6368L14.8894 14.6361ZM14.8894 17.5458V18.2729H15.7773V17.5464L14.8894 17.5458Z" fill="#FFCE50"/>
</svg>
