<svg width="24" height="25" viewBox="0 0 24 25" fill="none" xmlns="http://www.w3.org/2000/svg">
<path fill-rule="evenodd" clip-rule="evenodd" d="M5 4.5C3.34315 4.5 2 5.84315 2 7.5V17.5C2 19.1569 3.34315 20.5 5 20.5H14V18.5H5C4.44772 18.5 4 18.0523 4 17.5V7.5C4 6.94772 4.44772 6.5 5 6.5H7.78388C8.01539 6.5 8.23973 6.58033 8.41862 6.72727L10.8119 8.69318C11.3486 9.13402 12.0216 9.375 12.7161 9.375H19C19.5523 9.375 20 9.82272 20 10.375V10.5H22V10.375C22 8.71815 20.6569 7.375 19 7.375H12.7161C12.4846 7.375 12.2603 7.29467 12.0814 7.14773L9.6881 5.18182C9.15142 4.74098 8.47841 4.5 7.78388 4.5H5Z" fill="#64748B"/>
<path fill-rule="evenodd" clip-rule="evenodd" d="M15.9 11.5C15.6613 11.5 15.4324 11.6054 15.2636 11.7929C15.0948 11.9804 15 12.2348 15 12.5V18.5C15 18.7652 15.0948 19.0196 15.2636 19.2071C15.4324 19.3946 15.6613 19.5 15.9 19.5H20.1C20.3387 19.5 20.5676 19.3946 20.7364 19.2071C20.9052 19.0196 21 18.7652 21 18.5V12.5C21 12.2348 20.9052 11.9804 20.7364 11.7929C20.5676 11.6054 20.3387 11.5 20.1 11.5H15.9Z" fill="#CFD8DC"/>
<path fill-rule="evenodd" clip-rule="evenodd" d="M16 13.5007L18 17.5L20 13.52V13.5H19.2223L18.0115 15.9096L16.8064 13.5007H16Z" fill="#0D9488"/>
<path fill-rule="evenodd" clip-rule="evenodd" d="M16.5 13.5L17.9961 16.5L19.5 13.5H18.5941L18.0025 14.6801L17.4131 13.5H16.5Z" fill="#35495E"/>
</svg>
