<svg width="24" height="24" viewBox="0 0 24 24" fill="none" xmlns="http://www.w3.org/2000/svg">
<path fill-rule="evenodd" clip-rule="evenodd" d="M5 4C3.34315 4 2 5.34315 2 7V17C2 18.6569 3.34315 20 5 20H13V18H5C4.44772 18 4 17.5523 4 17V7C4 6.44772 4.44772 6 5 6H7.78388C8.01539 6 8.23973 6.08033 8.41862 6.22727L10.8119 8.19318C11.3486 8.63402 12.0216 8.875 12.7161 8.875H19C19.5523 8.875 20 9.32272 20 9.875V10H22V9.875C22 8.21815 20.6569 6.875 19 6.875H12.7161C12.4846 6.875 12.2603 6.79467 12.0814 6.64773L9.6881 4.68182C9.15142 4.24098 8.47841 4 7.78388 4H5Z" fill="#64748B"/>
<path d="M17.9979 10C17.8671 10.0002 17.738 10.0294 17.6198 10.0854C17.5015 10.1415 17.397 10.223 17.3138 10.3242C17.2306 10.4255 17.1707 10.5439 17.1384 10.671C17.106 10.7981 17.1021 10.9309 17.1268 11.0597L15.4667 12.022C15.4243 11.9846 15.3785 11.9514 15.3298 11.9227C15.3293 11.9227 15.3289 11.9227 15.3285 11.9227C15.1246 11.8082 14.884 11.779 14.6587 11.8412C14.4334 11.9034 14.2417 12.0521 14.1249 12.2552C14.0082 12.4582 13.9758 12.6992 14.0349 12.926C14.094 13.1527 14.2398 13.347 14.4406 13.4668C14.4907 13.4958 14.5422 13.5184 14.5949 13.5365V15.4611C14.5435 15.4792 14.492 15.5004 14.4432 15.5288C14.2397 15.6475 14.0914 15.8421 14.0304 16.0701C13.9695 16.2981 14.0009 16.5411 14.1178 16.7459C14.3615 17.1716 14.9054 17.3174 15.3311 17.0736C15.3791 17.0453 15.4243 17.0125 15.4661 16.9755L17.1268 17.9366C17.1028 18.0587 17.1046 18.1845 17.1321 18.3059C17.1595 18.4273 17.212 18.5416 17.2862 18.6414C17.3604 18.7412 17.4545 18.8243 17.5626 18.8853C17.6708 18.9464 17.7904 18.9841 17.9139 18.9959C18.0375 19.0078 18.1621 18.9936 18.2798 18.9542C18.3975 18.9148 18.5056 18.8511 18.5973 18.7672C18.689 18.6833 18.7621 18.5811 18.8121 18.4672C18.862 18.3532 18.8875 18.23 18.8871 18.1056C18.8871 18.0385 18.8787 17.974 18.8646 17.9114L20.5092 16.9575C20.6073 17.0473 20.7242 17.1139 20.8513 17.1525C20.9784 17.1911 21.1124 17.2006 21.2437 17.1805C21.375 17.1603 21.5 17.1109 21.6098 17.036C21.7196 16.961 21.8112 16.8623 21.878 16.7472H21.8793V16.7459C21.9376 16.6446 21.9755 16.5327 21.9907 16.4167C22.0059 16.3007 21.9982 16.1828 21.968 16.0698C21.9378 15.9567 21.8857 15.8508 21.8146 15.758C21.7436 15.6651 21.655 15.5873 21.554 15.5288C21.5056 15.5015 21.4548 15.4788 21.4022 15.4611V13.5352C21.4557 13.5174 21.5074 13.4945 21.5565 13.4668C21.9802 13.2204 22.1255 12.6735 21.8819 12.2491C21.7639 12.0446 21.57 11.8954 21.3425 11.8342C21.1151 11.773 20.8727 11.8049 20.6687 11.9227C20.6682 11.9227 20.6678 11.9227 20.6674 11.9227C20.6185 11.9514 20.5724 11.9846 20.5298 12.022L18.871 11.0623C18.8958 10.9332 18.8919 10.8003 18.8596 10.6729C18.8272 10.5455 18.7672 10.4269 18.6839 10.3255C18.6005 10.224 18.4959 10.1423 18.3774 10.0862C18.259 10.03 18.1296 10.0008 17.9986 10.0006L17.9979 10ZM17.1968 11.7008L15.1813 15.2005V13.53C15.3741 13.4616 15.5458 13.3301 15.6551 13.1392C15.7637 12.9495 15.7901 12.7367 15.7541 12.5361L17.1968 11.7008ZM18.8042 11.7034L20.2418 12.5374C20.2057 12.7373 20.234 12.9502 20.3427 13.1392C20.452 13.3301 20.623 13.4616 20.8159 13.53V15.1979L18.8042 11.7034ZM17.8359 11.766C17.9437 11.7873 18.0547 11.7873 18.1625 11.766L20.4378 15.7204C20.4011 15.7626 20.3683 15.8081 20.3401 15.8565C20.3127 15.9047 20.2899 15.9555 20.272 16.0081H15.7252C15.7073 15.9555 15.6845 15.9047 15.657 15.8565C15.6568 15.8561 15.6566 15.8556 15.6564 15.8552C15.6284 15.8078 15.5961 15.7631 15.5599 15.7217L17.8359 11.766ZM15.9875 16.5969H20.0521L18.5881 17.4444C18.4267 17.2969 18.2163 17.2149 17.9979 17.2142C17.7787 17.2142 17.5794 17.298 17.4244 17.4309L15.9875 16.5982V16.5969Z" fill="#F472B6"/>
</svg>
