<svg width="24" height="25" viewBox="0 0 24 25" fill="none" xmlns="http://www.w3.org/2000/svg">
<path fill-rule="evenodd" clip-rule="evenodd" d="M5 4.5C3.34315 4.5 2 5.84315 2 7.5V17.5C2 19.1569 3.34315 20.5 5 20.5H13V18.5H5C4.44772 18.5 4 18.0523 4 17.5V7.5C4 6.94772 4.44772 6.5 5 6.5H7.78388C8.01539 6.5 8.23973 6.58033 8.41862 6.72727L10.8119 8.69318C11.3486 9.13402 12.0216 9.375 12.7161 9.375H19C19.5523 9.375 20 9.82272 20 10.375V10.5H22V10.375C22 8.71815 20.6569 7.375 19 7.375H12.7161C12.4846 7.375 12.2603 7.29467 12.0814 7.14773L9.6881 5.18182C9.15142 4.74098 8.47841 4.5 7.78388 4.5H5Z" fill="#64748B"/>
<path d="M17.3687 17.7216C17.3687 18.1933 17.1913 18.6456 16.8754 18.9791C16.5595 19.3126 16.1311 19.5 15.6844 19.5C15.2376 19.5 14.8092 19.3126 14.4933 18.9791C14.1775 18.6456 14 18.1933 14 17.7216C14 17.25 14.1775 16.7976 14.4933 16.4641C14.8092 16.1306 15.2376 15.9432 15.6844 15.9432C16.1311 15.9432 16.5595 16.1306 16.8754 16.4641C17.1913 16.7976 17.3687 17.25 17.3687 17.7216ZM19.4595 13.5124C19.5013 13.1801 19.4533 12.8421 19.3211 12.5374C19.1888 12.2327 18.9777 11.9736 18.712 11.7901C18.4464 11.6066 18.137 11.5061 17.8196 11.5003C17.5021 11.4944 17.1896 11.5834 16.918 11.757C16.6464 11.9306 16.4269 12.1817 16.2846 12.4813C16.1423 12.781 16.0832 13.117 16.114 13.4506C16.1448 13.7842 16.2643 14.1018 16.4587 14.3668C16.6531 14.6318 16.9145 14.8334 17.2127 14.9483C18.5041 15.484 18.8081 16.0252 18.6468 17.4858C18.6047 17.8181 18.6524 18.1562 18.7845 18.461C18.9166 18.7659 19.1276 19.0251 19.3932 19.2088C19.6588 19.3925 19.9682 19.4932 20.2856 19.4992C20.6031 19.5053 20.9157 19.4164 21.1874 19.2429C21.4591 19.0695 21.6788 18.8184 21.8212 18.5188C21.9636 18.2191 22.0228 17.8831 21.9921 17.5494C21.9614 17.2158 21.8419 16.8981 21.6475 16.633C21.4532 16.3679 21.1918 16.1663 20.8935 16.0513C19.6021 15.5149 19.2975 14.9729 19.4601 13.5124H19.4595Z" fill="#E676FA"/>
</svg>
