<svg width="24" height="25" viewBox="0 0 24 25" fill="none" xmlns="http://www.w3.org/2000/svg">
<path fill-rule="evenodd" clip-rule="evenodd" d="M5 4.5C3.34315 4.5 2 5.84315 2 7.5V17.5C2 19.1569 3.34315 20.5 5 20.5H13V18.5H5C4.44772 18.5 4 18.0523 4 17.5V7.5C4 6.94772 4.44772 6.5 5 6.5H7.78388C8.01539 6.5 8.23973 6.58033 8.41862 6.72727L10.8119 8.69318C11.3486 9.13402 12.0216 9.375 12.7161 9.375H19C19.5523 9.375 20 9.82272 20 10.375V10.5H22V10.375C22 8.71815 20.6569 7.375 19 7.375H12.7161C12.4846 7.375 12.2603 7.29467 12.0814 7.14773L9.6881 5.18182C9.15142 4.74098 8.47841 4.5 7.78388 4.5H5Z" fill="#64748B"/>
<path fill-rule="evenodd" clip-rule="evenodd" d="M15.8065 18.1403C15.5504 18.1403 15.3176 17.9137 15.3176 17.6367C15.3176 17.3597 15.5272 17.1331 15.8065 17.1331C16.0859 17.1331 16.2954 17.3597 16.2954 17.6367C16.2954 17.9137 16.0626 18.1403 15.8065 18.1403ZM21.8127 15.3957C21.7662 14.9928 21.5334 14.6655 21.2307 14.4137L21.1143 14.3129L21.0212 14.4388C20.835 14.6655 20.7651 15.0683 20.7884 15.3705C20.8117 15.5971 20.8815 15.8237 20.9979 16C20.9048 16.0504 20.7884 16.1007 20.6953 16.1511C20.4858 16.2266 20.2763 16.2518 20.0667 16.2518H14.0372L14.014 16.4029C13.9674 16.8813 14.0372 17.3849 14.2235 17.8381L14.3166 18.0144V18.0396C14.8753 19.0468 15.8764 19.5 16.9705 19.5C19.0657 19.5 20.7884 18.518 21.6032 16.4029C22.1386 16.4281 22.6741 16.277 22.9302 15.723L23 15.5971L22.8836 15.5216C22.581 15.3201 22.1619 15.295 21.8127 15.3957ZM18.8096 14.9928H17.9017V15.9748H18.8096V14.9928ZM18.8096 13.759H17.9017V14.741H18.8096V13.759ZM18.8096 12.5H17.9017V13.482H18.8096V12.5ZM19.9271 14.9928H19.0191V15.9748H19.9271V14.9928ZM16.5515 14.9928H15.6436V15.9748H16.5515V14.9928ZM17.6922 14.9928H16.7843V15.9748H17.6922V14.9928ZM15.434 14.9928H14.5261V15.9748H15.434V14.9928ZM17.6922 13.759H16.7843V14.741H17.6922V13.759ZM16.5515 13.759H15.6436V14.741H16.5515V13.759Z" fill="#0EA5E9"/>
<mask id="mask0_808_885" style="mask-type:luminance" maskUnits="userSpaceOnUse" x="14" y="12" width="9" height="8">
<path fill-rule="evenodd" clip-rule="evenodd" d="M15.8065 18.1403C15.5504 18.1403 15.3176 17.9137 15.3176 17.6367C15.3176 17.3597 15.5272 17.1331 15.8065 17.1331C16.0859 17.1331 16.2954 17.3597 16.2954 17.6367C16.2954 17.9137 16.0626 18.1403 15.8065 18.1403ZM21.8127 15.3957C21.7662 14.9928 21.5334 14.6655 21.2307 14.4137L21.1143 14.3129L21.0212 14.4388C20.835 14.6655 20.7651 15.0683 20.7884 15.3705C20.8117 15.5971 20.8815 15.8237 20.9979 16C20.9048 16.0504 20.7884 16.1007 20.6953 16.1511C20.4858 16.2266 20.2763 16.2518 20.0667 16.2518H14.0372L14.014 16.4029C13.9674 16.8813 14.0372 17.3849 14.2235 17.8381L14.3166 18.0144V18.0396C14.8753 19.0468 15.8764 19.5 16.9705 19.5C19.0657 19.5 20.7884 18.518 21.6032 16.4029C22.1386 16.4281 22.6741 16.277 22.9302 15.723L23 15.5971L22.8836 15.5216C22.581 15.3201 22.1619 15.295 21.8127 15.3957ZM18.8096 14.9928H17.9017V15.9748H18.8096V14.9928ZM18.8096 13.759H17.9017V14.741H18.8096V13.759ZM18.8096 12.5H17.9017V13.482H18.8096V12.5ZM19.9271 14.9928H19.0191V15.9748H19.9271V14.9928ZM16.5515 14.9928H15.6436V15.9748H16.5515V14.9928ZM17.6922 14.9928H16.7843V15.9748H17.6922V14.9928ZM15.434 14.9928H14.5261V15.9748H15.434V14.9928ZM17.6922 13.759H16.7843V14.741H17.6922V13.759ZM16.5515 13.759H15.6436V14.741H16.5515V13.759Z" fill="white"/>
</mask>
<g mask="url(#mask0_808_885)">
<path fill-rule="evenodd" clip-rule="evenodd" d="M2.42053 6.80939H299.192V44.9317H2.42053V6.80939Z" fill="#0EA5E9"/>
</g>
</svg>
