<svg width="24" height="24" viewBox="0 0 24 24" fill="none" xmlns="http://www.w3.org/2000/svg">
<path fill-rule="evenodd" clip-rule="evenodd" d="M5 4C3.34315 4 2 5.34315 2 7V17C2 18.6569 3.34315 20 5 20H10V18H5C4.44772 18 4 17.5523 4 17V7C4 6.44772 4.44772 6 5 6H7.78388C8.01539 6 8.23973 6.08033 8.41862 6.22727L10.8119 8.19318C11.3486 8.63402 12.0216 8.875 12.7161 8.875H19C19.5523 8.875 20 9.32272 20 9.875V10H22V9.875C22 8.21815 20.6569 6.875 19 6.875H12.7161C12.4846 6.875 12.2603 6.79467 12.0814 6.64773L9.6881 4.68182C9.15142 4.24098 8.47841 4 7.78388 4H5Z" fill="#64748B"/>
<path fill-rule="evenodd" clip-rule="evenodd" d="M15.8541 11.3775C15.7832 11.2626 15.682 11.1673 15.5603 11.1011C15.4387 11.0348 15.301 11 15.1609 11C15.0207 11 14.883 11.0348 14.7614 11.1011C14.6398 11.1673 14.5385 11.2626 14.4676 11.3775L11.1085 16.8664C10.8001 17.3701 11.186 18 11.8022 18H14.4241C14.2877 17.8886 14.1969 17.7352 14.1674 17.5666C14.1379 17.3981 14.1717 17.225 14.2628 17.0777L16.8064 12.9335L15.8541 11.3775Z" fill="#69F0AE"/>
<path d="M17.9826 12.5817C18.042 12.4875 18.1261 12.4096 18.2267 12.3555C18.3272 12.3013 18.4408 12.2729 18.5564 12.2729C18.672 12.2729 18.7856 12.3013 18.8861 12.3555C18.9867 12.4096 19.0708 12.4875 19.1302 12.5817L21.9103 17.0731C22.165 17.4851 21.8471 18 21.3361 18H15.7775C15.2673 18 14.9486 17.4851 15.204 17.0731L17.9826 12.5817Z" fill="#97FF9A"/>
</svg>
