<svg width="24" height="25" viewBox="0 0 24 25" fill="none" xmlns="http://www.w3.org/2000/svg">
<path fill-rule="evenodd" clip-rule="evenodd" d="M5 4.5C3.34315 4.5 2 5.84315 2 7.5V17.5C2 19.1569 3.34315 20.5 5 20.5H13V18.5H5C4.44772 18.5 4 18.0523 4 17.5V7.5C4 6.94772 4.44772 6.5 5 6.5H7.78388C8.01539 6.5 8.23973 6.58033 8.41862 6.72727L10.8119 8.69318C11.3486 9.13402 12.0216 9.375 12.7161 9.375H19C19.5523 9.375 20 9.82272 20 10.375V10.5H22V10.375C22 8.71815 20.6569 7.375 19 7.375H12.7161C12.4846 7.375 12.2603 7.29467 12.0814 7.14773L9.6881 5.18182C9.15142 4.74098 8.47841 4.5 7.78388 4.5H5Z" fill="#64748B"/>
<path d="M20.3415 15.146C20.2269 15.0117 20.0868 14.8945 19.9563 14.7802C19.6221 14.5145 19.2401 14.3231 18.9218 14.0431C18.5605 13.7141 18.3239 13.2913 18.2456 12.8348C18.1673 12.3783 18.2513 11.9112 18.4856 11.5C18.0081 11.6029 17.5943 11.8343 17.2409 12.0857C16.6006 12.5469 16.1395 13.1783 15.9239 13.8893C15.7083 14.6003 15.7492 15.3543 16.0408 16.0432C16.0631 16.086 16.0822 16.1289 16.0822 16.1889C16.0822 16.286 16.0058 16.3775 15.9071 16.4118C15.7925 16.4575 15.6716 16.4289 15.5761 16.3575C15.2752 16.0356 15.083 15.6433 15.0221 15.2267C14.9612 14.8101 15.0341 14.3865 15.2323 14.0059C14.8181 14.323 14.4918 14.7222 14.2791 15.172C14.0664 15.6218 13.9731 16.1098 14.0067 16.5975C14.0385 16.8204 14.0671 17.0432 14.1531 17.2661C14.2199 17.5318 14.3568 17.7976 14.5064 18.0347C14.7796 18.4206 15.1434 18.7484 15.5722 18.9952C16.0011 19.2419 16.4847 19.4017 16.9895 19.4634C18.0559 19.5863 19.2019 19.412 20.0232 18.7548C20.4723 18.3962 20.7868 17.9216 20.9236 17.3963C21.0604 16.8709 21.0127 16.3204 20.7871 15.8203L20.7235 15.706C20.6184 15.5002 20.3383 15.1459 20.3383 15.1459M18.7593 17.9461C18.6161 18.0519 18.3869 18.1662 18.2086 18.2119C17.6484 18.389 17.0881 18.1404 16.757 17.8461C17.0107 17.7985 17.2443 17.6877 17.4312 17.5266C17.6181 17.3654 17.7507 17.1603 17.8139 16.9347C17.8967 16.5803 17.7375 16.286 17.6739 15.946C17.6033 15.6404 17.632 15.323 17.7566 15.0317C17.8521 15.1974 17.954 15.366 18.075 15.5003C18.457 15.946 19.0618 16.1403 19.1923 16.7461C19.2114 16.8061 19.2241 16.8689 19.2241 16.9346C19.2295 17.123 19.1909 17.3103 19.1109 17.4845C19.0308 17.6587 18.9111 17.8159 18.7593 17.9461Z" fill="#FF7043"/>
</svg>
