<svg width="24" height="25" viewBox="0 0 24 25" fill="none" xmlns="http://www.w3.org/2000/svg">
<path fill-rule="evenodd" clip-rule="evenodd" d="M5 4.5C3.34315 4.5 2 5.84315 2 7.5V17.5C2 19.1569 3.34315 20.5 5 20.5H13V18.5H5C4.44772 18.5 4 18.0523 4 17.5V7.5C4 6.94772 4.44772 6.5 5 6.5H7.78388C8.01539 6.5 8.23973 6.58033 8.41862 6.72727L10.8119 8.69318C11.3486 9.13402 12.0216 9.375 12.7161 9.375H19C19.5523 9.375 20 9.82272 20 10.375V10.5H22V10.375C22 8.71815 20.6569 7.375 19 7.375H12.7161C12.4846 7.375 12.2603 7.29467 12.0814 7.14773L9.6881 5.18182C9.15142 4.74098 8.47841 4.5 7.78388 4.5H5Z" fill="#64748B"/>
<path fill-rule="evenodd" clip-rule="evenodd" d="M18 11.5C16.9391 11.5004 15.9218 11.922 15.1717 12.6721C14.4216 13.4223 14.0002 14.4396 14 15.5003C14.0004 16.561 14.4219 17.5781 15.172 18.3281C15.922 19.0781 16.9392 19.4996 18 19.5C19.0608 19.4996 20.078 19.0781 20.828 18.3281C21.5781 17.5781 21.9996 16.561 22 15.5003C21.9998 14.4397 21.5785 13.4225 20.8285 12.6723C20.0786 11.9222 19.0608 11.5005 18 11.5ZM18 18.6991C17.5797 18.6993 17.1635 18.6167 16.7752 18.456C16.3869 18.2952 16.034 18.0596 15.7368 17.7625C15.4396 17.4653 15.2039 17.1126 15.043 16.7243C14.8822 16.336 14.7995 15.9199 14.7996 15.4997C14.7996 14.7594 15.052 14.0796 15.476 13.5399L19.96 18.0234C19.4013 18.4628 18.7108 18.7004 18 18.6991ZM20.524 17.4595L16.04 12.9759C16.5987 12.5365 17.2892 12.2983 18 12.2995C18.4203 12.2994 18.8365 12.3822 19.2247 12.543C19.613 12.7038 19.9658 12.9395 20.263 13.2367C20.5601 13.5339 20.7958 13.8867 20.9565 14.275C21.1173 14.6633 21.1999 15.0794 21.1997 15.4997C21.1997 16.24 20.948 16.9197 20.524 17.4595Z" fill="#FF7C7C" stroke="#FF7C7C"/>
</svg>
