<svg width="24" height="24" viewBox="0 0 24 24" fill="none" xmlns="http://www.w3.org/2000/svg">
<path fill-rule="evenodd" clip-rule="evenodd" d="M5 4C3.34315 4 2 5.34315 2 7V17C2 18.6569 3.34315 20 5 20H12V18H5C4.44772 18 4 17.5523 4 17V7C4 6.44772 4.44772 6 5 6H7.78388C8.01539 6 8.23973 6.08033 8.41862 6.22727L10.8119 8.19318C11.3486 8.63402 12.0216 8.875 12.7161 8.875H19C19.5523 8.875 20 9.32272 20 9.875V10H22V9.875C22 8.21815 20.6569 6.875 19 6.875H12.7161C12.4846 6.875 12.2603 6.79467 12.0814 6.64773L9.6881 4.68182C9.15142 4.24098 8.47841 4 7.78388 4H5Z" fill="#64748B"/>
<path d="M15.9329 12.1818H17.1488V16.2386C17.1488 16.6136 17.0645 16.9394 16.896 17.2159C16.7293 17.4924 16.4973 17.7055 16.1999 17.8551C15.9026 18.0047 15.5569 18.0795 15.163 18.0795C14.8126 18.0795 14.4944 18.018 14.2085 17.8949C13.9244 17.7699 13.699 17.5805 13.5323 17.3267C13.3656 17.071 13.2833 16.75 13.2852 16.3636H14.5096C14.5134 16.517 14.5446 16.6487 14.6033 16.7585C14.6639 16.8665 14.7463 16.9498 14.8505 17.0085C14.9566 17.0653 15.0816 17.0938 15.2255 17.0938C15.377 17.0938 15.5049 17.0616 15.609 16.9972C15.7151 16.9309 15.7956 16.8343 15.8505 16.7074C15.9054 16.5805 15.9329 16.4242 15.9329 16.2386V12.1818ZM21.3221 13.8551C21.2994 13.6259 21.2018 13.4479 21.0295 13.321C20.8571 13.1941 20.6232 13.1307 20.3278 13.1307C20.127 13.1307 19.9575 13.1591 19.8192 13.2159C19.681 13.2708 19.5749 13.3475 19.5011 13.446C19.4291 13.5445 19.3931 13.6562 19.3931 13.7812C19.3893 13.8854 19.4111 13.9763 19.4585 14.054C19.5077 14.1316 19.5749 14.1989 19.6602 14.2557C19.7454 14.3106 19.8439 14.3589 19.9556 14.4006C20.0674 14.4403 20.1867 14.4744 20.3136 14.5028L20.8363 14.6278C21.0901 14.6847 21.323 14.7604 21.5352 14.8551C21.7473 14.9498 21.931 15.0663 22.0863 15.2045C22.2416 15.3428 22.3619 15.5057 22.4471 15.6932C22.5342 15.8807 22.5787 16.0956 22.5806 16.3381C22.5787 16.6941 22.4878 17.0028 22.3079 17.2642C22.1299 17.5237 21.8723 17.7254 21.5352 17.8693C21.1999 18.0114 20.7956 18.0824 20.3221 18.0824C19.8524 18.0824 19.4433 18.0104 19.0948 17.8665C18.7482 17.7225 18.4774 17.5095 18.2823 17.2273C18.0891 16.9432 17.9878 16.5919 17.9783 16.1733H19.1687C19.1819 16.3684 19.2378 16.5312 19.3363 16.6619C19.4367 16.7907 19.5702 16.8883 19.7369 16.9545C19.9054 17.0189 20.0958 17.0511 20.3079 17.0511C20.5162 17.0511 20.6971 17.0208 20.8505 16.9602C21.0058 16.8996 21.1261 16.8153 21.2113 16.7074C21.2965 16.5994 21.3391 16.4754 21.3391 16.3352C21.3391 16.2045 21.3003 16.0947 21.2227 16.0057C21.1469 15.9167 21.0352 15.8409 20.8874 15.7784C20.7416 15.7159 20.5626 15.6591 20.3505 15.608L19.717 15.4489C19.2264 15.3295 18.8391 15.143 18.555 14.8892C18.271 14.6354 18.1299 14.2936 18.1317 13.8636C18.1299 13.5114 18.2236 13.2036 18.413 12.9403C18.6043 12.6771 18.8666 12.4716 19.1999 12.3239C19.5333 12.1761 19.9121 12.1023 20.3363 12.1023C20.7681 12.1023 21.145 12.1761 21.467 12.3239C21.7908 12.4716 22.0427 12.6771 22.2227 12.9403C22.4026 13.2036 22.4954 13.5085 22.5011 13.8551H21.3221Z" fill="#FFCE50"/>
</svg>
