<svg width="24" height="25" viewBox="0 0 24 25" fill="none" xmlns="http://www.w3.org/2000/svg">
<path fill-rule="evenodd" clip-rule="evenodd" d="M5 4.5C3.34315 4.5 2 5.84315 2 7.5V17.5C2 19.1569 3.34315 20.5 5 20.5H13V18.5H5C4.44772 18.5 4 18.0523 4 17.5V7.5C4 6.94772 4.44772 6.5 5 6.5H7.78388C8.01539 6.5 8.23973 6.58033 8.41862 6.72727L10.8119 8.69318C11.3486 9.13402 12.0216 9.375 12.7161 9.375H19C19.5523 9.375 20 9.82272 20 10.375V10.5H22V10.375C22 8.71815 20.6569 7.375 19 7.375H12.7161C12.4846 7.375 12.2603 7.29467 12.0814 7.14773L9.6881 5.18182C9.15142 4.74098 8.47841 4.5 7.78388 4.5H5Z" fill="#64748B"/>
<path d="M18 19.5C17.4533 19.5 16.9367 19.3949 16.45 19.1848C15.9634 18.9749 15.5384 18.6882 15.1752 18.3248C14.8117 17.9616 14.525 17.5367 14.3152 17.05C14.1051 16.5633 14 16.0466 14 15.5C14 14.9467 14.1051 14.4284 14.3152 13.9452C14.525 13.4618 14.8118 13.0384 15.1752 12.6752C15.5384 12.3117 15.9633 12.0249 16.45 11.8148C16.9367 11.6049 17.4534 11.5 18 11.5C18.5534 11.5 19.0716 11.6049 19.5548 11.8148C20.0382 12.0249 20.4616 12.3117 20.8248 12.6752C21.1883 13.0384 21.475 13.4618 21.6848 13.9452C21.8949 14.4284 22 14.9467 22 15.5V16.08C22 16.4733 21.8651 16.8083 21.5952 17.0848C21.325 17.3616 20.9933 17.5 20.6 17.5C20.36 17.5 20.1367 17.4466 19.93 17.34C19.7233 17.2333 19.5533 17.0934 19.42 16.92C19.24 17.1 19.0284 17.2417 18.7852 17.3452C18.5417 17.4484 18.28 17.5 18 17.5C17.4466 17.5 16.975 17.3049 16.5851 16.9148C16.195 16.525 15.9999 16.0534 15.9999 15.5C15.9999 14.9466 16.195 14.4749 16.5851 14.0848C16.975 13.6948 17.4466 13.4999 18 13.4999C18.5533 13.4999 19.0251 13.6948 19.4152 14.0848C19.805 14.4749 20 14.9466 20 15.5V16.0799C20 16.2733 20.06 16.4249 20.18 16.5347C20.3 16.6449 20.44 16.7 20.6 16.7C20.76 16.7 20.9 16.6449 21.02 16.5347C21.14 16.4249 21.2 16.2733 21.2 16.0799V15.5C21.2 14.6266 20.8849 13.8749 20.2548 13.2448C19.6249 12.6148 18.8733 12.2999 18 12.2999C17.1266 12.2999 16.3749 12.6148 15.7447 13.2448C15.1149 13.8749 14.7999 14.6266 14.7999 15.5C14.7999 16.3733 15.1149 17.1249 15.7447 17.7548C16.3749 18.3849 17.1266 18.7 18 18.7H20V19.5L18 19.5ZM18 16.7C18.3333 16.7 18.6167 16.5833 18.85 16.35C19.0834 16.1166 19.2 15.8333 19.2 15.5C19.2 15.1666 19.0834 14.8833 18.85 14.65C18.6167 14.4166 18.3333 14.3 18 14.3C17.6667 14.3 17.3833 14.4166 17.15 14.65C16.9167 14.8833 16.8 15.1666 16.8 15.5C16.8 15.8333 16.9167 16.1167 17.15 16.35C17.3833 16.5833 17.6667 16.7 18 16.7Z" fill="#F472B6"/>
</svg>
