<svg width="24" height="25" viewBox="0 0 24 25" fill="none" xmlns="http://www.w3.org/2000/svg">
<path fill-rule="evenodd" clip-rule="evenodd" d="M5 4.5C3.34315 4.5 2 5.84315 2 7.5V17.5C2 19.1569 3.34315 20.5 5 20.5H13V18.5H5C4.44772 18.5 4 18.0523 4 17.5V7.5C4 6.94772 4.44772 6.5 5 6.5H7.78388C8.01539 6.5 8.23973 6.58033 8.41862 6.72727L10.8119 8.69318C11.3486 9.13402 12.0216 9.375 12.7161 9.375H19C19.5523 9.375 20 9.82272 20 10.375V10.5H22V10.375C22 8.71815 20.6569 7.375 19 7.375H12.7161C12.4846 7.375 12.2603 7.29467 12.0814 7.14773L9.6881 5.18182C9.15142 4.74098 8.47841 4.5 7.78388 4.5H5Z" fill="#64748B"/>
<path fill-rule="evenodd" clip-rule="evenodd" d="M14.9524 15.3095H15.5237V13.7852C15.5237 13.3626 15.8663 13.0237 16.2858 13.0237H17.8095V12.4524C17.8095 12.1998 17.9098 11.9575 18.0884 11.7789C18.267 11.6003 18.5092 11.5 18.7618 11.5C19.0144 11.5 19.2567 11.6003 19.4353 11.7789C19.6139 11.9575 19.7142 12.1998 19.7142 12.4524V13.0237H21.2379C21.3379 13.0237 21.4371 13.0434 21.5295 13.0817C21.622 13.12 21.706 13.1761 21.7768 13.2469C21.8475 13.3177 21.9037 13.4017 21.942 13.4941C21.9803 13.5866 22 13.6857 22 13.7858V15.2333H21.4281C20.8568 15.2333 20.3995 15.6905 20.3995 16.2618C20.3995 16.8331 20.8568 17.2904 21.4281 17.2904H21.9994V18.7379C21.9994 18.94 21.9191 19.1338 21.7762 19.2768C21.6332 19.4197 21.4394 19.5 21.2372 19.5H19.7904V18.9281C19.7904 18.3568 19.3331 17.8995 18.7618 17.8995C18.1899 17.8995 17.7333 18.3568 17.7333 18.9281V19.4994H16.2858C16.0837 19.4994 15.8898 19.4191 15.7469 19.2762C15.604 19.1332 15.5237 18.9394 15.5237 18.7372V17.2148H14.9524C14.6998 17.2148 14.4575 17.1145 14.2789 16.9359C14.1003 16.7573 14 16.515 14 16.2625C14 16.0099 14.1003 15.7676 14.2789 15.589C14.4575 15.4104 14.6998 15.3101 14.9524 15.3101V15.3095Z" fill="#8CDBFF"/>
</svg>
