<svg width="24" height="24" viewBox="0 0 24 24" fill="none" xmlns="http://www.w3.org/2000/svg">
<path fill-rule="evenodd" clip-rule="evenodd" d="M5 4C3.34315 4 2 5.34315 2 7V17C2 18.6569 3.34315 20 5 20H13V18H5C4.44772 18 4 17.5523 4 17V7C4 6.44772 4.44772 6 5 6H7.78388C8.01539 6 8.23973 6.08033 8.41862 6.22727L10.8119 8.19318C11.3486 8.63402 12.0216 8.875 12.7161 8.875H19C19.5523 8.875 20 9.32272 20 9.875V10H22V9.875C22 8.21815 20.6569 6.875 19 6.875H12.7161C12.4846 6.875 12.2603 6.79467 12.0814 6.64773L9.6881 4.68182C9.15142 4.24098 8.47841 4 7.78388 4H5Z" fill="#64748B"/>
<path fill-rule="evenodd" clip-rule="evenodd" d="M22 15.8006H21.2001V16.6006H18.8005V15.4006H19.6004V14.6006H18.8005V12.6006C18.8005 12.4956 18.7798 12.3915 18.7396 12.2945C18.6994 12.1974 18.6405 12.1092 18.5662 12.0349C18.4919 11.9606 18.4038 11.9017 18.3067 11.8615C18.2097 11.8213 18.1057 11.8006 18.0006 11.8006H14.7999V11H14V14.2H14.7999V13.4H17.1995V14.6H16.3996V15.4H17.1995V17.4C17.1995 17.5051 17.2202 17.6092 17.2604 17.7063C17.3007 17.8034 17.3597 17.8916 17.434 17.9659C17.5083 18.0402 17.5966 18.0991 17.6937 18.1393C17.7908 18.1794 17.8949 18.2001 18 18.2H21.1995V19H21.9994" fill="#8CDBFF"/>
</svg>
