<svg width="24" height="24" viewBox="0 0 24 24" fill="none" xmlns="http://www.w3.org/2000/svg">
<path fill-rule="evenodd" clip-rule="evenodd" d="M5 4C3.34315 4 2 5.34315 2 7V17C2 18.6569 3.34315 20 5 20H13V18H5C4.44772 18 4 17.5523 4 17V7C4 6.44772 4.44772 6 5 6H7.78388C8.01539 6 8.23973 6.08033 8.41862 6.22727L10.8119 8.19318C11.3486 8.63402 12.0216 8.875 12.7161 8.875H19C19.5523 8.875 20 9.32272 20 9.875V10H22V9.875C22 8.21815 20.6569 6.875 19 6.875H12.7161C12.4846 6.875 12.2603 6.79467 12.0814 6.64773L9.6881 4.68182C9.15142 4.24098 8.47841 4 7.78388 4H5Z" fill="#64748B"/>
<path d="M18.8 18.1997C19.2386 18.1997 19.6003 17.8386 19.6003 17.4V12.2002H16.8002C16.694 12.2005 16.5924 12.2428 16.5173 12.3178C16.4423 12.3929 16.4 12.4945 16.3997 12.6006V16.6003H15.2002V12.2002C15.2002 11.5416 15.7418 11 16.4003 11H20.7998C21.4584 11 22 11.5416 22 12.2002V12.6006H20.4V17.8005C20.3985 18.1183 20.2715 18.4226 20.0468 18.6472C19.822 18.8719 19.5176 18.9987 19.1998 19H15.2002C14.8823 18.9987 14.5778 18.8718 14.353 18.647C14.1282 18.4222 14.0013 18.1177 14 17.7998V17.4H18.0003C18.0003 17.8386 18.3614 18.1997 18.8 18.1997Z" fill="#CFD8DC"/>
</svg>
