<svg width="24" height="25" viewBox="0 0 24 25" fill="none" xmlns="http://www.w3.org/2000/svg">
<path fill-rule="evenodd" clip-rule="evenodd" d="M5 4.5C3.34315 4.5 2 5.84315 2 7.5V17.5C2 19.1569 3.34315 20.5 5 20.5H13V18.5H5C4.44772 18.5 4 18.0523 4 17.5V7.5C4 6.94772 4.44772 6.5 5 6.5H7.78388C8.01539 6.5 8.23973 6.58033 8.41862 6.72727L10.8119 8.69318C11.3486 9.13402 12.0216 9.375 12.7161 9.375H19C19.5523 9.375 20 9.82272 20 10.375V10.5H22V10.375C22 8.71815 20.6569 7.375 19 7.375H12.7161C12.4846 7.375 12.2603 7.29467 12.0814 7.14773L9.6881 5.18182C9.15142 4.74098 8.47841 4.5 7.78388 4.5H5Z" fill="#64748B"/>
<path fill-rule="evenodd" clip-rule="evenodd" d="M15.7354 11.5V11.5009C15.6504 11.5004 15.5655 11.5002 15.4805 11.5003C15.1769 11.498 14.9228 11.6385 14.7017 11.785C14.4605 11.9455 14.254 12.1549 14.1893 12.4354C14.1525 12.5999 14.1603 12.7437 14.1603 12.8873V14.0194C14.1603 14.4191 13.9847 14.7161 13.7464 14.9105C13.6122 15.0231 13.3258 15.1259 13 15.2188V15.7302C13.2887 15.7976 13.5667 15.8888 13.7209 16.0047C13.976 16.1935 14.16 16.4653 14.16 16.8202V18.1422C14.16 18.5814 14.2837 18.916 14.6437 19.1455C15.0037 19.3748 15.4232 19.4889 15.9023 19.5L16.2229 19.4982V18.839C15.9728 18.777 15.8338 18.7051 15.7337 18.6237C15.5534 18.4855 15.4513 18.2609 15.4513 17.9491V16.8816C15.4445 16.5185 15.3753 16.2345 15.2192 16.029C15.063 15.824 14.7583 15.6442 14.305 15.4893C14.8053 15.2951 15.141 15.0421 15.3122 14.7299C15.4131 14.5442 15.4514 14.2939 15.4514 13.979V13.0002C15.4514 12.6769 15.54 12.4504 15.6935 12.321C15.7768 12.2508 15.9249 12.193 16.1307 12.1462L16.4562 12.1481V11.5H15.7354ZM19.2646 11.5V11.5009C19.3496 11.5004 19.4345 11.5002 19.5195 11.5003C19.8231 11.498 20.0772 11.6385 20.2983 11.785C20.5395 11.9455 20.746 12.1549 20.8107 12.4354C20.8475 12.5999 20.8397 12.7437 20.8397 12.8873V14.0194C20.8397 14.4191 21.0153 14.7161 21.2536 14.9105C21.3878 15.0231 21.6742 15.1259 22 15.2188V15.7302C21.7113 15.7976 21.4333 15.8888 21.2791 16.0047C21.0239 16.1935 20.84 16.4653 20.84 16.8202V18.1422C20.84 18.5814 20.7163 18.916 20.3563 19.1455C19.9963 19.3748 19.5768 19.4889 19.0977 19.5L18.7771 19.4982V18.839C19.0272 18.777 19.1661 18.7051 19.2663 18.6237C19.4465 18.4855 19.5486 18.2609 19.5486 17.9491V16.8816C19.5555 16.5185 19.6247 16.2345 19.7808 16.029C19.9369 15.824 20.2416 15.6441 20.695 15.4893C20.1947 15.2951 19.8589 15.0421 19.6877 14.7299C19.5869 14.5442 19.5486 14.2939 19.5486 13.979V13.0002C19.5486 12.6769 19.46 12.4504 19.3065 12.321C19.2232 12.2508 19.075 12.193 18.8692 12.1462L18.5438 12.1481V11.5H19.2646Z" fill="#8CDBFF"/>
</svg>
