<svg width="24" height="24" viewBox="0 0 24 24" fill="none" xmlns="http://www.w3.org/2000/svg">
<path fill-rule="evenodd" clip-rule="evenodd" d="M5 4C3.34315 4 2 5.34315 2 7V17C2 18.6569 3.34315 20 5 20H12V18H5C4.44772 18 4 17.5523 4 17V7C4 6.44772 4.44772 6 5 6H7.78388C8.01539 6 8.23973 6.08033 8.41862 6.22727L10.8119 8.19318C11.3486 8.63402 12.0216 8.875 12.7161 8.875H19C19.5523 8.875 20 9.32272 20 9.875V10H22V9.875C22 8.21815 20.6569 6.875 19 6.875H12.7161C12.4846 6.875 12.2603 6.79467 12.0814 6.64773L9.6881 4.68182C9.15142 4.24098 8.47841 4 7.78388 4H5Z" fill="#64748B"/>
<path fill-rule="evenodd" clip-rule="evenodd" d="M22 13.6669V12.7775H21.1V11.8887C21.1 11.4 20.695 11 20.2 11H13.9C13.405 11 13 11.4 13 11.8887V18.1113C13 18.6 13.405 19 13.9 19H20.2C20.695 19 21.1 18.6 21.1 18.1113V17.2225H22V16.3331H21.1V15.4444H22V14.5564H21.1V13.6676L22 13.6669ZM20.2 18.1105H13.9V11.8887H20.2V18.1105ZM14.8 15.4444H17.05V17.2225H14.8V15.4444ZM17.5 12.7775H19.3V14.1113H17.5V12.7775ZM14.8 12.7775H17.05V15H14.8V12.7775ZM17.5 14.5556H19.3V17.2225H17.5V14.5556Z" fill="#FF7043"/>
</svg>
