<svg width="24" height="24" viewBox="0 0 24 24" fill="none" xmlns="http://www.w3.org/2000/svg">
<path fill-rule="evenodd" clip-rule="evenodd" d="M5 4C3.34315 4 2 5.34315 2 7V17C2 18.6569 3.34315 20 5 20H13V18H5C4.44772 18 4 17.5523 4 17V7C4 6.44772 4.44772 6 5 6H7.78388C8.01539 6 8.23973 6.08033 8.41862 6.22727L10.8119 8.19318C11.3486 8.63402 12.0216 8.875 12.7161 8.875H19C19.5523 8.875 20 9.32272 20 9.875V10H22V9.875C22 8.21815 20.6569 6.875 19 6.875H12.7161C12.4846 6.875 12.2603 6.79467 12.0814 6.64773L9.6881 4.68182C9.15142 4.24098 8.47841 4 7.78388 4H5Z" fill="#64748B"/>
<path fill-rule="evenodd" clip-rule="evenodd" d="M21.8001 11.9865L21.1826 11.2401C21.1194 11.1647 21.0403 11.104 20.951 11.0625C20.8617 11.021 20.7643 10.9997 20.6658 11H15.3335C15.2352 10.9992 15.138 11.0207 15.0493 11.063C14.9606 11.1054 14.8827 11.1674 14.8216 11.2443L14.2042 11.9865C14.0713 12.1461 13.999 12.3476 14 12.5554V18.1107C14 18.6001 14.3957 19 14.8885 19H21.1108C21.5994 19 22 18.6001 22 18.1114V12.5561C22 12.3378 21.924 12.1421 21.8001 11.9858V11.9865ZM17.9997 13.8882L20.4441 16.3329H18.8889V17.2221H17.1105V16.3329H15.5552L17.9997 13.8882ZM14.9427 11.8886L15.3067 11.445H20.6405L21.0538 11.8886H14.9427Z" fill="#89FF8D"/>
</svg>
