<svg width="24" height="25" viewBox="0 0 24 25" fill="none" xmlns="http://www.w3.org/2000/svg">
<path fill-rule="evenodd" clip-rule="evenodd" d="M5 4.5C3.34315 4.5 2 5.84315 2 7.5V17.5C2 19.1569 3.34315 20.5 5 20.5H13V18.5H5C4.44772 18.5 4 18.0523 4 17.5V7.5C4 6.94772 4.44772 6.5 5 6.5H7.78388C8.01539 6.5 8.23973 6.58033 8.41862 6.72727L10.8119 8.69318C11.3486 9.13402 12.0216 9.375 12.7161 9.375H19C19.5523 9.375 20 9.82272 20 10.375V10.5H22V10.375C22 8.71815 20.6569 7.375 19 7.375H12.7161C12.4846 7.375 12.2603 7.29467 12.0814 7.14773L9.6881 5.18182C9.15142 4.74098 8.47841 4.5 7.78388 4.5H5Z" fill="#64748B"/>
<path fill-rule="evenodd" clip-rule="evenodd" d="M17.3774 16.8333H18.2935L16.0542 11.5H15.2394L13 16.8333H13.9162L14.4068 15.6029H16.8775L17.3774 16.8333ZM14.7395 14.7812L15.6464 12.5174L16.5533 14.7812H14.7395ZM21.3825 15.0239L17.8385 18.3428L16.2306 16.8333L15.6116 17.4116L17.8424 19.5L22 15.6029L21.3825 15.0239Z" fill="#FF7C7C"/>
</svg>
