<svg width="24" height="24" viewBox="0 0 24 24" fill="none" xmlns="http://www.w3.org/2000/svg">
<path fill-rule="evenodd" clip-rule="evenodd" d="M5 4C3.34315 4 2 5.34315 2 7V17C2 18.6569 3.34315 20 5 20H13V18H5C4.44772 18 4 17.5523 4 17V7C4 6.44772 4.44772 6 5 6H7.78388C8.01539 6 8.23973 6.08033 8.41862 6.22727L10.8119 8.19318C11.3486 8.63402 12.0216 8.875 12.7161 8.875H19C19.5523 8.875 20 9.32272 20 9.875V10H22V9.875C22 8.21815 20.6569 6.875 19 6.875H12.7161C12.4846 6.875 12.2603 6.79467 12.0814 6.64773L9.6881 4.68182C9.15142 4.24098 8.47841 4 7.78388 4H5Z" fill="#64748B"/>
<path fill-rule="evenodd" clip-rule="evenodd" d="M18 11C15.7899 11 14 11.7956 14 12.7779C14 13.7603 15.7899 14.5558 18 14.5558C20.2101 14.5558 22 13.7603 22 12.7779C22 11.7956 20.2101 11 18 11ZM14 13.6669V15.0003C14 15.9826 15.7899 16.7782 18 16.7782C20.2101 16.7782 22 15.9826 22 15.0003V13.6669C22 14.6492 20.2101 15.4448 18 15.4448C15.7899 15.4448 14 14.6492 14 13.6669ZM14 15.8893V17.2227C14 18.2044 15.7899 19 18 19C20.2101 19 22 18.2044 22 17.2221V15.8893C22 16.8716 20.2101 17.6672 18 17.6672C15.7899 17.6672 14 16.8716 14 15.8893Z" fill="#FFCE50"/>
</svg>
