<svg width="24" height="24" viewBox="0 0 24 24" fill="none" xmlns="http://www.w3.org/2000/svg">
<path fill-rule="evenodd" clip-rule="evenodd" d="M5 4C3.34315 4 2 5.34315 2 7V17C2 18.6569 3.34315 20 5 20H13V18H5C4.44772 18 4 17.5523 4 17V7C4 6.44772 4.44772 6 5 6H7.78388C8.01539 6 8.23973 6.08033 8.41862 6.22727L10.8119 8.19318C11.3486 8.63402 12.0216 8.875 12.7161 8.875H19C19.5523 8.875 20 9.32272 20 9.875V10H22V9.875C22 8.21815 20.6569 6.875 19 6.875H12.7161C12.4846 6.875 12.2603 6.79467 12.0814 6.64773L9.6881 4.68182C9.15142 4.24098 8.47841 4 7.78388 4H5Z" fill="#64748B"/>
<path fill-rule="evenodd" clip-rule="evenodd" d="M18 11C16.9391 11 15.9217 11.4215 15.1716 12.1718C14.4214 12.922 14 13.9396 14 15.0007C14.0003 16.0615 14.4219 17.0787 15.172 17.8287C15.9221 18.5787 16.9394 19 18 19C18.5253 19 19.0454 18.8965 19.5307 18.6955C20.016 18.4944 20.457 18.1997 20.8284 17.8282C21.1999 17.4567 21.4945 17.0157 21.6955 16.5303C21.8965 16.0449 22 15.5247 22 14.9993C21.9993 14.5367 21.9166 14.0779 21.7556 13.6442L21.115 14.2842C21.1712 14.5195 21.2 14.7601 21.2 15C21.2 15.4203 21.1172 15.8364 20.9564 16.2247C20.7956 16.613 20.5599 16.9657 20.2627 17.2629C19.9655 17.56 19.6128 17.7957 19.2245 17.9565C18.8363 18.1173 18.4202 18.2 18 18.1999C17.1515 18.1999 16.3377 17.8627 15.7377 17.2626C15.1377 16.6626 14.8007 15.8487 14.8007 15C14.8007 14.1513 15.1377 13.3374 15.7377 12.7374C16.3377 12.1373 17.1515 11.8001 18 11.8001C18.2405 11.8001 18.4797 11.8282 18.7157 11.8845L19.3601 11.2406C18.9241 11.083 18.4636 11.0016 18 11ZM20.7993 11L19.2 12.6003V13.2004L18.1791 14.2201C18.1196 14.2005 18.0595 14.2005 17.9993 14.2005C17.8943 14.2005 17.7903 14.2212 17.6933 14.2614C17.5963 14.3017 17.5081 14.3606 17.4339 14.4349C17.3597 14.5092 17.3008 14.5974 17.2607 14.6945C17.2205 14.7916 17.1999 14.8956 17.2 15.0007C17.2 15.2127 17.2842 15.416 17.4341 15.566C17.584 15.7159 17.7873 15.8001 17.9993 15.8001C18.1044 15.8002 18.2084 15.7796 18.3054 15.7395C18.4025 15.6993 18.4907 15.6404 18.565 15.5662C18.6393 15.492 18.6982 15.4038 18.7384 15.3068C18.7786 15.2097 18.7993 15.1057 18.7993 15.0007C18.7993 14.9399 18.7993 14.8797 18.7797 14.8196L19.7993 13.7998H20.3993L21.9987 12.2002H20.7987L20.7993 11ZM17.9993 12.6003C17.3633 12.6006 16.7534 12.8535 16.3036 13.3033C15.8538 13.7532 15.601 14.3632 15.6007 14.9993C15.6007 15.6357 15.8533 16.2461 16.3031 16.6962C16.7529 17.1463 17.3631 17.3994 17.9993 17.3997C18.6358 17.3997 19.2461 17.1469 19.6962 16.6969C20.1462 16.2469 20.3992 15.6365 20.3993 15H19.5993C19.5993 15.2101 19.558 15.4182 19.4775 15.6123C19.3971 15.8064 19.2793 15.9828 19.1307 16.1313C18.9821 16.2799 18.8057 16.3977 18.6116 16.478C18.4175 16.5584 18.2094 16.5997 17.9993 16.5996C17.5752 16.5996 17.1684 16.4311 16.8684 16.1311C16.5685 15.8311 16.4 15.4242 16.4 15C16.3999 14.7899 16.4412 14.5818 16.5216 14.3877C16.6019 14.1935 16.7197 14.0171 16.8682 13.8685C17.0167 13.7199 17.1931 13.602 17.3872 13.5216C17.5812 13.4411 17.7893 13.3997 17.9993 13.3997V12.6003Z" fill="#CFD8DC"/>
</svg>
