<svg width="24" height="25" viewBox="0 0 24 25" fill="none" xmlns="http://www.w3.org/2000/svg">
<path fill-rule="evenodd" clip-rule="evenodd" d="M5 4.5C3.34315 4.5 2 5.84315 2 7.5V17.5C2 19.1569 3.34315 20.5 5 20.5H13V18.5H5C4.44772 18.5 4 18.0523 4 17.5V7.5C4 6.94772 4.44772 6.5 5 6.5H7.78388C8.01539 6.5 8.23973 6.58033 8.41862 6.72727L10.8119 8.69318C11.3486 9.13402 12.0216 9.375 12.7161 9.375H19C19.5523 9.375 20 9.82272 20 10.375V10.5H22V10.375C22 8.71815 20.6569 7.375 19 7.375H12.7161C12.4846 7.375 12.2603 7.29467 12.0814 7.14773L9.6881 5.18182C9.15142 4.74098 8.47841 4.5 7.78388 4.5H5Z" fill="#64748B"/>
<path d="M23.1507 14.8299C23.0866 14.8796 21.9545 15.5175 21.9545 16.9359C21.9545 18.5764 23.395 19.1568 23.4381 19.1712C23.4315 19.2066 23.2093 19.9661 22.6786 20.7399C22.2055 21.4209 21.7113 22.1008 20.9595 22.1008C20.2078 22.1008 20.0143 21.6642 19.1465 21.6642C18.3008 21.6642 18.0001 22.1152 17.3125 22.1152C16.6248 22.1152 16.145 21.4851 15.5934 20.7112C14.9544 19.8025 14.4381 18.3907 14.4381 17.0508C14.4381 14.9017 15.8355 13.7619 17.2107 13.7619C17.9415 13.7619 18.5506 14.2417 19.0094 14.2417C19.4461 14.2417 20.1271 13.7332 20.9584 13.7332C21.2735 13.7332 22.4056 13.7619 23.1507 14.8299ZM20.5638 12.8233C20.9076 12.4154 21.1508 11.8494 21.1508 11.2834C21.1508 11.2049 21.1442 11.1253 21.1298 11.0612C20.5704 11.0822 19.9049 11.4337 19.5036 11.8991C19.1885 12.2573 18.8944 12.8233 18.8944 13.3971C18.8944 13.4833 18.9088 13.5696 18.9154 13.5972C18.9508 13.6038 19.0083 13.6116 19.0658 13.6116C19.5677 13.6116 20.199 13.2755 20.5638 12.8233Z" fill="#CFD8DC"/>
</svg>
