<svg width="24" height="25" viewBox="0 0 24 25" fill="none" xmlns="http://www.w3.org/2000/svg">
<path fill-rule="evenodd" clip-rule="evenodd" d="M5 4.5C3.34315 4.5 2 5.84315 2 7.5V17.5C2 19.1569 3.34315 20.5 5 20.5H13V18.5H5C4.44772 18.5 4 18.0523 4 17.5V7.5C4 6.94772 4.44772 6.5 5 6.5H7.78388C8.01539 6.5 8.23973 6.58033 8.41862 6.72727L10.8119 8.69318C11.3486 9.13402 12.0216 9.375 12.7161 9.375H19C19.5523 9.375 20 9.82272 20 10.375V10.5H22V10.375C22 8.71815 20.6569 7.375 19 7.375H12.7161C12.4846 7.375 12.2603 7.29467 12.0814 7.14773L9.6881 5.18182C9.15142 4.74098 8.47841 4.5 7.78388 4.5H5Z" fill="#64748B"/>
<path d="M18.8 18.6997C19.2386 18.6997 19.6003 18.3386 19.6003 17.9V12.7002H16.8002C16.694 12.7005 16.5924 12.7428 16.5173 12.8178C16.4423 12.8929 16.4 12.9945 16.3997 13.1006V17.1003H15.2002V12.7002C15.2002 12.0416 15.7418 11.5 16.4003 11.5H20.7998C21.4584 11.5 22 12.0416 22 12.7002V13.1006H20.4V18.3005C20.3985 18.6183 20.2715 18.9226 20.0468 19.1472C19.822 19.3719 19.5176 19.4987 19.1998 19.5H15.2002C14.8823 19.4987 14.5778 19.3718 14.353 19.147C14.1282 18.9222 14.0013 18.6177 14 18.2998V17.9H18.0003C18.0003 18.3386 18.3614 18.6997 18.8 18.6997Z" fill="#CFD8DC"/>
</svg>
