<svg width="24" height="25" viewBox="0 0 24 25" fill="none" xmlns="http://www.w3.org/2000/svg">
<path fill-rule="evenodd" clip-rule="evenodd" d="M5 4.5C3.34315 4.5 2 5.84315 2 7.5V17.5C2 19.1569 3.34315 20.5 5 20.5H13V18.5H5C4.44772 18.5 4 18.0523 4 17.5V7.5C4 6.94772 4.44772 6.5 5 6.5H7.78388C8.01539 6.5 8.23973 6.58033 8.41862 6.72727L10.8119 8.69318C11.3486 9.13402 12.0216 9.375 12.7161 9.375H19C19.5523 9.375 20 9.82272 20 10.375V10.5H22V10.375C22 8.71815 20.6569 7.375 19 7.375H12.7161C12.4846 7.375 12.2603 7.29467 12.0814 7.14773L9.6881 5.18182C9.15142 4.74098 8.47841 4.5 7.78388 4.5H5Z" fill="#64748B"/>
<path fill-rule="evenodd" clip-rule="evenodd" d="M20.3599 17.656C20.3081 17.495 20.2066 17.3545 20.0702 17.2546C19.9337 17.1547 19.7691 17.1005 19.6 17.0998H19.1997V15.9C19.1998 15.8475 19.1895 15.7954 19.1694 15.7469C19.1494 15.6983 19.12 15.6542 19.0828 15.617C19.0457 15.5798 19.0016 15.5503 18.9531 15.5302C18.9046 15.51 18.8525 15.4997 18.8 15.4997H16.4007V14.6996H17.2C17.2525 14.6997 17.3046 14.6894 17.3532 14.6694C17.4017 14.6493 17.4459 14.6199 17.483 14.5828C17.5202 14.5456 17.5497 14.5016 17.5698 14.453C17.59 14.4045 17.6003 14.3524 17.6003 14.2999V13.4998H18.4003C18.6124 13.4997 18.8157 13.4153 18.9656 13.2653C19.1155 13.1152 19.1997 12.9118 19.1997 12.6998V12.5354C19.6784 12.7283 20.1033 13.0343 20.438 13.4274C20.7726 13.8204 21.007 14.2887 21.121 14.7921C21.2351 15.2955 21.2254 15.8191 21.0929 16.318C20.9603 16.8169 20.7088 17.2762 20.3599 17.6566M17.6003 18.6723C16.8269 18.5761 16.1154 18.2005 15.5996 17.6161C15.0839 17.0318 14.7995 16.2791 14.8 15.4997C14.8 15.2518 14.8322 15.0119 14.8841 14.7838L16.8003 16.7001V17.0998C16.8003 17.312 16.8846 17.5155 17.0346 17.6655C17.1847 17.8156 17.3882 17.8999 17.6003 17.8999M18 11.5C16.9392 11.5 15.9219 11.9214 15.1718 12.6714C14.4217 13.4215 14.0002 14.4388 14 15.4997C14 16.5606 14.4214 17.5781 15.1716 18.3283C15.9217 19.0785 16.9391 19.5 18 19.5C19.0609 19.5 20.0783 19.0785 20.8284 18.3283C21.5786 17.5781 22 16.5606 22 15.4997C21.9998 14.4388 21.5783 13.4215 20.8282 12.6714C20.0781 11.9214 19.0608 11.5 18 11.5Z" fill="#CFD8DC"/>
</svg>
