<svg width="24" height="25" viewBox="0 0 24 25" fill="none" xmlns="http://www.w3.org/2000/svg">
<path fill-rule="evenodd" clip-rule="evenodd" d="M5 4.5C3.34315 4.5 2 5.84315 2 7.5V17.5C2 19.1569 3.34315 20.5 5 20.5H13V18.5H5C4.44772 18.5 4 18.0523 4 17.5V7.5C4 6.94772 4.44772 6.5 5 6.5H7.78388C8.01539 6.5 8.23973 6.58033 8.41862 6.72727L10.8119 8.69318C11.3486 9.13402 12.0216 9.375 12.7161 9.375H19C19.5523 9.375 20 9.82272 20 10.375V10.5H22V10.375C22 8.71815 20.6569 7.375 19 7.375H12.7161C12.4846 7.375 12.2603 7.29467 12.0814 7.14773L9.6881 5.18182C9.15142 4.74098 8.47841 4.5 7.78388 4.5H5Z" fill="#64748B"/>
<path fill-rule="evenodd" clip-rule="evenodd" d="M17.3961 18.0688L15.6184 16.4687L16.2452 15.9045L17.3961 16.937L20.3249 14.3009L20.9517 14.8692M18.285 12.469C18.4029 12.469 18.516 12.5112 18.5993 12.5862C18.6827 12.6612 18.7295 12.763 18.7295 12.869C18.7295 12.9751 18.6827 13.0769 18.5993 13.1519C18.516 13.2269 18.4029 13.2691 18.285 13.2691C18.1672 13.2691 18.0541 13.2269 17.9708 13.1519C17.8874 13.0769 17.8406 12.9751 17.8406 12.869C17.8406 12.763 17.8874 12.6612 17.9708 12.5862C18.0541 12.5112 18.1672 12.469 18.285 12.469ZM21.3961 12.469H19.5379C19.3517 12.0048 18.8628 11.6689 18.285 11.6689C17.7073 11.6689 17.2184 12.0048 17.0314 12.469H15.1739C14.9382 12.469 14.7121 12.5533 14.5454 12.7033C14.3787 12.8534 14.285 13.0569 14.285 13.2691V18.8689C14.285 18.9739 14.308 19.078 14.3527 19.175C14.3974 19.2721 14.4628 19.3603 14.5454 19.4346C14.6279 19.5089 14.7259 19.5678 14.8338 19.608C14.9416 19.6483 15.0572 19.6689 15.1739 19.6689H21.3961C21.5129 19.6689 21.6285 19.6483 21.7363 19.608C21.8442 19.5678 21.9421 19.5089 22.0247 19.4346C22.1072 19.3603 22.1727 19.2721 22.2174 19.175C22.262 19.078 22.285 18.9739 22.285 18.8689V13.2684C22.285 13.0562 22.1914 12.8527 22.0247 12.7027C21.858 12.5526 21.6319 12.4683 21.3961 12.4683V12.469Z" fill="#FF7C7C"/>
</svg>
