<svg width="24" height="24" viewBox="0 0 24 24" fill="none" xmlns="http://www.w3.org/2000/svg">
<path fill-rule="evenodd" clip-rule="evenodd" d="M5 4C3.34315 4 2 5.34315 2 7V17C2 18.6569 3.34315 20 5 20H14V18H5C4.44772 18 4 17.5523 4 17V7C4 6.44772 4.44772 6 5 6H7.78388C8.01539 6 8.23973 6.08033 8.41862 6.22727L10.8119 8.19318C11.3486 8.63402 12.0216 8.875 12.7161 8.875H19C19.5523 8.875 20 9.32272 20 9.875V10H22V9.875C22 8.21815 20.6569 6.875 19 6.875H12.7161C12.4846 6.875 12.2603 6.79467 12.0814 6.64773L9.6881 4.68182C9.15142 4.24098 8.47841 4 7.78388 4H5Z" fill="#64748B"/>
<path fill-rule="evenodd" clip-rule="evenodd" d="M20.9992 11L21 12.86C20.9999 12.8755 20.9937 12.8905 20.9823 12.9027C20.9134 13.008 20.8031 13.0906 20.6697 13.1367C20.5491 13.1813 19.9745 13.4593 18.1575 13.666C16.5855 13.8447 15.7328 13.9393 15.3294 13.9907C14.9693 14.0367 15.0007 14.0793 15.0007 14.0793V12.2553C15.0006 12.2402 15.0066 12.2256 15.0179 12.2137C15.0291 12.2018 15.0449 12.1935 15.0626 12.19C15.1719 12.1653 15.4483 12.1127 16.0527 12.0533C17.2734 11.9333 18.753 11.744 19.911 11.5087C21.0064 11.2867 20.9992 11 20.9992 11ZM20.9992 13.5087L21 15.3687C20.9999 15.3839 20.9937 15.3987 20.9823 15.4107C20.9134 15.516 20.8031 15.5986 20.6697 15.6447C20.5491 15.6893 19.9745 15.9673 18.1575 16.1747C16.5855 16.3533 15.7328 16.4473 15.3294 16.4987C14.9693 16.5447 15.0007 16.5873 15.0007 16.5873V14.764C15.0006 14.7489 15.0066 14.7342 15.0179 14.7224C15.0291 14.7105 15.0449 14.7021 15.0626 14.6987C15.1719 14.6733 15.4483 14.6213 16.0527 14.562C17.2734 14.442 18.753 14.252 19.911 14.0173C21.0064 13.7953 20.9992 13.5087 20.9992 13.5087ZM20.9992 15.9207L21 17.7813C20.9999 17.7966 20.9937 17.8113 20.9823 17.8233C20.9134 17.9287 20.8031 18.0112 20.6697 18.0573C20.5491 18.102 19.9745 18.38 18.1575 18.5867C16.5855 18.766 15.7328 18.86 15.3294 18.9113C14.9693 18.9573 15.0007 19 15.0007 19V17.176C15.0006 17.1609 15.0066 17.1462 15.0179 17.1344C15.0291 17.1225 15.0449 17.1141 15.0626 17.1107C15.1719 17.086 15.4483 17.0333 16.0527 16.974C17.2734 16.8547 18.753 16.6647 19.911 16.43C21.0064 16.2073 20.9992 15.9207 20.9992 15.9207Z" fill="#FF7C7C"/>
</svg>
