<svg width="24" height="24" viewBox="0 0 24 24" fill="none" xmlns="http://www.w3.org/2000/svg">
<path fill-rule="evenodd" clip-rule="evenodd" d="M5 4C3.34315 4 2 5.34315 2 7V17C2 18.6569 3.34315 20 5 20H13V18H5C4.44772 18 4 17.5523 4 17V7C4 6.44772 4.44772 6 5 6H7.78388C8.01539 6 8.23973 6.08033 8.41862 6.22727L10.8119 8.19318C11.3486 8.63402 12.0216 8.875 12.7161 8.875H19C19.5523 8.875 20 9.32272 20 9.875V10H22V9.875C22 8.21815 20.6569 6.875 19 6.875H12.7161C12.4846 6.875 12.2603 6.79467 12.0814 6.64773L9.6881 4.68182C9.15142 4.24098 8.47841 4 7.78388 4H5Z" fill="#64748B"/>
<path fill-rule="evenodd" clip-rule="evenodd" d="M18.3637 14.7644H20.9083V15.4704H18.3637V14.7644ZM18.3637 13.5881H20.9083V14.2941H18.3637V13.5881ZM18.3637 15.9407H20.9083V16.6467H18.3637V15.9407ZM21.272 11H14.7267C14.3268 11 14 11.4243 14 11.9415V18.0593C14 18.5764 14.3268 19 14.7267 19H21.2726C21.6719 19 22 18.5764 22 18.0585V11.9407C22 11.4236 21.6725 11 21.272 11ZM21.272 18.0585H18V11.9407H21.272V18.0585Z" fill="#C084FC"/>
</svg>
