<svg width="24" height="24" viewBox="0 0 24 24" fill="none" xmlns="http://www.w3.org/2000/svg">
<path fill-rule="evenodd" clip-rule="evenodd" d="M5 4C3.34315 4 2 5.34315 2 7V17C2 18.6569 3.34315 20 5 20H13V18H5C4.44772 18 4 17.5523 4 17V7C4 6.44772 4.44772 6 5 6H7.78388C8.01539 6 8.23973 6.08033 8.41862 6.22727L10.8119 8.19318C11.3486 8.63402 12.0216 8.875 12.7161 8.875H19C19.5523 8.875 20 9.32272 20 9.875V10H22V9.875C22 8.21815 20.6569 6.875 19 6.875H12.7161C12.4846 6.875 12.2603 6.79467 12.0814 6.64773L9.6881 4.68182C9.15142 4.24098 8.47841 4 7.78388 4H5Z" fill="#64748B"/>
<path fill-rule="evenodd" clip-rule="evenodd" d="M17 11C18.0609 11 19.0783 11.4214 19.8284 12.1715C20.5786 12.9216 21 13.9389 21 14.9997C21.0001 15.525 20.8967 16.0451 20.6957 16.5305C20.4947 17.0158 20.2001 17.4568 19.8287 17.8283C19.4572 18.1998 19.0162 18.4944 18.5309 18.6955C18.0455 18.8965 17.5253 19 17 19C16.4747 19 15.9545 18.8965 15.4691 18.6955C14.9838 18.4944 14.5428 18.1998 14.1713 17.8283C13.7999 17.4568 13.5053 17.0158 13.3043 16.5305C13.1033 16.0451 12.9999 15.525 13 14.9997C13 13.9389 13.4214 12.9216 14.1716 12.1715C14.9217 11.4214 15.9391 11 17 11ZM17 14.3997C16.8409 14.3997 16.6882 14.4629 16.5757 14.5754C16.4632 14.6879 16.3999 14.8405 16.3999 14.9997C16.3999 15.1588 16.4632 15.3114 16.5757 15.424C16.6882 15.5365 16.8409 15.5997 17 15.5997C17.1591 15.5997 17.3118 15.5365 17.4243 15.424C17.5368 15.3114 17.6001 15.1588 17.6001 14.9997C17.5999 14.8407 17.5366 14.6882 17.4241 14.5758C17.3116 14.4634 17.159 14.4003 17 14.4003M14.7995 14.4003C14.6405 14.4003 14.488 14.4634 14.3755 14.5758C14.263 14.6882 14.1997 14.8407 14.1995 14.9997C14.1995 15.1588 14.2627 15.3114 14.3752 15.424C14.4878 15.5365 14.6404 15.5997 14.7995 15.5997C14.8783 15.5997 14.9564 15.5842 15.0292 15.554C15.102 15.5239 15.1681 15.4797 15.2239 15.424C15.2796 15.3682 15.3238 15.3021 15.3539 15.2293C15.3841 15.1565 15.3996 15.0785 15.3996 14.9997C15.3994 14.8407 15.3361 14.6882 15.2236 14.5758C15.1111 14.4634 14.9586 14.4003 14.7995 14.4003ZM19.2005 14.4003C19.0414 14.4003 18.8889 14.4634 18.7764 14.5758C18.6639 14.6882 18.6006 14.8407 18.6004 14.9997C18.6004 15.1588 18.6636 15.3114 18.7761 15.424C18.8887 15.5365 19.0413 15.5997 19.2005 15.5997C19.3596 15.5997 19.5122 15.5365 19.6248 15.424C19.7373 15.3114 19.8005 15.1588 19.8005 14.9997C19.8003 14.8407 19.737 14.6882 19.6245 14.5758C19.512 14.4634 19.3595 14.4003 19.2005 14.4003Z" fill="#FF7C7C"/>
</svg>
