<svg width="24" height="25" viewBox="0 0 24 25" fill="none" xmlns="http://www.w3.org/2000/svg">
<path fill-rule="evenodd" clip-rule="evenodd" d="M5 4.5C3.34315 4.5 2 5.84315 2 7.5V17.5C2 19.1569 3.34315 20.5 5 20.5H12V18.5H5C4.44772 18.5 4 18.0523 4 17.5V7.5C4 6.94772 4.44772 6.5 5 6.5H7.78388C8.01539 6.5 8.23973 6.58033 8.41862 6.72727L10.8119 8.69318C11.3486 9.13402 12.0216 9.375 12.7161 9.375H19C19.5523 9.375 20 9.82272 20 10.375V10.5H22V10.375C22 8.71815 20.6569 7.375 19 7.375H12.7161C12.4846 7.375 12.2603 7.29467 12.0814 7.14773L9.6881 5.18182C9.15142 4.74098 8.47841 4.5 7.78388 4.5H5Z" fill="#64748B"/>
<path fill-rule="evenodd" clip-rule="evenodd" d="M21.1 11.5H13.9C13.662 11.5011 13.4341 11.607 13.2663 11.7944C13.0984 11.9818 13.0043 12.2356 13.0045 12.5L13 18.5C13 19.05 13.405 19.5 13.8993 19.5H21.1C21.5957 19.5 22 19.05 22 18.5008V12.5C22 11.9492 21.5957 11.5 21.1 11.5ZM21.1 13.5L17.5 16.0004L13.9 13.5V12.5L17.5 15.0004L21.1 12.5V13.5Z" fill="#FF7C7C"/>
</svg>
