<svg width="24" height="25" viewBox="0 0 24 25" fill="none" xmlns="http://www.w3.org/2000/svg">
<path fill-rule="evenodd" clip-rule="evenodd" d="M5 4.5C3.34315 4.5 2 5.84315 2 7.5V17.5C2 19.1569 3.34315 20.5 5 20.5H13V18.5H5C4.44772 18.5 4 18.0523 4 17.5V7.5C4 6.94772 4.44772 6.5 5 6.5H7.78388C8.01539 6.5 8.23973 6.58033 8.41862 6.72727L10.8119 8.69318C11.3486 9.13402 12.0216 9.375 12.7161 9.375H19C19.5523 9.375 20 9.82272 20 10.375V10.5H22V10.375C22 8.71815 20.6569 7.375 19 7.375H12.7161C12.4846 7.375 12.2603 7.29467 12.0814 7.14773L9.6881 5.18182C9.15142 4.74098 8.47841 4.5 7.78388 4.5H5Z" fill="#64748B"/>
<path fill-rule="evenodd" clip-rule="evenodd" d="M17 11.5C18.0609 11.5 19.0783 11.9214 19.8284 12.6715C20.5786 13.4216 21 14.4389 21 15.4997C21.0001 16.025 20.8967 16.5451 20.6957 17.0305C20.4947 17.5158 20.2001 17.9568 19.8287 18.3283C19.4572 18.6998 19.0162 18.9944 18.5309 19.1955C18.0455 19.3965 17.5253 19.5 17 19.5C16.4747 19.5 15.9545 19.3965 15.4691 19.1955C14.9838 18.9944 14.5428 18.6998 14.1713 18.3283C13.7999 17.9568 13.5053 17.5158 13.3043 17.0305C13.1033 16.5451 12.9999 16.025 13 15.4997C13 14.4389 13.4214 13.4216 14.1716 12.6715C14.9217 11.9214 15.9391 11.5 17 11.5ZM17 14.8997C16.8409 14.8997 16.6882 14.9629 16.5757 15.0754C16.4632 15.1879 16.3999 15.3405 16.3999 15.4997C16.3999 15.6588 16.4632 15.8114 16.5757 15.924C16.6882 16.0365 16.8409 16.0997 17 16.0997C17.1591 16.0997 17.3118 16.0365 17.4243 15.924C17.5368 15.8114 17.6001 15.6588 17.6001 15.4997C17.5999 15.3407 17.5366 15.1882 17.4241 15.0758C17.3116 14.9634 17.159 14.9003 17 14.9003M14.7995 14.9003C14.6405 14.9003 14.488 14.9634 14.3755 15.0758C14.263 15.1882 14.1997 15.3407 14.1995 15.4997C14.1995 15.6588 14.2627 15.8114 14.3752 15.924C14.4878 16.0365 14.6404 16.0997 14.7995 16.0997C14.8783 16.0997 14.9564 16.0842 15.0292 16.054C15.102 16.0239 15.1681 15.9797 15.2239 15.924C15.2796 15.8682 15.3238 15.8021 15.3539 15.7293C15.3841 15.6565 15.3996 15.5785 15.3996 15.4997C15.3994 15.3407 15.3361 15.1882 15.2236 15.0758C15.1111 14.9634 14.9586 14.9003 14.7995 14.9003ZM19.2005 14.9003C19.0414 14.9003 18.8889 14.9634 18.7764 15.0758C18.6639 15.1882 18.6006 15.3407 18.6004 15.4997C18.6004 15.6588 18.6636 15.8114 18.7761 15.924C18.8887 16.0365 19.0413 16.0997 19.2005 16.0997C19.3596 16.0997 19.5122 16.0365 19.6248 15.924C19.7373 15.8114 19.8005 15.6588 19.8005 15.4997C19.8003 15.3407 19.737 15.1882 19.6245 15.0758C19.512 14.9634 19.3595 14.9003 19.2005 14.9003Z" fill="#FF7C7C"/>
</svg>
