<svg width="24" height="25" viewBox="0 0 24 25" fill="none" xmlns="http://www.w3.org/2000/svg">
<path fill-rule="evenodd" clip-rule="evenodd" d="M5 4.5C3.34315 4.5 2 5.84315 2 7.5V17.5C2 19.1569 3.34315 20.5 5 20.5H13V18.5H5C4.44772 18.5 4 18.0523 4 17.5V7.5C4 6.94772 4.44772 6.5 5 6.5H7.78388C8.01539 6.5 8.23973 6.58033 8.41862 6.72727L10.8119 8.69318C11.3486 9.13402 12.0216 9.375 12.7161 9.375H19C19.5523 9.375 20 9.82272 20 10.375V10.5H22V10.375C22 8.71815 20.6569 7.375 19 7.375H12.7161C12.4846 7.375 12.2603 7.29467 12.0814 7.14773L9.6881 5.18182C9.15142 4.74098 8.47841 4.5 7.78388 4.5H5Z" fill="#64748B"/>
<path fill-rule="evenodd" clip-rule="evenodd" d="M21.9925 15.7913C22.1316 13.5948 20.3238 11.2295 17.5426 11.5251C16.2911 11.6519 15.5495 12.2432 15.225 12.8768C14.6688 13.9327 15.2714 15.3266 17.0791 15.7913C18.1916 16.0869 18.4234 16.5093 18.2843 17.0162C18.1452 17.4808 17.7744 17.9877 17.6817 18.41C17.6354 18.5368 17.6354 18.6635 17.6354 18.7902C17.6817 19.7194 19.7676 20.0996 21.3899 17.6075C21.7608 17.1006 21.9462 16.4671 21.9925 15.7913Z" fill="#CFD8DC"/>
<path fill-rule="evenodd" clip-rule="evenodd" d="M14.8078 15.2844V15.1155C14.8078 15.0732 14.8078 15.031 14.7614 14.9887C14.6687 14.5664 14.2979 14.3129 13.8344 14.3552C13.3708 14.3974 13.0464 14.7353 13 15.1577V15.3689C13.0464 15.8335 13.5099 16.1714 13.9734 16.1292C14.4833 16.0447 14.8078 15.7068 14.8078 15.2844Z" fill="#CFD8DC"/>
<path fill-rule="evenodd" clip-rule="evenodd" d="M16.8473 17.5231C16.6619 16.8473 15.9203 16.4249 15.1786 16.6361C14.576 16.7628 14.2052 17.2274 14.1588 17.7765C14.1125 17.9455 14.1588 18.1144 14.2052 18.2834C14.3906 18.9592 15.1786 19.3816 15.9203 19.1704C16.5692 19.0014 16.9864 18.4523 16.94 17.8187C16.8937 17.7343 16.8937 17.6498 16.8473 17.5231Z" fill="#CFD8DC"/>
</svg>
