<svg width="24" height="25" viewBox="0 0 24 25" fill="none" xmlns="http://www.w3.org/2000/svg">
<path fill-rule="evenodd" clip-rule="evenodd" d="M5 4.5C3.34315 4.5 2 5.84315 2 7.5V17.5C2 19.1569 3.34315 20.5 5 20.5H13V18.5H5C4.44772 18.5 4 18.0523 4 17.5V7.5C4 6.94772 4.44772 6.5 5 6.5H7.78388C8.01539 6.5 8.23973 6.58033 8.41862 6.72727L10.8119 8.69318C11.3486 9.13402 12.0216 9.375 12.7161 9.375H19C19.5523 9.375 20 9.82272 20 10.375V10.5H22V10.375C22 8.71815 20.6569 7.375 19 7.375H12.7161C12.4846 7.375 12.2603 7.29467 12.0814 7.14773L9.6881 5.18182C9.15142 4.74098 8.47841 4.5 7.78388 4.5H5Z" fill="#64748B"/>
<path fill-rule="evenodd" clip-rule="evenodd" d="M17.5725 16.4528L15.1465 15.6443C15.112 15.6309 15.082 15.6075 15.0602 15.5769C15.0383 15.5464 15.0257 15.5099 15.0237 15.472L15 13.5565C15.0012 13.5188 15.0133 13.4824 15.0348 13.4519C15.0562 13.4213 15.086 13.398 15.1203 13.3849L20.8381 11.5061C20.9059 11.4838 20.9603 11.5245 20.9603 11.5975V13.5124C20.9588 13.5504 20.9464 13.587 20.9248 13.6179C20.9032 13.6487 20.8733 13.6724 20.8387 13.686L18.4793 14.4939L20.8778 15.263C20.9124 15.2757 20.9426 15.2988 20.9644 15.3292C20.9862 15.3597 20.9986 15.3962 21 15.4339V17.3219C21 17.3942 20.9462 17.4718 20.8791 17.4954L15.1465 19.4932C15.0794 19.5169 15.025 19.4768 15.0243 19.4044L15.0128 17.4336C15.0142 17.396 15.0264 17.3596 15.0479 17.329C15.0695 17.2985 15.0993 17.2752 15.1337 17.2621L17.5725 16.4528Z" fill="#FFA726"/>
</svg>
