<svg width="24" height="25" viewBox="0 0 24 25" fill="none" xmlns="http://www.w3.org/2000/svg">
<path fill-rule="evenodd" clip-rule="evenodd" d="M5 4.5C3.34315 4.5 2 5.84315 2 7.5V17.5C2 19.1569 3.34315 20.5 5 20.5H13V18.5H5C4.44772 18.5 4 18.0523 4 17.5V7.5C4 6.94772 4.44772 6.5 5 6.5H7.78388C8.01539 6.5 8.23973 6.58033 8.41862 6.72727L10.8119 8.69318C11.3486 9.13402 12.0216 9.375 12.7161 9.375H19C19.5523 9.375 20 9.82272 20 10.375V10.5H22V10.375C22 8.71815 20.6569 7.375 19 7.375H12.7161C12.4846 7.375 12.2603 7.29467 12.0814 7.14773L9.6881 5.18182C9.15142 4.74098 8.47841 4.5 7.78388 4.5H5Z" fill="#64748B"/>
<path d="M14.2372 14.9356L16.5509 12.6178L17.2274 13.2983C17.1313 13.6386 17.2875 14.0109 17.5997 14.191V16.4087C17.3595 16.5448 17.1994 16.805 17.1994 17.1012C17.1994 17.5403 17.5609 17.9018 18 17.9018C18.4391 17.9018 18.8006 17.5403 18.8006 17.1012C18.8006 16.805 18.6405 16.5448 18.4003 16.4087V14.4632L19.2289 15.2998C19.2009 15.3599 19.2009 15.4279 19.2009 15.5C19.2009 15.9391 19.5624 16.3006 20.0015 16.3006C20.4406 16.3006 20.8021 15.9391 20.8021 15.5C20.8021 15.0609 20.4406 14.6994 20.0015 14.6994C19.9294 14.6994 19.8614 14.6994 19.8014 14.7274L18.7726 13.6986C18.8223 13.5132 18.803 13.3161 18.7184 13.1438C18.6337 12.9716 18.4894 12.8359 18.3122 12.7619C18.1401 12.6979 17.96 12.6819 17.7998 12.7259L17.1193 12.0494L17.4356 11.7372C17.7478 11.4209 18.2522 11.4209 18.5644 11.7372L21.7628 14.9356C22.0791 15.2478 22.0791 15.7522 21.7628 16.0644L18.5644 19.2628C18.2522 19.5791 17.7478 19.5791 17.4356 19.2628L14.2372 16.0644C13.9209 15.7522 13.9209 15.2478 14.2372 14.9356Z" fill="#FF7C7C"/>
</svg>
