<svg width="24" height="24" viewBox="0 0 24 24" fill="none" xmlns="http://www.w3.org/2000/svg">
<path fill-rule="evenodd" clip-rule="evenodd" d="M5 4C3.34315 4 2 5.34315 2 7V17C2 18.6569 3.34315 20 5 20H13V18H5C4.44772 18 4 17.5523 4 17V7C4 6.44772 4.44772 6 5 6H7.78388C8.01539 6 8.23973 6.08033 8.41862 6.22727L10.8119 8.19318C11.3486 8.63402 12.0216 8.875 12.7161 8.875H19C19.5523 8.875 20 9.32272 20 9.875V10H22V9.875C22 8.21815 20.6569 6.875 19 6.875H12.7161C12.4846 6.875 12.2603 6.79467 12.0814 6.64773L9.6881 4.68182C9.15142 4.24098 8.47841 4 7.78388 4H5Z" fill="#64748B"/>
<path d="M17.3687 17.2216C17.3687 17.6933 17.1913 18.1456 16.8754 18.4791C16.5595 18.8126 16.1311 19 15.6844 19C15.2376 19 14.8092 18.8126 14.4933 18.4791C14.1775 18.1456 14 17.6933 14 17.2216C14 16.75 14.1775 16.2976 14.4933 15.9641C14.8092 15.6306 15.2376 15.4432 15.6844 15.4432C16.1311 15.4432 16.5595 15.6306 16.8754 15.9641C17.1913 16.2976 17.3687 16.75 17.3687 17.2216ZM19.4595 13.0124C19.5013 12.6801 19.4533 12.3421 19.3211 12.0374C19.1888 11.7327 18.9777 11.4736 18.712 11.2901C18.4464 11.1066 18.137 11.0061 17.8196 11.0003C17.5021 10.9944 17.1896 11.0834 16.918 11.257C16.6464 11.4306 16.4269 11.6817 16.2846 11.9813C16.1423 12.281 16.0832 12.617 16.114 12.9506C16.1448 13.2842 16.2643 13.6018 16.4587 13.8668C16.6531 14.1318 16.9145 14.3334 17.2127 14.4483C18.5041 14.984 18.8081 15.5252 18.6468 16.9858C18.6047 17.3181 18.6524 17.6562 18.7845 17.961C18.9166 18.2659 19.1276 18.5251 19.3932 18.7088C19.6588 18.8925 19.9682 18.9932 20.2856 18.9992C20.6031 19.0053 20.9157 18.9164 21.1874 18.7429C21.4591 18.5695 21.6788 18.3184 21.8212 18.0188C21.9636 17.7191 22.0228 17.3831 21.9921 17.0494C21.9614 16.7158 21.8419 16.3981 21.6475 16.133C21.4532 15.8679 21.1918 15.6663 20.8935 15.5513C19.6021 15.0149 19.2975 14.4729 19.4601 13.0124H19.4595Z" fill="#E676FA"/>
</svg>
