<svg width="24" height="25" viewBox="0 0 24 25" fill="none" xmlns="http://www.w3.org/2000/svg">
<path fill-rule="evenodd" clip-rule="evenodd" d="M5 4.5C3.34315 4.5 2 5.84315 2 7.5V17.5C2 19.1569 3.34315 20.5 5 20.5H13V18.5H5C4.44772 18.5 4 18.0523 4 17.5V7.5C4 6.94772 4.44772 6.5 5 6.5H7.78388C8.01539 6.5 8.23973 6.58033 8.41862 6.72727L10.8119 8.69318C11.3486 9.13402 12.0216 9.375 12.7161 9.375H19C19.5523 9.375 20 9.82272 20 10.375V10.5H22V10.375C22 8.71815 20.6569 7.375 19 7.375H12.7161C12.4846 7.375 12.2603 7.29467 12.0814 7.14773L9.6881 5.18182C9.15142 4.74098 8.47841 4.5 7.78388 4.5H5Z" fill="#64748B"/>
<path fill-rule="evenodd" clip-rule="evenodd" d="M14.7999 13.0997H14V18.6994C14 19.14 14.36 19.5 14.7999 19.5H20.3996V18.6987H14.7999V13.0997ZM21.2001 11.5H16.3996C15.9597 11.5 15.5997 11.86 15.5997 12.2999V17.0997C15.5997 17.5396 15.9597 17.8996 16.3996 17.8996H21.2001C21.64 17.8996 22 17.5396 22 17.0997V12.2999C22 11.86 21.64 11.5 21.2001 11.5ZM20.8002 15.1001H16.8002V14.2995H20.7995L20.8002 15.1001ZM19.1998 16.6998H16.8009V15.8999H19.2005L19.1998 16.6998ZM20.8002 13.4996H16.8002V12.6998H20.7995L20.8002 13.4996Z" fill="#5199B6"/>
</svg>
