<svg width="24" height="25" viewBox="0 0 24 25" fill="none" xmlns="http://www.w3.org/2000/svg">
<path fill-rule="evenodd" clip-rule="evenodd" d="M5 4.5C3.34315 4.5 2 5.84315 2 7.5V17.5C2 19.1569 3.34315 20.5 5 20.5H13V18.5H5C4.44772 18.5 4 18.0523 4 17.5V7.5C4 6.94772 4.44772 6.5 5 6.5H7.78388C8.01539 6.5 8.23973 6.58033 8.41862 6.72727L10.8119 8.69318C11.3486 9.13402 12.0216 9.375 12.7161 9.375H19C19.5523 9.375 20 9.82272 20 10.375V10.5H22V10.375C22 8.71815 20.6569 7.375 19 7.375H12.7161C12.4846 7.375 12.2603 7.29467 12.0814 7.14773L9.6881 5.18182C9.15142 4.74098 8.47841 4.5 7.78388 4.5H5Z" fill="#64748B"/>
<path d="M18.8412 12.5C18.2713 12.5 17.8095 12.9618 17.8095 13.5318V14.1508H16.1587C15.7026 14.1508 15.3333 14.5202 15.3333 14.9762V16.2143C15.3333 16.4421 15.5181 16.627 15.746 16.627H15.8935C16.4333 16.627 16.9243 17.0154 16.9784 17.5524C17.0403 18.1702 16.5573 18.6905 15.9523 18.6905H15.746C15.5181 18.6905 15.3333 18.8754 15.3333 19.1032V20.3413C15.3333 20.7973 15.7026 21.1667 16.1587 21.1667H17.3968C17.6246 21.1667 17.8095 20.9818 17.8095 20.754V20.6065C17.8095 20.0667 18.1979 19.5756 18.7348 19.5216C19.3526 19.4597 19.873 19.9426 19.873 20.5477V20.754C19.873 20.9818 20.0579 21.1667 20.2857 21.1667H21.5238C21.9798 21.1667 22.3492 20.7973 22.3492 20.3413V18.6905H22.9682C23.5382 18.6905 24 18.2287 24 17.6588C24 17.0888 23.5382 16.627 22.9682 16.627H22.3492V14.9762C22.3492 14.5202 21.9798 14.1508 21.5238 14.1508H19.873V13.5318C19.873 12.9618 19.4111 12.5 18.8412 12.5Z" fill="#14B8A6"/>
</svg>
