<svg width="24" height="24" viewBox="0 0 24 24" fill="none" xmlns="http://www.w3.org/2000/svg">
<path fill-rule="evenodd" clip-rule="evenodd" d="M5 4C3.34315 4 2 5.34315 2 7V17C2 18.6569 3.34315 20 5 20H13V18H5C4.44772 18 4 17.5523 4 17V7C4 6.44772 4.44772 6 5 6H7.78388C8.01539 6 8.23973 6.08033 8.41862 6.22727L10.8119 8.19318C11.3486 8.63402 12.0216 8.875 12.7161 8.875H19C19.5523 8.875 20 9.32272 20 9.875V10H22V9.875C22 8.21815 20.6569 6.875 19 6.875H12.7161C12.4846 6.875 12.2603 6.79467 12.0814 6.64773L9.6881 4.68182C9.15142 4.24098 8.47841 4 7.78388 4H5Z" fill="#64748B"/>
<path fill-rule="evenodd" clip-rule="evenodd" d="M21.8502 14.167L21.8383 14.1367L20.6129 11.1879C20.5883 11.1299 20.5442 11.0806 20.4872 11.0473C20.4446 11.0221 20.3962 11.0064 20.3459 11.0016C20.2955 10.9968 20.2447 11.0029 20.1974 11.0195C20.1501 11.0362 20.1077 11.0628 20.0736 11.0973C20.0395 11.1318 20.0146 11.1732 20.001 11.2182L19.1745 13.5544H15.8261L14.9989 11.2182C14.9851 11.1734 14.9602 11.1322 14.9261 11.0978C14.892 11.0635 14.8497 11.0369 14.8026 11.0203C14.7554 11.0038 14.7047 10.9975 14.6545 11.0022C14.6043 11.0069 14.556 11.0223 14.5134 11.0473C14.4564 11.0806 14.4123 11.1299 14.3876 11.1879L13.163 14.1374L13.1504 14.1664C12.974 14.5916 12.9521 15.0583 13.0882 15.496C13.2243 15.9337 13.511 16.3187 13.9049 16.5929L13.9098 16.5961L13.9203 16.6032L15.7835 17.8929L16.7077 18.5377L17.2694 18.9291C17.3353 18.9751 17.4156 19 17.4982 19C17.5808 19 17.6611 18.9751 17.727 18.9291L18.2887 18.5371L19.2129 17.8922L21.0901 16.5961L21.095 16.5923C21.4887 16.3182 21.7753 15.9335 21.9115 15.4961C22.0477 15.0586 22.0262 14.5922 21.8502 14.167Z" fill="#E53935"/>
<path fill-rule="evenodd" clip-rule="evenodd" d="M21.7656 14.0403L21.7471 14C20.8186 14.1504 19.9436 14.4611 19.185 14.9099L15 17.4094L17.6643 19L20.584 17.2738L20.5927 17.2687C21.2051 16.9038 21.6508 16.3916 21.8626 15.8094C22.0743 15.2271 22.0396 14.6062 21.7656 14.0403Z" fill="#EF6C00"/>
<path fill-rule="evenodd" clip-rule="evenodd" d="M15.8154 14.9092C15.0568 14.4607 14.1819 14.1502 13.2533 14L13.2338 14.0395C12.9594 14.6056 12.9256 15.2267 13.1374 15.8093C13.3493 16.3919 13.7953 16.9043 14.4082 17.2692L14.4159 17.2735L14.4322 17.2838L17.3324 19L20 17.4092L15.8154 14.9092Z" fill="#EF6C00"/>
<path fill-rule="evenodd" clip-rule="evenodd" d="M15 17.6024L16.3473 18.5L17.166 19.0101C17.262 19.07 17.3791 19.1024 17.4995 19.1024C17.6199 19.1024 17.737 19.07 17.833 19.0101L18.6517 18.5L20 17.6024L17.5 15.9L15 17.6024Z" fill="#F9A825"/>
</svg>
