<svg width="24" height="24" viewBox="0 0 24 24" fill="none" xmlns="http://www.w3.org/2000/svg">
<path fill-rule="evenodd" clip-rule="evenodd" d="M5 4C3.34315 4 2 5.34315 2 7V17C2 18.6569 3.34315 20 5 20H13V18H5C4.44772 18 4 17.5523 4 17V7C4 6.44772 4.44772 6 5 6H7.78388C8.01539 6 8.23973 6.08033 8.41862 6.22727L10.8119 8.19318C11.3486 8.63402 12.0216 8.875 12.7161 8.875H19C19.5523 8.875 20 9.32272 20 9.875V10H22V9.875C22 8.21815 20.6569 6.875 19 6.875H12.7161C12.4846 6.875 12.2603 6.79467 12.0814 6.64773L9.6881 4.68182C9.15142 4.24098 8.47841 4 7.78388 4H5Z" fill="#64748B"/>
<path fill-rule="evenodd" clip-rule="evenodd" d="M16.4396 17.2222H15.2455L13 15L15.2455 12.7778H16.4396L17.0383 11.7732L20.145 11L21 13.9954L20.4013 15L21 16.0046L20.145 19L17.039 18.2268L16.4396 17.2222ZM16.5035 17.1111L18.85 17.7242L17.4965 15.4444H14.7881L16.5035 17.1111ZM19.6465 17.2797L20.2775 15L19.6465 12.7203L18.2876 15L19.6465 17.2797ZM16.5035 12.8889L14.7881 14.5556H17.4965L18.8507 12.2758L16.5035 12.8889Z" fill="#CFD8DC"/>
</svg>
