<svg width="24" height="25" viewBox="0 0 24 25" fill="none" xmlns="http://www.w3.org/2000/svg">
<path fill-rule="evenodd" clip-rule="evenodd" d="M5 4.5C3.34315 4.5 2 5.84315 2 7.5V17.5C2 19.1569 3.34315 20.5 5 20.5H13V18.5H5C4.44772 18.5 4 18.0523 4 17.5V7.5C4 6.94772 4.44772 6.5 5 6.5H7.78388C8.01539 6.5 8.23973 6.58033 8.41862 6.72727L10.8119 8.69318C11.3486 9.13402 12.0216 9.375 12.7161 9.375H19C19.5523 9.375 20 9.82272 20 10.375V10.5H22V10.375C22 8.71815 20.6569 7.375 19 7.375H12.7161C12.4846 7.375 12.2603 7.29467 12.0814 7.14773L9.6881 5.18182C9.15142 4.74098 8.47841 4.5 7.78388 4.5H5Z" fill="#64748B"/>
<path fill-rule="evenodd" clip-rule="evenodd" d="M21.5471 13.8285C21.849 14.129 21.849 14.6172 21.5471 14.8803L20.4904 15.9321L17.5471 13.0025L18.6038 11.9508C18.9057 11.6503 19.3962 11.6503 19.6605 11.9508L20.3395 12.6265L21.4713 11.5L22 12.0255L20.8682 13.1528L21.5471 13.8285ZM19.3586 16.0068L18.8299 15.4813L17.7739 16.5331L16.9815 15.7437L18.0376 14.6927L17.5096 14.1664L16.4529 15.2182L15.8866 14.6927L14.8306 15.7437C14.5287 16.0442 14.5287 16.5331 14.8306 16.7955L15.5096 17.4713L14 18.9738L14.5287 19.5L16.0382 17.9975L16.7172 18.6733C17.0191 18.9738 17.5096 18.9738 17.7739 18.6733L18.8299 17.6222L18.3019 17.096L19.3586 16.0068Z" fill="#8CDBFF"/>
</svg>
