<svg width="24" height="24" viewBox="0 0 24 24" fill="none" xmlns="http://www.w3.org/2000/svg">
<path fill-rule="evenodd" clip-rule="evenodd" d="M5 4C3.34315 4 2 5.34315 2 7V17C2 18.6569 3.34315 20 5 20H12V18H5C4.44772 18 4 17.5523 4 17V7C4 6.44772 4.44772 6 5 6H7.78388C8.01539 6 8.23973 6.08033 8.41862 6.22727L10.8119 8.19318C11.3486 8.63402 12.0216 8.875 12.7161 8.875H19C19.5523 8.875 20 9.32272 20 9.875V11H22V9.875C22 8.21815 20.6569 6.875 19 6.875H12.7161C12.4846 6.875 12.2603 6.79467 12.0814 6.64773L9.6881 4.68182C9.15142 4.24098 8.47841 4 7.78388 4H5Z" fill="#64748B"/>
<path fill-rule="evenodd" clip-rule="evenodd" d="M17.5 14.8001C17.1745 14.8001 16.8624 14.9266 16.6322 15.1516C16.4021 15.3766 16.2728 15.6818 16.2728 16C16.2728 16.3182 16.4021 16.6234 16.6322 16.8484C16.8624 17.0734 17.1745 17.1999 17.5 17.1999C17.8255 17.1999 18.1376 17.0734 18.3678 16.8484C18.5979 16.6234 18.7272 16.3182 18.7272 16C18.7272 15.6818 18.5979 15.3766 18.3678 15.1516C18.1376 14.9266 17.8255 14.8001 17.5 14.8001ZM17.5 18C16.9575 18 16.4372 17.7893 16.0536 17.4142C15.6699 17.0391 15.4544 16.5304 15.4544 16C15.4544 15.4696 15.6699 14.9609 16.0536 14.5858C16.4372 14.2107 16.9575 14 17.5 14C18.0425 14 18.5628 14.2107 18.9464 14.5858C19.3301 14.9609 19.5456 15.4696 19.5456 16C19.5456 16.5304 19.3301 17.0391 18.9464 17.4142C18.5628 17.7893 18.0425 18 17.5 18ZM17.5 13C16.5286 13.0005 15.5798 13.287 14.7772 13.822C13.9746 14.3571 13.3553 15.116 13 16C13.3553 16.884 13.9746 17.6429 14.7772 18.178C15.5798 18.713 16.5286 18.9995 17.5 19C18.4714 18.9995 19.4202 18.713 20.2228 18.178C21.0254 17.6429 21.6447 16.884 22 16C21.6447 15.116 21.0254 14.3571 20.2228 13.822C19.4202 13.287 18.4714 13.0005 17.5 13Z" fill="#8CDBFF"/>
</svg>
