<svg width="24" height="24" viewBox="0 0 24 24" fill="none" xmlns="http://www.w3.org/2000/svg">
<path fill-rule="evenodd" clip-rule="evenodd" d="M5 4C3.34315 4 2 5.34315 2 7V17C2 18.6569 3.34315 20 5 20H13V18H5C4.44772 18 4 17.5523 4 17V7C4 6.44772 4.44772 6 5 6H7.78388C8.01539 6 8.23973 6.08033 8.41862 6.22727L10.8119 8.19318C11.3486 8.63402 12.0216 8.875 12.7161 8.875H19C19.5523 8.875 20 9.32272 20 9.875V10H22V9.875C22 8.21815 20.6569 6.875 19 6.875H12.7161C12.4846 6.875 12.2603 6.79467 12.0814 6.64773L9.6881 4.68182C9.15142 4.24098 8.47841 4 7.78388 4H5Z" fill="#64748B"/>
<path fill-rule="evenodd" clip-rule="evenodd" d="M20.0002 15.4H15.9998V14.6H20.0002M18.0003 11C16.9395 11 15.9221 11.4214 15.1719 12.1714C14.4217 12.9215 14.0002 13.9388 14 14.9997C14 16.0606 14.4215 17.0781 15.1717 17.8283C15.9219 18.5785 16.9394 19 18.0003 19C19.0612 18.9998 20.0785 18.5783 20.8286 17.8281C21.5786 17.0779 22 16.0605 22 14.9997C21.9998 13.9389 21.5784 12.9217 20.8283 12.1717C20.0783 11.4216 19.0611 11.0002 18.0003 11Z" fill="#FF7C7C" fill-opacity="0.94902"/>
</svg>
