<svg width="24" height="25" viewBox="0 0 24 25" fill="none" xmlns="http://www.w3.org/2000/svg">
<g clip-path="url(#clip0_1071_665)">
<path fill-rule="evenodd" clip-rule="evenodd" d="M5 4.5C3.34315 4.5 2 5.84315 2 7.5V17.5C2 19.1569 3.34315 20.5 5 20.5H13V18.5H5C4.44772 18.5 4 18.0523 4 17.5V7.5C4 6.94772 4.44772 6.5 5 6.5H7.78388C8.01539 6.5 8.23973 6.58033 8.41862 6.72727L10.8119 8.69318C11.3486 9.13402 12.0216 9.375 12.7161 9.375H19C19.5523 9.375 20 9.82272 20 10.375V10.5H22V10.375C22 8.71815 20.6569 7.375 19 7.375H12.7161C12.4846 7.375 12.2603 7.29467 12.0814 7.14773L9.6881 5.18182C9.15142 4.74098 8.47841 4.5 7.78388 4.5H5Z" fill="#64748B"/>
<path fill-rule="evenodd" clip-rule="evenodd" d="M18.5 11.5L15 13.1363V15.5904C15 17.8613 16.4931 19.9843 18.5 20.5C20.5069 19.9843 22 17.8613 22 15.5904V13.1363L18.5 11.5ZM18.5 13.1363C18.8094 13.1363 19.1061 13.2656 19.3248 13.4957C19.5436 13.7258 19.6664 14.0379 19.6664 14.3634C19.6664 14.6888 19.5436 15.0009 19.3248 15.231C19.1061 15.4611 18.8094 15.5904 18.5 15.5904C18.1906 15.5904 17.8939 15.4611 17.6752 15.231C17.4564 15.0009 17.3336 14.6888 17.3336 14.3634C17.3336 14.0379 17.4564 13.7258 17.6752 13.4957C17.8939 13.2656 18.1906 13.1363 18.5 13.1363ZM20.4951 18.0452C20.0239 18.804 19.3198 19.3701 18.5 19.649C17.6802 19.37 16.9761 18.804 16.5049 18.0452C16.3751 17.8473 16.2619 17.638 16.1664 17.4196C16.1664 16.7442 17.2205 16.1918 18.5 16.1918C19.7795 16.1918 20.8329 16.7324 20.8329 17.4196C20.7402 17.636 20.6272 17.8413 20.4951 18.0452Z" fill="#CFD8DC"/>
</g>
<defs>
<clipPath id="clip0_1071_665">
<rect width="24" height="24" fill="white" transform="translate(0 0.5)"/>
</clipPath>
</defs>
</svg>
