<svg width="24" height="24" viewBox="0 0 24 24" fill="none" xmlns="http://www.w3.org/2000/svg">
<path fill-rule="evenodd" clip-rule="evenodd" d="M5 4C3.34315 4 2 5.34315 2 7V17C2 18.6569 3.34315 20 5 20H13V18H5C4.44772 18 4 17.5523 4 17V7C4 6.44772 4.44772 6 5 6H7.78388C8.01539 6 8.23973 6.08033 8.41862 6.22727L10.8119 8.19318C11.3486 8.63402 12.0216 8.875 12.7161 8.875H19C19.5523 8.875 20 9.32272 20 9.875V10H22V9.875C22 8.21815 20.6569 6.875 19 6.875H12.7161C12.4846 6.875 12.2603 6.79467 12.0814 6.64773L9.6881 4.68182C9.15142 4.24098 8.47841 4 7.78388 4H5Z" fill="#64748B"/>
<path fill-rule="evenodd" clip-rule="evenodd" d="M21.0888 11.0001C20.9835 10.9987 20.8789 11.0187 20.7813 11.0588C20.6836 11.0989 20.5949 11.1583 20.5202 11.2336L18.2101 13.5792L20.4566 15.8563L22.7706 13.5147C22.9177 13.3624 23 13.1577 23 12.9446C23 12.7315 22.9177 12.5268 22.7706 12.3745L21.6412 11.2336C21.5689 11.1596 21.4829 11.1009 21.3881 11.0608C21.2933 11.0207 21.1915 11 21.0888 11.0001ZM17.8284 13.9621L15.4592 16.3636C15.3849 16.4394 15.3261 16.5294 15.2863 16.6283C15.2465 16.7272 15.2263 16.8331 15.227 16.94C15.2278 17.0468 15.2493 17.1525 15.2905 17.2508C15.3317 17.3492 15.3917 17.4383 15.467 17.513C14.9814 18.0085 14.4888 18.5046 14 19H16.2498L16.5918 18.6533C16.7421 18.8003 16.9432 18.8818 17.152 18.8803C17.3608 18.8789 17.5608 18.7945 17.7089 18.6454L20.0749 16.2439" fill="#CDDC39"/>
</svg>
