<svg width="24" height="25" viewBox="0 0 24 25" fill="none" xmlns="http://www.w3.org/2000/svg">
<path fill-rule="evenodd" clip-rule="evenodd" d="M5 4.5C3.34315 4.5 2 5.84315 2 7.5V17.5C2 19.1569 3.34315 20.5 5 20.5H11V18.5H5C4.44772 18.5 4 18.0523 4 17.5V7.5C4 6.94772 4.44772 6.5 5 6.5H7.78388C8.01539 6.5 8.23973 6.58033 8.41862 6.72727L10.8119 8.69318C11.3486 9.13402 12.0216 9.375 12.7161 9.375H19C19.5523 9.375 20 9.82272 20 10.375V10.5H22V10.375C22 8.71815 20.6569 7.375 19 7.375H12.7161C12.4846 7.375 12.2603 7.29467 12.0814 7.14773L9.6881 5.18182C9.15142 4.74098 8.47841 4.5 7.78388 4.5H5Z" fill="#64748B"/>
<path fill-rule="evenodd" clip-rule="evenodd" d="M20.3331 17.6245C20.7917 17.6245 21.1624 17.2314 21.1624 16.7498L21.1669 12.3747C21.1669 11.8892 20.7917 11.5 20.3331 11.5H13.6662C13.2038 11.5 12.8331 11.8892 12.8331 12.3747V16.7498C12.8331 17.2314 13.2038 17.6245 13.6662 17.6245H12V18.5H22V17.6245H20.3331ZM17.4158 16.0804V15.1228C16.2579 15.1228 15.4955 15.4938 14.9158 16.3125C15.1489 15.1441 15.7955 13.9804 17.4165 13.7444V12.8128L19.0827 14.4446L17.4158 16.0804Z" fill="#E676FA"/>
</svg>
