<svg width="24" height="25" viewBox="0 0 24 25" fill="none" xmlns="http://www.w3.org/2000/svg">
<path fill-rule="evenodd" clip-rule="evenodd" d="M5 4.5C3.34315 4.5 2 5.84315 2 7.5V17.5C2 19.1569 3.34315 20.5 5 20.5H13V18.5H5C4.44772 18.5 4 18.0523 4 17.5V7.5C4 6.94772 4.44772 6.5 5 6.5H7.78388C8.01539 6.5 8.23973 6.58033 8.41862 6.72727L10.8119 8.69318C11.3486 9.13402 12.0216 9.375 12.7161 9.375H19C19.5523 9.375 20 9.82272 20 10.375V10.5H22V10.375C22 8.71815 20.6569 7.375 19 7.375H12.7161C12.4846 7.375 12.2603 7.29467 12.0814 7.14773L9.6881 5.18182C9.15142 4.74098 8.47841 4.5 7.78388 4.5H5Z" fill="#64748B"/>
<path fill-rule="evenodd" clip-rule="evenodd" d="M14 11.5V15.5003L15.3339 14.0881L16.6665 15.7348C17.1113 16.2058 17.1113 16.6761 17.1113 16.6761V19.5H18.8887V16.2058C18.8887 16.2058 18.8887 15.7355 18.6532 15.2645C18.4177 14.7935 17.9997 14.3232 17.9997 14.3232L16.6665 12.7143L17.7776 11.5M20.6668 11.5L18.6845 13.6036L18.8887 13.8529C18.8887 13.8529 19.3023 14.3232 19.5422 14.7942C19.6354 14.9821 19.689 15.1659 19.7197 15.326L22 12.9116" fill="#2DD4BF"/>
</svg>
