<svg width="24" height="25" viewBox="0 0 24 25" fill="none" xmlns="http://www.w3.org/2000/svg">
<path fill-rule="evenodd" clip-rule="evenodd" d="M5 4.5C3.34315 4.5 2 5.84315 2 7.5V17.5C2 19.1569 3.34315 20.5 5 20.5H12V18.5H5C4.44772 18.5 4 18.0523 4 17.5V7.5C4 6.94772 4.44772 6.5 5 6.5H7.78388C8.01539 6.5 8.23973 6.58033 8.41862 6.72727L10.8119 8.69318C11.3486 9.13402 12.0216 9.375 12.7161 9.375H19C19.5523 9.375 20 9.82272 20 10.375V10.5H22V10.375C22 8.71815 20.6569 7.375 19 7.375H12.7161C12.4846 7.375 12.2603 7.29467 12.0814 7.14773L9.6881 5.18182C9.15142 4.74098 8.47841 4.5 7.78388 4.5H5Z" fill="#64748B"/>
<path d="M20.6402 12.8334C20.7111 12.8332 20.7805 12.8523 20.8398 12.8884L18.6762 11.555C18.6169 11.5189 18.5475 11.4998 18.4765 11.5C18.4249 11.4999 18.3737 11.5103 18.3269 11.5305C18.2799 11.5506 18.2384 11.58 18.205 11.6166L15.9082 14.0884L14.5971 15.4984L13.8058 16.3501L13 17.2167L14.4389 18.2167L15.9082 16.9117L17.4964 15.5L18.838 14.3084L20.3669 12.95L20.392 12.9266C20.4247 12.8967 20.4635 12.8731 20.506 12.8571C20.5486 12.8411 20.5942 12.833 20.6402 12.8334Z" fill="#4E8CD8"/>
<path d="M18.6816 19.4451L20.8398 18.1117C20.7805 18.1478 20.7111 18.167 20.6402 18.1667C20.5942 18.1671 20.5486 18.159 20.506 18.143C20.4635 18.127 20.4247 18.1034 20.392 18.0735L20.3669 18.0501L18.8399 16.6935L17.4964 15.5001L15.9082 14.0885L14.4389 12.7834L13 13.7817L13.8058 14.6485L14.5971 15.4985L15.9082 16.9118L18.2087 19.3851C18.2665 19.4462 18.3461 19.4859 18.433 19.4969C18.5199 19.5079 18.6082 19.4896 18.6816 19.4451Z" fill="#60A5FA"/>
<path d="M21.0001 13.1666V17.8333C21.0001 17.8884 20.9855 17.9425 20.9576 17.9911C20.9297 18.0396 20.8892 18.081 20.8399 18.1116L18.6817 19.445C18.731 19.4144 18.7714 19.373 18.7993 19.3244C18.8272 19.2758 18.8418 19.2217 18.8418 19.1666V11.8333C18.841 11.7779 18.8255 11.7235 18.7966 11.6749C18.7678 11.6264 18.7264 11.5852 18.6763 11.5549L20.8399 12.8883C20.8891 12.919 20.9294 12.9605 20.9573 13.009C20.9852 13.0575 20.9999 13.1116 21.0001 13.1666Z" fill="#87BAF9"/>
<path opacity="0.4" d="M21.0001 13.1666V17.8333C21.0001 17.8884 20.9855 17.9425 20.9576 17.9911C20.9297 18.0396 20.8892 18.081 20.8399 18.1116L18.6817 19.445C18.731 19.4144 18.7714 19.373 18.7993 19.3244C18.8272 19.2758 18.8418 19.2217 18.8418 19.1666V11.8333C18.841 11.7779 18.8255 11.7235 18.7966 11.6749C18.7678 11.6264 18.7264 11.5852 18.6763 11.5549L20.8399 12.8883C20.8891 12.919 20.9294 12.9605 20.9573 13.009C20.9852 13.0575 20.9999 13.1116 21.0001 13.1666Z" fill="#60A5FA"/>
</svg>
