<svg width="24" height="24" viewBox="0 0 24 24" fill="none" xmlns="http://www.w3.org/2000/svg">
<path fill-rule="evenodd" clip-rule="evenodd" d="M5 4C3.34315 4 2 5.34315 2 7V17C2 18.6569 3.34315 20 5 20H13V18H5C4.44772 18 4 17.5523 4 17V7C4 6.44772 4.44772 6 5 6H7.78388C8.01539 6 8.23973 6.08033 8.41862 6.22727L10.8119 8.19318C11.3486 8.63402 12.0216 8.875 12.7161 8.875H19C19.5523 8.875 20 9.32272 20 9.875V10H22V9.875C22 8.21815 20.6569 6.875 19 6.875H12.7161C12.4846 6.875 12.2603 6.79467 12.0814 6.64773L9.6881 4.68182C9.15142 4.24098 8.47841 4 7.78388 4H5Z" fill="#64748B"/>
<path d="M14.2372 14.4356L16.5509 12.1178L17.2274 12.7983C17.1313 13.1386 17.2875 13.5109 17.5997 13.691V15.9087C17.3595 16.0448 17.1994 16.305 17.1994 16.6012C17.1994 17.0403 17.5609 17.4018 18 17.4018C18.4391 17.4018 18.8006 17.0403 18.8006 16.6012C18.8006 16.305 18.6405 16.0448 18.4003 15.9087V13.9632L19.2289 14.7998C19.2009 14.8599 19.2009 14.9279 19.2009 15C19.2009 15.4391 19.5624 15.8006 20.0015 15.8006C20.4406 15.8006 20.8021 15.4391 20.8021 15C20.8021 14.5609 20.4406 14.1994 20.0015 14.1994C19.9294 14.1994 19.8614 14.1994 19.8014 14.2274L18.7726 13.1986C18.8223 13.0132 18.803 12.8161 18.7184 12.6438C18.6337 12.4716 18.4894 12.3359 18.3122 12.2619C18.1401 12.1979 17.96 12.1819 17.7998 12.2259L17.1193 11.5494L17.4356 11.2372C17.7478 10.9209 18.2522 10.9209 18.5644 11.2372L21.7628 14.4356C22.0791 14.7478 22.0791 15.2522 21.7628 15.5644L18.5644 18.7628C18.2522 19.0791 17.7478 19.0791 17.4356 18.7628L14.2372 15.5644C13.9209 15.2522 13.9209 14.7478 14.2372 14.4356Z" fill="#FF7C7C"/>
</svg>
