<svg width="24" height="24" viewBox="0 0 24 24" fill="none" xmlns="http://www.w3.org/2000/svg">
<path fill-rule="evenodd" clip-rule="evenodd" d="M5 4C3.34315 4 2 5.34315 2 7V17C2 18.6569 3.34315 20 5 20H13V18H5C4.44772 18 4 17.5523 4 17V7C4 6.44772 4.44772 6 5 6H7.78388C8.01539 6 8.23973 6.08033 8.41862 6.22727L10.8119 8.19318C11.3486 8.63402 12.0216 8.875 12.7161 8.875H19C19.5523 8.875 20 9.32272 20 9.875V10H22V9.875C22 8.21815 20.6569 6.875 19 6.875H12.7161C12.4846 6.875 12.2603 6.79467 12.0814 6.64773L9.6881 4.68182C9.15142 4.24098 8.47841 4 7.78388 4H5Z" fill="#64748B"/>
<path fill-rule="evenodd" clip-rule="evenodd" d="M19.7441 15.8001C19.7764 15.5363 19.8004 15.2719 19.8004 15.0003C19.8004 14.7288 19.7764 14.4637 19.7441 14.1999H21.0961C21.1601 14.4559 21.1995 14.7236 21.1995 15.0003C21.1979 15.2702 21.1632 15.5388 21.0961 15.8001M19.0361 18.0243C19.276 17.5801 19.4603 17.0997 19.5883 16.5999H20.7683C20.3808 17.2674 19.7659 17.773 19.0361 18.0243ZM18.9359 15.8001H17.0641C17.024 15.5363 17.0001 15.2719 17.0001 15.0003C17.0001 14.7288 17.024 14.4604 17.0647 14.1999H18.9359C18.9721 14.4604 19.0006 14.7281 19.0006 15.0003C19.0006 15.2725 18.9721 15.5363 18.9359 15.8001ZM18.0003 18.184C17.6611 17.7011 17.403 17.166 17.2361 16.5999H18.7639C18.5972 17.166 18.3393 17.701 18.0003 18.184ZM16.4001 13.4001H15.2324C15.6159 12.7311 16.2301 12.225 16.96 11.9763C16.7208 12.4199 16.5397 12.9003 16.4001 13.4001ZM15.2324 16.6006H16.4001C16.5404 17.1004 16.7201 17.5801 16.96 18.0243C16.2315 17.7728 15.6181 17.2678 15.2324 16.6006ZM14.9039 15.8001C14.8368 15.5388 14.8021 15.2702 14.8005 15.0003C14.802 14.7303 14.8368 14.4614 14.9039 14.1999H16.2559C16.2242 14.4643 16.2003 14.7281 16.2003 15.0003C16.2003 15.2725 16.2242 15.5363 16.2559 15.8001M18.0003 11.8121C18.3393 12.2965 18.5973 12.8328 18.7639 13.4001H17.2361C17.403 12.8328 17.6611 12.2964 18.0003 11.8121ZM20.7676 13.4001H19.5883C19.463 12.9047 19.2776 12.4266 19.0361 11.9763C19.7666 12.226 20.3819 12.7318 20.7683 13.4001M18.0003 11C16.9397 11.001 15.9228 11.4228 15.1728 12.1728C14.4228 12.9228 14.001 13.9397 14 15.0003C14 15.5256 14.1035 16.0458 14.3045 16.5311C14.5056 17.0164 14.8002 17.4573 15.1717 17.8288C15.5432 18.2002 15.9842 18.4948 16.4695 18.6957C16.9549 18.8967 17.475 19.0001 18.0003 19C19.0611 19 20.0784 18.5786 20.8285 17.8285C21.5786 17.0784 22 16.0611 22 15.0003C22.0001 14.475 21.8967 13.9549 21.6957 13.4695C21.4948 12.9842 21.2002 12.5432 20.8288 12.1717C20.4573 11.8002 20.0164 11.5056 19.5311 11.3045C19.0458 11.1035 18.5256 11 18.0003 11Z" fill="#8CDBFF"/>
</svg>
