<svg width="24" height="24" viewBox="0 0 24 24" fill="none" xmlns="http://www.w3.org/2000/svg">
<path fill-rule="evenodd" clip-rule="evenodd" d="M5 4C3.34315 4 2 5.34315 2 7V17C2 18.6569 3.34315 20 5 20H13V18H5C4.44772 18 4 17.5523 4 17V7C4 6.44772 4.44772 6 5 6H7.78388C8.01539 6 8.23973 6.08033 8.41862 6.22727L10.8119 8.19318C11.3486 8.63402 12.0216 8.875 12.7161 8.875H19C19.5523 8.875 20 9.32272 20 9.875V10H22V9.875C22 8.21815 20.6569 6.875 19 6.875H12.7161C12.4846 6.875 12.2603 6.79467 12.0814 6.64773L9.6881 4.68182C9.15142 4.24098 8.47841 4 7.78388 4H5Z" fill="#64748B"/>
<path d="M15.6408 18.7442C16.5469 18.7442 17.2815 18.0012 17.2815 17.0847C17.2815 16.1682 16.5469 15.4252 15.6408 15.4252C14.7346 15.4252 14 16.1682 14 17.0847C14 18.0012 14.7346 18.7442 15.6408 18.7442Z" fill="#2BD3C1"/>
<path d="M17.8285 14.3189C18.7346 14.3189 19.4692 13.576 19.4692 12.6595C19.4692 11.743 18.7346 11 17.8285 11C16.9223 11 16.1877 11.743 16.1877 12.6595C16.1877 13.576 16.9223 14.3189 17.8285 14.3189Z" fill="#2BD3C1"/>
<path d="M20.8913 20.7355C21.7974 20.7355 22.532 19.9925 22.532 19.076C22.532 18.1595 21.7974 17.4166 20.8913 17.4166C19.9851 17.4166 19.2505 18.1595 19.2505 19.076C19.2505 19.9925 19.9851 20.7355 20.8913 20.7355Z" fill="#2BD3C1"/>
</svg>
