<svg width="24" height="25" viewBox="0 0 24 25" fill="none" xmlns="http://www.w3.org/2000/svg">
<path fill-rule="evenodd" clip-rule="evenodd" d="M5 4.5C3.34315 4.5 2 5.84315 2 7.5V17.5C2 19.1569 3.34315 20.5 5 20.5H13V18.5H5C4.44772 18.5 4 18.0523 4 17.5V7.5C4 6.94772 4.44772 6.5 5 6.5H7.78388C8.01539 6.5 8.23973 6.58033 8.41862 6.72727L10.8119 8.69318C11.3486 9.13402 12.0216 9.375 12.7161 9.375H19C19.5523 9.375 20 9.82272 20 10.375V10.5H22V10.375C22 8.71815 20.6569 7.375 19 7.375H12.7161C12.4846 7.375 12.2603 7.29467 12.0814 7.14773L9.6881 5.18182C9.15142 4.74098 8.47841 4.5 7.78388 4.5H5Z" fill="#64748B"/>
<path d="M21.5436 13.4148L18.4526 11.622C18.1726 11.4593 17.8286 11.4593 17.5487 11.622L14.4576 13.4148C14.2793 13.5183 14.1441 13.6777 14.0679 13.8648C14.0235 13.9741 14 14.0923 14 14.2145V17.7866C14 18.1171 14.1688 18.3915 14.4519 18.5561L14.8899 18.8087L14.9032 14.6182C14.9032 14.5295 14.9222 14.4375 14.9521 14.3572C15.0105 14.2119 15.1184 14.0795 15.2574 13.9991L17.6509 12.6113C17.868 12.4853 18.1339 12.4853 18.351 12.6113L20.7445 13.9991C20.9115 14.0962 21.0301 14.2569 21.0765 14.4408C21.0911 14.498 21.0987 14.5571 21.0987 14.6182V17.3842C21.0987 17.6401 20.9635 17.876 20.7445 18.0033L18.351 19.3911C18.2418 19.4548 18.12 19.4856 17.9981 19.485V20.5C18.1542 20.5 18.3116 20.4595 18.4513 20.3785L21.5424 18.5857C21.8255 18.4218 22 18.1164 22 17.786V14.2145C22 14.1296 21.9886 14.0467 21.9664 13.9676C21.9048 13.7369 21.7537 13.5369 21.5436 13.4148Z" fill="#FF7043"/>
<path d="M18.2514 18.4314L19.9683 17.4357C20.1258 17.3444 20.2222 17.1753 20.2222 16.9915V15.0084C20.2222 14.9666 20.2172 14.9261 20.2076 14.8862C20.1753 14.7519 20.0896 14.6349 19.9683 14.5642L18.2514 13.5691C18.0959 13.4791 17.9049 13.4791 17.7494 13.5691L16.0331 14.5642C15.9252 14.6272 15.8452 14.7268 15.8059 14.8419C15.7894 14.8939 15.7786 14.9524 15.7786 15.0084L15.7722 19.3127L16.6881 19.8334V17.8162L17.7494 18.4314C17.8255 18.4757 17.9106 18.4982 17.9956 18.4989C18.0839 18.5002 18.1721 18.4777 18.2514 18.4314ZM16.8322 16.8526C16.7389 16.7986 16.6811 16.6977 16.6811 16.5891V15.4114C16.6811 15.3754 16.6875 15.3407 16.6989 15.3079C16.723 15.2411 16.7694 15.1839 16.8322 15.1479L17.8516 14.5571C17.9436 14.5037 18.0572 14.5037 18.1499 14.5571L19.1692 15.1479C19.2441 15.1916 19.2962 15.2648 19.3133 15.3484C19.3165 15.3664 19.3197 15.3928 19.3197 15.4114V16.5891C19.3197 16.6977 19.2619 16.7986 19.1686 16.8526L18.1492 17.4434C18.1029 17.4704 18.0515 17.4839 18.0001 17.4839C17.9487 17.4839 17.8973 17.4704 17.8509 17.444L16.8322 16.8526Z" fill="#FF7043"/>
</svg>
