<svg width="24" height="24" viewBox="0 0 24 24" fill="none" xmlns="http://www.w3.org/2000/svg">
<path fill-rule="evenodd" clip-rule="evenodd" d="M5 4C3.34315 4 2 5.34315 2 7V17C2 18.6569 3.34315 20 5 20H14V18H5C4.44772 18 4 17.5523 4 17V7C4 6.44772 4.44772 6 5 6H7.78388C8.01539 6 8.23973 6.08033 8.41862 6.22727L10.8119 8.19318C11.3486 8.63402 12.0216 8.875 12.7161 8.875H19C19.5523 8.875 20 9.32272 20 9.875V10H22V9.875C22 8.21815 20.6569 6.875 19 6.875H12.7161C12.4846 6.875 12.2603 6.79467 12.0814 6.64773L9.6881 4.68182C9.15142 4.24098 8.47841 4 7.78388 4H5Z" fill="#64748B"/>
<path fill-rule="evenodd" clip-rule="evenodd" d="M21.9569 12.9787C21.7075 12.0388 20.0853 11.73 18.5499 12.2539C17.6361 12.5658 16.6472 13.0552 15.9358 13.6942C15.0901 14.4541 14.9552 15.1153 15.011 15.3917C15.207 16.3666 16.5978 17.0041 17.1695 17.4767V17.4796C17.0008 17.5592 15.7671 18.159 15.4783 18.7723C15.1737 19.4194 15.5269 19.8835 15.7607 19.9461C16.4852 20.1398 17.2285 19.7916 17.6283 19.219C18.0139 18.6665 17.9817 17.9532 17.8141 17.5983C18.0452 17.5398 18.3147 17.5136 18.6571 17.5519C19.6235 17.6604 19.8131 18.2399 19.7769 18.4826C19.7407 18.7252 19.538 18.8586 19.4701 18.8988C19.4023 18.939 19.3817 18.9532 19.3873 18.983C19.3956 19.0266 19.427 19.025 19.4846 19.0155C19.5643 19.0026 19.992 18.8182 20.0105 18.3705C20.0338 17.802 19.4667 17.1661 18.4625 17.1828C18.049 17.1898 17.7889 17.2274 17.6009 17.2946C17.587 17.2794 17.5731 17.2642 17.5583 17.2493C16.9376 16.6131 15.7899 16.1631 15.8384 15.3077C15.8561 14.9968 15.9688 14.178 18.0436 13.1848C19.7434 12.3711 21.1042 12.5952 21.3394 13.0913C21.6753 13.8001 20.6122 15.1176 18.847 15.3077C18.1745 15.3801 17.8203 15.1297 17.7323 15.0365C17.6396 14.9383 17.6259 14.9339 17.591 14.9522C17.5347 14.9824 17.5704 15.0689 17.591 15.1207C17.6438 15.2526 17.86 15.4862 18.2287 15.6024C18.5531 15.7046 19.3425 15.7608 20.2976 15.4061C21.367 15.0081 22.2022 13.9026 21.9569 12.9787ZM17.4068 17.768C17.487 18.0529 17.4781 18.3185 17.3953 18.5588C17.3769 18.6124 17.3549 18.6647 17.3293 18.7154C17.2655 18.8427 17.1797 18.9617 17.0748 19.0716C16.7547 19.407 16.3077 19.534 16.116 19.4271C15.909 19.3117 16.0127 18.8388 16.3836 18.4622C16.7828 18.0568 17.3572 17.7961 17.3572 17.7961L17.3564 17.7946L17.4068 17.768Z" fill="#FF79A6" stroke="#FF79A6" stroke-width="0.501517" stroke-linejoin="round"/>
</svg>
