<svg width="24" height="25" viewBox="0 0 24 25" fill="none" xmlns="http://www.w3.org/2000/svg">
<path fill-rule="evenodd" clip-rule="evenodd" d="M5 4.5C3.34315 4.5 2 5.84315 2 7.5V17.5C2 19.1569 3.34315 20.5 5 20.5H13V18.5H5C4.44772 18.5 4 18.0523 4 17.5V7.5C4 6.94772 4.44772 6.5 5 6.5H7.78388C8.01539 6.5 8.23973 6.58033 8.41862 6.72727L10.8119 8.69318C11.3486 9.13402 12.0216 9.375 12.7161 9.375H19C19.5523 9.375 20 9.82272 20 10.375V10.5H22V10.375C22 8.71815 20.6569 7.375 19 7.375H12.7161C12.4846 7.375 12.2603 7.29467 12.0814 7.14773L9.6881 5.18182C9.15142 4.74098 8.47841 4.5 7.78388 4.5H5Z" fill="#64748B"/>
<path fill-rule="evenodd" clip-rule="evenodd" d="M20.0002 15.9H15.9998V15.1H20.0002M18.0003 11.5C16.9395 11.5 15.9221 11.9214 15.1719 12.6714C14.4217 13.4215 14.0002 14.4388 14 15.4997C14 16.5606 14.4215 17.5781 15.1717 18.3283C15.9219 19.0785 16.9394 19.5 18.0003 19.5C19.0612 19.4998 20.0785 19.0783 20.8286 18.3281C21.5786 17.5779 22 16.5605 22 15.4997C21.9998 14.4389 21.5784 13.4217 20.8283 12.6717C20.0783 11.9216 19.0611 11.5002 18.0003 11.5Z" fill="#FF7C7C" fill-opacity="0.94902"/>
</svg>
