<svg width="24" height="24" viewBox="0 0 24 24" fill="none" xmlns="http://www.w3.org/2000/svg">
<path fill-rule="evenodd" clip-rule="evenodd" d="M5 4C3.34315 4 2 5.34315 2 7V17C2 18.6569 3.34315 20 5 20H13V18H5C4.44772 18 4 17.5523 4 17V7C4 6.44772 4.44772 6 5 6H7.78388C8.01539 6 8.23973 6.08033 8.41862 6.22727L10.8119 8.19318C11.3486 8.63402 12.0216 8.875 12.7161 8.875H19C19.5523 8.875 20 9.32272 20 9.875V10H22V9.875C22 8.21815 20.6569 6.875 19 6.875H12.7161C12.4846 6.875 12.2603 6.79467 12.0814 6.64773L9.6881 4.68182C9.15142 4.24098 8.47841 4 7.78388 4H5Z" fill="#64748B"/>
<path fill-rule="evenodd" clip-rule="evenodd" d="M20.8002 13.0003H16.7999V12.2003H20.8002M19.2001 16.2003H16.8006V15.4003H19.2001M20.8002 14.6003H16.7999V13.8003H20.8002M21.1999 11H16.4002C16.2951 11 16.191 11.0207 16.0939 11.061C15.9968 11.1012 15.9085 11.1602 15.8342 11.2345C15.7599 11.3089 15.701 11.3972 15.6608 11.4943C15.6207 11.5914 15.6 11.6955 15.6001 11.8007V16.6C15.6001 16.8122 15.6844 17.0157 15.8345 17.1657C15.9845 17.3157 16.188 17.4 16.4002 17.4H21.1999C21.4121 17.4 21.6156 17.3157 21.7657 17.1657C21.9157 17.0157 22 16.8122 22 16.6V11.8007C22 11.5885 21.9157 11.385 21.7657 11.235C21.6156 11.0849 21.4121 11.0007 21.1999 11.0007M14.8001 12.6007H14V18.2C14 18.4122 14.0843 18.6157 14.2343 18.7657C14.3844 18.9157 14.5879 19 14.8001 19H20.4005V18.2H14.7994L14.8001 12.6007Z" fill="#FFCE50"/>
</svg>
