<svg width="24" height="25" viewBox="0 0 24 25" fill="none" xmlns="http://www.w3.org/2000/svg">
<path fill-rule="evenodd" clip-rule="evenodd" d="M5 3.5C3.34315 3.5 2 4.84315 2 6.5V16.5C2 18.1569 3.34315 19.5 5 19.5H12V17.5H5C4.44772 17.5 4 17.0523 4 16.5V6.5C4 5.94772 4.44772 5.5 5 5.5H7.78388C8.01539 5.5 8.23973 5.58033 8.41862 5.72727L10.8119 7.69318C11.3486 8.13402 12.0216 8.375 12.7161 8.375H19C19.5523 8.375 20 8.82272 20 9.375V9.5H22V9.375C22 7.71815 20.6569 6.375 19 6.375H12.7161C12.4846 6.375 12.2603 6.29467 12.0814 6.14773L9.6881 4.18182C9.15142 3.74098 8.47841 3.5 7.78388 3.5H5Z" fill="#64748B"/>
<path fill-rule="evenodd" clip-rule="evenodd" d="M17.0006 10.5C16.3375 10.5 15.6847 10.6648 15.1012 10.9798C14.5176 11.2948 14.0215 11.7499 13.6576 12.3043L13.9144 12.3093C14.334 12.3093 14.9821 12.2592 14.9821 12.2592C15.197 12.2448 15.2245 12.5611 15.0103 12.5886L14.5481 12.6362L16.0074 16.9575L16.8829 14.3334L16.2591 12.6362L15.8345 12.5886C15.6247 12.5748 15.6479 12.2448 15.8627 12.2592L16.9154 12.3093C17.3351 12.3093 17.9839 12.2592 17.9839 12.2592C18.1981 12.2448 18.2275 12.5611 18.0083 12.5886L17.5511 12.6362L18.9959 16.9243L19.3967 15.5916C19.564 15.0373 19.6999 14.6403 19.6999 14.3002C19.6999 13.8011 19.5226 13.4604 19.3679 13.1948C19.1675 12.8679 18.9765 12.5899 18.9765 12.2586C18.9765 11.8903 19.2577 11.5503 19.6491 11.5503H19.6999C18.9631 10.875 18 10.5002 17.0006 10.5ZM20.5115 12.5805L20.5391 12.9951C20.5391 13.4009 20.4589 13.8568 20.2309 14.4255L19.0097 17.9545C19.6149 17.6036 20.1174 17.0998 20.4667 16.4937C20.816 15.8875 20.9999 15.2002 21 14.5006C21.0015 13.8296 20.8335 13.1692 20.5115 12.5805ZM13.3445 12.8698C13.1184 13.3841 13.0011 13.9395 13 14.5012C12.9994 15.2526 13.2108 15.9889 13.61 16.6255C14.0091 17.2621 14.5798 17.7731 15.2565 18.0998L13.3445 12.8698ZM17.0708 14.8507L15.8721 18.339C16.2384 18.4472 16.6186 18.5014 17.0006 18.5C17.4536 18.5017 17.9034 18.4249 18.3302 18.2733L18.3008 18.2163L17.0708 14.8507Z" fill="#E1F5FE"/>
</svg>
