<svg width="24" height="25" viewBox="0 0 24 25" fill="none" xmlns="http://www.w3.org/2000/svg">
<path fill-rule="evenodd" clip-rule="evenodd" d="M5 4.5C3.34315 4.5 2 5.84315 2 7.5V17.5C2 19.1569 3.34315 20.5 5 20.5H11V18.5H5C4.44772 18.5 4 18.0523 4 17.5V7.5C4 6.94772 4.44772 6.5 5 6.5H7.78388C8.01539 6.5 8.23973 6.58033 8.41862 6.72727L10.8119 8.69318C11.3486 9.13402 12.0216 9.375 12.7161 9.375H19C19.5523 9.375 20 9.82272 20 10.375V10.5H22V10.375C22 8.71815 20.6569 7.375 19 7.375H12.7161C12.4846 7.375 12.2603 7.29467 12.0814 7.14773L9.6881 5.18182C9.15142 4.74098 8.47841 4.5 7.78388 4.5H5Z" fill="#64748B"/>
<path fill-rule="evenodd" clip-rule="evenodd" d="M12.8698 11.5H20.2611C20.4918 11.5 20.713 11.5937 20.8761 11.7604C21.0393 11.9272 21.1309 12.1533 21.1309 12.3891V13.2775H19.3913V12.3891H13.7389V17.7225H17.6524V18.6116H12.8691C12.6385 18.6114 12.4175 18.5176 12.2545 18.3509C12.0915 18.1842 12 17.9582 12 17.7225V12.3891C12 12.1534 12.0915 11.9274 12.2545 11.7607C12.4175 11.594 12.6392 11.5002 12.8698 11.5ZM18.9564 14.1667H21.5658C21.681 14.1669 21.7915 14.2138 21.8729 14.2971C21.9543 14.3805 22 14.4935 22 14.6112V19.0554C22 19.1732 21.9543 19.2862 21.8729 19.3695C21.7915 19.4529 21.681 19.4998 21.5658 19.5H18.9564C18.8411 19.4998 18.7307 19.4529 18.6493 19.3695C18.5679 19.2862 18.5222 19.1732 18.5222 19.0554V14.6112C18.5222 14.4935 18.5679 14.3805 18.6493 14.2971C18.7307 14.2138 18.8411 14.1669 18.9564 14.1667ZM19.3913 15.0558V18.167H21.1309V15.0558H19.3913Z" fill="#FF7C7C"/>
</svg>
