<svg width="24" height="24" viewBox="0 0 24 24" fill="none" xmlns="http://www.w3.org/2000/svg">
<path fill-rule="evenodd" clip-rule="evenodd" d="M5 4C3.34315 4 2 5.34315 2 7V17C2 18.6569 3.34315 20 5 20H13V18H5C4.44772 18 4 17.5523 4 17V7C4 6.44772 4.44772 6 5 6H7.78388C8.01539 6 8.23973 6.08033 8.41862 6.22727L10.8119 8.19318C11.3486 8.63402 12.0216 8.875 12.7161 8.875H19C19.5523 8.875 20 9.32272 20 9.875V10H22V9.875C22 8.21815 20.6569 6.875 19 6.875H12.7161C12.4846 6.875 12.2603 6.79467 12.0814 6.64773L9.6881 4.68182C9.15142 4.24098 8.47841 4 7.78388 4H5Z" fill="#64748B"/>
<path fill-rule="evenodd" clip-rule="evenodd" d="M16.8001 19C16.6939 19 16.5921 18.9578 16.5171 18.8828C16.442 18.8077 16.3999 18.7059 16.3999 18.5998V17.3999H14.8004C14.6953 17.3999 14.5912 17.3792 14.4941 17.3389C14.397 17.2987 14.3087 17.2398 14.2344 17.1654C14.1601 17.0911 14.1011 17.0029 14.0609 16.9058C14.0207 16.8087 14 16.7046 14 16.5995V11.8004C14 11.3557 14.3602 11 14.8004 11H21.2003C21.4124 11.0002 21.6158 11.0846 21.7658 11.2347C21.9158 11.3847 22 11.5882 22 11.8004V16.6001C22 16.7052 21.9793 16.8093 21.9391 16.9064C21.8989 17.0035 21.8399 17.0918 21.7656 17.1661C21.6913 17.2404 21.603 17.2994 21.5059 17.3396C21.4088 17.3798 21.3047 17.4005 21.1996 17.4005H18.7604L17.2803 18.8838C17.2053 18.9571 17.105 18.9987 17.0002 19H16.8001ZM15.2006 12.2006V13.001H20.8001V12.2006H15.2006ZM15.2006 13.8007V14.6011H18.4002V13.8007H15.2006ZM15.1999 15.4002V16.2006H19.1993V15.4002H15.1999Z" fill="#FFCE50"/>
</svg>
