<svg width="24" height="25" viewBox="0 0 24 25" fill="none" xmlns="http://www.w3.org/2000/svg">
<path fill-rule="evenodd" clip-rule="evenodd" d="M5 3.5C3.34315 3.5 2 4.84315 2 6.5V16.5C2 18.1569 3.34315 19.5 5 19.5H12V17.5H5C4.44772 17.5 4 17.0523 4 16.5V6.5C4 5.94772 4.44772 5.5 5 5.5H7.78388C8.01539 5.5 8.23973 5.58033 8.41862 5.72727L10.8119 7.69318C11.3486 8.13402 12.0216 8.375 12.7161 8.375H19C19.5523 8.375 20 8.82272 20 9.375V9.5H22V9.375C22 7.71815 20.6569 6.375 19 6.375H12.7161C12.4846 6.375 12.2603 6.29467 12.0814 6.14773L9.6881 4.18182C9.15142 3.74098 8.47841 3.5 7.78388 3.5H5Z" fill="#64748B"/>
<path d="M17.1379 16.5689V18.5H20.5C20.7761 18.5 21 18.2761 21 18V14.638H17.1379V16.5689ZM13 16.5689V18C13 18.2761 13.2239 18.5 13.5 18.5H16.862V14.638H13V16.5689ZM17.1379 12.431V14.362H21V11C21 10.7239 20.7761 10.5 20.5 10.5H17.1379V12.431ZM13 12.431V14.362H16.862V10.5H13.5C13.2239 10.5 13 10.7239 13 11V12.431Z" fill="#8CDBFF"/>
</svg>
