<svg width="24" height="25" viewBox="0 0 24 25" fill="none" xmlns="http://www.w3.org/2000/svg">
<path fill-rule="evenodd" clip-rule="evenodd" d="M5 4.5C3.34315 4.5 2 5.84315 2 7.5V17.5C2 19.1569 3.34315 20.5 5 20.5H11V18.5H5C4.44772 18.5 4 18.0523 4 17.5V7.5C4 6.94772 4.44772 6.5 5 6.5H7.78388C8.01539 6.5 8.23973 6.58033 8.41862 6.72727L10.8119 8.69318C11.3486 9.13402 12.0216 9.375 12.7161 9.375H19C19.5523 9.375 20 9.82272 20 10.375V10.5H22V10.375C22 8.71815 20.6569 7.375 19 7.375H12.7161C12.4846 7.375 12.2603 7.29467 12.0814 7.14773L9.6881 5.18182C9.15142 4.74098 8.47841 4.5 7.78388 4.5H5Z" fill="#64748B"/>
<path fill-rule="evenodd" clip-rule="evenodd" d="M15.7028 13.3191C15.9098 13.7715 15.787 14.3499 15.4284 14.6111L12.3988 16.818C12.0402 17.0792 11.5818 16.9242 11.3748 16.4718C11.1677 16.0194 11.2906 15.441 11.6491 15.1798L14.6788 12.9729C15.0373 12.7117 15.4958 12.8667 15.7028 13.3191Z" fill="#F87171"/>
<path fill-rule="evenodd" clip-rule="evenodd" d="M11.3748 15.5281C11.5818 15.0757 12.0403 14.9207 12.3988 15.1819L15.4285 17.3888C15.787 17.65 15.9099 18.2285 15.7029 18.6809C15.4959 19.1332 15.0374 19.2882 14.6788 19.027L11.6492 16.8201C11.2907 16.5589 11.1678 15.9805 11.3748 15.5281Z" fill="#2563EB"/>
<path fill-rule="evenodd" clip-rule="evenodd" d="M21.6252 15.5281C21.4182 15.0757 20.9597 14.9207 20.6012 15.1819L17.5715 17.3888C17.213 17.65 17.0901 18.2285 17.2971 18.6809C17.5041 19.1332 17.9626 19.2882 18.3212 19.027L21.3508 16.8201C21.7093 16.5589 21.8322 15.9805 21.6252 15.5281Z" fill="#F59E0B"/>
<path fill-rule="evenodd" clip-rule="evenodd" d="M17.2972 13.3191C17.0902 13.7715 17.213 14.3499 17.5716 14.6111L20.6012 16.818C20.9598 17.0792 21.4182 16.9242 21.6252 16.4718C21.8323 16.0194 21.7094 15.441 21.3509 15.1798L18.3212 12.9729C17.9627 12.7117 17.5042 12.8667 17.2972 13.3191Z" fill="#2DD4BF"/>
</svg>
