<svg width="48" height="48" viewBox="0 0 48 48" fill="none" xmlns="http://www.w3.org/2000/svg">
<path fill-rule="evenodd" clip-rule="evenodd" d="M10 8.25C6.82436 8.25 4.25 10.8244 4.25 14V34C4.25 37.1756 6.82436 39.75 10 39.75H20V36.25H10C8.75736 36.25 7.75 35.2426 7.75 34V14C7.75 12.7574 8.75736 11.75 10 11.75H15.5678C16.0887 11.75 16.5934 11.9307 16.9959 12.2614L21.7825 16.1932C22.8111 17.0381 24.1011 17.5 25.4322 17.5H38C38.9797 17.5 39.8131 18.1261 40.122 19H43.7015C43.334 16.1787 40.9214 14 38 14H25.4322C24.9113 14 24.4066 13.8193 24.0041 13.4886L19.2175 9.55682C18.1889 8.71187 16.8989 8.25 15.5678 8.25H10Z" fill="#64748B"/>
<path d="M24.2 27.4348V36.5658C24.2 38.3288 25.5938 39.76 27.3136 39.76H42.8863C44.6061 39.76 46 38.3288 46 36.5658V27.4348L36.7316 33.2813C35.7319 33.9134 34.468 33.9134 33.4683 33.2813L24.2 27.4348Z" fill="#F87171"/>
<path d="M46 25.5612V25.3919C46 23.6289 44.6061 22.2 42.8863 22.2H27.3136C25.5938 22.2 24.2 23.6289 24.2 25.3919V25.5612L34.283 31.9224C34.7851 32.2384 35.4148 32.2384 35.9169 31.9224L46 25.5612Z" fill="#F87171"/>
</svg>
