<svg width="48" height="48" viewBox="0 0 48 48" fill="none" xmlns="http://www.w3.org/2000/svg">
<g clip-path="url(#clip0_808_1164)">
<path fill-rule="evenodd" clip-rule="evenodd" d="M10 8.25003C6.82436 8.25003 4.25 10.8244 4.25 14V34C4.25 37.1757 6.82436 39.75 10 39.75H21V36.25H10C8.75736 36.25 7.75 35.2427 7.75 34V14C7.75 12.7574 8.75736 11.75 10 11.75H15.5678C16.0887 11.75 16.5934 11.9308 16.9959 12.2614L21.7825 16.1932C22.8111 17.0382 24.1011 17.5 25.4322 17.5H38C39.2426 17.5 40.25 18.5074 40.25 19.75V20H43.75V19.75C43.75 16.5744 41.1756 14 38 14H25.4322C24.9113 14 24.4066 13.8193 24.0041 13.4887L19.2175 9.55685C18.1889 8.7119 16.8989 8.25003 15.5678 8.25003H10Z" fill="#64748B"/>
<path d="M30.5738 22.7273H33.7656V33.3764C33.7656 34.3608 33.5443 35.2159 33.1019 35.9418C32.6644 36.6676 32.0554 37.2269 31.2748 37.6197C30.4943 38.0124 29.587 38.2088 28.5529 38.2088C27.6331 38.2088 26.7979 38.0472 26.0472 37.7241C25.3014 37.396 24.7098 36.8988 24.2723 36.2326C23.8348 35.5614 23.6186 34.7187 23.6235 33.7045H26.8377C26.8476 34.1072 26.9296 34.4528 27.0838 34.7411C27.2429 35.0245 27.4591 35.2433 27.7326 35.3974C28.011 35.5465 28.3391 35.6211 28.7169 35.6211C29.1147 35.6211 29.4502 35.5366 29.7237 35.3675C30.0021 35.1935 30.2134 34.94 30.3576 34.6069C30.5017 34.2738 30.5738 33.8636 30.5738 33.3764V22.7273ZM44.7205 27.1197C44.6608 26.5181 44.4048 26.0508 43.9524 25.7177C43.5 25.3846 42.886 25.218 42.1104 25.218C41.5834 25.218 41.1384 25.2926 40.7755 25.4418C40.4126 25.5859 40.1342 25.7873 39.9403 26.0458C39.7514 26.3043 39.6569 26.5977 39.6569 26.9258C39.647 27.1992 39.7041 27.4379 39.8284 27.6417C39.9577 27.8455 40.1342 28.022 40.3579 28.1712C40.5816 28.3153 40.8402 28.4421 41.1335 28.5515C41.4268 28.6559 41.74 28.7454 42.0731 28.82L43.4453 29.1481C44.1115 29.2972 44.723 29.4961 45.2798 29.7447C45.8366 29.9933 46.3188 30.299 46.7265 30.6619C47.1342 31.0249 47.4499 31.4524 47.6736 31.9446C47.9023 32.4368 48.0191 33.0011 48.0241 33.6374C48.0191 34.5721 47.7805 35.3825 47.3082 36.0685C46.8409 36.7496 46.1647 37.2791 45.2798 37.657C44.3998 38.0298 43.3384 38.2163 42.0955 38.2163C40.8625 38.2163 39.7887 38.0273 38.8739 37.6495C37.9641 37.2717 37.2532 36.7124 36.7411 35.9716C36.234 35.2259 35.968 34.3036 35.9431 33.2049H39.0678C39.1026 33.717 39.2492 34.1445 39.5078 34.4876C39.7713 34.8256 40.1218 35.0817 40.5593 35.2557C41.0017 35.4247 41.5014 35.5092 42.0582 35.5092C42.6051 35.5092 43.0799 35.4297 43.4826 35.2706C43.8902 35.1115 44.2059 34.8903 44.4296 34.6069C44.6534 34.3235 44.7652 33.9979 44.7652 33.63C44.7652 33.2869 44.6633 32.9986 44.4595 32.7649C44.2606 32.5312 43.9673 32.3324 43.5795 32.1683C43.1967 32.0043 42.7269 31.8551 42.1701 31.7209L40.5071 31.3033C39.2194 30.9901 38.2027 30.5004 37.457 29.8342C36.7112 29.168 36.3409 28.2706 36.3458 27.142C36.3409 26.2173 36.587 25.4094 37.0841 24.7184C37.5862 24.0273 38.2748 23.4879 39.1498 23.1001C40.0248 22.7124 41.0191 22.5185 42.1328 22.5185C43.2663 22.5185 44.2556 22.7124 45.1008 23.1001C45.951 23.4879 46.6122 24.0273 47.0845 24.7184C47.5568 25.4094 47.8004 26.2099 47.8153 27.1197H44.7205Z" fill="#FFCE50"/>
</g>
<defs>
<clipPath id="clip0_808_1164">
<rect width="48" height="48" fill="white"/>
</clipPath>
</defs>
</svg>
