<svg width="48" height="48" viewBox="0 0 48 48" fill="none" xmlns="http://www.w3.org/2000/svg">
<path fill-rule="evenodd" clip-rule="evenodd" d="M10 8.25003C6.82436 8.25003 4.25 10.8244 4.25 14V34C4.25 37.1757 6.82436 39.75 10 39.75H22V36.25H10C8.75736 36.25 7.75 35.2427 7.75 34V14C7.75 12.7574 8.75736 11.75 10 11.75H15.5678C16.0887 11.75 16.5934 11.9308 16.9959 12.2614L21.7825 16.1932C22.8111 17.0382 24.1011 17.5 25.4322 17.5H38C38.9797 17.5 39.8131 18.1261 40.122 19H43.7015C43.334 16.1788 40.9214 14 38 14H25.4322C24.9113 14 24.4066 13.8193 24.0041 13.4887L19.2175 9.55685C18.1889 8.7119 16.8989 8.25003 15.5678 8.25003H10Z" fill="#64748B"/>
<path fill-rule="evenodd" clip-rule="evenodd" d="M26 40H43.9997V37.9997H26M43.9997 27.0001H41.9994V24.0003H43.9997M43.9997 22H28.0003V32.0002C28.0007 33.0607 28.4222 34.0776 29.1721 34.8275C29.9219 35.5774 30.9389 35.9989 31.9994 35.9993H37.9988C39.0595 35.9993 40.0769 35.578 40.8271 34.8281C41.5773 34.0781 41.999 33.061 41.9994 32.0002V29.0004H43.9997C44.5302 29.0004 45.039 28.7897 45.4141 28.4145C45.7893 28.0394 46 27.5306 46 27.0001V24.0003C46 23.4698 45.7893 22.961 45.4141 22.5859C45.039 22.2108 44.5302 22 43.9997 22Z" fill="#FF7C7C"/>
</svg>
