<svg width="48" height="48" viewBox="0 0 48 48" fill="none" xmlns="http://www.w3.org/2000/svg">
<path fill-rule="evenodd" clip-rule="evenodd" d="M10 8.25003C6.82436 8.25003 4.25 10.8244 4.25 14V34C4.25 37.1757 6.82436 39.75 10 39.75H23V36.25H10C8.75736 36.25 7.75 35.2427 7.75 34V14C7.75 12.7574 8.75736 11.75 10 11.75H15.5678C16.0887 11.75 16.5934 11.9308 16.9959 12.2614L21.7825 16.1932C22.8111 17.0382 24.1011 17.5 25.4322 17.5H38C39.2426 17.5 40.25 18.5074 40.25 19.75V21H43.75V19.75C43.75 16.5744 41.1756 14 38 14H25.4322C24.9113 14 24.4066 13.8193 24.0041 13.4887L19.2175 9.55685C18.1889 8.7119 16.8989 8.25003 15.5678 8.25003H10Z" fill="#64748B"/>
<path fill-rule="evenodd" clip-rule="evenodd" d="M37 26C30.9274 26 26 28.4121 26 31.3838C26 33.7959 29.2346 35.8314 33.7002 36.5206V40L38.1005 35.6919L33.7002 31.3838V34.3254C30.2355 33.7203 28.1993 32.2781 28.1993 31.3838C28.1993 30.2425 31.5438 28.1532 37 28.1532C42.4562 28.1532 45.8007 30.2425 45.8007 31.3838C45.8007 32.1705 44.1937 33.4194 41.4003 34.1085V36.3172C45.2839 35.4869 48 33.5925 48 31.3838C48 28.4121 43.0726 26 37 26Z" fill="#C084FC"/>
</svg>
