<svg width="48" height="48" viewBox="0 0 48 48" fill="none" xmlns="http://www.w3.org/2000/svg">
<path fill-rule="evenodd" clip-rule="evenodd" d="M10 8.25C6.82436 8.25 4.25 10.8244 4.25 14V34C4.25 37.1756 6.82436 39.75 10 39.75H20.8967V36.25H10C8.75736 36.25 7.75 35.2426 7.75 34V14C7.75 12.7574 8.75736 11.75 10 11.75H15.5678C16.0887 11.75 16.5934 11.9307 16.9959 12.2614L21.7825 16.1932C22.8111 17.0381 24.1011 17.5 25.4322 17.5H38C39.2426 17.5 40.25 18.5074 40.25 19.75V20H43.75V19.75C43.75 16.5744 41.1756 14 38 14H25.4322C24.9113 14 24.4066 13.8193 24.0041 13.4886L19.2175 9.55682C18.1889 8.71187 16.8989 8.25 15.5678 8.25H10Z" fill="#64748B"/>
<path d="M29.4487 29.9967C29.7343 29.3706 29.584 28.5401 29.0136 28.1399C28.7156 27.9307 28.3618 27.8866 28.0413 27.9983C27.7262 28.1081 27.4717 28.357 27.3227 28.6835L24.7416 34.342C24.4561 34.9681 24.6063 35.7985 25.1767 36.1988C25.4747 36.408 25.8285 36.452 26.149 36.3404C26.4641 36.2306 26.7187 35.9817 26.8676 35.6552L29.4487 29.9967ZM35.9073 25.658C36.1929 25.032 36.0426 24.2015 35.4722 23.8012C35.1742 23.592 34.8204 23.548 34.4999 23.6596C34.1848 23.7694 33.9303 24.0183 33.7813 24.3448L31.2003 30.0033C30.9147 30.6294 31.065 31.4599 31.6353 31.8601C31.9334 32.0693 32.2871 32.1134 32.6076 32.0017C32.9228 31.8919 33.1773 31.643 33.3262 31.3165L35.9073 25.658ZM46.2584 25.6582C46.5439 25.0322 46.3937 24.2017 45.8233 23.8014C45.5253 23.5922 45.1715 23.5482 44.851 23.6598C44.5359 23.7696 44.2814 24.0185 44.1324 24.345L41.5513 30.0035C41.2657 30.6296 41.416 31.4601 41.9864 31.8604C42.2844 32.0695 42.6382 32.1136 42.9587 32.0019C43.2738 31.8921 43.5283 31.6433 43.6773 31.3167L46.2584 25.6582ZM39.7984 29.9967C40.084 29.3706 39.9337 28.5401 39.3633 28.1399C39.0653 27.9307 38.7115 27.8866 38.391 27.9983C38.0759 28.1081 37.8214 28.357 37.6724 28.6835L35.0914 34.342C34.8058 34.9681 34.9561 35.7985 35.5264 36.1988C35.8245 36.408 36.1782 36.452 36.4987 36.3404C36.8139 36.2306 37.0684 35.9817 37.2173 35.6552L39.7984 29.9967Z" fill="#4ADE80" stroke="#4ADE80" stroke-width="0.8"/>
</svg>
