<svg width="48" height="48" viewBox="0 0 48 48" fill="none" xmlns="http://www.w3.org/2000/svg">
<path fill-rule="evenodd" clip-rule="evenodd" d="M10 8.25C6.82436 8.25 4.25 10.8244 4.25 14V34C4.25 37.1756 6.82436 39.75 10 39.75H26V36.25H10C8.75736 36.25 7.75 35.2426 7.75 34V14C7.75 12.7574 8.75736 11.75 10 11.75H15.5678C16.0887 11.75 16.5934 11.9307 16.9959 12.2614L21.7825 16.1932C22.8111 17.0381 24.1011 17.5 25.4322 17.5H38C38.9797 17.5 39.8131 18.1261 40.122 19H43.7015C43.334 16.1787 40.9214 14 38 14H25.4322C24.9113 14 24.4066 13.8193 24.0041 13.4886L19.2175 9.55682C18.1889 8.71187 16.8989 8.25 15.5678 8.25H10Z" fill="#64748B"/>
<path fill-rule="evenodd" clip-rule="evenodd" d="M32.0008 22C31.738 21.9999 31.4778 22.0464 31.235 22.1368C30.9922 22.2273 30.7716 22.3599 30.5858 22.5271C30.4 22.6943 30.2526 22.8928 30.1521 23.1113C30.0516 23.3298 29.9999 23.564 30 23.8005V38.1968C29.9995 38.4335 30.0509 38.668 30.1512 38.8868C30.2516 39.1056 30.3989 39.3044 30.5847 39.4719C30.7706 39.6394 30.9913 39.7723 31.2343 39.8629C31.4773 39.9535 31.7377 40.0001 32.0008 40H43.9992C44.2623 40.0001 44.5227 39.9535 44.7657 39.8629C45.0087 39.7723 45.2294 39.6394 45.4153 39.4719C45.6011 39.3044 45.7484 39.1056 45.8488 38.8868C45.9491 38.668 46.0005 38.4335 46 38.1968V23.8005C46.0001 23.564 45.9484 23.3298 45.8479 23.1113C45.7474 22.8928 45.6 22.6943 45.4142 22.5271C45.2284 22.3599 45.0078 22.2273 44.765 22.1368C44.5222 22.0464 44.262 21.9999 43.9992 22H32.0008ZM32.0008 28.3005H43.9992V32.8006H32.0008V28.3005ZM32.0008 34.5984H43.9994V38.1968H32.0009L32.0008 34.5984Z" fill="#B2DFDB"/>
</svg>
