<svg width="48" height="48" viewBox="0 0 48 48" fill="none" xmlns="http://www.w3.org/2000/svg">
<path fill-rule="evenodd" clip-rule="evenodd" d="M10 8.25003C6.82436 8.25003 4.25 10.8244 4.25 14V34C4.25 37.1757 6.82436 39.75 10 39.75H27V36.25H10C8.75736 36.25 7.75 35.2427 7.75 34V14C7.75 12.7574 8.75736 11.75 10 11.75H15.5678C16.0887 11.75 16.5934 11.9308 16.9959 12.2614L21.7825 16.1932C22.8111 17.0382 24.1011 17.5 25.4322 17.5H38C39.2426 17.5 40.25 18.5074 40.25 19.75V20H43.75V19.75C43.75 16.5744 41.1756 14 38 14H25.4322C24.9113 14 24.4066 13.8193 24.0041 13.4887L19.2175 9.55685C18.1889 8.7119 16.8989 8.25003 15.5678 8.25003H10Z" fill="#64748B"/>
<path d="M44.4949 30.2034C44.2329 29.9013 43.9128 29.6377 43.6144 29.3805C42.8504 28.7826 41.9773 28.3519 41.2497 27.7219C40.424 26.9817 39.8832 26.0305 39.7043 25.0033C39.5253 23.9762 39.7173 22.9253 40.2529 22C39.1614 22.2314 38.2155 22.7522 37.4079 23.3179C35.9442 24.3554 34.8903 25.7761 34.3974 27.3759C33.9046 28.9756 33.9982 30.6723 34.6647 32.2221C34.7157 32.3185 34.7593 32.415 34.7593 32.55C34.7593 32.7686 34.5847 32.9743 34.3592 33.0515C34.0972 33.1543 33.8207 33.09 33.6024 32.9293C32.9147 32.2051 32.4754 31.3224 32.3362 30.385C32.197 29.4477 32.3636 28.4947 32.8166 27.6382C31.87 28.3518 31.1242 29.25 30.638 30.262C30.1518 31.274 29.9386 32.3721 30.0152 33.4694C30.088 33.9708 30.1535 34.4723 30.3499 34.9738C30.5027 35.5717 30.8156 36.1696 31.1576 36.7032C31.782 37.5715 32.6134 38.3089 33.5936 38.8641C34.5738 39.4193 35.6793 39.7788 36.833 39.9177C39.2706 40.1941 41.89 39.8019 43.7672 38.3232C44.7938 37.5164 45.5127 36.4487 45.8253 35.2666C46.138 34.0845 46.029 32.8458 45.5135 31.7206L45.368 31.4634C45.1278 31.0005 44.4875 30.2033 44.4875 30.2033M40.8785 36.5038C40.5511 36.7417 40.0272 36.9989 39.6197 37.1017C38.3391 37.5003 37.0584 36.941 36.3018 36.2788C36.8816 36.1716 37.4156 35.9224 37.8428 35.5598C38.27 35.1971 38.5731 34.7356 38.7175 34.228C38.9067 33.4308 38.5429 32.7686 38.3974 32.0036C38.236 31.316 38.3017 30.6018 38.5866 29.9462C38.8049 30.3191 39.0377 30.6984 39.3142 31.0006C40.1873 32.0035 41.5698 32.4407 41.8681 33.8036C41.9118 33.9386 41.9409 34.0801 41.9409 34.2279C41.9531 34.6518 41.865 35.0732 41.682 35.4651C41.4991 35.857 41.2253 36.2109 40.8785 36.5038Z" fill="#FF7043"/>
</svg>
