<svg width="48" height="48" viewBox="0 0 48 48" fill="none" xmlns="http://www.w3.org/2000/svg">
<path fill-rule="evenodd" clip-rule="evenodd" d="M10 8.25C6.82436 8.25 4.25 10.8244 4.25 14V34C4.25 37.1756 6.82436 39.75 10 39.75H24V36.25H10C8.75736 36.25 7.75 35.2426 7.75 34V14C7.75 12.7574 8.75736 11.75 10 11.75H15.5678C16.0887 11.75 16.5934 11.9307 16.9959 12.2614L21.7825 16.1932C22.8111 17.0381 24.1011 17.5 25.4322 17.5H38C38.9797 17.5 39.8131 18.1261 40.122 19H43.7015C43.334 16.1787 40.9214 14 38 14H25.4322C24.9113 14 24.4066 13.8193 24.0041 13.4886L19.2175 9.55682C18.1889 8.71187 16.8989 8.25 15.5678 8.25H10Z" fill="#64748B"/>
<path fill-rule="evenodd" clip-rule="evenodd" d="M42.7787 22H30.1115C28.9384 22 28 22.95 28 24.1115V38.8902C28 40.05 28.9401 41 30.1115 41H44.8902C46.05 41 47 40.05 47 38.8902V26.223L42.7787 22ZM37.5 38.8902C37.084 38.8906 36.6721 38.809 36.2877 38.6499C35.9033 38.4909 35.5541 38.2576 35.2601 37.9634C34.966 37.6692 34.7329 37.3198 34.574 36.9354C34.4152 36.5509 34.3338 36.1389 34.3344 35.723C34.3344 33.9717 35.7487 32.5557 37.5 32.5557C39.2513 32.5557 40.6672 33.97 40.6672 35.723C40.6672 37.4743 39.253 38.8902 37.5 38.8902ZM40.6672 28.3328H30.1115V24.1115H40.6672V28.3328Z" fill="#CFD8DC"/>
</svg>
