<svg width="48" height="48" viewBox="0 0 48 48" fill="none" xmlns="http://www.w3.org/2000/svg">
<path fill-rule="evenodd" clip-rule="evenodd" d="M10 8.25C6.82436 8.25 4.25 10.8244 4.25 14V34C4.25 37.1756 6.82436 39.75 10 39.75H26V36.25H10C8.75736 36.25 7.75 35.2426 7.75 34V14C7.75 12.7574 8.75736 11.75 10 11.75H15.5678C16.0887 11.75 16.5934 11.9307 16.9959 12.2614L21.7825 16.1932C22.8111 17.0381 24.1011 17.5 25.4322 17.5H38C38.9797 17.5 39.8131 18.1261 40.122 19H43.7015C43.334 16.1787 40.9214 14 38 14H25.4322C24.9113 14 24.4066 13.8193 24.0041 13.4886L19.2175 9.55682C18.1889 8.71187 16.8989 8.25 15.5678 8.25H10Z" fill="#64748B"/>
<path fill-rule="evenodd" clip-rule="evenodd" d="M45.9015 24.2021C45.3315 22.0873 41.6235 21.3924 38.114 22.5712C36.0253 23.273 33.7649 24.3742 32.1389 25.812C30.2059 27.5217 29.8976 29.0094 30.0251 29.6312C30.4731 31.8248 33.6522 33.2592 34.9589 34.3226V34.329C34.5733 34.5081 31.7534 35.8579 31.0933 37.2378C30.3971 38.6936 31.2043 39.7379 31.7387 39.8787C33.3947 40.3146 35.0937 39.531 36.0075 38.2427C36.8889 36.9996 36.8153 35.3948 36.4323 34.5962C36.9606 34.4646 37.5765 34.4055 38.3592 34.4919C40.5681 34.7359 41.0014 36.0398 40.9186 36.5858C40.8359 37.1317 40.3725 37.4319 40.2175 37.5223C40.0624 37.6127 40.0152 37.6446 40.0281 37.7118C40.0471 37.8098 40.1188 37.8063 40.2506 37.7848C40.4326 37.7559 41.4102 37.3409 41.4525 36.3337C41.5058 35.0546 40.2095 33.6237 37.9142 33.6614C36.9691 33.677 36.3746 33.7616 35.945 33.9129C35.9131 33.8787 35.8813 33.8445 35.8476 33.8109C34.4287 32.3794 31.8055 31.367 31.9164 29.4423C31.9569 28.7428 32.2143 26.9004 36.9569 24.6657C40.842 22.8349 43.9525 23.3391 44.49 24.4553C45.2579 26.0502 42.8278 29.0146 38.7931 29.4423C37.256 29.6052 36.4463 29.0418 36.2453 28.832C36.0333 28.6112 36.002 28.6014 35.9223 28.6425C35.7936 28.7103 35.8751 28.9051 35.9223 29.0215C36.0431 29.3183 36.5371 29.8439 37.3798 30.1053C38.1214 30.3354 39.9257 30.4617 42.1089 29.6637C44.5531 28.7683 46.4623 26.2809 45.9015 24.2021ZM35.5013 34.9781C35.6845 35.6191 35.6643 36.2166 35.4749 36.7573C35.433 36.8778 35.3826 36.9955 35.3241 37.1097C35.1783 37.396 34.9821 37.6637 34.7425 37.9112C34.0107 38.6657 32.989 38.9515 32.5508 38.711C32.0776 38.4513 32.3148 37.3873 33.1625 36.54C34.0751 35.6278 35.3879 35.0413 35.3879 35.0413L35.386 35.0378L35.5013 34.9781Z" fill="#FF79A6" stroke="#FF79A6" stroke-width="0.501517" stroke-linejoin="round"/>
</svg>
