<svg width="48" height="48" viewBox="0 0 48 48" fill="none" xmlns="http://www.w3.org/2000/svg">
<g clip-path="url(#clip0_808_672)">
<path fill-rule="evenodd" clip-rule="evenodd" d="M10 8.25C6.82439 8.25 4.25003 10.8244 4.25003 14V34C4.25003 37.1756 6.82439 39.75 10 39.75H26V36.25H10C8.75739 36.25 7.75003 35.2426 7.75003 34V14C7.75003 12.7574 8.75739 11.75 10 11.75H15.5678C16.0887 11.75 16.5935 11.9307 16.996 12.2614L21.7825 16.1932C22.8111 17.0381 24.1011 17.5 25.4323 17.5H38C39.2427 17.5 40.25 18.5074 40.25 19.75V20H43.75V19.75C43.75 16.5744 41.1757 14 38 14H25.4323C24.9114 14 24.4066 13.8193 24.0041 13.4886L19.2175 9.55682C18.1889 8.71187 16.899 8.25 15.5678 8.25H10Z" fill="#64748B"/>
<path d="M47.5803 31.7687C46.4488 30.6443 40.7902 29.9424 39.0048 29.7381C39.0919 29.525 39.1656 29.3064 39.2257 29.0835C39.4691 28.9734 39.7319 28.8708 40.0035 28.7852C40.0366 28.8861 40.1925 29.273 40.2814 29.4567C43.8715 29.5591 44.0559 26.6978 44.2018 25.9139C44.3447 25.1474 44.3374 24.4068 45.5688 23.0529C43.7342 22.5 41.0959 23.9098 40.2121 26.008C39.88 25.8793 39.5471 25.7844 39.218 25.7256C38.9821 24.7415 37.7537 22 34.53 22C30.4486 22 26 25.4819 26 31.3761C26 36.3306 29.2711 40.6728 31.1191 40.6728C31.9263 40.6728 32.6206 40.0477 32.7835 39.4874C32.9202 39.8716 33.3395 41.0658 33.4772 41.3698C33.6807 41.8194 34.622 42.2084 35.0339 41.7419C35.5635 42.0461 36.5354 42.2294 37.065 41.418C38.0851 41.6411 38.9868 41.0121 39.0065 40.2616C39.507 40.2339 39.7526 39.5072 39.6433 38.9284C39.5627 38.5023 38.702 36.9733 38.3663 36.4455C39.0309 37.0045 40.7142 37.1628 40.9187 36.4459C41.9902 37.3156 43.66 36.8591 43.7924 36.1518C45.0944 36.5016 46.5878 35.7333 46.3425 34.8028C48.4341 34.6532 48.1671 32.3519 47.5803 31.7687Z" fill="black"/>
<path d="M41.3461 27.0051C42.0711 26.2259 42.9821 25.375 44.1327 24.8487C42.8662 25.1251 41.6158 25.9517 40.8765 26.8352C40.5073 26.7078 40.125 26.5921 39.7313 26.4885C40.7626 25.296 43.159 24.3 45.8 24.2222C44.0311 25.0913 44.659 26.8976 43.2046 27.8539C42.7884 27.6274 41.8327 27.1904 41.3461 27.0051ZM40.2025 28.2739C40.2033 28.2441 40.2239 28.0141 40.2626 27.9091C40.1611 27.8962 39.5307 27.8294 39.202 27.8335C39.178 28.0572 39.3755 28.4376 39.5706 28.6667C40.9144 28.6514 41.885 28.4334 42.4563 28.233C41.9699 28.1102 41.14 28.001 40.5089 27.9357C40.4384 28.0146 40.2652 28.2157 40.2025 28.2739Z" fill="#60A5FA"/>
<path d="M37.9459 35.302C37.9461 35.3031 37.9467 35.3048 37.9468 35.306C37.8406 35.077 37.7279 34.7988 37.5933 34.4351C38.1175 35.2002 39.7601 34.8056 39.6739 34.12C40.4779 34.7267 42.1329 34.019 41.7567 33.1683C42.5621 33.5447 43.4813 32.7874 43.2752 32.4574C44.6483 32.723 45.9641 32.9877 46.3772 33.0937C46.1029 33.5423 45.4779 33.8592 44.5358 33.639C45.0449 34.3344 44.0566 35.1687 42.68 34.7092C42.983 35.3919 41.7573 36.0065 40.3643 35.2949C40.382 35.9779 38.6362 36.0566 37.9459 35.3019V35.302ZM40.6697 31.8499C42.2634 31.9726 44.8988 32.2109 46.5305 32.4399C46.4274 31.9074 46.1458 31.7553 45.2601 31.5167C44.3075 31.6186 41.8908 31.8567 40.6698 31.85L40.6697 31.8499Z" fill="#14B8A6"/>
<path d="M39.6742 34.1203C40.4782 34.727 42.1332 34.0192 41.757 33.1686C42.5624 33.5449 43.4816 32.7877 43.2754 32.4577C41.6521 32.1438 39.9486 31.8288 39.5622 31.7737C39.7966 31.7862 40.1851 31.8129 40.67 31.8502C41.891 31.857 44.3078 31.6189 45.2603 31.517C43.7179 31.1248 40.5689 30.5525 38.3943 30.4115C38.2935 30.5592 38.1082 30.8097 37.7855 31.0759C36.834 33.0948 35.1101 34.4368 33.2026 34.4368C32.6467 34.4368 32.0247 34.3427 31.3276 34.1193C30.8929 34.5863 29.0394 34.9403 27.5354 34.2C28.7284 37.0012 31.4949 38.8712 34.5574 38.8712C37.1365 38.8712 38.2801 36.2301 38.0299 35.5312C37.9691 35.3616 37.7285 34.799 37.5938 34.4354C38.118 35.2004 39.7607 34.8058 39.6745 34.1203L39.6742 34.1203Z" fill="#FFCE50"/>
<path d="M38.1114 28.8046C38.3391 28.6803 39.126 28.202 39.8759 28.0222C39.864 27.9387 39.8552 27.8547 39.8496 27.7704C39.3576 27.8886 38.4302 28.2873 37.8986 27.7379C39.02 28.0773 39.5798 27.4355 40.4041 27.4355C40.8951 27.4355 41.596 27.5731 42.1484 27.7906C41.704 27.379 40.247 26.1367 38.443 26.1324C38.0403 26.6221 37.605 27.6829 38.1113 28.8045L38.1114 28.8046Z" fill="#CECECE"/>
<path d="M31.3275 34.1188C32.0246 34.3422 32.6466 34.4363 33.2025 34.4363C35.1099 34.4363 36.8339 33.0942 37.7854 31.0754C37.0817 31.6645 35.8586 32.1685 33.9485 32.1685C35.6499 31.7817 37.1145 30.9314 37.8596 29.6886C37.3358 28.8527 36.7678 27.0033 38.2063 25.5414C37.985 24.8284 36.908 22.9464 34.5237 22.9464C30.3626 22.9464 26.9142 26.4381 26.9142 31.1175C26.9142 32.2252 27.1371 33.2641 27.5355 34.1992C29.0393 34.9395 30.8929 34.5856 31.3276 34.1185L31.3275 34.1188Z" fill="#F87171"/>
<path d="M32.5757 26.9939C32.5757 28.0583 33.4361 28.9213 34.4976 28.9213C35.559 28.9213 36.4195 28.0583 36.4195 26.9939C36.4195 25.9295 35.559 25.0665 34.4976 25.0665C33.4361 25.0665 32.5757 25.9295 32.5757 26.9939Z" fill="#FFCE50"/>
<path d="M33.3472 26.9938C33.3472 27.631 33.8625 28.1477 34.4979 28.1477C35.1334 28.1477 35.6485 27.631 35.6485 26.9938C35.6485 26.3565 35.1334 25.8398 34.4979 25.8398C33.8624 25.8398 33.3472 26.3565 33.3472 26.9938Z" fill="#010101"/>
<path d="M34.4977 26.9C34.868 26.9 35.1682 26.7128 35.1682 26.4819C35.1682 26.251 34.868 26.0638 34.4977 26.0638C34.1274 26.0638 33.8271 26.251 33.8271 26.4819C33.8271 26.7128 34.1274 26.9 34.4977 26.9Z" fill="white"/>
</g>
<defs>
<clipPath id="clip0_808_672">
<rect width="48" height="48" fill="white"/>
</clipPath>
</defs>
</svg>
