<svg width="48" height="48" viewBox="0 0 48 48" fill="none" xmlns="http://www.w3.org/2000/svg">
<path fill-rule="evenodd" clip-rule="evenodd" d="M10 8.25003C6.82439 8.25003 4.25003 10.8244 4.25003 14V34C4.25003 37.1757 6.82439 39.75 10 39.75H21V36.25H10C8.75739 36.25 7.75003 35.2427 7.75003 34V14C7.75003 12.7574 8.75739 11.75 10 11.75H15.5678C16.0887 11.75 16.5935 11.9308 16.996 12.2614L21.7825 16.1932C22.8111 17.0382 24.1011 17.5 25.4323 17.5H38C38.9797 17.5 39.8131 18.1261 40.122 19H43.7016C43.334 16.1788 40.9215 14 38 14H25.4323C24.9114 14 24.4066 13.8193 24.0041 13.4887L19.2175 9.55685C18.1889 8.7119 16.899 8.25003 15.5678 8.25003H10Z" fill="#64748B"/>
<path fill-rule="evenodd" clip-rule="evenodd" d="M45.9997 36.1174V22.5C45.9997 22.2239 45.7758 22 45.4997 22H26.5003C26.2242 22 26.0003 22.2239 26.0003 22.5V36.1174H24.2C24.0895 36.1174 24 36.207 24 36.3174V37.8C24 37.9105 24.0895 38 24.2 38H47.8C47.9105 38 48 37.9105 48 37.8V36.319C48 36.2087 47.9106 36.1191 47.8002 36.119L45.9997 36.1174ZM38.0003 36.1174H33.9997V35.1779H38.0003V36.1174ZM44.0013 33.2954H28.0006V23.8826H43.9994L44.0013 33.2954Z" fill="#8CDBFF"/>
</svg>
