<svg width="48" height="48" viewBox="0 0 48 48" fill="none" xmlns="http://www.w3.org/2000/svg">
<path fill-rule="evenodd" clip-rule="evenodd" d="M10 8.25003C6.82436 8.25003 4.25 10.8244 4.25 14V34C4.25 37.1757 6.82436 39.75 10 39.75H24V36.25H10C8.75736 36.25 7.75 35.2427 7.75 34V14C7.75 12.7574 8.75736 11.75 10 11.75H15.5678C16.0887 11.75 16.5934 11.9308 16.9959 12.2614L21.7825 16.1932C22.8111 17.0382 24.1011 17.5 25.4322 17.5H38C39.2426 17.5 40.25 18.5074 40.25 19.75V20H43.75V19.75C43.75 16.5744 41.1756 14 38 14H25.4322C24.9113 14 24.4066 13.8193 24.0041 13.4887L19.2175 9.55685C18.1889 8.7119 16.8989 8.25003 15.5678 8.25003H10Z" fill="#64748B"/>
<path fill-rule="evenodd" clip-rule="evenodd" d="M37.5 27.5503C38.3396 27.5503 39.1448 27.2581 39.7384 26.7379C40.3321 26.2177 40.6656 25.5122 40.6656 24.7765C40.666 24.412 40.5845 24.051 40.4256 23.7142C40.2666 23.3774 40.0335 23.0713 39.7395 22.8134C39.4455 22.5555 39.0964 22.351 38.7122 22.2114C38.3279 22.0718 37.916 22 37.5 22C37.0842 22 36.6724 22.0718 36.2882 22.2113C35.904 22.3508 35.555 22.5552 35.261 22.8129C34.967 23.0706 34.7339 23.3766 34.5749 23.7133C34.4159 24.05 34.3342 24.4108 34.3344 24.7752C34.3342 25.1396 34.4159 25.5004 34.5749 25.8371C34.7339 26.1738 34.967 26.4797 35.261 26.7374C35.555 26.9952 35.904 27.1996 36.2882 27.3391C36.6724 27.4786 37.0842 27.5503 37.5 27.5503ZM37.5 30.8248C34.9227 28.7159 31.5263 27.5453 28 27.5503V37.7255C31.6938 37.7255 35.0092 38.9744 37.5 41C40.0773 38.8911 43.4737 37.7204 47 37.7255V27.5503C43.4737 27.5453 40.0773 28.7159 37.5 30.8248Z" fill="#C084FC"/>
</svg>
