<svg width="48" height="48" viewBox="0 0 48 48" fill="none" xmlns="http://www.w3.org/2000/svg">
<path fill-rule="evenodd" clip-rule="evenodd" d="M10 8.25C6.82436 8.25 4.25 10.8244 4.25 14V34C4.25 37.1756 6.82436 39.75 10 39.75H23V36.25H10C8.75736 36.25 7.75 35.2426 7.75 34V14C7.75 12.7574 8.75736 11.75 10 11.75H15.5678C16.0887 11.75 16.5934 11.9307 16.9959 12.2614L21.7825 16.1932C22.8111 17.0381 24.1011 17.5 25.4322 17.5H38C39.2426 17.5 40.25 18.5074 40.25 19.75V20H43.75V19.75C43.75 16.5744 41.1756 14 38 14H25.4322C24.9113 14 24.4066 13.8193 24.0041 13.4886L19.2175 9.55682C18.1889 8.71187 16.8989 8.25 15.5678 8.25H10Z" fill="#64748B"/>
<path d="M26 24.6551C26 23.1887 27.149 22 28.5663 22H33.1337C34.551 22 35.7 23.1887 35.7 24.6551V37.3449C35.7 38.8113 34.551 40 33.1337 40H28.5663C27.1489 40 26 38.8113 26 37.3449V24.6551Z" fill="#F472B6"/>
<path d="M38.3012 24.6551C38.3012 23.1887 39.4502 22 40.8675 22H43.4337C44.851 22 46 23.1887 46 24.6551V27.3102C46 28.7766 44.851 29.9654 43.4337 29.9654H40.8675C39.4502 29.9654 38.3012 28.7766 38.3012 27.3102V24.6551Z" fill="#0D9488"/>
<path d="M38.3012 34.1038C38.3012 32.961 39.1967 32.0346 40.3012 32.0346H44C45.1046 32.0346 46 32.961 46 34.1038V37.9307C46 39.0735 45.1046 39.9999 44 39.9999H40.3012C39.1967 39.9999 38.3012 39.0735 38.3012 37.9307V34.1038Z" fill="#C084FC"/>
</svg>
