<svg width="48" height="48" viewBox="0 0 48 48" fill="none" xmlns="http://www.w3.org/2000/svg">
<path fill-rule="evenodd" clip-rule="evenodd" d="M10 8.25C6.82436 8.25 4.25 10.8244 4.25 14V34C4.25 37.1756 6.82436 39.75 10 39.75H26V36.25H10C8.75736 36.25 7.75 35.2426 7.75 34V14C7.75 12.7574 8.75736 11.75 10 11.75H15.5678C16.0887 11.75 16.5934 11.9307 16.9959 12.2614L21.7825 16.1932C22.8111 17.0381 24.1011 17.5 25.4322 17.5H38C38.9797 17.5 39.8131 18.1261 40.122 19H43.7015C43.334 16.1787 40.9214 14 38 14H25.4322C24.9113 14 24.4066 13.8193 24.0041 13.4886L19.2175 9.55682C18.1889 8.71187 16.8989 8.25 15.5678 8.25H10Z" fill="#64748B"/>
<path fill-rule="evenodd" clip-rule="evenodd" d="M39.1362 20.1035C38.2021 19.9655 37.253 19.9655 36.3188 20.1035L35.7025 21.7238C34.9247 21.9217 34.1797 22.2325 33.4908 22.6466L31.9177 21.9403C31.1606 22.5078 30.4897 23.1836 29.9262 23.9463L30.6275 25.5309C30.2164 26.2248 29.9078 26.9752 29.7113 27.7587L28.1028 28.3795C27.9657 29.3205 27.9657 30.2765 28.1028 31.2175L29.7113 31.8383C29.9078 32.6218 30.2164 33.3722 30.6275 34.0661L29.9262 35.6508C30.4897 36.4134 31.1606 37.0892 31.9177 37.6567L33.4908 36.9504C34.1797 37.3645 34.9247 37.6753 35.7025 37.8732L36.3188 39.4935C37.2527 39.6315 38.2024 39.6315 39.1362 39.4935L39.7526 37.8732C40.5303 37.6753 41.2754 37.3645 41.9642 36.9504L43.5374 37.6567C44.2945 37.0892 44.9654 36.4134 45.5288 35.6508L44.8276 34.0661C45.2387 33.3722 45.5473 32.6218 45.7437 31.8383L47.3522 31.2175C47.4893 30.2768 47.4893 29.3202 47.3522 28.3795L45.7437 27.7587C45.5473 26.9752 45.2387 26.2248 44.8276 25.5309L45.5288 23.9463C44.9654 23.1836 44.2945 22.5078 43.5374 21.9403L41.9642 22.6466C41.2754 22.2325 40.5303 21.9217 39.7526 21.7238L39.1362 20.1035ZM37.7275 23.5196C41.1674 23.5196 43.961 26.3335 43.961 29.7985C43.961 33.2635 41.1674 36.0774 37.7275 36.0774C34.2876 36.0774 31.4941 33.2635 31.4941 29.7985C31.4941 26.3335 34.2876 23.5196 37.7275 23.5196Z" fill="#0EA5E9"/>
<path fill-rule="evenodd" clip-rule="evenodd" d="M40.2302 32.315C39.9023 32.6472 39.5123 32.9107 39.0828 33.0903C38.6533 33.2699 38.1927 33.3621 37.7276 33.3616C35.7751 33.3616 34.1904 31.7654 34.1904 29.7986C34.1904 27.8318 35.7751 26.2356 37.7276 26.2356C38.7048 26.2356 39.59 26.6355 40.2302 27.2822L38.9798 28.5409C38.7327 28.2912 38.4176 28.1209 38.0743 28.0517C37.7311 27.9826 37.3752 28.0175 37.0517 28.1522C36.7282 28.2869 36.4517 28.5152 36.2571 28.8083C36.0625 29.1014 35.9587 29.446 35.9587 29.7986C35.9587 30.1512 36.0625 30.4959 36.2571 30.7889C36.4517 31.082 36.7282 31.3104 37.0517 31.445C37.3752 31.5797 37.7311 31.6147 38.0743 31.5455C38.4176 31.4763 38.7327 31.3061 38.9798 31.0564L40.2302 32.315Z" fill="#0EA5E9"/>
</svg>
