<svg width="48" height="48" viewBox="0 0 48 48" fill="none" xmlns="http://www.w3.org/2000/svg">
<path fill-rule="evenodd" clip-rule="evenodd" d="M10 8.25003C6.82436 8.25003 4.25 10.8244 4.25 14V34C4.25 37.1757 6.82436 39.75 10 39.75H24V36.25H10C8.75736 36.25 7.75 35.2427 7.75 34V14C7.75 12.7574 8.75736 11.75 10 11.75H15.5678C16.0887 11.75 16.5934 11.9308 16.9959 12.2614L21.7825 16.1932C22.8111 17.0382 24.1011 17.5 25.4322 17.5H38C38.9797 17.5 39.8131 18.1261 40.122 19H43.7015C43.334 16.1788 40.9214 14 38 14H25.4322C24.9113 14 24.4066 13.8193 24.0041 13.4887L19.2175 9.55685C18.1889 8.7119 16.8989 8.25003 15.5678 8.25003H10Z" fill="#64748B"/>
<path fill-rule="evenodd" clip-rule="evenodd" d="M45.3395 26.226C45.222 25.8654 44.9727 25.5668 44.6451 25.3943L38.0259 22.113C37.8558 22.0328 37.6702 21.9944 37.4835 22.0007C37.309 22.0007 37.1145 22.0007 36.9412 22.0446L30.3207 25.3504C30.1579 25.4278 30.0145 25.5429 29.9017 25.6869C29.7888 25.8309 29.7095 25.9999 29.6699 26.1808L28.0216 33.5764C27.9555 33.9586 28.0428 34.3409 28.2597 34.6547L32.8392 40.5213C33.0998 40.7925 33.4688 40.972 33.8366 40.9939H41.1503C41.3424 41.0147 41.5363 40.9818 41.7119 40.8987C41.8876 40.8156 42.0385 40.6853 42.149 40.5213L46.7285 34.6547C46.9454 34.3409 47.0327 33.9573 46.9891 33.5764L45.3395 26.226Z" fill="#71717A"/>
<path fill-rule="evenodd" clip-rule="evenodd" d="M44.2924 33.2832C44.2712 33.2832 44.2712 33.2832 44.2712 33.2613C44.2712 33.238 44.2051 33.238 44.1839 33.238C44.0966 33.2161 44.0093 33.2161 43.9233 33.2161C43.8797 33.2161 43.836 33.2161 43.7936 33.1928H43.7712C43.5219 33.1699 43.275 33.125 43.0331 33.0585C42.9987 33.0448 42.9674 33.0236 42.9414 32.9965C42.9154 32.9693 42.8953 32.9368 42.8823 32.901C42.8823 32.879 42.8598 32.879 42.8598 32.879L42.6865 32.8338C42.7659 32.174 42.7364 31.505 42.5992 30.8555C42.4461 30.202 42.1895 29.5793 41.8399 29.0127L41.9708 28.8771V28.8551C41.9708 28.788 41.992 28.6976 42.0357 28.6524C42.2239 28.4898 42.4273 28.3471 42.6429 28.2263L42.7738 28.1578C42.8611 28.1139 42.9247 28.0674 43.0119 28.0235C43.0331 28.0003 43.0556 28.0003 43.0768 27.9783L43.0992 27.9564C43.1456 27.9215 43.1849 27.8774 43.2145 27.8266C43.2442 27.7757 43.2636 27.7192 43.2718 27.6604C43.2799 27.6016 43.2766 27.5417 43.2619 27.4843C43.2473 27.4269 43.2216 27.3731 43.1865 27.3262C43.1494 27.2791 43.1031 27.2407 43.0507 27.2135C42.9983 27.1864 42.9408 27.1711 42.8823 27.1686C42.7719 27.1716 42.6653 27.211 42.578 27.281L42.5556 27.3042C42.5344 27.3262 42.5132 27.3494 42.4908 27.3494C42.4259 27.4166 42.3611 27.4837 42.3175 27.5509C42.2963 27.5961 42.2526 27.6193 42.2302 27.6413C42.0656 27.8242 41.8839 27.9899 41.6878 28.1359C41.6442 28.1578 41.6005 28.1811 41.5581 28.1811C41.5357 28.1811 41.4933 28.1811 41.4709 28.1578L41.2976 28.2934C41.123 28.1126 40.9285 27.9331 40.7552 27.7536C39.9377 27.1003 38.9607 26.6956 37.9337 26.5849L37.9125 26.4041L37.8901 26.3822C37.8252 26.337 37.8028 26.2699 37.7816 26.2027C37.7816 25.9561 37.7816 25.7081 37.8252 25.4382V25.4163C37.8252 25.3711 37.8465 25.3259 37.8465 25.2807C37.8689 25.1903 37.8689 25.1012 37.8901 25.0108V24.8765C37.9125 24.6518 37.738 24.4271 37.521 24.4271C37.393 24.4235 37.2687 24.4717 37.1744 24.5614C37.1335 24.6023 37.1009 24.6512 37.0784 24.7053C37.0559 24.7594 37.0441 24.8176 37.0435 24.8765V24.9888C37.0435 25.0792 37.066 25.1696 37.0871 25.2587C37.1096 25.3039 37.1096 25.3491 37.1096 25.393V25.4163C37.152 25.6629 37.152 25.9109 37.152 26.1807C37.1308 26.2479 37.1096 26.315 37.0435 26.3602L37.0223 26.3822L37.0011 26.563C36.7617 26.5849 36.5236 26.6301 36.263 26.6753C35.24 26.9077 34.3092 27.4562 33.5936 28.2482L33.4627 28.1578H33.4415C33.4203 28.1578 33.3979 28.1811 33.3542 28.1811C33.3106 28.1811 33.2458 28.1578 33.2246 28.1359C33.0288 27.9783 32.8555 27.7988 32.6822 27.6193C32.6598 27.5741 32.6174 27.5509 32.595 27.5289C32.5301 27.4618 32.4865 27.3933 32.4204 27.3262C32.3992 27.3042 32.378 27.3042 32.3568 27.281L32.3344 27.259C32.2474 27.1893 32.1413 27.1499 32.0314 27.1467C31.9687 27.1438 31.9063 27.1566 31.8495 27.1841C31.7926 27.2115 31.743 27.2527 31.7047 27.3042C31.6434 27.4023 31.6184 27.52 31.6345 27.6356C31.6505 27.7513 31.7065 27.857 31.792 27.9331C31.8132 27.9331 31.8132 27.9564 31.8132 27.9564C31.8132 27.9564 31.8568 28.0003 31.8793 28.0003C31.9441 28.0455 32.0314 28.0907 32.1174 28.1359L32.2483 28.203C32.4653 28.3386 32.6598 28.4729 32.8555 28.6292C32.8992 28.6757 32.9428 28.7648 32.9204 28.8319V28.8551L33.0513 28.9894C33.0288 29.0346 33.0076 29.0579 32.9852 29.1018C32.3143 30.1968 32.0522 31.5077 32.2483 32.7886L32.0738 32.8338C32.0738 32.8558 32.0526 32.8558 32.0526 32.8558C32.0314 32.9229 31.9653 32.9681 31.9005 33.0133C31.659 33.0822 31.4119 33.1276 31.1624 33.1489H31.1412C31.0976 33.1489 31.0539 33.1489 31.0103 33.1709C30.923 33.1709 30.837 33.1928 30.7509 33.1928C30.7285 33.1928 30.7073 33.2161 30.6637 33.2161C30.6425 33.2161 30.6425 33.2161 30.62 33.238C30.5642 33.2476 30.5108 33.2687 30.4629 33.3001C30.4151 33.3314 30.3738 33.3724 30.3415 33.4205C30.3092 33.4687 30.2865 33.5231 30.2748 33.5804C30.2632 33.6378 30.2627 33.697 30.2734 33.7546C30.2967 33.8526 30.3535 33.9385 30.4333 33.9964C30.5131 34.0544 30.6104 34.0804 30.7073 34.0696C30.7509 34.0696 30.7721 34.0696 30.8158 34.0477C30.837 34.0477 30.837 34.0477 30.837 34.0244C30.837 34.0025 30.8806 34.0025 30.9243 34.0025C31.0115 33.9805 31.0976 33.9353 31.1624 33.9121C31.2023 33.8874 31.247 33.8724 31.2933 33.8682H31.3145C31.5314 33.7778 31.7708 33.7106 32.009 33.6655H32.0302C32.0962 33.6655 32.1611 33.6874 32.2047 33.7326C32.2259 33.7326 32.2259 33.7546 32.2259 33.7546L32.4216 33.7326C32.7447 34.7754 33.365 35.6924 34.2008 36.3631C34.3966 36.5206 34.5699 36.6549 34.7868 36.7673L34.6995 36.9481C34.6995 36.97 34.722 36.97 34.722 36.97C34.7412 37.0036 34.7531 37.0411 34.7567 37.0799C34.7604 37.1188 34.7558 37.158 34.7432 37.1947C34.6559 37.4194 34.5262 37.6441 34.3966 37.8469V37.8688C34.3741 37.914 34.3529 37.936 34.3093 37.9812C34.2657 38.0264 34.222 38.1155 34.1572 38.2059C34.136 38.2278 34.136 38.2511 34.1148 38.273C34.1148 38.273 34.1148 38.2963 34.0924 38.2963C34.0414 38.4014 34.0311 38.5228 34.0635 38.6355C34.096 38.7483 34.1687 38.844 34.2669 38.9032C34.3209 38.9309 34.38 38.9459 34.4402 38.9471C34.5255 38.9437 34.6084 38.9171 34.6807 38.8699C34.7529 38.8228 34.8119 38.7567 34.8516 38.6785C34.8516 38.6785 34.8517 38.6553 34.8741 38.6553C34.8741 38.6333 34.8953 38.6101 34.9177 38.5881C34.9389 38.4977 34.9826 38.4306 35.005 38.3402L35.0474 38.2059C35.1122 37.9592 35.2219 37.7332 35.3292 37.5085C35.3714 37.445 35.4328 37.3978 35.5037 37.3742C35.5249 37.3742 35.5249 37.3742 35.5249 37.3523L35.6122 37.1715C36.2194 37.4194 36.849 37.5318 37.4998 37.5318C37.8941 37.5314 38.2872 37.4859 38.6718 37.3962C38.91 37.3523 39.1493 37.2619 39.3663 37.1947L39.4536 37.3523C39.4748 37.3523 39.4748 37.3523 39.4748 37.3742C39.5457 37.3978 39.6071 37.445 39.6493 37.5085C39.7565 37.7332 39.8438 37.9592 39.9298 38.1839V38.2059L39.9735 38.3402C39.9959 38.4306 40.0171 38.521 40.0608 38.5881C40.082 38.6101 40.082 38.6333 40.1044 38.6553C40.1044 38.6553 40.1044 38.6785 40.1256 38.6785C40.1654 38.7567 40.2243 38.8228 40.2966 38.8699C40.3688 38.9171 40.4517 38.9437 40.537 38.9471C40.6031 38.9471 40.6468 38.9251 40.7116 38.9032C40.7598 38.8794 40.8024 38.8448 40.8362 38.8019C40.8701 38.759 40.8943 38.709 40.9073 38.6553C40.9323 38.5358 40.9245 38.4114 40.8849 38.2963C40.8849 38.273 40.8637 38.273 40.8637 38.273C40.8637 38.2511 40.8412 38.2278 40.82 38.2059C40.7821 38.1225 40.7307 38.0465 40.668 37.9812C40.6458 37.9385 40.6162 37.9004 40.5807 37.8688V37.8469C40.4361 37.6474 40.3195 37.4279 40.2341 37.1947C40.2215 37.158 40.2168 37.1188 40.2205 37.0799C40.2242 37.0411 40.236 37.0036 40.2553 36.97C40.2553 36.9468 40.2777 36.9468 40.2777 36.9468L40.2128 36.7673C41.3311 36.0769 42.1711 34.9915 42.578 33.7106L42.7526 33.7326C42.7738 33.7326 42.7738 33.7106 42.7738 33.7106C42.8208 33.6654 42.8829 33.6408 42.9471 33.6422H42.9683C43.2077 33.6874 43.4458 33.7558 43.6628 33.8449H43.6852C43.7276 33.8682 43.7725 33.8901 43.8148 33.8901C43.9021 33.9353 43.967 33.9573 44.0542 33.9805C44.0754 33.9805 44.0966 34.0025 44.1415 34.0025C44.1627 34.0025 44.1627 34.0025 44.1839 34.0244C44.2172 34.0429 44.2548 34.0509 44.2924 34.0477C44.3868 34.0461 44.4786 34.0152 44.556 33.9591C44.6333 33.9029 44.6926 33.824 44.7263 33.7326C44.6614 33.5079 44.5093 33.3284 44.2924 33.2832ZM38.0422 32.5859L37.4562 32.879L36.8702 32.5859L36.6957 31.935L37.1096 31.3952H37.7829L38.1943 31.935L38.0422 32.5859ZM41.5793 31.1254C41.6878 31.598 41.7103 32.0693 41.6666 32.542L39.6044 31.935C39.4099 31.8898 39.3014 31.6871 39.3438 31.4856C39.3595 31.4263 39.3896 31.3721 39.4311 31.3281L41.0582 29.7991C41.2976 30.2033 41.4709 30.654 41.5793 31.1254ZM40.4074 28.9675L38.6494 30.2718C38.4985 30.3622 38.2803 30.3389 38.1719 30.1814C38.1507 30.1615 38.1339 30.1372 38.1227 30.11C38.1115 30.0828 38.1062 30.0534 38.107 30.0238L37.9774 27.7536C38.8958 27.866 39.7504 28.2933 40.4074 28.9675ZM36.48 27.8208L36.9139 27.7304L36.7829 29.9786C36.7829 30.1814 36.6096 30.3389 36.4139 30.3389C36.3491 30.3389 36.3054 30.3157 36.2406 30.2937L34.4826 28.9675C35.0314 28.3988 35.7235 28.0015 36.48 27.8208ZM33.8318 29.7991L35.4376 31.2829C35.4738 31.3134 35.5037 31.3512 35.5256 31.3939C35.5474 31.4366 35.5608 31.4835 35.5648 31.5316C35.5689 31.5798 35.5636 31.6283 35.5492 31.6743C35.5349 31.7203 35.5118 31.7629 35.4813 31.7994C35.4376 31.8666 35.394 31.8898 35.3067 31.9118L33.2246 32.542C33.1418 31.5842 33.3544 30.6239 33.8318 29.7991ZM33.4627 33.5983L35.611 33.2161C35.7855 33.2161 35.9588 33.3284 35.98 33.5079C35.9926 33.5447 35.9972 33.5839 35.9936 33.6227C35.9899 33.6615 35.978 33.6991 35.9588 33.7326L35.1334 35.8014C34.3607 35.274 33.7744 34.5008 33.4627 33.5983ZM38.3888 36.385C38.0751 36.457 37.755 36.4946 37.4338 36.4974C36.9787 36.4974 36.5012 36.407 36.0673 36.2727L37.1308 34.2711C37.1805 34.2045 37.2519 34.1588 37.3316 34.1424C37.4114 34.126 37.4941 34.1401 37.5647 34.182C37.6295 34.2272 37.6732 34.2724 37.7392 34.3395L38.7803 36.2959C38.6718 36.3179 38.5409 36.3386 38.3888 36.385ZM41.037 34.4299C40.7062 34.9747 40.2613 35.4355 39.7353 35.7781L38.8875 33.6874C38.8632 33.6006 38.8695 33.5077 38.9054 33.4253C38.9413 33.3429 39.0044 33.2765 39.0833 33.238C39.1458 33.2123 39.2119 33.197 39.279 33.1928L41.4485 33.5751C41.3412 33.8901 41.2115 34.182 41.037 34.4299Z" fill="white"/>
</svg>
