<svg width="48" height="48" viewBox="0 0 48 48" fill="none" xmlns="http://www.w3.org/2000/svg">
<path fill-rule="evenodd" clip-rule="evenodd" d="M10 8.25C6.82436 8.25 4.25 10.8244 4.25 14V34C4.25 37.1756 6.82436 39.75 10 39.75H24V36.25H10C8.75736 36.25 7.75 35.2426 7.75 34V14C7.75 12.7574 8.75736 11.75 10 11.75H15.5678C16.0887 11.75 16.5934 11.9307 16.9959 12.2614L21.7825 16.1932C22.8111 17.0381 24.1011 17.5 25.4322 17.5H38C38.9797 17.5 39.8131 18.1261 40.122 19H43.7015C43.334 16.1787 40.9214 14 38 14H25.4322C24.9113 14 24.4066 13.8193 24.0041 13.4886L19.2175 9.55682C18.1889 8.71187 16.8989 8.25 15.5678 8.25H10Z" fill="#64748B"/>
<path fill-rule="evenodd" clip-rule="evenodd" d="M39.1382 22.0016C38.8778 22.0016 38.6215 22.0659 38.392 22.1888C38.1625 22.3116 37.9669 22.4892 37.8225 22.7058L35.1192 26.7516H28.7907C28.581 26.7516 28.3799 26.8349 28.2316 26.9832C28.0833 27.1314 28 27.3325 28 27.5422V31.8953L30.7705 34.7504L31.7261 33.7262L32.9137 34.9153L31.9485 35.8803L33.1169 37.0518L34.0852 36.0852L35.2809 37.2807L34.3333 38.2297L37.1039 41H41.4573C41.5614 41.0002 41.6646 40.9799 41.7608 40.9401C41.857 40.9004 41.9444 40.842 42.018 40.7684C42.0916 40.6948 42.15 40.6074 42.1897 40.5112C42.2295 40.415 42.2498 40.3119 42.2496 40.2078V33.8798L46.2958 31.1783C46.5124 31.0336 46.69 30.8377 46.8128 30.6079C46.9357 30.3782 47 30.1217 47 29.8612V22.7922C47.0002 22.6881 46.9799 22.585 46.9401 22.4888C46.9004 22.3926 46.842 22.3052 46.7684 22.2316C46.6948 22.158 46.6074 22.0996 46.5112 22.0599C46.415 22.0201 46.3118 21.9998 46.2077 22L39.1382 22.0016ZM42.2496 24.375C42.72 24.3738 43.1802 24.5124 43.5717 24.7732C43.9631 25.0341 44.2683 25.4053 44.4484 25.8398C44.6285 26.2744 44.6753 26.7527 44.5831 27.2139C44.4908 27.6751 44.2636 28.0986 43.9302 28.4304C43.5959 28.7645 43.1696 28.9914 42.7058 29.0821C42.2419 29.1727 41.7616 29.123 41.3261 28.9394C40.7561 28.6986 40.3025 28.245 40.0617 27.675C39.9101 27.3139 39.8501 26.921 39.8869 26.5312C39.9237 26.1413 40.0563 25.7666 40.2727 25.4403C40.4892 25.1139 40.7829 24.8461 41.1278 24.6605C41.4726 24.475 41.858 24.3759 42.2496 24.375ZM28 36.25V41H32.7504V39.5756H29.4245V36.25H28Z" fill="#0EA5E9"/>
</svg>
