<svg width="48" height="48" viewBox="0 0 48 48" fill="none" xmlns="http://www.w3.org/2000/svg">
<path fill-rule="evenodd" clip-rule="evenodd" d="M10 8.25003C6.82436 8.25003 4.25 10.8244 4.25 14V34C4.25 37.1757 6.82436 39.75 10 39.75H25V36.25H10C8.75736 36.25 7.75 35.2427 7.75 34V14C7.75 12.7574 8.75736 11.75 10 11.75H15.5678C16.0887 11.75 16.5934 11.9308 16.9959 12.2614L21.7825 16.1932C22.8111 17.0382 24.1011 17.5 25.4322 17.5H38C39.2426 17.5 40.25 18.5074 40.25 19.75V20H43.75V19.75C43.75 16.5744 41.1756 14 38 14H25.4322C24.9113 14 24.4066 13.8193 24.0041 13.4887L19.2175 9.55685C18.1889 8.7119 16.8989 8.25003 15.5678 8.25003H10Z" fill="#64748B"/>
<path fill-rule="evenodd" clip-rule="evenodd" d="M47 29.5152H39.842L42.7345 26.5388C39.8535 23.6891 35.1879 23.5821 32.3053 26.4334C31.6206 27.1096 31.0769 27.915 30.7059 28.803C30.3348 29.6909 30.1438 30.6436 30.1438 31.606C30.1438 32.5683 30.3348 33.5211 30.7059 34.409C31.0769 35.2969 31.6206 36.1023 32.3053 36.7786C33.6953 38.1482 35.5684 38.916 37.5199 38.916C39.4713 38.916 41.3444 38.1482 42.7345 36.7786C44.17 35.3529 44.8878 33.6951 44.8878 31.606H47C47 33.6967 46.0715 36.4081 44.2128 38.2454C40.5087 41.9182 34.4915 41.9182 30.7858 38.2454C27.0915 34.5824 27.0586 28.6279 30.7644 24.9649C32.5409 23.2053 34.9403 22.2182 37.4409 22.2182C39.9414 22.2182 42.3408 23.2053 44.1174 24.9649L46.9984 22L47 29.5152ZM38.0261 27.2763V31.764L41.722 33.9601L40.9614 35.236L36.444 32.5559V27.2779L38.0261 27.2763Z" fill="#8CDBFF"/>
</svg>
