<svg width="48" height="48" viewBox="0 0 48 48" fill="none" xmlns="http://www.w3.org/2000/svg">
<path fill-rule="evenodd" clip-rule="evenodd" d="M10 8.25003C6.82436 8.25003 4.25 10.8244 4.25 14V34C4.25 37.1757 6.82436 39.75 10 39.75H24V36.25H10C8.75736 36.25 7.75 35.2427 7.75 34V14C7.75 12.7574 8.75736 11.75 10 11.75H15.5678C16.0887 11.75 16.5934 11.9308 16.9959 12.2614L21.7825 16.1932C22.8111 17.0382 24.1011 17.5 25.4322 17.5H38C39.2426 17.5 40.25 18.5074 40.25 19.75V20H43.75V19.75C43.75 16.5744 41.1756 14 38 14H25.4322C24.9113 14 24.4066 13.8193 24.0041 13.4887L19.2175 9.55685C18.1889 8.7119 16.8989 8.25003 15.5678 8.25003H10Z" fill="#64748B"/>
<path fill-rule="evenodd" clip-rule="evenodd" d="M45.5251 24.3429L44.0587 22.5703C43.9086 22.3911 43.7208 22.2471 43.5087 22.1485C43.2965 22.05 43.0653 21.9993 42.8314 22.0001H30.167C29.9336 21.998 29.7028 22.0492 29.4921 22.1497C29.2815 22.2503 29.0965 22.3975 28.9514 22.5803L27.4849 24.3429C27.1693 24.7221 26.9975 25.2006 27 25.694V38.888C27 40.0502 27.9397 41 29.1102 41H43.8881C45.0486 41 46 40.0502 46 38.8896V25.6957C46 25.1773 45.8194 24.7124 45.5251 24.3412V24.3429ZM36.4992 28.8596L42.3047 34.6656H38.611V36.7776H34.3873V34.6656H30.6937L36.4992 28.8596ZM29.239 24.1104L30.1034 23.0569H42.7712L43.7527 24.1104H29.239Z" fill="#89FF8D"/>
</svg>
