<svg width="48" height="48" viewBox="0 0 48 48" fill="none" xmlns="http://www.w3.org/2000/svg">
<path fill-rule="evenodd" clip-rule="evenodd" d="M10 8.25C6.82436 8.25 4.25 10.8244 4.25 14V34C4.25 37.1756 6.82436 39.75 10 39.75H20V36.25H10C8.75736 36.25 7.75 35.2426 7.75 34V14C7.75 12.7574 8.75736 11.75 10 11.75H15.5678C16.0887 11.75 16.5934 11.9307 16.9959 12.2614L21.7825 16.1932C22.8111 17.0381 24.1011 17.5 25.4322 17.5H38C39.2426 17.5 40.25 18.5074 40.25 19.75V21.4H43.75V19.75C43.75 16.5744 41.1756 14 38 14H25.4322C24.9113 14 24.4066 13.8193 24.0041 13.4886L19.2175 9.55682C18.1889 8.71187 16.8989 8.25 15.5678 8.25H10Z" fill="#64748B"/>
<path fill-rule="evenodd" clip-rule="evenodd" d="M45.0001 36.9995H41.0004V29.9994H45.0001M46.0009 27.9996H39.9997C39.7345 28 39.4804 28.1056 39.2931 28.2933C39.1058 28.4809 39.0005 28.7352 39.0005 29.0003V38.9993C39.0005 39.2644 39.1058 39.5187 39.2931 39.7063C39.4804 39.8939 39.7345 39.9996 39.9997 40H46.0009C46.266 39.9996 46.5201 39.8939 46.7075 39.7063C46.8948 39.5187 47 39.2644 47 38.9993V29.0003C47 28.7352 46.8948 28.4809 46.7075 28.2933C46.5201 28.1056 46.266 28 46.0009 27.9996ZM27.0014 25.9998H45.0001V24H27.0014C26.7386 23.9998 26.4784 24.0514 26.2355 24.1518C25.9927 24.2522 25.7721 24.3994 25.5862 24.5852C25.4003 24.7709 25.2529 24.9914 25.1523 25.2341C25.0516 25.4769 24.9999 25.737 24.9999 25.9998V36.9995H23V40H37.0007V36.9995H27.0014V25.9998Z" fill="#8CDBFF"/>
</svg>
