<svg width="48" height="48" viewBox="0 0 48 48" fill="none" xmlns="http://www.w3.org/2000/svg">
<g clip-path="url(#clip0_808_995)">
<path fill-rule="evenodd" clip-rule="evenodd" d="M10 8.25C6.82439 8.25 4.25003 10.8244 4.25003 14V34C4.25003 37.1756 6.82439 39.75 10 39.75H26V36.25H10C8.75739 36.25 7.75003 35.2426 7.75003 34V14C7.75003 12.7574 8.75739 11.75 10 11.75H15.5678C16.0887 11.75 16.5935 11.9307 16.996 12.2614L21.7825 16.1932C22.8111 17.0381 24.1011 17.5 25.4323 17.5H38C39.2427 17.5 40.25 18.5074 40.25 19.75V20H43.75V19.75C43.75 16.5744 41.1757 14 38 14H25.4323C24.9114 14 24.4066 13.8193 24.0041 13.4886L19.2175 9.55682C18.1889 8.71187 16.899 8.25 15.5678 8.25H10Z" fill="#64748B"/>
<path fill-rule="evenodd" clip-rule="evenodd" d="M39.5 22L49 31.5H43.5714V37.0643C42.2143 38.2857 40.8572 39.6428 39.5 41L30 31.5L39.5 22ZM35.5643 31.5L39.5 35.4357V31.5H43.4357C42.2143 30.1428 40.8572 28.7858 39.5 27.5643C38.1428 28.7857 36.7858 30.1428 35.5643 31.5Z" fill="#8CDBFF"/>
</g>
<defs>
<clipPath id="clip0_808_995">
<rect width="48" height="48" fill="white"/>
</clipPath>
</defs>
</svg>
