<svg width="48" height="48" viewBox="0 0 48 48" fill="none" xmlns="http://www.w3.org/2000/svg">
<path fill-rule="evenodd" clip-rule="evenodd" d="M10 8.25003C6.82436 8.25003 4.25 10.8244 4.25 14V34C4.25 37.1757 6.82436 39.75 10 39.75H24V36.25H10C8.75736 36.25 7.75 35.2427 7.75 34V14C7.75 12.7574 8.75736 11.75 10 11.75H15.5678C16.0887 11.75 16.5934 11.9308 16.9959 12.2614L21.7825 16.1932C22.8111 17.0382 24.1011 17.5 25.4322 17.5H38C39.2426 17.5 40.25 18.5074 40.25 19.75V20H43.75V19.75C43.75 16.5744 41.1756 14 38 14H25.4322C24.9113 14 24.4066 13.8193 24.0041 13.4887L19.2175 9.55685C18.1889 8.7119 16.8989 8.25003 15.5678 8.25003H10Z" fill="#64748B"/>
<path fill-rule="evenodd" clip-rule="evenodd" d="M43.3044 31.5C42.8847 31.5 42.4823 31.3333 42.1855 31.0365C41.8888 30.7398 41.7221 30.3373 41.7221 29.9177C41.7219 29.7097 41.7626 29.5038 41.8421 29.3117C41.9215 29.1195 42.038 28.9449 42.185 28.7978C42.3319 28.6507 42.5064 28.534 42.6985 28.4544C42.8906 28.3748 43.0965 28.3338 43.3044 28.3338C43.7241 28.3338 44.1265 28.5005 44.4233 28.7973C44.72 29.094 44.8868 29.4965 44.8868 29.9162C44.8869 30.1241 44.8462 30.33 44.7667 30.5222C44.6873 30.7143 44.5708 30.8889 44.4238 31.036C44.2769 31.1831 44.1024 31.2998 43.9103 31.3794C43.7182 31.459 43.5123 31.5 43.3044 31.5ZM40.1382 27.2779C39.7186 27.2779 39.3161 27.1112 39.0193 26.8145C38.7226 26.5177 38.5559 26.1153 38.5559 25.6956C38.5557 25.4877 38.5965 25.2818 38.6759 25.0896C38.7553 24.8975 38.8719 24.7228 39.0188 24.5757C39.1658 24.4287 39.3403 24.312 39.5324 24.2324C39.7244 24.1527 39.9303 24.1118 40.1382 24.1118C40.5579 24.1118 40.9604 24.2785 41.2571 24.5752C41.5539 24.872 41.7206 25.2745 41.7206 25.6941C41.7208 25.902 41.68 26.108 41.6006 26.3001C41.5211 26.4923 41.4046 26.6669 41.2576 26.814C41.1107 26.9611 40.9362 27.0777 40.7441 27.1574C40.552 27.237 40.3462 27.2779 40.1382 27.2779ZM34.8603 27.2779C34.4406 27.2779 34.0381 27.1112 33.7414 26.8145C33.4447 26.5177 33.2779 26.1153 33.2779 25.6956C33.2777 25.4877 33.3185 25.2818 33.398 25.0896C33.4774 24.8975 33.5939 24.7228 33.7409 24.5757C33.8878 24.4287 34.0623 24.312 34.2544 24.2324C34.4465 24.1527 34.6524 24.1118 34.8603 24.1118C35.28 24.1118 35.6824 24.2785 35.9792 24.5752C36.2759 24.872 36.4426 25.2745 36.4426 25.6941C36.4428 25.902 36.402 26.108 36.3226 26.3001C36.2432 26.4923 36.1267 26.6669 35.9797 26.814C35.8327 26.9611 35.6582 27.0777 35.4662 27.1574C35.2741 27.237 35.0682 27.2779 34.8603 27.2779ZM31.6941 31.5C31.2745 31.5 30.872 31.3333 30.5752 31.0365C30.2785 30.7398 30.1118 30.3373 30.1118 29.9177C30.1116 29.7097 30.1524 29.5038 30.2318 29.3117C30.3112 29.1195 30.4278 28.9449 30.5747 28.7978C30.7217 28.6507 30.8962 28.534 31.0882 28.4544C31.2803 28.3748 31.4862 28.3338 31.6941 28.3338C32.1138 28.3338 32.5163 28.5005 32.813 28.7973C33.1098 29.094 33.2765 29.4965 33.2765 29.9162C33.2767 30.1241 33.2359 30.33 33.1564 30.5222C33.077 30.7143 32.9605 30.8889 32.8135 31.036C32.6666 31.1831 32.4921 31.2998 32.3 31.3794C32.1079 31.459 31.902 31.5 31.6941 31.5ZM37.4985 22C34.9792 22.0004 32.5632 23.0015 30.782 24.783C29.0007 26.5646 28 28.9807 28 31.5C28 34.0193 29.0007 36.4354 30.782 38.217C32.5632 39.9985 34.9792 40.9996 37.4985 41C37.7064 41.0002 37.9124 40.9594 38.1045 40.88C38.2967 40.8005 38.4713 40.684 38.6184 40.5371C38.7655 40.3901 38.8821 40.2156 38.9618 40.0235C39.0414 39.8315 39.0823 39.6256 39.0823 39.4177C39.0823 39.0036 38.9241 38.6339 38.6712 38.3603C38.4167 38.0675 38.2747 37.6938 38.2705 37.3059C38.2703 37.098 38.3111 36.892 38.3905 36.6999C38.4699 36.5077 38.5865 36.3331 38.7334 36.186C38.8804 36.0389 39.0549 35.9223 39.2469 35.8426C39.439 35.763 39.6449 35.7221 39.8528 35.7221H41.7206C42.4138 35.7223 43.1003 35.5859 43.7408 35.3207C44.3813 35.0556 44.9633 34.6668 45.4536 34.1767C45.9439 33.6866 46.3328 33.1047 46.5981 32.4642C46.8634 31.8238 47 31.1373 47 30.4441C47 25.7799 42.7454 22 37.4985 22Z" fill="#8CDBFF"/>
</svg>
