<svg width="48" height="48" viewBox="0 0 48 48" fill="none" xmlns="http://www.w3.org/2000/svg">
<path fill-rule="evenodd" clip-rule="evenodd" d="M10 8.25C6.82436 8.25 4.25 10.8244 4.25 14V34C4.25 37.1756 6.82436 39.75 10 39.75H26V36.25H10C8.75736 36.25 7.75 35.2426 7.75 34V14C7.75 12.7574 8.75736 11.75 10 11.75H15.5678C16.0887 11.75 16.5934 11.9307 16.9959 12.2614L21.7825 16.1932C22.8111 17.0381 24.1011 17.5 25.4322 17.5H38C39.2426 17.5 40.25 18.5074 40.25 19.75V20H43.75V19.75C43.75 16.5744 41.1756 14 38 14H25.4322C24.9113 14 24.4066 13.8193 24.0041 13.4886L19.2175 9.55682C18.1889 8.71187 16.8989 8.25 15.5678 8.25H10Z" fill="#64748B"/>
<path fill-rule="evenodd" clip-rule="evenodd" d="M38.5 26.9996V29.999L42.7508 26.0003L38.5 22V24.9994C37.3836 24.9994 36.2782 25.2064 35.2468 25.6085C34.2154 26.0106 33.2783 26.5999 32.489 27.3428C31.6997 28.0858 31.0736 28.9678 30.6466 29.9384C30.2195 30.9091 29.9998 31.9494 30 33C30 34.5681 30.4885 36.0287 31.3167 37.2586L32.8687 35.798C32.3783 34.9377 32.1223 33.9763 32.1238 33C32.1238 31.4086 32.7956 29.8824 33.9913 28.7571C35.1871 27.6318 36.8089 26.9996 38.5 26.9996ZM45.6833 28.7399L44.1313 30.2004C44.6166 31.0626 44.8723 32.0228 44.8762 32.9985C44.8762 34.5899 44.2044 36.1161 43.0087 37.2414C41.8129 38.3667 40.1911 38.9989 38.5 38.9989V36.001L34.2492 40.0013L38.5 44V41.0006C39.6164 41.0006 40.7218 40.7936 41.7532 40.3915C42.7846 39.9894 43.7217 39.4001 44.511 38.6572C45.3003 37.9142 45.9264 37.0322 46.3534 36.0616C46.7805 35.0909 47.0002 34.0506 47 33C47 31.4319 46.5115 29.9713 45.6833 28.7414V28.7399Z" fill="#8CDBFF" stroke="#8CDBFF" stroke-width="0.29" stroke-miterlimit="1.414" stroke-linejoin="round"/>
</svg>
