<svg width="48" height="48" viewBox="0 0 48 48" fill="none" xmlns="http://www.w3.org/2000/svg">
<path fill-rule="evenodd" clip-rule="evenodd" d="M10 8.25C6.82436 8.25 4.25 10.8244 4.25 14V34C4.25 37.1756 6.82436 39.75 10 39.75H25.1328V36.25H10C8.75736 36.25 7.75 35.2426 7.75 34V14C7.75 12.7574 8.75736 11.75 10 11.75H15.5678C16.0887 11.75 16.5934 11.9307 16.9959 12.2614L21.7825 16.1932C22.8111 17.0381 24.1011 17.5 25.4322 17.5H38C38.5358 17.5 39.0279 17.6873 39.4143 18H43.4788C42.7385 15.6801 40.5654 14 38 14H25.4322C24.9113 14 24.4066 13.8193 24.0041 13.4886L19.2175 9.55682C18.1889 8.71187 16.8989 8.25 15.5678 8.25H10Z" fill="#64748B"/>
<path fill-rule="evenodd" clip-rule="evenodd" d="M37.6748 24.333C37.6748 22.493 39.263 21 41.2197 21C41.6844 20.999 42.1445 21.0844 42.5742 21.2512C43.0039 21.4182 43.3944 21.6634 43.7237 21.973C44.0529 22.2824 44.3145 22.6502 44.4932 23.055C44.6719 23.46 44.7647 23.8942 44.7657 24.333C44.7657 26.174 43.1775 27.667 41.2197 27.667C40.7503 27.6676 40.2852 27.58 39.852 27.4094C39.4187 27.2386 39.0254 26.9884 38.6955 26.673L33.7879 29.829C33.9245 30.472 33.8575 31.1388 33.5952 31.746L38.9761 35.086C39.6099 34.5978 40.403 34.3318 41.2208 34.333C41.6854 34.332 42.1456 34.4176 42.575 34.5846C43.0047 34.7516 43.3952 34.997 43.7243 35.3066C44.0536 35.6162 44.3149 35.984 44.4936 36.389C44.6724 36.794 44.7647 37.2282 44.7657 37.667C44.7657 39.507 43.1775 41 41.2197 41C40.2816 41.0018 39.3814 40.6518 38.7165 40.0268C38.0517 39.4018 37.6771 38.553 37.6748 37.667C37.674 37.1996 37.7784 36.7374 37.9808 36.311L32.6422 33C31.9957 33.531 31.1675 33.8226 30.3107 33.821C29.8461 33.822 29.3859 33.7366 28.9562 33.5696C28.5266 33.4026 28.1361 33.1574 27.8068 32.8476C27.4775 32.538 27.2162 32.1702 27.0377 31.7652C26.8589 31.3602 26.7666 30.9258 26.7657 30.487C26.7668 30.0484 26.8591 29.614 27.0379 29.2092C27.2166 28.8042 27.4779 28.4364 27.8072 28.127C28.1363 27.8174 28.527 27.5722 28.9565 27.4052C29.3859 27.2384 29.8463 27.153 30.3107 27.154C31.4373 27.154 32.4389 27.647 33.088 28.415L37.8453 25.356C37.7322 25.0256 37.6746 24.6804 37.6748 24.333Z" fill="#8B5CF6" stroke="#8B5CF6" stroke-width="0.5"/>
</svg>
