<svg width="48" height="48" viewBox="0 0 48 48" fill="none" xmlns="http://www.w3.org/2000/svg">
<path fill-rule="evenodd" clip-rule="evenodd" d="M10 8.25003C6.82436 8.25003 4.25 10.8244 4.25 14V34C4.25 37.1757 6.82436 39.75 10 39.75H24V36.25H10C8.75736 36.25 7.75 35.2427 7.75 34V14C7.75 12.7574 8.75736 11.75 10 11.75H15.5678C16.0887 11.75 16.5934 11.9308 16.9959 12.2614L21.7825 16.1932C22.8111 17.0382 24.1011 17.5 25.4322 17.5H38C39.2426 17.5 40.25 18.5074 40.25 19.75V20H43.75V19.75C43.75 16.5744 41.1756 14 38 14H25.4322C24.9113 14 24.4066 13.8193 24.0041 13.4887L19.2175 9.55685C18.1889 8.7119 16.8989 8.25003 15.5678 8.25003H10Z" fill="#64748B"/>
<path d="M44.9732 26.2551L38.0182 22.2711C37.3884 21.9096 36.6144 21.9096 35.9846 22.2711L29.0297 26.2551C28.6284 26.4851 28.3242 26.8394 28.1528 27.2551C28.0528 27.4979 28 27.7608 28 28.0322V35.9703C28 36.7046 28.3799 37.3145 29.0168 37.6802L30.0022 38.2416L30.0322 28.9293C30.0322 28.7321 30.0751 28.5279 30.1422 28.3493C30.2736 28.0265 30.5163 27.7322 30.8291 27.5536L36.2145 24.4695C36.703 24.1895 37.3013 24.1895 37.7897 24.4695L43.1752 27.5536C43.5508 27.7693 43.8178 28.1265 43.9221 28.535C43.9549 28.6621 43.9721 28.7936 43.9721 28.9293V35.0761C43.9721 35.6446 43.6679 36.1689 43.1752 36.4517L37.7897 39.5358C37.5441 39.6773 37.2699 39.7458 36.9957 39.7444V42C37.347 42 37.7012 41.91 38.0154 41.73L44.9703 37.7459C45.6073 37.3817 46 36.7031 46 35.9689V28.0322C46 27.8436 45.9743 27.6593 45.9243 27.4836C45.7858 26.9708 45.4459 26.5265 44.9732 26.2551Z" fill="#FF7043"/>
<path d="M37.5658 37.4031L41.4288 35.1904C41.783 34.9875 42.0001 34.6118 42.0001 34.2033V29.7964C42.0001 29.7035 41.9887 29.6135 41.9672 29.525C41.8944 29.2264 41.7016 28.9664 41.4288 28.8093L37.5658 26.598C37.2159 26.398 36.786 26.398 36.4361 26.598L32.5745 28.8093C32.3317 28.9493 32.1518 29.1707 32.0632 29.4264C32.0261 29.5421 32.0018 29.6721 32.0018 29.7964L31.9875 39.3616L34.0483 40.5187V36.0361L36.4361 37.4031C36.6075 37.5017 36.7989 37.5517 36.9902 37.5531C37.1888 37.556 37.3873 37.506 37.5658 37.4031ZM34.3725 33.8947C34.1626 33.7747 34.0326 33.5505 34.0326 33.3091V30.6921C34.0326 30.6121 34.0469 30.5349 34.0726 30.4621C34.1269 30.3135 34.2311 30.1864 34.3725 30.1064L36.6661 28.7936C36.8731 28.675 37.1288 28.675 37.3373 28.7936L39.6308 30.1064C39.7994 30.2035 39.9165 30.3664 39.955 30.5521C39.9622 30.5921 39.9693 30.6506 39.9693 30.6921V33.3091C39.9693 33.5505 39.8393 33.7747 39.6294 33.8947L37.3359 35.2075C37.2316 35.2675 37.1159 35.2975 37.0002 35.2975C36.8846 35.2975 36.7689 35.2675 36.6646 35.209L34.3725 33.8947Z" fill="#FF7043"/>
</svg>
