<svg width="48" height="48" viewBox="0 0 48 48" fill="none" xmlns="http://www.w3.org/2000/svg">
<path fill-rule="evenodd" clip-rule="evenodd" d="M10 8.25C6.82436 8.25 4.25 10.8244 4.25 14V34C4.25 37.1756 6.82436 39.75 10 39.75H24V36.25H10C8.75736 36.25 7.75 35.2426 7.75 34V14C7.75 12.7574 8.75736 11.75 10 11.75H15.5678C16.0887 11.75 16.5934 11.9307 16.9959 12.2614L21.7825 16.1932C22.8111 17.0381 24.1011 17.5 25.4322 17.5H38C38.9797 17.5 39.8131 18.1261 40.122 19H43.7015C43.334 16.1787 40.9214 14 38 14H25.4322C24.9113 14 24.4066 13.8193 24.0041 13.4886L19.2175 9.55682C18.1889 8.71187 16.8989 8.25 15.5678 8.25H10Z" fill="#64748B"/>
<path d="M44.7334 22.6101C44.9065 22.4309 45.0022 22.1909 45 21.9419C44.9979 21.6928 44.8979 21.4545 44.7218 21.2784C44.5457 21.1021 44.3074 21.0023 44.0583 21C43.8092 20.9979 43.5693 21.0937 43.3901 21.2668L41.6829 22.9739C40.9087 22.4925 39.9944 22.2873 39.0886 22.3914C38.1831 22.4957 37.3391 22.9031 36.6944 23.5477L35.6798 24.5633C35.3682 24.8749 35.1932 25.2976 35.1932 25.7384C35.1932 26.179 35.3682 26.6018 35.6798 26.9136L39.0856 30.3203C39.2401 30.4745 39.4232 30.5971 39.625 30.6807C39.8268 30.7641 40.0428 30.8072 40.2613 30.8072C40.4796 30.8072 40.6959 30.7641 40.8975 30.6807C41.0992 30.5971 41.2826 30.4745 41.4369 30.3203L42.4515 29.3057C43.096 28.661 43.5035 27.8174 43.6078 26.9121C43.7121 26.0065 43.5071 25.0924 43.0262 24.3182L44.7334 22.6101ZM34.2833 30.2101C34.4564 30.0309 34.5522 29.7909 34.5499 29.5418C34.5478 29.2927 34.4479 29.0545 34.2717 28.8784C34.0956 28.702 33.8573 28.6023 33.6083 28.6C33.3592 28.5979 33.1192 28.6937 32.94 28.8668L31.5435 30.2633L31.2652 29.9849C31.1316 29.8513 30.9505 29.7765 30.7617 29.7765C30.5728 29.7765 30.3917 29.8513 30.2582 29.9849L28.5719 31.6712C27.9274 32.3156 27.5199 33.1592 27.4155 34.0648C27.3112 34.9701 27.5162 35.8844 27.9971 36.6586L26.29 38.3667C26.1993 38.4543 26.127 38.5592 26.0772 38.6751C26.0274 38.791 26.0012 38.9156 26 39.0418C25.9989 39.1678 26.023 39.293 26.0707 39.4096C26.1184 39.5265 26.1891 39.6325 26.2782 39.7218C26.3675 39.8109 26.4735 39.8814 26.5902 39.9293C26.707 39.977 26.8321 40.0011 26.9582 40C27.0844 39.9988 27.209 39.9726 27.3249 39.9228C27.4408 39.873 27.5457 39.8007 27.6333 39.71L29.3414 38.0029C30.1157 38.4838 31.0297 38.6888 31.9353 38.5843C32.8408 38.48 33.6844 38.0724 34.3289 37.4281L36.0152 35.7419C36.1486 35.6081 36.2236 35.4271 36.2236 35.2384C36.2236 35.0495 36.1486 34.8685 36.0152 34.7349L35.7368 34.4565L37.1333 33.06C37.3064 32.8809 37.4022 32.6409 37.3999 32.3918C37.3978 32.1427 37.2979 31.9045 37.1218 31.7283C36.9456 31.552 36.7074 31.4523 36.4583 31.45C36.2092 31.4479 35.9692 31.5437 35.79 31.7168L34.3935 33.1132L32.8868 31.6066L34.2833 30.2101Z" fill="#8CDBFF"/>
</svg>
