<svg width="48" height="48" viewBox="0 0 48 48" fill="none" xmlns="http://www.w3.org/2000/svg">
<path fill-rule="evenodd" clip-rule="evenodd" d="M10 8.25C6.82436 8.25 4.25 10.8244 4.25 14V34C4.25 37.1756 6.82436 39.75 10 39.75H26V36.25H10C8.75736 36.25 7.75 35.2426 7.75 34V14C7.75 12.7574 8.75736 11.75 10 11.75H15.5678C16.0887 11.75 16.5934 11.9307 16.9959 12.2614L21.7825 16.1932C22.8111 17.0381 24.1011 17.5 25.4322 17.5H38C38.7361 17.5 39.3897 17.8535 39.8002 18.4H43.5906C42.9833 15.8757 40.7107 14 38 14H25.4322C24.9113 14 24.4066 13.8193 24.0041 13.4886L19.2175 9.55682C18.1889 8.71187 16.8989 8.25 15.5678 8.25H10Z" fill="#64748B"/>
<path d="M46.8632 26.6597C46.735 26.7592 44.4709 28.035 44.4709 30.8717C44.4709 34.1529 47.3519 35.3137 47.4381 35.3424C47.4248 35.4132 46.9804 36.9322 45.9191 38.4799C44.9728 39.8419 43.9845 41.2017 42.481 41.2017C40.9775 41.2017 40.5905 40.3283 38.8549 40.3283C37.1635 40.3283 36.5621 41.2304 35.1868 41.2304C33.8115 41.2304 32.8519 39.9701 31.7486 38.4224C30.4707 36.6049 29.4381 33.7814 29.4381 31.1017C29.4381 26.8034 32.2329 24.5239 34.9834 24.5239C36.4449 24.5239 37.6631 25.4834 38.5807 25.4834C39.4541 25.4834 40.8161 24.4664 42.4788 24.4664C43.1089 24.4664 45.373 24.5239 46.8632 26.6597ZM41.6894 22.6467C42.3771 21.8308 42.8635 20.6988 42.8635 19.5667C42.8635 19.4097 42.8502 19.2506 42.8215 19.1223C41.7027 19.1643 40.3717 19.8674 39.5691 20.7983C38.9389 21.5146 38.3508 22.6467 38.3508 23.7942C38.3508 23.9667 38.3795 24.1391 38.3928 24.1944C38.4635 24.2077 38.5785 24.2232 38.6935 24.2232C39.6973 24.2232 40.9598 23.551 41.6894 22.6467Z" fill="#CFD8DC"/>
</svg>
