<svg width="48" height="48" viewBox="0 0 48 48" fill="none" xmlns="http://www.w3.org/2000/svg">
<path fill-rule="evenodd" clip-rule="evenodd" d="M10 8.25C6.82436 8.25 4.25 10.8244 4.25 14V34C4.25 37.1756 6.82436 39.75 10 39.75H20V36.25H10C8.75736 36.25 7.75 35.2426 7.75 34V14C7.75 12.7574 8.75736 11.75 10 11.75H15.5678C16.0887 11.75 16.5934 11.9307 16.9959 12.2614L21.7825 16.1932C22.8111 17.0381 24.1011 17.5 25.4322 17.5H38C39.2426 17.5 40.25 18.5074 40.25 19.75V21H43.75V19.75C43.75 16.5744 41.1756 14 38 14H25.4322C24.9113 14 24.4066 13.8193 24.0041 13.4886L19.2175 9.55682C18.1889 8.71187 16.8989 8.25 15.5678 8.25H10Z" fill="#64748B"/>
<path fill-rule="evenodd" clip-rule="evenodd" d="M34.079 25.2123L34.8029 23.5418C35.1127 22.8269 35.5716 22.2228 36.1275 21.75L21.7045 21.7501H15.1818L14.1275 21.75C12.5095 21.75 11.0508 22.7247 10.4318 24.2195L6.29039 34.2194C5.19966 36.8531 7.13538 39.75 9.986 39.75H26.1323L22.5175 36.1352C20.5942 34.2118 20.5942 31.0935 22.5175 29.1702L26.8091 24.8785C28.7324 22.9552 31.8508 22.9552 33.7741 24.8785C33.8818 24.9862 33.9834 25.0976 34.079 25.2123Z" fill="#64748B"/>
<path d="M30.2916 28.5942L26 32.8859L30.2916 37.1775" stroke="#89FF8D" stroke-width="3" stroke-linecap="round" stroke-linejoin="round"/>
<path d="M42.1532 28.5942L46.4448 32.8859L42.1532 37.1775" stroke="#89FF8D" stroke-width="3" stroke-linecap="round" stroke-linejoin="round"/>
<path d="M33.1229 40.0385L39.3219 25.7332" stroke="#89FF8D" stroke-width="3" stroke-linecap="round" stroke-linejoin="round"/>
</svg>
