<svg width="48" height="48" viewBox="0 0 48 48" fill="none" xmlns="http://www.w3.org/2000/svg">
<path fill-rule="evenodd" clip-rule="evenodd" d="M10 8.25C6.82436 8.25 4.25 10.8244 4.25 14V34C4.25 37.1756 6.82436 39.75 10 39.75H26V36.25H10C8.75736 36.25 7.75 35.2426 7.75 34V14C7.75 12.7574 8.75736 11.75 10 11.75H15.5678C16.0887 11.75 16.5934 11.9307 16.9959 12.2614L21.7825 16.1932C22.8111 17.0381 24.1011 17.5 25.4322 17.5H38C38.6419 17.5 39.221 17.7688 39.6309 18.1999H43.5386C42.862 15.7772 40.6386 14 38 14H25.4322C24.9113 14 24.4066 13.8193 24.0041 13.4886L19.2175 9.55682C18.1889 8.71187 16.8989 8.25 15.5678 8.25H10Z" fill="#64748B"/>
<path fill-rule="evenodd" clip-rule="evenodd" d="M27.0103 21.7501C27.0035 21.8325 27 21.9159 27 22V38C27 38.6531 27.2087 39.2575 27.563 39.75H9.98594C7.13532 39.75 5.1996 36.8532 6.29033 34.2195L10.4317 24.2196C11.0508 22.7248 12.5095 21.7501 14.1274 21.7501L15.1817 21.7502H21.7045L27.0103 21.7501Z" fill="#64748B"/>
<path fill-rule="evenodd" clip-rule="evenodd" d="M30.2508 20C29.9552 19.9998 29.6624 20.0514 29.3892 20.1519C29.116 20.2524 28.8678 20.3998 28.6587 20.5856C28.4497 20.7714 28.2839 20.9921 28.1709 21.2349C28.0578 21.4777 27.9998 21.738 28 22.0008V37.9961C27.9993 38.2591 28.057 38.5197 28.1699 38.7629C28.2827 39.0061 28.4484 39.2271 28.6575 39.4133C28.8666 39.5995 29.115 39.7471 29.3884 39.8478C29.6618 39.9485 29.9549 40.0002 30.2508 40H43.7492C44.0451 40.0002 44.3382 39.9485 44.6116 39.8478C44.885 39.7471 45.1334 39.5995 45.3425 39.4133C45.5516 39.2271 45.7173 39.0061 45.8301 38.7629C45.943 38.5197 46.0007 38.2591 46 37.9961V22.0024C46.0005 21.7394 45.9426 21.479 45.8296 21.236C45.7167 20.993 45.551 20.7721 45.3419 20.5861C45.1328 20.4001 44.8845 20.2526 44.6112 20.1521C44.3379 20.0515 44.045 19.9998 43.7492 20H30.2508ZM30.2508 27.0012H43.7492V32H30.2508V27.0012ZM30.2508 33.9976H43.7492V37.9961H30.2508V33.9976Z" fill="#FF7C7C"/>
</svg>
