<svg width="48" height="48" viewBox="0 0 48 48" fill="none" xmlns="http://www.w3.org/2000/svg">
<path fill-rule="evenodd" clip-rule="evenodd" d="M10 8.25003C6.82436 8.25003 4.25 10.8244 4.25 14V34C4.25 37.1757 6.82436 39.75 10 39.75H24V36.25H10C8.75736 36.25 7.75 35.2427 7.75 34V14C7.75 12.7574 8.75736 11.75 10 11.75H15.5678C16.0887 11.75 16.5934 11.9308 16.9959 12.2614L21.7825 16.1932C22.8111 17.0382 24.1011 17.5 25.4322 17.5H38C38.9797 17.5 39.8131 18.1261 40.122 19H43.7015C43.334 16.1788 40.9214 14 38 14H25.4322C24.9113 14 24.4066 13.8193 24.0041 13.4887L19.2175 9.55685C18.1889 8.7119 16.8989 8.25003 15.5678 8.25003H10Z" fill="#64748B"/>
<path fill-rule="evenodd" clip-rule="evenodd" d="M31.4022 21.7501L21.7046 21.7501H15.1819L14.1276 21.7501C12.5096 21.75 11.0509 22.7247 10.4318 24.2196L6.29045 34.2195C5.19972 36.8532 7.13544 39.75 9.98606 39.75H29.224C26.9403 37.7344 25.5 34.7854 25.5 31.5C25.5 27.2646 27.8937 23.5882 31.4022 21.7501Z" fill="#64748B"/>
<path d="M36.5 41C41.7467 41 46 36.7467 46 31.5C46 26.2533 41.7467 22 36.5 22C31.2533 22 27 26.2533 27 31.5C27 36.7467 31.2533 41 36.5 41Z" stroke="#0EA5E9"/>
<path fill-rule="evenodd" clip-rule="evenodd" d="M36.6666 25.6666C33.3333 25.6666 30.6666 28.3333 30.6666 31.5C30.6666 34.8333 33.3333 37.3333 36.6666 37.3333C40 37.3333 42.6666 34.6666 42.6666 31.5C42.6666 28.3333 40 25.6666 36.6666 25.6666ZM38.3333 27.5C39.5 27.5 40.5 28.5 40.5 29.6666C40.5 30.8333 39.5 31.8333 38.3333 31.8333C37.1666 31.8333 36.1666 30.8333 36.1666 29.6666C36.1666 28.3333 37.1666 27.5 38.3333 27.5Z" fill="#0EA5E9"/>
<path d="M43.4999 26.8333C44.6965 26.8333 45.6666 25.8633 45.6666 24.6667C45.6666 23.4701 44.6965 22.5 43.4999 22.5C42.3033 22.5 41.3333 23.4701 41.3333 24.6667C41.3333 25.8633 42.3033 26.8333 43.4999 26.8333Z" fill="#0EA5E9"/>
</svg>
