<svg width="48" height="48" viewBox="0 0 48 48" fill="none" xmlns="http://www.w3.org/2000/svg">
<path fill-rule="evenodd" clip-rule="evenodd" d="M10 8.25003C6.82436 8.25003 4.25 10.8244 4.25 14V34C4.25 37.1757 6.82436 39.75 10 39.75H24V36.25H10C8.75736 36.25 7.75 35.2427 7.75 34V14C7.75 12.7574 8.75736 11.75 10 11.75H15.5678C16.0887 11.75 16.5934 11.9308 16.9959 12.2614L21.7825 16.1932C22.8111 17.0382 24.1011 17.5 25.4322 17.5H38C39.2426 17.5 40.25 18.5074 40.25 19.75V20H43.75V19.75C43.75 16.5744 41.1756 14 38 14H25.4322C24.9113 14 24.4066 13.8193 24.0041 13.4887L19.2175 9.55685C18.1889 8.7119 16.8989 8.25003 15.5678 8.25003H10Z" fill="#64748B"/>
<path fill-rule="evenodd" clip-rule="evenodd" d="M26.827 21.75L21.7047 21.7501H15.182L14.1277 21.75C12.5097 21.75 11.051 22.7247 10.4319 24.2195L6.29057 34.2194C5.19985 36.8531 7.13556 39.7499 9.98618 39.7499H26.6096C26.4268 39.3163 26.3512 38.8216 26.3512 38.2661V34.6305C26.3512 33.6544 25.8197 32.9072 25.0825 32.3879C24.6371 32.0692 23.8342 31.8184 23 31.633V30.2268C23.9412 29.9712 24.7686 29.6885 25.1564 29.379C25.8446 28.8443 26.352 28.0275 26.352 26.9283V23.8152C26.352 23.7565 26.3515 23.6979 26.351 23.6391C26.3481 23.3015 26.3452 22.9576 26.4359 22.5723C26.5093 22.2693 26.6459 21.9964 26.827 21.75ZM28 31.4489C27.6438 31.2808 27.2338 31.1213 26.7699 30.9704C27.2276 30.8014 27.6376 30.6161 28 30.4145V31.4489Z" fill="#64748B"/>
<path fill-rule="evenodd" clip-rule="evenodd" d="M32.0787 22V22.002C31.8899 22.0009 31.7011 22.0005 31.5123 22.0006C30.8376 21.9955 30.2728 22.3117 29.7816 22.6413C29.2456 23.0023 28.7868 23.4735 28.643 24.1047C28.5611 24.4748 28.5785 24.7983 28.5785 25.1215V27.6686C28.5785 28.568 28.1882 29.2363 27.6588 29.6737C27.3605 29.927 26.724 30.1583 26 30.3674V31.518C26.6417 31.6696 27.2593 31.8749 27.6019 32.1356C28.169 32.5605 28.5778 33.1718 28.5778 33.9704V36.945C28.5778 37.9333 28.8527 38.686 29.6527 39.2024C30.4526 39.7184 31.3848 39.9751 32.4495 40L33.162 39.9959V38.5127C32.6062 38.3732 32.2974 38.2114 32.0749 38.0284C31.6743 37.7173 31.4474 37.2121 31.4474 36.5104V34.1086C31.4322 33.2916 31.2785 32.6526 30.9315 32.1903C30.5845 31.729 29.9074 31.3244 28.8999 30.9758C30.0118 30.5391 30.7578 29.9697 31.1383 29.2672C31.3624 28.8495 31.4475 28.2862 31.4475 27.5777V25.3754C31.4475 24.6479 31.6444 24.1384 31.9855 23.8472C32.1706 23.6893 32.4998 23.5592 32.9572 23.4538L33.6804 23.4581V22H32.0787ZM39.9213 22V22.002C40.1101 22.0009 40.2989 22.0005 40.4877 22.0006C41.1624 21.9955 41.7272 22.3117 42.2183 22.6413C42.7544 23.0023 43.2132 23.4735 43.357 24.1047C43.4389 24.4748 43.4215 24.7983 43.4215 25.1215V27.6686C43.4215 28.568 43.8118 29.2363 44.3412 29.6737C44.6395 29.927 45.276 30.1583 46 30.3674V31.518C45.3583 31.6696 44.7407 31.8749 44.3981 32.1356C43.831 32.5605 43.4222 33.1718 43.4222 33.9704V36.945C43.4222 37.9333 43.1473 38.686 42.3473 39.2024C41.5473 39.7184 40.6151 39.9751 39.5504 40L38.8379 39.9959V38.5127C39.3937 38.3732 39.7025 38.2114 39.925 38.0284C40.3256 37.7173 40.5525 37.2121 40.5525 36.5104V34.1086C40.5678 33.2916 40.7214 32.6526 41.0684 32.1903C41.4154 31.729 42.0925 31.3243 43.1 30.9758C41.9882 30.5391 41.2421 29.9697 40.8616 29.2672C40.6375 28.8495 40.5524 28.2862 40.5524 27.5777V25.3754C40.5524 24.6479 40.3555 24.1384 40.0144 23.8472C39.8293 23.6893 39.5001 23.5592 39.0427 23.4538L38.3196 23.4581V22H39.9213Z" fill="#8CDBFF"/>
</svg>
