<svg width="48" height="48" viewBox="0 0 48 48" fill="none" xmlns="http://www.w3.org/2000/svg">
<g clip-path="url(#clip0_3404_2627)">
<path fill-rule="evenodd" clip-rule="evenodd" d="M10 8.25C6.82436 8.25 4.25 10.8244 4.25 14V34C4.25 37.1756 6.82436 39.75 10 39.75H26V36.25H10C8.75736 36.25 7.75 35.2426 7.75 34V14C7.75 12.7574 8.75736 11.75 10 11.75H15.5678C16.0887 11.75 16.5934 11.9307 16.9959 12.2614L21.7825 16.1932C22.8111 17.0381 24.1011 17.5 25.4322 17.5H38C39.2426 17.5 40.25 18.5074 40.25 19.75V20H43.75V19.75C43.75 16.5744 41.1756 14 38 14H25.4322C24.9113 14 24.4066 13.8193 24.0041 13.4886L19.2175 9.55682C18.1889 8.71187 16.8989 8.25 15.5678 8.25H10Z" fill="#64748B"/>
<path fill-rule="evenodd" clip-rule="evenodd" d="M37.7119 21.7501L21.7045 21.7501H15.1818L14.1275 21.7501C12.5095 21.7501 11.0508 22.7247 10.4318 24.2196L6.29039 34.2195C5.19966 36.8532 7.13538 39.75 9.986 39.75H32.9156C30.8165 37.8302 29.5 35.0688 29.5 32C29.5 26.9869 33.0132 22.7943 37.7119 21.7501Z" fill="#64748B"/>
<path fill-rule="evenodd" clip-rule="evenodd" d="M40 26.5451V29.2718L44.0008 25.6366L40 22V24.7268C38.9493 24.7268 37.9089 24.9149 36.9382 25.2804C35.9675 25.646 35.0855 26.1817 34.3426 26.8571C33.5997 27.5325 33.0105 28.3343 32.6085 29.2168C32.2066 30.0992 31.9998 31.0449 32 32C32 33.4256 32.4597 34.7533 33.2393 35.8714L34.7 34.5437C34.2384 33.7616 33.9974 32.8876 33.9988 32C33.9988 30.5533 34.6311 29.1658 35.7565 28.1428C36.882 27.1198 38.4084 26.5451 40 26.5451ZM46.7607 28.1272L45.3 29.4549C45.7568 30.2387 45.9974 31.1116 46.0012 31.9986C46.0012 33.4453 45.3689 34.8328 44.2435 35.8558C43.118 36.8788 41.5916 37.4535 40 37.4535V34.7282L35.9992 38.3648L40 42V39.2732C41.0507 39.2732 42.0911 39.0851 43.0618 38.7196C44.0325 38.354 44.9145 37.8183 45.6574 37.1429C46.4003 36.4675 46.9895 35.6657 47.3915 34.7832C47.7934 33.9008 48.0002 32.9551 48 32C48 30.5744 47.5403 29.2467 46.7607 28.1286V28.1272Z" fill="#FF7C7C" stroke="#FF7C7C" stroke-width="0.29" stroke-miterlimit="1.414" stroke-linejoin="round"/>
</g>
<defs>
<clipPath id="clip0_3404_2627">
<rect width="48" height="48" fill="white"/>
</clipPath>
</defs>
</svg>
