<svg width="48" height="48" viewBox="0 0 48 48" fill="none" xmlns="http://www.w3.org/2000/svg">
<path fill-rule="evenodd" clip-rule="evenodd" d="M10 8.25003C6.82439 8.25003 4.25003 10.8244 4.25003 14V34C4.25003 37.1757 6.82439 39.75 10 39.75H24V36.25H10C8.75739 36.25 7.75003 35.2427 7.75003 34V14C7.75003 12.7574 8.75739 11.75 10 11.75H15.5678C16.0887 11.75 16.5935 11.9308 16.996 12.2614L21.7825 16.1932C22.8111 17.0382 24.1011 17.5 25.4323 17.5H38C39.2427 17.5 40.25 18.5074 40.25 19.75V20H43.75V19.75C43.75 16.5744 41.1757 14 38 14H25.4323C24.9114 14 24.4066 13.8193 24.0041 13.4887L19.2175 9.55685C18.1889 8.7119 16.899 8.25003 15.5678 8.25003H10Z" fill="#64748B"/>
<path fill-rule="evenodd" clip-rule="evenodd" d="M22.3929 21.7501L21.7045 21.7501H15.1817L14.1274 21.7501C12.5095 21.75 11.0508 22.7247 10.4317 24.2196L6.29033 34.2195C5.1996 36.8532 7.13532 39.75 9.98594 39.75H31.8214L22.3929 21.7501ZM32.8262 22.6512L32.3753 21.7501L32.921 21.7501L32.8262 22.6512Z" fill="#64748B"/>
<path d="M38.1344 22V22.0162H43.7778V22H38.1344ZM26 22.0485L34.0094 40H36.6249L41.6294 28.7801H37.1569L35.32 32.9015L30.4754 22.0469L26 22.0485ZM40.264 26.5465L42.5623 26.5594L42.5681 26.5465H40.264Z" fill="#8CDBFF"/>
<path d="M39.8254 22V23.029H41.5403L41.258 23.6787H38.4523V24.7029H40.8067L40.4718 25.4758H37.1111V26.5H44.0816L46 22.016H45.2429V22H39.8254Z" fill="#FF707E"/>
</svg>
