<svg width="48" height="48" viewBox="0 0 48 48" fill="none" xmlns="http://www.w3.org/2000/svg">
<path fill-rule="evenodd" clip-rule="evenodd" d="M10 8.25C6.82436 8.25 4.25 10.8244 4.25 14V34C4.25 37.1756 6.82436 39.75 10 39.75H24V36.25H10C8.75736 36.25 7.75 35.2426 7.75 34V14C7.75 12.7574 8.75736 11.75 10 11.75H15.5678C16.0887 11.75 16.5934 11.9307 16.9959 12.2614L21.7825 16.1932C22.8111 17.0381 24.1011 17.5 25.4322 17.5H38C39.2426 17.5 40.25 18.5074 40.25 19.75V20H43.75V19.75C43.75 16.5744 41.1756 14 38 14H25.4322C24.9113 14 24.4066 13.8193 24.0041 13.4886L19.2175 9.55682C18.1889 8.71187 16.8989 8.25 15.5678 8.25H10Z" fill="#64748B"/>
<path fill-rule="evenodd" clip-rule="evenodd" d="M30.6322 21.75L21.7045 21.7501H15.1818L14.1275 21.75C12.5095 21.75 11.0508 22.7247 10.4318 24.2195L6.29039 34.2195C5.19966 36.8531 7.13538 39.75 9.986 39.75H28.4635C28.3124 39.6034 28.1723 39.4412 28.0457 39.264L27.1342 37.9879C25.9711 36.3594 26.3899 34.0966 28.0547 33.0145L28.4256 32.7734C28.296 32.6596 28.1791 32.527 28.0791 32.3765L27.0653 30.8518C26.4537 29.932 26.7036 28.6906 27.6235 28.079L28.6277 27.4113C28.4347 27.3556 28.259 27.2352 28.1362 27.0566L27.8584 26.6524C27.579 26.2459 27.6789 25.6902 28.0824 25.4064L28.4835 25.1243C28.8932 24.8362 29.4593 24.9379 29.743 25.3507L29.7582 25.3728C29.1726 24.113 29.5393 22.6022 30.6322 21.75ZM30.1791 26.7319L30.2042 26.7312L30.2021 26.7158L30.1791 26.7319Z" fill="#64748B"/>
<path fill-rule="evenodd" clip-rule="evenodd" d="M40.4127 24.0247C40.7108 24.4847 40.5889 25.101 40.1388 25.4103L39.7924 25.6483C39.3302 25.966 38.6996 25.839 38.3935 25.3666L37.4289 23.8776C37.1309 23.4177 37.2527 22.8016 37.7026 22.4922L38.0488 22.2542C38.5111 21.9363 39.1419 22.0632 39.448 22.5357L40.4127 24.0247Z" fill="url(#paint0_linear_3404_2808)"/>
<path fill-rule="evenodd" clip-rule="evenodd" d="M42.5741 34.3988L44.9152 38.0125C45.5113 38.9325 45.2677 40.1647 44.3675 40.7835L43.6046 41.3079C42.68 41.9434 41.4187 41.6895 40.8066 40.7446L38.5066 37.1946C38.1758 36.6847 38.3106 36.0014 38.8097 35.6583L41.0784 34.0984C41.5724 33.7587 42.2465 33.8941 42.5741 34.3988Z" fill="url(#paint1_linear_3404_2808)"/>
<path fill-rule="evenodd" clip-rule="evenodd" d="M37.4514 37.9209L37.6663 38.2522C37.9646 38.7123 37.8429 39.3287 37.3926 39.6382L35.9489 40.6302C35.4868 40.9478 34.8563 40.8209 34.5502 40.3487L34.2076 39.8202C33.9589 39.4365 34.0605 38.9224 34.4361 38.6643L36.014 37.5798C36.4765 37.262 37.1074 37.3892 37.4133 37.862L37.4514 37.9209Z" fill="url(#paint2_linear_3404_2808)"/>
<path fill-rule="evenodd" clip-rule="evenodd" d="M44.265 31.9069L44.2918 31.8885C44.754 31.5709 45.3846 31.6979 45.6906 32.1703L45.9441 32.5616C46.2422 33.0216 46.1203 33.6378 45.6701 33.9471L45.3241 34.1849C44.8617 34.5027 44.2309 34.3755 43.925 33.9028L43.731 33.6031L44.0503 33.3836C44.5006 33.0742 44.6223 32.4577 44.3239 31.9977L44.265 31.9069ZM43.731 33.6031L43.6719 33.512C43.3739 33.052 43.4956 32.4359 43.9456 32.1265L44.265 31.9069L44.3239 31.9977C44.6223 32.4577 44.5006 33.0742 44.0503 33.3836L43.731 33.6031Z" fill="url(#paint3_linear_3404_2808)"/>
<path fill-rule="evenodd" clip-rule="evenodd" d="M30.2509 32.2066C29.8793 32.4618 29.3725 32.3597 29.1265 31.98L28.0524 30.3218C27.7545 29.8618 27.8763 29.2458 28.3263 28.9364L29.7697 27.9441C30.232 27.6263 30.8628 27.7533 31.1688 28.2258L32.0546 29.5931L32.1332 29.7142C32.4317 30.1742 32.3102 30.7908 31.8599 31.1004L30.2509 32.2066Z" fill="url(#paint4_linear_3404_2808)"/>
<path fill-rule="evenodd" clip-rule="evenodd" d="M37.1783 26.0718C37.5202 26.5994 37.3805 27.3061 36.8642 27.661L34.6557 29.1788C34.1452 29.5297 33.4487 29.3894 33.1108 28.8676L30.8017 25.3038C30.2056 24.3838 30.4491 23.1514 31.3494 22.5326L32.1123 22.0083C33.0368 21.3728 34.298 21.6267 34.9102 22.5715L37.1783 26.0718Z" fill="url(#paint5_linear_3404_2808)"/>
<path fill-rule="evenodd" clip-rule="evenodd" d="M40.082 25.4501L39.7985 25.645C39.3346 25.9638 38.699 25.8371 38.3929 25.3646L37.5417 24.051C37.1813 23.4946 37.3286 22.7495 37.8729 22.3752C38.432 21.9907 39.195 22.1442 39.5653 22.7157L40.3752 23.9654C40.6946 24.4583 40.5642 25.1185 40.082 25.4501Z" fill="url(#paint6_linear_3404_2808)"/>
<path fill-rule="evenodd" clip-rule="evenodd" d="M35.0305 39.5842L34.4361 38.6643L36.8545 37.0012L37.4514 37.9209L35.0305 39.5842Z" fill="#714896"/>
<path d="M38.2846 25.1928L38.7193 24.9009L39.3737 25.9348L38.939 26.2267L38.2846 25.1928Z" fill="url(#paint7_linear_3404_2808)"/>
<path fill-rule="evenodd" clip-rule="evenodd" d="M43.731 33.6031L43.1349 32.6857L44.265 31.9069L44.8607 32.8274L43.731 33.6031Z" fill="#6F4795"/>
<path fill-rule="evenodd" clip-rule="evenodd" d="M30.2509 32.2066L29.6347 31.2557L32.0546 29.5931L32.6701 30.5436L30.2509 32.2066Z" fill="#88519F"/>
<path fill-rule="evenodd" clip-rule="evenodd" d="M40.0429 25.1019L39.4269 24.1512L40.5573 23.375L41.1734 24.3245L40.0429 25.1019Z" fill="#85509E"/>
<path fill-rule="evenodd" clip-rule="evenodd" d="M42.5741 34.3988L38.5066 37.1946L37.9107 36.2755L41.9783 33.4799L42.5741 34.3988Z" fill="#8D166A"/>
<path fill-rule="evenodd" clip-rule="evenodd" d="M37.1783 26.0718L37.7938 27.0212L33.7263 29.8169L33.1108 28.8676L37.1783 26.0718Z" fill="#A70D6F"/>
<path fill-rule="evenodd" clip-rule="evenodd" d="M28.5922 25.6586C28.8696 25.4678 29.2482 25.5441 29.4318 25.8276L29.5433 25.9998C29.722 26.2759 29.6488 26.6456 29.3786 26.8311L29.2199 26.9401C28.9426 27.1305 28.5645 27.0543 28.3808 26.7711L28.2694 26.5991C28.0905 26.3231 28.1635 25.9534 28.4335 25.7677L28.5922 25.6586Z" fill="#9E61AD"/>
<path fill-rule="evenodd" clip-rule="evenodd" d="M32.7383 39.864C33.0157 39.6732 33.3942 39.7494 33.5779 40.033L33.6894 40.2053C33.8682 40.4813 33.795 40.851 33.5249 41.0365L33.3655 41.146C33.088 41.3367 32.7094 41.2603 32.526 40.9765L32.4146 40.8043C32.2361 40.5283 32.3093 40.159 32.5791 39.9735L32.7383 39.864Z" fill="#8053A3"/>
<path fill-rule="evenodd" clip-rule="evenodd" d="M31.8995 39.5535C30.9762 40.1881 29.7123 39.9259 29.0997 38.9726L27.9147 37.1289C27.3218 36.2063 27.5612 34.9785 28.4542 34.3633L43.2136 24.1943C44.1179 23.5712 45.3548 23.8079 45.9822 24.7241L47.231 26.5476C47.8641 27.4722 47.636 28.7364 46.7227 29.3642L31.8995 39.5535Z" fill="url(#paint8_linear_3404_2808)"/>
<defs>
<linearGradient id="paint0_linear_3404_2808" x1="-50.0397" y1="-7.17626" x2="75.1243" y2="107.74" gradientUnits="userSpaceOnUse">
<stop stop-color="#C06FBB"/>
<stop offset="1" stop-color="#6E4D9B"/>
</linearGradient>
<linearGradient id="paint1_linear_3404_2808" x1="42.1786" y1="38.5427" x2="8.1782" y2="-7.88102" gradientUnits="userSpaceOnUse">
<stop stop-color="#6E4D9B"/>
<stop offset="0.14" stop-color="#77327A"/>
<stop offset="0.29" stop-color="#B31777"/>
<stop offset="0.84" stop-color="#CD0F7E"/>
<stop offset="1" stop-color="#ED2C89"/>
</linearGradient>
<linearGradient id="paint2_linear_3404_2808" x1="-29.1771" y1="-117.07" x2="85.1213" y2="41.977" gradientUnits="userSpaceOnUse">
<stop stop-color="#C06FBB"/>
<stop offset="1" stop-color="#6E4D9B"/>
</linearGradient>
<linearGradient id="paint3_linear_3404_2808" x1="-136.669" y1="-72.1505" x2="47.967" y2="79.3272" gradientUnits="userSpaceOnUse">
<stop stop-color="#C06FBB"/>
<stop offset="1" stop-color="#6E4D9B"/>
</linearGradient>
<linearGradient id="paint4_linear_3404_2808" x1="-0.480923" y1="-24.5257" x2="111.388" y2="74.0462" gradientUnits="userSpaceOnUse">
<stop stop-color="#C06FBB"/>
<stop offset="1" stop-color="#6E4D9B"/>
</linearGradient>
<linearGradient id="paint5_linear_3404_2808" x1="65.8048" y1="72.4495" x2="31.659" y2="25.7401" gradientUnits="userSpaceOnUse">
<stop stop-color="#6E4D9B"/>
<stop offset="0.14" stop-color="#77327A"/>
<stop offset="0.29" stop-color="#B31777"/>
<stop offset="0.84" stop-color="#CD0F7E"/>
<stop offset="1" stop-color="#ED2C89"/>
</linearGradient>
<linearGradient id="paint6_linear_3404_2808" x1="-50.0278" y1="-13.1094" x2="75.1162" y2="125.455" gradientUnits="userSpaceOnUse">
<stop stop-color="#C06FBB"/>
<stop offset="1" stop-color="#6E4D9B"/>
</linearGradient>
<linearGradient id="paint7_linear_3404_2808" x1="32.7161" y1="148.068" x2="50.8345" y2="-97.2067" gradientUnits="userSpaceOnUse">
<stop stop-color="#C06FBB"/>
<stop offset="1" stop-color="#6E4D9B"/>
</linearGradient>
<linearGradient id="paint8_linear_3404_2808" x1="28.5647" y1="38.2343" x2="47.1275" y2="26.2998" gradientUnits="userSpaceOnUse">
<stop stop-color="#6E4D9B"/>
<stop offset="0.14" stop-color="#77327A"/>
<stop offset="0.53" stop-color="#B31777"/>
<stop offset="0.79" stop-color="#CD0F7E"/>
<stop offset="1" stop-color="#ED2C89"/>
</linearGradient>
</defs>
</svg>
