<svg width="48" height="48" viewBox="0 0 48 48" fill="none" xmlns="http://www.w3.org/2000/svg">
<path fill-rule="evenodd" clip-rule="evenodd" d="M10 8.25C6.82436 8.25 4.25 10.8244 4.25 14V34C4.25 37.1756 6.82436 39.75 10 39.75H22V36.25H10C8.75736 36.25 7.75 35.2426 7.75 34V14C7.75 12.7574 8.75736 11.75 10 11.75H15.5678C16.0887 11.75 16.5934 11.9307 16.9959 12.2614L21.7825 16.1932C22.8111 17.0381 24.1011 17.5 25.4322 17.5H38C39.2426 17.5 40.25 18.5074 40.25 19.75V20H43.75V19.75C43.75 16.5744 41.1756 14 38 14H25.4322C24.9113 14 24.4066 13.8193 24.0041 13.4886L19.2175 9.55682C18.1889 8.71187 16.8989 8.25 15.5678 8.25H10Z" fill="#64748B"/>
<path fill-rule="evenodd" clip-rule="evenodd" d="M14.1274 21.7501C12.5095 21.7501 11.0508 22.7248 10.4317 24.2196L6.29033 34.2195C5.1996 36.8532 7.13532 39.75 9.98594 39.75H25V24C25 23.4477 25.4477 23 26 23H42.4742C41.755 22.238 40.7341 21.7501 39.569 21.7501L21.7045 21.7502H15.1817L14.1274 21.7501Z" fill="#64748B"/>
<path fill-rule="evenodd" clip-rule="evenodd" d="M26 29.7143H43.6V32.5714H26V29.7143ZM26 24H43.6V26.8571H26V24ZM26 35.4286H37.7333V38.2857H26V35.4286ZM40.6667 35.4286V44L48 39.7143L40.6667 35.4286Z" fill="#CFD8DC"/>
</svg>
