<svg width="48" height="48" viewBox="0 0 48 48" fill="none" xmlns="http://www.w3.org/2000/svg">
<path fill-rule="evenodd" clip-rule="evenodd" d="M10 8.25C6.82436 8.25 4.25 10.8244 4.25 14V34C4.25 37.1756 6.82436 39.75 10 39.75H24V36.25H10C8.75736 36.25 7.75 35.2426 7.75 34V14C7.75 12.7574 8.75736 11.75 10 11.75H15.5678C16.0887 11.75 16.5934 11.9307 16.9959 12.2614L21.7825 16.1932C22.8111 17.0381 24.1011 17.5 25.4322 17.5H38C39.2426 17.5 40.25 18.5074 40.25 19.75V20H43.75V19.75C43.75 16.5744 41.1756 14 38 14H25.4322C24.9113 14 24.4066 13.8193 24.0041 13.4886L19.2175 9.55682C18.1889 8.71187 16.8989 8.25 15.5678 8.25H10Z" fill="#64748B"/>
<path fill-rule="evenodd" clip-rule="evenodd" d="M33.3889 21.75L21.7047 21.7501H15.182L14.1277 21.75C12.5097 21.75 11.051 22.7247 10.4319 24.2195L6.29057 34.2194C5.19985 36.8531 7.13556 39.7499 9.98618 39.7499H26.0945C26.0328 39.5102 26 39.2589 26 39V27C26 25.3431 27.3431 24 29 24H32V23L33.3889 21.75Z" fill="#64748B"/>
<path fill-rule="evenodd" clip-rule="evenodd" d="M39.4003 25.9997H35.6012V23.9998H39.4003M45.099 25.9997H41.2999V23.9998L39.4003 22H35.6012L33.7001 23.9998V25.9997H29.8996C28.8451 25.9997 28 26.8894 28 27.9995V39.0002C28 39.2628 28.0491 39.5228 28.1446 39.7655C28.2401 40.0081 28.38 40.2286 28.5564 40.4143C28.7328 40.6 28.9422 40.7473 29.1726 40.8478C29.4031 40.9483 29.6501 41 29.8996 41H45.1004C45.3499 41 45.5969 40.9483 45.8274 40.8478C46.0578 40.7473 46.2672 40.6 46.4436 40.4143C46.62 40.2286 46.7599 40.0081 46.8554 39.7655C46.9509 39.5228 47 39.2628 47 39.0002V27.998C47 26.8878 46.1446 25.9981 45.1004 25.9981L45.099 25.9997Z" fill="#FF7C7C"/>
</svg>
