<svg width="48" height="48" viewBox="0 0 48 48" fill="none" xmlns="http://www.w3.org/2000/svg">
<path fill-rule="evenodd" clip-rule="evenodd" d="M10 8.25003C6.82436 8.25003 4.25 10.8244 4.25 14V34C4.25 37.1757 6.82436 39.75 10 39.75H24V36.25H10C8.75736 36.25 7.75 35.2427 7.75 34V14C7.75 12.7574 8.75736 11.75 10 11.75H15.5678C16.0887 11.75 16.5934 11.9308 16.9959 12.2614L21.7825 16.1932C22.8111 17.0382 24.1011 17.5 25.4322 17.5H38C39.2426 17.5 40.25 18.5074 40.25 19.75V20H43.75V19.75C43.75 16.5744 41.1756 14 38 14H25.4322C24.9113 14 24.4066 13.8193 24.0041 13.4887L19.2175 9.55685C18.1889 8.7119 16.8989 8.25003 15.5678 8.25003H10Z" fill="#64748B"/>
<path fill-rule="evenodd" clip-rule="evenodd" d="M30.3243 39.75L26.5834 37.457C26.4068 37.3558 26.2591 37.2038 26.1563 37.0174C26.0534 36.8311 25.9994 36.6176 26 36.4V25.5999C26 25.1443 26.23 24.7477 26.5834 24.543L31.1399 21.7501L21.7045 21.7501H15.1817L14.1274 21.7501C12.5095 21.75 11.0508 22.7247 10.4317 24.2196L6.29033 34.2195C5.1996 36.8532 7.13532 39.75 9.98594 39.75H30.3243Z" fill="#64748B"/>
<path d="M36.5152 21.123L28.4852 25.6456C28.3377 25.7284 28.2152 25.8477 28.13 25.9916C28.0448 26.1354 28 26.2986 28 26.4648V35.5227C28 35.6891 28.0447 35.8524 28.1297 35.9965C28.2147 36.1406 28.337 36.2603 28.4843 36.3436L36.5161 40.8733C36.6636 40.9563 36.8309 41 37.0012 41C37.1715 41 37.3388 40.9563 37.4864 40.8733L45.5157 36.3444C45.663 36.2611 45.7853 36.1414 45.8703 35.9973C45.9553 35.8532 46 35.6899 46 35.5235V26.4688C46 26.3026 45.9552 26.1394 45.87 25.9956C45.7848 25.8517 45.6623 25.7324 45.5148 25.6496L37.4864 21.127C37.3389 21.0438 37.1716 21 37.0012 21C36.8309 21 36.6635 21.0438 36.5161 21.127L36.5152 21.123Z" fill="#388E3C"/>
<path d="M28 36.0911C28.0796 36.1907 28.1792 36.2743 28.293 36.3369L35.362 40.2262L36.5391 40.8732C36.7128 40.9684 36.9126 41.0117 37.1125 40.9973C37.1787 40.9919 37.2442 40.9803 37.3081 40.9629L46 25.8045C45.9337 25.736 45.8573 25.677 45.7733 25.6292L40.3725 22.6608L37.5205 21.0977C37.4401 21.0533 37.3532 21.0204 37.2628 21L28 36.0911Z" fill="#4CAF50"/>
<path d="M46 36.0911C45.9204 36.1907 45.8208 36.2743 45.707 36.3369L38.638 40.2262L37.4609 40.8732C37.2872 40.9684 37.0874 41.0117 36.8875 40.9973C36.8213 40.9919 36.7558 40.9803 36.6919 40.9629L28 25.8029C28.0663 25.7344 28.1427 25.6754 28.2267 25.6276L33.6275 22.6608L36.4795 21.0977C36.5599 21.0533 36.6468 21.0204 36.7372 21L46 36.0911Z" fill="#66BB6A"/>
</svg>
