<svg width="48" height="48" viewBox="0 0 48 48" fill="none" xmlns="http://www.w3.org/2000/svg">
<path fill-rule="evenodd" clip-rule="evenodd" d="M10 8.25003C6.82439 8.25003 4.25003 10.8244 4.25003 14V34C4.25003 37.1757 6.82439 39.75 10 39.75H19V36.25H10C8.75739 36.25 7.75003 35.2427 7.75003 34V14C7.75003 12.7574 8.75739 11.75 10 11.75H15.5678C16.0887 11.75 16.5935 11.9308 16.996 12.2614L21.7825 16.1932C22.8111 17.0382 24.1011 17.5 25.4323 17.5H38C38.9797 17.5 39.8131 18.1261 40.122 19H43.7016C43.3341 16.1788 40.9215 14 38 14H25.4323C24.9114 14 24.4066 13.8193 24.0041 13.4887L19.2175 9.55685C18.1889 8.7119 16.899 8.25003 15.5678 8.25003H10Z" fill="#64748B"/>
<path fill-rule="evenodd" clip-rule="evenodd" d="M22.7988 21.7501C21.7399 22.2133 21 23.2702 21 24.4999V38.4999C21 38.9461 21.0974 39.3694 21.272 39.75H9.98594C7.13532 39.75 5.1996 36.8532 6.29033 34.2195L10.4317 24.2196C11.0508 22.7247 12.5095 21.75 14.1274 21.7501L15.1817 21.7501H21.7045L22.7988 21.7501Z" fill="#64748B"/>
<path fill-rule="evenodd" clip-rule="evenodd" d="M26 25H44C44.5523 25 45 25.4477 45 26V37C45 37.5523 44.5523 38 44 38H26C25.4477 38 25 37.5523 25 37V26C25 25.4477 25.4477 25 26 25ZM23 26C23 24.3431 24.3431 23 26 23H44C45.6569 23 47 24.3431 47 26V37C47 38.6569 45.6569 40 44 40H26C24.3431 40 23 38.6569 23 37V26ZM32.2727 34.0507V28.9525C32.2727 28.3975 32.8834 28.045 33.3839 28.3111L38.1764 30.8599C38.6975 31.1371 38.6976 31.8654 38.1765 32.1426L33.3839 34.692C32.8835 34.9582 32.2727 34.6057 32.2727 34.0507Z" fill="#CFD8DC"/>
</svg>
