<svg width="48" height="48" viewBox="0 0 48 48" fill="none" xmlns="http://www.w3.org/2000/svg">
<path fill-rule="evenodd" clip-rule="evenodd" d="M10 8.25003C6.82436 8.25003 4.25 10.8244 4.25 14V34C4.25 37.1757 6.82436 39.75 10 39.75H23V36.25H10C8.75736 36.25 7.75 35.2427 7.75 34V14C7.75 12.7574 8.75736 11.75 10 11.75H15.5678C16.0887 11.75 16.5934 11.9308 16.9959 12.2614L21.7825 16.1932C22.8111 17.0382 24.1011 17.5 25.4322 17.5H38C38.9797 17.5 39.8131 18.1261 40.122 19H43.7015C43.334 16.1788 40.9214 14 38 14H25.4322C24.9113 14 24.4066 13.8193 24.0041 13.4887L19.2175 9.55685C18.1889 8.7119 16.8989 8.25003 15.5678 8.25003H10Z" fill="#64748B"/>
<path fill-rule="evenodd" clip-rule="evenodd" d="M39.25 21.75L26 35V39.75H9.98618C7.13556 39.75 5.19985 36.8532 6.29057 34.2195L10.4319 24.2196C11.051 22.7247 12.5097 21.75 14.1277 21.7501L15.182 21.7501H21.7047L39.25 21.75Z" fill="#64748B"/>
<path fill-rule="evenodd" clip-rule="evenodd" d="M28 37.0422V41H31.9578L43.6307 29.3271L39.6729 25.3693L28 37.0422ZM46.6914 26.2664C46.7892 26.1688 46.8668 26.0528 46.9198 25.9252C46.9727 25.7975 47 25.6606 47 25.5224C47 25.3842 46.9727 25.2473 46.9198 25.1196C46.8668 24.9919 46.7892 24.876 46.6914 24.7783L44.2217 22.3086C44.124 22.2108 44.0081 22.1332 43.8804 22.0802C43.7527 22.0273 43.6158 22 43.4776 22C43.3394 22 43.2025 22.0273 43.0748 22.0802C42.9472 22.1332 42.8312 22.2108 42.7336 22.3086L40.8022 24.2401L44.7599 28.1978L46.6914 26.2664Z" fill="#CFD8DC"/>
</svg>
