<svg width="48" height="48" viewBox="0 0 48 48" fill="none" xmlns="http://www.w3.org/2000/svg">
<path fill-rule="evenodd" clip-rule="evenodd" d="M10 8.25003C6.82436 8.25003 4.25 10.8244 4.25 14V34C4.25 37.1757 6.82436 39.75 10 39.75H24V36.25H10C8.75736 36.25 7.75 35.2427 7.75 34V14C7.75 12.7574 8.75736 11.75 10 11.75H15.5678C16.0887 11.75 16.5934 11.9308 16.9959 12.2614L21.7825 16.1932C22.8111 17.0382 24.1011 17.5 25.4322 17.5H38C39.2426 17.5 40.25 18.5074 40.25 19.75V20H43.75V19.75C43.75 16.5744 41.1756 14 38 14H25.4322C24.9113 14 24.4066 13.8193 24.0041 13.4887L19.2175 9.55685C18.1889 8.7119 16.8989 8.25003 15.5678 8.25003H10Z" fill="#64748B"/>
<path fill-rule="evenodd" clip-rule="evenodd" d="M35.8692 21.75L32.551 25.4592L29.8056 23.1792L23.6001 27.0374L25.8364 29.4658L27.3332 30.9959L27.4659 31.1436L24.0392 34.9741L29.4808 39.75H9.98618C7.13556 39.75 5.19985 36.8532 6.29057 34.2195L10.4319 24.2196C11.051 22.7247 12.5097 21.75 14.1277 21.7501L15.182 21.7501H21.7047L35.8692 21.75ZM29.572 39.75L32.4909 36.827L34.9485 39.75H29.572Z" fill="#64748B"/>
<path d="M45.1453 25.1668C45.3138 25.1663 45.4787 25.2117 45.6194 25.2974L40.4808 22.1306C40.34 22.0449 40.1751 21.9995 40.0067 22C39.884 21.9998 39.7625 22.0245 39.6512 22.0724C39.5398 22.1202 39.441 22.1901 39.3618 22.277L33.907 28.1474L30.7931 31.4962L27 35.577L30.4173 37.952L33.907 34.8527L37.679 31.5L44.4963 25.4438L44.5559 25.3882C44.6336 25.3172 44.7256 25.2611 44.8267 25.2231C44.9279 25.1851 45.0362 25.166 45.1453 25.1668Z" fill="#4E8CD8"/>
<path d="M40.4936 40.8696L45.6194 37.7028C45.4787 37.7885 45.3138 37.8339 45.1453 37.8334C45.0362 37.8343 44.9279 37.8151 44.8267 37.7771C44.7256 37.7391 44.6336 37.683 44.5559 37.612L44.4963 37.5565L37.679 31.5L33.907 28.1474L30.4173 25.0482L27 27.4191L30.7931 31.4962L33.907 34.8527L39.3705 40.7271C39.5078 40.8722 39.697 40.9664 39.9034 40.9926C40.1097 41.0188 40.3193 40.9751 40.4936 40.8696Z" fill="#60A5FA"/>
<path d="M46 25.9581V37.0416C46.0001 37.1723 45.9655 37.3009 45.8991 37.4162C45.8328 37.5314 45.7365 37.6301 45.6194 37.7028L40.4936 40.8696C40.6109 40.7969 40.707 40.6981 40.7733 40.5828C40.8396 40.4675 40.8742 40.3388 40.8741 40.2081V22.7916C40.8723 22.66 40.8354 22.5308 40.7669 22.4155C40.6983 22.3002 40.5999 22.2024 40.4808 22.1306L45.6194 25.2974C45.7362 25.3704 45.8322 25.4686 45.8986 25.5838C45.9648 25.699 45.9997 25.8275 46 25.9581Z" fill="#87BAF9"/>
<path d="M46 25.9581V37.0416C46.0001 37.1723 45.9655 37.3009 45.8991 37.4162C45.8328 37.5314 45.7365 37.6301 45.6194 37.7028L40.4936 40.8696C40.6109 40.7969 40.707 40.6981 40.7733 40.5828C40.8396 40.4675 40.8742 40.3388 40.8741 40.2081V22.7916C40.8723 22.66 40.8354 22.5308 40.7669 22.4155C40.6983 22.3002 40.5999 22.2024 40.4808 22.1306L45.6194 25.2974C45.7362 25.3704 45.8322 25.4686 45.8986 25.5838C45.9648 25.699 45.9997 25.8275 46 25.9581Z" fill="#60A5FA"/>
</svg>
