<svg width="48" height="48" viewBox="0 0 48 48" fill="none" xmlns="http://www.w3.org/2000/svg">
<path fill-rule="evenodd" clip-rule="evenodd" d="M10 8.5C6.82436 8.5 4.25 11.0744 4.25 14.25V34.25C4.25 37.4256 6.82436 40 10 40H24.35V36.5H10C8.75736 36.5 7.75 35.4926 7.75 34.25V14.25C7.75 13.0074 8.75736 12 10 12H15.5678C16.0887 12 16.5934 12.1807 16.9959 12.5114L21.7825 16.4432C22.8111 17.2881 24.1011 17.75 25.4322 17.75H38C39.2426 17.75 40.25 18.7574 40.25 20V20.25H43.75V20C43.75 16.8244 41.1756 14.25 38 14.25H25.4322C24.9113 14.25 24.4066 14.0693 24.0041 13.7386L19.2175 9.80682C18.1889 8.96187 16.8989 8.5 15.5678 8.5H10Z" fill="#64748B"/>
<path fill-rule="evenodd" clip-rule="evenodd" d="M25.272 22C25.0974 22.3805 25 22.8039 25 23.2499V38.7499C25 39.196 25.0974 39.6194 25.272 39.9999H9.986C7.13538 39.9999 5.19966 37.1031 6.29039 34.4694L10.4318 24.4695C11.0508 22.9746 12.5095 21.9999 14.1275 22L15.1818 22H21.7045L25.272 22Z" fill="#64748B"/>
<path d="M31.4444 33.3222L35.2934 39.9889H27.5954L31.4444 33.3222Z" fill="#C084FC"/>
<path d="M47 36.6556C47 39.1102 45.0102 41.1 42.5556 41.1C40.101 41.1 38.1111 39.1102 38.1111 36.6556C38.1111 34.201 40.101 32.2111 42.5556 32.2111C45.0102 32.2111 47 34.201 47 36.6556Z" fill="#60A5FA"/>
<path d="M27 23.3222C27 22.0949 27.9949 21.1 29.2222 21.1H33.6667C34.894 21.1 35.8889 22.0949 35.8889 23.3222V27.7667C35.8889 28.994 34.894 29.9889 33.6667 29.9889H29.2222C27.9949 29.9889 27 28.994 27 27.7667V23.3222Z" fill="#0D9488"/>
<path d="M41.0168 23.0363C41.5454 21.6078 43.5658 21.6078 44.0943 23.0363C44.2605 23.4854 44.6146 23.8395 45.0637 24.0057C46.4922 24.5342 46.4922 26.5546 45.0637 27.0832C44.6146 27.2494 44.2605 27.6035 44.0943 28.0526C43.5658 29.4811 41.5454 29.4811 41.0168 28.0526C40.8506 27.6035 40.4965 27.2494 40.0474 27.0832C38.6189 26.5546 38.6189 24.5342 40.0474 24.0057C40.4965 23.8395 40.8506 23.4854 41.0168 23.0363Z" fill="#F472B6"/>
</svg>
