<svg width="48" height="48" viewBox="0 0 48 48" fill="none" xmlns="http://www.w3.org/2000/svg">
<path fill-rule="evenodd" clip-rule="evenodd" d="M10 8.25C6.82436 8.25 4.25 10.8244 4.25 14V34C4.25 37.1756 6.82436 39.75 10 39.75H24V36.25H10C8.75736 36.25 7.75 35.2426 7.75 34V14C7.75 12.7574 8.75736 11.75 10 11.75H15.5678C16.0887 11.75 16.5934 11.9307 16.9959 12.2614L21.7825 16.1932C22.8111 17.0381 24.1011 17.5 25.4322 17.5H38C38.9797 17.5 39.8131 18.1261 40.122 19H43.7015C43.334 16.1787 40.9214 14 38 14H25.4322C24.9113 14 24.4066 13.8193 24.0041 13.4886L19.2175 9.55682C18.1889 8.71187 16.8989 8.25 15.5678 8.25H10Z" fill="#64748B"/>
<path fill-rule="evenodd" clip-rule="evenodd" d="M21.7045 21.7501L23.8751 21.7501L24 22H23.9999L29.1414 32.2829L25.1853 39.75H9.98594C7.13532 39.75 5.1996 36.8532 6.29033 34.2195L10.4317 24.2196C11.0508 22.7247 12.5095 21.75 14.1274 21.7501L15.1817 21.7501H21.7045Z" fill="#64748B"/>
<path d="M27 40.9888L34.6 26.75L36.5 30.2232V33.875L32.7241 40.9888H27ZM46 41L38.4 26.7612L36.5 30.2343V33.8862L40.2639 41H46Z" fill="#41B883"/>
<path d="M27 22L31.75 31.5L34.6 25.8095L32.7 22H27ZM46 22L41.25 31.5L38.4 25.8095L40.3 22H46Z" fill="#417A92"/>
</svg>
