<svg width="48" height="48" viewBox="0 0 48 48" fill="none" xmlns="http://www.w3.org/2000/svg">
<path fill-rule="evenodd" clip-rule="evenodd" d="M10 8.25C6.82436 8.25 4.25 10.8244 4.25 14V34C4.25 37.1756 6.82436 39.75 10 39.75H24V36.25H10C8.75736 36.25 7.75 35.2426 7.75 34V14C7.75 12.7574 8.75736 11.75 10 11.75H15.5678C16.0887 11.75 16.5934 11.9307 16.9959 12.2614L21.7825 16.1932C22.8111 17.0381 24.1011 17.5 25.4322 17.5H38C39.1922 17.5 40.1679 18.4273 40.2451 19.6H43.7481C43.6685 16.4937 41.1255 14 38 14H25.4322C24.9113 14 24.4066 13.8193 24.0041 13.4886L19.2175 9.55682C18.1889 8.71187 16.8989 8.25 15.5678 8.25H10Z" fill="#64748B"/>
<path fill-rule="evenodd" clip-rule="evenodd" d="M32.2005 21.7501L21.7045 21.7501H15.1818L14.1275 21.7501C12.5095 21.75 11.0508 22.7247 10.4318 24.2196L6.29039 34.2195C5.19966 36.8532 7.13538 39.75 9.986 39.75H28.0347C26.7631 38.4566 26 36.8026 26 35C26 32.3339 27.6693 29.9928 30.1845 28.6628C30.0639 28.1298 30 27.5729 30 27C30 24.9093 30.8511 23.0327 32.2005 21.7501Z" fill="#64748B"/>
<path d="M41.165 34.6689C41.8662 34.5958 42.398 33.988 42.3738 33.2585C42.3497 32.529 41.7453 31.9452 41.0199 31.9452H40.9716C40.2219 31.9697 39.6416 32.6019 39.666 33.3556C39.6901 33.7205 39.8352 34.0365 40.0527 34.2555C39.2308 35.8846 37.9734 37.076 36.0875 38.073C34.806 38.7539 33.4763 38.9971 32.1465 38.827C31.0586 38.6811 30.2123 38.1946 29.6803 37.3921C28.9066 36.2007 28.834 34.9119 29.4869 33.6231C29.9463 32.6992 30.6716 32.0183 31.131 31.6777C31.0342 31.3617 30.8891 30.8269 30.8167 30.4378C27.3109 32.991 27.6734 36.4439 28.7374 38.073C29.5352 39.2889 31.1551 40.0427 32.9445 40.0427C33.428 40.0427 33.9115 39.9941 34.395 39.8725C37.4899 39.2646 39.8352 37.4166 41.165 34.6689ZM45.4203 31.6537C43.5829 29.4893 40.8748 28.2979 37.7801 28.2979H37.3932C37.1757 27.8602 36.7161 27.5684 36.2085 27.5684H36.1599C35.4107 27.5927 34.8304 28.2249 34.8545 28.9788C34.8787 29.7083 35.4831 30.2919 36.2085 30.2919H36.2567C36.7887 30.2676 37.2481 29.927 37.4414 29.4651H37.8767C39.7143 29.4651 41.4551 30.0001 43.0268 31.0456C44.2356 31.8481 45.106 32.8937 45.5895 34.1582C46.0006 35.1794 45.9765 36.1764 45.5413 37.0275C44.8642 38.3162 43.728 39.0214 42.2288 39.0214C41.2618 39.0214 40.3429 38.7296 39.8594 38.5107C39.5934 38.7539 39.1099 39.143 38.7712 39.3863C39.8111 39.8725 40.8749 40.14 41.8903 40.14C44.2115 40.14 45.9282 38.8512 46.5809 37.5625C47.2821 36.1521 47.2338 33.7205 45.4203 31.6537ZM33.1378 35.0821C33.162 35.8115 33.7664 36.3951 34.4917 36.3951H34.5403C35.2897 36.3708 35.87 35.7387 35.8457 34.9847C35.8215 34.2553 35.2171 33.6717 34.4917 33.6717H34.4435C34.395 33.6717 34.3225 33.6717 34.2743 33.696C33.2829 32.0426 32.8718 30.2433 33.0169 28.2979C33.1137 26.839 33.5972 25.5745 34.4435 24.5287C35.1447 23.6291 36.4986 23.1914 37.4173 23.1671C39.9803 23.1184 41.0682 26.3282 41.1408 27.617C41.4551 27.6898 41.9871 27.8602 42.3497 27.9819C42.0596 24.0425 39.6416 22 37.3207 22C35.1447 22 33.1378 23.5805 32.3398 25.9148C31.2278 29.0274 31.9531 32.0183 33.307 34.3769C33.1861 34.547 33.1137 34.8146 33.1378 35.0821Z" fill="#8B5CF6" stroke="#8B5CF6" stroke-width="0.25"/>
</svg>
