<svg width="48" height="48" viewBox="0 0 48 48" fill="none" xmlns="http://www.w3.org/2000/svg">
<path fill-rule="evenodd" clip-rule="evenodd" d="M10 8.25003C6.82436 8.25003 4.25 10.8244 4.25 14V34C4.25 37.1757 6.82436 39.75 10 39.75H26V36.25H10C8.75736 36.25 7.75 35.2427 7.75 34V14C7.75 12.7574 8.75736 11.75 10 11.75H15.5678C16.0887 11.75 16.5934 11.9308 16.9959 12.2614L21.7825 16.1932C22.8111 17.0382 24.1011 17.5 25.4322 17.5H38C38.9797 17.5 39.8131 18.1261 40.122 19H43.7015C43.334 16.1788 40.9214 14 38 14H25.4322C24.9113 14 24.4066 13.8193 24.0041 13.4887L19.2175 9.55685C18.1889 8.7119 16.8989 8.25003 15.5678 8.25003H10Z" fill="#64748B"/>
<path fill-rule="evenodd" clip-rule="evenodd" d="M30.0155 21.7501C29.3928 22.2998 29 23.104 29 24V38C29 38.6531 29.2087 39.2575 29.563 39.75H9.98594C7.13532 39.75 5.1996 36.8532 6.29033 34.2195L10.4317 24.2196C11.0508 22.7248 12.5095 21.7501 14.1274 21.7501L15.1817 21.7502H21.7045L30.0155 21.7501Z" fill="#64748B"/>
<path fill-rule="evenodd" clip-rule="evenodd" d="M39.7782 36.0005H33.5564V34H39.7782M42.4449 32.001H33.5564V30.0005H42.4449M42.4449 28.0015H33.5564V26.001H42.4449M44.2231 22H31.7782C31.5445 21.999 31.3128 22.0501 31.0967 22.1503C30.8806 22.2505 30.6842 22.3978 30.5189 22.5838C30.3536 22.7697 30.2226 22.9906 30.1336 23.2338C30.0445 23.4769 29.9991 23.7375 30 24.0005V38.001C30.0004 38.5313 30.1879 39.0398 30.5213 39.4146C30.8547 39.7894 31.3068 40 31.7782 40H44.2218C44.6932 40 45.1453 39.7894 45.4787 39.4146C45.8121 39.0398 45.9996 38.5313 46 38.001V24.0005C46 22.8909 45.2001 22.0015 44.2218 22.0015L44.2231 22Z" fill="#CDDC39"/>
</svg>
