<svg width="48" height="48" viewBox="0 0 48 48" fill="none" xmlns="http://www.w3.org/2000/svg">
<path fill-rule="evenodd" clip-rule="evenodd" d="M10 8.25003C6.82436 8.25003 4.25 10.8244 4.25 14V34C4.25 37.1757 6.82436 39.75 10 39.75H25V36.25H10C8.75736 36.25 7.75 35.2427 7.75 34V14C7.75 12.7574 8.75736 11.75 10 11.75H15.5678C16.0887 11.75 16.5934 11.9308 16.9959 12.2614L21.7825 16.1932C22.8111 17.0382 24.1011 17.5 25.4322 17.5H38C39.2426 17.5 40.25 18.5074 40.25 19.75V20H43.75V19.75C43.75 16.5744 41.1756 14 38 14H25.4322C24.9113 14 24.4066 13.8193 24.0041 13.4887L19.2175 9.55685C18.1889 8.7119 16.8989 8.25003 15.5678 8.25003H10Z" fill="#64748B"/>
<path fill-rule="evenodd" clip-rule="evenodd" d="M27.8217 39.75H9.98594C7.13532 39.75 5.1996 36.8532 6.29033 34.2195L10.4317 24.2196C11.0508 22.7247 12.5095 21.75 14.1274 21.7501L15.1817 21.7501H21.7045L33.1685 21.7501L33.3571 22.2502C32.7437 22.5607 32.1674 22.9719 31.6437 23.4725L29.1183 22.2256C29.0057 22.1713 28.8809 22.1692 28.7672 22.2196C28.6534 22.2701 28.5585 22.3698 28.5 22.5L25.0697 27.3953C25.0078 27.5241 24.9861 27.6762 25.0087 27.8231C25.0314 27.9701 25.0968 28.1019 25.1928 28.1938L27.3306 30.2278C27.2906 30.6517 27.2599 31.0642 27.2599 31.4766C27.2599 31.8891 27.2906 32.2865 27.3306 32.6857L25.1928 34.7557C25.0968 34.8476 25.0314 34.9794 25.0087 35.1264C24.9861 35.2733 25.0078 35.4254 25.0697 35.5542L27.8217 39.75Z" fill="#64748B"/>
<path fill-rule="evenodd" clip-rule="evenodd" d="M39.4248 31.5C39.4248 31.7435 39.3749 31.9846 39.2782 32.2096C39.1814 32.4345 39.0396 32.6389 38.8608 32.8111C38.682 32.9833 38.4697 33.1199 38.2361 33.213C38.0025 33.3062 37.7521 33.3542 37.4992 33.3542C36.9888 33.3538 36.4994 33.1582 36.1387 32.8106C35.7779 32.4629 35.5752 31.9915 35.5752 31.5C35.5752 31.0085 35.7779 30.5371 36.1387 30.1894C36.4994 29.8418 36.9888 29.6462 37.4992 29.6458C38.0099 29.6458 38.4997 29.8412 38.8608 30.1889C39.2219 30.5366 39.4248 31.0082 39.4248 31.5ZM46.0436 26.7485C45.6254 26.0556 45.1177 25.4164 44.5328 24.8463L42.3067 26.0845C41.6209 25.5196 40.8338 25.08 39.9841 24.7875C39.2413 25.505 38.6328 26.3406 38.1855 27.2577C40.6624 27.0951 43.2196 27.9588 45.5952 29.7449L46.9952 28.9664C46.7765 28.1918 46.4568 27.4471 46.0436 26.75V26.7485ZM46.0436 36.25C46.4582 35.5541 46.7795 34.8104 47 34.0367L44.7755 32.7986C44.9405 31.9444 44.9421 31.0685 44.7803 30.2138C43.7634 29.9536 42.7073 29.8646 41.6589 29.9507C43.0428 31.9349 43.5459 34.4995 43.1264 37.3721L44.5264 38.1506C45.1134 37.5813 45.6233 36.9427 46.0436 36.25ZM37.5008 41C38.3335 40.9975 39.1625 40.8935 39.968 40.6905V38.2172C40.8194 37.9276 41.6087 37.4907 42.297 36.9279C42.023 35.9497 41.5755 35.0245 40.9742 34.1931C39.8812 36.3398 37.8255 38.0407 35.032 39.1288V40.6858C35.8378 40.8905 36.6674 40.9961 37.5008 41ZM28.9563 36.25C29.375 36.9435 29.8832 37.5832 30.4688 38.1537L32.6933 36.9155C33.3877 37.4882 34.1753 37.9246 35.0175 38.2125C35.7597 37.4949 36.3677 36.6592 36.8145 35.7423C34.3392 35.9049 31.7804 35.0412 29.4048 33.2551L28.0064 34.0336C28.2246 34.8081 28.5438 35.5528 28.9563 36.25ZM28.9563 26.75C28.5418 27.4459 28.2205 28.1896 28 28.9633L30.2261 30.2014C30.0612 31.0556 30.0595 31.9315 30.2213 32.7862C31.2677 33.0493 32.314 33.1375 33.3427 33.0493C31.9572 31.0651 31.4557 28.5005 31.8752 25.6263L30.4736 24.8478C29.8863 25.4181 29.3765 26.0562 28.9563 26.75ZM37.4992 22C36.6665 22.0025 35.8375 22.1065 35.032 22.3095V24.7828C34.1811 25.0725 33.3924 25.5095 32.7046 26.0721C32.9786 27.0503 33.4261 27.9755 34.0274 28.8069C35.1204 26.6602 37.1745 24.9593 39.9696 23.8712V22.3142C39.1633 22.1093 38.3332 22.0038 37.4992 22Z" fill="#8CDBFF"/>
</svg>
