<svg width="48" height="48" viewBox="0 0 48 48" fill="none" xmlns="http://www.w3.org/2000/svg">
<path fill-rule="evenodd" clip-rule="evenodd" d="M10 8.25C6.82439 8.25 4.25003 10.8244 4.25003 14V34C4.25003 37.1756 6.82439 39.75 10 39.75H26V36.25H10C8.75739 36.25 7.75003 35.2426 7.75003 34V14C7.75003 12.7574 8.75739 11.75 10 11.75H15.5678C16.0887 11.75 16.5935 11.9307 16.996 12.2614L21.7825 16.1932C22.8111 17.0381 24.1011 17.5 25.4323 17.5H38C38.9797 17.5 39.8131 18.1261 40.122 19H43.7016C43.334 16.1787 40.9215 14 38 14H25.4323C24.9114 14 24.4066 13.8193 24.0041 13.4886L19.2175 9.55682C18.1889 8.71187 16.899 8.25 15.5678 8.25H10Z" fill="#64748B"/>
<path fill-rule="evenodd" clip-rule="evenodd" d="M26 21.75L21.7045 21.75H15.1818L14.1275 21.75C12.5095 21.7499 11.0508 22.7246 10.4318 24.2195L6.29039 34.2194C5.19966 36.8531 7.13538 39.7499 9.986 39.7499H30.6945C30.6328 39.5102 30.6 39.2589 30.6 38.9999C30.6 38.4524 30.7467 37.9391 31.0029 37.4973C30.7734 37.4858 30.5473 37.4369 30.3345 37.3525C30.089 37.2551 29.866 37.1124 29.6781 36.9326C29.4903 36.7527 29.3413 36.5391 29.2396 36.3041C29.1379 36.0691 29.0856 35.8172 29.0856 35.5628C29.0853 35.2389 29.1683 34.9198 29.3273 34.6339L30.6389 31.1217L27.8391 25.3108H26V21.75ZM40 37.4999H40.0601C40.0407 37.5398 40.0206 37.5794 40 37.6184V37.4999Z" fill="#64748B"/>
<path fill-rule="evenodd" clip-rule="evenodd" d="M43.1997 37.1997C42.1454 37.1997 41.2995 38.0456 41.2995 39.0998C41.2995 39.3494 41.3487 39.5965 41.4442 39.827C41.5397 40.0575 41.6796 40.267 41.8561 40.4435C42.0325 40.6199 42.242 40.7599 42.4725 40.8554C42.7031 40.9508 42.9502 41 43.1997 41C43.4492 41 43.6963 40.9508 43.9268 40.8554C44.1574 40.7599 44.3669 40.6199 44.5433 40.4435C44.7197 40.267 44.8597 40.0575 44.9552 39.827C45.0507 39.5965 45.0998 39.3494 45.0998 39.0998C45.0998 38.0456 44.2446 37.1997 43.1997 37.1997ZM28 22V23.9002H29.9002L33.3211 31.1105L32.0273 33.4383C31.878 33.7188 31.8001 34.0317 31.8003 34.3495C31.8003 34.599 31.8495 34.8461 31.945 35.0766C32.0404 35.3072 32.1804 35.5166 32.3569 35.6931C32.5333 35.8695 32.7428 36.0095 32.9733 36.105C33.2038 36.2005 33.4509 36.2496 33.7005 36.2496H45.0983V34.3495H34.0985C34.0354 34.3495 33.9749 34.3244 33.9303 34.2798C33.8857 34.2352 33.8606 34.1746 33.8606 34.1115C33.859 34.0716 33.8693 34.0321 33.8902 33.998L34.7454 32.4493H41.822C42.1611 32.4484 42.4939 32.3574 42.7863 32.1855C43.0787 32.0137 43.3201 31.7671 43.4858 31.4712L46.8849 25.3245C46.9553 25.1759 46.9945 25.0145 47 24.8502C47.0002 24.7254 46.9758 24.6018 46.9281 24.4864C46.8804 24.3711 46.8104 24.2662 46.7222 24.178C46.6339 24.0897 46.5291 24.0197 46.4137 23.9721C46.2984 23.9244 46.1747 23.9 46.0499 23.9002H31.9993L31.1068 22M33.7005 37.1997C32.6447 37.1997 31.8003 38.0456 31.8003 39.0998C31.8003 39.3494 31.8495 39.5965 31.945 39.827C32.0404 40.0575 32.1804 40.267 32.3569 40.4435C32.5333 40.6199 32.7428 40.7599 32.9733 40.8554C33.2038 40.9508 33.4509 41 33.7005 41C33.95 41 34.1971 40.9508 34.4276 40.8554C34.6582 40.7599 34.8676 40.6199 35.0441 40.4435C35.2205 40.267 35.3605 40.0575 35.456 39.827C35.5515 39.5965 35.6006 39.3494 35.6006 39.0998C35.6006 38.0456 34.7454 37.1997 33.7005 37.1997Z" fill="#CFD8DC"/>
</svg>
