<svg width="48" height="48" viewBox="0 0 48 48" fill="none" xmlns="http://www.w3.org/2000/svg">
<path fill-rule="evenodd" clip-rule="evenodd" d="M10 8.25003C6.82439 8.25003 4.25003 10.8244 4.25003 14V34C4.25003 37.1757 6.82439 39.75 10 39.75H26V36.25H10C8.75739 36.25 7.75003 35.2427 7.75003 34V14C7.75003 12.7574 8.75739 11.75 10 11.75H15.5678C16.0887 11.75 16.5935 11.9308 16.996 12.2614L21.7825 16.1932C22.8111 17.0382 24.1011 17.5 25.4323 17.5H38C38.9797 17.5 39.8131 18.1261 40.122 19H43.7016C43.334 16.1788 40.9215 14 38 14H25.4323C24.9114 14 24.4066 13.8193 24.0041 13.4887L19.2175 9.55685C18.1889 8.7119 16.899 8.25003 15.5678 8.25003H10Z" fill="#64748B"/>
<path fill-rule="evenodd" clip-rule="evenodd" d="M32.4022 21.7501L21.7045 21.7501H15.1818L14.1275 21.7501C12.5095 21.75 11.0508 22.7247 10.4318 24.2196L6.29039 34.2195C5.19966 36.8532 7.13538 39.75 9.986 39.75H30.224C27.9403 37.7344 26.5 34.7854 26.5 31.5C26.5 27.2646 28.8937 23.5882 32.4022 21.7501Z" fill="#64748B"/>
<path fill-rule="evenodd" clip-rule="evenodd" d="M38.1 39.1005C40.1154 39.1005 42.0482 38.2998 43.4733 36.8746C44.8984 35.4494 45.699 33.5164 45.699 31.5008C45.699 29.4852 44.8984 27.5522 43.4733 26.127C42.0482 24.7018 40.1154 23.9011 38.1 23.9011C36.0849 23.9011 34.1523 24.7016 32.7272 26.1264C31.3022 27.5513 30.5014 29.4839 30.501 31.4992C30.5008 32.4973 30.6972 33.4857 31.0789 34.408C31.4607 35.3302 32.0204 36.1682 32.7261 36.874C33.4318 37.5799 34.2695 38.1398 35.1916 38.5218C36.1137 38.9039 37.1019 39.1005 38.1 39.1005ZM38.1 22C40.6196 22 43.0359 23.001 44.8175 24.7827C46.5991 26.5645 47.6 28.981 47.6 31.5008C47.5996 34.0203 46.5985 36.4364 44.817 38.2178C43.0354 39.9992 40.6193 41 38.1 41C35.5811 40.9979 33.166 39.9962 31.3848 38.2149C29.6037 36.4337 28.6021 34.0183 28.6 31.4992C28.6004 28.9797 29.6015 26.5636 31.3831 24.7822C33.1646 23.0008 35.5807 22 38.1 22ZM38.5756 26.7504V31.737L42.85 34.2751L42.1365 35.4419L37.1503 32.4506V26.7504H38.5756Z" fill="#8CDBFF" stroke="#8CDBFF" stroke-width="0.271" stroke-linejoin="round"/>
</svg>
