<svg width="48" height="48" viewBox="0 0 48 48" fill="none" xmlns="http://www.w3.org/2000/svg">
<path fill-rule="evenodd" clip-rule="evenodd" d="M10 8.25C6.82436 8.25 4.25 10.8244 4.25 14V34C4.25 37.1756 6.82436 39.75 10 39.75H22V36.25H10C8.75736 36.25 7.75 35.2426 7.75 34V14C7.75 12.7574 8.75736 11.75 10 11.75H15.5678C16.0887 11.75 16.5934 11.9307 16.9959 12.2614L21.7825 16.1932C22.8111 17.0381 24.1011 17.5 25.4322 17.5H38C39.2426 17.5 40.25 18.5074 40.25 19.75V20H43.75V19.75C43.75 16.5744 41.1756 14 38 14H25.4322C24.9113 14 24.4066 13.8193 24.0041 13.4886L19.2175 9.55682C18.1889 8.71187 16.8989 8.25 15.5678 8.25H10Z" fill="#64748B"/>
<path fill-rule="evenodd" clip-rule="evenodd" d="M14.1274 21.7501C12.5095 21.75 11.0508 22.7247 10.4317 24.2196L6.29033 34.2195C5.1996 36.8532 7.13532 39.75 9.98594 39.75H36.4629C37.3215 39.75 38.1311 39.4762 38.7947 39H30C25.5817 39 22 35.4183 22 31C22 26.5817 25.5817 23 30 23H42C42.1639 23 42.3266 23.0049 42.488 23.0146C41.7681 22.2442 40.7415 21.75 39.569 21.75L21.7045 21.7501H15.1817L14.1274 21.7501Z" fill="#64748B"/>
<path fill-rule="evenodd" clip-rule="evenodd" d="M45.8116 26.1448C47.2128 27.4574 48 29.2375 48 31.0936C48 32.9498 47.2128 34.7299 45.8116 36.0424C44.8425 36.9489 43.6265 37.5891 42.2959 37.8933C40.9653 38.1976 39.5711 38.1541 38.265 37.7677C36.7902 38.1992 35.2098 38.1992 33.735 37.7677C32.4289 38.1541 31.0347 38.1976 29.7041 37.8933C28.3735 37.5891 27.1575 36.9489 26.1884 36.0424C24.7872 34.7299 24 32.9498 24 31.0936C24 29.2375 24.7872 27.4574 26.1884 26.1448C27.1575 25.2383 28.3735 24.5981 29.7041 24.2939C31.0347 23.9897 32.4289 24.0332 33.735 24.4195C35.2092 23.9884 36.7887 23.9884 38.2629 24.4195C39.5692 24.0328 40.9639 23.9891 42.2949 24.2933C43.6259 24.5975 44.8423 25.2379 45.8116 26.1448ZM30.7163 36.0424C29.3151 34.7299 28.5279 32.9498 28.5279 31.0936C28.5279 29.2375 29.3151 27.4574 30.7163 26.1448C29.6072 26.2935 28.5502 26.76 27.6955 27.5585C26.695 28.4959 26.1329 29.7671 26.1329 31.0926C26.1329 32.4181 26.695 33.6893 27.6955 34.6267C28.5481 35.4273 29.605 35.8937 30.7163 36.0424ZM35.2443 36.0424C33.843 34.7299 33.0558 32.9498 33.0558 31.0936C33.0558 29.2375 33.843 27.4574 35.2443 26.1448C34.1351 26.2935 33.0782 26.76 32.2256 27.5585C31.2251 28.4959 30.663 29.7671 30.663 31.0926C30.663 32.4181 31.2251 33.6893 32.2256 34.6267C33.0782 35.4273 34.1351 35.8937 35.2443 36.0424ZM44.3023 27.5585C43.4875 26.7917 42.4275 26.2952 41.2837 26.1448C42.6849 27.4574 43.4721 29.2375 43.4721 31.0936C43.4721 32.9498 42.6849 34.7299 41.2837 36.0424C42.3928 35.8937 43.4498 35.4273 44.3023 34.6288C45.3028 33.6914 45.8649 32.4201 45.8649 31.0946C45.8649 29.7692 45.3028 28.4979 44.3023 27.5605M36.7557 27.5605C35.7552 28.4979 35.1931 29.7692 35.1931 31.0946C35.1931 32.4201 35.7552 33.6914 36.7557 34.6288C37.2059 35.0525 37.7127 35.3845 38.2629 35.6187C38.8259 35.3771 39.3373 35.0417 39.7722 34.6288C40.7727 33.6914 41.3348 32.4201 41.3348 31.0946C41.3348 29.7692 40.7727 28.4979 39.7722 27.5605C39.3375 27.1469 38.826 26.8108 38.2629 26.5685C37.6999 26.8101 37.1885 27.1456 36.7536 27.5585L36.7557 27.5605Z" fill="#FF7C7C"/>
</svg>
