<svg width="48" height="48" viewBox="0 0 48 48" fill="none" xmlns="http://www.w3.org/2000/svg">
<g clip-path="url(#clip0_3404_2950)">
<path fill-rule="evenodd" clip-rule="evenodd" d="M10 8.25C6.82439 8.25 4.25003 10.8244 4.25003 14V34C4.25003 37.1756 6.82439 39.75 10 39.75H28V36.25H10C8.75739 36.25 7.75003 35.2426 7.75003 34V14C7.75003 12.7574 8.75739 11.75 10 11.75H15.5678C16.0887 11.75 16.5935 11.9307 16.996 12.2614L21.7825 16.1932C22.8111 17.0381 24.1011 17.5 25.4323 17.5H38C38.9797 17.5 39.8131 18.1261 40.122 19H43.7016C43.334 16.1787 40.9215 14 38 14H25.4323C24.9114 14 24.4066 13.8193 24.0041 13.4886L19.2175 9.55682C18.1889 8.71187 16.899 8.25 15.5678 8.25H10Z" fill="#64748B"/>
<path fill-rule="evenodd" clip-rule="evenodd" d="M40.4059 21.8366C40.1374 21.7799 39.8576 21.75 39.569 21.75L21.7045 21.7501H15.1818L14.1275 21.7501C12.5095 21.75 11.0508 22.7247 10.4318 24.2196L6.29039 34.2195C5.19966 36.8532 7.13538 39.75 9.986 39.75H30.2832L30.2715 39.3865L30 34.0686L40.4059 21.8366ZM41.8064 32.0316L41.8209 31.9849L41.783 32.0316H41.8064Z" fill="#64748B"/>
<path d="M40.7065 34.6439L48 34.6439V38L43 38H38L40.7065 34.6439Z" fill="#FF7C7C"/>
<path d="M41.696 22.3649C41.8664 22.1604 42.1671 22.1253 42.3801 22.285L45.5873 24.6905C45.8131 24.8598 45.8541 25.1824 45.6778 25.4028L35.6 38L32 38L32 34L41.696 22.3649Z" fill="#FF7C7C"/>
</g>
<defs>
<clipPath id="clip0_3404_2950">
<rect width="48" height="48" fill="white"/>
</clipPath>
</defs>
</svg>
