<svg width="48" height="48" viewBox="0 0 48 48" fill="none" xmlns="http://www.w3.org/2000/svg">
<path fill-rule="evenodd" clip-rule="evenodd" d="M10 8.25003C6.82439 8.25003 4.25003 10.8244 4.25003 14V34C4.25003 37.1757 6.82439 39.75 10 39.75H22V36.25H10C8.75739 36.25 7.75003 35.2427 7.75003 34V14C7.75003 12.7574 8.75739 11.75 10 11.75H15.5678C16.0887 11.75 16.5935 11.9308 16.996 12.2614L21.7825 16.1932C22.8111 17.0382 24.1011 17.5 25.4323 17.5H38C39.2427 17.5 40.25 18.5074 40.25 19.75V20H43.75V19.75C43.75 16.5744 41.1757 14 38 14H25.4323C24.9114 14 24.4066 13.8193 24.0041 13.4887L19.2175 9.55685C18.1889 8.7119 16.899 8.25003 15.5678 8.25003H10Z" fill="#64748B"/>
<path fill-rule="evenodd" clip-rule="evenodd" d="M10.4319 24.2196C11.051 22.7247 12.5097 21.75 14.1277 21.7501L15.182 21.7501H21.7047L39.5692 21.75C40.0664 21.75 40.5374 21.8389 40.9699 22H40.0551C40.0545 22 40.0539 22 40.0534 22C40.051 22 40.0486 22 40.0462 22H40L39.9999 22.0001C39.7935 22.0009 39.6052 22.0063 39.4614 22.0205C39.3917 22.0266 39.3204 22.0326 39.2475 22.0387C38.0465 22.1403 36.4598 22.2745 35.7242 23.0625C35.7215 22.3379 35.7117 22.202 35.6792 22.1829C35.6669 22.1746 34.2826 22.177 32.6713 22.1798C31.626 22.1816 30.4851 22.1835 29.5614 22.1829H26.8918C24.3561 22.1862 22.6643 22.1784 21.5961 22.1735C20.4936 22.1684 20.0553 22.1664 20.039 22.1829C20.0084 22.2153 19.9999 22.5332 19.9999 23.7211L20.039 28.3579L22.383 28.3664L24.7253 28.375L24.688 31.9196C24.688 35.5976 24.6982 38.6363 24.7083 38.6739L24.7253 38.7423L26.8986 38.7902C28.4233 38.7902 30.964 38.7679 30.981 38.7218C30.9812 38.7212 30.9815 38.7207 30.9817 38.7201C30.9907 38.6967 30.981 38.666 30.981 35.0627V28.3579L33.2351 28.3497C34.1659 30.2091 35.0588 30.7492 35.8607 31.2342C35.9752 31.3034 36.0878 31.3716 36.1985 31.4423C36.4256 31.5888 36.4645 31.6047 36.458 31.5928C36.5793 31.7114 37.0081 32.1514 37.0081 32.4507C36.4263 32.625 35.3626 31.5625 35.3626 31.5625C35.3202 31.5625 32.7107 33.145 32.3308 33.3894C32.2036 33.4715 32.1714 33.5091 32.1714 33.574C32.1714 33.7107 33.2351 35.8125 34.2989 36.875C35.1 37.8188 37.4729 38.6789 38.921 38.9058C38.2352 39.4399 37.3769 39.75 36.4632 39.75H9.98618C7.13556 39.75 5.19985 36.8532 6.29057 34.2195L10.4319 24.2196ZM36.458 31.5928C36.4534 31.5845 36.4263 31.5625 36.4263 31.5625C36.4263 31.5625 36.438 31.5733 36.458 31.5928ZM35.7242 23.0625V23.0626V23.0625ZM35.7242 23.0626L35.7201 24.125L35.725 23.7279C35.725 23.464 35.7248 23.2447 35.7242 23.0626Z" fill="#64748B"/>
<path fill-rule="evenodd" clip-rule="evenodd" d="M40.4097 24C40.196 24 39.9999 24.0039 39.8532 24.0157C38.7068 24.0967 37.6369 24.5071 36.9034 25.1462C36.5367 25.4664 36.2035 25.9251 36.0425 26.3355C35.8623 26.7877 35.8639 26.7799 35.8639 27.4883C35.8639 28.394 35.9213 28.6175 36.2976 29.22C36.6755 29.8264 37.2511 30.3204 38.0834 30.753C38.4469 30.9438 39.3796 31.3242 40.1402 31.5947C41.7984 32.1829 42.3231 32.4547 42.5654 32.8507L42.6659 33.0141V33.3565C42.6659 33.6872 42.6659 33.7041 42.5829 33.8401C42.3964 34.155 41.9547 34.4138 41.3887 34.538C41.175 34.585 41.0778 34.5916 40.5994 34.5916C40.1323 34.5916 40.019 34.5837 39.8038 34.5393C39.4729 34.4767 39.1572 34.3694 38.8694 34.2217C38.5665 34.0583 37.9734 33.5682 37.7326 33.2807C37.6258 33.1552 37.5189 33.052 37.495 33.052C37.4551 33.052 35.4095 34.01 35.0523 34.1969C34.9327 34.2596 34.9024 34.2884 34.9024 34.338C34.9024 34.4426 35.3808 35.0346 35.7539 35.394C36.5176 36.1259 38.0467 36.7729 39.402 36.9349C39.9377 36.9977 40.8258 37.0186 41.4477 36.982C41.8752 36.9533 42.2979 36.888 42.7089 36.7873C44.3098 36.403 45.4019 35.5849 45.8053 34.4687C45.9735 33.9858 46.0334 33.4819 45.9823 32.9814C45.8707 32.0116 45.5072 31.3255 44.7897 30.7334C44.1232 30.1806 43.2096 29.7375 41.4031 29.088C39.8373 28.526 39.4291 28.3064 39.2027 27.9117C39.0082 27.5706 39.0464 27.1014 39.2904 26.8087C39.5774 26.4675 40.1625 26.2989 40.8163 26.3695C41.4222 26.4349 41.8144 26.6322 42.2003 27.0648C42.3996 27.2883 42.5383 27.4046 42.6037 27.4046C42.6706 27.4046 42.9529 27.2622 43.8282 26.7851C44.7211 26.3002 45.0017 26.1356 45.0209 26.0859C45.0512 26.0088 44.9093 25.8284 44.5011 25.418C43.6799 24.592 42.7153 24.1529 41.4748 24.0431C41.1208 24.0147 40.7653 24.0003 40.4097 24ZM30.5463 24.1398H28.0367C23.1927 24.1451 22.067 24.1516 22.0367 24.1764C22.008 24.2013 22 24.4444 22 25.3527V26.4989L24.2035 26.5054L26.4055 26.512V31.6222C26.4055 34.4347 26.4151 36.7585 26.4246 36.7873L26.4406 36.8395H28.043C29.4765 36.8395 29.6454 36.8382 29.6614 36.8029C29.671 36.7833 29.6774 34.4596 29.6774 31.6392V26.512L31.8809 26.5054L34.0829 26.4989V25.3396C34.0829 24.3346 34.0781 24.1764 34.0398 24.1581C34.0207 24.1477 32.7547 24.1411 30.5479 24.1398H30.5463Z" fill="#8CDBFF"/>
</svg>
