<svg width="48" height="48" viewBox="0 0 48 48" fill="none" xmlns="http://www.w3.org/2000/svg">
<path fill-rule="evenodd" clip-rule="evenodd" d="M10 8.25C6.82436 8.25 4.25 10.8244 4.25 14V34C4.25 37.1756 6.82436 39.75 10 39.75H23V36.25H10C8.75736 36.25 7.75 35.2426 7.75 34V14C7.75 12.7574 8.75736 11.75 10 11.75H15.5678C16.0887 11.75 16.5934 11.9307 16.9959 12.2614L21.7825 16.1932C22.8111 17.0381 24.1011 17.5 25.4322 17.5H38C39.2426 17.5 40.25 18.5074 40.25 19.75V20H43.75V19.75C43.75 16.5744 41.1756 14 38 14H25.4322C24.9113 14 24.4066 13.8193 24.0041 13.4886L19.2175 9.55682C18.1889 8.71187 16.8989 8.25 15.5678 8.25H10Z" fill="#64748B"/>
<path fill-rule="evenodd" clip-rule="evenodd" d="M32.8755 21.7501L21.7045 21.7502H15.1817L14.1274 21.7502C12.5095 21.7501 11.0508 22.7248 10.4317 24.2196L6.29033 34.2196C5.1996 36.8533 7.13532 39.7501 9.98594 39.7501H23.52C23.4691 39.3559 23.5358 38.9379 23.7493 38.5451L32.8755 21.7501ZM39.1918 21.874L39.4089 21.7501L39.1245 21.7501L39.1918 21.874Z" fill="#64748B"/>
<path d="M35.5149 22.5846C35.7825 22.1089 36.4675 22.1089 36.7351 22.5846L45.6632 38.4568C45.9257 38.9234 45.5885 39.5 45.0531 39.5H27.1969C26.6615 39.5 26.3243 38.9234 26.5868 38.4568L35.5149 22.5846Z" fill="#CFD8DC"/>
</svg>
