<svg width="48" height="48" viewBox="0 0 48 48" fill="none" xmlns="http://www.w3.org/2000/svg">
<path fill-rule="evenodd" clip-rule="evenodd" d="M10 8.25C6.82436 8.25 4.25 10.8244 4.25 14V34C4.25 37.1756 6.82436 39.75 10 39.75H26V36.25H10C8.75736 36.25 7.75 35.2426 7.75 34V14C7.75 12.7574 8.75736 11.75 10 11.75H15.5678C16.0887 11.75 16.5934 11.9307 16.9959 12.2614L21.7825 16.1932C22.8111 17.0381 24.1011 17.5 25.4322 17.5H38C38.7361 17.5 39.3897 17.8535 39.8002 18.4H43.5906C42.9833 15.8757 40.7107 14 38 14H25.4322C24.9113 14 24.4066 13.8193 24.0041 13.4886L19.2175 9.55682C18.1889 8.71187 16.8989 8.25 15.5678 8.25H10Z" fill="#64748B"/>
<path fill-rule="evenodd" clip-rule="evenodd" d="M40.7269 23.0679L41.1848 22.0874C40.9527 21.9849 40.7081 21.9038 40.4532 21.8468C40.3839 21.9422 40.3178 22.0349 40.2541 22.1244C39.76 22.818 39.4026 23.3199 38.7072 23.4037C38.6218 23.4118 38.5497 23.4161 38.4933 23.4161C38.4139 23.4161 37.8721 23.4023 37.5406 23.3893C37.4919 23.3872 37.4423 23.385 37.392 23.3827C37.3357 23.3798 37.2974 23.3771 37.2859 23.3747C37.2778 23.3375 37.2799 23.2547 37.2826 23.1525C37.2842 23.0934 37.2859 23.0277 37.2859 22.9606C37.2859 22.5498 37.3509 22.1408 37.4605 21.75L21.7047 21.7501H15.182L14.1277 21.7501C12.5097 21.75 11.051 22.7247 10.4319 24.2196L6.29057 34.2195C5.19985 36.8532 7.13556 39.75 9.98618 39.75H30.7307C30.5708 39.5158 30.4095 39.2707 30.2449 39.0185C29.0032 37.0887 28 34.0907 28 31.2453C28 26.6814 31.0075 23.2355 33.6799 23.2355C34.4477 23.2355 35.4929 23.2883 36.453 23.3368C36.7807 23.3534 37.0985 23.3694 37.392 23.3827C37.4331 23.3848 37.4838 23.387 37.5406 23.3893C37.9157 23.4054 38.2442 23.4161 38.4933 23.4161C38.5681 23.4161 38.6393 23.4119 38.7072 23.4037C39.1394 23.3629 39.9134 23.2261 40.7269 23.0679Z" fill="#64748B"/>
<path d="M46.8632 26.6597C46.735 26.7592 44.4709 28.035 44.4709 30.8717C44.4709 34.1529 47.3519 35.3137 47.4381 35.3424C47.4248 35.4132 46.9804 36.9322 45.9191 38.4799C44.9728 39.8419 43.9845 41.2017 42.481 41.2017C40.9775 41.2017 40.5905 40.3283 38.8549 40.3283C37.1635 40.3283 36.5621 41.2304 35.1868 41.2304C33.8115 41.2304 32.8519 39.9701 31.7486 38.4224C30.4707 36.6049 29.4381 33.7814 29.4381 31.1017C29.4381 26.8034 32.2329 24.5239 34.9834 24.5239C36.4449 24.5239 37.6631 25.4834 38.5807 25.4834C39.4541 25.4834 40.8161 24.4664 42.4788 24.4664C43.1089 24.4664 45.373 24.5239 46.8632 26.6597ZM41.6894 22.6467C42.3771 21.8308 42.8635 20.6988 42.8635 19.5667C42.8635 19.4097 42.8502 19.2506 42.8215 19.1223C41.7027 19.1643 40.3717 19.8674 39.5691 20.7983C38.9389 21.5146 38.3508 22.6467 38.3508 23.7942C38.3508 23.9667 38.3795 24.1391 38.3928 24.1944C38.4635 24.2077 38.5785 24.2232 38.6935 24.2232C39.6973 24.2232 40.9598 23.551 41.6894 22.6467Z" fill="#CFD8DC"/>
</svg>
