<svg width="48" height="48" viewBox="0 0 48 48" fill="none" xmlns="http://www.w3.org/2000/svg">
<path fill-rule="evenodd" clip-rule="evenodd" d="M10 8.25C6.82436 8.25 4.25 10.8244 4.25 14V34C4.25 37.1756 6.82436 39.75 10 39.75H24V36.25H10C8.75736 36.25 7.75 35.2426 7.75 34V14C7.75 12.7574 8.75736 11.75 10 11.75H15.5678C16.0887 11.75 16.5934 11.9307 16.9959 12.2614L21.7825 16.1932C22.8111 17.0381 24.1011 17.5 25.4322 17.5H38C39.2426 17.5 40.25 18.5074 40.25 19.75V22H43.75V19.75C43.75 16.5744 41.1756 14 38 14H25.4322C24.9113 14 24.4066 13.8193 24.0041 13.4886L19.2175 9.55682C18.1889 8.71187 16.8989 8.25 15.5678 8.25H10Z" fill="#64748B"/>
<path fill-rule="evenodd" clip-rule="evenodd" d="M14.1277 21.7501C12.5097 21.75 11.051 22.7247 10.4319 24.2195L6.29057 34.2195C5.19985 36.8532 7.13556 39.75 9.98618 39.75H33.5959C31.8642 39.3876 30.2097 38.6368 28.7392 37.5339C26.5989 35.9287 24.9475 33.6519 24 31C24.9475 28.3481 26.5989 26.0713 28.7392 24.4661C30.8795 22.8609 33.4095 22.0016 36 22C38.5905 22.0016 41.1205 22.8609 43.2608 24.4661C43.3048 24.4991 43.3486 24.5324 43.3922 24.566C42.8944 22.9709 41.4121 21.75 39.5692 21.75L21.7047 21.7501H15.182L14.1277 21.7501Z" fill="#64748B"/>
<path fill-rule="evenodd" clip-rule="evenodd" d="M36 28.2003C35.2767 28.2003 34.5831 28.4953 34.0716 29.0203C33.5602 29.5454 33.2729 30.2575 33.2729 31C33.2729 31.7425 33.5602 32.4546 34.0716 32.9797C34.5831 33.5047 35.2767 33.7997 36 33.7997C36.7233 33.7997 37.4169 33.5047 37.9284 32.9797C38.4398 32.4546 38.7271 31.7425 38.7271 31C38.7271 30.2575 38.4398 29.5454 37.9284 29.0203C37.4169 28.4953 36.7233 28.2003 36 28.2003ZM36 35.6667C34.7944 35.6667 33.6382 35.175 32.7857 34.2998C31.9332 33.4247 31.4543 32.2377 31.4543 31C31.4543 29.7623 31.9332 28.5753 32.7857 27.7002C33.6382 26.825 34.7944 26.3333 36 26.3333C37.2056 26.3333 38.3618 26.825 39.2143 27.7002C40.0668 28.5753 40.5457 29.7623 40.5457 31C40.5457 32.2377 40.0668 33.4247 39.2143 34.2998C38.3618 35.175 37.2056 35.6667 36 35.6667ZM36 24C33.8413 24.0012 31.7329 24.6696 29.9493 25.9181C28.1657 27.1666 26.7896 28.9374 26 31C26.7896 33.0626 28.1657 34.8334 29.9493 36.0819C31.7329 37.3304 33.8413 37.9988 36 38C38.1587 37.9988 40.2671 37.3304 42.0507 36.0819C43.8343 34.8334 45.2104 33.0626 46 31C45.2104 28.9374 43.8343 27.1666 42.0507 25.9181C40.2671 24.6696 38.1587 24.0012 36 24Z" fill="#8CDBFF"/>
</svg>
