<svg width="48" height="48" viewBox="0 0 48 48" fill="none" xmlns="http://www.w3.org/2000/svg">
<path fill-rule="evenodd" clip-rule="evenodd" d="M10 8.25C6.82436 8.25 4.25 10.8244 4.25 14V34C4.25 37.1756 6.82436 39.75 10 39.75H22V36.25H10C8.75736 36.25 7.75 35.2426 7.75 34V14C7.75 12.7574 8.75736 11.75 10 11.75H15.5678C16.0887 11.75 16.5934 11.9307 16.9959 12.2614L21.7825 16.1932C22.8111 17.0381 24.1011 17.5 25.4322 17.5H38C38.9797 17.5 39.8131 18.1261 40.122 19H43.7015C43.334 16.1787 40.9214 14 38 14H25.4322C24.9113 14 24.4066 13.8193 24.0041 13.4886L19.2175 9.55682C18.1889 8.71187 16.8989 8.25 15.5678 8.25H10Z" fill="#64748B"/>
<path fill-rule="evenodd" clip-rule="evenodd" d="M24.272 21.7501C24.0974 22.1306 24 22.5539 24 23V39C24 39.259 24.0328 39.5103 24.0945 39.75H9.986C7.13538 39.75 5.19966 36.8532 6.29039 34.2195L10.4318 24.2196C11.0508 22.7247 12.5095 21.75 14.1275 21.7501L15.1818 21.7501H21.7045L24.272 21.7501Z" fill="#64748B"/>
<path fill-rule="evenodd" clip-rule="evenodd" d="M26 21C25.4477 21 25 21.4477 25 22V28.8889C25 29.4412 25.4477 29.8889 26 29.8889H32.8889C33.4412 29.8889 33.8889 29.4412 33.8889 28.8889V22C33.8889 21.4477 33.4412 21 32.8889 21H26ZM26 32.1111C25.4477 32.1111 25 32.5588 25 33.1111V40C25 40.5523 25.4477 41 26 41H32.8889C33.4412 41 33.8889 40.5523 33.8889 40V33.1111C33.8889 32.5588 33.4412 32.1111 32.8889 32.1111H26ZM36.1111 22C36.1111 21.4477 36.5588 21 37.1111 21H44C44.5523 21 45 21.4477 45 22V28.8889C45 29.4412 44.5523 29.8889 44 29.8889H37.1111C36.5588 29.8889 36.1111 29.4412 36.1111 28.8889V22ZM37.1111 32.1111C36.5588 32.1111 36.1111 32.5588 36.1111 33.1111V40C36.1111 40.5523 36.5588 41 37.1111 41H44C44.5523 41 45 40.5523 45 40V33.1111C45 32.5588 44.5523 32.1111 44 32.1111H37.1111Z" fill="#F87171"/>
</svg>
