<svg width="48" height="48" viewBox="0 0 48 48" fill="none" xmlns="http://www.w3.org/2000/svg">
<path fill-rule="evenodd" clip-rule="evenodd" d="M10 8.25003C6.82439 8.25003 4.25003 10.8244 4.25003 14V34C4.25003 37.1757 6.82439 39.75 10 39.75H20V36.25H10C8.75739 36.25 7.75003 35.2427 7.75003 34V14C7.75003 12.7574 8.75739 11.75 10 11.75H15.5678C16.0887 11.75 16.5935 11.9308 16.996 12.2614L21.7825 16.1932C22.8111 17.0382 24.1011 17.5 25.4323 17.5H38C38.9797 17.5 39.8131 18.1261 40.122 19H43.7016C43.334 16.1788 40.9215 14 38 14H25.4323C24.9114 14 24.4066 13.8193 24.0041 13.4887L19.2175 9.55685C18.1889 8.7119 16.899 8.25003 15.5678 8.25003H10Z" fill="#64748B"/>
<path fill-rule="evenodd" clip-rule="evenodd" d="M23.0315 21.7501C23.0109 21.8299 23 21.9137 23 21.9999V39.75H9.98594C7.13532 39.75 5.1996 36.8532 6.29033 34.2195L10.4317 24.2196C11.0508 22.7247 12.5095 21.75 14.1274 21.7501L15.1817 21.7501H21.7045L23.0315 21.7501Z" fill="#64748B"/>
<path d="M24 37.7124C24 37.5468 24.1343 37.4124 24.3 37.4124H33.49C33.6557 37.4124 33.79 37.5468 33.79 37.7124V39.6999C33.79 39.8656 33.6557 39.9999 33.49 39.9999H24.3C24.1343 39.9999 24 39.8656 24 39.6999V37.7124Z" fill="#F472B6"/>
<path d="M24 32.5825C24 32.4168 24.1343 32.2825 24.3 32.2825H33.49C33.6557 32.2825 33.79 32.4168 33.79 32.5825V34.57C33.79 34.7357 33.6557 34.87 33.49 34.87H24.3C24.1343 34.87 24 34.7357 24 34.57V32.5825Z" fill="#0EA5E9"/>
<path d="M24 27.4301C24 27.2644 24.1343 27.1301 24.3 27.1301H33.49C33.6557 27.1301 33.79 27.2644 33.79 27.4301V29.4176C33.79 29.5833 33.6557 29.7176 33.49 29.7176H24.3C24.1343 29.7176 24 29.5833 24 29.4176V27.4301Z" fill="#8CDBFF"/>
<path d="M24 22.3C24 22.1343 24.1343 22 24.3 22H33.49C33.6557 22 33.79 22.1343 33.79 22.3V24.2875C33.79 24.4532 33.6557 24.5875 33.49 24.5875H24.3C24.1343 24.5875 24 24.4532 24 24.2875V22.3Z" fill="#0D9488"/>
<path d="M36.1 22.3C36.1 22.1343 36.2343 22 36.4 22H45.7C45.8657 22 46 22.1343 46 22.3V39.7C46 39.8657 45.8657 40 45.7 40H36.4C36.2343 40 36.1 39.8657 36.1 39.7V22.3Z" fill="#C084FC"/>
</svg>
