<svg width="48" height="48" viewBox="0 0 48 48" fill="none" xmlns="http://www.w3.org/2000/svg">
<path fill-rule="evenodd" clip-rule="evenodd" d="M10 8.25003C6.82436 8.25003 4.25 10.8244 4.25 14V34C4.25 37.1757 6.82436 39.75 10 39.75H24V36.25H10C8.75736 36.25 7.75 35.2427 7.75 34V14C7.75 12.7574 8.75736 11.75 10 11.75H15.5678C16.0887 11.75 16.5934 11.9308 16.9959 12.2614L21.7825 16.1932C22.8111 17.0382 24.1011 17.5 25.4322 17.5H38C38.9797 17.5 39.8131 18.1261 40.122 19H43.7015C43.334 16.1788 40.9214 14 38 14H25.4322C24.9113 14 24.4066 13.8193 24.0041 13.4887L19.2175 9.55685C18.1889 8.7119 16.8989 8.25003 15.5678 8.25003H10Z" fill="#64748B"/>
<path fill-rule="evenodd" clip-rule="evenodd" d="M24 21.75L21.7048 21.75H15.182L14.1278 21.75C12.5098 21.7499 11.0511 22.7246 10.432 24.2195L6.29063 34.2194C5.19991 36.8531 7.13562 39.7499 9.98624 39.7499H26.3243L27.1852 32.1999H24V25.9136V25.5999V21.75ZM41 32.1999V34.6287L41.2282 33.8938L41.1623 32.1999H41Z" fill="#64748B"/>
<path fill-rule="evenodd" clip-rule="evenodd" d="M27.1193 22C31.0221 22.5726 34.3676 22.8571 37.156 22.8535C39.8985 22.8499 43.1799 22.5654 47 22V25.1283C43.1799 25.6937 39.8985 25.9782 37.156 25.9818C34.3676 25.9842 31.0221 25.6997 27.1193 25.1283V22Z" fill="#CFD8DC"/>
<path fill-rule="evenodd" clip-rule="evenodd" d="M31.66 24.5168L30.3218 40L33.2366 39.9854L33.6664 25.4268L31.66 24.5168ZM42.1264 24.5023L43.4278 39.9709H40.5482L40.1184 25.4122L42.1264 24.5023Z" fill="#CFD8DC"/>
<path fill-rule="evenodd" clip-rule="evenodd" d="M27 28.455H46.8807V30.2748H27V28.455Z" fill="#CFD8DC"/>
<path fill-rule="evenodd" clip-rule="evenodd" d="M36.1757 24.5023H37.705V28.8244H36.1757V24.5023Z" fill="#CFD8DC"/>
</svg>
