<svg width="48" height="48" viewBox="0 0 48 48" fill="none" xmlns="http://www.w3.org/2000/svg">
<path fill-rule="evenodd" clip-rule="evenodd" d="M10 8.25003C6.82436 8.25003 4.25 10.8244 4.25 14V34C4.25 37.1757 6.82436 39.75 10 39.75H19V36.25H10C8.75736 36.25 7.75 35.2427 7.75 34V14C7.75 12.7574 8.75736 11.75 10 11.75H15.5678C16.0887 11.75 16.5934 11.9308 16.9959 12.2614L21.7825 16.1932C22.8111 17.0382 24.1011 17.5 25.4322 17.5H38C39.2426 17.5 40.25 18.5074 40.25 19.75V20H43.75V19.75C43.75 16.5744 41.1756 14 38 14H25.4322C24.9113 14 24.4066 13.8193 24.0041 13.4887L19.2175 9.55685C18.1889 8.7119 16.8989 8.25003 15.5678 8.25003H10Z" fill="#64748B"/>
<path fill-rule="evenodd" clip-rule="evenodd" d="M20.2001 21.7502C19.4519 22.6241 19 23.7593 19 25V36C19 37.4934 19.6547 38.8339 20.6928 39.75H9.98594C7.13532 39.75 5.1996 36.8532 6.29033 34.2195L10.4317 24.2196C11.0508 22.7248 12.5095 21.7501 14.1274 21.7501L15.1817 21.7502H20.2001Z" fill="#64748B"/>
<path fill-rule="evenodd" clip-rule="evenodd" d="M46 25.9997V23H40.0008C39.2053 23 38.4423 23.316 37.8798 23.8786C37.3173 24.4411 37.0012 25.2041 37.0012 25.9997V28.9993C37.0012 29.7946 37.317 30.5573 37.8792 31.1198C38.4414 31.6823 39.2039 31.9986 39.9992 31.999H43.0004V34.9987H36.9979V37.9983H42.9988C43.7937 37.9979 44.556 37.6819 45.1181 37.1198C45.6802 36.5576 45.9962 35.7953 45.9967 35.0003V31.999C45.9962 31.204 45.6802 30.4417 45.1181 29.8796C44.556 29.3174 43.7937 29.0014 42.9988 29.001H39.9992V25.9997M32.4994 34.9987H29.4998V25.9997H32.4977M32.4977 23H29.4998C28.7043 23 27.9413 23.316 27.3788 23.8786C26.8162 24.4411 26.5002 25.2041 26.5002 25.9997V34.9987C26.5 35.3926 26.5774 35.7827 26.7279 36.1467C26.8784 36.5107 27.0992 36.8415 27.3776 37.1202C27.656 37.3989 27.9865 37.6201 28.3504 37.771C28.7142 37.922 29.1042 37.9998 29.4981 38H32.4994C32.8934 38 33.2836 37.9224 33.6477 37.7715C34.0117 37.6207 34.3424 37.3995 34.621 37.1208C34.8995 36.8421 35.1205 36.5112 35.2711 36.1471C35.4218 35.783 35.4992 35.3927 35.499 34.9987V25.9997C35.499 25.2041 35.1829 24.4411 34.6204 23.8786C34.0579 23.316 33.2932 23 32.4977 23ZM22 38H24.9996V28.9993H22.0017M22.0017 25.9997H25.0012V23H22.0017V25.9997Z" fill="#CFD8DC"/>
</svg>
