<svg width="48" height="48" viewBox="0 0 48 48" fill="none" xmlns="http://www.w3.org/2000/svg">
<path fill-rule="evenodd" clip-rule="evenodd" d="M10 8.25003C6.82436 8.25003 4.25 10.8244 4.25 14V34C4.25 37.1757 6.82436 39.75 10 39.75H22V36.25H10C8.75736 36.25 7.75 35.2427 7.75 34V14C7.75 12.7574 8.75736 11.75 10 11.75H15.5678C16.0887 11.75 16.5934 11.9308 16.9959 12.2614L21.7825 16.1932C22.8111 17.0382 24.1011 17.5 25.4322 17.5H38C39.2426 17.5 40.25 18.5074 40.25 19.75V20H43.75V19.75C43.75 16.5744 41.1756 14 38 14H25.4322C24.9113 14 24.4066 13.8193 24.0041 13.4887L19.2175 9.55685C18.1889 8.7119 16.8989 8.25003 15.5678 8.25003H10Z" fill="#64748B"/>
<path fill-rule="evenodd" clip-rule="evenodd" d="M27.1455 21.7501C24.6782 22.7708 22.7856 24.9317 22.1973 27.5519C22.0123 28.3583 21.9822 28.7194 22.008 29.6938C22.0338 30.6471 22.0854 30.9789 22.3177 31.7307C22.5802 32.5748 22.9372 33.3182 23.5137 34.2127C23.9267 34.8553 24.1547 35.2963 24.2924 35.7204C24.529 36.4302 24.5462 36.5898 24.572 38.1311C24.5892 39.1096 24.615 39.6052 24.6495 39.664C24.6613 39.6851 24.6848 39.7159 24.7142 39.75H9.98624C7.13562 39.75 5.19991 36.8531 6.29063 34.2195L10.432 24.2195C11.0511 22.7247 12.5098 21.75 14.1278 21.75L15.182 21.7501H21.7048L27.1455 21.7501Z" fill="#64748B"/>
<path d="M35.2365 22.0952C33.305 22.6017 32.0686 23.883 32.0818 25.3647C32.095 26.3777 32.469 27.2773 33.4106 28.5473C34.0133 29.3637 35.2233 30.9285 35.2585 30.9399C35.2761 30.9474 35.4433 30.8794 35.6237 30.7925C36.904 30.1801 37.718 29.2125 37.894 28.1012C37.9204 27.9387 37.9424 27.4549 37.9424 27.0316C37.9424 26.1811 37.96 26.1093 38.2064 25.9581C38.4923 25.7805 38.8399 25.8372 39.0687 26.0942L39.1963 26.234L39.2095 27.0127C39.2183 27.4662 39.2051 27.9387 39.1743 28.139C39.0687 28.8685 38.7827 29.5376 38.3164 30.1537C38.0348 30.5241 37.3176 31.1326 36.8204 31.4237C36.376 31.6845 35.5049 32.0965 35.2321 32.1759C35.0033 32.2401 34.7833 32.1985 34.5985 32.0511C34.4841 31.9566 32.5702 29.4657 32.0598 28.74C31.5142 27.969 31.0963 27.1072 30.9159 26.3739C30.7795 25.8183 30.7619 25.0018 30.8763 24.5445C30.9863 24.1211 31.1799 23.6789 31.4087 23.3501C31.5142 23.1951 31.5934 23.0628 31.5846 23.0552C31.5758 23.0477 31.3735 23.0666 31.1359 23.1044C27.726 23.5995 24.9453 25.8825 24.2018 28.7967C24.0126 29.5224 23.9818 29.8475 24.0082 30.7244C24.0346 31.5824 24.0874 31.881 24.325 32.5576C24.5933 33.3173 24.9585 33.9864 25.5481 34.7915C25.9705 35.3698 26.2037 35.7666 26.3445 36.1484C26.5865 36.7872 26.6041 36.9308 26.6305 38.318C26.6481 39.1987 26.6745 39.6447 26.7097 39.6976C26.7361 39.7392 26.8196 39.8224 26.8988 39.8866L27.0352 40H30.2779L30.3967 39.9055C30.6431 39.709 30.6387 39.7279 30.6387 38.1101V36.6171H33.2742L33.3006 39.7165L33.4678 39.8564L33.6306 40H36.8776L36.9964 39.9055C37.212 39.7316 37.234 39.6523 37.2824 38.8207C37.366 37.3542 37.5948 36.2845 38.0964 35.0371C38.3648 34.3643 38.5451 34.0053 39.1171 33.015C39.6055 32.1683 39.6187 32.1532 39.7375 32.1721C39.8035 32.1834 40.0939 32.2288 40.3843 32.2703C41.0882 32.3686 41.3082 32.4291 41.6294 32.6067C41.9638 32.7957 42.2542 33.1208 42.395 33.4685C42.483 33.6991 42.4962 33.7936 42.4962 34.387C42.4962 35.0258 42.4918 35.0523 42.3906 35.177C42.2542 35.3395 41.9462 35.4605 41.7482 35.4302C41.669 35.4151 41.5194 35.3509 41.4138 35.2866C41.1586 35.1279 40.7934 35.0938 40.5735 35.211C40.3183 35.3471 38.5231 36.927 38.4527 37.0782C38.3164 37.3579 38.3912 37.5696 38.7211 37.838C39.8695 38.7754 41.7042 39.1231 43.2221 38.6922C44.1329 38.4352 45.0525 37.7964 45.6728 36.9837C46.0072 36.5528 46.1788 36.2391 46.3768 35.6873L46.5 35.3509V31.4766C46.5 27.9123 46.4956 27.5759 46.4208 27.2924C46.0072 25.6444 44.7753 24.2837 43.0154 23.5239C42.1794 23.1649 41.097 22.9721 39.9223 22.9721H39.4471L38.9631 22.7113C37.9776 22.1897 37.3748 22.0271 36.3364 22.0045C35.6721 21.9931 35.6105 21.9969 35.2365 22.0952ZM42.2058 27.6515C42.505 27.8404 42.5754 28.1315 42.395 28.3885C42.065 28.8383 41.2422 28.6304 41.2422 28.0937C41.2422 27.6779 41.8318 27.4095 42.2058 27.6515Z" fill="#A855F7"/>
</svg>
