<svg width="48" height="48" viewBox="0 0 48 48" fill="none" xmlns="http://www.w3.org/2000/svg">
<path fill-rule="evenodd" clip-rule="evenodd" d="M10 8.25C6.82439 8.25 4.25003 10.8244 4.25003 14V34C4.25003 37.1756 6.82439 39.75 10 39.75H18V36.25H10C8.75739 36.25 7.75003 35.2426 7.75003 34V14C7.75003 12.7574 8.75739 11.75 10 11.75H15.5678C16.0887 11.75 16.5935 11.9307 16.996 12.2614L21.7825 16.1932C22.8111 17.0381 24.1011 17.5 25.4323 17.5H38C39.2427 17.5 40.25 18.5074 40.25 19.75V20H43.75V19.75C43.75 16.5744 41.1757 14 38 14H25.4323C24.9114 14 24.4066 13.8193 24.0041 13.4886L19.2175 9.55682C18.1889 8.71187 16.899 8.25 15.5678 8.25H10Z" fill="#64748B"/>
<path fill-rule="evenodd" clip-rule="evenodd" d="M38.3998 38.933C38.2879 38.9763 38.1662 39 38.0392 39H30.782C30.3226 39 29.9223 38.687 29.8115 38.2411L29.6206 37.4726C29.4639 36.8419 29.9469 36.2409 30.5828 36.1061C30.7432 36.0721 30.8816 36.035 31.0001 36C31.0958 35.9691 31.1406 35.9547 31.1655 35.9451C31.3831 35.861 31.4489 35.5387 31.3642 35.3213L31.221 34.8191H26.8028L26.5507 35.3312C26.544 35.3448 26.52 35.4142 26.5151 35.4286C26.4392 35.6539 26.587 35.8491 26.8098 35.9319C26.868 35.9535 26.9314 35.9763 27.0001 36C27.1162 36.0393 27.237 36.0736 27.3626 36.1029C27.9819 36.2473 28.4635 36.8172 28.3314 37.4392L28.1683 38.2077C28.0702 38.6696 27.6623 39 27.1901 39H20.9311C20.4065 39 19.9711 38.5946 19.9336 38.0713L19.8812 37.3376C19.8398 36.7587 20.3134 36.296 20.8614 36.1051C20.9765 36.065 21.0855 36.0174 21.1884 35.9624C21.5671 35.7598 21.9264 35.3787 22.2663 34.8191C22.6159 34.2499 23.6019 32.0323 24.0001 31L27.3637 21.7501L21.7047 21.7501H15.182L14.1277 21.7501C12.5097 21.75 11.051 22.7247 10.4319 24.2196L6.29057 34.2195C5.19985 36.8532 7.13556 39.75 9.98618 39.75H36.4632C37.2866 39.75 38.065 39.4981 38.7127 39.0574C38.6051 39.0204 38.5008 38.9789 38.3998 38.933ZM42.7294 29.0606C42.5727 29.056 42.4117 29.0537 42.2465 29.0537C40.3378 29.0537 38.9223 29.3692 37.9999 30C37.0776 30.6309 36.5617 31.176 36.5617 32.0263C36.5617 32.456 36.7078 32.7806 37.0001 33C37.2923 33.2194 37.6164 33.3417 37.9999 33.3417C38.6209 33.3417 38.8355 33.4994 38.8355 33.4994C38.2105 33.896 37.7298 34.3479 37.3932 34.8549C37.1459 34.6629 36.9441 34.4228 36.7879 34.1346C36.6863 33.9425 36.5989 33.6804 36.4828 33.3324L36.4828 33.3324L36.4828 33.3323C36.3657 32.9812 36.2193 32.5426 35.9999 32L32.5834 21.75L39.5692 21.75C42.2649 21.75 44.1888 24.3622 43.3892 26.9365L42.7294 29.0606Z" fill="#64748B"/>
<path d="M38 37.4674C38 37.7616 37.7616 38 37.4674 38H31.0861C30.792 38 30.5535 37.7616 30.5535 37.4674C30.5535 37.1733 30.7922 36.9375 31.086 36.9228C31.4488 36.9047 31.7296 36.8663 31.9286 36.8075C32.2161 36.7149 32.3598 36.5027 32.3598 36.1708C32.3598 35.9392 32.3132 35.7038 32.22 35.4645L31.4741 33.6122H26.3467L25.9621 34.631C25.7446 35.2021 25.6358 35.6151 25.6358 35.8698C25.6358 36.3329 25.8145 36.6261 26.1719 36.7496C26.3961 36.8255 26.6423 36.878 26.9105 36.9073C27.2029 36.9392 27.4421 37.1733 27.4421 37.4674C27.4421 37.7616 27.2037 38 26.9095 38H22.5326C22.2384 38 22 37.7616 22 37.4674C22 37.1733 22.2407 36.9429 22.5298 36.889C22.7434 36.8491 22.9358 36.7834 23.1071 36.6918C23.4101 36.5297 23.6975 36.2248 23.9694 35.7771C24.2491 35.3218 24.5482 34.6811 24.8667 33.8553L29.2237 22.5189C29.3439 22.2063 29.6442 22 29.9791 22C30.3116 22 30.6103 22.2034 30.7321 22.5128L35.343 34.2258C35.6926 35.0902 35.949 35.6768 36.1122 35.9855C36.2753 36.2865 36.5006 36.5219 36.7881 36.6918C36.9689 36.7937 37.1958 36.8636 37.4689 36.9014C37.7602 36.9418 38 37.1733 38 37.4674ZM31.0546 32.4776L28.8755 27.0014L26.8012 32.4776H31.0546Z" fill="#FF7C7C"/>
<path d="M48 35.8606C48 36.3238 47.8989 36.72 47.6967 37.0491C47.4945 37.3722 47.2205 37.613 46.8748 37.7714C46.5356 37.9238 46.1507 38 45.7202 38C45.1722 38 44.7156 37.8811 44.3503 37.6434C43.985 37.3996 43.7665 37.1101 43.6947 36.7749C42.6053 37.5916 41.5095 38 40.407 38C39.7025 38 39.1252 37.8415 38.6751 37.5246C38.225 37.2015 38 36.7779 38 36.2537C38 35.821 38.1207 35.4309 38.362 35.0834C38.6034 34.7299 38.9556 34.416 39.4188 34.1417C39.8885 33.8674 40.4462 33.6267 41.092 33.4194C41.7378 33.2061 42.5434 32.9836 43.5088 32.752V32.2309C43.5088 31.7981 43.3979 31.4598 43.1761 31.216C42.9609 30.9661 42.5597 30.8411 41.9726 30.8411C41.4703 30.8411 41.1083 30.9387 40.8865 31.1337C40.6647 31.3288 40.5179 31.6244 40.4462 32.0206C40.394 32.301 40.2962 32.5326 40.1526 32.7154C40.0157 32.8922 39.7254 32.9806 39.2818 32.9806C39.0078 32.9806 38.7665 32.9074 38.5577 32.7611C38.349 32.6149 38.2446 32.3985 38.2446 32.112C38.2446 31.5451 38.574 31.0514 39.2329 30.6309C39.8917 30.2103 40.9028 30 42.2661 30C43.7012 30 44.6862 30.2255 45.2211 30.6766C45.7626 31.1276 46.0333 31.731 46.0333 32.4869V35.376C46.0333 35.7417 46.0431 36.0099 46.0626 36.1806C46.0822 36.3512 46.1344 36.4823 46.2192 36.5737C46.3105 36.659 46.4508 36.7017 46.6399 36.7017C46.8095 36.7017 46.9563 36.6194 47.0802 36.4549C47.2107 36.2903 47.2759 36.0922 47.2759 35.8606H48ZM43.5088 35.9337V33.6663C42.2694 34.032 41.4801 34.3916 41.1409 34.7451C40.8082 35.0926 40.6419 35.4339 40.6419 35.7691C40.6419 36.0495 40.7332 36.275 40.9159 36.4457C41.0985 36.6164 41.3562 36.7017 41.6888 36.7017C42.0476 36.7017 42.364 36.6316 42.638 36.4914C42.9119 36.3512 43.2022 36.1653 43.5088 35.9337Z" fill="#FF7C7C"/>
</svg>
