<svg width="48" height="48" viewBox="0 0 48 48" fill="none" xmlns="http://www.w3.org/2000/svg">
<path fill-rule="evenodd" clip-rule="evenodd" d="M10 8.25003C6.82436 8.25003 4.25 10.8244 4.25 14V34C4.25 37.1757 6.82436 39.75 10 39.75H26V36.25H10C8.75736 36.25 7.75 35.2427 7.75 34V14C7.75 12.7574 8.75736 11.75 10 11.75H15.5678C16.0887 11.75 16.5934 11.9308 16.9959 12.2614L21.7825 16.1932C22.8111 17.0382 24.1011 17.5 25.4322 17.5H38C38.9797 17.5 39.8131 18.1261 40.122 19H43.7015C43.334 16.1788 40.9214 14 38 14H25.4322C24.9113 14 24.4066 13.8193 24.0041 13.4887L19.2175 9.55685C18.1889 8.7119 16.8989 8.25003 15.5678 8.25003H10Z" fill="#64748B"/>
<path fill-rule="evenodd" clip-rule="evenodd" d="M36.7751 21.75C34.5288 22.7055 33.1556 24.7086 34.4883 28.5006C34.7259 29.1769 34.904 29.5721 35.4371 30.6437C32.0637 30.2865 28.7644 32.8726 27.6282 34.9298C26.5877 36.8054 26.9218 38.4938 28.0289 39.75H9.98618C7.13556 39.75 5.19985 36.8531 6.29057 34.2194L10.4319 24.2195C11.051 22.7247 12.5097 21.75 14.1277 21.75L15.182 21.7501H21.7047L36.7751 21.75Z" fill="#64748B"/>
<path fill-rule="evenodd" clip-rule="evenodd" d="M41.6436 37.1722C43.6052 35.2385 43.8352 33.2415 42.3177 29.5343C41.3565 27.1888 39.7623 25.383 40.9339 23.9257C42.1822 22.3728 44.8356 23.8786 42.6244 25.955L43.0648 26.2065C45.7165 26.4609 47.0236 23.4654 45.0442 22.611C39.8194 20.3611 35.2473 24.6859 37.2623 29.6916C38.1289 31.8165 39.3397 34.0665 38.359 35.8576C37.5137 37.3928 35.8803 38.2972 34.7854 38.3281C32.4994 38.4222 34.0186 34.0988 36.6489 33.0209C36.8789 32.9268 37.207 32.8003 36.8985 32.4827C33.6531 32.1827 31.7486 33.4165 30.6555 35.1444C27.4636 40.1677 36.7059 42.0206 41.6436 37.1722Z" fill="#14B8A6"/>
</svg>
