<svg width="48" height="48" viewBox="0 0 48 48" fill="none" xmlns="http://www.w3.org/2000/svg">
<path fill-rule="evenodd" clip-rule="evenodd" d="M10 8.25003C6.82436 8.25003 4.25 10.8244 4.25 14V34C4.25 37.1757 6.82436 39.75 10 39.75H24V36.25H10C8.75736 36.25 7.75 35.2427 7.75 34V14C7.75 12.7574 8.75736 11.75 10 11.75H15.5678C16.0887 11.75 16.5934 11.9308 16.9959 12.2614L21.7825 16.1932C22.8111 17.0382 24.1011 17.5 25.4322 17.5H38C39.2426 17.5 40.25 18.5074 40.25 19.75V20H43.75V19.75C43.75 16.5744 41.1756 14 38 14H25.4322C24.9113 14 24.4066 13.8193 24.0041 13.4887L19.2175 9.55685C18.1889 8.7119 16.8989 8.25003 15.5678 8.25003H10Z" fill="#64748B"/>
<path fill-rule="evenodd" clip-rule="evenodd" d="M31 21.75L21.7048 21.7501H15.182L14.1278 21.75C12.5098 21.75 11.0511 22.7247 10.432 24.2195L6.29063 34.2194C5.19991 36.8531 7.13562 39.75 9.98624 39.75H26.0702C26.0241 39.507 26 39.2563 26 39V28C26 25.7909 27.7909 24 30 24H31V21.75Z" fill="#64748B"/>
<path fill-rule="evenodd" clip-rule="evenodd" d="M45.0993 26.0013H41.2993V24.0007C41.2993 23.4502 41.0901 22.9516 40.7374 22.5914C40.5636 22.4034 40.3556 22.2542 40.1258 22.1526C39.8961 22.051 39.6492 21.9991 39.4 22H35.6C34.554 22 33.6993 22.9013 33.6993 23.9991V25.9998H29.8993C28.8532 25.9998 28 26.901 28 27.9988V39.0009C28 40.0988 28.8532 41 29.8993 41H45.0993C46.1438 41 47 40.0988 47 39.0009V28.0004C47 26.8994 46.1438 26.0013 45.0993 26.0013ZM35.6 24.0007H39.4V26.0013H35.6V24.0007ZM36.5474 37.5004L35.5985 36.5001L38.4481 33.4991L35.5985 30.4997L36.5474 29.4993L40.3474 33.4991L36.5474 37.5004Z" fill="#CFD8DC"/>
</svg>
