<svg width="48" height="48" viewBox="0 0 48 48" fill="none" xmlns="http://www.w3.org/2000/svg">
<path fill-rule="evenodd" clip-rule="evenodd" d="M10 8.25C6.82436 8.25 4.25 10.8244 4.25 14V34C4.25 37.1756 6.82436 39.75 10 39.75H26V36.25H10C8.75736 36.25 7.75 35.2426 7.75 34V14C7.75 12.7574 8.75736 11.75 10 11.75H15.5678C16.0887 11.75 16.5934 11.9307 16.9959 12.2614L21.7825 16.1932C22.8111 17.0381 24.1011 17.5 25.4322 17.5H38C39.2426 17.5 40.25 18.5074 40.25 19.75V20H43.75V19.75C43.75 16.5744 41.1756 14 38 14H25.4322C24.9113 14 24.4066 13.8193 24.0041 13.4886L19.2175 9.55682C18.1889 8.71187 16.8989 8.25 15.5678 8.25H10Z" fill="#64748B"/>
<path fill-rule="evenodd" clip-rule="evenodd" d="M29.4298 21.7502L21.7045 21.7502H15.1817L14.1274 21.7502C12.5095 21.7501 11.0508 22.7248 10.4317 24.2197L6.29033 34.2196C5.1996 36.8533 7.13532 39.7501 9.98594 39.7501H29.455C27.7538 38.2704 26.7546 36.0741 27.0042 33.2C27.1731 32.6121 30.0189 32.0828 30.7933 32.2862C30.4962 32.0581 30.1939 31.8648 29.8976 31.6753C28.5144 30.7907 27.2599 29.9884 27.2599 26.1111C27.2599 24.3172 28.0095 22.8158 29.4298 21.7502Z" fill="#64748B"/>
<path d="M39.0079 27.4603C39.0079 28.0635 44.0142 27.7778 44.6907 27.3492C44.6907 23.1905 41.9653 21 36.9783 21C32.0107 21 29.2273 23.2222 29.2273 26.5556C29.2273 32.3492 38.7566 32.4603 38.7566 35.619C38.7566 36.5079 38.2154 37.0476 37.0557 37.0476C35.5286 37.0476 34.9294 36.4127 35.0068 34.2381C35.0068 33.7619 29.208 33.619 29.034 34.2381C28.5894 39.4762 32.5713 41 37.133 41C41.5207 41 45 39.0635 45 35.5714C45 29.3492 35.3353 29.5238 35.3353 26.4444C35.3353 25.1905 36.4564 25.0159 37.133 25.0159C37.8288 25.0159 39.1046 25.127 38.9886 27.4603H39.0079Z" fill="#FF79A6"/>
<path d="M10.244 8H16V14.5398C16 14.7146 15.7914 14.8053 15.6635 14.686L13 12.2L10.3532 14.6704C10.2229 14.792 10.0106 14.6953 10.0168 14.5172L10.244 8Z" fill="#FF79A6"/>
</svg>
