<svg width="48" height="48" viewBox="0 0 48 48" fill="none" xmlns="http://www.w3.org/2000/svg">
<path fill-rule="evenodd" clip-rule="evenodd" d="M10 8.25003C6.82436 8.25003 4.25 10.8244 4.25 14V34C4.25 37.1757 6.82436 39.75 10 39.75H24V36.25H10C8.75736 36.25 7.75 35.2427 7.75 34V14C7.75 12.7574 8.75736 11.75 10 11.75H15.5678C16.0887 11.75 16.5934 11.9308 16.9959 12.2614L21.7825 16.1932C22.8111 17.0382 24.1011 17.5 25.4322 17.5H38C39.2426 17.5 40.25 18.5074 40.25 19.75V20H43.75V19.75C43.75 16.5744 41.1756 14 38 14H25.4322C24.9113 14 24.4066 13.8193 24.0041 13.4887L19.2175 9.55685C18.1889 8.7119 16.8989 8.25003 15.5678 8.25003H10Z" fill="#64748B"/>
<path fill-rule="evenodd" clip-rule="evenodd" d="M27.0155 21.7501C26.3928 22.2998 26 23.104 26 24V39C26 39.259 26.0328 39.5103 26.0945 39.75H9.98594C7.13532 39.75 5.1996 36.8532 6.29033 34.2195L10.4317 24.2196C11.0508 22.7247 12.5095 21.7501 14.1274 21.7501L15.1817 21.7501H21.7045L27.0155 21.7501Z" fill="#64748B"/>
<path fill-rule="evenodd" clip-rule="evenodd" d="M35.9014 30.3775C35.6203 31.2547 35.2618 32.1053 34.8301 32.919C34.6205 33.3196 34.4186 33.6953 34.3084 34.012L34.4233 33.9685C35.5657 33.5327 36.7469 33.2063 37.951 32.9935C37.7979 32.887 37.6503 32.773 37.5085 32.652C36.8858 32.1133 36.3346 31.3323 35.9014 30.3775ZM42.7347 34.4017C42.5639 34.6066 42.2394 34.7169 41.7861 34.7169C40.9787 34.7169 39.6977 34.4762 38.6341 33.9375C36.7927 34.1285 35.4356 34.38 34.3628 34.7293L34.1687 34.8038C32.8567 37.0441 31.8862 38.044 31.0292 38.044C30.8679 38.0441 30.7089 38.0064 30.5649 37.9337L30.0588 37.6015L30.0339 37.5456C29.9527 37.3677 29.933 37.1677 29.978 36.9774C30.0898 36.4185 30.669 35.5366 31.9654 34.7417C32.1657 34.5958 32.4778 34.4219 32.9048 34.2247C33.2169 33.6736 33.5554 33.0339 33.9094 32.3197C34.4497 31.2376 34.7851 30.1617 35.0568 29.2333L35.0521 29.2209C34.664 27.9416 34.4311 27.1746 34.8208 25.7742C34.9372 25.3675 35.2633 24.956 35.6592 24.956H35.9092C36.1576 24.956 36.3797 25.0461 36.5505 25.2153C37.2461 25.9109 36.9278 27.6078 36.5738 29.0097L36.5365 29.1588C36.9526 30.3496 37.5488 31.3059 38.2211 31.8571C38.4913 32.0698 38.7956 32.2778 39.131 32.475C39.6123 32.4222 40.0735 32.3974 40.502 32.3974C41.8109 32.3974 42.5981 32.6334 42.9055 33.1209C43.0176 33.2929 43.0639 33.4996 43.036 33.7031C43.0302 33.9662 42.9222 34.2168 42.7347 34.4017ZM43.8884 22H29.1116C28.5516 22 28.0145 22.2225 27.6185 22.6184C27.2225 23.0144 27 23.5515 27 24.1115V38.8885C27 40.053 27.944 41 29.1116 41H43.8884C45.0529 41 46 40.053 46 38.8885V24.1115C46 22.9455 45.0529 22 43.8884 22ZM42.3202 33.6565C42.2022 33.5447 41.769 33.2808 40.2955 33.2808C40.2225 33.2808 40.1495 33.2808 40.0533 33.3863C40.8327 33.7248 41.5811 33.9266 42.0609 33.9266C42.13 33.9266 42.199 33.9214 42.2674 33.9111L42.3031 33.9049C42.3543 33.8894 42.3885 33.8723 42.3978 33.7683C42.3823 33.7419 42.359 33.7015 42.3202 33.6565ZM32.6253 35.1919C32.4502 35.2901 32.2825 35.4012 32.1238 35.5242C31.3677 36.2089 30.8987 36.9013 30.8413 37.3096C31.3211 37.145 31.9421 36.4526 32.6269 35.1919H32.6253ZM35.8083 27.9028L35.8673 27.8639C35.9449 27.5224 35.9946 27.229 36.0365 26.9945L36.0676 26.8237C36.1701 26.2524 36.1576 25.9233 35.9651 25.6671L35.8098 25.6143C35.7897 25.6454 35.7586 25.6904 35.7384 25.7385C35.563 26.1763 35.5661 26.9511 35.8083 27.9028Z" fill="#FF7C7C"/>
</svg>
