<svg width="48" height="48" viewBox="0 0 48 48" fill="none" xmlns="http://www.w3.org/2000/svg">
<path fill-rule="evenodd" clip-rule="evenodd" d="M10 8.25003C6.82436 8.25003 4.25 10.8244 4.25 14V34C4.25 37.1757 6.82436 39.75 10 39.75H28V36.25H10C8.75736 36.25 7.75 35.2427 7.75 34V14C7.75 12.7574 8.75736 11.75 10 11.75H15.5678C16.0887 11.75 16.5934 11.9308 16.9959 12.2614L21.7825 16.1932C22.8111 17.0382 24.1011 17.5 25.4322 17.5H38C39.2426 17.5 40.25 18.5074 40.25 19.75V20H43.75V19.75C43.75 16.5744 41.1756 14 38 14H25.4322C24.9113 14 24.4066 13.8193 24.0041 13.4887L19.2175 9.55685C18.1889 8.7119 16.8989 8.25003 15.5678 8.25003H10Z" fill="#64748B"/>
<path fill-rule="evenodd" clip-rule="evenodd" d="M31.0155 21.7501C30.3928 22.2998 30 23.104 30 24V39.75H9.98594C7.13532 39.75 5.1996 36.8532 6.29033 34.2195L10.4317 24.2196C11.0508 22.7248 12.5095 21.7501 14.1274 21.7501L15.1817 21.7502H21.7045L31.0155 21.7501Z" fill="#64748B"/>
<path d="M43.2009 22H32.7991C31.8036 22 31 22.6857 31 23.5297V41.4718C31 42.3151 31.8036 43 32.7991 43H43.2009C44.1946 43 45 42.3151 45 41.4718V23.5297C45 22.6857 44.1946 22 43.2009 22ZM35.4333 22.929H40.5685C40.6982 22.929 40.8036 23.0935 40.8036 23.2971C40.8036 23.5007 40.6982 23.666 40.5685 23.666H35.4333C35.3027 23.666 35.1991 23.5007 35.1991 23.2971C35.1991 23.0935 35.3027 22.929 35.4333 22.929ZM38.0009 41.4902C37.3676 41.4902 36.8523 41.0524 36.8523 40.5137C36.8523 39.975 37.3676 39.5388 38.0009 39.5388C38.6324 39.5388 39.1477 39.975 39.1477 40.5137C39.1477 41.0524 38.6324 41.4902 38.0009 41.4902ZM43.6523 38.1468H32.3486V24.5812H43.6523V38.1468Z" fill="#FF7C7C"/>
</svg>
