<svg width="48" height="48" viewBox="0 0 48 48" fill="none" xmlns="http://www.w3.org/2000/svg">
<path fill-rule="evenodd" clip-rule="evenodd" d="M10 8.25C6.82436 8.25 4.25 10.8244 4.25 14V34C4.25 37.1756 6.82436 39.75 10 39.75H25V36.25H10C8.75736 36.25 7.75 35.2426 7.75 34V14C7.75 12.7574 8.75736 11.75 10 11.75H15.5678C16.0887 11.75 16.5934 11.9307 16.9959 12.2614L21.7825 16.1932C22.8111 17.0381 24.1011 17.5 25.4322 17.5H38C39.2426 17.5 40.25 18.5074 40.25 19.75V20H43.75V19.75C43.75 16.5744 41.1756 14 38 14H25.4322C24.9113 14 24.4066 13.8193 24.0041 13.4886L19.2175 9.55682C18.1889 8.71187 16.8989 8.25 15.5678 8.25H10Z" fill="#64748B"/>
<path fill-rule="evenodd" clip-rule="evenodd" d="M14.1275 21.7501C12.5095 21.7501 11.0508 22.7248 10.4318 24.2196L6.29039 34.2195C5.19966 36.8532 7.13538 39.75 9.986 39.75H29.3138C27.8637 37.8866 27 35.5442 27 33C27 26.9249 31.9248 22 38 22C39.5589 22 41.0421 22.3243 42.3857 22.9091C41.6724 22.1994 40.6871 21.7501 39.569 21.7501L21.7045 21.7502H15.1818L14.1275 21.7501Z" fill="#64748B"/>
<path fill-rule="evenodd" clip-rule="evenodd" d="M38 30.7778C36.7727 30.7778 35.7778 31.7727 35.7778 33C35.7778 34.2273 36.7727 35.2222 38 35.2222C39.2273 35.2222 40.2222 34.2273 40.2222 33C40.2222 31.7727 39.2273 30.7778 38 30.7778ZM33.5556 33C33.5556 30.5454 35.5454 28.5556 38 28.5556C40.4546 28.5556 42.4444 30.5454 42.4444 33C42.4444 35.4546 40.4546 37.4444 38 37.4444C35.5454 37.4444 33.5556 35.4546 33.5556 33Z" fill="#C084FC"/>
<path fill-rule="evenodd" clip-rule="evenodd" d="M38 25.2222C33.7045 25.2222 30.2222 28.7045 30.2222 33C30.2222 37.2955 33.7045 40.7778 38 40.7778C42.2955 40.7778 45.7778 37.2955 45.7778 33C45.7778 28.7045 42.2955 25.2222 38 25.2222ZM28 33C28 27.4772 32.4772 23 38 23C43.5228 23 48 27.4772 48 33C48 38.5228 43.5228 43 38 43C32.4772 43 28 38.5228 28 33Z" fill="#C084FC"/>
</svg>
