<svg width="48" height="48" viewBox="0 0 48 48" fill="none" xmlns="http://www.w3.org/2000/svg">
<path fill-rule="evenodd" clip-rule="evenodd" d="M10 8.25C6.82436 8.25 4.25 10.8244 4.25 14V34C4.25 37.1756 6.82436 39.75 10 39.75H28V36.25H10C8.75736 36.25 7.75 35.2426 7.75 34V14C7.75 12.7574 8.75736 11.75 10 11.75H15.5678C16.0887 11.75 16.5934 11.9307 16.9959 12.2614L21.7825 16.1932C22.8111 17.0381 24.1011 17.5 25.4322 17.5H38C39.2426 17.5 40.25 18.5074 40.25 19.75V20H43.75V19.75C43.75 16.5744 41.1756 14 38 14H25.4322C24.9113 14 24.4066 13.8193 24.0041 13.4886L19.2175 9.55682C18.1889 8.71187 16.8989 8.25 15.5678 8.25H10Z" fill="#64748B"/>
<path fill-rule="evenodd" clip-rule="evenodd" d="M14.1275 21.7501C12.5095 21.7501 11.0508 22.7248 10.4318 24.2196L6.29039 34.2195C5.19966 36.8532 7.13538 39.75 9.986 39.75H33.6798C31.4339 37.9163 30 35.1256 30 32C30 26.4772 34.4771 22 40 22C40.3813 22 40.7577 22.0214 41.128 22.063C40.6531 21.8622 40.1276 21.7501 39.569 21.7501L21.7045 21.7502H15.1818L14.1275 21.7501Z" fill="#64748B"/>
<circle cx="40" cy="32" r="8" fill="#F59E0B"/>
</svg>
