<svg width="48" height="48" viewBox="0 0 48 48" fill="none" xmlns="http://www.w3.org/2000/svg">
<path fill-rule="evenodd" clip-rule="evenodd" d="M10 8.25C6.82436 8.25 4.25 10.8244 4.25 14V34C4.25 37.1756 6.82436 39.75 10 39.75H25V36.25H10C8.75736 36.25 7.75 35.2426 7.75 34V14C7.75 12.7574 8.75736 11.75 10 11.75H15.5678C16.0887 11.75 16.5934 11.9307 16.9959 12.2614L21.7825 16.1932C22.8111 17.0381 24.1011 17.5 25.4322 17.5H38C39.2426 17.5 40.25 18.5074 40.25 19.75V20H43.75V19.75C43.75 16.5744 41.1756 14 38 14H25.4322C24.9113 14 24.4066 13.8193 24.0041 13.4886L19.2175 9.55682C18.1889 8.71187 16.8989 8.25 15.5678 8.25H10Z" fill="#64748B"/>
<path fill-rule="evenodd" clip-rule="evenodd" d="M26.4115 28.9636C28.7948 28.3517 29.1818 26.8727 29.1818 24.7818L28.7532 23.2415C29.2395 22.8024 29.8511 22.2505 30.49 21.7501L21.7045 21.7501H15.1818L14.1275 21.7501C12.5095 21.75 11.0508 22.7247 10.4318 24.2196L6.29039 34.2195C5.19966 36.8532 7.13538 39.75 9.986 39.75H29.0874L29.1818 39.4182C30.2273 37.3272 28.1364 35.2363 26.4115 35.0907L25.2445 34.7991C25.1382 34.1252 25 32.8065 25 32.1001C25 31.4249 25.0504 29.9338 25.1475 29.288L26.4115 28.9636ZM43.4153 24.6435C43.5853 25.2296 43.6229 25.8637 43.498 26.5046C43.348 25.9109 43.3139 25.2787 43.4153 24.6435Z" fill="#64748B"/>
<path d="M30.9387 25.1209C31.5309 27.2488 30.2998 29.4611 28.2274 29.9932L27.1283 30.2752C27.0438 30.8368 27 31.413 27 32.0001C27 32.6144 27.048 33.2165 27.1403 33.8025L28.1551 34.056C30.2483 34.5791 31.4924 36.814 30.883 38.9562L30.5325 40.1885C31.3588 40.9411 32.3002 41.5524 33.3248 41.9871L34.2528 40.9747C35.7362 39.3562 38.2239 39.3566 39.7069 40.9756L40.6451 42C41.6676 41.57 42.6083 40.9645 43.4347 40.2181L43.0622 38.8793C42.47 36.7512 43.7011 34.5389 45.7736 34.007L46.8717 33.725C46.9562 33.1634 47 32.5872 47 32.0001C47 31.3858 46.952 30.7835 46.8597 30.1973L45.8456 29.944C43.7527 29.4211 42.5086 27.1862 43.1179 25.0438L43.468 23.8125C42.6419 23.0595 41.7004 22.4482 40.6758 22.0133L39.7481 23.0253C38.2647 24.644 35.7771 24.6434 34.294 23.0244L33.3556 22C32.3331 22.4298 31.3925 23.0351 30.566 23.7815L30.9387 25.1209ZM37.0001 34.9279C35.4937 34.9279 34.2728 33.617 34.2728 32.0001C34.2728 30.3832 35.4937 29.0723 37.0001 29.0723C38.5063 29.0723 39.7272 30.3832 39.7272 32.0001C39.7272 33.617 38.5063 34.9279 37.0001 34.9279Z" fill="#0EA5E9"/>
</svg>
