<svg width="48" height="48" viewBox="0 0 48 48" fill="none" xmlns="http://www.w3.org/2000/svg">
<path fill-rule="evenodd" clip-rule="evenodd" d="M10 8.25003C6.82436 8.25003 4.25 10.8244 4.25 14V34C4.25 37.1757 6.82436 39.75 10 39.75H26V36.25H10C8.75736 36.25 7.75 35.2427 7.75 34V14C7.75 12.7574 8.75736 11.75 10 11.75H15.5678C16.0887 11.75 16.5934 11.9308 16.9959 12.2614L21.7825 16.1932C22.8111 17.0382 24.1011 17.5 25.4322 17.5H38C39.2426 17.5 40.25 18.5074 40.25 19.75V20H43.75V19.75C43.75 16.5744 41.1756 14 38 14H25.4322C24.9113 14 24.4066 13.8193 24.0041 13.4887L19.2175 9.55685C18.1889 8.7119 16.8989 8.25003 15.5678 8.25003H10Z" fill="#64748B"/>
<path fill-rule="evenodd" clip-rule="evenodd" d="M41.4566 33.1579L41.6665 32.482H41.4V33.1579H41.4566ZM41.9262 31.6457L43.3889 26.9366C44.1886 24.3622 42.2646 21.75 39.569 21.75L31.5 21.7501V22.5473H38.3203C38.5803 22.5473 38.8377 22.5931 39.0779 22.682C39.3181 22.7708 39.5363 22.9011 39.7202 23.0653C39.904 23.2295 40.0498 23.4245 40.1493 23.639C40.2488 23.8536 40.3 24.0835 40.3 24.3158V28.7368H41.9262V31.6457ZM26 21.7501V30.9473H31.5V29.1789H31.9391V33.1579L33.3128 33.1505V38.0211C33.3128 38.2534 33.364 38.4835 33.4636 38.6981C33.5632 38.9128 33.7092 39.1078 33.8931 39.272C34.0771 39.4362 34.2956 39.5665 34.5359 39.6553C34.6463 39.696 34.7603 39.7277 34.8766 39.75H9.98594C7.13532 39.75 5.1996 36.8532 6.29033 34.2195L10.4317 24.2196C11.0508 22.7247 12.5095 21.7501 14.1274 21.7501L15.1817 21.7501H21.7045L26 21.7501Z" fill="#64748B"/>
<path fill-rule="evenodd" clip-rule="evenodd" d="M47 33.4015H45.1003V35.3015H39.4012V32.4515H41.3009V30.5515H39.4012V25.8015C39.4012 25.552 39.352 25.3049 39.2566 25.0744C39.1611 24.8439 39.0212 24.6344 38.8448 24.458C38.6684 24.2815 38.4589 24.1416 38.2285 24.0461C37.998 23.9506 37.7509 23.9015 37.5015 23.9015H29.8997V22H28V29.6H29.8997V27.7H35.5988V30.55H33.6991V32.45H35.5988V37.2C35.5988 37.4496 35.648 37.6968 35.7436 37.9274C35.8391 38.1581 35.9792 38.3676 36.1558 38.544C36.3323 38.7205 36.5419 38.8604 36.7726 38.9558C37.0032 39.0512 37.2504 39.1002 37.5 39.1H45.0988V41H46.9985" fill="#8CDBFF"/>
</svg>
