<svg width="48" height="48" viewBox="0 0 48 48" fill="none" xmlns="http://www.w3.org/2000/svg">
<path fill-rule="evenodd" clip-rule="evenodd" d="M10 8.25003C6.82436 8.25003 4.25 10.8244 4.25 14V34C4.25 37.1757 6.82436 39.75 10 39.75H18V36.25H10C8.75736 36.25 7.75 35.2427 7.75 34V14C7.75 12.7574 8.75736 11.75 10 11.75H15.5678C16.0887 11.75 16.5934 11.9308 16.9959 12.2614L21.7825 16.1932C22.8111 17.0382 24.1011 17.5 25.4322 17.5H38C39.2426 17.5 40.25 18.5074 40.25 19.75V22H43.75V19.75C43.75 16.5744 41.1756 14 38 14H25.4322C24.9113 14 24.4066 13.8193 24.0041 13.4887L19.2175 9.55685C18.1889 8.7119 16.8989 8.25003 15.5678 8.25003H10Z" fill="#64748B"/>
<path fill-rule="evenodd" clip-rule="evenodd" d="M14.1278 21.75C12.5098 21.75 11.0511 22.7247 10.432 24.2195L6.29063 34.2194C5.19991 36.8531 7.13562 39.7499 9.98624 39.7499H36.4632C36.8158 39.7499 37.1601 39.7038 37.4894 39.6164H30.7422V36L29.4531 38L27.9487 36V39.6164L20 39.6208V23.0065L27.5195 23L29.2383 26L31.3027 23H38.0465V30H39.3359V23.0065L42.4781 23.0038C41.7588 22.2396 40.7363 21.75 39.5693 21.75L21.7048 21.7501H15.182L14.1278 21.75ZM39.9153 37.7712L38.0465 34.7816V39.4235C38.8237 39.0882 39.482 38.5114 39.9153 37.7712Z" fill="#64748B"/>
<path fill-rule="evenodd" clip-rule="evenodd" d="M36.5597 37.9239L32.3993 37.9273V31.4653L29.2799 35.6086L26.1604 31.4653V37.9273H22V25.0051H26.1604L29.2799 29.313L32.3993 25.0051L36.5597 25V37.9239ZM42.7708 39L37.6007 31.4653H40.7201V25.0051H44.8805V31.4653H48L42.7708 39Z" fill="#8CDBFF"/>
</svg>
