<svg width="48" height="48" viewBox="0 0 48 48" fill="none" xmlns="http://www.w3.org/2000/svg">
<path fill-rule="evenodd" clip-rule="evenodd" d="M10 8.25003C6.82436 8.25003 4.25 10.8244 4.25 14V34C4.25 37.1757 6.82436 39.75 10 39.75H24V36.25H10C8.75736 36.25 7.75 35.2427 7.75 34V14C7.75 12.7574 8.75736 11.75 10 11.75H15.5678C16.0887 11.75 16.5934 11.9308 16.9959 12.2614L21.7825 16.1932C22.8111 17.0382 24.1011 17.5 25.4322 17.5H38C38.9797 17.5 39.8131 18.1261 40.122 19H43.7015C43.334 16.1788 40.9214 14 38 14H25.4322C24.9113 14 24.4066 13.8193 24.0041 13.4887L19.2175 9.55685C18.1889 8.7119 16.8989 8.25003 15.5678 8.25003H10Z" fill="#64748B"/>
<path fill-rule="evenodd" clip-rule="evenodd" d="M31.9506 39.7499V38.5447L27.8429 38.5458C27.5829 38.5458 27.3254 38.4893 27.0852 38.3796C26.845 38.2699 26.6267 38.1091 26.4428 37.9064C26.259 37.7038 26.1131 37.4631 26.0136 37.1983C25.9141 36.9335 25.8629 36.6496 25.8629 36.363L26.0138 22.1828C26.0138 22.0345 26.0271 21.8898 26.0525 21.75L21.7047 21.7501H15.182L14.1277 21.75C12.5097 21.75 11.051 22.7247 10.4319 24.2195L6.29057 34.2194C5.19985 36.8531 7.13556 39.7499 9.98618 39.7499H31.9506Z" fill="#64748B"/>
<path fill-rule="evenodd" clip-rule="evenodd" d="M34.6502 41C34.3981 41 34.1563 40.8999 33.9781 40.7216C33.7998 40.5434 33.6997 40.3016 33.6997 40.0495V37.1997H29.9009C29.6513 37.1997 29.4041 37.1505 29.1735 37.055C28.9428 36.9595 28.7333 36.8195 28.5568 36.6429C28.3802 36.4664 28.2402 36.2569 28.1447 36.0262C28.0492 35.7956 28 35.5484 28 35.2988V23.9009C28 22.8448 28.8554 22 29.9009 22H45.1006C45.6045 22.0004 46.0876 22.2009 46.4438 22.5573C46.7999 22.9137 47 23.397 47 23.9009V35.3003C47 35.5499 46.9508 35.7971 46.8553 36.0277C46.7598 36.2584 46.6198 36.4679 46.4432 36.6444C46.2667 36.821 46.0572 36.961 45.8265 37.0565C45.5959 37.152 45.3487 37.2012 45.0991 37.2012H39.3059L35.7907 40.7239C35.6127 40.8981 35.3744 40.9969 35.1254 41H34.6502ZM30.8514 24.8514V26.7523H44.1502V24.8514H30.8514ZM30.8514 28.6517V30.5526H38.4505V28.6517H30.8514ZM30.8498 32.4505V34.3514H40.3483V32.4505H30.8498Z" fill="#60A5FA"/>
</svg>
