<svg width="48" height="48" viewBox="0 0 48 48" fill="none" xmlns="http://www.w3.org/2000/svg">
<path fill-rule="evenodd" clip-rule="evenodd" d="M10 8.25C6.82436 8.25 4.25 10.8244 4.25 14V34C4.25 37.1756 6.82436 39.75 10 39.75H24V36.25H10C8.75736 36.25 7.75 35.2426 7.75 34V14C7.75 12.7574 8.75736 11.75 10 11.75H15.5678C16.0887 11.75 16.5934 11.9307 16.9959 12.2614L21.7825 16.1932C22.8111 17.0381 24.1011 17.5 25.4322 17.5H38C38.7361 17.5 39.3897 17.8535 39.8002 18.4H43.5906C42.9833 15.8757 40.7107 14 38 14H25.4322C24.9113 14 24.4066 13.8193 24.0041 13.4886L19.2175 9.55682C18.1889 8.71187 16.8989 8.25 15.5678 8.25H10Z" fill="#64748B"/>
<path fill-rule="evenodd" clip-rule="evenodd" d="M29.3646 21.7501C27.9451 22.6322 27 24.2057 27 25.9999V37.9999C27 38.6156 27.1113 39.2053 27.3148 39.75H9.98594C7.13532 39.75 5.1996 36.8532 6.29033 34.2195L10.4317 24.2196C11.0508 22.7247 12.5095 21.75 14.1274 21.7501L15.1817 21.7501H21.7045L29.3646 21.7501Z" fill="#64748B"/>
<path d="M42.5 27.5H33.5V36.5H42.5V27.5Z" fill="#C084FC"/>
<path fill-rule="evenodd" clip-rule="evenodd" d="M34.25 22.25C34.449 22.25 34.6396 22.329 34.7804 22.4696C34.921 22.6104 35 22.801 35 23V23.75H37.25V23C37.25 22.801 37.329 22.6104 37.4696 22.4696C37.6104 22.329 37.801 22.25 38 22.25C38.199 22.25 38.3896 22.329 38.5304 22.4696C38.671 22.6104 38.75 22.801 38.75 23V23.75H41V23C41 22.801 41.079 22.6104 41.2196 22.4696C41.3604 22.329 41.551 22.25 41.75 22.25C41.949 22.25 42.1396 22.329 42.2804 22.4696C42.421 22.6104 42.5 22.801 42.5 23V23.75H43.25C44.0456 23.75 44.8088 24.066 45.3714 24.6286C45.934 25.1912 46.25 25.9544 46.25 26.75V27.5H47C47.199 27.5 47.3896 27.579 47.5304 27.7196C47.671 27.8604 47.75 28.051 47.75 28.25C47.75 28.449 47.671 28.6396 47.5304 28.7804C47.3896 28.921 47.199 29 47 29H46.25V31.25H47C47.199 31.25 47.3896 31.329 47.5304 31.4696C47.671 31.6104 47.75 31.801 47.75 32C47.75 32.199 47.671 32.3896 47.5304 32.5304C47.3896 32.671 47.199 32.75 47 32.75H46.25V35H47C47.199 35 47.3896 35.079 47.5304 35.2196C47.671 35.3604 47.75 35.551 47.75 35.75C47.75 35.949 47.671 36.1396 47.5304 36.2804C47.3896 36.421 47.199 36.5 47 36.5H46.25V37.25C46.25 38.0456 45.934 38.8088 45.3714 39.3714C44.8088 39.934 44.0456 40.25 43.25 40.25H42.5V41C42.5 41.199 42.421 41.3896 42.2804 41.5304C42.1396 41.671 41.949 41.75 41.75 41.75C41.551 41.75 41.3604 41.671 41.2196 41.5304C41.079 41.3896 41 41.199 41 41V40.25H38.75V41C38.75 41.199 38.671 41.3896 38.5304 41.5304C38.3896 41.671 38.199 41.75 38 41.75C37.801 41.75 37.6104 41.671 37.4696 41.5304C37.329 41.3896 37.25 41.199 37.25 41V40.25H35V41C35 41.199 34.921 41.3896 34.7804 41.5304C34.6396 41.671 34.449 41.75 34.25 41.75C34.051 41.75 33.8604 41.671 33.7196 41.5304C33.579 41.3896 33.5 41.199 33.5 41V40.25H32.75C31.9544 40.25 31.1912 39.934 30.6286 39.3714C30.066 38.8088 29.75 38.0456 29.75 37.25V36.5H29C28.801 36.5 28.6104 36.421 28.4696 36.2804C28.329 36.1396 28.25 35.949 28.25 35.75C28.25 35.551 28.329 35.3604 28.4696 35.2196C28.6104 35.079 28.801 35 29 35H29.75V32.75H29C28.801 32.75 28.6104 32.671 28.4696 32.5304C28.329 32.3896 28.25 32.199 28.25 32C28.25 31.801 28.329 31.6104 28.4696 31.4696C28.6104 31.329 28.801 31.25 29 31.25H29.75V29H29C28.801 29 28.6104 28.921 28.4696 28.7804C28.329 28.6396 28.25 28.449 28.25 28.25C28.25 28.051 28.329 27.8604 28.4696 27.7196C28.6104 27.579 28.801 27.5 29 27.5H29.75V26.75C29.75 25.9544 30.066 25.1912 30.6286 24.6286C31.1912 24.066 31.9544 23.75 32.75 23.75H33.5V23C33.5 22.801 33.579 22.6104 33.7196 22.4696C33.8604 22.329 34.051 22.25 34.25 22.25ZM32 26.75C32 26.551 32.079 26.3604 32.2196 26.2196C32.3604 26.079 32.551 26 32.75 26H43.25C43.449 26 43.6396 26.079 43.7804 26.2196C43.921 26.3604 44 26.551 44 26.75V37.25C44 37.449 43.921 37.6396 43.7804 37.7804C43.6396 37.921 43.449 38 43.25 38H32.75C32.551 38 32.3604 37.921 32.2196 37.7804C32.079 37.6396 32 37.449 32 37.25V26.75Z" fill="#C084FC"/>
</svg>
