<svg width="48" height="48" viewBox="0 0 48 48" fill="none" xmlns="http://www.w3.org/2000/svg">
<path fill-rule="evenodd" clip-rule="evenodd" d="M10 8.25003C6.82436 8.25003 4.25 10.8244 4.25 14V34C4.25 37.1757 6.82436 39.75 10 39.75H26V36.25H10C8.75736 36.25 7.75 35.2427 7.75 34V14C7.75 12.7574 8.75736 11.75 10 11.75H15.5678C16.0887 11.75 16.5934 11.9308 16.9959 12.2614L21.7825 16.1932C22.8111 17.0382 24.1011 17.5 25.4322 17.5H38C39.2426 17.5 40.25 18.5074 40.25 19.75V20H43.75V19.75C43.75 16.5744 41.1756 14 38 14H25.4322C24.9113 14 24.4066 13.8193 24.0041 13.4887L19.2175 9.55685C18.1889 8.7119 16.8989 8.25003 15.5678 8.25003H10Z" fill="#64748B"/>
<path fill-rule="evenodd" clip-rule="evenodd" d="M28.8437 21.7501L21.7048 21.7501H15.182L14.1278 21.7501C12.5098 21.75 11.0511 22.7247 10.432 24.2196L6.29063 34.2195C5.19991 36.8532 7.13562 39.75 9.98624 39.75H28.68C28.365 38.5392 28.4706 36.9477 28.8779 35.2093C26.044 34.351 24 32.9325 24 30.9993C24 29.0661 26.044 27.6492 28.8795 26.7909C28.4123 24.8014 28.341 23.0043 28.8437 21.7501Z" fill="#64748B"/>
<path fill-rule="evenodd" clip-rule="evenodd" d="M36 29.2312C36.9576 29.2312 37.7391 30.0174 37.7391 30.9994C37.7391 31.9362 36.9576 32.7317 36 32.7317C35.5423 32.73 35.1035 32.5475 34.7782 32.2235C34.4529 31.8995 34.2672 31.4599 34.2609 30.9994C34.2609 30.0174 35.0424 29.2312 36 29.2312ZM31.6927 38.4869C32.2795 38.8426 33.5629 38.3003 35.0424 36.8958C34.5451 36.3268 34.0766 35.7331 33.6384 35.1169C32.8886 35.0451 32.1432 34.933 31.4053 34.7811C30.9311 36.7826 31.1073 38.1604 31.6927 38.4869ZM32.3536 33.1155L32.0834 32.6371C31.9786 32.9 31.8888 33.1687 31.8146 33.4419C32.0662 33.4979 32.3444 33.5459 32.6331 33.5925L32.3536 33.1155ZM38.4371 32.4039L39.1907 30.9994L38.4371 29.5963C38.1589 29.1006 37.8609 28.6609 37.5907 28.2211C37.0874 28.1918 36.5576 28.1918 36.0013 28.1918C35.4424 28.1918 34.9113 28.1918 34.4093 28.2211C34.1391 28.6609 33.8424 29.1006 33.5629 29.5963L32.8093 30.9994L33.5642 32.4039C33.8424 32.8996 34.1391 33.3393 34.4093 33.7791C34.9126 33.807 35.4424 33.807 36 33.807C36.5576 33.807 37.0887 33.807 37.5907 33.7804C37.8609 33.3393 38.1576 32.8996 38.4371 32.4039ZM36 26.1144C35.8238 26.3209 35.6371 26.5355 35.4517 26.7887H36.5483C36.3629 26.5355 36.1775 26.3209 36 26.1144ZM36 35.8844C36.1762 35.6792 36.3629 35.4634 36.5483 35.2115H35.4517C35.6371 35.4647 35.8225 35.6779 36 35.8844ZM40.298 23.5133C39.7205 23.1575 38.4371 23.6999 36.9576 25.1044C37.4555 25.6723 37.9242 26.2656 38.3616 26.8819C39.1258 26.9579 39.8795 27.0685 40.5947 27.2191C41.0702 25.2163 40.8927 23.8411 40.298 23.5147M39.6464 28.8847L39.9166 29.3618C40.0185 29.0913 40.1205 28.8194 40.1854 28.5569C39.9338 28.501 39.6556 28.4543 39.3669 28.4077L39.6464 28.8847ZM40.9947 22.2887C42.3629 23.0736 42.5113 25.1417 41.9351 27.5562C44.298 28.2584 46 29.4191 46 30.9994C46 32.5811 44.298 33.7418 41.9338 34.444C42.5113 36.8585 42.3629 38.9266 40.9947 39.7128C39.6371 40.499 37.7854 39.5995 36.0013 37.8872C34.2132 39.5995 32.3629 40.499 30.9947 39.7128C29.6371 38.9266 29.4887 36.8585 30.0649 34.444C27.7033 33.7418 26 32.5811 26 30.9994C26 29.4177 27.7033 28.2584 30.0662 27.5562C29.4887 25.1417 29.6371 23.0736 30.996 22.2874C32.3629 21.5012 34.2146 22.3993 36 24.113C37.7854 22.3993 39.6371 21.5012 40.9947 22.2874M40.7258 30.9994C41.0424 31.7017 41.3219 32.4039 41.5536 33.1155C43.5073 32.5252 44.604 31.683 44.604 30.9994C44.604 30.3172 43.5073 29.475 41.5536 28.8847C41.3157 29.6041 41.0394 30.31 40.7258 30.9994ZM31.2742 30.9994C30.9606 30.31 30.6843 29.6041 30.4464 28.8847C28.494 29.475 27.396 30.3172 27.396 30.9994C27.396 31.683 28.494 32.5252 30.4464 33.1155C30.6795 32.4039 30.9589 31.703 31.2742 30.9994ZM39.6464 33.1155L39.3682 33.5925C39.6556 33.5459 39.9351 33.4992 40.1854 33.4419C40.1109 33.1688 40.0212 32.9001 39.9166 32.6371L39.6464 33.1155ZM36.9576 36.8958C38.4371 38.299 39.7205 38.8413 40.298 38.4869C40.894 38.1591 41.0702 36.7839 40.5947 34.7811C39.8795 34.9304 39.1245 35.0423 38.3629 35.1182C37.9166 35.7445 37.4424 36.3442 36.9589 36.8958M32.3536 28.8847L32.6318 28.4077C32.3444 28.4543 32.0649 28.501 31.8146 28.5583C31.8795 28.8194 31.9815 29.0913 32.0834 29.3631L32.3536 28.8847ZM35.0424 25.1044C33.5629 23.7012 32.2795 23.1589 31.6927 23.5133C31.1073 23.8411 30.9298 25.2163 31.4053 27.2191C32.1429 27.0675 32.8878 26.955 33.6371 26.8819C34.0834 26.2557 34.5576 25.656 35.0411 25.1044H35.0424Z" fill="#0EA5E9"/>
</svg>
