<svg width="48" height="48" viewBox="0 0 48 48" fill="none" xmlns="http://www.w3.org/2000/svg">
<path fill-rule="evenodd" clip-rule="evenodd" d="M10 8.25003C6.82436 8.25003 4.25 10.8244 4.25 14V34C4.25 37.1757 6.82436 39.75 10 39.75H24V36.25H10C8.75736 36.25 7.75 35.2427 7.75 34V14C7.75 12.7574 8.75736 11.75 10 11.75H15.5678C16.0887 11.75 16.5934 11.9308 16.9959 12.2614L21.7825 16.1932C22.8111 17.0382 24.1011 17.5 25.4322 17.5H38C38.9797 17.5 39.8131 18.1261 40.122 19H43.7015C43.334 16.1788 40.9214 14 38 14H25.4322C24.9113 14 24.4066 13.8193 24.0041 13.4887L19.2175 9.55685C18.1889 8.7119 16.8989 8.25003 15.5678 8.25003H10Z" fill="#64748B"/>
<path fill-rule="evenodd" clip-rule="evenodd" d="M36.3085 24.7956L34.3557 26.8032L34.3658 26.8136L33.527 27.6848L33.5075 27.6648L28.2426 33.0682C28.0775 33.2387 27.947 33.4411 27.8584 33.6637C27.7699 33.8862 27.7251 34.1246 27.7268 34.365C27.7284 34.6054 27.7763 34.8431 27.8678 35.0644C27.9593 35.2857 28.0926 35.4862 28.2599 35.6544C27.5406 36.3975 26.8142 37.1414 26.0881 37.885C25.725 38.2567 25.362 38.6285 25 39H25.006L24.2568 39.75H9.98618C7.13556 39.75 5.19985 36.8532 6.29057 34.2195L10.4319 24.2196C11.051 22.7247 12.5097 21.75 14.1277 21.7501L15.182 21.7501H21.7047L39.2711 21.75L39.0438 21.9838L38.9999 22.0001L36.3085 24.7956Z" fill="#64748B"/>
<path fill-rule="evenodd" clip-rule="evenodd" d="M43.7529 22.0001C43.5188 21.9971 43.2865 22.042 43.0695 22.1322C42.8525 22.2225 42.6553 22.3562 42.4893 22.5257L37.3557 27.8032L42.348 32.9268L47.4903 27.6581C47.817 27.3154 48 26.8549 48 26.3754C48 25.8959 47.817 25.4354 47.4903 25.0926L44.9804 22.5257C44.8198 22.3591 44.6286 22.2269 44.4179 22.1367C44.2072 22.0465 43.9812 22.0001 43.7529 22.0001ZM36.5075 28.6648L31.2426 34.0681C31.0775 34.2387 30.947 34.4411 30.8584 34.6636C30.7699 34.8862 30.7251 35.1246 30.7268 35.3649C30.7284 35.6053 30.7763 35.843 30.8678 36.0643C30.9593 36.2856 31.0926 36.4861 31.2599 36.6544C30.181 37.7691 29.0862 38.8853 28 40H32.9995L33.7597 39.2198C34.0935 39.5507 34.5404 39.7341 35.0044 39.7308C35.4685 39.7274 35.9128 39.5376 36.2421 39.2021L41.4998 33.7987" fill="#14B8A6"/>
</svg>
