<svg width="48" height="48" viewBox="0 0 48 48" fill="none" xmlns="http://www.w3.org/2000/svg">
<path fill-rule="evenodd" clip-rule="evenodd" d="M10 8.25C6.82436 8.25 4.25 10.8244 4.25 14V34C4.25 37.1756 6.82436 39.75 10 39.75H20.8967V36.25H10C8.75736 36.25 7.75 35.2426 7.75 34V14C7.75 12.7574 8.75736 11.75 10 11.75H15.5678C16.0887 11.75 16.5934 11.9307 16.9959 12.2614L21.7825 16.1932C22.8111 17.0381 24.1011 17.5 25.4322 17.5H38C39.2426 17.5 40.25 18.5074 40.25 19.75V20H43.75V19.75C43.75 16.5744 41.1756 14 38 14H25.4322C24.9113 14 24.4066 13.8193 24.0041 13.4886L19.2175 9.55682C18.1889 8.71187 16.8989 8.25 15.5678 8.25H10Z" fill="#64748B"/>
<path fill-rule="evenodd" clip-rule="evenodd" d="M10.4319 24.2196C11.051 22.7247 12.5097 21.75 14.1277 21.7501L15.182 21.7501H21.7047L39.5692 21.75C41.1384 21.75 42.4461 22.6352 43.1073 23.8828L41.1429 28.1662C40.9303 27.5837 40.4935 27.0834 39.8847 26.8058C38.6794 26.2562 37.2568 26.7877 36.7072 27.993L33.8312 34.3003C33.2816 35.5056 33.8131 36.9282 35.0184 37.4778C36.2237 38.0274 37.6463 37.4958 38.1959 36.2906L40.3079 31.6586C40.5144 32.2218 40.9304 32.708 41.5088 32.9904L40.2831 36.9365C39.7634 38.6097 38.2153 39.75 36.4632 39.75H9.98618C7.13556 39.75 5.19985 36.8532 6.29057 34.2195L10.4319 24.2196ZM26.3522 28.004C26.893 26.8082 28.3007 26.2773 29.4965 26.8181C30.077 27.0807 30.5008 27.5476 30.7214 28.0954L32.6588 23.855C33.2111 22.6462 34.6387 22.114 35.8474 22.6663C37.0562 23.2186 37.5884 24.6462 37.0361 25.8549L34.3153 31.8098C33.763 33.0186 32.3354 33.5508 31.1267 32.9985C30.5419 32.7313 30.1155 32.2592 29.8936 31.7062L27.8304 36.2678C27.2896 37.4635 25.8819 37.9944 24.6861 37.4536C23.4904 36.9128 22.9595 35.5051 23.5003 34.3093L26.3522 28.004Z" fill="#64748B"/>
<path d="M29.4487 29.9967C29.7343 29.3706 29.584 28.5401 29.0136 28.1399C28.7156 27.9307 28.3618 27.8866 28.0413 27.9983C27.7262 28.1081 27.4717 28.357 27.3227 28.6835L24.7416 34.342C24.4561 34.9681 24.6063 35.7985 25.1767 36.1988C25.4747 36.408 25.8285 36.452 26.149 36.3404C26.4641 36.2306 26.7187 35.9817 26.8676 35.6552L29.4487 29.9967ZM35.9073 25.658C36.1929 25.032 36.0426 24.2015 35.4722 23.8012C35.1742 23.592 34.8204 23.548 34.4999 23.6596C34.1848 23.7694 33.9303 24.0183 33.7813 24.3448L31.2003 30.0033C30.9147 30.6294 31.065 31.4599 31.6353 31.8601C31.9334 32.0693 32.2871 32.1134 32.6076 32.0017C32.9228 31.8919 33.1773 31.643 33.3262 31.3165L35.9073 25.658ZM46.2584 25.6582C46.5439 25.0322 46.3937 24.2017 45.8233 23.8014C45.5253 23.5922 45.1715 23.5482 44.851 23.6598C44.5359 23.7696 44.2814 24.0185 44.1324 24.345L41.5513 30.0035C41.2657 30.6296 41.416 31.4601 41.9864 31.8604C42.2844 32.0695 42.6382 32.1136 42.9587 32.0019C43.2738 31.8921 43.5283 31.6433 43.6773 31.3167L46.2584 25.6582ZM39.7984 29.9967C40.084 29.3706 39.9337 28.5401 39.3633 28.1399C39.0653 27.9307 38.7115 27.8866 38.391 27.9983C38.0759 28.1081 37.8214 28.357 37.6724 28.6835L35.0914 34.342C34.8058 34.9681 34.9561 35.7985 35.5264 36.1988C35.8245 36.408 36.1782 36.452 36.4987 36.3404C36.8139 36.2306 37.0684 35.9817 37.2173 35.6552L39.7984 29.9967Z" fill="#4ADE80" stroke="#4ADE80" stroke-width="0.8"/>
</svg>
