<svg width="48" height="48" viewBox="0 0 48 48" fill="none" xmlns="http://www.w3.org/2000/svg">
<path fill-rule="evenodd" clip-rule="evenodd" d="M10 8.25003C6.82436 8.25003 4.25 10.8244 4.25 14V34C4.25 37.1757 6.82436 39.75 10 39.75H26V36.25H10C8.75736 36.25 7.75 35.2427 7.75 34V14C7.75 12.7574 8.75736 11.75 10 11.75H15.5678C16.0887 11.75 16.5934 11.9308 16.9959 12.2614L21.7825 16.1932C22.8111 17.0382 24.1011 17.5 25.4322 17.5H38C39.2426 17.5 40.25 18.5074 40.25 19.75V20H43.75V19.75C43.75 16.5744 41.1756 14 38 14H25.4322C24.9113 14 24.4066 13.8193 24.0041 13.4887L19.2175 9.55685C18.1889 8.7119 16.8989 8.25003 15.5678 8.25003H10Z" fill="#64748B"/>
<path fill-rule="evenodd" clip-rule="evenodd" d="M32.3244 21.7501L21.7046 21.7501H15.1819L14.1276 21.7501C12.5096 21.75 11.0509 22.7247 10.4318 24.2196L6.29045 34.2195C5.19972 36.8532 7.13544 39.75 9.98606 39.75H29.3297C28.1372 38.8623 27.4432 37.7069 27.4432 36.275L27.4423 36.1599L27.4272 36.1578L27.4407 28.5703H27.4272C26.92 28.0205 26.4499 27.4406 26 26.822C26.5982 25.9572 29.4289 23.2525 30.2108 22.5366C30.6116 22.7089 31.0841 23.1199 31.5406 23.517C31.9073 23.8361 32.2637 24.1461 32.564 24.3158L31.5384 22.1053C31.7623 22.0093 32.0306 21.886 32.3244 21.7501ZM38.9397 21.75C38.8606 21.8592 38.786 21.9761 38.7179 22.1053H36.6666C36.6666 22.1053 36.5787 21.9596 36.4428 21.75L38.9397 21.75ZM31.256 36.6912L31.3152 37.5207C31.3236 37.6254 31.3702 37.7237 31.4466 37.798C31.523 37.8723 31.6241 37.9176 31.7318 37.9258L33.5632 38.053L31.3043 36.698L31.256 36.6912Z" fill="#64748B"/>
<path d="M35.9657 22C35.0514 22.1936 34.1486 22.4636 33.3014 22.8713C33.3214 23.5858 33.3686 24.2703 33.4671 24.9643C33.1386 25.1648 32.7914 25.3379 32.4843 25.5738C32.1714 25.8029 31.8529 26.0224 31.57 26.2911C30.9986 25.9284 30.4043 25.5984 29.7914 25.3025C29.1286 25.9843 28.5071 26.7206 28 27.5441C28.3814 28.1332 28.78 28.6854 29.21 29.209H29.2214V34.265L29.25 34.2664L32.4971 34.565C32.5797 34.5723 32.6569 34.6075 32.7148 34.6642C32.7727 34.7209 32.8074 34.7955 32.8129 34.8745L32.9129 36.2422L35.7457 36.4344L35.9414 35.1718C35.9537 35.0926 35.9954 35.0203 36.0589 34.968C36.1223 34.9157 36.2033 34.8869 36.2871 34.8868H39.7129C39.8857 34.8868 40.0329 35.0082 40.0586 35.1718L40.2543 36.4344L43.0871 36.2422L43.1871 34.8745C43.1934 34.7958 43.2285 34.7217 43.2862 34.6651C43.3439 34.6085 43.4206 34.5731 43.5029 34.565L46.7486 34.2664L46.7771 34.265L46.7786 29.2104H46.79C47.22 28.6868 47.6186 28.1346 48 27.5455C47.4897 26.7385 46.889 25.9869 46.2086 25.3039C45.5929 25.5997 44.9943 25.9352 44.43 26.2911C44.1471 26.0224 43.8286 25.8029 43.5157 25.5738C43.2086 25.3379 42.8629 25.1661 42.5343 24.9643C42.6314 24.2689 42.68 23.5844 42.7 22.8713C41.8529 22.4636 40.9486 22.195 40.0343 22C39.6686 22.585 39.3357 23.219 39.0443 23.8394C38.7013 23.7872 38.3545 23.7607 38.0071 23.7603H37.9929C37.6457 23.7603 37.2986 23.7876 36.9557 23.8394C36.6643 23.219 36.3314 22.585 35.9657 22ZM33.3971 29.3958C33.6543 29.389 33.9103 29.4306 34.1506 29.5183C34.3909 29.6059 34.6107 29.7379 34.7976 29.9067C34.9844 30.0755 35.1345 30.2778 35.2394 30.502C35.3442 30.7262 35.4018 30.9679 35.4087 31.2134C35.4157 31.4588 35.3719 31.7032 35.2798 31.9325C35.1878 32.1617 35.0493 32.3715 34.8723 32.5496C34.6953 32.7278 34.4833 32.8709 34.2483 32.9708C34.0133 33.0708 33.76 33.1255 33.5029 33.1319C32.9841 33.1449 32.4811 32.9607 32.1045 32.6199C31.7279 32.2791 31.5085 31.8095 31.4945 31.3143C31.4804 30.8191 31.673 30.3389 32.0298 29.9792C32.3865 29.6194 32.8784 29.4096 33.3971 29.3958ZM42.6029 29.3958C43.1219 29.3955 43.6199 29.5919 43.9872 29.942C44.3545 30.2921 44.5611 30.7671 44.5614 31.2625C44.5618 31.758 44.356 32.2332 43.9892 32.5838C43.6224 32.9344 43.1248 33.1316 42.6057 33.1319C42.0866 33.1321 41.5873 32.9355 41.2202 32.5853C40.853 32.2351 40.6466 31.76 40.6464 31.2646C40.6462 30.7691 40.8523 30.2939 41.2192 29.9435C41.5861 29.593 42.0838 29.396 42.6029 29.3958ZM38 30.488C38.3486 30.488 38.63 30.7335 38.63 31.0348V32.7542C38.63 33.0556 38.3471 33.301 38 33.301C37.6514 33.301 37.37 33.0569 37.37 32.7542V31.0348C37.37 30.7321 37.6514 30.488 38 30.488Z" fill="#8CDBFF"/>
<path d="M43.8629 35.2031L43.7629 36.5789C43.7575 36.6593 43.7216 36.7351 43.6619 36.792C43.6022 36.849 43.5228 36.8833 43.4386 36.8884L39.98 37.1229L39.9543 37.1243C39.8705 37.1242 39.7895 37.0954 39.726 37.0431C39.6626 36.9908 39.6209 36.9185 39.6086 36.8393L39.4114 35.5549H36.5886L36.39 36.8393C36.3772 36.9227 36.3318 36.9984 36.2629 37.051C36.1939 37.1036 36.1066 37.1293 36.0186 37.1229L32.56 36.887C32.4762 36.8808 32.3975 36.8462 32.338 36.7894C32.2786 36.7327 32.2423 36.6575 32.2357 36.5775L32.1357 35.2017L29.2157 34.9331L29.2214 35.6258C29.2214 38.5696 33.1329 39.9836 37.9929 40H38.0043C42.8643 39.9836 46.7757 38.5696 46.7757 35.6258L46.7814 34.9331L43.8629 35.2031Z" fill="#8CDBFF"/>
</svg>
