<svg width="48" height="48" viewBox="0 0 48 48" fill="none" xmlns="http://www.w3.org/2000/svg">
<path fill-rule="evenodd" clip-rule="evenodd" d="M10 8.25003C6.82439 8.25003 4.25003 10.8244 4.25003 14V34C4.25003 37.1757 6.82439 39.75 10 39.75H24V36.25H10C8.75739 36.25 7.75003 35.2427 7.75003 34V14C7.75003 12.7574 8.75739 11.75 10 11.75H15.5678C16.0887 11.75 16.5935 11.9308 16.996 12.2614L21.7825 16.1932C22.8111 17.0382 24.1011 17.5 25.4323 17.5H38C38.9797 17.5 39.8131 18.1261 40.122 19H43.7016C43.334 16.1788 40.9215 14 38 14H25.4323C24.9114 14 24.4066 13.8193 24.0041 13.4887L19.2175 9.55685C18.1889 8.7119 16.899 8.25003 15.5678 8.25003H10Z" fill="#3D4653"/>
<path fill-rule="evenodd" clip-rule="evenodd" d="M37.5 22C34.9804 22.0008 32.5643 23.0021 30.7829 24.7838C29.0014 26.5654 28.0004 28.9814 28 31.5008C28.0008 34.0199 29.002 36.4356 30.7834 38.2168C32.5648 39.9981 34.9807 40.9992 37.5 41C40.0193 40.9992 42.4352 39.9981 44.2166 38.2168C45.998 36.4356 46.9992 34.0199 47 31.5008C46.9996 28.9817 45.9988 26.5659 44.2177 24.7843C42.4366 23.0028 40.0193 22.0013 37.5 22ZM37.5 39.0979C36.5018 39.0983 35.5134 38.9021 34.5911 38.5204C33.6688 38.1387 32.8308 37.579 32.1249 36.8733C31.4191 36.1677 30.8592 35.3298 30.4772 34.4077C30.0953 33.4856 29.8988 32.4973 29.899 31.4992C29.899 29.741 30.4985 28.1266 31.5056 26.8447L42.1549 37.4931C40.828 38.5366 39.1881 39.1009 37.5 39.0979ZM43.4944 36.1537L32.8451 25.5053C34.172 24.4618 35.8119 23.8959 37.5 23.8989C38.4982 23.8987 39.4866 24.0951 40.4088 24.477C41.331 24.8589 42.1689 25.4188 42.8746 26.1246C43.5803 26.8304 44.14 27.6684 44.5218 28.5906C44.9035 29.5128 45.0998 30.5011 45.0994 31.4992C45.0994 33.2574 44.5015 34.8718 43.4944 36.1537Z" fill="#5B6071" stroke="#5B6071"/>
</svg>
