<svg width="48" height="48" viewBox="0 0 48 48" fill="none" xmlns="http://www.w3.org/2000/svg">
<path fill-rule="evenodd" clip-rule="evenodd" d="M10 8.25C6.82436 8.25 4.25 10.8244 4.25 14V34C4.25 37.1756 6.82436 39.75 10 39.75H24V36.25H10C8.75736 36.25 7.75 35.2426 7.75 34V14C7.75 12.7574 8.75736 11.75 10 11.75H15.5678C16.0887 11.75 16.5934 11.9307 16.9959 12.2614L21.7825 16.1932C22.8111 17.0381 24.1011 17.5 25.4322 17.5H38C38.5358 17.5 39.0279 17.6873 39.4143 18H43.4788C42.7385 15.6801 40.5654 14 38 14H25.4322C24.9113 14 24.4066 13.8193 24.0041 13.4886L19.2175 9.55682C18.1889 8.71187 16.8989 8.25 15.5678 8.25H10Z" fill="#3D4653"/>
<path fill-rule="evenodd" clip-rule="evenodd" d="M36.5015 20C34.9265 19.9999 33.3762 20.3915 31.9903 21.1395C30.6043 21.8876 29.4261 22.9686 28.5618 24.2852L29.1716 24.2971C30.1682 24.2971 31.7076 24.1781 31.7076 24.1781C32.2178 24.1439 32.2832 24.895 31.7745 24.9604L30.6768 25.0735L34.1425 35.3365L36.2218 29.1043L34.7404 25.0735L33.7319 24.9604C33.2337 24.9277 33.2887 24.1439 33.7989 24.1781L36.2992 24.2971C37.2957 24.2971 38.8367 24.1781 38.8367 24.1781C39.3454 24.1439 39.4153 24.895 38.8947 24.9604L37.8089 25.0735L41.2403 35.2577L42.1922 32.0925C42.5894 30.7761 42.9121 29.8331 42.9121 29.0255C42.9121 27.84 42.4912 27.0309 42.1238 26.4002C41.6479 25.6238 41.1942 24.9634 41.1942 24.1766C41.1942 23.302 41.862 22.4944 42.7917 22.4944H42.9121C41.1623 20.8905 38.8751 20.0006 36.5015 20ZM44.8398 24.9411L44.9053 25.9258C44.9053 26.8896 44.7149 27.9724 44.1735 29.323L41.273 37.7044C42.7105 36.871 43.9037 35.6746 44.7333 34.235C45.5629 32.7953 45.9997 31.163 46 29.5015C46.0035 27.9079 45.6045 26.3392 44.8398 24.9411ZM27.8181 25.6283C27.2812 26.8497 27.0027 28.1688 27 29.5029C26.9985 31.2874 27.5007 33.0361 28.4487 34.548C29.3967 36.0599 30.7521 37.2735 32.3591 38.0495L27.8181 25.6283ZM36.6681 30.3329L33.8212 38.6177C34.6913 38.8747 35.5942 39.0034 36.5015 38.9999C37.5772 39.0039 38.6456 38.8218 39.6592 38.4615L39.5893 38.3261L36.6681 30.3329Z" fill="#5B6071"/>
</svg>
