<svg width="48" height="48" viewBox="0 0 48 48" fill="none" xmlns="http://www.w3.org/2000/svg">
<path fill-rule="evenodd" clip-rule="evenodd" d="M10 8.25C6.82436 8.25 4.25 10.8244 4.25 14V34C4.25 37.1756 6.82436 39.75 10 39.75H22V36.25H10C8.75736 36.25 7.75 35.2426 7.75 34V14C7.75 12.7574 8.75736 11.75 10 11.75H15.5678C16.0887 11.75 16.5934 11.9307 16.9959 12.2614L21.7825 16.1932C22.8111 17.0381 24.1011 17.5 25.4322 17.5H38C39.2426 17.5 40.25 18.5074 40.25 19.75V20H43.75V19.75C43.75 16.5744 41.1756 14 38 14H25.4322C24.9113 14 24.4066 13.8193 24.0041 13.4886L19.2175 9.55682C18.1889 8.71187 16.8989 8.25 15.5678 8.25H10Z" fill="#3D4653"/>
<path fill-rule="evenodd" clip-rule="evenodd" d="M38 22L30 25.6362V31.0898C30 36.1363 33.4127 40.854 38 42C42.5873 40.854 46 36.1363 46 31.0898V25.6362L38 22ZM38 25.6362C38.7071 25.6362 39.3853 25.9235 39.8853 26.4349C40.3853 26.9463 40.6662 27.6398 40.6662 28.363C40.6662 29.0862 40.3853 29.7798 39.8853 30.2911C39.3853 30.8025 38.7071 31.0898 38 31.0898C37.2929 31.0898 36.6147 30.8025 36.1147 30.2911C35.6147 29.7798 35.3338 29.0862 35.3338 28.363C35.3338 27.6398 35.6147 26.9463 36.1147 26.4349C36.6147 25.9235 37.2929 25.6362 38 25.6362ZM42.5603 36.5449C41.4833 38.2312 39.8738 39.4891 38 40.1089C36.1263 39.489 34.5168 38.2311 33.4397 36.5449C33.1431 36.1052 32.8842 35.64 32.6662 35.1546C32.6662 33.6537 35.0755 32.4263 38 32.4263C40.9245 32.4263 43.3323 33.6276 43.3323 35.1546C43.1205 35.6355 42.8622 36.0917 42.5603 36.5449Z" fill="#5B6071"/>
</svg>
