<svg width="48" height="48" viewBox="0 0 48 48" fill="none" xmlns="http://www.w3.org/2000/svg">
<path fill-rule="evenodd" clip-rule="evenodd" d="M10 8.25C6.82436 8.25 4.25 10.8244 4.25 14V34C4.25 37.1756 6.82436 39.75 10 39.75H22V36.25H10C8.75736 36.25 7.75 35.2426 7.75 34V14C7.75 12.7574 8.75736 11.75 10 11.75H15.5678C16.0887 11.75 16.5934 11.9307 16.9959 12.2614L21.7825 16.1932C22.8111 17.0381 24.1011 17.5 25.4322 17.5H38C39.2426 17.5 40.25 18.5074 40.25 19.75V20H43.75V19.75C43.75 16.5744 41.1756 14 38 14H25.4322C24.9113 14 24.4066 13.8193 24.0041 13.4886L19.2175 9.55682C18.1889 8.71187 16.8989 8.25 15.5678 8.25H10Z" fill="#3D4653"/>
<path fill-rule="evenodd" clip-rule="evenodd" d="M46 28.0005V25.9993H44V23.9996C44 22.9 43.1 22 42 22H28C26.9 22 26 22.9 26 23.9996V38.0004C26 39.1 26.9 40 28 40H42C43.1 40 44 39.1 44 38.0004V36.0007H46V33.9995H44V31.9998H46V30.0018H44V28.0022L46 28.0005ZM42 37.9987H28V23.9996H42V37.9987ZM30 31.9998H35V36.0007H30V31.9998ZM36 25.9993H40V29.0004H36V25.9993ZM30 25.9993H35V31H30V25.9993ZM36 30.0002H40V36.0007H36V30.0002Z" fill="#5B6071"/>
</svg>
