<svg width="48" height="48" viewBox="0 0 48 48" fill="none" xmlns="http://www.w3.org/2000/svg">
<path fill-rule="evenodd" clip-rule="evenodd" d="M10 8.25003C6.82439 8.25003 4.25003 10.8244 4.25003 14V34C4.25003 37.1757 6.82439 39.75 10 39.75H26V36.25H10C8.75739 36.25 7.75003 35.2427 7.75003 34V14C7.75003 12.7574 8.75739 11.75 10 11.75H15.5678C16.0887 11.75 16.5935 11.9308 16.996 12.2614L21.7825 16.1932C22.8111 17.0382 24.1011 17.5 25.4323 17.5H38C39.2427 17.5 40.25 18.5074 40.25 19.75V20H43.75V19.75C43.75 16.5744 41.1757 14 38 14H25.4323C24.9114 14 24.4066 13.8193 24.0041 13.4887L19.2175 9.55685C18.1889 8.7119 16.899 8.25003 15.5678 8.25003H10Z" fill="#3D4653"/>
<path d="M35.125 24.375C35.125 23.0633 36.1883 22 37.5 22C38.8117 22 39.875 23.0633 39.875 24.375V38.625C39.875 39.9367 38.8117 41 37.5 41C36.1883 41 35.125 39.9367 35.125 38.625V24.375Z" fill="#5B6071"/>
<path d="M30.375 33.875C29.0633 33.875 28 32.8117 28 31.5C28 30.1883 29.0633 29.125 30.375 29.125H44.625C45.9367 29.125 47 30.1883 47 31.5C47 32.8117 45.9367 33.875 44.625 33.875H30.375Z" fill="#5B6071"/>
</svg>
