<svg width="48" height="48" viewBox="0 0 48 48" fill="none" xmlns="http://www.w3.org/2000/svg">
<path fill-rule="evenodd" clip-rule="evenodd" d="M10 8.25C6.82436 8.25 4.25 10.8244 4.25 14V34C4.25 37.1756 6.82436 39.75 10 39.75H22V36.25H10C8.75736 36.25 7.75 35.2426 7.75 34V14C7.75 12.7574 8.75736 11.75 10 11.75H15.5678C16.0887 11.75 16.5934 11.9307 16.9959 12.2614L21.7825 16.1932C22.8111 17.0381 24.1011 17.5 25.4322 17.5H38C38.9797 17.5 39.8131 18.1261 40.122 19H43.7015C43.334 16.1787 40.9214 14 38 14H25.4322C24.9113 14 24.4066 13.8193 24.0041 13.4886L19.2175 9.55682C18.1889 8.71187 16.8989 8.25 15.5678 8.25H10Z" fill="#3D4653"/>
<path fill-rule="evenodd" clip-rule="evenodd" d="M33.959 36.3375L29.7367 32.3372L31.2254 30.9267L33.959 33.508L40.9147 26.9178L42.4034 28.3386M36.0701 22.3381C36.35 22.3381 36.6185 22.4434 36.8165 22.631C37.0144 22.8185 37.1256 23.0729 37.1256 23.3382C37.1256 23.6034 37.0144 23.8578 36.8165 24.0453C36.6185 24.2329 36.35 24.3382 36.0701 24.3382C35.7901 24.3382 35.5216 24.2329 35.3237 24.0453C35.1257 23.8578 35.0145 23.6034 35.0145 23.3382C35.0145 23.0729 35.1257 22.8185 35.3237 22.631C35.5216 22.4434 35.7901 22.3381 36.0701 22.3381ZM43.459 22.3381H39.0456C38.6034 21.1776 37.4423 20.3379 36.0701 20.3379C34.6978 20.3379 33.5367 21.1776 33.0927 22.3381H28.6812C28.1213 22.3381 27.5843 22.5488 27.1884 22.9239C26.7925 23.299 26.5701 23.8078 26.5701 24.3382V38.3377C26.5701 38.6004 26.6247 38.8605 26.7308 39.1032C26.8369 39.3458 26.9924 39.5663 27.1884 39.7521C27.3844 39.9378 27.6172 40.0851 27.8733 40.1856C28.1294 40.2862 28.4039 40.3379 28.6812 40.3379H43.459C43.7362 40.3379 44.0107 40.2862 44.2668 40.1856C44.523 40.0851 44.7557 39.9378 44.9517 39.7521C45.1478 39.5663 45.3033 39.3458 45.4094 39.1032C45.5155 38.8605 45.5701 38.6004 45.5701 38.3377V24.3365C45.5701 23.806 45.3476 23.2973 44.9517 22.9222C44.5558 22.5471 44.0189 22.3363 43.459 22.3363V22.3381Z" fill="#5B6071"/>
</svg>
