<svg width="48" height="48" viewBox="0 0 48 48" fill="none" xmlns="http://www.w3.org/2000/svg">
<path fill-rule="evenodd" clip-rule="evenodd" d="M10 8.25003C6.82436 8.25003 4.25 10.8244 4.25 14V34C4.25 37.1757 6.82436 39.75 10 39.75H26V36.25H10C8.75736 36.25 7.75 35.2427 7.75 34V14C7.75 12.7574 8.75736 11.75 10 11.75H15.5678C16.0887 11.75 16.5934 11.9308 16.9959 12.2614L21.7825 16.1932C22.8111 17.0382 24.1011 17.5 25.4322 17.5H38C39.2426 17.5 40.25 18.5074 40.25 19.75V20H43.75V19.75C43.75 16.5744 41.1756 14 38 14H25.4322C24.9113 14 24.4066 13.8193 24.0041 13.4887L19.2175 9.55685C18.1889 8.7119 16.8989 8.25003 15.5678 8.25003H10Z" fill="#3D4653"/>
<path fill-rule="evenodd" clip-rule="evenodd" d="M35.467 22C34.7464 22 34.0553 22.2863 33.5458 22.7958C33.0363 23.3053 32.75 23.9964 32.75 24.717V26.313H36.8255C37.196 26.313 37.5 26.8545 37.5 27.225H30.717C29.9964 27.225 29.3053 27.5113 28.7958 28.0208C28.2863 28.5303 28 29.2214 28 29.942V33.5349C28 35.0359 29.216 36.25 30.717 36.25H31.838V33.704C31.8367 33.3476 31.9059 32.9946 32.0414 32.665C32.1769 32.3354 32.3761 32.0358 32.6276 31.7834C32.8792 31.5309 33.1781 31.3307 33.5072 31.194C33.8363 31.0573 34.1891 30.987 34.5455 30.987H39.533C39.8894 30.9883 40.2424 30.9191 40.572 30.7836C40.9016 30.6481 41.2012 30.4489 41.4536 30.1974C41.7061 29.9458 41.9063 29.6469 42.043 29.3178C42.1797 28.9887 42.25 28.6359 42.25 28.2795V24.717C42.25 23.9964 41.9637 23.3053 41.4542 22.7958C40.9447 22.2863 40.2536 22 39.533 22H35.467ZM34.783 23.5295C35.163 23.5295 35.467 23.6445 35.467 24.205C35.467 24.7655 35.163 25.0504 34.783 25.0504C34.4125 25.0504 34.1085 24.7655 34.1085 24.205C34.1085 23.6445 34.4125 23.5295 34.783 23.5295Z" fill="#5B6071"/>
<path fill-rule="evenodd" clip-rule="evenodd" d="M43.161 26.75V29.296C43.1623 29.6524 43.0932 30.0054 42.9577 30.335C42.8222 30.6646 42.6229 30.9642 42.3714 31.2166C42.1199 31.4691 41.821 31.6693 41.4919 31.806C41.1628 31.9427 40.8099 32.013 40.4536 32.013H35.467C35.1108 32.0118 34.7579 32.0808 34.4284 32.2162C34.0989 32.3516 33.7994 32.5506 33.547 32.802C33.2946 33.0533 33.0943 33.352 32.9575 33.6809C32.8208 34.0098 32.7502 34.3624 32.75 34.7186V38.2811C32.7498 38.6381 32.8198 38.9916 32.9563 39.3214C33.0927 39.6513 33.2928 39.951 33.5451 40.2035C33.7974 40.456 34.097 40.6563 34.4268 40.793C34.7566 40.9297 35.11 41 35.467 41H39.533C39.8899 41 40.2433 40.9297 40.573 40.7931C40.9027 40.6565 41.2022 40.4563 41.4545 40.2039C41.7069 39.9515 41.907 39.6518 42.0435 39.3221C42.1799 38.9923 42.2501 38.6389 42.25 38.282V36.686H38.1735C37.8031 36.686 37.5 36.1455 37.5 35.775H44.283C44.6399 35.775 44.9933 35.7047 45.323 35.5681C45.6527 35.4315 45.9522 35.2313 46.2045 34.9789C46.4569 34.7265 46.657 34.4268 46.7935 34.0971C46.9299 33.7673 47.0001 33.4139 47 33.057V29.4661C46.9997 28.7456 46.7134 28.0548 46.2039 27.5455C45.6944 27.0361 45.0034 26.75 44.283 26.75H43.161ZM34.004 31.0383L34.0002 31.0421C34.0116 31.0393 34.024 31.0402 34.0363 31.0383H34.004ZM40.217 37.9495C40.5875 37.9495 40.8915 38.2346 40.8915 38.7951C40.8915 38.8836 40.8741 38.9713 40.8402 39.0532C40.8063 39.135 40.7566 39.2094 40.6939 39.272C40.6313 39.3346 40.557 39.3843 40.4751 39.4182C40.3933 39.4521 40.3056 39.4695 40.217 39.4695C39.837 39.4695 39.533 39.3556 39.533 38.7951C39.533 38.2346 39.837 37.9495 40.217 37.9495Z" fill="#5B6071"/>
</svg>
