<svg width="48" height="48" viewBox="0 0 48 48" fill="none" xmlns="http://www.w3.org/2000/svg">
<path fill-rule="evenodd" clip-rule="evenodd" d="M10 8.25003C6.82439 8.25003 4.25003 10.8244 4.25003 14V34C4.25003 37.1757 6.82439 39.75 10 39.75H24V36.25H10C8.75739 36.25 7.75003 35.2427 7.75003 34V14C7.75003 12.7574 8.75739 11.75 10 11.75H15.5678C16.0887 11.75 16.5935 11.9308 16.996 12.2614L21.7825 16.1932C22.8111 17.0382 24.1011 17.5 25.4323 17.5H38C39.2427 17.5 40.25 18.5074 40.25 19.75V20H43.75V19.75C43.75 16.5744 41.1757 14 38 14H25.4323C24.9114 14 24.4066 13.8193 24.0041 13.4887L19.2175 9.55685C18.1889 8.7119 16.899 8.25003 15.5678 8.25003H10Z" fill="#3D4653"/>
<path fill-rule="evenodd" clip-rule="evenodd" d="M41.4828 32.5349L47 37.845L43.7456 40.9612L38.2684 35.6512V34.7767L40.5808 32.5349H41.4828ZM42.3751 30.1318L41.4236 29.2202L36.73 33.7783V35.6512L31.2128 41L28 37.845L33.4772 32.5349H35.4075L36.1719 31.7938L32.409 28.1364H31.136L28.3822 25.4388L30.9489 22.9504L33.6931 25.6093V26.8543L37.504 30.5023L40.1107 27.9752L39.1704 27.0155L40.4433 25.7705H37.8366L37.2002 25.1535L40.4433 22L41.091 22.6264V25.1535L42.3751 23.8992L45.5895 27.0155C46.6562 28.0605 46.6562 29.7597 45.5895 30.7969L43.6577 28.8868L42.3751 30.1318Z" fill="#5B6071"/>
</svg>
