<svg width="48" height="48" viewBox="0 0 48 48" fill="none" xmlns="http://www.w3.org/2000/svg">
<path fill-rule="evenodd" clip-rule="evenodd" d="M10 8.25003C6.82439 8.25003 4.25003 10.8244 4.25003 14V34C4.25003 37.1757 6.82439 39.75 10 39.75H24V36.25H10C8.75739 36.25 7.75003 35.2427 7.75003 34V14C7.75003 12.7574 8.75739 11.75 10 11.75H15.5678C16.0887 11.75 16.5935 11.9308 16.996 12.2614L21.7825 16.1932C22.8111 17.0382 24.1011 17.5 25.4323 17.5H38C39.2427 17.5 40.25 18.5074 40.25 19.75V20H43.75V19.75C43.75 16.5744 41.1757 14 38 14H25.4323C24.9114 14 24.4066 13.8193 24.0041 13.4887L19.2175 9.55685C18.1889 8.7119 16.899 8.25003 15.5678 8.25003H10Z" fill="#3D4653"/>
<path d="M44.9732 26.2551L38.0182 22.2711C37.3884 21.9096 36.6144 21.9096 35.9846 22.2711L29.0297 26.2551C28.6284 26.4851 28.3242 26.8394 28.1528 27.2551C28.0528 27.4979 28 27.7608 28 28.0322V35.9703C28 36.7046 28.3799 37.3145 29.0168 37.6802L30.0022 38.2416L30.0322 28.9293C30.0322 28.7321 30.0751 28.5279 30.1422 28.3493C30.2736 28.0265 30.5163 27.7322 30.8291 27.5536L36.2145 24.4695C36.703 24.1895 37.3013 24.1895 37.7897 24.4695L43.1752 27.5536C43.5508 27.7693 43.8178 28.1265 43.9221 28.535C43.9549 28.6621 43.9721 28.7936 43.9721 28.9293V35.0761C43.9721 35.6446 43.6679 36.1689 43.1752 36.4517L37.7897 39.5358C37.5441 39.6773 37.2699 39.7458 36.9957 39.7444V42C37.347 42 37.7012 41.91 38.0154 41.73L44.9703 37.7459C45.6073 37.3817 46 36.7031 46 35.9689V28.0322C46 27.8436 45.9743 27.6593 45.9243 27.4836C45.7858 26.9708 45.4459 26.5265 44.9732 26.2551Z" fill="#5B6071"/>
<path d="M37.5657 37.4031L41.4288 35.1904C41.7829 34.9875 42 34.6118 42 34.2033V29.7964C42 29.7035 41.9886 29.6135 41.9672 29.525C41.8943 29.2264 41.7015 28.9664 41.4288 28.8093L37.5657 26.598C37.2158 26.398 36.786 26.398 36.4361 26.598L32.5744 28.8093C32.3317 28.9493 32.1517 29.1707 32.0632 29.4264C32.026 29.5421 32.0018 29.6721 32.0018 29.7964L31.9875 39.3616L34.0483 40.5187V36.0361L36.4361 37.4031C36.6074 37.5017 36.7988 37.5517 36.9902 37.5531C37.1887 37.556 37.3872 37.506 37.5657 37.4031ZM34.3724 33.8947C34.1625 33.7747 34.0326 33.5505 34.0326 33.3091V30.6921C34.0326 30.6121 34.0468 30.5349 34.0725 30.4621C34.1268 30.3135 34.2311 30.1864 34.3724 30.1064L36.666 28.7936C36.8731 28.675 37.1287 28.675 37.3372 28.7936L39.6308 30.1064C39.7993 30.2035 39.9164 30.3664 39.955 30.5521C39.9621 30.5921 39.9692 30.6506 39.9692 30.6921V33.3091C39.9692 33.5505 39.8393 33.7747 39.6293 33.8947L37.3358 35.2075C37.2315 35.2675 37.1159 35.2975 37.0002 35.2975C36.8845 35.2975 36.7688 35.2675 36.6646 35.209L34.3724 33.8947Z" fill="#5B6071"/>
</svg>
