<svg width="48" height="48" viewBox="0 0 48 48" fill="none" xmlns="http://www.w3.org/2000/svg">
<path fill-rule="evenodd" clip-rule="evenodd" d="M10 8.25C6.82439 8.25 4.25003 10.8244 4.25003 14V34C4.25003 37.1756 6.82439 39.75 10 39.75H30V36.25H10C8.75739 36.25 7.75003 35.2426 7.75003 34V14C7.75003 12.7574 8.75739 11.75 10 11.75H15.5678C16.0887 11.75 16.5935 11.9307 16.996 12.2614L21.7825 16.1932C22.8111 17.0381 24.1011 17.5 25.4323 17.5H38C39.2427 17.5 40.25 18.5074 40.25 19.75V21H43.75V19.75C43.75 16.5744 41.1757 14 38 14H25.4323C24.9114 14 24.4066 13.8193 24.0041 13.4886L19.2175 9.55682C18.1889 8.71187 16.899 8.25 15.5678 8.25H10Z" fill="#3D4653"/>
<path d="M34 23.5556C34 22.6964 34.9402 22 36.1 22H37.9C39.0598 22 40 22.6964 40 23.5556V33.7778C40 34.6369 39.0598 35.3333 37.9 35.3333H36.1C34.9402 35.3333 34 34.6369 34 33.7778V23.5556Z" fill="#5B6071"/>
<path d="M34 38.6667C34 38.053 34.6716 37.5556 35.5 37.5556H38.5C39.3284 37.5556 40 38.053 40 38.6667V40.8889C40 41.5025 39.3284 42 38.5 42H35.5C34.6716 42 34 41.5025 34 40.8889V38.6667Z" fill="#5B6071"/>
</svg>
