<svg width="48" height="48" viewBox="0 0 48 48" fill="none" xmlns="http://www.w3.org/2000/svg">
<path fill-rule="evenodd" clip-rule="evenodd" d="M10 8.25003C6.82439 8.25003 4.25003 10.8244 4.25003 14V34C4.25003 37.1757 6.82439 39.75 10 39.75H24V36.25H10C8.75739 36.25 7.75003 35.2427 7.75003 34V14C7.75003 12.7574 8.75739 11.75 10 11.75H15.5678C16.0887 11.75 16.5935 11.9308 16.996 12.2614L21.7825 16.1932C22.8111 17.0382 24.1011 17.5 25.4323 17.5H38C39.2427 17.5 40.25 18.5074 40.25 19.75V20H43.75V19.75C43.75 16.5744 41.1757 14 38 14H25.4323C24.9114 14 24.4066 13.8193 24.0041 13.4887L19.2175 9.55685C18.1889 8.7119 16.899 8.25003 15.5678 8.25003H10Z" fill="#3D4653"/>
<path fill-rule="evenodd" clip-rule="evenodd" d="M29.8997 25.7993H28V39.0986C28 40.145 28.855 41 29.8997 41H43.199V39.097H29.8997V25.7993ZM45.1003 22H33.699C32.6543 22 31.7993 22.855 31.7993 23.8997V35.2993C31.7993 36.344 32.6543 37.199 33.699 37.199H45.1003C46.145 37.199 47 36.344 47 35.2993V23.8997C47 22.855 46.145 22 45.1003 22ZM44.1505 30.5502H34.6505V28.6488H44.1488L44.1505 30.5502ZM40.3495 34.3495H34.6522V32.4498H40.3512L40.3495 34.3495ZM44.1505 26.7492H34.6505V24.8495H44.1488L44.1505 26.7492Z" fill="#5B6071"/>
</svg>
