<svg width="48" height="48" viewBox="0 0 48 48" fill="none" xmlns="http://www.w3.org/2000/svg">
<path fill-rule="evenodd" clip-rule="evenodd" d="M10 8.25C6.82439 8.25 4.25003 10.8244 4.25003 14V34C4.25003 37.1756 6.82439 39.75 10 39.75H27V36.25H10C8.75739 36.25 7.75003 35.2426 7.75003 34V14C7.75003 12.7574 8.75739 11.75 10 11.75H15.5678C16.0887 11.75 16.5935 11.9307 16.996 12.2614L21.7825 16.1932C22.8111 17.0381 24.1011 17.5 25.4323 17.5H38C38.9797 17.5 39.8131 18.1261 40.122 19H43.7016C43.334 16.1787 40.9215 14 38 14H25.4323C24.9114 14 24.4066 13.8193 24.0041 13.4886L19.2175 9.55682C18.1889 8.71187 16.899 8.25 15.5678 8.25H10Z" fill="#3D4653"/>
<path fill-rule="evenodd" clip-rule="evenodd" d="M34.1209 36.9689C33.8836 34.928 33.6561 32.8862 33.4385 30.8436C33.4404 30.7925 33.1176 30.751 32.7211 30.751H32V28.3743H37.6288V23.7648L40.2845 22.3832C41.902 21.5399 43.0916 21 43.3276 21C43.8938 21 44.5559 21.6229 44.5559 22.1548C44.5559 22.3864 44.4748 22.6723 44.3752 22.7905C44.2774 22.9071 43.3516 23.4405 42.3188 23.9772L40.4432 24.9515L40.4026 26.6621L40.362 28.3743H46V30.7494H44.6094L43.9086 36.8747L43.2041 43H34.8089L34.1209 36.9689Z" fill="#5B6071"/>
</svg>
