<svg width="48" height="48" viewBox="0 0 48 48" fill="none" xmlns="http://www.w3.org/2000/svg">
<path fill-rule="evenodd" clip-rule="evenodd" d="M10 8.25C6.82436 8.25 4.25 10.8244 4.25 14V34C4.25 37.1756 6.82436 39.75 10 39.75H22V36.25H10C8.75736 36.25 7.75 35.2426 7.75 34V14C7.75 12.7574 8.75736 11.75 10 11.75H15.5678C16.0887 11.75 16.5934 11.9307 16.9959 12.2614L21.7825 16.1932C22.8111 17.0381 24.1011 17.5 25.4322 17.5H38C39.2426 17.5 40.25 18.5074 40.25 19.75V20H43.75V19.75C43.75 16.5744 41.1756 14 38 14H25.4322C24.9113 14 24.4066 13.8193 24.0041 13.4886L19.2175 9.55682C18.1889 8.71187 16.8989 8.25 15.5678 8.25H10Z" fill="#3D4653"/>
<path fill-rule="evenodd" clip-rule="evenodd" d="M29.5625 28.3333H41.4375C43.405 28.3333 45 29.88 45 31.7879V37.5454C45 39.4534 43.405 41 41.4375 41H29.5625C27.595 41 26 39.4534 26 37.5454V31.7879C26 29.88 27.595 28.3333 29.5625 28.3333ZM29.5625 30.6363C28.9068 30.6363 28.3749 31.152 28.3749 31.7879V37.5454C28.3749 38.1816 28.9068 38.697 29.5625 38.697H41.4375C42.0935 38.697 42.6251 38.1816 42.6251 37.5454V31.7879C42.6251 31.152 42.0935 30.6363 41.4375 30.6363H29.5625Z" fill="#5B6071"/>
<path fill-rule="evenodd" clip-rule="evenodd" d="M40.0059 24.0388C39.0407 22.6456 37.2739 22.079 35.8727 22.0081C34.3941 21.9332 32.4944 22.3625 31.2621 23.9432C30.7397 24.6133 30.5199 25.4289 30.4067 26.0405C30.2834 26.7061 30.2349 27.4343 30.2245 28.1386C30.2133 28.8907 30.2448 29.6819 30.298 30.4444H32.4146C32.2595 28.344 32.2749 26.078 32.927 25.2413C34.263 23.5274 37.3801 23.9559 38.2708 25.2413C38.7166 25.8847 38.716 28.2464 38.6043 30.4444H40.7182C40.7594 29.6012 40.7851 28.7269 40.7759 27.9218C40.7683 27.2522 40.7366 26.5802 40.6581 25.9909C40.5953 25.5188 40.4604 24.6945 40.0059 24.0388Z" fill="#5B6071"/>
</svg>
