<svg width="48" height="48" viewBox="0 0 48 48" fill="none" xmlns="http://www.w3.org/2000/svg">
<path fill-rule="evenodd" clip-rule="evenodd" d="M10 8.25C6.82436 8.25 4.25 10.8244 4.25 14V34C4.25 37.1756 6.82436 39.75 10 39.75H24V36.25H10C8.75736 36.25 7.75 35.2426 7.75 34V14C7.75 12.7574 8.75736 11.75 10 11.75H15.5678C16.0887 11.75 16.5934 11.9307 16.9959 12.2614L21.7825 16.1932C22.8111 17.0381 24.1011 17.5 25.4322 17.5H38C38.9797 17.5 39.8131 18.1261 40.122 19H43.7015C43.334 16.1787 40.9214 14 38 14H25.4322C24.9113 14 24.4066 13.8193 24.0041 13.4886L19.2175 9.55682C18.1889 8.71187 16.8989 8.25 15.5678 8.25H10Z" fill="#3D4653"/>
<path fill-rule="evenodd" clip-rule="evenodd" d="M48 35.95C48.0006 36.1494 47.946 36.3452 47.8421 36.516C47.7383 36.6868 47.589 36.8262 47.4108 36.9189L38.6319 41.8022C38.456 41.9341 38.2323 42 38 42C37.7677 42 37.544 41.9341 37.3681 41.8022L28.5892 36.9189C28.411 36.8262 28.2617 36.6868 28.1579 36.516C28.054 36.3452 27.9994 36.1494 28 35.95V26.05C28 25.6323 28.2323 25.2688 28.5892 25.0811L37.3681 20.1978C37.544 20.0659 37.766 20 38 20C38.234 20 38.456 20.0659 38.6319 20.1978L47.4108 25.0811C47.5888 25.1741 47.7378 25.3135 47.8416 25.4843C47.9455 25.655 48.0002 25.8506 48 26.05V35.95ZM38 22.3655L31.3766 26.05L38 29.7361L44.6217 26.05L38 22.3638M30.222 35.3007L36.8881 39.019V31.6383L30.222 27.9302V35.3007ZM45.778 35.3024V27.9302L39.1102 31.6383V39.019L45.778 35.3024Z" fill="#5B6071"/>
</svg>
