<svg width="48" height="48" viewBox="0 0 48 48" fill="none" xmlns="http://www.w3.org/2000/svg">
<path fill-rule="evenodd" clip-rule="evenodd" d="M10 8.25C6.82436 8.25 4.25 10.8244 4.25 14V34C4.25 37.1756 6.82436 39.75 10 39.75H26V36.25H10C8.75736 36.25 7.75 35.2426 7.75 34V14C7.75 12.7574 8.75736 11.75 10 11.75H15.5678C16.0887 11.75 16.5934 11.9307 16.9959 12.2614L21.7825 16.1932C22.8111 17.0381 24.1011 17.5 25.4322 17.5H38C39.2426 17.5 40.25 18.5074 40.25 19.75V20H43.75V19.75C43.75 16.5744 41.1756 14 38 14H25.4322C24.9113 14 24.4066 13.8193 24.0041 13.4886L19.2175 9.55682C18.1889 8.71187 16.8989 8.25 15.5678 8.25H10Z" fill="#3D4653"/>
<path fill-rule="evenodd" clip-rule="evenodd" d="M29.0562 22H45.9438C46.2236 22 46.492 22.0908 46.69 22.2526C46.888 22.4143 46.9995 22.6338 47 22.8627V26.3179C47 26.5471 46.8887 26.7669 46.6907 26.929C46.4926 27.091 46.224 27.1821 45.9438 27.1821H29.0562C28.776 27.1821 28.5074 27.091 28.3093 26.929C28.1113 26.7669 28 26.5471 28 26.3179V22.8627C28.0005 22.6338 28.112 22.4143 28.31 22.2526C28.508 22.0908 28.7764 22 29.0562 22ZM29.0562 28.909H45.9438C46.0825 28.909 46.2199 28.9313 46.348 28.9747C46.4762 29.0182 46.5926 29.0818 46.6907 29.1621C46.7887 29.2423 46.8665 29.3376 46.9196 29.4424C46.9727 29.5473 47 29.6596 47 29.7731V33.2269C47 33.4561 46.8887 33.6759 46.6907 33.8379C46.4926 34 46.224 34.091 45.9438 34.091H29.0562C28.776 34.091 28.5074 34 28.3093 33.8379C28.1113 33.6759 28 33.4561 28 33.2269V29.7731C28 29.6596 28.0273 29.5473 28.0804 29.4424C28.1335 29.3376 28.2113 29.2423 28.3093 29.1621C28.4074 29.0818 28.5238 29.0182 28.652 28.9747C28.7801 28.9313 28.9175 28.909 29.0562 28.909ZM29.0562 35.8179H45.9438C46.224 35.8179 46.4926 35.909 46.6907 36.071C46.8887 36.2331 47 36.4529 47 36.6821V40.1358C47 40.365 46.8887 40.5848 46.6907 40.7469C46.4926 40.909 46.224 41 45.9438 41H29.0562C28.776 41 28.5074 40.909 28.3093 40.7469C28.1113 40.5848 28 40.365 28 40.1358V36.6836C28 36.4544 28.1113 36.2346 28.3093 36.0725C28.5074 35.9104 28.776 35.8179 29.0562 35.8179ZM34.3333 25.4552H35.3895V23.7298H34.3333V25.4552ZM34.3333 32.3656H35.3895V30.6373H34.3333V32.3656ZM34.3333 39.2746H35.3895V37.5463H34.3333V39.2746ZM30.1123 23.7269V25.4537H32.221V23.7269H30.1123ZM30.1123 30.6358V32.3627H32.221V30.6373L30.1123 30.6358ZM30.1123 37.5463V39.2731H32.221V37.5477L30.1123 37.5463Z" fill="#5B6071"/>
</svg>
