<svg width="48" height="48" viewBox="0 0 48 48" fill="none" xmlns="http://www.w3.org/2000/svg">
<path fill-rule="evenodd" clip-rule="evenodd" d="M10 8.25C6.82436 8.25 4.25 10.8244 4.25 14V34C4.25 37.1756 6.82436 39.75 10 39.75H26V36.25H10C8.75736 36.25 7.75 35.2426 7.75 34V14C7.75 12.7574 8.75736 11.75 10 11.75H15.5678C16.0887 11.75 16.5934 11.9307 16.9959 12.2614L21.7825 16.1932C22.8111 17.0381 24.1011 17.5 25.4322 17.5H38C39.2426 17.5 40.25 18.5074 40.25 19.75V20H43.75V19.75C43.75 16.5744 41.1756 14 38 14H25.4322C24.9113 14 24.4066 13.8193 24.0041 13.4886L19.2175 9.55682C18.1889 8.71187 16.8989 8.25 15.5678 8.25H10Z" fill="#3D4653"/>
<path fill-rule="evenodd" clip-rule="evenodd" d="M37.3211 25.8349C37.3948 25.6874 37.6052 25.6874 37.6789 25.8349L43.4259 37.3356C43.4923 37.4686 43.3956 37.625 43.247 37.625H31.753C31.6044 37.625 31.5077 37.4686 31.5741 37.3356L37.3211 25.8349ZM38.1261 22.2522C37.8681 21.7363 37.1319 21.7363 36.8739 22.2522L28.5065 38.987C28.2738 39.4524 28.6123 40 29.1326 40H45.8674C46.3877 40 46.7262 39.4524 46.4935 38.9869L38.1261 22.2522Z" fill="#5B6071"/>
</svg>
