<svg width="48" height="48" viewBox="0 0 48 48" fill="none" xmlns="http://www.w3.org/2000/svg">
<path fill-rule="evenodd" clip-rule="evenodd" d="M10 8.5C6.82436 8.5 4.25 11.0744 4.25 14.25V34.25C4.25 37.4256 6.82436 40 10 40H24.35V36.5H10C8.75736 36.5 7.75 35.4926 7.75 34.25V14.25C7.75 13.0074 8.75736 12 10 12H15.5678C16.0887 12 16.5934 12.1807 16.9959 12.5114L21.7825 16.4432C22.8111 17.2881 24.1011 17.75 25.4322 17.75H38C39.2426 17.75 40.25 18.7574 40.25 20V20.25H43.75V20C43.75 16.8244 41.1756 14.25 38 14.25H25.4322C24.9113 14.25 24.4066 14.0693 24.0041 13.7386L19.2175 9.80682C18.1889 8.96187 16.8989 8.5 15.5678 8.5H10Z" fill="#3D4653"/>
<path d="M31.4444 34.2222L35.2934 40.8889H27.5954L31.4444 34.2222Z" fill="#5B6071"/>
<path d="M47 37.5556C47 40.0102 45.0102 42 42.5556 42C40.101 42 38.1111 40.0102 38.1111 37.5556C38.1111 35.101 40.101 33.1111 42.5556 33.1111C45.0102 33.1111 47 35.101 47 37.5556Z" fill="#5B6071"/>
<path d="M27 24.2222C27 22.9949 27.9949 22 29.2222 22H33.6667C34.894 22 35.8889 22.9949 35.8889 24.2222V28.6667C35.8889 29.894 34.894 30.8889 33.6667 30.8889H29.2222C27.9949 30.8889 27 29.894 27 28.6667V24.2222Z" fill="#5B6071"/>
<path d="M41.0168 23.9363C41.5454 22.5078 43.5658 22.5078 44.0943 23.9363C44.2605 24.3854 44.6146 24.7395 45.0637 24.9057C46.4922 25.4342 46.4922 27.4546 45.0637 27.9832C44.6146 28.1494 44.2605 28.5035 44.0943 28.9526C43.5658 30.3811 41.5454 30.3811 41.0168 28.9526C40.8506 28.5035 40.4965 28.1494 40.0474 27.9832C38.6189 27.4546 38.6189 25.4342 40.0474 24.9057C40.4965 24.7395 40.8506 24.3854 41.0168 23.9363Z" fill="#5B6071"/>
</svg>
