<svg width="48" height="48" viewBox="0 0 48 48" fill="none" xmlns="http://www.w3.org/2000/svg">
<g clip-path="url(#clip0_3475_11295)">
<path fill-rule="evenodd" clip-rule="evenodd" d="M10 8.25003C6.82439 8.25003 4.25003 10.8244 4.25003 14V34C4.25003 37.1757 6.82439 39.75 10 39.75H22V36.25H10C8.75739 36.25 7.75003 35.2427 7.75003 34V14C7.75003 12.7574 8.75739 11.75 10 11.75H15.5678C16.0887 11.75 16.5935 11.9308 16.996 12.2614L21.7825 16.1932C22.8111 17.0382 24.1011 17.5 25.4323 17.5H38C39.2427 17.5 40.25 18.5074 40.25 19.75V21H43.75V19.75C43.75 16.5744 41.1757 14 38 14H25.4323C24.9114 14 24.4066 13.8193 24.0041 13.4887L19.2175 9.55685C18.1889 8.7119 16.899 8.25003 15.5678 8.25003H10Z" fill="#3D4653"/>
<path fill-rule="evenodd" clip-rule="evenodd" d="M33.0434 26.2551C33.5515 27.2245 33.2499 28.464 32.3699 29.0237L24.9335 33.7529C24.0534 34.3125 22.928 33.9804 22.4199 33.011C21.9118 32.0416 22.2134 30.8021 23.0934 30.2424L30.5298 25.5132C31.4099 24.9536 32.5353 25.2857 33.0434 26.2551Z" fill="#5B6071"/>
<path fill-rule="evenodd" clip-rule="evenodd" d="M22.4202 30.9887C22.9283 30.0193 24.0537 29.6872 24.9337 30.2469L32.3701 34.976C33.2502 35.5357 33.5517 36.7752 33.0436 37.7446C32.5355 38.714 31.4102 39.0461 30.5301 38.4865L23.0937 33.7573C22.2136 33.1977 21.9121 31.9581 22.4202 30.9887Z" fill="#5B6071"/>
<path fill-rule="evenodd" clip-rule="evenodd" d="M47.5798 30.9887C47.0717 30.0193 45.9463 29.6872 45.0663 30.2469L37.6299 34.976C36.7498 35.5357 36.4483 36.7752 36.9564 37.7446C37.4645 38.714 38.5898 39.0461 39.4699 38.4865L46.9063 33.7573C47.7864 33.1977 48.0879 31.9581 47.5798 30.9887Z" fill="#5B6071"/>
<path fill-rule="evenodd" clip-rule="evenodd" d="M36.9566 26.2551C36.4485 27.2245 36.7501 28.464 37.6301 29.0237L45.0665 33.7529C45.9466 34.3125 47.072 33.9804 47.5801 33.011C48.0882 32.0416 47.7866 30.8021 46.9066 30.2424L39.4702 25.5132C38.5901 24.9536 37.4647 25.2857 36.9566 26.2551Z" fill="#5B6071"/>
</g>
<defs>
<clipPath id="clip0_3475_11295">
<rect width="48" height="48" fill="white"/>
</clipPath>
</defs>
</svg>
