<svg width="48" height="48" viewBox="0 0 48 48" fill="none" xmlns="http://www.w3.org/2000/svg">
<path fill-rule="evenodd" clip-rule="evenodd" d="M10 8.25C6.82436 8.25 4.25 10.8244 4.25 14V34C4.25 37.1756 6.82436 39.75 10 39.75H22V36.25H10C8.75736 36.25 7.75 35.2426 7.75 34V14C7.75 12.7574 8.75736 11.75 10 11.75H15.5678C16.0887 11.75 16.5934 11.9307 16.9959 12.2614L21.7825 16.1932C22.8111 17.0381 24.1011 17.5 25.4322 17.5H38C39.2426 17.5 40.25 18.5074 40.25 19.75V20H43.75V19.75C43.75 16.5744 41.1756 14 38 14H25.4322C24.9113 14 24.4066 13.8193 24.0041 13.4886L19.2175 9.55682C18.1889 8.71187 16.8989 8.25 15.5678 8.25H10Z" fill="#3D4653"/>
<path fill-rule="evenodd" clip-rule="evenodd" d="M41.358 35.5704C41.7265 35.5391 42.0678 35.3735 42.3101 35.1085C42.5524 34.8434 42.6768 34.4996 42.6571 34.1494C42.6373 33.7991 42.4751 33.4698 42.2044 33.2307C41.9337 32.9917 41.5758 32.8614 41.2059 32.8675H41.1542C40.9669 32.8736 40.7827 32.9148 40.6122 32.9885C40.4417 33.0623 40.2882 33.1672 40.1606 33.2973C40.0329 33.4275 39.9336 33.5802 39.8684 33.7467C39.8031 33.9133 39.7732 34.0904 39.7803 34.268C39.7978 34.602 39.9421 34.9189 40.1866 35.16C39.3224 36.7776 37.9988 37.9596 36.0134 38.9483C34.6646 39.6247 33.2657 39.8656 31.8653 39.6961C30.7204 39.5519 29.8296 39.0687 29.2697 38.2733C28.4543 37.0913 28.379 35.8113 29.0659 34.534C29.4817 33.775 30.0731 33.1149 30.7957 32.6028C30.6644 32.1983 30.554 31.788 30.4648 31.3732C26.7747 33.9052 27.1558 37.3321 28.277 38.9497C29.1161 40.1541 30.8208 40.9033 32.7043 40.9033C33.214 40.9033 33.7236 40.8543 34.2318 40.7338C37.4891 40.1317 39.9576 38.2971 41.358 35.5704Z" fill="#5B6071" stroke="#5B6071" stroke-width="0.293" stroke-linejoin="round"/>
<path fill-rule="evenodd" clip-rule="evenodd" d="M45.8369 32.579C43.9017 30.4321 41.0521 29.2488 37.7948 29.2488H37.3871C37.2697 29.0311 37.0911 28.8484 36.8711 28.7208C36.6511 28.5933 36.3982 28.5259 36.1403 28.5261H36.09C35.712 28.5324 35.352 28.6809 35.0894 28.9388C34.8268 29.1967 34.683 29.5429 34.6896 29.9014C34.6963 30.2598 34.8529 30.601 35.1249 30.85C35.397 31.099 35.7622 31.2353 36.1403 31.229H36.192C36.4602 31.2165 36.7192 31.1328 36.9397 30.9874C37.1601 30.8421 37.3331 30.6409 37.4388 30.4069H37.8967C39.8319 30.4069 41.6637 30.9391 43.3182 31.9754C44.5886 32.7723 45.506 33.81 46.0156 35.0634C46.447 36.0774 46.4219 37.0661 45.9639 37.9105C45.2519 39.1892 44.0553 39.8894 42.4776 39.8894C41.4583 39.8894 40.4922 39.5995 39.9841 39.3824C39.7034 39.6247 39.1937 40.0098 38.8377 40.2507C39.9324 40.7339 41.0536 40.9999 42.1216 40.9999C44.565 40.9999 46.3717 39.7199 47.0586 38.4413C47.7972 37.0423 47.7455 34.6293 45.8369 32.579Z" fill="#5B6071" stroke="#5B6071" stroke-width="0.293" stroke-linejoin="round"/>
<path fill-rule="evenodd" clip-rule="evenodd" d="M32.908 35.9808C32.9331 36.7048 33.5698 37.2832 34.3335 37.2832H34.3838C34.7618 37.2769 35.1218 37.1285 35.3844 36.8705C35.647 36.6126 35.7909 36.2664 35.7842 35.908C35.7775 35.5495 35.621 35.2083 35.3489 34.9593C35.0769 34.7103 34.7116 34.574 34.3335 34.5803H34.2818C34.2316 34.5803 34.1548 34.5803 34.1046 34.6055C33.0616 32.9656 32.6273 31.18 32.781 29.2488C32.8829 27.8021 33.3925 26.5459 34.2818 25.5096C35.0205 24.6175 36.446 24.1834 37.4136 24.1582C40.111 24.1106 41.2559 27.2952 41.3327 28.5738C41.6636 28.6466 42.2235 28.8147 42.6046 28.9365C42.2988 25.0279 39.7535 23 37.3117 23C35.0219 23 32.9095 24.5685 32.0674 26.8849C30.8975 29.9728 31.6612 32.9404 33.0867 35.2806C32.9452 35.488 32.8827 35.735 32.9095 35.9808H32.908Z" fill="#5B6071" stroke="#5B6071" stroke-width="0.293" stroke-linejoin="round"/>
</svg>
