<svg width="48" height="48" viewBox="0 0 48 48" fill="none" xmlns="http://www.w3.org/2000/svg">
<path fill-rule="evenodd" clip-rule="evenodd" d="M10 8.25C6.82439 8.25 4.25003 10.8244 4.25003 14V34C4.25003 37.1756 6.82439 39.75 10 39.75H24V36.25H10C8.75739 36.25 7.75003 35.2426 7.75003 34V14C7.75003 12.7574 8.75739 11.75 10 11.75H15.5678C16.0887 11.75 16.5935 11.9307 16.996 12.2614L21.7825 16.1932C22.8111 17.0381 24.1011 17.5 25.4323 17.5H38C38.9797 17.5 39.8131 18.1261 40.122 19H43.7016C43.334 16.1787 40.9215 14 38 14H25.4323C24.9114 14 24.4066 13.8193 24.0041 13.4886L19.2175 9.55682C18.1889 8.71187 16.899 8.25 15.5678 8.25H10Z" fill="#3D4653"/>
<path d="M42.25 23.1875C42.25 22.5317 42.7817 22 43.4375 22H45.8125C46.4683 22 47 22.5317 47 23.1875V39.8125C47 40.4683 46.4683 41 45.8125 41H43.4375C42.7817 41 42.25 40.4683 42.25 39.8125V23.1875Z" fill="#5B6071"/>
<path d="M35.125 23.1875C35.125 22.5317 35.6567 22 36.3125 22H38.6875C39.3433 22 39.875 22.5317 39.875 23.1875V39.8125C39.875 40.4683 39.3433 41 38.6875 41H36.3125C35.6567 41 35.125 40.4683 35.125 39.8125V23.1875Z" fill="#5B6071"/>
<path d="M28 23.1875C28 22.5317 28.5317 22 29.1875 22H31.5625C32.2183 22 32.75 22.5317 32.75 23.1875V39.8125C32.75 40.4683 32.2183 41 31.5625 41H29.1875C28.5317 41 28 40.4683 28 39.8125V23.1875Z" fill="#5B6071"/>
</svg>
