<svg width="48" height="48" viewBox="0 0 48 48" fill="none" xmlns="http://www.w3.org/2000/svg">
<path fill-rule="evenodd" clip-rule="evenodd" d="M10 8.25003C6.82436 8.25003 4.25 10.8244 4.25 14V34C4.25 37.1757 6.82436 39.75 10 39.75H24V36.25H10C8.75736 36.25 7.75 35.2427 7.75 34V14C7.75 12.7574 8.75736 11.75 10 11.75H15.5678C16.0887 11.75 16.5934 11.9308 16.9959 12.2614L21.7825 16.1932C22.8111 17.0382 24.1011 17.5 25.4322 17.5H38C39.2426 17.5 40.25 18.5074 40.25 19.75V20H43.75V19.75C43.75 16.5744 41.1756 14 38 14H25.4322C24.9113 14 24.4066 13.8193 24.0041 13.4887L19.2175 9.55685C18.1889 8.7119 16.8989 8.25003 15.5678 8.25003H10Z" fill="#3D4653"/>
<path fill-rule="evenodd" clip-rule="evenodd" d="M36.4724 35.0398C36.4724 35.3753 36.866 35.585 37.181 35.4172L40.2638 33.7747C40.41 33.6969 40.5 33.5529 40.5 33.3973V30.1123C40.5 29.7768 40.1064 29.567 39.7914 29.7348L36.7085 31.3773C36.5624 31.4552 36.4724 31.599 36.4724 31.7548V35.0398ZM39.319 28.9798C39.634 28.812 39.634 28.3926 39.319 28.2248L36.2362 26.5823C36.09 26.5045 35.91 26.5045 35.7638 26.5823L32.63 28.2519C32.3151 28.4197 32.3151 28.8392 32.63 29.0069L35.7129 30.6494C35.8591 30.7272 36.0391 30.7272 36.1852 30.6494L39.319 28.9798ZM32.2086 29.7891C31.8936 29.6213 31.5 29.831 31.5 30.1666V33.3973C31.5 33.5529 31.59 33.6969 31.7362 33.7747L34.8191 35.4172C35.1339 35.585 35.5277 35.3753 35.5277 35.0398V31.8091C35.5277 31.6533 35.4375 31.5095 35.2914 31.4315L32.2086 29.7891Z" fill="#5B6071"/>
<path d="M28.5739 25.3389L29.9103 26.0231C30.0489 26.094 30.2196 26.094 30.3581 26.0231L34.876 23.7101C35.0146 23.6392 35.0999 23.5081 35.0999 23.3662V21.9978C35.0999 21.6921 34.7268 21.501 34.4282 21.6539L28.5739 24.6511C28.2753 24.8039 28.2753 25.186 28.5739 25.3389Z" fill="#5B6071"/>
<path d="M36.9001 21.9978V23.3662C36.9001 23.5081 36.9854 23.6392 37.1239 23.7101L41.6419 26.0231C41.7804 26.094 41.9511 26.094 42.0896 26.0231L43.4261 25.3389C43.7247 25.186 43.7247 24.8039 43.4261 24.6511L37.5718 21.6539C37.2732 21.501 36.9001 21.6921 36.9001 21.9978Z" fill="#5B6071"/>
<path d="M42.75 27.9504V34.0497C42.75 34.2368 42.836 34.4097 42.9757 34.5032L44.3229 35.4053C44.6238 35.6069 45 35.3549 45 34.952V27.0483C45 26.6452 44.6238 26.3933 44.3229 26.5948L42.9757 27.497C42.836 27.5905 42.75 27.7634 42.75 27.9504Z" fill="#5B6071"/>
<path d="M41.6419 35.9772L37.1239 38.2901C36.9854 38.361 36.9001 38.4922 36.9001 38.634V40.0024C36.9001 40.3081 37.2732 40.4992 37.5718 40.3463L43.4261 37.3492C43.7247 37.1963 43.7247 36.8142 43.4261 36.6614L42.0896 35.9772C41.9511 35.9062 41.7804 35.9062 41.6419 35.9772Z" fill="#5B6071"/>
<path d="M34.4261 38.29L29.9083 35.9771C29.7697 35.9062 29.599 35.9062 29.4604 35.9771L28.124 36.6614C27.8254 36.8141 27.8254 37.1963 28.124 37.3492L33.9783 40.3463C34.2769 40.4992 34.6501 40.3081 34.6501 40.0023V38.634C34.6501 38.4921 34.5647 38.361 34.4261 38.29Z" fill="#5B6071"/>
<path d="M29.25 34.0497V27.9504C29.25 27.7634 29.164 27.5905 29.0243 27.497L27.6771 26.5949C27.3762 26.3933 27 26.6452 27 27.0483V34.9518C27 35.3549 27.3762 35.6069 27.6771 35.4053L29.0243 34.5032C29.164 34.4096 29.25 34.2368 29.25 34.0497Z" fill="#5B6071"/>
</svg>
