<svg width="48" height="48" viewBox="0 0 48 48" fill="none" xmlns="http://www.w3.org/2000/svg">
<path fill-rule="evenodd" clip-rule="evenodd" d="M10 8.25C6.82436 8.25 4.25 10.8244 4.25 14V34C4.25 37.1756 6.82436 39.75 10 39.75H26V36.25H10C8.75736 36.25 7.75 35.2426 7.75 34V14C7.75 12.7574 8.75736 11.75 10 11.75H15.5678C16.0887 11.75 16.5934 11.9307 16.9959 12.2614L21.7825 16.1932C22.8111 17.0381 24.1011 17.5 25.4322 17.5H38C39.2426 17.5 40.25 18.5074 40.25 19.75V20H43.75V19.75C43.75 16.5744 41.1756 14 38 14H25.4322C24.9113 14 24.4066 13.8193 24.0041 13.4886L19.2175 9.55682C18.1889 8.71187 16.8989 8.25 15.5678 8.25H10Z" fill="#3D4653"/>
<path fill-rule="evenodd" clip-rule="evenodd" d="M38.9487 32.9494C38.8489 33.0429 38.7693 33.1559 38.7149 33.2815C38.6605 33.407 38.6324 33.5423 38.6324 33.6791C38.6324 33.8159 38.6605 33.9513 38.7149 34.0768C38.7693 34.2023 38.8489 34.3153 38.9487 34.4089C39.1427 34.6015 39.4051 34.7096 39.6785 34.7096C39.952 34.7096 40.2143 34.6015 40.4083 34.4089C41.3709 33.4447 41.9116 32.1381 41.9116 30.7757C41.9116 29.4133 41.3709 28.1067 40.4083 27.1425L36.7702 23.5031C35.806 22.5406 34.4992 22 33.1367 22C31.7743 22 30.4675 22.5406 29.5033 23.5031C28.5407 24.4673 28 25.774 28 27.1363C28 28.4987 28.5407 29.8054 29.5033 30.7695L31.0327 32.3019C31.0204 31.4549 31.1598 30.6125 31.4442 29.8146L30.9629 29.3209C30.6747 29.0358 30.4458 28.6965 30.2897 28.3224C30.1335 27.9484 30.0531 27.5471 30.0531 27.1418C30.0531 26.7364 30.1335 26.3351 30.2897 25.9611C30.4458 25.587 30.6747 25.2477 30.9629 24.9626C31.2479 24.6747 31.5872 24.4461 31.9611 24.2901C32.3351 24.1341 32.7362 24.0537 33.1414 24.0537C33.5466 24.0537 33.9477 24.1341 34.3217 24.2901C34.6956 24.4461 35.0349 24.6747 35.3199 24.9626L38.9487 28.5911C39.2369 28.8762 39.4657 29.2155 39.6219 29.5896C39.7781 29.9636 39.8585 30.3649 39.8585 30.7703C39.8585 31.1756 39.7781 31.5769 39.6219 31.9509C39.4657 32.325 39.2369 32.6644 38.9487 32.9494ZM36.0497 28.5911C35.8557 28.3985 35.5934 28.2904 35.3199 28.2904C35.0465 28.2904 34.7841 28.3985 34.5901 28.5911C33.6275 29.5553 33.0869 30.8619 33.0869 32.2243C33.0869 33.5867 33.6275 34.8933 34.5901 35.8575L38.2298 39.4969C39.194 40.4594 40.5008 41 41.8633 41C43.2257 41 44.5325 40.4594 45.4967 39.4969C46.4593 38.5327 47 37.226 47 35.8637C47 34.5013 46.4593 33.1946 45.4967 32.2305L43.9657 30.6981C43.9773 31.5486 43.838 32.3944 43.5542 33.1963L44.0371 33.6776C44.3256 33.9626 44.5546 34.3021 44.7109 34.6763C44.8672 35.0505 44.9477 35.452 44.9477 35.8575C44.9477 36.263 44.8672 36.6645 44.7109 37.0387C44.5546 37.4129 44.3256 37.7523 44.0371 38.0374C43.7521 38.3256 43.4127 38.5543 43.0386 38.7105C42.6645 38.8666 42.2632 38.947 41.8578 38.947C41.4525 38.947 41.0511 38.8666 40.677 38.7105C40.303 38.5543 39.9636 38.3256 39.6785 38.0374L36.0497 34.4089C35.7615 34.1238 35.5327 33.7845 35.3765 33.4104C35.2204 33.0364 35.14 32.6351 35.14 32.2297C35.14 31.8244 35.2204 31.4231 35.3765 31.0491C35.5327 30.675 35.7615 30.3356 36.0497 30.0506C36.1496 29.9571 36.2292 29.8441 36.2836 29.7185C36.338 29.593 36.3661 29.4577 36.3661 29.3209C36.3661 29.1841 36.338 29.0487 36.2836 28.9232C36.2292 28.7977 36.1496 28.6847 36.0497 28.5911Z" fill="#5B6071"/>
</svg>
