<svg width="48" height="48" viewBox="0 0 48 48" fill="none" xmlns="http://www.w3.org/2000/svg">
<path fill-rule="evenodd" clip-rule="evenodd" d="M10 8.25003C6.82436 8.25003 4.25 10.8244 4.25 14V34C4.25 37.1757 6.82436 39.75 10 39.75H26V36.25H10C8.75736 36.25 7.75 35.2427 7.75 34V14C7.75 12.7574 8.75736 11.75 10 11.75H15.5678C16.0887 11.75 16.5934 11.9308 16.9959 12.2614L21.7825 16.1932C22.8111 17.0382 24.1011 17.5 25.4322 17.5H38C39.2426 17.5 40.25 18.5074 40.25 19.75V20H43.75V19.75C43.75 16.5744 41.1756 14 38 14H25.4322C24.9113 14 24.4066 13.8193 24.0041 13.4887L19.2175 9.55685C18.1889 8.7119 16.8989 8.25003 15.5678 8.25003H10Z" fill="#3D4653"/>
<path fill-rule="evenodd" clip-rule="evenodd" d="M41.6423 33.4003C41.7191 32.7738 41.7759 32.1457 41.7759 31.5008C41.7759 30.8558 41.7191 30.2262 41.6423 29.5997H44.8532C45.0053 30.2078 45.0989 30.8435 45.0989 31.5008C45.0951 32.1416 45.0125 32.7796 44.8532 33.4003M39.9608 38.6828C40.5305 37.6278 40.9682 36.4869 41.2722 35.2998H44.0747C43.1543 36.8851 41.694 38.086 39.9608 38.6828ZM39.7228 33.4003H35.2772C35.182 32.7738 35.1252 32.1457 35.1252 31.5008C35.1252 30.8558 35.182 30.2185 35.2788 29.5997H39.7228C39.8088 30.2185 39.8763 30.8543 39.8763 31.5008C39.8763 32.1473 39.8088 32.7738 39.7228 33.4003ZM37.5008 39.0621C36.6951 37.9151 36.082 36.6443 35.6857 35.2998H39.3143C38.9184 36.6442 38.3059 37.915 37.5008 39.0621ZM33.7002 27.7002H30.9269C31.8377 26.1114 33.2965 24.9093 35.03 24.3188C34.4618 25.3722 34.0318 26.5131 33.7002 27.7002ZM30.9269 35.3014H33.7002C34.0334 36.4884 34.4603 37.6278 35.03 38.6828C33.2998 38.0855 31.8431 36.8859 30.9269 35.3014ZM30.1468 33.4003C29.9874 32.7796 29.9049 32.1416 29.9011 31.5008C29.9048 30.8594 29.9873 30.2209 30.1468 29.5997H33.3577C33.2825 30.2278 33.2257 30.8543 33.2257 31.5008C33.2257 32.1473 33.2825 32.7738 33.3577 33.4003M37.5008 23.9287C38.3059 25.0791 38.9185 26.3529 39.3143 27.7002H35.6857C36.082 26.3528 36.6951 25.079 37.5008 23.9287ZM44.0731 27.7002H41.2722C40.9747 26.5237 40.5343 25.3882 39.9608 24.3188C41.6957 24.9117 43.1571 26.1129 44.0747 27.7002M37.5008 22C34.9818 22.0024 32.5666 23.0042 30.7854 24.7854C29.0042 26.5666 28.0024 28.9818 28 31.5008C28 32.7484 28.2458 33.9837 28.7232 35.1363C29.2007 36.2889 29.9006 37.3362 30.7828 38.2183C31.6651 39.1004 32.7124 39.8001 33.8651 40.2774C35.0178 40.7546 36.2532 41.0002 37.5008 41C40.0201 41 42.4363 39.9992 44.2177 38.2177C45.9992 36.4363 47 34.0201 47 31.5008C47.0002 30.2532 46.7546 29.0178 46.2774 27.8651C45.8001 26.7124 45.1004 25.6651 44.2183 24.7828C43.3362 23.9006 42.2889 23.2007 41.1363 22.7232C39.9837 22.2458 38.7484 22 37.5008 22Z" fill="#5B6071"/>
</svg>
