<svg width="48" height="48" viewBox="0 0 48 48" fill="none" xmlns="http://www.w3.org/2000/svg">
<path fill-rule="evenodd" clip-rule="evenodd" d="M10 8.25C6.82436 8.25 4.25 10.8244 4.25 14V34C4.25 37.1756 6.82436 39.75 10 39.75H24V36.25H10C8.75736 36.25 7.75 35.2426 7.75 34V14C7.75 12.7574 8.75736 11.75 10 11.75H15.5678C16.0887 11.75 16.5934 11.9307 16.9959 12.2614L21.7825 16.1932C22.8111 17.0381 24.1011 17.5 25.4322 17.5H38C39.2426 17.5 40.25 18.5074 40.25 19.75V20H43.75V19.75C43.75 16.5744 41.1756 14 38 14H25.4322C24.9113 14 24.4066 13.8193 24.0041 13.4886L19.2175 9.55682C18.1889 8.71187 16.8989 8.25 15.5678 8.25H10Z" fill="#3D4653"/>
<path fill-rule="evenodd" clip-rule="evenodd" d="M28 22V31.5008L31.1679 28.1466L34.3328 32.0577C35.3893 33.1763 35.3893 34.2933 35.3893 34.2933V41H39.6107V33.1763C39.6107 33.1763 39.6107 32.0593 39.0514 30.9407C38.4921 29.8221 37.4992 28.7051 37.4992 28.7051L34.3328 24.8839L36.9718 22M43.8336 22L39.1256 26.9959L39.6107 27.5881C39.6107 27.5881 40.5929 28.7051 41.1628 29.8237C41.3841 30.2699 41.5114 30.7064 41.5842 31.0867L47 25.3526" fill="#5B6071"/>
</svg>
