<svg width="48" height="48" viewBox="0 0 48 48" fill="none" xmlns="http://www.w3.org/2000/svg">
<path fill-rule="evenodd" clip-rule="evenodd" d="M10 8.25C6.82436 8.25 4.25 10.8244 4.25 14V34C4.25 37.1756 6.82436 39.75 10 39.75H26V36.25H10C8.75736 36.25 7.75 35.2426 7.75 34V14C7.75 12.7574 8.75736 11.75 10 11.75H15.5678C16.0887 11.75 16.5934 11.9307 16.9959 12.2614L21.7825 16.1932C22.8111 17.0381 24.1011 17.5 25.4322 17.5H38C39.2426 17.5 40.25 18.5074 40.25 19.75V20H43.75V19.75C43.75 16.5744 41.1756 14 38 14H25.4322C24.9113 14 24.4066 13.8193 24.0041 13.4886L19.2175 9.55682C18.1889 8.71187 16.8989 8.25 15.5678 8.25H10Z" fill="#3D4653"/>
<path d="M39.1791 40.6965C38.6871 41.2846 37.6845 40.9615 37.6727 40.2119L37.4996 34.6658L37.464 29.2376H45.3068C46.7199 29.2376 47.5105 30.782 46.63 31.8289L39.179 40.6982L39.1791 40.6965ZM35.8999 22.3282C36.3987 21.6933 37.4098 22.0406 37.4216 22.8484L37.4997 34.6676H29.7078C28.2827 34.6676 27.4854 33.0036 28.3727 31.8776L35.8999 22.3265L35.8999 22.3282Z" fill="#5B6071"/>
</svg>
