<svg width="48" height="48" viewBox="0 0 48 48" fill="none" xmlns="http://www.w3.org/2000/svg">
<path fill-rule="evenodd" clip-rule="evenodd" d="M4.25 14C4.25 10.8244 6.82436 8.25 10 8.25H15.5678C16.8989 8.25 18.1889 8.71187 19.2175 9.55682L24.0041 13.4886C24.4066 13.8193 24.9113 14 25.4322 14H38V17.5H25.4322C24.1011 17.5 22.8111 17.0381 21.7825 16.1932L16.9959 12.2614C16.5934 11.9307 16.0887 11.75 15.5678 11.75H10C8.75736 11.75 7.75 12.7574 7.75 14V34C7.75 35.2426 8.75736 36.25 10 36.25H25V39.75H10C6.82436 39.75 4.25 37.1756 4.25 34V14ZM43 20H43.75V19.75C43.75 18.7165 43.4773 17.7467 43 16.9085V20Z" fill="#3D4653"/>
<path d="M40.0191 25.4668C41.3267 24.4182 41.9062 18.2194 42.4723 15.9912C43.0387 13.7634 45.3798 13.8759 45.3798 13.8759C45.3798 13.8759 44.7722 14.9019 45.0197 15.6674C45.2677 16.433 46.9663 17.117 46.9663 17.117L46.5999 18.0535C46.5999 18.0535 45.8353 17.9586 45.3798 18.8417C44.9243 19.7244 45.6725 28.4667 45.6725 28.4667C45.6725 28.4667 42.9365 33.6994 42.9365 35.9084C42.9365 38.1178 44.0152 39.9692 44.0152 39.9692H42.502C42.502 39.9692 40.2817 37.4072 39.8266 36.1273C39.371 34.8471 39.5532 33.5668 39.5532 33.5668C39.5532 33.5668 37.1405 33.4343 35.0006 33.5668C32.8611 33.6994 31.4339 35.4828 31.1764 36.4803C30.919 37.4782 30.812 39.9692 30.812 39.9692H29.6161C28.8876 37.7897 28.3089 37.0088 28.623 35.9084C29.4921 32.8605 29.3214 31.1316 29.1202 30.3619C28.9189 29.5917 27.5563 28.9199 27.5563 28.9199C28.2237 27.6013 28.9051 26.9675 31.8356 26.9014C34.7661 26.8354 38.7115 26.5158 40.0191 25.4668Z" fill="#5B6071"/>
<path d="M32.4088 35.7809C32.4088 35.7809 32.7178 38.5553 34.3605 39.9692H35.7683C34.3605 38.4228 34.2072 34.3923 34.2072 34.3923C33.491 34.6186 32.4999 35.4279 32.4088 35.7809Z" fill="#5B6071"/>
</svg>
