<svg width="48" height="48" viewBox="0 0 48 48" fill="none" xmlns="http://www.w3.org/2000/svg">
<path fill-rule="evenodd" clip-rule="evenodd" d="M10 8.25C6.82436 8.25 4.25 10.8244 4.25 14V34C4.25 37.1756 6.82436 39.75 10 39.75H26V36.25H10C8.75736 36.25 7.75 35.2426 7.75 34V14C7.75 12.7574 8.75736 11.75 10 11.75H15.5678C16.0887 11.75 16.5934 11.9307 16.9959 12.2614L21.7825 16.1932C22.8111 17.0381 24.1011 17.5 25.4322 17.5H38C38.9797 17.5 39.8131 18.1261 40.122 19H43.7015C43.334 16.1787 40.9214 14 38 14H25.4322C24.9113 14 24.4066 13.8193 24.0041 13.4886L19.2175 9.55682C18.1889 8.71187 16.8989 8.25 15.5678 8.25H10Z" fill="#3D4653"/>
<path d="M47.8763 27.5447C47.876 27.5433 47.876 27.5431 47.8757 27.5418C47.8667 27.4982 47.5201 25.8421 47.0526 25.8421C46.6974 25.8421 45.2801 27.4375 44.5904 28.2371C44.3441 28.5232 43.9888 28.6842 43.6118 28.6842C42.8955 28.6842 42.3158 28.1044 42.3158 27.3882C42.3158 27.0112 42.4768 26.6559 42.7629 26.4096C43.5625 25.7199 45.1579 24.3026 45.1579 23.9474C45.1579 23.4784 43.4874 23.1227 43.4541 23.1157C43.453 23.1155 43.453 23.1155 43.452 23.1153C43.0811 23.0387 42.698 23 42.3158 23C39.1809 23 36.6315 25.574 36.6315 28.7373C36.6315 28.965 36.6473 29.1942 36.679 29.4268C36.7239 29.7573 36.6313 30.0972 36.3934 30.3309L30.8895 35.7364C29.7034 36.9386 29.7034 38.8931 30.8904 40.0953C31.4683 40.6779 32.2385 41 33.0608 41C33.8822 41 34.6534 40.6779 35.2209 40.1038L40.7798 34.6422C40.9952 34.4305 41.2978 34.3373 41.5993 34.3546C41.8407 34.3684 42.0791 34.3684 42.3158 34.3684C45.5027 34.3684 48 31.8948 48 28.7373C48 28.3382 47.9585 27.9362 47.8763 27.5447Z" fill="#5B6071"/>
</svg>
