<svg width="48" height="48" viewBox="0 0 48 48" fill="none" xmlns="http://www.w3.org/2000/svg">
<path fill-rule="evenodd" clip-rule="evenodd" d="M10 8.25003C6.82439 8.25003 4.25003 10.8244 4.25003 14V34C4.25003 37.1757 6.82439 39.75 10 39.75H24V36.25H10C8.75739 36.25 7.75003 35.2427 7.75003 34V14C7.75003 12.7574 8.75739 11.75 10 11.75H15.5678C16.0887 11.75 16.5935 11.9308 16.996 12.2614L21.7825 16.1932C22.8111 17.0382 24.1011 17.5 25.4323 17.5H38C39.2427 17.5 40.25 18.5074 40.25 19.75V20H43.75V19.75C43.75 16.5744 41.1757 14 38 14H25.4323C24.9114 14 24.4066 13.8193 24.0041 13.4887L19.2175 9.55685C18.1889 8.7119 16.899 8.25003 15.5678 8.25003H10Z" fill="#3D4653"/>
<path d="M39.9861 28.0316C39.5873 28.2976 38.3243 29.0195 38.1343 29.162C37.7639 29.4564 37.4221 29.4374 37.0517 29.1525C36.8617 29.0005 35.5987 28.2786 35.1999 28.0221C34.744 27.7276 34.7725 27.3572 35.2759 27.1483C36.8332 26.4928 38.3908 26.5403 39.9386 27.1767C40.404 27.3762 40.423 27.7466 39.9861 28.0316ZM46.8424 34.9467C45.9592 32.9615 44.7532 31.1567 43.1959 29.5704C42.6925 29.048 42.3792 28.459 42.1892 27.7847C42.0943 27.4712 42.0278 27.1483 41.9613 26.8252C41.7713 25.9894 41.686 25.1345 41.2966 24.3461C40.6033 22.8454 39.3973 22.0665 37.6499 22C35.9312 22.0475 34.6492 22.7694 33.899 24.2796C33.6995 24.6882 33.557 25.1155 33.4622 25.5524C33.3007 26.2744 33.1582 27.0248 32.9873 27.7561C32.8448 28.3736 32.56 28.9054 32.0756 29.3804C30.5468 30.8718 29.3217 32.5814 28.3911 34.4622C28.2581 34.7376 28.1251 35.0132 28.0397 35.2981C27.8592 35.9249 28.3151 36.3619 28.9797 36.21C29.3976 36.1245 29.8154 36.039 30.2143 35.9154C30.6036 35.773 30.7556 35.8679 30.8506 36.248C31.4678 38.2902 32.8163 39.7244 34.877 40.5223C38.7896 42.0042 43.3574 39.8954 44.3449 36.172C44.4114 35.9154 44.5064 35.8206 44.7912 35.9154C45.2281 36.0485 45.6744 36.1435 46.1208 36.248C46.5861 36.3334 46.9279 36.096 46.9944 35.64C47.0229 35.3931 46.9374 35.1746 46.8424 34.9467Z" fill="#5B6071"/>
</svg>
