<svg width="48" height="48" viewBox="0 0 48 48" fill="none" xmlns="http://www.w3.org/2000/svg">
<path fill-rule="evenodd" clip-rule="evenodd" d="M10 8.25003C6.82436 8.25003 4.25 10.8244 4.25 14V34C4.25 37.1757 6.82436 39.75 10 39.75H24V36.25H10C8.75736 36.25 7.75 35.2427 7.75 34V14C7.75 12.7574 8.75736 11.75 10 11.75H15.5678C16.0887 11.75 16.5934 11.9308 16.9959 12.2614L21.7825 16.1932C22.8111 17.0382 24.1011 17.5 25.4322 17.5H38C38.9797 17.5 39.8131 18.1261 40.122 19H43.7015C43.334 16.1788 40.9214 14 38 14H25.4322C24.9113 14 24.4066 13.8193 24.0041 13.4887L19.2175 9.55685C18.1889 8.7119 16.8989 8.25003 15.5678 8.25003H10Z" fill="#3D4653"/>
<path fill-rule="evenodd" clip-rule="evenodd" d="M34.1691 36.7778H31.3332L26 31.5L31.3332 26.2222H34.1691L35.5911 23.8364L42.9693 22L45 29.1141L43.578 31.5L45 33.8859L42.9693 41L35.5927 39.1636L34.1691 36.7778ZM34.3209 36.5139L39.8937 37.9699L36.6791 32.5556H30.2467L34.3209 36.5139ZM41.7854 36.9144L43.2841 31.5L41.7854 26.0856L38.558 31.5L41.7854 36.9144ZM34.3209 26.4861L30.2467 30.4444H36.6791L39.8953 25.0301L34.3209 26.4861Z" fill="#5B6071"/>
</svg>
