<svg width="24" height="24" viewBox="0 0 24 24" fill="none" xmlns="http://www.w3.org/2000/svg">
<path d="M13.295 11.033V7.65001L15.421 5.51401C16.195 4.75101 16.34 3.53301 15.798 2.58501C15.5916 2.21751 15.2915 1.91128 14.9282 1.6975C14.5649 1.48372 14.1515 1.37003 13.73 1.36801C13.527 1.36801 13.295 1.39701 13.111 1.45501C12.067 1.73501 11.362 2.70101 11.362 3.78501V6.91501L8.327 9.98001C7.53938 10.7838 7.00505 11.8011 6.79031 12.9057C6.57556 14.0103 6.68986 15.1537 7.119 16.194C7.4767 17.0792 8.05391 17.8588 8.79624 18.4593C9.53857 19.0597 10.4216 19.4612 11.362 19.626V20.216C11.358 20.3427 11.3058 20.4632 11.216 20.5527C11.1263 20.6423 11.0057 20.6943 10.879 20.698H9.429V22.632H10.879C11.5188 22.6283 12.1313 22.3725 12.5837 21.92C13.036 21.4675 13.2916 20.8548 13.295 20.215V19.732C15.257 19.732 17.315 17.876 17.315 15.141C17.315 12.918 15.46 11.033 13.295 11.033ZM13.295 3.78401C13.295 3.56201 13.401 3.38801 13.605 3.33001C13.7069 3.30071 13.8156 3.30669 13.9137 3.34699C14.0117 3.38729 14.0932 3.45954 14.145 3.55201C14.2 3.64479 14.2224 3.75334 14.2084 3.86031C14.1944 3.96728 14.145 4.06647 14.068 4.14201L13.295 4.97201V3.78501M11.362 11.517C10.424 12.136 9.719 13.199 9.468 14.185L11.362 14.688V17.636C10.8078 17.4874 10.2953 17.2129 9.86451 16.834C9.43368 16.455 9.09609 15.9817 8.878 15.451C8.59709 14.7642 8.52334 14.0102 8.66586 13.282C8.80837 12.5538 9.16091 11.8832 9.68 11.353L11.362 9.58401V11.517ZM13.295 17.8V12.91C14.425 12.91 15.402 13.972 15.402 15.142C15.402 16.833 14.175 17.8 13.295 17.8Z" fill="#EA580C"/>
</svg>
