<svg width="24" height="24" viewBox="0 0 24 24" fill="none" xmlns="http://www.w3.org/2000/svg">
<path d="M14.847 5.35701H13.897V4.40701H14.847M10.101 5.35701H9.152V4.40701H10.102M15.35 2.66201L16.593 1.41801C16.6799 1.32735 16.7284 1.20661 16.7284 1.08101C16.7284 0.955419 16.6799 0.834681 16.593 0.744014C16.5023 0.657103 16.3816 0.608582 16.256 0.608582C16.1304 0.608582 16.0097 0.657103 15.919 0.744014L14.515 2.15001C13.7321 1.7648 12.8716 1.56336 11.999 1.56101C11.1226 1.56118 10.2583 1.76594 9.475 2.15901L8.06 0.744014C7.97108 0.657218 7.85175 0.60863 7.7275 0.60863C7.60324 0.60863 7.48391 0.657218 7.395 0.744014C7.34994 0.787815 7.31412 0.840207 7.28967 0.898091C7.26521 0.955975 7.25261 1.01818 7.25261 1.08101C7.25261 1.14385 7.26521 1.20605 7.28967 1.26394C7.31412 1.32182 7.34994 1.37421 7.395 1.41801L8.64 2.66201C7.225 3.70601 6.305 5.35701 6.305 7.25501H17.695C17.695 5.35701 16.745 3.69601 15.35 2.66201ZM20.068 8.20501C19.6905 8.20501 19.3285 8.3549 19.0614 8.62174C18.7944 8.88857 18.6443 9.25052 18.644 9.62801V16.272C18.644 16.6497 18.794 17.0119 19.0611 17.2789C19.3281 17.546 19.6903 17.696 20.068 17.696C20.4455 17.6957 20.8074 17.5456 21.0743 17.2786C21.3411 17.0116 21.491 16.6495 21.491 16.272V9.62801C21.4907 9.25069 21.3407 8.8889 21.0739 8.62209C20.8071 8.35529 20.4453 8.20528 20.068 8.20501ZM3.932 8.20501C3.5545 8.20501 3.19245 8.3549 2.92543 8.62174C2.65841 8.88857 2.50826 9.25052 2.508 9.62801V16.272C2.508 16.6497 2.65802 17.0119 2.92508 17.2789C3.19213 17.546 3.55433 17.696 3.932 17.696C4.30949 17.6957 4.67143 17.5456 4.93827 17.2786C5.20511 17.0116 5.355 16.6495 5.355 16.272V9.62801C5.35473 9.25069 5.20472 8.8889 4.93792 8.62209C4.67111 8.35529 4.30932 8.20528 3.932 8.20501ZM6.304 17.696C6.304 17.948 6.40408 18.1896 6.58224 18.3678C6.7604 18.5459 7.00204 18.646 7.254 18.646H8.203V21.967C8.203 22.3445 8.35289 22.7066 8.61972 22.9736C8.88656 23.2406 9.2485 23.3907 9.626 23.391C10.0037 23.391 10.3659 23.241 10.6329 22.9739C10.9 22.7069 11.05 22.3447 11.05 21.967V18.645H12.948V21.967C12.948 22.3447 13.098 22.7069 13.3651 22.9739C13.6321 23.241 13.9943 23.391 14.372 23.391C14.7497 23.391 15.1119 23.241 15.3789 22.9739C15.646 22.7069 15.796 22.3447 15.796 21.967V18.645H16.745C16.9968 18.645 17.2383 18.5451 17.4164 18.3671C17.5945 18.1892 17.6947 17.9478 17.695 17.696V8.20501H6.304V17.696Z" fill="#8BC34A"/>
</svg>
