<svg width="24" height="24" viewBox="0 0 24 24" fill="none" xmlns="http://www.w3.org/2000/svg">
<g clip-path="url(#clip0_3372_3557)">
<path d="M5.82948 7.68292C4.54665 7.68292 3.31636 8.17311 2.40926 9.04566C1.50216 9.9182 0.992554 11.1016 0.992554 12.3356C0.992554 13.5696 1.50216 14.753 2.40926 15.6255C3.31636 16.4981 4.54665 16.9883 5.82948 16.9883C12.1438 17.3206 11.4792 7.68292 18.1258 7.68292C19.4087 7.68292 20.6389 8.17311 21.546 9.04566C22.4531 9.9182 22.9627 11.1016 22.9627 12.3356C22.9627 13.5696 22.4531 14.753 21.546 15.6255C20.6389 16.4981 19.4087 16.9883 18.1258 16.9883C11.8115 17.3206 12.4762 7.68292 5.82948 7.68292Z" stroke="#14B8A6" stroke-width="2"/>
<path d="M17.5941 13.4988V12.4087H16.514V11.9534H17.5941V10.8733H18.0561V11.9534H19.1361V12.4087H18.0561V13.4988H17.5941Z" fill="#14B8A6" stroke="#14B8A6" stroke-width="0.5"/>
<path d="M4.52539 12.3611V11.991H7.28868V12.3611H4.52539Z" fill="#14B8A6" stroke="#14B8A6" stroke-width="0.5"/>
</g>
<defs>
<clipPath id="clip0_3372_3557">
<rect width="24" height="24" fill="white"/>
</clipPath>
</defs>
</svg>
