<svg width="24" height="24" viewBox="0 0 24 24" fill="none" xmlns="http://www.w3.org/2000/svg">
<path d="M2.69966 1.54669C2.14749 1.54686 1.69995 1.99453 1.69995 2.54669V21.45C1.69995 22.0023 2.14767 22.45 2.69995 22.45H4.08195C4.63423 22.45 5.08195 22.0023 5.08195 21.45V21.2075C5.08195 20.7405 4.70341 20.362 4.23645 20.362C3.76949 20.362 3.39095 19.9834 3.39095 19.5165V4.48149C3.39095 4.01453 3.76949 3.63599 4.23645 3.63599C4.70341 3.63599 5.08195 3.25745 5.08195 2.79049V2.54629C5.08195 1.99389 4.63406 1.54612 4.08166 1.54629L2.69966 1.54669ZM19.9182 1.54729C19.3658 1.54712 18.9179 1.99489 18.9179 2.54729V2.78999C18.9179 3.25777 19.2972 3.63699 19.7649 3.63699C20.2327 3.63699 20.6119 4.01621 20.6119 4.48399V19.517C20.6119 19.9848 20.2327 20.364 19.7649 20.364C19.2972 20.364 18.9179 20.7432 18.9179 21.211V21.454C18.9179 22.0063 19.3657 22.454 19.9179 22.454H21.301C21.8532 22.454 22.301 22.0063 22.301 21.454V2.54769C22.301 1.99553 21.8534 1.54786 21.3012 1.54769L19.9182 1.54729ZM15.165 4.00799C14.665 4.00799 14.235 4.08299 13.875 4.23299C13.515 4.38199 13.223 4.60499 12.998 4.90299C12.7591 5.23528 12.5909 5.61308 12.504 6.01299C12.3928 6.51859 12.3404 7.03536 12.348 7.55299C12.3419 8.06561 12.3922 8.57735 12.498 9.07899C12.599 9.52099 12.763 9.89099 12.988 10.189C13.211 10.488 13.501 10.714 13.861 10.866C14.221 11.018 14.656 11.096 15.165 11.096C15.683 11.096 16.119 11.021 16.473 10.871C16.8158 10.7272 17.115 10.4962 17.341 10.201C17.561 9.91099 17.722 9.53899 17.826 9.08799C17.93 8.63399 17.982 8.12099 17.982 7.54799C17.982 6.97499 17.93 6.46999 17.83 6.03399C17.7471 5.63555 17.5819 5.25883 17.345 4.92799C17.1222 4.62536 16.822 4.38838 16.476 4.24199C16.123 4.08599 15.686 4.00799 15.165 4.00799ZM8.83459 4.12799C8.56474 4.12799 8.35392 4.35588 8.21295 4.58599C8.124 4.71573 8.00075 4.81821 7.85695 4.88199C7.69727 4.9531 7.52763 4.9993 7.35395 5.01899C7.32847 5.02203 7.30296 5.02489 7.27744 5.02756C6.97248 5.05945 6.72295 5.30484 6.72295 5.61147C6.72295 5.91772 6.97122 6.16599 7.27747 6.16599H7.44045C7.83672 6.16599 8.15795 6.48723 8.15795 6.88349V9.04849C8.15795 9.44475 7.83672 9.76599 7.44045 9.76599H7.31695C6.98889 9.76599 6.72295 10.0319 6.72295 10.36C6.72295 10.688 6.98889 10.954 7.31695 10.954H10.6735C11.0018 10.954 11.268 10.6878 11.268 10.3595C11.268 10.0312 11.0018 9.76499 10.6735 9.76499H10.5655C10.1775 9.76499 9.86295 9.45047 9.86295 9.06249V4.89748C9.86295 4.4725 9.51844 4.12799 9.09346 4.12799H8.83459ZM15.165 5.26599C15.54 5.26599 15.808 5.44199 15.97 5.79299C16.131 6.13999 16.211 6.72499 16.211 7.54899C16.211 8.36199 16.129 8.94799 15.964 9.30399C15.8 9.66099 15.534 9.83799 15.165 9.83799C14.796 9.83799 14.529 9.66099 14.364 9.30399C14.199 8.94699 14.117 8.36399 14.117 7.55599C14.117 6.72599 14.199 6.13999 14.36 5.79299C14.522 5.44299 14.79 5.26599 15.165 5.26599ZM8.83495 12.9055C8.83495 12.9058 8.83472 12.906 8.83445 12.906C8.33466 12.906 7.90483 12.979 7.54495 13.129C7.19696 13.2696 6.8938 13.5022 6.66795 13.802C6.44195 14.103 6.27795 14.472 6.17395 14.908C6.06995 15.344 6.01895 15.857 6.01895 16.448C6.01895 17.021 6.06795 17.53 6.16895 17.975C6.26895 18.417 6.43295 18.788 6.65895 19.087C6.88095 19.386 7.17295 19.611 7.53295 19.764C7.89295 19.917 8.32595 19.992 8.83495 19.992C9.35295 19.992 9.78895 19.917 10.143 19.767C10.4859 19.623 10.7854 19.3921 11.012 19.097C11.231 18.807 11.392 18.435 11.496 17.984C11.6 17.53 11.652 17.017 11.652 16.444C11.652 15.871 11.602 15.366 11.502 14.93C11.4184 14.5314 11.2526 14.1547 11.015 13.824C10.793 13.5214 10.4934 13.2844 10.148 13.138C9.79506 12.982 9.35623 12.905 8.83545 12.905C8.83518 12.905 8.83495 12.9052 8.83495 12.9055ZM14.68 13.024C14.6745 13.1859 14.6273 13.3437 14.543 13.482C14.4537 13.6119 14.3301 13.7144 14.186 13.778C14.052 13.842 13.885 13.888 13.684 13.915C13.6588 13.918 13.6336 13.9208 13.6084 13.9235C13.3029 13.9555 13.053 14.2013 13.053 14.5085C13.053 14.8153 13.3017 15.064 13.6085 15.064H13.7705C14.1667 15.064 14.488 15.3852 14.488 15.7815V17.9435C14.488 18.3398 14.1667 18.661 13.7705 18.661H13.6475C13.3191 18.661 13.053 18.9272 13.053 19.2555C13.053 19.5838 13.3191 19.85 13.6475 19.85H17.002C17.3306 19.85 17.597 19.5836 17.597 19.255C17.597 18.9264 17.3306 18.66 17.002 18.66H16.895C16.5072 18.66 16.193 18.3457 16.193 17.958V13.7795C16.193 13.3617 15.8543 13.023 15.4365 13.023H14.681C14.6804 13.023 14.68 13.0234 14.68 13.024ZM8.83495 14.162C9.20995 14.162 9.47795 14.338 9.63995 14.689C9.80095 15.036 9.88095 15.621 9.88095 16.444C9.88095 17.258 9.80095 17.844 9.63595 18.2C9.47195 18.557 9.20395 18.734 8.83595 18.734C8.46795 18.734 8.19895 18.557 8.03395 18.2C7.86895 17.843 7.78895 17.261 7.78895 16.454C7.78895 15.624 7.86895 15.036 8.02995 14.689C8.19195 14.339 8.45995 14.162 8.83495 14.162Z" fill="#EA580C"/>
</svg>
