<svg width="24" height="24" viewBox="0 0 24 24" fill="none" xmlns="http://www.w3.org/2000/svg">
<path d="M8.20294 5.44699L5.82994 6.77699L7.15894 4.40299L5.82894 2.02899L8.20294 3.35899L10.5769 2.02899L9.24694 4.40299L10.5769 6.77699L8.20294 5.44699ZM19.5969 14.752L21.9709 13.423L20.6409 15.797L21.9709 18.17L19.5969 16.841L17.2229 18.171L18.5529 15.797L17.2229 13.423L19.5969 14.753M21.9709 2.02899L20.6409 4.40299L21.9709 6.77699L19.5969 5.44699L17.2229 6.77699L18.5529 4.40299L17.2229 2.02899L19.5969 3.35899L21.9709 2.02899ZM13.7479 12.265L16.0649 9.94899L14.0519 7.93599L11.7349 10.253L13.7479 12.265ZM14.7259 7.05299L16.9479 9.27499C17.3179 9.62499 17.3179 10.243 16.9479 10.613L5.86694 21.694C5.49694 22.064 4.87994 22.064 4.52794 21.694L2.30594 19.473C1.93594 19.121 1.93594 18.504 2.30594 18.133L13.3869 7.05299C13.7569 6.68299 14.3749 6.68299 14.7269 7.05299H14.7259Z" fill="#F87171"/>
</svg>
