<svg width="24" height="24" viewBox="0 0 24 24" fill="none" xmlns="http://www.w3.org/2000/svg">
<path d="M12.002 2C9.34985 2 6.80631 3.05357 4.93095 4.92893C3.05558 6.8043 2.00201 9.34784 2.00201 12C2.00201 14.6522 3.05558 17.1957 4.93095 19.0711C6.80631 20.9464 9.34985 22 12.002 22C14.6542 22 17.1977 20.9464 19.0731 19.0711C20.9484 17.1957 22.002 14.6522 22.002 12C22.002 9.34784 20.9484 6.8043 19.0731 4.92893C17.1977 3.05357 14.6542 2 12.002 2ZM12.141 6.419C12.569 6.419 12.925 6.518 13.211 6.713C13.499 6.909 13.742 7.153 13.942 7.444L19.652 15.706H9.02601L10.733 13.356H13.883C14.178 13.356 14.435 13.366 14.653 13.384C14.4984 13.1824 14.3506 12.9756 14.21 12.764C14.041 12.513 13.88 12.279 13.725 12.06L12.085 9.643L7.79501 15.706H4.45001L10.31 7.444C10.5 7.18 10.741 6.944 11.033 6.734C11.324 6.524 11.694 6.419 12.141 6.419Z" fill="#60A5FA"/>
</svg>
