<svg width="24" height="24" viewBox="0 0 24 24" fill="none" xmlns="http://www.w3.org/2000/svg">
<path d="M2.98529 3.3325C2.89517 3.33134 2.80588 3.34992 2.7237 3.38693C2.64152 3.42395 2.56844 3.47851 2.50959 3.54678C2.45074 3.61504 2.40755 3.69536 2.38304 3.7821C2.35854 3.86884 2.35331 3.95989 2.36774 4.04886L4.98924 19.9631C5.0219 20.1578 5.12214 20.3349 5.27235 20.463C5.42255 20.5912 5.61312 20.6624 5.81058 20.664H18.387C18.535 20.6659 18.6788 20.6146 18.7921 20.5194C18.9055 20.4242 18.9808 20.2914 19.0045 20.1453L21.6322 4.05503C21.6466 3.96606 21.6414 3.87501 21.6169 3.78828C21.5924 3.70154 21.5492 3.62122 21.4903 3.55295C21.4315 3.48468 21.3584 3.43013 21.2762 3.39311C21.1941 3.35609 21.1048 3.33751 21.0146 3.33868L2.98529 3.3325ZM14.024 14.8344H10.0099L8.92303 9.15908H14.9966L14.024 14.8344Z" fill="#1E88E5"/>
<path d="M20.7923 9.15908H14.9966L14.024 14.8344H10.0099L5.27023 20.4633C5.42045 20.5932 5.61199 20.6655 5.81058 20.6671H18.3901C18.5381 20.669 18.6819 20.6177 18.7952 20.5225C18.9086 20.4273 18.9839 20.2945 19.0076 20.1484L20.7923 9.15908Z" fill="url(#paint0_linear_3372_3487)"/>
<defs>
<linearGradient id="paint0_linear_3372_3487" x1="22.1324" y1="10.7462" x2="12.5542" y2="18.2247" gradientUnits="userSpaceOnUse">
<stop offset="0.18" stop-color="#1565C0"/>
<stop offset="1" stop-color="#1E88E5"/>
</linearGradient>
</defs>
</svg>
