<svg width="24" height="24" viewBox="0 0 24 24" fill="none" xmlns="http://www.w3.org/2000/svg">
<path d="M12 21.1312C17.043 21.1312 21.1312 17.043 21.1312 12C21.1312 6.95695 17.043 2.86875 12 2.86875C6.95694 2.86875 2.86874 6.95695 2.86874 12C2.86874 17.043 6.95694 21.1312 12 21.1312Z" fill="black"/>
<path d="M12.2788 2.19216C17.6984 2.34441 21.9596 6.85922 21.8074 12.2788C21.6551 17.6984 17.1403 21.9596 11.7208 21.8075C6.30966 21.6552 2.04844 17.1572 2.19216 11.7462C2.33588 6.32653 6.84235 2.04844 12.2618 2.19216H12.2788ZM12.2281 3.20681C7.37504 3.07997 3.33357 6.91838 3.21525 11.78C3.08841 16.633 6.92682 20.6745 11.78 20.7928C16.633 20.9197 20.6745 17.0812 20.7928 12.2281C20.9281 7.36659 17.0897 3.33356 12.2281 3.20681Z" fill="#F59E0B"/>
<path d="M12.9281 8.75653C12.5391 9.12853 12.6914 9.95709 13.2917 10.5912C13.892 11.2253 14.7205 11.4198 15.0925 11.0393C15.4645 10.6589 15.3462 9.82181 14.7374 9.18769C14.1287 8.55356 13.2916 8.36756 12.9027 8.73956L12.9281 8.75653ZM17.8235 6.39759C18.5929 7.20084 19.1763 8.15616 19.5483 9.19613C19.5483 9.19613 19.802 9.88941 18.9987 9.88941H17.0372C17.0372 9.88941 16.4115 9.83878 16.3862 10.3713C16.3439 11.0308 16.3609 11.5889 16.3609 11.5889C16.3862 11.9693 16.5299 12.3413 16.7666 12.6373L18.7873 14.768C18.9459 14.9134 19.0443 15.113 19.0631 15.3274C19.0818 15.5418 19.0196 15.7554 18.8887 15.9263C17.8657 17.6679 16.2255 18.9531 14.2894 19.5365C13.6974 19.714 13.6383 19.2321 13.6551 18.9023C13.6551 18.6909 13.9004 13.9901 13.9004 13.9901C13.968 13.4828 13.8074 12.9671 13.4523 12.595C12.8181 11.9186 12.4207 11.4875 12.4207 11.4875C12.4207 11.4875 11.9726 11.0393 11.33 10.3715C10.9749 10.0079 10.4846 9.82191 9.97724 9.85575H5.06502C4.74374 9.85575 4.25333 9.77963 4.46474 9.19622C5.14958 7.29384 6.51927 5.72128 8.32011 4.79972C8.68367 4.54613 9.18252 4.61372 9.46996 4.96041L11.4906 7.09106C11.7781 7.34466 12.1416 7.49691 12.5222 7.53919C12.5222 7.53919 13.0717 7.58138 13.7397 7.57294C14.2639 7.57294 14.2554 6.93881 14.2554 6.93881C14.2554 6.93881 14.34 5.63681 14.3654 4.97728C14.3401 4.69828 14.543 4.45313 14.8135 4.42772C14.9064 4.41928 14.991 4.43616 15.0756 4.47C16.1071 4.90969 17.0455 5.56069 17.8149 6.37238L17.8235 6.39759Z" fill="#F59E0B"/>
</svg>
