<svg width="24" height="24" viewBox="0 0 24 24" fill="none" xmlns="http://www.w3.org/2000/svg">
<path d="M8.613 11.997C9.946 11.997 11.201 12.618 12.002 13.674L15.456 18.226C15.4878 18.2681 15.5071 18.3183 15.5115 18.3709C15.5159 18.4235 15.5053 18.4762 15.481 18.523L13.49 22.348C13.4678 22.3902 13.4353 22.4261 13.3955 22.4524C13.3557 22.4788 13.31 22.4947 13.2625 22.4987C13.2149 22.5026 13.1672 22.4946 13.1236 22.4753C13.08 22.4559 13.0419 22.4259 13.013 22.388L5.112 11.998H8.613V11.997ZM10.988 1.612L18.888 12.002H15.388C14.732 12.003 14.0846 11.8523 13.4965 11.5615C12.9084 11.2708 12.3955 10.8479 11.998 10.326L8.546 5.774C8.51407 5.73198 8.49476 5.68173 8.49033 5.62913C8.48591 5.57654 8.49654 5.52377 8.521 5.477L10.511 1.652C10.5332 1.60959 10.5657 1.57348 10.6056 1.547C10.6454 1.52053 10.6913 1.50455 10.739 1.50056C10.7867 1.49657 10.8346 1.50469 10.8783 1.52418C10.922 1.54366 10.9601 1.57387 10.989 1.612H10.988Z" fill="#A855F7"/>
</svg>
