<svg width="24" height="24" viewBox="0 0 24 24" fill="none" xmlns="http://www.w3.org/2000/svg">
<path d="M22.61 11.7757C21.4753 10.6853 15.8009 10.0046 14.0104 9.80652C14.0977 9.59987 14.1717 9.38783 14.2319 9.17172C14.476 9.06492 14.7395 8.96544 15.0119 8.8824C15.0451 8.98032 15.2015 9.3555 15.2906 9.53358C18.8908 9.63288 19.0757 6.85812 19.2221 6.09798C19.3653 5.35464 19.358 4.63644 20.5929 3.32352C18.7531 2.78736 16.1074 4.15452 15.2211 6.18924C14.8881 6.06444 14.5543 5.97234 14.2242 5.91534C13.9876 4.96104 12.7558 2.30244 9.52308 2.30244C5.43018 2.30244 0.969055 5.679 0.969055 11.395C0.969055 16.1996 4.24938 20.4104 6.10259 20.4104C6.91199 20.4104 7.60823 19.8043 7.77168 19.261C7.90871 19.6335 8.3292 20.7916 8.46726 21.0864C8.67138 21.5224 9.6153 21.8996 10.0283 21.4472C10.5595 21.7423 11.534 21.92 12.0652 21.1331C13.0881 21.3495 13.9924 20.7395 14.0122 20.0117C14.5141 19.9849 14.7603 19.2801 14.6507 18.7189C14.5699 18.3056 13.7068 16.8229 13.3701 16.3111C14.0366 16.8532 15.7247 17.0066 15.9297 16.3114C17.0042 17.1548 18.6787 16.7122 18.8115 16.0262C20.1172 16.3655 21.6147 15.6204 21.3688 14.7181C23.4662 14.573 23.1977 12.3414 22.6093 11.7758L22.61 11.7757Z" fill="black"/>
<path d="M16.7696 7.0161C17.2214 6.11982 17.789 5.1411 18.506 4.5357C17.7168 4.8537 16.9377 5.80446 16.477 6.82068C16.247 6.67418 16.0087 6.54104 15.7634 6.42192C16.406 5.0502 17.8993 3.90462 19.5449 3.8151C18.4427 4.81482 18.8339 6.8925 17.9277 7.99248C17.6684 7.73196 17.0729 7.22928 16.7696 7.0161ZM16.0571 8.47566C16.0576 8.44134 16.0704 8.1768 16.0945 8.05602C16.0313 8.04114 15.6384 7.96428 15.4336 7.96908C15.4187 8.22636 15.5417 8.66394 15.6633 8.9274C16.5006 8.90988 17.1054 8.65908 17.4614 8.42856C17.1584 8.28732 16.6412 8.16168 16.248 8.08656C16.2041 8.17734 16.0961 8.40864 16.0571 8.47566Z" fill="#60A5FA"/>
<path d="M12.9458 15.5669C12.946 15.5681 12.9465 15.5697 12.9466 15.571C12.8405 15.3426 12.7278 15.0652 12.5932 14.7026C13.1173 15.4655 14.7599 15.072 14.6738 14.3884C15.4778 14.9933 17.1328 14.2876 16.7566 13.4393C17.5619 13.8146 18.4812 13.0595 18.275 12.7304C19.6481 12.9953 20.964 13.2592 21.3771 13.3649C21.1027 13.8123 20.4777 14.1283 19.5357 13.9087C20.0447 14.6021 19.0564 15.4341 17.6798 14.9758C17.9829 15.6566 16.7572 16.2695 15.3642 15.5599C15.3819 16.241 13.636 16.3194 12.9458 15.5669V15.5669ZM15.6696 12.1246C17.2632 12.247 19.8987 12.4846 21.5303 12.713C21.4272 12.182 21.1457 12.0303 20.26 11.7924C19.3074 11.894 16.8906 12.1314 15.6696 12.1247L15.6696 12.1246Z" fill="#14B8A6"/>
<path d="M14.6739 14.3885C15.4779 14.9935 17.1329 14.2877 16.7567 13.4395C17.5621 13.8148 18.4813 13.0596 18.2752 12.7306C16.6518 12.4176 14.9483 12.1035 14.5619 12.0485C14.7963 12.061 15.1848 12.0876 15.6697 12.1248C16.8908 12.1316 19.3075 11.8942 20.2601 11.7926C18.7177 11.4015 15.5686 10.8308 13.394 10.6902C13.2932 10.8375 13.1079 11.0873 12.7853 11.3527C11.8337 13.3659 10.1098 14.7041 8.20229 14.7041C7.64643 14.7041 7.02446 14.6103 6.32736 14.3875C5.89262 14.8532 4.03911 15.2062 2.53516 14.468C3.7281 17.2613 6.49463 19.126 9.55717 19.126C12.1362 19.126 13.2799 16.4923 13.0296 15.7955C12.9689 15.6263 12.7282 15.0653 12.5936 14.7027C13.1177 15.4656 14.7604 15.0721 14.6743 14.3885L14.6739 14.3885Z" fill="#FBBF24"/>
<path d="M13.111 9.08781C13.3388 8.96394 14.1257 8.48693 14.8755 8.30769C14.8636 8.22435 14.8548 8.1406 14.8492 8.0566C14.3573 8.17444 13.4298 8.57201 12.8982 8.02419C14.0196 8.36256 14.5795 7.72264 15.4037 7.72264C15.8948 7.72264 16.5956 7.85985 17.148 8.07671C16.7037 7.66624 15.2467 6.4275 13.4427 6.42323C13.0399 6.91152 12.6046 7.96926 13.111 9.08776L13.111 9.08781Z" fill="#CECECE"/>
<path d="M6.32736 14.3871C7.02446 14.6099 7.64643 14.7037 8.2023 14.7037C10.1097 14.7037 11.8337 13.3654 12.7853 11.3523C12.0815 11.9397 10.8584 12.4423 8.94834 12.4423C10.6497 12.0566 12.1143 11.2087 12.8594 9.9694C12.3357 9.13582 11.7676 7.29168 13.2061 5.83387C12.9849 5.12294 11.9078 3.24624 9.52348 3.24624C5.36245 3.24624 1.91397 6.72811 1.91397 11.3942C1.91397 12.4988 2.13696 13.5348 2.53531 14.4672C4.03916 15.2055 5.89267 14.8526 6.32741 14.3868L6.32736 14.3871Z" fill="#F87171"/>
<path d="M7.57541 7.28217C7.57541 8.34358 8.43586 9.20408 9.49728 9.20408C10.5587 9.20408 11.4192 8.34353 11.4192 7.28217C11.4192 6.22075 10.5587 5.36025 9.49728 5.36025C8.43586 5.36025 7.57541 6.22075 7.57541 7.28217Z" fill="#FBBF24"/>
<path d="M8.3468 7.28217C8.3468 7.91762 8.86206 8.43279 9.49742 8.43279C10.133 8.43279 10.6481 7.91757 10.6481 7.28217C10.6481 6.64666 10.133 6.1315 9.49742 6.1315C8.86201 6.1315 8.3468 6.64671 8.3468 7.28217Z" fill="#010101"/>
<path d="M9.4973 7.18874C9.86762 7.18874 10.1678 7.0021 10.1678 6.77186C10.1678 6.54162 9.86762 6.35497 9.4973 6.35497C9.12699 6.35497 8.82678 6.54162 8.82678 6.77186C8.82678 7.0021 9.12699 7.18874 9.4973 7.18874Z" fill="white"/>
</svg>
