<svg width="24" height="24" viewBox="0 0 24 24" fill="none" xmlns="http://www.w3.org/2000/svg">
<path d="M12 1.74377C9.27988 1.74377 6.67117 2.82433 4.74775 4.74775C2.82434 6.67117 1.74377 9.27988 1.74377 12C1.74377 14.7201 2.82434 17.3288 4.74775 19.2522C6.67117 21.1757 9.27988 22.2562 12 22.2562C14.7201 22.2562 17.3288 21.1757 19.2523 19.2522C21.1757 17.3288 22.2562 14.7201 22.2562 12C22.2562 9.27988 21.1757 6.67117 19.2523 4.74775C17.3288 2.82433 14.7201 1.74377 12 1.74377ZM11.171 3.24977C11.256 3.94286 11.4027 4.50514 11.6119 5.00228C12.4311 4.26737 13.3716 3.70868 14.3618 3.456C14.1936 4.13108 14.1291 4.70657 14.1456 5.244C15.1786 4.84731 16.2626 4.66046 17.2827 4.78011C16.7373 5.19377 16.343 5.58874 16.0608 5.98268C15.6835 8.05251 17.2365 9.48497 18.5943 10.1914C18.6431 9.99504 18.7581 9.82149 18.92 9.70007C19.0819 9.57864 19.2807 9.51678 19.4829 9.52491C19.6472 9.53182 19.8063 9.5847 19.9421 9.67754C20.0779 9.77038 20.1849 9.89946 20.251 10.0501C20.3171 10.2007 20.3395 10.3669 20.3159 10.5297C20.2922 10.6924 20.2234 10.8453 20.1171 10.9709V10.9714C20.0337 11.1523 19.7739 11.3731 19.5178 11.5233C18.8191 11.933 17.6025 12.5066 15.9324 12.7901C15.9401 12.9982 15.9456 13.2106 15.9456 13.4325C15.9456 14.2582 15.8625 14.8538 15.7082 15.2666C15.1425 17.5488 13.5399 19.854 11.4747 20.7437C11.5359 20.0439 11.5085 19.4607 11.4058 18.9281C10.4489 19.4799 9.40937 19.8329 8.38475 19.8744H8.3844C8.6904 19.2466 8.87383 18.6953 8.96932 18.1642C7.88126 18.335 6.78755 18.2914 5.81897 17.9637C6.32126 17.4953 6.68537 17.0527 6.96292 16.5991C5.88429 16.3687 4.8768 15.9357 4.08875 15.2815C4.74395 15.0168 5.2536 14.7262 5.68303 14.3906C4.75286 13.7877 3.96292 13.0195 3.45926 12.1226C4.14703 12.1106 4.71429 12.0252 5.22497 11.8735C4.57595 10.9795 4.11617 9.98229 3.96789 8.9676C4.62977 9.20846 5.20149 9.33326 5.74389 9.37131C5.45897 8.30503 5.38715 7.21046 5.61223 6.21086C6.13166 6.6624 6.61063 6.97886 7.09166 7.20771C7.20772 6.10954 7.53326 5.06143 8.10189 4.2084C8.43206 4.82931 8.77286 5.30417 9.14949 5.69503C9.65177 4.70863 10.3323 3.84394 11.1708 3.25011L11.171 3.24977ZM15.708 6.6024C15.2974 7.54766 15.4226 8.53903 15.6129 9.8136C15.6964 9.80208 15.7734 9.76212 15.8309 9.70044C15.8884 9.63877 15.9228 9.55916 15.9285 9.47503C15.9341 9.3909 15.9106 9.3074 15.8618 9.23861C15.8131 9.16981 15.7421 9.11993 15.6609 9.09737C15.7457 9.07916 15.8335 9.07999 15.9179 9.09982C16.0023 9.11965 16.0813 9.15797 16.1492 9.21202C16.217 9.26607 16.272 9.3345 16.3102 9.41238C16.3484 9.49026 16.3688 9.57565 16.37 9.66238C16.3712 9.74911 16.3531 9.83502 16.3171 9.91392C16.281 9.99282 16.2279 10.0627 16.1616 10.1186C16.0953 10.1745 16.0174 10.215 15.9335 10.2371C15.8496 10.2593 15.7619 10.2625 15.6766 10.2466C15.775 10.9121 15.875 11.6489 15.9202 12.4966C16.1068 12.4641 16.2926 12.427 16.4774 12.3854C17.6115 12.1305 18.5787 11.7338 19.3695 11.2701C19.4467 11.2248 19.5211 11.1735 19.5883 11.1214C19.651 11.0259 19.6454 10.9574 19.5943 10.9011C18.7661 10.6877 17.7273 10.1246 16.9786 9.39343C16.1619 8.59577 15.7054 7.65103 15.708 6.6024Z" fill="#F59E0B"/>
</svg>
