<svg width="24" height="24" viewBox="0 0 24 24" fill="none" xmlns="http://www.w3.org/2000/svg">
<path d="M12 22.2562C17.6644 22.2562 22.2562 17.6644 22.2562 12C22.2562 6.33564 17.6644 1.74377 12 1.74377C6.33564 1.74377 1.74377 6.33564 1.74377 12C1.74377 17.6644 6.33564 22.2562 12 22.2562Z" fill="#F59E0B"/>
<path d="M11.171 3.24977C10.3327 3.8436 9.65177 4.70829 9.14966 5.69469C8.77286 5.30383 8.43223 4.82897 8.10206 4.20806C7.53326 5.06109 7.20789 6.1092 7.09183 7.20737C6.61063 6.97851 6.13183 6.66223 5.6124 6.21069C5.38714 7.21011 5.45897 8.30486 5.74389 9.37114C5.20149 9.33291 4.62994 9.20829 3.96789 8.96726C4.11617 9.98211 4.57612 10.9793 5.22497 11.8731C4.71446 12.0249 4.1472 12.1102 3.45926 12.1222C3.96309 13.0193 4.75303 13.7875 5.68303 14.3902C5.2536 14.7261 4.74394 15.0166 4.08892 15.2813C4.8768 15.9353 5.88446 16.3683 6.96309 16.5987C6.68537 17.0525 6.32143 17.495 5.81897 17.9633C6.78754 18.2911 7.88126 18.3346 8.96932 18.1639C8.874 18.695 8.69057 19.2463 8.3844 19.8739H8.38474C9.40937 19.8327 10.4491 19.4796 11.4058 18.9276C11.5087 19.4604 11.5361 20.0436 11.4747 20.7435C13.5399 19.8538 15.1425 17.5485 15.7082 15.2662C15.8625 14.8534 15.9456 14.2581 15.9456 13.4319C15.9456 13.2103 15.9403 12.9981 15.9326 12.7899C17.6026 12.5062 18.8193 11.9326 19.5178 11.5231C19.7739 11.3727 20.0338 11.1519 20.1171 10.9711V10.9707C20.2234 10.8451 20.2922 10.6923 20.3159 10.5295C20.3395 10.3667 20.3171 10.2006 20.251 10.0499C20.1849 9.89929 20.0779 9.77021 19.9421 9.67737C19.8063 9.58453 19.6472 9.53165 19.4829 9.52474C19.2806 9.51662 19.0818 9.57851 18.92 9.69997C18.7581 9.82142 18.6431 9.99501 18.5943 10.1914C17.2366 9.4848 15.6835 8.05251 16.0608 5.98269C16.343 5.58857 16.7374 5.1936 17.2831 4.77994C16.2627 4.66029 15.1786 4.84714 14.1456 5.244C14.1293 4.70657 14.1936 4.13109 14.3619 3.456C13.3718 3.70851 12.4313 4.26737 11.6121 5.00229C11.4029 4.5048 11.256 3.94286 11.171 3.24977ZM15.7078 6.6024C15.7053 7.65103 16.1618 8.59577 16.9785 9.39343C17.7269 10.1246 18.7658 10.6877 19.5941 10.9011C19.6452 10.9574 19.6509 11.0259 19.5881 11.1214C19.5209 11.1735 19.4467 11.2248 19.3694 11.2701C18.5787 11.7336 17.6112 12.1305 16.4774 12.3854C16.2936 12.4265 16.1081 12.4639 15.9202 12.4966C15.8748 11.6489 15.7749 10.9121 15.6765 10.2466C15.7618 10.2626 15.8495 10.2594 15.9334 10.2373C16.0174 10.2152 16.0953 10.1747 16.1617 10.1188C16.2281 10.063 16.2812 9.99302 16.3173 9.9141C16.3533 9.83517 16.3714 9.74922 16.3702 9.66246C16.3691 9.57569 16.3486 9.49027 16.3104 9.41236C16.2722 9.33446 16.2171 9.26601 16.1492 9.21196C16.0814 9.15791 16.0023 9.11961 15.9178 9.09983C15.8333 9.08004 15.7455 9.07926 15.6607 9.09754C15.7418 9.12018 15.8127 9.17008 15.8614 9.23884C15.91 9.30761 15.9335 9.39104 15.9279 9.47509C15.9223 9.55915 15.8878 9.6387 15.8304 9.70035C15.773 9.762 15.6961 9.802 15.6127 9.8136C15.4224 8.53903 15.2973 7.54766 15.7078 6.6024Z" fill="black"/>
</svg>
