<svg width="24" height="24" viewBox="0 0 24 24" fill="none" xmlns="http://www.w3.org/2000/svg">
<path d="M21.6546 12.711C21.6546 16.9065 17.3322 20.3079 12 20.3079C6.6678 20.3079 2.3454 16.9068 2.3454 12.711C2.3454 10.1098 4.00047 7.812 6.5436 6.4494C9.08688 5.08671 10.6701 3.69096 11.9997 3.69096C13.3293 3.69096 14.4658 4.83021 17.4558 6.4494C19.9991 7.81209 21.654 10.11 21.654 12.711H21.6546Z" fill="#FFF3E0"/>
<path d="M21.6546 12.711C21.6533 12.172 21.579 11.6357 21.4339 11.1166C20.6809 20.3023 9.47624 20.7436 5.07074 17.9962C7.05101 19.5311 9.49468 20.3463 11.9998 20.3078C17.3236 20.3078 21.6546 16.9014 21.6546 12.711Z" fill="#FBE9E7"/>
<path d="M8.28459 5.9445C9.51762 5.20524 11.1562 3.81774 12.7669 3.81498C12.5191 3.73487 12.2605 3.69302 12 3.69085C11.3325 3.69085 10.6208 4.03567 9.72429 4.55425C9.41259 4.73631 9.08985 4.93765 8.74779 5.14732C8.10507 5.54452 7.36857 5.99416 6.54102 6.44377C3.915 7.86439 2.34552 10.2061 2.34552 12.7108V13.039C4.01715 7.13323 7.05429 6.684 8.28459 5.9445Z" fill="#FAFAFA"/>
<path fill-rule="evenodd" clip-rule="evenodd" d="M11.2056 4.3887C11.2094 5.04003 11.0727 5.68453 10.8047 6.27817C10.5366 6.87182 10.1437 7.40063 9.65256 7.8285C9.57532 7.89746 9.63601 8.02987 9.73531 7.99125C10.6649 7.6299 11.92 6.54858 11.3904 4.36665C11.3683 4.24252 11.2056 4.2756 11.2056 4.3887ZM11.8317 4.3887C12.1693 4.93942 12.3837 5.55663 12.4604 6.198C12.5371 6.83938 12.4741 7.48974 12.2758 8.1045C12.2427 8.20105 12.3614 8.2838 12.4276 8.2038C13.0317 7.43145 13.5585 5.89773 11.9807 4.2426C11.9007 4.17088 11.7766 4.28122 11.8318 4.37777L11.8317 4.3887ZM12.5931 4.34181C13.1216 4.716 13.5638 5.19919 13.8897 5.75878C14.2157 6.31837 14.4179 6.94135 14.4826 7.58571C14.4798 7.60893 14.4861 7.63234 14.5001 7.65107C14.5141 7.66981 14.5347 7.68244 14.5578 7.68634C14.5809 7.69025 14.6045 7.68512 14.6239 7.67203C14.6433 7.65895 14.6569 7.6389 14.6619 7.61605C14.9157 6.65335 14.7723 5.01208 12.6841 4.15975C12.5738 4.11562 12.5021 4.26457 12.5931 4.33077L12.5931 4.34181ZM7.50087 7.21059C8.12959 7.02276 8.71171 6.70462 9.20932 6.27688C9.70692 5.84914 10.1089 5.32139 10.389 4.728C10.4386 4.6287 10.5959 4.66731 10.571 4.77765C10.0938 6.98442 8.49668 7.44507 7.50353 7.38438C7.3987 7.38714 7.40156 7.24093 7.50087 7.21059Z" fill="#BCAAA4"/>
<path d="M13.9449 14.7246C13.821 15.2321 13.5389 15.6871 13.1394 16.0238C12.8395 16.3146 12.4513 16.497 12.0361 16.5424C11.6084 16.5042 11.2065 16.3213 10.8968 16.0238C10.5014 15.6855 10.2233 15.2307 10.1024 14.7246C10.0984 14.6946 10.1013 14.664 10.1109 14.6352C10.1206 14.6065 10.1366 14.5803 10.1579 14.5588C10.1792 14.5372 10.2052 14.5208 10.2338 14.5108C10.2624 14.5008 10.293 14.4975 10.3231 14.5012H13.7269C13.7567 14.498 13.787 14.5016 13.8152 14.5118C13.8435 14.522 13.8691 14.5385 13.8901 14.56C13.911 14.5815 13.9269 14.6075 13.9363 14.636C13.9458 14.6645 13.9488 14.6948 13.9449 14.7246Z" fill="#B71C1C"/>
<path d="M10.8966 16.0461C11.2056 16.3437 11.6061 16.5284 12.0331 16.5702C12.4591 16.5278 12.8585 16.3432 13.1668 16.0461C13.2654 15.9542 13.3576 15.8556 13.4427 15.7509C13.2727 15.5582 13.0652 15.4022 12.8327 15.2926C12.6003 15.183 12.3479 15.1222 12.091 15.1137C11.8162 15.1203 11.5471 15.1935 11.3068 15.327C11.0665 15.4606 10.8623 15.6506 10.7118 15.8806C10.7752 15.9385 10.8304 15.9937 10.8966 16.0461Z" fill="#FF5252"/>
<path d="M10.9407 15.8283C11.0775 15.6515 11.2525 15.5081 11.4527 15.4087C11.6529 15.3093 11.873 15.2566 12.0965 15.2546C12.5096 15.2667 12.9032 15.433 13.1999 15.7207C13.2633 15.6518 13.324 15.58 13.382 15.5083C13.031 15.1741 12.5673 14.9841 12.0827 14.9759C11.8238 14.9782 11.5685 15.0377 11.3353 15.1503C11.1021 15.2628 10.8967 15.4256 10.7338 15.6269C10.799 15.6978 10.8681 15.765 10.9407 15.8283Z" fill="black"/>
<path d="M12.0249 16.7082C11.5653 16.6679 11.1327 16.4735 10.7974 16.1565C10.3704 15.7954 10.0699 15.3073 9.93953 14.7635C9.93019 14.7151 9.93178 14.6652 9.94418 14.6174C9.95659 14.5697 9.97951 14.5254 10.0113 14.4876C10.0491 14.442 10.0968 14.4056 10.1508 14.3812C10.2048 14.3568 10.2637 14.3451 10.323 14.347H13.7268C13.7859 14.3457 13.8446 14.3577 13.8985 14.382C13.9524 14.4064 14.0003 14.4425 14.0385 14.4876C14.0699 14.5255 14.0924 14.57 14.1044 14.6177C14.1163 14.6655 14.1173 14.7153 14.1074 14.7635C13.9771 15.3073 13.6765 15.7954 13.2495 16.1565C12.915 16.4729 12.4836 16.6673 12.0249 16.7082ZM10.323 14.6669C10.2788 14.6669 10.2678 14.6863 10.265 14.6918C10.3816 15.1634 10.6454 15.5856 11.0181 15.8972C11.2906 16.1657 11.6449 16.3356 12.0249 16.38C12.4039 16.3361 12.7579 16.1684 13.0318 15.9027C13.4033 15.5906 13.666 15.1685 13.7821 14.6973C13.776 14.6885 13.7677 14.6815 13.758 14.6771C13.7482 14.6727 13.7375 14.6711 13.7269 14.6725L10.323 14.6669Z" fill="black"/>
<path d="M16.1982 14.8956C17.0894 14.8956 17.8119 14.4708 17.8119 13.9467C17.8119 13.4226 17.0894 12.9978 16.1982 12.9978C15.307 12.9978 14.5845 13.4226 14.5845 13.9467C14.5845 14.4708 15.307 14.8956 16.1982 14.8956Z" fill="#F8BBD0"/>
<path d="M7.84862 14.8956C8.73985 14.8956 9.46232 14.4708 9.46232 13.9467C9.46232 13.4226 8.73985 12.9978 7.84862 12.9978C6.9574 12.9978 6.23492 13.4226 6.23492 13.9467C6.23492 14.4708 6.9574 14.8956 7.84862 14.8956Z" fill="#F8BBD0"/>
<path fill-rule="evenodd" clip-rule="evenodd" d="M8.60728 13.566C8.90801 13.5666 9.20214 13.4779 9.45246 13.3112C9.70278 13.1445 9.89802 12.9073 10.0135 12.6297C10.129 12.352 10.1595 12.0463 10.1011 11.7513C10.0428 11.4563 9.89825 11.1852 9.6858 10.9723C9.47335 10.7595 9.20253 10.6144 8.90762 10.5556C8.61271 10.4967 8.30696 10.5266 8.02907 10.6416C7.75118 10.7565 7.51363 10.9514 7.3465 11.2014C7.17936 11.4514 7.09015 11.7454 7.09015 12.0461C7.09015 12.4487 7.2499 12.8349 7.53434 13.1198C7.81877 13.4048 8.20465 13.5653 8.60728 13.566ZM15.4401 13.566C15.7412 13.5682 16.0361 13.4809 16.2875 13.3152C16.5389 13.1496 16.7354 12.9129 16.8521 12.6354C16.9689 12.3579 17.0006 12.0519 16.9432 11.7564C16.8858 11.4608 16.7419 11.189 16.5298 10.9753C16.3177 10.7616 16.0469 10.6158 15.7517 10.5562C15.4566 10.4967 15.1504 10.5261 14.872 10.6408C14.5937 10.7555 14.3556 10.9503 14.1881 11.2005C14.0206 11.4507 13.9312 11.745 13.9312 12.0461C13.9305 12.4475 14.0888 12.8329 14.3717 13.1177C14.6545 13.4026 15.0387 13.5638 15.4401 13.566Z" fill="black"/>
<path fill-rule="evenodd" clip-rule="evenodd" d="M8.13812 12.1428C8.25116 12.1433 8.36183 12.1103 8.45609 12.0479C8.55035 11.9855 8.62396 11.8965 8.6676 11.7922C8.71125 11.688 8.72295 11.5731 8.70123 11.4621C8.67951 11.3512 8.62535 11.2492 8.5456 11.169C8.46586 11.0889 8.36412 11.0343 8.25329 11.012C8.14245 10.9897 8.0275 11.0009 7.92301 11.044C7.81851 11.0872 7.72917 11.1603 7.66631 11.2543C7.60345 11.3483 7.56989 11.4588 7.56989 11.5718C7.56988 11.7228 7.62966 11.8676 7.73615 11.9746C7.84263 12.0816 7.98716 12.1421 8.13812 12.1428ZM14.9709 12.1428C15.084 12.1433 15.1946 12.1103 15.2889 12.0479C15.3832 11.9855 15.4568 11.8965 15.5004 11.7922C15.544 11.688 15.5557 11.5731 15.534 11.4621C15.5123 11.3512 15.4581 11.2492 15.3784 11.169C15.2987 11.0889 15.1969 11.0343 15.0861 11.012C14.9753 10.9897 14.8603 11.0009 14.7558 11.044C14.6513 11.0872 14.562 11.1603 14.4991 11.2543C14.4362 11.3483 14.4027 11.4588 14.4027 11.5718C14.4027 11.7218 14.4617 11.8658 14.567 11.9727C14.6723 12.0795 14.8154 12.1406 14.9654 12.1428H14.9709Z" fill="white"/>
</svg>
