<svg width="24" height="24" viewBox="0 0 24 24" fill="none" xmlns="http://www.w3.org/2000/svg">
<path fill-rule="evenodd" clip-rule="evenodd" d="M22.453 14.346C22.453 8.573 17.773 3.893 12 3.893C6.22701 3.893 1.54701 8.573 1.54701 14.346C1.54443 16.1516 2.01174 17.9267 2.90301 19.497V18.843C2.90336 18.2131 3.13591 17.6055 3.55619 17.1363C3.97647 16.6671 4.55496 16.3694 5.18101 16.3V12.902C5.18101 8.864 7.71001 6.714 11.9 6.768C13.937 6.795 15.574 7.288 16.725 8.269C17.957 9.319 18.596 10.898 18.596 12.966L18.59 16.321C19.1861 16.4218 19.7273 16.7304 20.1177 17.192C20.5081 17.6536 20.7225 18.2384 20.723 18.843V20.108C21.8545 18.3996 22.4564 16.3951 22.453 14.346Z" fill="#60A5FA"/>
<path fill-rule="evenodd" clip-rule="evenodd" d="M15.52 16.284V13.98C15.515 13.8901 15.5117 13.8001 15.51 13.71C15.5081 13.4573 15.4958 13.2047 15.473 12.953C15.4479 12.66 15.3936 12.3702 15.311 12.088C15.138 11.52 14.842 11.064 14.383 10.728C13.819 10.317 13.013 10.09 11.921 10.09C10.819 10.09 10.001 10.319 9.42499 10.734C8.95399 11.073 8.64899 11.533 8.47499 12.101C8.38435 12.4047 8.32832 12.7177 8.30799 13.034C8.29028 13.2939 8.28595 13.5546 8.29499 13.815C8.29648 13.8703 8.29781 13.9257 8.29899 13.981V16.285L15.52 16.284Z" fill="#60A5FA"/>
</svg>
