<svg width="24" height="24" viewBox="0 0 24 24" fill="none" xmlns="http://www.w3.org/2000/svg">
<path d="M11 7.5V12.325C11 12.5017 11.0932 12.6652 11.2452 12.7552L15.2876 15.1498C15.5221 15.2887 15.8247 15.2142 15.9679 14.9822L16.2326 14.5532C16.3795 14.3152 16.3026 14.003 16.062 13.8605L12.7451 11.8952C12.5932 11.8052 12.5 11.6417 12.5 11.4651V7.5M12.5 2.5C9.20396 2.5 6.31769 4.17393 4.61453 6.71587C4.43136 6.98924 4.04124 7.04124 3.80856 6.80856L2.85355 5.85355C2.53857 5.53857 2 5.76165 2 6.20711V11C2 11.2761 2.22386 11.5 2.5 11.5H7.29289C7.73835 11.5 7.96143 10.9614 7.64645 10.6464L6.00055 9.00055C5.85045 8.85045 5.8101 8.62105 5.91081 8.43418C7.17594 6.08658 9.62704 4.5 12.5 4.5C14.4891 4.5 16.3968 5.29018 17.8033 6.6967C19.2098 8.10322 20 10.0109 20 12C20 13.9891 19.2098 15.8968 17.8033 17.3033C16.3968 18.7098 14.4891 19.5 12.5 19.5C9.35512 19.5 6.68196 17.5669 5.56576 14.8304C5.48576 14.6342 5.29841 14.5 5.08658 14.5H3.99477C3.66504 14.5 3.42558 14.8141 3.53414 15.1254C4.82717 18.8335 8.34038 21.5 12.5 21.5C17.74 21.5 22 17.25 22 12C22 10.7524 21.7543 9.5171 21.2769 8.36451C20.7994 7.21191 20.0997 6.16464 19.2175 5.28249C18.3354 4.40033 17.2881 3.70056 16.1355 3.22314C14.9829 2.74572 13.7476 2.5 12.5 2.5Z" fill="#8BC34A"/>
</svg>
