<svg width="24" height="24" viewBox="0 0 24 24" fill="none" xmlns="http://www.w3.org/2000/svg">
<path d="M12 14.4177C13.3352 14.4177 14.4176 13.3352 14.4176 12C14.4176 10.6648 13.3352 9.58232 12 9.58232C10.6647 9.58232 9.58228 10.6648 9.58228 12C9.58228 13.3352 10.6647 14.4177 12 14.4177Z" fill="#FAFAFA"/>
<path d="M11.848 1.84624C7.11724 1.84624 3.14243 5.08272 2.01443 9.46168C2.00379 9.50106 1.99807 9.54161 1.99739 9.5824C1.99742 9.71063 2.04836 9.8336 2.13904 9.92428C2.22971 10.0149 2.35268 10.0659 2.48091 10.0659H6.57467C6.76979 10.0659 6.93627 9.95008 7.01267 9.78336C7.01267 9.78336 7.01891 9.77184 7.02083 9.76632C7.86483 7.94504 9.70811 6.68136 11.8471 6.68136C14.7844 6.68136 17.1657 9.06232 17.1657 12C17.1657 14.9377 14.7851 17.3186 11.8477 17.3186C9.70867 17.3186 7.86571 16.0546 7.02147 14.2337C7.01923 14.2278 7.01331 14.2166 7.01331 14.2166C6.97509 14.1325 6.91348 14.0611 6.83582 14.011C6.75816 13.9609 6.66773 13.9342 6.57531 13.9341H2.48083C2.41733 13.9341 2.35445 13.9466 2.29577 13.9708C2.2371 13.9951 2.18379 14.0307 2.13889 14.0757C2.09398 14.1206 2.05837 14.1739 2.03408 14.2325C2.00979 14.2912 1.99729 14.3541 1.99731 14.4176C1.99731 14.4594 2.00435 14.4998 2.01435 14.5384C3.14211 18.9174 7.11691 22.1538 11.848 22.1538C17.4557 22.1538 22.0016 17.6074 22.0016 12.0002C22.0016 6.39272 17.4556 1.84656 11.848 1.84656L11.848 1.84624Z" fill="#FAFAFA"/>
</svg>
