<svg width="24" height="25" viewBox="0 0 24 25" fill="none" xmlns="http://www.w3.org/2000/svg">
<path d="M18.4505 5.74908C19.3753 5.74908 20.125 6.53137 20.125 7.49638V12.0499C20.125 16.0269 17.0353 19.2509 13.2241 19.2509C9.76377 19.2509 6.89833 16.5934 6.39991 13.1277C6.36661 9 6.36661 11 6.36661 7.09927C6.53888 6.32558 7.20378 5.74908 7.99765 5.74908H18.4505Z" stroke="#EA580C" stroke-width="2"/>
<mask id="mask0_3372_1807" style="mask-type:alpha" maskUnits="userSpaceOnUse" x="0" y="6" width="4" height="7">
<rect x="-0.5" y="0.5" width="1.875" height="6" transform="matrix(-1 0 0 1 2.83334 6)" fill="#D9D9D9" stroke="#F87171"/>
</mask>
<g mask="url(#mask0_3372_1807)">
<ellipse cx="1.91667" cy="2" rx="1.91667" ry="2" transform="matrix(-1 0 0 1 5.70602 8)" stroke="#EA580C" stroke-width="2"/>
</g>
</svg>
