<svg width="24" height="25" viewBox="0 0 24 25" fill="none" xmlns="http://www.w3.org/2000/svg">
<path d="M2 21.5H20V19.5H2M20 8.5H18V5.5H20M20 3.5H4V13.5C4 14.5609 4.42143 15.5783 5.17157 16.3284C5.92172 17.0786 6.93913 17.5 8 17.5H14C15.0609 17.5 16.0783 17.0786 16.8284 16.3284C17.5786 15.5783 18 14.5609 18 13.5V10.5H20C20.5304 10.5 21.0391 10.2893 21.4142 9.91421C21.7893 9.53914 22 9.03043 22 8.5V5.5C22 4.96957 21.7893 4.46086 21.4142 4.08579C21.0391 3.71071 20.5304 3.5 20 3.5Z" fill="#60A5FA"/>
</svg>
