<svg width="24" height="25" viewBox="0 0 24 25" fill="none" xmlns="http://www.w3.org/2000/svg">
<path d="M6.60999 3.51701C7.56291 3.51701 8.47681 3.89555 9.15063 4.56937C9.82444 5.24319 10.203 6.15708 10.203 7.11001V8.90701H13.797V7.11001C13.7969 6.63808 13.8897 6.17076 14.0702 5.73472C14.2507 5.29868 14.5153 4.90247 14.849 4.56873C15.1827 4.23498 15.5788 3.97023 16.0148 3.7896C16.4508 3.60898 16.9181 3.51601 17.39 3.51601C17.8619 3.51601 18.3292 3.60898 18.7652 3.7896C19.2012 3.97023 19.5973 4.23498 19.931 4.56873C20.2646 4.90247 20.5293 5.29868 20.7098 5.73472C20.8903 6.17076 20.9831 6.63808 20.983 7.11001C20.983 7.58185 20.8901 8.04907 20.7095 8.48499C20.5289 8.92091 20.2643 9.317 19.9306 9.65064C19.597 9.98428 19.2009 10.2489 18.765 10.4295C18.3291 10.6101 17.8618 10.703 17.39 10.703H15.593V14.297H17.39C17.8618 14.297 18.3291 14.3899 18.765 14.5705C19.2009 14.7511 19.597 15.0157 19.9306 15.3494C20.2643 15.683 20.5289 16.0791 20.7095 16.515C20.8901 16.9509 20.983 17.4182 20.983 17.89C20.983 18.3618 20.8901 18.8291 20.7095 19.265C20.5289 19.7009 20.2643 20.097 19.9306 20.4306C19.597 20.7643 19.2009 21.0289 18.765 21.2095C18.3291 21.3901 17.8618 21.483 17.39 21.483C16.9182 21.483 16.4509 21.3901 16.015 21.2095C15.5791 21.0289 15.183 20.7643 14.8494 20.4306C14.5157 20.097 14.2511 19.7009 14.0705 19.265C13.8899 18.8291 13.797 18.3618 13.797 17.89V16.093H10.203V17.89C10.203 18.3618 10.1101 18.8291 9.92949 19.265C9.74893 19.7009 9.48427 20.097 9.15063 20.4306C8.81699 20.7643 8.4209 21.0289 7.98497 21.2095C7.54905 21.3901 7.08183 21.483 6.60999 21.483C6.13807 21.4831 5.67074 21.3903 5.2347 21.2098C4.79866 21.0293 4.40246 20.7646 4.06871 20.431C3.73496 20.0973 3.47022 19.7012 3.28959 19.2652C3.10896 18.8292 3.01599 18.3619 3.01599 17.89C3.01599 17.4181 3.10896 16.9508 3.28959 16.5148C3.47022 16.0788 3.73496 15.6827 4.06871 15.349C4.40246 15.0154 4.79866 14.7507 5.2347 14.5702C5.67074 14.3897 6.13807 14.2969 6.60999 14.297H8.40699V10.703H6.60999C6.13807 10.7031 5.67074 10.6103 5.2347 10.4298C4.79866 10.2493 4.40246 9.98465 4.06871 9.651C3.73496 9.31734 3.47022 8.92121 3.28959 8.48522C3.10896 8.04923 3.01599 7.58193 3.01599 7.11001C3.01586 6.638 3.10873 6.17059 3.2893 5.73449C3.46987 5.29838 3.7346 4.90213 4.06836 4.56837C4.40212 4.23461 4.79837 3.96988 5.23447 3.78932C5.67058 3.60875 6.13798 3.51688 6.60999 3.51701ZM15.593 17.89C15.593 18.3666 15.7823 18.8237 16.1193 19.1607C16.4563 19.4977 16.9134 19.687 17.39 19.687C17.8666 19.687 18.3237 19.4977 18.6607 19.1607C18.9977 18.8237 19.187 18.3666 19.187 17.89C19.1867 17.4136 18.9973 16.9568 18.6603 16.62C18.3233 16.2832 17.8664 16.094 17.39 16.094H15.593V17.891M13.797 10.704H10.203V14.297H13.797V10.704ZM6.60999 16.094C6.1334 16.094 5.67632 16.2833 5.33932 16.6203C5.00232 16.9573 4.81299 17.4144 4.81299 17.891C4.81326 18.3674 5.0027 18.8242 5.33967 19.161C5.67665 19.4978 6.13357 19.687 6.60999 19.687C7.08641 19.687 7.54333 19.4978 7.88031 19.161C8.21728 18.8242 8.40673 18.3674 8.40699 17.891V16.094H6.60999ZM8.40699 7.11001C8.40673 6.63359 8.21728 6.17677 7.88031 5.83998C7.54333 5.5032 7.08641 5.31401 6.60999 5.31401C6.13357 5.31401 5.67665 5.5032 5.33967 5.83998C5.0027 6.17677 4.81326 6.63359 4.81299 7.11001C4.81299 7.5866 5.00232 8.04367 5.33932 8.38068C5.67632 8.71768 6.1334 8.90701 6.60999 8.90701H8.40699V7.11001ZM17.39 8.90701C17.8666 8.90701 18.3237 8.71768 18.6607 8.38068C18.9977 8.04367 19.187 7.5866 19.187 7.11001C19.1867 6.63359 18.9973 6.17677 18.6603 5.83998C18.3233 5.5032 17.8664 5.31401 17.39 5.31401C16.9136 5.31401 16.4566 5.5032 16.1197 5.83998C15.7827 6.17677 15.5933 6.63359 15.593 7.11001V8.90701H17.39Z" fill="#71717A"/>
</svg>
