<svg width="24" height="25" viewBox="0 0 24 25" fill="none" xmlns="http://www.w3.org/2000/svg">
<path d="M20 19.5V7.5H4V19.5H20ZM20 3.5C20.5304 3.5 21.0391 3.71071 21.4142 4.08579C21.7893 4.46086 22 4.96957 22 5.5V19.5C22 20.0304 21.7893 20.5391 21.4142 20.9142C21.0391 21.2893 20.5304 21.5 20 21.5H4C3.46957 21.5 2.96086 21.2893 2.58579 20.9142C2.21071 20.5391 2 20.0304 2 19.5V5.5C2 4.96957 2.21071 4.46086 2.58579 4.08579C2.96086 3.71071 3.46957 3.5 4 3.5H20ZM13 17.5V15.5H18V17.5H13ZM9.58 13.5L5.57 9.5H8.4L11.7 12.8C12.09 13.19 12.09 13.83 11.7 14.22L8.42 17.5H5.59L9.58 13.5Z" fill="#71717A"/>
</svg>
