<svg width="24" height="25" viewBox="0 0 24 25" fill="none" xmlns="http://www.w3.org/2000/svg">
<path d="M17 9.5H7V7.5H17M17 13.5H7V11.5H17M14 17.5H7V15.5H14M12 3.5C12.2652 3.5 12.5196 3.60536 12.7071 3.79289C12.8946 3.98043 13 4.23478 13 4.5C13 4.76522 12.8946 5.01957 12.7071 5.20711C12.5196 5.39464 12.2652 5.5 12 5.5C11.7348 5.5 11.4804 5.39464 11.2929 5.20711C11.1054 5.01957 11 4.76522 11 4.5C11 4.23478 11.1054 3.98043 11.2929 3.79289C11.4804 3.60536 11.7348 3.5 12 3.5ZM19 3.5H14.82C14.4 2.34 13.3 1.5 12 1.5C10.7 1.5 9.6 2.34 9.18 3.5H5C4.46957 3.5 3.96086 3.71071 3.58579 4.08579C3.21071 4.46086 3 4.96957 3 5.5V19.5C3 20.0304 3.21071 20.5391 3.58579 20.9142C3.96086 21.2893 4.46957 21.5 5 21.5H19C19.5304 21.5 20.0391 21.2893 20.4142 20.9142C20.7893 20.5391 21 20.0304 21 19.5V5.5C21 4.96957 20.7893 4.46086 20.4142 4.08579C20.0391 3.71071 19.5304 3.5 19 3.5Z" fill="#FFCA28"/>
</svg>
