<svg width="24" height="25" viewBox="0 0 24 25" fill="none" xmlns="http://www.w3.org/2000/svg">
<path d="M21.5236 15.1004L14.6088 22.0012C14.5812 22.0288 14.5397 22.0428 14.5121 22.0288L5.06652 19.498C5.025 19.4842 4.99728 19.4566 4.99728 19.4289L2.4528 9.99728C2.439 9.95588 2.4528 9.92816 2.4804 9.90056L9.39528 2.9996C9.42288 2.972 9.4644 2.95808 9.49212 2.972L18.9377 5.5028C18.9791 5.51648 19.0068 5.5442 19.0068 5.5718L21.5376 15.0034C21.5652 15.045 21.5514 15.0727 21.5238 15.1003L21.5236 15.1004ZM12.2578 7.5908L2.97816 10.0664C2.96436 10.0664 2.95056 10.094 2.96436 10.1078L9.75468 16.8842C9.76848 16.898 9.7962 16.898 9.7962 16.8704L12.2855 7.6046C12.2993 7.6046 12.2717 7.577 12.2579 7.59068L12.2578 7.5908Z" fill="#71717A"/>
</svg>
