<svg width="24" height="25" viewBox="0 0 24 25" fill="none" xmlns="http://www.w3.org/2000/svg">
<path d="M4.79999 7.1C4.79999 6.4785 5.08376 5.93598 5.49679 5.49823C5.90645 5.06406 6.4677 4.7037 7.11 4.41577C8.39616 3.83921 10.1256 3.5 12 3.5C13.8743 3.5 15.6038 3.83921 16.89 4.41577C17.5323 4.7037 18.0935 5.06406 18.5032 5.49823C18.9162 5.93598 19.2 6.4785 19.2 7.1V17.9C19.2 18.5215 18.9162 19.0641 18.5032 19.5018C18.0935 19.936 17.5323 20.2963 16.89 20.5842C15.6038 21.1608 13.8743 21.5 12 21.5C10.1256 21.5 8.39616 21.1608 7.11 20.5842C6.4677 20.2963 5.90645 19.936 5.49679 19.5018C5.08376 19.0641 4.79999 18.5215 4.79999 17.9V7.1ZM6.14999 7.1C6.14999 7.28622 6.23138 7.51318 6.47871 7.77531C6.72943 8.04103 7.12374 8.31095 7.66223 8.55235C8.73766 9.03443 10.2707 9.35 12 9.35C13.7292 9.35 15.2623 9.03443 16.3377 8.55235C16.8762 8.31095 17.2706 8.04103 17.5213 7.77531C17.7686 7.51318 17.85 7.28622 17.85 7.1C17.85 6.91378 17.7686 6.68682 17.5213 6.42469C17.2706 6.15897 16.8762 5.88904 16.3377 5.64765C15.2623 5.16557 13.7292 4.85 12 4.85C10.2707 4.85 8.73766 5.16557 7.66223 5.64765C7.12374 5.88904 6.72943 6.15897 6.47871 6.42469C6.23138 6.68682 6.14999 6.91378 6.14999 7.1ZM17.85 9.25318C17.5612 9.45154 17.2374 9.62848 16.89 9.78423C15.6038 10.3608 13.8743 10.7 12 10.7C10.1256 10.7 8.39616 10.3608 7.11 9.78423C6.76255 9.62848 6.43883 9.45154 6.14999 9.25318V17.9C6.14999 18.0862 6.23138 18.3132 6.47871 18.5753C6.72943 18.841 7.12374 19.111 7.66223 19.3523C8.73766 19.8345 10.2707 20.15 12 20.15C13.7292 20.15 15.2623 19.8345 16.3377 19.3523C16.8762 19.111 17.2706 18.841 17.5213 18.5753C17.7686 18.3132 17.85 18.0862 17.85 17.9V9.25318Z" fill="#F472B6"/>
<path fill-rule="evenodd" clip-rule="evenodd" d="M7.00774 4.18764C8.33293 3.59359 10.0988 3.25 12 3.25C13.9012 3.25 15.667 3.59359 16.9922 4.18764C17.6538 4.4842 18.2459 4.86129 18.685 5.32665C19.1285 5.79673 19.45 6.39769 19.45 7.1V17.9C19.45 18.6024 19.1286 19.2033 18.685 19.6734C18.2459 20.1387 17.6538 20.5159 16.9922 20.8124C15.667 21.4064 13.9012 21.75 12 21.75C10.0988 21.75 8.33293 21.4064 7.00774 20.8124C6.34621 20.5159 5.75405 20.1387 5.31496 19.6734C4.87142 19.2033 4.54999 18.6024 4.54999 17.9V7.1C4.54999 6.39769 4.87142 5.79673 5.31496 5.32666C5.75405 4.86129 6.34621 4.48419 7.00774 4.18764ZM6.66055 7.60374C6.88183 7.83827 7.24523 8.09144 7.7645 8.32422C8.8009 8.78881 10.2976 9.1 12 9.1C13.7024 9.1 15.1991 8.78881 16.2355 8.32422C16.7547 8.09144 17.1182 7.83827 17.3395 7.60374C17.5556 7.37463 17.6 7.20614 17.6 7.1C17.6 6.99386 17.5556 6.82537 17.3395 6.59626C17.1182 6.36173 16.7547 6.10855 16.2355 5.87578C15.1991 5.41119 13.7024 5.1 12 5.1C10.2976 5.1 8.8009 5.41119 7.76449 5.87578C7.24524 6.10855 6.88183 6.36173 6.66055 6.59626C6.44435 6.82539 6.39999 6.99388 6.39999 7.1C6.39999 7.20612 6.44435 7.37461 6.66055 7.60374ZM17.5213 6.42469C17.7686 6.68682 17.85 6.91378 17.85 7.1C17.85 7.28622 17.7686 7.51318 17.5213 7.77531C17.2706 8.04103 16.8762 8.31095 16.3377 8.55235C15.2623 9.03443 13.7292 9.35 12 9.35C10.2707 9.35 8.73766 9.03443 7.66223 8.55235C7.12374 8.31095 6.72943 8.04103 6.47871 7.77531C6.23138 7.51318 6.14999 7.28622 6.14999 7.1C6.14999 6.91378 6.23138 6.68682 6.47871 6.42469C6.72943 6.15897 7.12374 5.88904 7.66223 5.64765C8.73766 5.16557 10.2707 4.85 12 4.85C13.7292 4.85 15.2623 5.16557 16.3377 5.64765C16.8762 5.88904 17.2706 6.15897 17.5213 6.42469ZM7.11 20.5842C6.4677 20.2963 5.90645 19.936 5.49679 19.5018C5.08376 19.0641 4.79999 18.5215 4.79999 17.9V7.1C4.79999 6.4785 5.08376 5.93598 5.49679 5.49823C5.90645 5.06406 6.4677 4.7037 7.11 4.41577C8.39616 3.83921 10.1256 3.5 12 3.5C13.8743 3.5 15.6038 3.83921 16.89 4.41577C17.5323 4.7037 18.0935 5.06406 18.5032 5.49823C18.9162 5.93598 19.2 6.4785 19.2 7.1V17.9C19.2 18.5215 18.9162 19.0641 18.5032 19.5018C18.0935 19.936 17.5323 20.2963 16.89 20.5842C15.6038 21.1608 13.8743 21.5 12 21.5C10.1256 21.5 8.39616 21.1608 7.11 20.5842ZM6.66057 18.4037C6.88184 18.6383 7.24523 18.8914 7.76449 19.1242C8.80089 19.5888 10.2976 19.9 12 19.9C13.7024 19.9 15.1991 19.5888 16.2354 19.1242C16.7547 18.8914 17.1182 18.6383 17.3395 18.4037C17.5556 18.1747 17.6 18.0061 17.6 17.9V9.70456C17.4065 9.81531 17.2031 9.91784 16.9922 10.0124C15.667 10.6064 13.9012 10.95 12 10.95C10.0988 10.95 8.33293 10.6064 7.00773 10.0124C6.79688 9.91784 6.59345 9.8153 6.39999 9.70454V17.9C6.39999 18.0061 6.44439 18.1746 6.66057 18.4037ZM6.14999 9.25318C6.23068 9.30859 6.31409 9.36233 6.39999 9.41441C6.62156 9.54875 6.85962 9.67199 7.11 9.78423C8.39616 10.3608 10.1256 10.7 12 10.7C13.8743 10.7 15.6038 10.3608 16.89 9.78423C17.1404 9.67199 17.3784 9.54875 17.6 9.41442C17.6859 9.36234 17.7693 9.3086 17.85 9.25318V17.9C17.85 18.0862 17.7686 18.3132 17.5213 18.5753C17.2706 18.841 16.8762 19.1109 16.3377 19.3523C15.2623 19.8345 13.7292 20.15 12 20.15C10.2707 20.15 8.73766 19.8345 7.66223 19.3523C7.12374 19.1109 6.72943 18.841 6.47871 18.5753C6.23138 18.3132 6.14999 18.0862 6.14999 17.9V9.25318Z" fill="#F472B6"/>
</svg>
