<svg width="24" height="25" viewBox="0 0 24 25" fill="none" xmlns="http://www.w3.org/2000/svg">
<path d="M20.8943 11.0301C20.8423 10.9862 20.3571 10.5959 19.3337 10.5959C19.0635 10.5971 18.7938 10.6218 18.5273 10.6697C18.3293 9.22368 17.2069 8.51866 17.1565 8.48703L16.8817 8.31824L16.701 8.59603C16.4746 8.9692 16.3094 9.38056 16.2124 9.81264C16.0292 10.6381 16.1406 11.4134 16.5343 12.0762C16.0589 12.3584 15.2963 12.4278 15.142 12.434H2.51664C2.18687 12.4344 1.91927 12.7183 1.91748 13.0695C1.90275 14.2476 2.09014 15.4187 2.47042 16.5251C2.90534 17.7399 3.55238 18.6348 4.39419 19.1824C5.3375 19.7978 6.87008 20.1494 8.60732 20.1494C9.39213 20.152 10.1755 20.0764 10.947 19.9235C12.0196 19.7137 13.0517 19.3144 14.0006 18.742C14.7825 18.2597 15.4862 17.6462 16.0845 16.925C17.0848 15.719 17.6807 14.3758 18.1238 13.182H18.3004C19.3956 13.182 20.069 12.7152 20.4404 12.3241C20.6872 12.0746 20.8799 11.7707 21.0049 11.4336L21.0833 11.1892L20.8943 11.0301Z" fill="#60A5FA"/>
<path d="M3.68693 12.0402H5.37879C5.46039 12.0402 5.52651 11.9697 5.52651 11.8828V10.2776C5.52696 10.1907 5.46119 10.1199 5.37962 10.1194C5.37935 10.1194 5.37906 10.1194 5.37879 10.1194H3.68693C3.60534 10.1194 3.53922 10.1899 3.53922 10.2768V10.2776V11.8828C3.53922 11.9697 3.60534 12.0402 3.68693 12.0402Z" fill="#60A5FA"/>
<path d="M6.01837 12.0402H7.71023C7.79183 12.0402 7.85795 11.9697 7.85795 11.8828V10.2776C7.8584 10.1907 7.79263 10.1199 7.71103 10.1194C7.71076 10.1194 7.71047 10.1194 7.7102 10.1194H6.01835C5.93629 10.1194 5.8698 10.1902 5.8698 10.2776V11.8828C5.87028 11.9698 5.93664 12.0402 6.01837 12.0402Z" fill="#60A5FA"/>
<path d="M8.38529 12.0402H10.0771C10.1587 12.0402 10.2249 11.9697 10.2249 11.8828V10.2776C10.2253 10.1907 10.1596 10.1199 10.078 10.1194C10.0777 10.1194 10.0774 10.1194 10.0771 10.1194H8.38527C8.30367 10.1194 8.23755 10.1899 8.23755 10.2768V10.2776V11.8828C8.23758 11.9697 8.30372 12.0402 8.38529 12.0402Z" fill="#60A5FA"/>
<path d="M10.7242 12.0402H12.416C12.4978 12.0402 12.5641 11.9699 12.5646 11.8828V10.2776C12.5646 10.1902 12.4981 10.1194 12.416 10.1194H10.7242C10.6426 10.1194 10.5765 10.1899 10.5765 10.2768V10.2776V11.8828C10.5765 11.9697 10.6426 12.0402 10.7242 12.0402Z" fill="#60A5FA"/>
<path d="M6.01835 9.73086H7.7102C7.79191 9.73037 7.85792 9.65966 7.85792 9.57263V7.96749C7.85792 7.88058 7.79177 7.81015 7.7102 7.81015H6.01835C5.93664 7.81015 5.87025 7.88043 5.8698 7.96749V9.57263C5.87025 9.65983 5.93648 9.73037 6.01835 9.73086Z" fill="#60A5FA"/>
<path d="M8.3853 9.73086H10.0772C10.1589 9.73037 10.2249 9.65966 10.2249 9.57263V7.96749C10.2249 7.88058 10.1587 7.81015 10.0772 7.81015H8.3853C8.3037 7.81015 8.23758 7.88061 8.23758 7.96749V9.57263C8.23758 9.65966 8.30359 9.73037 8.3853 9.73086Z" fill="#60A5FA"/>
<path d="M10.7242 9.73086H12.416C12.4979 9.73037 12.5641 9.65983 12.5646 9.57263V7.96749C12.5641 7.88043 12.4978 7.81015 12.416 7.81015H10.7242C10.6426 7.81015 10.5765 7.88061 10.5765 7.96749V9.57263C10.5765 9.65966 10.6425 9.73037 10.7242 9.73086Z" fill="#60A5FA"/>
<path d="M10.7242 7.42074H12.416C12.4978 7.42074 12.5641 7.35042 12.5646 7.2634V5.65734C12.5641 5.57028 12.4978 5.5 12.416 5.5H10.7242C10.6426 5.5 10.5765 5.57043 10.5765 5.65734V7.26337C10.5765 7.35028 10.6426 7.42074 10.7242 7.42074Z" fill="#60A5FA"/>
<path d="M13.0837 12.0402H14.7756C14.8573 12.0402 14.9237 11.9699 14.9241 11.8828V10.2776C14.9241 10.1902 14.8576 10.1194 14.7756 10.1194H13.0837C13.0022 10.1194 12.936 10.1899 12.936 10.2768V10.2776V11.8828C12.936 11.9697 13.0022 12.0402 13.0837 12.0402Z" fill="#60A5FA"/>
</svg>
