<svg width="24" height="25" viewBox="0 0 24 25" fill="none" xmlns="http://www.w3.org/2000/svg">
<path d="M8.75309 6.06466C8.36221 5.67623 7.73076 5.67723 7.34111 6.06688L1.40296 12.005C1.1296 12.2784 1.1296 12.7216 1.40296 12.995L7.34137 18.9334C7.73092 19.3229 8.36217 19.324 8.75309 18.9359L10.0438 17.6542C10.4367 17.264 10.4378 16.6289 10.0462 16.2374L6.30799 12.5L10.0448 8.76234C10.4361 8.37093 10.4351 7.73611 10.0425 7.34598L8.75309 6.06466Z" fill="#FBBF24"/>
<path d="M14.543 11.11C15.7034 11.11 16.644 9.8573 16.644 8.31201C16.644 6.76671 15.7034 5.51401 14.543 5.51401C13.3827 5.51401 12.442 6.76671 12.442 8.31201C12.442 9.8573 13.3827 11.11 14.543 11.11Z" stroke="#FBBF24" stroke-width="1.455"/>
<path d="M20.257 5.34419C20.4575 4.95754 20.9276 4.79825 21.3219 4.98332C21.7389 5.17907 21.9095 5.68236 21.6973 6.0913L14.662 19.6548C14.4615 20.0414 13.9914 20.2007 13.5971 20.0157C13.1801 19.8199 13.0096 19.3166 13.2217 18.9077L20.257 5.34419Z" fill="#FBBF24"/>
<path d="M20.35 19.496C21.5103 19.496 22.451 18.2433 22.451 16.698C22.451 15.1527 21.5103 13.9 20.35 13.9C19.1896 13.9 18.249 15.1527 18.249 16.698C18.249 18.2433 19.1896 19.496 20.35 19.496Z" stroke="#FBBF24" stroke-width="1.455"/>
</svg>
