<svg width="24" height="25" viewBox="0 0 24 25" fill="none" xmlns="http://www.w3.org/2000/svg">
<path d="M17.33 11.9002L12.3139 3.88404C12.17 3.64412 11.882 3.50001 11.594 3.50001C11.3059 3.50001 11.042 3.64392 10.874 3.88404L5.85811 11.9002C5.85811 11.9002 5.85811 11.9241 5.83415 11.9241C4.70618 13.8441 4.73015 16.1961 5.85811 18.164C7.03418 20.228 9.24198 21.5 11.5699 21.5C13.8979 21.5 16.106 20.2279 17.2818 18.164C18.4098 16.1961 18.4337 13.8681 17.3057 11.9241C17.3299 11.9243 17.3299 11.9243 17.3299 11.9002H17.33ZM15.8659 17.3242C14.978 18.8601 13.346 19.8202 11.5939 19.8202C9.842 19.8202 8.21004 18.8603 7.32197 17.3242C6.48205 15.8842 6.48205 14.1802 7.27407 12.7881L11.5939 5.92391L15.8898 12.7881C16.706 14.1802 16.6821 15.8842 15.8659 17.3242H15.8659Z" fill="#A855F7"/>
</svg>
