<svg width="24" height="24" viewBox="0 0 24 24" fill="none" xmlns="http://www.w3.org/2000/svg">
<path d="M7.92936 7.41273L12.0001 11.4832L16.0703 7.41273H7.92936Z" fill="#FBBF24"/>
<path d="M7.19859 6.68211H16.1112L12.0111 2.58175H4.30551C3.86007 2.58175 3.63698 3.12031 3.95195 3.43529L7.19859 6.68211ZM16.9729 7.54351L21.4092 11.9797L16.9531 16.4359L12.5168 11.9997L16.9729 7.54351Z" fill="#81C784"/>
<path d="M13.0441 2.58175L21.4183 10.9554V3.08175C21.4183 2.80561 21.1945 2.58175 20.9183 2.58175H13.0441Z" fill="#60A5FA"/>
<path d="M2.58175 19.6944C2.58175 20.1399 3.12032 20.363 3.4353 20.048L11.4833 12L3.4353 3.952C3.12032 3.63702 2.58175 3.8601 2.58175 4.30556V19.6944Z" fill="#71717A"/>
<path d="M21.4183 13.0038L17.4692 16.953L20.5648 20.0481C20.8798 20.363 21.4183 20.1399 21.4183 19.6945V13.0038Z" fill="#FBBF24"/>
<path d="M19.6944 21.4183C20.1399 21.4183 20.363 20.8797 20.048 20.5647L12 12.5168L3.95201 20.5648C3.63703 20.8797 3.86011 21.4183 4.30557 21.4183L19.6944 21.4183Z" fill="#60A5FA"/>
</svg>
