<svg width="24" height="25" viewBox="0 0 24 25" fill="none" xmlns="http://www.w3.org/2000/svg">
<path d="M4.74589 4.59658C4.71107 4.63436 4.67478 4.67066 4.63996 4.70991C2.88003 6.68169 2.00006 9.35937 2.00006 12.7444C2.00006 16.0169 2.85559 18.5679 4.56219 20.4034H18.9431C20.8342 19.5501 22.0001 17.8628 22.0001 17.8628L19.669 15.9962L18.592 17.0183C17.9498 17.5909 17.9661 17.708 16.8773 18.3368C15.7699 18.8361 14.6255 19.0523 13.4448 19.0523C11.5819 19.0523 10.1686 18.379 9.20572 17.5272C8.25316 16.6754 7.7354 14.1859 7.65318 12.5793L20.5846 12.6289L20.449 11.5385C20.449 11.5385 19.8216 6.258 18.5669 4.59658H4.74589ZM11.2345 5.22323C12.3938 5.22323 13.6196 5.61951 14.1685 6.31282C14.7166 7.00687 14.8581 7.54759 14.8892 8.92309H7.63689C7.71985 7.475 7.95984 6.84169 8.65389 6.18393C9.3472 5.52692 10.1575 5.22323 11.2345 5.22323Z" fill="#F87171"/>
</svg>
