<svg width="24" height="25" viewBox="0 0 24 25" fill="none" xmlns="http://www.w3.org/2000/svg">
<path d="M12 2.5425C9.35911 2.5425 6.82638 3.59159 4.95899 5.45899C3.09159 7.32638 2.0425 9.85911 2.0425 12.5C2.0425 15.1409 3.09159 17.6736 4.95899 19.541C6.82638 21.4084 9.35911 22.4575 12 22.4575C14.6409 22.4575 17.1736 21.4084 19.041 19.541C20.9084 17.6736 21.9575 15.1409 21.9575 12.5C21.9575 9.85911 20.9084 7.32638 19.041 5.45899C17.1736 3.59159 14.6409 2.5425 12 2.5425ZM7.26356 7.27899C7.45881 7.08371 7.77541 7.0837 7.97068 7.27896L12.8384 12.1465C13.0337 12.3418 13.0337 12.6584 12.8384 12.8537L7.97066 17.7213C7.77539 17.9165 7.45882 17.9165 7.26356 17.7213L6.28106 16.7388C6.08579 16.5435 6.08579 16.2269 6.28106 16.0316L9.45895 12.8538C9.65421 12.6585 9.65421 12.3419 9.45895 12.1467L6.28104 8.96874C6.08578 8.77348 6.08577 8.45692 6.28101 8.26165L7.26356 7.27899ZM13.2381 7.27899C13.4333 7.08371 13.7499 7.0837 13.9452 7.27896L18.8129 12.1465C19.0082 12.3418 19.0082 12.6584 18.8129 12.8537L13.9452 17.7213C13.7499 17.9165 13.4333 17.9165 13.2381 17.7213L12.2556 16.7388C12.0603 16.5435 12.0603 16.2269 12.2556 16.0316L15.4334 12.8538C15.6287 12.6585 15.6287 12.3419 15.4334 12.1467L12.2555 8.96874C12.0603 8.77348 12.0603 8.45692 12.2555 8.26165L13.2381 7.27899Z" fill="#FBBF24"/>
</svg>
