<svg width="24" height="25" viewBox="0 0 24 25" fill="none" xmlns="http://www.w3.org/2000/svg">
<path d="M15.2875 9.8944L11.6473 7.70133C11.6025 7.67432 11.5517 7.6601 11.4999 7.6601C11.4482 7.6601 11.3974 7.67432 11.3526 7.70133L7.71241 9.8944C7.66763 9.92134 7.63044 9.96009 7.60455 10.0068C7.57867 10.0535 7.56501 10.1064 7.56494 10.1604V14.5465C7.56494 14.6561 7.62126 14.7576 7.71241 14.8127L11.3526 17.0058C11.4438 17.0606 11.5558 17.0606 11.6473 17.0058L15.2875 14.8127C15.3786 14.7579 15.4347 14.6564 15.4347 14.5465V10.1604C15.4347 10.0504 15.3786 9.94922 15.2875 9.89409V9.8944Z" fill="#A5B4FC"/>
<path d="M2.03494 11.8921L6.38462 3.99617C6.54254 3.71052 6.83457 3.5 7.1504 3.5H15.8495C16.1656 3.5 16.4573 3.71052 16.6155 3.99617L20.9649 11.8748C21.0425 12.0166 21.0833 12.1771 21.0833 12.3404C21.0833 12.5037 21.0425 12.6642 20.9649 12.806L16.6155 20.6374C16.4573 20.9227 16.1656 21.0687 15.8495 21.0687H7.1504C6.83457 21.0687 6.54254 20.9273 6.38462 20.6416L2.03523 12.7975C1.95761 12.6603 1.91666 12.504 1.91666 12.3447C1.91666 12.1854 1.95761 12.029 2.03523 11.8918L2.03494 11.8921ZM5.63655 15.6888C5.63655 15.8051 5.70361 15.9123 5.79998 15.9705L11.3404 19.3058C11.4368 19.364 11.5576 19.364 11.6539 19.3058L17.1984 15.9705C17.2948 15.9123 17.3622 15.8051 17.3622 15.6888V9.0178C17.3622 8.90178 17.2957 8.79425 17.1996 8.73609L11.6589 5.40136C11.6112 5.37282 11.5572 5.35781 11.5023 5.35781C11.4473 5.35781 11.3933 5.37282 11.3456 5.40136L5.80056 8.73639C5.70419 8.79455 5.63626 8.90209 5.63626 9.0181V15.6891L5.63655 15.6888Z" fill="#4F46E5"/>
</svg>
