<svg width="24" height="25" viewBox="0 0 24 25" fill="none" xmlns="http://www.w3.org/2000/svg">
<path d="M19.4196 7.65842C18.6717 7.65842 17.9821 7.90609 17.4272 8.32344C17.2341 8.46871 16.9674 8.49217 16.7709 8.35147L13.5741 6.06234C13.421 5.95273 13.3584 5.76099 13.3584 5.57273C13.3584 4.83933 12.7639 4.2447 12.0304 4.2447C11.297 4.2447 10.7024 4.83933 10.7024 5.57273C10.7024 6.30622 11.297 6.90076 12.0304 6.90076C12.1678 6.90076 12.3 6.87955 12.4244 6.8405C12.6185 6.77958 12.837 6.7787 13.0015 6.89841L16.8825 9.72272C17.1351 9.90654 17.4926 9.81251 17.6939 9.57361C18.1128 9.0764 18.7386 8.7344 19.4196 8.7344C20.6589 8.7344 21.6637 9.73907 21.6637 10.9784C21.6637 11.7976 21.2248 12.5142 20.5693 12.906C20.3383 13.0441 20.1921 13.3115 20.2682 13.5697L20.2915 13.6485C20.3709 13.9179 20.6591 14.0722 20.91 13.9459C21.9951 13.3998 22.7396 12.2761 22.7396 10.9784C22.7396 9.14486 21.2532 7.65842 19.4196 7.65842Z" fill="#2563EB"/>
<path d="M8.7751 4.43332C8.54941 5.14384 8.57645 5.87391 8.80529 6.52722C8.88518 6.75528 8.82679 7.01657 8.63322 7.16123L5.49259 9.50828C5.34227 9.62062 5.14064 9.62295 4.962 9.56547C4.26476 9.34397 3.51994 9.72967 3.29852 10.4269C3.07701 11.1242 3.46272 11.869 4.15988 12.0904C4.85712 12.3119 5.60194 11.9263 5.82344 11.229C5.86378 11.102 5.88439 10.9702 5.88514 10.8381C5.88628 10.6342 5.95158 10.425 6.11585 10.3042L9.97013 7.46955C10.2218 7.28446 10.2404 6.91525 10.0738 6.65097C9.72826 6.10272 9.59247 5.40513 9.79789 4.75828C10.1722 3.5801 11.4307 2.92833 12.6089 3.30263C13.3872 3.54983 13.9358 4.18299 14.1106 4.92395C14.1724 5.18587 14.3831 5.4061 14.6521 5.41171L14.7315 5.41337C15.0124 5.41923 15.2466 5.1913 15.2021 4.91396C15.0103 3.71801 14.167 2.67149 12.9338 2.27975C11.1908 1.72607 9.32879 2.69021 8.7751 4.43332Z" fill="#F87171"/>
<path d="M2.62485 13.4078C3.20478 13.8325 3.90391 14.0546 4.61535 14.047C4.8556 14.0445 5.08339 14.1817 5.15963 14.4095L6.3996 18.1153C6.45851 18.2913 6.39756 18.4814 6.28751 18.631C5.86044 19.2163 5.99267 20.0399 6.58286 20.4705C7.17304 20.9011 7.99764 20.7757 8.42472 20.1904C8.85187 19.6051 8.71964 18.7816 8.12946 18.3509C8.02143 18.272 7.9026 18.2104 7.77723 18.1676C7.58565 18.1022 7.40947 17.9749 7.34669 17.7824L5.86833 13.2497C5.77191 12.9541 5.42965 12.8204 5.12729 12.8929C4.50099 13.0433 3.79895 12.9486 3.25136 12.5491C2.25416 11.8214 2.03073 10.4298 2.75239 9.4407C3.22841 8.78837 3.99661 8.47411 4.7506 8.54448C5.01946 8.56957 5.29628 8.43914 5.38671 8.18471L5.41012 8.11882C5.50388 7.85501 5.36266 7.56163 5.0866 7.51498C3.89551 7.31371 2.64216 7.77344 1.88658 8.8089C0.818903 10.2722 1.1494 12.3312 2.62485 13.4078Z" fill="#60A5FA"/>
<path d="M19.6226 18.567C19.3953 17.8636 18.9521 17.2901 18.3894 16.8948C18.1909 16.7553 18.0861 16.5076 18.1604 16.2766L19.3545 12.5669C19.412 12.3885 19.5746 12.2697 19.7532 12.2127C20.4484 11.9881 20.8308 11.2453 20.6075 10.5538C20.3841 9.86207 19.6393 9.48349 18.9441 9.7081C18.2489 9.93263 17.8663 10.6754 18.0898 11.3671C18.1302 11.4919 18.189 11.6094 18.2638 11.7157C18.3816 11.8832 18.4504 12.0924 18.3862 12.2869L16.8952 16.8C16.7969 17.0975 16.997 17.41 17.287 17.5284C17.8836 17.772 18.3959 18.2563 18.6027 18.8965C18.9803 20.0652 18.3339 21.3203 17.1592 21.6998C16.3836 21.9504 15.5715 21.7567 15.0005 21.2598C14.7979 21.0834 14.4993 21.0267 14.2773 21.1778L14.2132 21.2215C13.9806 21.3799 13.9222 21.7023 14.1207 21.9019C14.969 22.755 16.2589 23.1112 17.4869 22.7145C19.225 22.153 20.1812 20.2961 19.6226 18.567Z" fill="#81C784"/>
<path d="M9.33793 22.1195C9.93711 21.6811 10.3448 21.0786 10.5452 20.419C10.6155 20.1878 10.8169 20.0113 11.0585 20.0089L14.9643 19.969C15.1513 19.9671 15.3148 20.0839 15.4247 20.2352C15.8552 20.8236 16.6811 20.9516 17.2695 20.5212C17.858 20.0906 17.9859 19.2647 17.5555 18.6763C17.125 18.0878 16.299 17.9598 15.7106 18.3903C15.6037 18.4686 15.5097 18.5622 15.4316 18.6676C15.3101 18.8313 15.1339 18.9616 14.93 18.9621L10.1652 18.9743C9.85285 18.9751 9.61986 19.2621 9.598 19.5737C9.55287 20.2173 9.25171 20.8573 8.70639 21.2563C7.71212 21.9838 6.31638 21.7675 5.58893 20.7732C5.10875 20.1168 5.03983 19.2855 5.33441 18.5871C5.43898 18.3391 5.39902 18.037 5.18518 17.8736L5.12497 17.8276C4.90178 17.657 4.5781 17.7027 4.4504 17.9529C3.90189 19.0274 3.96478 20.3645 4.72573 21.4047C5.80196 22.8757 7.86693 23.1958 9.33793 22.1195Z" fill="#A855F7"/>
</svg>
