<svg width="24" height="25" viewBox="0 0 24 25" fill="none" xmlns="http://www.w3.org/2000/svg">
<path d="M8.81799 22.11C10.575 22.11 12.001 20.675 12.001 18.907V15.704H8.81799C7.06299 15.704 5.63699 17.138 5.63699 18.907C5.63699 20.676 7.06299 22.11 8.81799 22.11Z" fill="#00E676"/>
<path d="M5.63699 12.5C5.63699 10.732 7.06299 9.297 8.81799 9.297H12.001V15.704H8.81799C7.06299 15.704 5.63699 14.269 5.63699 12.5Z" fill="#7C4DFF"/>
<path d="M5.63699 6.094C5.63699 4.326 7.06299 2.89 8.81799 2.89H12.001V9.297H8.81799C7.06299 9.297 5.63699 7.862 5.63699 6.094Z" fill="#F4511E"/>
<path d="M12 2.89H15.182C16.938 2.89 18.364 4.326 18.364 6.094C18.364 7.862 16.938 9.297 15.182 9.297H12V2.89Z" fill="#FF8A65"/>
<path d="M18.364 12.5C18.364 14.269 16.938 15.704 15.182 15.704C13.426 15.704 12 14.269 12 12.5C12 10.731 13.426 9.297 15.182 9.297C16.938 9.297 18.364 10.732 18.364 12.5Z" fill="#29B6F6"/>
</svg>
