<svg width="24" height="25" viewBox="0 0 24 25" fill="none" xmlns="http://www.w3.org/2000/svg">
<path d="M12.2332 22.9732L2.39916 17.057L1.5954 5.43006L12.0771 2.02615L22.5452 5.38685L21.458 17.222L12.2332 22.9732ZM2.94823 16.7454L12.2277 22.3304L20.9157 16.9117L21.9386 5.76652L12.0799 2.60089L2.1924 5.81627L2.94823 16.7454Z" fill="#71717A"/>
<path d="M5.09804 8.92947L5.17177 11.0151L10.2861 13.3951L10.3026 15.3183L5.23625 12.9344L5.46089 17.7915L3.46704 16.6132L2.7757 6.06765L12.0579 10.1025V12.1265L5.09804 8.92947Z" fill="white"/>
<path d="M20.2051 13.9098C20.1941 15.6273 19.3384 17.3909 17.9088 18.2457L12.0483 21.9025V10.1051L17.8365 7.63865C18.543 7.32322 19.1385 7.45146 19.5343 8.04588C19.7944 8.43855 19.9301 8.99232 19.9259 9.64433C19.9355 10.46 19.7217 11.2639 19.3056 11.9761C19.8931 12.2378 20.2177 12.8336 20.2053 13.9098H20.2051ZM18.4375 10.3736C18.4375 9.76612 18.1636 9.46629 17.7637 9.66008L13.7928 11.5558L13.7818 13.809L17.813 11.7679C18.1552 11.5951 18.4375 10.9941 18.4375 10.3736ZM18.7318 14.5943C18.7318 13.8469 18.4004 13.5156 17.8349 13.8181L13.7819 15.9874V18.5508L17.7995 16.2649C18.4059 15.9193 18.7291 15.3131 18.7318 14.5943Z" fill="white"/>
</svg>
