<svg width="24" height="25" viewBox="0 0 24 25" fill="none" xmlns="http://www.w3.org/2000/svg">
<path d="M11.6465 2.9867C11.8417 2.79144 12.1583 2.79144 12.3536 2.9867L21.0133 11.6464C21.3283 11.9614 21.1052 12.5 20.6598 12.5H16.2287V18.0565C16.2287 18.1983 16.1685 18.3332 16.0635 18.4285C14.8269 19.5509 13.5903 20.7776 12.3536 22.0133C12.1583 22.2085 11.8417 22.2086 11.6465 22.0133L2.48673 12.8536C2.29147 12.6583 2.29147 12.3417 2.48673 12.1464L11.6465 2.9867ZM7.91238 12.5L12 16.5876V12.5H16.0877C14.8191 11.0904 13.4096 9.6809 12 8.41235C10.5905 9.68094 9.18093 11.0904 7.91238 12.5Z" fill="#14B8A6"/>
</svg>
