<svg width="24" height="25" viewBox="0 0 24 25" fill="none" xmlns="http://www.w3.org/2000/svg">
<path d="M12 1.77114C6.0991 1.77114 1.27112 6.59912 1.27112 12.5C1.27112 18.4008 6.0991 23.2288 12 23.2288C17.9008 23.2288 22.7288 18.4008 22.7288 12.5C22.7288 6.59912 17.9008 1.77114 12 1.77114ZM6.02246 18.4775C4.41314 16.8682 3.57016 14.7224 3.57016 12.6532L11.9233 20.9298C9.77755 20.8531 7.63179 20.0868 6.02246 18.4775ZM13.8392 20.6999L3.80006 10.6608C4.64304 6.90566 8.01496 4.07018 12 4.07018C14.8354 4.07018 17.2877 5.4496 18.8204 7.51873L17.6709 8.51498C16.3681 6.75239 14.299 5.60287 12 5.60287C9.01121 5.60287 6.48227 7.51873 5.48602 10.2009L14.299 19.0139C16.5214 18.2476 18.2074 16.3317 18.7438 14.0327H15.0653V12.5H20.4298C20.4298 16.485 17.5943 19.8569 13.8392 20.6999Z" fill="#A855F7"/>
</svg>
