<svg width="24" height="25" viewBox="0 0 24 25" fill="none" xmlns="http://www.w3.org/2000/svg">
<path d="M9.97719 3.12384C9.06806 3.32555 8.17029 3.60682 7.32793 4.03155C7.34781 4.7759 7.39469 5.489 7.49271 6.21204C7.16599 6.42086 6.8208 6.60126 6.51539 6.84701C6.2043 7.08566 5.88753 7.31436 5.60626 7.5942C5.03783 7.21592 4.44726 6.87201 3.83772 6.56433C3.1786 7.27458 2.56068 8.04166 2.0564 8.89965C2.43567 9.51332 2.832 10.0886 3.25957 10.6341H3.27094V15.9014L3.29935 15.9028L6.52818 16.2139C6.61021 16.2218 6.68679 16.2585 6.74428 16.3175C6.80176 16.3766 6.83643 16.4541 6.84211 16.5363L6.94155 17.9611L9.75843 18.1614L9.95304 16.846C9.96529 16.7636 10.0067 16.6882 10.0698 16.6338C10.1329 16.5793 10.2134 16.5492 10.2968 16.5491H13.7032C13.8751 16.5491 14.0214 16.6756 14.047 16.846L14.2416 18.1614L17.0585 17.9611L17.1579 16.5363C17.1638 16.4542 17.1986 16.3768 17.256 16.3179C17.3135 16.2589 17.3899 16.222 17.4718 16.2139L20.6992 15.9028L20.7276 15.9014V15.4809H20.7291V10.6355H20.7404C21.168 10.09 21.5643 9.51474 21.9436 8.90107C21.4361 8.06043 20.8389 7.27739 20.1623 6.56575C19.55 6.874 18.9548 7.22345 18.3937 7.5942C18.1125 7.31436 17.7957 7.08566 17.4846 6.84701C17.1792 6.60126 16.8354 6.42228 16.5087 6.21204C16.6053 5.48758 16.6536 4.77448 16.6735 4.03155C15.8311 3.60682 14.9319 3.32697 14.0228 3.12384C13.6592 3.73324 13.3282 4.39378 13.0384 5.04011C12.6973 4.98582 12.3525 4.95827 12.0071 4.95773H11.9929C11.6475 4.95821 11.3027 4.98576 10.9616 5.04011C10.6718 4.39378 10.3408 3.73324 9.97719 3.12384ZM7.4231 10.8287C7.68299 10.8216 7.94168 10.8666 8.18388 10.9611C8.42608 11.0557 8.64689 11.1978 8.83326 11.379C9.01964 11.5603 9.1678 11.7771 9.269 12.0166C9.3702 12.2561 9.42239 12.5134 9.42249 12.7734C9.42258 13.0334 9.37058 13.2907 9.26955 13.5303C9.16853 13.7699 9.02052 13.9867 8.83428 14.1682C8.64804 14.3496 8.42734 14.4918 8.1852 14.5865C7.94307 14.6812 7.68442 14.7264 7.42452 14.7195C6.91767 14.706 6.4361 14.4952 6.08231 14.132C5.72852 13.7688 5.53046 13.2818 5.53028 12.7748C5.53009 12.2678 5.7278 11.7807 6.08132 11.4172C6.43484 11.0537 6.91626 10.8426 7.4231 10.8287ZM16.5769 10.8287C17.093 10.8287 17.588 11.0337 17.953 11.3987C18.318 11.7637 18.523 12.2587 18.523 12.7748C18.523 13.291 18.318 13.786 17.953 14.1509C17.588 14.5159 17.093 14.7209 16.5769 14.7209C16.0608 14.7209 15.5658 14.5159 15.2008 14.1509C14.8358 13.786 14.6308 13.291 14.6308 12.7748C14.6308 12.2587 14.8358 11.7637 15.2008 11.3987C15.5658 11.0337 16.0608 10.8287 16.5769 10.8287ZM12 11.9665C12.3466 11.9665 12.6264 12.2222 12.6264 12.5362V14.3274C12.6264 14.6414 12.3452 14.8971 12 14.8971C11.6534 14.8971 11.3736 14.6428 11.3736 14.3274V12.5362C11.3736 12.2208 11.6534 11.9665 12 11.9665Z" fill="#60A5FA"/>
<path d="M17.8298 16.8787L17.7304 18.312C17.7247 18.3956 17.6889 18.4744 17.6296 18.5337C17.5703 18.593 17.4916 18.6288 17.4079 18.6344L13.9688 18.8788L13.9433 18.8802C13.8599 18.8801 13.7794 18.85 13.7163 18.7956C13.6532 18.7411 13.6118 18.6658 13.5995 18.5833L13.4035 17.2452H10.5965L10.3991 18.5833C10.3864 18.6702 10.3412 18.749 10.2726 18.8038C10.2041 18.8587 10.1173 18.8855 10.0298 18.8788L6.59068 18.633C6.50723 18.6268 6.42878 18.5908 6.36961 18.5316C6.31043 18.4725 6.27446 18.394 6.26823 18.3106L6.16879 16.8773L3.26526 16.5974L3.27094 17.319C3.27094 20.3859 7.16031 21.859 11.9929 21.8761H12.0043C16.8369 21.859 20.7262 20.3859 20.7262 17.319L20.7319 16.5974L17.8298 16.8787Z" fill="#60A5FA"/>
</svg>
