<svg width="24" height="25" viewBox="0 0 24 25" fill="none" xmlns="http://www.w3.org/2000/svg">
<path d="M19.7509 9.11816C18.7719 8.5668 17.5416 9.28616 17.3444 9.40984L13.1177 11.807C12.4937 11.3114 11.6046 11.3324 11.0047 11.857C10.4048 12.3817 10.2655 13.26 10.6735 13.9446C11.0817 14.629 11.9206 14.9242 12.6673 14.646C13.4142 14.3678 13.8555 13.5957 13.7162 12.811L17.9313 10.419L17.957 10.4034C18.2341 10.2283 18.877 9.9664 19.1774 10.1362C19.3939 10.2581 19.5176 10.6665 19.5275 11.268H19.5222V16.5554C19.5218 16.7977 19.4578 17.0357 19.3365 17.2456C19.2153 17.4555 19.0412 17.6299 18.8314 17.7514L12.7723 21.2518C12.5623 21.3726 12.3242 21.4361 12.0819 21.4361C11.8396 21.4361 11.6015 21.3726 11.3914 21.2518L5.33223 17.7513C5.12252 17.6298 4.94836 17.4554 4.82715 17.2455C4.70594 17.0356 4.64193 16.7976 4.64151 16.5553V9.5576C4.64231 9.0644 4.90551 8.6088 5.33223 8.3616L10.8162 5.19664C11.3379 5.7952 12.2122 5.93664 12.8962 5.53312C13.5801 5.1296 13.8788 4.29568 13.607 3.5496C13.3353 2.80344 12.5701 2.35728 11.787 2.488C11.0038 2.61888 10.4252 3.2896 10.4106 4.08352L4.75175 7.35056C4.364 7.5742 4.04183 7.8958 3.81749 8.28314C3.59315 8.67049 3.47453 9.10998 3.47351 9.5576V16.5539C3.47393 17.0013 3.59184 17.4408 3.81545 17.8283C4.03906 18.2158 4.36052 18.5378 4.74767 18.7621L10.8069 22.2625C11.1944 22.4854 11.6336 22.6027 12.0807 22.6027C12.5278 22.6027 12.967 22.4854 13.3546 22.2625L19.4137 18.7621C19.8006 18.538 20.1219 18.2162 20.3455 17.8291C20.5691 17.4419 20.6872 17.0028 20.6879 16.5557V11.4696H20.6919C20.7217 10.2766 20.4026 9.48608 19.7509 9.11848L19.7509 9.11816Z" fill="#14B8A6" stroke="#14B8A6" stroke-width="1.5"/>
</svg>
