<svg width="24" height="24" viewBox="0 0 24 24" fill="none" xmlns="http://www.w3.org/2000/svg">
<path d="M12 1.88C10.6711 1.88 9.35515 2.14177 8.1274 2.65036C6.89964 3.15895 5.78408 3.9044 4.84443 4.84414C3.90478 5.78389 3.15945 6.89952 2.65098 8.12732C2.14251 9.35513 1.88087 10.6711 1.881 12C1.881 14.6837 2.94711 17.2575 4.84479 19.1552C6.74247 21.0529 9.31628 22.119 12 22.119C13.3289 22.119 14.6448 21.8572 15.8726 21.3486C17.1004 20.8401 18.2159 20.0946 19.1556 19.1549C20.0952 18.2151 20.8406 17.0995 21.349 15.8717C21.8575 14.6439 22.1191 13.3279 22.119 11.999C22.1185 9.31563 21.0521 6.74233 19.1545 4.84508C17.2569 2.94784 14.6834 1.882 12 1.882V1.88ZM13.254 4.303C14.164 4.303 14.901 4.563 15.467 5.083C16.038 5.6 16.324 6.27101 16.324 7.096C16.324 7.984 16.005 8.768 15.365 9.446C14.725 10.122 13.989 10.461 13.158 10.461C12.672 10.461 12.268 10.341 11.945 10.104C11.628 9.866 11.469 9.572 11.469 9.223C11.469 9.011 11.529 8.824 11.65 8.66C11.777 8.496 11.924 8.414 12.088 8.414C12.247 8.414 12.326 8.506 12.326 8.691C12.326 8.855 12.386 8.982 12.508 9.072C12.63 9.162 12.769 9.207 12.928 9.207C13.351 9.207 13.756 8.918 14.143 8.342C14.534 7.76 14.73 7.14001 14.73 6.479C14.73 6.013 14.579 5.635 14.277 5.344C13.976 5.048 13.587 4.898 13.111 4.898C12.397 4.898 11.705 5.21701 11.033 5.85201C10.367 6.486 9.822 7.321 9.398 8.35701C8.981 9.38901 8.771 10.372 8.771 11.303C8.771 12.16 8.956 12.842 9.326 13.35C9.696 13.852 10.189 14.104 10.803 14.104C11.84 14.104 12.831 13.37 13.777 11.904L15.27 11.691C15.455 11.665 15.547 11.71 15.547 11.826C15.547 11.879 15.475 12.106 15.332 12.508C15.189 12.91 14.995 13.582 14.746 14.524C15.566 14.047 16.201 13.52 16.65 12.944V13.857C16.29 14.275 15.604 14.746 14.588 15.27C14.376 16.677 13.906 17.762 13.182 18.53C12.457 19.302 11.642 19.69 10.738 19.69C10.305 19.69 9.964 19.588 9.715 19.387C9.472 19.186 9.35 18.909 9.35 18.555C9.35 17.571 10.305 16.615 12.215 15.69C12.3952 15.0428 12.5906 14.4 12.801 13.762C12.468 14.243 11.984 14.669 11.35 15.039C10.715 15.409 10.125 15.594 9.58 15.594C8.691 15.594 7.952 15.21 7.36 14.444C6.772 13.671 6.479 12.695 6.479 11.516C6.479 10.273 6.812 9.096 7.479 7.984C8.12214 6.89166 9.02349 5.97383 10.104 5.311C11.188 4.639 12.238 4.303 13.254 4.303ZM12.03 16.49C10.655 17.177 9.968 17.855 9.968 18.521C9.968 18.875 10.137 19.054 10.476 19.054C11.142 19.054 11.66 18.198 12.03 16.49Z" fill="#60A5FA"/>
</svg>
