<svg width="24" height="24" viewBox="0 0 24 24" fill="none" xmlns="http://www.w3.org/2000/svg">
<path d="M4.8836 6.3376C4.8836 6.3376 5.26104 7.79304 5.3148 8.27832C5.3688 8.76344 4.34456 9.84152 4.34456 10.3806C4.34456 10.9198 4.55984 11.8902 5.746 12.3754C6.93216 12.8606 7.09376 14.1005 7.09376 14.8554C7.09376 15.6101 6.66256 17.0655 6.66256 17.0655C6.66256 17.0655 6.39312 20.6774 7.84856 21.3242C9.30392 21.9711 8.98064 21.9711 9.30392 21.9711C9.62688 21.9711 11.999 22.942 13.4007 22.5644C14.8026 22.1875 15.1794 21.756 15.1794 21.756C15.1794 21.756 16.5813 21.8638 17.0121 20.6239C17.4436 19.3846 17.7126 16.7967 17.5509 15.6107C17.3891 14.4247 17.1733 12.8618 18.1435 12.3223C19.1138 11.7836 20.138 11.1363 19.9762 10.5975C19.8143 10.0587 18.952 9.30376 18.952 9.30376C18.952 9.30376 18.7362 7.95656 18.8974 7.63296C19.0592 7.30992 20.0294 6.5008 19.4901 5.90816C18.9514 5.31544 17.9804 5.31544 17.9804 5.31544L16.7411 5.42264C16.7411 5.42264 14.6395 3.53544 11.8898 3.64328C9.14216 3.75112 7.41672 5.422 7.41672 5.422C7.41672 5.422 6.5004 5.09848 5.69176 5.422C4.88264 5.7456 4.72152 5.422 4.88328 6.33832L4.8836 6.3376Z" fill="#FBA919"/>
<path d="M9.80984 14.3642C9.80984 14.3642 8.74224 15.9965 7.9592 17.1549C7.83808 17.3341 8.74224 17.3465 8.74224 17.3465L9.80992 14.3641L9.80984 14.3642ZM10.3181 10.9799C10.3181 10.9799 9.99632 11.7827 9.82 12.2083C9.62864 12.671 8.89912 12.9011 8.89912 12.9011C8.89912 12.9011 9.27736 12.5045 9.27736 11.4996C9.27736 11.0786 9.82152 10.9109 9.82152 10.9109L10.3182 10.9806L10.3181 10.9799Z" fill="#E78724"/>
<path d="M9.99272 11.4336C9.99272 11.4336 9.33336 12.2184 8.1092 11.779C6.88472 11.3395 6.75928 9.76959 6.75928 9.33007C6.75928 8.89055 9.08248 9.76959 9.3964 9.95799C9.71032 10.1464 10.3066 10.8998 9.99272 11.4336ZM5.36832 3.04719C5.36832 3.04719 6.4984 2.82719 7.25184 3.42375C8.0056 4.02023 8.22504 4.49127 8.22504 4.49127L6.95512 5.49791C6.95512 5.49791 6.34152 5.21335 6.15304 4.39703C5.9648 3.58079 6.09048 3.20415 5.36832 3.04719Z" fill="#E78724"/>
<path d="M9.6632 9.1668C9.17648 8.47608 8.37464 8.1748 7.7344 8.1248C6.64272 8.03952 6.1244 8.42544 6.1244 8.42544C6.1244 8.42544 7.91232 8.50112 8.4276 9.178C9.38696 10.4377 10.7866 10.54 11.0103 10.2634C10.7515 10.2762 10.4669 10.148 10.1622 9.85992C9.97176 9.67968 9.81744 9.386 9.66304 9.1668H9.6632ZM6.6448 11.609C6.6448 11.609 4.6612 10.927 5.03808 10.2366C5.41488 9.54576 5.11504 9.16936 5.11504 9.16936C5.11504 9.16936 4.00728 9.99632 4.28944 10.8753C4.46304 11.4146 4.75408 11.8054 6.35208 12.554C7.11848 13.9774 6.51032 16.5403 6.5468 16.5522C6.60752 16.5718 7.62296 16.0502 7.5536 13.6525C7.53256 12.9158 7.474 11.9113 6.6452 11.6081L6.6448 11.609ZM9.2444 4.27576C8.41256 4.6984 7.27304 5.2868 7.27304 5.2868L7.72152 5.51112C7.6788 5.58056 7.65808 5.62192 7.65808 5.62192L8.11792 5.8312C8.11792 5.8312 9.24144 6.64528 9.93016 7.16856C9.70056 6.46176 9.02632 5.3512 9.02632 5.3512C9.02632 5.3512 8.83488 4.84096 9.24336 4.27568L9.2444 4.27576ZM12.0076 21.5011C9.45096 21.5011 8.58496 20.2033 8.58496 20.2033L8.98456 21.1762C9.1356 21.5972 10.7467 22.9069 12.0038 22.9069" fill="#E78724"/>
<path d="M8.8652 19.326C8.8652 19.326 9.1004 20.7636 10.0422 20.7636C10.8426 20.7636 11.0784 19.5493 11.0784 19.2983L8.8652 19.326ZM7.29776 17.158C7.38144 16.9276 7.67448 15.9962 7.76856 15.1487C7.88104 14.1335 7.84032 12.6488 7.84032 12.6488C7.84032 12.6488 7.58904 13.6221 7.36864 13.7794C7.14896 13.9362 6.7404 15.0035 6.7404 15.0035C6.7404 15.0035 6.52136 16.5925 6.41744 17.1266C6.7056 17.1843 6.94768 17.0146 7.29632 17.158H7.29776ZM5.02336 10.8594C5.02336 10.8594 5.5568 10.671 5.71408 9.50952C5.87088 8.34784 5.52552 7.3432 5.52552 7.3432C5.52552 7.3432 5.55688 8.94432 5.36864 9.2584C5.18008 9.57216 5.02328 9.6664 4.80344 10.0747C4.58352 10.483 4.89752 10.7338 5.02336 10.8595V10.8594Z" fill="#E78724"/>
<path d="M5.6604 3.32193L5.55152 3.25281C5.23032 3.26377 5.6604 3.32193 5.6604 3.32193Z" fill="#FDC168"/>
<path d="M9.67896 3.93168C9.67896 3.93168 9.17672 3.848 8.92544 3.47136C8.67424 3.09456 7.96272 2.34096 6.8284 2.33256C5.69432 2.324 4.57208 2.634 4.57208 2.634L5.5516 3.2524C5.65528 3.24904 5.8364 3.2504 6.136 3.26024C7.36528 3.30104 7.55456 4.51664 7.55456 4.51664L11.8875 3.92008" fill="#FBA919"/>
<path d="M10.0973 10.6475C10.0973 10.6475 9.5112 11.2336 8.6112 11.0451C7.71112 10.8568 7.1668 10.4591 7.12496 9.76832C7.08312 9.0776 7.31352 8.8056 7.31352 8.8056C7.31352 8.8056 8.31864 9.12 8.80016 9.5384C9.28168 9.95744 9.63752 10.627 10.098 10.6481L10.0973 10.6475Z" fill="white"/>
<path d="M9.38816 10.4384C9.38816 10.4384 8.87992 10.6706 8.31176 10.4814C7.568 10.2334 7.5184 9.45976 7.5184 9.45976C7.5184 9.45976 7.06224 10.7987 8.34136 11.0565C9.36736 11.2631 9.97416 10.6686 9.97416 10.6686L9.38816 10.4384Z" fill="#C9C9C9"/>
<path d="M9.74928 3.64767C9.69456 2.49935 10.6359 1.58471 10.9621 1.54591C10.9801 1.74047 10.9439 2.49943 11.2699 2.73279C11.3649 2.11311 11.6859 1.42959 12.9535 0.981674C12.682 1.70167 12.9173 2.30487 13.0293 2.58439C13.8949 1.79879 14.4781 1.92855 14.4781 1.92855C14.4781 1.92855 13.8766 2.96639 14.1119 3.64743C12.3742 3.51111 9.75776 3.83199 9.74928 3.64767ZM6.06536 5.39671C5.6508 5.05271 5.95976 4.73351 5.92704 4.34271C5.90928 4.13479 5.89288 3.93855 5.82424 3.83023C5.44264 3.22783 4.5428 3.04503 4.5336 3.04311L4.11128 2.96039L4.39088 2.63319C4.42704 2.59079 5.5756 1.49519 7.35296 2.06879C8.59624 2.46983 9.51648 3.82935 9.55072 3.88439L8.92776 4.17743C8.92056 4.16583 8.19304 2.88791 7.12672 2.54407C6.26496 2.26583 5.47032 2.53047 5.1296 2.70391C5.49136 2.84839 5.96432 3.11143 6.24984 3.56151C6.38472 3.77391 6.40704 4.04167 6.4288 4.30071C6.45768 4.64375 6.48464 4.96759 6.73728 5.17727L6.06632 5.39671H6.06536ZM4.958 10.4179C4.958 10.4179 5.4804 9.77015 5.63512 8.50975C5.69592 8.01327 5.58792 7.03407 5.4152 6.65735C5.44656 7.58359 5.2112 8.50975 5.2112 8.50975C5.2112 8.50975 5.05264 10.2295 4.95856 10.4179H4.958Z" fill="#463014"/>
<path d="M7.7128 4.74247C7.71248 4.74119 7.54512 4.00983 7.08128 3.64063C6.42672 3.12007 5.62768 3.39703 5.61992 3.39943L5.50416 3.04095C5.54296 3.02847 6.45664 2.74063 7.298 3.33231C8.14456 3.92743 8.24656 4.46679 8.25512 4.52639L7.71304 4.74247H7.7128ZM6.59896 9.95335C6.59896 9.95335 6.32488 9.56103 6.37416 9.12959C6.39872 8.91647 6.49744 8.69783 6.67376 8.62023C7.00128 8.47679 7.14672 8.84783 7.14672 8.84783C7.14672 8.84783 6.6856 8.96159 6.59936 9.95359L6.59896 9.95335Z" fill="#463014"/>
<path d="M9.60792 10.5514C9.61936 10.5729 9.6252 10.5848 9.6252 10.5848C9.6252 10.5848 8.7704 11.2263 7.89448 10.5753C7.42544 10.2267 7.46984 9.36431 7.61344 8.99855C7.98704 9.08343 8.30384 9.23607 8.56872 9.41431C8.23408 9.11567 7.94104 8.89591 7.94184 8.89071L7.56144 8.78279L6.82208 8.52959C6.81256 8.58615 6.54288 9.85039 7.32128 10.7115C7.6664 11.0937 9.28392 11.9489 10.0519 10.4865L9.60792 10.5529V10.5514Z" fill="#463014"/>
<path d="M9.5276 10.6456C10.0089 11.378 11.2231 10.9594 11.2022 10.185C11.2022 10.185 10.3909 10.6329 9.67416 9.80839C9.2556 9.32759 7.91448 8.00007 6.096 8.44151C7.35184 8.71775 9.0144 9.86495 9.5276 10.6465V10.6456Z" fill="#463014"/>
<path d="M5.92616 12.7124C6.04192 12.7793 6.45016 13.2021 6.4504 13.8346C6.4504 14.1517 6.4188 15.7449 6.26184 16.7181C6.498 16.8715 6.66248 16.9041 6.89752 17.0605C7.01528 15.9333 7.0996 14.2995 7.06024 13.64C7.01552 12.8882 6.61296 12.3836 6.24 12.1685C6.12031 12.1002 5.99969 12.0336 5.87816 11.9686C5.2388 11.6232 4.57768 11.2658 4.57768 10.6555C4.57768 10.1782 4.7632 10.0289 4.95984 9.87056L4.98096 9.85344C5.1112 9.74808 5.2592 9.62864 5.34664 9.43248C5.58544 8.89616 5.62424 7.53008 5.34664 7.1832C5.20856 7.01024 4.83752 6.4288 4.94408 6.03864C4.98488 5.88936 5.07896 5.7788 5.23152 5.70056C5.39336 5.61768 5.61176 5.57552 5.8808 5.57552C6.40904 5.57552 6.9952 5.73608 7.29704 5.83208C8.3772 6.17416 9.68024 7.16088 10.0539 7.4556L10.0723 7.46936L10.3111 7.63576L10.1618 7.3852C10.1526 7.36936 9.206 5.8124 7.5128 5.24136C7.1832 5.13016 6.53664 4.94408 5.90056 4.94408C5.52232 4.94408 5.20056 5.00984 4.94608 5.14008C4.63624 5.29864 4.4264 5.55184 4.33888 5.8716C4.12512 6.6556 4.82176 7.52856 4.84544 7.55688C4.92704 7.7016 4.9612 8.75408 4.77368 9.17576C4.74808 9.2336 4.67768 9.29088 4.58752 9.3632C4.55992 9.3856 4.52832 9.40928 4.4948 9.43424C4.2304 9.6336 3.8304 9.93552 3.8304 10.6308C3.8304 11.582 4.79544 12.0984 5.57032 12.5128C5.69792 12.5812 5.81896 12.6456 5.9288 12.7088L5.92616 12.7124Z" fill="#463014"/>
<path d="M6.06536 5.39672C5.6508 5.05272 5.95976 4.73352 5.92704 4.34272C5.90928 4.1348 5.89288 3.93856 5.82424 3.83024C5.44264 3.22784 4.5428 3.04504 4.5336 3.04312L4.11128 2.9604L4.39088 2.6332C4.42704 2.5908 5.5756 1.4952 7.35296 2.0688C8.59624 2.46984 9.51648 3.82936 9.55072 3.8844L8.92776 4.17744C8.92056 4.16584 8.19304 2.88792 7.12672 2.54408C6.26496 2.26584 5.47032 2.53048 5.1296 2.70392C5.49136 2.8484 5.96432 3.11144 6.24984 3.56152C6.38472 3.77392 6.40704 4.04168 6.4288 4.30072C6.45768 4.64376 6.48464 4.9676 6.73728 5.17728L6.06632 5.39672H6.06536Z" fill="#463014"/>
<path d="M6.05192 5.4672L6.02512 5.44496C5.71768 5.1904 5.77224 4.93848 5.82504 4.69576C5.84904 4.58392 5.8744 4.46744 5.86408 4.3484C5.84728 4.1484 5.83128 3.9596 5.77096 3.86424C5.40784 3.29064 4.52968 3.10712 4.52112 3.10512L3.99352 3.0012L4.34352 2.59272C4.35008 2.58552 5.08752 1.84088 6.336 1.84088C6.6768 1.84088 7.02536 1.89744 7.372 2.00992C8.66928 2.42832 9.59544 3.83792 9.604 3.85176L9.64152 3.9116L8.90408 4.25896L8.87448 4.21224C8.79552 4.07736 8.09632 2.92424 7.10696 2.6052C6.86424 2.52624 6.60832 2.4868 6.34656 2.4868C5.87296 2.4868 5.48872 2.6164 5.28416 2.70256C5.62624 2.85648 6.04 3.11568 6.30248 3.52944C6.4452 3.75504 6.46824 4.03 6.49056 4.29584C6.51824 4.62664 6.54456 4.93784 6.77672 5.13056L6.86424 5.20288L6.05248 5.46928L6.05192 5.4672Z" fill="#463014"/>
<path d="M7.7128 4.74247C7.71248 4.74119 7.54512 4.00983 7.08128 3.64063C6.42672 3.12007 5.62768 3.39703 5.61992 3.39943L5.50416 3.04095C5.54296 3.02847 6.45664 2.74063 7.298 3.33231C8.14456 3.92743 8.24656 4.46679 8.25512 4.52639L7.71304 4.74247H7.7128Z" fill="#463014"/>
<path d="M7.66736 4.828L7.65104 4.756C7.64936 4.74904 7.48528 4.04272 7.04144 3.68992C6.78864 3.48864 6.48368 3.38672 6.13568 3.38672C5.864 3.38672 5.66208 3.45184 5.64008 3.45904L5.58008 3.47944L5.42488 3.0012L5.48464 2.98216C5.51168 2.9736 5.75376 2.89792 6.09712 2.89792C6.54968 2.89792 6.97728 3.0308 7.3344 3.28208C8.20272 3.89248 8.30864 4.45632 8.31784 4.5188L8.32576 4.56808L7.66928 4.82992L7.66736 4.828ZM6.13568 3.26096C6.50752 3.26096 6.84808 3.37536 7.11976 3.59144C7.51384 3.90528 7.69912 4.45912 7.7552 4.65784L8.18216 4.4876C8.14352 4.3368 7.97336 3.8844 7.2612 3.38376C6.92064 3.14432 6.52872 3.02304 6.09624 3.02304C5.85888 3.02304 5.67464 3.0608 5.58344 3.08384L5.6604 3.322C5.81554 3.2813 5.97529 3.26078 6.13568 3.26096ZM10.0028 20.4186C9.8172 20.4186 9.62792 20.3514 9.49672 20.2378C9.39624 20.1511 9.05664 19.839 8.9068 19.4569C8.85088 19.3139 8.86336 19.1997 8.94456 19.1173C9.00048 19.061 9.11656 18.9935 9.35208 18.9935L9.51968 18.9933C9.71968 18.993 10.0558 18.993 10.3433 18.993H10.6189C10.7985 18.993 10.9267 19.0318 11.0004 19.1074C11.0951 19.2049 11.0649 19.3292 11.0386 19.3943C10.9925 19.5087 10.8018 19.8811 10.4781 20.2265C10.3623 20.3508 10.1939 20.4192 10.0038 20.4192L10.0028 20.4186ZM10.1972 10.6883L9.52752 10.6452C9.52752 10.6452 9.69872 10.947 9.8096 11.3374C9.9348 11.7787 9.69512 12.4241 9.69512 12.4241C9.69512 12.4241 10.5881 11.413 10.1972 10.6881V10.6883ZM9.36104 22.1867C6.97728 22.0035 6.13864 19.751 6.13864 19.2819L6.76112 19.2822C6.76432 19.4854 7.39776 21.4122 9.4088 21.5667L9.36112 22.1877L9.36104 22.1867Z" fill="#463014"/>
<path d="M8.69152 18.1518C8.65432 17.9365 8.65048 17.7323 8.69592 17.5317C8.51472 17.3955 8.18968 17.3449 7.94576 17.2653C7.74576 17.139 6.72552 17.3942 5.9848 16.4982C5.05664 15.376 5.252 14.7058 5.252 14.7058C5.01392 14.9702 4.78368 14.8689 4.42056 16.1016C4.05744 17.3343 4.59096 18.1934 5.58552 19.0558C6.05512 19.463 6.7196 19.6307 7.29056 19.6952C7.09912 19.5031 7.61752 19.4834 7.97464 19.3498C7.94576 19.061 7.99376 18.7815 8.20888 18.5558C8.33848 18.4197 8.50552 18.3388 8.67848 18.2737C8.6884 18.2513 8.69632 18.2309 8.70552 18.2092C8.69937 18.1893 8.6943 18.1691 8.69032 18.1487L8.69152 18.1518Z" fill="white"/>
<path d="M7.97056 19.3444C7.95 19.2838 7.9344 19.222 7.91912 19.16C7.90264 19.0922 7.8204 18.9 7.92176 19.1194C7.89684 19.0642 7.87816 19.0064 7.86608 18.947C6.25576 18.945 4.85464 17.8394 5.12568 15.5146C4.91512 15.2347 4.61976 16.079 4.61976 16.079C4.61976 16.079 3.814 18.42 5.896 19.3272C6.59 19.6298 7.20312 19.8467 7.34784 19.7592C7.64904 19.8204 7.92144 19.6104 8.02336 19.4722C8.00432 19.4298 7.9872 19.3874 7.97208 19.3442L7.97056 19.3444Z" fill="#C9C9C9"/>
<path d="M8.66264 17.8144C8.66504 17.6181 8.7052 17.428 8.80008 17.2387C8.80664 17.2256 8.8144 17.2131 8.82144 17.2005C8.20184 17.1952 7.48808 17.1358 6.88032 16.8926C6.21264 16.6254 5.37712 15.7112 5.23312 14.6371C5.23312 14.6371 3.97544 15.6079 4.34512 17.6858C4.69176 19.637 6.3244 20.2731 8.18672 20.3807C8.188 20.3681 7.97752 19.9334 8.04392 19.6673C6.98688 19.7442 5.80408 19.3358 5.23376 18.3964C4.71152 17.5374 4.85816 16.0698 5.07264 15.8546C5.59688 17.5078 7.48152 17.8438 8.6636 17.815L8.66264 17.8144Z" fill="#463014"/>
<path d="M8.85736 16.631C8.52224 17.6143 7.83776 18.4102 7.83776 18.4102C7.83776 18.4102 8.77936 18.3667 8.83128 18.2002C8.86976 18.0773 9.68144 16.1775 9.99296 13.9514C9.69992 14.433 8.886 16.5458 8.85736 16.6301V16.631Z" fill="#463014"/>
<path d="M14.1915 14.3642C14.1915 14.3642 15.2587 15.9965 16.0421 17.1549C16.1633 17.3341 15.2588 17.3465 15.2588 17.3465L14.1915 14.3642ZM13.683 10.9799C13.683 10.9799 14.005 11.7827 14.181 12.2083C14.3724 12.671 15.1019 12.9011 15.1019 12.9011C15.1019 12.9011 14.7237 12.5045 14.7237 11.4996C14.7237 11.0786 14.1795 10.9109 14.1795 10.9109L13.6835 10.9806L13.683 10.9799Z" fill="#E78724"/>
<path d="M14.008 11.4336C14.008 11.4336 14.6673 12.2184 15.8918 11.779C17.1162 11.3395 17.2418 9.76959 17.2418 9.33007C17.2418 8.89055 14.9186 9.76959 14.6046 9.95799C14.2905 10.1464 13.6942 10.8998 14.008 11.4336ZM18.6323 3.04719C18.6323 3.04719 17.5022 2.82719 16.7486 3.42375C15.9948 4.02023 15.775 4.49127 15.775 4.49127L17.0446 5.49783C17.0446 5.49783 17.6584 5.21335 17.8466 4.39703C18.0346 3.58079 17.909 3.20415 18.6314 3.04719H18.6323Z" fill="#E78724"/>
<path d="M14.3382 9.1668C14.8248 8.47608 15.6264 8.1748 16.2669 8.1248C17.3586 8.03952 17.8766 8.42544 17.8766 8.42544C17.8766 8.42544 16.0887 8.50112 15.5734 9.178C14.6139 10.4377 13.2149 10.54 12.991 10.2634C13.2496 10.2762 13.5344 10.148 13.839 9.85992C14.029 9.67968 14.1837 9.386 14.3376 9.1668H14.3382ZM17.3563 11.609C17.3563 11.609 19.3399 10.927 18.9632 10.2365C18.5865 9.54512 18.8861 9.16888 18.8861 9.16888C18.8861 9.16888 19.9941 9.99576 19.7115 10.8746C19.538 11.414 19.247 11.8047 17.649 12.5533C16.882 13.9768 17.4905 16.5397 17.4543 16.5514C17.3931 16.5712 16.3781 16.0496 16.4471 13.6518C16.4682 12.9158 16.5268 11.9106 17.3556 11.6074L17.3563 11.609ZM14.757 4.27576C15.4149 4.61107 16.072 4.94808 16.7282 5.2868L16.2802 5.51112C16.323 5.58056 16.344 5.62192 16.344 5.62192L15.8842 5.8312C15.8842 5.8312 14.7607 6.64528 14.072 7.16856C14.3016 6.46176 14.9752 5.3512 14.9752 5.3512C14.9752 5.3512 15.1666 4.84096 14.7581 4.27568L14.757 4.27576ZM11.9938 21.5011C14.55 21.5011 15.416 20.2033 15.416 20.2033L15.0167 21.1762C14.8657 21.5972 13.2545 22.9069 11.9976 22.9069" fill="#E78724"/>
<path d="M15.1361 19.326C15.1361 19.326 14.9006 20.7636 13.959 20.7636C13.1588 20.7636 12.923 19.5493 12.923 19.2983L15.1361 19.326ZM16.7034 17.158C16.6198 16.9276 16.3268 15.9962 16.2325 15.1487C16.1196 14.1335 16.161 12.6488 16.161 12.6488C16.161 12.6488 16.4122 13.6221 16.6317 13.7794C16.8517 13.9362 17.2597 15.0035 17.2597 15.0035C17.2597 15.0035 17.4783 16.5925 17.5823 17.1266C17.2944 17.1843 17.0522 17.0146 16.7035 17.158H16.7034ZM18.9782 10.8594C18.9782 10.8594 18.4443 10.671 18.2874 9.50952C18.1305 8.34784 18.4758 7.3432 18.4758 7.3432C18.4758 7.3432 18.4443 8.94432 18.6324 9.2584C18.8206 9.57232 18.9778 9.6664 19.1974 10.0747C19.4172 10.4829 19.1027 10.7338 18.9778 10.8595L18.9782 10.8594Z" fill="#E78724"/>
<path d="M18.3403 3.32193L18.4495 3.25281C18.7707 3.26377 18.3403 3.32193 18.3403 3.32193Z" fill="#FDC168"/>
<path d="M14.3224 3.93168C14.3224 3.93168 14.8248 3.848 15.0758 3.47136C15.3271 3.09456 16.0389 2.34096 17.1731 2.33256C18.3074 2.324 19.4294 2.634 19.4294 2.634L18.4499 3.2524C18.3462 3.24904 18.1651 3.2504 17.8653 3.26024C16.6362 3.30104 16.4469 4.51664 16.4469 4.51664L12.1146 3.92008" fill="#FBA919"/>
<path d="M13.904 10.6475C13.904 10.6475 14.4902 11.2336 15.39 11.0451C16.2902 10.8568 16.8344 10.4591 16.8762 9.76832C16.918 9.0776 16.6879 8.8056 16.6879 8.8056C16.6879 8.8056 15.6831 9.12 15.2018 9.5384C14.7204 9.9568 14.3646 10.627 13.904 10.6481V10.6475Z" fill="white"/>
<path d="M14.6131 10.4384C14.6131 10.4384 15.1216 10.6706 15.6896 10.4814C16.4336 10.2334 16.483 9.45976 16.483 9.45976C16.483 9.45976 16.939 10.7987 15.6598 11.0565C14.6341 11.2631 14.0272 10.6686 14.0272 10.6686L14.6131 10.4384Z" fill="#C9C9C9"/>
<path d="M17.9358 5.39672C18.3503 5.05272 18.0415 4.73352 18.0742 4.34272C18.0918 4.1348 18.1082 3.93856 18.1769 3.83024C18.5585 3.22784 19.4585 3.04504 19.4677 3.04312L19.8901 2.9604L19.6105 2.6332C19.5742 2.5908 18.4257 1.4952 16.6483 2.0688C15.4051 2.46984 14.4848 3.82936 14.4506 3.8844L15.0735 4.17744C15.0807 4.16584 15.8083 2.88792 16.8753 2.54408C17.737 2.26584 18.5317 2.53048 18.8718 2.70392C18.5099 2.8484 18.037 3.11144 17.7515 3.56152C17.6166 3.77392 17.5942 4.04168 17.5726 4.30072C17.5436 4.64376 17.516 4.9676 17.2634 5.17728L17.9338 5.39672H17.9358ZM19.0428 10.4179C19.0428 10.4179 18.5207 9.77016 18.366 8.50976C18.3052 8.01328 18.413 7.03408 18.5857 6.65736C18.5542 7.5836 18.7899 8.50976 18.7899 8.50976C18.7899 8.50976 18.9487 10.2295 19.0428 10.4179Z" fill="#463014"/>
<path d="M16.2886 4.74247C16.2889 4.74119 16.4563 4.00983 16.9202 3.64063C17.5746 3.12007 18.3738 3.39703 18.3813 3.39943L18.4977 3.04095C18.4589 3.02847 17.5456 2.74063 16.7036 3.33231C15.8564 3.92743 15.755 4.46679 15.7458 4.52639L16.2878 4.74247H16.2886ZM17.4025 9.95335C17.4025 9.95335 17.6765 9.56103 17.627 9.12959C17.6026 8.91647 17.5039 8.69783 17.3277 8.62023C17.0001 8.47679 16.8549 8.84783 16.8549 8.84783C16.8549 8.84783 17.3159 8.96159 17.4025 9.95359V9.95335Z" fill="#463014"/>
<path d="M14.3934 10.5514C14.3821 10.5729 14.3762 10.5848 14.3762 10.5848C14.3762 10.5848 15.2306 11.2263 16.1066 10.5754C16.5758 10.2267 16.5316 9.36432 16.3875 8.99856C16.0142 9.08344 15.6974 9.23608 15.4323 9.41432C15.7672 9.11568 16.0602 8.89592 16.0591 8.89072L16.4398 8.7828L17.1786 8.5296C17.1878 8.58616 17.4574 9.8504 16.6786 10.7115C16.3333 11.0937 14.7157 11.9489 13.948 10.4866L14.392 10.553L14.3934 10.5514Z" fill="#463014"/>
<path d="M14.473 10.6456C13.9918 11.378 12.7778 10.9594 12.7989 10.185C12.7989 10.185 13.61 10.6329 14.3267 9.80839C14.7452 9.32759 16.0865 8.00007 17.905 8.44151C16.6493 8.71775 14.9865 9.86495 14.473 10.6465V10.6456Z" fill="#463014"/>
<path d="M18.0752 12.7124C17.9594 12.7793 17.5509 13.2021 17.5509 13.8346C17.5506 14.1517 17.5823 15.7449 17.7394 16.7181C17.5033 16.8715 17.3388 16.9041 17.1038 17.0605C16.986 15.9333 16.9014 14.2995 16.941 13.64C16.9859 12.8882 17.3883 12.3836 17.7615 12.1685C17.8784 12.1013 18.0007 12.0351 18.124 11.9686C18.7634 11.6232 19.4245 11.2658 19.4245 10.6555C19.4245 10.1782 19.2387 10.0289 19.0423 9.87056L19.0213 9.85344C18.891 9.74808 18.7431 9.62864 18.656 9.43248C18.4172 8.89616 18.3777 7.53008 18.6553 7.1832C18.7934 7.01024 19.1645 6.4288 19.0579 6.03864C19.0171 5.88936 18.923 5.7788 18.7704 5.70056C18.6086 5.61768 18.3902 5.57552 18.1212 5.57552C17.593 5.57552 17.0068 5.73608 16.7049 5.83208C15.6248 6.17416 14.3217 7.16088 13.9474 7.4556C13.9369 7.46344 13.9302 7.46872 13.929 7.46936L13.6895 7.63576L13.8388 7.3852C13.8481 7.36936 14.7946 5.8124 16.4878 5.24136C16.8174 5.13016 17.464 4.94408 18.1001 4.94408C18.4783 4.94408 18.7994 5.00984 19.0539 5.14008C19.3638 5.29864 19.5736 5.55184 19.6611 5.8716C19.8749 6.6556 19.179 7.52856 19.1546 7.55688C19.073 7.7016 19.0388 8.75408 19.2263 9.17576C19.2519 9.2336 19.323 9.29088 19.4125 9.3632C19.4407 9.3856 19.4717 9.40928 19.5052 9.43424C19.7696 9.6336 20.1696 9.93552 20.1696 10.6308C20.1696 11.582 19.2052 12.0984 18.4304 12.5128C18.3034 12.5812 18.1817 12.6456 18.0725 12.7088L18.0752 12.7124Z" fill="#463014"/>
<path d="M16.9247 5.2848C16.7713 5.02488 16.379 4.5232 15.4747 4.08224C14.4657 3.59048 13.2978 3.34088 12.003 3.34024V3.34H11.9984V3.34064C10.7038 3.34128 9.5356 3.59128 8.52648 4.08264C7.62272 4.52408 7.23064 5.02528 7.07672 5.28512L7.01096 5.37264L7.78512 5.54488L7.80992 5.514L7.82296 5.48544C7.8348 5.43408 7.93872 5.15784 8.802 4.73688C9.72488 4.2868 10.8011 4.05864 12.001 4.058C13.2008 4.05848 14.277 4.28672 15.1998 4.73688C16.0629 5.15784 16.1674 5.43408 16.1793 5.48528L16.1918 5.51376L16.2162 5.54472L16.9904 5.37232L16.9246 5.28528L16.9247 5.2848Z" fill="#463014"/>
<path d="M17.9358 5.39672C18.3503 5.05272 18.0415 4.73352 18.0742 4.34272C18.0918 4.1348 18.1082 3.93856 18.1769 3.83024C18.5585 3.22784 19.4585 3.04504 19.4677 3.04312L19.8901 2.9604L19.6105 2.6332C19.5742 2.5908 18.4257 1.4952 16.6483 2.0688C15.4051 2.46984 14.4848 3.82936 14.4506 3.8844L15.0735 4.17744C15.0807 4.16584 15.8083 2.88792 16.8753 2.54408C17.737 2.26584 18.5317 2.53048 18.8718 2.70392C18.5099 2.8484 18.037 3.11144 17.7515 3.56152C17.6166 3.77392 17.5942 4.04168 17.5726 4.30072C17.5436 4.64376 17.516 4.9676 17.2634 5.17728L17.9338 5.39672H17.9358Z" fill="#463014"/>
<path d="M17.1378 5.20135L17.225 5.12871C17.4573 4.93607 17.4833 4.62503 17.5113 4.29431C17.5338 4.02792 17.557 3.75295 17.6996 3.52735C17.9615 3.11359 18.3762 2.85503 18.7178 2.70047C18.5133 2.61359 18.129 2.48471 17.6551 2.48471C17.3933 2.48471 17.1379 2.52415 16.895 2.60247C15.9056 2.92151 15.2066 4.07399 15.1274 4.20943L15.0978 4.25615L14.3604 3.90951L14.3979 3.84967C14.4067 3.83583 15.332 2.42615 16.6295 2.00775C16.9769 1.89527 17.3255 1.83871 17.6662 1.83871C18.9154 1.83871 19.6528 2.58335 19.6587 2.59063L20.0087 2.99975L19.4811 3.10303C19.4726 3.10439 18.5944 3.28855 18.2313 3.86215C18.1714 3.95751 18.1556 4.14631 18.1385 4.34631C18.1286 4.46535 18.1537 4.58111 18.178 4.69359C18.2306 4.93631 18.2852 5.18831 17.978 5.44287L17.9517 5.46455L17.14 5.19815L17.1378 5.20135Z" fill="#463014"/>
<path d="M16.2886 4.74247C16.2889 4.74119 16.4563 4.00983 16.9202 3.64063C17.5746 3.12007 18.3738 3.39703 18.3813 3.39943L18.4977 3.04095C18.4589 3.02847 17.5456 2.74063 16.7036 3.33231C15.8564 3.92743 15.755 4.46679 15.7458 4.52639L16.2878 4.74247H16.2886Z" fill="#463014"/>
<path d="M15.6774 4.5664L15.6846 4.5172C15.6939 4.45496 15.8 3.89096 16.6678 3.28088C17.025 3.03 17.4533 2.89728 17.9052 2.89728C18.2486 2.89728 18.4906 2.97296 18.5176 2.98152L18.5775 3.0012L18.4223 3.47944L18.3623 3.45968C18.34 3.45248 18.1381 3.38736 17.8671 3.38736C17.5191 3.38736 17.2145 3.49 16.9619 3.69128C16.5186 4.04448 16.3541 4.75032 16.3528 4.7576L16.337 4.82992L15.6805 4.56808L15.6774 4.5664ZM18.341 3.32184L18.4182 3.08384C18.327 3.06064 18.1425 3.02304 17.9051 3.02304C17.4727 3.02304 17.0807 3.14448 16.7402 3.38384C16.0279 3.8844 15.8578 4.3368 15.8191 4.4876L16.2465 4.65776C16.3024 4.45912 16.4875 3.90512 16.8817 3.59144C17.154 3.37528 17.4941 3.26104 17.8657 3.26104C18.0795 3.26104 18.2518 3.29784 18.3414 3.32184H18.341ZM13.5242 20.2262C13.2008 19.8803 13.0094 19.5082 12.9632 19.3938C12.9368 19.3287 12.9066 19.2046 13.0015 19.107C13.0754 19.0316 13.2036 18.9929 13.3828 18.9929H13.659C13.9466 18.9929 14.2826 18.9929 14.4826 18.9935L14.6504 18.9942C14.8858 18.9942 15.0023 19.0619 15.0576 19.1178C15.1392 19.2001 15.1516 19.3146 15.0957 19.4579C14.9458 19.8401 14.6063 20.1526 14.5057 20.2387C14.3741 20.3526 14.1853 20.4197 13.9998 20.4197C13.8097 20.4197 13.6413 20.3512 13.5255 20.2276L13.5242 20.2262ZM13.8042 10.688L14.4736 10.6449C14.4736 10.6449 14.3026 10.9467 14.1918 11.337C14.0662 11.7784 14.3062 12.4238 14.3062 12.4238C14.3062 12.4238 13.4129 11.4126 13.8037 10.6878L13.8042 10.688Z" fill="#463014"/>
<path d="M12.0003 8.29721C11.5734 8.29721 11.0169 8.28553 10.5994 7.98537C10.5994 7.98537 11.1461 8.94393 11.9996 8.94393L12.0002 8.82265L12.001 8.94393C12.8546 8.94393 13.4014 7.98553 13.4014 7.98553C12.9838 8.28553 12.4268 8.29729 12.0003 8.29729V8.29721Z" fill="#E78724"/>
<path d="M13.1758 8.29256C12.7476 8.55176 12.3653 8.64152 12.0006 8.64952C11.6358 8.64152 11.2534 8.55176 10.8252 8.29264C10.8252 8.29264 11.4488 9.05368 11.9974 9.0596V9.06032H12.0005C12.0014 9.06032 12.0024 9.06096 12.0035 9.06096C12.5522 9.05504 13.1764 8.29456 13.1764 8.29456L13.1758 8.29256ZM14.6398 22.1874L14.592 21.5668C16.603 21.4122 17.2364 19.4853 17.2397 19.2825H17.8626C17.8633 19.7515 17.0239 22.0042 14.6407 22.1874L14.6398 22.1874Z" fill="#463014"/>
<path d="M15.3098 18.1518C15.3471 17.9365 15.3507 17.7323 15.3054 17.5317C15.4868 17.3955 15.8116 17.3449 16.0555 17.2653C16.255 17.139 17.2759 17.3942 18.0165 16.4982C18.9442 15.376 18.7486 14.7058 18.7486 14.7058C18.9867 14.9702 19.217 14.8689 19.5799 16.1016C19.943 17.3344 19.4092 18.1934 18.4148 19.0558C17.9452 19.463 17.2809 19.6307 16.7097 19.6952C16.901 19.5031 16.3834 19.4834 16.0262 19.3498C16.0551 19.061 16.0071 18.7815 15.792 18.5558C15.663 18.4197 15.496 18.3388 15.323 18.2737C15.3131 18.2513 15.3052 18.2309 15.296 18.2092C15.3019 18.1894 15.3072 18.1698 15.3112 18.1487L15.3098 18.1518Z" fill="white"/>
<path d="M16.0301 19.3444C16.051 19.2838 16.0662 19.222 16.0816 19.16C16.0984 19.0922 16.1806 18.9 16.0792 19.1194C16.1041 19.0642 16.1227 19.0064 16.1348 18.947C17.7452 18.945 19.1462 17.8394 18.8754 15.5146C19.0862 15.2347 19.3816 16.079 19.3816 16.079C19.3816 16.079 20.1878 18.42 18.1056 19.3273C17.4118 19.6298 16.7988 19.8468 16.6541 19.7593C16.3525 19.8205 16.0805 19.6105 15.9787 19.4722C15.9978 19.4298 16.0155 19.3874 16.0307 19.3443L16.0301 19.3444Z" fill="#C9C9C9"/>
<path d="M15.3387 17.8144C15.3365 17.6181 15.2962 17.428 15.2015 17.2387C15.1949 17.2256 15.1871 17.2131 15.1801 17.2005C15.7998 17.1952 16.5135 17.1358 17.1213 16.8927C17.7893 16.6254 18.6249 15.7112 18.7685 14.6371C18.7685 14.6371 20.0266 15.6079 19.6569 17.6858C19.3096 19.637 17.6771 20.2731 15.815 20.3807C15.814 20.3681 16.0246 19.9334 15.958 19.6673C17.015 19.7443 18.1978 19.3358 18.7688 18.3964C19.2911 17.5374 19.1444 16.0698 18.9299 15.8547C18.4063 17.5078 16.5211 17.8439 15.339 17.815L15.3387 17.8144Z" fill="#463014"/>
<path d="M16.0906 18.3038C15.8682 18.0633 15.4591 17.7766 14.516 17.7766L12.0045 17.775H11.9986C11.275 17.7756 9.4864 17.7766 9.4864 17.7766C8.54376 17.7766 8.13456 18.0634 7.91224 18.3038C7.58792 18.6537 7.53728 19.1406 7.7616 19.7493C8.3576 21.3692 9.1956 23.015 11.9992 23.0173V23.0175H12.0025C12.0038 23.0175 12.0045 23.0182 12.0058 23.0182C14.8094 23.0162 15.6474 21.3704 16.2434 19.7502C16.4677 19.1417 16.417 18.655 16.0927 18.305L16.0906 18.3038ZM15.6541 19.6357C15.3701 20.4491 14.6069 22.4181 12.0006 22.4215C9.39416 22.4181 8.6312 20.4492 8.34712 19.6357C8.19008 19.1845 8.202 18.8504 8.38392 18.6429C8.50832 18.5011 8.79376 18.3318 9.44432 18.3318L10.1241 18.3316C10.6255 18.3311 11.2551 18.3306 12.0008 18.3302C12.7461 18.3306 13.376 18.331 13.8774 18.3316L14.5568 18.3318C15.2076 18.3318 15.493 18.5009 15.6174 18.6422C15.7991 18.8495 15.8112 19.1837 15.6541 19.635V19.6357Z" fill="#463014"/>
<path d="M15.1434 16.631C15.4784 17.6143 16.1628 18.4102 16.1628 18.4102C16.1628 18.4102 15.2215 18.3667 15.1695 18.2002C15.1314 18.0773 14.3196 16.1775 14.0085 13.9514C14.3018 14.433 15.1156 16.5458 15.1445 16.6301L15.1434 16.631Z" fill="#463014"/>
</svg>
