<svg width="24" height="25" viewBox="0 0 24 25" fill="none" xmlns="http://www.w3.org/2000/svg">
<path d="M10.1782 13.3693V19.0455H7.45518V5.95455H10.1015V10.9595H10.2165C10.4381 10.38 10.7961 9.92614 11.2904 9.59801C11.7847 9.26563 12.4048 9.09943 13.1505 9.09943C13.8323 9.09943 14.4268 9.24858 14.9339 9.54688C15.4452 9.84091 15.8415 10.2649 16.1228 10.8189C16.4083 11.3686 16.5489 12.027 16.5447 12.794V19.0455H13.8217V13.2798C13.8259 12.6747 13.6725 12.2038 13.3614 11.8672C13.0546 11.5305 12.6242 11.3622 12.0702 11.3622C11.6995 11.3622 11.3714 11.4411 11.0859 11.5987C10.8046 11.7564 10.583 11.9865 10.4211 12.2891C10.2634 12.5874 10.1825 12.9474 10.1782 13.3693Z" fill="#60A5FA"/>
</svg>
