<svg width="24" height="24" viewBox="0 0 24 24" fill="none" xmlns="http://www.w3.org/2000/svg">
<path d="M11.8411 22.9242C11.6823 22.8141 11.4946 22.449 11.3875 22.0427C11.2923 21.6812 11.2563 20.7283 11.32 20.261C11.3437 20.0871 11.3572 19.939 11.3499 19.9318C11.3428 19.9244 11.1951 19.9013 11.0217 19.8806C10.0232 19.7601 8.95754 19.4208 8.1462 18.9648C7.97419 18.868 7.81291 18.7889 7.78811 18.7889C7.76314 18.7889 7.67555 18.9185 7.59324 19.0768C7.21105 19.8127 6.54341 20.5435 6.03599 20.7813C5.85079 20.8681 5.60386 20.8892 5.48971 20.828C5.31752 20.7359 5.26652 20.3704 5.36941 19.9659C5.43976 19.6889 5.72275 19.106 5.9521 18.7655C6.05341 18.6151 6.25356 18.3601 6.39708 18.1986L6.65738 17.9053L6.5216 17.7755C6.16386 17.4336 5.49165 16.6426 5.49165 16.5633C5.49165 16.535 6.40868 15.8979 6.47552 15.8798C6.50946 15.8707 6.5916 15.9519 6.70293 16.105C6.94389 16.4361 7.58831 17.0734 7.96751 17.3551C10.8581 19.504 14.9324 18.9644 17.1259 16.1419C17.2424 15.992 17.3558 15.8693 17.378 15.8693C17.4219 15.8693 18.3297 16.4849 18.3611 16.5359C18.3896 16.5818 17.9928 17.0959 17.6541 17.4526C17.4932 17.6219 17.3616 17.7742 17.362 17.7909C17.362 17.8078 17.4886 17.9545 17.6427 18.1172C18.1323 18.6334 18.6142 19.4395 18.7481 19.9659C18.8508 20.3704 18.7998 20.7359 18.6278 20.828C18.5905 20.8481 18.492 20.8641 18.4086 20.8639C17.881 20.8627 17.006 20.0155 16.4868 19.0031C16.3865 18.8079 16.29 18.6482 16.2719 18.6482C16.2537 18.6482 16.1519 18.7041 16.0455 18.7722C15.291 19.2557 14.1646 19.6727 13.1903 19.8292C12.9831 19.8626 12.7965 19.9031 12.7757 19.9191C12.7488 19.94 12.7521 20.0376 12.7877 20.2568C12.851 20.6481 12.8265 21.5771 12.7432 21.9528C12.657 22.3406 12.5247 22.6412 12.3615 22.8195C12.174 23.0246 12.0284 23.054 11.8411 22.9242ZM1.46945 15.017C1.46012 14.9923 1.45643 13.706 1.46153 12.1582L1.4705 9.34413H2.94543L2.95475 10.3801C2.96179 11.1552 2.97515 11.423 3.00752 11.4436C3.03144 11.4587 3.40061 11.4714 3.828 11.4718C4.4332 11.4721 4.61365 11.4619 4.6439 11.4253C4.66976 11.394 4.68594 11.0401 4.6921 10.3612L4.70124 9.34413H6.17617V15.0426H4.70124L4.69192 13.9552C4.68576 13.2244 4.66993 12.8524 4.64373 12.8208C4.61348 12.7842 4.43214 12.7738 3.82325 12.7738C3.21435 12.7738 3.03319 12.7842 3.00277 12.8208C2.97674 12.8524 2.96091 13.2244 2.95458 13.9552L2.94525 15.0426L2.2157 15.0521C1.65113 15.0595 1.48246 15.0516 1.46945 15.017ZM7.43934 15.0166C7.43002 14.9922 7.4265 13.706 7.4316 12.1582L7.44057 9.34413H11.0929L11.1026 9.96798L11.1121 10.5918L10.0315 10.6011L8.95068 10.6105L8.94083 11.0298C8.93344 11.3416 8.94241 11.4565 8.976 11.4777C9.00063 11.4936 9.42045 11.5066 9.90852 11.5069L10.796 11.5075L10.7865 12.1318L10.7768 12.7562L9.86385 12.7738L8.95085 12.7914V13.7763L10.0746 13.7939L11.1984 13.8115V15.0426L9.32724 15.0516C7.84914 15.0588 7.45271 15.0518 7.43934 15.0166ZM12.3559 15.0166C12.3466 14.9922 12.3431 13.706 12.3482 12.1582L12.3571 9.34413H13.8321L13.8496 11.5602L13.8672 13.7763L14.9383 13.7939L16.0094 13.8115V15.0426L14.1912 15.0518C12.7551 15.0588 12.3689 15.0514 12.3559 15.0166ZM17.0264 15.0163C17.0172 14.992 17.0137 13.706 17.0186 12.1582L17.0278 9.34413L17.8004 9.33534C18.2254 9.33077 18.5905 9.33868 18.6118 9.35293C18.6638 9.38828 19.4437 11.5127 19.6159 12.0879C19.7947 12.6862 19.7808 12.6507 19.8215 12.6102C19.8405 12.5912 19.9235 12.3552 20.006 12.0854C20.1878 11.4915 20.9068 9.43207 20.9543 9.36981C20.9803 9.33569 21.1696 9.3276 21.7648 9.33464L22.5413 9.34413V15.0426L21.8837 15.0523L21.226 15.0618L21.2028 14.9686C21.1543 14.7753 21.2194 12.7397 21.2925 12.158C21.4077 11.2433 21.3903 11.229 21.1188 12.0173C20.825 12.8702 20.2413 14.438 20.1855 14.5236C20.1377 14.5975 20.1089 14.6028 19.7705 14.6028C19.5212 14.6028 19.396 14.5891 19.3724 14.5588C19.329 14.5032 18.6121 12.552 18.4162 11.9563C18.2779 11.5359 18.2028 11.3847 18.2053 11.5317C18.2058 11.5669 18.2382 11.8566 18.2771 12.1758C18.3497 12.7738 18.4141 14.7781 18.3666 14.9677L18.3434 15.0601H17.6933C17.2054 15.0601 17.039 15.0493 17.0264 15.0163ZM17.4909 8.51926C17.3526 8.28463 17.0046 7.84669 16.71 7.53679C15.7616 6.53867 14.6196 5.90779 13.2175 5.60739C12.816 5.52138 12.7094 5.51329 11.9707 5.51171C11.101 5.50977 10.9095 5.53141 10.2358 5.70781C9.32407 5.94666 8.49269 6.37035 7.75645 6.97151C7.40258 7.26048 6.83889 7.85496 6.59811 8.19317C6.44984 8.40142 6.37509 8.47845 6.33605 8.46368C6.20818 8.41513 5.35112 7.83878 5.35147 7.80184C5.3527 7.71847 5.93011 6.99455 6.3218 6.58493L6.72685 6.16141L6.45899 5.87086C5.96934 5.3397 5.49991 4.54859 5.36906 4.03396C5.26634 3.62944 5.31735 3.26396 5.48953 3.17162C5.52665 3.15175 5.62531 3.13557 5.70868 3.13575C6.23632 3.13698 7.11115 3.98437 7.63052 4.99673C7.7306 5.19196 7.82487 5.35148 7.83982 5.35148C7.85512 5.35148 7.99231 5.28025 8.14497 5.19319C8.9294 4.74558 10.1885 4.3465 11.0458 4.27422C11.1937 4.26173 11.3333 4.2401 11.356 4.22603C11.3871 4.20668 11.3824 4.11241 11.3372 3.84138C11.2538 3.34188 11.2799 2.36363 11.3871 1.95717C11.5572 1.3131 11.8304 0.952371 12.1083 1.00461C12.3677 1.05333 12.6192 1.47649 12.7502 2.08451C12.8355 2.48112 12.8376 3.59673 12.7537 3.96221C12.7228 4.09763 12.7077 4.21934 12.7203 4.23271C12.733 4.24608 12.9015 4.28196 13.0944 4.31221C14.2137 4.48809 15.0625 4.80063 16.1027 5.4192C16.1735 5.46141 16.24 5.48163 16.2508 5.4644C16.2615 5.44716 16.3573 5.25844 16.4639 5.0451C16.8755 4.22163 17.538 3.47326 18.0811 3.21858C18.2665 3.1317 18.5133 3.11059 18.6274 3.1718C18.7998 3.26414 18.8508 3.62944 18.7479 4.03396C18.6728 4.32944 18.384 4.91266 18.1253 5.29151C18.0045 5.46844 17.7591 5.76128 17.5801 5.94226L17.2547 6.27116L17.5748 6.61166C17.8986 6.95586 18.4704 7.68576 18.575 7.88855C18.6225 7.98018 18.6241 8.00586 18.5849 8.04192C18.5045 8.11596 17.6409 8.62303 17.5952 8.62303C17.5714 8.62303 17.5245 8.57642 17.4909 8.51926Z" fill="#60A5FA"/>
</svg>
