<svg width="24" height="24" viewBox="0 0 24 24" fill="none" xmlns="http://www.w3.org/2000/svg">
<path d="M19.6517 1.93295H4.34899C3.29266 1.93295 2.43616 2.74453 2.43616 3.74511V20.2555C2.43616 21.2563 3.29282 22.0677 4.34899 22.0677H19.6513C20.7077 22.0677 21.5642 21.2561 21.5642 20.2555V3.74527C21.5642 2.74453 20.7075 1.93311 19.6513 1.93311L19.6517 1.93295ZM7.21832 19.0475V15.0205L9.60932 17.034L7.21832 19.0475ZM14.657 19.0475V13.0348C14.6467 12.5648 14.4078 12.0003 13.3287 12.0003C11.1677 12.0003 8.74366 13.03 8.71966 13.0402L7.21832 13.6847V4.95316H9.34366V10.6691C10.4047 10.342 11.888 9.98685 13.3287 9.98685C14.6423 9.98685 15.4287 10.4762 15.857 10.8867C16.7712 11.7625 16.7837 12.8782 16.7823 13.0071V19.0475H14.657ZM15.1883 8.22506H13.063C13.8983 7.1869 14.4227 6.09427 14.657 4.95316H16.7823C16.639 6.0968 16.1495 7.19322 15.1883 8.22506Z" fill="#A855F7"/>
</svg>
