<svg width="24" height="24" viewBox="0 0 24 24" fill="none" xmlns="http://www.w3.org/2000/svg">
<path d="M19.0553 7.84125C18.9475 7.96196 18.8499 8.0914 18.7635 8.22825C18.771 9.411 18.7875 11.7142 18.7958 12.042C18.8423 14.0378 18.141 15.747 16.6508 17.265C16.4445 17.475 16.2308 17.67 16.0103 17.865C16.2135 17.685 15.5355 18.327 14.4225 19.0665C13.626 19.5689 12.7909 19.9918 11.9273 20.3302C10.0785 19.593 8.54551 18.5887 7.24726 17.265C7.01176 17.025 6.79726 16.7805 6.60151 16.5308L6.59401 16.5203C6.33701 16.1951 6.10612 15.8455 5.90401 15.4755L5.90776 15.4725L5.61601 15.0285C4.7735 14.8352 4.03954 14.321 3.57001 13.5953C3.63001 13.9905 3.71476 14.3768 3.82801 14.754C4.04326 15.429 4.11526 15.5647 4.48801 16.3215C4.89901 17.0715 5.43376 17.784 6.09976 18.462C7.63276 20.025 9.44701 21.189 11.6468 22.0192L11.9273 22.125L12.2078 22.0192C14.4533 21.171 16.2825 20.007 17.7983 18.462C19.626 16.599 20.4863 14.4862 20.427 12.0023C20.4218 11.7682 20.4173 8.48775 20.4135 5.625C20.3306 5.84684 20.239 6.06454 20.139 6.2775C19.89 6.801 19.506 7.332 19.0553 7.84125Z" fill="#F59E0B"/>
<path d="M20.427 1.875V3.0045L20.4285 3.0765V3.459L20.43 4.76025L20.4225 4.7865C20.3265 5.079 20.2358 5.358 20.22 5.4015L20.1848 5.496C20.0696 5.81296 19.9389 6.12409 19.7933 6.42825L19.764 6.48675C19.524 6.95325 19.1745 7.41675 18.786 7.82325L18.741 7.87275C18.7117 7.90581 18.6817 7.93807 18.651 7.9695L18.6008 8.022C18.1485 8.49 17.6633 8.9205 17.0873 9.2385L16.992 9.291C16.767 9.417 16.5435 9.54375 16.3118 9.65325L16.2938 9.66075C16.0688 9.768 16.0508 9.76875 16.05 10.0057V17.1622L16.0215 17.1847C15.5233 17.6118 15.0051 18.0091 14.469 18.375V10.9762C14.466 10.872 14.4563 10.7655 14.448 10.6163L14.4165 10.629C14.304 10.6785 14.2185 10.7085 14.1405 10.7528L13.5615 11.0828C13.1745 11.304 12.7898 11.5253 12.4028 11.7443L11.8095 12.0795C11.2148 12.4133 10.6193 12.7455 10.0275 13.083L10.0223 13.086C9.86851 13.173 9.05176 13.6425 8.04001 14.2238L8.03851 14.217L7.98451 14.2515C7.82113 14.3517 7.6483 14.4356 7.46851 14.502L7.46326 14.5043H7.46101L7.40701 14.523C7.11415 14.6239 6.80698 14.677 6.49726 14.6805H6.37726C6.21552 14.676 6.05431 14.6579 5.89501 14.6265L5.85601 14.6182L5.81776 14.6085L5.75401 14.5935C5.64825 14.5662 5.54364 14.5337 5.44051 14.496L5.40301 14.4825L5.36476 14.4675L5.33026 14.4555C4.26901 14.0265 3.57001 13.0192 3.57001 11.8155V11.7645L3.57451 11.6625V11.6137H3.57826L3.58126 11.5725C3.62501 11.0734 3.79886 10.5944 4.08549 10.1834C4.37211 9.77244 4.76148 9.44379 5.21476 9.23025L5.26126 9.20775C5.63112 9.04188 6.02573 8.95487 6.42451 8.95125H6.44326L6.46201 8.9505H6.50701C6.9549 8.95702 7.3952 9.06721 7.79338 9.27241C8.19155 9.47762 8.53679 9.77226 8.80201 10.1332L8.82451 10.158C8.87326 10.2157 8.91526 10.2803 8.94601 10.35L8.97076 10.3897L8.99401 10.431L8.98051 10.4377L8.98951 10.4662C9.00845 10.5353 9.01806 10.6071 9.01801 10.6793V10.7017C9.01098 10.9124 8.92214 11.112 8.77035 11.2582C8.61855 11.4044 8.41575 11.4856 8.20501 11.4847H8.17651C8.05052 11.4826 7.9266 11.4489 7.81391 11.3861C7.70122 11.3234 7.60265 11.2333 7.52551 11.1225L7.51726 11.1255L7.49926 11.0992C7.29831 10.8223 7.01156 10.6388 6.69526 10.5848L6.65776 10.5772C6.5929 10.5672 6.52749 10.5622 6.46201 10.5623H6.43276C6.13898 10.5683 5.85651 10.6766 5.63403 10.8685C5.41155 11.0605 5.26301 11.324 5.21401 11.6137L5.20876 11.6542C5.20532 11.6819 5.20282 11.7097 5.20126 11.7375L5.19976 11.8778L5.20126 11.9055C5.22568 12.2226 5.36913 12.5188 5.60284 12.7345C5.83654 12.9503 6.14319 13.0697 6.46126 13.0687H6.50401C6.62679 13.064 6.74853 13.0418 6.86626 13.0028L6.87151 13.0005L6.87676 12.9982C7.10626 12.9007 11.601 10.3988 11.8695 10.2472L11.8628 10.2443C11.7165 10.1813 10.4753 9.798 9.96976 9.53925L9.89626 9.5025C9.19908 9.14476 8.56499 8.67559 8.01901 8.1135L7.96201 8.05275C7.51139 7.58151 7.12191 7.04285 6.80476 6.45225L6.79576 6.435C6.72451 6.3105 6.63076 6.252 6.47026 6.25425H6.45676L5.97226 6.25575H5.50501L5.48026 6.2565H5.19526V7.48125C5.18843 7.68843 5.10109 7.88479 4.95181 8.02861C4.80252 8.17244 4.60305 8.25239 4.39576 8.2515H4.34851C4.14125 8.24642 3.94415 8.16065 3.79918 8.01245C3.6542 7.86425 3.57278 7.66532 3.57226 7.458V1.875H20.427ZM18.8025 3.48375H5.19526V4.6905H5.21926V4.69275H7.51351C7.74901 4.69425 7.74901 4.70775 7.84651 4.95525L7.86901 5.01375C8.30776 6.10275 8.96626 7.02075 9.94876 7.7055L10.0148 7.7505C10.449 8.03807 10.917 8.27107 11.4083 8.44425L11.4728 8.4675C12.1703 8.7105 12.8828 8.78175 13.6118 8.745L13.6838 8.74125C14.1635 8.71196 14.638 8.61545 15.096 8.454L15.177 8.424C15.5535 8.28675 15.912 8.124 16.2563 7.91925L16.32 7.881C16.7336 7.62242 17.1159 7.30639 17.4578 6.9405L17.505 6.891C17.8454 6.53371 18.1339 6.11977 18.36 5.664L18.405 5.5725C18.537 5.2995 18.6675 5.031 18.7995 4.7325V4.71225L18.804 3.48375H18.8025ZM13.248 4.7475H13.4438C15.0083 4.74975 16.5143 4.76475 16.644 4.79625L16.629 4.84875C16.4854 5.3132 16.2478 5.73478 15.9345 6.081L15.9008 6.11925C15.5904 6.47094 15.2135 6.75775 14.7918 6.96319C14.3702 7.16862 13.912 7.28861 13.4438 7.31625L13.3913 7.31925C11.6513 7.41525 10.0853 6.17175 9.81376 4.79625C9.91126 4.76775 11.2125 4.752 12.6533 4.749H12.9008L13.0485 4.74825L13.248 4.7475Z" fill="#F59E0B"/>
</svg>
