<svg width="24" height="24" viewBox="0 0 24 24" fill="none" xmlns="http://www.w3.org/2000/svg">
<g clip-path="url(#clip0_3372_3106)">
<path d="M9.757 19.818H6.751V13.936C6.751 12.3487 6.172 11.555 5.014 11.555C4.43533 11.555 3.956 11.776 3.576 12.218C3.20267 12.6593 3.016 13.232 3.016 13.936V19.818H0V4.533H3.016V11.041H3.053C3.84433 9.83967 4.909 9.23901 6.247 9.23901C8.587 9.23901 9.757 10.652 9.757 13.478V19.818Z" fill="#60A5FA"/>
<path d="M13.073 11.448V13.448H11.073V15.448H13.073V17.448H15.073V15.448H17.073V13.448H15.073V11.448H13.073ZM20.073 11.448V13.448H18.073V15.448H20.073V17.448H22.073V15.448H24.073V13.448H22.073V11.448H20.073Z" fill="#60A5FA"/>
</g>
<defs>
<clipPath id="clip0_3372_3106">
<rect width="24" height="24" fill="white"/>
</clipPath>
</defs>
</svg>
