<svg width="24" height="25" viewBox="0 0 24 25" fill="none" xmlns="http://www.w3.org/2000/svg">
<path fill-rule="evenodd" clip-rule="evenodd" d="M11.3571 2.39456H11.371L11.3833 2.39472H11.4541L11.4665 2.39524H11.468L11.4804 2.39576H11.4817L11.4942 2.39629H11.4952L11.5077 2.39681H11.5092L11.5212 2.39733H11.5228L11.5348 2.39785H11.5358L11.5483 2.39838H11.5498L11.5623 2.39942H11.5638L11.5758 2.40046H11.5768L11.5888 2.40151H11.5903L11.6028 2.40255H11.6038L11.6159 2.4036H11.6174L11.6299 2.40464H11.6314L11.6439 2.40569H11.6454L11.6579 2.40673H11.6594L11.6714 2.40778H11.6729L11.6849 2.40882H11.6864L11.699 2.40987H11.7005L11.713 2.41143H11.7145L11.727 2.413H11.728L11.74 2.41457H11.7415L11.7535 2.41614H11.755L11.7675 2.4177H11.769L11.7816 2.41927H11.7826L11.7946 2.42084H11.7961L11.8086 2.4224H11.8101L11.8221 2.42449L11.8236 2.42502L11.8361 2.4271H11.8376L11.8496 2.42919H11.8506L11.8632 2.43128H11.8647L11.8767 2.43337H11.8782L11.8902 2.43546H11.8912L11.9037 2.43755H11.9052L11.9172 2.43964L11.9187 2.44016L11.9307 2.44225L11.9322 2.44278L11.9443 2.44539H11.9458L11.9578 2.44748H11.9593L11.9713 2.45009H11.9728L11.9853 2.4527H11.9863L11.9983 2.45531H11.9998L12.0118 2.45792H12.0128L12.0254 2.46054L12.0269 2.46106L12.0394 2.46367H12.0404L12.0524 2.4668L12.0539 2.46733L12.0659 2.47046H12.0674L12.0799 2.4736L12.0809 2.47412L12.0929 2.47673L12.0944 2.47725L12.1064 2.47986L12.1074 2.48039L12.1195 2.48352H12.121L12.133 2.48665L12.1345 2.48718L12.1465 2.49031L12.1475 2.49083L12.16 2.49397L12.161 2.49449L12.173 2.49762L12.1745 2.49815L12.1865 2.50128H12.1875L12.1996 2.50494H12.2011L12.2136 2.50807L12.2151 2.50859L12.2271 2.51173H12.2286L12.2406 2.51538L12.2421 2.51591L12.2541 2.51956L12.2556 2.52009L12.2676 2.52374L12.2691 2.52426L12.2812 2.52792L12.2822 2.52844L12.2942 2.5321L12.2957 2.53262L12.3077 2.53628L12.3092 2.5368L12.3212 2.54046L12.3227 2.54098L12.3347 2.54516L12.3357 2.54568L12.3477 2.54986H12.3492L12.3613 2.55404H12.3628L12.3748 2.55822L12.3763 2.55874L12.3883 2.56292L12.3898 2.56344L12.4018 2.56762L12.4028 2.56814L12.4148 2.57232L12.4163 2.57284L12.4283 2.57702L12.4293 2.57755L12.4413 2.58172L12.4423 2.58225L12.4539 2.58643L12.4554 2.58695L12.4669 2.59113L12.4684 2.59165L12.4799 2.59635L12.4814 2.59687L12.4934 2.60157L12.4949 2.6021L12.5064 2.6068L12.5074 2.60732L12.5194 2.6115L12.5204 2.61202L12.5325 2.61672L12.534 2.61724L12.546 2.62195L12.5475 2.62247L12.559 2.62717L12.5605 2.62769L12.572 2.63292L12.573 2.63344L12.585 2.63814L12.5865 2.63866L12.598 2.64388L12.5995 2.64441L12.6115 2.64963L12.6131 2.65015L12.6251 2.65538L12.6261 2.6559L12.6381 2.66112L12.6391 2.66165L12.6506 2.66687L12.6516 2.66739L12.6631 2.67261L12.6641 2.67314L12.6761 2.67836L12.6771 2.67888L12.6886 2.68411L12.6901 2.68463L12.7017 2.68985L12.7032 2.69038L12.7147 2.6956L12.7157 2.69612L12.7272 2.70187L12.7287 2.70239L12.7402 2.70814L12.7417 2.70866L12.7532 2.7144L12.7542 2.71493L12.7657 2.72067L12.7667 2.72119L12.7782 2.72694L12.7797 2.72746L12.7913 2.73321L12.7928 2.73373L12.8043 2.73948L12.8058 2.74L12.8173 2.74575L12.8183 2.74627L12.8298 2.75254L12.8308 2.75358L12.8423 2.75933L12.8433 2.75985L12.8543 2.76612L12.8558 2.76664L12.8674 2.77239L12.8684 2.77291L12.8799 2.77918L12.8814 2.7797L12.8924 2.78597L12.8939 2.78701L12.9054 2.79328L12.9069 2.7938L12.9184 2.80007L12.9194 2.80059L12.9304 2.80686L12.9319 2.80791L12.9434 2.81417L12.9444 2.81522L12.9555 2.82201L12.9565 2.82305L12.9675 2.82985L12.969 2.83037L12.98 2.83716L12.981 2.83768L12.992 2.84447L12.993 2.84552L13.004 2.85231L13.0055 2.85335L13.016 2.86014H13.017L18.6888 6.3375L18.6983 6.34325L18.6993 6.34429L18.7088 6.35004L18.7103 6.35056L18.7193 6.35683L18.7203 6.35787L18.7293 6.36362L18.7303 6.36466L18.7394 6.37041L18.7404 6.37093L18.7494 6.37668L18.7504 6.3772L18.7594 6.38295L18.7604 6.38347L18.7694 6.38922L18.7709 6.38974L18.7799 6.39601L18.7809 6.39653L18.7899 6.4028L18.7914 6.40332L18.8004 6.40907L18.8014 6.40959L18.8104 6.41586L18.8114 6.4169L18.8204 6.42317L18.8214 6.42421L18.83 6.42996L18.8315 6.43048L18.8405 6.43675L18.8415 6.43727L18.8505 6.44354L18.8515 6.44406L18.86 6.45033L18.861 6.45085L18.8695 6.45712L18.8705 6.45764L18.879 6.46391L18.88 6.46496L18.8885 6.47123L18.8895 6.47175L18.898 6.47854L18.8995 6.47958L18.9081 6.48585L18.9091 6.48637L18.9176 6.49264L18.9186 6.49317L18.9271 6.49943L18.9281 6.50048L18.9366 6.50675L18.9376 6.50727L18.9461 6.51354L18.9471 6.51458L18.9556 6.52085L18.9566 6.5219L18.9651 6.52869L18.9666 6.52973L18.9746 6.53652L18.9761 6.53757L18.9846 6.54436L18.9861 6.54488L18.9947 6.55167L18.9957 6.55271L19.0042 6.55951L19.0052 6.56055L19.0132 6.56734L19.0147 6.56839L19.0232 6.5757L19.0247 6.57727L19.0407 6.59085L19.0427 6.59241L19.0587 6.60652L19.0607 6.60808L19.0773 6.62219L19.0793 6.62376L19.0958 6.63786L19.0978 6.63943L19.1138 6.65353L19.1158 6.65562L19.1318 6.66972L19.1338 6.67129L19.1493 6.68592L19.1513 6.68748L19.1669 6.70211L19.1689 6.70368L19.1844 6.71883L19.1864 6.72039L19.2014 6.73502L19.2034 6.73659L19.2189 6.75173L19.2209 6.75382L19.2359 6.76897L19.2379 6.77106L19.253 6.78621L19.255 6.7883L19.2695 6.80345L19.2715 6.80554L19.286 6.82121L19.288 6.8233L19.3025 6.83897L19.304 6.84106L19.3185 6.85673L19.3205 6.85882L19.3346 6.87449L19.3366 6.87658L19.3506 6.89225L19.3526 6.89434L19.3666 6.91001L19.3686 6.9121L19.3826 6.92829L19.3846 6.93038L19.3981 6.9471L19.3996 6.94919L19.4137 6.96538L19.4157 6.96747L19.4292 6.98419L19.4312 6.98627L19.4447 7.00299L19.4462 7.00508L19.4597 7.0218L19.4617 7.02388L19.4747 7.0406L19.4762 7.04269L19.4892 7.05941L19.4912 7.06149L19.5043 7.07873L19.5058 7.08082L19.5183 7.09806L19.5198 7.10015L19.5323 7.11739L19.5338 7.11948L19.5463 7.13671L19.5478 7.13933L19.5603 7.15709L19.5618 7.15918L19.5743 7.17641L19.5758 7.17903L19.5879 7.19679L19.5894 7.19888L19.6014 7.21664L19.6029 7.21873L19.6149 7.23649L19.6164 7.2391L19.6279 7.25686L19.6294 7.25947L19.6409 7.27775L19.6424 7.28036L19.6534 7.29812L19.6549 7.30021L19.666 7.31797L19.6675 7.32006L19.679 7.33835L19.6805 7.34044L19.6915 7.35872L19.693 7.36133L19.7035 7.37961L19.705 7.38222L19.716 7.40051L19.7175 7.40312L19.728 7.4214L19.7295 7.42401L19.74 7.44282L19.7415 7.44491L19.7516 7.46371L19.7531 7.46632L19.7631 7.48513L19.7646 7.48774L19.7746 7.50655L19.7761 7.50916L19.7861 7.52796L19.7871 7.53058L19.7971 7.5499L19.7981 7.55251L19.8076 7.57184L19.8086 7.57445L19.8181 7.59378L19.8196 7.59587L19.8286 7.61572L19.8296 7.61833L19.8392 7.63766L19.8402 7.64027L19.8492 7.6596L19.8507 7.66221L19.8592 7.68206L19.8602 7.68467L19.8687 7.70452L19.8697 7.70713L19.8782 7.72698L19.8792 7.72959L19.8877 7.74944L19.8887 7.75206L19.8967 7.77191L19.8977 7.77452L19.9057 7.79437L19.9067 7.79698L19.9142 7.81735L19.9153 7.81996L19.9228 7.83981L19.9238 7.84242L19.9313 7.8628L19.9323 7.86541L19.9398 7.88578L19.9408 7.88839L19.9483 7.90876L19.9493 7.91138L19.9563 7.93175L19.9573 7.93436L19.9638 7.95473L19.9648 7.95734L19.9713 7.97772L19.9723 7.98033L19.9788 8.0007L19.9798 8.00331L19.9863 8.02421L19.9868 8.02682L19.9928 8.04719L19.9938 8.0498L19.9999 8.0707L20.0004 8.07331L20.0064 8.0942L20.0074 8.09681L20.0134 8.11771L20.0144 8.12032L20.0199 8.14122L20.0209 8.14383L20.0264 8.16472L20.0269 8.16733L20.0319 8.18823L20.0329 8.19136L20.0384 8.21278L20.0389 8.21539L20.0439 8.23681L20.0449 8.23942L20.0494 8.26084L20.0504 8.26345L20.0554 8.28487L20.0559 8.288L20.0604 8.30942L20.0609 8.31203L20.0654 8.33344L20.0659 8.33606L20.0699 8.35747L20.0704 8.36009L20.0744 8.3815L20.0749 8.38411L20.0789 8.40553L20.0794 8.40814L20.083 8.43008L20.0835 8.43269L20.087 8.45411L20.0875 8.45724L20.091 8.47918L20.0915 8.48232L20.0945 8.50426L20.095 8.50739L20.098 8.52881V8.5309L20.0995 8.54239V8.54343L20.1005 8.5544V8.55597L20.102 8.56694V8.56798L20.1035 8.57895V8.58052L20.105 8.59149L20.1055 8.59306L20.107 8.60403V8.60559L20.108 8.61656L20.1085 8.61761L20.1095 8.62858L20.11 8.63015L20.111 8.64112V8.64268L20.112 8.65365L20.1125 8.65522L20.1135 8.66619L20.114 8.66776L20.115 8.67873V8.68029L20.116 8.69126V8.69283L20.117 8.7038V8.70537L20.118 8.71634V8.7179L20.119 8.72887V8.73044L20.1195 8.74141V8.74298L20.12 8.75447V8.75603L20.121 8.76753V8.76857L20.1215 8.77954V8.78111L20.122 8.79208V8.79364L20.1225 8.80462V8.80618L20.123 8.81715V8.81872L20.1235 8.83021V8.83178L20.124 8.84275V8.84431L20.1245 8.85528V8.85633L20.125 8.8673V16.1595L20.1245 16.1715V16.1866L20.124 16.1986V16.2002L20.1235 16.2117V16.2127L20.123 16.2248V16.2263L20.1225 16.2378V16.2389L20.122 16.2504V16.2519L20.1215 16.2634L20.121 16.265L20.1205 16.2765V16.278L20.12 16.2895V16.2906L20.1195 16.3026V16.3042L20.1185 16.3162V16.3172L20.1175 16.3292V16.3308L20.1165 16.3423V16.3439L20.116 16.3553V16.3569L20.115 16.3684V16.37L20.114 16.3815V16.383L20.113 16.3945V16.3961L20.112 16.4076L20.1115 16.4086L20.1105 16.4206L20.11 16.4222L20.109 16.4337V16.4353L20.108 16.4468L20.1075 16.4483L20.106 16.4598V16.4614L20.1045 16.4729V16.4739L20.103 16.4854V16.487L20.1015 16.4985L20.101 16.5L20.0995 16.5121L20.099 16.5136L20.0975 16.5251L20.097 16.5267L20.0955 16.5382V16.5397L20.094 16.5512V16.5528L20.0925 16.5643L20.092 16.5659L20.0905 16.5774L20.09 16.5789L20.088 16.5904V16.5915L20.0865 16.6029V16.604L20.0845 16.6155L20.084 16.6171L20.0824 16.6285L20.0819 16.6301L20.0804 16.6416V16.6426L20.0784 16.6541V16.6552L20.0764 16.6667V16.6677L20.0744 16.6792V16.6808L20.0724 16.6917L20.0719 16.6933L20.0699 16.7043L20.0694 16.7059L20.0674 16.7173L20.0669 16.7189L20.0644 16.7304V16.7314L20.0619 16.7429V16.744L20.0599 16.755V16.7565L20.0574 16.768V16.7691L20.0554 16.7806L20.0549 16.7816L20.0524 16.7926V16.7936L20.0499 16.8046V16.8061L20.0474 16.8171L20.0469 16.8187L20.0444 16.8297L20.0439 16.8312L20.0414 16.8422L20.0409 16.8432L20.0384 16.8542L20.0379 16.8552L20.0354 16.8662L20.0349 16.8678L20.0319 16.8788L20.0314 16.8803L20.0289 16.8913L20.0284 16.8929L20.0254 16.9038V16.9054L20.0224 16.9169L20.0219 16.9185L20.0189 16.9294V16.931L20.0159 16.942L20.0154 16.9435L20.0124 16.9545L20.0119 16.9561L20.0089 16.9676L20.0084 16.9686L20.0054 16.9796L20.0049 16.9806L20.0019 16.9916L20.0014 16.9932L19.9978 17.0041L19.9973 17.0057L19.9943 17.0167L19.9938 17.0177L19.9908 17.0287L19.9903 17.0302L19.9873 17.0412L19.9868 17.0423L19.9833 17.0532L19.9828 17.0548L19.9793 17.0658L19.9788 17.0673L19.9753 17.0783L19.9748 17.0799L19.9713 17.0908L19.9708 17.0924L19.9673 17.1034L19.9668 17.1044L19.9633 17.1154L19.9628 17.117L19.9593 17.1279L19.9588 17.1295L19.9553 17.1405L19.9548 17.1415L19.9513 17.1525L19.9508 17.154L19.9473 17.165L19.9468 17.1666L19.9428 17.177L19.9423 17.1786L19.9388 17.189L19.9383 17.1906L19.9348 17.2011L19.9343 17.2026L19.9308 17.2136L19.9303 17.2152L19.9263 17.2261L19.9258 17.2277L19.9218 17.2381L19.9213 17.2397L19.9173 17.2502L19.9168 17.2517L19.9127 17.2622L19.9122 17.2637L19.9082 17.2742L19.9077 17.2757L19.9037 17.2862L19.9032 17.2878L19.8992 17.2982L19.8987 17.2993L19.8942 17.3097L19.8937 17.3113L19.8892 17.3222L19.8887 17.3238L19.8847 17.3343L19.8842 17.3358L19.8797 17.3463L19.8792 17.3478L19.8747 17.3583L19.8742 17.3598L19.8697 17.3703L19.8692 17.3713L19.8647 17.3818L19.8642 17.3834L19.8597 17.3938L19.8592 17.3948L19.8547 17.4053L19.8542 17.4063L19.8497 17.4168L19.8492 17.4178L19.8447 17.4283L19.8442 17.4293L19.8392 17.4398L19.8387 17.4408L19.8337 17.4507L19.8332 17.4523L19.8286 17.4628L19.8281 17.4638L19.8231 17.4737L19.8226 17.4753L19.8181 17.4857L19.8176 17.4868L19.8126 17.4972L19.8121 17.4988L19.8071 17.5092L19.8066 17.5103L19.8016 17.5202L19.8011 17.5213L19.7961 17.5317L19.7956 17.5333L19.7906 17.5437L19.7901 17.5453L19.7851 17.5557L19.7841 17.5573L19.7791 17.5672L19.7786 17.5683L19.7736 17.5787L19.7731 17.5803L19.7681 17.5907L19.7676 17.5923L19.7621 17.6022L19.7611 17.6033L19.7556 17.6132L19.7551 17.6142L19.7496 17.6242L19.7491 17.6252L19.7435 17.6351L19.743 17.6362L19.7375 17.6461L19.737 17.6471L19.7315 17.6571L19.731 17.6586L19.7255 17.6686L19.725 17.6696L19.7195 17.6795L19.719 17.6811L19.7135 17.691L19.7125 17.6921L19.707 17.702L19.706 17.703L19.7005 17.713L19.7 17.714L19.6945 17.7239L19.694 17.7255L19.688 17.7354L19.6875 17.7365L19.682 17.7459L19.6815 17.7474L19.676 17.7568L19.675 17.7579L19.669 17.7678L19.6685 17.7694L19.6624 17.7788L19.6614 17.7798L19.6554 17.7892L19.6549 17.7903L19.6489 17.8002L19.6479 17.8018L19.6419 17.8112L19.6409 17.8122L19.6349 17.8216L19.6344 17.8227L19.6284 17.8326L19.6279 17.8336L19.6219 17.843L19.6209 17.8441L19.6144 17.8535L19.6139 17.8545L19.6079 17.8639L19.6074 17.865L19.6009 17.8744L19.6004 17.8754L19.5944 17.8848L19.5934 17.8859L19.5874 17.8953L19.5864 17.8963L19.5799 17.9057L19.5788 17.9068L19.5728 17.9162L19.5723 17.9172L19.5658 17.9266L19.5648 17.9282L19.5588 17.9376L19.5578 17.9386L19.5513 17.948L19.5503 17.9491L19.5438 17.9585L19.5428 17.9595L19.5363 17.9689L19.5353 17.97L19.5288 17.9794L19.5283 17.9804L19.5218 17.9893L19.5208 17.9903L19.5143 17.9992L19.5138 18.0003L19.5068 18.0091L19.5058 18.0102L19.4993 18.0191L19.4988 18.0201L19.4922 18.0295L19.4912 18.0306L19.4842 18.04L19.4832 18.041L19.4762 18.0499L19.4752 18.0509L19.4682 18.0598L19.4677 18.0609L19.4607 18.0697L19.4597 18.0708L19.4527 18.0797L19.4517 18.0807L19.4447 18.0896L19.4437 18.0906L19.4367 18.0995L19.4357 18.1006L19.4287 18.1094L19.4282 18.1105L19.4212 18.1194L19.4202 18.1204L19.4127 18.1293L19.4117 18.1303L19.4046 18.1392L19.4036 18.1403L19.3966 18.1491L19.3956 18.1502L19.3886 18.1591L19.3876 18.1601L19.3806 18.169L19.3796 18.17L19.3726 18.1784L19.3716 18.1794L19.3641 18.1883L19.3631 18.1894L19.3561 18.1982L19.3551 18.1993L19.3476 18.2082L19.3466 18.2092L19.3396 18.2181L19.3386 18.2191L19.3311 18.2275L19.3301 18.2285L19.3225 18.2369L19.3215 18.2379L19.314 18.2463L19.313 18.2473L19.3055 18.2557L19.3045 18.2567L19.297 18.2651L19.296 18.2661L19.2885 18.2745L19.2875 18.2755L19.28 18.2839L19.279 18.285L19.2715 18.2933L19.2705 18.2944L19.2625 18.3027L19.2615 18.3038L19.254 18.3121L19.253 18.3132L19.2455 18.321L19.2445 18.322L19.2364 18.3304L19.2349 18.3314L19.2269 18.3398L19.2259 18.3408L19.2179 18.3487L19.2169 18.3497L19.2089 18.3581L19.2079 18.3591L19.1999 18.367L19.1989 18.368L19.1909 18.3758L19.1899 18.3769L19.1819 18.3847L19.1809 18.3858L19.1729 18.3936L19.1719 18.3946L19.1639 18.4025L19.1629 18.4035L19.1548 18.4114L19.1538 18.4124L19.1453 18.4202L19.1443 18.4208L19.1363 18.4286L19.1353 18.4296L19.1268 18.4375L19.1258 18.4385L19.1173 18.4464L19.1163 18.4469L19.1078 18.4547L19.1068 18.4558L19.0983 18.4631L19.0968 18.4641L19.0883 18.4714L19.0873 18.4725L19.0788 18.4803L19.0778 18.4814L19.0692 18.4892L19.0682 18.4902L19.0597 18.4981L19.0587 18.4991L19.0502 18.5064L19.0492 18.5075L19.0402 18.5148L19.0392 18.5153L19.0307 18.5226L19.0297 18.5237L19.0212 18.531L19.0197 18.532L19.0112 18.5393L19.0102 18.5404L19.0017 18.5477L19.0007 18.5487L18.9922 18.5561L18.9911 18.5571L18.9821 18.5644L18.9811 18.5655L18.9726 18.5723L18.9716 18.5733L18.9626 18.5806L18.9616 18.5817L18.9526 18.589L18.9516 18.59L18.9426 18.5973L18.9416 18.5984L18.9326 18.6057L18.9316 18.6062L18.9226 18.613L18.9216 18.6135L18.9126 18.6203L18.9116 18.6208L18.9025 18.6276L18.901 18.6281L18.892 18.6349L18.891 18.636L18.882 18.6428L18.881 18.6438L18.872 18.6506L18.871 18.6516L18.862 18.6584L18.8605 18.6595L18.8515 18.6663L18.8505 18.6668L18.841 18.6736L18.8395 18.6741L18.83 18.6809L18.829 18.6819L18.8194 18.6887L18.8184 18.6898L18.8089 18.696L18.8079 18.6971L18.7984 18.7039L18.7974 18.7049L18.7884 18.7117L18.7869 18.7128L18.7774 18.719L18.7764 18.7196L18.7669 18.7258L18.7654 18.7263L18.7559 18.7326L18.7549 18.7337L18.7454 18.7399L18.7444 18.741L18.7348 18.7472L18.7338 18.7478L18.7243 18.754L18.7228 18.7546L18.7133 18.7608L18.7123 18.7619L18.7028 18.7681L18.7013 18.7687L18.6918 18.7749L18.6903 18.776L18.6808 18.7822L18.6793 18.7833L18.6693 18.7896L18.6683 18.7906L18.6588 18.7963L18.6573 18.7969L18.6477 18.8026L18.6467 18.8037L18.6367 18.8099L18.6352 18.811L18.6252 18.8167L18.6242 18.8178L18.6147 18.8235L18.6132 18.824L18.6032 18.8298L18.6017 18.8303L18.5917 18.836L18.5907 18.8366L18.5812 18.8423L18.5807 18.8428L12.7772 22.2173H12.7767L12.7677 22.223L12.7662 22.2236L12.7567 22.2293L12.7552 22.2303L12.7457 22.2356L12.7442 22.2361L12.7347 22.2413L12.7337 22.2418L12.7242 22.2471L12.7227 22.2476L12.7132 22.2528L12.7117 22.2533L12.7022 22.2586L12.7007 22.2591L12.6911 22.2643L12.6901 22.2648L12.6806 22.27L12.6796 22.2706L12.6701 22.2753L12.6691 22.2758L12.6591 22.281L12.6581 22.2821L12.6486 22.2873L12.6476 22.2878L12.6381 22.2925L12.6371 22.293L12.6276 22.2977L12.6266 22.2983L12.6171 22.3035L12.6161 22.304L12.606 22.3087L12.605 22.3092L12.5955 22.3139L12.5945 22.3144L12.5845 22.3191L12.5835 22.3197L12.574 22.3244L12.573 22.3249L12.5635 22.3296L12.562 22.3306L12.552 22.3353L12.551 22.3359L12.541 22.34L12.54 22.3406L12.53 22.3453L12.529 22.3463L12.5189 22.351L12.5174 22.3515L12.5079 22.3557L12.5069 22.3562L12.4969 22.3609L12.4959 22.3615L12.4859 22.3656L12.4849 22.3662L12.4749 22.3703L12.4739 22.3709L12.4639 22.375L12.4624 22.3756L12.4524 22.3797L12.4509 22.3803L12.4408 22.3844L12.4393 22.385L12.4298 22.3891L12.4288 22.3897L12.4188 22.3933L12.4178 22.3938L12.4078 22.398L12.4063 22.3985L12.3963 22.4027L12.3948 22.4032L12.3848 22.4074L12.3833 22.4079L12.3733 22.4116L12.3718 22.4121L12.3618 22.4163L12.3602 22.4168L12.3502 22.4205L12.3492 22.421L12.3392 22.4247L12.3377 22.4252L12.3277 22.4288L12.3262 22.4294L12.3162 22.433L12.3147 22.4335L12.3047 22.4372L12.3037 22.4377L12.2937 22.4414L12.2837 22.445L12.2822 22.4456L12.2716 22.4487L12.2701 22.4492L12.2601 22.4524L12.2591 22.4529L12.2491 22.4565L12.2481 22.4571L12.2376 22.4602L12.2361 22.4607L12.2261 22.4638L12.2246 22.4644L12.2146 22.4675L12.2131 22.468L12.2026 22.4717L12.2006 22.4722L12.1805 22.4785L12.178 22.4795L12.1575 22.4858L12.155 22.4863L12.1345 22.4926L12.132 22.4931L12.1115 22.4988L12.109 22.4999L12.0884 22.5056L12.0859 22.5062L12.0654 22.5119L12.0624 22.5124L12.0419 22.5176L12.0394 22.5182L12.0188 22.5234L12.0158 22.5239L11.9953 22.5291L11.9928 22.5297L11.9723 22.5344L11.9698 22.5349L11.9488 22.5396L11.9458 22.5401L11.9247 22.5448L11.9222 22.5453L11.9012 22.5495L11.8987 22.55L11.8782 22.5537L11.8757 22.5542L11.8551 22.5584L11.8526 22.5589L11.8316 22.5626L11.8291 22.5631L11.8081 22.5667L11.8056 22.5673L11.7846 22.5704L11.7821 22.5709L11.761 22.5741L11.7585 22.5746L11.7375 22.5777L11.735 22.5782L11.714 22.5814L11.711 22.5819L11.69 22.5845L11.6874 22.585L11.6664 22.5876L11.6639 22.5882L11.6429 22.5908L11.6219 22.5929H11.6194L11.5983 22.5944L11.5958 22.595L11.5748 22.5965H11.5723L11.5513 22.5981H11.5488L11.5278 22.5997L11.5248 22.6002L11.5037 22.6017H11.5012L11.4802 22.6028H11.4777L11.4567 22.6038H11.4537L11.4326 22.6044H11.4301L11.4091 22.6049H11.4066L11.3856 22.6054H11.3115L11.2905 22.6049L11.2695 22.6044H11.2664L11.2454 22.6038H11.245L11.2239 22.6028L11.2214 22.6023L11.2004 22.6012H11.1979L11.1769 22.6002L11.1744 22.5997L11.1534 22.5986H11.1509L11.1298 22.597L11.1273 22.5965L11.1063 22.5944L11.1033 22.5939L11.0823 22.5918L11.0793 22.5913L11.0582 22.5892L11.0557 22.5887L11.0347 22.5866H11.0322L11.0112 22.5845L11.0087 22.584L10.9877 22.5814H10.9847L10.9636 22.5788L10.9606 22.5782L10.9396 22.5751L10.9371 22.5746L10.9161 22.5714L10.9136 22.5709L10.8926 22.5678L10.89 22.5673L10.869 22.5641L10.8665 22.5636L10.846 22.56H10.8445L10.8235 22.5558L10.8208 22.5553L10.8002 22.5511L10.7977 22.5506L10.7772 22.5464L10.7747 22.5459L10.7542 22.5417L10.7512 22.5412L10.7304 22.537L10.7279 22.5365L10.7073 22.5317L10.7043 22.5307L10.6838 22.526L10.6813 22.5255L10.6608 22.5203L10.658 22.5192L10.6374 22.514L10.6349 22.5129L10.6144 22.5072L10.6119 22.5067L10.5914 22.5009L10.5889 22.4999L10.5684 22.4941L10.5659 22.4931L10.5453 22.4873L10.5428 22.4863L10.5223 22.48L10.5193 22.479L10.4988 22.4727L10.4963 22.4717L10.4758 22.4654L10.4733 22.4644L10.4527 22.4581L10.4502 22.4576L10.4303 22.4508L10.4283 22.4503L10.4178 22.4466H10.4164L10.4064 22.4435L10.4049 22.4429L10.3949 22.4393L10.3934 22.4388L10.3834 22.4351L10.3819 22.4346L10.3719 22.4309L10.3704 22.4304L10.3604 22.4268L10.3589 22.4262L10.3489 22.4226L10.3479 22.4221L10.3378 22.4184L10.3368 22.4179L10.3268 22.4142L10.3258 22.4137L10.3158 22.4095L10.3143 22.409L10.3043 22.4048L10.3028 22.4043L10.2928 22.4001L10.2918 22.3996L10.2818 22.3954L10.2803 22.3949L10.2703 22.3907L10.2693 22.3902L10.2592 22.386L10.2577 22.3855L10.2477 22.3813L10.2467 22.3808L10.2367 22.3766L10.2357 22.3761L10.2257 22.3719L10.2242 22.3714L10.2142 22.3672L10.2127 22.3667L10.2027 22.3625L10.2012 22.362L10.1912 22.3578L10.1897 22.3573L10.1797 22.3531L10.1787 22.3526L10.1686 22.3479L10.1671 22.3474L10.1576 22.3427L10.1566 22.3421L10.1466 22.3374L10.1456 22.3369L10.1356 22.3322L10.1346 22.3317L10.1246 22.3275L10.1231 22.327L10.1136 22.3223L10.1121 22.3218L10.1021 22.3171L10.1006 22.3165L10.091 22.3118L10.09 22.3108L10.0805 22.3061L10.0795 22.3056L10.07 22.3009L10.069 22.3003L10.059 22.2956L10.058 22.2946L10.048 22.2894L10.047 22.2883L10.0375 22.2836L10.036 22.2831L10.026 22.2784L10.025 22.2774L10.0155 22.2721L10.014 22.2716L10.0039 22.2664L10.0029 22.2659L9.99343 22.2606L9.99193 22.2601L9.98242 22.2549L9.98142 22.2544L9.9719 22.2492L9.9704 22.2481L9.96089 22.2429L9.95989 22.2424L9.95038 22.2371L9.94938 22.2366L9.93987 22.2314L9.93836 22.2303L9.92885 22.2251L9.92785 22.2246L9.91834 22.2189L9.91684 22.2178L9.90733 22.2126L9.90583 22.2121L9.89631 22.2068L9.89481 22.2063L9.8853 22.2011L9.8838 22.2006L9.87429 22.1948L9.87279 22.1943L9.86378 22.1886L9.86227 22.188L9.85326 22.1823L9.85276 22.1818L4.60651 18.9865L4.60601 18.986L4.595 18.9792L4.594 18.9786L4.58298 18.9719L4.58148 18.9713L4.56997 18.9645L4.56847 18.964L4.55745 18.9567L4.55645 18.9562L4.54544 18.9489L4.54444 18.9478L4.53343 18.9405L4.53242 18.9395L4.52141 18.9322L4.51991 18.9316L4.5089 18.9248L4.50739 18.9238L4.49638 18.9165L4.49538 18.9154L4.48437 18.9081H4.48692L4.47591 18.9008L4.47441 18.8998L4.46339 18.8925L4.46239 18.8914L4.45138 18.8841L4.44998 18.8831L4.43896 18.8752L4.43746 18.8742L4.42645 18.8663L4.42545 18.8653L4.41443 18.858L4.41343 18.8569L4.40242 18.8491L4.40142 18.8481L4.39041 18.8402L4.3894 18.8392L4.37889 18.8313L4.37739 18.8303L4.36663 18.8225L4.36563 18.8214L4.35511 18.8136L4.35386 18.8125L4.34335 18.8047L4.342 18.8037L4.33149 18.7958L4.33048 18.7953L4.31997 18.7875L4.31897 18.7864L4.30861 18.7786L4.30761 18.7775L4.29729 18.7697L4.29579 18.7692L4.28528 18.7613L4.28428 18.7603L4.27377 18.7519L4.27277 18.7509L4.26225 18.7431L4.26095 18.742L4.25044 18.7337L4.24914 18.7326L4.23913 18.7243L4.23812 18.7232L4.22811 18.7149L4.22711 18.7143L4.2171 18.706L4.2161 18.7049L4.20609 18.6966L4.20508 18.6955L4.19507 18.6872L4.19407 18.6861L4.18406 18.6778L4.18306 18.6767L4.17305 18.6684L4.17205 18.6673L4.16203 18.659L4.16103 18.6579L4.15102 18.649L4.15002 18.6485L4.14001 18.6402L4.13901 18.6391L4.12929 18.6308L4.12829 18.6297L4.11828 18.6208L4.11728 18.6198L4.10727 18.6114L4.10627 18.6104L4.09625 18.6015L4.09525 18.601L4.08544 18.5926L4.08444 18.5916L4.07493 18.5832L4.07393 18.5822L4.06442 18.5733L4.06342 18.5723L4.0539 18.5634L4.0529 18.5623L4.04339 18.5534L4.04239 18.5524L4.03288 18.5435L4.03188 18.5425L4.02237 18.5336L4.02137 18.5326L4.01185 18.5231L4.01085 18.5226L4.00134 18.5137L3.99984 18.5127L3.99058 18.5033L3.98958 18.5023L3.98007 18.4934L3.97907 18.4923L3.96975 18.4829L3.96875 18.4819L3.95974 18.4725L3.95874 18.4714L3.94973 18.462L3.94873 18.461L3.93922 18.4516L3.93822 18.4505L3.92871 18.4411L3.9277 18.4406L3.91869 18.4312L3.91769 18.4302L3.90868 18.4208L3.90768 18.4197L3.89867 18.4103L3.89767 18.4093L3.88866 18.3999L3.88766 18.3988L3.87865 18.3894L3.87764 18.3884L3.86863 18.379L3.86763 18.3779L3.85912 18.3685L3.85812 18.3675L3.84911 18.3581L3.84811 18.357L3.8391 18.3471L3.8381 18.3461L3.82959 18.3361L3.82859 18.3351L3.82008 18.3252L3.81907 18.3241L3.81006 18.3142L3.80906 18.3132L3.80055 18.3032L3.79955 18.3022L3.79104 18.2923L3.79004 18.2912L3.78153 18.2813L3.78053 18.2803L3.77202 18.2703L3.77102 18.2693L3.76251 18.2594L3.76201 18.2583L3.754 18.2484L3.753 18.2473L3.74449 18.2374L3.74348 18.2364L3.73447 18.2259L3.73347 18.2249L3.72496 18.215L3.72396 18.2139L3.71545 18.2035L3.71445 18.2024L3.70644 18.1925L3.70594 18.1914L3.69793 18.1815L3.69693 18.1805L3.68892 18.17L3.68792 18.169L3.67941 18.1585L3.67841 18.1575L3.6704 18.1476L3.6694 18.1465L3.66089 18.1366L3.65988 18.1356L3.65188 18.1256L3.65087 18.1246L3.64286 18.1141L3.64186 18.1131L3.63385 18.1026L3.63285 18.1016L3.62484 18.0912L3.62384 18.0901L3.61583 18.0797L3.61483 18.0786L3.60682 18.0682L3.60632 18.0671L3.59881 18.0567L3.59781 18.0556L3.5903 18.0452L3.5898 18.0441L3.58229 18.0337L3.58129 18.0327L3.57378 18.0217L3.57278 18.0206L3.56527 18.0102L3.56427 18.0091L3.55676 17.9987L3.55626 17.9977L3.54875 17.9867L3.54825 17.9856L3.54074 17.9747L3.54024 17.9736L3.53273 17.9632L3.53223 17.9621L3.52472 17.9517L3.52372 17.9506L3.51621 17.9397L3.51521 17.9386L3.5077 17.9277L3.5067 17.9261L3.49969 17.9151L3.49869 17.9141L3.49168 17.9031L3.49068 17.9021L3.48368 17.8911L3.48267 17.89L3.47567 17.8791L3.47516 17.878L3.46816 17.8671L3.46716 17.8655L3.46015 17.8545L3.45915 17.8535L3.45214 17.8425L3.45114 17.8415L3.44413 17.8305L3.44313 17.8295L3.43612 17.8185L3.43512 17.8174L3.42861 17.8065L3.42811 17.8054L3.4216 17.7945L3.4206 17.7929L3.41359 17.7819L3.41259 17.7803L3.40558 17.7694L3.40508 17.7683L3.39807 17.7568L3.39757 17.7553L3.39106 17.7443L3.39006 17.7433L3.38356 17.7323L3.38255 17.7312L3.37605 17.7198L3.37505 17.7182L3.36854 17.7072L3.36804 17.7062L3.36153 17.6947L3.36103 17.6936L3.35452 17.6827L3.35352 17.6811L3.34701 17.6696L3.34601 17.668L3.3395 17.6566L3.3385 17.655L3.3325 17.6435L3.33149 17.6424L3.32499 17.631L3.32449 17.6299L3.31848 17.6184L3.31798 17.6174L3.31197 17.6059L3.31147 17.6043L3.30546 17.5928L3.30446 17.5913L3.29845 17.5798L3.29795 17.5782L3.29195 17.5662L3.29145 17.5651L3.28544 17.5536L3.28494 17.5521L3.27893 17.5406L3.27843 17.539L3.27242 17.5275L3.27192 17.526L3.26642 17.5139L3.26592 17.5129L3.25991 17.5009L3.25941 17.4993L3.2534 17.4873L3.2524 17.4863L3.24689 17.4742L3.24639 17.4732L3.24089 17.4617L3.24039 17.4601L3.23488 17.4481V17.4487L3.22937 17.4366L3.22837 17.4351L3.22286 17.4231L3.22236 17.4215L3.21686 17.41L3.21636 17.4084L3.21085 17.3964L3.21035 17.3954L3.20484 17.3834L3.20434 17.3823L3.19934 17.3703L3.19884 17.3693L3.19333 17.3572L3.19283 17.3562L3.18732 17.3442L3.18682 17.3431L3.18131 17.3311L3.18081 17.3296L3.17581 17.3175L3.17531 17.3165L3.1698 17.3045L3.1693 17.3029L3.16379 17.2909L3.16329 17.2899L3.15829 17.2778L3.15779 17.2768L3.15278 17.2648L3.15228 17.2632L3.14727 17.2512L3.14677 17.2502L3.14227 17.2381L3.14177 17.2371L3.13676 17.2251L3.13626 17.2235L3.13176 17.211L3.13126 17.2099L3.12625 17.1979L3.12575 17.1964L3.12124 17.1849L3.12074 17.1833L3.11574 17.1708L3.11524 17.1697L3.11073 17.1572L3.11023 17.1556L3.10572 17.1431L3.10522 17.142L3.10072 17.1295L3.10022 17.1279L3.09571 17.1154L3.09521 17.1143L3.09071 17.1018L3.09021 17.1008L3.0862 17.0882L3.0857 17.0867L3.0812 17.0741L3.0807 17.0731L3.07669 17.0605L3.07619 17.059L3.07218 17.0464L3.07168 17.0449L3.06718 17.0323L3.06668 17.0308L3.06267 17.0182L3.06217 17.0172L3.05817 17.0046L3.05767 17.0036L3.05366 16.9911L3.05316 16.9895L3.04916 16.977L3.04866 16.9754L3.04465 16.9629L3.04415 16.9613L3.04015 16.9488L3.03965 16.9472L3.03564 16.9346L3.03519 16.9331L3.03169 16.9206L3.03119 16.9196L3.02718 16.9065L3.02668 16.9049L3.02318 16.8919L3.02268 16.8903L3.01917 16.8778L3.01867 16.8762L3.01517 16.8637L3.01467 16.8621L3.01116 16.849L3.01066 16.8475L3.00716 16.8344L3.00666 16.8334L3.00315 16.8203L3.00265 16.8198L2.99915 16.8067L2.99865 16.8057L2.99564 16.7931L2.99514 16.7921L2.99214 16.7796V16.7785L2.98864 16.7655V16.7639L2.98563 16.7514L2.98513 16.7498L2.98213 16.7372L2.98163 16.7357L2.97862 16.7226H2.97912L2.97612 16.7096L2.97562 16.7085L2.97262 16.6955L2.97212 16.6944L2.96911 16.6814L2.96861 16.6803L2.96561 16.6673L2.96611 16.6667L2.9631 16.6537L2.9626 16.6521L2.9596 16.639L2.9591 16.6375L2.9566 16.6244L2.9561 16.6228L2.95309 16.6098L2.95259 16.6087L2.95009 16.5957L2.94959 16.5941L2.94709 16.5811L2.94659 16.5795L2.94408 16.5664L2.94158 16.5534V16.5518L2.93908 16.5382V16.5367L2.93657 16.5236L2.93607 16.522L2.93307 16.5095V16.5079L2.93057 16.4938L2.93007 16.4923L2.92756 16.4787L2.92706 16.4771L2.92506 16.4641L2.92456 16.4625L2.92256 16.4494V16.4479L2.92055 16.4348V16.4332L2.91855 16.4202L2.91805 16.4186L2.91605 16.4055V16.4061L2.91405 16.393V16.392L2.91204 16.3789V16.3773L2.91004 16.3643V16.3627L2.90804 16.3497V16.3486L2.90654 16.335V16.3335L2.90504 16.3204V16.3194L2.90303 16.3058L2.90253 16.3042L2.90103 16.2912V16.2896L2.89953 16.276L2.89903 16.2744L2.89753 16.2609V16.2593L2.89603 16.2457L2.89552 16.2441L2.89402 16.2306V16.229L2.89252 16.2154L2.89202 16.2144L2.89052 16.2008L2.88952 16.1872V16.1856L2.88802 16.1721L2.88751 16.1705L2.88601 16.1569V16.1553L2.88501 16.1418L2.88451 16.1402L2.88351 16.1266V16.125L2.88251 16.1115V16.1099L2.88151 16.0963L2.88051 16.0827V16.0812L2.87951 16.0676V16.066L2.8785 16.0524V16.0356L2.878 16.022V16.0204L2.8775 16.0068V16.0053L2.877 15.9917L2.8765 15.9901L2.876 15.9765V15.9619L2.8755 15.9483V15.9468L2.875 15.9332V9.32008L2.8755 9.30702V9.29031L2.876 9.27673V9.22867L2.8765 9.21509V9.21404L2.877 9.20046V9.19889L2.8775 9.18531V9.18374L2.878 9.17016V9.16912L2.8785 9.15554V9.15397L2.879 9.14039V9.13882L2.88001 9.12472V9.12315L2.88101 9.10957V9.10852L2.88151 9.09494V9.09338L2.88251 9.07979V9.07823L2.88301 9.06465V9.06308L2.88351 9.0495V9.04793L2.88451 9.03435V9.03278L2.88551 9.0192V9.01763L2.88701 9.00405V9.00249L2.88802 8.9889L2.88852 8.98786L2.88952 8.97428V8.97323L2.89102 8.95965V8.95861L2.89252 8.94502L2.89302 8.94346L2.89452 8.92988V8.92831L2.89603 8.91473V8.91368L2.89753 8.9001V8.89906L2.89903 8.88548L2.89953 8.88391L2.90103 8.87033V8.86876L2.90253 8.8557V8.85413L2.90403 8.84055V8.83899L2.90554 8.8254L2.90604 8.82384L2.90754 8.81078V8.80921L2.90954 8.79563V8.79406L2.91104 8.78048L2.91154 8.77891L2.91305 8.76586L2.91355 8.76429L2.91555 8.75071L2.91605 8.74966L2.91805 8.73608V8.73504L2.92005 8.72145V8.72041L2.92206 8.70735L2.92256 8.70578L2.92456 8.69272V8.69116L2.92806 8.67758L2.92856 8.67601L2.93057 8.66295V8.66138L2.93307 8.64832V8.64728L2.93557 8.63422V8.63318L2.93808 8.61959L2.93858 8.61855L2.94108 8.60549L2.94158 8.60445L2.94408 8.59139L2.94458 8.58982L2.94709 8.57676L2.94759 8.57519L2.95009 8.56213V8.56057L2.95259 8.54751V8.54646L2.9551 8.5334L2.9556 8.53236L2.9581 8.5193L2.9586 8.51826L2.9616 8.5052V8.50363L2.96461 8.49057L2.96511 8.489L2.96761 8.47594L2.96811 8.47438L2.97111 8.46132V8.45975L2.97412 8.44669L2.97462 8.44513L2.97762 8.43207V8.4305L2.98063 8.41744L2.98113 8.4164L2.98413 8.40334V8.40229L2.98713 8.38923L2.98763 8.38767L2.99114 8.37461V8.37356L2.99464 8.3605V8.35946L2.99815 8.3464L2.99865 8.34483L3.00215 8.33177V8.33021L3.00566 8.31715L3.00616 8.31558L3.00966 8.30304L3.01016 8.302L3.01367 8.28894L3.01417 8.28763L3.01767 8.27457L3.01817 8.27301L3.02167 8.26026L3.02218 8.25922L3.02618 8.24616L3.02668 8.24511L3.03018 8.23258L3.03069 8.23153L3.03419 8.21884L3.03469 8.21779L3.03819 8.20484L3.0387 8.20327L3.0427 8.19053L3.0432 8.18896L3.04721 8.17642V8.17538L3.05121 8.16284V8.16127L3.05521 8.14874L3.05572 8.14769L3.05972 8.13516L3.06022 8.13359L3.06423 8.12105L3.06473 8.11949L3.06873 8.10695L3.06923 8.10538L3.07324 8.09284L3.07374 8.0918L3.07824 8.07926L3.07874 8.07822L3.08275 8.06568L3.08325 8.06438L3.08725 8.05184L3.08775 8.0508L3.09226 8.03826L3.09276 8.03721L3.09726 8.02468V8.02363L3.10177 8.0111L3.10227 8.01005L3.10678 7.99751L3.10728 7.99595L3.11178 7.98341L3.11228 7.98237L3.11679 7.96983L3.11729 7.96826L3.12229 7.95625L3.1228 7.9552L3.1278 7.94267L3.1283 7.94162L3.13331 7.92908L3.13381 7.92752L3.13881 7.91498L3.13931 7.91341L3.14432 7.90088L3.14482 7.89931L3.14983 7.88677L3.15033 7.88521L3.15533 7.87267L3.15583 7.8711L3.16084 7.85857L3.16134 7.85726L3.16635 7.84525L3.16685 7.84368L3.17185 7.83166L3.17235 7.8301L3.17736 7.81756L3.17786 7.81652L3.18337 7.80398L3.18387 7.80293L3.18937 7.79092L3.18988 7.78988L3.19488 7.77786L3.19538 7.77629L3.20089 7.76428L3.20139 7.76324L3.2069 7.75122L3.2074 7.75018L3.2129 7.73816L3.2134 7.73712L3.21891 7.7251L3.21941 7.72354L3.22492 7.71152L3.22542 7.71048L3.23092 7.69846L3.23142 7.6969L3.23693 7.68488L3.23743 7.68384L3.24294 7.67182L3.24344 7.67078L3.24895 7.65876L3.24945 7.65772L3.25495 7.6457L3.25545 7.64466L3.26146 7.63317L3.26196 7.63212L3.26797 7.62011L3.26897 7.61854L3.27498 7.60653L3.27548 7.60548L3.28148 7.59347L3.28198 7.5919L3.28799 7.58041L3.28849 7.57936L3.2945 7.56787L3.295 7.56683L3.30101 7.55534L3.30151 7.55377L3.30752 7.54228L3.30852 7.54123L3.31452 7.52974L3.31502 7.52817L3.32103 7.51668L3.32203 7.51564L3.32804 7.50414L3.32854 7.5031L3.33455 7.49161L3.33555 7.49004L3.34206 7.47855L3.34256 7.4775L3.34856 7.46601L3.34906 7.46497L3.35557 7.45347L3.35607 7.45243L3.36258 7.44094L3.36308 7.43989L3.36959 7.4284L3.37059 7.42736L3.3771 7.41586L3.3776 7.41482L3.38411 7.40333L3.38511 7.40228L3.39162 7.39079L3.39212 7.38975L3.39862 7.37825L3.39962 7.37721L3.40613 7.36572L3.40663 7.36467L3.41364 7.35318L3.41464 7.35161L3.42165 7.34012L3.42215 7.33908L3.42866 7.32811L3.42966 7.32706L3.43667 7.31609L3.43767 7.31505L3.44418 7.30356L3.44468 7.30251L3.45169 7.29154L3.45219 7.2905L3.4592 7.27953L3.4602 7.27848L3.46721 7.26699L3.46821 7.26595L3.47522 7.25498L3.47572 7.25341L3.48272 7.24244L3.48322 7.2414L3.49023 7.23043L3.49073 7.22938L3.49824 7.21841L3.49924 7.21737L3.50625 7.2064L3.50725 7.20535L3.51476 7.19438L3.51526 7.19334L3.52277 7.18237L3.52327 7.18132L3.53078 7.17035L3.53128 7.16931L3.53879 7.15834L3.53979 7.1573L3.5473 7.14633L3.5478 7.14528L3.55531 7.13431L3.55631 7.13327L3.56382 7.12282L3.56432 7.12178L3.57183 7.11081L3.57283 7.10976L3.58034 7.09931L3.58134 7.09827L3.58885 7.08782L3.58985 7.08678L3.59736 7.07633L3.59836 7.07528L3.60587 7.06484L3.60637 7.06379L3.61388 7.05335L3.61488 7.0523L3.62289 7.04185L3.62389 7.04081L3.6319 7.03036L3.6329 7.02932L3.64091 7.01887L3.64191 7.01783L3.64992 7.00738L3.65092 7.00633L3.65893 6.99589L3.65994 6.99432L3.66794 6.98387L3.66845 6.98283L3.67645 6.97238L3.67746 6.97133L3.68547 6.96089L3.68647 6.95984L3.69448 6.94992L3.69548 6.94887L3.70349 6.93843L3.70449 6.93738L3.7125 6.92693L3.7135 6.92589L3.72201 6.91597L3.72301 6.91492L3.73102 6.90447L3.73202 6.90343L3.74003 6.8935L3.74103 6.89246L3.74904 6.88201L3.75004 6.88097L3.75855 6.87052L3.75905 6.86947L3.76756 6.85955L3.76856 6.85851L3.77707 6.84858L3.77808 6.84754L3.78659 6.83761L3.78759 6.83657L3.7961 6.82664L3.7966 6.8256L3.80511 6.81567L3.80611 6.81463L3.81462 6.8047L3.81562 6.80366L3.82413 6.79373L3.82463 6.79269L3.83314 6.78276L3.83414 6.78172L3.84315 6.77179L3.84365 6.77075L3.85266 6.76082L3.85367 6.75978L3.86318 6.75038L3.86418 6.74933L3.87319 6.73941L3.87419 6.73836L3.8832 6.72844L3.8842 6.72739L3.89321 6.71799L3.89421 6.71695L3.90322 6.70754L3.90423 6.7065L3.91324 6.6971L3.91424 6.69605L3.92375 6.68665L3.92475 6.6856L3.93376 6.6762L3.93476 6.67516L3.94377 6.66575L3.94477 6.66471L3.95379 6.65531L3.95479 6.65426L3.9638 6.64486L3.9648 6.64381L3.97381 6.63441L3.97481 6.63337L3.98382 6.62396L3.98482 6.62292L3.99383 6.61352L3.99483 6.61247L4.00435 6.60359L4.00535 6.60255L4.01486 6.59367L4.01586 6.59262L4.02537 6.58322L4.02637 6.58218L4.03588 6.57277L4.03688 6.57225L4.0464 6.56337L4.0474 6.56285L4.05691 6.55397L4.05791 6.55292L4.06742 6.54404L4.06842 6.543L4.07793 6.53412L4.07893 6.53307L4.08845 6.52419L4.08945 6.52367L4.09946 6.51479L4.10046 6.51375L4.11047 6.50487L4.11147 6.50382L4.12148 6.49494L4.12249 6.4939L4.1325 6.48554L4.1335 6.48449L4.14351 6.47614L4.14451 6.47509L4.15402 6.46673L4.15503 6.46569L4.16504 6.45733L4.16604 6.45629L4.17605 6.44793L4.17705 6.44741L4.18706 6.43905L4.18806 6.438L4.19808 6.42965L4.19908 6.4286L4.20909 6.42024L4.21009 6.4192L4.2206 6.41084L4.2216 6.4098L4.23162 6.40144L4.23262 6.40039L4.24313 6.39204L4.24413 6.39099L4.25464 6.38263L4.25564 6.38159L4.26566 6.37323L4.26666 6.37271L4.27717 6.36435L4.27817 6.36331L4.28818 6.35495L4.28918 6.3539L4.2997 6.34607L4.3007 6.34502L4.31121 6.33667L4.31221 6.33562L4.32272 6.32779L4.32373 6.32726L4.33424 6.31943L4.33574 6.31838L4.34625 6.31055L4.34725 6.31003L4.35777 6.30219L4.35877 6.30115L4.36928 6.29279L4.37028 6.29227L4.38129 6.28443L4.3823 6.28339L4.39281 6.27555L4.39431 6.27503L4.40482 6.26719L4.40582 6.26667L4.41634 6.25883L4.41734 6.25831L4.42835 6.25048L4.42935 6.24943L4.43986 6.2416L4.44087 6.24107L4.45188 6.23376L4.45288 6.23324L4.46339 6.2254L4.46489 6.22436L4.47591 6.21705L4.47691 6.216L4.48792 6.20817L4.48892 6.20712L4.49994 6.19981L4.50144 6.19929L4.51245 6.19197L4.51345 6.19093L4.52446 6.18361L4.52547 6.18309L4.53648 6.17578L4.53748 6.17526L4.54849 6.16794L4.54949 6.16742L4.56051 6.16011L4.56201 6.15959L4.57302 6.1528H4.57352L9.60502 2.91415L9.60552 2.91363L9.61603 2.90684L9.61703 2.90632L9.62804 2.89901L9.62955 2.89796L9.64056 2.89117L9.64206 2.89013L9.65307 2.88334L9.65458 2.88229L9.66559 2.8755L9.66709 2.87498L9.67861 2.86819L9.67961 2.86714L9.69062 2.86035L9.69212 2.85983L9.70313 2.85304L9.70414 2.85252L9.71565 2.84625L9.71665 2.8452L9.72816 2.83893L9.72917 2.83789L9.74018 2.83162L9.74168 2.8311L9.75319 2.82483L9.7542 2.82379L9.76521 2.81752L9.76671 2.81647L9.77772 2.8102L9.77922 2.80916L9.79024 2.80289L9.79124 2.80185L9.80275 2.79558L9.80375 2.79506L9.81477 2.78879L9.81627 2.78827L9.82728 2.782L9.82878 2.78147L9.8403 2.77521L9.8418 2.77468L9.85331 2.76842L9.85431 2.76789L9.86583 2.76215L9.86733 2.76163L9.87884 2.75588L9.88035 2.75536L9.89136 2.74961L9.89286 2.74909L9.90437 2.74334L9.90538 2.74282L9.91689 2.73707L9.91839 2.73655L9.9299 2.73081L9.93141 2.72976L9.94292 2.72402L9.94442 2.72349L9.95594 2.71775L9.95744 2.71722L9.96895 2.712L9.97045 2.71148L9.98197 2.70625L9.98297 2.70521L9.99448 2.69999L9.99548 2.69946L10.007 2.69424L10.0085 2.6932L10.02 2.68797L10.0215 2.68745L10.033 2.68223L10.0345 2.6817L10.046 2.67648L10.0475 2.67596L10.0591 2.67073L10.0606 2.67021L10.0721 2.66499L10.0736 2.66447L10.0851 2.65976L10.0866 2.65924L10.0981 2.65402L10.0996 2.6535L10.1116 2.64827L10.1131 2.64775L10.1251 2.64253L10.1266 2.64148L10.1382 2.63678L10.1392 2.63626L10.1512 2.63156L10.1527 2.63103L10.1642 2.62633L10.1652 2.62581L10.1772 2.62111L10.1787 2.62059L10.1907 2.61641L10.1922 2.61589L10.2042 2.61119L10.2057 2.61066L10.2177 2.60596L10.2192 2.60544L10.2313 2.60126L10.2328 2.60074L10.2448 2.59656L10.2463 2.59604L10.2578 2.59186L10.2593 2.59134L10.2713 2.58716L10.2728 2.58663L10.2843 2.58246L10.2858 2.58193L10.2978 2.57775L10.2988 2.57723L10.3109 2.57305L10.3124 2.57253L10.3244 2.56835L10.3259 2.56783L10.3379 2.56365L10.3394 2.56313L10.3514 2.55947L10.3524 2.55895L10.3644 2.55529L10.3659 2.55477L10.3779 2.55111H10.3794L10.3915 2.54746L10.393 2.54693L10.405 2.54328L10.406 2.54276L10.418 2.5391L10.419 2.53858L10.431 2.53492L10.4325 2.5344L10.4445 2.53074L10.446 2.53022L10.458 2.52656L10.4595 2.52604L10.4715 2.52291L10.4731 2.52238L10.4851 2.51925L10.4861 2.51873L10.4981 2.51507L10.4993 2.51455L10.5118 2.51141H10.5128L10.5248 2.50776H10.5263L10.5387 2.50462L10.5402 2.5041L10.5527 2.50097L10.5542 2.50044L10.5662 2.49731H10.5677L10.5802 2.49418H10.5817L10.5937 2.49104L10.5952 2.49052L10.6073 2.48791L10.6088 2.48739L10.6208 2.48425L10.6223 2.48373L10.6343 2.48112H10.6358L10.6478 2.47851L10.6493 2.47798L10.6613 2.47537H10.6623L10.6743 2.47276L10.6758 2.47224L10.6884 2.46963H10.6894L10.7019 2.46701L10.7029 2.46649L10.7154 2.46388L10.7169 2.46336L10.7294 2.46074L10.7309 2.46022L10.7434 2.45813H10.7449L10.7569 2.45604L10.7584 2.45552L10.771 2.45291L10.7725 2.45239L10.785 2.4503H10.7865L10.7985 2.44821L10.8 2.44769L10.8125 2.4456L10.814 2.44507L10.826 2.44298H10.827L10.839 2.4409H10.8405L10.8531 2.43881L10.8546 2.43828L10.8671 2.43619H10.8686L10.8811 2.4341H10.8826L10.8951 2.43202H10.8966L10.9091 2.43045H10.9106L10.9226 2.42888H10.9241L10.9367 2.42731L10.9382 2.42679L10.9507 2.42522L10.9517 2.4247L10.9642 2.42366H10.9657L10.9777 2.42209H10.9792L10.9912 2.42052H10.9927L11.0052 2.41896H11.0067L11.0193 2.41739H11.0208L11.0328 2.41634H11.0343L11.0468 2.41478L11.0483 2.41425L11.0608 2.41321L11.0623 2.41269L11.0748 2.41164H11.0763L11.0886 2.4106H11.0901L11.1027 2.40955H11.1042L11.1167 2.40903L11.1182 2.40851L11.1307 2.40746L11.1317 2.40694L11.1442 2.40642H11.1457L11.1582 2.40537H11.1592L11.1717 2.40485H11.1732L11.1858 2.40433H11.1873L11.1998 2.40381H11.2013L11.2138 2.40329L11.2153 2.40276L11.2278 2.40224H11.2293L11.2418 2.40172H11.2433L11.2558 2.4012H11.2573L11.2698 2.40067H11.2714L11.2839 2.40015H11.2849L11.2974 2.39963H11.3129L11.3254 2.39911H11.3545L11.3571 2.39456ZM11.3456 3.80494H11.3374L11.3292 3.80504H11.321L11.3125 3.80525L11.304 3.80546L11.2955 3.80572L11.287 3.80624L11.2785 3.80677L11.2699 3.80729L11.2619 3.80781L11.2534 3.80833L11.2454 3.80886L11.2374 3.80938L11.2294 3.8099L11.2209 3.81042L11.2129 3.81094L11.2044 3.81199L11.1959 3.81303L11.1879 3.81408L11.1793 3.81512L11.1708 3.81617L11.1623 3.81721L11.1543 3.81826L11.1458 3.8193L11.1378 3.82035L11.1298 3.82139L11.1213 3.82244L11.1133 3.82348L11.1053 3.82453L11.0972 3.82557L11.0892 3.82662L11.0807 3.82766L11.0727 3.82923L11.0647 3.83027L11.0562 3.83184L11.0482 3.83341L11.0402 3.83497L11.0322 3.83654L11.0242 3.83811L11.0161 3.83967L11.0081 3.84124L11.0001 3.84229L10.9916 3.84385L10.9836 3.84542L10.9751 3.84699L10.9671 3.84855L10.9591 3.85012L10.9511 3.85169L10.9431 3.85378L10.9351 3.85587L10.927 3.85796L10.919 3.85952L10.911 3.86109L10.903 3.86318L10.895 3.86527L10.887 3.86736L10.879 3.86945L10.871 3.87154L10.863 3.87363L10.855 3.87572L10.8469 3.87781L10.8389 3.8799L10.8309 3.88199L10.8229 3.8846L10.8149 3.88669L10.8069 3.8893L10.7994 3.89191L10.7914 3.89452L10.7834 3.89713L10.7754 3.89975L10.7674 3.90236L10.7593 3.90497L10.7518 3.90758L10.7438 3.91019L10.7358 3.91333L10.7278 3.91594L10.7198 3.91855L10.7118 3.92169L10.7038 3.9243L10.6958 3.92691L10.6883 3.92952L10.6802 3.93265L10.6722 3.93579L10.6642 3.93892L10.6567 3.94206L10.6487 3.94519L10.6412 3.94833L10.6337 3.95146L10.6257 3.95512L10.6177 3.95825L10.6097 3.96138L10.6017 3.96452L10.5941 3.96818L10.5866 3.97131L10.5786 3.97497L10.5711 3.97862L10.5636 3.98228L10.5561 3.98594L10.5481 3.98959L10.5406 3.99325L10.5326 3.99691L10.5251 4.00056L10.5176 4.00422L10.51 4.00787L10.502 4.01153L10.4945 4.01519L10.487 4.01884L10.4795 4.02302L10.472 4.0272L10.4645 4.03086L10.457 4.03504L10.4495 4.03869L10.442 4.04287L10.4345 4.04705L10.4269 4.05123L10.4194 4.05541L10.4119 4.05959L10.4044 4.06429L10.3974 4.06847L10.3899 4.07265L10.3829 4.07683L10.3754 4.08153L10.3679 4.08623L10.3604 4.09093L10.3534 4.09511L10.3458 4.09981L10.3388 4.10451L10.3313 4.10921L10.3238 4.11391L10.3158 4.11914L5.28983 7.35151L5.28132 7.35726L5.27331 7.36248L5.2658 7.3677L5.25829 7.37293L5.25078 7.37815L5.24327 7.38337L5.23576 7.3886L5.22825 7.39382L5.22074 7.39904L5.21324 7.40427L5.20573 7.40949L5.19822 7.41472L5.19071 7.42046L5.1837 7.42568L5.17669 7.43091L5.16918 7.43613L5.16217 7.44136L5.15517 7.44658L5.14816 7.4518L5.14115 7.45703L5.13414 7.46225L5.12713 7.46747L5.12012 7.47322L5.11312 7.47844L5.10611 7.48419L5.0991 7.48994L5.09209 7.49568L5.08508 7.50143L5.07807 7.50717L5.07107 7.51292L5.06456 7.51867L5.05755 7.52441L5.05054 7.53016L5.04403 7.5359L5.03703 7.54165L5.03002 7.5474L5.02351 7.55314L5.0165 7.55889L5.00999 7.56463L5.00349 7.57038L4.99698 7.57665L4.99047 7.58292L4.98396 7.58866L4.97745 7.59441L4.97095 7.60068L4.96444 7.60694L4.95793 7.61321L4.95142 7.61948L4.94492 7.62575L4.93841 7.63202L4.9319 7.63829L4.92539 7.64455L4.91888 7.65082L4.91238 7.65709L4.90587 7.66336L4.89986 7.66963L4.89335 7.6759L4.88735 7.68269L4.88084 7.68896L4.87483 7.69575L4.86883 7.70201L4.86282 7.70881L4.85681 7.71507L4.8508 7.72186L4.8448 7.72865L4.83829 7.73545L4.83228 7.74171L4.82627 7.7485L4.82027 7.7553L4.81426 7.76209L4.80875 7.76888L4.80275 7.77567L4.79674 7.78246L4.79073 7.78925L4.78473 7.79656L4.77872 7.80335L4.77321 7.81014L4.7677 7.81693L4.7617 7.82425L4.75619 7.83104L4.75018 7.83783L4.74468 7.84514L4.73917 7.85193L4.73366 7.85924L4.72816 7.86656L4.72265 7.87387L4.71714 7.88118L4.71164 7.8885L4.70613 7.89581L4.70113 7.90312L4.69562 7.91044L4.69011 7.91775L4.68461 7.92506L4.6791 7.93238L4.67409 7.93969L4.66909 7.947L4.66408 7.95431L4.65908 7.96215L4.65407 7.96946L4.64906 7.97678L4.64406 7.98461L4.63905 7.99192L4.63405 7.99924L4.62904 8.00655L4.62403 8.01386L4.61953 8.0217L4.61452 8.02953L4.60952 8.03685L4.60451 8.04468L4.6 8.05252L4.5955 8.05983L4.59099 8.06767L4.58649 8.0755L4.58198 8.08334L4.57748 8.09117L4.57247 8.09901L4.56747 8.10684L4.56296 8.11468L4.55846 8.12252L4.55395 8.13035L4.54944 8.13819L4.54494 8.14602L4.54043 8.15386L4.53593 8.16169L4.53142 8.16953L4.52692 8.17736L4.52241 8.1852L4.51791 8.19356L4.5134 8.20139L4.5089 8.20923L4.50439 8.21759L4.50039 8.22542L4.49638 8.23378L4.49238 8.24214L4.48837 8.25049L4.48437 8.25833L4.48036 8.26616L4.47636 8.27452L4.47235 8.28236L4.46835 8.29072L4.46484 8.29855L4.46084 8.30691L4.45683 8.31527L4.45283 8.32362L4.44882 8.33198L4.44482 8.34034L4.44132 8.3487L4.43781 8.35706L4.43431 8.36541L4.4308 8.37377L4.4273 8.38213L4.42379 8.39049L4.42029 8.39884L4.41679 8.4072L4.41328 8.41556L4.41028 8.42392L4.40677 8.43228L4.40327 8.44116L4.39977 8.44951L4.39626 8.45787L4.39276 8.46623L4.38975 8.47459L4.38625 8.48347L4.38275 8.49182L4.37974 8.50018L4.37674 8.50906L4.37374 8.51742L4.37073 8.5263L4.36773 8.53466L4.36472 8.54354L4.36172 8.55242L4.35872 8.5613L4.35621 8.57018L4.35321 8.57854L4.35021 8.58742L4.3477 8.5963L4.3452 8.60465L4.3427 8.61353L4.33969 8.62242L4.33719 8.63077L4.33469 8.63913L4.33219 8.64801L4.32918 8.65689L4.32668 8.66577L4.32418 8.67413L4.32167 8.68301L4.31917 8.69189L4.31667 8.70077L4.31416 8.70965L4.31166 8.71853L4.30966 8.72741L4.30766 8.73629L4.30515 8.74517L4.30315 8.75405L4.30065 8.76293L4.29865 8.77181L4.29664 8.78069L4.29464 8.79009L4.29264 8.79897L4.29064 8.80785L4.28863 8.81673L4.28663 8.82561L4.28463 8.83449L4.28263 8.84337L4.28113 8.85225L4.27912 8.86113L4.27762 8.87001L4.27612 8.87942L4.27462 8.88882L4.27312 8.89822L4.27161 8.90762L4.27011 8.9165L4.26861 8.92538L4.26711 8.93479L4.26561 8.94419L4.2641 8.95307L4.2626 8.96195L4.2611 8.97083L4.2596 8.98023L4.2586 8.98963L4.2576 8.99904L4.2566 9.00792L4.25509 9.01732L4.25359 9.0262L4.25259 9.0356L4.25159 9.04501L4.25059 9.05441L4.24959 9.06381L4.24859 9.07321L4.24759 9.08262L4.24658 9.0915L4.24558 9.1009L4.24458 9.1103L4.24408 9.1197L4.24308 9.12911L4.24208 9.13851L4.24158 9.14791L4.24108 9.15731L4.24058 9.16672L4.24008 9.17612L4.23958 9.18552L4.23908 9.19492L4.23857 9.20433L4.23807 9.21373L4.23757 9.22313L4.23707 9.23253V9.24194L4.23657 9.25134L4.23607 9.26074V9.27014L4.23557 9.27955V15.9031L4.23607 15.9125V15.9407L4.23657 15.9496L4.23707 15.959L4.23757 15.9684L4.23807 15.9778L4.23857 15.9872L4.23908 15.9966L4.23958 16.006L4.24008 16.0154L4.24058 16.0248L4.24158 16.0342L4.24208 16.0436L4.24258 16.053L4.24308 16.0624L4.24408 16.0713L4.24508 16.0807L4.24608 16.0896L4.24658 16.099L4.24759 16.1079L4.24859 16.1167L4.24959 16.1256L4.25059 16.1345L4.25159 16.1439L4.25259 16.1528L4.25359 16.1617L4.25459 16.1711L4.25559 16.1805L4.2566 16.1893L4.2576 16.1987L4.2591 16.2076L4.2606 16.2165L4.2621 16.2254L4.2636 16.2343L4.26511 16.2437L4.26661 16.2525L4.26811 16.2614L4.26961 16.2703L4.27111 16.2792L4.27312 16.2881L4.27462 16.2969L4.27612 16.3058L4.27762 16.3147L4.27962 16.3236L4.28163 16.3325L4.28313 16.3413L4.28513 16.3502L4.28713 16.3591L4.28913 16.368L4.29114 16.3769L4.29314 16.3857L4.29514 16.3946L4.29714 16.4035L4.29915 16.4119L4.30165 16.4202L4.30365 16.4291L4.30565 16.438L4.30766 16.4469L4.31016 16.4557L4.31216 16.4641L4.31416 16.473L4.31617 16.4813L4.31867 16.4902L4.32067 16.4986L4.32318 16.5075L4.32568 16.5163L4.32818 16.5247L4.33068 16.5336L4.33319 16.5425L4.33569 16.5508L4.33819 16.5597L4.3412 16.5681L4.3442 16.5764L4.3472 16.5848L4.35021 16.5931L4.35271 16.6015L4.35571 16.6104L4.35872 16.6187L4.36172 16.6271L4.36472 16.6354L4.36773 16.6438L4.37073 16.6522L4.37374 16.6605L4.37674 16.6689L4.37974 16.6772L4.38275 16.6856L4.38625 16.6939L4.38975 16.7023L4.39276 16.7107L4.39576 16.719L4.39877 16.7274L4.40177 16.7357L4.40477 16.7441L4.40828 16.7524L4.41178 16.7608L4.41528 16.7692L4.41879 16.7775L4.42229 16.7859L4.4258 16.7942L4.4293 16.8026L4.43281 16.811L4.43631 16.8193L4.43981 16.8277L4.44332 16.836L4.44682 16.8439L4.45083 16.8522L4.45483 16.8601L4.45884 16.8684L4.46284 16.8762L4.46685 16.8841L4.47085 16.8919L4.47486 16.8998L4.47886 16.9076L4.48287 16.9154L4.48737 16.9233L4.49138 16.9311L4.49538 16.9389L4.49939 16.9468L4.50389 16.9546L4.5084 16.9624L4.5124 16.9703L4.51641 16.9781L4.52041 16.9859L4.52492 16.9938L4.52892 17.0016L4.53343 17.0089L4.53793 17.0168L4.54244 17.0241L4.54694 17.0319L4.55145 17.0397L4.55595 17.0471L4.56046 17.0544L4.56496 17.0617L4.56947 17.069L4.57397 17.0768L4.57848 17.0847L4.58349 17.092L4.58799 17.0993L4.5925 17.1071L4.597 17.1144L4.60151 17.1218L4.60651 17.1291L4.61152 17.1364L4.61652 17.1442L4.62153 17.1515L4.62654 17.1588L4.63154 17.1662L4.63655 17.1735L4.64155 17.1808L4.64656 17.1881L4.65157 17.1954L4.65707 17.2027L4.66258 17.21L4.66759 17.2174L4.67259 17.2247L4.6776 17.232L4.6826 17.2393L4.68811 17.2461L4.69362 17.2529L4.69912 17.2602L4.70463 17.267L4.71014 17.2743L4.71564 17.2811L4.72115 17.2879L4.72666 17.2947L4.73216 17.3014L4.73767 17.3082L4.74318 17.315L4.74868 17.3218L4.75419 17.3286L4.7597 17.3354L4.7652 17.3422L4.77071 17.349L4.77672 17.3558L4.78272 17.3626L4.78823 17.3694L4.79424 17.3756L4.80024 17.3824L4.80625 17.3887L4.81226 17.3955L4.81776 17.4023L4.82377 17.4091L4.82978 17.4153L4.83579 17.4216L4.84179 17.4279L4.8478 17.4341L4.85381 17.4409L4.85981 17.4472L4.86582 17.4535L4.87183 17.4597L4.87784 17.466L4.88384 17.4723L4.89035 17.4785L4.89636 17.4848L4.90237 17.4911L4.90887 17.4973L4.91488 17.5036L4.92089 17.5099L4.9274 17.5161L4.9339 17.5219L4.94041 17.5276L4.94692 17.5339L4.95343 17.5402L4.95993 17.5459L4.96644 17.5517L4.97295 17.5579L4.97946 17.5642L4.98596 17.5699L4.99297 17.5757L4.99998 17.5814L5.00699 17.5872L5.0135 17.5929L5.02001 17.5987L5.02701 17.6044L5.03352 17.6102L5.04053 17.6154L5.04704 17.6211L5.05405 17.6269L5.06105 17.6326L5.06806 17.6384L5.07457 17.6436L5.08158 17.6493L5.08859 17.6546L5.0956 17.6603L5.1026 17.6661L5.10961 17.6713L5.11662 17.6765L5.12413 17.6817L5.13114 17.687L5.13815 17.6922L5.14515 17.6974L5.15216 17.7026L5.15917 17.7078L5.16618 17.7131L5.17369 17.7183L5.1812 17.723L5.18871 17.7282L5.19571 17.7334L5.20322 17.7387L5.21073 17.7439L5.21774 17.7486L5.22525 17.7533L5.23276 17.758L5.24027 17.7627L5.24778 17.7674L5.25529 17.7721L5.2633 17.7768L5.2708 17.7815L5.27831 17.7862L5.28682 17.7914L10.5271 20.9883L10.5336 20.9925L10.5391 20.9956L10.5451 20.9987L10.5511 21.0019L10.5571 21.005L10.5626 21.0086L10.5686 21.0118L10.5746 21.0149L10.5806 21.018L10.5866 21.0217L10.5926 21.0248L10.5987 21.028L10.6047 21.0311L10.6107 21.0342L10.6167 21.0374L10.6227 21.0405L10.6287 21.0436L10.6347 21.0468L10.6402 21.0499L10.6462 21.053L10.6522 21.0562L10.6582 21.0588L10.6642 21.0619L10.6702 21.0645L10.6762 21.0672L10.6823 21.0698L10.6883 21.0729L10.6943 21.076L10.7003 21.0786L10.7063 21.0818L10.7123 21.0844L10.7183 21.087L10.7243 21.0896L10.7303 21.0922L10.7363 21.0948L10.7423 21.0975L10.7483 21.1001L10.7543 21.1027L10.7603 21.1053L10.7664 21.1074L10.7729 21.11L10.7789 21.1126L10.7849 21.1152L10.7909 21.1178L10.7969 21.1204L10.8029 21.1225L10.8089 21.1251L10.8149 21.1272L10.8209 21.1293L10.8274 21.1314L10.8334 21.1335L10.8389 21.1356L10.852 21.1398L10.8645 21.1439L10.877 21.1476L10.8895 21.1513L10.902 21.1549L10.9145 21.1586L10.927 21.1622L10.9396 21.1659L10.9521 21.1695L10.9646 21.1727L10.9771 21.1758L10.9896 21.1789L11.0021 21.1815L11.0146 21.1847L11.0272 21.1873L11.0397 21.1899L11.0522 21.1925L11.0647 21.1946L11.0772 21.1972L11.0897 21.1993L11.1023 21.2014L11.1153 21.2035L11.1278 21.2056L11.1408 21.2071L11.1538 21.2087L11.1668 21.2103L11.1798 21.2113L11.1924 21.2124L11.2054 21.2134L11.2179 21.2145L11.2309 21.2155L11.2439 21.2165L11.2564 21.2176L11.2689 21.2181L11.2815 21.2186L11.2945 21.2192H11.3586L11.3716 21.2186H11.3846L11.3976 21.2181L11.4106 21.2176L11.4236 21.2165L11.4366 21.2155L11.4497 21.215L11.4627 21.2139L11.4757 21.2129L11.4887 21.2118L11.5012 21.2108L11.5142 21.2092L11.5273 21.2077L11.5398 21.2061L11.5528 21.2045L11.5653 21.2024L11.5783 21.2004L11.5908 21.1983L11.6038 21.1962L11.6164 21.1941L11.6289 21.1915L11.6414 21.1894L11.6544 21.1868L11.6669 21.1842L11.6794 21.181L11.692 21.1784L11.7045 21.1753L11.717 21.1721L11.7295 21.169L11.742 21.1659L11.7545 21.1622L11.767 21.1586L11.7796 21.1549L11.7921 21.1513L11.8051 21.1471L11.8111 21.145L11.8171 21.1429L11.8231 21.1408L11.8296 21.1387L11.8356 21.1366L11.8421 21.1345L11.8481 21.1324L11.8541 21.1304L11.8607 21.1283L11.8667 21.1262L11.8727 21.1241L11.8792 21.1215L11.8852 21.1194L11.8917 21.1173L11.8977 21.1147L11.9037 21.1126L11.9097 21.1105L11.9157 21.1084L11.9222 21.1058L11.9282 21.1037L11.9342 21.1011L11.9402 21.0985L11.9463 21.0959L11.9523 21.0933L11.9583 21.0907L11.9643 21.088L11.9703 21.0854L11.9763 21.0828L11.9823 21.0802L11.9883 21.0776L11.9943 21.0745L12.0003 21.0713L12.0063 21.0687L12.0123 21.0656L12.0183 21.0625L12.0243 21.0598L12.0304 21.0567L12.0364 21.0536L12.0424 21.0504L12.0479 21.0473L12.0539 21.0442L12.0599 21.041L12.0659 21.0379L12.0719 21.0348L12.0779 21.0316L12.0839 21.0285L12.0899 21.0254L12.0959 21.0222L12.1014 21.0191L12.1074 21.016L12.1135 21.0128L12.12 21.0092L17.9254 17.6331L17.9324 17.6295L17.9389 17.6258L17.9449 17.6222L17.9509 17.6185L17.9569 17.6149L17.9629 17.6107L17.9694 17.607L17.9754 17.6034L17.9814 17.5997L17.9875 17.5961L17.9935 17.5919L17.9995 17.5877L18.0055 17.584L18.0115 17.5804L18.0175 17.5767L18.0235 17.5726L18.0295 17.5684L18.0355 17.5647L18.0415 17.5605L18.0475 17.5569L18.053 17.5527L18.0585 17.5485L18.064 17.5443L18.0696 17.5402L18.0751 17.536L18.0811 17.5318L18.0866 17.5276L18.0926 17.5235L18.0981 17.5193L18.1036 17.5151L18.1091 17.5109L18.1146 17.5067L18.1201 17.5026L18.1261 17.4984L18.1316 17.4937L18.1371 17.4895L18.1426 17.4848L18.1481 17.4806L18.1537 17.4759L18.1592 17.4712L18.1647 17.4665L18.1702 17.4623L18.1757 17.4582L18.1812 17.4535L18.1862 17.4488L18.1917 17.4441L18.1972 17.4394L18.2022 17.4352L18.2077 17.4305L18.2132 17.4252L18.2182 17.4205L18.2237 17.4158L18.2287 17.4111L18.2337 17.4064L18.2388 17.4012L18.2443 17.3965L18.2493 17.3913L18.2543 17.3866L18.2593 17.3814L18.2643 17.3761L18.2693 17.3714L18.2743 17.3662L18.2793 17.3615L18.2843 17.3563L18.2893 17.3511L18.2943 17.3458L18.2993 17.3406L18.3038 17.3354L18.3088 17.3302L18.3133 17.325L18.3183 17.3197L18.3234 17.3145L18.3284 17.3093L18.3329 17.3041L18.3374 17.2988L18.3419 17.2936L18.3464 17.2884L18.3514 17.2832L18.3559 17.2779L18.3604 17.2727L18.3649 17.2675L18.3694 17.2623L18.3739 17.257L18.3784 17.2518L18.3829 17.2466L18.3874 17.2409L18.3919 17.2351L18.3964 17.2294L18.4009 17.2241L18.4055 17.2189L18.41 17.2137L18.4145 17.2079L18.419 17.2027L18.4235 17.197L18.4275 17.1918L18.4315 17.186L18.4355 17.1803L18.4395 17.175L18.444 17.1693L18.448 17.1635L18.452 17.1578L18.456 17.1521L18.46 17.1463L18.464 17.1406L18.468 17.1348L18.472 17.1291L18.476 17.1233L18.48 17.1176L18.484 17.1118L18.488 17.1061L18.4921 17.1003L18.4956 17.0946L18.4991 17.0883L18.5031 17.0821L18.5071 17.0763L18.5106 17.0706L18.5141 17.0648L18.5181 17.0586L18.5221 17.0528L18.5256 17.0471L18.5291 17.0408L18.5326 17.0345L18.5361 17.0283L18.5396 17.022L18.5431 17.0162L18.5466 17.01L18.5501 17.0037L18.5536 16.998L18.5571 16.9917L18.5606 16.9854L18.5641 16.9792L18.5671 16.9729L18.5701 16.9666L18.5737 16.9603L18.5772 16.9541L18.5802 16.9478L18.5837 16.9415L18.5872 16.9353L18.5902 16.929L18.5932 16.9227L18.5962 16.9159L18.5992 16.9097L18.6027 16.9034L18.6062 16.8971L18.6092 16.8909L18.6122 16.8846L18.6152 16.8783L18.6182 16.8715L18.6212 16.8653L18.6242 16.859L18.6272 16.8522L18.6302 16.846L18.6332 16.8397L18.6362 16.8329L18.6392 16.8261L18.6422 16.8193L18.6452 16.813L18.6477 16.8068L18.6502 16.8L18.6527 16.7932L18.6552 16.7864L18.6578 16.7801L18.6603 16.7733L18.6628 16.7666L18.6653 16.7598L18.6678 16.7535L18.6703 16.7467L18.6728 16.7399L18.6753 16.7331L18.6778 16.7263L18.6803 16.7195L18.6823 16.7127L18.6843 16.706L18.6863 16.6992L18.6883 16.6924L18.6908 16.6856L18.6933 16.6788L18.6958 16.672L18.6983 16.6652L18.7003 16.6584L18.7028 16.6516L18.7048 16.6448L18.7068 16.6381L18.7093 16.6313L18.7113 16.6245L18.7133 16.6177L18.7153 16.6109L18.7173 16.6041L18.7188 16.5973L18.7208 16.5905L18.7228 16.5837L18.7248 16.5769L18.7268 16.5701L18.7283 16.5634L18.7298 16.556L18.7318 16.5492L18.7333 16.5425L18.7348 16.5351L18.7368 16.5284L18.7383 16.5216L18.7399 16.5148L18.7414 16.508L18.7429 16.5007L18.7444 16.4939L18.7459 16.4871L18.7469 16.4798L18.7484 16.4725L18.7499 16.4657L18.7509 16.4584L18.7524 16.4516L18.7539 16.4443L18.7554 16.4369L18.7569 16.4302L18.7584 16.4228L18.7594 16.4155L18.7609 16.4082L18.7619 16.4014L18.7634 16.3946L18.7644 16.3873L18.7654 16.38L18.7664 16.3727L18.7674 16.3654L18.7684 16.3581L18.7694 16.3508L18.7704 16.3434L18.7709 16.3361L18.7719 16.3293L18.7724 16.322L18.7734 16.3147L18.7744 16.3079L18.7754 16.3006L18.7759 16.2933L18.7764 16.286L18.7769 16.2787L18.7774 16.2714L18.7784 16.264L18.7789 16.2567L18.7794 16.2494L18.7799 16.2421L18.7804 16.2348L18.7809 16.2275L18.7814 16.2202L18.7819 16.2128L18.7824 16.2055L18.7829 16.1982L18.7834 16.1909L18.7839 16.1836V16.169L18.7844 16.1617V8.93056L18.7839 8.92413L18.7834 8.91734V8.91055L18.7829 8.90376V8.89697L18.7824 8.89018V8.88339L18.7819 8.8766L18.7814 8.87033L18.7809 8.86354L18.7804 8.85675L18.7799 8.84996L18.7794 8.84369L18.7789 8.8369L18.7784 8.83063L18.7779 8.82384L18.7769 8.81705L18.7764 8.81078L18.7759 8.80451L18.7749 8.79824L18.7744 8.79197L18.7734 8.78518L18.7729 8.77891L18.7719 8.77265L18.7709 8.76586L18.7704 8.75906L18.7699 8.7528L18.7689 8.74705L18.7669 8.73331L18.7654 8.71999L18.7634 8.70641L18.7614 8.69335L18.7589 8.68029L18.7564 8.66723L18.7544 8.65417L18.7519 8.64112L18.7489 8.62806L18.7459 8.615L18.7429 8.60194L18.7399 8.58888L18.7368 8.57582L18.7338 8.56276L18.7308 8.5497L18.7273 8.53664L18.7238 8.52358L18.7203 8.51053L18.7163 8.49747L18.7128 8.48493L18.7088 8.47239L18.7048 8.45986L18.7008 8.44732L18.6968 8.43478L18.6923 8.42225L18.6878 8.40971L18.6833 8.3977L18.6788 8.38516L18.6743 8.37262L18.6698 8.36009L18.6648 8.34807L18.6603 8.33553L18.6552 8.32352L18.6502 8.31151L18.6452 8.29949L18.6397 8.28748L18.6347 8.27546L18.6292 8.26345L18.6237 8.25143L18.6182 8.23994L18.6122 8.22793L18.6067 8.21591L18.6007 8.2039L18.5947 8.19241L18.5887 8.18091L18.5827 8.16942L18.5767 8.15793L18.5706 8.14644L18.5641 8.13495L18.5576 8.12346L18.5511 8.11196L18.5441 8.10047L18.5376 8.0895L18.5311 8.07853L18.5241 8.06756L18.5171 8.05659L18.5101 8.04562L18.5031 8.03465L18.4961 8.02368L18.4891 8.01271L18.4815 8.00227L18.474 7.99182L18.4665 7.98137L18.459 7.97093L18.4515 7.96048L18.4435 7.95003L18.4355 7.93958L18.4275 7.92914L18.4195 7.91869L18.4115 7.90876L18.4029 7.89884L18.3949 7.88892L18.3864 7.87899L18.3779 7.86907L18.3694 7.85914L18.3609 7.84922L18.3524 7.83929L18.3434 7.82989L18.3344 7.82049L18.3254 7.81108L18.3163 7.80168L18.3073 7.79228L18.2978 7.78288L18.2883 7.77347L18.2788 7.76459L18.2693 7.75571L18.2598 7.74683L18.2503 7.73795L18.2408 7.72907L18.2307 7.72019L18.2207 7.71183L18.2107 7.70348L18.2012 7.69512L18.1907 7.68624L18.1862 7.68258L18.1812 7.6784L18.1762 7.67422L18.1712 7.67005L18.1662 7.66587L18.1612 7.66221L18.1562 7.65803L18.1511 7.65385L18.1456 7.64967L18.1401 7.64549L18.1351 7.64132L18.1301 7.63714L18.1251 7.63296L18.1201 7.6293L18.1151 7.62512L18.1096 7.62094L18.1046 7.61729L18.0996 7.61363L18.0941 7.60945L18.0886 7.6058L18.0831 7.60214L18.0781 7.59848L18.0726 7.59483L18.067 7.59117L18.0615 7.58751L18.056 7.58386L18.0505 7.5802L18.045 7.57654L18.0395 7.57289L18.034 7.56923L18.0285 7.56557L18.023 7.56244L18.0175 7.55931L18.011 7.55565L12.3463 4.08774L12.3383 4.08262L12.331 4.07845L12.3235 4.07374L12.316 4.06904L12.3086 4.06471L12.3011 4.06053L12.2939 4.05635L12.2864 4.05217L12.2789 4.04799L12.2713 4.04381L12.264 4.03963L12.2565 4.03546L12.249 4.03128L12.2415 4.0271L12.2339 4.02292L12.2264 4.01874L12.2189 4.01456L12.2113 4.0109L12.2038 4.00673L12.1963 4.00307L12.1887 3.99941L12.1812 3.99523L12.1735 3.99158L12.166 3.98792L12.1585 3.98426L12.1506 3.98061L12.1431 3.97695L12.1356 3.97382L12.1279 3.97016L12.1203 3.9665L12.1128 3.96285L12.105 3.95971L12.0975 3.95658L12.0895 3.95344L12.0818 3.94979L12.0739 3.94665L12.0658 3.943L12.0578 3.93986L12.0501 3.93673L12.0423 3.9336L12.0345 3.93046L12.0265 3.92733L12.0184 3.92419L12.0109 3.92106L12.0034 3.91845L11.9959 3.91583L11.9879 3.9127L11.9799 3.91009L11.9724 3.90748L11.9644 3.90487L11.9564 3.90225L11.9489 3.89964L11.9409 3.89703L11.9328 3.89442L11.9248 3.89181L11.9173 3.88919L11.9093 3.88658L11.9013 3.88397L11.8933 3.88136L11.8853 3.87927L11.8773 3.87666L11.8693 3.87457L11.8613 3.87196L11.8532 3.86987L11.8452 3.86778L11.8372 3.86569L11.8292 3.86308L11.8212 3.86099L11.8132 3.8589L11.8052 3.85733L11.7972 3.85524L11.7892 3.85315L11.7812 3.85106L11.7731 3.84949L11.7651 3.84741L11.7571 3.84584L11.7491 3.84427L11.7411 3.84218L11.7331 3.84061L11.7251 3.83905L11.7171 3.83748L11.7091 3.83591L11.7011 3.83435L11.6931 3.83278L11.6845 3.83121L11.6765 3.83017L11.6685 3.82912L11.6605 3.82808L11.6525 3.82703L11.6445 3.82547L11.6365 3.8239L11.6285 3.82285L11.62 3.82129L11.612 3.82024L11.6039 3.81868L11.5959 3.81763L11.5879 3.81659L11.5799 3.81554L11.5719 3.8145L11.5639 3.81345L11.5554 3.81241L11.5474 3.81188L11.5394 3.81084L11.5314 3.8098L11.5234 3.80927L11.5153 3.80875L11.5073 3.80823L11.4993 3.80771L11.4913 3.80718L11.4828 3.80666L11.4743 3.80614L11.4663 3.80562L11.4583 3.80509H11.4503L11.4423 3.80457L11.4342 3.80405H11.4257L11.4177 3.80353L11.4097 3.803L11.4022 3.80248L11.3942 3.80196H11.3777L11.3697 3.80144H11.3537L11.3456 3.80494Z" fill="#DB2777"/>
<path fill-rule="evenodd" clip-rule="evenodd" d="M19.4597 8.97267V15.3588L19.4587 15.3587V16.1078C19.4587 16.9926 18.9996 17.8081 18.2588 18.239C17.599 18.6225 16.7341 19.1251 15.8398 19.6449C14.6169 20.3555 13.339 21.0982 12.4548 21.6121C11.7495 22.022 10.889 22.0128 10.1921 21.5876L4.9499 18.3901C4.08838 17.8646 3.55875 16.9014 3.55875 15.86V9.32146C3.55875 8.27151 4.08037 7.29678 4.93689 6.74569C6.29682 5.8705 8.3719 4.53534 9.78373 3.62694L9.96738 3.50878C10.7979 2.9744 11.8431 2.9628 12.6846 3.47848L18.3521 6.95323C19.0382 7.37394 19.4597 8.14222 19.4597 8.97267ZM7.53606 7.04465V17.869H9.70634V13.1361H13.3064V17.869H15.483V7.04465H13.3064V10.9874H9.70634V7.04465H7.53606Z" fill="#F472B6"/>
</svg>
