<svg width="24" height="24" viewBox="0 0 24 24" fill="none" xmlns="http://www.w3.org/2000/svg">
<path d="M13.083 2.93701C14.086 3.33701 14.483 4.91701 13.958 6.47601C13.439 8.02801 12.213 8.97301 11.206 8.58001C10.206 8.19101 9.80198 6.60801 10.318 5.04401C10.83 3.48701 12.071 2.55101 13.083 2.93701ZM18.693 6.17601C19.541 6.86401 19.343 8.40301 18.267 9.63301C17.162 10.858 15.597 11.303 14.753 10.628C13.9 9.94801 14.106 8.41301 15.198 7.19201C16.288 5.95801 17.852 5.51201 18.693 6.17601ZM6.80098 4.12201C7.91798 4.25401 8.73098 5.65501 8.66398 7.23801C8.54398 8.82201 7.58898 10.007 6.47998 9.87901C5.37198 9.75201 4.56198 8.36401 4.65298 6.77401C4.74498 5.18401 5.72098 4.00101 6.80098 4.12201ZM20.925 12.277C21.571 13.152 21.035 14.589 19.703 15.463C18.371 16.337 16.765 16.33 16.1 15.433C15.436 14.537 15.984 13.117 17.296 12.221C18.634 11.372 20.253 11.376 20.926 12.277M14.731 19.979C14.337 20.735 13.301 21.224 12.449 21.141C10.673 20.973 9.77898 18.679 8.21898 17.777C6.65698 16.876 4.17598 17.295 3.19898 15.8C2.63498 14.962 2.68298 13.63 3.27398 12.841C4.08998 11.753 5.85698 11.937 7.18298 11.561C8.92798 11.094 10.913 9.46801 12.491 10.378C14.06 11.284 13.709 13.812 14.111 15.562C14.43 17.022 15.415 18.668 14.731 19.979Z" fill="#CFD8DC"/>
</svg>
