<svg width="24" height="24" viewBox="0 0 24 24" fill="none" xmlns="http://www.w3.org/2000/svg">
<path d="M12.3684 22.7341C11.416 22.4142 11.4079 22.408 11.1968 21.8321C11.08 21.5132 10.9206 20.7474 10.8426 20.1305C10.723 19.1828 10.7309 18.8399 10.8932 17.9234C11.2266 16.0426 12.048 14.6023 14.2139 12.101C16.7183 9.20868 17.1551 8.20968 16.6424 6.54624C16.2037 5.12232 15.0275 3.78984 12.6089 1.97688C11.0591 0.815281 10.9939 0.740521 12.0073 1.28856C14.7138 2.75208 16.8511 4.57812 17.5723 6.04308C18.0742 7.06248 18.1879 8.19348 17.892 9.21804C17.5774 10.3072 17.0038 11.296 15.3551 13.5918C13.1114 16.716 12.4591 18.2287 12.5753 20.0386C12.6246 20.8078 12.7129 21.097 13.1758 22.0061C13.8002 23.2325 13.8143 23.2199 12.3684 22.7341ZM10.3535 12.7246C9.83989 11.0956 8.72101 10.0115 6.84793 9.32832C6.35269 9.14772 5.94745 8.97216 5.94745 8.93832C5.94745 8.81508 8.22013 9.04008 8.70505 9.2112C9.91609 9.6384 10.5102 10.5235 10.6009 12.0356C10.6781 13.3228 10.6056 13.5247 10.3534 12.7247L10.3535 12.7246ZM12.3382 10.1618C11.6125 8.19372 10.3991 7.08012 8.28745 6.44412C7.15225 6.10224 7.20097 5.99484 8.44909 6.08808C10.9134 6.27216 11.9786 6.96384 12.4861 8.7096C12.6005 9.10308 12.6647 9.68412 12.6433 10.1333L12.6074 10.892L12.3382 10.1618ZM13.9427 7.176C13.3403 5.79348 12.4897 5.02236 10.8379 4.36152C10.1906 4.10256 10.0219 3.99144 10.1803 3.92856C10.4776 3.8106 11.9522 4.04616 12.4776 4.29552C13.0673 4.57536 13.8074 5.44248 14.0405 6.12672C14.2268 6.67392 14.43 7.95216 14.3304 7.95216C14.303 7.95216 14.1286 7.60296 13.9426 7.17612L13.9427 7.176Z" fill="#F87171"/>
<path d="M11.3496 0.899636C11.3394 0.898556 11.3273 0.896276 11.3068 0.906476C11.2862 0.916676 11.2685 0.951716 11.2704 0.971276C11.274 1.01064 11.2884 1.01628 11.3014 1.03116C11.3534 1.0908 11.4726 1.1874 11.6815 1.34964C11.8903 1.51188 12.185 1.73436 12.5725 2.02488C14.9873 3.83496 16.1519 5.15868 16.5848 6.56376C16.8388 7.38768 16.8574 8.03136 16.5043 8.83896C16.1513 9.64656 15.4193 10.6169 14.1683 12.0617C11.9999 14.5661 11.1692 16.0205 10.8338 17.9129C10.671 18.8315 10.6627 19.1882 10.7827 20.1378C10.8611 20.7588 11.0186 21.5212 11.1401 21.8527C11.2457 22.1408 11.3064 22.3022 11.4677 22.4264C11.6292 22.5508 11.8728 22.6309 12.3491 22.7909C12.7104 22.9123 12.9806 23.0045 13.1768 23.0557C13.275 23.0814 13.3543 23.0972 13.4206 23.1005C13.4868 23.1038 13.5451 23.0957 13.5884 23.0567C13.6316 23.0177 13.6423 22.9568 13.6352 22.8964C13.6282 22.8359 13.606 22.7671 13.5716 22.6829C13.5032 22.5144 13.3849 22.2856 13.2288 21.9791C12.7668 21.0719 12.6839 20.8004 12.6348 20.035C12.5772 19.1382 12.7088 18.3199 13.1348 17.332C13.5608 16.344 14.2826 15.1876 15.4033 13.627C17.053 11.3299 17.632 10.3334 17.9494 9.23496C18.2498 8.19504 18.1337 7.04856 17.6257 6.0168C16.8925 4.52736 14.7488 2.70312 12.0356 1.236C11.782 1.09884 11.5961 1.00068 11.4806 0.947276C11.423 0.920516 11.3903 0.904076 11.3496 0.899636ZM11.6602 1.17564C11.76 1.22724 11.8314 1.26204 11.9784 1.34148C14.6782 2.80128 16.8089 4.62912 17.5181 6.06972C18.0137 7.07652 18.1256 8.19204 17.834 9.20148C17.522 10.2812 16.9536 11.2624 15.3059 13.5569C14.1829 15.1205 13.4567 16.2824 13.0247 17.2843C12.5927 18.2863 12.4564 19.1294 12.5149 20.0426C12.5645 20.8154 12.6581 21.1226 13.122 22.0334C13.2781 22.3402 13.3958 22.5692 13.4604 22.7281C13.4927 22.8076 13.5112 22.8697 13.516 22.9105C13.5208 22.9512 13.5143 22.962 13.5079 22.9676C13.5017 22.9733 13.4778 22.9831 13.4263 22.9805C13.3751 22.9781 13.3014 22.9644 13.2072 22.9397C13.0189 22.8905 12.7488 22.7987 12.3871 22.6772C11.9111 22.5173 11.6743 22.4344 11.5409 22.3316C11.4074 22.2289 11.3582 22.0992 11.2529 21.8114C11.1406 21.5051 10.9792 20.7359 10.9018 20.1228C10.7824 19.1774 10.7898 18.8482 10.9519 17.934C11.2831 16.0646 12.0955 14.6388 14.259 12.1404C15.5123 10.6928 16.251 9.71784 16.6142 8.88696C16.9775 8.05608 16.9582 7.36824 16.6994 6.52872C16.2551 5.08608 15.0671 3.74484 12.6446 1.92912C12.2573 1.63872 11.9627 1.41636 11.7551 1.25508C11.7008 1.21296 11.7029 1.2102 11.6603 1.17588L11.6602 1.17564ZM10.5935 3.84108C10.4022 3.83148 10.2545 3.83436 10.158 3.87276C10.1338 3.88236 10.1122 3.8934 10.0933 3.91284C10.0745 3.93228 10.0609 3.96564 10.0657 3.99552C10.0751 4.0554 10.1173 4.08456 10.1737 4.12152C10.2865 4.19592 10.4905 4.28724 10.8152 4.4172C12.4586 5.0748 13.2901 5.82888 13.8875 7.19988C13.9677 7.3856 14.0526 7.5693 14.142 7.7508C14.1775 7.82184 14.208 7.87956 14.2325 7.92108C14.2446 7.94172 14.255 7.95828 14.2652 7.97184C14.2704 7.97868 14.2752 7.9848 14.2824 7.99152C14.2896 7.99824 14.2967 8.01192 14.3302 8.01192C14.3458 8.01143 14.3609 8.00624 14.3735 7.99704C14.3862 7.98783 14.3957 7.97504 14.401 7.96032C14.4082 7.94157 14.4125 7.92181 14.4137 7.90176C14.4179 7.85952 14.417 7.80576 14.413 7.73976C14.4048 7.60812 14.3827 7.43016 14.3518 7.23504C14.2897 6.84456 14.1926 6.38796 14.097 6.10716C13.8564 5.40096 13.1185 4.53312 12.503 4.24116C12.2273 4.11024 11.7275 3.99072 11.2526 3.91476C11.0152 3.87696 10.7849 3.85056 10.5936 3.84096L10.5935 3.84108ZM10.5875 3.96084C10.7725 3.97008 10.9996 3.99612 11.2336 4.03344C11.7017 4.1082 12.202 4.2312 12.4516 4.34964C13.0154 4.61724 13.7579 5.48376 13.9835 6.14604C14.0743 6.41232 14.1719 6.86844 14.2331 7.25388C14.2637 7.4466 14.2854 7.6224 14.2931 7.74744C14.2939 7.76184 14.2928 7.76724 14.2933 7.7802C14.2786 7.75248 14.2669 7.73268 14.2493 7.69728C14.1797 7.55808 14.0899 7.36476 13.9973 7.15212C13.3901 5.75808 12.5201 4.9698 10.86 4.3056C10.5374 4.1766 10.3334 4.08312 10.2396 4.0212C10.2034 3.99744 10.2007 3.98952 10.1969 3.98712C10.1996 3.98568 10.1987 3.98568 10.2023 3.98424C10.2544 3.9636 10.4022 3.9516 10.5875 3.96084ZM7.73628 5.99604C7.65324 5.99724 7.58868 6.00168 7.53912 6.01044C7.51428 6.01488 7.4934 6.02004 7.47372 6.02868C7.45404 6.03744 7.4322 6.04992 7.41936 6.07824C7.40652 6.10644 7.41528 6.14136 7.42824 6.16068C7.4412 6.18 7.45704 6.19284 7.47576 6.20592C7.51332 6.23208 7.56492 6.2574 7.63476 6.28656C7.7742 6.34488 7.98492 6.41568 8.26956 6.50136C10.369 7.13376 11.5608 8.22792 12.2815 10.1826L12.5508 10.9127L12.6671 10.8948L12.7028 10.1359C12.7244 9.67872 12.6604 9.09576 12.5432 8.69292C12.2869 7.81128 11.8844 7.18548 11.2336 6.76284C10.5827 6.3402 9.69 6.12084 8.45292 6.02844C8.14008 6.00492 7.90212 5.99388 7.73628 5.99628V5.99604ZM7.73808 6.11604C7.89696 6.11388 8.13288 6.12444 8.44404 6.14784C9.67128 6.23952 10.5436 6.45792 11.168 6.86352C11.7928 7.26912 12.1768 7.86228 12.4279 8.72628C12.5395 9.11028 12.604 9.68928 12.5831 10.1303L12.561 10.5941L12.394 10.141C11.6633 8.1594 10.4284 7.02624 8.30436 6.38652C8.02152 6.30132 7.81248 6.23064 7.68084 6.17556C7.63404 6.156 7.6098 6.1416 7.58364 6.12684C7.62168 6.12156 7.66908 6.117 7.73808 6.11604ZM6.3114 8.84484C6.1998 8.8416 6.10788 8.8422 6.04044 8.84784C6.01164 8.8495 5.98308 8.85417 5.95524 8.86176C5.94182 8.86533 5.92917 8.87135 5.91792 8.87952C5.90873 8.88641 5.90118 8.89526 5.89582 8.90543C5.89047 8.9156 5.88744 8.92683 5.88696 8.93832C5.88696 8.97036 5.90088 8.9802 5.90856 8.988C5.91612 8.99592 5.92308 9.00108 5.931 9.0066C5.94684 9.01752 5.96604 9.02856 5.99004 9.04128C6.03828 9.06648 6.10524 9.09768 6.18768 9.13332C6.35244 9.20472 6.57828 9.29388 6.8268 9.3846C8.68788 10.0633 9.78744 11.1302 10.2958 12.7427C10.3594 12.9443 10.4105 13.0823 10.4566 13.1648C10.4796 13.206 10.4946 13.2397 10.5451 13.2551C10.5588 13.2583 10.573 13.2582 10.5867 13.255C10.6003 13.2518 10.613 13.2454 10.6238 13.2365C10.6393 13.2218 10.6506 13.2034 10.6567 13.1831C10.684 13.1072 10.6898 12.9882 10.6897 12.7987C10.6897 12.6091 10.6795 12.3545 10.6602 12.032C10.6144 11.2688 10.4412 10.6582 10.1224 10.1831C9.8034 9.708 9.33936 9.37164 8.7246 9.15468C8.59332 9.10836 8.36088 9.06312 8.07816 9.01968C7.79544 8.97624 7.4652 8.9358 7.14984 8.90448C6.83448 8.87316 6.53448 8.85132 6.3114 8.84484ZM6.3078 8.96484C6.5262 8.9712 6.82464 8.99316 7.13808 9.02412C7.45152 9.0552 7.78008 9.09528 8.0598 9.13824C8.33964 9.18132 8.5734 9.2286 8.68464 9.26784C9.2808 9.4782 9.71904 9.79788 10.0226 10.2502C10.3262 10.7024 10.4954 11.2902 10.5404 12.0391C10.5596 12.3602 10.5696 12.6133 10.5697 12.7987C10.5697 12.9469 10.5589 13.0181 10.5488 13.0736C10.5133 13.0037 10.4676 12.8888 10.4101 12.7066C9.89136 11.061 8.75304 9.95928 6.86796 9.2718C6.62124 9.1818 6.39672 9.09312 6.2352 9.02316C6.18348 9.00072 6.1512 8.98452 6.114 8.96676C6.1692 8.96448 6.2256 8.96244 6.3078 8.96484Z" fill="#F87171"/>
</svg>
