<svg width="24" height="25" viewBox="0 0 24 25" fill="none" xmlns="http://www.w3.org/2000/svg">
<path fill-rule="evenodd" clip-rule="evenodd" d="M7.68179 17.1575C8.90592 17.6095 10.3227 17.8957 11.9352 17.8957C17.1705 17.8957 20.4216 14.8796 21.6884 12.9627C21.8987 12.6444 21.8681 12.2316 21.6223 11.9397C21.2209 11.4629 20.6875 10.9137 20.0401 10.3605L15.8185 12.6823C15.7601 14.6974 14.1082 16.3129 12.0791 16.3129C11.3814 16.3129 10.7283 16.122 10.1693 15.7894L7.68179 17.1575ZM9.45577 9.90485L2.75409 13.5908C2.58076 13.3665 2.42984 13.1499 2.3012 12.9459C2.10508 12.6349 2.13525 12.2396 2.36697 11.9541C3.87994 10.0905 7.39508 7.10431 11.9352 7.10431C12.694 7.10431 13.4265 7.18773 14.1275 7.33539L11.2341 8.92675C10.5507 9.08453 9.93896 9.42953 9.45577 9.90485ZM11.5062 15.0541C11.668 15.087 11.8356 15.1043 12.0071 15.1043C13.0749 15.1043 13.9862 14.435 14.3446 13.493L11.5062 15.0541Z" fill="#64748B"/>
<line x1="2.29572" y1="16.9814" x2="20.9814" y2="6.70428" stroke="#64748B" stroke-width="1.5" stroke-linecap="round"/>
</svg>
