<svg width="24" height="24" viewBox="0 0 24 24" fill="none" xmlns="http://www.w3.org/2000/svg">
<path fill-rule="evenodd" clip-rule="evenodd" d="M19.3385 7.39726C18.9752 9.05755 15.442 16.8989 14.9885 18.6757C14.6664 19.9384 16.3293 21.5236 16.607 20.4857C17.4238 17.4352 21.0632 10.1871 21.2665 8.67761C21.4418 7.37648 19.5161 6.58615 19.3385 7.39726ZM14.9053 13.1515C15.014 13.1241 15.1283 13.128 15.2349 13.1628C15.3415 13.1976 15.4361 13.2619 15.5076 13.3482C15.5792 13.4346 15.6248 13.5394 15.6392 13.6506C15.6536 13.7619 15.6362 13.8749 15.589 13.9766C15.5918 13.978 15.5915 13.9784 15.5915 13.9785C15.4399 14.305 15.2129 14.5909 14.9292 14.8125C14.6455 15.0341 14.3132 15.1852 13.9596 15.2533C13.5537 15.3303 13.0956 15.3944 12.586 15.4429C10.7573 15.6164 8.79582 13.4122 10.1235 13.4739C12.0998 13.5659 13.6755 13.4205 14.9053 13.1515ZM16.8463 11.0802C16.7492 11.3253 16.5928 11.5425 16.3911 11.7124C16.1895 11.8823 15.9489 11.9995 15.6909 12.0536C13.2751 12.5601 9.80191 12.3629 8.08944 11.9476C6.42496 11.544 5.33099 9.12191 6.41182 9.48311C8.92156 10.3218 13.5901 10.5992 16.2325 10.2996C16.3318 10.2859 16.4329 10.2983 16.5259 10.3358C16.6188 10.3733 16.7003 10.4345 16.7623 10.5132C16.8243 10.592 16.8646 10.6856 16.8791 10.7848C16.8937 10.8839 16.8821 10.9852 16.8454 11.0784C16.8467 11.0789 16.8467 11.0789 16.8463 11.0802ZM17.8491 8.23845C17.7697 8.49939 17.6138 8.73043 17.4014 8.90157C17.189 9.07271 16.9301 9.17602 16.6583 9.19809C11.8066 9.54723 5.57409 8.42603 3.7735 6.56896C2.42066 5.17326 2.50747 2.48955 3.27666 3.34233C6.19212 6.57481 13.3587 7.50532 17.2611 7.46424C17.3559 7.46207 17.4499 7.48241 17.5353 7.52359C17.6207 7.56478 17.6951 7.62563 17.7525 7.70115C17.8098 7.77668 17.8484 7.86472 17.8651 7.95806C17.8818 8.0514 17.8762 8.14737 17.8486 8.23809C17.8488 8.23833 17.8488 8.23833 17.8487 8.23845H17.8491Z" fill="#F472B6"/>
</svg>
