<svg width="24" height="24" viewBox="0 0 24 24" fill="none" xmlns="http://www.w3.org/2000/svg">
<path d="M21.353 3.93684L20.8006 6.98573C20.6502 7.07691 20.6398 7.23361 20.7509 7.28527H21.8878C22.0912 7.30786 22.151 6.98283 21.9159 7.02323L21.353 3.93684ZM20.7664 7.32586V9.78286L20.418 9.7852C20.3728 10.0505 20.4579 10.3395 20.6464 10.4646L20.6386 16.2939C20.4117 16.3467 20.3387 16.6118 20.6067 16.6786L20.4038 18.4809L20.1891 18.481V16.6407H19.573L19.5583 12.9045C19.7625 12.7334 19.6941 12.5458 19.7126 12.3481H19.5153L19.4998 10.6583C19.5898 10.5912 19.6451 10.4138 19.4895 10.398L19.1088 8.30311C19.0753 8.25759 19.0453 8.27625 19.0264 8.30311L18.6761 10.3931C18.4852 10.4533 18.5154 10.5373 18.6315 10.6025L18.6403 12.3703C18.6403 12.3703 18.4705 12.3719 18.4079 12.375C18.3701 12.6936 18.5394 12.86 18.5394 12.86L18.5248 15.3881L17.8839 15.3954V15.0471H17.4408L17.4432 14.0088H17.579C17.579 14.0088 17.5937 13.9062 17.5469 13.9047C17.5211 13.9039 17.487 13.9042 17.4434 13.9041L17.4463 12.7185L16.6347 12.7222V12.549H16.3489C15.6558 11.1026 14.2802 10.1919 12.4732 10.076H12.4707L12.4723 9.81183C12.4499 9.70552 12.4025 9.6053 12.2832 9.49898C12.2832 9.49898 12.2825 9.46167 12.2832 9.40594C12.2923 9.4043 12.3268 9.40538 12.3401 9.38128L12.3363 9.27689C12.3363 9.27689 12.3298 9.23503 12.2798 9.22088C12.3052 9.04603 12.2441 9.04936 12.2441 9.04936L12.2472 8.98209C12.2903 8.93958 12.3045 8.85375 12.2391 8.8553C12.2391 8.8553 12.2414 8.66367 12.211 8.65608C12.1806 8.64848 12.1688 8.81686 12.1688 8.81686C12.122 8.84466 12.1035 8.93302 12.1571 8.9872L12.1426 9.21797C12.0961 9.26859 12.0725 9.32934 12.1331 9.39422L12.1391 9.48492C12.0306 9.52636 11.9396 9.71991 11.9345 9.80231L11.9323 10.0687C10.3251 10.1725 8.73913 11.025 8.08419 12.5454L7.78077 12.5477L7.78189 12.7224L6.94353 12.725V13.9121C6.90819 13.9118 6.88096 13.9113 6.85391 13.9121C6.80713 13.9136 6.78955 14.0175 6.78955 14.0175H6.94353V15.0651L6.55049 15.0596V15.3945L5.43763 15.39L5.41457 12.9202C5.5738 12.718 5.55974 12.6018 5.55824 12.3571H5.37847L5.3511 10.5855C5.4995 10.5399 5.50906 10.3628 5.35414 10.3365L4.9536 8.26908C4.94956 8.25183 4.94108 8.23477 4.92819 8.23744C4.92046 8.23908 4.91113 8.2478 4.90021 8.26777L4.54185 10.3481C4.32256 10.4471 4.40422 10.5356 4.48372 10.5876L4.48761 12.3571H4.23992C4.24203 12.5209 4.17913 12.7214 4.40539 12.9134L4.4128 16.6397H3.73996L3.7528 18.4857L3.53656 18.4858L3.36594 16.6667C3.66814 16.5858 3.54908 16.3627 3.35633 16.2918C3.35633 16.2918 3.36758 10.7015 3.35071 10.5271C3.33388 10.353 3.5585 10.3305 3.5585 9.95962C3.60257 9.70308 3.33828 9.77892 3.22541 9.77362V7.33144H2.04228V9.77419C1.91722 9.77241 1.82267 9.77184 1.80561 9.77428C1.72696 9.78553 1.71008 9.91472 1.73811 10.1282C1.76624 10.3418 1.93217 10.4809 1.93217 10.4809L1.9625 16.1635C1.97642 16.3549 1.90199 16.3298 1.82811 16.348C1.68252 16.3713 1.71852 16.6513 1.91235 16.6513C1.94328 16.921 1.54156 20.045 1.54156 20.045L22.4581 20.063L22.0609 16.6622C22.3893 16.6234 22.2569 16.2955 22.0124 16.3011L22.0071 10.4881C22.1111 10.4314 22.3216 10.149 22.2145 9.77325L21.9091 9.77531V7.32591L20.7664 7.32586ZM12.11 12.8355C12.2173 12.8387 12.3215 12.9132 12.3528 13.0454V13.8131H11.8322L11.8489 13.0536C11.8923 12.9005 12.0027 12.8324 12.11 12.8355V12.8355ZM10.2682 12.8366C10.3831 12.8344 10.5025 12.9218 10.5346 13.0713V13.8129L10.0383 13.8108L10.0518 13.0172C10.0924 12.8943 10.1789 12.8383 10.2682 12.8366V12.8366ZM15.094 12.8407C15.1864 12.8491 15.2698 12.9282 15.2939 13.0699V13.8179H14.8419L14.8404 13.0349C14.9003 12.8943 15.0016 12.8322 15.094 12.8407V12.8407ZM12.7286 12.8408C12.8364 12.8454 12.9398 12.9184 12.9683 13.0513V13.8163L12.4554 13.8142L12.4621 13.0406C12.5085 12.9001 12.6208 12.8363 12.7286 12.8409V12.8408ZM9.68731 12.8416C9.79063 12.8362 9.89877 12.9066 9.93388 13.0353V13.8131H9.47816L9.49157 13.0003C9.52949 12.8959 9.60697 12.8458 9.68731 12.8416ZM16.7209 12.8429C16.8002 12.8487 16.8785 12.9148 16.925 13.0679L16.9213 13.284C16.6211 13.2802 16.6348 13.3307 16.4835 13.4338L16.4756 13.0635C16.5154 12.9279 16.619 12.8355 16.7209 12.8429ZM9.11357 12.8439C9.21688 12.8385 9.32502 12.909 9.36013 13.0377V13.8156H8.90441L8.91781 13.0026C8.95574 12.8982 9.03322 12.8482 9.11357 12.8439ZM11.4726 12.8439C11.5838 12.8385 11.6972 12.909 11.7154 13.0377V13.8156H11.2497L11.2632 13.0026C11.3011 12.8982 11.3861 12.8482 11.4726 12.8439ZM13.2932 12.8439C13.4018 12.8385 13.5155 12.909 13.5525 13.0377V13.8156H13.0732L13.0873 13.0026C13.1272 12.8982 13.2087 12.8482 13.2931 12.8439H13.2932ZM15.622 12.8454C15.7254 12.841 15.83 12.9127 15.8482 13.0413V13.8193L15.4104 13.8155L15.4238 13.0026C15.4618 12.8982 15.5415 12.8489 15.622 12.8454V12.8454ZM8.0376 12.846C8.12666 12.8524 8.21024 12.9245 8.24731 13.0528L8.25139 13.8236H8.09464C8.08199 13.7232 8.05485 13.4683 7.88239 13.43C7.87114 13.3802 7.82446 13.3512 7.79427 13.3309L7.79539 13.0335C7.85408 12.8989 7.94853 12.8396 8.0376 12.846V12.846ZM8.55374 12.8462C8.65705 12.8408 8.76519 12.9113 8.8003 13.04V13.8179H8.34458L8.35808 13.005C8.396 12.9007 8.47339 12.8505 8.55374 12.8462ZM10.8405 12.8462C10.9438 12.8408 11.0519 12.9113 11.087 13.04V13.8179H10.6313L10.6448 13.005C10.6828 12.9007 10.7601 12.8505 10.8405 12.8462ZM16.1622 12.8481C16.2622 12.842 16.3605 12.917 16.4055 13.0335L16.4067 13.5214C16.3764 13.5418 16.326 13.6174 16.3253 13.7433C16.2921 13.7685 16.2616 13.7863 16.2621 13.8236H15.9495V13.028C16.0055 12.9066 16.0844 12.8528 16.1622 12.8481ZM13.9333 12.8496C14.0262 12.8544 14.1105 12.9284 14.138 13.0615L14.1267 13.8131H13.6709L13.6769 13.0526C13.739 12.909 13.8405 12.8447 13.9333 12.8496V12.8496ZM7.49225 12.8554C7.58089 12.8494 7.67061 12.8943 7.7068 13.003V13.305H7.27944L7.28356 13.0127C7.31591 12.9182 7.40357 12.8613 7.49225 12.8554ZM14.4987 12.8588C14.6034 12.8593 14.7084 12.931 14.7276 13.0714V13.813L14.271 13.8108V13.0733C14.2893 12.9291 14.3939 12.8584 14.4987 12.8588ZM8.11288 14.0188H8.27094V15.053H8.11288V14.0188ZM16.1163 14.0188H16.2744V15.053H16.1163V14.0188ZM7.48428 14.6646H7.59575V15.3773H7.48428V14.6646ZM16.8096 14.6646H16.9212V15.3773H16.8096V14.6646ZM8.57178 15.0721H8.6975V19.6914H8.57178V15.0721ZM15.6851 15.0723H15.8418V19.6911H15.6851V15.0723ZM12.1418 15.8815C12.3257 15.8777 12.5107 15.9976 12.5158 16.2522V17.4294H11.7783L11.7741 16.2521C11.7751 16.0125 11.9579 15.8851 12.1418 15.8814L12.1418 15.8815ZM11.2376 16.404C11.3755 16.4028 11.5142 16.4929 11.5181 16.681V17.4101H10.9619V16.6746C10.9626 16.4976 11.0998 16.4051 11.2376 16.404ZM13.0479 16.404C13.1858 16.4028 13.3245 16.4929 13.3284 16.681V17.4101H12.7723V16.6746C12.7729 16.4976 12.9101 16.4051 13.0479 16.404ZM7.48433 16.4508H7.59636V16.8189H7.48433V16.4508ZM16.8096 16.4508H16.9217V16.8189H16.8096V16.4508ZM7.48574 17.8188H7.59767V18.2005H7.48574V17.8188ZM16.811 17.8188H16.9231V18.2005H16.811V17.8188ZM9.37105 18.0152C9.49011 18.0141 9.60983 18.1042 9.61316 18.2923V19.0217H9.13311V18.286C9.13367 18.1088 9.25199 18.0164 9.37105 18.0152ZM10.3063 18.0269C10.4253 18.0258 10.5449 18.1159 10.5483 18.304V19.0334H10.0682V18.2977C10.0688 18.1206 10.1872 18.0281 10.3063 18.0269ZM11.2312 18.0329C11.3604 18.0317 11.4903 18.1219 11.4939 18.31V19.0393H10.973V18.3037C10.9736 18.1266 11.102 18.034 11.2312 18.0329ZM12.1546 18.0329C12.2838 18.0317 12.4137 18.1219 12.4173 18.31V19.0393H11.8963V18.3037C11.897 18.1266 12.0254 18.034 12.1546 18.0329ZM13.0545 18.0329C13.1837 18.0317 13.3137 18.1219 13.3173 18.31V19.0393H12.7962V18.3037C12.7968 18.1266 12.9253 18.034 13.0545 18.0329ZM14.0073 18.0329C14.1365 18.0317 14.2665 18.1219 14.2701 18.31V19.0393H13.749V18.3037C13.7496 18.1266 13.8781 18.034 14.0073 18.0329ZM14.9236 18.0329C15.0528 18.0317 15.1828 18.1219 15.1864 18.31V19.0393H14.6653V18.3037C14.6659 18.1266 14.7944 18.034 14.9236 18.0329H14.9236ZM2.6691 3.99005L2.11677 7.00003C1.96635 7.09003 1.95589 7.24472 2.06703 7.29581H3.20389C3.40733 7.31808 3.4581 6.99722 3.22297 7.00106L2.6691 3.99005Z" fill="#71717A"/>
</svg>
