<svg width="24" height="24" viewBox="0 0 24 24" fill="none" xmlns="http://www.w3.org/2000/svg">
<path d="M17.7781 7.74701V9.74701H19.7781V19.747H9.77808V17.747H7.77808V21.747H21.7781V7.74701H17.7781Z" fill="#FBBF24"/>
<path d="M6.15784 6.99995H7.82971V12.5781C7.82971 13.0937 7.71383 13.5416 7.48206 13.9218C7.25289 14.302 6.93388 14.595 6.52502 14.8007C6.11617 15.0065 5.64091 15.1093 5.09924 15.1093C4.61747 15.1093 4.17997 15.0247 3.78674 14.8554C3.39612 14.6835 3.08622 14.4231 2.85706 14.0742C2.62789 13.7226 2.51461 13.2812 2.51721 12.75H4.20081C4.20601 12.9609 4.24898 13.1419 4.32971 13.2929C4.41305 13.4414 4.52633 13.5559 4.66956 13.6367C4.81539 13.7148 4.98726 13.7539 5.18518 13.7539C5.39351 13.7539 5.5693 13.7096 5.71252 13.621C5.85836 13.5299 5.96904 13.3971 6.04456 13.2226C6.12008 13.0481 6.15784 12.8333 6.15784 12.5781V6.99995ZM13.568 9.30074C13.5367 8.98563 13.4026 8.74084 13.1656 8.56636C12.9287 8.39188 12.6071 8.30464 12.2008 8.30464C11.9248 8.30464 11.6917 8.3437 11.5016 8.42183C11.3115 8.49735 11.1656 8.60282 11.0641 8.73824C10.9651 8.87365 10.9156 9.0273 10.9156 9.19917C10.9104 9.3424 10.9404 9.4674 11.0055 9.57417C11.0732 9.68094 11.1656 9.77339 11.2828 9.85152C11.4 9.92704 11.5354 9.99344 11.6891 10.0507C11.8427 10.1054 12.0068 10.1523 12.1813 10.1914L12.9 10.3632C13.249 10.4414 13.5693 10.5455 13.861 10.6757C14.1526 10.8059 14.4052 10.9661 14.6188 11.1562C14.8323 11.3463 14.9977 11.5703 15.1149 11.8281C15.2347 12.0859 15.2959 12.3815 15.2985 12.7148C15.2959 13.2044 15.1709 13.6289 14.9235 13.9882C14.6787 14.345 14.3245 14.6224 13.861 14.8203C13.4 15.0156 12.844 15.1132 12.193 15.1132C11.5472 15.1132 10.9847 15.0143 10.5055 14.8164C10.0289 14.6184 9.65653 14.3255 9.38831 13.9375C9.12268 13.5468 8.98336 13.0638 8.97034 12.4882H10.6071C10.6253 12.7565 10.7021 12.9804 10.8375 13.1601C10.9755 13.3372 11.1591 13.4713 11.3883 13.5625C11.6201 13.651 11.8818 13.6953 12.1735 13.6953C12.4599 13.6953 12.7086 13.6536 12.9196 13.5703C13.1331 13.4869 13.2985 13.371 13.4156 13.2226C13.5328 13.0742 13.5914 12.9036 13.5914 12.7109C13.5914 12.5312 13.538 12.3802 13.4313 12.2578C13.3271 12.1354 13.1735 12.0312 12.9703 11.9453C12.7698 11.8593 12.5237 11.7812 12.2321 11.7109L11.361 11.4921C10.6865 11.3281 10.1539 11.0716 9.76331 10.7226C9.37268 10.3737 9.17867 9.9036 9.18127 9.31245C9.17867 8.82808 9.30758 8.4049 9.56799 8.04292C9.83101 7.68094 10.1917 7.39839 10.65 7.19527C11.1084 6.99214 11.6292 6.89058 12.2125 6.89058C12.8063 6.89058 13.3245 6.99214 13.7672 7.19527C14.2125 7.39839 14.5589 7.68094 14.8063 8.04292C15.0537 8.4049 15.1813 8.82417 15.1891 9.30074H13.568Z" fill="#FBBF24"/>
</svg>
