<svg width="24" height="25" viewBox="0 0 24 25" fill="none" xmlns="http://www.w3.org/2000/svg">
<path d="M14.4203 7.95288L13.2518 10.4149C13.6357 10.786 13.9066 11.2749 14.0138 11.8285H14.8944C14.996 11.3043 15.2444 10.8331 15.6 10.4679L14.4203 7.95288Z" fill="#F472B6"/>
<path d="M12.2696 9.82003L14.4202 5.28469L16.5652 9.84948C16.6499 9.82003 16.7345 9.79647 16.8192 9.7729L18.8569 3.5H9.97792L12.01 9.75523C12.0947 9.7729 12.185 9.79647 12.2696 9.82003ZM11.5302 13.8312C12.3148 13.8312 12.9526 13.1656 12.9526 12.3469C12.9526 12.0465 12.868 11.7696 12.7212 11.534C12.6761 11.4575 12.6196 11.3868 12.5632 11.322L12.5575 11.3161C12.5011 11.2513 12.4333 11.1924 12.3656 11.1453L12.36 11.1394C12.343 11.1276 12.3204 11.1099 12.2979 11.0982C12.2922 11.0982 12.2922 11.0923 12.2866 11.0923C12.264 11.0805 12.2414 11.0628 12.2188 11.051H12.2132C12.1906 11.0393 12.1624 11.0216 12.1398 11.0098H12.1342C12.1116 10.998 12.089 10.9863 12.0664 10.9804C12.0608 10.9804 12.0551 10.9745 12.0495 10.9745C12.0326 10.9686 12.01 10.9568 11.9931 10.9509C11.9874 10.9509 11.9818 10.945 11.9705 10.945C11.9479 10.9391 11.9253 10.9274 11.9027 10.9215H11.8971C11.8689 10.9156 11.8463 10.9097 11.8181 10.9038C11.8124 10.9038 11.8068 10.9038 11.7955 10.8979C11.7729 10.892 11.756 10.892 11.7334 10.8861C11.7221 10.8861 11.7165 10.8861 11.7052 10.8802C11.6882 10.8802 11.6657 10.8743 11.6487 10.8743H11.4286C11.406 10.8743 11.3891 10.8802 11.3665 10.8802H11.3439C11.3213 10.8861 11.2988 10.8861 11.2762 10.892H11.2593C11.231 10.8979 11.2085 10.9038 11.1802 10.9097C10.5593 11.0687 10.0965 11.6577 10.0965 12.3527C10.1077 13.1597 10.7456 13.8312 11.5302 13.8312ZM17.5135 10.8626H17.5022C17.4796 10.8626 17.4627 10.8567 17.4401 10.8567H17.3667C17.3385 10.8567 17.3103 10.8567 17.2764 10.8626H17.2482C17.2256 10.8626 17.2031 10.8685 17.1805 10.8685C17.1748 10.8685 17.1635 10.8685 17.1579 10.8743L17.0732 10.892H17.0676C17.0394 10.8979 17.0168 10.9038 16.9886 10.9097C16.9829 10.9097 16.9716 10.9156 16.966 10.9156C16.9434 10.9215 16.9208 10.9274 16.8982 10.9391C16.8926 10.9391 16.887 10.945 16.8813 10.945C16.8531 10.9568 16.8249 10.9686 16.8023 10.9804C16.7741 10.9921 16.7515 11.0039 16.7233 11.0157C16.7176 11.0157 16.712 11.0216 16.7063 11.0216C16.6837 11.0334 16.6612 11.0452 16.6386 11.0628C16.6386 11.0628 16.6329 11.0628 16.6329 11.0687C16.5821 11.0982 16.5313 11.1335 16.4862 11.1747L16.4805 11.1806C16.4072 11.2395 16.3451 11.3043 16.283 11.375C16.2209 11.4457 16.1701 11.5281 16.1249 11.6106C16.0064 11.8285 15.9387 12.0818 15.9387 12.3469C15.9387 13.1656 16.5765 13.8312 17.3611 13.8312C18.1457 13.8312 18.7835 13.1656 18.7835 12.3469C18.7835 11.6283 18.2868 11.0216 17.6377 10.8861C17.6038 10.8743 17.5587 10.8685 17.5135 10.8626ZM5.63155 13.8312C6.41616 13.8312 7.054 13.1656 7.054 12.3469C7.054 11.5281 6.41616 10.8626 5.63155 10.8626C4.84695 10.8626 4.20911 11.5281 4.20911 12.3469C4.20911 13.1656 4.84695 13.8312 5.63155 13.8312Z" fill="#F472B6"/>
<path d="M17.3724 14.9797C16.1983 14.9797 15.2105 14.1374 14.9283 13.0065H13.98C13.6977 14.1374 12.7099 14.9797 11.5359 14.9797C11.4004 14.9797 11.2706 14.9679 11.1464 14.9503C10.819 15.4745 10.4295 15.9575 9.97229 16.4051C9.16511 17.2003 8.25068 17.7893 7.26286 18.1603L7.03143 18.2487L6.81694 18.1309C5.63157 17.4948 5.02195 16.2048 5.23644 14.9562C5.10097 14.9326 4.97114 14.8973 4.84696 14.8501C4.82438 14.8914 4.80745 14.9385 4.78487 14.9856C4.42361 15.7631 4.04542 16.5641 3.90995 17.4241C3.76319 18.3429 3.7011 20.0216 4.94292 20.9169C5.48481 21.3056 6.05491 21.5 6.69276 21.5C7.91764 21.5 9.23849 20.8168 10.6384 20.0923C11.7334 19.5268 12.8623 18.9378 14.0364 18.6374C14.4824 18.5255 14.9339 18.4548 15.3686 18.3901C16.1645 18.2723 16.9208 18.1545 17.5361 17.7834C18.1909 17.3887 18.6368 16.7291 18.761 15.9751C18.84 15.5157 18.7949 15.0504 18.6481 14.6204C18.2755 14.8442 17.8409 14.9797 17.3724 14.9797Z" fill="#F472B6"/>
</svg>
