<svg width="24" height="24" viewBox="0 0 24 24" fill="none" xmlns="http://www.w3.org/2000/svg">
<path d="M11.9999 3.36C10.0602 3.36218 8.17759 4.01692 6.65508 5.21884C5.13258 6.42077 4.05872 8.09998 3.60634 9.98624C4.30781 9.05946 5.47739 8.26923 6.96969 7.71377C8.462 7.15831 10.2112 6.86212 11.9999 6.862C13.7925 6.86315 15.5448 7.16163 17.0381 7.72021C18.5314 8.27878 19.6996 9.07271 20.3967 10.0029C19.9475 8.11299 18.8745 6.42959 17.3511 5.22434C15.8276 4.01909 13.9425 3.36236 11.9999 3.36ZM3.60315 14.0008C4.05243 15.8907 5.12536 17.5741 6.64881 18.7794C8.17227 19.9846 10.0574 20.6414 11.9999 20.6438C13.9397 20.6416 15.8223 19.9868 17.3448 18.7849C18.8673 17.583 19.9412 15.9038 20.3936 14.0175C19.6921 14.9443 18.5225 15.7345 17.0302 16.29C15.5379 16.8455 13.7887 17.1416 11.9999 17.1418C10.2073 17.1406 8.45505 16.8421 6.96176 16.2836C5.46847 15.725 4.30033 14.931 3.60315 14.0008Z" fill="#F57C00"/>
<path d="M4.92002 23.1542C5.91974 23.1542 6.73018 22.3437 6.73018 21.344C6.73018 20.3443 5.91974 19.5338 4.92002 19.5338C3.9203 19.5338 3.10986 20.3443 3.10986 21.344C3.10986 22.3437 3.9203 23.1542 4.92002 23.1542Z" fill="#9E9E9E"/>
<path d="M3.704 5.21736C4.43818 5.21736 5.03335 4.62218 5.03335 3.888C5.03335 3.15381 4.43818 2.55864 3.704 2.55864C2.96981 2.55864 2.37463 3.15381 2.37463 3.888C2.37463 4.62218 2.96981 5.21736 3.704 5.21736Z" fill="#616161"/>
<path d="M19.344 4.36904C20.2813 4.36904 21.041 3.60925 21.041 2.672C21.041 1.73475 20.2813 0.97496 19.344 0.97496C18.4068 0.97496 17.647 1.73475 17.647 2.672C17.647 3.60925 18.4068 4.36904 19.344 4.36904Z" fill="#757575"/>
</svg>
