<svg width="24" height="24" viewBox="0 0 24 24" fill="none" xmlns="http://www.w3.org/2000/svg">
<path d="M3.00212 21.3782C2.63155 21.2152 2.62551 21.1609 2.62551 18.7833V16.641H7.34793V21.4687H5.27366C3.63578 21.4626 3.15155 21.4446 3.00212 21.3782ZM8.24453 19.0549V16.641H12.967V21.4687H8.24453V19.0549ZM8.18483 12.2719C8.18483 8.33128 8.19676 8.12602 8.51955 7.0941C8.83042 6.09844 9.41027 5.15703 10.1754 4.40869C11.3889 3.21989 12.8176 2.60435 14.5212 2.53799C15.7765 2.48968 16.7629 2.7069 17.8389 3.2621C21.7722 5.31391 22.5912 10.7692 19.4469 13.9495C18.341 15.0659 16.9422 15.7116 15.3282 15.8565C14.9695 15.8866 13.2121 15.9168 11.4307 15.9168H8.18491L8.18483 12.2719ZM12.8475 11.0589V8.37349H10.5759V13.7443H12.8474L12.8475 11.0589ZM15.8961 11.8434V9.94248H13.6245V13.7444H15.8961V11.8434ZM18.9448 10.3045V6.86492H16.6732V13.7444H18.9448V10.3045ZM2.62551 13.4124V10.9684H7.34793V15.8565H2.62551V13.4124Z" fill="#60A5FA"/>
</svg>
