<svg width="24" height="24" viewBox="0 0 24 24" fill="none" xmlns="http://www.w3.org/2000/svg">
<path d="M7.56997 8.21001C7.15997 8.29001 6.57997 8.27001 6.30997 8.27001C5.90997 8.27001 5.03997 7.79001 4.55997 7.29001C4.30997 7.03001 3.84997 6.47001 3.54997 6.04001C3.23997 5.61001 2.92997 5.26001 2.83997 5.26001C2.66997 5.26001 2.55997 5.86001 2.54997 6.86001C2.54997 6.98001 2.53997 7.08001 2.53997 7.17001L2.54997 7.20001L2.40997 15.67C2.67997 15.74 2.94997 15.8 3.22997 15.86C3.80997 15.98 4.28997 16.08 4.30997 16.09C4.31997 16.11 4.11997 16.43 3.85997 16.8C2.90997 18.15 2.71997 18.8 3.25997 18.8C3.42997 18.8 3.78997 18.73 4.07997 18.63C4.40997 18.53 5.00997 18.47 5.65997 18.47C6.99997 18.47 8.33997 18.8 10.03 19.55C11.64 20.26 12.17 20.43 14.03 20.8C14.88 20.98 15.62 21.17 15.67 21.21C15.72 21.26 15.6 21.43 15.39 21.59C15.18 21.75 15.01 21.92 15.01 21.96C15.01 22 15.23 22 15.52 21.95C15.79 21.91 16.41 21.81 16.88 21.76C18.31 21.58 19.33 20.94 19.35 20.2C19.39 19.26 19.1 17.17 18.92 17.06C18.9 17.05 18.54 17.17 18.46 17.3C18.39 17.43 18.3 17.63 18.21 17.86C18.03 18.32 18.06 18.42 16.64 18.52C15.61 18.57 14.62 18.33 13.82 17.87C13.15 17.48 12.16 17.13 11.64 16.33C11.22 15.68 10.78 14.61 10.86 14.46C10.89 14.42 11.03 14.43 11.18 14.48C11.57 14.63 12.14 14.86 13.91 14.63C15.45 14.43 16.91 14.59 17.3 14.79C17.69 14.99 18.22 15.26 18.24 15.78C18.25 16.3 18.57 16.41 18.6 16.41C18.77 16.38 19.19 14.99 19.43 14.58C19.63 14.26 19.74 14.08 20.53 13.54C21.15 13.11 21.66 12.71 21.64 12.64C21.63 12.58 21.28 12.17 20.87 11.72C20.22 11.02 20.04 10.9 19.45 10.7C17.4 10.03 15.22 8.58001 14.09 7.16001C12.84 5.58001 12.49 5.22001 11.59 4.63001C10.58 3.96001 9.26997 3.39001 8.28997 3.20001C7.28997 3.01001 7.56997 3.33001 7.99997 4.00001C9.52997 5.75001 9.48997 5.81001 9.48997 6.97001C9.32997 7.87001 8.48997 8.00001 7.56997 8.21001ZM10.74 9.24001C10.91 9.24001 11.32 9.35001 12.03 9.59001C13.77 10.17 13.87 10.44 14.44 11.44C14.57 11.66 14.66 11.85 14.65 11.86C14.64 11.87 14.48 11.91 14.3 11.95C13.85 12.04 13.14 12.04 12.72 11.95C11.96 11.79 12 11.76 11.61 11.38C11.45 11.22 11.26 10.96 11.2 10.82C11.16 10.72 11.17 10.7 11.39 10.52C11.44 10.48 11.49 10.41 11.49 10.37C11.49 10.3 11.27 10 11.15 9.90001C11.02 9.79001 10.66 9.36001 10.66 9.31001C10.66 9.28001 10.69 9.26001 10.76 9.26001L10.74 9.24001Z" fill="#60A5FA"/>
</svg>
