<svg width="24" height="25" viewBox="0 0 24 25" fill="none" xmlns="http://www.w3.org/2000/svg">
<path fill-rule="evenodd" clip-rule="evenodd" d="M7 10.4999H17C18.6569 10.4999 20 11.843 20 13.4999V18.4999C20 20.1567 18.6569 21.4999 17 21.4999H7C5.34314 21.4999 4 20.1567 4 18.4999V13.4999C4 11.843 5.34315 10.4999 7 10.4999ZM7 12.4999C6.44772 12.4999 6 12.9476 6 13.4999V18.4999C6 19.0521 6.44772 19.4999 7 19.4999H17C17.5523 19.4999 18 19.0521 18 18.4999V13.4999C18 12.9476 17.5523 12.4999 17 12.4999H7Z" fill="#64748B"/>
<path fill-rule="evenodd" clip-rule="evenodd" d="M16.2689 5.43151C15.3544 4.11181 13.6806 3.57502 12.3531 3.5078C10.9524 3.43688 9.15252 3.84359 7.98517 5.34102C7.49028 5.97585 7.2821 6.74826 7.17477 7.32773C7.05797 7.95833 7.01207 8.6481 7.00214 9.31526C6.99154 10.0276 7.02146 10.7772 7.07178 11.4996H9.07693C8.93005 9.50977 8.94468 7.36318 9.5625 6.57066C10.8281 4.94717 13.7812 5.35304 14.625 6.57066C15.0474 7.18022 15.0469 9.41728 14.941 11.4996H16.9435C16.9827 10.7007 17.0069 9.87263 16.9983 9.10987C16.9911 8.47564 16.961 7.83892 16.8867 7.28085C16.8271 6.8334 16.6993 6.05268 16.2689 5.43151Z" fill="#64748B"/>
</svg>
