<svg width="24" height="24" viewBox="0 0 24 24" fill="none" xmlns="http://www.w3.org/2000/svg">
<path d="M13.921 16.802H7.19799V14.882H13.921M16.802 12.96H7.19799V11.04H16.802M16.802 9.118H7.19799V7.198H16.802M18.723 3.356H5.27699C4.21099 3.356 3.35699 4.211 3.35699 5.276V18.723C3.35699 19.2322 3.55928 19.7206 3.91935 20.0806C4.27942 20.4407 4.76778 20.643 5.27699 20.643H18.723C18.9752 20.6431 19.225 20.5936 19.4581 20.4971C19.6911 20.4007 19.9029 20.2593 20.0813 20.081C20.2597 19.9027 20.4012 19.691 20.4977 19.458C20.5943 19.225 20.644 18.9752 20.644 18.723V5.277C20.6441 5.02478 20.5946 4.775 20.4981 4.54194C20.4017 4.30888 20.2603 4.09711 20.082 3.91871C19.9037 3.74032 19.692 3.5988 19.459 3.50225C19.226 3.4057 18.9762 3.356 18.724 3.356H18.723Z" fill="#CDDC39"/>
</svg>
