<svg width="24" height="24" viewBox="0 0 24 24" fill="none" xmlns="http://www.w3.org/2000/svg">
<path d="M3.40299 2.47C2.85664 2.47 2.33267 2.68704 1.94635 3.07336C1.56002 3.45969 1.34299 3.98366 1.34299 4.53V16.894C1.34299 17.4403 1.56002 17.9643 1.94635 18.3506C2.33267 18.737 2.85664 18.954 3.40299 18.954H11.386L13.144 20.608C13.1975 20.6578 13.2668 20.6872 13.3398 20.6908C13.4128 20.6945 13.4848 20.6722 13.543 20.628L14.813 19.604C15.201 19.752 15.581 19.831 15.979 19.87L16.666 21.359C16.6979 21.4238 16.7519 21.4752 16.8182 21.5039C16.8845 21.5327 16.9588 21.537 17.028 21.516L19.362 20.812C19.4317 20.7906 19.4915 20.7452 19.5309 20.6839C19.5702 20.6226 19.5866 20.5493 19.577 20.477L19.332 18.857C19.483 18.732 19.628 18.602 19.766 18.455C19.904 18.308 20.028 18.148 20.153 17.98L21.773 18.137C21.8456 18.1417 21.9175 18.1207 21.9762 18.0778C22.0348 18.0348 22.0765 17.9726 22.094 17.902L22.648 15.528C22.666 15.4573 22.6577 15.3825 22.6246 15.3176C22.5914 15.2526 22.5358 15.2019 22.468 15.175L20.943 14.58C20.881 14.186 20.766 13.8021 20.601 13.439L21.543 12.105C21.5834 12.044 21.6009 11.9707 21.5925 11.8981C21.5841 11.8254 21.5503 11.7581 21.497 11.708L19.887 10.199V4.531C19.887 3.98466 19.67 3.46069 19.2836 3.07436C18.8973 2.68804 18.3733 2.471 17.827 2.471L3.40299 2.47ZM3.40299 6.591H17.826V10.974C17.516 10.874 17.206 10.806 16.886 10.77L16.196 9.287C16.1644 9.22137 16.1102 9.16939 16.0433 9.14071C15.9763 9.11202 15.9013 9.10857 15.832 9.131L13.498 9.835C13.4277 9.85508 13.3671 9.90004 13.3276 9.9615C13.288 10.023 13.2722 10.0967 13.283 10.169L13.543 11.775C13.383 11.909 13.231 12.045 13.093 12.191C12.9588 12.3364 12.8339 12.49 12.719 12.651L11.088 12.509C11.0152 12.5025 10.9425 12.5227 10.8836 12.566C10.8246 12.6093 10.7835 12.6726 10.768 12.744L10.212 15.119C10.1955 15.1895 10.2046 15.2635 10.2375 15.328C10.2705 15.3924 10.3252 15.4431 10.392 15.471L11.921 16.061C11.967 16.346 12.044 16.621 12.142 16.894H3.40299V6.591ZM16.394 13.187C16.9491 13.1778 17.4861 13.3851 17.891 13.765C18.0957 13.9569 18.2606 14.1872 18.3763 14.4429C18.492 14.6985 18.5562 14.9745 18.5652 15.2549C18.5742 15.5354 18.5279 15.8148 18.4288 16.0774C18.3298 16.3399 18.18 16.5804 17.988 16.785C17.6001 17.1975 17.0644 17.439 16.4984 17.4567C15.9325 17.4743 15.3828 17.2665 14.97 16.879C14.5571 16.4915 14.315 15.956 14.2968 15.3901C14.2786 14.8242 14.4858 14.2742 14.873 13.861C15.0685 13.6526 15.3039 13.4856 15.5652 13.3698C15.8264 13.2541 16.1083 13.1919 16.394 13.187Z" fill="#E53935"/>
</svg>
