<svg width="24" height="24" viewBox="0 0 24 24" fill="none" xmlns="http://www.w3.org/2000/svg">
<g clip-path="url(#clip0_3372_3017)">
<path d="M4.00199 5.52C3.34699 6.59 2.68199 7.658 2.02599 8.728C1.37099 9.79 0.717988 10.871 0.0629883 11.941L0.0649883 11.943L0.0629883 11.945C0.717988 13.015 1.37099 14.095 2.02599 15.156C2.68099 16.226 3.34599 17.296 4.00199 18.367H7.33199C6.66799 17.297 6.01399 16.227 5.35799 15.157C4.70499 14.087 4.05099 13.011 3.39699 11.943C4.05099 10.875 4.70499 9.796 5.35799 8.728C6.01264 7.6566 6.67064 6.58727 7.33199 5.52H4.00199Z" fill="#2196F3"/>
<path d="M3.99898 5.52L3.99698 5.521C4.65198 6.591 5.30698 7.672 5.96098 8.733C6.61598 9.803 7.28098 10.873 7.93498 11.943H11.266C10.602 10.873 9.94698 9.803 9.29198 8.733C8.63898 7.665 7.98598 6.588 7.33198 5.519L3.99898 5.52Z" fill="#26A69A"/>
<path d="M15.203 5.52L15.205 5.521C14.55 6.591 13.895 7.672 13.24 8.733C12.585 9.803 11.921 10.873 11.266 11.943H7.93597C8.59703 10.8751 9.2547 9.80508 9.90897 8.733C10.563 7.665 11.216 6.588 11.87 5.519L15.203 5.52Z" fill="#8BC34A"/>
<path d="M11.874 5.52C12.5353 6.58728 13.1933 7.65662 13.848 8.728C14.501 9.796 15.155 10.875 15.809 11.943C15.155 13.011 14.501 14.088 13.848 15.156C13.1933 16.2281 12.5353 17.2981 11.874 18.366H15.204C15.859 17.295 16.523 16.226 17.178 15.156C17.833 14.096 18.488 13.016 19.144 11.946L19.142 11.943L19.144 11.941C18.489 10.871 17.834 9.789 17.178 8.728C16.523 7.658 15.859 6.589 15.204 5.519L11.874 5.52Z" fill="#FFC107"/>
<path d="M16.74 5.52C17.4013 6.58728 18.0593 7.65662 18.714 8.728C19.367 9.796 20.019 10.875 20.674 11.943C20.019 13.011 19.367 14.088 18.714 15.156C18.059 16.226 17.404 17.296 16.74 18.367H20.07C20.725 17.297 21.389 16.227 22.044 15.157C22.699 14.095 23.354 13.015 24.01 11.945L24.008 11.943L24.01 11.941C23.355 10.871 22.7 9.789 22.044 8.728C21.389 7.658 20.725 6.589 20.07 5.519L16.74 5.52Z" fill="#F44336"/>
</g>
<defs>
<clipPath id="clip0_3372_3017">
<rect width="24" height="24" fill="white"/>
</clipPath>
</defs>
</svg>
