<svg width="24" height="24" viewBox="0 0 24 24" fill="none" xmlns="http://www.w3.org/2000/svg">
<path d="M22 2C22 2 14.36 1.63 8.34 9.88C3.72 16.21 2 22 2 22L3.94 21C5.38 18.5 6.13 17.47 7.54 16C10.07 16.74 12.71 16.65 15 14C13 13.44 11.4 13.57 9.04 13.81C11.69 12 13.5 11.6 16 12L17 10C15.2 9.66 14 9.63 12.22 10.04C14.19 8.65 15.56 7.87 18 8L19.11 6.27C17.58 6.21 16.71 6.25 14.92 6.57C16.53 5.11 18 4.45 20.14 4.32C20.14 4.32 21.19 2.43 22 2Z" fill="url(#paint0_linear_3372_3008)"/>
<defs>
<linearGradient id="paint0_linear_3372_3008" x1="4.5" y1="22" x2="1.99938" y2="1.99757" gradientUnits="userSpaceOnUse">
<stop stop-color="#AB47BC"/>
<stop offset="0.375" stop-color="#AB47BC"/>
<stop offset="0.37501" stop-color="#D32F2F"/>
<stop offset="0.5425" stop-color="#D32F2F"/>
<stop offset="0.54251" stop-color="#FF7043"/>
<stop offset="0.6975" stop-color="#FF7043"/>
<stop offset="0.69751" stop-color="#FFA726"/>
<stop offset="1" stop-color="#FFA726"/>
</linearGradient>
</defs>
</svg>
