<svg width="24" height="24" viewBox="0 0 24 24" fill="none" xmlns="http://www.w3.org/2000/svg">
<path d="M21.2897 12.6609C21.5772 7.67671 17.8391 2.30911 12.0881 2.98006C9.50012 3.26761 7.96652 4.60951 7.29557 6.04726C6.14537 8.44351 7.39142 11.6066 11.1296 12.6609C13.43 13.3319 13.9092 14.2904 13.6217 15.4406C13.3341 16.4949 12.5673 17.6451 12.3756 18.6036C12.2798 18.8912 12.2798 19.1787 12.2798 19.4663C12.3756 21.575 16.6889 22.4376 20.0436 16.7825C20.8104 15.6323 21.1938 14.1945 21.2897 12.6609Z" fill="#CFD8DC"/>
<path d="M6.43294 11.5107V11.4149V11.1273C6.43294 11.0315 6.43294 10.9356 6.33709 10.8398C6.14539 9.88126 5.37859 9.30616 4.42009 9.40201C3.46159 9.49786 2.79064 10.2647 2.69479 11.2232V11.7024C2.79064 12.7568 3.74914 13.5236 4.70764 13.4277C5.76199 13.236 6.43294 12.4692 6.43294 11.5107Z" fill="#CFD8DC"/>
<path d="M10.6503 16.5908C10.2669 15.0572 8.73333 14.0987 7.19973 14.5779C5.95368 14.8655 5.18688 15.9198 5.09103 17.1659C4.99518 17.5493 5.09103 17.9327 5.18688 18.3161C5.57028 19.8497 7.19973 20.8082 8.73333 20.3289C10.0752 19.9455 10.9379 18.6995 10.842 17.2617C10.7462 17.07 10.7462 16.8783 10.6503 16.5908Z" fill="#CFD8DC"/>
</svg>
