<svg width="24" height="24" viewBox="0 0 24 24" fill="none" xmlns="http://www.w3.org/2000/svg">
<path d="M4.79481 4.26435C4.87703 3.78418 5.2933 3.43313 5.78046 3.43313H7.378C7.80999 3.43313 8.19314 3.71053 8.32801 4.12093L12.0292 15.3835L15.7863 4.11679C15.9224 3.7085 16.3045 3.43313 16.7349 3.43313H18.2862C18.7748 3.43313 19.1919 3.78627 19.2725 4.26822L21.8027 19.4015C21.9047 20.0112 21.4346 20.5664 20.8164 20.5664H19.7243C19.2362 20.5664 18.8194 20.2141 18.7382 19.7328L17.0538 9.74651L13.6667 19.8834C13.5304 20.2913 13.1484 20.5664 12.7183 20.5664H11.3085C10.8769 20.5664 10.494 20.2896 10.3588 19.8797L7.01629 9.74651L5.2993 19.7358C5.21682 20.2157 4.80067 20.5664 4.31375 20.5664H3.18909C2.56935 20.5664 2.09883 20.0085 2.20343 19.3977L4.79481 4.26435Z" fill="#60A5FA"/>
</svg>
