<svg width="24" height="24" viewBox="0 0 24 24" fill="none" xmlns="http://www.w3.org/2000/svg">
<path d="M12.08 2.04533C5.91068 5.56533 2.08002 12.1627 2.04535 19.328C8.49868 22.8853 16.0787 22.764 21.952 19.3653C21.952 19.348 21.952 19.3307 21.9547 19.3133C21.9467 12.1867 18.1827 5.604 12.08 2.044V2.04533ZM15.4 9.67467C16.316 10.3013 16.18 11.8147 16.032 12.8507C15.8453 13.992 14.7627 15.8667 13.3573 17.0907C13.5387 17.3547 13.6453 17.68 13.644 18.0253C12.772 18.4707 11.908 17.9693 10.8627 17.064C9.81735 16.1587 8.68935 14.3453 8.31602 12.4813C7.97841 12.518 7.63838 12.4385 7.35202 12.256C7.42802 11.212 8.52535 10.5907 9.49868 10.224C10.4693 9.85733 12.9747 9.73333 14.7413 10.368C14.88 10.076 15.1067 9.83067 15.4 9.67467Z" fill="#60A5FA"/>
</svg>
