<svg width="24" height="24" viewBox="0 0 24 24" fill="none" xmlns="http://www.w3.org/2000/svg">
<path d="M4.31613 2.8506H13.5139C14.7981 2.8506 15.8415 3.89398 15.8415 5.17814C15.8415 6.4623 14.7981 7.50568 13.5139 7.50568H4.31613C3.03197 7.50568 1.98859 6.4623 1.98859 5.17814C1.98859 3.89398 3.03197 2.8506 4.31613 2.8506Z" fill="#FF5722"/>
<path d="M19.5174 7.50568C20.8294 7.50568 21.8931 6.46361 21.8931 5.17814C21.8931 3.89268 20.8294 2.8506 19.5174 2.8506C18.2053 2.8506 17.1417 3.89268 17.1417 5.17814C17.1417 6.46361 18.2053 7.50568 19.5174 7.50568Z" fill="#FF5722"/>
<path d="M10.4319 9.80112H19.5173C20.8015 9.70481 21.9091 10.684 22.0054 11.9681C22.1017 13.2523 21.1225 14.3599 19.8384 14.4562H10.4319C9.14776 14.5525 8.04017 13.5733 7.94386 12.2892C7.84754 11.005 8.82672 9.89743 10.1109 9.80112H10.3356H10.4319Z" fill="#FF5722"/>
<path d="M4.36428 9.75296C5.68055 9.75296 6.73998 10.8124 6.73998 12.1287C6.73998 13.4449 5.68055 14.5044 4.36428 14.5044C3.04802 14.4883 1.98859 13.4289 1.98859 12.1287C1.98859 10.8124 3.04802 9.75296 4.36428 9.75296Z" fill="#FF1744"/>
<path d="M4.31613 16.4948H13.5139C14.7981 16.4948 15.8415 17.5382 15.8415 18.8223C15.8415 20.1065 14.7981 21.1499 13.5139 21.1499H4.31613C3.03197 21.1499 1.98859 20.1065 1.98859 18.8223C1.98859 17.5382 3.03197 16.4948 4.31613 16.4948Z" fill="#FF5722"/>
<path d="M19.5174 21.1499C20.8294 21.1499 21.8931 20.1078 21.8931 18.8223C21.8931 17.5369 20.8294 16.4948 19.5174 16.4948C18.2053 16.4948 17.1417 17.5369 17.1417 18.8223C17.1417 20.1078 18.2053 21.1499 19.5174 21.1499Z" fill="#FF5722"/>
</svg>
