<svg width="24" height="24" viewBox="0 0 24 24" fill="none" xmlns="http://www.w3.org/2000/svg">
<path d="M18.182 11.1285C17.9314 10.8016 17.6263 10.5184 17.343 10.2351C16.613 9.5814 15.785 9.1129 15.0877 8.4265C14.3004 7.6158 13.7859 6.5795 13.6159 5.46227C13.5007 4.70445 13.5479 3.93504 13.7495 3.20381C13.8629 2.79251 13.5064 2.37515 13.1191 2.55415C12.4987 2.8409 11.9346 3.22506 11.4268 3.6327C10.0328 4.77333 9.03162 6.32256 8.56447 8.06219C8.09732 9.80181 8.18768 11.6442 8.82284 13.3297C8.86642 13.4387 8.91 13.5476 8.91 13.6892C8.91 13.9289 8.74657 14.1469 8.52867 14.234C8.27808 14.343 8.01657 14.2776 7.80957 14.1033C7.15291 13.3115 6.73381 12.3501 6.60077 11.3301C6.56168 11.0305 6.54775 10.7293 6.55852 10.4298C6.57758 9.89997 5.91654 9.50659 5.62991 9.95257C4.73795 11.3405 4.29007 13.0502 4.38842 14.6918C4.45379 15.2365 4.51916 15.7813 4.70438 16.3261C4.85692 16.9798 5.15109 17.6335 5.47793 18.211C6.06811 19.1546 6.8577 19.9577 7.79126 20.5638C8.72483 21.1699 9.77974 21.5642 10.8819 21.7193C13.2135 22.0134 15.7085 21.5885 17.4954 19.976C18.4751 19.0915 19.1601 17.928 19.4582 16.6423C19.7562 15.3565 19.653 14.0103 19.1624 12.785L19.0208 12.5017C18.792 12.0005 18.182 11.1285 18.182 11.1285ZM14.7389 17.9929C14.4339 18.2544 13.9327 18.5377 13.5404 18.6466C12.3202 19.0824 11.0999 18.4723 10.3808 17.7532C10.9348 17.6338 11.4441 17.3611 11.8506 16.9662C12.2571 16.5712 12.5444 16.07 12.6797 15.5197C12.8649 14.6481 12.5163 13.929 12.3746 13.09C12.2219 12.3395 12.2861 11.5609 12.5598 10.8456C12.7669 11.2596 12.9848 11.6736 13.2462 12.0005C14.0852 13.09 15.4035 13.5694 15.6868 15.0512C15.7304 15.2037 15.7522 15.3562 15.7522 15.5197C15.7634 15.9796 15.6791 16.4368 15.5047 16.8625C15.3303 17.2882 15.0696 17.6731 14.7389 17.9929Z" fill="#FF7043"/>
</svg>
