<svg width="24" height="24" viewBox="0 0 24 24" fill="none" xmlns="http://www.w3.org/2000/svg">
<path d="M11.999 1.481C10.6168 1.47784 9.24764 1.74772 7.97005 2.27517C6.69246 2.80262 5.53164 3.57723 4.55425 4.55453C3.57685 5.53184 2.80213 6.69258 2.27456 7.97012C1.74699 9.24766 1.47697 10.6168 1.48001 11.999C1.48001 17.827 6.17001 22.519 11.998 22.519C17.825 22.519 22.518 17.826 22.518 11.999C22.5209 10.6168 22.2508 9.24759 21.7231 7.97004C21.1954 6.6925 20.4206 5.53176 19.4431 4.55447C18.4656 3.57718 17.3048 2.80259 16.0271 2.27515C14.7495 1.74772 13.3812 1.47784 11.999 1.481ZM7.95301 6.899C7.99121 6.89824 8.0289 6.90792 8.06201 6.927L13.724 10.197C13.7562 10.2158 13.7928 10.2257 13.83 10.2257C13.8673 10.2257 13.9038 10.2158 13.936 10.197L15.938 9.04C15.9698 9.02115 16.0061 9.01104 16.0431 9.0107C16.0801 9.01037 16.1165 9.01981 16.1487 9.03808C16.1809 9.05635 16.2077 9.0828 16.2263 9.11474C16.245 9.14669 16.2549 9.183 16.255 9.22V16.89C16.2554 16.9273 16.2459 16.9639 16.2275 16.9963C16.209 17.0287 16.1823 17.0556 16.15 17.0742C16.1177 17.0928 16.0811 17.1025 16.0438 17.1023C16.0066 17.1021 15.9701 17.092 15.938 17.073L10.276 13.803C10.2441 13.7846 10.2079 13.7749 10.171 13.7749C10.1341 13.7749 10.0979 13.7846 10.066 13.803L8.06201 14.963C8.02992 14.9815 7.99351 14.9912 7.95647 14.9911C7.91942 14.991 7.88306 14.9812 7.85107 14.9625C7.81909 14.9438 7.79261 14.917 7.77433 14.8848C7.75606 14.8525 7.74663 14.816 7.74701 14.779V7.11C7.747 7.05499 7.76857 7.00217 7.80709 6.9629C7.84561 6.92363 7.89801 6.90005 7.95301 6.899Z" fill="#71717A"/>
</svg>
