<svg width="24" height="24" viewBox="0 0 24 24" fill="none" xmlns="http://www.w3.org/2000/svg">
<path d="M6.14995 9.15C5.54995 9.075 5.17495 9.375 5.09995 9.9C5.02495 10.575 5.32495 10.875 5.92495 10.95C6.52495 11.025 6.82495 10.725 6.97495 10.2C7.04995 9.675 6.74995 9.225 6.14995 9.15Z" fill="#60A5FA"/>
<path d="M12 1.5C10.95 1.5 9.9 1.65 8.925 1.95C9.075 2.475 9.3 2.925 9.6 3.375C10.275 4.5 11.325 5.025 12.6 5.1C13.2 5.175 13.8 5.175 14.4 5.175C15.975 5.175 17.25 6.975 16.575 8.625C16.2 9.525 15.75 10.05 14.775 10.2C13.575 10.35 12.675 9.975 12.075 8.925C12 8.7 11.85 8.475 11.775 8.25C11.625 7.8 11.475 7.275 11.25 6.825C10.65 5.1 8.7 4.125 6.975 4.5C6.375 4.575 5.625 4.425 5.1 4.125C2.85 6.075 1.5 8.85 1.5 12C1.5 17.775 6.225 22.5 12 22.5C17.775 22.5 22.5 17.775 22.5 12C22.5 6.225 17.775 1.5 12 1.5ZM16.35 17.475C15.975 18.375 15.525 18.9 14.55 19.05C13.35 19.2 12.45 18.825 11.85 17.775C11.775 17.55 11.625 17.325 11.55 17.1C11.4 16.65 11.25 16.125 11.025 15.675C10.35 13.875 8.4 12.975 6.675 13.275C5.7 13.425 4.275 12.9 3.825 12.075C3.225 11.1 3.3 9.75 3.9 9C4.275 8.55 4.875 8.25 5.475 8.1H6.15C7.275 8.25 7.95 8.775 8.325 9.9C8.55 10.725 8.85 11.475 9.3 12.225C9.975 13.35 11.025 13.875 12.3 13.95C12.9 14.025 13.5 14.025 14.1 14.025C15.675 14.025 16.95 15.9 16.35 17.475Z" fill="#60A5FA"/>
<path d="M13.8 16.35C13.35 16.425 13.2 16.8 13.2 17.175C13.2 17.55 13.5 17.925 13.725 18.15C14.1 18.375 14.55 18.375 14.85 17.925C14.925 17.85 15.15 17.175 15 16.95C14.85 16.575 13.95 16.35 13.8 16.35ZM15.075 9.075C15.15 9 15.375 8.325 15.225 8.1C15.075 7.8 14.175 7.575 14.025 7.575C13.575 7.65 13.425 8.025 13.425 8.4C13.425 8.775 13.725 9.15 13.95 9.375C14.325 9.6 14.85 9.6 15.075 9.075Z" fill="#60A5FA"/>
</svg>
