<svg width="24" height="24" viewBox="0 0 24 24" fill="none" xmlns="http://www.w3.org/2000/svg">
<path d="M13.7905 1.95275C13.6471 1.95275 13.5106 1.98689 13.3877 2.02786C13.654 2.20539 13.7974 2.43755 13.8725 2.70385C13.8793 2.73799 13.8861 2.7653 13.893 2.79944C13.8998 2.83358 13.9066 2.8609 13.9066 2.89504C13.9271 3.35252 13.7837 3.40715 13.6881 3.68027C13.5379 4.02851 13.5789 4.40406 13.7632 4.7045C13.7769 4.73864 13.7974 4.77961 13.8247 4.82058C13.6267 3.50274 14.726 3.30473 14.9308 2.89504C14.9445 2.53314 14.6509 2.29416 14.4187 2.13028C14.1797 1.99372 13.9749 1.95275 13.7905 1.95275ZM15.443 2.24636C15.4225 2.36927 15.4361 2.33513 15.4293 2.39658C15.4225 2.43755 15.4225 2.49218 15.4156 2.53314C15.402 2.57411 15.3952 2.61508 15.3815 2.65605L15.3405 2.77896C15.32 2.81993 15.3064 2.85407 15.2859 2.90186L15.2449 2.96332C15.2313 2.97697 15.2245 2.99746 15.2108 3.01112C15.1835 3.04526 15.1562 3.08623 15.1357 3.11354C15.1015 3.14768 15.0811 3.18182 15.0401 3.20913V3.21596C15.006 3.24327 14.9786 3.27059 14.9445 3.2979C14.8352 3.37984 14.7123 3.44129 14.5963 3.52323C14.5621 3.55054 14.5212 3.57102 14.4938 3.59834C14.4597 3.62565 14.4256 3.65296 14.3982 3.68027L14.3027 3.77587C14.2753 3.81001 14.248 3.84415 14.2275 3.87829C14.2002 3.91243 14.1729 3.9534 14.1524 3.98754C14.1319 4.02851 14.1183 4.06265 14.0978 4.11045C14.0842 4.15142 14.0637 4.18556 14.0568 4.23336C14.0432 4.28115 14.0295 4.32212 14.0227 4.36309C14.0159 4.38358 14.0159 4.41089 14.009 4.43137C14.0022 4.45186 14.0022 4.47234 13.9954 4.49283C13.9954 4.5338 13.9886 4.58159 13.9886 4.62256C13.9886 4.6567 13.9886 4.68402 13.9954 4.71816C13.9954 4.75912 14.0022 4.80009 14.009 4.84789C14.0159 4.88886 14.0227 4.92983 14.0364 4.9708L14.0773 5.0937C14.091 5.12102 14.1046 5.14833 14.1115 5.16881L12.9165 4.7045C12.7117 4.64987 12.5137 4.59525 12.3157 4.54745C12.2064 4.52014 12.0972 4.49283 11.9879 4.47234C11.6738 4.41089 11.3597 4.36309 11.0388 4.32895C11.0251 4.32895 11.0251 4.32212 11.0115 4.32212C10.6974 4.28798 10.3901 4.27433 10.0828 4.27433C9.85069 4.27433 9.62536 4.28798 9.40003 4.30164C9.08594 4.32212 8.76501 4.36309 8.45092 4.41772C8.37581 4.43137 8.29387 4.44503 8.21876 4.45869C8.05488 4.49283 7.90466 4.52697 7.74762 4.56111C7.67251 4.58159 7.59057 4.60208 7.51546 4.62256C7.44035 4.6567 7.36524 4.69084 7.29013 4.71816C7.2355 4.74547 7.17405 4.77278 7.11943 4.79327C7.10577 4.80009 7.09894 4.80009 7.09211 4.80692C7.03749 4.83423 6.99652 4.85472 6.94872 4.88203C6.93506 4.88886 6.92141 4.89569 6.91458 4.89569C6.85996 4.923 6.7985 4.95031 6.7507 4.97763C6.71656 4.99128 6.67559 5.01177 6.64828 5.03225C6.63463 5.04591 6.61414 5.05274 6.60049 5.05956C6.55269 5.08688 6.50489 5.11419 6.46392 5.13467C6.41612 5.16199 6.37516 5.1893 6.34101 5.20978C6.30687 5.2371 6.2659 5.25758 6.23859 5.28489C6.23176 5.29172 6.22494 5.29172 6.22494 5.29855C6.1908 5.31903 6.15665 5.34635 6.12934 5.37366L6.11569 5.38731C6.08837 5.4078 6.06106 5.42828 6.04058 5.44877C6.02692 5.4556 6.02009 5.46243 6.00643 5.46925C5.97912 5.48974 5.95181 5.51705 5.93132 5.53754C5.9245 5.55119 5.91767 5.55119 5.91084 5.55802C5.8767 5.59216 5.84939 5.61264 5.81525 5.64679C5.80842 5.64679 5.80842 5.65361 5.80159 5.66044C5.76745 5.68775 5.74014 5.71507 5.706 5.74921C5.69917 5.75604 5.69917 5.76286 5.69234 5.76286C5.66503 5.79018 5.63771 5.81749 5.61723 5.8448C5.60357 5.85846 5.58992 5.86529 5.58309 5.87894C5.55578 5.91308 5.52846 5.9404 5.49432 5.97454C5.48749 5.98819 5.48067 5.98819 5.47384 6.00185C5.43287 6.04282 5.39873 6.08379 5.35093 6.12476L5.33728 6.13841C5.25534 6.22718 5.16657 6.31595 5.07098 6.39106C4.97538 6.47299 4.87979 6.55493 4.77737 6.62321C4.67494 6.69832 4.57252 6.75977 4.46327 6.82123C4.36085 6.87585 4.2516 6.93048 4.13552 6.97828C4.02627 7.02607 3.91019 7.06704 3.79411 7.10118C3.57561 7.14898 3.35028 7.23775 3.15909 7.2514C3.11812 7.2514 3.07033 7.26506 3.02936 7.26506C2.98156 7.27872 2.94059 7.28554 2.89962 7.2992C2.85865 7.31286 2.81768 7.33334 2.77672 7.347C2.73575 7.36065 2.69478 7.38114 2.65381 7.40162C2.61967 7.42893 2.5787 7.44942 2.53773 7.47673C2.50359 7.50404 2.46262 7.53136 2.43531 7.5655C2.40117 7.59281 2.3602 7.62695 2.33288 7.66109C2.29874 7.69523 2.27143 7.72937 2.24412 7.76352C2.21681 7.80448 2.18949 7.83862 2.16901 7.88642C2.1417 7.92056 2.11438 7.96153 2.0939 8.00933C2.07341 8.05712 2.05293 8.09809 2.03927 8.14589C2.02562 8.18686 2.00513 8.23466 1.99148 8.28245C1.97782 8.32342 1.97099 8.36439 1.96416 8.40536C1.96416 8.41219 1.95734 8.41902 1.95734 8.41902C1.94368 8.46681 1.94368 8.52827 1.94368 8.56241C1.93685 8.59655 1.93002 8.63069 1.93002 8.66483C1.93002 8.68532 1.93002 8.71263 1.93685 8.73311C1.94368 8.76725 1.95051 8.80139 1.95734 8.82871C1.97099 8.86285 1.97782 8.89016 1.99148 8.9243V8.93113C2.00513 8.96527 2.02562 8.99258 2.0461 9.02673C2.06659 9.06087 2.08707 9.08818 2.11438 9.12232C2.1417 9.14963 2.16901 9.17694 2.20315 9.20426C2.23729 9.2384 2.2646 9.25888 2.29874 9.28619C2.42165 9.39544 2.45579 9.42959 2.61284 9.51835L2.69478 9.55932C2.70161 9.55932 2.70843 9.56615 2.70843 9.56615C2.70843 9.57981 2.70843 9.57981 2.71526 9.59346C2.72209 9.63443 2.72892 9.6754 2.74257 9.71637C2.75623 9.76416 2.76989 9.80513 2.78354 9.83928C2.7972 9.87342 2.81086 9.90073 2.82451 9.93487C2.83134 9.94853 2.83817 9.95535 2.83817 9.96218C2.85865 10.0032 2.87914 10.0373 2.89962 10.0783C2.92693 10.1124 2.95425 10.1534 2.97473 10.1875C3.00204 10.2217 3.02936 10.2558 3.0635 10.2831C3.09764 10.3172 3.12495 10.3377 3.15909 10.3719C3.15909 10.3719 3.16592 10.3787 3.17275 10.3787C3.20689 10.406 3.2342 10.4333 3.26834 10.4538C3.30248 10.4811 3.34345 10.5016 3.38442 10.5221C3.41856 10.5426 3.45953 10.5631 3.50733 10.5767C3.54147 10.5904 3.57561 10.604 3.60975 10.6109C3.61658 10.6177 3.62341 10.6177 3.63024 10.6245C3.65072 10.6313 3.67803 10.6382 3.69852 10.6382C3.68486 10.9181 3.67803 11.1844 3.719 11.28C3.7668 11.3824 3.99213 11.0683 4.22429 10.6996C4.19014 11.0615 4.16966 11.478 4.22429 11.6078C4.27891 11.7375 4.59301 11.3346 4.86613 10.884C8.55334 10.0305 11.9196 12.5774 12.2747 16.1826C12.2064 15.6227 11.5168 15.3086 11.1958 15.3837C11.0388 15.7661 10.7725 16.2646 10.3491 16.5718C10.3833 16.2304 10.3696 15.8754 10.2945 15.534C10.1784 16.0119 9.95311 16.4626 9.65267 16.845C9.16105 16.8791 8.66259 16.6401 8.40312 16.2851C8.38263 16.2714 8.37581 16.2373 8.36215 16.2168C8.34849 16.1826 8.32801 16.1417 8.32118 16.1075C8.30753 16.0734 8.29387 16.0324 8.28704 15.9983C8.28021 15.9641 8.28021 15.9232 8.28021 15.8822V15.8071C8.28704 15.7729 8.29387 15.732 8.30753 15.6978C8.32118 15.6637 8.32801 15.6227 8.34167 15.5886C8.36215 15.5544 8.37581 15.5135 8.40312 15.4793C8.49189 15.2267 8.49189 15.0287 8.32801 14.9058C8.29387 14.8853 8.26656 14.8716 8.23242 14.8511C8.21193 14.8443 8.18462 14.8375 8.16413 14.8307C8.15048 14.8238 8.13682 14.817 8.12316 14.817C8.08902 14.8033 8.04806 14.7965 8.01391 14.7897C7.97977 14.776 7.9388 14.776 7.90466 14.776C7.87052 14.7692 7.82955 14.7624 7.78858 14.7624C7.76127 14.7624 7.73396 14.7692 7.71348 14.7692C7.67251 14.7692 7.63837 14.776 7.5974 14.7829C7.56326 14.7897 7.52229 14.7965 7.48815 14.8033C7.45401 14.817 7.41304 14.8238 7.37889 14.8375C7.34475 14.8511 7.31061 14.8716 7.27647 14.8853C7.24233 14.8989 7.21502 14.9194 7.18088 14.9399C5.96547 15.732 6.68925 17.5824 7.52229 18.115C7.20819 18.1696 6.8941 18.2379 6.80533 18.3062L6.79167 18.3198C7.017 18.4564 7.24916 18.5725 7.49497 18.6681C7.82955 18.7773 8.18462 18.8729 8.33484 18.9207V18.9276C8.76501 19.0163 9.20201 19.0505 9.64584 19.0232C11.9469 18.8593 13.8383 17.1113 14.1797 14.7965C14.1934 14.8443 14.2002 14.8853 14.2139 14.9331C14.2275 15.0287 14.248 15.1243 14.2617 15.2267V15.2335C14.2753 15.2813 14.2753 15.3291 14.2822 15.3701V15.3906C14.289 15.4384 14.2958 15.4862 14.2958 15.5271C14.3027 15.5818 14.3095 15.6432 14.3095 15.6978V15.7798C14.3095 15.8071 14.3163 15.8344 14.3163 15.8617C14.3163 15.8959 14.3095 15.9232 14.3095 15.9573V16.0324C14.3095 16.0666 14.3027 16.1007 14.3027 16.1348C14.3027 16.1553 14.3027 16.1758 14.2958 16.2031C14.2958 16.2373 14.289 16.2782 14.289 16.3192C14.2822 16.3329 14.2822 16.3533 14.2822 16.367C14.2753 16.408 14.2685 16.4421 14.2685 16.4899C14.2685 16.5036 14.2685 16.524 14.2617 16.5377C14.2549 16.5923 14.248 16.6333 14.2412 16.6879V16.7016C14.2275 16.7494 14.2207 16.7972 14.2071 16.845V16.8586C14.1934 16.9064 14.1866 16.9542 14.1729 17.002C14.1729 17.0088 14.1661 17.0157 14.1661 17.0225C14.1524 17.0703 14.1456 17.1181 14.1319 17.1659V17.1795C14.1183 17.2342 14.0978 17.2751 14.091 17.3229C14.0841 17.3298 14.0841 17.3366 14.0841 17.3366C14.0705 17.3912 14.05 17.439 14.0364 17.4936C14.0159 17.5483 14.0022 17.5892 13.9817 17.6439C13.9612 17.6985 13.9476 17.7463 13.9271 17.7941C13.9066 17.8487 13.8861 17.8897 13.8656 17.9443H13.8588C13.8383 17.9921 13.8179 18.0399 13.7905 18.0877C13.7837 18.1013 13.7769 18.115 13.7769 18.1218C13.7701 18.1287 13.7701 18.1355 13.7632 18.1355C13.4218 18.8183 12.9234 19.4124 12.302 19.8835C12.261 19.9108 12.2201 19.9381 12.1791 19.9723C12.1654 19.9859 12.1518 19.9859 12.145 19.9996C12.1108 20.0269 12.0698 20.0542 12.0289 20.0747L12.0425 20.1088H12.0494C12.1245 20.0952 12.1927 20.0883 12.2679 20.0747H12.2747C12.4113 20.0542 12.5478 20.0269 12.6775 19.9996C12.7117 19.9927 12.7527 19.9859 12.7936 19.9723C12.8209 19.9654 12.8414 19.9586 12.8687 19.9586C12.9029 19.9518 12.9438 19.945 12.978 19.9381C13.0121 19.9245 13.0394 19.9245 13.0736 19.9108C13.5925 19.7879 14.0978 19.6172 14.5826 19.4124C13.7564 20.539 12.6502 21.454 11.3529 22.048C11.9538 22.0071 12.5478 21.9046 13.1282 21.7408C15.2245 21.1194 16.9861 19.7128 18.0445 17.8146C17.8328 19.0163 17.3548 20.1635 16.6447 21.1604C17.15 20.8258 17.6143 20.4434 18.0308 20.0064C19.1984 18.791 19.9632 17.241 20.2227 15.5818C20.4002 16.4011 20.4548 17.2547 20.3729 18.0877C24.1284 12.8505 20.687 7.41528 19.2462 5.98819C19.2394 5.97454 19.2326 5.97454 19.2326 5.96088C19.2258 5.96771 19.2258 5.96771 19.2258 5.97454C19.2258 5.96771 19.2258 5.96771 19.2189 5.96088C19.2189 6.02233 19.2121 6.08379 19.2053 6.14524C19.1916 6.26815 19.1711 6.3774 19.1506 6.49348C19.1233 6.60956 19.096 6.72564 19.0619 6.83489C19.0277 6.94414 18.9868 7.06021 18.939 7.16947C18.8912 7.27189 18.8434 7.38114 18.7819 7.48356C18.7273 7.57915 18.659 7.6884 18.5976 7.77717C18.5293 7.87277 18.4542 7.96836 18.3859 8.05713C18.3108 8.15272 18.222 8.23466 18.1401 8.3166C18.0855 8.36439 18.0445 8.40536 17.9899 8.44633C17.9489 8.48047 17.9147 8.51461 17.867 8.54875C17.7714 8.62386 17.6826 8.69215 17.5733 8.7536C17.4777 8.81505 17.3685 8.8765 17.2661 8.93113C17.1568 8.98575 17.0476 9.02672 16.9383 9.07452C16.8291 9.11549 16.713 9.14963 16.5969 9.18377C16.4808 9.21791 16.3648 9.2384 16.2487 9.25888C16.1258 9.27937 16.0097 9.29302 15.8936 9.29985C15.8117 9.30668 15.7297 9.31351 15.641 9.31351C15.5181 9.31351 15.402 9.29985 15.2859 9.29302C15.163 9.27937 15.0469 9.26571 14.9308 9.2384C14.8079 9.21791 14.6987 9.18377 14.5826 9.14963H14.5758C14.6919 9.13597 14.8079 9.12915 14.9172 9.10866C15.0401 9.08818 15.1493 9.06086 15.2654 9.03355C15.3815 8.99941 15.4976 8.96527 15.6068 8.9243C15.7229 8.88333 15.8322 8.82871 15.9346 8.78091C16.0438 8.72629 16.1394 8.67166 16.2487 8.61021C16.3443 8.54193 16.4467 8.47364 16.5423 8.40536C16.6379 8.33025 16.7266 8.25514 16.8086 8.17321C16.8974 8.0981 16.9725 8.00933 17.0544 7.92056C17.1295 7.82497 17.2046 7.7362 17.2729 7.64061C17.2866 7.62695 17.2934 7.60647 17.307 7.58598C17.3617 7.50405 17.4095 7.42211 17.4573 7.33334C17.5119 7.23092 17.5665 7.1285 17.6143 7.01924C17.6621 6.90999 17.7031 6.80074 17.7372 6.68467C17.7714 6.57541 17.7987 6.45934 17.826 6.34326C17.8465 6.22035 17.867 6.1111 17.8806 5.99502C17.8943 5.87211 17.9011 5.75604 17.9011 5.63996C17.9011 5.55802 17.8943 5.47608 17.8874 5.38731C17.8738 5.26441 17.8601 5.15516 17.8465 5.03908C17.826 4.91617 17.7987 4.80692 17.7714 4.69084C17.7372 4.58159 17.6962 4.46551 17.6553 4.35626C17.6143 4.24701 17.5597 4.13776 17.5119 4.03534C17.4573 3.93292 17.3958 3.8305 17.3344 3.72807L17.1295 3.44129C17.0544 3.35252 16.9725 3.26376 16.8905 3.17499C16.8496 3.13402 16.8018 3.08623 16.754 3.04526C16.5218 2.8609 16.276 2.69019 16.0302 2.53314C15.996 2.51266 15.9619 2.499 15.9278 2.47852C15.7639 2.35561 15.6068 2.30099 15.443 2.24636Z" fill="#14B8A6"/>
</svg>
