<svg width="24" height="24" viewBox="0 0 24 24" fill="none" xmlns="http://www.w3.org/2000/svg">
<path fill-rule="evenodd" clip-rule="evenodd" d="M11.801 1.442C11.8615 1.40707 11.9301 1.38868 12 1.38868C12.0699 1.38868 12.1385 1.40707 12.199 1.442L21.083 6.548C21.1439 6.58319 21.1946 6.63375 21.2299 6.69465C21.2651 6.75554 21.2838 6.82463 21.284 6.895V17.105C21.2838 17.1752 21.2652 17.2442 21.2299 17.3049C21.1946 17.3657 21.1439 17.4161 21.083 17.451L12.199 22.558C12.1385 22.5929 12.0699 22.6113 12 22.6113C11.9301 22.6113 11.8615 22.5929 11.801 22.558L2.917 17.451C2.85607 17.4161 2.80541 17.3657 2.77013 17.3049C2.73484 17.2442 2.71618 17.1752 2.716 17.105V6.895C2.716 6.752 2.793 6.62 2.917 6.548L11.801 1.442ZM8.976 10.18L14.507 16.805C14.507 16.805 15.157 17.376 16.084 17.319C17.204 17.249 17.316 16.31 17.316 16.31L17.317 7.616L17.316 7.608C17.2576 7.32517 17.1036 7.07108 16.8798 6.88846C16.6561 6.70584 16.3763 6.60582 16.0875 6.60524C15.7987 6.60465 15.5185 6.70353 15.2941 6.88524C15.0696 7.06695 14.9146 7.32041 14.855 7.603L14.852 7.616L14.857 13.723L9.179 7.035C9.179 7.035 8.725 6.523 7.663 6.639C6.619 6.754 6.507 7.648 6.507 7.648L6.517 16.273L6.519 16.286C6.56576 16.5794 6.716 16.8464 6.94254 17.0387C7.16908 17.231 7.45695 17.3358 7.75408 17.3342C8.0512 17.3326 8.33795 17.2248 8.56245 17.0301C8.78694 16.8355 8.93435 16.5669 8.978 16.273L8.976 10.18Z" fill="#4ADE80"/>
</svg>
