<svg width="24" height="24" viewBox="0 0 24 24" fill="none" xmlns="http://www.w3.org/2000/svg">
<g clip-path="url(#clip0_3372_2920)">
<path d="M4.1869 14.416C3.25107 9.0668 5.739 3.88939 11.3996 3.20234C11.1034 2.86545 10.7315 2.61624 10.3198 2.47872C9.908 2.34119 9.47023 2.31998 9.04862 2.41714C8.18127 2.71159 8.2041 3.32502 7.22262 4.11022C6.26397 4.69912 5.76182 4.23291 5.05425 4.87089C4.34667 5.48432 4.826 6.9075 4.52927 7.17741C4.23255 7.74177 3.31955 8.23252 3.13695 8.91957C3 9.80292 3.50215 10.4409 3.50215 11.2261C3.57062 11.8641 2.9087 12.2321 3 12.7474C3.2739 13.5817 3.8217 14.097 4.07277 14.3424C4.14125 14.3669 4.20972 14.465 4.1869 14.416Z" fill="#FBBF24"/>
<path d="M14.2984 7.00565C14.2015 7.00565 14.1086 6.96429 14.0402 6.89066C13.9717 6.81703 13.9332 6.71717 13.9332 6.61305C13.9332 6.39221 14.093 6.22045 14.2984 6.22045C14.5038 6.22045 14.6636 6.39221 14.6636 6.61305C14.6636 6.83389 14.5038 7.00565 14.2984 7.00565ZM4.41516 15.0049C3.50216 10.3428 6.28681 6.46582 11.6735 8.37975C14.8462 10.3673 18.8177 10.2446 19.0003 8.94411C19.4568 7.39825 16.9917 4.23291 13.3169 3.39864C6.01291 1.87731 2.08701 10.3428 4.41516 15.0049Z" fill="url(#paint0_radial_3372_2920)"/>
<path d="M16.3754 15.5202C16.9206 15.5914 17.4736 15.541 17.9999 15.3721C18.5261 15.2032 19.0143 14.9195 19.434 14.5387C18.0722 16.1765 16.1756 17.1871 14.1386 17.3605C15.1201 18.2684 16.0787 18.661 16.9917 18.4892C14.4581 19.2499 12.3354 18.4156 9.77901 15.6674C9.64206 16.4035 10.3725 17.5568 11.1257 18.2929C6.74328 16.2563 6.35526 9.92561 11.6735 8.35521C6.17266 5.50886 3.04563 11.0543 4.57491 15.5938C5.48772 17.5052 6.92626 19.0678 8.69472 20.0688C10.4632 21.0699 12.4756 21.4608 14.4581 21.1883C15.9242 20.9802 17.3108 20.3506 18.4718 19.366C19.6328 18.3813 20.5251 17.0781 21.0546 15.5938C20.1078 16.4494 18.9785 17.0395 17.7678 17.3114C20.2329 15.9864 21.5567 13.7289 21.1915 10.6617C20.7746 11.8364 20.0733 12.8699 19.1601 13.6553C20.9633 10.6617 20.6437 9.09133 19.3199 7.39825C20.2785 10.1955 19.046 13.2872 16.3754 15.5202Z" fill="url(#paint1_radial_3372_2920)"/>
<path d="M15.0973 18.7346C14.9147 18.6855 15.5309 19.0045 14.344 18.661C13.1571 18.3174 11.9474 17.9985 9.75622 15.6429C9.61927 16.379 10.3497 17.5322 11.1029 18.2684C13.1343 19.7897 11.742 19.0781 14.8462 20.2314C15.0973 19.7161 15.0973 19.2499 15.0973 18.7346Z" fill="url(#paint2_linear_3372_2920)"/>
<path d="M11.1713 6.78481C11.1713 6.78481 11.4452 6.36768 11.5365 6.17138C11.6735 5.926 11.8561 5.50886 11.8561 5.50886C11.8561 5.50886 9.77902 4.77274 9.27687 4.69913C7.70194 5.1408 7.70194 5.85239 8.56929 6.93204C8.68342 7.05473 11.1713 6.78481 11.1713 6.78481Z" fill="url(#paint3_linear_3372_2920)"/>
</g>
<defs>
<radialGradient id="paint0_radial_3372_2920" cx="0" cy="0" r="1" gradientUnits="userSpaceOnUse" gradientTransform="translate(15.7934 7.66816) scale(13.7723 10.5911)">
<stop stop-color="#FBBF24"/>
<stop offset="1" stop-color="#A76400"/>
</radialGradient>
<radialGradient id="paint1_radial_3372_2920" cx="0" cy="0" r="1" gradientUnits="userSpaceOnUse" gradientTransform="translate(15.9189 8.01168) scale(13.9404 11.3365)">
<stop stop-color="#FBBF24"/>
<stop offset="0.29" stop-color="#FBBF24"/>
<stop offset="1" stop-color="#DA7600"/>
</radialGradient>
<linearGradient id="paint2_linear_3372_2920" x1="10.6464" y1="15.7165" x2="13.3953" y2="19.9822" gradientUnits="userSpaceOnUse">
<stop stop-color="#FBBF24"/>
<stop offset="0.67" stop-color="#FBBF24"/>
<stop offset="0.83" stop-color="#FBBF24" stop-opacity="0.2"/>
<stop offset="1" stop-color="#FBBF24" stop-opacity="0"/>
</linearGradient>
<linearGradient id="paint3_linear_3372_2920" x1="10.4524" y1="6.35541" x2="10.0568" y2="5.65514" gradientUnits="userSpaceOnUse">
<stop stop-color="#FBBF24" stop-opacity="0.15"/>
<stop offset="0.4" stop-color="#FBBF24" stop-opacity="0.4"/>
<stop offset="0.65" stop-color="#FBBF24" stop-opacity="0.89"/>
<stop offset="1" stop-color="#FBBF24"/>
</linearGradient>
<clipPath id="clip0_3372_2920">
<rect width="18.26" height="19.63" fill="white" transform="translate(3 2)"/>
</clipPath>
</defs>
</svg>
