<svg width="24" height="25" viewBox="0 0 24 25" fill="none" xmlns="http://www.w3.org/2000/svg">
<path d="M8.12667 3.49999L6.99 3.50166L6.43333 4.46499L7.73083 6.72583L5.11667 6.71916L4.01667 8.66916H13.7583L12.6308 6.72583L9.97083 6.72083L8.12583 3.49999H8.12667ZM13.2725 3.49999L11.0333 3.52083L15.905 11.96L17.0225 10.01L15.6975 7.70583L17.5642 4.49749L16.995 3.51249H15.8817L14.5733 5.76666L13.2725 3.49999ZM19.0117 6.99583L14.14 15.4333L16.3867 15.4267L17.7208 13.1267L21.4317 13.14L22 12.1542L21.445 11.19L18.8367 11.1833L20.1483 8.92333L19.0117 6.99583ZM9.86 8.91166L7.61333 8.91833L6.27917 11.2183L2.56833 11.205L2 12.19L2.555 13.1542L5.16333 13.1608L3.85083 15.4192L4.98833 17.3483L9.86 8.91166ZM8.10833 12.3817L8.10333 12.39L8.10167 12.3867L6.98333 14.3367L8.30833 16.6408L6.44167 19.8492L7.01167 20.8342H8.125L8.12833 20.8292L9.435 18.5808L10.7333 20.8475L12.9733 20.8258L12.97 20.8208H12.9783L8.10833 12.3817ZM10.2333 15.6567L11.3617 17.6L14.0217 17.605L15.8675 20.8258L17.0033 20.8242L17.56 19.8608L16.2625 17.6L18.8767 17.6067L19.9767 15.6567H10.2333Z" fill="#60A5FA"/>
</svg>
