<svg width="24" height="25" viewBox="0 0 24 25" fill="none" xmlns="http://www.w3.org/2000/svg">
<path d="M11.9894 2.1496C11.8195 2.1496 11.6494 2.1936 11.4971 2.28144L3.35192 6.98664C3.20237 7.07304 3.07818 7.19726 2.99182 7.34684C2.90546 7.49642 2.85997 7.66608 2.85992 7.8388V17.2494C2.85995 17.4221 2.90544 17.5917 2.99184 17.7413C3.07824 17.8908 3.20248 18.0149 3.35208 18.1011L11.4973 22.8024H11.4974C11.6468 22.8888 11.8164 22.9342 11.989 22.9342C12.1616 22.9342 12.3312 22.8888 12.4806 22.8024L20.6278 18.1011C20.7775 18.0148 20.9018 17.8907 20.9883 17.7411C21.0747 17.5915 21.1201 17.4217 21.1201 17.249V7.83904C21.12 7.66636 21.0746 7.49673 20.9883 7.34716C20.902 7.19759 20.7779 7.07334 20.6284 6.98688L12.4812 2.2816C12.3315 2.1952 12.1618 2.14973 11.989 2.14976L11.9894 2.1496ZM6.66424 6.1744C6.66424 6.1744 7.60736 8.81688 9.5024 8.72912L11.7216 7.45224C11.8048 7.40388 11.8986 7.37669 11.9947 7.37304H12.046C12.1419 7.37644 12.2355 7.40366 12.3183 7.45224L14.5374 8.72912C16.4326 8.81664 17.3754 6.1744 17.3754 6.1744C17.794 8.02672 17.4602 9.26568 16.9014 10.0898L17.2647 10.2989H17.2649C17.4506 10.405 17.5636 10.6025 17.5638 10.8181L17.5542 18.483C17.5543 18.5352 17.5407 18.5866 17.5146 18.6319C17.4886 18.6772 17.4511 18.7149 17.4058 18.7411C17.3607 18.7682 17.3091 18.7826 17.2564 18.7826C17.2038 18.7826 17.1522 18.7682 17.107 18.7411L14.168 17.0577C13.9831 16.9486 13.8686 16.7522 13.8686 16.5393V12.9582C13.8688 12.8533 13.8413 12.7502 13.7887 12.6594C13.7362 12.5686 13.6607 12.4933 13.5697 12.441L12.3183 11.7202C12.2283 11.6671 12.1256 11.6392 12.0211 11.6394C11.9159 11.6392 11.8126 11.6671 11.7218 11.7202L10.4699 12.441C10.2846 12.5469 10.1716 12.7449 10.1716 12.9584V16.5394C10.1716 16.7524 10.0586 16.9474 9.87256 17.0578L6.93272 18.741C6.888 18.7682 6.83666 18.7826 6.78432 18.7826C6.73198 18.7826 6.68065 18.7682 6.63592 18.741C6.54208 18.689 6.4868 18.5901 6.4868 18.4831L6.47584 10.8182C6.4757 10.713 6.50328 10.6096 6.5558 10.5184C6.60833 10.4273 6.68395 10.3516 6.77504 10.299L7.13832 10.0898C6.57976 9.2656 6.24552 8.02656 6.66432 6.1744H6.66424Z" fill="#14B8A6"/>
</svg>
