<svg width="24" height="25" viewBox="0 0 24 25" fill="none" xmlns="http://www.w3.org/2000/svg">
<path fill-rule="evenodd" clip-rule="evenodd" d="M11.2348 22.2945C11.4696 22.4297 11.7356 22.5 12.0035 22.5L12.0027 22.4961C12.2738 22.4968 12.5402 22.4259 12.7751 22.2907L20.1019 18.0586C20.5752 17.7834 20.8706 17.2716 20.8706 16.7231V8.26619C20.8704 7.99581 20.7993 7.7302 20.6645 7.49586C20.5296 7.26152 20.3356 7.06666 20.1019 6.9307L12.7751 2.69675C12.3146 2.43442 11.6982 2.43442 11.2341 2.69675L3.89807 6.92886C3.42294 7.20036 3.12943 7.71401 3.12943 8.26435V16.7212C3.12961 16.9919 3.20067 17.2577 3.33553 17.4923C3.47038 17.727 3.66433 17.9222 3.89807 18.0586L5.82059 19.1666C6.7525 19.6252 7.08637 19.6252 7.51013 19.6252C8.88782 19.6252 9.68031 18.7905 9.68031 17.3376V8.98713C9.68031 8.86789 9.58491 8.77617 9.46934 8.77617H8.5411C8.42186 8.77617 8.32831 8.86789 8.32831 8.98713V17.334C8.32831 17.9797 7.66239 18.6218 6.57272 18.0769L4.56581 16.9175C4.4961 16.879 4.45208 16.802 4.45208 16.7212V8.26435C4.45208 8.18364 4.4972 8.10475 4.5682 8.0644L11.8925 3.83779C11.9604 3.79743 12.0503 3.79743 12.1181 3.83779L19.4439 8.0644C19.5132 8.10659 19.5573 8.1818 19.5573 8.26619V16.7231C19.5573 16.8038 19.5132 16.8827 19.4454 16.9212L12.1167 21.1515C12.0537 21.1882 11.9574 21.1882 11.8896 21.1515L10.01 20.0361C9.95401 20.0031 9.88247 19.9921 9.8278 20.0233C9.30773 20.3186 9.20885 20.3572 8.72162 20.5278C8.60109 20.5694 8.42278 20.6417 8.78821 20.846L11.2348 22.2945ZM10.3882 13.9661C10.3882 15.2007 11.0605 16.6726 14.2672 16.6726L14.2565 16.6813C16.579 16.6813 17.9108 15.7659 17.9108 14.1699C17.9108 12.5867 16.8413 12.1648 14.5886 11.8658C12.3138 11.5649 12.0827 11.409 12.0827 10.8752C12.0827 10.4349 12.279 9.84786 13.9649 9.84786C15.471 9.84786 16.025 10.1726 16.2543 11.187C16.2745 11.2824 16.3607 11.3521 16.4597 11.3521H17.4118C17.4414 11.3521 17.4706 11.346 17.4976 11.3341C17.5246 11.3223 17.5489 11.3049 17.5689 11.2832C17.5889 11.2615 17.6042 11.2359 17.6138 11.2079C17.6234 11.18 17.6271 11.1504 17.6246 11.121C17.4779 9.3709 16.3148 8.5564 13.9685 8.5564C11.8791 8.5564 10.6316 9.43694 10.6316 10.9155C10.6316 12.5207 11.8717 12.9628 13.8786 13.1609C16.2781 13.3957 16.4652 13.7461 16.4652 14.2176C16.4652 15.0367 15.8085 15.3856 14.2639 15.3856C12.3248 15.3856 11.8993 14.8991 11.7562 13.9345C11.7397 13.8312 11.6516 13.7551 11.547 13.7551H10.6004C10.4829 13.7551 10.3882 13.8487 10.3882 13.9661Z" fill="#2DD4BF"/>
</svg>
