<svg width="24" height="24" viewBox="0 0 24 24" fill="none" xmlns="http://www.w3.org/2000/svg">
<path d="M21.84 7.54869C21.84 5.67427 18.3257 1.45714 18.0915 1.22299C18.9342 5.016 18.8293 4.4497 18.9703 5.66102C19.0077 5.98032 19.0233 6.31166 18.8956 6.60686C18.3104 7.95835 16.2167 8.71944 16.2167 8.71944L19.4965 11.5309C19.4965 11.5309 21.84 9.18815 21.84 7.54869ZM2.16003 7.54869C2.16003 5.67427 5.67431 1.45714 5.90846 1.22299C5.06584 5.016 5.17026 4.4497 5.02969 5.66102C4.99234 5.98032 4.97668 6.31166 5.10439 6.60686C5.68957 7.95835 7.78328 8.71944 7.78328 8.71944L4.50355 11.5309C4.50355 11.5309 2.16003 9.18815 2.16003 7.54869Z" fill="#BDBDBD"/>
<path d="M12 5.67427C15.6725 5.67427 18.3394 8.25556 19.4973 11.5313V17.1541C19.4973 17.1541 17.1541 18.0915 15.7484 19.0285C14.3427 19.9655 12.2342 22.7769 12.2342 22.7769H12V5.67427Z" fill="#546E7A"/>
<path d="M12.0001 5.67427C8.32754 5.67427 5.66071 8.25556 4.50281 11.5313V17.1541C4.50281 17.1541 6.84593 18.0915 8.25164 19.0285C9.65734 19.9655 11.7659 22.7769 11.7659 22.7769H12.0001V5.67427Z" fill="#78909C"/>
<path d="M12 12.4683C12.5175 12.4683 12.937 12.0488 12.937 11.5313C12.937 11.0138 12.5175 10.5943 12 10.5943C11.4825 10.5943 11.063 11.0138 11.063 11.5313C11.063 12.0488 11.4825 12.4683 12 12.4683Z" fill="white"/>
</svg>
