<svg width="24" height="24" viewBox="0 0 24 24" fill="none" xmlns="http://www.w3.org/2000/svg">
<path d="M2.22305 3.198C2.22249 3.198 2.22205 3.19845 2.22205 3.199V8.15306C2.22205 8.49951 2.52058 8.65333 2.73604 8.38203C2.83327 8.25959 2.91404 8.14913 2.95805 8.099C3.15805 7.868 3.19505 7.574 3.29505 7.389C3.52305 6.967 3.56205 6.677 4.08105 6.677C4.32205 6.677 4.41805 6.732 4.58105 6.952C4.69505 7.104 4.89105 7.386 4.98305 7.574C5.08905 7.791 5.26205 8.085 5.33805 8.144C5.38755 8.18436 5.44283 8.21706 5.50205 8.241C5.58605 8.273 5.65605 8.215 5.71205 8.171C5.78405 8.113 5.81505 7.996 5.88105 7.841C5.97705 7.617 6.08105 7.349 6.14105 7.255C6.24305 7.093 6.27805 6.901 6.38905 6.808C6.55305 6.671 6.76605 6.661 6.82505 6.65C7.15405 6.585 7.30305 6.808 7.46505 6.953C7.57105 7.047 7.71505 7.238 7.81905 7.493C7.89905 7.693 8.00105 7.877 8.04405 7.993C8.08505 8.103 8.18705 8.282 8.24805 8.495C8.2952 8.66132 8.40997 8.79457 8.47705 8.88718C8.49725 8.91506 8.51178 8.94644 8.53031 8.97546C8.58135 9.05538 8.72846 9.22787 9.11105 9.389C9.22405 9.436 9.45105 9.513 9.58705 9.563C9.81305 9.645 10.032 9.634 10.31 9.601C10.509 9.601 10.617 9.313 10.707 9.083C10.76 8.947 10.812 8.557 10.847 8.446C10.88 8.338 10.801 8.255 10.868 8.16C10.947 8.05 10.994 8.044 11.039 7.9C11.137 7.593 11.699 7.577 12.016 7.577C12.28 7.577 12.246 7.833 12.694 7.746C12.95 7.696 13.197 7.779 13.47 7.851C13.699 7.911 13.914 7.981 14.043 8.132C14.1137 8.21442 14.2713 8.57411 14.1942 8.69948C14.1749 8.73072 14.1453 8.78284 14.169 8.8109C14.1818 8.82609 14.1934 8.84839 14.1853 8.86649C14.1234 9.00369 13.9368 8.88654 13.83 8.865C13.677 8.833 13.569 8.87 13.42 8.935C13.163 9.05 12.788 9.037 12.564 9.223C12.3777 9.37695 12.3751 9.71937 12.2921 9.91741C12.2888 9.92522 12.2857 9.93253 12.2824 9.94035C12.2465 10.0271 11.9989 10.5914 11.506 10.947C11.369 11.047 11.101 11.284 10.517 11.374C10.2605 11.4113 10.0008 11.4217 9.74205 11.405C9.61005 11.399 9.48605 11.392 9.35405 11.39C9.29851 11.39 9.14727 11.3853 9.07214 11.3921C9.04143 11.3949 9.02228 11.4225 9.01056 11.451C9.00304 11.4693 9.00086 11.4893 9.00428 11.5088L9.01605 11.576C9.02705 11.635 9.03005 11.681 9.03205 11.736C9.03605 11.846 9.02305 11.961 9.02905 12.073C9.04005 12.304 9.12605 12.515 9.13705 12.749C9.14905 13.009 9.27705 13.284 9.40205 13.496C9.44905 13.577 9.52205 13.586 9.55205 13.686C9.58905 13.8 9.55505 13.921 9.57205 14.043C9.62231 14.4047 9.71426 14.759 9.8458 15.0987C9.92608 15.3061 10.1454 15.415 10.3611 15.3606C10.5129 15.3223 10.6752 15.2818 10.861 15.254C11.485 15.162 12.354 15.209 12.911 15.157C14.1721 15.0383 14.9178 15.5934 15.9649 15.5066C16.197 15.4874 16.358 15.28 16.358 15.0471V3.698C16.358 3.42186 16.1342 3.198 15.858 3.198H2.22305ZM3.36305 11.064C3.35305 11.064 3.34105 11.064 3.33005 11.066C3.21805 11.084 3.11005 11.122 3.04005 11.236C2.98305 11.327 2.96405 11.486 2.92405 11.592C2.87805 11.715 2.80005 11.831 2.73005 11.948C2.60305 12.164 2.37505 12.358 2.27605 12.568C2.2667 12.5886 2.25801 12.61 2.24967 12.6321C2.23034 12.6833 2.22205 12.7379 2.22205 12.7927V14.7323C2.22205 14.9512 2.38055 15.1346 2.59205 15.191C3.58505 15.456 3.82805 15.478 4.80205 15.367C4.85885 15.3595 4.90813 15.3239 4.92383 15.2688C4.984 15.0576 5.03184 14.6479 5.07305 14.508C5.11105 14.382 5.16305 14.282 5.18305 14.154C5.20105 14.033 5.18105 13.917 5.17005 13.806C5.14305 13.53 5.37205 13.431 5.48105 13.193C5.58005 12.978 5.63705 12.733 5.71805 12.513C5.7399 12.4542 5.7652 12.3884 5.7949 12.3218C5.90925 12.0654 5.86235 11.8722 5.58305 11.844C5.46429 11.8333 5.34614 11.8166 5.22905 11.794C5.00805 11.749 4.76605 11.706 4.54905 11.654C4.322 11.5874 4.0984 11.5097 3.87905 11.421C3.66905 11.324 3.52505 11.071 3.36305 11.064ZM7.41305 11.65C6.89005 11.755 6.72705 12.268 6.48105 12.674C6.34505 12.899 6.20105 13.09 6.09405 13.329C5.99405 13.549 6.00405 13.793 5.83405 13.981C5.66585 14.1692 5.5391 14.3906 5.46205 14.631C5.36406 14.925 5.71652 15.2721 6.0256 15.2502L6.12705 15.243C6.85105 15.293 6.64205 15.57 7.77305 15.509L9.11297 15.4677C9.33447 15.4609 9.48626 15.2418 9.39705 15.039C9.34705 14.936 9.28405 14.733 9.24305 14.644C9.1816 14.5144 9.10864 14.3906 9.02505 14.274C8.89505 14.121 8.86505 14.11 8.82705 13.918C8.72897 13.4499 8.57835 12.9943 8.37805 12.56C8.27105 12.345 8.09305 12.163 7.93105 12.007C7.78905 11.87 7.46805 11.639 7.41305 11.65ZM18.278 6.802C18.0019 6.802 17.778 7.02586 17.778 7.302V8.302C17.778 8.57814 18.0019 8.802 18.278 8.802H19.278C19.5542 8.802 19.778 9.02586 19.778 9.302V18.302C19.778 18.5781 19.5542 18.802 19.278 18.802H10.278C10.0019 18.802 9.77805 18.5781 9.77805 18.302V17.302C9.77805 17.0259 9.55419 16.802 9.27805 16.802H8.27805C8.0019 16.802 7.77805 17.0259 7.77805 17.302V20.302C7.77805 20.5781 8.0019 20.802 8.27805 20.802H21.278C21.5542 20.802 21.778 20.5781 21.778 20.302V7.302C21.778 7.02586 21.5542 6.802 21.278 6.802H18.278Z" fill="#EA580C"/>
</svg>
