<svg width="24" height="24" viewBox="0 0 24 24" fill="none" xmlns="http://www.w3.org/2000/svg">
<path d="M2.007 10.96C1.89091 10.8962 1.78888 10.8096 1.70704 10.7054C1.62519 10.6012 1.5652 10.4816 1.53065 10.3537C1.49611 10.2258 1.48772 10.0922 1.506 9.961C1.52427 9.82978 1.56883 9.7036 1.637 9.59L3.137 7C3.247 6.8 3.417 6.66 3.607 6.58L11.437 2.18C11.597 2.06 11.797 2 12.007 2C12.217 2 12.417 2.06 12.577 2.18L20.477 6.62C20.667 6.72 20.827 6.88 20.917 7.08L22.367 9.6C22.647 10.08 22.477 10.69 22.007 10.96L21.007 11.54V16.5C21.007 16.88 20.797 17.21 20.477 17.38L12.577 21.82C12.417 21.94 12.217 22 12.007 22C11.797 22 11.597 21.94 11.437 21.82L3.537 17.38C3.37668 17.2958 3.24252 17.1692 3.14908 17.014C3.05564 16.8589 3.0065 16.6811 3.007 16.5V10.96C2.707 11.13 2.327 11.14 2.007 10.96ZM12.007 4.15V10.85L17.967 7.5L12.007 4.15ZM5.007 15.91L11.007 19.29V12.58L5.007 9.21V15.91ZM19.007 15.91V12.69L14.007 15.59C13.677 15.77 13.307 15.76 13.007 15.6V19.29L19.007 15.91ZM13.857 13.36L20.137 9.73L19.557 8.72L13.277 12.35L13.857 13.36Z" fill="#CFD8DC"/>
</svg>
