<svg width="24" height="24" viewBox="0 0 24 24" fill="none" xmlns="http://www.w3.org/2000/svg">
<path d="M8.56201 16.0185C8.45626 15.3825 8.13826 14.8523 7.50151 14.64C7.29001 14.5343 6.97201 14.322 6.75901 14.2163C6.44176 14.1105 6.12376 14.004 5.91151 13.8983C5.69926 13.7925 5.48776 13.8983 5.27551 14.1105C5.16901 14.322 5.27551 14.5343 5.38126 14.64C5.48776 14.8523 5.59351 14.958 5.80576 15.1703C6.01726 15.4883 6.22951 15.7005 6.54826 16.0185C6.75976 16.3365 6.97201 16.5488 6.86551 16.9725C6.75976 17.715 6.44176 18.4575 5.91151 18.987C5.80576 19.0928 5.69926 19.0928 5.69926 19.0928C5.38126 19.0928 4.95676 18.8813 4.74526 18.669C4.42726 18.351 4.53301 18.033 4.85101 17.8215C4.9062 17.8178 4.95817 17.7941 4.99722 17.755C5.03627 17.7158 5.05974 17.6637 5.06326 17.6085C5.27551 17.397 5.38126 17.1848 5.27551 16.866C5.16976 16.761 5.16976 16.6545 5.06326 16.5488C4.63951 16.1243 4.10926 15.7005 3.57901 15.2768C2.20126 14.2163 1.56451 12.9443 1.45876 11.4593C1.35301 9.76351 1.77676 8.17351 2.62501 6.68926C2.94301 6.15901 3.36751 5.62876 4.00351 5.31076C4.42726 5.09851 4.85101 4.99276 5.27551 4.88701C6.44176 4.56826 7.71376 4.35676 8.98576 4.56826C10.0463 4.78051 10.8945 5.31076 11.2125 6.37126C11.4248 7.11301 11.5305 7.74901 11.4248 8.49151C11.3183 9.97576 10.152 11.2478 8.77426 11.6715C8.13826 11.8838 7.81951 11.778 7.50151 11.2478C7.29001 10.9298 6.97201 10.5053 6.75901 10.0815V9.97576C6.75901 9.86926 6.65401 9.86926 6.65401 9.76351C6.75901 10.3995 6.86551 11.0355 7.18351 11.5658C7.39576 11.8838 7.60801 12.096 8.03176 12.096C9.41026 12.2018 10.47 11.778 11.3183 10.7175C12.1665 9.55126 12.3788 8.17351 12.1665 6.68926C12.1665 6.37126 12.0608 6.15901 11.955 5.84101C11.955 5.62876 11.955 5.52301 12.1665 5.41651C12.273 5.41651 12.3788 5.41651 12.3788 5.31076C13.4393 5.09851 14.6048 4.99276 15.6653 5.09851C16.9373 5.20501 18.1035 5.52301 19.164 6.26476C20.8605 7.32526 21.9203 8.91526 22.4505 10.824C22.5563 11.142 22.5563 11.3535 22.5563 11.6715C22.5563 11.8838 22.4505 11.8838 22.2383 11.778C22.0268 11.6715 21.9203 11.46 21.8145 11.3535C21.7088 11.247 21.6023 11.0355 21.4965 10.9298C21.3908 10.824 21.2843 10.824 21.2843 10.9298C21.2843 11.0355 21.1785 11.142 21.1785 11.2478C20.8605 12.3083 20.436 13.2623 19.6935 14.004C19.5885 14.1105 19.482 14.322 19.482 14.4285C19.482 14.8523 19.3763 15.276 19.482 15.7005C19.5878 16.548 19.6943 17.5028 19.8 18.351C19.9058 18.8813 19.6943 19.0935 19.2698 19.305C18.9518 19.4108 18.6338 19.5173 18.21 19.5173H16.5135C16.5135 18.8813 16.5135 18.2453 15.9833 17.9273C16.089 17.5028 16.1955 17.079 16.3013 16.5488C16.4078 16.1243 16.3013 15.8063 16.089 15.4883C15.8775 15.1703 15.5595 15.1703 15.2415 15.2768C14.3933 15.8063 13.545 15.8063 12.591 15.4883C12.1665 15.3825 11.8485 15.3825 11.6363 15.8063C11.4248 16.2308 11.3183 16.6545 11.3183 17.079C11.3183 17.6085 11.4248 18.2445 11.5305 18.7748C11.5305 19.0928 11.5305 19.1993 11.2125 19.305C10.5222 19.4961 9.79816 19.5322 9.09226 19.4108H8.98651C8.98651 18.7748 8.98651 18.1388 8.24401 17.8208C8.66851 17.397 8.66851 16.6545 8.56201 16.0185ZM4.21501 13.5803C4.32151 13.4738 4.42726 13.368 4.42726 13.1558C4.53301 12.8378 4.21501 12.3083 3.89701 12.2018C3.68551 12.096 3.57901 12.2018 3.47326 12.3083C3.15526 12.6263 2.94301 12.9443 2.62501 13.2623C2.62501 13.368 2.51926 13.368 2.51926 13.4738C2.41276 13.686 2.51926 13.8983 2.73076 13.8983C2.83726 13.8983 3.04876 13.8983 3.15526 14.004C3.57901 14.004 3.89776 13.8983 4.21501 13.5803ZM4.21501 10.0815C4.21501 9.86926 4.00351 9.65776 3.79126 9.65776C3.57901 9.65776 3.26101 9.86926 3.36751 10.1873C3.36751 10.3995 3.57901 10.6118 3.89701 10.6118C4.00351 10.5053 4.21501 10.2938 4.21501 10.0815Z" fill="#60A5FA"/>
</svg>
