<svg width="24" height="24" viewBox="0 0 24 24" fill="none" xmlns="http://www.w3.org/2000/svg">
<path d="M21.46 10.086C21.236 10.676 20.448 10.934 19.919 10.355C18.251 8.42999 14.983 8.41 14.074 11.318C13.38 13.41 15.109 15.598 18.167 15.321C18.838 15.268 19.312 15.869 19.101 16.531L17.58 20.688C17.194 21.711 16.204 22.262 15.033 21.879L3.384 17.631C2.335 17.261 1.76 16.118 2.104 15.091L6.419 3.298C6.884 2.246 7.687 1.77 8.966 2.107L20.615 6.353C21.666 6.726 22.24 7.868 21.896 8.894L21.46 10.086ZM19.237 12.16C19.237 10.589 17.524 9.601 16.162 10.387C14.799 11.173 14.799 13.147 16.162 13.933C17.525 14.719 19.237 13.731 19.237 12.16Z" fill="#60A5FA"/>
</svg>
