<svg width="24" height="24" viewBox="0 0 24 24" fill="none" xmlns="http://www.w3.org/2000/svg">
<path d="M15 17.25H8.895C8.82073 16.987 8.71231 16.7348 8.5725 16.5L16.5 8.57251C16.9515 8.84955 17.4703 8.99742 18 9.00001C18.5615 9.00183 19.1123 8.84602 19.5896 8.55032C20.0669 8.25461 20.4517 7.83087 20.7001 7.32731C20.9486 6.82374 21.0507 6.26056 20.9949 5.70182C20.9391 5.14309 20.7276 4.61124 20.3844 4.16676C20.0413 3.72229 19.5803 3.38304 19.0539 3.1876C18.5275 2.99216 17.9568 2.94838 17.4068 3.06125C16.8567 3.17411 16.3494 3.43908 15.9424 3.82602C15.5355 4.21295 15.2454 4.70632 15.105 5.25001H8.895C8.71246 4.54301 8.27833 3.92687 7.674 3.51706C7.06966 3.10725 6.33661 2.93191 5.61225 3.02392C4.88789 3.11592 4.22195 3.46895 3.73926 4.01683C3.25657 4.56471 2.99026 5.26983 2.99026 6.00001C2.99026 6.73019 3.25657 7.4353 3.73926 7.98318C4.22195 8.53106 4.88789 8.88409 5.61225 8.9761C6.33661 9.0681 7.06966 8.89277 7.674 8.48296C8.27833 8.07315 8.71246 7.457 8.895 6.75001H15.105C15.1793 7.01251 15.288 7.26526 15.4275 7.50001L7.5 15.4275C7.04853 15.1505 6.5297 15.0026 6 15C5.43849 14.9982 4.88774 15.154 4.4104 15.4497C3.93306 15.7454 3.54829 16.1691 3.29986 16.6727C3.05143 17.1763 2.94931 17.7395 3.00513 18.2982C3.06094 18.8569 3.27244 19.3888 3.61558 19.8333C3.95871 20.2777 4.4197 20.617 4.94611 20.8124C5.47251 21.0079 6.0432 21.0516 6.59325 20.9388C7.14331 20.8259 7.65065 20.5609 8.05756 20.174C8.46447 19.7871 8.75462 19.2937 8.895 18.75H15V21H21V15H15V17.25ZM6 7.50001C5.60218 7.50001 5.22065 7.34197 4.93934 7.06067C4.65804 6.77936 4.5 6.39783 4.5 6.00001C4.5 5.60218 4.65804 5.22065 4.93934 4.93935C5.22065 4.65804 5.60218 4.50001 6 4.50001C6.39783 4.50001 6.77936 4.65804 7.06066 4.93935C7.34197 5.22065 7.5 5.60218 7.5 6.00001C7.5 6.39783 7.34197 6.77936 7.06066 7.06067C6.77936 7.34197 6.39783 7.50001 6 7.50001ZM18 4.50001C18.3978 4.50001 18.7794 4.65804 19.0607 4.93935C19.342 5.22065 19.5 5.60218 19.5 6.00001C19.5 6.39783 19.342 6.77936 19.0607 7.06067C18.7794 7.34197 18.3978 7.50001 18 7.50001C17.6022 7.50001 17.2206 7.34197 16.9393 7.06067C16.658 6.77936 16.5 6.39783 16.5 6.00001C16.5 5.60218 16.658 5.22065 16.9393 4.93935C17.2206 4.65804 17.6022 4.50001 18 4.50001ZM6 19.5C5.60218 19.5 5.22065 19.342 4.93934 19.0607C4.65804 18.7794 4.5 18.3978 4.5 18C4.5 17.6022 4.65804 17.2207 4.93934 16.9393C5.22065 16.658 5.60218 16.5 6 16.5C6.39783 16.5 6.77936 16.658 7.06066 16.9393C7.34197 17.2207 7.5 17.6022 7.5 18C7.5 18.3978 7.34197 18.7794 7.06066 19.0607C6.77936 19.342 6.39783 19.5 6 19.5ZM16.5 16.5H19.5V19.5H16.5V16.5Z" fill="#FBBF24"/>
</svg>
