<svg width="24" height="24" viewBox="0 0 24 24" fill="none" xmlns="http://www.w3.org/2000/svg">
<path d="M19.7619 6.40824L12.9906 2.53039C12.3774 2.17861 11.6238 2.17861 11.0107 2.53039L4.23938 6.40824C3.84867 6.6321 3.55252 6.97692 3.38567 7.38153C3.28834 7.6179 3.23689 7.87373 3.23689 8.13791V15.8644C3.23689 16.5791 3.60674 17.1728 4.22686 17.5287L5.18625 18.0752L5.21545 9.01109C5.21545 8.81921 5.25716 8.62038 5.32251 8.44658C5.45043 8.13235 5.68679 7.84592 5.99129 7.67212L11.2345 4.67023C11.7101 4.39771 12.2926 4.39771 12.7682 4.67023L18.0114 7.67212C18.3771 7.88207 18.6371 8.22968 18.7386 8.62733C18.7706 8.75108 18.7872 8.879 18.7872 9.01109V14.994C18.7872 15.5474 18.4911 16.0577 18.0114 16.333L12.7682 19.3349C12.529 19.4725 12.262 19.5393 11.9951 19.5379L11.9965 21.7333C12.3385 21.7333 12.6833 21.6457 12.9892 21.4706L19.7605 17.5927C20.3806 17.2381 20.763 16.5777 20.763 15.863V8.13791C20.763 7.95438 20.738 7.77501 20.6893 7.60399C20.5531 7.10483 20.2235 6.67242 19.7619 6.40824Z" fill="#FF7043"/>
<path d="M12.5499 17.259L16.3109 15.1053C16.6557 14.9078 16.8671 14.5421 16.8671 14.1445V9.85507C16.8671 9.76469 16.856 9.6771 16.8351 9.59089C16.7642 9.3003 16.5765 9.04724 16.3109 8.89429L12.5499 6.74194C12.2092 6.54728 11.7907 6.54728 11.45 6.74194L7.69037 8.89429C7.454 9.03056 7.27881 9.24607 7.1926 9.49495C7.15645 9.60758 7.13282 9.7341 7.13282 9.85507L7.11891 19.1653L9.12527 20.2915V15.9284L11.45 17.259C11.6169 17.3549 11.8032 17.4036 11.9895 17.405C12.1828 17.4078 12.3774 17.3591 12.5499 17.259ZM9.44229 13.8442C9.2379 13.7274 9.11137 13.5091 9.11137 13.2741V10.7269C9.11137 10.649 9.12527 10.5739 9.1503 10.503C9.20314 10.3584 9.30464 10.2347 9.44229 10.1568L11.6753 8.879C11.8769 8.7636 12.1258 8.7636 12.3288 8.879L14.5618 10.1568C14.7258 10.2513 14.8399 10.4098 14.8774 10.5906C14.8844 10.6295 14.8913 10.6865 14.8913 10.7269V13.2741C14.8913 13.5091 14.7648 13.7274 14.5604 13.8442L12.3274 15.1219C12.2259 15.1803 12.1133 15.2095 12.0006 15.2095C11.888 15.2095 11.7754 15.1803 11.6739 15.1233L9.44229 13.8442Z" fill="#FF7043"/>
</svg>
