<svg width="24" height="24" viewBox="0 0 24 24" fill="none" xmlns="http://www.w3.org/2000/svg">
<path d="M12 15.385C12.4698 16.0957 13.1099 16.6777 13.862 17.078L12 18.94L10.138 17.078C10.8917 16.6801 11.5324 16.0976 12 15.385ZM16.232 11.322C15.783 11.322 15.3523 11.5004 15.0348 11.8179C14.7173 12.1354 14.539 12.566 14.539 13.015C14.539 13.464 14.7173 13.8946 15.0348 14.2121C15.3523 14.5296 15.783 14.708 16.232 14.708C16.4543 14.708 16.6745 14.6642 16.8799 14.5791C17.0853 14.494 17.2719 14.3693 17.4291 14.2121C17.5863 14.0549 17.711 13.8683 17.7961 13.6629C17.8812 13.4575 17.925 13.2373 17.925 13.015C17.925 12.075 17.163 11.322 16.232 11.322ZM7.76798 11.322C7.31897 11.322 6.88835 11.5004 6.57085 11.8179C6.25335 12.1354 6.07498 12.566 6.07498 13.015C6.07498 13.464 6.25335 13.8946 6.57085 14.2121C6.88835 14.5296 7.31897 14.708 7.76798 14.708C8.21699 14.708 8.64761 14.5296 8.96511 14.2121C9.28261 13.8946 9.46098 13.464 9.46098 13.015C9.46098 12.075 8.69898 11.322 7.76798 11.322ZM16.232 9.206C16.6766 9.206 17.1168 9.29358 17.5276 9.46376C17.9383 9.63393 18.3115 9.88336 18.6259 10.1978C18.9402 10.5122 19.1895 10.8855 19.3596 11.2963C19.5297 11.7071 19.6171 12.1474 19.617 12.592C19.617 13.0365 19.5294 13.4767 19.3593 13.8874C19.1892 14.2981 18.9399 14.6712 18.6255 14.9856C18.3112 15.2999 17.9381 15.5492 17.5274 15.7193C17.1167 15.8894 16.6765 15.977 16.232 15.977C15.7874 15.9771 15.3471 15.8897 14.9363 15.7196C14.5255 15.5496 14.1522 15.3002 13.8378 14.9859C13.5233 14.6716 13.2739 14.2984 13.1037 13.8876C12.9336 13.4769 12.846 13.0366 12.846 12.592C12.8458 12.1473 12.9333 11.7069 13.1035 11.2961C13.2736 10.8852 13.523 10.5119 13.8374 10.1974C14.1519 9.88299 14.5252 9.63359 14.9361 9.46347C15.3469 9.29336 15.7873 9.20586 16.232 9.206ZM7.76798 9.206C8.21267 9.20586 8.65303 9.29336 9.0639 9.46347C9.47477 9.63359 9.84809 9.88299 10.1625 10.1974C10.477 10.5119 10.7264 10.8852 10.8965 11.2961C11.0666 11.7069 11.1541 12.1473 11.154 12.592C11.154 13.0366 11.0664 13.4769 10.8962 13.8876C10.726 14.2984 10.4766 14.6716 10.1622 14.9859C9.84775 15.3002 9.47447 15.5496 9.06367 15.7196C8.65287 15.8897 8.21259 15.9771 7.76798 15.977C6.87022 15.977 6.00923 15.6204 5.37442 14.9856C4.73961 14.3507 4.38298 13.4898 4.38298 12.592C4.38285 12.1474 4.47031 11.7071 4.64036 11.2963C4.81041 10.8855 5.05973 10.5122 5.37407 10.1978C5.68841 9.88336 6.06161 9.63393 6.47236 9.46376C6.88312 9.29358 7.32337 9.206 7.76798 9.206ZM3.73998 2.69C5.22998 5.822 4.15498 8.158 3.15598 10.477C2.85123 11.1409 2.69265 11.8625 2.69098 12.593C2.69098 13.9398 3.22598 15.2314 4.17829 16.1837C5.1306 17.136 6.42221 17.671 7.76898 17.671C7.94721 17.6655 8.12508 17.6515 8.30198 17.629L10.808 20.134L12 21.31L13.194 20.133L15.699 17.628C15.877 17.653 16.054 17.662 16.232 17.67C17.5787 17.67 18.8704 17.135 19.8227 16.1827C20.775 15.2304 21.31 13.9388 21.31 12.592C21.3083 11.8615 21.1497 11.1399 20.845 10.476C19.846 8.15699 18.771 5.821 20.261 2.689C18.026 4.433 14.844 5.812 12.001 5.821C9.15598 5.813 5.97398 4.433 3.73998 2.689V2.69Z" fill="#EF5350"/>
</svg>
