<svg width="24" height="25" viewBox="0 0 24 25" fill="none" xmlns="http://www.w3.org/2000/svg">
<path fill-rule="evenodd" clip-rule="evenodd" d="M17.9471 9.71718C17.9476 9.86968 17.948 10.0267 17.955 10.188C17.9659 10.3871 18.0046 10.5923 18.0444 10.8031C18.1137 11.1707 18.1861 11.555 18.1196 11.9519C18.0622 12.341 18.022 12.7301 17.9826 13.1123C17.9397 13.5275 17.8976 13.9345 17.8353 14.3246C17.7906 14.6284 17.5819 14.9049 17.3748 15.1794C17.1668 15.4552 16.9603 15.7289 16.9228 16.0261C16.7283 17.6183 15.2025 18.352 11.6122 18.352V18.4768H11.5972V18.352C8.00696 18.352 6.42126 17.6183 6.21183 16.0261C6.17467 15.7392 5.9566 15.4676 5.73554 15.1924C5.51162 14.9136 5.28463 14.631 5.23946 14.3246C5.17715 13.9345 5.13512 13.5275 5.09224 13.1123C5.05277 12.7301 5.0126 12.341 4.95523 11.9519C4.8888 11.5558 4.96083 11.1786 5.03002 10.8162C5.06991 10.6073 5.10884 10.4034 5.11978 10.2036C5.12794 10.0788 5.13363 9.95704 5.13918 9.83822C5.16416 9.30322 5.1864 8.82714 5.41897 8.39286C6.13703 7.09724 8.02192 6.34796 11.6122 6.34796C15.2025 6.34796 16.9976 7.09724 17.7157 8.37725C17.9446 8.77139 17.9458 9.22037 17.9471 9.71718ZM11.9238 12.0697C11.9878 12.0525 12.0146 11.937 11.9836 11.8118C11.9527 11.6866 11.8757 11.599 11.8117 11.6162C11.7477 11.6335 11.7209 11.7489 11.7519 11.8741C11.7828 11.9994 11.8598 12.0869 11.9238 12.0697ZM11.8156 12.3523C11.697 12.377 11.6122 12.3947 11.6122 12.4202C11.6206 12.4553 11.6243 12.51 11.6285 12.5734L11.6285 12.5735C11.6319 12.6229 11.6355 12.6777 11.6421 12.7324C11.6421 12.7995 11.643 12.8901 11.644 12.9934V12.9934V12.9934V12.9935C11.6477 13.3685 11.653 13.9113 11.6236 14.1066C12.2822 14.1305 13.2727 15.0424 13.2727 16.1822V16.2447C13.2578 15.1364 12.0012 14.231 11.5973 14.231C11.1934 14.231 9.93676 15.1364 9.9218 16.2447V16.1822C9.9218 15.0619 10.905 14.1378 11.5636 14.1069C11.5224 13.8718 11.5224 13.077 11.5224 12.7324C11.5224 12.6664 11.5279 12.5833 11.5322 12.5175V12.5175L11.5322 12.5174C11.535 12.4744 11.5374 12.4387 11.5374 12.4202C11.5374 12.3804 10.9309 12.2162 10.75 12.1681C10.9012 12.2072 11.3461 12.3158 11.4327 12.2641C11.5224 12.2017 11.5673 12.0144 11.5673 12.0144C11.5673 12.0144 11.5972 12.2017 11.7169 12.2641C11.8366 12.3422 12.3901 12.1549 12.3901 12.1549C12.2307 12.2657 11.9876 12.3164 11.8156 12.3523L11.8156 12.3523ZM10.6997 12.1549C10.6997 12.1549 10.7184 12.16 10.75 12.1681L10.6997 12.1549ZM11.3356 11.8807C11.2989 12.0042 11.218 12.0878 11.1549 12.0674C11.0917 12.0469 11.0703 11.9302 11.107 11.8067C11.1438 11.6832 11.2247 11.5997 11.2878 11.6201C11.351 11.6405 11.3724 11.7572 11.3356 11.8807ZM10.1611 13.2475C10.1611 13.3165 10.1075 13.3724 10.0414 13.3724C9.97535 13.3724 9.92177 13.3165 9.92177 13.2475C9.92177 13.1785 9.97535 13.1226 10.0414 13.1226C10.1075 13.1226 10.1611 13.1785 10.1611 13.2475ZM9.473 13.9968C9.473 14.0658 9.41942 14.1217 9.35332 14.1217C9.28722 14.1217 9.23364 14.0658 9.23364 13.9968C9.23364 13.9279 9.28722 13.8719 9.35332 13.8719C9.41942 13.8719 9.473 13.9279 9.473 13.9968ZM9.12892 13.3724C9.19501 13.3724 9.24859 13.3165 9.24859 13.2476C9.24859 13.1786 9.19501 13.1227 9.12892 13.1227C9.06282 13.1227 9.00924 13.1786 9.00924 13.2476C9.00924 13.3165 9.06282 13.3724 9.12892 13.3724ZM13.0782 13.2476C13.0782 13.3165 13.0246 13.3724 12.9585 13.3724C12.8924 13.3724 12.8389 13.3165 12.8389 13.2476C12.8389 13.1786 12.8924 13.1227 12.9585 13.1227C13.0246 13.1227 13.0782 13.1786 13.0782 13.2476ZM13.6467 14.1217C13.7128 14.1217 13.7663 14.0658 13.7663 13.9968C13.7663 13.9279 13.7128 13.8719 13.6467 13.8719C13.5806 13.8719 13.527 13.9279 13.527 13.9968C13.527 14.0658 13.5806 14.1217 13.6467 14.1217ZM13.9907 13.2475C13.9907 13.3165 13.9372 13.3724 13.8711 13.3724C13.805 13.3724 13.7514 13.3165 13.7514 13.2475C13.7514 13.1785 13.805 13.1226 13.8711 13.1226C13.9372 13.1226 13.9907 13.1785 13.9907 13.2475Z" fill="#FED7AA"/>
<path fill-rule="evenodd" clip-rule="evenodd" d="M17.0126 11.3119C17.0126 12.0706 16.4232 12.6856 15.6962 12.6856C14.9691 12.6856 14.3797 12.0706 14.3797 11.3119C14.3797 10.5532 14.9691 9.93823 15.6962 9.93823C16.4232 9.93823 17.0126 10.5532 17.0126 11.3119ZM15.6962 10.7031C15.6962 10.9014 15.5421 11.0621 15.3521 11.0621C15.1621 11.0621 15.008 10.9014 15.008 10.7031C15.008 10.5048 15.1621 10.3441 15.3521 10.3441C15.5421 10.3441 15.6962 10.5048 15.6962 10.7031Z" fill="#18181B"/>
<path d="M13.6916 11.2495C13.6916 11.2495 14.8734 12.0924 15.5166 12.9197C16.1599 13.7471 16.1449 13.9032 16.1449 13.9032L15.6812 14.1217C15.6812 14.1217 15.023 12.8261 14.2152 12.3422C13.3924 11.8583 13.3026 11.4524 13.3026 11.4524L13.6916 11.2495Z" fill="#FED7AA"/>
<path fill-rule="evenodd" clip-rule="evenodd" d="M8.76992 11.3119C8.76992 12.0706 8.18053 12.6856 7.45349 12.6856C6.72644 12.6856 6.13705 12.0706 6.13705 11.3119C6.13705 10.5532 6.72644 9.93823 7.45349 9.93823C8.18053 9.93823 8.76992 10.5532 8.76992 11.3119ZM8.14164 10.7031C8.14164 10.9014 7.9876 11.0621 7.79757 11.0621C7.60755 11.0621 7.45351 10.9014 7.45351 10.7031C7.45351 10.5048 7.60755 10.3441 7.79757 10.3441C7.9876 10.3441 8.14164 10.5048 8.14164 10.7031Z" fill="#18181B"/>
<path d="M9.3683 11.2495C9.3683 11.2495 8.1865 12.0924 7.54324 12.9197C6.89999 13.7471 6.91495 13.9032 6.91495 13.9032L7.37869 14.1217C7.37869 14.1217 8.03691 12.8261 8.84472 12.3422C9.65253 11.8583 9.75725 11.4524 9.75725 11.4524L9.3683 11.2495Z" fill="#FED7AA"/>
<path d="M15.2623 6.7538C15.2623 6.7538 16.9976 8.26796 17.5063 10.0163C18.0149 11.7646 17.8055 13.8875 18.1944 14.1529C18.7479 14.5275 19.3762 12.2953 19.5856 12.0612C19.9147 11.6865 21.0068 10.7343 21.0816 10.5626C21.1564 10.3909 18.8676 7.78405 17.8653 7.26893C16.6536 6.67575 15.1576 6.62892 15.2623 6.7538Z" fill="#713F12"/>
<path d="M7.73771 6.7538C7.73771 6.7538 6.00241 8.26796 5.49379 10.0163C4.98517 11.7646 5.1946 13.8875 4.80566 14.1529C4.25216 14.5275 3.62386 12.2953 3.41442 12.0612C3.08532 11.6865 1.99327 10.7343 1.91848 10.5626C1.84368 10.3909 4.13248 7.78405 5.13476 7.26893C6.34648 6.67575 7.84243 6.62892 7.73771 6.7538Z" fill="#713F12"/>
<path fill-rule="evenodd" clip-rule="evenodd" d="M15.0679 13.388C14.5548 12.7299 13.8203 12.1038 12.8589 11.7999C12.7581 11.4654 12.2821 11.1089 11.6122 11.1089C10.9588 11.1209 10.4899 11.4628 10.3737 11.7835C9.38621 12.0809 8.63413 12.7179 8.1117 13.388C7.41723 14.2721 7.41914 14.6583 7.42296 15.4336C7.42326 15.4934 7.42356 15.5554 7.42356 15.6202C7.42356 18.1055 8.05985 18.1682 8.68706 18.23C8.88714 18.2497 9.0863 18.2694 9.26358 18.3675C9.86496 18.6813 10.4857 18.6621 11.118 18.6425H11.118C11.2721 18.6377 11.4269 18.6329 11.5823 18.6329H11.5973C11.7435 18.6329 11.8884 18.6365 12.0319 18.64C12.6809 18.6561 13.3035 18.6715 13.916 18.3519C14.0938 18.2573 14.2935 18.2425 14.4942 18.2277C15.1208 18.1814 15.756 18.1344 15.756 15.6514L15.7582 15.5282C15.7734 14.7071 15.781 14.2959 15.0679 13.388ZM11.9238 12.0697C11.9878 12.0525 12.0146 11.937 11.9837 11.8118C11.9527 11.6866 11.8757 11.599 11.8117 11.6162C11.7477 11.6335 11.7209 11.7489 11.7519 11.8741C11.7828 11.9994 11.8598 12.0869 11.9238 12.0697ZM11.8157 12.3523C11.697 12.377 11.6122 12.3947 11.6122 12.4202C11.6206 12.4553 11.6243 12.51 11.6285 12.5734L11.6286 12.5735C11.6319 12.6229 11.6356 12.6777 11.6421 12.7324C11.6421 12.7995 11.643 12.89 11.644 12.9933L11.644 12.9934V12.9934V12.9934C11.6477 13.3685 11.653 13.9113 11.6236 14.1066C12.2822 14.1305 13.2727 15.0424 13.2727 16.1822V16.2447C13.2578 15.1364 12.0012 14.231 11.5973 14.231C11.1934 14.231 9.93678 15.1364 9.92182 16.2447V16.1822C9.92182 15.0619 10.905 14.1378 11.5636 14.1069C11.5224 13.8718 11.5224 13.077 11.5224 12.7324C11.5224 12.6664 11.5279 12.5832 11.5322 12.5175V12.5175L11.5322 12.5174C11.5351 12.4744 11.5374 12.4387 11.5374 12.4202C11.5374 12.3804 10.931 12.2162 10.75 12.1681C10.9012 12.2072 11.3461 12.3158 11.4327 12.2641C11.5224 12.2017 11.5673 12.0144 11.5673 12.0144C11.5673 12.0144 11.5972 12.2017 11.7169 12.2641C11.8366 12.3422 12.3901 12.1549 12.3901 12.1549C12.2308 12.2657 11.9876 12.3164 11.8157 12.3523ZM10.6997 12.1549C10.6997 12.1549 10.7184 12.16 10.75 12.1681L10.6997 12.1549ZM11.3357 11.8807C11.2989 12.0042 11.218 12.0878 11.1549 12.0674C11.0917 12.0469 11.0703 11.9302 11.1071 11.8067C11.1438 11.6832 11.2247 11.5997 11.2878 11.6201C11.351 11.6405 11.3724 11.7572 11.3357 11.8807ZM10.1611 13.2475C10.1611 13.3165 10.1076 13.3724 10.0415 13.3724C9.97537 13.3724 9.92179 13.3165 9.92179 13.2475C9.92179 13.1785 9.97537 13.1226 10.0415 13.1226C10.1076 13.1226 10.1611 13.1785 10.1611 13.2475ZM9.47301 13.9968C9.47301 14.0658 9.41943 14.1217 9.35334 14.1217C9.28724 14.1217 9.23366 14.0658 9.23366 13.9968C9.23366 13.9279 9.28724 13.8719 9.35334 13.8719C9.41943 13.8719 9.47301 13.9279 9.47301 13.9968ZM9.12893 13.3724C9.19503 13.3724 9.24861 13.3165 9.24861 13.2476C9.24861 13.1786 9.19503 13.1227 9.12893 13.1227C9.06284 13.1227 9.00925 13.1786 9.00925 13.2476C9.00925 13.3165 9.06284 13.3724 9.12893 13.3724ZM13.0782 13.2476C13.0782 13.3165 13.0246 13.3724 12.9585 13.3724C12.8925 13.3724 12.8389 13.3165 12.8389 13.2476C12.8389 13.1786 12.8925 13.1227 12.9585 13.1227C13.0246 13.1227 13.0782 13.1786 13.0782 13.2476ZM13.6467 14.1217C13.7128 14.1217 13.7664 14.0658 13.7664 13.9968C13.7664 13.9279 13.7128 13.8719 13.6467 13.8719C13.5806 13.8719 13.527 13.9279 13.527 13.9968C13.527 14.0658 13.5806 14.1217 13.6467 14.1217ZM13.9908 13.2475C13.9908 13.3165 13.9372 13.3724 13.8711 13.3724C13.805 13.3724 13.7514 13.3165 13.7514 13.2475C13.7514 13.1785 13.805 13.1226 13.8711 13.1226C13.9372 13.1226 13.9908 13.1785 13.9908 13.2475Z" fill="#713F12"/>
<path d="M15.3521 11.0621C15.5421 11.0621 15.6961 10.9014 15.6961 10.7031C15.6961 10.5048 15.5421 10.3441 15.3521 10.3441C15.162 10.3441 15.008 10.5048 15.008 10.7031C15.008 10.9014 15.162 11.0621 15.3521 11.0621Z" fill="white"/>
<path d="M7.79753 11.0621C7.98755 11.0621 8.1416 10.9014 8.1416 10.7031C8.1416 10.5048 7.98755 10.3441 7.79753 10.3441C7.60751 10.3441 7.45346 10.5048 7.45346 10.7031C7.45346 10.9014 7.60751 11.0621 7.79753 11.0621Z" fill="white"/>
</svg>
