<svg width="24" height="25" viewBox="0 0 24 25" fill="none" xmlns="http://www.w3.org/2000/svg">
<path fill-rule="evenodd" clip-rule="evenodd" d="M5.82 13.0966C6.49468 12.6902 6.4958 11.3742 5.8225 10.1573C5.14919 8.94045 4.05643 8.28351 3.38175 8.68998C2.70706 9.09646 2.70594 10.4124 3.37924 11.6293C4.05255 12.8462 5.14531 13.5031 5.82 13.0966ZM5.82403 15.7022C6.49734 16.9191 6.49622 18.2351 5.82153 18.6416C5.14683 19.048 4.05408 18.3911 3.38078 17.1742C2.70747 15.9574 2.70859 14.6414 3.38328 14.2349C4.05797 13.8284 5.15073 14.4854 5.82403 15.7022ZM10.4218 18.476C11.0951 19.6929 11.094 21.0088 10.4193 21.4154C9.74462 21.8218 8.65185 21.1648 7.97855 19.948C7.30526 18.7311 7.30638 17.4152 7.98107 17.0087C8.65575 16.6022 9.74851 17.2591 10.4218 18.476ZM10.4203 12.9312C11.0936 14.148 11.0925 15.464 10.4178 15.8705C9.74312 16.2769 8.65037 15.62 7.97706 14.4031C7.30376 13.1863 7.30488 11.8703 7.97956 11.4638C8.65425 11.0573 9.74702 11.7143 10.4203 12.9312Z" fill="#F87171"/>
<path fill-rule="evenodd" clip-rule="evenodd" d="M19.6181 11.6323C20.2913 10.4154 20.2903 9.09942 19.6156 8.69294C18.9409 8.28647 17.8482 8.94341 17.1749 10.1603C16.5016 11.3771 16.5027 12.6931 17.1774 13.0996C17.852 13.5061 18.9448 12.8491 19.6181 11.6323ZM19.6182 14.2366C20.2929 14.643 20.2941 15.959 19.6208 17.1759C18.9475 18.3927 17.8547 19.0497 17.18 18.6432C16.5053 18.2367 16.5042 16.9207 17.1775 15.7039C17.8508 14.487 18.9436 13.8301 19.6182 14.2366ZM15.0214 17.0058C15.6961 17.4123 15.6972 18.7282 15.0239 19.9451C14.3506 21.1619 13.2578 21.8189 12.5831 21.4124C11.9085 21.006 11.9073 19.69 12.5806 18.4731C13.2539 17.2562 14.3467 16.5993 15.0214 17.0058ZM15.0188 11.4621C15.6935 11.8686 15.6946 13.1846 15.0213 14.4014C14.348 15.6183 13.2552 16.2753 12.5805 15.8688C11.9059 15.4623 11.9047 14.1463 12.578 12.9295C13.2513 11.7126 14.3441 11.0556 15.0188 11.4621Z" fill="#A855F7"/>
<path fill-rule="evenodd" clip-rule="evenodd" d="M13.9361 3.97199C13.9361 4.78494 12.8444 5.44398 11.4978 5.44398C10.1512 5.44398 9.0596 4.78494 9.0596 3.97199C9.0596 3.15903 10.1512 2.5 11.4978 2.5C12.8444 2.5 13.9361 3.15903 13.9361 3.97199ZM9.33925 6.73836C9.33925 7.55132 8.24762 8.21035 6.90101 8.21035C5.55441 8.21035 4.46277 7.55132 4.46277 6.73836C4.46277 5.92541 5.55441 5.26637 6.90101 5.26637C8.24762 5.26637 9.33925 5.92541 9.33925 6.73836ZM16.1007 8.21035C17.4473 8.21035 18.5389 7.55132 18.5389 6.73836C18.5389 5.92541 17.4473 5.26637 16.1007 5.26637C14.7541 5.26637 13.6624 5.92541 13.6624 6.73836C13.6624 7.55132 14.7541 8.21035 16.1007 8.21035ZM13.9361 9.51095C13.9361 10.3239 12.8444 10.9829 11.4978 10.9829C10.1512 10.9829 9.0596 10.3239 9.0596 9.51095C9.0596 8.69799 10.1512 8.03896 11.4978 8.03896C12.8444 8.03896 13.9361 8.69799 13.9361 9.51095Z" fill="#F59E0B"/>
</svg>
