<svg width="24" height="24" viewBox="0 0 24 24" fill="none" xmlns="http://www.w3.org/2000/svg">
<path d="M23.5853 9.22752L19.0594 4.6992L17.8387 5.92032L21.7538 9.8376L17.8387 13.7544L19.0594 14.9753L23.5853 10.4486C23.6658 10.3684 23.7296 10.273 23.773 10.1679C23.8165 10.0629 23.8387 9.95031 23.8385 9.83664C23.8386 9.72339 23.8162 9.61125 23.7728 9.50666C23.7293 9.40208 23.6656 9.30737 23.5853 9.22752ZM6.16224 10.2466L4.94088 9.0252L0.413521 13.5523C0.333211 13.6324 0.269618 13.7276 0.226439 13.8325C0.18326 13.9373 0.161356 14.0497 0.162001 14.1631C0.162001 14.3938 0.251041 14.6105 0.413521 14.7732L4.94088 19.3008L6.16224 18.0799L2.2452 14.1631L6.16224 10.2466Z" fill="#60A5FA"/>
<path d="M16.9778 8.5307L15.1302 6.80606H7.01324L8.86085 8.5307H16.9778ZM15.1302 12.858L16.9778 11.1305H8.86085L7.01324 12.858H15.1302ZM16.9778 17.1824L15.1302 15.4549H7.01324L8.86085 17.1824H16.9778Z" fill="#60A5FA"/>
</svg>
