<svg width="24" height="24" viewBox="0 0 24 24" fill="none" xmlns="http://www.w3.org/2000/svg">
<path d="M11.938 16.414C12.838 15.313 13.406 13.478 13.406 11.679C13.406 9.71599 12.709 7.82499 11.534 6.55899C10.378 5.31099 8.87401 4.70599 6.96401 4.70599C5.05401 4.70599 3.55101 5.31099 2.39501 6.55899C1.22001 7.82499 0.52301 9.71599 0.52301 11.716C0.52301 13.716 1.22001 15.606 2.39501 16.873C3.55101 18.121 5.07501 18.726 6.96501 18.726C8.34101 18.726 9.36901 18.451 10.433 17.809L11.6464 18.9517C11.8477 19.1412 12.1646 19.1314 12.3538 18.9299L13.0659 18.1713C13.2541 17.9709 13.2451 17.6561 13.0458 17.4667L11.938 16.414ZM8.90769 13.5495C8.70672 13.358 8.38824 13.3668 8.19825 13.5692L7.48751 14.3263C7.29918 14.5269 7.30833 14.842 7.50799 15.0313L8.56001 16.029C8.13801 16.249 7.53301 16.377 6.94501 16.377C4.74301 16.377 3.27501 14.524 3.27501 11.717C3.27501 8.90799 4.74301 7.05499 6.96401 7.05499C9.20301 7.05499 10.653 8.88999 10.653 11.735C10.653 12.835 10.451 13.827 10.047 14.635L8.90769 13.5495Z" fill="#FBBF24"/>
<path d="M18.0185 4.728C17.7715 4.728 17.5615 4.90834 17.5242 5.1525L16.978 8.728H15.9002C15.6564 8.728 15.4481 8.90384 15.4073 9.1442L15.2373 10.1442C15.1854 10.4494 15.4206 10.728 15.7302 10.728H16.638L16.318 12.728H15.2402C14.9964 12.728 14.7881 12.9038 14.7473 13.1442L14.5773 14.1442C14.5254 14.4494 14.7606 14.728 15.0702 14.728H15.978L15.4558 18.1526C15.4096 18.4553 15.6439 18.728 15.9501 18.728H16.9385C17.1855 18.728 17.3955 18.5476 17.4328 18.3034L17.978 14.728H18.978L18.4558 18.1526C18.4096 18.4553 18.6439 18.728 18.9501 18.728H19.9385C20.1855 18.728 20.3955 18.5476 20.4328 18.3034L20.978 14.728H22.0559C22.2997 14.728 22.5079 14.5522 22.5488 14.3118L22.7188 13.3118C22.7707 13.0065 22.5355 12.728 22.2259 12.728H21.318L21.638 10.728H22.7159C22.9597 10.728 23.1679 10.5522 23.2088 10.3118L23.3788 9.31179C23.4307 9.00655 23.1955 8.728 22.8859 8.728H21.978L22.5011 5.3035C22.5474 5.00078 22.3131 4.728 22.0069 4.728H21.0185C20.7715 4.728 20.5615 4.90834 20.5242 5.1525L19.978 8.728H18.978L19.5011 5.3035C19.5474 5.00078 19.3131 4.728 19.0069 4.728H18.0185ZM18.638 10.728H19.638L19.318 12.728H18.318L18.638 10.728Z" fill="#FBBF24"/>
</svg>
