<svg width="24" height="24" viewBox="0 0 24 24" fill="none" xmlns="http://www.w3.org/2000/svg">
<path d="M19.2597 22.1823L15.603 18.5463L15.5472 18.5543V18.5144L7.77083 10.8356L9.687 8.98573L8.56126 2.52692L3.22 9.14496C2.30983 10.0619 2.14216 11.553 2.79685 12.6533L6.13414 18.1872C6.6451 19.0404 7.57123 19.5507 8.56925 19.5427L10.2219 19.5267L19.2597 22.1823Z" fill="#60A5FA"/>
<path d="M21.2553 9.01777L20.5208 7.66228L20.1375 6.96858L19.9859 6.69747L19.9699 6.71343L17.9579 3.22896C17.4549 2.35187 16.5128 1.80964 15.4909 1.81762L13.7264 1.86546L8.46498 1.88141C7.46701 1.88938 6.55684 2.41566 6.05382 3.26884L2.85223 9.61573L8.57657 2.51132L16.0817 10.7559L14.7484 12.1035L15.5468 18.554L15.5548 18.5381V18.554H15.5388L15.5548 18.57L16.1775 19.176L19.2035 22.1342C19.3312 22.2538 19.5388 22.1103 19.451 21.9588L17.5827 18.2829L20.8402 12.2627L20.944 12.1431C20.9839 12.0953 21.0238 12.0475 21.0558 11.9996C21.6945 11.1305 21.7823 9.96666 21.2553 9.01777Z" fill="#B388FF"/>
<path d="M16.1058 10.7241L8.57678 2.51947L9.64663 8.94619L7.73047 10.804L15.5307 18.5462L14.8281 12.1195L16.1058 10.7241Z" fill="#ECEFF1"/>
</svg>
