<svg width="24" height="25" viewBox="0 0 24 25" fill="none" xmlns="http://www.w3.org/2000/svg">
<path fill-rule="evenodd" clip-rule="evenodd" d="M19.0284 14.5308C19.7268 13.6603 20.125 12.6563 20.125 11.5873C20.125 8.25838 16.2635 5.55975 11.5 5.55975C6.73656 5.55975 2.875 8.25838 2.875 11.5873C2.875 14.3191 5.47535 16.6263 9.04057 17.3663V15.4043C7.36108 14.6582 6.26446 13.4281 6.26446 12.037C6.26446 9.76122 9.19957 7.91632 12.8202 7.91632C16.4408 7.91632 19.1128 9.17853 19.1128 12.037C19.1128 12.3337 19.084 12.6132 19.0284 12.8759V14.5308Z" fill="#71717A"/>
<path fill-rule="evenodd" clip-rule="evenodd" d="M16.0104 14.8956C16.0104 14.8956 16.5325 15.06 16.8357 15.2201C16.941 15.2757 17.123 15.3865 17.2544 15.5321C17.383 15.6747 17.4457 15.8192 17.4457 15.8192L19.503 19.4387L16.1779 19.4402L14.623 16.3933C14.623 16.3933 14.3045 15.8225 14.1086 15.6569C13.9452 15.5189 13.8755 15.4697 13.7139 15.4697C13.6014 15.4697 12.9239 15.4697 12.9239 15.4697L12.9245 19.438L9.98209 19.4393V9.30254H15.8908C15.8908 9.30254 18.582 9.35318 18.582 12.0249C18.582 14.6967 16.0104 14.8956 16.0104 14.8956ZM14.7306 11.5013L12.9493 11.5001L12.9484 13.2238L14.7306 13.2232C14.7306 13.2232 15.5559 13.2205 15.5559 12.3464C15.5559 11.4547 14.7306 11.5013 14.7306 11.5013Z" fill="#2563EB"/>
</svg>
