<svg width="24" height="25" viewBox="0 0 24 25" fill="none" xmlns="http://www.w3.org/2000/svg">
<path d="M11.5 14.1772C12.3877 14.1772 13.1074 13.4262 13.1074 12.4999C13.1074 11.5736 12.3877 10.8226 11.5 10.8226C10.6122 10.8226 9.89258 11.5736 9.89258 12.4999C9.89258 13.4262 10.6122 14.1772 11.5 14.1772Z" fill="#FED7AA"/>
<path d="M11.5 15.9363C16.2635 15.9363 20.125 14.3978 20.125 12.5C20.125 10.6021 16.2635 9.0636 11.5 9.0636C6.73654 9.0636 2.875 10.6021 2.875 12.5C2.875 14.3978 6.73654 15.9363 11.5 15.9363Z" stroke="#FED7AA"/>
<path d="M8.64812 14.2181C11.0298 18.5228 14.2375 21.2431 15.8126 20.2942C17.3877 19.3453 16.7338 15.0864 14.3521 10.7818C11.9703 6.47713 8.76271 3.75679 7.1876 4.70572C5.6125 5.65465 6.26639 9.9135 8.64812 14.2181Z" stroke="#FED7AA"/>
<path d="M8.64811 10.7818C6.26639 15.0864 5.61249 19.3453 7.18759 20.2942C8.7627 21.2432 11.9703 18.5228 14.3521 14.2182C16.7338 9.91354 17.3877 5.65469 15.8126 4.70577C14.2375 3.75684 11.0298 6.47718 8.64811 10.7818Z" stroke="#FED7AA"/>
</svg>
