<svg width="24" height="24" viewBox="0 0 24 24" fill="none" xmlns="http://www.w3.org/2000/svg">
<path d="M4 3C3.44772 3 3 3.44772 3 4V20C3 20.5523 3.44772 21 4 21H20C20.5523 21 21 20.5523 21 20V4C21 3.44772 20.5523 3 20 3H4ZM8.12 11.994H10.917C11.299 11.994 11.627 12.018 11.902 12.069C12.177 12.12 12.436 12.227 12.677 12.395C12.92 12.562 13.112 12.78 13.253 13.048C13.398 13.313 13.471 13.646 13.471 14.048C13.471 14.601 13.359 15.049 13.136 15.398C12.916 15.746 12.601 16.036 12.19 16.268L14.348 19.472H12.31L10.547 16.729H9.778V19.472H8.12V11.994ZM14.713 11.994H19.389V13.44H16.372V14.731H19.173V16.177H16.372V18.025H19.389V19.471H14.713V11.994ZM9.778 13.369V15.383H10.291C10.557 15.383 10.781 15.369 10.961 15.339C11.141 15.309 11.29 15.239 11.411 15.132C11.5196 15.0389 11.606 14.9228 11.664 14.792C11.719 14.664 11.746 14.495 11.746 14.284C11.746 14.097 11.712 13.934 11.646 13.801C11.5715 13.6591 11.4503 13.5471 11.303 13.484C11.1785 13.4278 11.0445 13.3955 10.908 13.389C10.733 13.3747 10.5575 13.368 10.382 13.369H9.778Z" fill="#F44336"/>
</svg>
