<svg width="24" height="24" viewBox="0 0 24 24" fill="none" xmlns="http://www.w3.org/2000/svg">
<path d="M13.061 3.722L12.354 3.015C12.1665 2.82753 11.9122 2.72221 11.647 2.72221C11.3818 2.72221 11.1275 2.82753 10.94 3.015L2.45401 11.5C2.26654 11.6875 2.16122 11.9418 2.16122 12.207C2.16122 12.4722 2.26654 12.7265 2.45401 12.914L5.28301 15.743C5.47054 15.9305 5.72485 16.0358 5.99001 16.0358C6.25517 16.0358 6.50948 15.9305 6.69701 15.743L15.182 7.257C15.3695 7.06947 15.4748 6.81516 15.4748 6.55C15.4748 6.28483 15.3695 6.03053 15.182 5.843L14.475 5.136L15.182 4.429L18.011 7.257L10.94 14.328L18.718 22.107C18.9055 22.2945 19.1598 22.3998 19.425 22.3998C19.6902 22.3998 19.9445 22.2945 20.132 22.107L21.546 20.692C21.7335 20.5045 21.8388 20.2502 21.8388 19.985C21.8388 19.7198 21.7335 19.4655 21.546 19.278L15.182 12.914L20.839 7.257L15.182 1.6L13.061 3.722Z" fill="#FBBF24"/>
</svg>
