<svg width="24" height="24" viewBox="0 0 24 24" fill="none" xmlns="http://www.w3.org/2000/svg">
<path d="M3.22201 3.66C3.22201 3.572 3.29201 3.501 3.38001 3.501H15.136C18.253 3.501 20.779 6.038 20.779 9.168V10.268C20.779 10.356 20.709 10.428 20.621 10.428H17.175C17.1541 10.4279 17.1335 10.4236 17.1142 10.4155C17.095 10.4074 17.0775 10.3956 17.0629 10.3807C17.0482 10.3659 17.0366 10.3483 17.0287 10.3289C17.0209 10.3096 17.0169 10.2889 17.017 10.268V9.168C17.0181 8.66824 16.8206 8.18851 16.4681 7.83428C16.1156 7.48006 15.6368 7.28032 15.137 7.279H7.14201C7.09984 7.279 7.0594 7.29575 7.02958 7.32557C6.99977 7.35539 6.98301 7.39583 6.98301 7.438V20.342C6.98301 20.43 6.91301 20.502 6.82501 20.497C5.85359 20.4539 4.93635 20.0373 4.26479 19.3341C3.59324 18.6308 3.21929 17.6954 3.22101 16.723L3.22201 3.66Z" fill="#EF4444"/>
<path d="M10.278 11.057C10.2573 11.0569 10.2367 11.0609 10.2176 11.0689C10.1985 11.0769 10.1811 11.0887 10.1667 11.1035C10.1522 11.1183 10.1409 11.136 10.1334 11.1553C10.1259 11.1746 10.1223 11.1953 10.123 11.216C10.162 12.1877 10.5749 13.1068 11.2756 13.7812C11.9763 14.4557 12.9105 14.8332 13.883 14.835H16.39C16.737 14.835 17.017 15.117 17.017 15.465V20.343C17.017 20.431 17.088 20.502 17.176 20.498C18.1474 20.4549 19.0647 20.0383 19.7362 19.3351C20.4078 18.6318 20.7817 17.6964 20.78 16.724V15.464C20.78 13.03 18.815 11.057 16.39 11.057H10.278Z" fill="#EF4444"/>
</svg>
