<svg width="24" height="24" viewBox="0 0 24 24" fill="none" xmlns="http://www.w3.org/2000/svg">
<path d="M3.242 3.242H4.494C4.77015 3.242 4.994 3.46585 4.994 3.742V18.506C4.994 18.7821 5.21786 19.006 5.494 19.006H20.258C20.5341 19.006 20.758 19.2299 20.758 19.506V20.258C20.758 20.5341 20.5341 20.758 20.258 20.758H3.743C3.46686 20.758 3.243 20.5341 3.243 20.258V3.243M7.622 10.249H15.879C16.1551 10.249 16.379 10.4729 16.379 10.749V12.376C16.379 12.6521 16.1551 12.876 15.879 12.876H8.122C7.84586 12.876 7.622 12.6521 7.622 12.376V10.25M11.125 15.129C11.125 14.8529 11.3489 14.629 11.625 14.629H19.382C19.6581 14.629 19.882 14.8529 19.882 15.129V16.756C19.882 17.0321 19.6581 17.256 19.382 17.256H11.625C11.3489 17.256 11.125 17.0321 11.125 16.756V15.129ZM6.74615 5.49414C6.74607 5.21794 6.96995 4.994 7.24615 4.994H20.258C20.5341 4.994 20.758 5.21785 20.758 5.494V7.997C20.758 8.27314 20.5341 8.497 20.258 8.497H19.507C19.2309 8.497 19.007 8.27314 19.007 7.997V7.246C19.007 6.96985 18.7831 6.746 18.507 6.746H8.997C8.72086 6.746 8.497 6.96985 8.497 7.246V7.997C8.497 8.27314 8.27315 8.497 7.997 8.497H7.24686C6.97077 8.497 6.74694 8.27323 6.74686 7.99714L6.74615 5.49414Z" fill="#14B8A6"/>
</svg>
