<svg width="24" height="24" viewBox="0 0 24 24" fill="none" xmlns="http://www.w3.org/2000/svg">
<path d="M12 2.909C12.4822 2.909 12.9446 3.10054 13.2855 3.44148C13.6265 3.78242 13.818 4.24483 13.818 4.727C13.818 5.4 13.455 5.991 12.909 6.3V7.455H13.818C15.5058 7.455 17.1245 8.12549 18.318 9.31897C19.5115 10.5125 20.182 12.1312 20.182 13.819H21.091C21.3319 13.819 21.563 13.9146 21.7334 14.0849C21.9038 14.2551 21.9997 14.4861 22 14.727V17.454C22 17.6951 21.9042 17.9263 21.7338 18.0968C21.5633 18.2672 21.3321 18.363 21.091 18.363H20.182V19.272C20.182 19.5107 20.135 19.7471 20.0436 19.9677C19.9522 20.1883 19.8183 20.3887 19.6495 20.5575C19.4807 20.7263 19.2803 20.8602 19.0597 20.9516C18.8391 21.043 18.6027 21.09 18.364 21.09H5.636C5.15401 21.09 4.69175 20.8986 4.35083 20.5579C4.00992 20.2171 3.81827 19.755 3.818 19.273V18.364H2.909C2.66792 18.364 2.43671 18.2682 2.26624 18.0978C2.09577 17.9273 2 17.6961 2 17.455V14.727C2 14.4859 2.09577 14.2547 2.26624 14.0842C2.43671 13.9138 2.66792 13.818 2.909 13.818H3.818C3.81827 12.1303 4.48887 10.5119 5.68233 9.31862C6.87578 8.12535 8.49434 7.455 10.182 7.455H11.091V6.3C10.8137 6.14181 10.5835 5.91282 10.4238 5.63643C10.264 5.36005 10.1806 5.0462 10.182 4.727C10.182 4.24483 10.3735 3.78242 10.7145 3.44148C11.0554 3.10054 11.5178 2.909 12 2.909ZM7.909 12.909C7.30616 12.909 6.72802 13.1485 6.30175 13.5747C5.87548 14.001 5.636 14.5792 5.636 15.182C5.636 15.7848 5.87548 16.363 6.30175 16.7892C6.72802 17.2155 7.30616 17.455 7.909 17.455C8.51184 17.455 9.08998 17.2155 9.51625 16.7892C9.94252 16.363 10.182 15.7848 10.182 15.182C10.182 14.5792 9.94252 14.001 9.51625 13.5747C9.08998 13.1485 8.51184 12.909 7.909 12.909ZM16.091 12.909C15.4882 12.909 14.91 13.1485 14.4837 13.5747C14.0575 14.001 13.818 14.5792 13.818 15.182C13.818 15.7848 14.0575 16.363 14.4837 16.7892C14.91 17.2155 15.4882 17.455 16.091 17.455C16.6938 17.455 17.272 17.2155 17.6983 16.7892C18.1245 16.363 18.364 15.7848 18.364 15.182C18.364 14.5792 18.1245 14.001 17.6983 13.5747C17.272 13.1485 16.6938 12.909 16.091 12.909Z" fill="#EF4444"/>
</svg>
