<svg width="24" height="24" viewBox="0 0 24 24" fill="none" xmlns="http://www.w3.org/2000/svg">
<path d="M19.0137 8.8413C19.0137 11.1635 17.7445 13.185 15.8736 14.2566C15.7608 14.3506 15.695 14.501 15.7608 14.6421L18.9669 20.9787C19.0515 21.1761 18.9199 21.4018 18.7036 21.4018H6.45315L6.51897 21.3641C6.97965 21.1009 10.1763 14.7923 13.2975 11.8025C16.419 8.8128 16.8138 9.80937 15.0932 6.55644C15.0932 6.55644 16.4188 9.1419 15.2906 9.33933C14.4068 9.49917 12.3761 7.53423 13.1282 5.76663C13.8803 4.03671 16.8419 4.36578 18.2051 5.77605C18.7222 6.6786 19.0137 7.72221 19.0137 8.84115M7.44957 13.0624C6.20856 15.3471 5.41881 17.011 4.98633 18.1768V2.88975C4.98633 2.72991 5.11797 2.5983 5.27778 2.5983H12.8651C15.0651 2.63589 16.9925 3.80172 18.0737 5.55984C17.2839 4.57266 16.0429 4.00854 14.8208 4.00854C12.4986 4.00854 11.9157 4.85472 7.44978 13.0622L7.44957 13.0624Z" fill="#EF4444"/>
</svg>
