<svg width="24" height="24" viewBox="0 0 24 24" fill="none" xmlns="http://www.w3.org/2000/svg">
<path d="M11.9433 2.06362C11.0804 2.07581 10.2267 2.24221 9.42235 2.55496C7.99369 3.14835 6.85983 4.06677 6.22487 5.35181C5.26109 7.06016 5.10613 9.25229 6.37605 11.1572C7.5477 12.9487 9.09731 14.589 10.7149 16.475C12.1587 17.0003 12.8768 15.4469 12.6614 14.8876C11.6183 13.5647 10.5071 12.2608 9.62266 10.8813C9.33742 10.3622 9.16626 9.78822 9.12063 9.1977C9.07501 8.60718 9.15597 8.01373 9.3581 7.45701C9.64156 6.70866 11.2592 4.28221 14.5436 4.29732C15.8475 4.44851 17.0305 4.52032 18.6482 6.30048C18.2672 5.17338 17.5626 4.18351 16.6223 3.45449C15.2527 2.49706 13.6097 2.00908 11.9395 2.06362H11.9433ZM12.8693 7.35496C11.8223 7.36252 11.3348 8.21292 11.554 9.00662C12.5102 10.3861 13.7386 11.8337 14.8384 13.2472C16.0327 15.549 15.1861 17.3178 12.9033 18.8107C9.80408 20.5417 6.94676 19.2491 5.24597 17.6844C6.13038 19.5326 6.84471 20.0882 7.02613 20.2507C8.19778 21.2712 10.0875 22.2425 13.149 21.8495C14.8724 21.4639 17.1553 20.8819 18.4252 17.7033C18.7767 16.7017 18.8976 15.6624 18.5386 14.5172C18.1984 13.2397 17.503 12.325 16.7773 11.3839C15.6435 10.0573 13.8671 7.68378 13.3531 7.4041C13.194 7.37048 13.0318 7.35401 12.8693 7.35496Z" fill="#60A5FA"/>
</svg>
