<svg width="24" height="25" viewBox="0 0 24 25" fill="none" xmlns="http://www.w3.org/2000/svg">
<path fill-rule="evenodd" clip-rule="evenodd" d="M6.01678 10.1979C6.17379 10.4143 7.49776 10.8226 9.47268 11.2477C11.4476 11.6263 13.5014 13.1208 15.0987 12.66C16.1791 12.3477 17.3511 9.56478 17.3511 9.15147V9.10903C17.3511 8.82048 17.1347 8.58878 16.7672 8.39613C15.2608 7.62636 14.9756 7.3429 14.4172 7.49651C11.518 8.29683 6.39955 7.88776 6.01678 10.1979Z" fill="#7F1D1D"/>
<path fill-rule="evenodd" clip-rule="evenodd" d="M6.01678 15.8485C6.17379 16.0683 7.49776 16.4732 9.47268 16.8992C11.6793 17.3015 13.5982 18.6127 15.1963 18.151C16.2767 17.8387 17.3511 15.2163 17.3511 14.8021V14.7614C17.3511 14.4736 17.1347 14.2411 16.7672 14.0493C15.6181 13.4382 14.0998 12.7652 13.5422 12.9188C10.6379 13.7175 6.756 13.8931 6.01678 15.8485Z" fill="#7F1D1D"/>
<path fill-rule="evenodd" clip-rule="evenodd" d="M15.192 4.59227C12.522 5.36374 8.2862 5.79912 6.00405 5.79912V10.1572C6.00478 10.1722 6.01045 10.1865 6.02018 10.1979C7.57753 10.1979 12.3854 9.68869 15.2862 8.89092C15.7922 8.76215 16.2882 8.59737 16.7706 8.39783C17.1254 8.23827 17.3545 8.07023 17.3545 7.8954V3.5C17.3511 3.91416 16.2724 4.2808 15.192 4.59227Z" fill="#F87171"/>
<path fill-rule="evenodd" clip-rule="evenodd" d="M15.192 10.2437C13.5939 10.7046 11.4374 11.0475 9.47267 11.2477C8.1538 11.3827 6.92149 11.4531 6.00405 11.4531V15.8078C6.00478 15.8228 6.01045 15.8371 6.02018 15.8485C7.57753 15.8485 12.3854 15.3393 15.2862 14.5424C15.792 14.4132 16.2881 14.2485 16.7706 14.0493C17.1254 13.8889 17.3545 13.7217 17.3545 13.5469V9.15147C17.3511 9.56478 16.2724 9.93142 15.192 10.2437Z" fill="#F87171"/>
<path fill-rule="evenodd" clip-rule="evenodd" d="M15.192 15.8986C13.5939 16.3595 11.4374 16.7015 9.47267 16.9026C8.1521 17.0376 6.91809 17.108 6.00065 17.108V21.5C7.54188 21.5 12.3744 20.995 15.2828 20.1939C16.3547 19.8985 17.3511 19.5624 17.3511 19.1975V14.8021C17.3511 15.2197 16.2724 15.5829 15.192 15.8986Z" fill="#F87171"/>
</svg>
