<svg width="24" height="24" viewBox="0 0 24 24" fill="none" xmlns="http://www.w3.org/2000/svg">
<path d="M18.3308 8.27261V15.6873L12.0303 19.4149L11.9734 19.4667V22.2379L12.0303 22.2917L20.9036 17.1662V6.83463L20.8198 6.81399L18.3182 8.21252L18.3309 8.2729" fill="#01579B"/>
<path d="M5.70984 15.7481L12.0305 19.4149V22.2917L3.09644 17.146V6.85478L3.18812 6.84096L5.68248 8.29113L5.70984 8.37417V15.7483" fill="#0288D1"/>
<path d="M5.70984 8.37341L3.09644 6.85402L12.0102 1.70832L20.9037 6.83376L18.3309 8.27213L12.0102 4.66608L5.70984 8.37341Z" fill="#4FC3F7"/>
<path d="M11.922 14.8995L11.8535 14.8297V12.0455L11.922 12.0101L11.9386 11.9414L14.3255 10.5491L14.3985 10.5654V13.4342L11.922 14.8995Z" fill="#2F406A"/>
<path d="M9.40417 13.5238V10.545L9.47329 10.5417L11.9013 11.9546L11.9221 12.0103V14.8997L9.40417 13.5238Z" fill="#2379BD"/>
<path d="M11.8807 9.07997L9.40405 10.5453L11.9219 12.0106L14.3985 10.5659L11.8807 9.07997Z" fill="#03AFEF"/>
<path d="M8.84005 16.7158L8.77161 16.646V13.8617L8.84005 13.8264L8.85666 13.7578L11.2435 12.3654L11.3166 12.3817V15.2504L8.83996 16.7157" fill="#01579B"/>
<path d="M6.32212 15.3401V12.3613L6.39124 12.3578L8.81927 13.7709L8.83991 13.8266V16.716L6.32202 15.3401" fill="#0288D1"/>
<path d="M8.79873 10.8963L6.32202 12.3615L8.84001 13.8269L11.3166 12.3822L8.79873 10.8963Z" fill="#4FC3F7"/>
<path d="M15.2242 16.7849L15.1559 16.7151V13.9308L15.2243 13.8955L15.2409 13.8269L17.6279 12.4345L17.7008 12.4508V15.3195L15.2242 16.7848" fill="#01579B"/>
<path d="M12.7062 15.4092V12.4304L12.7753 12.427L15.2033 13.8401L15.2241 13.8958V16.7851L12.7062 15.4092Z" fill="#0288D1"/>
<path d="M15.1829 10.9645L12.7063 12.4297L15.2242 13.895L17.7008 12.4503L15.1829 10.9645Z" fill="#4FC3F7"/>
<path d="M12.1417 18.6012L12.0732 18.5315V15.7472L12.1417 15.7118L12.1583 15.6431L14.5452 14.2508L14.6182 14.2671V17.136L12.1416 18.6013" fill="#01579B"/>
<path d="M9.62461 17.2256V14.2467L9.69373 14.2433L12.1219 15.6563L12.1424 15.7119V18.6014L9.62461 17.2256Z" fill="#0288D1"/>
<path d="M12.1005 12.7808L9.62378 14.2461L12.1418 15.7115L14.6184 14.2668L12.1005 12.7808Z" fill="#4FC3F7"/>
<path d="M11.922 10.951L11.8535 10.8811V8.09693L11.922 8.0616L11.9386 7.99296L14.3255 6.60067L14.3985 6.61699V9.48566L11.922 10.951Z" fill="#01579B"/>
<path d="M9.40417 9.57533V6.59645L9.47329 6.59309L11.9013 8.00601L11.9221 8.06169V10.9512L9.40417 9.57533Z" fill="#0288D1"/>
<path d="M11.8807 5.13053L9.40405 6.59588L11.9219 8.06122L14.3985 6.61651L11.8807 5.13053Z" fill="#4FC3F7"/>
<path d="M8.84005 12.7673L8.77161 12.6975V9.91335L8.84005 9.87792L8.85666 9.80928L11.2435 8.4169L11.3166 8.43322V11.3021L8.84005 12.7673Z" fill="#01579B"/>
<path d="M6.32212 11.3916V8.41286L6.39124 8.40941L8.81927 9.82253L8.83991 9.87821V12.7675L6.32202 11.3916" fill="#0288D1"/>
<path d="M8.7987 6.94685L6.3219 8.41219L8.83988 9.87744L11.3165 8.43274L8.7986 6.94675" fill="#4FC3F7"/>
<path d="M15.2242 12.8364L15.1559 12.7667V9.98246L15.2243 9.94704L15.2409 9.8784L17.6279 8.48602L17.7008 8.50234V11.3712L15.2242 12.8364Z" fill="#01579B"/>
<path d="M12.7062 11.4598V8.48102L12.7753 8.47766L15.2033 9.89059L15.2241 9.94627V12.8357L12.7062 11.4598Z" fill="#0288D1"/>
<path d="M15.1829 7.01597L12.7063 8.48131L15.2242 9.94656L17.7008 8.50185L15.1829 7.01597Z" fill="#4FC3F7"/>
<path d="M12.1417 14.6518L12.0732 14.582V11.7977L12.1417 11.7624L12.1583 11.6938L14.5452 10.3014L14.6182 10.3177V13.1864L12.1416 14.6517" fill="#01579B"/>
<path d="M9.62461 13.2761V10.2972L9.69373 10.2938L12.1219 11.7069L12.1424 11.7626V14.652L9.62461 13.2761Z" fill="#0288D1"/>
<path d="M12.1005 8.83229L9.62378 10.2976L12.1418 11.763L14.6184 10.3183L12.1005 8.83229Z" fill="#4FC3F7"/>
</svg>
