<svg width="24" height="24" viewBox="0 0 24 24" fill="none" xmlns="http://www.w3.org/2000/svg">
<path d="M11.985 2.94901C8.71639 2.94901 6.07619 5.69421 6.04899 9.06901C3.71709 9.90344 2.02719 12.1853 2.02719 14.8817C2.02719 18.2742 4.69029 21.051 7.97459 21.051C9.48779 21.0476 10.9176 20.4261 12.0002 19.3759C13.081 20.4277 14.5129 21.0486 16.0258 21.051C19.3043 21.051 21.9732 18.2807 21.9732 14.8817V14.8798C21.9725 13.7353 21.6592 12.62 21.0816 11.6434C20.6466 11.0087 20.1848 10.5362 19.8902 10.2642C19.8587 10.2352 19.8284 10.2071 19.801 10.1826C19.7284 10.1179 19.6759 10.0734 19.6378 10.0422C19.6316 10.0371 19.6251 10.0322 19.6189 10.0271C19.5941 10.007 19.5809 9.99677 19.5809 9.99677C19.0823 9.59427 18.5269 9.2682 17.9153 9.05197C17.8788 5.69167 15.2464 2.94901 11.985 2.94901ZM11.9925 4.88591C14.2339 4.88591 16.0637 6.7802 16.0637 9.124V9.12591C16.0679 10.4854 15.4321 11.7675 14.3468 12.5862H14.3449C13.9333 12.901 13.837 13.4864 14.1267 13.9161L14.1286 13.918C14.3076 14.1796 14.5983 14.3278 14.8951 14.3278C15.0923 14.3278 15.2836 14.264 15.4414 14.1457C16.4806 13.3667 17.2095 12.264 17.6003 11.0307C19.0676 11.6876 20.1102 13.1674 20.1102 14.8856C20.1048 17.2228 18.2748 19.1199 16.0258 19.1199C13.7851 19.1199 11.9557 17.2247 11.9546 14.8818V14.8799C11.9617 14.3596 11.5436 13.9275 11.0232 13.9161H11.0156C10.4925 13.9241 10.0703 14.3589 10.0803 14.8818V14.8837C10.0809 15.9643 10.3967 16.9607 10.8676 17.8451C10.1175 18.6497 9.07747 19.1233 7.97447 19.1256C5.73227 19.1256 3.89947 17.2284 3.89947 14.8856C3.89947 12.5436 5.73227 10.6475 7.97447 10.6475C8.46059 10.6475 8.93123 10.7363 9.38587 10.9055C9.38934 10.907 9.38852 10.9073 9.39345 10.9093C9.39726 10.9108 9.40383 10.9115 9.40863 10.9131L9.41432 10.915L9.4219 10.9188C9.49123 10.9438 9.57586 10.9801 9.65145 11.0174C9.73194 11.0571 9.8081 11.1075 9.80701 11.1066C10.1941 11.4549 10.8026 11.4045 11.1274 10.9965C11.4564 10.5939 11.4121 9.99753 11.025 9.64963L11.0231 9.64774C10.6607 9.32966 10.1588 9.14353 10.0291 9.09565H10.0272C9.37354 8.84793 8.67931 8.72109 7.98021 8.72193H7.97072C8.17603 6.57233 9.87979 4.88591 11.9925 4.88591Z" fill="#FF7043"/>
</svg>
