<svg width="24" height="24" viewBox="0 0 24 24" fill="none" xmlns="http://www.w3.org/2000/svg">
<path d="M15.3655 15.411C19.1073 15.411 22.1407 12.3776 22.1407 8.63575C22.1407 4.89388 19.1073 1.8605 15.3655 1.8605C11.6236 1.8605 8.59021 4.89388 8.59021 8.63575C8.59021 12.3776 11.6236 15.411 15.3655 15.411Z" fill="#A855F7"/>
<path d="M8.63508 22.1404C12.3769 22.1404 15.4103 19.107 15.4103 15.3651C15.4103 11.6233 12.3769 8.5899 8.63508 8.5899C4.89321 8.5899 1.85983 11.6233 1.85983 15.3651C1.85983 19.107 4.89321 22.1404 8.63508 22.1404Z" fill="#306576"/>
<path d="M15.4116 8.58961L12.0008 8.58952L8.58999 8.58961L10.2896 10.2892L6.75491 13.8239L10.2042 17.2732L13.7389 13.7385L15.4117 15.4113V12.0004L15.4116 8.58961Z" fill="#F5F5F5"/>
</svg>
