<svg width="24" height="24" viewBox="0 0 24 24" fill="none" xmlns="http://www.w3.org/2000/svg">
<path fill-rule="evenodd" clip-rule="evenodd" d="M11.999 2.208C6.59089 2.208 2.20801 6.59295 2.20801 12.001C2.20801 14.555 3.1861 16.8802 4.78753 18.623C5.97438 18.2634 7.17298 17.9287 8.14911 17.6738C10.2931 17.1139 13.5918 16.2601 15.363 15.1943C14.7793 14.8201 13.7776 14.4134 11.4011 13.6615C9.02252 12.909 6.38458 12.1133 6.56026 11.2917C6.56026 11.2917 6.56662 11.2688 6.5867 11.2304C6.58142 11.2389 6.57311 11.2469 6.56814 11.2554C6.96081 10.2519 8.147 7.62395 8.147 7.62395C8.9978 6.22777 12.7643 5.22894 15.3916 4.50284C16.0045 4.33348 16.7364 4.12557 17.5066 3.90246C15.9374 2.83307 14.041 2.20792 11.9986 2.20792L11.999 2.208ZM20.7197 7.5432C18.9527 7.82829 13.3781 8.84021 11.9496 9.16253C11.3684 9.29366 10.5698 9.46501 9.76225 9.68285C10.9044 10.2445 11.2606 10.5254 12.839 11.1085C14.4203 11.6926 16.7915 13.0246 16.5274 14.0663C16.5274 14.0663 16.516 14.0964 16.497 14.1388C16.2944 14.6952 15.6527 16.1263 15.6527 16.1263C14.7582 16.9989 10.6933 17.9666 8.01683 18.4817C7.16306 18.646 6.18856 18.8359 5.20048 19.0453C6.9615 20.7449 9.35786 21.7919 11.9987 21.7919C17.4069 21.7919 21.7917 17.4089 21.7917 12.0009C21.7917 10.3954 21.4043 8.88028 20.7195 7.54319L20.7197 7.5432ZM8.16961 10.1941C8.14347 10.2044 8.11787 10.2148 8.09208 10.2252C8.11716 10.2149 8.1437 10.2045 8.16961 10.1941ZM7.89361 10.3097C7.82526 10.3395 7.75866 10.3697 7.69364 10.4005C7.75558 10.3708 7.82475 10.3402 7.89361 10.3097ZM7.64892 10.4226C7.43155 10.5279 7.23633 10.6392 7.06851 10.7572C7.21579 10.6548 7.40448 10.5424 7.64892 10.4226ZM6.98038 10.8208C6.95272 10.842 6.92382 10.8628 6.89807 10.8844C6.9229 10.864 6.9518 10.8423 6.98038 10.8208Z" fill="#F87171"/>
</svg>
