<svg width="24" height="24" viewBox="0 0 24 24" fill="none" xmlns="http://www.w3.org/2000/svg">
<path fill-rule="evenodd" clip-rule="evenodd" d="M12 3.30451C7.19738 3.30451 3.30376 7.19738 3.30376 12C3.30376 16.8026 7.19738 20.6959 12 20.6959C16.8026 20.6959 20.6955 16.8026 20.6955 12C20.6955 7.19738 16.8026 3.30451 12 3.30451ZM1.97626 12C1.97626 6.46426 6.46463 1.97626 12 1.97626C17.5354 1.97626 22.0238 6.46463 22.0238 12C22.0238 17.5354 17.5354 22.0238 12 22.0238C6.46463 22.0238 1.97626 17.5354 1.97626 12Z" fill="#71717A"/>
<path fill-rule="evenodd" clip-rule="evenodd" d="M21.4421 14.109L9.144 21.2093L8.81175 20.6344L21.1102 13.5338L21.4421 14.109ZM15.3097 3.4875L3.01162 10.5885L2.67975 10.0136L14.9779 2.91263L15.3097 3.4875ZM17.7574 12.8715C17.8013 12.9478 17.8132 13.0384 17.7904 13.1235C17.7676 13.2085 17.7121 13.2811 17.6359 13.3253L6.45525 19.7801C6.37897 19.8241 6.28832 19.836 6.20326 19.8132C6.11821 19.7904 6.0457 19.7347 6.00169 19.6584C5.95768 19.5822 5.94577 19.4915 5.96859 19.4065C5.99141 19.3214 6.04709 19.2489 6.12337 19.2049L17.3036 12.75C17.3414 12.7282 17.3831 12.714 17.4263 12.7082C17.4696 12.7025 17.5135 12.7054 17.5557 12.7167C17.5978 12.728 17.6373 12.7474 17.6719 12.774C17.7066 12.8006 17.7356 12.8337 17.7574 12.8715ZM18.12 4.46325C18.2119 4.62225 18.1575 4.82513 17.9989 4.917L6.81862 11.3719C6.74234 11.4159 6.65168 11.4279 6.56658 11.4051C6.48149 11.3823 6.40893 11.3267 6.36487 11.2504C6.32081 11.1741 6.30886 11.0834 6.33165 10.9983C6.35443 10.9132 6.41009 10.8407 6.48637 10.7966L17.6666 4.34175C17.7044 4.3199 17.7461 4.30571 17.7893 4.29999C17.8326 4.29427 17.8765 4.29713 17.9187 4.30842C17.9608 4.3197 18.0003 4.33919 18.0349 4.36575C18.0696 4.39232 18.0982 4.42545 18.12 4.46325Z" fill="#71717A"/>
<path fill-rule="evenodd" clip-rule="evenodd" d="M8.97899 9.6915C9.00494 9.65643 9.03756 9.62683 9.07497 9.60438C9.11237 9.58193 9.15384 9.56707 9.19699 9.56067C9.24015 9.55426 9.28414 9.55642 9.32646 9.56703C9.36878 9.57764 9.40859 9.59649 9.44361 9.6225L15.4312 14.0621C15.502 14.1145 15.5489 14.1929 15.5619 14.28C15.5748 14.367 15.5527 14.4557 15.5002 14.5264C15.4478 14.5971 15.3695 14.6441 15.2824 14.657C15.1953 14.67 15.1067 14.6478 15.036 14.5954L9.04799 10.155C9.01297 10.1291 8.98341 10.0965 8.961 10.0591C8.93858 10.0217 8.92374 9.98028 8.91734 9.93717C8.91093 9.89406 8.91308 9.85011 8.92366 9.80783C8.93423 9.76555 8.95304 9.72577 8.97899 9.69075V9.6915ZM11.2151 8.40075C11.2411 8.36574 11.2737 8.33618 11.311 8.31376C11.3484 8.29134 11.3898 8.27651 11.4329 8.2701C11.4761 8.26369 11.52 8.26584 11.5623 8.27642C11.6046 8.287 11.6444 8.3058 11.6794 8.33175L17.667 12.771C17.7377 12.8234 17.7847 12.9018 17.7976 12.9888C17.8106 13.0759 17.7884 13.1645 17.736 13.2353C17.6836 13.306 17.6052 13.353 17.5182 13.3659C17.4311 13.3788 17.3425 13.3567 17.2717 13.3043L11.2837 8.865C11.2487 8.83902 11.2191 8.80638 11.1967 8.76896C11.1743 8.73154 11.1595 8.69007 11.1531 8.64692C11.1467 8.60376 11.1489 8.55978 11.1596 8.51747C11.1702 8.47517 11.1891 8.43538 11.2151 8.40038V8.40075ZM6.38249 10.8911C6.40784 10.8557 6.43994 10.8255 6.47694 10.8025C6.51394 10.7794 6.55512 10.7639 6.59812 10.7567C6.64113 10.7496 6.68513 10.751 6.72759 10.7609C6.77006 10.7707 6.81016 10.7889 6.84561 10.8143L13.1906 15.3495C13.2261 15.3749 13.2562 15.407 13.2792 15.444C13.3023 15.481 13.3178 15.5221 13.325 15.5651C13.3321 15.6081 13.3307 15.6521 13.3208 15.6946C13.311 15.7371 13.2929 15.7772 13.2675 15.8126C13.2421 15.8481 13.21 15.8782 13.173 15.9013C13.136 15.9243 13.0949 15.9398 13.0518 15.947C13.0088 15.9541 12.9649 15.9527 12.9224 15.9429C12.8799 15.933 12.8398 15.9149 12.8044 15.8895L6.45936 11.3543C6.4239 11.3289 6.39377 11.2968 6.37072 11.2598C6.34766 11.2228 6.33211 11.1816 6.32498 11.1386C6.31784 11.0956 6.31924 11.0516 6.32911 11.0091C6.33898 10.9667 6.35712 10.9266 6.38249 10.8911Z" fill="#71717A"/>
</svg>
