<svg width="24" height="25" viewBox="0 0 24 25" fill="none" xmlns="http://www.w3.org/2000/svg">
<mask id="mask0_3372_2051" style="mask-type:alpha" maskUnits="userSpaceOnUse" x="4" y="3" width="16" height="19">
<path d="M5.33453 20.0864L4.77692 5.2288C4.75851 4.73811 5.13475 4.32226 5.62483 4.29163L18.2623 3.50179C18.7611 3.47062 19.1908 3.84973 19.2219 4.34857C19.2231 4.36737 19.2237 4.38619 19.2237 4.40502V20.595C19.2237 21.0948 18.8185 21.5 18.3187 21.5C18.3052 21.5 18.2916 21.4997 18.2781 21.4991L6.19828 20.9565C5.72782 20.9354 5.35219 20.557 5.33453 20.0864Z" fill="#F472B6"/>
</mask>
<g mask="url(#mask0_3372_2051)">
<path fill-rule="evenodd" clip-rule="evenodd" d="M4.77692 5.2288L5.33453 20.0864C5.35219 20.557 5.72782 20.9354 6.19828 20.9565L18.2781 21.4991C18.2916 21.4997 18.3052 21.5 18.3187 21.5C18.8185 21.5 19.2237 21.0948 19.2237 20.595V4.40502C19.2237 4.38619 19.2231 4.36737 19.2219 4.34857C19.1908 3.84973 18.7611 3.47062 18.2623 3.50179L17.2687 3.56389L17.3412 5.64104C17.3438 5.71555 17.2855 5.77806 17.211 5.78067C17.1791 5.78178 17.1478 5.77155 17.1227 5.7518L16.4535 5.22457L15.6611 5.82565C15.6017 5.87071 15.517 5.85908 15.4719 5.79968C15.453 5.77468 15.4433 5.74385 15.4446 5.71249L15.5294 3.6726L5.62483 4.29163C5.13475 4.32226 4.75851 4.73811 4.77692 5.2288ZM13.2251 10.2844C13.2251 10.6365 15.5968 10.4678 15.9151 10.2205C15.9151 7.82278 14.6286 6.56284 12.2727 6.56284C9.91684 6.56284 8.59688 7.84238 8.59688 9.76171C8.59688 11.6845 10.0894 12.5224 11.3575 13.2344C12.294 13.7602 13.1081 14.2173 13.1081 14.9919C13.1081 15.5037 12.8575 15.8076 12.3061 15.8076C11.5877 15.8076 11.3036 15.4407 11.337 14.1931C11.337 13.9225 8.59688 13.8381 8.51334 14.1931C8.30061 17.2164 10.1842 18.0884 12.3395 18.0884C14.4281 18.0884 16.0655 16.9752 16.0655 14.9599C16.0655 12.8573 14.4887 12.0217 13.1859 11.3313C12.2688 10.8452 11.4874 10.4312 11.4874 9.69773C11.4874 8.97798 12.0221 8.88202 12.3395 8.88202C12.6737 8.88202 13.2752 8.94092 13.2251 10.2844Z" fill="#F472B6"/>
</g>
</svg>
