<svg width="24" height="24" viewBox="0 0 24 24" fill="none" xmlns="http://www.w3.org/2000/svg">
<path fill-rule="evenodd" clip-rule="evenodd" d="M8.75357 2.89192C7.19853 3.5535 3.64477 6.95968 3.63269 9.64344C3.65361 12.418 7.19853 15.7334 8.75357 16.3951C9.11001 16.5467 9.66341 16.7563 10.2477 16.7563C10.7805 16.7563 11.2317 16.4936 11.6908 15.9412C12.4625 15.0129 12.3697 13.6781 11.3412 12.9207C10.1104 12.0148 9.10331 11.2017 9.08235 9.64342C9.10327 8.08542 10.1107 6.9979 11.3412 6.09182C12.3696 5.33433 12.57 4.18526 11.7983 3.25702C11.3393 2.70479 10.7805 2.53032 10.2476 2.53032C9.66341 2.53032 9.11005 2.74014 8.75357 2.89192Z" fill="#81C784"/>
<path fill-rule="evenodd" clip-rule="evenodd" d="M10.1688 7.14688C9.88548 7.47238 9.62168 7.80117 9.38127 8.13128C8.97973 8.64368 8.63416 9.18256 8.35471 9.72504L8.35151 9.72824C8.34727 9.73646 8.34321 9.74501 8.339 9.75324C8.33228 9.76648 8.32666 9.77897 8.31869 9.79543C7.966 10.4947 7.72132 11.1987 7.60463 11.861C7.60416 11.8637 7.60352 11.8662 7.60307 11.8689C7.14848 13.9874 7.79308 15.8076 9.70307 16.6892C10.4582 16.9517 11.1055 16.6475 11.6952 15.9767C12.3777 15.2005 12.4616 13.6601 11.3905 12.9205C9.88894 11.8837 9.1223 10.8949 9.13118 9.6283C9.14016 8.37142 9.84104 7.52648 10.1688 7.14688Z" fill="#43A047"/>
<path fill-rule="evenodd" clip-rule="evenodd" d="M13.7839 21.4696C13.2538 21.4696 12.6976 21.2951 12.2407 20.7433C11.4728 19.8154 11.6735 18.6672 12.6969 17.9103C13.9217 17.0048 14.9229 15.9177 14.9439 14.3605C14.923 12.8033 13.9205 11.769 12.6969 10.8588C11.7935 10.187 11.4728 8.90568 12.2407 7.97768C12.6976 7.42584 13.2536 7.25137 13.7842 7.25137C14.3656 7.25137 14.9163 7.46117 15.2711 7.61256C16.8185 8.27373 20.3399 11.5792 20.3671 14.3606C20.3585 16.9822 16.8185 20.4471 15.2711 21.1086C14.9163 21.2599 14.3655 21.4696 13.7839 21.4696Z" fill="#FF1744"/>
<g style="mix-blend-mode:multiply">
<path fill-rule="evenodd" clip-rule="evenodd" d="M13.7751 7.2156C13.2019 7.20681 12.6399 7.47482 12.1955 7.9781C11.5094 8.75415 11.6249 10.1475 12.7017 10.8875C14.211 11.9243 14.9309 13.1127 14.922 14.3796C14.9118 15.816 13.9932 16.715 13.7642 16.9952C14.2886 16.61 14.7402 16.1599 15.1236 15.6703C15.095 15.7243 15.0657 15.7725 15.0392 15.8078C15.4369 15.3403 15.7752 14.7822 16.0376 14.1874C16.0586 14.1423 16.0839 14.0847 16.1095 14.0218C16.1164 14.0049 16.1226 13.9915 16.1298 13.9734C16.3144 13.5172 16.453 13.0428 16.5423 12.5734C16.6502 12.0493 16.7078 11.4921 16.6376 11.025C16.6337 10.9778 16.6304 10.9307 16.6251 10.8844C16.4982 9.32748 15.7526 7.96356 14.3485 7.31876C14.1587 7.25313 13.9663 7.21854 13.7751 7.2156Z" fill="#B71C1C"/>
</g>
</svg>
