<svg width="32" height="32" viewBox="0 0 32 32" fill="none" xmlns="http://www.w3.org/2000/svg">
<path d="M5.19399 11.4467C5.19199 11.4493 5.13133 11.456 5.05999 11.4647C4.99066 11.4713 4.90999 11.4827 4.88066 11.4893C4.85399 11.496 4.80732 11.5053 4.77599 11.5093C4.69999 11.5207 4.52999 11.568 4.47399 11.5927C4.44932 11.6013 4.36666 11.6347 4.28799 11.666C3.89466 11.8227 3.49199 12.14 3.21266 12.518C3.14999 12.6033 3.08932 12.684 3.08066 12.6973C2.97999 12.8293 2.76733 13.348 2.72733 13.558C2.65533 13.932 2.64666 14.3453 2.70466 14.6207C2.80133 15.0813 2.93932 15.39 3.20599 15.7453C3.27266 15.8347 3.75399 16.336 4.27732 16.8573C4.95932 17.5393 5.23666 17.8347 5.26799 17.9013C5.37733 18.1427 5.26332 18.436 5.01266 18.548C4.93466 18.5813 4.85399 18.588 4.41999 18.59C4.14533 18.59 3.87199 18.6013 3.81666 18.6127C3.32866 18.718 2.97066 19.1447 2.95533 19.6433C2.94199 20.0327 3.11866 20.3773 3.44732 20.6053C3.67066 20.7573 3.83199 20.7867 4.49599 20.7867C4.99066 20.7867 5.16933 20.7733 5.37933 20.726C5.41066 20.7193 5.46466 20.708 5.50066 20.7013C5.70399 20.666 6.28999 20.3927 6.38599 20.29C6.39266 20.2833 6.43532 20.25 6.48199 20.216C6.62999 20.1047 6.85599 19.872 6.99199 19.686C7.24266 19.344 7.44399 18.832 7.49533 18.4113C7.51333 18.2547 7.51533 17.8547 7.49733 17.7627C7.49066 17.7313 7.47533 17.644 7.45933 17.566C7.39466 17.2033 7.18866 16.7587 6.95199 16.4587C6.88266 16.3693 6.39933 15.8727 5.88066 15.352C4.84733 14.3167 4.84532 14.3167 4.87199 14.0947C4.91199 13.7507 5.24799 13.554 5.55399 13.6927C5.62533 13.724 6.44199 14.5287 8.83266 16.9173C10.582 18.6687 12.0487 20.1287 12.0913 20.1647C12.134 20.2007 12.248 20.2813 12.346 20.346C13.288 20.9633 14.502 20.9273 15.4213 20.2607C15.5647 20.156 15.846 19.876 15.958 19.7287L16.0367 19.6233L16.2933 19.8787C16.5193 20.1 16.58 20.156 16.6853 20.2407C16.6987 20.25 16.772 20.3013 16.8507 20.3527C17.7407 20.9433 18.9933 20.932 19.8853 20.3213C20.042 20.214 20.0933 20.1713 20.2613 20.0107C20.6327 19.6507 20.9187 19.1047 21.0193 18.5567C21.0527 18.3867 21.0573 17.794 21.028 17.6507C21.0213 17.6193 21.0107 17.5593 21.0033 17.5167C20.9453 17.2193 20.7467 16.788 20.5293 16.4967C20.4647 16.4073 19.9907 15.9133 19.476 15.3987C18.962 14.8847 18.5167 14.428 18.4873 14.388C18.418 14.292 18.4007 14.0747 18.4493 13.9587C18.494 13.8513 18.5813 13.748 18.6707 13.6993C18.7333 13.6633 18.8187 13.6587 19.4093 13.652L20.0753 13.6453L20.0573 13.764C20.0353 13.9047 20.0373 14.4327 20.0573 14.542C20.0667 14.5847 20.078 14.6493 20.0847 14.6873C20.1133 14.84 20.194 15.0793 20.2767 15.256C20.4827 15.696 20.456 15.6647 22.7327 17.9487C23.8953 19.116 24.9287 20.1333 25.0273 20.2093C25.4093 20.5067 25.7587 20.6633 26.2347 20.7487C26.4407 20.784 26.8007 20.7953 26.9727 20.7707C27.21 20.7353 27.3353 20.708 27.494 20.6567C28.4867 20.3367 29.2113 19.4467 29.3213 18.416C29.3767 17.8927 29.2427 17.528 28.8987 17.2593C28.552 16.9913 28.082 16.962 27.6887 17.1833C27.3667 17.3627 27.1587 17.716 27.138 18.1093C27.1207 18.4447 26.8633 18.644 26.5453 18.566C26.4407 18.5413 26.36 18.4627 24.394 16.5013C23.2713 15.3807 22.3253 14.4193 22.294 14.368C22.1887 14.1913 22.2293 13.9273 22.3833 13.7793C22.504 13.6633 22.578 13.648 23.0587 13.648C23.598 13.648 23.7547 13.6167 23.9873 13.4573C24.6893 12.9813 24.6267 11.9527 23.8707 11.5633C23.6447 11.4467 23.674 11.4493 21.158 11.4467C18.662 11.4467 18.5367 11.4513 18.2507 11.5273C18.2013 11.5387 18.1453 11.5547 18.1273 11.5567C18.0607 11.572 17.7987 11.6753 17.7027 11.724C17.4053 11.874 17.0047 12.2007 16.7927 12.4647C16.6447 12.65 16.448 13.0193 16.3627 13.2653C16.0853 14.0747 16.2 14.9247 16.678 15.6407C16.7927 15.8127 16.9913 16.0253 17.7987 16.8347C18.338 17.376 18.796 17.848 18.8167 17.886C18.8967 18.0427 18.8567 18.286 18.7227 18.4293C18.6107 18.55 18.5413 18.5767 18.34 18.5767C18.1947 18.5767 18.1453 18.568 18.0827 18.5273C18.04 18.5007 16.4773 16.9507 14.6053 15.0813C12.044 12.5207 11.172 11.662 11.074 11.6033C10.832 11.458 10.53 11.4133 10.2507 11.478C9.85933 11.57 9.51066 11.9347 9.43466 12.328C9.38066 12.608 9.44799 12.93 9.60866 13.1667C9.64266 13.216 10.7 14.2873 11.9613 15.5487C14.0507 17.64 14.256 17.85 14.2807 17.942C14.33 18.1187 14.3033 18.2547 14.1893 18.416C14.0773 18.57 13.784 18.628 13.5987 18.532C13.556 18.5073 12.0687 17.038 10.2933 15.2667C7.73266 12.706 7.03266 12.0193 6.89399 11.928C6.42399 11.6147 5.95466 11.4627 5.41799 11.4493C5.29666 11.4467 5.19599 11.4447 5.19399 11.4467Z" fill="url(#paint0_linear_3372_1526)"/>
<defs>
<linearGradient id="paint0_linear_3372_1526" x1="2.66666" y1="16.1167" x2="29.3333" y2="16.1167" gradientUnits="userSpaceOnUse">
<stop stop-color="#FFA888"/>
<stop offset="1" stop-color="#F1E323"/>
</linearGradient>
</defs>
</svg>
