<svg width="24" height="25" viewBox="0 0 24 25" fill="none" xmlns="http://www.w3.org/2000/svg">
<path fill-rule="evenodd" clip-rule="evenodd" d="M11.5002 6.5C8.9444 6.5 7.34746 7.82542 6.70823 10.4763C7.66669 9.15083 8.78478 8.6539 10.0625 8.98506C10.7915 9.17396 11.3128 9.72262 11.8893 10.3301C12.829 11.3192 13.9166 12.464 16.2918 12.464C18.8472 12.464 20.4445 11.1386 21.0833 8.48813C20.1252 9.81354 19.0072 10.3105 17.7294 9.97892C17.0001 9.79003 16.4788 9.24136 15.9023 8.63431C14.9626 7.64436 13.8753 6.5 11.5002 6.5ZM6.70823 12.464C4.15282 12.464 2.55551 13.7894 1.91666 16.4402C2.87512 15.1148 3.99321 14.6179 5.27053 14.949C5.9999 15.1379 6.52119 15.6866 7.0977 16.2941C8.03739 17.2832 9.12467 18.428 11.5002 18.428C14.0556 18.428 15.6529 17.1029 16.2918 14.4521C15.3333 15.7775 14.2152 16.2745 12.9375 15.9433C12.2085 15.754 11.6872 15.2053 11.1107 14.5983C10.171 13.6091 9.08336 12.464 6.70823 12.464Z" fill="#0EA5E9"/>
</svg>
