<svg width="24" height="24" viewBox="0 0 24 24" fill="none" xmlns="http://www.w3.org/2000/svg">
<path d="M21.4921 2.51C21.4921 2.51 14.2401 2.157 8.52606 9.988C4.14106 15.996 2.50806 21.492 2.50806 21.492L4.35006 20.542C5.71606 18.17 6.42806 17.192 7.76706 15.797C10.1681 16.499 12.6741 16.414 14.8471 13.898C12.9491 13.368 11.4311 13.49 9.19006 13.718C11.7061 12 13.4241 11.62 15.7971 12L16.7461 10.102C15.0371 9.779 13.8981 9.75 12.2091 10.14C14.0791 8.82 15.3791 8.08 17.6951 8.203L18.8431 6.371C17.3631 6.267 16.4711 6.428 14.7711 6.846C16.3001 5.46 17.6951 4.834 19.7261 4.71C19.7261 4.71 20.7231 2.917 21.4921 2.508V2.51Z" fill="#E53935"/>
</svg>
