<svg width="24" height="24" viewBox="0 0 24 24" fill="none" xmlns="http://www.w3.org/2000/svg">
<path d="M14.69 5.7494C14.69 6.45531 14.4208 7.0543 13.8823 7.5462C13.3438 8.0381 12.6882 8.28417 11.9157 8.28417C11.1198 8.28417 10.4524 8.03818 9.91393 7.5462C9.37548 7.05422 9.10625 6.4553 9.10625 5.7494C9.10625 5.04355 9.37548 4.4446 9.91393 3.9526C10.4524 3.46062 11.1197 3.21463 11.9157 3.21463C12.6883 3.21463 13.3439 3.46062 13.8823 3.9526C14.4208 4.44458 14.69 5.0435 14.69 5.7494ZM9.0711 14.6327C9.0711 13.9268 9.34033 13.3279 9.87885 12.8359C10.4407 12.3225 11.1197 12.0658 11.9156 12.0658C12.6647 12.0658 13.3203 12.3225 13.8822 12.8359C14.4442 13.3279 14.7719 13.8841 14.8655 14.5043C15.0528 15.6594 14.8188 16.8038 14.1631 17.9375C13.5311 19.0712 12.6179 19.9375 11.4238 20.5364C10.7683 20.8787 10.2299 20.868 9.80845 20.5043C9.41042 20.162 9.5275 19.7557 10.1597 19.2851C10.5108 19.0498 10.8034 18.7502 11.0376 18.3867C11.2718 18.0229 11.4238 17.6487 11.4941 17.2637C11.5175 17.0925 11.4355 17.007 11.2483 17.007C10.78 16.9856 10.3001 16.7502 9.80844 16.301C9.31677 15.8519 9.0711 15.2958 9.0711 14.6327Z" fill="#71717A"/>
</svg>
