<svg width="24" height="24" viewBox="0 0 24 24" fill="none" xmlns="http://www.w3.org/2000/svg">
<path d="M10.386 1.507C7.98601 1.424 5.58601 2.173 3.60001 3.756L4.92401 4.506C6.49701 3.339 8.48301 2.84 10.386 2.923V1.507Z" fill="#2979FF"/>
<path d="M17.42 4.67C15.766 2.923 13.614 1.84 11.297 1.59V3.006C13.2466 3.32721 15.0433 4.26059 16.427 5.671L17.421 4.671L17.42 4.67Z" fill="#448AFF"/>
<path d="M20.4 11.5C20.317 9.335 19.49 7.17 18.083 5.338L17.09 6.338C18.248 7.92 18.91 9.668 18.993 11.501L20.4 11.5Z" fill="#7E57C2"/>
<path d="M18.083 18.663C19.49 16.831 20.317 14.665 20.4 12.5H18.993C18.911 14.332 18.248 16.08 17.09 17.663L18.083 18.663Z" fill="#AB47BC"/>
<path d="M11.297 22.41C13.531 22.16 15.766 21.078 17.421 19.329L16.428 18.329C15.021 19.829 13.2 20.745 11.297 20.995V22.41Z" fill="#D81B60"/>
<path d="M3.60001 20.245C5.52002 21.7824 7.92785 22.5801 10.386 22.493V21.078C8.48301 21.161 6.57901 20.661 4.92401 19.495L3.60001 20.245Z" fill="#F50057"/>
<path d="M10.008 6.212C10.8464 6.20348 11.6785 6.35801 12.458 6.667C13.1769 6.9416 13.8318 7.36093 14.382 7.899C14.9325 8.44034 15.3685 9.0869 15.664 9.8002C15.9595 10.5135 16.1084 11.2789 16.102 12.051C16.102 12.873 15.952 13.641 15.65 14.354C15.3474 15.0545 14.9097 15.6885 14.3618 16.2195C13.8139 16.7506 13.1666 17.1684 12.457 17.449C11.6758 17.7489 10.8448 17.8982 10.008 17.889C9.114 17.889 8.293 17.743 7.545 17.449C6.83259 17.1633 6.18354 16.7399 5.635 16.203C5.10003 15.6743 4.67398 15.0457 4.381 14.353C4.07671 13.624 3.92297 12.841 3.929 12.051C3.929 11.23 4.079 10.467 4.381 9.761C4.67179 9.06383 5.09802 8.43128 5.635 7.9C6.18164 7.36419 6.83146 6.94505 7.545 6.668C8.293 6.365 9.115 6.212 10.008 6.212ZM10.008 9C9.59 9 9.192 9.078 8.813 9.234C8.443 9.381 8.118 9.591 7.836 9.864C7.5524 10.1409 7.32491 10.4699 7.166 10.833C6.99821 11.2169 6.91368 11.632 6.918 12.051C6.918 12.491 7 12.897 7.166 13.269C7.4855 13.9996 8.0759 14.5778 8.813 14.882C9.192 15.029 9.59 15.102 10.008 15.102C10.426 15.102 10.82 15.029 11.189 14.882C11.569 14.726 11.899 14.511 12.181 14.237C12.4719 13.9635 12.7048 13.6343 12.866 13.269C13.031 12.897 13.114 12.491 13.114 12.051C13.114 11.611 13.031 11.205 12.866 10.833C12.7051 10.4676 12.4721 10.1383 12.181 9.865C11.8965 9.58988 11.559 9.37553 11.189 9.235C10.8156 9.07763 10.4132 8.99768 10.008 9Z" fill="#71717A"/>
</svg>
