<svg width="24" height="24" viewBox="0 0 24 24" fill="none" xmlns="http://www.w3.org/2000/svg">
<path fill-rule="evenodd" clip-rule="evenodd" d="M21.792 21.792H2.20801V2.208H21.792V21.792ZM3.16801 3.168V20.832H20.832V3.168H3.16801Z" fill="#60A5FA"/>
<path fill-rule="evenodd" clip-rule="evenodd" d="M16.7904 11.4168C16.6777 11.4165 16.5743 11.4193 16.4969 11.4266C15.8925 11.4792 15.3278 11.7432 14.9414 12.154C14.7478 12.3598 14.5724 12.6549 14.4867 12.9191C14.3923 13.2102 14.393 13.2046 14.3935 13.6607C14.394 14.2433 14.4236 14.3877 14.6218 14.7752C14.8212 15.1648 15.1249 15.4831 15.563 15.7616C15.755 15.8836 16.2468 16.1288 16.6483 16.3028C17.5224 16.6814 17.799 16.8561 17.9273 17.1108L17.9803 17.216V17.4363C17.9803 17.6488 17.9794 17.6597 17.9362 17.7473C17.8376 17.9501 17.6049 18.1161 17.3068 18.1963C17.1941 18.2266 17.1425 18.2309 16.8906 18.231C16.6441 18.231 16.5842 18.2259 16.4713 18.1978C16.274 18.1478 16.1077 18.0788 15.9778 17.9928C15.8187 17.8874 15.5059 17.5716 15.3786 17.3878C15.3225 17.3067 15.2661 17.2402 15.2534 17.2402C15.2325 17.2402 14.1539 17.8569 13.9656 17.9764C13.9021 18.0168 13.8861 18.0351 13.8861 18.0674C13.8861 18.1344 14.1381 18.5154 14.3355 18.7467C14.7377 19.2182 15.5442 19.6338 16.2587 19.7379C16.5411 19.779 17.0102 19.7923 17.3379 19.7682C17.5527 19.7524 17.7697 19.7117 18.003 19.6433C18.8468 19.3957 19.4226 18.8699 19.6359 18.1517C19.723 17.8588 19.7581 17.4984 19.7294 17.1945C19.6704 16.5708 19.4787 16.1298 19.1003 15.7479C18.7489 15.3933 18.2664 15.1075 17.3143 14.69C16.4887 14.328 16.2732 14.1874 16.1543 13.9332C16.0515 13.7136 16.0711 13.4115 16.2003 13.2238C16.3515 13.0041 16.6602 12.8955 17.0044 12.9411C17.3244 12.9833 17.5314 13.1102 17.7342 13.3881C17.8395 13.5324 17.9126 13.6076 17.9477 13.6076C17.9822 13.6076 18.1311 13.5157 18.5933 13.2088C19.0638 12.8965 19.2118 12.7906 19.2219 12.7586C19.2376 12.7091 19.1639 12.5932 18.9482 12.3286C18.5151 11.7974 18.006 11.5154 17.3522 11.4446C17.1917 11.4272 16.9783 11.4176 16.7905 11.417L16.7904 11.4168ZM11.5896 11.5069C11.2015 11.5067 10.7582 11.5069 10.2656 11.5074C7.71111 11.5099 7.11821 11.5141 7.10223 11.5306C7.08667 11.5462 7.08264 11.7028 7.08264 12.2874V13.0245L8.24424 13.0287L9.40594 13.0329L9.40618 16.3211C9.40627 18.1296 9.41035 19.6245 9.41602 19.6432L9.42475 19.6774H10.269C11.0248 19.6774 11.1141 19.6757 11.1224 19.6535C11.1274 19.6403 11.1311 18.1453 11.1311 16.3313V13.0331L12.2928 13.0289L13.4544 13.0247V12.2786C13.4544 11.6321 13.4519 11.5308 13.4317 11.5182C13.421 11.5115 12.7536 11.5075 11.5893 11.5069L11.5896 11.5069Z" fill="#60A5FA"/>
</svg>
