<svg width="24" height="24" viewBox="0 0 24 24" fill="none" xmlns="http://www.w3.org/2000/svg">
<path d="M12.5435 16.8603C12.5435 17.7861 12.6763 18.4073 12.942 18.724C13.2077 19.0407 13.6907 19.1991 14.3911 19.1991C15.1156 19.1991 16.0455 18.8336 17.1806 18.1028L17.9051 19.3087C15.7797 21.0872 14.0287 21.9763 12.6522 21.9763C11.2756 21.9763 10.1887 21.6474 9.39174 20.9896C8.59474 20.3075 8.19624 19.1137 8.19624 17.4083V7.83402H6.38485L6.09503 6.48191L8.19626 5.82414V4.03351L12.5437 2.02356V6.04328L16.8185 5.71438L16.4199 8.08963L12.5437 7.94345L12.5435 16.8603Z" fill="#60A5FA"/>
</svg>
