<svg width="24" height="24" viewBox="0 0 24 24" fill="none" xmlns="http://www.w3.org/2000/svg">
<path d="M12.0004 22.5368L15.9717 20.2464L22.1915 5.01622V3.08625L17.5593 5.78117V7.4091L13.8515 15.4045L12.0004 16.6836V22.5368ZM10.1459 15.7558L12.0004 14.8401V12.5136L9.2207 6.02897V4.19419L9.2017 4.18332L6.44135 5.78117V7.4091L10.1459 15.7558Z" fill="#1565C0"/>
<path d="M14.7793 4.17509V6.02886L11.9999 12.5131V14.68L10.1462 15.7553L6.44123 7.40899V5.77853L9.22058 4.17772L4.58746 1.46381L1.80811 3.08614V5.07343L8.06367 20.2658L11.9999 22.536V16.8303L13.8511 15.7551L13.8293 15.7414L17.5587 7.40877V5.7782L22.1919 3.08592L19.4125 1.46348L14.782 4.17476L14.7793 4.17509Z" fill="#2979FF"/>
</svg>
