<svg width="24" height="25" viewBox="0 0 24 25" fill="none" xmlns="http://www.w3.org/2000/svg">
<path d="M19.1389 13.2801C19.104 13.2968 19.0691 13.318 19.0342 13.3393C19.0327 13.1176 18.9158 13.0098 18.8338 12.8929C18.4391 12.3282 17.677 12.5423 17.4523 13.0615C17.4219 13.1328 17.9169 13.778 17.8956 13.8479C17.5677 13.9951 17.2519 14.3337 17.1881 14.6297C17.2534 14.3245 17.0257 14.1818 16.6811 14.2957C16.3365 14.4096 16.0101 14.7375 15.963 15.0411C16.0116 14.7375 15.7657 14.572 15.4135 14.657C15.0612 14.742 14.747 15.0441 14.7151 15.3462C14.747 15.0441 14.4828 14.8544 14.1276 14.9075C13.7723 14.9606 13.4687 15.2369 13.4535 15.5375C13.4672 15.2354 13.1879 15.0214 12.8296 15.0411C12.4713 15.0608 12.1813 15.3098 12.1844 15.6119C12.1813 15.3113 11.8868 15.0684 11.5285 15.0563C11.1703 15.0441 10.894 15.2643 10.9137 15.5664C10.894 15.2643 10.5843 14.9956 10.229 14.95C9.87226 14.9045 9.61266 15.0988 9.6491 15.4009C9.61266 15.0988 9.29082 14.8028 8.93861 14.7253C8.58641 14.6479 8.34351 14.8179 8.39664 15.1216C8.34351 14.8195 8.01103 14.4976 7.66338 14.3898C7.31573 14.2836 7.09105 14.4308 7.1624 14.7344C7.09256 14.4308 6.32591 13.148 6.24241 12.9582C6.01773 12.439 5.58506 12.2751 5.21463 12.6121C5.06282 12.7502 4.9687 13.0007 5.04612 13.3696C4.80474 13.3028 4.68481 13.4197 4.77286 13.6763C5.2541 15.0821 5.72928 16.5122 6.12399 17.9498C6.29251 18.5647 6.46709 19.3617 6.962 19.8202C7.31725 20.1481 7.76054 20.3758 8.18714 20.5595C9.46085 21.106 10.8742 21.273 12.1905 21.2821C13.5993 21.2912 15.3907 20.9512 16.6371 20.2422C17.1092 19.975 17.5586 19.6638 17.7696 19.1401C18.1172 18.2717 18.3693 17.3608 18.6349 16.4894C18.937 15.4996 19.1648 14.449 19.5564 13.5245C19.6536 13.2209 19.4684 13.1161 19.1389 13.2801Z" fill="#48A2AD"/>
<path d="M12.1434 17.2712C15.9172 17.2712 18.9765 16.0417 18.9765 14.5249C18.9765 13.0082 15.9172 11.7786 12.1434 11.7786C8.36953 11.7786 5.31024 13.0082 5.31024 14.5249C5.31024 16.0417 8.36953 17.2712 12.1434 17.2712Z" fill="#854D0E"/>
<path d="M17.9457 10.6036C17.8182 10.4746 17.6618 10.3531 17.4751 10.2468C17.4751 10.2468 13.1211 11.6633 10.0909 11.5099C7.06069 11.3566 7.50702 11.0256 5.96763 12.0064C5.96763 12.0064 5.54711 12.6075 6.06024 12.9734C6.73125 13.4516 7.57837 13.8463 8.50747 14.1469C8.61981 14.0649 8.73215 14.0133 8.82779 14.0133C11.7168 13.0098 17.3369 14.282 17.9457 10.6036Z" fill="#F472B6"/>
<path d="M17.9457 10.6036C17.3369 14.282 11.7168 13.0098 8.8293 14.0133C8.73366 14.0133 8.62131 14.0634 8.50897 14.1469C10.8393 14.8999 13.6904 15.0532 15.5941 14.4202C17.9852 13.6277 19.0646 11.7376 17.9457 10.6036Z" fill="#DB2777"/>
<path opacity="0.5" d="M17.9457 10.6036C17.3369 14.282 11.7168 13.0098 8.8293 14.0133C8.73366 14.0133 8.62131 14.0634 8.50897 14.1469C10.8393 14.8999 13.6904 15.0532 15.5941 14.4202C17.9852 13.6277 19.0646 11.7377 17.9457 10.6036Z" fill="#F472B6"/>
<path d="M16.7114 7.89374C16.7114 7.89374 17.5358 8.38258 17.5358 9.64718C17.5358 10.9118 16.4837 12.5514 11.8155 12.0823C7.18819 11.6162 5.99342 12.0109 5.99342 12.0109C5.99342 12.0109 4.57549 10.0859 7.53888 10.0965C10.1911 10.1057 14.1352 10.4184 15.0643 9.82935C16.4473 8.94884 16.4989 8.92455 16.7114 7.89374Z" fill="#F9A8D4"/>
<path d="M11.3221 6.95402C12.7582 6.0568 12.6808 4.75273 11.9961 3.64297C11.9217 3.68548 11.8777 3.77505 11.9157 3.86766C12.066 4.22897 12.1996 4.73906 11.9567 5.08216C11.5452 5.66209 10.7831 5.80935 9.53676 6.50465C8.34806 7.16656 7.8911 7.7981 7.8076 8.59056C7.80001 8.66495 7.84252 8.7363 7.91236 8.77122C8.04595 8.83802 8.301 8.94732 8.6866 9.04752C9.10561 8.01064 10.3672 7.43071 11.3221 6.95402Z" fill="#F472B6"/>
<path d="M14.4555 5.28558C13.8133 4.59331 13.0543 4.02857 12.1753 3.63385C12.1115 3.60501 12.0462 3.61412 11.9946 3.64296C12.6793 4.7512 12.7567 6.05527 11.3206 6.954C10.3672 7.4307 9.10561 8.01062 8.68509 9.0475C9.10409 9.15681 9.67795 9.25549 10.4249 9.27826C12.2557 9.33291 14.7227 9.23272 15.1417 8.51464C15.5622 7.79808 15.2115 6.10081 14.4555 5.28558Z" fill="#F9A8D4"/>
<path d="M16.5824 7.64629C16.6173 7.55824 16.6431 7.46715 16.6613 7.37607C16.1695 6.62307 15.0187 6.39232 15.0187 6.39232C16.2666 9.04905 9.77206 8.47064 7.93208 8.57994C7.14873 8.62701 6.69936 8.97162 6.43976 9.35419C6.82385 9.1538 7.27321 9.04297 7.7241 8.89268C10.6298 8.20041 15.336 11.1076 16.5824 7.64629Z" fill="#F472B6"/>
<path d="M16.8435 7.79203C16.8077 7.64376 16.746 7.50295 16.6613 7.37606C16.6431 7.46867 16.6173 7.55824 16.5824 7.64629C15.336 11.1076 10.6298 8.20041 7.72258 8.89267C7.27321 9.04297 6.82232 9.15227 6.43824 9.35418C6.08755 9.86883 6.08603 10.4488 6.08603 10.4488C7.97914 9.8749 9.37582 10.4518 13.0148 10.5049C16.6538 10.555 17.1046 8.87901 16.8435 7.79203Z" fill="#DB2777"/>
<path opacity="0.5" d="M16.8435 7.79204C16.8076 7.64376 16.746 7.50296 16.6613 7.37607C16.6431 7.46867 16.6173 7.55824 16.5824 7.6463C15.336 11.1076 10.6298 8.20041 7.72255 8.89268C7.27318 9.04298 6.82229 9.15228 6.43821 9.35419C6.08752 9.86884 6.086 10.4488 6.086 10.4488C7.97911 9.87491 9.37579 10.4518 13.0148 10.5049C16.6537 10.555 17.1046 8.87902 16.8435 7.79204Z" fill="#F472B6"/>
<path d="M19.1419 14.3321C18.8095 14.487 18.4618 14.8422 18.3753 15.1383C18.4633 14.8422 18.2584 14.7162 17.9183 14.8422C17.5767 14.9682 17.2367 15.2946 17.1653 15.5846C17.2367 15.2946 17.012 15.1504 16.6643 15.2476C16.3167 15.3447 15.9842 15.6438 15.9311 15.9292C15.9857 15.6438 15.7428 15.4798 15.3906 15.5481C15.0384 15.6165 14.7166 15.8897 14.6801 16.1721C14.7181 15.8897 14.457 15.7045 14.1017 15.744C13.745 15.7835 13.4368 16.0324 13.4171 16.3118C13.4368 16.0324 13.162 15.8244 12.8037 15.8351C12.4455 15.8457 12.1509 16.0704 12.1479 16.3497C12.1509 16.0704 11.861 15.8396 11.5027 15.8214C11.1459 15.8032 10.8651 16.0051 10.8803 16.286C10.8666 16.0051 10.563 15.7516 10.2062 15.7045C9.85097 15.6575 9.58681 15.8381 9.61869 16.1205C9.58681 15.8381 9.27256 15.5573 8.92035 15.4829C8.56814 15.4085 8.32372 15.5664 8.37079 15.8533C8.32221 15.5664 7.99733 15.2612 7.65119 15.1565C7.30506 15.0517 7.07886 15.1929 7.14414 15.4844C7.07886 15.1929 6.74487 14.8589 6.40632 14.7268C6.06778 14.5948 5.86131 14.7162 5.94329 15.0138C5.86131 14.7162 5.52125 14.3534 5.19182 14.1925C4.86238 14.0315 4.67717 14.1363 4.77433 14.4414C5.16601 15.3614 5.39525 16.3922 5.69736 17.3456C5.96455 18.1851 6.21656 19.055 6.56573 19.8642C6.77675 20.353 7.22308 20.6111 7.69977 20.8267C9.06457 21.4415 10.6586 21.6009 12.1373 21.6146C13.4732 21.6283 14.8578 21.5114 16.1315 21.0878C16.5596 20.9451 17.0029 20.7675 17.3581 20.4836C17.8546 20.0874 18.0291 19.3298 18.1992 18.7438C18.6045 17.3411 19.0827 15.9732 19.5534 14.5917C19.6566 14.2851 19.4744 14.1773 19.1419 14.3321Z" fill="#22D3EE"/>
</svg>
