<svg width="24" height="24" viewBox="0 0 24 24" fill="none" xmlns="http://www.w3.org/2000/svg">
<path d="M17.282 17.282H6.71697V6.717H17.282M21.508 10.943V8.83H19.395V6.717C19.395 5.544 18.445 4.604 17.282 4.604H15.169V2.491H13.056V4.604H10.943V2.491H8.82997V4.604H6.71697C5.54397 4.604 4.60397 5.544 4.60397 6.717V8.83H2.49097V10.943H4.60397V13.056H2.49097V15.169H4.60397V17.282C4.60397 17.8424 4.82659 18.3799 5.22285 18.7761C5.61911 19.1724 6.15656 19.395 6.71697 19.395H8.82997V21.508H10.943V19.395H13.056V21.508H15.169V19.395H17.282C17.8424 19.395 18.3798 19.1724 18.7761 18.7761C19.1723 18.3799 19.395 17.8424 19.395 17.282V15.169H21.508V13.056H19.395V10.943M13.056 13.056H10.943V10.943H13.056M15.169 8.83H8.82997V15.169H15.169V8.83Z" fill="#FF7043"/>
</svg>
