<svg width="24" height="25" viewBox="0 0 24 25" fill="none" xmlns="http://www.w3.org/2000/svg">
<path d="M6.29992 18.7249L3.3001 16.4749C3.20657 16.4055 3.13067 16.3149 3.07854 16.2107C3.02641 16.1065 2.99951 15.9915 3.00001 15.875V9.12499C2.99951 9.00846 3.02641 8.89346 3.07854 8.78926C3.13067 8.68505 3.20657 8.59456 3.3001 8.52508L6.29992 6.27507C6.21933 6.35074 6.15843 6.44493 6.1225 6.54948C6.08658 6.65403 6.07671 6.76576 6.09376 6.87498V18.125C6.07671 18.2343 6.08658 18.346 6.1225 18.4505C6.15843 18.5551 6.21933 18.6492 6.29992 18.7249Z" fill="#7E22CE"/>
<path d="M20.6661 6.62383C20.5425 6.54265 20.3978 6.49961 20.2499 6.50009C20.1541 6.49931 20.059 6.51745 19.9702 6.55346C19.8814 6.58946 19.8006 6.64262 19.7324 6.7099L19.6801 6.76249L16.4923 9.81884L13.6951 12.5L10.3836 15.6762L7.31995 18.6124L7.26737 18.665C7.19921 18.7324 7.1184 18.7856 7.02959 18.8217C6.94077 18.8577 6.84571 18.8759 6.74986 18.8751C6.58761 18.8748 6.42979 18.8221 6.29987 18.7249L3.30005 16.4749C3.45245 16.5894 3.64276 16.6415 3.83223 16.6206C4.0217 16.5997 4.19608 16.5074 4.31986 16.3624L6.00005 14.4125L7.64987 12.4963L10.3836 9.32384L15.1724 3.76239C15.242 3.68003 15.3287 3.61387 15.4265 3.56854C15.5243 3.52321 15.6309 3.49982 15.7386 3.49999C15.8865 3.49951 16.0313 3.54255 16.1549 3.62374L20.6661 6.62383Z" fill="#9333EA"/>
<path d="M20.6661 18.3762L16.1661 21.3763C16.0131 21.4763 15.8291 21.5176 15.6479 21.4928C15.4667 21.468 15.3007 21.3788 15.1801 21.2413L10.3836 15.6762L7.64987 12.4964L6.00005 10.5839L4.31986 8.63367C4.19497 8.49018 4.02043 8.39925 3.83128 8.3791C3.64212 8.35896 3.45235 8.41113 3.30005 8.5251L6.29987 6.27511C6.42979 6.17791 6.58761 6.12524 6.74986 6.12492C6.84571 6.1241 6.94077 6.14225 7.02959 6.17831C7.1184 6.21436 7.19921 6.26762 7.26737 6.33501L7.31995 6.3876L10.3836 9.32386L13.6951 12.5L16.4963 15.1851L19.6801 18.2375L19.7324 18.2902C19.8006 18.3574 19.8814 18.4105 19.9702 18.4465C20.059 18.4825 20.1541 18.5007 20.2499 18.4999C20.3978 18.5004 20.5425 18.4574 20.6661 18.3762Z" fill="#A855F7"/>
<path d="M21.0001 7.24986V17.75C21.0002 17.8739 20.9698 17.9957 20.9115 18.1049C20.8533 18.2141 20.769 18.3073 20.6662 18.3762L16.1661 21.3762C16.2691 21.3073 16.3533 21.2141 16.4115 21.1049C16.4697 20.9956 16.5001 20.8737 16.5 20.7499V4.25004C16.4984 4.12534 16.466 4.00295 16.4058 3.89371C16.3457 3.78447 16.2595 3.69173 16.1549 3.6237L20.6662 6.6238C20.7687 6.69293 20.8528 6.78614 20.911 6.89529C20.9692 7.00443 20.9998 7.12618 21.0001 7.24986Z" fill="#C084FC"/>
<path opacity="0.4" d="M21.0001 7.24986V17.75C21.0002 17.8739 20.9698 17.9957 20.9115 18.1049C20.8533 18.2141 20.769 18.3073 20.6662 18.3762L16.1661 21.3762C16.2691 21.3073 16.3533 21.2141 16.4115 21.1049C16.4697 20.9956 16.5001 20.8737 16.5 20.7499V4.25004C16.4984 4.12534 16.466 4.00295 16.4058 3.89371C16.3457 3.78447 16.2595 3.69173 16.1549 3.6237L20.6662 6.6238C20.7687 6.69293 20.8528 6.78614 20.911 6.89529C20.9692 7.00443 20.9998 7.12618 21.0001 7.24986Z" fill="#7E22CE"/>
</svg>
