<svg width="24" height="24" viewBox="0 0 24 24" fill="none" xmlns="http://www.w3.org/2000/svg">
<path d="M12 2.44312C9.46536 2.44312 7.03453 3.45 5.24226 5.24226C3.45 7.03453 2.44312 9.46536 2.44312 12V20.2113C2.44312 20.9569 3.04311 21.5571 3.78889 21.5571H11.9996C11.9998 21.5571 12 21.5571 12.0002 21.5571C13.2553 21.5571 14.498 21.3099 15.6575 20.8296C16.8171 20.3493 17.8706 19.6454 18.758 18.7579C19.6455 17.8704 20.3494 16.8169 20.8297 15.6573C21.31 14.4978 21.5571 13.2551 21.5571 12C21.5571 10.745 21.3099 9.50224 20.8296 8.34276C20.3492 7.18327 19.6453 6.12975 18.7578 5.24233C17.8703 4.35491 16.8168 3.65098 15.6573 3.17073C14.4978 2.69048 13.255 2.44309 12 2.44312ZM12 4.96512C13.8658 4.96512 15.6551 5.70629 16.9744 7.02559C18.2937 8.34488 19.0349 10.1342 19.0349 12C19.0349 13.8658 18.2937 15.6551 16.9744 16.9744C15.6551 18.2937 13.8658 19.0349 12 19.0349C10.1342 19.0349 8.34488 18.2937 7.02559 16.9744C5.70629 15.6551 4.96512 13.8658 4.96512 12C4.96512 10.1342 5.70629 8.34488 7.02559 7.02559C8.34488 5.70629 10.1342 4.96512 12 4.96512Z" fill="#14B8A6"/>
</svg>
