<svg width="24" height="24" viewBox="0 0 24 24" fill="none" xmlns="http://www.w3.org/2000/svg">
<path fill-rule="evenodd" clip-rule="evenodd" d="M17.9638 12.8668L18.7574 14.9635L20.1418 12.8668H17.9638ZM17.8194 8.33341V12.2106H20.1686L17.8194 8.33341ZM17.0766 10.5226V7.39071H15.8915L17.0766 10.5226ZM14.492 3.69406L15.6428 6.73406H16.8504L14.8906 3.49968L14.5939 3.64403L14.492 3.6935L14.492 3.69406ZM12.8743 20.5795H14.6358L13.9712 19.4965L13.7509 19.7078C13.4715 20.0082 13.1791 20.2991 12.8743 20.5795ZM12.0118 19.592L12.0418 13.2759C11.7742 13.4154 11.5129 13.5643 11.2587 13.7223C11.2887 14.5022 11.4303 17.1582 12.0116 19.5919L12.0118 19.592ZM10.002 14.5894C10.0288 15.0889 10.1967 16.8822 11.2416 18.8346C10.8647 16.9227 10.7278 15.029 10.68 14.0982C10.4486 14.256 10.2225 14.4198 10.002 14.5894ZM9.35892 20.5795H11.1922L11.0522 20.4341C10.708 20.1094 10.3806 19.7711 10.071 19.4202L9.35892 20.5791L9.35892 20.5795ZM8.7727 15.674C8.83876 16.0262 9.35441 17.3546 10.6358 18.9358C9.79197 17.3174 9.52428 15.8361 9.44042 15.0467C9.2076 15.2471 8.98496 15.4564 8.7727 15.674ZM9.69912 12.4173V13.9196C9.997 13.692 10.3082 13.4785 10.6313 13.2797C11.4533 12.7415 11.7877 12.631 11.9988 12.619H11.9975V12.4173L9.69912 12.4173ZM3.8532 12.867L5.33323 15.1078L6.35189 12.867H3.8532ZM6.53016 9.30892L3.96768 12.2103H6.53016V9.30892ZM7.27339 8.46812V10.8409L9.0756 6.87547L8.83471 6.7L7.27296 8.46815L7.27339 8.46812ZM19.2475 15.5243H20.7397L21.1112 15.8528V20.9076L20.7397 21.2364H3.255L2.88391 20.9083V15.8532L3.255 15.5247H4.7479L2.88542 12.7052L2.91309 12.3373L8.48373 6.03088L8.98972 5.98141L8.99895 5.9702L11.5017 7.63014L11.0562 8.15576L9.70289 7.25777L5.80769 15.8269L8.72249 20.2392L9.58541 18.8347C8.12362 16.9572 8.01723 15.6641 8.01185 15.5912L8.09894 15.3601C8.37132 15.0737 8.65722 14.7976 8.95586 14.5325V12.0894L9.32779 11.7609H14.6671L15.0386 12.0894V14.4564C15.3689 14.7447 15.6838 15.0465 15.9824 15.3607L16.069 15.5915C16.0645 15.6655 15.9553 16.9861 14.4474 18.897L15.2726 20.2394L18.2591 15.7183L13.8314 4.01671L12.6169 4.60938L12.2585 4.03429L14.8603 2.7645L15.3674 2.89725L21.1164 12.3844" fill="#60A5FA"/>
</svg>
