<svg width="24" height="25" viewBox="0 0 24 25" fill="none" xmlns="http://www.w3.org/2000/svg">
<path fill-rule="evenodd" clip-rule="evenodd" d="M6.21524 20.1509C6.06369 20.1323 5.91213 20.0533 5.76058 19.9742C5.69292 19.9389 5.63518 19.9001 5.58734 19.8579C5.39018 19.6841 5.3613 19.4516 5.50072 19.1607C5.50072 19.1155 5.52237 19.0703 5.54403 19.0251C5.56568 18.9799 5.58734 18.9347 5.58734 18.8895C5.24086 18.8895 5.06761 18.7088 4.98099 18.4376C4.54789 17.2626 4.63451 16.3587 5.50072 15.4548C5.52393 15.4064 5.54714 15.3645 5.56868 15.3255C5.62754 15.2191 5.67396 15.1352 5.67396 15.0029C5.67396 13.8279 5.8472 12.7432 6.62679 11.749C6.88665 11.3874 7.23313 11.0259 7.66624 10.7547C7.83948 10.6643 7.83948 10.5739 7.75286 10.3932C7.40637 9.94124 7.23313 9.4893 7.14651 8.94698C7.07722 8.58544 7.22967 8.22389 7.38212 7.86234C7.42023 7.77195 7.45835 7.68157 7.493 7.59118C7.57962 7.50079 7.66624 7.41041 7.75286 7.41041C8.00708 7.34409 8.21467 7.18045 8.40984 7.0266C8.48067 6.97077 8.54987 6.91622 8.61906 6.86808C9.22541 6.23538 9.91838 5.96422 10.7846 5.96422C10.9526 5.96422 11.0392 5.87915 11.0442 5.79155C11.0444 5.78885 11.0444 5.78614 11.0444 5.78344C11.0527 5.74901 11.0617 5.71458 11.0716 5.68014C11.1176 5.5186 11.181 5.35706 11.2617 5.19552C11.3245 5.06963 11.3979 4.94375 11.4817 4.81786C11.5082 4.77817 11.5356 4.73849 11.5642 4.6988L11.824 4.42764C11.9567 4.2892 12.1402 4.25678 12.2577 4.37096C12.2598 4.37297 12.2618 4.37503 12.2639 4.37714C12.2971 4.41154 12.3246 4.45818 12.3438 4.51803C12.5213 4.82687 12.6585 5.13571 12.7828 5.4157C12.7862 5.42342 12.7896 5.43111 12.793 5.43878C12.8469 5.56009 12.8985 5.67577 12.9501 5.78344C12.9509 5.78509 12.9517 5.78672 12.9525 5.78834C12.9535 5.79051 12.9546 5.79264 12.9556 5.79475C13.0404 5.96417 13.1252 5.96229 13.21 5.87383C13.5175 5.73629 13.6691 5.66852 13.7664 5.71768C13.8609 5.76544 13.9042 5.92358 13.9896 6.23538C14.0328 6.42479 14.0691 6.6133 14.0984 6.80091C14.1286 6.99425 14.1515 7.18663 14.1667 7.37806C14.2853 8.86237 13.9522 10.2892 13.1233 11.6586C13.08 11.749 13.0151 11.8394 12.9501 11.9298C12.8851 12.0201 12.8202 12.1105 12.7769 12.2009C12.6902 12.3817 12.6902 12.4721 12.8635 12.6528C13.6431 13.3759 14.1628 14.3702 14.336 15.4548C14.3557 15.5983 14.3709 15.7465 14.3816 15.8972C14.3832 15.919 14.3846 15.941 14.386 15.9629C14.4062 16.2871 14.406 16.6216 14.3853 16.9455C14.3834 16.9757 14.3813 17.0057 14.3791 17.0357C14.3685 17.1744 14.3542 17.3109 14.336 17.4433C14.3145 17.5333 14.3037 17.6009 14.3036 17.6503C14.3032 17.7993 14.4007 17.7824 14.5959 17.7145C14.7114 17.6801 14.8269 17.6424 14.9418 17.6014C14.9855 17.5858 15.0291 17.5697 15.0726 17.5532C15.2773 17.4753 15.4794 17.387 15.6753 17.2881C15.6891 17.2812 15.7027 17.2742 15.7164 17.2672C15.795 17.2267 15.8727 17.1846 15.949 17.1407C16.0031 17.1097 16.0566 17.0777 16.1094 17.045C16.1838 16.9987 16.2569 16.9507 16.3283 16.901C16.4026 16.8567 16.4757 16.8124 16.5479 16.7686C16.9166 16.5448 17.2639 16.334 17.6536 16.2028C17.81 16.1501 17.9732 16.1103 18.1473 16.0875C18.2374 16.0875 18.3171 16.0767 18.3936 16.0663C18.4144 16.0634 18.435 16.0606 18.4555 16.0581C18.506 16.0518 18.5559 16.0471 18.6074 16.0474C18.6798 16.0478 18.7555 16.058 18.8403 16.0875C19.1002 16.1779 19.2734 16.4491 19.2734 16.7203C19.2734 16.9914 19.1002 17.1722 18.8403 17.2626C18.7016 17.2915 18.5651 17.3274 18.4308 17.3696C18.3889 17.3827 18.3473 17.3964 18.3059 17.4107C18.2527 17.4291 18.1998 17.4485 18.1473 17.4687C18.0674 17.4995 17.9884 17.5325 17.9101 17.5674C17.6133 17.6997 17.3284 17.8599 17.0553 18.0389C17.0298 18.0556 17.0044 18.0725 16.9792 18.0895C16.8156 18.1997 16.6564 18.3164 16.5016 18.4376C16.0638 18.7574 15.5818 19.0309 15.0891 19.2584C15.0682 19.268 15.0473 19.2775 15.0265 19.287C14.7997 19.3897 14.5711 19.4826 14.3437 19.5658C14.1075 19.6521 13.8728 19.728 13.6431 19.7934C13.5564 19.7934 13.3832 19.8838 13.2966 19.9742C13.0256 20.1862 12.7547 20.2325 12.4423 20.2857C12.3553 20.3006 12.2649 20.316 12.1705 20.3357C12.0968 20.3427 12.0236 20.3497 11.9508 20.3567C11.0831 20.4396 10.2777 20.5165 9.39865 20.5165C9.33737 20.5165 9.27609 20.5165 9.21367 20.5153C9.18967 20.5357 9.16618 20.5537 9.1437 20.5694L9.13877 20.5617C9.14744 20.5458 9.15597 20.53 9.16435 20.5141C9.14538 20.5136 9.12628 20.5128 9.10703 20.512C8.9355 20.5042 8.75124 20.4832 8.53244 20.4261C8.46399 20.4023 8.39554 20.3722 8.33025 20.3359C8.27977 20.3078 8.23119 20.2759 8.18596 20.2403C8.12016 20.1885 8.06147 20.1288 8.01439 20.0611C7.97679 20.0071 7.94659 19.948 7.9261 19.8838C7.86423 19.6255 7.89074 19.4134 8.00565 19.2474C8.01226 19.2378 8.01916 19.2284 8.02636 19.2192C8.06919 19.1642 8.12239 19.1145 8.18596 19.0703C8.27674 19.0703 8.34373 19.0455 8.3994 19.0219C8.40597 19.0191 8.41238 19.0163 8.41865 19.0136C8.46068 18.9954 8.49656 18.9799 8.53244 18.9799C8.40562 18.9138 8.32522 18.8476 8.25726 18.746C8.23238 18.7088 8.20917 18.6668 8.18596 18.6184C8.09934 18.528 8.09934 18.528 8.01272 18.6184C7.99486 18.6557 7.98068 18.6929 7.96867 18.7302C7.96847 18.7308 7.96827 18.7314 7.96807 18.7321C7.95125 18.7846 7.93867 18.837 7.9261 18.8895C7.90444 18.9799 7.88279 19.0703 7.83948 19.1607C7.71563 19.5915 7.55244 19.8785 7.32177 20.0414C7.29144 20.0629 7.25993 20.0821 7.2272 20.0993C7.1984 20.1144 7.16865 20.1279 7.1379 20.1398C7.00676 20.1905 6.8575 20.2122 6.68674 20.2071C6.56298 20.2034 6.42793 20.1858 6.2803 20.155C6.25862 20.155 6.23693 20.1535 6.21524 20.1509ZM6.05851 21.9445C5.54193 21.889 5.12247 21.659 5.01005 21.5973C5.00066 21.5922 4.99341 21.5882 4.98843 21.5856C4.57714 21.371 4.03696 20.9537 3.79777 20.205C3.74579 20.0422 3.71418 19.8831 3.69866 19.7293C3.53456 19.4977 3.42797 19.2599 3.35811 19.0533C3.08584 18.3048 2.90878 17.4568 3.04947 16.5551C3.16974 15.7841 3.49831 15.1224 3.95549 14.5505C4.00215 13.3034 4.2702 11.9251 5.26761 10.6375C5.38578 10.4752 5.5182 10.3105 5.66538 10.1481C5.56716 9.86153 5.49656 9.56829 5.44721 9.26658C5.32699 8.59526 5.47592 8.02193 5.59266 7.6739C5.65365 7.49206 5.72227 7.32607 5.77177 7.20799C5.78525 7.17584 5.79727 7.14732 5.80815 7.12149C5.84363 7.03726 5.86706 6.98167 5.8899 6.92206C5.97675 6.69552 6.10678 6.48975 6.27212 6.31722C6.27359 6.31568 6.27563 6.31353 6.27821 6.31081C6.31195 6.27519 6.43773 6.14238 6.58697 6.02558C6.68584 5.94821 6.91669 5.77755 7.25141 5.6803C7.28231 5.65739 7.31835 5.62903 7.38237 5.57858L7.38584 5.57585C7.4197 5.54917 7.46474 5.51368 7.51642 5.47455C8.19034 4.81425 8.95215 4.42445 9.78441 4.25808C9.90249 4.03484 10.0366 3.8214 10.1829 3.61781C10.2319 3.54961 10.2855 3.48512 10.3433 3.42484L10.6032 3.15368C10.9701 2.77079 11.5731 2.42763 12.307 2.51273C13.0589 2.5999 13.6118 3.09639 13.8877 3.70412C13.9273 3.77651 13.9666 3.85115 14.0049 3.92636C14.1506 3.95122 14.3052 3.9959 14.4634 4.06928C15.1481 4.38684 15.4033 5.00471 15.4737 5.18089C15.5486 5.36859 15.6078 5.58634 15.641 5.70848C15.6441 5.72001 15.647 5.7307 15.6497 5.74042C15.6567 5.76615 15.6632 5.79205 15.6692 5.81808C16.1737 8.02911 15.9143 10.1925 14.8173 12.2126C15.4178 13.031 15.8279 13.9906 16.0134 15.0084C16.4994 14.726 17.1581 14.4009 17.9332 14.2998C17.996 14.2916 18.0592 14.287 18.1224 14.2861C18.1231 14.286 18.1238 14.2859 18.1246 14.2858C18.1361 14.2844 18.1454 14.2831 18.1626 14.2808C18.1701 14.2798 18.179 14.2785 18.1903 14.277C18.2208 14.2729 18.2686 14.2665 18.322 14.2609C18.5708 14.235 18.945 14.2248 19.3863 14.3784C20.388 14.7268 21 15.7149 21 16.7203C21 18.0275 20.0811 18.7301 19.3863 18.9718C19.3184 18.9954 19.2491 19.0146 19.1789 19.0292C18.656 19.1384 18.1135 19.4281 17.5375 19.8789C17.5224 19.8907 17.5071 19.9023 17.4917 19.9136C16.4679 20.6614 15.29 21.1778 14.2269 21.4939C13.557 21.9654 12.7513 22.0703 12.5518 22.0963C12.53 22.0992 12.5155 22.1011 12.5091 22.1024C12.4489 22.115 12.388 22.1242 12.3268 22.13C12.2507 22.1372 12.1743 22.1445 12.0978 22.1518C11.2418 22.2338 10.3604 22.3182 9.39865 22.3182L9.37858 22.3182C9.10205 22.3182 8.66728 22.3184 8.11369 22.174C8.07082 22.1628 8.02837 22.1499 7.98645 22.1353C7.84858 22.0874 7.67647 22.0149 7.49329 21.9105C6.97482 22.0535 6.46968 22.0196 6.05851 21.9445ZM9.08672 20.6749C9.0886 20.6741 9.08821 20.6743 9.08598 20.6753L9.08672 20.6749ZM14.4852 4.95816C14.4885 4.96526 14.4916 4.97179 14.4944 4.97772L14.4944 4.97761C14.4939 4.97667 14.491 4.96985 14.4852 4.95816ZM7.20451 5.71299C7.20452 5.71297 7.20532 5.71247 7.20689 5.71157C7.20528 5.71257 7.2045 5.71302 7.20451 5.71299ZM6.8834 9.1489C6.88695 9.14701 6.89052 9.14514 6.89409 9.14328L6.89295 9.14387C6.89071 9.14503 6.8875 9.14671 6.8834 9.1489Z" fill="#60A5FA"/>
</svg>
