<svg width="24" height="24" viewBox="0 0 24 24" fill="none" xmlns="http://www.w3.org/2000/svg">
<path d="M3.24387 12.4752C2.8125 12.3104 2.81601 11.6989 3.24924 11.5391L4.64561 11.0239C4.80429 10.9653 4.92056 10.8296 4.96885 10.6675C5.24044 9.75592 5.74172 9.22922 5.76885 9.20118C5.7698 9.2002 5.77049 9.19952 5.77145 9.19855C6.52066 8.45043 7.53617 8.0302 8.595 8.0302C9.65451 8.0302 10.6707 8.45097 11.42 9.2L12.4657 10.2457C12.6651 10.4451 12.9899 10.4402 13.1832 10.2349L18.5124 4.57645C18.7835 4.28853 19.2616 4.41615 19.3287 4.80592C19.9073 8.16659 19.036 11.482 17.0727 14.2425C16.926 14.4487 16.9469 14.7324 17.1288 14.9084L21.3338 18.9756C21.6198 19.2522 21.4852 19.7233 21.0921 19.7849C18.7758 20.1478 12.5511 20.7555 8.6 17.67C6.13514 15.7394 5.46214 14.5641 5.08275 13.3869C5.03486 13.2383 4.92438 13.1173 4.77852 13.0616L3.24387 12.4752ZM7.04 12.21C7.41 12.58 8.02 12.58 8.39 12.21C8.76 11.84 8.76 11.24 8.39 10.87C8.21029 10.6923 7.96774 10.5926 7.715 10.5926C7.46226 10.5926 7.21972 10.6923 7.04 10.87C6.67 11.24 6.67 11.84 7.04 12.21Z" fill="#60A5FA"/>
</svg>
