<svg width="24" height="24" viewBox="0 0 24 24" fill="none" xmlns="http://www.w3.org/2000/svg">
<path fill-rule="evenodd" clip-rule="evenodd" d="M10.1277 1.73761C3.3514 2.93924 -0.407001 10.414 2.63685 16.6352C6.44206 24.412 17.7069 24.3479 21.4039 16.5293C25.0346 8.85155 18.4819 0.256396 10.1277 1.73798M11.0085 5.24048C14.872 6.01623 18.8576 7.22494 18.998 7.66363C19.3867 8.87588 19.3813 14.9366 18.9909 15.6748C18.8927 15.8603 17.1783 15.6561 15.8701 15.3032L15.3449 15.1615L15.3428 14.5071C15.3365 12.5438 15.1368 10.6855 14.9076 10.4559C14.6444 10.1923 12.9411 9.63954 10.3308 8.9708L8.67068 8.54544L8.64879 8.14467C8.59959 7.24567 8.82425 5.22032 8.99691 5.00574C9.09192 4.88769 9.46979 4.93182 11.0084 5.24074M6.04157 8.08648C6.79241 8.18505 7.66667 8.3542 8.27965 8.51955L8.54769 8.59186L8.59335 10.0684C8.67879 12.834 8.76751 13.2625 9.30389 13.5021C9.97637 13.8025 12.4287 14.5215 14.7353 15.0945L15.2435 15.2207L15.2287 16.1997C15.212 17.3027 15.1054 18.2901 14.9667 18.6261L14.8735 18.8518L14.4825 18.8062C13.0188 18.6356 8.22063 17.4611 6.13211 16.7621C5.21552 16.4553 4.99361 16.3366 4.91498 16.1107C4.56977 15.1187 4.57128 8.75179 4.91691 8.10477C4.99699 7.95484 5.03626 7.95421 6.04188 8.08622" fill="#F59E0B"/>
</svg>
