<svg width="24" height="24" viewBox="0 0 24 24" fill="none" xmlns="http://www.w3.org/2000/svg">
<path d="M18.733 19.499C17.903 20.739 17.023 21.949 15.683 21.969C14.343 21.999 13.913 21.179 12.393 21.179C10.863 21.179 10.393 21.949 9.12298 21.999C7.81298 22.049 6.82298 20.679 5.98298 19.469C4.27298 16.999 2.96298 12.449 4.72298 9.38899C5.59298 7.86899 7.15298 6.90899 8.84298 6.87899C10.123 6.85899 11.343 7.74899 12.133 7.74899C12.913 7.74899 14.393 6.67899 15.943 6.83899C16.593 6.86899 18.413 7.09899 19.583 8.81899C19.493 8.87899 17.413 10.099 17.433 12.629C17.463 15.649 20.083 16.659 20.113 16.669C20.083 16.739 19.693 18.109 18.733 19.499ZM13.023 3.49899C13.753 2.66899 14.963 2.03899 15.963 1.99899C16.093 3.16899 15.623 4.34899 14.923 5.18899C14.233 6.03899 13.093 6.69899 11.973 6.60899C11.823 5.45899 12.383 4.25899 13.023 3.49899Z" fill="#78909C"/>
</svg>
