<svg width="24" height="24" viewBox="0 0 24 24" fill="none" xmlns="http://www.w3.org/2000/svg">
<path fill-rule="evenodd" clip-rule="evenodd" d="M11.9668 1.62714C17.7407 1.62714 22.373 6.2597 22.373 11.9668C22.3775 13.3346 22.1113 14.6898 21.59 15.9544C21.0686 17.2189 20.3022 18.3679 19.3351 19.3351C18.3679 20.3022 17.2189 21.0686 15.9544 21.59C14.6898 22.1113 13.3346 22.3775 11.9668 22.373C6.25998 22.373 1.62714 17.7404 1.62714 11.9668C1.62714 6.25998 6.2597 1.62714 11.9668 1.62714ZM14.518 13.9806C13.3767 15.4577 11.2954 15.7262 9.88548 14.5849C8.47557 13.5106 8.2742 11.4293 9.41551 9.95232C10.624 8.54242 12.7053 8.27382 14.1153 9.3481C15.5252 10.4894 15.7266 12.5708 14.5181 13.9807L14.518 13.9806ZM9.01276 20.7616L12.9739 16.9347C11.4968 17.2704 9.95261 17.0019 8.74417 15.9948C7.33426 14.9205 6.73004 13.1078 6.93142 11.4293L3.37314 15.3234C3.37314 15.3234 2.90317 14.4506 2.76882 12.8393L9.01276 7.9382C10.8926 6.59542 13.4439 6.5282 15.2567 7.9382C17.2708 9.54948 17.6737 12.5036 16.1967 14.7191L11.6312 21.2316C10.9599 21.2316 9.61707 21.0301 9.01276 20.7616Z" fill="#00B3E0"/>
</svg>
