<svg width="24" height="24" viewBox="0 0 24 24" fill="none" xmlns="http://www.w3.org/2000/svg">
<path d="M13.158 2.24053C13.0289 2.23975 12.901 2.26491 12.7818 2.31451C12.599 2.38982 12.4438 2.51971 12.3375 2.68647C12.295 2.74583 12.2585 2.81088 12.2292 2.88138L8.72387 11.3531C8.64653 11.54 8.46416 11.6619 8.26186 11.6619H5.09264C4.55849 11.6619 4.12835 12.0921 4.12835 12.6262C4.12807 12.7529 4.15282 12.8785 4.20118 12.9956C4.24954 13.1127 4.32056 13.2191 4.41016 13.3087C4.49975 13.3983 4.60617 13.4693 4.72329 13.5177C4.84041 13.566 4.96593 13.5908 5.09264 13.5905H7.79761C7.79788 13.5905 7.79805 13.5908 7.79794 13.591C7.79783 13.5913 7.798 13.5915 7.79827 13.5915H9.88423C9.8846 13.5915 9.88493 13.5913 9.88507 13.591C9.88521 13.5907 9.88554 13.5904 9.88591 13.5904H11.9739C12.508 13.5904 12.9381 13.1605 12.9381 12.6262C12.9381 12.0921 12.5081 11.6619 11.9738 11.6619H11.4311C11.0748 11.6619 10.8328 11.3 10.9691 10.9708L12.6827 6.82966C12.8531 6.4179 13.4363 6.4179 13.6067 6.82967L19.5197 21.1196C19.5678 21.2368 19.6387 21.3433 19.7282 21.433C19.8176 21.5228 19.9239 21.5939 20.041 21.6425C20.158 21.691 20.2835 21.7159 20.4102 21.7158C20.5369 21.7157 20.6623 21.6906 20.7793 21.6419C20.8965 21.5937 21.003 21.5229 21.0927 21.4334C21.1824 21.3439 21.2536 21.2376 21.3021 21.1206C21.3506 21.0035 21.3755 20.8781 21.3755 20.7514C21.3754 20.6247 21.3502 20.4992 21.3015 20.3823L14.0415 2.83688C13.9694 2.66152 13.847 2.51136 13.6899 2.40528C13.5327 2.29919 13.3476 2.24182 13.158 2.24053ZM3.58946 15.2987C3.46275 15.2985 3.33724 15.3232 3.22013 15.3716C3.10302 15.4199 2.99661 15.491 2.90702 15.5806C2.81743 15.6702 2.74642 15.7766 2.69807 15.8937C2.64971 16.0108 2.62497 16.1363 2.62525 16.263C2.62525 16.7972 3.05522 17.2273 3.58946 17.2273H5.54542C5.90168 17.2273 6.14364 17.5893 6.00744 17.9185L4.96934 20.4274C4.92064 20.5444 4.89553 20.6698 4.89545 20.7965C4.89536 20.9232 4.92031 21.0486 4.96885 21.1656C5.01738 21.2827 5.08856 21.3889 5.17829 21.4784C5.26802 21.5678 5.37453 21.6387 5.49171 21.6868C5.60865 21.7355 5.73407 21.7607 5.86075 21.7608C5.98744 21.7609 6.1129 21.736 6.22993 21.6875C6.34695 21.6389 6.45324 21.5678 6.54269 21.4781C6.63213 21.3884 6.70297 21.2819 6.75113 21.1647L8.25267 17.536C8.33002 17.3491 8.51239 17.2272 8.71468 17.2272H10.4707C10.5974 17.2275 10.7229 17.2027 10.84 17.1544C10.9571 17.106 11.0635 17.035 11.1531 16.9454C11.2427 16.8558 11.3137 16.7494 11.3621 16.6323C11.4104 16.5152 11.4352 16.3896 11.4349 16.2629C11.4349 15.7287 11.0049 15.2986 10.4707 15.2986L3.58946 15.2987Z" fill="#F87171"/>
</svg>
