<svg width="24" height="25" viewBox="0 0 24 25" fill="none" xmlns="http://www.w3.org/2000/svg">
<path fill-rule="evenodd" clip-rule="evenodd" d="M5.16532 14.4152C4.89711 15.3096 4.76386 15.7563 4.79653 16.1806C4.82747 16.5547 4.94955 16.9144 5.15157 17.2256C5.38024 17.5773 5.75334 17.8374 6.50125 18.3568L9.80151 20.6533C10.4678 21.1161 10.8013 21.3485 11.1615 21.4391C11.4796 21.5198 11.8123 21.5198 12.1312 21.4418C12.4923 21.3521 12.8275 21.1215 13.4964 20.6613L16.8327 18.3604C17.5875 17.8392 17.9658 17.58 18.1979 17.2248C18.4013 16.9122 18.5233 16.55 18.5521 16.1734C18.5856 15.7455 18.4472 15.2961 18.1738 14.3955L15.251 4.79709C15.1091 4.33063 15.0386 4.09829 14.9028 3.92516C14.7831 3.77307 14.6284 3.65517 14.4532 3.58249C14.2555 3.49996 14.0216 3.49996 13.5531 3.49996H9.74392C9.27368 3.49996 9.03727 3.49996 8.83869 3.58428C8.66283 3.65713 8.50776 3.77571 8.38822 3.92875C8.25239 4.10278 8.18276 4.3369 8.04349 4.80516L5.16532 14.4161V14.4152ZM13.7018 5.53715C13.8136 5.68247 13.872 5.88072 13.9864 6.27273L16.4958 14.8736C15.5531 14.3636 14.5414 14.0067 13.4955 13.8151L11.8621 8.05336C11.8487 8.00791 11.8217 7.96815 11.785 7.9399C11.7484 7.91166 11.704 7.89642 11.6584 7.89642C11.6128 7.89642 11.5684 7.91166 11.5318 7.9399C11.4951 7.96815 11.4681 8.00791 11.4547 8.05336L9.8402 13.8106C8.78968 14.0018 7.77348 14.36 6.82706 14.8727L9.34933 6.27183C9.46366 5.87803 9.52126 5.68158 9.63388 5.53625C9.7336 5.40798 9.86341 5.3084 10.0096 5.24651C10.1763 5.17654 10.3732 5.17654 10.7669 5.17654H12.5679C12.9617 5.17654 13.1594 5.17654 13.3262 5.24651C13.4723 5.3084 13.6012 5.40798 13.7018 5.53715ZM11.7564 15.9043C12.7072 15.9043 13.5333 15.6531 13.9468 15.2835C14.0203 15.5249 14.0464 15.7793 14.0235 16.0315C14.0006 16.2837 13.9292 16.5284 13.8136 16.7511C13.5488 17.2624 13.1645 17.5163 12.8181 17.745C12.3831 18.033 12.0091 18.2815 12.0091 18.9471C12.0091 19.1669 12.0573 19.3768 12.1441 19.5625C11.8511 19.4354 11.6008 19.2206 11.4247 18.9452C11.2486 18.6698 11.1546 18.3461 11.1546 18.015V17.9738C11.1546 17.5145 11.1555 16.9485 10.534 16.9485C10.4476 16.9483 10.362 16.966 10.2822 17.0004C10.2024 17.0347 10.1298 17.0852 10.0687 17.1488C10.0075 17.2125 9.95899 17.288 9.92583 17.3713C9.89268 17.4545 9.87556 17.5437 9.87545 17.6338C9.17739 16.9045 9.23843 15.855 9.23843 15.855C9.23843 15.6406 9.25906 15.3069 9.35105 15.0153C9.61067 15.5249 10.589 15.9034 11.7564 15.9034V15.9043Z" fill="#EA580C"/>
</svg>
