<svg width="24" height="24" viewBox="0 0 24 24" fill="none" xmlns="http://www.w3.org/2000/svg">
<path d="M2.98441 16.5083H4.3369V19.6639H7.49255V21.0164H2.98441V16.5083Z" fill="#64B5F6"/>
<path d="M2.98441 8.2438V12.3766L5.61354 15.0839L6.74072 13.8791L10.1217 17.2601L8.99507 18.3867L11.6248 21.0158H15.7576C16.172 21.0158 16.5083 20.6795 16.5083 20.2646V14.2545L9.74633 7.49254H3.73623C3.32069 7.49254 2.98441 7.82882 2.98441 8.2438Z" fill="#1565C0"/>
<path d="M6.23742 13.8299C6.1147 13.7069 6.03834 13.5453 6.02131 13.3724C6.00428 13.1995 6.04764 13.0261 6.14401 12.8816L12.3053 3.65301C12.4424 3.44735 12.6282 3.27872 12.8462 3.16209C13.0641 3.04545 13.3075 2.98442 13.5547 2.98441H20.264C20.679 2.98441 21.0153 3.32069 21.0153 3.73567V10.4449C21.0153 10.9471 20.765 11.4159 20.3472 11.695L11.1186 17.8562C10.974 17.9527 10.8004 17.996 10.6274 17.9789C10.4544 17.9618 10.2927 17.8852 10.1698 17.7623L6.23742 13.8299Z" fill="#1E88E5"/>
<path d="M6.73183 16.1574L12.4682 10.4211L13.5789 11.5319L7.84258 17.2682L6.73183 16.1574Z" fill="#0A44C2"/>
<path d="M6.73166 16.1573L12.4677 10.4212L13.5785 11.5319L7.84242 17.268L6.73166 16.1573Z" fill="#64B5F6"/>
<path d="M8.75956 16.3514L7.6488 15.2407L12.4683 10.4212L13.5791 11.5319L8.75956 16.3514Z" fill="#42A5F5"/>
<path d="M16.5082 9.74629C17.106 9.74623 17.6793 9.50868 18.102 9.08589C18.5247 8.66311 18.7622 8.08972 18.7621 7.49187C18.7621 6.89403 18.5245 6.32069 18.1017 5.89799C17.6789 5.47529 17.1056 5.23786 16.5077 5.23792C16.2117 5.23794 15.9186 5.29628 15.6451 5.40959C15.3716 5.5229 15.1231 5.68897 14.9138 5.89831C14.7045 6.10765 14.5385 6.35617 14.4253 6.62967C14.312 6.90317 14.2537 7.1963 14.2538 7.49233C14.2538 7.78835 14.3121 8.08147 14.4254 8.35495C14.5387 8.62843 14.7048 8.87691 14.9141 9.08621C15.3369 9.50891 15.9103 9.74635 16.5082 9.74629Z" fill="#0A44C2"/>
<path d="M16.5083 9.74634C16.8073 9.75108 17.1042 9.69628 17.3819 9.58513C17.6595 9.47398 17.9122 9.3087 18.1254 9.09892C18.3385 8.88914 18.5078 8.63905 18.6233 8.36322C18.7388 8.08738 18.7983 7.79132 18.7983 7.49227C18.7983 7.19322 18.7388 6.89715 18.6233 6.62132C18.5078 6.34549 18.3385 6.0954 18.1254 5.88562C17.9122 5.67584 17.6595 5.51056 17.3819 5.39941C17.1042 5.28826 16.8073 5.23346 16.5083 5.2382C15.9166 5.24757 15.3524 5.48918 14.9373 5.91088C14.5223 6.33258 14.2896 6.90056 14.2896 7.49227C14.2896 8.08397 14.5223 8.65196 14.9373 9.07366C15.3524 9.49536 15.9166 9.73696 16.5083 9.74634Z" fill="#90CAF9"/>
</svg>
