<svg width="24" height="24" viewBox="0 0 24 24" fill="none" xmlns="http://www.w3.org/2000/svg">
<path d="M7.19489 2.38983L12 7.19489L7.19489 12L2.38983 7.19489L7.19489 2.38983Z" fill="#81C784"/>
<path d="M2.38983 7.19489V12L7.19489 16.805V12L2.38983 7.19489Z" fill="#43A047"/>
<path d="M16.805 2.38983L21.6101 7.19489L16.805 12L12 7.19489L16.805 2.38983Z" fill="#81C784"/>
<path d="M21.6101 7.19489V12L16.805 16.805V12L21.6101 7.19489ZM12 7.19489L16.805 12L12 16.805L7.19489 12L12 7.19489Z" fill="#43A047"/>
<path d="M12 16.805V21.6101L7.19489 16.805V12L12 16.805Z" fill="#2E7D32"/>
<path d="M12 16.805L16.805 12V16.805L12 21.6101V16.805Z" fill="#1B5E20"/>
</svg>
