<svg width="24" height="25" viewBox="0 0 24 25" fill="none" xmlns="http://www.w3.org/2000/svg">
<path d="M19.8708 8.85825C19.8303 8.81521 19.7873 8.77217 19.7442 8.73167C19.7012 8.69116 19.6607 8.64559 19.6177 8.60508C19.5746 8.56458 19.5341 8.51901 19.4911 8.4785C19.448 8.43799 19.4075 8.39242 19.3645 8.35192C19.3215 8.31141 19.281 8.26584 19.2379 8.22533C19.1949 8.18483 19.1544 8.13926 19.1113 8.09875C19.0683 8.05824 19.0278 8.01267 18.9848 7.97217C20.2405 9.20628 20.9599 10.8852 20.9873 12.6456C20.9873 16.8406 16.729 20.2533 11.4936 20.2533C8.56193 20.2533 5.93913 19.1824 4.19482 17.5039L4.32141 17.6305L4.44799 17.757L4.57457 17.8836L4.70116 18.0102L4.82774 18.1368L4.95432 18.2634L5.0809 18.39C6.82268 20.1393 9.50371 21.2659 12.5062 21.2659C17.7417 21.2659 22 17.8532 22 13.6709C22 11.8836 21.2303 10.1899 19.8708 8.85825Z" fill="black"/>
<path d="M20.3544 12.6456C20.3544 16.4963 16.3873 19.6178 11.4936 19.6178C6.59992 19.6178 2.63281 16.4963 2.63281 12.6456C2.63281 10.2582 4.15181 8.14937 6.48599 6.89873C8.82018 5.64809 10.2733 4.36707 11.4936 4.36707C12.7139 4.36707 13.7569 5.41264 16.5012 6.89873C18.8354 8.14937 20.3544 10.2582 20.3544 12.6456Z" fill="#FBF0DF"/>
<path d="M20.3546 12.6456C20.3534 12.1509 20.2852 11.6587 20.1521 11.1823C19.4609 19.6127 9.17733 20.0177 5.13428 17.4962C6.95176 18.9049 9.19457 19.6531 11.4938 19.6177C16.3799 19.6177 20.3546 16.4911 20.3546 12.6456Z" fill="#F6DECE"/>
<path d="M8.08347 6.43543C9.21512 5.75695 10.7189 4.48352 12.1974 4.48099C11.97 4.40747 11.7326 4.36905 11.4936 4.36707C10.8809 4.36707 10.2278 4.68352 9.40499 5.15948C9.11891 5.32656 8.82271 5.51138 8.50878 5.70378C7.91891 6.06834 7.24296 6.481 6.48346 6.89366C4.07332 8.19747 2.63281 10.3468 2.63281 12.6456C2.63281 12.7469 2.63281 12.8481 2.63281 12.9469C4.167 7.52658 6.95435 7.11392 8.08347 6.43543Z" fill="#FFFEFC"/>
<path fill-rule="evenodd" clip-rule="evenodd" d="M10.7647 5.00754C10.7682 5.60533 10.6427 6.19683 10.3967 6.74167C10.1507 7.2865 9.79005 7.77184 9.33933 8.16453C9.26845 8.22782 9.32414 8.34934 9.41528 8.31389C10.2685 7.98225 11.4204 6.98983 10.9343 4.98729C10.914 4.87337 10.7647 4.90375 10.7647 5.00754ZM11.3393 5.00754C11.6491 5.51297 11.8459 6.07941 11.9163 6.66802C11.9866 7.25663 11.9289 7.8535 11.7469 8.41769C11.7166 8.5063 11.8254 8.58225 11.8862 8.50883C12.4406 7.79997 12.9242 6.39236 11.476 4.87337C11.4026 4.80754 11.2887 4.90881 11.3393 4.99742V5.00754ZM12.0381 4.96451C12.5232 5.30794 12.929 5.75141 13.2281 6.26499C13.5273 6.77858 13.7128 7.35035 13.7723 7.94174C13.7697 7.96305 13.7754 7.98453 13.7883 8.00172C13.8011 8.01892 13.8201 8.03051 13.8413 8.03409C13.8624 8.03767 13.8842 8.03297 13.902 8.02096C13.9197 8.00895 13.9322 7.99056 13.9368 7.96959C14.1697 7.08604 14.0381 5.5797 12.1216 4.79742C12.0204 4.75691 11.9545 4.89362 12.0381 4.95438V4.96451ZM7.36464 7.59743C7.94167 7.42504 8.47593 7.13306 8.93262 6.74048C9.38932 6.34791 9.75821 5.86355 10.0153 5.31894C10.0609 5.2278 10.2052 5.26324 10.1824 5.36451C9.7444 7.38984 8.27857 7.81262 7.36717 7.75693C7.27097 7.75946 7.2735 7.62528 7.36464 7.59743Z" fill="#CCBEA7"/>
<path d="M11.4937 20.2532C6.25824 20.2532 2 16.8405 2 12.6456C2 10.1139 3.56456 7.75188 6.18483 6.33668C6.94432 5.93161 7.59496 5.52401 8.17471 5.16705C8.4937 4.96958 8.79496 4.78477 9.0861 4.61262C9.97471 4.08603 10.7342 3.73413 11.4937 3.73413C12.2532 3.73413 12.9165 4.03793 13.7469 4.52907C14 4.67338 14.2532 4.83034 14.5241 5.00249C15.1545 5.39237 15.8659 5.83288 16.8026 6.33668C19.4229 7.75188 20.9874 10.1114 20.9874 12.6456C20.9874 16.8405 16.7292 20.2532 11.4937 20.2532ZM11.4937 4.36705C10.881 4.36705 10.2279 4.6835 9.40509 5.15946C9.11901 5.32655 8.82281 5.51136 8.50888 5.70376C7.91901 6.06832 7.24306 6.48098 6.48356 6.89364C4.07343 8.19745 2.63291 10.3468 2.63291 12.6456C2.63291 16.4912 6.60761 19.6203 11.4937 19.6203C16.3798 19.6203 20.3545 16.4912 20.3545 12.6456C20.3545 10.3468 18.914 8.19745 16.5013 6.89871C15.5444 6.39237 14.7975 5.91642 14.1925 5.54174C13.9165 5.37212 13.6633 5.21515 13.433 5.07591C12.6659 4.62021 12.1064 4.36705 11.4937 4.36705Z" fill="black"/>
<path d="M13.2784 14.4937C13.1647 14.9595 12.9058 15.3771 12.5392 15.6861C12.2639 15.953 11.9076 16.1204 11.5265 16.1621C11.134 16.127 10.7652 15.9592 10.481 15.6861C10.1181 15.3757 9.86284 14.9582 9.75184 14.4937C9.74817 14.4662 9.75085 14.4381 9.75969 14.4117C9.76853 14.3853 9.78328 14.3613 9.80283 14.3415C9.82238 14.3218 9.8462 14.3067 9.87247 14.2975C9.89874 14.2884 9.92676 14.2853 9.95438 14.2887H13.0784C13.1059 14.2858 13.1336 14.2891 13.1595 14.2984C13.1855 14.3078 13.209 14.3229 13.2282 14.3427C13.2475 14.3624 13.262 14.3863 13.2707 14.4124C13.2794 14.4386 13.282 14.4664 13.2784 14.4937Z" fill="#B71422"/>
<path d="M10.4809 15.7064C10.7645 15.9796 11.132 16.1491 11.5239 16.1874C11.915 16.1485 12.2815 15.9791 12.5645 15.7064C12.655 15.622 12.7396 15.5315 12.8176 15.4355C12.6617 15.2586 12.4712 15.1154 12.2578 15.0149C12.0445 14.9143 11.8128 14.8584 11.5771 14.8507C11.3249 14.8567 11.0779 14.9239 10.8574 15.0465C10.6369 15.1691 10.4495 15.3434 10.3113 15.5545C10.3695 15.6077 10.4201 15.6583 10.4809 15.7064Z" fill="#FF6164"/>
<path d="M10.5214 15.5064C10.6469 15.3442 10.8076 15.2125 10.9913 15.1213C11.1751 15.0301 11.3771 14.9817 11.5822 14.9798C11.9613 14.991 12.3225 15.1436 12.5948 15.4077C12.6531 15.3444 12.7088 15.2786 12.7619 15.2127C12.4399 14.906 12.0142 14.7316 11.5695 14.7241C11.3319 14.7262 11.0976 14.7808 10.8836 14.8841C10.6695 14.9874 10.481 15.1368 10.3315 15.3216C10.3914 15.3866 10.4548 15.4483 10.5214 15.5064Z" fill="black"/>
<path d="M11.5164 16.314C11.0945 16.277 10.6975 16.0986 10.3898 15.8077C9.99789 15.4762 9.72205 15.0283 9.60243 14.5292C9.59385 14.4847 9.59531 14.439 9.6067 14.3952C9.61809 14.3514 9.63912 14.3106 9.66825 14.276C9.70295 14.2341 9.74676 14.2007 9.79634 14.1783C9.84592 14.156 9.89996 14.1452 9.95433 14.1469H13.0784C13.1327 14.1458 13.1865 14.1568 13.236 14.1791C13.2855 14.2014 13.3294 14.2345 13.3645 14.276C13.3933 14.3108 13.414 14.3516 13.4249 14.3954C13.4359 14.4392 13.4369 14.4849 13.4278 14.5292C13.3081 15.0283 13.0323 15.4762 12.6404 15.8077C12.3334 16.0981 11.9373 16.2765 11.5164 16.314ZM9.95433 14.4406C9.91382 14.4406 9.9037 14.4583 9.90117 14.4634C10.0082 14.8962 10.2503 15.2837 10.5923 15.5697C10.8424 15.8161 11.1676 15.972 11.5164 16.0127C11.8642 15.9725 12.189 15.8185 12.4404 15.5748C12.7814 15.2883 13.0225 14.9009 13.129 14.4684C13.1235 14.4603 13.1159 14.4539 13.1069 14.4499C13.098 14.4459 13.0881 14.4444 13.0784 14.4456L9.95433 14.4406Z" fill="black"/>
<path d="M15.347 14.6507C16.1649 14.6507 16.828 14.2607 16.828 13.7798C16.828 13.2988 16.1649 12.9089 15.347 12.9089C14.529 12.9089 13.866 13.2988 13.866 13.7798C13.866 14.2607 14.529 14.6507 15.347 14.6507Z" fill="#FEBBD0"/>
<path d="M7.68366 14.6507C8.5016 14.6507 9.16467 14.2607 9.16467 13.7798C9.16467 13.2988 8.5016 12.9089 7.68366 12.9089C6.86571 12.9089 6.20264 13.2988 6.20264 13.7798C6.20264 14.2607 6.86571 14.6507 7.68366 14.6507Z" fill="#FEBBD0"/>
<path fill-rule="evenodd" clip-rule="evenodd" d="M8.37996 13.4304C8.65596 13.4309 8.92591 13.3495 9.15564 13.1965C9.38537 13.0436 9.56455 12.8259 9.67052 12.571C9.77649 12.3162 9.80448 12.0356 9.75094 11.7649C9.6974 11.4941 9.56474 11.2453 9.36976 11.05C9.17477 10.8546 8.92622 10.7215 8.65556 10.6675C8.3849 10.6135 8.1043 10.6409 7.84926 10.7464C7.59422 10.852 7.37621 11.0307 7.22282 11.2602C7.06943 11.4896 6.98755 11.7594 6.98755 12.0354C6.98755 12.405 7.13417 12.7594 7.39522 13.0209C7.65628 13.2825 8.01044 13.4297 8.37996 13.4304ZM14.6509 13.4304C14.9272 13.4324 15.1979 13.3523 15.4286 13.2002C15.6593 13.0482 15.8397 12.831 15.9468 12.5763C16.054 12.3216 16.083 12.0408 16.0304 11.7696C15.9777 11.4983 15.8456 11.2488 15.651 11.0527C15.4563 10.8566 15.2077 10.7227 14.9369 10.6681C14.666 10.6134 14.385 10.6405 14.1295 10.7457C13.8741 10.851 13.6556 11.0298 13.5019 11.2594C13.3481 11.489 13.2661 11.7591 13.2661 12.0354C13.2654 12.4039 13.4107 12.7575 13.6703 13.019C13.9299 13.2804 14.2825 13.4284 14.6509 13.4304Z" fill="black"/>
<path fill-rule="evenodd" clip-rule="evenodd" d="M7.9495 12.124C8.05325 12.1245 8.15482 12.0942 8.24133 12.0369C8.32785 11.9797 8.39541 11.898 8.43546 11.8023C8.47552 11.7066 8.48625 11.6011 8.46632 11.4993C8.44639 11.3975 8.39668 11.3039 8.32349 11.2303C8.2503 11.1568 8.15693 11.1066 8.0552 11.0862C7.95348 11.0658 7.84798 11.076 7.75207 11.1156C7.65617 11.1552 7.57417 11.2223 7.51648 11.3086C7.45878 11.3948 7.42798 11.4962 7.42798 11.6C7.42798 11.7385 7.48284 11.8714 7.58057 11.9696C7.67831 12.0679 7.81095 12.1234 7.9495 12.124ZM14.2204 12.124C14.3242 12.1245 14.4257 12.0942 14.5122 12.0369C14.5988 11.9797 14.6663 11.898 14.7064 11.8023C14.7464 11.7066 14.7572 11.6011 14.7372 11.4993C14.7173 11.3975 14.6676 11.3039 14.5944 11.2303C14.5212 11.1568 14.4278 11.1066 14.3261 11.0862C14.2244 11.0658 14.1189 11.076 14.023 11.1156C13.9271 11.1552 13.8451 11.2223 13.7874 11.3086C13.7297 11.3948 13.6989 11.4962 13.6989 11.6C13.6989 11.7377 13.753 11.8698 13.8497 11.9679C13.9463 12.0659 14.0777 12.122 14.2153 12.124H14.2204Z" fill="white"/>
</svg>
