<svg width="24" height="24" viewBox="0 0 24 24" fill="none" xmlns="http://www.w3.org/2000/svg">
<path d="M7.20062 3.25582L13.7019 2.05599C14.2365 1.95731 14.9354 2.22941 15.2628 2.66374L21.6176 11.0946C21.945 11.5289 21.7769 11.961 21.2422 12.0597L14.741 13.2596C14.2063 13.3582 13.5075 13.0861 13.1801 12.6518L6.82527 4.22092C6.49789 3.78659 6.66594 3.3545 7.20062 3.25582Z" fill="#2D9BBD"/>
<path d="M14.2547 13.9966L21.1091 12.8075C21.5745 12.7267 21.6908 13.0167 21.369 13.4552L16.7046 19.8093C16.3827 20.2478 15.7446 20.6686 15.2792 20.7494L8.42479 21.9385C7.95943 22.0192 7.84309 21.7293 8.16494 21.2908L12.8294 14.9366C13.1512 14.4982 13.7894 14.0773 14.2547 13.9966Z" fill="#4A4BCD"/>
<path fill-rule="evenodd" clip-rule="evenodd" d="M4.16894 11.411C4.0615 11.6922 2.06558 13.2709 2.10942 13.5932C2.15326 13.9156 4.49438 14.875 4.67262 15.1154C4.85086 15.3557 5.51622 18.4488 5.76086 18.5154C6.0055 18.5819 7.26709 16.0134 7.48469 15.8808C7.70229 15.7482 10.1093 16.081 10.2167 15.8C10.3241 15.5188 8.76277 12.9718 8.71901 12.6495C8.67517 12.3271 9.49757 9.43992 9.31917 9.19952C9.14085 8.95912 6.91438 9.95368 6.66974 9.88704C6.42502 9.8204 4.5263 7.70304 4.30862 7.8356C4.09102 7.96816 4.2763 11.1298 4.16894 11.411Z" fill="#2E5BC1"/>
</svg>
