<svg width="24" height="25" viewBox="0 0 24 25" fill="none" xmlns="http://www.w3.org/2000/svg">
<path d="M16.0206 16.8569L16.133 16.4673C16.2663 16.0043 16.217 15.577 15.9923 15.262C15.7823 14.9723 15.44 14.8022 15.0211 14.7822L7.09104 14.6814C7.06616 14.6811 7.04173 14.6747 7.01984 14.6629C6.99795 14.651 6.97925 14.6341 6.96533 14.6135C6.95141 14.5928 6.94268 14.5691 6.93989 14.5444C6.93709 14.5197 6.94032 14.4947 6.9493 14.4714C6.96277 14.4326 6.98737 14.3985 7.02004 14.3735C7.0527 14.3485 7.09199 14.3336 7.13303 14.3308L15.1397 14.2258C16.0847 14.1827 17.1178 13.4121 17.4779 12.4713L17.9336 11.2786C17.9465 11.2452 17.9529 11.2095 17.9525 11.1736C17.9519 11.1546 17.9498 11.1356 17.9462 11.1169C17.6976 10.0076 17.0933 9.0098 16.2252 8.27559C15.3572 7.54139 14.273 7.11096 13.1377 7.04985C12.0025 6.98875 10.8783 7.3003 9.93651 7.93709C8.99467 8.57387 8.28673 9.50099 7.92048 10.5773C7.53168 10.2883 7.06297 10.1267 6.57868 10.1147C6.09439 10.1027 5.61826 10.2409 5.21564 10.5104C4.81303 10.7798 4.50366 11.1672 4.33001 11.6194C4.15635 12.0717 4.12692 12.5666 4.24575 13.0362C3.77396 13.0484 3.31014 13.1607 2.88502 13.3657C2.45991 13.5706 2.08319 13.8636 1.77983 14.2251C1.47646 14.5866 1.25338 15.0085 1.12535 15.4628C0.997322 15.917 0.96727 16.3933 1.03719 16.86C1.04224 16.8969 1.06043 16.9306 1.0884 16.9551C1.11637 16.9796 1.15224 16.9932 1.18943 16.9934H15.8348C15.8764 16.9938 15.917 16.9807 15.9505 16.9561C15.984 16.9315 16.0086 16.8967 16.0206 16.8569Z" fill="#F59E0B"/>
<path d="M18.6632 11.3689C18.5932 11.3689 18.5198 11.371 18.4428 11.3752C18.4312 11.3755 18.4198 11.378 18.4092 11.3826C18.39 11.3889 18.3727 11.3999 18.3587 11.4146C18.3448 11.4292 18.3347 11.4471 18.3294 11.4666L18.0144 12.5438C17.88 13.0068 17.9293 13.4341 18.1551 13.7491C18.2691 13.8981 18.416 14.0189 18.5842 14.1021C18.7524 14.1853 18.9375 14.2287 19.1252 14.2289L20.8166 14.3339C20.8403 14.3346 20.8634 14.3409 20.8842 14.3522C20.905 14.3635 20.9229 14.3795 20.9363 14.399C20.9506 14.4198 20.9597 14.4437 20.9628 14.4687C20.9659 14.4938 20.9629 14.5192 20.9542 14.5428C20.9407 14.5817 20.9161 14.6158 20.8834 14.6408C20.8508 14.6658 20.8115 14.6806 20.7704 14.6835L19.0139 14.7885C18.0595 14.8326 17.0317 15.6022 16.6715 16.5419L16.5445 16.8737C16.5392 16.8875 16.5372 16.9025 16.5388 16.9173C16.5403 16.9321 16.5454 16.9463 16.5534 16.9588C16.5615 16.9712 16.5724 16.9816 16.5853 16.9891C16.5982 16.9966 16.6126 17.0009 16.6274 17.0017H22.6781C22.715 17.0026 22.7511 16.991 22.7805 16.9686C22.8099 16.9463 22.8308 16.9147 22.8398 16.8789C23.0202 16.2343 23.0491 15.5567 22.9241 14.8991C22.7992 14.2415 22.5238 13.6217 22.1196 13.0882C21.7154 12.5547 21.1933 12.1219 20.594 11.8236C19.9948 11.5254 19.3347 11.3697 18.6653 11.3689H18.6632Z" fill="#FBBF24"/>
</svg>
