<svg width="24" height="24" viewBox="0 0 24 24" fill="none" xmlns="http://www.w3.org/2000/svg">
<path d="M14.13 10.1C14.73 9.6 15.11 8.91 15.1 8.14C15.09 6.67 13.7 5.48 12 5.48C10.3 5.48 8.90997 6.66 8.89997 8.13C8.88997 8.9 9.26997 9.6 9.86997 10.09C10.62 10.7 11.23 11.93 11.27 13.27C11.31 14.76 11.21 16.49 11.15 17.37C10.35 17.48 9.78997 17.75 9.78997 18.06C9.78997 18.47 10.78 18.95 12.01 18.95C13.24 18.95 14.23 18.47 14.23 18.06C14.23 17.75 13.67 17.48 12.87 17.37C12.81 16.49 12.71 14.77 12.75 13.27C12.79 11.93 13.4 10.7 14.15 10.09L14.13 10.1Z" fill="#60A5FA"/>
<path d="M17.89 18.77C18.0093 18.7208 18.1333 18.6839 18.26 18.66C18.4015 18.63 18.5455 18.6133 18.6901 18.61L18.67 18.49C18.67 18.42 18.63 18.33 18.6 18.23L18.55 18.1C18.53 18.06 18.51 18.02 18.49 17.99L18.43 17.88C18.2815 17.8555 18.1346 17.8221 17.99 17.78C17.854 17.7416 17.7204 17.6948 17.59 17.64C17.37 17.55 17.16 17.44 17.05 17.32C16.9983 17.2801 16.9569 17.2284 16.929 17.1693C16.9012 17.1102 16.8878 17.0453 16.89 16.98C16.8983 16.9243 16.9226 16.8721 16.96 16.83C17.0042 16.779 17.0587 16.7381 17.1201 16.71L16.99 16.64C16.95 16.62 16.9101 16.59 16.85 16.57C16.8 16.54 16.7401 16.52 16.68 16.49C16.5701 16.44 16.4601 16.38 16.3601 16.35L16.21 16.29C16.0972 16.3033 15.9837 16.3099 15.87 16.31C15.75 16.31 15.62 16.31 15.5 16.3C15.26 16.28 15.01 16.25 14.8 16.18C14.704 16.1547 14.6104 16.1213 14.5201 16.08C14.4469 16.0497 14.3766 16.0129 14.3101 15.97C14.2001 15.89 14.12 15.81 14.12 15.72L13.95 15.69C13.85 15.67 13.62 15.64 13.48 15.62C13.48 15.64 13.46 15.67 13.46 15.71L13.42 15.88C13.35 16.23 13.55 16.58 13.89 16.68C14.72 16.92 15.35 17.32 15.53 17.81C15.9 18.8 14.35 19.77 12.0101 19.77C9.66005 19.77 8.12005 18.8 8.48005 17.81C8.66005 17.33 9.26005 16.94 10.07 16.7C10.2419 16.6466 10.3876 16.5307 10.4783 16.3752C10.569 16.2197 10.5982 16.0359 10.5601 15.86L10.5101 15.62L10.2 15.66C10.0601 15.68 9.93005 15.7 9.83005 15.72L9.66005 15.75C9.67005 15.83 9.61005 15.92 9.50005 16C9.43684 16.0455 9.36994 16.0856 9.30005 16.12C9.21212 16.1587 9.12196 16.1921 9.03005 16.22C8.92181 16.2535 8.8116 16.2802 8.70005 16.3C8.58106 16.3233 8.46088 16.34 8.34005 16.35C8.09005 16.37 7.84005 16.37 7.61005 16.35L7.57005 16.37C7.55005 16.38 7.50005 16.4 7.46005 16.42L7.15005 16.57C7.04005 16.62 6.94005 16.69 6.86005 16.73L6.76005 16.78L6.73005 16.8C6.89005 16.87 6.97005 16.97 6.99005 17.08C7.03005 17.19 6.98005 17.31 6.87005 17.43C6.80258 17.4968 6.72892 17.5571 6.65005 17.61C6.5488 17.6763 6.44169 17.7332 6.33005 17.78C6.06558 17.9016 5.78665 17.989 5.50005 18.04C5.47924 18.0746 5.46247 18.1115 5.45005 18.15L5.36005 18.4L5.32005 18.66C5.31083 18.6993 5.30746 18.7397 5.31005 18.78C5.63005 18.78 5.92005 18.84 6.14005 18.92C6.39005 19 6.54005 19.13 6.66005 19.28C6.75005 19.44 6.79005 19.61 6.71005 19.81C6.65005 20 6.49005 20.22 6.24005 20.41L6.28005 20.44L6.40005 20.52C6.50005 20.59 6.63005 20.69 6.78005 20.78L7.22005 21.02C7.28005 21.05 7.34005 21.08 7.38005 21.09C7.39974 21.1006 7.41975 21.1106 7.44005 21.12C7.80005 20.97 8.19005 20.89 8.58005 20.84C8.76942 20.8204 8.96011 20.8171 9.15005 20.83C9.34005 20.84 9.53005 20.85 9.70005 20.9C9.88005 20.95 10.05 20.99 10.2 21.06C10.3466 21.128 10.4871 21.2083 10.62 21.3C10.88 21.47 11.07 21.72 11.16 21.98L11.49 21.99C11.69 22 11.9501 22.01 12.2201 22L12.94 21.97L13.2601 21.94C13.2894 21.8028 13.3474 21.6733 13.43 21.56C13.472 21.5027 13.5188 21.4492 13.57 21.4C13.7238 21.2326 13.9112 21.0997 14.12 21.01C14.2732 20.9357 14.4342 20.8786 14.6 20.84C14.7801 20.8 14.9501 20.77 15.14 20.76C15.33 20.75 15.5201 20.75 15.71 20.76C16.1031 20.783 16.4906 20.8638 16.8601 21L17.06 20.89C17.17 20.82 17.34 20.74 17.47 20.64C17.6 20.54 17.74 20.45 17.82 20.38L17.9501 20.25C17.68 20.06 17.5201 19.86 17.43 19.67C17.3906 19.5854 17.3701 19.4933 17.3701 19.4C17.3612 19.3123 17.3824 19.2242 17.43 19.15C17.5 18.99 17.68 18.88 17.88 18.78M9.95005 13.9C9.95005 13.9 10.3 12.58 8.78005 10.87L8.73005 10.82C8.09622 10.0631 7.74925 9.1072 7.75005 8.12C7.75005 5.8 9.64005 3.92 11.95 3.92H12.0501C13.164 3.92 14.2322 4.3625 15.0199 5.15015C15.8076 5.9378 16.25 7.00609 16.25 8.12C16.248 9.10846 15.8975 10.0645 15.26 10.82C15.25 10.83 15.24 10.85 15.21 10.87C13.87 12.22 14.04 13.9 14.04 13.9C15.238 13.4855 16.2782 12.7101 17.0177 11.6806C17.7573 10.651 18.1598 9.41762 18.17 8.15C18.1901 4.91 15.5701 2.15 12.3401 2C12.3001 1.99904 12.26 1.99904 12.2201 2H11.6401C8.41005 2.16 5.79005 4.92 5.81005 8.15C5.82005 10.74 7.48005 13.05 9.94005 13.9H9.95005Z" fill="#71717A"/>
</svg>
