<svg width="24" height="25" viewBox="0 0 24 25" fill="none" xmlns="http://www.w3.org/2000/svg">
<path d="M8.6234 20.6311C8.27717 20.6311 7.93094 20.5489 7.62799 20.4017L11.7914 12.8929C11.9212 12.6592 11.9212 12.3735 11.7914 12.1398L7.62799 4.63533C7.93747 4.48209 8.27806 4.40212 8.6234 4.40163H11.9991L16.1972 11.9711C16.2896 12.1379 16.3381 12.3256 16.3381 12.5164C16.3381 12.7071 16.2896 12.8948 16.1972 13.0617L11.9991 20.6311H8.6234Z" fill="#FEF3C7"/>
<path fill-rule="evenodd" clip-rule="evenodd" d="M20.6981 11.3911L17.3224 5.52688C17.125 5.18497 16.8411 4.90101 16.4993 4.7035C16.1574 4.50599 15.7697 4.40189 15.3749 4.40163H11.9991L16.1972 11.9711C16.2896 12.1379 16.3381 12.3256 16.3381 12.5164C16.3381 12.7071 16.2896 12.8948 16.1972 13.0617L11.9991 20.6311H15.3749C15.7697 20.6309 16.1574 20.5267 16.4993 20.3292C16.8411 20.1317 17.125 19.8478 17.3224 19.5059L20.6981 13.6416C21.1006 12.9492 21.1006 12.0836 20.6981 11.3911ZM7.62804 4.63534L7.84154 5.02052H7.84444L9.7487 8.46117L9.7483 8.46186L7.80115 11.9667C7.70792 12.1341 7.65899 12.3226 7.65899 12.5142C7.65899 12.7058 7.70792 12.8943 7.80115 13.0617L9.74869 16.5759L7.62804 20.4017C7.229 20.2039 6.89764 19.8921 6.67591 19.5059L3.30018 13.6416C3.1035 13.2992 3 12.9112 3 12.5164C3 12.1215 3.1035 11.7335 3.30018 11.3911L5.69296 7.23444C5.67299 7.26772 5.65293 7.30157 5.63279 7.33599L5.7411 7.14983L6.65499 5.56322L6.67591 5.52688L6.67771 5.52376C6.8978 5.1418 7.22523 4.83287 7.61939 4.63534L7.6213 4.63868L7.62804 4.63534Z" fill="#F59E0B"/>
</svg>
