<svg width="24" height="25" viewBox="0 0 24 25" fill="none" xmlns="http://www.w3.org/2000/svg">
<path fill-rule="evenodd" clip-rule="evenodd" d="M13.8559 3.12168C13.6402 2.55866 13.1377 2.14512 12.5356 2.11403C12.1791 2.09562 11.8219 2.09562 11.4655 2.11403C10.8633 2.14512 10.3609 2.55866 10.1451 3.12168C9.95095 3.62841 9.51855 3.99889 9.00793 4.18258C8.74519 4.2771 8.48708 4.38402 8.23447 4.50298C7.74359 4.73415 7.17596 4.77798 6.68038 4.55707C6.12972 4.31161 5.48205 4.37459 5.03434 4.77837C4.76953 5.0172 4.5172 5.26953 4.27837 5.53434C3.87459 5.98204 3.81162 6.62971 4.05708 7.18037C4.27799 7.67595 4.23415 8.24359 4.00299 8.73447C3.88402 8.98708 3.77711 9.24519 3.68259 9.50792C3.49889 10.0185 3.12842 10.4509 2.62168 10.6451C2.05867 10.8608 1.64513 11.3633 1.61403 11.9655C1.59562 12.3219 1.59562 12.6791 1.61403 13.0356C1.64513 13.6377 2.05867 14.1402 2.62168 14.3559C3.12842 14.5501 3.49889 14.9825 3.68259 15.4931C3.77711 15.7558 3.88403 16.014 4.00299 16.2666C4.23415 16.7574 4.27799 17.3251 4.05708 17.8207C3.81162 18.3713 3.87459 19.019 4.27837 19.4667C4.5172 19.7315 4.76953 19.9838 5.03434 20.2227C5.48205 20.6264 6.12972 20.6894 6.68038 20.444C7.17596 20.223 7.74359 20.2669 8.23447 20.498C8.48708 20.617 8.74517 20.7239 9.0079 20.8184C9.51854 21.0021 9.95095 21.3726 10.1451 21.8794C10.3609 22.4424 10.8633 22.8559 11.4655 22.887C11.8219 22.9054 12.1791 22.9054 12.5356 22.887C13.1377 22.8559 13.6402 22.4424 13.8559 21.8794C14.0501 21.3726 14.4825 21.0021 14.9931 20.8184C15.2559 20.7239 15.514 20.617 15.7666 20.498C16.2574 20.2669 16.8251 20.223 17.3207 20.444C17.8713 20.6894 18.519 20.6264 18.9667 20.2227C19.2315 19.9838 19.4838 19.7315 19.7227 19.4667C20.1264 19.019 20.1894 18.3713 19.944 17.8207C19.7231 17.3251 19.7669 16.7574 19.9981 16.2666C20.117 16.014 20.2239 15.7559 20.3184 15.4931C20.5021 14.9825 20.8726 14.5501 21.3794 14.3559C21.9424 14.1402 22.3559 13.6377 22.387 13.0356C22.4054 12.6791 22.4054 12.3219 22.387 11.9654C22.3559 11.3633 21.9424 10.8609 21.3794 10.6451C20.8726 10.4509 20.5021 10.0185 20.3184 9.5079C20.2239 9.24517 20.117 8.98707 19.9981 8.73447C19.7669 8.24359 19.7231 7.67595 19.944 7.18037C20.1894 6.62971 20.1264 5.98204 19.7227 5.53434C19.4838 5.26953 19.2315 5.0172 18.9667 4.77837C18.519 4.37459 17.8713 4.31161 17.3207 4.55707C16.8251 4.77798 16.2574 4.73415 15.7666 4.50298C15.514 4.38402 15.2558 4.2771 14.9931 4.18258C14.4825 3.99889 14.0501 3.62841 13.8559 3.12168ZM12.0005 5.83597C15.6784 5.83597 18.6651 8.82267 18.6651 12.5005C18.6651 16.1784 15.6784 19.1651 12.0005 19.1651C8.32268 19.1651 5.33597 16.1784 5.33597 12.5005C5.33597 8.82267 8.32268 5.83597 12.0005 5.83597Z" fill="#60A5FA"/>
<path fill-rule="evenodd" clip-rule="evenodd" d="M14.6762 15.1714C14.3256 15.524 13.9086 15.8037 13.4494 15.9944C12.9902 16.185 12.4978 16.2829 12.0005 16.2824C9.91295 16.2824 8.21868 14.5881 8.21868 12.5005C8.21868 10.4129 9.91295 8.71867 12.0005 8.71867C13.0453 8.71867 13.9917 9.14319 14.6762 9.82959L13.3393 11.1655C13.0751 10.9005 12.7382 10.7198 12.3712 10.6464C12.0042 10.5729 11.6237 10.61 11.2779 10.753C10.932 10.8959 10.6363 11.1383 10.4283 11.4494C10.2203 11.7604 10.1092 12.1263 10.1092 12.5005C10.1092 12.8748 10.2203 13.2406 10.4283 13.5517C10.6363 13.8628 10.932 14.1051 11.2779 14.2481C11.6237 14.391 12.0042 14.4281 12.3712 14.3547C12.7382 14.2812 13.0751 14.1005 13.3393 13.8355L14.6762 15.1714Z" fill="#60A5FA"/>
</svg>
