<svg width="24" height="25" viewBox="0 0 24 25" fill="none" xmlns="http://www.w3.org/2000/svg">
<path fill-rule="evenodd" clip-rule="evenodd" d="M12.006 2.875C6.478 2.879 1.978 7.346 1.974 12.834V12.859L3.68 13.854L3.703 13.838C4.76809 13.1123 6.07591 12.8346 7.344 13.065C8.24122 13.2244 9.07365 13.6385 9.742 14.258L10.035 14.531L10.201 14.168C10.361 13.818 10.547 13.488 10.751 13.188C10.8399 13.0613 10.9327 12.9372 11.029 12.816L11.201 12.601L10.99 12.425C10.057 11.6461 8.93727 11.1236 7.741 10.909C6.62166 10.7066 5.4702 10.7738 4.382 11.105C5.194 7.549 8.321 5.069 12.013 5.066C13.0363 5.06253 14.0503 5.26098 14.9968 5.64999C15.9434 6.039 16.8038 6.61092 17.529 7.333C18.5712 8.36078 19.2981 9.66498 19.624 11.092C18.9468 10.8838 18.2425 10.777 17.534 10.775H17.407C17.1297 10.7795 16.8529 10.7998 16.578 10.836L16.544 10.841C16.4346 10.8548 16.3255 10.8715 16.217 10.891C16.0593 10.9195 15.9025 10.9532 15.747 10.992L15.632 11.022C15.498 11.058 15.362 11.099 15.229 11.142L15.204 11.15C14.9034 11.2525 14.6101 11.3751 14.326 11.517L14.303 11.529C14.1699 11.5959 14.0392 11.6672 13.911 11.743L13.881 11.761C13.2082 12.1608 12.6095 12.6737 12.111 13.277L12.048 13.353C11.8434 13.6056 11.6573 13.8727 11.491 14.152L11.441 14.239C11.3724 14.357 11.3074 14.4771 11.246 14.599L11.232 14.624C11.0896 14.9113 10.967 15.208 10.865 15.512L10.85 15.556C10.6098 16.2862 10.4939 17.0515 10.507 17.82L10.508 17.914C10.5121 18.0241 10.5181 18.1341 10.526 18.244L10.54 18.399C10.546 18.463 10.554 18.526 10.561 18.589L10.566 18.623L10.577 18.709C10.592 18.815 10.609 18.919 10.629 19.025C10.831 20.082 11.335 21.14 12.087 22.083L12.121 22.125L12.156 22.084C12.456 21.729 13.2 20.605 13.263 19.93L13.264 19.918L13.258 19.907C12.9082 19.2374 12.7247 18.4935 12.723 17.738C12.723 15.218 14.705 13.125 17.233 12.974L17.398 12.968C18.4302 12.9443 19.4441 13.2435 20.298 13.824L20.321 13.84L22.005 12.861L22.027 12.848V12.823C22.031 11.5135 21.7736 10.2164 21.2698 9.00765C20.766 7.79893 20.0259 6.70297 19.093 5.784C18.1611 4.85671 17.0555 4.12237 15.8394 3.62302C14.6233 3.12368 13.3206 2.87015 12.006 2.875Z" fill="#F472B6"/>
</svg>
