<svg width="24" height="25" viewBox="0 0 24 25" fill="none" xmlns="http://www.w3.org/2000/svg">
<path d="M13.8197 10.9489H11.331C11.2856 10.6269 11.1928 10.3409 11.0526 10.0909C10.9125 9.83712 10.7326 9.62121 10.5129 9.44318C10.2932 9.26515 10.0394 9.12879 9.75149 9.03409C9.4674 8.9394 9.15869 8.89205 8.82536 8.89205C8.22308 8.89205 7.69846 9.04167 7.25149 9.34091C6.80452 9.63637 6.45793 10.0682 6.21172 10.6364C5.96551 11.2008 5.8424 11.8864 5.8424 12.6932C5.8424 13.5227 5.96551 14.2197 6.21172 14.7841C6.46172 15.3485 6.8102 15.7746 7.25717 16.0625C7.70414 16.3504 8.22119 16.4943 8.80831 16.4943C9.13786 16.4943 9.44278 16.4508 9.72308 16.3636C10.0072 16.2765 10.2591 16.1496 10.4788 15.983C10.6985 15.8125 10.8803 15.6061 11.0242 15.3636C11.1719 15.1212 11.2742 14.8447 11.331 14.5341L13.8197 14.5455C13.7553 15.0795 13.5943 15.5947 13.3367 16.0909C13.0829 16.5833 12.7401 17.0246 12.3083 17.4148C11.8803 17.8011 11.3689 18.108 10.7742 18.3352C10.1833 18.5587 9.51475 18.6705 8.76854 18.6705C7.73066 18.6705 6.80263 18.4356 5.98445 17.9659C5.17005 17.4962 4.52611 16.8163 4.05263 15.9261C3.58293 15.036 3.34808 13.9583 3.34808 12.6932C3.34808 11.4242 3.58672 10.3447 4.06399 9.45455C4.54127 8.5644 5.18899 7.88637 6.00717 7.42046C6.82536 6.95076 7.74581 6.71591 8.76854 6.71591C9.44278 6.71591 10.0678 6.81061 10.6435 7C11.2231 7.1894 11.7363 7.46591 12.1833 7.82955C12.6303 8.1894 12.9939 8.63068 13.2742 9.15341C13.5583 9.67614 13.7401 10.2746 13.8197 10.9489Z" fill="#60A5FA"/>
<path d="M20.2316 9.78409V11.6023H14.8452V9.78409H20.2316ZM16.0782 18.5114V9.15341C16.0782 8.52084 16.2013 7.99621 16.4475 7.57955C16.6975 7.16288 17.0384 6.85038 17.4702 6.64205C17.9021 6.43371 18.3926 6.32955 18.9418 6.32955C19.313 6.32955 19.6521 6.35796 19.9589 6.41478C20.2695 6.47159 20.5005 6.52273 20.6521 6.56818L20.2202 8.38637C20.1255 8.35606 20.0081 8.32765 19.868 8.30114C19.7316 8.27462 19.5915 8.26137 19.4475 8.26137C19.0915 8.26137 18.8433 8.3447 18.7032 8.51137C18.563 8.67425 18.493 8.90341 18.493 9.19887V18.5114H16.0782Z" fill="#60A5FA"/>
</svg>
