<svg width="24" height="25" viewBox="0 0 24 25" fill="none" xmlns="http://www.w3.org/2000/svg">
<path d="M2.46906 3.42209V8.86925H4.28312V3.42209H2.46906ZM15.1784 5.23814C13.6248 5.23882 12.1123 5.73696 10.8623 6.65959C9.61234 7.58223 8.69065 8.88087 8.23224 10.3653L6.10017 12.5004L8.23324 14.6334C9.14926 17.6015 11.9103 19.7626 15.1784 19.7626C19.1906 19.7626 22.4397 16.5125 22.4397 12.5004C22.4397 8.48824 19.1906 5.23814 15.1784 5.23814ZM18.1195 8.94125L19.4616 10.5713L13.9714 16.0595L10.7933 12.5924L12.1334 11.2523L13.9714 13.0904L18.1195 8.94125ZM3.37709 10.6843C2.37906 10.6843 1.56104 11.5013 1.56104 12.5004C1.56084 12.8598 1.66726 13.2113 1.86685 13.5102C2.06643 13.8092 2.35021 14.0423 2.68227 14.1799C3.01434 14.3176 3.37977 14.3536 3.73233 14.2836C4.0849 14.2135 4.40876 14.0404 4.66294 13.7862C4.91712 13.532 5.0902 13.2082 5.16028 12.8556C5.23036 12.503 5.19429 12.1376 5.05664 11.8055C4.91899 11.4735 4.68593 11.1897 4.38697 10.9901C4.088 10.7905 3.73655 10.6841 3.37709 10.6843ZM2.47006 16.1305V21.5776H4.28412V16.1305H2.47006Z" fill="#14B8A6"/>
</svg>
