<svg width="24" height="25" viewBox="0 0 24 25" fill="none" xmlns="http://www.w3.org/2000/svg">
<path d="M14.8461 10.4375H12.3575C12.312 10.1155 12.2192 9.82955 12.0791 9.57955C11.9389 9.32576 11.759 9.10985 11.5393 8.93182C11.3196 8.75379 11.0658 8.61742 10.7779 8.52273C10.4938 8.42803 10.1851 8.38068 9.85179 8.38068C9.24952 8.38068 8.7249 8.5303 8.27793 8.82955C7.83096 9.125 7.48436 9.55682 7.23815 10.125C6.99194 10.6894 6.86883 11.375 6.86883 12.1818C6.86883 13.0114 6.99194 13.7083 7.23815 14.2727C7.48815 14.8371 7.83664 15.2633 8.28361 15.5511C8.73058 15.839 9.24762 15.983 9.83474 15.983C10.1643 15.983 10.4692 15.9394 10.7495 15.8523C11.0336 15.7652 11.2855 15.6383 11.5052 15.4716C11.7249 15.3011 11.9067 15.0947 12.0507 14.8523C12.1984 14.6098 12.3007 14.3333 12.3575 14.0227L14.8461 14.0341C14.7817 14.5682 14.6207 15.0833 14.3632 15.5795C14.1094 16.072 13.7666 16.5133 13.3347 16.9034C12.9067 17.2898 12.3953 17.5966 11.8007 17.8239C11.2097 18.0473 10.5412 18.1591 9.79497 18.1591C8.75709 18.1591 7.82906 17.9242 7.01088 17.4545C6.19649 16.9848 5.55255 16.3049 5.07906 15.4148C4.60936 14.5246 4.37452 13.447 4.37452 12.1818C4.37452 10.9129 4.61315 9.83333 5.09043 8.94318C5.5677 8.05303 6.21543 7.375 7.03361 6.90909C7.85179 6.43939 8.77224 6.20455 9.79497 6.20455C10.4692 6.20455 11.0942 6.29924 11.67 6.48864C12.2495 6.67803 12.7628 6.95455 13.2097 7.31818C13.6567 7.67803 14.0203 8.11932 14.3007 8.64205C14.5847 9.16477 14.7666 9.76326 14.8461 10.4375Z" fill="#14B8A6"/>
<path d="M19.4279 16.9693L20.8333 8.03064H22.1718L20.7664 16.9693H19.4279ZM15.5923 14.7521L15.814 13.3555H22.5064L22.2847 14.7521H15.5923ZM16.4163 16.9693L17.8217 8.03064H19.1602L17.7548 16.9693H16.4163ZM16.0817 11.6445L16.3076 10.2479H23L22.7741 11.6445H16.0817Z" fill="#14B8A6"/>
</svg>
