<svg width="24" height="25" viewBox="0 0 24 25" fill="none" xmlns="http://www.w3.org/2000/svg">
<g clip-path="url(#clip0_3372_3359)">
<path d="M17.767 8V10H19.767V20H9.76703V18H7.76703V22H21.767V8H17.767Z" fill="#42A5F5"/>
<path d="M4.38426 5.22222C4.38426 4.17902 5.22995 3.33333 6.27315 3.33333C6.62088 3.33333 6.90278 3.61523 6.90278 3.96296C6.90278 4.31069 6.62088 4.59259 6.27315 4.59259C5.92542 4.59259 5.64352 4.87449 5.64352 5.22222V7.70198C5.64352 8.03203 5.55799 8.34594 5.40563 8.61976C5.27667 8.85153 5.27667 9.14846 5.40563 9.38023C5.55799 9.65406 5.64352 9.96797 5.64352 10.298V12.7778C5.64352 13.1255 5.92542 13.4074 6.27315 13.4074C6.62088 13.4074 6.90278 13.6893 6.90278 14.037C6.90278 14.3848 6.62088 14.6667 6.27315 14.6667C5.22995 14.6667 4.38426 13.821 4.38426 12.7778V10.298C4.38426 10.0091 4.18763 9.75725 3.90734 9.68717L3.60192 9.6108C3.32163 9.54078 3.125 9.28893 3.125 8.99999C3.125 8.71106 3.32163 8.45921 3.60192 8.38919L3.90734 8.31282C4.18763 8.24274 4.38426 7.99089 4.38426 7.70198V5.22222ZM14.4583 5.22222C14.4583 4.17902 13.6127 3.33333 12.5694 3.33333C12.2217 3.33333 11.9398 3.61523 11.9398 3.96296C11.9398 4.31069 12.2217 4.59259 12.5694 4.59259C12.9172 4.59259 13.1991 4.87449 13.1991 5.22222V7.70198C13.1991 8.03203 13.2846 8.34595 13.437 8.61977C13.5659 8.85154 13.5659 9.14845 13.437 9.38022C13.2846 9.65405 13.1991 9.96797 13.1991 10.298V12.7778C13.1991 13.1255 12.9172 13.4074 12.5694 13.4074C12.2217 13.4074 11.9398 13.6893 11.9398 14.037C11.9398 14.3848 12.2217 14.6667 12.5694 14.6667C13.6127 14.6667 14.4583 13.821 14.4583 12.7778V10.298C14.4583 10.0091 14.655 9.75725 14.9353 9.68717L15.2406 9.6108C15.521 9.54078 15.7176 9.28893 15.7176 8.99999C15.7176 8.71106 15.521 8.45921 15.2406 8.38919L14.9353 8.31282C14.655 8.24274 14.4583 7.99089 14.4583 7.70198V5.22222Z" fill="#0EA5E9"/>
</g>
<defs>
<clipPath id="clip0_3372_3359">
<rect width="24" height="24" fill="white" transform="translate(0 0.5)"/>
</clipPath>
</defs>
</svg>
