<svg width="24" height="25" viewBox="0 0 24 25" fill="none" xmlns="http://www.w3.org/2000/svg">
<path fill-rule="evenodd" clip-rule="evenodd" d="M13.5431 4.09156L16.4942 7.17096L5.82737 6.57943L11.2743 3.73691C11.5216 3.58208 11.9046 3.50003 12.2952 3.50003C12.7492 3.50003 13.2856 3.8216 13.5431 4.09156ZM5.82611 16.171C5.82611 17.1211 5.94025 17.354 6.39299 17.8291L6.847 18.3028L6.84701 18.3029L9.91096 21.5H17.0611L17.0611 18.3029L17.0611 18.3028L12.0682 12.3823L5.82611 6.57944V16.171Z" fill="#38BDF8"/>
<path fill-rule="evenodd" clip-rule="evenodd" d="M5.8261 6.57816H14.9051C15.5303 6.57816 15.9831 6.63638 16.4929 7.16969L20.125 10.9597V18.3016H17.061L5.8261 6.57816ZM3.44188 14.7497L6.39298 17.8291L5.82609 6.57944L3.10201 12.5C3.00436 12.7144 2.875 13.0889 2.875 13.3284C2.875 13.8459 3.09186 14.3752 3.44188 14.7497Z" fill="#075985"/>
</svg>
