<svg width="24" height="25" viewBox="0 0 24 25" fill="none" xmlns="http://www.w3.org/2000/svg">
<path d="M12.1362 3C11.925 3.00092 11.7226 3.0879 11.572 3.24238L11.5638 3.24842L6.27924 6.43301L11.5505 11.9293V11.9327L17.8857 18.5391L19.0935 16.2706L14.7388 5.36774L12.7062 3.24842C12.6315 3.16977 12.5426 3.10733 12.4446 3.06469C12.3467 3.02206 12.2416 3.00007 12.1354 3H12.1362Z" fill="#90A4AE"/>
<path d="M6.29164 6.42007L3.23906 11.9258L3.23326 11.9344C3.15888 12.0123 3.09998 12.1047 3.05995 12.2064C3.01992 12.308 2.99955 12.4169 3.00001 12.5268C3.00047 12.6367 3.02175 12.7454 3.06263 12.8467C3.10352 12.948 3.16319 13.0399 3.23823 13.117L5.76799 15.7573L15.6645 19.8166L17.9022 18.521L17.8418 18.458L17.8261 18.4597L11.6217 11.9802H11.6142L6.29164 6.42007Z" fill="#455A64"/>
<path d="M6.27841 6.42266L11.6705 12.0509H11.6788L17.884 18.5288L20.2467 18.0595L20.25 10.7717L17.7558 8.22283C17.2098 7.66475 16.3702 7.30506 15.5263 7.18603L15.528 7.15842L6.27924 6.42352L6.27841 6.42266Z" fill="#455A64"/>
<path d="M6.28503 6.42956L11.6804 12.0552V12.063L17.8898 18.5374L17.4381 21H10.4486L8.0049 18.3976C7.46966 17.8283 7.12552 16.952 7.01219 16.0722L6.98489 16.0748L6.28503 6.42956Z" fill="#90A4AE"/>
</svg>
