<svg width="24" height="25" viewBox="0 0 24 25" fill="none" xmlns="http://www.w3.org/2000/svg">
<path d="M18.5683 2.78965C18.3586 2.79472 18.0552 2.82002 17.6253 2.89278C17.0821 2.98488 16.6787 3.09537 16.5884 3.11934C15.9285 3.30169 15.4508 3.50799 15.0208 3.69402C14.7784 3.799 14.4599 3.93716 14.0672 4.14897L14.0548 4.15634C13.8672 4.25763 13.7222 4.33869 13.6443 4.3829L13.6036 4.40497C13.3223 4.56339 13.0498 4.68493 12.7649 4.83965C12.7649 4.83965 12.4925 4.98886 12.0909 5.26146C11.9741 5.34067 11.8732 5.41985 11.8732 5.41985C11.8468 5.44016 11.8209 5.46104 11.7953 5.48248C11.6998 5.56167 11.6114 5.65009 11.5317 5.7477C11.4557 5.83981 11.3459 5.97244 11.2734 6.1603C11.1549 6.46053 11.1938 6.73679 11.2115 6.86206C11.2363 7.02228 11.2876 7.36486 11.5459 7.59328C11.744 7.77192 11.9776 7.80142 12.1156 7.81616C12.9596 7.89721 13.7699 7.72223 14.2901 7.65223C14.989 7.56014 15.5216 7.61171 15.9462 7.65223C16.7212 7.72776 17.574 7.81062 18.4551 8.39083C18.6639 8.52895 19.2248 8.92497 19.7095 9.65435C19.9219 9.973 20.2456 10.4611 20.3695 11.1629C20.4916 11.8628 20.3553 12.4393 20.5004 12.478C20.5694 12.4964 20.6473 12.384 20.8012 12.1648C21.0045 11.8742 21.1654 11.5539 21.2789 11.2144C21.3232 11.08 21.3674 10.8792 21.4559 10.4758C21.5532 10.0374 21.6009 9.81828 21.6328 9.61014C21.6593 9.4315 21.6912 9.17178 21.7018 8.48844C21.7124 7.72223 21.7177 7.33909 21.6752 6.92653C21.6169 6.36478 21.4983 5.81221 21.3214 5.2799C21.1303 4.71814 20.9339 4.15267 20.4491 3.61851C20.1006 3.23356 19.7927 3.07332 19.6848 3.02176C19.3787 2.87258 19.1186 2.8339 18.9488 2.80811C18.8939 2.79983 18.778 2.78463 18.5683 2.78969L18.5683 2.78965ZM16.8717 4.23523C17.0757 4.23728 17.2134 4.28479 17.2466 4.39393C17.3351 4.68495 16.8432 5.24486 15.9922 5.52481C15.1411 5.80295 14.014 5.64821 13.9257 5.3572C13.8374 5.06618 14.6246 4.80649 15.4756 4.52837C16.0075 4.35455 16.5318 4.23179 16.8718 4.23523H16.8717Z" fill="#F87171"/>
<path d="M15.5967 8.26562C15.6268 8.17169 16.0585 8.23983 16.2248 8.26562C16.6954 8.3393 17.159 8.41297 17.711 8.72057C18.1073 8.93974 18.7071 9.36706 19.1565 10.1259C19.245 10.2733 19.6626 11.0008 19.7156 12.0563C19.7652 13.0196 19.4821 13.7361 19.3335 14.1007C18.7089 15.6331 17.5464 16.4287 16.9839 16.8028C16.5982 17.0588 15.6091 17.6574 14.2697 17.8195C13.5832 17.9024 12.6738 17.8876 12.6384 17.7016C12.6278 17.6427 12.7057 17.5727 12.8242 17.4658C12.8791 17.4161 13.0259 17.2927 13.2789 17.2246C13.4205 17.1859 13.4842 17.1951 13.8292 17.1877C14.16 17.1804 14.3246 17.1767 14.4343 17.1619C14.6802 17.1251 14.9226 17.057 15.1509 16.9557C15.3154 16.8838 15.4428 16.8304 15.5967 16.7144C15.7772 16.5764 15.9314 16.4046 16.0515 16.2079C16.1204 16.0992 16.1842 15.9979 16.2372 15.8487C16.2815 15.7271 16.2886 15.659 16.354 15.5577C16.4159 15.4619 16.4672 15.4324 16.5416 15.3588C16.6 15.3017 16.6442 15.2464 16.8424 14.9001C16.9857 14.6496 17.0564 14.5244 17.1007 14.436C17.3059 14.0215 17.382 13.6384 17.4244 13.4211C17.5748 12.6494 17.5023 12.001 17.4651 11.675C17.3979 11.0985 17.3324 10.5257 16.9874 9.88658C16.7592 9.46295 16.4637 8.91592 15.8958 8.53834C15.7843 8.45914 15.5755 8.33572 15.5967 8.26574L15.5967 8.26562Z" fill="#F87171"/>
<path d="M14.2219 16.1212C14.2219 16.1212 14.3333 15.8763 14.5846 15.1395C14.6801 14.8614 14.735 14.7011 14.7597 14.4599C14.7916 14.1541 14.7562 13.911 14.6854 13.4303C14.6677 13.3032 14.6412 13.1779 14.604 13.0545C14.5775 12.9661 14.5527 12.909 14.4749 12.723C14.2714 12.2459 14.2254 12.1557 14.137 12.0452C14.0007 11.8757 13.9176 11.8518 13.8875 11.8463C13.753 11.8186 13.5867 11.8849 13.5372 12.0028C13.4929 12.1078 13.5549 12.2201 13.6221 12.3546C13.6221 12.3546 13.7194 12.5517 13.9441 13.1632C14.0644 13.4929 14.0751 13.771 14.0821 13.9976C14.1087 14.8172 13.7796 15.4379 13.6699 15.6368C13.3691 16.1857 12.9958 16.4988 12.7215 16.7235C12.1465 17.1932 11.529 17.4511 11.2141 17.5818C10.7098 17.7918 10.4604 17.8305 10.2463 18.1215C10.0799 18.348 10.0481 18.5783 9.99325 18.9669C9.99325 18.9669 9.90124 19.6337 10.1507 20.4073C10.1967 20.5528 10.2498 20.678 10.3683 20.7627C10.5382 20.8824 10.7487 20.8438 10.9204 20.8124C11.1539 20.7701 11.3751 20.6706 11.5821 20.5785C11.7466 20.5049 11.8616 20.4422 11.9979 20.4846C12.0563 20.503 12.1111 20.538 12.189 20.6209C12.3677 20.8143 12.4632 21.0482 12.5234 21.2803C12.6242 21.6634 12.6791 21.8789 12.5641 21.9968C12.4402 22.1239 12.1606 22.0963 11.9908 21.9894C11.874 21.9157 11.8687 21.8402 11.7378 21.7905C11.6369 21.7518 11.5608 21.7665 11.3839 21.7831C11.2371 21.796 11.0884 21.7979 10.9416 21.8052C10.5559 21.8255 10.363 21.8347 10.1985 21.8273C9.97202 21.8163 9.86409 21.7923 9.79685 21.8697C9.72078 21.9563 9.77031 22.0815 9.67477 22.1607C9.61814 22.2067 9.54915 22.2086 9.46954 22.2104C9.37752 22.2123 9.27138 22.1902 9.21122 22.1533C9.06436 22.0649 9.09621 21.8384 9.05374 21.3226C9.0272 20.9893 9.00952 21.0556 8.93697 20.422C8.92281 20.282 8.90158 20.1439 8.87152 20.0076C8.8432 19.8768 8.82374 19.8307 8.79366 19.6908C8.76711 19.5674 8.7459 19.4403 8.73174 19.315C8.7105 19.1345 8.65919 18.8048 8.54063 18.1583C8.54063 18.1583 8.30887 17.1232 8.46632 16.7806C8.51764 16.6701 8.59548 16.6388 8.59548 16.6388C8.61672 16.6296 8.63441 16.6296 8.71227 16.6314C8.83788 16.6369 8.89981 16.6388 8.99181 16.6535C9.11391 16.6719 9.10683 16.6848 9.15461 16.6811C9.23422 16.6756 9.30852 16.6425 9.36513 16.5872C9.45715 16.4933 9.4483 16.3514 9.45184 16.2317C9.45359 16.1765 9.45538 16.2188 9.63762 15.5023C9.78623 14.924 9.77209 14.9461 9.81456 14.8116C9.89771 14.5538 9.98263 14.3641 10.0729 14.1688C10.3984 13.4708 10.5594 13.1227 10.7417 12.8132C11.1062 12.1925 11.4512 11.7965 11.8811 11.301C12.3146 10.8019 12.6915 10.3727 13.293 9.93069C13.9335 9.46101 14.3157 9.35234 14.6165 9.32104C14.8058 9.30076 15.0818 9.27129 15.3861 9.39838C15.8868 9.60834 16.108 10.0983 16.3132 10.5477C16.6423 11.2697 16.6742 11.9125 16.6883 12.2662C16.7149 12.9219 16.6105 13.4063 16.5521 13.6715C16.3681 14.504 16.0443 15.0934 15.8532 15.169C15.832 15.1782 15.7329 15.2113 15.6957 15.2997C15.6692 15.3642 15.6869 15.4268 15.6922 15.4526C15.7417 15.681 15.5082 15.9867 15.4604 16.0494C15.2446 16.3312 14.9615 16.4104 14.8058 16.4546C14.7686 16.4656 14.2414 16.6075 14.144 16.427C14.1069 16.357 14.1529 16.2741 14.2219 16.1212L14.2219 16.1212Z" fill="#F87171"/>
<path d="M10.0481 12.9697C10.0499 13.0415 10.0463 13.1115 10.041 13.1833C10.0109 13.5554 9.89239 13.7764 9.73846 14.1448C9.57037 14.5481 9.47129 14.7839 9.38814 15.1246C9.33505 15.342 9.26606 15.5538 9.22713 15.7748C9.18112 16.0364 9.18291 16.1542 9.08912 16.215C8.98651 16.2813 8.90688 16.1856 8.59372 16.1782C8.43095 16.1745 8.30886 16.1966 8.185 16.2813C8.07 16.3605 8.00453 16.4545 7.98508 16.5042C7.95306 16.5821 7.93738 16.6663 7.93907 16.751C7.96209 17.694 7.95323 17.8285 7.91608 17.8874C7.85592 17.9832 7.65777 18.0329 7.35698 18.1471C7.24019 18.1913 6.93588 18.3037 6.36086 18.4124C6.01939 18.4768 5.76107 18.5266 5.39658 18.5376C5.14534 18.5487 4.89587 18.5376 4.6464 18.5026C4.358 18.4621 3.95282 18.405 3.5282 18.1674C3.3495 18.0679 2.72847 17.7198 2.43653 16.9554C2.23484 16.4268 2.28968 15.959 2.31799 15.7306C2.36573 15.3443 2.49634 14.9742 2.70016 14.6476C2.8364 14.4321 3.09295 14.0416 3.59012 13.8187C3.85552 13.7009 4.1439 13.6493 4.43232 13.6696C5.04803 13.7174 5.74161 14.1171 5.892 14.6973C5.9097 14.7636 5.99285 15.1191 5.81414 15.3788C5.78762 15.4175 5.70976 15.5317 5.62305 15.5206C5.53282 15.5096 5.50274 15.3751 5.37712 15.132C5.27273 14.9294 5.21966 14.8281 5.12765 14.7341C4.88348 14.4873 4.54555 14.4873 4.51016 14.4873C4.15277 14.4929 3.92453 14.7305 3.82897 14.8281C3.75644 14.9036 3.46627 15.2112 3.47512 15.6901C3.47689 15.7509 3.4875 16.1432 3.7759 16.4563C4.08377 16.7934 4.5031 16.8154 4.74018 16.8247C5.28337 16.8468 5.72037 16.6331 6.18571 16.3513C6.2315 16.3237 6.27692 16.2955 6.32195 16.2666C7.13762 15.7361 7.80819 15.1338 8.21519 14.7304C8.49474 14.4523 8.57789 14.3455 8.92115 14.0213C9.18832 13.769 9.22902 13.7469 9.38116 13.5811C9.51565 13.4337 9.6094 13.314 9.78988 13.163C9.87127 13.093 9.95796 13.0286 10.0482 12.9696L10.0481 12.9697ZM14.8818 18.4684C14.9154 18.4426 14.9862 18.4426 15.1348 18.4408C15.2392 18.439 15.1153 18.4408 15.3507 18.439C15.5134 18.4371 15.5382 18.4408 15.632 18.439C15.6762 18.4371 15.6886 18.4371 15.7735 18.4334C15.8302 18.4316 15.9098 18.4297 15.9646 18.4297C15.9912 18.4297 16.0124 18.4518 16.0124 18.4776V18.4795C16.0106 18.5863 16.0159 18.695 16.0106 18.8165C16.0089 18.87 16.0089 18.9234 16.0106 18.9749C16.0124 19.0179 16.0124 19.0609 16.0106 19.1039C16.0053 19.2199 16.0036 19.5109 16.0796 19.9438C16.0991 20.0543 16.1168 20.1445 16.1893 20.2237C16.2955 20.3398 16.4512 20.349 16.552 20.3563C16.7626 20.3711 16.9324 20.3029 17.1271 20.2237C17.3871 20.1169 17.4385 20.0469 17.5694 20.0672C17.6172 20.0745 17.7251 20.0985 17.8596 20.2569C17.9587 20.3729 18.0047 20.4834 18.0931 20.7008C18.1409 20.8131 18.1798 20.9273 18.2116 21.0471C18.2683 21.2644 18.2948 21.3731 18.2612 21.4449C18.1656 21.6438 17.6366 21.5278 17.5322 21.4596C17.4845 21.4283 17.4296 21.386 17.4296 21.386C17.3978 21.362 17.3712 21.3399 17.3535 21.3252C17.2881 21.2718 17.2403 21.2349 17.2244 21.2202C17.2155 21.2128 17.2049 21.2055 17.1961 21.1981C17.1908 21.1944 17.1855 21.1907 17.1784 21.187C17.1554 21.1741 17.1324 21.1631 17.1076 21.1557C17.0758 21.1428 17.0422 21.1318 17.0068 21.1263C16.9802 21.1207 16.9749 21.1244 16.8475 21.1226H16.7679C16.7502 21.1226 16.729 21.1244 16.6564 21.1336C16.5857 21.1428 16.5467 21.1465 16.5131 21.152L16.4016 21.1723C16.4016 21.1723 16.2353 21.2091 16.0955 21.2294C16.0354 21.2386 16.0266 21.2368 15.9752 21.246C15.9009 21.2607 15.8638 21.2662 15.8478 21.2791C15.7735 21.3381 15.8762 21.4928 15.8213 21.6051C15.7417 21.7617 15.3684 21.8004 15.2198 21.6328C15.1614 21.5683 15.1543 21.4891 15.1454 21.4099C15.1047 21.0489 15.0446 20.6916 15.0127 20.3306C14.9986 20.1648 14.9844 20.0101 14.9508 19.8001C14.9331 19.6859 14.8995 19.3581 14.8305 18.7042C14.8217 18.6398 14.8128 18.5219 14.8818 18.4685L14.8818 18.4684Z" fill="#F87171"/>
</svg>
