<svg width="24" height="25" viewBox="0 0 24 25" fill="none" xmlns="http://www.w3.org/2000/svg">
<path d="M11.2887 3.2001C11.2887 2.8135 11.6021 2.50011 11.9887 2.50011H13.8591C14.2457 2.50011 14.5591 2.81351 14.5591 3.20011V17.058C14.5591 17.3943 14.3199 17.684 13.9886 17.7415C12.5923 17.9842 11.4935 18.0835 10.312 18.0835C6.31956 18.0834 4.23849 16.2787 4.23849 12.8171C4.23849 9.48304 6.44711 7.31731 9.86589 7.31731C10.3967 7.31731 10.8002 7.35964 11.2887 7.48695L11.2887 3.2001ZM11.2888 10.6243C11.2888 10.323 11.0972 10.0459 10.8001 9.99586C10.6041 9.96287 10.4073 9.94995 10.1846 9.94995C8.52817 9.94995 7.57254 10.9693 7.57254 12.7529C7.57254 14.4944 8.48576 15.45 10.1633 15.45C10.3421 15.45 10.5053 15.4447 10.6813 15.4317C11.0305 15.406 11.2888 15.1041 11.2888 14.7539V10.6243Z" fill="#14B8A6"/>
<path d="M18.7618 7.55047C19.314 7.55046 19.7618 7.99818 19.7618 8.55047V15.1314C19.7618 17.7435 19.5707 18.9963 18.9974 20.0794C18.5223 21.0105 17.9113 21.6353 16.7539 22.2737C16.4844 22.4224 16.1591 22.4231 15.8811 22.2909L15.1939 21.9642C14.4315 21.6016 14.4513 20.515 15.0742 19.9451C15.4226 19.6265 15.6749 19.28 15.8755 18.869C16.3428 17.9347 16.4916 16.8516 16.4916 14.0061V8.5505C16.4916 7.99823 16.9393 7.55051 17.4915 7.5505L18.7618 7.55047ZM16.4916 3.51759C16.4916 2.96531 16.9393 2.51759 17.4916 2.51759H18.7618C19.3141 2.51759 19.7618 2.96531 19.7618 3.51759V4.8728C19.7618 5.42509 19.3141 5.8728 18.7618 5.8728H17.4916C16.9393 5.8728 16.4916 5.42509 16.4916 4.8728V3.51759Z" fill="#14B8A6"/>
</svg>
