<svg width="24" height="24" viewBox="0 0 24 24" fill="none" xmlns="http://www.w3.org/2000/svg">
<path fill-rule="evenodd" clip-rule="evenodd" d="M11.88 6.24001H21.96V10.32H11.88V6.24001Z" fill="white"/>
<path fill-rule="evenodd" clip-rule="evenodd" d="M2.75999 19.56C1.87223 19.56 1.09883 19.0768 0.683625 18.36C0.471644 18.7244 0.359976 19.1384 0.359985 19.56C0.359985 20.8855 1.43447 21.96 2.75999 21.96H5.15999V19.56H2.75999Z" fill="#4ADE80"/>
<path fill-rule="evenodd" clip-rule="evenodd" d="M13.5576 6.88512L21.96 6.36V5.16C21.96 3.83448 20.8855 2.76 19.56 2.76H8.75999L8.45999 2.2404C8.32655 2.0094 7.99331 2.0094 7.85999 2.2404L7.55999 2.76L7.25999 2.2404C7.12667 2.0094 6.79331 2.0094 6.65999 2.2404L6.35999 2.76L6.05999 2.2404C5.92667 2.0094 5.59331 2.0094 5.45999 2.2404L5.15999 2.76C5.15735 2.76 5.15495 2.76036 5.15219 2.76036L4.65515 2.26344C4.46675 2.07492 4.14491 2.16108 4.07579 2.41872L3.91151 3.0312L3.28847 2.86416C3.03071 2.79516 2.79515 3.03084 2.86427 3.28848L3.03107 3.91164L2.41883 4.07568C2.16107 4.1448 2.07479 4.46676 2.26331 4.65528L2.76035 5.15232C2.76035 5.15484 2.75999 5.15736 2.75999 5.16L2.24039 5.46C2.00939 5.59332 2.00939 5.92668 2.24039 6.06L2.75999 6.36L2.24039 6.66C2.00939 6.79332 2.00939 7.12668 2.24039 7.26L2.75999 7.56L2.24039 7.86C2.00939 7.99332 2.00939 8.32668 2.24039 8.46L2.75999 8.76L2.24039 9.06C2.00939 9.19332 2.00939 9.52668 2.24039 9.66L2.75999 9.96L2.24039 10.26C2.00939 10.3933 2.00939 10.7267 2.24039 10.86L2.75999 11.16L2.24039 11.46C2.00939 11.5933 2.00939 11.9267 2.24039 12.06L2.75999 12.36L2.24039 12.66C2.00939 12.7933 2.00939 13.1267 2.24039 13.26L2.75999 13.56L2.24039 13.86C2.00939 13.9933 2.00939 14.3267 2.24039 14.46L2.75999 14.76L2.24039 15.06C2.00939 15.1933 2.00939 15.5267 2.24039 15.66L2.75999 15.96L2.24039 16.26C2.00939 16.3933 2.00939 16.7267 2.24039 16.86L2.75999 17.16L2.24039 17.46C2.00939 17.5933 2.00939 17.9267 2.24039 18.06L2.75999 18.36L2.24039 18.66C2.00939 18.7933 2.00939 19.1267 2.24039 19.26L2.75999 19.56C2.75999 20.8855 3.83447 21.96 5.15999 21.96H19.56C20.8855 21.96 21.96 20.8855 21.96 19.56V9.96L13.5576 9.43488C13.2333 9.41458 12.9288 9.27143 12.7064 9.03458C12.4839 8.79772 12.36 8.48497 12.36 8.16C12.36 7.48548 12.8844 6.92724 13.5576 6.88512Z" fill="#4ADE80"/>
<path fill-rule="evenodd" clip-rule="evenodd" d="M17.16 21.96H20.76V17.16H17.16V21.96Z" fill="#4ADE80"/>
<path fill-rule="evenodd" clip-rule="evenodd" d="M23.16 18.96C23.1337 18.96 23.1086 18.9644 23.0833 18.9677C23.0787 18.9497 23.0744 18.9316 23.0694 18.9136C23.1973 18.8601 23.3027 18.764 23.3677 18.6416C23.4328 18.5192 23.4535 18.3781 23.4263 18.2422C23.399 18.1063 23.3256 17.984 23.2184 17.8961C23.1113 17.8082 22.977 17.7601 22.8384 17.76C22.7074 17.7605 22.5801 17.8042 22.4765 17.8843C22.4632 17.8708 22.4498 17.8573 22.4363 17.844C22.5147 17.7409 22.5573 17.6151 22.5576 17.4856C22.5575 17.3473 22.5097 17.2133 22.4222 17.1063C22.3348 16.9992 22.213 16.9257 22.0776 16.898C21.9421 16.8704 21.8013 16.8904 21.6789 16.9546C21.5564 17.0188 21.4599 17.1233 21.4057 17.2505C21.3879 17.2454 21.3701 17.2412 21.3523 17.2367C21.3555 17.2114 21.36 17.1863 21.36 17.16C21.36 17.0009 21.2968 16.8483 21.1842 16.7357C21.0717 16.6232 20.9191 16.56 20.76 16.56C20.6009 16.56 20.4482 16.6232 20.3357 16.7357C20.2232 16.8483 20.16 17.0009 20.16 17.16C20.16 17.1863 20.1644 17.2114 20.1677 17.2367C20.1499 17.2412 20.132 17.2454 20.1143 17.2505C20.0602 17.1231 19.9638 17.0183 19.8413 16.9539C19.7188 16.8895 19.5778 16.8694 19.4422 16.8971C19.3066 16.9248 19.1848 16.9985 19.0973 17.1057C19.0099 17.213 18.9622 17.3472 18.9624 17.4856C18.9624 17.6206 19.0085 17.7437 19.0837 17.844C18.6377 18.2798 18.36 18.8872 18.36 19.56C18.36 20.8855 19.4345 21.96 20.76 21.96C21.8807 21.96 22.8192 21.1908 23.0833 20.1523C23.1086 20.1556 23.1337 20.16 23.16 20.16C23.3191 20.16 23.4717 20.0968 23.5842 19.9843C23.6968 19.8717 23.76 19.7191 23.76 19.56C23.76 19.4009 23.6968 19.2483 23.5842 19.1357C23.4717 19.0232 23.3191 18.96 23.16 18.96Z" fill="#44D860"/>
<path fill-rule="evenodd" clip-rule="evenodd" d="M18.36 14.76H21.96V12.36H18.36V14.76Z" fill="#4ADE80"/>
<path fill-rule="evenodd" clip-rule="evenodd" d="M23.16 13.86C23.2395 13.86 23.3158 13.8284 23.3721 13.7721C23.4284 13.7159 23.46 13.6396 23.46 13.56C23.46 13.4804 23.4284 13.4041 23.3721 13.3479C23.3158 13.2916 23.2395 13.26 23.16 13.26C23.1469 13.26 23.1343 13.2623 23.1217 13.2638C23.1193 13.2548 23.1173 13.2458 23.1147 13.2368C23.1786 13.21 23.2312 13.162 23.2637 13.1008C23.2961 13.0396 23.3064 12.9691 23.2928 12.9012C23.2792 12.8333 23.2426 12.7722 23.189 12.7282C23.1355 12.6842 23.0684 12.6602 22.9992 12.66C22.9309 12.66 22.8686 12.6836 22.8182 12.7222C22.8116 12.7153 22.8049 12.7086 22.7981 12.702C22.8357 12.652 22.8588 12.5903 22.8588 12.5227C22.8588 12.4536 22.8349 12.3866 22.7911 12.333C22.7474 12.2795 22.6865 12.2427 22.6187 12.2289C22.551 12.2151 22.4805 12.2251 22.4193 12.2572C22.3581 12.2893 22.3099 12.3416 22.2828 12.4052C22.1777 12.3755 22.0691 12.3603 21.96 12.36C21.2973 12.36 20.76 12.8974 20.76 13.56C20.76 14.2226 21.2973 14.76 21.96 14.76C22.0721 14.76 22.1799 14.7434 22.2828 14.7148C22.3099 14.7784 22.3581 14.8307 22.4193 14.8628C22.4805 14.895 22.551 14.905 22.6187 14.8911C22.6865 14.8773 22.7474 14.8405 22.7911 14.787C22.8349 14.7334 22.8588 14.6664 22.8588 14.5973C22.8588 14.5297 22.8357 14.468 22.7981 14.418C22.8049 14.4114 22.8116 14.4047 22.8182 14.3978C22.8686 14.4364 22.9309 14.46 22.9992 14.46C23.0685 14.46 23.1357 14.436 23.1893 14.392C23.2429 14.3481 23.2797 14.2869 23.2933 14.2189C23.3069 14.151 23.2966 14.0804 23.264 14.0191C23.2315 13.9579 23.1787 13.9099 23.1147 13.8832C23.1173 13.8743 23.1193 13.8652 23.1217 13.8562C23.1343 13.8577 23.1469 13.86 23.16 13.86Z" fill="#44D860"/>
<path fill-rule="evenodd" clip-rule="evenodd" d="M7.55999 6.66C7.48042 6.66 7.40411 6.62839 7.34785 6.57213C7.29159 6.51587 7.25999 6.43957 7.25999 6.36C7.25999 5.86368 6.85631 5.46 6.35999 5.46C5.86367 5.46 5.45999 5.86368 5.45999 6.36C5.45999 6.43957 5.42838 6.51587 5.37212 6.57213C5.31586 6.62839 5.23955 6.66 5.15999 6.66C5.08042 6.66 5.00411 6.62839 4.94785 6.57213C4.89159 6.51587 4.85999 6.43957 4.85999 6.36C4.85999 5.53284 5.53283 4.86 6.35999 4.86C7.18715 4.86 7.85999 5.53284 7.85999 6.36C7.85999 6.43957 7.82838 6.51587 7.77212 6.57213C7.71586 6.62839 7.63955 6.66 7.55999 6.66Z" fill="black"/>
<path fill-rule="evenodd" clip-rule="evenodd" d="M12.36 21.96H19.56C20.8855 21.96 21.96 20.8855 21.96 19.56V11.16H14.76C13.4345 11.16 12.36 12.2345 12.36 13.56V21.96Z" fill="#FBBF24"/>
<path fill-rule="evenodd" clip-rule="evenodd" d="M20.1624 14.88H14.1576C14.1258 14.88 14.0952 14.8674 14.0727 14.8449C14.0502 14.8224 14.0376 14.7918 14.0376 14.76C14.0376 14.7282 14.0502 14.6977 14.0727 14.6752C14.0952 14.6527 14.1258 14.64 14.1576 14.64H20.1624C20.1942 14.64 20.2247 14.6527 20.2472 14.6752C20.2697 14.6977 20.2824 14.7282 20.2824 14.76C20.2824 14.7918 20.2697 14.8224 20.2472 14.8449C20.2247 14.8674 20.1942 14.88 20.1624 14.88ZM20.1624 17.28H14.1576C14.1258 17.28 14.0952 17.2674 14.0727 17.2449C14.0502 17.2224 14.0376 17.1918 14.0376 17.16C14.0376 17.1282 14.0502 17.0977 14.0727 17.0752C14.0952 17.0527 14.1258 17.04 14.1576 17.04H20.1624C20.1942 17.04 20.2247 17.0527 20.2472 17.0752C20.2697 17.0977 20.2824 17.1282 20.2824 17.16C20.2824 17.1918 20.2697 17.2224 20.2472 17.2449C20.2247 17.2674 20.1942 17.28 20.1624 17.28ZM20.1624 19.68H14.1576C14.1258 19.68 14.0952 19.6674 14.0727 19.6449C14.0502 19.6224 14.0376 19.5918 14.0376 19.56C14.0376 19.5282 14.0502 19.4977 14.0727 19.4752C14.0952 19.4527 14.1258 19.44 14.1576 19.44H20.1624C20.1942 19.44 20.2247 19.4527 20.2472 19.4752C20.2697 19.4977 20.2824 19.5282 20.2824 19.56C20.2824 19.5918 20.2697 19.6224 20.2472 19.6449C20.2247 19.6674 20.1942 19.68 20.1624 19.68ZM20.1624 13.7023H14.1576C14.1258 13.7023 14.0952 13.6897 14.0727 13.6672C14.0502 13.6447 14.0376 13.6142 14.0376 13.5823C14.0376 13.5505 14.0502 13.52 14.0727 13.4975C14.0952 13.475 14.1258 13.4623 14.1576 13.4623H20.1624C20.1942 13.4623 20.2247 13.475 20.2472 13.4975C20.2697 13.52 20.2824 13.5505 20.2824 13.5823C20.2824 13.6142 20.2697 13.6447 20.2472 13.6672C20.2247 13.6897 20.1942 13.7023 20.1624 13.7023ZM20.1624 16.08H14.1576C14.1258 16.08 14.0952 16.0674 14.0727 16.0449C14.0502 16.0224 14.0376 15.9918 14.0376 15.96C14.0376 15.9282 14.0502 15.8977 14.0727 15.8752C14.0952 15.8527 14.1258 15.84 14.1576 15.84H20.1624C20.1942 15.84 20.2247 15.8527 20.2472 15.8752C20.2697 15.8977 20.2824 15.9282 20.2824 15.96C20.2824 15.9918 20.2697 16.0224 20.2472 16.0449C20.2247 16.0674 20.1942 16.08 20.1624 16.08ZM20.1624 18.48H14.1576C14.1258 18.48 14.0952 18.4674 14.0727 18.4449C14.0502 18.4224 14.0376 18.3918 14.0376 18.36C14.0376 18.3282 14.0502 18.2977 14.0727 18.2752C14.0952 18.2527 14.1258 18.24 14.1576 18.24H20.1624C20.1942 18.24 20.2247 18.2527 20.2472 18.2752C20.2697 18.2977 20.2824 18.3282 20.2824 18.36C20.2824 18.3918 20.2697 18.4224 20.2472 18.4449C20.2247 18.4674 20.1942 18.48 20.1624 18.48ZM21.96 7.39333C21.9585 7.39333 21.9573 7.39261 21.9559 7.39273C21.5851 7.40533 21.4097 7.77625 21.2549 8.10349C21.0933 8.44549 20.9684 8.66785 20.7637 8.66113C20.537 8.65297 20.4074 8.39689 20.2701 8.12593C20.1125 7.81465 19.9325 7.46161 19.5546 7.47481C19.1891 7.48729 19.013 7.81009 18.8577 8.09485C18.6925 8.39821 18.5801 8.58265 18.3632 8.57413C18.132 8.56573 18.0091 8.35753 17.8669 8.11657C17.7084 7.84825 17.5251 7.54657 17.1546 7.55689C16.7953 7.56925 16.6188 7.84309 16.463 8.08489C16.2983 8.34049 16.1828 8.49625 15.9632 8.48701C15.7265 8.47861 15.6042 8.30581 15.4627 8.10577C15.3038 7.88101 15.1248 7.62661 14.7553 7.63897C14.4039 7.65097 14.2274 7.87537 14.0718 8.07313C13.9239 8.26081 13.8085 8.40937 13.5643 8.40001C13.5325 8.39886 13.5015 8.41041 13.4782 8.4321C13.4549 8.4538 13.4411 8.48386 13.44 8.51569C13.4388 8.54751 13.4504 8.57849 13.4721 8.60181C13.4938 8.62512 13.5238 8.63886 13.5557 8.64001C13.9177 8.65213 14.1011 8.42401 14.2603 8.22157C14.4015 8.04205 14.5235 7.88713 14.7635 7.87897C14.9946 7.86913 15.1029 8.01277 15.2669 8.24437C15.4225 8.46445 15.5991 8.71405 15.9546 8.72689C16.3269 8.73937 16.5061 8.46109 16.6647 8.21485C16.8066 7.99477 16.929 7.80481 17.1627 7.79677C17.3779 7.78873 17.495 7.95877 17.6601 8.23849C17.8158 8.50213 17.9921 8.80081 18.3546 8.81401C18.7296 8.82697 18.9107 8.49961 19.0685 8.20981C19.2051 7.95925 19.3341 7.72261 19.5627 7.71469C19.7779 7.70965 19.8901 7.90609 20.0561 8.23429C20.2111 8.54065 20.3869 8.88769 20.7551 8.90101L20.7753 8.90137C21.143 8.90137 21.3175 8.53237 21.4719 8.20609C21.6086 7.91689 21.738 7.64449 21.96 7.63333V7.39333Z" fill="black"/>
<path fill-rule="evenodd" clip-rule="evenodd" d="M9.95999 21.96H14.76V17.16H9.95999V21.96Z" fill="#4ADE80"/>
<path d="M20.9743 9.53216L12.5744 13.0582C12.4592 13.1066 12.4199 13.2207 12.4866 13.3131L14.2611 15.77C14.3278 15.8624 14.4753 15.8981 14.5906 15.8497L22.9905 12.3237C23.1057 12.2753 23.145 12.1612 23.0783 12.0688L21.3038 9.6119C21.237 9.51949 21.0895 9.48379 20.9743 9.53216Z" fill="#D8D8D8"/>
<path d="M15.2981 13.8915L15.0503 14.0401C15.0029 14.0685 14.9917 14.1343 15.0254 14.187L15.2014 14.4622C15.2351 14.5149 15.3009 14.5345 15.3484 14.506L15.5961 14.3575C15.6436 14.329 15.6547 14.2632 15.621 14.2105L15.445 13.9354C15.4113 13.8827 15.3455 13.863 15.2981 13.8915Z" fill="#4A4A4A"/>
<path d="M15.9688 13.7117L15.7211 13.8603C15.6736 13.8888 15.6625 13.9546 15.6962 14.0073L15.8722 14.2824C15.9059 14.3351 15.9717 14.3548 16.0191 14.3263L16.2669 14.1777C16.3143 14.1493 16.3255 14.0835 16.2918 14.0308L16.1158 13.7556C16.0821 13.7029 16.0163 13.6833 15.9688 13.7117Z" fill="#4A4A4A"/>
<path d="M16.6396 13.532L16.3919 13.6806C16.3444 13.7091 16.3333 13.7749 16.367 13.8276L16.5429 14.1027C16.5766 14.1554 16.6424 14.175 16.6899 14.1466L16.9377 13.998C16.9851 13.9695 16.9963 13.9037 16.9626 13.851L16.7866 13.5759C16.7529 13.5232 16.6871 13.5035 16.6396 13.532Z" fill="#4A4A4A"/>
<path d="M17.3104 13.3523L17.0626 13.5009C17.0152 13.5293 17.004 13.5951 17.0378 13.6478L17.2137 13.923C17.2474 13.9757 17.3132 13.9953 17.3607 13.9668L17.6084 13.8183C17.6559 13.7898 17.667 13.724 17.6333 13.6713L17.4574 13.3962C17.4237 13.3435 17.3579 13.3238 17.3104 13.3523Z" fill="#4A4A4A"/>
<path d="M17.9812 13.1725L17.7334 13.3211C17.686 13.3496 17.6748 13.4154 17.7085 13.4681L17.8845 13.7432C17.9182 13.7959 17.984 13.8156 18.0315 13.7871L18.2792 13.6385C18.3267 13.6101 18.3378 13.5443 18.3041 13.4916L18.1281 13.2164C18.0944 13.1637 18.0286 13.1441 17.9812 13.1725Z" fill="#4A4A4A"/>
<path d="M18.652 12.9928L18.4042 13.1414C18.3567 13.1699 18.3456 13.2357 18.3793 13.2884L18.5553 13.5635C18.589 13.6162 18.6548 13.6358 18.7022 13.6074L18.95 13.4588C18.9974 13.4303 19.0086 13.3645 18.9749 13.3118L18.7989 13.0367C18.7652 12.984 18.6994 12.9643 18.652 12.9928Z" fill="#4A4A4A"/>
<path d="M19.3227 12.8131L19.075 12.9617C19.0275 12.9901 19.0164 13.0559 19.0501 13.1086L19.226 13.3838C19.2598 13.4365 19.3256 13.4561 19.373 13.4276L19.6208 13.2791C19.6682 13.2506 19.6794 13.1848 19.6457 13.1321L19.4697 12.857C19.436 12.8043 19.3702 12.7846 19.3227 12.8131Z" fill="#4A4A4A"/>
<path d="M19.9935 12.6333L19.7458 12.7819C19.6983 12.8104 19.6871 12.8762 19.7209 12.9289L19.8968 13.204C19.9305 13.2567 19.9963 13.2764 20.0438 13.2479L20.2915 13.0993C20.339 13.0709 20.3501 13.0051 20.3164 12.9524L20.1405 12.6772C20.1068 12.6245 20.041 12.6049 19.9935 12.6333Z" fill="#4A4A4A"/>
<path d="M20.6643 12.4536L20.4165 12.6022C20.3691 12.6307 20.3579 12.6965 20.3916 12.7492L20.5676 13.0243C20.6013 13.077 20.6671 13.0966 20.7146 13.0682L20.9623 12.9196C21.0098 12.8911 21.0209 12.8253 20.9872 12.7726L20.8112 12.4975C20.7775 12.4448 20.7117 12.4251 20.6643 12.4536Z" fill="#4A4A4A"/>
<path fill-rule="evenodd" clip-rule="evenodd" d="M13.2968 14.562L14.6984 14.1616C14.7287 14.153 14.7642 14.1542 14.7972 14.165C14.8302 14.1758 14.8579 14.1953 14.8743 14.2192L15.0524 14.4792C15.0688 14.5031 15.0725 14.5295 15.0626 14.5525C15.0528 14.5756 15.0303 14.5934 15.0001 14.602L13.5985 15.0024C13.5682 15.0111 13.5327 15.0098 13.4997 14.999C13.4668 14.9882 13.439 14.9687 13.4226 14.9448L13.2445 14.6847C13.2281 14.6608 13.2244 14.6344 13.2342 14.6114C13.244 14.5884 13.2665 14.5706 13.2968 14.562L13.2968 14.562ZM21.0125 12.3578L22.4142 11.9574C22.4444 11.9487 22.48 11.9499 22.513 11.9607C22.5459 11.9715 22.5737 11.991 22.5901 12.015L22.7681 12.2749C22.7845 12.2989 22.7882 12.3252 22.7784 12.3483C22.7686 12.3713 22.7461 12.3891 22.7158 12.3977L21.314 12.7982C21.2838 12.8068 21.2483 12.8056 21.2153 12.7948C21.1823 12.784 21.1546 12.7645 21.1382 12.7406L20.96 12.4805C20.9436 12.4566 20.9399 12.4302 20.9498 12.4072C20.9596 12.3842 20.9821 12.3664 21.0123 12.3577L21.0125 12.3578Z" fill="#4A4A4A"/>
<path fill-rule="evenodd" clip-rule="evenodd" d="M12.9096 13.1854L13.3306 12.9558C13.3544 12.9428 13.3843 12.94 13.4137 12.9479C13.443 12.9559 13.4695 12.9739 13.4872 12.9982L13.68 13.2615C13.6977 13.2858 13.7053 13.3142 13.701 13.3405C13.6967 13.3668 13.6809 13.3889 13.6571 13.4019L13.2361 13.6315C13.2123 13.6445 13.1824 13.6473 13.153 13.6394C13.1236 13.6314 13.0971 13.6133 13.0794 13.5891L12.8867 13.3257C12.8689 13.3015 12.8614 13.2731 12.8657 13.2468C12.87 13.2205 12.8858 13.1984 12.9096 13.1854Z" fill="#4A4A4A"/>
<path d="M14.0305 12.7764L13.7852 12.9188C13.7382 12.946 13.7278 13.0118 13.762 13.0657L13.9404 13.3471C13.9746 13.401 14.0404 13.4226 14.0874 13.3953L14.3327 13.253C14.3797 13.2257 14.3901 13.1599 14.3559 13.106L14.1775 12.8246C14.1433 12.7707 14.0775 12.7491 14.0305 12.7764Z" fill="#4A4A4A"/>
<path d="M14.7013 12.5967L14.456 12.739C14.409 12.7663 14.3986 12.8321 14.4328 12.886L14.6112 13.1674C14.6454 13.2213 14.7112 13.2428 14.7582 13.2156L15.0035 13.0732C15.0505 13.046 15.0609 12.9802 15.0267 12.9263L14.8483 12.6449C14.8141 12.591 14.7483 12.5694 14.7013 12.5967Z" fill="#4A4A4A"/>
<path d="M15.3721 12.4169L15.1268 12.5593C15.0798 12.5866 15.0694 12.6524 15.1036 12.7063L15.282 12.9876C15.3161 13.0415 15.3819 13.0631 15.4289 13.0358L15.6742 12.8935C15.7212 12.8662 15.7316 12.8004 15.6975 12.7465L15.5191 12.4652C15.4849 12.4113 15.4191 12.3897 15.3721 12.4169Z" fill="#4A4A4A"/>
<path d="M16.0429 12.2372L15.7976 12.3796C15.7506 12.4068 15.7402 12.4726 15.7743 12.5265L15.9527 12.8079C15.9869 12.8618 16.0527 12.8834 16.0997 12.8561L16.345 12.7138C16.392 12.6865 16.4024 12.6207 16.3682 12.5668L16.1898 12.2854C16.1557 12.2315 16.0899 12.2099 16.0429 12.2372Z" fill="#4A4A4A"/>
<path d="M16.7136 12.0575L16.4683 12.1998C16.4213 12.2271 16.4109 12.2929 16.4451 12.3468L16.6235 12.6282C16.6577 12.6821 16.7235 12.7036 16.7705 12.6764L17.0158 12.534C17.0628 12.5068 17.0732 12.441 17.039 12.3871L16.8606 12.1057C16.8264 12.0518 16.7606 12.0302 16.7136 12.0575Z" fill="#4A4A4A"/>
<path d="M17.3844 11.8777L17.1391 12.0201C17.0921 12.0474 17.0817 12.1132 17.1159 12.1671L17.2943 12.4484C17.3285 12.5023 17.3943 12.5239 17.4413 12.4966L17.6866 12.3543C17.7336 12.327 17.744 12.2612 17.7098 12.2073L17.5314 11.926C17.4972 11.8721 17.4314 11.8505 17.3844 11.8777Z" fill="#4A4A4A"/>
<path d="M18.0552 11.698L17.8099 11.8404C17.7629 11.8676 17.7525 11.9334 17.7867 11.9873L17.9651 12.2687C17.9992 12.3226 18.065 12.3442 18.112 12.3169L18.3574 12.1746C18.4043 12.1473 18.4147 12.0815 18.3806 12.0276L18.2022 11.7462C18.168 11.6923 18.1022 11.6707 18.0552 11.698Z" fill="#4A4A4A"/>
<path d="M18.726 11.5183L18.4807 11.6606C18.4337 11.6879 18.4233 11.7537 18.4574 11.8076L18.6358 12.089C18.67 12.1429 18.7358 12.1644 18.7828 12.1372L19.0281 11.9948C19.0751 11.9676 19.0855 11.9018 19.0513 11.8479L18.8729 11.5665C18.8388 11.5126 18.773 11.491 18.726 11.5183Z" fill="#4A4A4A"/>
<path d="M19.3966 11.3386L19.1513 11.4809C19.1043 11.5082 19.0939 11.574 19.1281 11.6279L19.3065 11.9092C19.3407 11.9631 19.4065 11.9847 19.4535 11.9575L19.6988 11.8151C19.7458 11.7878 19.7562 11.722 19.722 11.6681L19.5436 11.3868C19.5094 11.3329 19.4436 11.3113 19.3966 11.3386Z" fill="#4A4A4A"/>
<path d="M20.0674 11.1588L19.8221 11.3012C19.7751 11.3284 19.7647 11.3942 19.7989 11.4481L19.9773 11.7295C20.0115 11.7834 20.0773 11.805 20.1243 11.7777L20.3696 11.6354C20.4166 11.6081 20.427 11.5423 20.3928 11.4884L20.2144 11.207C20.1802 11.1531 20.1144 11.1316 20.0674 11.1588Z" fill="#4A4A4A"/>
<path d="M20.7382 10.9791L20.4929 11.1214C20.4459 11.1487 20.4355 11.2145 20.4697 11.2684L20.6481 11.5498C20.6823 11.6037 20.7481 11.6253 20.795 11.598L21.0404 11.4556C21.0874 11.4284 21.0978 11.3626 21.0636 11.3087L20.8852 11.0273C20.851 10.9734 20.7852 10.9518 20.7382 10.9791Z" fill="#4A4A4A"/>
<path d="M21.409 10.7994L21.1637 10.9417C21.1167 10.969 21.1063 11.0348 21.1405 11.0887L21.3189 11.37C21.353 11.4239 21.4188 11.4455 21.4658 11.4183L21.7111 11.2759C21.7581 11.2486 21.7685 11.1828 21.7344 11.1289L21.556 10.8476C21.5218 10.7937 21.456 10.7721 21.409 10.7994Z" fill="#4A4A4A"/>
<path d="M22.0798 10.6196L21.8345 10.762C21.7875 10.7892 21.7771 10.855 21.8112 10.9089L21.9896 11.1903C22.0238 11.2442 22.0896 11.2658 22.1366 11.2385L22.3819 11.0962C22.4289 11.0689 22.4393 11.0031 22.4051 10.9492L22.2267 10.6678C22.1926 10.6139 22.1268 10.5924 22.0798 10.6196Z" fill="#4A4A4A"/>
<path fill-rule="evenodd" clip-rule="evenodd" d="M22.2053 10.4236L21.7842 10.6533C21.7603 10.6663 21.7305 10.6691 21.7011 10.6612C21.6717 10.6532 21.6452 10.6351 21.6275 10.6109L21.4347 10.3474C21.417 10.3232 21.4094 10.2948 21.4137 10.2685C21.418 10.2422 21.4338 10.2201 21.4576 10.2071L21.8787 9.97742C21.9025 9.96443 21.9324 9.9616 21.9618 9.96956C21.9912 9.97751 22.0176 9.9956 22.0354 10.0198L22.2282 10.2833C22.2459 10.3075 22.2535 10.3359 22.2492 10.3622C22.2449 10.3885 22.2291 10.4106 22.2053 10.4236Z" fill="#4A4A4A"/>
<path d="M21.0843 10.8326L21.3296 10.6903C21.3766 10.663 21.387 10.5972 21.3528 10.5433L21.1744 10.2619C21.1403 10.208 21.0745 10.1864 21.0275 10.2137L20.7821 10.3561C20.7351 10.3833 20.7248 10.4491 20.7589 10.503L20.9373 10.7844C20.9715 10.8383 21.0373 10.8599 21.0843 10.8326Z" fill="#4A4A4A"/>
<path d="M20.4135 11.0123L20.6588 10.87C20.7058 10.8427 20.7162 10.7769 20.682 10.723L20.5037 10.4417C20.4695 10.3878 20.4037 10.3662 20.3567 10.3935L20.1114 10.5358C20.0644 10.5631 20.054 10.6289 20.0882 10.6828L20.2665 10.9641C20.3007 11.018 20.3665 11.0396 20.4135 11.0123Z" fill="#4A4A4A"/>
<path d="M19.7427 11.1921L19.9881 11.0497C20.0351 11.0225 20.0454 10.9567 20.0113 10.9028L19.8329 10.6214C19.7987 10.5675 19.7329 10.5459 19.6859 10.5732L19.4406 10.7155C19.3936 10.7428 19.3832 10.8086 19.4174 10.8625L19.5958 11.1439C19.6299 11.1978 19.6957 11.2194 19.7427 11.1921Z" fill="#4A4A4A"/>
<path d="M19.072 11.3718L19.3173 11.2295C19.3643 11.2022 19.3747 11.1364 19.3405 11.0825L19.1621 10.8011C19.1279 10.7472 19.0621 10.7256 19.0151 10.7529L18.7698 10.8953C18.7228 10.9225 18.7124 10.9883 18.7466 11.0422L18.925 11.3236C18.9592 11.3775 19.025 11.3991 19.072 11.3718Z" fill="#4A4A4A"/>
<path d="M18.4012 11.5515L18.6465 11.4092C18.6935 11.3819 18.7039 11.3161 18.6697 11.2622L18.4913 10.9809C18.4572 10.927 18.3914 10.9054 18.3444 10.9327L18.099 11.075C18.052 11.1023 18.0417 11.1681 18.0758 11.222L18.2542 11.5033C18.2884 11.5572 18.3542 11.5788 18.4012 11.5515Z" fill="#4A4A4A"/>
<path d="M17.7304 11.7313L17.9757 11.5889C18.0227 11.5617 18.0331 11.4959 17.9989 11.442L17.8205 11.1606C17.7863 11.1067 17.7205 11.0851 17.6735 11.1124L17.4282 11.2547C17.3812 11.282 17.3708 11.3478 17.405 11.4017L17.5834 11.6831C17.6176 11.737 17.6834 11.7586 17.7304 11.7313Z" fill="#4A4A4A"/>
<path d="M17.0596 11.911L17.3049 11.7687C17.3519 11.7414 17.3623 11.6756 17.3281 11.6217L17.1497 11.3403C17.1156 11.2864 17.0498 11.2648 17.0028 11.2921L16.7575 11.4345C16.7105 11.4617 16.7001 11.5275 16.7342 11.5814L16.9126 11.8628C16.9468 11.9167 17.0126 11.9383 17.0596 11.911Z" fill="#4A4A4A"/>
<path d="M16.3888 12.0907L16.6341 11.9484C16.6811 11.9211 16.6915 11.8553 16.6574 11.8014L16.479 11.5201C16.4448 11.4662 16.379 11.4446 16.332 11.4719L16.0867 11.6142C16.0397 11.6415 16.0293 11.7073 16.0635 11.7612L16.2419 12.0425C16.276 12.0964 16.3418 12.118 16.3888 12.0907Z" fill="#4A4A4A"/>
<path d="M15.7181 12.2705L15.9634 12.1281C16.0104 12.1009 16.0208 12.0351 15.9866 11.9812L15.8082 11.6998C15.774 11.6459 15.7082 11.6243 15.6612 11.6516L15.4159 11.7939C15.3689 11.8212 15.3585 11.887 15.3927 11.9409L15.5711 12.2223C15.6053 12.2762 15.6711 12.2978 15.7181 12.2705Z" fill="#4A4A4A"/>
<path d="M15.0473 12.4502L15.2926 12.3079C15.3396 12.2806 15.35 12.2148 15.3158 12.1609L15.1374 11.8795C15.1032 11.8256 15.0374 11.804 14.9904 11.8313L14.7451 11.9737C14.6981 12.0009 14.6877 12.0667 14.7219 12.1206L14.9003 12.402C14.9345 12.4559 15.0003 12.4775 15.0473 12.4502Z" fill="#4A4A4A"/>
<path d="M14.3765 12.63L14.6218 12.4876C14.6688 12.4603 14.6792 12.3945 14.645 12.3406L14.4666 12.0593C14.4325 12.0054 14.3667 11.9838 14.3197 12.0111L14.0743 12.1534C14.0274 12.1807 14.017 12.2465 14.0511 12.3004L14.2295 12.5817C14.2637 12.6356 14.3295 12.6572 14.3765 12.63Z" fill="#4A4A4A"/>
<path d="M13.7057 12.8097L13.951 12.6673C13.998 12.6401 14.0084 12.5743 13.9743 12.5204L13.7959 12.239C13.7617 12.1851 13.6959 12.1635 13.6489 12.1908L13.4036 12.3332C13.3566 12.3604 13.3462 12.4262 13.3804 12.4801L13.5588 12.7615C13.5929 12.8154 13.6587 12.837 13.7057 12.8097Z" fill="#4A4A4A"/>
<path d="M13.0351 12.9894L13.2804 12.847C13.3274 12.8198 13.3378 12.754 13.3036 12.7001L13.1252 12.4187C13.091 12.3648 13.0252 12.3432 12.9782 12.3705L12.7329 12.5129C12.6859 12.5401 12.6755 12.6059 12.7097 12.6598L12.8881 12.9412C12.9223 12.9951 12.9881 13.0167 13.0351 12.9894Z" fill="#4A4A4A"/>
<path d="M21.0843 10.8326L21.3296 10.6903C21.3766 10.663 21.387 10.5972 21.3528 10.5433L21.1744 10.2619C21.1403 10.208 21.0745 10.1864 21.0275 10.2137L20.7821 10.3561C20.7351 10.3833 20.7248 10.4491 20.7589 10.503L20.9373 10.7844C20.9715 10.8383 21.0373 10.8599 21.0843 10.8326Z" fill="#4A4A4A"/>
<path d="M20.4135 11.0123L20.6588 10.87C20.7058 10.8427 20.7162 10.7769 20.682 10.723L20.5037 10.4417C20.4695 10.3878 20.4037 10.3662 20.3567 10.3935L20.1114 10.5358C20.0644 10.5631 20.054 10.6289 20.0882 10.6828L20.2665 10.9641C20.3007 11.018 20.3665 11.0396 20.4135 11.0123Z" fill="#4A4A4A"/>
<path d="M19.7427 11.1921L19.9881 11.0497C20.0351 11.0225 20.0454 10.9567 20.0113 10.9028L19.8329 10.6214C19.7987 10.5675 19.7329 10.5459 19.6859 10.5732L19.4406 10.7155C19.3936 10.7428 19.3832 10.8086 19.4174 10.8625L19.5958 11.1439C19.6299 11.1978 19.6957 11.2194 19.7427 11.1921Z" fill="#4A4A4A"/>
<path d="M19.072 11.3718L19.3173 11.2295C19.3643 11.2022 19.3747 11.1364 19.3405 11.0825L19.1621 10.8011C19.1279 10.7472 19.0621 10.7256 19.0151 10.7529L18.7698 10.8953C18.7228 10.9225 18.7124 10.9883 18.7466 11.0422L18.925 11.3236C18.9592 11.3775 19.025 11.3991 19.072 11.3718Z" fill="#4A4A4A"/>
<path d="M18.4012 11.5515L18.6465 11.4092C18.6935 11.3819 18.7039 11.3161 18.6697 11.2622L18.4913 10.9809C18.4572 10.927 18.3914 10.9054 18.3444 10.9327L18.099 11.075C18.052 11.1023 18.0417 11.1681 18.0758 11.222L18.2542 11.5033C18.2884 11.5572 18.3542 11.5788 18.4012 11.5515Z" fill="#4A4A4A"/>
<path d="M17.7304 11.7313L17.9757 11.5889C18.0227 11.5617 18.0331 11.4959 17.9989 11.442L17.8205 11.1606C17.7863 11.1067 17.7205 11.0851 17.6735 11.1124L17.4282 11.2547C17.3812 11.282 17.3708 11.3478 17.405 11.4017L17.5834 11.6831C17.6176 11.737 17.6834 11.7586 17.7304 11.7313Z" fill="#4A4A4A"/>
<path d="M17.0596 11.911L17.3049 11.7687C17.3519 11.7414 17.3623 11.6756 17.3281 11.6217L17.1497 11.3403C17.1156 11.2864 17.0498 11.2648 17.0028 11.2921L16.7575 11.4345C16.7105 11.4617 16.7001 11.5275 16.7342 11.5814L16.9126 11.8628C16.9468 11.9167 17.0126 11.9383 17.0596 11.911Z" fill="#4A4A4A"/>
<path d="M16.3888 12.0907L16.6341 11.9484C16.6811 11.9211 16.6915 11.8553 16.6574 11.8014L16.479 11.5201C16.4448 11.4662 16.379 11.4446 16.332 11.4719L16.0867 11.6142C16.0397 11.6415 16.0293 11.7073 16.0635 11.7612L16.2419 12.0425C16.276 12.0964 16.3418 12.118 16.3888 12.0907Z" fill="#4A4A4A"/>
<path d="M15.7181 12.2705L15.9634 12.1281C16.0104 12.1009 16.0208 12.0351 15.9866 11.9812L15.8082 11.6998C15.774 11.6459 15.7082 11.6243 15.6612 11.6516L15.4159 11.7939C15.3689 11.8212 15.3585 11.887 15.3927 11.9409L15.5711 12.2223C15.6053 12.2762 15.6711 12.2978 15.7181 12.2705Z" fill="#4A4A4A"/>
<path d="M15.0473 12.4502L15.2926 12.3079C15.3396 12.2806 15.35 12.2148 15.3158 12.1609L15.1374 11.8795C15.1032 11.8256 15.0374 11.804 14.9904 11.8313L14.7451 11.9737C14.6981 12.0009 14.6877 12.0667 14.7219 12.1206L14.9003 12.402C14.9345 12.4559 15.0003 12.4775 15.0473 12.4502Z" fill="#4A4A4A"/>
<path d="M14.3765 12.63L14.6218 12.4876C14.6688 12.4603 14.6792 12.3945 14.645 12.3406L14.4666 12.0593C14.4325 12.0054 14.3667 11.9838 14.3197 12.0111L14.0743 12.1534C14.0274 12.1807 14.017 12.2465 14.0511 12.3004L14.2295 12.5817C14.2637 12.6356 14.3295 12.6572 14.3765 12.63Z" fill="#4A4A4A"/>
<path d="M13.7057 12.8097L13.951 12.6673C13.998 12.6401 14.0084 12.5743 13.9743 12.5204L13.7959 12.239C13.7617 12.1851 13.6959 12.1635 13.6489 12.1908L13.4036 12.3332C13.3566 12.3604 13.3462 12.4262 13.3804 12.4801L13.5588 12.7615C13.5929 12.8154 13.6587 12.837 13.7057 12.8097Z" fill="#4A4A4A"/>
<path d="M13.0351 12.9894L13.2804 12.847C13.3274 12.8198 13.3378 12.754 13.3036 12.7001L13.1252 12.4187C13.091 12.3648 13.0252 12.3432 12.9782 12.3705L12.7329 12.5129C12.6859 12.5401 12.6755 12.6059 12.7097 12.6598L12.8881 12.9412C12.9223 12.9951 12.9881 13.0167 13.0351 12.9894Z" fill="#4A4A4A"/>
<path fill-rule="evenodd" clip-rule="evenodd" d="M13.0936 13.8878L13.7218 13.5641C13.7467 13.5513 13.778 13.5479 13.8088 13.5547C13.8395 13.5616 13.8672 13.5781 13.8858 13.6006L14.0874 13.8456C14.1059 13.8681 14.1138 13.8949 14.1093 13.9199C14.1047 13.9449 14.0882 13.9662 14.0632 13.979L13.435 14.3028C13.4101 14.3156 13.3788 14.319 13.348 14.3121C13.3173 14.3053 13.2896 14.2888 13.271 14.2662L13.0695 14.0214C13.051 13.9988 13.0431 13.9721 13.0476 13.9471C13.0521 13.922 13.0687 13.9008 13.0936 13.8879L13.0936 13.8878Z" fill="#4A4A4A"/>
<path d="M14.4422 13.3789L14.2114 13.5191C14.1672 13.5459 14.1613 13.6117 14.1983 13.666L14.3913 13.9496C14.4282 14.0039 14.494 14.0262 14.5382 13.9993L14.769 13.8592C14.8132 13.8323 14.8191 13.7665 14.7821 13.7122L14.5891 13.4286C14.5522 13.3743 14.4864 13.3521 14.4422 13.3789Z" fill="#4A4A4A"/>
<path d="M15.113 13.1992L14.8822 13.3393C14.838 13.3662 14.8321 13.432 14.8691 13.4863L15.062 13.7699C15.099 13.8242 15.1648 13.8464 15.209 13.8196L15.4398 13.6794C15.484 13.6526 15.4898 13.5868 15.4529 13.5325L15.2599 13.2489C15.223 13.1946 15.1572 13.1723 15.113 13.1992Z" fill="#4A4A4A"/>
<path d="M15.7837 13.0194L15.553 13.1596C15.5088 13.1864 15.5029 13.2522 15.5399 13.3066L15.7328 13.5901C15.7698 13.6444 15.8356 13.6667 15.8798 13.6399L16.1105 13.4997C16.1547 13.4729 16.1606 13.4071 16.1237 13.3527L15.9307 13.0692C15.8937 13.0149 15.8279 12.9926 15.7837 13.0194Z" fill="#4A4A4A"/>
<path d="M16.4545 12.8397L16.2237 12.9799C16.1795 13.0067 16.1737 13.0725 16.2106 13.1268L16.4036 13.4104C16.4406 13.4647 16.5064 13.487 16.5506 13.4601L16.7813 13.32C16.8255 13.2931 16.8314 13.2273 16.7944 13.173L16.6015 12.8894C16.5645 12.8351 16.4987 12.8129 16.4545 12.8397Z" fill="#4A4A4A"/>
<path d="M17.1253 12.66L16.8945 12.8001C16.8503 12.827 16.8444 12.8928 16.8814 12.9471L17.0744 13.2307C17.1113 13.285 17.1771 13.3072 17.2213 13.2804L17.4521 13.1402C17.4963 13.1134 17.5022 13.0476 17.4652 12.9933L17.2723 12.7097C17.2353 12.6554 17.1695 12.6331 17.1253 12.66Z" fill="#4A4A4A"/>
<path d="M17.7961 12.4802L17.5653 12.6204C17.5211 12.6472 17.5152 12.713 17.5522 12.7674L17.7451 13.0509C17.7821 13.1052 17.8479 13.1275 17.8921 13.1007L18.1229 12.9605C18.1671 12.9337 18.1729 12.8679 18.136 12.8135L17.943 12.53C17.9061 12.4757 17.8403 12.4534 17.7961 12.4802Z" fill="#4A4A4A"/>
<path d="M18.4668 12.3005L18.2361 12.4406C18.1919 12.4675 18.186 12.5333 18.223 12.5876L18.4159 12.8712C18.4529 12.9255 18.5187 12.9478 18.5629 12.9209L18.7936 12.7808C18.8379 12.7539 18.8437 12.6881 18.8068 12.6338L18.6138 12.3502C18.5768 12.2959 18.511 12.2736 18.4668 12.3005Z" fill="#4A4A4A"/>
<path d="M19.1375 12.1208L18.9067 12.2609C18.8625 12.2878 18.8567 12.3536 18.8936 12.4079L19.0866 12.6915C19.1235 12.7458 19.1893 12.7681 19.2335 12.7412L19.4643 12.6011C19.5085 12.5742 19.5144 12.5084 19.4774 12.4541L19.2845 12.1705C19.2475 12.1162 19.1817 12.0939 19.1375 12.1208Z" fill="#4A4A4A"/>
<path d="M19.8083 11.9411L19.5775 12.0812C19.5333 12.1081 19.5274 12.1739 19.5644 12.2282L19.7574 12.5117C19.7943 12.5661 19.8601 12.5883 19.9043 12.5615L20.1351 12.4213C20.1793 12.3945 20.1852 12.3287 20.1482 12.2744L19.9552 11.9908C19.9183 11.9365 19.8525 11.9142 19.8083 11.9411Z" fill="#4A4A4A"/>
<path d="M20.479 11.7613L20.2483 11.9015C20.2041 11.9283 20.1982 11.9941 20.2352 12.0484L20.4281 12.332C20.4651 12.3863 20.5309 12.4086 20.5751 12.3817L20.8059 12.2416C20.8501 12.2147 20.8559 12.1489 20.819 12.0946L20.626 11.8111C20.589 11.7567 20.5232 11.7345 20.479 11.7613Z" fill="#4A4A4A"/>
<path d="M21.1498 11.5816L20.9191 11.7217C20.8749 11.7486 20.869 11.8144 20.9059 11.8687L21.0989 12.1523C21.1359 12.2066 21.2017 12.2289 21.2459 12.202L21.4766 12.0619C21.5208 12.035 21.5267 11.9692 21.4897 11.9149L21.2968 11.6313C21.2598 11.577 21.194 11.5547 21.1498 11.5816Z" fill="#4A4A4A"/>
<path fill-rule="evenodd" clip-rule="evenodd" d="M21.6243 11.5978L22.2145 11.2897C22.2393 11.2767 22.2703 11.2734 22.3009 11.2803C22.3314 11.2872 22.3589 11.3039 22.3773 11.3266L22.5773 11.5738C22.5957 11.5966 22.6035 11.6235 22.599 11.6487C22.5945 11.674 22.5781 11.6954 22.5533 11.7083L21.963 12.0165C21.9382 12.0294 21.9072 12.0328 21.8766 12.0259C21.8461 12.0189 21.8186 12.0023 21.8002 11.9795L21.6002 11.7324C21.5818 11.7097 21.574 11.6828 21.5785 11.6575C21.5831 11.6323 21.5995 11.6109 21.6243 11.5979L21.6243 11.5978Z" fill="#4A4A4A"/>
<path d="M13.7006 15.0665L13.4553 15.2089C13.4083 15.2362 13.3979 15.302 13.4321 15.3559L13.6105 15.6372C13.6446 15.6911 13.7104 15.7126 13.7574 15.6854L14.0028 15.543C14.0498 15.5157 14.0602 15.4499 14.026 15.396L13.8476 15.1147C13.8134 15.0608 13.7476 15.0392 13.7006 15.0665Z" fill="#4A4A4A"/>
<path d="M14.3714 14.8868L14.1261 15.0292C14.0791 15.0564 14.0687 15.1222 14.1029 15.1761L14.2812 15.4574C14.3154 15.5113 14.3812 15.5329 14.4282 15.5056L14.6735 15.3632C14.7205 15.3359 14.7309 15.2701 14.6968 15.2162L14.5184 14.9349C14.4842 14.881 14.4184 14.8595 14.3714 14.8868Z" fill="#4A4A4A"/>
<path d="M15.0422 14.707L14.7969 14.8494C14.7499 14.8767 14.7395 14.9425 14.7736 14.9964L14.952 15.2777C14.9862 15.3316 15.052 15.3532 15.099 15.3259L15.3443 15.1835C15.3913 15.1562 15.4017 15.0904 15.3675 15.0365L15.1892 14.7552C15.155 14.7013 15.0892 14.6797 15.0422 14.707Z" fill="#4A4A4A"/>
<path d="M15.713 14.5273L15.4676 14.6697C15.4206 14.697 15.4102 14.7628 15.4444 14.8167L15.6228 15.098C15.657 15.1519 15.7228 15.1734 15.7698 15.1462L16.0151 15.0038C16.0621 14.9765 16.0725 14.9107 16.0383 14.8568L15.8599 14.5755C15.8258 14.5216 15.76 14.5 15.713 14.5273Z" fill="#4A4A4A"/>
<path fill-rule="evenodd" clip-rule="evenodd" d="M16.1633 14.5816L19.2284 13.5887C19.2576 13.5793 19.2934 13.5788 19.328 13.5874C19.3626 13.596 19.3931 13.613 19.4128 13.6347L19.6272 13.8701C19.6469 13.8918 19.6542 13.9163 19.6475 13.9383C19.6408 13.9603 19.6206 13.978 19.5914 13.9874L16.5263 14.9803C16.4971 14.9898 16.4613 14.9902 16.4267 14.9816C16.3921 14.973 16.3616 14.956 16.3419 14.9343L16.1275 14.6989C16.1078 14.6772 16.1005 14.6527 16.1072 14.6307C16.1139 14.6087 16.1341 14.591 16.1633 14.5816ZM19.548 13.4852L19.9451 13.3565C19.9743 13.3471 20.0101 13.3466 20.0447 13.3552C20.0793 13.3639 20.1098 13.3809 20.1295 13.4025L20.3439 13.638C20.3636 13.6596 20.3709 13.6842 20.3642 13.7061C20.3575 13.7281 20.3374 13.7458 20.3082 13.7553L19.911 13.8839C19.8818 13.8934 19.846 13.8938 19.8114 13.8852C19.7768 13.8766 19.7463 13.8596 19.7266 13.8379L19.5122 13.6025C19.4925 13.5808 19.4852 13.5563 19.4919 13.5343C19.4986 13.5123 19.5188 13.4946 19.548 13.4852Z" fill="#4A4A4A"/>
<path d="M20.7018 13.1905L20.4564 13.3329C20.4094 13.3602 20.399 13.426 20.4332 13.4799L20.6116 13.7612C20.6458 13.8151 20.7116 13.8367 20.7586 13.8094L21.0039 13.667C21.0509 13.6397 21.0613 13.5739 21.0271 13.52L20.8487 13.2387C20.8146 13.1848 20.7488 13.1633 20.7018 13.1905Z" fill="#4A4A4A"/>
<path d="M21.3725 13.0108L21.1272 13.1532C21.0802 13.1805 21.0698 13.2463 21.104 13.3002L21.2824 13.5815C21.3165 13.6354 21.3823 13.657 21.4293 13.6297L21.6747 13.4873C21.7217 13.46 21.7321 13.3942 21.6979 13.3403L21.5195 13.059C21.4853 13.0051 21.4195 12.9835 21.3725 13.0108Z" fill="#4A4A4A"/>
<path d="M22.6302 12.6738L22.3849 12.8162C22.3379 12.8435 22.3275 12.9093 22.3616 12.9632L22.54 13.2445C22.5742 13.2984 22.64 13.32 22.687 13.2927L22.9323 13.1503C22.9793 13.123 22.9897 13.0572 22.9556 13.0033L22.7772 12.722C22.743 12.6681 22.6772 12.6465 22.6302 12.6738Z" fill="#4A4A4A"/>
<path d="M21.8239 13.1857L21.7444 13.0968C21.7249 13.0749 21.7165 13.0492 21.721 13.0252C21.7256 13.0013 21.7427 12.9811 21.7686 12.969L22.0505 12.8383C22.0765 12.8263 22.1091 12.8234 22.1412 12.8304C22.1734 12.8373 22.2024 12.8535 22.2219 12.8753L22.3014 12.9643L21.8239 13.1857Z" fill="#4A4A4A"/>
<path d="M22.2355 13.1178L22.315 13.2068C22.3345 13.2286 22.3429 13.2543 22.3384 13.2783C22.3339 13.3022 22.3167 13.3225 22.2908 13.3345L22.0089 13.4652C21.9829 13.4772 21.9503 13.4801 21.9182 13.4732C21.886 13.4662 21.857 13.45 21.8375 13.4282L21.758 13.3392L22.2355 13.1178Z" fill="#4A4A4A"/>
<path d="M21.8851 9.64575L12.7287 12.1382C12.6594 12.157 12.6241 12.2212 12.6497 12.2815C12.6753 12.3418 12.7523 12.3753 12.8215 12.3565L21.978 9.86405C22.0472 9.8452 22.0826 9.78104 22.057 9.72076C22.0313 9.66048 21.9544 9.6269 21.8851 9.64575Z" fill="#4A4A4A"/>
<path opacity="0.136" d="M13.2539 12.0078L12.9221 12.1383C12.8796 12.155 12.8649 12.195 12.8892 12.2277L12.8893 12.2278C12.9136 12.2605 12.9678 12.2734 13.0103 12.2567L13.342 12.1262C13.3845 12.1095 13.3993 12.0695 13.3749 12.0368L13.3749 12.0367C13.3505 12.004 13.2964 11.9911 13.2539 12.0078Z" fill="#D8D8D8"/>
<path opacity="0.136" d="M13.9776 11.8139L13.6459 11.9443C13.6034 11.9611 13.5886 12.0011 13.613 12.0338L13.613 12.0339C13.6374 12.0666 13.6916 12.0795 13.7341 12.0628L14.0658 11.9323C14.1083 11.9156 14.123 11.8756 14.0987 11.8429L14.0986 11.8428C14.0743 11.8101 14.0201 11.7972 13.9776 11.8139Z" fill="#D8D8D8"/>
<path opacity="0.136" d="M14.5345 11.6647L14.2027 11.7951C14.1602 11.8118 14.1455 11.8519 14.1698 11.8846L14.1699 11.8847C14.1942 11.9173 14.2484 11.9303 14.2909 11.9136L14.6227 11.7831C14.6652 11.7664 14.6799 11.7263 14.6555 11.6937L14.6555 11.6936C14.6311 11.6609 14.577 11.6479 14.5345 11.6647Z" fill="#D8D8D8"/>
<path opacity="0.136" d="M15.0912 11.5155L14.7594 11.646C14.7169 11.6627 14.7022 11.7027 14.7265 11.7354L14.7266 11.7355C14.7509 11.7682 14.8051 11.7811 14.8476 11.7644L15.1794 11.6339C15.2219 11.6172 15.2366 11.5772 15.2122 11.5445L15.2122 11.5444C15.1878 11.5117 15.1337 11.4988 15.0912 11.5155Z" fill="#D8D8D8"/>
<path opacity="0.136" d="M15.648 11.3663L15.3163 11.4968C15.2738 11.5135 15.259 11.5535 15.2834 11.5862L15.2834 11.5863C15.3078 11.619 15.362 11.6319 15.4045 11.6152L15.7362 11.4847C15.7787 11.468 15.7934 11.428 15.7691 11.3953L15.769 11.3952C15.7447 11.3625 15.6905 11.3496 15.648 11.3663Z" fill="#D8D8D8"/>
<path opacity="0.136" d="M16.3439 11.1798L16.0122 11.3103C15.9697 11.327 15.955 11.367 15.9793 11.3997L15.9794 11.3998C16.0037 11.4325 16.0579 11.4454 16.1004 11.4287L16.4321 11.2983C16.4746 11.2815 16.4894 11.2415 16.465 11.2088L16.465 11.2087C16.4406 11.176 16.3864 11.1631 16.3439 11.1798Z" fill="#D8D8D8"/>
<path opacity="0.136" d="M16.9006 11.0306L16.5689 11.1611C16.5264 11.1778 16.5117 11.2179 16.536 11.2506L16.5361 11.2506C16.5604 11.2833 16.6146 11.2963 16.6571 11.2796L16.9888 11.1491C17.0313 11.1324 17.0461 11.0923 17.0217 11.0596L17.0217 11.0596C16.9973 11.0269 16.9431 11.0139 16.9006 11.0306Z" fill="#D8D8D8"/>
<path opacity="0.136" d="M17.4575 10.8814L17.1257 11.0119C17.0832 11.0286 17.0685 11.0687 17.0929 11.1014L17.0929 11.1014C17.1173 11.1341 17.1714 11.1471 17.2139 11.1304L17.5457 10.9999C17.5882 10.9832 17.6029 10.9431 17.5786 10.9104L17.5785 10.9104C17.5542 10.8777 17.5 10.8647 17.4575 10.8814Z" fill="#D8D8D8"/>
<path opacity="0.136" d="M18.0142 10.7323L17.6825 10.8627C17.64 10.8795 17.6253 10.9195 17.6496 10.9522L17.6497 10.9523C17.674 10.985 17.7282 10.9979 17.7707 10.9812L18.1024 10.8507C18.1449 10.834 18.1596 10.794 18.1353 10.7613L18.1352 10.7612C18.1109 10.7285 18.0567 10.7156 18.0142 10.7323Z" fill="#D8D8D8"/>
<path opacity="0.136" d="M18.7103 10.5458L18.3785 10.6762C18.336 10.6929 18.3213 10.733 18.3456 10.7657L18.3457 10.7658C18.37 10.7984 18.4242 10.8114 18.4667 10.7947L18.7985 10.6642C18.841 10.6475 18.8557 10.6074 18.8314 10.5748L18.8313 10.5747C18.807 10.542 18.7528 10.529 18.7103 10.5458Z" fill="#D8D8D8"/>
<path opacity="0.136" d="M19.267 10.3966L18.9352 10.5271C18.8927 10.5438 18.878 10.5838 18.9023 10.6165L18.9024 10.6166C18.9267 10.6493 18.9809 10.6622 19.0234 10.6455L19.3552 10.515C19.3977 10.4983 19.4124 10.4583 19.3881 10.4256L19.388 10.4255C19.3637 10.3928 19.3095 10.3799 19.267 10.3966Z" fill="#D8D8D8"/>
<path opacity="0.136" d="M19.8238 10.2474L19.4921 10.3778C19.4496 10.3946 19.4349 10.4346 19.4592 10.4673L19.4593 10.4674C19.4836 10.5001 19.5378 10.513 19.5803 10.4963L19.912 10.3658C19.9545 10.3491 19.9692 10.3091 19.9449 10.2764L19.9448 10.2763C19.9205 10.2436 19.8663 10.2307 19.8238 10.2474Z" fill="#D8D8D8"/>
<path opacity="0.136" d="M20.5198 10.0609L20.188 10.1914C20.1455 10.2081 20.1308 10.2481 20.1551 10.2808L20.1552 10.2809C20.1795 10.3136 20.2337 10.3265 20.2762 10.3098L20.6079 10.1794C20.6504 10.1626 20.6652 10.1226 20.6408 10.0899L20.6408 10.0898C20.6164 10.0571 20.5623 10.0442 20.5198 10.0609Z" fill="#D8D8D8"/>
<path opacity="0.136" d="M21.0765 9.91173L20.7447 10.0422C20.7022 10.0589 20.6875 10.099 20.7119 10.1316L20.7119 10.1317C20.7362 10.1644 20.7904 10.1774 20.8329 10.1606L21.1647 10.0302C21.2072 10.0135 21.2219 9.97342 21.1976 9.94073L21.1975 9.94065C21.1732 9.90796 21.119 9.89502 21.0765 9.91173Z" fill="#D8D8D8"/>
<path opacity="0.136" d="M21.6333 9.76253L21.3016 9.893C21.2591 9.90971 21.2443 9.94976 21.2687 9.98245L21.2687 9.98253C21.2931 10.0152 21.3473 10.0282 21.3898 10.0114L21.7215 9.88097C21.764 9.86426 21.7787 9.82422 21.7544 9.79153L21.7543 9.79145C21.73 9.75876 21.6758 9.74582 21.6333 9.76253Z" fill="#D8D8D8"/>
<path fill-rule="evenodd" clip-rule="evenodd" d="M17.16 18.96C17.1337 18.96 17.1086 18.9644 17.0833 18.9677C17.0787 18.9497 17.0744 18.9316 17.0694 18.9136C17.1973 18.8601 17.3027 18.764 17.3677 18.6416C17.4328 18.5192 17.4535 18.3781 17.4263 18.2422C17.399 18.1063 17.3256 17.984 17.2184 17.8961C17.1113 17.8082 16.977 17.7601 16.8384 17.76C16.7074 17.7605 16.5801 17.8042 16.4765 17.8843C16.4632 17.8708 16.4498 17.8573 16.4363 17.844C16.5147 17.7409 16.5573 17.6151 16.5576 17.4856C16.5575 17.3473 16.5097 17.2133 16.4222 17.1063C16.3348 16.9992 16.213 16.9257 16.0776 16.898C15.9421 16.8704 15.8013 16.8904 15.6789 16.9546C15.5564 17.0188 15.4599 17.1233 15.4057 17.2505C15.3879 17.2454 15.3701 17.2412 15.3523 17.2367C15.3555 17.2114 15.36 17.1863 15.36 17.16C15.36 17.0009 15.2968 16.8483 15.1842 16.7357C15.0717 16.6232 14.9191 16.56 14.76 16.56C14.6009 16.56 14.4482 16.6232 14.3357 16.7357C14.2232 16.8483 14.16 17.0009 14.16 17.16C14.16 17.1863 14.1644 17.2114 14.1677 17.2367C14.1499 17.2412 14.132 17.2454 14.1143 17.2505C14.0602 17.1231 13.9638 17.0183 13.8413 16.9539C13.7188 16.8895 13.5778 16.8694 13.4422 16.8971C13.3066 16.9248 13.1848 16.9985 13.0973 17.1057C13.0099 17.213 12.9622 17.3472 12.9624 17.4856C12.9624 17.6206 13.0085 17.7437 13.0837 17.844C12.6377 18.2798 12.36 18.8872 12.36 19.56C12.36 20.8855 13.4345 21.96 14.76 21.96C15.8807 21.96 16.8192 21.1908 17.0833 20.1523C17.1086 20.1556 17.1337 20.16 17.16 20.16C17.3191 20.16 17.4717 20.0968 17.5842 19.9843C17.6968 19.8717 17.76 19.7191 17.76 19.56C17.76 19.4009 17.6968 19.2483 17.5842 19.1357C17.4717 19.0232 17.3191 18.96 17.16 18.96Z" fill="#44D860"/>
<path fill-rule="evenodd" clip-rule="evenodd" d="M9.95999 14.76H14.76V12.36H9.95999V14.76Z" fill="#4ADE80"/>
<path fill-rule="evenodd" clip-rule="evenodd" d="M15.96 13.86C16.0396 13.86 16.1159 13.8284 16.1721 13.7721C16.2284 13.7159 16.26 13.6396 16.26 13.56C16.26 13.4804 16.2284 13.4041 16.1721 13.3479C16.1159 13.2916 16.0396 13.26 15.96 13.26C15.9469 13.26 15.9343 13.2623 15.9217 13.2638C15.9193 13.2548 15.9173 13.2458 15.9148 13.2368C15.9786 13.21 16.0312 13.162 16.0637 13.1008C16.0962 13.0396 16.1065 12.9691 16.0929 12.9012C16.0792 12.8333 16.0426 12.7722 15.9891 12.7282C15.9355 12.6842 15.8685 12.6602 15.7992 12.66C15.7309 12.66 15.6686 12.6836 15.6182 12.7222C15.6116 12.7153 15.6049 12.7086 15.5981 12.702C15.6358 12.652 15.6588 12.5903 15.6588 12.5227C15.6588 12.4536 15.6349 12.3866 15.5911 12.333C15.5474 12.2795 15.4865 12.2427 15.4188 12.2289C15.351 12.2151 15.2806 12.2251 15.2193 12.2572C15.1581 12.2893 15.1099 12.3416 15.0828 12.4052C14.9778 12.3755 14.8692 12.3603 14.76 12.36C14.0974 12.36 13.56 12.8974 13.56 13.56C13.56 14.2226 14.0974 14.76 14.76 14.76C14.8721 14.76 14.98 14.7434 15.0828 14.7148C15.1099 14.7784 15.1581 14.8307 15.2193 14.8628C15.2806 14.895 15.351 14.905 15.4188 14.8911C15.4865 14.8773 15.5474 14.8405 15.5911 14.787C15.6349 14.7334 15.6588 14.6664 15.6588 14.5973C15.6588 14.5297 15.6358 14.468 15.5981 14.418C15.6049 14.4114 15.6116 14.4047 15.6182 14.3978C15.6686 14.4364 15.7309 14.46 15.7992 14.46C15.8685 14.46 15.9357 14.436 15.9893 14.392C16.043 14.3481 16.0797 14.2869 16.0933 14.2189C16.1069 14.151 16.0966 14.0804 16.064 14.0191C16.0315 13.9579 15.9787 13.9099 15.9148 13.8832C15.9173 13.8743 15.9193 13.8652 15.9217 13.8562C15.9343 13.8577 15.9469 13.86 15.96 13.86Z" fill="#44D860"/>
<path fill-rule="evenodd" clip-rule="evenodd" d="M17.16 5.01C17.1408 5.01 17.1204 5.0076 17.1012 5.004C17.0819 5.00025 17.063 4.99463 17.0448 4.9872C17.0268 4.98 17.01 4.9704 16.9931 4.9596C16.9775 4.9488 16.962 4.9356 16.9475 4.9224C16.9344 4.908 16.9212 4.8936 16.9104 4.8768C16.8996 4.86 16.89 4.8432 16.8827 4.8252C16.8679 4.78857 16.8602 4.74949 16.86 4.71C16.86 4.6908 16.8624 4.6704 16.866 4.6512C16.8696 4.632 16.8756 4.614 16.8827 4.5948C16.89 4.5768 16.8996 4.56 16.9104 4.5432C16.9212 4.5276 16.9344 4.512 16.9475 4.4976C16.962 4.4844 16.9775 4.4712 16.9931 4.4604C17.01 4.4496 17.0268 4.44 17.0448 4.4328C17.0627 4.4256 17.082 4.4196 17.1012 4.416C17.1396 4.4076 17.1792 4.4076 17.2188 4.416C17.2379 4.4196 17.2572 4.4256 17.2752 4.4328C17.2931 4.44 17.31 4.4496 17.3268 4.4604C17.3424 4.4712 17.3579 4.4844 17.3724 4.4976C17.3856 4.512 17.3988 4.5276 17.4096 4.5432C17.4204 4.56 17.43 4.5768 17.4372 4.5948C17.4444 4.614 17.4504 4.632 17.454 4.6512C17.4575 4.6704 17.46 4.6908 17.46 4.71C17.46 4.7892 17.4275 4.8672 17.3724 4.9224C17.3579 4.9356 17.3424 4.9488 17.3268 4.9596C17.31 4.9704 17.2931 4.98 17.2752 4.9872C17.2386 5.00213 17.1995 5.00987 17.16 5.01ZM19.56 4.86C19.4808 4.86 19.404 4.8276 19.3475 4.7724C19.3341 4.75802 19.3218 4.74279 19.3104 4.7268C19.2996 4.71 19.29 4.6932 19.2827 4.6752C19.2679 4.63857 19.2602 4.59949 19.26 4.56C19.26 4.4808 19.2924 4.404 19.3475 4.3476C19.362 4.3344 19.3775 4.3212 19.3931 4.3104C19.41 4.2996 19.4268 4.29 19.4448 4.2828C19.4627 4.2756 19.482 4.2696 19.5012 4.266C19.5396 4.2576 19.5804 4.2576 19.6188 4.266C19.6379 4.2696 19.6572 4.2756 19.6752 4.2828C19.6931 4.29 19.71 4.2996 19.7268 4.3104C19.7424 4.3212 19.7579 4.3344 19.7724 4.3476C19.8275 4.404 19.86 4.4808 19.86 4.56C19.86 4.5792 19.8575 4.5996 19.854 4.6188C19.8504 4.638 19.8444 4.6572 19.8372 4.6752C19.8288 4.6932 19.8204 4.71 19.8096 4.7268C19.7988 4.7424 19.7856 4.758 19.7724 4.7724C19.7579 4.7856 19.7424 4.7988 19.7268 4.8096C19.71 4.8204 19.6931 4.83 19.6752 4.8372C19.6386 4.85213 19.5995 4.85987 19.56 4.86Z" fill="black"/>
</svg>
