<svg width="24" height="25" viewBox="0 0 24 25" fill="none" xmlns="http://www.w3.org/2000/svg">
<path d="M5.70305 10.6138C4.60631 14.0949 7.31659 17.9566 11.7566 19.2394C16.1967 20.5221 20.6851 18.74 21.7819 15.259C22.8786 11.778 20.1683 7.91619 15.7283 6.63346C11.2882 5.35073 6.79979 7.1328 5.70305 10.6138Z" fill="#60A5FA" fill-opacity="0.604"/>
<path d="M2.21812 9.71035C1.12138 13.1914 3.83167 17.0532 8.27171 18.3359C12.7118 19.6186 17.2002 17.8366 18.297 14.3555C19.3937 10.8745 16.6834 7.01272 12.2434 5.72999C7.80332 4.44725 3.31486 6.22932 2.21812 9.71035Z" fill="#60A5FA" fill-opacity="0.604"/>
<path d="M14.7021 2.83479C11.2211 1.73805 7.35927 4.44834 6.07654 8.88838C4.7938 13.3284 6.57587 17.8169 10.0569 18.9136C13.5379 20.0104 17.3997 17.3001 18.6825 12.86C19.9652 8.41999 18.1831 3.93153 14.7021 2.83479Z" fill="#60A5FA" fill-opacity="0.604"/>
<path d="M13.9982 6.08607C10.5171 4.98933 6.65535 7.69962 5.37262 12.1397C4.08989 16.5797 5.87196 21.0682 9.35299 22.1649C12.834 23.2616 16.6958 20.5514 17.9785 16.1113C19.2613 11.6713 17.4792 7.18282 13.9982 6.08607Z" fill="#60A5FA" fill-opacity="0.604"/>
</svg>
