<svg width="24" height="25" viewBox="0 0 24 25" fill="none" xmlns="http://www.w3.org/2000/svg">
<path d="M7.01479 11.916C7.2309 11.5388 7.09849 11.0613 6.71903 10.8493C6.33958 10.6374 5.85678 10.7713 5.64067 11.1484L3.10387 15.5751C2.88776 15.9522 3.02018 16.4297 3.39964 16.6417C3.77909 16.8536 4.26189 16.7197 4.478 16.3426L7.01479 11.916Z" fill="#4ADE80"/>
<path d="M12.4827 8.52177C12.6988 8.14466 12.5664 7.66713 12.1869 7.45517C11.8075 7.24321 11.3247 7.37708 11.1086 7.75419L8.57179 12.1809C8.35568 12.558 8.48809 13.0355 8.86755 13.2475C9.247 13.4594 9.7298 13.3256 9.94591 12.9485L12.4827 8.52177Z" fill="#4ADE80"/>
<path d="M20.8964 8.52194C21.1125 8.14483 20.9801 7.66729 20.6006 7.45533C20.2212 7.24337 19.7384 7.37725 19.5222 7.75435L16.9854 12.181C16.7693 12.5581 16.9018 13.0357 17.2812 13.2476C17.6607 13.4596 18.1435 13.3257 18.3596 12.9486L20.8964 8.52194Z" fill="#4ADE80"/>
<path d="M15.4272 11.916C15.6433 11.5388 15.5108 11.0613 15.1314 10.8493C14.7519 10.6374 14.2691 10.7713 14.053 11.1484L11.5162 15.5751C11.3001 15.9522 11.4325 16.4297 11.812 16.6417C12.1914 16.8536 12.6742 16.7197 12.8904 16.3426L15.4272 11.916Z" fill="#4ADE80"/>
</svg>
