<svg width="24" height="25" viewBox="0 0 24 25" fill="none" xmlns="http://www.w3.org/2000/svg">
<path d="M5.94897 4.33029L5.86195 4.41732L9.41353 7.9688C8.9113 8.75287 8.62215 9.71579 8.62215 10.8111C8.62215 13.856 10.8575 15.8779 13.689 15.8779C14.7471 15.8779 15.7217 15.5956 16.5278 15.083L20.0975 18.6528C18.2478 21.0956 15.309 22.6337 12 22.6337C6.40414 22.6337 1.86636 18.2351 1.86636 12.5001C1.86636 9.08949 3.47123 6.15148 5.94897 4.33029ZM7.63836 3.32741C8.95941 2.70894 10.4385 2.36636 11.9999 2.36636C17.5956 2.36636 22.1335 6.76515 22.1335 12.5C22.1335 14.0774 21.7902 15.5537 21.176 16.8652L17.9642 13.6534C18.4664 12.8693 18.7556 11.9064 18.7556 10.811C18.7556 7.76615 16.5202 5.74421 13.6888 5.74421C12.6307 5.74421 11.6561 6.02657 10.85 6.53902L7.63836 3.32741ZM13.6889 13.8512C11.99 13.8512 10.6488 12.6381 10.6488 10.811C10.6488 8.984 11.99 7.77095 13.6889 7.77095C15.3878 7.77095 16.7289 8.9841 16.7289 10.811C16.7289 12.6379 15.3878 13.8512 13.6889 13.8512Z" fill="#71717A"/>
</svg>
