<svg width="24" height="25" viewBox="0 0 24 25" fill="none" xmlns="http://www.w3.org/2000/svg">
<path d="M5.94886 4.33029L5.86173 4.41732L9.41331 7.9688C8.91109 8.75287 8.62194 9.71579 8.62194 10.8111C8.62194 13.856 10.8573 15.8779 13.6888 15.8779C14.7468 15.8779 15.7215 15.5956 16.5275 15.083L20.0973 18.6528C18.2476 21.0956 15.3088 22.6337 11.9998 22.6337C6.40392 22.6337 1.86615 18.2351 1.86615 12.5001C1.86615 9.08949 3.47102 6.15158 5.94876 4.3304L5.94886 4.33029ZM7.63804 3.32741C8.95909 2.70894 10.4383 2.36636 11.9997 2.36636C17.5954 2.36636 22.1333 6.76515 22.1333 12.5C22.1333 14.0774 21.79 15.5537 21.1758 16.8652L17.964 13.6534C18.4661 12.8693 18.7554 11.9064 18.7554 10.811C18.7554 7.76615 16.52 5.74421 13.6885 5.74421C12.6305 5.74421 11.6559 6.02657 10.8498 6.53902L7.63804 3.32741ZM13.6887 13.8512C11.9898 13.8512 10.6486 12.6381 10.6486 10.811C10.6486 8.9841 11.9898 7.77095 13.6887 7.77095C15.3875 7.77095 16.7287 8.9841 16.7287 10.811C16.7287 12.6381 15.3875 13.8512 13.6887 13.8512Z" fill="#CFD8DC"/>
</svg>
