<svg width="24" height="25" viewBox="0 0 24 25" fill="none" xmlns="http://www.w3.org/2000/svg">
<path fill-rule="evenodd" clip-rule="evenodd" d="M13.1995 7.40042C14.5437 8.92209 14.5747 10.5433 13.2931 12.3016C11.8957 14.2185 11.6935 14.5976 11.6935 15.2985C11.6935 16.1433 12.2018 16.8845 13.3259 17.6788L14.122 18.2413H17.358C19.6493 18.2413 20.6532 18.1824 20.797 18.0395C20.9427 17.8947 21.0001 16.7857 21.0001 14.1129V10.3881L20.0271 9.46783C18.3425 7.87435 16.5952 7.12764 13.9812 6.88429L12.6325 6.75866L13.1995 7.40042ZM10.9685 8.54504C9.60685 10.5119 7.14671 11.671 4.31482 11.6795C3.53375 11.6819 3.31411 11.745 3.17265 12.0076C2.94253 12.4352 2.94253 17.4885 3.17265 17.9161C3.33865 18.2242 3.56827 18.2413 7.52066 18.2413H11.6935L11.1717 17.6947C10.3196 16.8022 10.0583 16.1297 10.138 15.0342C10.2109 14.0323 10.2642 13.9302 11.8179 11.8233C12.766 10.5376 12.8775 9.561 12.1941 8.52906C11.9338 8.13603 11.6653 7.81431 11.5976 7.81431C11.5297 7.81431 11.2467 8.1431 10.9685 8.54504Z" fill="#EA580C"/>
</svg>
