<svg width="24" height="25" viewBox="0 0 24 25" fill="none" xmlns="http://www.w3.org/2000/svg">
<path d="M4.30702 3.17417C3.86158 3.17417 3.63848 3.71271 3.95344 4.02771L8.44344 8.51822C8.75839 8.83322 8.5353 9.37176 8.08986 9.37176H5.56177C5.11635 9.37176 4.89325 9.91027 5.20817 10.2253L8.39317 13.411C8.70809 13.726 8.485 14.2646 8.03957 14.2646H4.28191C3.83648 14.2646 3.61339 14.8031 3.92833 15.1181L9.69833 20.8891C10.0133 21.2041 10.5519 20.981 10.5519 20.5355V15.5707C10.5519 15.5704 10.5521 15.57 10.5523 15.5698C10.5526 15.5695 10.5527 15.5692 10.5527 15.5688V9.37216C10.5527 9.37194 10.5525 9.37176 10.5523 9.37176C10.5521 9.37176 10.5519 9.37158 10.5519 9.37136V6.35856C10.5519 6.08241 10.7758 5.85856 11.0519 5.85856H14.0801C14.2127 5.85856 14.3399 5.91123 14.4336 6.00499L15.0651 6.63643C15.3801 6.95141 15.157 7.49 14.7116 7.49H12.7856C12.5095 7.49 12.2856 7.71385 12.2856 7.99V13.1125C12.2856 13.3886 12.5094 13.6125 12.7856 13.6125H13.8425C13.9751 13.6125 14.1023 13.6652 14.196 13.7589L15.2443 14.8071C15.5259 15.0888 15.3265 15.5703 14.9282 15.5703H14.7432C14.7431 15.5703 14.743 15.5703 14.7429 15.5702L14.7426 15.5699C14.7425 15.5698 14.7422 15.5699 14.7422 15.5701C14.7422 15.5702 14.7421 15.5703 14.742 15.5703H12.2092C12.2091 15.5703 12.209 15.5703 12.2089 15.5702L12.2086 15.5699C12.2085 15.5698 12.2082 15.5699 12.2082 15.5701C12.2082 15.5702 12.2081 15.5703 12.208 15.5703H12.2009C12.1944 15.5703 12.1911 15.5782 12.1957 15.5828L12.2046 15.5917C12.2069 15.594 12.2082 15.5972 12.2082 15.6005V21.2672C12.2082 21.5433 12.4321 21.7672 12.7082 21.7672H19.733C20.1785 21.7672 20.4016 21.2286 20.0866 20.9136L17.9351 18.7621C17.8513 18.6783 17.8042 18.5646 17.8042 18.446V17.8456C17.8042 17.6689 18.0178 17.5804 18.1428 17.7054C18.2677 17.8303 18.4814 17.7418 18.4814 17.5651V12.3544C18.4814 12.0783 18.2575 11.8544 17.9814 11.8544H17.727C17.4508 11.8544 17.2269 11.6304 17.227 11.3542L17.2276 10.0053C17.2278 9.56002 17.7662 9.33712 18.0811 9.652L18.7818 10.3526C19.0968 10.6675 19.6354 10.4444 19.6354 9.999V5.50896C19.6354 5.23281 19.4115 5.00896 19.1354 5.00896H14.6525C14.5199 5.00896 14.3928 4.9563 14.299 4.86256L12.7567 3.32064C12.6629 3.2269 12.5357 3.17424 12.4032 3.17424H9.09679L4.30702 3.17417Z" fill="#FBBF24"/>
</svg>
