<svg width="24" height="25" viewBox="0 0 24 25" fill="none" xmlns="http://www.w3.org/2000/svg">
<g clip-path="url(#clip0_3372_1733)">
<path d="M13.4082 18.9961H7.16797V18.0977C7.69531 18.0977 8.07943 18.0618 8.32031 17.9902C8.5612 17.9121 8.68164 17.7331 8.68164 17.4531C8.68164 17.2578 8.64258 17.0592 8.56445 16.8574L7.93945 15.2949H3.64258L3.32031 16.1543C3.13802 16.6361 3.04688 16.9844 3.04688 17.1992C3.04688 17.5898 3.19661 17.8372 3.49609 17.9414C3.80208 18.0456 4.1569 18.0977 4.56055 18.0977V18.9961H0V18.0977C0.364583 18.0977 0.673828 18.0293 0.927734 17.8926C1.18164 17.7559 1.42253 17.4987 1.65039 17.1211C1.88477 16.737 2.13542 16.1966 2.40234 15.5L6.2207 5.5H7.14844L11.1816 15.8125C11.4746 16.5417 11.6895 17.0365 11.8262 17.2969C11.9629 17.5508 12.1517 17.7493 12.3926 17.8926C12.6335 18.0293 12.972 18.0977 13.4082 18.0977V18.9961ZM7.58789 14.3379L5.76172 9.71875L4.02344 14.3379H7.58789Z" fill="#64748B"/>
<path d="M24.4336 16.9355C24.4336 17.4303 24.3327 17.8535 24.1309 18.2051C23.929 18.5501 23.6556 18.8073 23.3105 18.9766C22.972 19.1393 22.5879 19.2207 22.1582 19.2207C21.6113 19.2207 21.1556 19.0938 20.791 18.8398C20.4264 18.5794 20.2083 18.2702 20.1367 17.9121C19.0495 18.7845 17.9557 19.2207 16.8555 19.2207C16.1523 19.2207 15.5762 19.0514 15.127 18.7129C14.6777 18.3678 14.4531 17.9154 14.4531 17.3555C14.4531 16.8932 14.5736 16.4766 14.8145 16.1055C15.0553 15.7279 15.4069 15.3926 15.8691 15.0996C16.3379 14.8066 16.8945 14.5495 17.5391 14.3281C18.1836 14.1003 18.9876 13.8626 19.9512 13.6152V13.0586C19.9512 12.5964 19.8405 12.235 19.6191 11.9746C19.4043 11.7077 19.0039 11.5742 18.418 11.5742C17.9167 11.5742 17.5553 11.6784 17.334 11.8867C17.1126 12.0951 16.9661 12.4108 16.8945 12.834C16.8424 13.1335 16.7448 13.3809 16.6016 13.5762C16.4648 13.765 16.1751 13.8594 15.7324 13.8594C15.459 13.8594 15.2181 13.7812 15.0098 13.625C14.8014 13.4688 14.6973 13.2376 14.6973 12.9316C14.6973 12.3262 15.026 11.7988 15.6836 11.3496C16.3411 10.9004 17.3503 10.6758 18.7109 10.6758C20.1432 10.6758 21.1263 10.9167 21.6602 11.3984C22.2005 11.8802 22.4707 12.5247 22.4707 13.332V16.418C22.4707 16.8086 22.4805 17.0951 22.5 17.2773C22.5195 17.4596 22.5716 17.5996 22.6562 17.6973C22.7474 17.7884 22.8874 17.834 23.0762 17.834C23.2454 17.834 23.3919 17.7461 23.5156 17.5703C23.6458 17.3945 23.7109 17.1829 23.7109 16.9355H24.4336ZM19.9512 17.0137V14.5918C18.7142 14.9824 17.9264 15.3665 17.5879 15.7441C17.2559 16.1152 17.0898 16.4798 17.0898 16.8379C17.0898 17.1374 17.181 17.3783 17.3633 17.5605C17.5456 17.7428 17.8027 17.834 18.1348 17.834C18.4928 17.834 18.8086 17.7591 19.082 17.6094C19.3555 17.4596 19.6452 17.2611 19.9512 17.0137Z" fill="#64748B"/>
</g>
<defs>
<clipPath id="clip0_3372_1733">
<rect width="24" height="24" fill="white" transform="translate(0 0.5)"/>
</clipPath>
</defs>
</svg>
