<svg width="24" height="25" viewBox="0 0 24 25" fill="none" xmlns="http://www.w3.org/2000/svg">
<path d="M18.846 8.138H17.9235C17.7515 7.49 17.3905 6.797 16.8405 6.059C16.2995 5.321 15.7785 4.915 15.2775 4.841C15.0235 4.808 14.72 4.7835 14.367 4.7675C14.023 4.7515 13.6295 4.7435 13.1865 4.7435H10.2585V11.756H12.264C12.871 11.756 13.3425 11.6945 13.6785 11.5715C14.0145 11.4405 14.3015 11.2435 14.5395 10.9805C14.7035 10.8005 14.851 10.5215 14.982 10.1435C15.122 9.7585 15.212 9.3485 15.252 8.9135H16.188V15.767H15.2535C15.2285 15.406 15.1425 14.996 14.9955 14.537C14.8555 14.077 14.7035 13.7445 14.5395 13.5395C14.2935 13.2365 13.982 13.0315 13.605 12.9245C13.235 12.8095 12.788 12.752 12.264 12.752H10.2585V18.767C10.2585 19.039 10.312 19.2815 10.419 19.4945C10.525 19.7075 10.7135 19.8795 10.9845 20.0105C11.1075 20.0685 11.374 20.1385 11.784 20.2205C12.194 20.3025 12.5055 20.3475 12.7185 20.3555V21.2285H5.1525V20.3555C5.3985 20.3395 5.7265 20.3145 6.1365 20.2805C6.5465 20.2405 6.813 20.1915 6.936 20.1335C7.182 20.0275 7.3585 19.872 7.4655 19.667C7.5805 19.453 7.638 19.1985 7.638 18.9035V6.305C7.638 6.035 7.593 5.7975 7.503 5.5925C7.413 5.3785 7.224 5.206 6.936 5.075C6.715 4.969 6.416 4.8745 6.039 4.7915C5.669 4.7095 5.374 4.6605 5.154 4.6445V3.7715H18.846V8.138Z" fill="#F87171"/>
</svg>
