<svg width="24" height="25" viewBox="0 0 24 25" fill="none" xmlns="http://www.w3.org/2000/svg">
<path d="M8.87822 23.9067C9.01501 23.8682 9.26685 23.8323 9.43779 23.8269L9.74866 23.8171V23.4114C9.74866 22.6367 9.24024 21.4205 8.64113 20.7622C8.54356 20.655 8.20302 20.4355 7.88444 20.2745C7.31957 19.9891 7.28757 19.983 6.59951 20.0319C6.21146 20.0595 5.67005 20.1432 5.39649 20.2179C3.70445 20.6801 1.0905 19.4078 1.08677 18.1201C1.08544 17.6435 1.29352 17.4539 1.97436 17.3114C2.79414 17.1399 3.35735 16.8732 3.41911 16.6271C3.51345 16.2513 3.39482 15.0777 3.23201 14.776C3.11728 14.5632 3.07799 14.3126 3.07683 13.7864C3.07533 13.114 3.08959 13.059 3.38703 12.5844C3.55847 12.3108 3.87448 11.8692 4.08935 11.6032C4.4536 11.1521 4.48204 11.082 4.51064 10.567C4.5438 9.97054 4.31972 8.91416 4.01557 8.23224C3.67237 7.46269 3.72252 5.3778 4.12234 3.8009C4.53045 2.19102 5.34178 0.899461 5.84464 1.05912C6.01126 1.11193 6.02188 1.1402 6.5957 3.05656C6.76539 3.62325 6.78802 3.65335 7.2942 3.98618C8.13064 4.53613 8.89804 5.42795 9.67322 6.75118L9.88793 7.11775L10.7041 7.22088C12.0882 7.39563 13.7096 8.02342 14.5951 8.72731C14.7758 8.87097 14.981 8.9707 15.051 8.94898C15.1211 8.92726 15.6048 8.71603 16.1261 8.47961C17.2524 7.9687 18.3869 7.58762 19.9308 7.20181C21.5619 6.79412 22.472 6.62849 22.7283 6.69282C22.9508 6.74869 22.952 6.75283 22.9006 7.30577C22.8421 7.9343 22.4972 9.02268 22.1199 9.76918C21.5413 10.9138 20.1196 12.4892 18.7688 13.4825C18.1603 13.9301 18.1292 13.969 18.0791 14.3455C17.6605 17.4992 16.8095 19.2396 14.5995 21.462C13.5637 22.5035 13.4822 22.5658 12.567 23.0141C11.3197 23.6253 10.674 23.795 9.04385 23.9398C8.72096 23.9686 8.68432 23.9613 8.87806 23.9068L8.87822 23.9067ZM2.44672 19.4001C2.42765 19.3871 2.33754 19.3219 2.24635 19.255C2.09299 19.1425 2.08909 19.1442 2.19437 19.2785C2.25696 19.3582 2.34707 19.4235 2.39466 19.4235C2.44224 19.4235 2.4657 19.413 2.44672 19.4001Z" fill="#FBBF24"/>
<path d="M8.87822 23.9067C9.01501 23.8682 9.26685 23.8323 9.43779 23.8269L9.74866 23.8171L9.74766 23.4234C9.7465 22.9645 9.59927 22.366 9.34726 21.7965C9.21695 21.5018 9.20285 21.4214 9.29504 21.4978C9.53063 21.6935 9.51679 21.5088 9.26892 21.1495C8.98035 20.7312 8.55989 20.3784 7.91851 20.0164C7.66592 19.8738 7.37768 19.6634 7.27804 19.5489C7.16861 19.4229 7.00878 19.3405 6.87415 19.3405C6.65787 19.3405 6.6616 19.3485 6.99792 19.607C7.18859 19.7535 7.3446 19.8973 7.3446 19.9263C7.3446 19.9553 7.01815 20.0024 6.61924 20.0308C6.22025 20.0589 5.67006 20.1433 5.39649 20.2179C3.70445 20.6801 1.0905 19.4078 1.08677 18.1201C1.08536 17.6435 1.29352 17.4539 1.97436 17.3115C2.79688 17.1394 3.35736 16.8733 3.41961 16.6253C3.51876 16.2301 3.38521 15.0071 3.19662 14.5837C3.05478 14.2652 3.02303 14.0622 3.04765 13.6303C3.08222 13.0229 3.32561 12.5492 4.08935 11.6031C4.45352 11.152 4.48204 11.082 4.51064 10.5669C4.54371 9.97054 4.31972 8.91408 4.01557 8.23216C3.67237 7.4627 3.72252 5.37772 4.12234 3.80083C4.53045 2.19102 5.34178 0.899384 5.84464 1.05905C6.01127 1.11194 6.02188 1.1402 6.5957 3.05648C6.76539 3.62326 6.78802 3.65335 7.2942 3.98611C8.13065 4.53614 8.89804 5.42788 9.67322 6.7511L9.88793 7.11776L10.7041 7.22088C12.0882 7.39563 13.7096 8.02342 14.5951 8.72731C14.7758 8.87098 14.981 8.9707 15.051 8.94898C15.1211 8.92727 15.6048 8.71604 16.1261 8.47961C17.2524 7.96871 18.3869 7.58763 19.9308 7.20182C21.5619 6.79412 22.472 6.62849 22.7283 6.69282C22.9508 6.74869 22.9519 6.75284 22.9006 7.30577C22.8421 7.93431 22.4972 9.02268 22.1199 9.76918C21.5413 10.9138 20.1196 12.4892 18.7688 13.4825C18.1602 13.9301 18.1292 13.969 18.0791 14.3455C17.6605 17.4992 16.8095 19.2396 14.5995 21.462C13.5637 22.5035 13.4822 22.5658 12.567 23.0141C11.3197 23.6252 10.674 23.795 9.04385 23.9398C8.72096 23.9686 8.68432 23.9612 8.87806 23.9068L8.87822 23.9067ZM11.1572 22.486C12.3743 22.0167 13.5249 21.0989 14.2587 20.0122C15.1242 18.7306 15.7493 16.7688 15.9738 14.6304L16.081 13.6092L16.6462 13.1082C17.2566 12.567 17.9461 11.5959 18.4158 10.6158C18.7765 9.8631 18.7855 9.60612 18.4571 9.43643C17.9394 9.16866 16.2627 9.3517 14.7561 9.84047C13.718 10.1773 13.5754 10.1924 13.1844 10.0069L12.9061 9.87479L12.3014 10.2757C11.9688 10.4962 11.2889 11.0779 10.7904 11.5683C9.89539 12.4489 9.66576 12.6008 9.66576 12.3128C9.66576 12.1077 10.8124 10.8452 11.6364 10.143C12.1757 9.68346 12.3793 9.55837 12.5898 9.55738C12.7837 9.55646 12.8244 9.53524 12.7375 9.48028C12.6716 9.43858 12.446 9.42474 12.2363 9.44961C11.9147 9.48774 11.7643 9.44986 11.2784 9.20895C10.9613 9.05169 10.3101 8.75857 9.83147 8.55754C9.04303 8.22636 8.89779 8.12945 8.28981 7.52819C7.92058 7.1631 7.38398 6.51003 7.09723 6.07689C6.48768 5.15588 6.30663 4.94284 5.99817 4.78234C5.46148 4.50306 5.09126 4.94524 4.8138 6.19725C4.64344 6.96556 4.6829 8.5519 4.90043 9.68123C5.10104 10.7231 4.98996 11.1726 4.31574 12.0455C3.57289 13.0075 3.45493 13.6191 3.81263 14.6549C4.08015 15.4295 4.20267 16.2368 4.0959 16.5221C3.90913 17.0213 3.11479 17.5998 2.616 17.5998C2.3731 17.5998 2.36067 17.6145 2.41082 17.8429C2.47432 18.1318 2.21783 18.9261 2.06099 18.9261C1.9034 18.9261 1.93449 19.0653 2.13369 19.2509C2.4172 19.515 3.01855 19.7621 3.47888 19.8035C3.8438 19.8364 3.87481 19.8287 3.69691 19.7486C3.54471 19.6798 3.39272 19.6105 3.24097 19.5407L2.99227 19.426L3.32386 19.4869C3.8753 19.5882 5.0285 19.5436 5.66143 19.3964C5.98955 19.3202 6.46381 19.2577 6.71524 19.2577C7.57929 19.2577 8.7087 19.8439 9.37081 20.6361C9.70547 21.0365 10.2431 22.1559 10.2449 22.4562C10.247 22.8091 10.3135 22.8113 11.157 22.486H11.1572ZM10.7021 19.0532C7.97446 18.5743 7.64693 18.5076 7.52474 18.4062C7.2976 18.2177 7.73679 18.2172 10.0669 18.4035C11.3278 18.5043 12.3818 18.5605 12.409 18.5285C12.4363 18.4964 12.4986 18.0661 12.5473 17.5722C12.5961 17.0783 12.6585 16.6519 12.6859 16.6245C12.8226 16.4878 12.9081 16.8416 12.9902 17.8837C13.0915 19.1705 13.0714 19.2369 12.5616 19.2965C12.4051 19.3148 11.5684 19.2053 10.7021 19.0532ZM6.46381 16.6711C6.39674 16.5626 6.62902 16.3738 7.37503 15.93C8.15278 15.4675 9.10205 15.1357 9.98284 15.0184C11.0557 14.8756 11.3522 15.0536 10.4724 15.3125C10.136 15.4115 9.99238 15.5088 9.83172 15.7467C9.56711 16.1388 9.0645 16.5029 8.69187 16.5729C8.53171 16.6029 8.15112 16.5804 7.84606 16.5228C7.33499 16.4264 7.26129 16.4316 6.90516 16.5892C6.64544 16.704 6.50078 16.7309 6.46389 16.6712L6.46381 16.6711ZM4.94403 15.0513C4.6141 14.5831 4.5375 14.118 4.71896 13.6837C4.80634 13.4746 4.83187 13.238 4.80012 12.9308C4.75055 12.4502 4.8492 12.2811 5.07153 12.4656C5.13959 12.5221 5.32843 12.8063 5.49108 13.0973C5.839 13.7195 5.88775 14.2997 5.65165 15.0103C5.46845 15.5618 5.31036 15.5709 4.94403 15.0513Z" fill="#F59E0B"/>
<path d="M8.87821 23.9067C9.01499 23.8682 9.26684 23.8323 9.43777 23.8269C9.62554 23.821 9.74897 23.776 9.74947 23.7135C9.7498 23.6552 10.1754 23.4681 10.7235 23.2855C11.9546 22.8753 12.7415 22.5134 13.4551 22.0294C15.7759 20.4551 17.2892 17.5213 17.2917 14.5909C17.2926 13.7546 17.3173 13.7149 18.1593 13.2061C18.8357 12.7973 20.6083 11.0143 20.6083 10.7427C20.6083 10.6998 20.7249 10.4886 20.8674 10.2736C21.1866 9.79172 21.6977 8.40757 21.7469 7.89161C21.7818 7.52677 21.7728 7.50762 21.5482 7.46468C20.7214 7.30676 18.3264 7.91184 16.2147 8.81211C14.6672 9.4719 14.7217 9.46643 13.9665 9.03544C12.7218 8.32517 11.4411 7.82628 10.3133 7.61232C9.94072 7.54169 9.63043 7.47504 9.6238 7.46418C9.52647 7.30701 8.55648 6.02391 8.3242 5.74512C8.15318 5.53995 7.73405 5.13134 7.39275 4.83697C6.72882 4.26455 6.47084 3.87336 6.19097 3.01486C5.97925 2.36544 5.81188 2.09635 5.62246 2.10132C5.5437 2.10339 5.32278 2.28428 5.13145 2.50321C4.741 2.95012 4.52215 3.62383 4.35154 4.9032C4.2175 5.90876 4.30412 8.10864 4.52662 9.3512C4.77698 10.7491 4.66423 11.2403 3.93722 11.9211L3.58307 12.2526L3.93058 11.8263C4.42996 11.2133 4.52497 10.9903 4.5253 10.429C4.52563 9.90861 4.20945 8.57909 3.97983 8.13508C3.79695 7.78152 3.72922 6.17113 3.85664 5.20628C4.15739 2.92873 5.15806 0.841182 5.84454 1.05896C6.01117 1.11193 6.02186 1.14011 6.5956 3.05648C6.76538 3.62317 6.78793 3.65326 7.29419 3.9861C8.13063 4.53605 8.89802 5.42787 9.6732 6.75109L9.88791 7.11767L10.7008 7.22038C12.1064 7.39787 13.7896 8.0671 14.7397 8.82612L14.9643 9.0056L15.7162 8.65626C16.1297 8.4641 16.7933 8.18142 17.1909 8.02806C18.7092 7.44238 22.2784 6.57982 22.7223 6.69132C22.952 6.74894 22.9523 6.7496 22.9006 7.30577C22.8422 7.93422 22.4973 9.02259 22.1199 9.76917C21.5414 10.9138 20.1196 12.4892 18.7688 13.4825C18.1603 13.93 18.1292 13.9689 18.0792 14.3455C17.6605 17.4992 16.8095 19.2396 14.5994 21.462C13.5637 22.5035 13.4821 22.5658 12.567 23.0141C11.3196 23.6252 10.674 23.7949 9.04384 23.9398C8.72095 23.9685 8.68431 23.9612 8.87804 23.9067H8.87821ZM3.61416 20.2022C2.95338 20.025 1.96307 19.5133 1.62302 19.1733C1.04373 18.594 0.90131 17.9127 1.28662 17.564C1.3725 17.4863 1.68802 17.3714 1.98769 17.3087C2.69009 17.1617 3.17165 16.9444 3.51932 16.6177C3.67236 16.4739 3.84951 16.3562 3.91309 16.3562C4.31565 16.3562 3.4152 17.2849 2.86808 17.434C2.6629 17.49 2.44877 17.5488 2.39232 17.5648C2.31705 17.5861 2.31133 17.651 2.37102 17.8079C2.46643 18.0589 2.30652 18.5167 2.01439 18.8287L1.83185 19.0237L2.08054 19.2254C2.96415 19.9422 3.97228 20.0796 5.64741 19.7115C6.679 19.4849 6.70801 19.483 6.97702 19.6279C7.4701 19.8934 7.39565 19.9755 6.6121 20.0309C6.21709 20.0589 5.68869 20.1384 5.43793 20.2075C4.87173 20.3638 4.20979 20.3619 3.61416 20.2022ZM11.904 19.1277C11.8356 19.1125 10.9488 18.9661 9.93326 18.8024C7.97113 18.4863 7.81794 18.4517 7.88666 18.3404C7.93275 18.2658 7.96981 18.2677 10.6496 18.4743C11.5783 18.546 12.3846 18.5867 12.4414 18.5649C12.5086 18.5392 12.5654 18.2333 12.6039 17.6904C12.6616 16.8767 12.7661 16.5702 12.8548 16.9539C12.8791 17.0583 12.9338 17.5328 12.9767 18.0083C13.075 19.1011 13.0407 19.178 12.4606 19.1652C12.2227 19.1599 11.9723 19.1431 11.9039 19.1277H11.904ZM6.87663 16.3249C7.66027 15.6101 9.51014 14.9633 10.6032 15.0218C10.8138 15.0331 10.707 15.1662 10.4333 15.2335C10.3075 15.2645 9.97835 15.5265 9.70189 15.8157C9.0746 16.4718 8.74416 16.5875 7.94875 16.4294C7.51718 16.3436 7.36747 16.3438 7.15293 16.43C6.60497 16.6502 6.54495 16.6274 6.87663 16.3249ZM4.99558 14.8876C4.66258 14.3629 4.6261 14.1041 4.81983 13.6405C4.91169 13.4206 4.93208 13.2088 4.89212 12.889C4.84205 12.4878 4.85142 12.4465 4.98679 12.4727C5.06944 12.4886 5.2684 12.7254 5.42897 12.9989C5.79505 13.6225 5.86477 14.2757 5.63174 14.8986C5.54793 15.1228 5.43884 15.3197 5.38935 15.3361C5.33977 15.3527 5.16262 15.1508 4.99558 14.8876ZM9.74864 12.2555C9.74864 12.0944 10.7754 10.9369 11.3744 10.4229C12.1085 9.79288 12.3347 9.64143 12.5418 9.64143C12.8792 9.64143 12.7495 9.86384 12.1734 10.2728C11.8656 10.4912 11.2248 11.0541 10.7492 11.5236C10.2736 11.993 9.85392 12.3771 9.81662 12.3771C9.77931 12.3771 9.74864 12.3224 9.74864 12.2555Z" fill="black"/>
</svg>
