<svg width="24" height="25" viewBox="0 0 24 25" fill="none" xmlns="http://www.w3.org/2000/svg">
<path d="M21.5587 10.5161L21.5321 10.445L18.8405 3.42416C18.786 3.28631 18.689 3.16937 18.5637 3.09028C18.4701 3.0304 18.3639 2.99327 18.2534 2.98186C18.1429 2.97046 18.0313 2.98509 17.9275 3.02458C17.8237 3.06408 17.7306 3.12734 17.6557 3.2093C17.5807 3.29126 17.526 3.38964 17.496 3.49655L15.6792 9.05864H8.32186L6.50506 3.49655C6.47475 3.3898 6.41992 3.2916 6.34494 3.2098C6.26996 3.12799 6.1769 3.06484 6.07319 3.02537C5.96947 2.98591 5.85797 2.97122 5.74758 2.98249C5.63718 2.99376 5.53095 3.03067 5.43734 3.09028C5.31199 3.16937 5.21505 3.28631 5.16058 3.42416L2.47027 10.4463L2.44234 10.5161C2.05503 11.5284 2.00732 12.6391 2.3064 13.6808C2.60548 14.7226 3.23515 15.6388 4.10045 16.2915L4.11062 16.2992L4.13347 16.3169L8.22792 19.3856L10.2593 20.9205L11.4934 21.8536C11.6382 21.963 11.8147 22.0222 11.9961 22.0222C12.1776 22.0222 12.3541 21.963 12.4989 21.8536L13.7329 20.9205L15.7643 19.3855L19.8879 16.2991L19.8994 16.2902C20.7646 15.6378 21.3943 14.7219 21.6936 13.6804C21.993 12.6389 21.9456 11.5283 21.5587 10.5161Z" fill="#E53935"/>
<path d="M21.5587 10.5161L21.5321 10.445C20.2207 10.7141 18.9851 11.2699 17.9137 12.0727L12.0037 16.5416L15.7668 19.3855L19.8905 16.2991L19.9019 16.2902C20.7667 15.6375 21.396 14.7214 21.6948 13.6799C21.9936 12.6385 21.9459 11.5281 21.5587 10.5161Z" fill="#EF6C00"/>
<path d="M8.22791 19.3855L10.2593 20.9205L11.4933 21.8536C11.6381 21.963 11.8146 22.0222 11.9961 22.0222C12.1776 22.0222 12.3541 21.963 12.4988 21.8536L13.7329 20.9205L15.7643 19.3855L12.0011 16.5416L8.22791 19.3855Z" fill="#F9A825"/>
<path d="M6.08736 12.0726C5.0164 11.2703 3.78118 10.7149 2.47027 10.4463L2.44234 10.5161C2.05503 11.5284 2.00732 12.6391 2.3064 13.6808C2.60548 14.7226 3.23515 15.6388 4.10045 16.2915L4.11062 16.2992L4.13347 16.3169L8.22792 19.3856L11.9935 16.5416L6.08736 12.0726Z" fill="#EF6C00"/>
</svg>
