<svg width="24" height="25" viewBox="0 0 24 25" fill="none" xmlns="http://www.w3.org/2000/svg">
<g clip-path="url(#clip0_3372_2061)">
<g clip-path="url(#clip1_3372_2061)">
<path fill-rule="evenodd" clip-rule="evenodd" d="M1.47761 10.2942C1.43317 10.2942 1.42206 10.271 1.44428 10.2362L1.67761 9.92318C1.69983 9.8884 1.75539 9.86521 1.79983 9.86521H5.7665C5.81094 9.86521 5.82206 9.89999 5.79983 9.93478L5.61094 10.2362C5.58872 10.271 5.53317 10.3058 5.49983 10.3058L1.47761 10.2942Z" fill="#F472B6"/>
<path fill-rule="evenodd" clip-rule="evenodd" d="M-0.200154 11.3609C-0.244598 11.3609 -0.25571 11.3377 -0.233487 11.3029L-0.000153914 10.9899C0.0220683 10.9551 0.0776238 10.9319 0.122068 10.9319H5.18874C5.23318 10.9319 5.2554 10.9667 5.24429 11.0015L5.1554 11.2797C5.14429 11.3261 5.09985 11.3493 5.0554 11.3493L-0.200154 11.3609Z" fill="#F472B6"/>
<path fill-rule="evenodd" clip-rule="evenodd" d="M2.48872 12.4275C2.44427 12.4275 2.43316 12.3927 2.45539 12.358L2.61094 12.0681C2.63316 12.0333 2.67761 11.9985 2.72205 11.9985H4.94427C4.98872 11.9985 5.01094 12.0333 5.01094 12.0797L4.98872 12.358C4.98872 12.4043 4.94427 12.4391 4.91094 12.4391L2.48872 12.4275Z" fill="#F472B6"/>
<path fill-rule="evenodd" clip-rule="evenodd" d="M14.0221 10.0855C13.3221 10.271 12.8443 10.4101 12.1554 10.5956C11.9887 10.642 11.9776 10.6536 11.8332 10.4797C11.6665 10.2826 11.5443 10.1551 11.311 10.0391C10.611 9.67971 9.93319 9.78405 9.29985 10.213C8.5443 10.7232 8.15541 11.4768 8.16652 12.4159C8.17763 13.3435 8.78874 14.1087 9.66652 14.2362C10.4221 14.3406 11.0554 14.0623 11.5554 13.471C11.6554 13.3435 11.7443 13.2043 11.8554 13.042C11.4554 13.042 10.9554 13.042 9.71096 13.042C9.47763 13.042 9.42207 12.8913 9.49985 12.6942C9.6443 12.3348 9.91096 11.7319 10.0665 11.4304C10.0999 11.3609 10.1776 11.2449 10.3443 11.2449H14.3887C14.3665 11.558 14.3665 11.871 14.3221 12.1841C14.1999 13.0188 13.8999 13.7841 13.411 14.4565C12.611 15.558 11.5665 16.242 10.2443 16.4275C9.15541 16.5783 8.1443 16.358 7.25541 15.6623C6.43319 15.013 5.96652 14.1551 5.8443 13.0884C5.69985 11.8246 6.05541 10.6884 6.78874 9.6913C7.57763 8.61304 8.62207 7.92898 9.89985 7.6855C10.9443 7.4884 11.9443 7.61594 12.8443 8.25362C13.4332 8.65942 13.8554 9.21594 14.1332 9.8884C14.1999 9.99275 14.1554 10.0507 14.0221 10.0855Z" fill="#F472B6"/>
<path d="M17.6999 16.4971C16.6887 16.4739 15.7665 16.1725 14.9887 15.4768C14.3332 14.8855 13.9221 14.1319 13.7887 13.2391C13.5887 11.929 13.9332 10.7696 14.6887 9.73768C15.4999 8.62463 16.4776 8.04492 17.7999 7.80145C18.9332 7.59275 19.9999 7.70869 20.9665 8.39275C21.8443 9.01884 22.3887 9.86521 22.5332 10.9783C22.7221 12.5435 22.2887 13.8188 21.2554 14.9087C20.5221 15.6855 19.6221 16.1725 18.5887 16.3927C18.2887 16.4507 17.9887 16.4623 17.6999 16.4971ZM20.3443 11.813C20.3332 11.6623 20.3332 11.5464 20.311 11.4304C20.111 10.2826 19.0999 9.63333 18.0443 9.8884C17.011 10.1319 16.3443 10.8159 16.0999 11.9058C15.8999 12.8101 16.3221 13.7261 17.1221 14.0971C17.7332 14.3754 18.3443 14.3406 18.9332 14.0275C19.811 13.5522 20.2887 12.8101 20.3443 11.813Z" fill="#F472B6"/>
</g>
</g>
<defs>
<clipPath id="clip0_3372_2061">
<rect width="24" height="24" fill="white" transform="translate(0 0.5)"/>
</clipPath>
<clipPath id="clip1_3372_2061">
<rect width="23" height="9.04348" fill="white" transform="translate(-0.322388 7.5)"/>
</clipPath>
</defs>
</svg>
