<svg width="24" height="25" viewBox="0 0 24 25" fill="none" xmlns="http://www.w3.org/2000/svg">
<g clip-path="url(#clip0_3372_1737)">
<g clip-path="url(#clip1_3372_1737)">
<path fill-rule="evenodd" clip-rule="evenodd" d="M1.47758 10.2942C1.43314 10.2942 1.42202 10.271 1.44425 10.2362L1.67758 9.92319C1.6998 9.88841 1.75536 9.86522 1.7998 9.86522H5.76647C5.81091 9.86522 5.82202 9.9 5.7998 9.93478L5.61091 10.2362C5.58869 10.271 5.53314 10.3058 5.4998 10.3058L1.47758 10.2942Z" fill="#60A5FA"/>
<path fill-rule="evenodd" clip-rule="evenodd" d="M-0.200184 11.3609C-0.244629 11.3609 -0.25574 11.3377 -0.233518 11.3029L-0.000184432 10.9899C0.0220378 10.9551 0.0775933 10.9319 0.122038 10.9319H5.1887C5.23315 10.9319 5.25537 10.9667 5.24426 11.0015L5.15537 11.2797C5.14426 11.3261 5.09982 11.3493 5.05537 11.3493L-0.200184 11.3609Z" fill="#60A5FA"/>
<path fill-rule="evenodd" clip-rule="evenodd" d="M2.48872 12.4275C2.44427 12.4275 2.43316 12.3928 2.45539 12.358L2.61094 12.0681C2.63316 12.0333 2.67761 11.9986 2.72205 11.9986H4.94427C4.98872 11.9986 5.01094 12.0333 5.01094 12.0797L4.98872 12.358C4.98872 12.4043 4.94427 12.4391 4.91094 12.4391L2.48872 12.4275Z" fill="#60A5FA"/>
<path fill-rule="evenodd" clip-rule="evenodd" d="M14.022 10.0855C13.322 10.271 12.8443 10.4101 12.1554 10.5957C11.9887 10.642 11.9776 10.6536 11.8332 10.4797C11.6665 10.2826 11.5443 10.1551 11.3109 10.0391C10.6109 9.67971 9.93316 9.78406 9.29982 10.213C8.54427 10.7232 8.15538 11.4768 8.16649 12.4159C8.1776 13.3435 8.78871 14.1087 9.66649 14.2362C10.422 14.3406 11.0554 14.0623 11.5554 13.471C11.6554 13.3435 11.7443 13.2044 11.8554 13.042C11.4554 13.042 10.9554 13.042 9.71093 13.042C9.4776 13.042 9.42204 12.8913 9.49982 12.6942C9.64427 12.3348 9.91093 11.7319 10.0665 11.4304C10.0998 11.3609 10.1776 11.2449 10.3443 11.2449H14.3887C14.3665 11.558 14.3665 11.871 14.322 12.1841C14.1998 13.0188 13.8998 13.7841 13.4109 14.4565C12.6109 15.558 11.5665 16.242 10.2443 16.4275C9.15538 16.5783 8.14427 16.358 7.25538 15.6623C6.43316 15.013 5.96649 14.1551 5.84427 13.0884C5.69982 11.8246 6.05538 10.6884 6.78871 9.69131C7.5776 8.61305 8.62204 7.92899 9.89982 7.68551C10.9443 7.48841 11.9443 7.61595 12.8443 8.25363C13.4332 8.65942 13.8554 9.21595 14.1332 9.88841C14.1998 9.99276 14.1554 10.0507 14.022 10.0855Z" fill="#60A5FA"/>
<path d="M17.6998 16.4971C16.6887 16.4739 15.7665 16.1725 14.9887 15.4768C14.3332 14.8855 13.922 14.1319 13.7887 13.2391C13.5887 11.929 13.9332 10.7696 14.6887 9.73769C15.4998 8.62464 16.4776 8.04493 17.7998 7.80145C18.9332 7.59276 19.9998 7.7087 20.9665 8.39276C21.8443 9.01885 22.3887 9.86522 22.5332 10.9783C22.722 12.5435 22.2887 13.8188 21.2554 14.9087C20.522 15.6855 19.622 16.1725 18.5887 16.3928C18.2887 16.4507 17.9887 16.4623 17.6998 16.4971ZM20.3443 11.813C20.3332 11.6623 20.3332 11.5464 20.3109 11.4304C20.1109 10.2826 19.0998 9.63334 18.0443 9.88841C17.0109 10.1319 16.3443 10.8159 16.0998 11.9058C15.8998 12.8101 16.322 13.7261 17.122 14.0971C17.7332 14.3754 18.3443 14.3406 18.9332 14.0275C19.8109 13.5522 20.2887 12.8101 20.3443 11.813Z" fill="#60A5FA"/>
</g>
</g>
<defs>
<clipPath id="clip0_3372_1737">
<rect width="24" height="24" fill="white" transform="translate(0 0.5)"/>
</clipPath>
<clipPath id="clip1_3372_1737">
<rect width="23" height="9.04348" fill="white" transform="translate(-0.322418 7.5)"/>
</clipPath>
</defs>
</svg>
