<svg width="24" height="25" viewBox="0 0 24 25" fill="none" xmlns="http://www.w3.org/2000/svg">
<path fill-rule="evenodd" clip-rule="evenodd" d="M11.5292 6.0637C11.6953 6.0637 11.8559 6.03894 12.0077 5.99277L17.1692 15.3215C16.9379 15.5525 16.7688 15.8507 16.6905 16.186H6.36681C6.28864 15.851 6.1197 15.553 5.88871 15.3221L11.0506 5.99277C11.2024 6.03894 11.363 6.0637 11.5292 6.0637ZM6.36679 17.032C6.36084 17.0575 6.35436 17.0828 6.34737 17.1079L10.2953 19.4863C10.6062 19.1474 11.044 18.9363 11.5292 18.9363C12.0143 18.9363 12.4521 19.1474 12.763 19.4863L16.7101 17.1084C16.703 17.0832 16.6965 17.0577 16.6905 17.032H6.36679ZM9.88953 20.2187L5.9418 17.8404C5.63091 18.1796 5.1929 18.3908 4.7076 18.3908C3.76452 18.3908 3 17.5931 3 16.609C3 15.7703 3.55531 15.0669 4.30319 14.8774V10.1225C3.55531 9.93296 3 9.2296 3 8.3909C3 7.40681 3.76452 6.60905 4.7076 6.60905C5.1929 6.60905 5.63092 6.8203 5.94181 7.15947L9.88951 4.78118C9.84527 4.62274 9.82155 4.45519 9.82155 4.28185C9.82155 3.29776 10.5861 2.5 11.5292 2.5C12.4722 2.5 13.2368 3.29776 13.2368 4.28185C13.2368 4.45519 13.213 4.62275 13.1688 4.78118L17.1159 7.1591C17.4267 6.82014 17.8646 6.60905 18.3497 6.60905C19.2928 6.60905 20.0573 7.40681 20.0573 8.3909C20.0573 9.22923 19.5025 9.93235 18.7551 10.1222V14.8777C19.5025 15.0675 20.0573 15.7707 20.0573 16.609C20.0573 17.5931 19.2928 18.3908 18.3497 18.3908C17.8646 18.3908 17.4267 18.1798 17.1159 17.8408L13.1688 20.2187C13.213 20.3772 13.2368 20.5448 13.2368 20.7182C13.2368 21.7022 12.4722 22.5 11.5292 22.5C10.5861 22.5 9.82155 21.7022 9.82155 20.7182C9.82155 20.5448 9.84528 20.3772 9.88953 20.2187ZM5.11396 10.122C5.86086 9.93174 6.41521 9.22887 6.41521 8.3909C6.41521 8.21773 6.39154 8.05033 6.34738 7.89204L10.2953 5.51362C10.3127 5.5326 10.3305 5.55118 10.3487 5.56935L5.18699 14.8983C5.16287 14.891 5.13851 14.8842 5.11396 14.8779V10.122ZM17.8712 14.8981C17.8953 14.8907 17.9197 14.8839 17.9443 14.8777V10.1222C17.1969 9.93235 16.6421 9.22923 16.6421 8.3909C16.6421 8.21755 16.6658 8.04998 16.7101 7.89153L12.763 5.51363C12.7456 5.53261 12.7278 5.55119 12.7096 5.56935L17.8712 14.8981Z" fill="#F472B6"/>
</svg>
