<svg width="24" height="25" viewBox="0 0 24 25" fill="none" xmlns="http://www.w3.org/2000/svg">
<path d="M8.56199 16.542C8.39501 14.8817 8.23501 13.2207 8.08199 11.559C8.08299 11.517 7.85599 11.483 7.57599 11.483H7.06799V9.55H11.034V5.8L12.905 4.675C14.045 3.99 14.883 3.55 15.049 3.55C15.449 3.55 15.915 4.056 15.915 4.49C15.915 4.679 15.858 4.911 15.788 5.007C15.718 5.102 15.066 5.537 14.338 5.972L13.017 6.765L12.989 8.157L12.96 9.55H16.932V11.483H15.952L15.458 16.466L14.963 21.449H9.04699L8.56199 16.542Z" fill="#F87171"/>
</svg>
