<svg width="24" height="25" viewBox="0 0 24 25" fill="none" xmlns="http://www.w3.org/2000/svg">
<path d="M6.06128 3.2176C5.08936 3.19328 3.88904 3.70152 3.88904 3.70152L7.85808 11.7527L5.75344 20.7503C7.6744 22.3747 9.79312 21.5978 9.79312 21.5978L10.7681 14.6354C10.8913 14.752 11.0218 14.8589 11.1535 14.9576C11.5766 15.2573 12.035 15.4863 12.4932 15.6626C12.9516 15.8389 13.4276 15.9799 13.9036 16.0857C14.221 16.1562 14.5205 16.2091 14.8378 16.2444C14.6967 16.5617 14.6086 16.8966 14.6263 17.2668C14.6263 17.302 14.6439 17.3372 14.6792 17.3548H14.6968C15.0317 17.5311 15.3842 17.6724 15.772 17.7605C16.1422 17.831 16.5478 17.8663 16.9356 17.8134C17.341 17.7606 17.7465 17.6018 18.0638 17.3374C18.3812 17.073 18.6103 16.7203 18.7514 16.3502L18.769 16.3326V16.315L18.822 15.8391V15.8214C18.9982 15.7156 19.1745 15.6098 19.3508 15.4689C19.5623 15.2926 19.7562 15.0986 19.8972 14.8518C20.0383 14.605 20.1264 14.3053 20.1087 14.0056C20.0911 13.7236 19.9852 13.4417 19.8618 13.1949C19.7384 12.9481 19.5798 12.7188 19.4036 12.5072C19.051 12.1018 18.6279 11.767 18.1696 11.5025C17.7288 11.2205 17.2352 10.9911 16.7416 10.8325L16.5477 10.7795L16.3893 10.7267C16.2835 10.6915 16.1952 10.6386 16.1071 10.6034C15.9308 10.4976 15.8073 10.3918 15.7191 10.2507C15.5429 9.98632 15.5253 9.58104 15.6134 9.15792C15.631 9.05216 15.6664 8.94632 15.7017 8.84056C15.7369 8.7348 15.7721 8.62896 15.8074 8.50552C15.8332 8.38866 15.8494 8.26985 15.8556 8.15032L18.2117 6.08872C18.0281 5.4108 15.9939 4.70448 15.9939 4.70448L9.94832 9.846L6.45952 3.26384C6.33424 3.2356 6.19992 3.22128 6.06112 3.21784L6.06128 3.2176ZM14.7493 9.11864C14.7131 9.30704 14.6971 9.50552 14.6971 9.70424C14.7147 10.0039 14.803 10.3391 14.9968 10.6212C15.1907 10.9032 15.455 11.1147 15.7195 11.2381C15.8496 11.3032 15.9854 11.3563 16.1251 11.3968L16.3367 11.4496L16.5129 11.4848C16.9713 11.6082 17.4118 11.7845 17.8173 12.0137C18.2227 12.2429 18.6106 12.5249 18.9279 12.8422C19.2453 13.1595 19.4921 13.565 19.5274 13.9705C19.545 14.2526 19.5096 14.4641 19.4214 14.6403C19.3334 14.8342 19.1923 15.0105 19.0337 15.1691C18.9632 15.2397 18.875 15.3101 18.8046 15.363C18.8046 15.2043 18.787 15.0458 18.7518 14.8871C18.7342 14.799 18.7164 14.7285 18.6812 14.6403C18.646 14.5698 18.6108 14.4818 18.5226 14.4289C18.505 14.4289 18.4872 14.4288 18.4872 14.4464C18.3814 14.7108 18.2052 14.9401 18.0114 15.0987C17.8174 15.2574 17.5706 15.3278 17.3238 15.3455C17.077 15.3631 16.8125 15.3103 16.5481 15.2398C16.2836 15.1693 16.0194 15.081 15.755 14.9929L15.7195 14.9752C15.6666 14.9576 15.5964 14.9754 15.5611 15.0106C15.4202 15.187 15.3142 15.3454 15.1909 15.5217C15.1079 15.653 15.0314 15.7884 14.9618 15.9273C14.6444 15.8038 14.3446 15.698 14.0274 15.5746C13.5866 15.3983 13.1458 15.2222 12.7404 15.0106C12.3173 14.8167 11.9121 14.5874 11.5595 14.323C11.3053 14.1323 11.0704 13.9321 10.8991 13.7032L11.093 12.3178L14.7493 9.11864Z" fill="#EA580C"/>
</svg>
