<svg width="24" height="24" viewBox="0 0 24 24" fill="none" xmlns="http://www.w3.org/2000/svg">
<path fill-rule="evenodd" clip-rule="evenodd" d="M8.528 11.121C5.774 11.121 4.326 14.599 2.735 14.599C1.755 14.599 1.608 13.923 1.608 13.685C1.608 13.353 1.845 12.979 2.173 12.979C2.763 12.979 2.587 13.749 2.587 13.749C2.587 13.749 3.385 13.194 2.859 12.451C2.438 11.856 1.549 11.828 0.938997 12.281C0.320997 12.739 -0.118003 13.427 0.0859968 14.568C0.185997 15.119 0.553997 15.918 1.319 16.373C2.083 16.829 3.244 16.94 3.654 16.94C5.848 16.94 7.996 15.307 10.292 14.618C10.7787 14.4754 11.2828 14.4007 11.79 14.396C12.4378 14.37 13.0857 14.4459 13.71 14.621C16.006 15.31 18.154 16.945 20.348 16.945C20.758 16.945 21.918 16.834 22.683 16.378C23.448 15.923 23.815 15.123 23.913 14.571C24.118 13.431 23.679 12.742 23.061 12.284C22.451 11.831 21.564 11.861 21.143 12.456C20.617 13.199 21.413 13.753 21.413 13.753C21.413 13.753 21.237 12.983 21.827 12.983C22.156 12.983 22.392 13.356 22.392 13.688C22.392 13.927 22.245 14.603 21.265 14.603C19.675 14.603 18.225 11.124 15.472 11.124C12.907 11.124 12.396 12.301 12.01 12.842C12.006 12.847 12.005 12.853 12.002 12.859C11.997 12.852 11.995 12.845 11.99 12.839C11.604 12.298 11.094 11.121 8.528 11.121Z" fill="#F87171"/>
</svg>
