<svg width="24" height="24" viewBox="0 0 24 24" fill="none" xmlns="http://www.w3.org/2000/svg">
<path d="M20.9494 16.0458L18.9264 11.9976L20.949 7.95474L20.9997 7.85334V7.73997V3.48002V3H20.5197H16.2597H16.1465L16.0452 3.05059L11.9998 5.07134L7.95433 3.05059L7.85305 3H7.73984H3.48H3V3.48002V7.73997V7.85334L3.05072 7.95474L5.07327 11.9977L3.05062 16.0458L3 16.1471V16.2604V20.52V21H3.48H7.73984H7.85325L7.95467 20.9492L11.9998 18.9246L16.0448 20.9492L16.1463 21H16.2597H20.52H21V20.52L21 16.2604V16.1471L20.9494 16.0458ZM17.994 11.6038L12.3972 6.00533L19.8603 4.14169L17.994 11.6038ZM6.00553 11.6012L4.13975 4.1417L11.6039 6.00569L6.00553 11.6012ZM6.00528 12.3953L11.6021 17.9923L4.1397 19.8561L6.00528 12.3953ZM17.994 12.3954L19.8602 19.8561L12.3975 17.9923L17.994 12.3954Z" fill="#A855F7"/>
</svg>
