<svg width="24" height="24" viewBox="0 0 24 24" fill="none" xmlns="http://www.w3.org/2000/svg">
<path d="M14.552 11.422L12.886 13.064L15.386 15.524L12.886 17.986L14.552 19.626L17.054 17.165L19.554 19.625L21.219 17.985L18.719 15.525L21.219 13.064L19.553 11.422L17.053 13.883L14.552 11.422ZM5.77001 4.37399C4.12601 4.37399 2.78101 5.73399 2.78101 7.39699V16.462C2.78101 18.14 4.12601 19.485 5.76901 19.485H8.75801C10.416 19.485 11.746 18.14 11.746 16.462V7.39699C11.746 5.73399 10.416 4.37399 8.75801 4.37399H5.77001ZM5.77001 7.39699H8.75801V16.462H5.76901L5.77001 7.39699Z" fill="#F472B6"/>
</svg>
