<svg width="24" height="24" viewBox="0 0 24 24" fill="none" xmlns="http://www.w3.org/2000/svg">
<path fill-rule="evenodd" clip-rule="evenodd" d="M12.839 14.958L10.392 12.54L10.421 12.51C12.0529 10.6963 13.2723 8.55034 13.995 6.22001H16.818V4.29101H10.074V2.36501H8.14698V4.29201H1.40198V6.22001H12.164C11.4983 8.12403 10.4601 9.87644 9.10998 11.375C8.23062 10.4005 7.48229 9.31532 6.88398 8.14701H4.95798C5.68042 9.75165 6.64872 11.2338 7.82798 12.54L2.92498 17.377L4.29298 18.745L9.10998 13.928L12.107 16.924L12.839 14.958ZM18.263 10.074H16.336L12.001 21.636H13.928L15.007 18.746H19.583L20.672 21.636H22.599L18.263 10.074ZM15.739 16.818L17.299 12.646L18.86 16.818H15.739Z" fill="#CFD8DC"/>
</svg>
