<svg width="24" height="24" viewBox="0 0 24 24" fill="none" xmlns="http://www.w3.org/2000/svg">
<path d="M1.123 4.881V13.337L4.766 9.694C4.8431 9.61733 4.90429 9.52618 4.94604 9.42578C4.98779 9.32539 5.00928 9.21773 5.00928 9.109C5.00928 9.00027 4.98779 8.89261 4.94604 8.79221C4.90429 8.69182 4.8431 8.60067 4.766 8.524L1.123 4.881ZM5.573 18.947V10.491L1.93 14.134C1.8529 14.2107 1.79172 14.3018 1.74997 14.4022C1.70822 14.5026 1.68672 14.6103 1.68672 14.719C1.68672 14.8277 1.70822 14.9354 1.74997 15.0358C1.79172 15.1362 1.8529 15.2273 1.93 15.304L5.573 18.947ZM22.952 8.25L12.848 9.316L12.815 9.35L17.333 13.868L22.952 8.25ZM6.595 4.64C6.595 4.64 6.639 10.885 6.589 13.054C6.552 14.673 7.292 15.16 7.999 15.902C9.017 16.969 11.021 18.87 11.021 18.87C11.417 19.26 12.046 19.263 12.439 18.87L15.924 15.385C16.0173 15.2921 16.0913 15.1817 16.1418 15.0601C16.1923 14.9385 16.2183 14.8082 16.2183 14.6765C16.2183 14.5448 16.1923 14.4145 16.1418 14.2929C16.0913 14.1713 16.0173 14.0609 15.924 13.968L6.595 4.64Z" fill="#CFD8DC"/>
</svg>
