<svg width="24" height="24" viewBox="0 0 24 24" fill="none" xmlns="http://www.w3.org/2000/svg">
<path d="M12 1.703C11.75 1.701 11.5 1.813 11.271 2.041C8.19192 5.11558 5.11658 8.19392 2.045 11.276C1.901 11.42 1.816 11.623 1.704 11.798V12.208C1.864 12.431 1.998 12.682 2.189 12.874C5.16189 15.8588 8.14056 18.8378 11.125 21.811C11.318 22.003 11.568 22.136 11.791 22.297H12.201C12.406 22.155 12.637 22.041 12.81 21.868C15.856 18.828 18.9 15.786 21.943 12.742C22.413 12.272 22.415 11.737 21.949 11.27L12.73 2.052C12.5 1.822 12.251 1.706 12 1.703ZM10.938 6.25L12.324 7.082C13.026 7.504 13.727 7.927 14.433 8.344C14.4467 8.35208 14.4601 8.36075 14.473 8.37L14.489 8.383L14.506 8.396C14.567 8.452 14.595 8.518 14.594 8.62C14.5893 9.88433 14.5893 11.1487 14.594 12.413C14.5949 12.4445 14.5925 12.476 14.587 12.507C14.572 12.577 14.533 12.611 14.445 12.617C14.4304 12.618 14.4157 12.6184 14.401 12.618L14.265 12.615C13.942 12.61 13.617 12.615 13.267 12.615V10.072L13.271 9.404C13.271 9.258 13.232 9.174 13.101 9.097C12.208 8.569 11.321 8.03 10.431 7.497C10.38 7.467 10.33 7.432 10.258 7.385L10.259 7.383L10.258 7.382L10.938 6.25ZM11.3 9.64C11.368 9.637 11.419 9.682 11.473 9.778C11.558 9.925 11.647 10.071 11.737 10.217L11.752 10.242C11.848 10.397 11.946 10.552 12.044 10.712L10.129 11.888C9.792 12.096 9.456 12.306 9.115 12.506C9.002 12.572 8.961 12.649 8.961 12.783C8.971 13.76 8.971 14.737 8.975 15.715V15.968H7.664C7.66 15.914 7.65 15.856 7.65 15.798C7.645 14.548 7.644 13.296 7.635 12.046C7.635 11.906 7.68 11.826 7.799 11.753C8.91955 11.0727 10.0372 10.3877 11.152 9.698L11.168 9.689C11.1785 9.68268 11.1892 9.67667 11.2 9.671L11.216 9.664C11.2267 9.65903 11.2378 9.65469 11.249 9.651L11.261 9.647C11.2702 9.64449 11.2795 9.64281 11.289 9.642L11.299 9.64H11.3ZM16.977 12.765L17.291 13.305L17.637 13.9V13.901C17.479 13.995 17.339 14.078 17.199 14.159L14.102 15.957C13.996 16.019 13.913 16.029 13.802 15.967L12.909 15.472L11.385 14.629L10.49 14.136C10.455 14.116 10.422 14.092 10.361 14.051H10.362L10.499 13.8L10.994 12.898L12.44 13.693C12.882 13.937 13.326 14.177 13.763 14.428C13.884 14.497 13.975 14.499 14.097 14.428C14.991 13.902 15.889 13.384 16.786 12.865C16.843 12.831 16.904 12.803 16.977 12.765Z" fill="#60A5FA"/>
</svg>
