<svg width="24" height="24" viewBox="0 0 24 24" fill="none" xmlns="http://www.w3.org/2000/svg">
<path d="M12 2C6.483 2 2 6.483 2 12C2 17.517 6.483 22 12 22C17.517 22 22 17.517 22 12C22 6.483 17.517 2 12 2ZM12 3.62C13.1006 3.61947 14.1906 3.83587 15.2075 4.25682C16.2245 4.67777 17.1485 5.29501 17.9267 6.07327C18.705 6.85153 19.3222 7.77555 19.7432 8.79249C20.1641 9.80944 20.3805 10.8994 20.38 12C20.3803 13.5673 19.9405 15.1031 19.1106 16.4326C18.2807 17.7622 17.0941 18.8319 15.686 19.52C15.629 19.526 15.573 19.537 15.516 19.541C14.9596 19.5802 14.4008 19.5158 13.868 19.351C13.7255 19.3061 13.5853 19.254 13.448 19.195C13.3092 19.1375 13.1734 19.0731 13.041 19.002C12.7787 18.8576 12.5315 18.6874 12.303 18.494C12.188 18.3979 12.0778 18.2961 11.973 18.189C11.5184 17.7176 11.1712 17.1533 10.9554 16.535C10.7396 15.9167 10.6604 15.2589 10.723 14.607C10.738 14.458 10.763 14.309 10.793 14.162C10.8522 13.8682 10.9406 13.5811 11.057 13.305C11.2608 12.8226 11.5475 12.3796 11.904 11.996C12.0582 11.8357 12.1974 11.6616 12.32 11.476C12.6597 10.9801 12.8963 10.421 13.016 9.832C13.0757 9.5374 13.1059 9.23759 13.106 8.937C13.1056 8.53137 13.0501 8.12768 12.941 7.737C12.9015 7.59209 12.8548 7.44925 12.801 7.309C12.7459 7.16932 12.6838 7.03249 12.615 6.899C12.4793 6.6315 12.3171 6.37824 12.131 6.143C12.0377 6.02611 11.9386 5.91397 11.834 5.807C11.6252 5.59135 11.3954 5.39705 11.148 5.227C10.6511 4.88871 10.0919 4.65248 9.503 4.532C9.20873 4.47234 8.90925 4.44219 8.609 4.442C8.531 4.442 8.453 4.447 8.375 4.452C9.50511 3.90455 10.7443 3.61945 12 3.618V3.62ZM13.531 6.404C14.257 7.399 14.869 8.218 15.001 9.32C15.177 10.78 13.384 14.476 12.668 15.539H14.133C14.649 14.738 15.785 12.289 16.119 11.273C16.502 11.969 17.416 14.64 17.623 15.539H18.957C18.451 13.58 17.442 10.498 15.004 6.447C15.004 6.447 14.014 6.404 13.531 6.404ZM5.008 8.461H6.342C6.549 9.36 7.462 12.031 7.846 12.727C8.179 11.711 9.316 9.262 9.832 8.461H11.297C10.58 9.524 8.787 13.221 8.963 14.68C9.095 15.782 9.708 16.601 10.433 17.596C9.95 17.596 8.961 17.553 8.961 17.553C6.522 13.503 5.514 10.42 5.008 8.461Z" fill="#F87171"/>
</svg>
