<svg width="24" height="24" viewBox="0 0 24 24" fill="none" xmlns="http://www.w3.org/2000/svg">
<path d="M4.34001 2.424H19.66C19.9116 2.42387 20.1607 2.4733 20.3932 2.56948C20.6256 2.66566 20.8368 2.8067 21.0148 2.98453C21.1927 3.16237 21.3338 3.37352 21.4301 3.60593C21.5264 3.83833 21.576 4.08743 21.576 4.339V19.661C21.576 19.9126 21.5264 20.1617 21.4301 20.3941C21.3338 20.6265 21.1927 20.8376 21.0148 21.0155C20.8368 21.1933 20.6256 21.3343 20.3932 21.4305C20.1607 21.5267 19.9116 21.5761 19.66 21.576H4.34001C4.08836 21.5761 3.83915 21.5267 3.60664 21.4304C3.37412 21.3342 3.16285 21.193 2.9849 21.0151C2.80696 20.8372 2.66583 20.6259 2.56959 20.3934C2.47335 20.1609 2.42388 19.9116 2.42401 19.66V4.34C2.42375 4.08826 2.47312 3.83895 2.5693 3.60631C2.66549 3.37368 2.80659 3.16229 2.98455 2.98424C3.1625 2.80619 3.37382 2.66498 3.6064 2.56867C3.83899 2.47237 4.08828 2.42387 4.34001 2.424ZM6.25601 6.253V10.084H10.086V12H8.17001V17.745H10.085V15.83H13.915V17.745H15.83V12H13.915V10.085H17.745V6.255H13.915V10.085H10.085V6.255L6.25601 6.253Z" fill="#4CAF50"/>
</svg>
