<svg width="24" height="24" viewBox="0 0 24 24" fill="none" xmlns="http://www.w3.org/2000/svg">
<path d="M18.2695 9.262C18.2695 8.95975 18.0277 8.65762 17.6651 8.65762H6.30286C6.00061 8.65762 5.69849 8.89937 5.69849 9.262C5.69849 11.3169 6.00061 18.388 9.02249 21.833C9.14336 21.9539 9.26424 22.0142 9.44561 22.0142H14.5224C14.7036 22.0142 14.8245 21.9539 14.9454 21.833C17.9672 18.4485 18.2695 11.3772 18.2695 9.262ZM13.7971 20.2616H10.2312C10.05 20.2616 9.92911 20.2011 9.80824 20.0804C7.75336 17.6629 7.51161 12.8279 7.45111 11.1355C7.45111 10.8334 7.69286 10.5311 8.05549 10.5311H16.0332C16.3355 10.5311 16.6376 10.7729 16.6376 11.1355C16.6376 12.8277 16.3355 17.6024 14.2806 20.0802C14.0994 20.2011 13.9784 20.2616 13.7971 20.2616ZM13.1322 7.44887C13.1322 7.44887 15.308 6.17962 13.9785 3.883C13.1927 2.67425 12.8301 1.64687 13.1322 1.22375C12.3466 2.19075 11.017 3.21825 12.4675 5.394C12.951 5.93787 13.1927 7.08625 13.1322 7.44887ZM10.7147 7.63012C10.7147 7.63012 12.1652 6.784 11.2587 5.21262C10.7147 4.427 10.473 3.70175 10.7147 3.46C10.1709 4.12475 9.32474 4.78962 10.2917 6.3005C10.5939 6.60275 10.7147 7.38837 10.7147 7.63012Z" fill="#CFD8DC"/>
<path d="M15.6706 14.6409C15.429 16.2727 14.9455 18.1464 13.918 19.3551C13.7971 19.4759 13.6762 19.5364 13.5554 19.5364H10.5335C10.4126 19.5364 10.2314 19.4759 10.1709 19.3551C9.4456 18.4485 8.9621 17.2397 8.65985 15.9705C8.65985 15.9705 12.1654 16.4541 14.1597 15.7289C15.6102 15.1849 15.6706 14.6409 15.6706 14.6409Z" fill="#CFD8DC"/>
</svg>
