<svg width="24" height="24" viewBox="0 0 24 24" fill="none" xmlns="http://www.w3.org/2000/svg">
<path d="M12 1.481C10.6177 1.47771 9.24844 1.7475 7.97074 2.27488C6.69304 2.80227 5.5321 3.57686 4.5546 4.55418C3.5771 5.5315 2.80228 6.69229 2.27465 7.96989C1.74702 9.24749 1.47697 10.6167 1.48001 11.999C1.48001 17.827 6.17001 22.519 11.998 22.519C17.826 22.519 22.52 17.826 22.52 12C22.523 10.6177 22.253 9.2484 21.7254 7.97074C21.1978 6.69308 20.423 5.53223 19.4455 4.55483C18.468 3.57743 17.3071 2.80275 16.0293 2.27525C14.7516 1.74775 13.3823 1.47784 12 1.481ZM7.95201 6.899C7.99055 6.89806 8.0286 6.90775 8.06201 6.927L13.723 10.197C13.7552 10.2158 13.7918 10.2257 13.829 10.2257C13.8663 10.2257 13.9028 10.2158 13.935 10.197L15.937 9.04C15.9688 9.02115 16.0051 9.01104 16.0421 9.01071C16.0791 9.01037 16.1155 9.01981 16.1477 9.03808C16.1799 9.05635 16.2067 9.0828 16.2253 9.11475C16.244 9.14669 16.2539 9.183 16.254 9.22V16.89C16.2544 16.9273 16.2449 16.9639 16.2265 16.9963C16.208 17.0287 16.1813 17.0556 16.149 17.0742C16.1167 17.0928 16.0801 17.1025 16.0428 17.1023C16.0056 17.1021 15.9691 17.092 15.937 17.073L10.275 13.803C10.2431 13.7846 10.2069 13.7749 10.17 13.7749C10.1331 13.7749 10.0969 13.7846 10.065 13.803L8.06101 14.962C8.02902 14.9802 7.99281 14.9897 7.956 14.9896C7.91919 14.9894 7.88307 14.9795 7.85126 14.961C7.81946 14.9425 7.79308 14.9159 7.77479 14.8839C7.75649 14.852 7.74691 14.8158 7.74701 14.779V7.11C7.74701 6.989 7.84401 6.901 7.95201 6.899Z" fill="#CFD8DC" fill-opacity="0.811765"/>
</svg>
