<svg width="24" height="24" viewBox="0 0 24 24" fill="none" xmlns="http://www.w3.org/2000/svg">
<path d="M4.38297 15.808L2.56763 5.82279C2.47434 5.30966 3.13049 5.01435 3.45272 5.42444L8.19197 11.456L11.5527 4.73357C11.737 4.36501 12.2629 4.36501 12.4472 4.73357L15.808 11.456L20.5472 5.42444C20.8694 5.01435 21.5256 5.30966 21.4323 5.82279L19.617 15.808H4.38297ZM19.617 19.072C19.6171 19.215 19.5891 19.3565 19.5344 19.4887C19.4798 19.6208 19.3997 19.7408 19.2987 19.842C19.1976 19.9431 19.0776 20.0233 18.9456 20.0781C18.8135 20.1328 18.6719 20.161 18.529 20.161H5.46997C5.32701 20.161 5.18545 20.1328 5.05338 20.0781C4.92131 20.0233 4.80133 19.9431 4.70028 19.842C4.59924 19.7408 4.51912 19.6208 4.4645 19.4887C4.40988 19.3565 4.38184 19.215 4.38197 19.072V17.984H19.616L19.617 19.072Z" fill="#FBBF24"/>
</svg>
