<svg width="24" height="24" viewBox="0 0 24 24" fill="none" xmlns="http://www.w3.org/2000/svg">
<path d="M16.693 5.536H11.353C10.6247 5.5327 9.90303 5.67341 9.22936 5.95003C8.55569 6.22665 7.94335 6.63372 7.42756 7.14784C6.91178 7.66195 6.50272 8.27296 6.22391 8.94573C5.9451 9.6185 5.80205 10.3397 5.80298 11.068V16.41C5.80325 17.8751 6.38546 19.2802 7.42157 20.3161C8.45768 21.352 9.86283 21.934 11.328 21.934H16.669C17.3951 21.934 18.1141 21.7909 18.7849 21.5128C19.4557 21.2347 20.0651 20.8271 20.5782 20.3133C21.0914 19.7995 21.4982 19.1896 21.7754 18.5185C22.0527 17.8473 22.1949 17.1281 22.194 16.402V11.068C22.1959 9.60579 21.618 8.20246 20.5871 7.16553C19.5561 6.12859 18.1552 5.54261 16.693 5.536ZM11.296 11.508C11.0648 11.7438 10.7663 11.9022 10.4415 11.9617C10.1167 12.0211 9.78143 11.9785 9.48174 11.8399C9.18205 11.7012 8.9326 11.4733 8.76761 11.1872C8.60262 10.9012 8.53017 10.5711 8.5602 10.2423C8.59023 9.91344 8.72126 9.60194 8.93533 9.35052C9.1494 9.0991 9.43602 8.92007 9.75586 8.838C10.0757 8.75592 10.4131 8.77481 10.7218 8.89208C11.0305 9.00935 11.2953 9.21925 11.48 9.493C11.6862 9.79864 11.7805 10.1661 11.7469 10.5333C11.7134 10.9004 11.5541 11.2448 11.296 11.508ZM16.597 19.256C16.0436 19.2558 15.5028 19.0915 15.0428 18.784C14.5828 18.4764 14.2243 18.0393 14.0127 17.5281C13.8011 17.0168 13.7458 16.4542 13.8539 15.9115C13.9619 15.3688 14.2285 14.8704 14.6199 14.4792C15.0112 14.088 15.5098 13.8216 16.0525 13.7137C16.5952 13.6058 17.1578 13.6613 17.669 13.8731C18.1802 14.0849 18.6171 14.4435 18.9245 14.9036C19.2319 15.3637 19.396 15.9046 19.396 16.458C19.396 16.8255 19.3236 17.1894 19.1829 17.529C19.0422 17.8685 18.836 18.177 18.5761 18.4368C18.3162 18.6967 18.0076 18.9027 17.668 19.0433C17.3285 19.1839 16.9645 19.2561 16.597 19.256Z" fill="#60A5FA"/>
<path d="M4.00439 5.86333C4.88756 5.86333 5.60351 5.14738 5.60351 4.26421C5.60351 3.38104 4.88756 2.66509 4.00439 2.66509C3.12122 2.66509 2.40527 3.38104 2.40527 4.26421C2.40527 5.14738 3.12122 5.86333 4.00439 5.86333Z" fill="#60A5FA"/>
<path d="M4.00439 6.463C5.21875 6.463 6.20318 5.47857 6.20318 4.26421C6.20318 3.04985 5.21875 2.06542 4.00439 2.06542C2.79003 2.06542 1.8056 3.04985 1.8056 4.26421C1.8056 5.47857 2.79003 6.463 4.00439 6.463Z" fill="#60A5FA"/>
</svg>
