<svg width="24" height="24" viewBox="0 0 24 24" fill="none" xmlns="http://www.w3.org/2000/svg">
<path d="M12 5.95688C10.3972 5.95688 8.86014 6.59357 7.72684 7.72687C6.59353 8.86018 5.95684 10.3973 5.95684 12C5.95684 13.6027 6.59352 15.1398 7.72683 16.2731C8.86013 17.4065 10.3972 18.0431 12 18.0431C13.6027 18.0431 15.1398 17.4065 16.2731 16.2732C17.4064 15.1399 18.0431 13.6028 18.0431 12C18.0431 11.2064 17.8868 10.4206 17.5831 9.68741C17.2794 8.95422 16.8343 8.28803 16.2731 7.72687C15.712 7.16571 15.0458 6.72057 14.3126 6.41687C13.5794 6.11317 12.7936 5.95686 12 5.95685L12 5.95688ZM22.072 12C22.072 13.3227 21.8115 14.6324 21.3053 15.8544C20.7991 17.0764 20.0572 18.1867 19.122 19.122C18.1867 20.0573 17.0764 20.7992 15.8544 21.3054C14.6324 21.8115 13.3226 22.072 12 22.072C10.6773 22.072 9.36757 21.8115 8.14557 21.3053C6.92358 20.7992 5.81326 20.0573 4.87798 19.122C3.94271 18.1867 3.20082 17.0764 2.69466 15.8544C2.18849 14.6324 1.92798 13.3227 1.92798 12C1.92798 9.32875 2.98914 6.7669 4.878 4.87804C6.76686 2.98918 9.32871 1.92802 12 1.92802C13.3226 1.92801 14.6324 2.18853 15.8544 2.69469C17.0763 3.20086 18.1867 3.94275 19.122 4.87802C20.0572 5.81329 20.7991 6.92362 21.3053 8.14561C21.8115 9.3676 22.072 10.6773 22.072 12Z" fill="#4ADE80"/>
<path d="M16.3112 10.5665H14.153L14.1529 13.4333H16.3111L16.3112 10.5665ZM13.4318 7.68881H10.5684V16.3112H13.4317L13.4318 7.68881ZM9.84718 10.5665H7.68896V13.4333H9.84709L9.84718 10.5665Z" fill="#4ADE80"/>
</svg>
