<svg width="24" height="24" viewBox="0 0 24 24" fill="none" xmlns="http://www.w3.org/2000/svg">
<path d="M8.8626 14.765L7.7052 21.3624H3.9371L7.1908 2.63741L13.7496 2.65027C15.7729 2.65027 17.3633 3.21183 18.5208 4.33497C19.6782 5.4581 20.184 6.92417 20.0383 8.73317C19.9011 10.5679 19.1338 12.034 17.7363 13.1314C16.3474 14.2288 14.5726 14.7775 12.4121 14.7775L8.8626 14.765ZM9.38987 11.6399L12.5278 11.6656C13.5394 11.6656 14.3796 11.4041 15.0484 10.8811C15.7171 10.3582 16.1158 9.65083 16.2444 8.75915C16.373 7.86748 16.2272 7.15588 15.8071 6.62435C15.3956 6.09279 14.7826 5.80986 13.9681 5.77557L10.4186 5.76271L9.38987 11.6399Z" fill="#60A5FA"/>
</svg>
