<svg width="24" height="24" viewBox="0 0 24 24" fill="none" xmlns="http://www.w3.org/2000/svg">
<path fill-rule="evenodd" clip-rule="evenodd" d="M22.847 7.50999C22.8011 7.35824 22.7077 7.2252 22.5807 7.13037C22.4536 7.03553 22.2995 6.98388 22.141 6.98299C22.0426 6.98118 21.9448 6.9985 21.853 7.03399C21.5127 7.16338 21.153 7.23438 20.789 7.24399C19.875 6.57199 17.658 4.95099 16.341 4.03999C16.341 4.03999 16.519 4.57099 16.759 5.56099C16.759 5.56099 14.673 4.36799 13.286 3.45499C13.286 3.45499 13.792 4.50499 13.829 4.84299C13.829 4.84299 12.166 4.53399 9.737 3.97899C9.737 3.97899 11.533 4.99599 11.969 5.59899C11.969 5.59899 9.789 5.41699 7.222 5.22999C7.222 5.22999 8.513 5.89399 9.14 6.42299C9.14 6.42299 6.804 6.71699 5.028 6.77099C5.028 6.77099 6.326 7.79599 6.848 8.28999C6.848 8.28999 4.618 9.10399 1.944 10.556C1.944 10.556 3.338 10.646 4.338 10.976C4.338 10.976 3.106 11.998 0.897003 14.352C0.897003 14.352 2.289 14.326 3.414 14.197C3.414 14.197 2.512 15.507 1.376 17.869C1.376 17.869 2.134 17.42 2.863 17.265C2.863 17.265 2.893 19.939 4.396 20.393L4.398 20.391C4.46429 20.4124 4.53337 20.4238 4.603 20.425C4.68063 20.4257 4.758 20.416 4.833 20.396C5.314 20.272 5.685 19.821 6.115 19.298C6.257 19.125 6.403 18.948 6.558 18.775C6.729 18.549 6.952 18.314 7.218 18.109C7.767 17.686 8.523 17.375 9.436 17.534C10.426 17.654 11.025 18.627 11.508 19.412C11.878 20.012 12.17 20.486 12.588 20.538C12.618 20.542 12.648 20.544 12.676 20.544C13.317 20.555 13.556 19.834 13.857 18.923L13.919 18.737L13.928 18.755C14.152 18.015 14.577 17.22 15.092 16.505C15.79 15.537 16.682 14.677 17.53 14.285L17.533 14.29C17.993 14.042 18.478 13.809 18.955 13.579C20.438 12.864 21.84 12.189 22.555 11.141C22.913 10.617 23.097 9.96999 23.103 9.21699C23.0997 8.639 23.0135 8.06348 22.847 7.50999ZM16.657 15.392C16.229 15.77 15.809 16.242 15.439 16.756C14.829 17.602 14.375 18.532 14.231 19.308C14.634 19.976 15.001 20.308 15.348 20.319H15.359C15.679 20.325 15.893 20.121 15.996 19.713C16.073 19.408 16.096 18.988 16.123 18.502C16.171 17.616 16.233 16.475 16.657 15.392ZM6.787 19.212L6.782 19.199C6.97136 18.912 7.20687 18.6582 7.479 18.448C7.921 18.108 8.501 17.86 9.195 17.932C9.10797 18.1494 9.01661 18.3652 8.921 18.579C8.579 19.342 8.173 20.129 7.748 20.186C7.72284 20.1896 7.69743 20.1913 7.672 20.191C7.341 20.185 7.051 19.866 6.787 19.212ZM15.299 6.77199L13.468 5.59199L16.5 6.69699L15.299 6.77199ZM10.199 7.20899L13.118 7.98499L14.404 7.59599L10.199 7.20899ZM15.402 8.72099L16.036 8.27299L13.606 8.62499L15.402 8.72099ZM11.252 8.64999L10.237 9.28299L7.462 8.97899L11.252 8.64999ZM14.355 10.328L15.382 9.79499L11.592 10.125L14.355 10.328ZM11.542 10.892L10.812 12.008L7.249 12.787L11.542 10.892ZM7.095 11.51L4.327 12.634L7.741 10.351L7.095 11.51ZM5.568 12.888L5.438 14.058L3.827 15.945L5.568 12.888Z" fill="#A855F7"/>
</svg>
