<svg width="24" height="24" viewBox="0 0 24 24" fill="none" xmlns="http://www.w3.org/2000/svg">
<path d="M22 2C19.977 2.139 5.766 3.492 4.773 13.234C4.65705 14.2758 4.579 15.3215 4.539 16.369L8.852 12.061C8.58343 12.2807 8.24699 12.4005 7.9 12.4C7.50217 12.4 7.12064 12.242 6.83934 11.9607C6.55803 11.6794 6.4 11.2978 6.4 10.9C6.4 10.5022 6.55803 10.1206 6.83934 9.83934C7.12064 9.55804 7.50217 9.4 7.9 9.4C8.29782 9.4 8.67936 9.55804 8.96066 9.83934C9.24196 10.1206 9.4 10.5022 9.4 10.9C9.40026 11.252 9.27672 11.5929 9.051 11.863L11.527 9.389C11.6442 9.27164 11.8033 9.20566 11.9691 9.20556C12.135 9.20547 12.2941 9.27127 12.4115 9.3885C12.5289 9.50573 12.5948 9.66477 12.5949 9.83065C12.595 9.99652 12.5292 10.1556 12.412 10.273L9.887 12.795C10.1634 12.5413 10.5248 12.4003 10.9 12.4C11.2978 12.4 11.6794 12.558 11.9607 12.8393C12.242 13.1206 12.4 13.5022 12.4 13.9C12.4 14.2978 12.242 14.6794 11.9607 14.9607C11.6794 15.242 11.2978 15.4 10.9 15.4C10.5022 15.4 10.1206 15.242 9.83934 14.9607C9.55804 14.6794 9.4 14.2978 9.4 13.9C9.39967 13.5321 9.53456 13.1769 9.779 12.902L2.275 20.4C2.188 20.4871 2.11901 20.5905 2.07198 20.7043C2.02494 20.8181 2.00078 20.9401 2.00088 21.0632C2.00097 21.1863 2.02531 21.3082 2.07252 21.422C2.11972 21.5357 2.18887 21.639 2.276 21.726C2.36313 21.813 2.46655 21.882 2.58034 21.929C2.69413 21.9761 2.81608 22.0002 2.93921 22.0001C3.06234 22 3.18424 21.9757 3.29797 21.9285C3.41169 21.8813 3.515 21.8121 3.602 21.725L5.834 19.496C7.47805 19.4914 9.12057 19.3956 10.754 19.209C12.843 18.996 14.545 18.176 15.934 17.002H11.988L17.723 15.092C18.1623 14.5075 18.5596 13.8926 18.912 13.252H15.742L19.904 11.174C21.543 7.191 21.929 3.025 22 2Z" fill="#FF7043"/>
</svg>
