<svg width="24" height="24" viewBox="0 0 24 24" fill="none" xmlns="http://www.w3.org/2000/svg">
<path d="M8.562 16.0185C8.45625 15.3825 8.13825 14.8523 7.5015 14.64C7.29 14.5343 6.972 14.322 6.759 14.2163C6.44175 14.1105 6.12375 14.004 5.9115 13.8983C5.69925 13.7925 5.48775 13.8983 5.2755 14.1105C5.169 14.322 5.2755 14.5343 5.38125 14.64C5.48775 14.8523 5.5935 14.958 5.80575 15.1703C6.01725 15.4883 6.2295 15.7005 6.54825 16.0185C6.75975 16.3365 6.972 16.5488 6.8655 16.9725C6.75975 17.715 6.44175 18.4575 5.9115 18.987C5.80575 19.0928 5.69925 19.0928 5.69925 19.0928C5.38125 19.0928 4.95675 18.8813 4.74525 18.669C4.42725 18.351 4.533 18.033 4.851 17.8215C4.9062 17.8178 4.95817 17.7941 4.99722 17.755C5.03627 17.7158 5.05974 17.6637 5.06325 17.6085C5.2755 17.397 5.38125 17.1848 5.2755 16.866C5.16975 16.761 5.16975 16.6545 5.06325 16.5488C4.6395 16.1243 4.10925 15.7005 3.579 15.2768C2.20125 14.2163 1.5645 12.9443 1.45875 11.4593C1.353 9.76351 1.77675 8.17351 2.625 6.68926C2.943 6.15901 3.3675 5.62876 4.0035 5.31076C4.42725 5.09851 4.851 4.99276 5.2755 4.88701C6.44175 4.56826 7.71375 4.35676 8.98575 4.56826C10.0463 4.78051 10.8945 5.31076 11.2125 6.37126C11.4248 7.11301 11.5305 7.74901 11.4248 8.49151C11.3183 9.97576 10.152 11.2478 8.77425 11.6715C8.13825 11.8838 7.8195 11.778 7.5015 11.2478C7.29 10.9298 6.972 10.5053 6.759 10.0815V9.97576C6.759 9.86926 6.654 9.86926 6.654 9.76351C6.759 10.3995 6.8655 11.0355 7.1835 11.5658C7.39575 11.8838 7.608 12.096 8.03175 12.096C9.41025 12.2018 10.47 11.778 11.3183 10.7175C12.1665 9.55126 12.3788 8.17351 12.1665 6.68926C12.1665 6.37126 12.0608 6.15901 11.955 5.84101C11.955 5.62876 11.955 5.52301 12.1665 5.41651C12.273 5.41651 12.3787 5.41651 12.3787 5.31076C13.4392 5.09851 14.6047 4.99276 15.6652 5.09851C16.9373 5.20501 18.1035 5.52301 19.164 6.26476C20.8605 7.32526 21.9202 8.91526 22.4505 10.824C22.5562 11.142 22.5563 11.3535 22.5563 11.6715C22.5563 11.8838 22.4505 11.8838 22.2382 11.778C22.0268 11.6715 21.9202 11.46 21.8145 11.3535C21.7088 11.247 21.6023 11.0355 21.4965 10.9298C21.3908 10.824 21.2843 10.824 21.2843 10.9298C21.2843 11.0355 21.1785 11.142 21.1785 11.2478C20.8605 12.3083 20.436 13.2623 19.6935 14.004C19.5885 14.1105 19.482 14.322 19.482 14.4285C19.482 14.8523 19.3763 15.276 19.482 15.7005C19.5877 16.548 19.6943 17.5028 19.8 18.351C19.9058 18.8813 19.6943 19.0935 19.2698 19.305C18.9518 19.4108 18.6338 19.5173 18.21 19.5173H16.5135C16.5135 18.8813 16.5135 18.2453 15.9833 17.9273C16.089 17.5028 16.1955 17.079 16.3013 16.5488C16.4078 16.1243 16.3013 15.8063 16.089 15.4883C15.8775 15.1703 15.5595 15.1703 15.2415 15.2768C14.3933 15.8063 13.545 15.8063 12.591 15.4883C12.1665 15.3825 11.8485 15.3825 11.6363 15.8063C11.4248 16.2308 11.3183 16.6545 11.3183 17.079C11.3183 17.6085 11.4248 18.2445 11.5305 18.7748C11.5305 19.0928 11.5305 19.1993 11.2125 19.305C10.5222 19.4961 9.79816 19.5322 9.09225 19.4108H8.9865C8.9865 18.7748 8.9865 18.1388 8.244 17.8208C8.6685 17.397 8.6685 16.6545 8.562 16.0185ZM4.215 13.5803C4.3215 13.4738 4.42725 13.368 4.42725 13.1558C4.533 12.8378 4.215 12.3083 3.897 12.2018C3.6855 12.096 3.579 12.2018 3.47325 12.3083C3.15525 12.6263 2.943 12.9443 2.625 13.2623C2.625 13.368 2.51925 13.368 2.51925 13.4738C2.41275 13.686 2.51925 13.8983 2.73075 13.8983C2.83725 13.8983 3.04875 13.8983 3.15525 14.004C3.579 14.004 3.89775 13.8983 4.215 13.5803ZM4.215 10.0815C4.215 9.86926 4.0035 9.65776 3.79125 9.65776C3.579 9.65776 3.261 9.86926 3.3675 10.1873C3.3675 10.3995 3.579 10.6118 3.897 10.6118C4.0035 10.5053 4.215 10.2938 4.215 10.0815Z" fill="#F472B6"/>
</svg>
