<svg width="24" height="24" viewBox="0 0 24 24" fill="none" xmlns="http://www.w3.org/2000/svg">
<path d="M9.708 15.968V14.539L5.738 15.664C5.738 15.664 6.032 13.961 8.102 13.373C8.62235 13.2166 9.1723 13.1854 9.707 13.282V7.422H11.695C11.5306 6.89502 11.3298 6.38011 11.094 5.881C10.803 5.29 10.505 5.681 9.828 6.248C9.351 6.646 8.146 7.496 6.333 7.985C4.52 8.474 3.055 8.344 2.443 8.238C1.576 8.088 1.122 7.897 1.165 8.558C1.202 9.138 1.34 10.041 1.657 11.231C2.345 13.811 4.614 18.781 8.902 17.626C10.022 17.324 10.812 16.728 11.361 15.966H9.708V15.968ZM3.304 11.267L6.351 10.464C6.351 10.464 6.261 11.637 5.119 11.938C3.977 12.238 3.304 11.267 3.304 11.267Z" fill="#71717A"/>
<path d="M21.178 7.48999C20.386 7.62999 18.484 7.80199 16.136 7.17199C13.786 6.54199 12.228 5.44299 11.61 4.92599C10.734 4.19299 10.35 3.68199 9.97001 4.45299C9.63501 5.13299 9.20701 6.23899 8.79201 7.78999C7.89401 11.144 7.22201 18.222 12.777 19.711C18.331 21.2 21.289 14.733 22.187 11.378C22.603 9.83 22.784 8.65799 22.834 7.90099C22.892 7.04399 22.304 7.29299 21.178 7.49099V7.48999ZM10.016 10.266C10.016 10.266 10.891 8.903 12.376 9.32599C13.862 9.74799 13.976 11.391 13.976 11.391L10.016 10.266ZM13.64 16.376C11.029 15.611 10.626 13.528 10.626 13.528L17.642 15.49C17.642 15.49 16.226 17.13 13.64 16.376ZM16.122 12.096C16.122 12.096 16.996 10.734 18.48 11.158C19.964 11.582 20.082 13.223 20.082 13.223L16.122 12.096Z" fill="white"/>
</svg>
