<svg width="24" height="24" viewBox="0 0 24 24" fill="none" xmlns="http://www.w3.org/2000/svg">
<path fill-rule="evenodd" clip-rule="evenodd" d="M5.76911 14.8954C6.03983 18.4437 8.40902 21.5692 11.9663 21.5713H12.0337C15.5911 21.5692 17.9603 18.4437 18.2309 14.8954C18.2386 14.7958 18.2423 14.6935 18.2424 14.5885V14.5842C18.2416 13.0175 17.4049 10.8436 15.7691 8.26964C14.9177 6.93156 14.0604 5.59728 13.1972 4.26682C12.9149 3.8313 12.632 3.39617 12.3486 2.96142C12.2693 2.83991 12.19 2.71844 12.1106 2.597C12.0897 2.56498 12.0688 2.53298 12.0479 2.501L12 2.42804L11.9522 2.501C11.9312 2.53298 11.9103 2.56498 11.8894 2.597L11.6515 2.96151C11.368 3.39623 11.085 3.83133 10.8027 4.26682C9.93954 5.59728 9.08231 6.93156 8.23103 8.26964C6.59452 10.8448 5.75769 13.0196 5.75769 14.5863C5.75769 14.6921 5.76153 14.7951 5.76921 14.8955L5.76911 14.8954ZM8.80857 14.6309C8.94719 16.4476 10.1606 18.0479 11.9828 18.049H12.0173C13.8394 18.0478 15.0528 16.4476 15.1915 14.6309C15.1954 14.58 15.1973 14.5275 15.1974 14.4737V14.4715C15.197 13.6694 14.7684 12.5563 13.9305 11.2384C13.4945 10.5534 13.0554 9.87021 12.6133 9.18903C12.4282 8.90375 12.2426 8.61876 12.0565 8.33406L12 8.24756L11.9434 8.33406C11.7572 8.61867 11.5717 8.90366 11.3867 9.18903C10.9447 9.87021 10.5056 10.5534 10.0696 11.2384C9.23135 12.5569 8.80271 13.6704 8.80271 14.4727C8.80271 14.5268 8.80463 14.5796 8.80857 14.6309Z" fill="#14B8A6"/>
</svg>
