<svg width="24" height="25" viewBox="0 0 24 25" fill="none" xmlns="http://www.w3.org/2000/svg">
<path d="M19.1667 8.26817C19.1667 8.82046 18.719 9.26817 18.1667 9.26817H15.5971C15.0449 9.26817 14.5971 8.82046 14.5971 8.26817V5.49996C14.5971 4.94768 15.0449 4.49996 15.5971 4.49996H18.1667C18.719 4.49996 19.1667 4.94768 19.1667 5.49996V8.26817Z" fill="#F59E0B"/>
<path d="M13.7848 8.26817C13.7848 8.82046 13.3371 9.26817 12.7848 9.26817H10.2152C9.66296 9.26817 9.21524 8.82046 9.21524 8.26817V5.49996C9.21524 4.94768 9.66296 4.49996 10.2152 4.49996H12.7848C13.3371 4.49996 13.7848 4.94768 13.7848 5.49996V8.26817Z" fill="#F59E0B"/>
<path d="M8.40288 8.26817C8.40288 8.82046 7.95516 9.26817 7.40288 9.26817H4.83334C4.28106 9.26817 3.83334 8.82046 3.83334 8.26817V5.49996C3.83334 4.94768 4.28106 4.49996 4.83334 4.49996H7.40288C7.95516 4.49996 8.40288 4.94768 8.40288 5.49996V8.26817Z" fill="#F59E0B"/>
<path d="M19.1667 13.8841C19.1667 14.4363 18.719 14.8841 18.1667 14.8841H15.5971C15.0449 14.8841 14.5971 14.4363 14.5971 13.8841V11.1158C14.5971 10.5636 15.0449 10.1158 15.5971 10.1158H18.1667C18.719 10.1158 19.1667 10.5636 19.1667 11.1158V13.8841Z" fill="#F59E0B"/>
<path d="M13.7848 13.8841C13.7848 14.4363 13.3371 14.8841 12.7848 14.8841H10.2152C9.66296 14.8841 9.21524 14.4363 9.21524 13.8841V11.1158C9.21524 10.5636 9.66296 10.1158 10.2152 10.1158H12.7848C13.3371 10.1158 13.7848 10.5636 13.7848 11.1158V13.8841Z" fill="#71717A"/>
<path d="M13.7848 19.4999C13.7848 20.0522 13.3371 20.4999 12.7848 20.4999H10.2152C9.66296 20.4999 9.21524 20.0522 9.21524 19.4999V16.7317C9.21524 16.1794 9.66296 15.7317 10.2152 15.7317H12.7848C13.3371 15.7317 13.7848 16.1795 13.7848 16.7317V19.4999Z" fill="#71717A"/>
<path d="M19.1667 19.4999C19.1667 20.0522 18.719 20.4999 18.1667 20.4999H15.5971C15.0449 20.4999 14.5971 20.0522 14.5971 19.4999V16.7317C14.5971 16.1794 15.0449 15.7317 15.5971 15.7317H18.1667C18.719 15.7317 19.1667 16.1795 19.1667 16.7317V19.4999Z" fill="#71717A"/>
<path d="M8.40288 19.4999C8.40288 20.0522 7.95516 20.4999 7.40288 20.4999H4.83334C4.28106 20.4999 3.83334 20.0522 3.83334 19.4999V16.7317C3.83334 16.1794 4.28106 15.7317 4.83334 15.7317H7.40288C7.95516 15.7317 8.40288 16.1795 8.40288 16.7317V19.4999Z" fill="#71717A"/>
</svg>
