<svg width="24" height="25" viewBox="0 0 24 25" fill="none" xmlns="http://www.w3.org/2000/svg">
<path d="M9.17263 20.6428H4.24406C4.01723 20.6428 3.83334 20.8347 3.83334 21.0714C3.83334 21.3081 4.01723 21.5 4.24406 21.5H9.17263C9.39946 21.5 9.58334 21.3081 9.58334 21.0714C9.58334 20.8347 9.39946 20.6428 9.17263 20.6428Z" fill="#F87171"/>
<path d="M9.17262 18.9285H7.52976C7.30293 18.9285 7.11905 19.1204 7.11905 19.3571C7.11905 19.5938 7.30293 19.7856 7.52976 19.7856H9.17262C9.39945 19.7856 9.58333 19.5938 9.58333 19.3571C9.58333 19.1204 9.39945 18.9285 9.17262 18.9285Z" fill="#FBBF24"/>
<path d="M5.88691 18.9285H4.24406C4.01723 18.9285 3.83334 19.1204 3.83334 19.3571C3.83334 19.5938 4.01723 19.7857 4.24406 19.7857H5.88691C6.11375 19.7857 6.29763 19.5938 6.29763 19.3571C6.29763 19.1204 6.11375 18.9285 5.88691 18.9285Z" fill="#2DD4BF"/>
<path d="M9.17263 17.2142H4.24406C4.01723 17.2142 3.83334 17.4061 3.83334 17.6428C3.83334 17.8795 4.01723 18.0714 4.24406 18.0714H9.17263C9.39946 18.0714 9.58334 17.8795 9.58334 17.6428C9.58334 17.4061 9.39946 17.2142 9.17263 17.2142Z" fill="#C084FC"/>
<path d="M14.1012 15.5001H6.70835C6.48152 15.5001 6.29764 15.692 6.29764 15.9286C6.29764 16.1653 6.48152 16.3572 6.70835 16.3572H14.1012C14.328 16.3572 14.5119 16.1653 14.5119 15.9286C14.5119 15.692 14.328 15.5001 14.1012 15.5001Z" fill="#FBBF24"/>
<path d="M5.06549 15.5H4.24406C4.01723 15.5 3.83334 15.6919 3.83334 15.9286C3.83334 16.1653 4.01723 16.3572 4.24406 16.3572H5.06549C5.29232 16.3572 5.4762 16.1653 5.4762 15.9286C5.4762 15.6919 5.29232 15.5 5.06549 15.5Z" fill="#C084FC"/>
<path d="M16.5655 13.7857H14.1012C13.8744 13.7857 13.6905 13.9776 13.6905 14.2143C13.6905 14.451 13.8744 14.6428 14.1012 14.6428H16.5655C16.7923 14.6428 16.9762 14.451 16.9762 14.2143C16.9762 13.9776 16.7923 13.7857 16.5655 13.7857Z" fill="#C084FC"/>
<path d="M12.4584 13.7857H9.17265C8.94582 13.7857 8.76193 13.9776 8.76193 14.2143C8.76193 14.451 8.94582 14.6428 9.17265 14.6428H12.4584C12.6852 14.6428 12.8691 14.451 12.8691 14.2143C12.8691 13.9776 12.6852 13.7857 12.4584 13.7857Z" fill="#F87171"/>
<path d="M7.52977 13.7857H4.24406C4.01723 13.7857 3.83334 13.9776 3.83334 14.2143C3.83334 14.451 4.01723 14.6429 4.24406 14.6429H7.52977C7.7566 14.6429 7.94049 14.451 7.94049 14.2143C7.94049 13.9776 7.7566 13.7857 7.52977 13.7857Z" fill="#2DD4BF"/>
<path d="M17.3869 12.0714H10.8155C10.5887 12.0714 10.4048 12.2633 10.4048 12.5C10.4048 12.7367 10.5887 12.9286 10.8155 12.9286H17.3869C17.6138 12.9286 17.7976 12.7367 17.7976 12.5C17.7976 12.2633 17.6138 12.0714 17.3869 12.0714Z" fill="#2DD4BF"/>
<path d="M9.17264 12.0714H6.70835C6.48152 12.0714 6.29764 12.2633 6.29764 12.5C6.29764 12.7367 6.48152 12.9286 6.70835 12.9286H9.17264C9.39947 12.9286 9.58335 12.7367 9.58335 12.5C9.58335 12.2633 9.39947 12.0714 9.17264 12.0714Z" fill="#FBBF24"/>
<path d="M5.06549 12.0714H4.24406C4.01723 12.0714 3.83334 12.2633 3.83334 12.5C3.83334 12.7367 4.01723 12.9286 4.24406 12.9286H5.06549C5.29232 12.9286 5.4762 12.7367 5.4762 12.5C5.4762 12.2633 5.29232 12.0714 5.06549 12.0714Z" fill="#F87171"/>
<path d="M18.2083 10.3571H14.1012C13.8744 10.3571 13.6905 10.5489 13.6905 10.7856C13.6905 11.0223 13.8744 11.2142 14.1012 11.2142H18.2083C18.4352 11.2142 18.6191 11.0223 18.6191 10.7856C18.6191 10.5489 18.4352 10.3571 18.2083 10.3571Z" fill="#FBBF24"/>
<path d="M7.52977 10.3571H4.24406C4.01723 10.3571 3.83334 10.549 3.83334 10.7857C3.83334 11.0224 4.01723 11.2143 4.24406 11.2143H7.52977C7.7566 11.2143 7.94049 11.0224 7.94049 10.7857C7.94049 10.549 7.7566 10.3571 7.52977 10.3571Z" fill="#C084FC"/>
<path d="M18.2083 8.6428H14.1012C13.8744 8.6428 13.6905 8.83468 13.6905 9.07137C13.6905 9.30806 13.8744 9.49994 14.1012 9.49994H18.2083C18.4352 9.49994 18.6191 9.30806 18.6191 9.07137C18.6191 8.83468 18.4352 8.6428 18.2083 8.6428Z" fill="#F87171"/>
<path d="M7.52977 8.64281H4.24406C4.01723 8.64281 3.83334 8.83469 3.83334 9.07139C3.83334 9.30808 4.01723 9.49996 4.24406 9.49996H7.52977C7.7566 9.49996 7.94049 9.30808 7.94049 9.07139C7.94049 8.83469 7.7566 8.64281 7.52977 8.64281Z" fill="#FBBF24"/>
<path d="M17.3869 6.92863H16.5655C16.3386 6.92863 16.1548 7.12051 16.1548 7.35721C16.1548 7.5939 16.3386 7.78578 16.5655 7.78578H17.3869C17.6137 7.78578 17.7976 7.5939 17.7976 7.35721C17.7976 7.12051 17.6137 6.92863 17.3869 6.92863Z" fill="#2DD4BF"/>
<path d="M14.9227 6.92863H11.6369C11.4101 6.92863 11.2262 7.12051 11.2262 7.35721C11.2262 7.5939 11.4101 7.78578 11.6369 7.78578H14.9227C15.1495 7.78578 15.3334 7.5939 15.3334 7.35721C15.3334 7.12051 15.1495 6.92863 14.9227 6.92863Z" fill="#C084FC"/>
<path d="M9.99406 6.92861H4.24406C4.01723 6.92861 3.83334 7.12049 3.83334 7.35718C3.83334 7.59388 4.01723 7.78575 4.24406 7.78575H9.99406C10.2209 7.78575 10.4048 7.59388 10.4048 7.35718C10.4048 7.12049 10.2209 6.92861 9.99406 6.92861Z" fill="#2DD4BF"/>
<path d="M16.5655 5.21426H8.3512C8.12437 5.21426 7.94049 5.40613 7.94049 5.64283C7.94049 5.87952 8.12437 6.0714 8.3512 6.0714H16.5655C16.7923 6.0714 16.9762 5.87952 16.9762 5.64283C16.9762 5.40613 16.7923 5.21426 16.5655 5.21426Z" fill="#FBBF24"/>
<path d="M6.70834 5.2143H4.24406C4.01723 5.2143 3.83334 5.40618 3.83334 5.64287C3.83334 5.87957 4.01723 6.07144 4.24406 6.07144H6.70834C6.93517 6.07144 7.11906 5.87957 7.11906 5.64287C7.11906 5.40618 6.93517 5.2143 6.70834 5.2143Z" fill="#F87171"/>
<path d="M14.1012 3.5H4.24406C4.01723 3.5 3.83334 3.69188 3.83334 3.92857C3.83334 4.16526 4.01723 4.35714 4.24406 4.35714H14.1012C14.328 4.35714 14.5119 4.16526 14.5119 3.92857C14.5119 3.69188 14.328 3.5 14.1012 3.5Z" fill="#2DD4BF"/>
</svg>
