<svg width="24" height="24" viewBox="0 0 24 24" fill="none" xmlns="http://www.w3.org/2000/svg">
<g clip-path="url(#clip0_3372_2807)">
<mask id="mask0_3372_2807" style="mask-type:luminance" maskUnits="userSpaceOnUse" x="0" y="1" width="25" height="23">
<path d="M0.702576 1.15671H24.2416V23.9144H0.702576V1.15671Z" fill="white"/>
</mask>
<g mask="url(#mask0_3372_2807)">
<path d="M22.4737 12.0001C22.4737 17.7851 17.7851 22.4741 11.9997 22.4741C6.2143 22.4741 1.52631 17.7848 1.52631 12.0001C1.52631 6.21535 6.2143 1.52634 11.9997 1.52634C17.7847 1.52634 22.4737 6.21535 22.4737 12.0001Z" fill="#E53935"/>
<path d="M17.4066 6.94853L13.8445 6.91597L11.7616 4.8331L9.31659 6.45714L9.73879 6.87867L8.74856 6.86985L5.38687 12.5271H4.06769L4.89514 13.3545L4.06158 14.7574L11.7759 22.4714C11.8505 22.4728 11.9251 22.4741 11.9997 22.4741C17.779 22.4741 22.4643 17.7922 22.4734 12.0153L17.4063 6.94819" fill="#D51C2F"/>
<path d="M6.83963 12.7651C6.83963 9.91514 9.15005 7.60574 12 7.60574C14.8496 7.60574 17.1594 9.91514 17.1594 12.7654L6.83963 12.7651ZM18.4396 13.0032V12.527H19.932C19.8768 10.5871 19.11 8.73532 17.7776 7.32427L16.6622 8.43997L16.3258 8.10255L17.4405 6.98718C16.0297 5.65484 14.1781 4.88811 12.2384 4.83309L12.2377 6.32522H11.7616V4.83309C9.82195 4.88817 7.97032 5.65489 6.55952 6.98718L7.67454 8.10288L7.33712 8.43895L6.22209 7.32427C4.88977 8.73535 4.12295 10.5872 4.06766 12.527H5.55979V13.0025H4.06122V14.7493H19.9385V13.0028L18.4396 13.0032Z" fill="#F5F5F5"/>
</g>
</g>
<defs>
<clipPath id="clip0_3372_2807">
<rect width="24" height="24" fill="white"/>
</clipPath>
</defs>
</svg>
