<svg width="24" height="24" viewBox="0 0 24 24" fill="none" xmlns="http://www.w3.org/2000/svg">
<path d="M6 3.5C5.44772 3.5 5 3.94772 5 4.5V20.5C5 21.0523 5.44772 21.5 6 21.5H18C18.5523 21.5 19 21.0523 19 20.5V8.5C19 8.19622 18.8619 7.9089 18.6247 7.71913L13.6247 3.71913C13.4474 3.57728 13.2271 3.5 13 3.5H6Z" stroke="#64748B" stroke-width="2" stroke-linejoin="round"/>
<path d="M12 4.5V9.5H18" stroke="#64748B" stroke-width="2" stroke-linejoin="round"/>
<path d="M16.93 13C16.14 13 15.5 13.64 15.5 14.43V15.27H17.645C17.84 15.27 18 15.555 18 15.75H14.43C13.64 15.75 13 16.39 13 17.18V19.07C13 19.86 13.64 20.5 14.43 20.5H15.02V19.16C15.02 18.37 15.655 17.73 16.445 17.73H19.07C19.86 17.73 20.5 17.095 20.5 16.305V14.43C20.5 13.64 19.86 13 19.07 13H16.93ZM16.57 13.805C16.77 13.805 16.93 13.865 16.93 14.16C16.93 14.455 16.77 14.606 16.57 14.606C16.375 14.606 16.215 14.456 16.215 14.16C16.215 13.864 16.375 13.805 16.57 13.805Z" fill="#60A5FA"/>
<path d="M20.98 15.5V16.84C20.98 17.63 20.345 18.27 19.555 18.27H16.93C16.14 18.27 15.5 18.904 15.5 19.694V21.569C15.4999 21.7569 15.5368 21.9429 15.6086 22.1165C15.6804 22.2902 15.7857 22.4479 15.9185 22.5808C16.0513 22.7137 16.209 22.8191 16.3825 22.8911C16.5561 22.963 16.7421 23 16.93 23H19.07C19.2578 23 19.4437 22.963 19.6172 22.8911C19.7907 22.8193 19.9484 22.714 20.0812 22.5812C20.214 22.4484 20.3193 22.2907 20.3911 22.1172C20.463 21.9437 20.5 21.7578 20.5 21.57V20.73H18.354C18.159 20.73 18 20.446 18 20.25H21.57C21.7578 20.25 21.9437 20.213 22.1172 20.1411C22.2907 20.0693 22.4484 19.964 22.5812 19.8312C22.714 19.6984 22.8193 19.5407 22.8911 19.3672C22.963 19.1937 23 19.0078 23 18.82V16.93C23 16.7422 22.963 16.5563 22.8911 16.3828C22.8193 16.2093 22.714 16.0516 22.5812 15.9188C22.4484 15.786 22.2907 15.6807 22.1172 15.6089C21.9437 15.537 21.7578 15.5 21.57 15.5H20.98ZM16.16 17.757L16.158 17.759C16.164 17.757 16.171 17.758 16.177 17.757H16.16ZM19.43 21.394C19.625 21.394 19.785 21.544 19.785 21.84C19.7847 21.934 19.7472 22.024 19.6807 22.0904C19.6141 22.1567 19.524 22.194 19.43 22.194C19.23 22.194 19.07 22.134 19.07 21.84C19.07 21.546 19.23 21.394 19.43 21.394Z" fill="#FBBF24"/>
</svg>
