<svg width="24" height="24" viewBox="0 0 24 24" fill="none" xmlns="http://www.w3.org/2000/svg">
<path d="M13.9651 12C13.9651 12.2579 13.9144 12.5132 13.8157 12.7514C13.717 12.9896 13.5724 13.206 13.3901 13.3883C13.2078 13.5707 12.9913 13.7153 12.7531 13.814C12.5149 13.9126 12.2596 13.9634 12.0018 13.9634C11.7439 13.9634 11.4886 13.9126 11.2504 13.814C11.0122 13.7153 10.7958 13.5707 10.6135 13.3883C10.4312 13.206 10.2865 12.9896 10.1879 12.7514C10.0892 12.5132 10.0384 12.2579 10.0384 12C10.0384 11.4793 10.2453 10.9799 10.6135 10.6117C10.9817 10.2435 11.4811 10.0367 12.0018 10.0367C12.5225 10.0367 13.0219 10.2435 13.3901 10.6117C13.7583 10.9799 13.9651 11.4793 13.9651 12ZM20.717 6.96762C20.2901 6.23313 19.7719 5.55564 19.1748 4.95133L16.9051 6.2618C16.1976 5.65748 15.3935 5.19458 14.5353 4.88837C13.7604 5.67369 13.1448 6.55119 12.7011 7.50552C15.2276 7.33356 17.837 8.24797 20.2595 10.1406L21.6879 9.3159C21.4648 8.4953 21.1386 7.70619 20.717 6.96762ZM20.7176 17.0313C21.1402 16.2944 21.4678 15.5068 21.6926 14.6876L19.4229 13.3771C19.5925 12.4623 19.5914 11.5345 19.4274 10.6381C18.3599 10.3597 17.2922 10.2653 16.2439 10.3582C17.6561 12.4603 18.1689 15.1773 17.741 18.2215L19.1695 19.0462C19.7686 18.4427 20.2888 17.7657 20.7176 17.0313ZM12.0027 22.0637C12.8522 22.0613 13.698 21.9512 14.5199 21.7362V19.1154C15.397 18.8049 16.1999 18.34 16.8942 17.7498C16.6016 16.6861 16.1494 15.7142 15.5448 14.8528C14.4305 17.1268 12.3339 18.9294 9.48356 20.081V21.7305C10.3058 21.9476 11.1523 22.0595 12.0027 22.0637ZM3.28695 17.0323C3.71387 17.7668 4.23207 18.4443 4.82919 19.0486L7.09892 17.7381C7.80637 18.3424 8.61045 18.8053 9.46869 19.1115C10.2436 18.3262 10.8592 17.4487 11.3029 16.4944C8.77637 16.6663 6.16697 15.752 3.74451 13.8593L2.31605 14.684C2.53918 15.5046 2.86541 16.2937 3.28695 17.0323ZM3.28635 6.96859C2.86373 7.70556 2.53612 8.49308 2.31134 9.31235L4.58107 10.6228C4.41144 11.5376 4.41259 12.4654 4.57652 13.3618C5.64406 13.6403 6.71177 13.7346 7.76008 13.6417C6.34787 11.5396 5.83511 8.82267 6.26293 5.77842L4.83447 4.95372C4.23537 5.55726 3.7152 6.23424 3.28635 6.96859ZM12.0013 1.93618C11.1517 1.93866 10.3059 2.0487 9.48402 2.26367V4.88454C8.60695 5.19505 7.80407 5.65992 7.10972 6.25012C7.40238 7.31387 7.85453 8.28573 8.45915 9.14712C9.57357 6.87311 11.6701 5.07049 14.5204 3.91889V2.26941C13.6982 2.05233 12.8517 1.94041 12.0013 1.93618Z" fill="#60A5FA"/>
</svg>
