<svg width="24" height="24" viewBox="0 0 24 24" fill="none" xmlns="http://www.w3.org/2000/svg">
<path d="M4.49111 6.36835H2.61389V19.5089C2.61389 20.5461 3.45395 21.3861 4.49111 21.3861H17.6317V19.5089H4.49111V6.36835Z" fill="#60A5FA"/>
<path d="M19.5088 2.61391H8.24551C7.20834 2.61391 6.36829 3.45396 6.36829 4.49113V15.7544C6.36829 16.7916 7.20834 17.6317 8.24551 17.6317H19.5088C20.546 17.6317 21.386 16.7916 21.386 15.7544V4.49113C21.386 3.45396 20.546 2.61391 19.5088 2.61391ZM13.1047 12.7218C13.6763 13.3413 14.4722 13.6632 15.5103 13.6707L16.5804 13.5741C16.9267 13.5093 17.2158 13.4211 17.457 13.3169L17.7949 15.2795C17.5856 15.3921 17.2477 15.4963 16.7972 15.593C16.3391 15.6981 15.8004 15.7544 15.1809 15.7544C13.4032 15.7225 12.0675 15.1913 11.174 14.1776C10.2569 13.1554 9.82237 11.8602 9.82237 10.2917C9.85428 8.43329 10.4015 7.00942 11.464 6.01168C12.4937 5.00642 13.8124 4.49113 15.4062 4.49113C16.0097 4.49113 16.5325 4.54744 16.9671 4.64412C17.4016 4.7408 17.7236 4.84498 17.9329 4.96606L17.4495 6.96906L16.6132 6.69592C16.2913 6.6152 15.913 6.57484 15.4869 6.57484C14.5614 6.56639 13.7889 6.86487 13.1863 7.45995C12.5753 8.04752 12.2693 8.94859 12.2374 10.1472C12.244 11.2407 12.534 12.0939 13.1047 12.7218Z" fill="#60A5FA"/>
</svg>
