<svg width="24" height="25" viewBox="0 0 24 25" fill="none" xmlns="http://www.w3.org/2000/svg">
<path d="M11.5 14.1773C12.3878 14.1773 13.1074 13.4263 13.1074 12.5C13.1074 11.5737 12.3878 10.8227 11.5 10.8227C10.6123 10.8227 9.89264 11.5737 9.89264 12.5C9.89264 13.4263 10.6123 14.1773 11.5 14.1773Z" fill="#2563EB"/>
<path d="M11.5 15.9364C16.2635 15.9364 20.125 14.3978 20.125 12.5C20.125 10.6021 16.2635 9.06363 11.5 9.06363C6.73654 9.06363 2.875 10.6021 2.875 12.5C2.875 14.3978 6.73654 15.9364 11.5 15.9364Z" stroke="#2563EB"/>
<path d="M8.64803 14.2182C11.0298 18.5228 14.2374 21.2432 15.8125 20.2942C17.3876 19.3453 16.7337 15.0865 14.352 10.7818C11.9703 6.47719 8.76262 3.75685 7.18751 4.70578C5.61241 5.6547 6.2663 9.91355 8.64803 14.2182Z" stroke="#2563EB"/>
<path d="M8.64803 10.7818C6.2663 15.0865 5.61241 19.3453 7.18751 20.2942C8.76262 21.2432 11.9703 18.5228 14.352 14.2182C16.7337 9.91356 17.3876 5.65471 15.8125 4.70578C14.2374 3.75686 11.0298 6.4772 8.64803 10.7818Z" stroke="#2563EB"/>
</svg>
