<svg width="24" height="25" viewBox="0 0 24 25" fill="none" xmlns="http://www.w3.org/2000/svg">
<path d="M11.5 14.1773C12.3877 14.1773 13.1074 13.4263 13.1074 12.5C13.1074 11.5737 12.3877 10.8227 11.5 10.8227C10.6123 10.8227 9.89262 11.5737 9.89262 12.5C9.89262 13.4263 10.6123 14.1773 11.5 14.1773Z" fill="#38BDF8"/>
<path d="M11.5 15.9364C16.2635 15.9364 20.125 14.3979 20.125 12.5C20.125 10.6022 16.2635 9.06366 11.5 9.06366C6.73654 9.06366 2.875 10.6022 2.875 12.5C2.875 14.3979 6.73654 15.9364 11.5 15.9364Z" stroke="#38BDF8"/>
<path d="M8.64802 14.2182C11.0297 18.5228 14.2374 21.2432 15.8125 20.2942C17.3876 19.3453 16.7337 15.0865 14.352 10.7818C11.9702 6.4772 8.7626 3.75687 7.1875 4.70579C5.61239 5.65472 6.26629 9.91357 8.64802 14.2182Z" stroke="#38BDF8"/>
<path d="M8.64802 10.7818C6.26629 15.0865 5.61239 19.3453 7.1875 20.2943C8.7626 21.2432 11.9702 18.5228 14.352 14.2182C16.7337 9.91358 17.3876 5.65472 15.8125 4.7058C14.2374 3.75687 11.0297 6.47721 8.64802 10.7818Z" stroke="#38BDF8"/>
</svg>
