<svg width="24" height="24" viewBox="0 0 24 24" fill="none" xmlns="http://www.w3.org/2000/svg">
<path d="M5.34 2.59725C4.6905 2.59725 4.164 3.123 4.164 3.7725V7.6905C4.164 8.33925 4.6905 8.86575 5.34 8.86575H12V3.7725C12 3.123 11.4735 2.59725 10.8248 2.59725H5.34ZM12 8.865V15.1335H18.66C19.3095 15.1335 19.836 14.607 19.836 13.9583V10.0403C19.836 9.3915 19.3095 8.865 18.66 8.865H12ZM12 15.1335H5.34C4.6905 15.1335 4.164 15.66 4.164 16.3088V20.2268C4.164 20.8755 4.6905 21.402 5.34 21.402H10.8248C11.4735 21.402 12 20.8755 12 20.2268V15.1335Z" fill="#71717A"/>
</svg>
