<svg width="24" height="24" viewBox="0 0 24 24" fill="none" xmlns="http://www.w3.org/2000/svg">
<path d="M21.3102 7.5732C21.204 6.90432 20.8016 6.30632 20.2057 5.96216L13.1479 1.8872C12.8037 1.68856 12.4117 1.5836 12.0144 1.5836C11.6171 1.5836 11.2252 1.68856 10.8811 1.88704L3.82344 5.96192C3.12408 6.36592 2.68976 7.11808 2.68976 7.92528V16.0746C2.68976 16.8818 3.12408 17.634 3.8232 18.0378L10.8809 22.1126C11.2253 22.3114 11.6173 22.4162 12.0145 22.4162C12.4117 22.4162 12.8035 22.3114 13.1478 22.1126L20.2054 18.038C20.8016 17.6935 21.2042 17.0956 21.3102 16.4266V7.5732ZM19.513 16.8386L12.4554 20.913C12.3213 20.9905 12.1692 21.0313 12.0143 21.0313C11.8594 21.0313 11.7073 20.9905 11.5732 20.913L4.51568 16.8386C4.38159 16.7611 4.27025 16.6497 4.19283 16.5156C4.11542 16.3815 4.07465 16.2294 4.07464 16.0746V7.92528C4.07465 7.77044 4.11542 7.61832 4.19283 7.48421C4.27025 7.35011 4.38159 7.23874 4.51568 7.16128L11.5732 3.08656C11.7096 3.00768 11.862 2.9684 12.0143 2.9684C12.1666 2.9684 12.319 3.00768 12.4554 3.08656L19.513 7.16128C19.6471 7.23871 19.7584 7.35008 19.8358 7.48419C19.9133 7.6183 19.954 7.77043 19.954 7.92528V16.0746C19.954 16.2294 19.9132 16.3815 19.8358 16.5156C19.7584 16.6497 19.647 16.7611 19.513 16.8386Z" fill="#60A5FA"/>
<path d="M19.9543 7.92528C19.9543 7.77043 19.9135 7.61832 19.8361 7.48421C19.7587 7.3501 19.6474 7.23873 19.5133 7.16128L12.4558 3.08656C12.3194 3.00768 12.167 2.9684 12.0146 2.9684C11.8623 2.9684 11.7099 3.00768 11.5735 3.08656L4.51599 7.16128C4.38188 7.23871 4.27052 7.35007 4.1931 7.48418C4.11568 7.6183 4.07493 7.77043 4.07495 7.92528V16.0746C4.07497 16.2294 4.11573 16.3815 4.19315 16.5156C4.27056 16.6497 4.38191 16.7611 4.51599 16.8386L11.5735 20.913C11.7076 20.9905 11.8598 21.0313 12.0146 21.0313C12.1695 21.0313 12.3216 20.9905 12.4558 20.913L19.5133 16.8386C19.6474 16.7611 19.7587 16.6497 19.8361 16.5156C19.9135 16.3815 19.9543 16.2294 19.9543 16.0746V7.92528ZM14.8654 11.3727C14.8783 11.3652 14.8918 11.3599 14.9051 11.3565C14.9099 11.3552 14.9147 11.3554 14.9194 11.3546C14.9277 11.3532 14.9359 11.3514 14.9442 11.3514L14.9458 11.3515C14.948 11.3516 14.9499 11.352 14.9522 11.3522C14.9623 11.3527 14.9722 11.3542 14.9819 11.3565C14.9855 11.3574 14.9891 11.3586 14.9928 11.3598C15.0012 11.3625 15.0091 11.366 15.0171 11.3702C15.0202 11.3716 15.0233 11.373 15.0262 11.3748C15.0365 11.381 15.0462 11.3881 15.0549 11.3964C15.0557 11.3973 15.0562 11.3983 15.0571 11.399C15.0647 11.4068 15.0716 11.4154 15.0776 11.4246C15.0795 11.4278 15.0812 11.431 15.083 11.4344C15.0874 11.4422 15.0909 11.4505 15.0938 11.4594C15.0951 11.463 15.0962 11.4664 15.0973 11.4701C15.1003 11.4826 15.1026 11.4956 15.1026 11.5094V13.2732L14.7459 13.4792C14.7114 13.4996 14.6852 13.5316 14.6722 13.5695C14.6654 13.5874 14.6618 13.6063 14.6614 13.6254V14.0373L13.1339 14.9191C13.1336 14.9194 13.1331 14.9194 13.1328 14.9196C13.1202 14.9266 13.1072 14.932 13.0943 14.9354C13.0894 14.9368 13.0845 14.9366 13.0796 14.9374C13.0716 14.9387 13.0633 14.9406 13.0551 14.9406L13.0536 14.9405C13.0514 14.9403 13.0494 14.9399 13.0472 14.9398C13.0372 14.9393 13.0272 14.9378 13.0175 14.9354C13.0138 14.9345 13.0103 14.9333 13.0066 14.9321C12.9982 14.9294 12.9901 14.926 12.9823 14.9218C12.9791 14.9202 12.9762 14.9189 12.9732 14.917C12.9629 14.911 12.9532 14.9038 12.9446 14.8955C12.9436 14.8947 12.943 14.8934 12.9421 14.8926C12.9345 14.8848 12.9278 14.8764 12.9219 14.8674C12.9198 14.8642 12.9182 14.8608 12.9163 14.8575C12.9121 14.8495 12.9085 14.8412 12.9058 14.8326C12.9044 14.829 12.9032 14.8253 12.9022 14.8216C12.8988 14.8089 12.897 14.7958 12.8969 14.7826V12.6004C12.8969 12.5727 12.9042 12.5455 12.918 12.5215C12.9319 12.4975 12.9519 12.4776 12.9759 12.4638L14.8654 11.3727ZM11.9356 4.9148C11.9596 4.90089 11.9868 4.89357 12.0146 4.89357C12.0423 4.89357 12.0696 4.90089 12.0936 4.9148L17.071 7.78864C17.1762 7.84936 17.1762 8.00128 17.071 8.062L15.1814 9.15312C15.1573 9.16695 15.1301 9.17424 15.1023 9.17424C15.0746 9.17424 15.0473 9.16695 15.0233 9.15312L13.3377 8.17992L13.5257 8.0716C13.6382 8.00648 13.6382 7.844 13.5257 7.77904L12.099 6.95536C12.073 6.94016 12.0438 6.9328 12.0146 6.9328C11.9855 6.9328 11.9564 6.94024 11.9303 6.95536L11.5736 7.16128L10.0461 6.27944C9.94079 6.21864 9.94079 6.06688 10.0461 6.006L11.9356 4.9148ZM8.92679 6.6764C8.95415 6.6764 8.98135 6.68352 9.00583 6.69752L10.6914 7.67056L10.5034 7.77904C10.3909 7.844 10.3909 8.00648 10.5034 8.0716L10.6914 8.17992L9.00599 9.15312C8.98196 9.16694 8.95472 9.17421 8.92699 9.17421C8.89927 9.17421 8.87203 9.16694 8.84799 9.15312L6.95831 8.06192C6.85295 8.00128 6.85295 7.84936 6.95831 7.78864L8.84791 6.69752C8.87247 6.68352 8.89959 6.6764 8.92679 6.6764ZM7.88663 16.7232C7.85898 16.7231 7.83184 16.7157 7.80791 16.7018L5.91831 15.6109C5.8943 15.597 5.87436 15.5771 5.86048 15.5532C5.84661 15.5292 5.83929 15.5019 5.83927 15.4742V9.7268C5.83927 9.63456 5.91479 9.56864 5.99727 9.56864C6.02367 9.56864 6.05063 9.57536 6.07607 9.59008L7.96575 10.681C8.01463 10.7093 8.04479 10.7613 8.04479 10.8178V12.764L7.85679 12.6555C7.82959 12.6398 7.80079 12.6327 7.77279 12.6327C7.75058 12.6327 7.72857 12.637 7.70804 12.6455C7.68751 12.654 7.66885 12.6664 7.65314 12.6821C7.63743 12.6978 7.62497 12.7165 7.61648 12.737C7.60799 12.7575 7.60364 12.7795 7.60367 12.8018V14.4491C7.60367 14.5095 7.63567 14.5653 7.68799 14.5954L8.04463 14.8015V16.5653C8.04479 16.6573 7.96911 16.7232 7.88663 16.7232ZM11.1324 18.3477C11.1324 18.3754 11.1251 18.4026 11.1112 18.4266C11.0973 18.4506 11.0774 18.4705 11.0534 18.4843C11.0294 18.4982 11.0022 18.5055 10.9745 18.5055C10.9468 18.5056 10.9196 18.4983 10.8956 18.4845L9.00599 17.3935C8.98197 17.3797 8.96202 17.3597 8.94814 17.3357C8.93427 17.3117 8.92696 17.2845 8.92695 17.2567V15.3106L9.11479 15.419C9.14199 15.4347 9.17079 15.4419 9.19887 15.4419C9.28711 15.4419 9.36799 15.3714 9.36799 15.2726V15.0558L11.0534 16.0289C11.1022 16.0571 11.1324 16.1091 11.1324 16.1657V18.3477ZM11.1324 14.7821C11.1324 14.7958 11.1302 14.8088 11.1271 14.8212C11.1262 14.825 11.1248 14.8285 11.1236 14.8322C11.1208 14.841 11.1172 14.8493 11.1129 14.8571C11.111 14.8603 11.1094 14.8638 11.1074 14.8669C11.1013 14.8762 11.0946 14.8847 11.087 14.8925C11.0861 14.8933 11.0854 14.8944 11.0846 14.8952C11.0759 14.9034 11.0663 14.9107 11.0559 14.9168C11.0531 14.9186 11.0499 14.9199 11.047 14.9216C11.0358 14.9273 11.024 14.9319 11.0118 14.935C11.0018 14.9375 10.9918 14.939 10.9815 14.9395C10.9795 14.9395 10.9775 14.9402 10.9755 14.9402L10.9739 14.9402C10.9655 14.9402 10.957 14.9383 10.9486 14.937C10.9438 14.9362 10.9394 14.9364 10.935 14.9351C10.921 14.9315 10.9076 14.926 10.8951 14.9189L9.36791 14.037V13.6253C9.36794 13.5956 9.36014 13.5665 9.34531 13.5408C9.33048 13.5152 9.30913 13.4939 9.28343 13.4791L8.92695 13.2733V11.5098C8.92695 11.496 8.92911 11.483 8.93231 11.4706C8.93327 11.4668 8.93455 11.4634 8.93575 11.4597C8.93856 11.451 8.94218 11.4427 8.94655 11.4347C8.94839 11.4315 8.94999 11.428 8.95215 11.4248C8.95799 11.4157 8.96471 11.4071 8.97239 11.3994C8.97327 11.3986 8.97399 11.3974 8.97471 11.3966C8.98335 11.3884 8.99303 11.3812 9.00335 11.375C9.00631 11.3733 9.00943 11.3718 9.01247 11.3703C9.03275 11.3597 9.05506 11.3535 9.07791 11.3522C9.07991 11.3522 9.08175 11.3517 9.08383 11.3517L9.08543 11.3516C9.09399 11.3516 9.10255 11.3536 9.11119 11.3548C9.11551 11.3556 9.11999 11.3554 9.12447 11.3567C9.13791 11.3601 9.15119 11.3654 9.16431 11.373L11.0534 12.4636C11.0774 12.4775 11.0974 12.4975 11.1113 12.5215C11.1251 12.5455 11.1324 12.5728 11.1325 12.6006L11.1324 14.7821ZM10.046 9.84472C10.0212 9.83051 10.0007 9.80982 9.98679 9.78488C9.97384 9.76132 9.96704 9.73488 9.96704 9.708C9.96704 9.68112 9.97384 9.65467 9.98679 9.63112C10.0007 9.60615 10.0212 9.58546 10.046 9.57128L11.5736 8.68944L11.9302 8.89528C11.9558 8.91004 11.9849 8.91781 12.0146 8.91781C12.0442 8.91781 12.0733 8.91004 12.099 8.89528L12.4556 8.68928L13.9832 9.57128C14.0886 9.632 14.0886 9.78392 13.9832 9.84472L12.0936 10.9357C12.0696 10.9496 12.0423 10.9569 12.0146 10.9569C11.9868 10.9569 11.9596 10.9496 11.9356 10.9357L10.046 9.84472ZM18.19 15.4741C18.19 15.5018 18.1827 15.529 18.1689 15.553C18.155 15.577 18.1351 15.597 18.111 15.6108L13.1337 18.4845C13.1098 18.4985 13.0826 18.5058 13.0549 18.5058C12.9725 18.5058 12.8968 18.4398 12.8968 18.3477V16.1656C12.8968 16.1091 12.927 16.0571 12.9759 16.0288L14.6612 15.0559V15.2727C14.6612 15.3713 14.7421 15.4419 14.8302 15.4419C14.8585 15.4419 14.8871 15.4347 14.9145 15.419L16.341 14.5953C16.3667 14.5805 16.388 14.5591 16.4028 14.5335C16.4177 14.5078 16.4254 14.4787 16.4254 14.449V14.0373L17.953 13.1554C17.9785 13.1406 18.0054 13.134 18.0318 13.134C18.1142 13.134 18.1899 13.1999 18.1899 13.2921V15.4741H18.19ZM18.19 11.9089C18.19 11.9654 18.16 12.0174 18.111 12.0455L16.4256 13.0186V12.8018C16.4256 12.7032 16.3446 12.6327 16.2565 12.6327C16.2269 12.6326 16.1978 12.6405 16.1723 12.6555L15.9844 12.7639V10.8178C15.9844 10.7613 16.0146 10.7093 16.0636 10.681L17.9532 9.59008C17.9771 9.57611 18.0042 9.56871 18.0319 9.56864C18.1144 9.56864 18.19 9.63456 18.19 9.7268V11.9089Z" fill="black"/>
<path d="M11.0533 16.0294L9.36775 15.0563V15.2732C9.36775 15.3718 9.28695 15.4424 9.19871 15.4424C9.17047 15.4424 9.14175 15.4352 9.11455 15.4194L8.92679 15.3111V17.2573C8.92679 17.3138 8.95679 17.3658 9.00575 17.3941L10.8954 18.485C10.9208 18.4998 10.9478 18.5064 10.9742 18.5064C10.995 18.5064 11.0156 18.5023 11.0347 18.4944C11.0539 18.4864 11.0713 18.4748 11.086 18.4601C11.1007 18.4454 11.1123 18.4279 11.1203 18.4088C11.1282 18.3896 11.1323 18.369 11.1322 18.3482V16.1662C11.1322 16.1384 11.1249 16.1112 11.111 16.0872C11.0972 16.0632 11.0773 16.0433 11.0533 16.0294ZM9.08511 11.3515L9.08351 11.3516C9.09247 11.3515 9.10159 11.3532 9.11071 11.3548C9.10215 11.3534 9.09359 11.3515 9.08511 11.3515ZM10.9738 14.9402L10.9754 14.94C10.9666 14.9402 10.9574 14.9383 10.9485 14.9368C10.957 14.9382 10.9654 14.9402 10.9738 14.9402ZM14.9444 11.3514C14.9362 11.3514 14.928 11.3534 14.9196 11.3546C14.9284 11.353 14.9372 11.3514 14.9459 11.3515L14.9444 11.3514ZM18.0315 9.56864C18.0053 9.56864 17.9783 9.57536 17.9527 9.59008L16.0631 10.681C16.0391 10.6948 16.0191 10.7148 16.0052 10.7388C15.9914 10.7628 15.984 10.79 15.984 10.8178V12.7639L16.172 12.6555C16.1992 12.6398 16.228 12.6326 16.256 12.6327C16.3442 12.6327 16.4252 12.7031 16.4252 12.8018V13.0186L18.1106 12.0455C18.1594 12.0174 18.1896 11.9654 18.1896 11.9089V9.7268C18.1896 9.70603 18.1855 9.68546 18.1776 9.66627C18.1697 9.64708 18.158 9.62964 18.1433 9.61495C18.1287 9.60026 18.1112 9.58861 18.092 9.58066C18.0728 9.57272 18.0523 9.56863 18.0315 9.56864ZM13.0546 14.9402C13.0626 14.9402 13.0709 14.9382 13.079 14.937C13.0704 14.9384 13.0618 14.94 13.0532 14.94L13.0546 14.9402ZM18.0315 13.1338C18.0038 13.1339 17.9767 13.1412 17.9527 13.1551L16.4252 14.037V14.4488C16.4252 14.4785 16.4174 14.5076 16.4026 14.5333C16.3877 14.559 16.3664 14.5803 16.3407 14.5951L14.9142 15.4188C14.8868 15.4345 14.8582 15.4417 14.8299 15.4417C14.8077 15.4417 14.7857 15.4373 14.7652 15.4288C14.7447 15.4203 14.7261 15.4078 14.7104 15.3921C14.6947 15.3764 14.6822 15.3577 14.6738 15.3372C14.6653 15.3167 14.6609 15.2947 14.661 15.2725V15.0557L12.9756 16.0286C12.9516 16.0425 12.9316 16.0624 12.9177 16.0865C12.9038 16.1105 12.8965 16.1377 12.8965 16.1654V18.3475C12.8965 18.4397 12.9721 18.5056 13.0546 18.5056C13.081 18.5056 13.1079 18.4989 13.1334 18.4842L18.1107 15.6106C18.1595 15.5824 18.1898 15.5302 18.1898 15.4738V13.2918C18.1896 13.1998 18.114 13.1338 18.0315 13.1338ZM10.0456 6.00592C9.94039 6.06672 9.94039 6.21856 10.0456 6.27936L11.5732 7.1612L11.9298 6.9552C11.956 6.94008 11.9851 6.93272 12.0142 6.93272C12.0434 6.93272 12.0726 6.94008 12.0986 6.9552L13.5252 7.77896C13.6378 7.84392 13.6378 8.0064 13.5252 8.07144L13.3373 8.17984L15.0229 9.15296C15.0469 9.16678 15.0741 9.17406 15.1019 9.17406C15.1296 9.17406 15.1568 9.16678 15.1809 9.15296L17.0705 8.06184C17.1758 8.00112 17.1758 7.84928 17.0705 7.78856L12.0932 4.91472C12.0692 4.90082 12.0419 4.89349 12.0142 4.89349C11.9864 4.89349 11.9592 4.90082 11.9352 4.91472L10.0456 6.00592ZM6.95807 7.78864C6.85271 7.84936 6.85271 8.00128 6.95807 8.062L8.84775 9.15312C8.87179 9.16694 8.89903 9.17422 8.92675 9.17422C8.95448 9.17422 8.98172 9.16694 9.00575 9.15312L10.6911 8.17992L10.5031 8.0716C10.3906 8.00648 10.3906 7.844 10.5031 7.77904L10.6911 7.67056L9.00559 6.6976C8.98156 6.68381 8.95434 6.67656 8.92663 6.67656C8.89893 6.67656 8.8717 6.68381 8.84767 6.6976L6.95807 7.78864ZM8.04447 16.5648V14.801L7.68775 14.5949C7.66208 14.5801 7.64077 14.5588 7.62597 14.5331C7.61116 14.5074 7.60339 14.4783 7.60343 14.4486V12.8013C7.60339 12.7791 7.60773 12.7571 7.61622 12.7365C7.6247 12.716 7.63716 12.6973 7.65287 12.6816C7.66858 12.6659 7.68724 12.6534 7.70778 12.645C7.72832 12.6365 7.75033 12.6321 7.77255 12.6322C7.80071 12.6322 7.82943 12.6392 7.85663 12.655L8.04463 12.7635V10.8172C8.04463 10.7607 8.01455 10.7087 7.96559 10.6804L6.07591 9.58968C6.05201 9.57568 6.02481 9.56828 5.99711 9.56824C5.97636 9.56824 5.9558 9.57233 5.93663 9.58028C5.91745 9.58822 5.90003 9.59987 5.88536 9.61455C5.87069 9.62923 5.85905 9.64666 5.85112 9.66583C5.84318 9.68501 5.8391 9.70557 5.83911 9.72632V15.4737C5.83911 15.53 5.86911 15.5822 5.91807 15.6103L7.80767 16.7014C7.83319 16.716 7.86015 16.7226 7.88647 16.7226C7.96887 16.7227 8.04447 16.6569 8.04447 16.5648Z" fill="#60A5FA"/>
<path d="M12.9426 12.4896C12.9131 12.5191 12.8965 12.5591 12.8965 12.6009V14.783L12.8966 14.7832C12.8966 14.797 12.8988 14.8098 12.9018 14.8222C12.9029 14.8258 12.9041 14.8294 12.9054 14.8332C12.9082 14.8418 12.9118 14.8502 12.9161 14.8581C12.9179 14.8613 12.9195 14.8647 12.9217 14.8679C12.9276 14.877 12.9342 14.8855 12.9417 14.8931C12.9427 14.8941 12.9434 14.8953 12.9442 14.8961C12.9529 14.9045 12.9626 14.9115 12.9729 14.9177C12.9758 14.9194 12.9789 14.9208 12.982 14.9224C13.0021 14.9329 13.0242 14.939 13.0468 14.9403C13.049 14.9405 13.0511 14.9409 13.0533 14.941C13.0619 14.941 13.0705 14.9393 13.0792 14.9379C13.0841 14.9372 13.089 14.9373 13.0938 14.936C13.1068 14.9326 13.1198 14.9273 13.1324 14.9201C13.1327 14.9199 13.1332 14.9199 13.1335 14.9197L14.661 14.0378V13.626C14.661 13.6064 14.6654 13.5878 14.6717 13.57C14.6847 13.532 14.7109 13.5 14.7455 13.4797L15.1022 13.2738V11.5099C15.1022 11.4961 15.0999 11.4832 15.0969 11.4707C15.0958 11.467 15.0946 11.4635 15.0934 11.4598C15.0906 11.4512 15.087 11.4429 15.0826 11.435C15.0807 11.4316 15.0791 11.4283 15.0771 11.4252C15.0712 11.416 15.0644 11.4074 15.0567 11.3996C15.0558 11.3987 15.0551 11.3978 15.0544 11.397C15.0457 11.3887 15.0361 11.3814 15.0258 11.3754C15.0229 11.3736 15.0197 11.3722 15.0166 11.3706C15.0055 11.3648 14.9937 11.3602 14.9814 11.357C14.9717 11.3548 14.9618 11.3533 14.9518 11.3527C14.9494 11.3526 14.9475 11.3522 14.9454 11.352C14.9366 11.352 14.9278 11.3536 14.919 11.3551C14.9144 11.3559 14.9096 11.3558 14.9048 11.357C14.8909 11.3606 14.8775 11.366 14.865 11.3733L12.9754 12.4642C12.9634 12.4712 12.9524 12.4797 12.9426 12.4896ZM11.0531 12.4635L9.164 11.3728C9.15153 11.3656 9.13812 11.3602 9.12416 11.3566C9.11968 11.3553 9.1152 11.3555 9.11088 11.3547C9.10176 11.3531 9.09264 11.3515 9.0836 11.3516C9.08152 11.3516 9.0796 11.3522 9.0776 11.3522C9.0672 11.3527 9.05712 11.3543 9.04736 11.3566C9.0436 11.3576 9.04024 11.3588 9.03656 11.3598C9.02814 11.3626 9.01997 11.3661 9.01216 11.3702C9.00912 11.3718 9.006 11.3731 9.00304 11.3749C8.99273 11.381 8.98313 11.3883 8.9744 11.3965L8.97216 11.3993C8.96451 11.4071 8.95768 11.4156 8.95176 11.4247C8.94976 11.4279 8.94808 11.4314 8.94624 11.4346C8.94192 11.4426 8.9384 11.4509 8.93544 11.4595C8.92983 11.4757 8.92686 11.4926 8.92664 11.5097V13.2732L9.28312 13.479C9.30882 13.4938 9.33016 13.5151 9.34499 13.5408C9.35983 13.5664 9.36762 13.5956 9.3676 13.6252V14.037L10.8948 14.9188C10.9078 14.9262 10.9212 14.9316 10.9346 14.935C10.9391 14.9363 10.9436 14.9361 10.9482 14.9369C10.9572 14.9384 10.9663 14.9401 10.9752 14.9401C10.9773 14.9401 10.9792 14.9395 10.9812 14.9394C10.9916 14.939 11.0017 14.9373 11.0114 14.9349C11.0152 14.9341 11.0186 14.9329 11.0222 14.9318C11.0306 14.929 11.0388 14.9254 11.0467 14.9214C11.0497 14.9198 11.0528 14.9185 11.0557 14.9167C11.066 14.9106 11.0756 14.9033 11.0844 14.8951C11.0852 14.8942 11.0859 14.8931 11.0866 14.8924C11.0942 14.8846 11.1011 14.8761 11.1071 14.8668C11.109 14.8636 11.1107 14.8602 11.1126 14.857C11.1169 14.8492 11.1204 14.8408 11.1234 14.8321C11.129 14.816 11.132 14.799 11.1322 14.7819V12.6005C11.1321 12.5727 11.1248 12.5455 11.1109 12.5214C11.0971 12.4974 11.0771 12.4774 11.0531 12.4635ZM12.0933 10.9357L13.9829 9.84473C14.0882 9.78393 14.0882 9.63193 13.9829 9.57129L12.4554 8.68929L12.0986 8.89529C12.073 8.91005 12.0439 8.91781 12.0142 8.91781C11.9846 8.91781 11.9555 8.91005 11.9298 8.89529L11.5733 8.68945L10.0457 9.57129C10.0209 9.58546 10.0004 9.60616 9.98648 9.63113C9.97352 9.65468 9.96673 9.68112 9.96673 9.70801C9.96673 9.73489 9.97352 9.76133 9.98648 9.78489C9.99968 9.80857 10.0195 9.82953 10.0457 9.84473L11.9354 10.9357C11.9594 10.9496 11.9866 10.9569 12.0144 10.9569C12.0421 10.9569 12.0693 10.9496 12.0933 10.9357Z" fill="#EF4444"/>
</svg>
