<svg width="24" height="24" viewBox="0 0 24 24" fill="none" xmlns="http://www.w3.org/2000/svg">
<path d="M16.8192 12.9936H7.18076C6.72476 12.9936 6.35516 12.6192 6.35516 12.168C6.35516 11.7168 6.72956 11.3424 7.18076 11.3424H16.8144C17.2704 11.3424 17.64 11.7168 17.64 12.168C17.64 12.6192 17.2752 12.9936 16.8192 12.9936Z" fill="#EF4444"/>
<path d="M7.18079 11.3184C6.71629 11.3184 6.33124 11.7035 6.33124 12.1679C6.33124 12.6323 6.71164 13.0175 7.18079 13.0175H16.8192C17.2883 13.0175 17.664 12.6321 17.664 12.1679C17.664 11.7036 17.2835 11.3184 16.8144 11.3184H7.18079ZM7.18079 11.3664H16.8144C17.2572 11.3664 17.6159 11.7299 17.6159 12.1679C17.6159 12.6062 17.262 12.9695 16.8191 12.9695H7.18074C6.73789 12.9695 6.37919 12.606 6.37919 12.1679C6.37919 11.73 6.74284 11.3664 7.18074 11.3664H7.18079Z" fill="#EF4444"/>
<path d="M5.88339 8.60894C5.88339 8.58437 5.91487 8.40811 5.95337 8.21721C6.21055 6.94137 6.92335 5.70081 7.89065 4.84569C8.35587 4.43433 8.75561 4.16347 9.28999 3.89731C11.9482 2.57323 15.219 3.3443 16.995 5.71377C17.4947 6.38059 17.8454 7.08729 18.0445 7.82885C18.117 8.09923 18.1998 8.51088 18.1998 8.60165C18.1998 8.65238 18.0614 8.65358 12.0418 8.65358C6.37687 8.65358 5.88391 8.64998 5.88391 8.60894H5.88339ZM5.83443 15.4288C5.57657 15.3594 5.39062 15.2301 5.21787 15.0002C5.05716 14.7864 5.00331 14.5717 5.00331 14.1448V13.7862L4.86444 13.653C4.78534 13.5772 4.69361 13.4517 4.65137 13.3616L4.57721 13.2034V11.2789L4.6542 11.1222C4.69855 11.0318 4.78889 10.9136 4.86727 10.8431L5.00335 10.7208V10.3598C5.00335 10.0677 5.0142 9.96667 5.06019 9.83021C5.20078 9.41285 5.54172 9.12667 5.97267 9.06432C6.19923 9.03153 17.8003 9.03153 18.0274 9.06432C18.4583 9.12667 18.7992 9.4128 18.9399 9.83021C18.9858 9.96672 18.9966 10.0677 18.9966 10.3598V10.7208L19.1327 10.8431C19.2112 10.9136 19.3014 11.0318 19.3458 11.1222L19.4228 11.2789V12.2549C19.4228 13.383 19.4245 13.3743 19.1513 13.6411L19.0017 13.787L18.9923 14.21C18.9832 14.618 18.9798 14.6392 18.897 14.8116C18.7883 15.0376 18.6581 15.1863 18.4706 15.2985C18.1607 15.4838 18.6218 15.4716 11.9877 15.4696C6.89057 15.4681 5.95793 15.4619 5.83505 15.4288L5.83443 15.4288ZM17.1744 12.9214C17.4663 12.7655 17.6235 12.5285 17.6428 12.2155C17.6646 11.8632 17.4867 11.5583 17.1679 11.4014L17.0309 11.334L12.0561 11.3268C6.52078 11.3187 6.91822 11.3053 6.6619 11.508C6.46841 11.661 6.37107 11.8557 6.35575 12.1203C6.345 12.3061 6.35239 12.3509 6.41719 12.4925C6.49803 12.6693 6.58971 12.7781 6.73188 12.8662C6.95028 13.0013 6.69847 12.9955 12.0412 12.9892L17.0581 12.9835L17.1744 12.9214ZM8.48115 20.7193C8.11246 20.6737 7.62708 20.4888 7.31638 20.2756C7.13724 20.1527 6.83345 19.8573 6.69051 19.6672C6.43087 19.3219 6.24324 18.848 6.18852 18.3996C6.17076 18.2543 6.15828 17.6503 6.15828 16.9357L6.15814 15.7192H7.58767L7.58825 16.8945C7.58854 17.5408 7.60121 18.1563 7.61647 18.2622C7.67503 18.6691 7.91988 19.0051 8.28948 19.1857L8.48115 19.2793L9.03099 19.2874C9.52236 19.2946 9.59066 19.2901 9.67332 19.2449C9.73092 19.2134 9.92791 18.9879 10.1957 18.6468C10.4321 18.3456 10.6675 18.0709 10.7189 18.0364L10.8124 17.9735H12.0481C13.1373 17.9735 13.2952 17.9789 13.3791 18.0187C13.4464 18.0506 13.6037 18.2284 13.917 18.6267C14.1606 18.9363 14.398 19.2128 14.4446 19.2412C14.5683 19.3167 15.4484 19.3179 15.6884 19.243C16.0674 19.1247 16.3541 18.838 16.4723 18.4591C16.5178 18.3133 16.5224 18.1797 16.5224 17.0089V15.7192H17.9847L17.9729 17.0869L17.9611 18.4547L17.8877 18.7294C17.598 19.814 16.7212 20.5866 15.629 20.7199C15.3292 20.7564 8.77697 20.7561 8.48129 20.7194L8.48115 20.7193Z" fill="#71717A"/>
<path d="M9.49877 17.2312C9.36302 17.1121 9.24801 17.0028 9.24312 16.9883C9.23822 16.9737 9.36528 16.812 9.52536 16.629L9.81643 16.2962L14.1442 16.2984L14.7336 16.9801L14.5213 17.1662C14.4315 17.245 14.3417 17.3237 14.2517 17.4023C14.1949 17.4515 14.1921 17.4496 14.021 17.2453L13.8479 17.0385L10.1304 17.0368L9.74558 17.4476L9.49877 17.2312Z" fill="#71717A"/>
</svg>
