<svg width="24" height="25" viewBox="0 0 24 25" fill="none" xmlns="http://www.w3.org/2000/svg">
<path fill-rule="evenodd" clip-rule="evenodd" d="M11.7339 2.63594C11.6837 2.55142 11.5953 2.5 11.5 2.5C11.4047 2.5 11.3162 2.55142 11.2661 2.63594L10.7619 3.48558C10.6873 3.49217 10.613 3.49976 10.5389 3.50833L9.88519 2.7786C9.82018 2.70603 9.72383 2.67368 9.63047 2.69309C9.5371 2.7125 9.45998 2.78089 9.42658 2.87392L9.09096 3.80862C9.01926 3.83031 8.94794 3.85294 8.87701 3.8765L8.09869 3.29273C8.02135 3.23472 7.92076 3.22258 7.83278 3.26063C7.74479 3.29869 7.68192 3.38152 7.66659 3.47961L7.51188 4.469C7.44635 4.5046 7.38131 4.54104 7.31677 4.57831L6.44185 4.16222C6.35511 4.12097 6.25409 4.1295 6.17485 4.18478C6.0956 4.24006 6.04943 4.3342 6.0528 4.4336L6.08692 5.439C6.03057 5.48614 5.9748 5.534 5.91961 5.58256L4.98039 5.35167C4.88762 5.32886 4.79015 5.35778 4.72276 5.4281C4.65537 5.49843 4.62766 5.60013 4.64951 5.69693L4.87079 6.67703C4.82427 6.7346 4.77842 6.79279 4.73326 6.85157L3.7697 6.81597C3.67444 6.81245 3.58422 6.86063 3.53125 6.94332C3.47827 7.02601 3.47009 7.13142 3.50962 7.22193L3.90843 8.135C3.87273 8.2023 3.83783 8.27013 3.80374 8.33846L2.85545 8.49992C2.76145 8.51592 2.68207 8.58152 2.6456 8.67334C2.60914 8.76515 2.62077 8.87011 2.67636 8.95081L3.23588 9.76307C3.21332 9.83703 3.19164 9.91141 3.17087 9.98618L2.275 10.3364C2.18585 10.3713 2.12031 10.4518 2.10171 10.5492C2.08311 10.6466 2.11411 10.7471 2.18365 10.815L2.88305 11.4972C2.87484 11.5744 2.86757 11.6519 2.86125 11.7297L2.04694 12.2559C1.96595 12.3083 1.91666 12.4006 1.91666 12.5C1.91666 12.5994 1.96595 12.6917 2.04694 12.7441L2.86127 13.2703C2.8676 13.3481 2.87487 13.4256 2.88308 13.5028L2.18365 14.185C2.11411 14.2529 2.08311 14.3534 2.10171 14.4508C2.12031 14.5482 2.18585 14.6287 2.275 14.6636L3.17105 15.0139C3.19181 15.0886 3.21347 15.1629 3.23602 15.2367L2.67636 16.0492C2.62077 16.1299 2.60914 16.2349 2.6456 16.3267C2.68207 16.4185 2.76145 16.4841 2.85545 16.5001L3.80418 16.6616C3.83819 16.7298 3.87301 16.7974 3.90862 16.8646L3.50962 17.7781C3.47009 17.8686 3.47827 17.974 3.53125 18.0567C3.58422 18.1394 3.67444 18.1875 3.7697 18.184L4.7339 18.1484C4.7789 18.207 4.82459 18.2649 4.87094 18.3223L4.64951 19.3031C4.62766 19.3999 4.65537 19.5016 4.72276 19.5719C4.79015 19.6422 4.88762 19.6711 4.98039 19.6483L5.92029 19.4173C5.97526 19.4656 6.03082 19.5133 6.08694 19.5603L6.0528 20.5664C6.04943 20.6658 6.0956 20.7599 6.17485 20.8152C6.25409 20.8705 6.35511 20.879 6.44185 20.8378L7.31731 20.4214C7.38164 20.4586 7.44647 20.4949 7.51179 20.5304L7.66659 21.5204C7.68192 21.6185 7.74479 21.7013 7.83278 21.7394C7.92076 21.7774 8.02135 21.7653 8.09869 21.7073L8.87731 21.1233C8.9481 21.1468 9.01928 21.1694 9.09084 21.191L9.42658 22.1261C9.45998 22.2191 9.5371 22.2875 9.63047 22.3069C9.72383 22.3263 9.82018 22.294 9.88519 22.2214L10.539 21.4915C10.613 21.5001 10.6873 21.5077 10.7618 21.5143L11.2661 22.3641C11.3162 22.4486 11.4047 22.5 11.5 22.5C11.5953 22.5 11.6837 22.4486 11.7339 22.3641L12.2382 21.5143C12.3127 21.5077 12.387 21.5001 12.461 21.4915L13.1148 22.2214C13.1798 22.294 13.2762 22.3263 13.3695 22.3069C13.4629 22.2875 13.54 22.2191 13.5734 22.1261L13.9091 21.1911C13.9807 21.1694 14.0519 21.1468 14.1227 21.1233L14.9013 21.7073C14.9786 21.7653 15.0792 21.7774 15.1672 21.7394C15.2552 21.7013 15.3181 21.6185 15.3334 21.5204L15.4882 20.5304C15.5535 20.4949 15.6184 20.4586 15.6827 20.4214L16.5581 20.8378C16.6449 20.879 16.7459 20.8705 16.8251 20.8152C16.9044 20.7599 16.9506 20.6658 16.9472 20.5664L16.9131 19.5603C16.9692 19.5133 17.0248 19.4657 17.0797 19.4173L18.0196 19.6483C18.1124 19.6711 18.2098 19.6422 18.2772 19.5719C18.3446 19.5016 18.3723 19.3999 18.3505 19.3031L18.1291 18.3223C18.1754 18.265 18.2211 18.207 18.2661 18.1484L19.2303 18.184C19.3256 18.1875 19.4158 18.1394 19.4687 18.0567C19.5217 17.974 19.5299 17.8686 19.4904 17.7781L19.0914 16.8646C19.127 16.7974 19.1618 16.7298 19.1959 16.6616L20.1445 16.5001C20.2385 16.4841 20.3179 16.4185 20.3544 16.3267C20.3909 16.2349 20.3792 16.1299 20.3236 16.0492L19.764 15.2368C19.7866 15.1629 19.8082 15.0886 19.829 15.0139L20.725 14.6636C20.8141 14.6287 20.8797 14.5482 20.8983 14.4508C20.9169 14.3534 20.8859 14.2529 20.8163 14.185L20.1169 13.5028C20.1252 13.4256 20.1324 13.3481 20.1388 13.2702L20.9531 12.7441C21.034 12.6917 21.0833 12.5994 21.0833 12.5C21.0833 12.4006 21.034 12.3083 20.9531 12.2559L20.1388 11.7298C20.1324 11.6519 20.1252 11.5744 20.117 11.4972L20.8163 10.815C20.8859 10.7471 20.9169 10.6466 20.8983 10.5492C20.8797 10.4518 20.8141 10.3713 20.725 10.3364L19.829 9.98614C19.8083 9.91142 19.7866 9.8371 19.764 9.76319L20.3236 8.95081C20.3792 8.87011 20.3909 8.76515 20.3544 8.67334C20.3179 8.58152 20.2385 8.51592 20.1445 8.49992L19.1959 8.33841C19.1619 8.27021 19.127 8.20252 19.0914 8.13535L19.4904 7.22193C19.5299 7.13142 19.5217 7.02601 19.4687 6.94332C19.4158 6.86063 19.3256 6.81245 19.2303 6.81597L18.2662 6.85159C18.2212 6.79299 18.1755 6.73498 18.1291 6.67758L18.3505 5.69693C18.3723 5.60013 18.3446 5.49843 18.2772 5.4281C18.2098 5.35778 18.1124 5.32886 18.0196 5.35167L17.0798 5.5827C17.0248 5.5343 16.9692 5.48659 16.9131 5.4396L16.9472 4.4336C16.9506 4.3342 16.9044 4.24006 16.8251 4.18478C16.7459 4.1295 16.6449 4.12097 16.5581 4.16222L15.6828 4.57851C15.6184 4.54133 15.5535 4.50497 15.4882 4.46946L15.3334 3.47961C15.3181 3.38152 15.2552 3.29868 15.1672 3.26063C15.0792 3.22258 14.9786 3.23472 14.9013 3.29273L14.1228 3.87665C14.0519 3.85311 13.9807 3.8305 13.9091 3.80883L13.5734 2.87392C13.54 2.78089 13.4629 2.7125 13.3695 2.69309C13.2762 2.67368 13.1798 2.70603 13.1148 2.7786L12.4611 3.50836C12.387 3.49979 12.3127 3.4922 12.2381 3.4856L11.7339 2.63594ZM11.4872 4.25689C11.6354 4.26089 11.7763 4.32537 11.8798 4.43656C11.9832 4.54775 12.0411 4.69687 12.0411 4.8521C12.0411 5.00996 11.981 5.16136 11.874 5.27298C11.767 5.38461 11.622 5.44732 11.4707 5.44732C11.3194 5.44732 11.1743 5.38461 11.0673 5.27298C10.9604 5.16136 10.9003 5.00996 10.9003 4.8521C10.9002 4.77247 10.9155 4.69363 10.9452 4.62027C10.9749 4.54691 11.0184 4.48052 11.0731 4.42501C11.1278 4.36951 11.1927 4.32603 11.2638 4.29715C11.3349 4.26828 11.4109 4.25458 11.4872 4.25689ZM12.7931 5.23679C13.7944 5.43251 14.743 5.85333 15.5728 6.47005C16.4026 7.08676 17.0939 7.88458 17.5985 8.80808L16.9254 10.3928C16.8098 10.6665 16.929 10.988 17.1895 11.1105L18.4844 11.7095C18.5246 12.1319 18.5295 12.5571 18.4991 12.9803H17.7782C17.7067 12.9803 17.6774 13.0301 17.6774 13.1028V13.4473C17.6774 14.2588 17.239 14.4368 16.8538 14.4808C16.487 14.5248 16.0817 14.32 16.0303 14.0866C15.819 12.8474 15.4712 12.561 14.9255 12.1116L14.8858 12.0789C15.592 11.6119 16.3256 10.921 16.3256 9.99851C16.3256 9.00139 15.6708 8.37363 15.2251 8.0655C14.5979 7.63488 13.9046 7.54875 13.7175 7.54875H6.27091C7.30059 6.34845 8.68079 5.53585 10.1978 5.23679L11.0763 6.19756C11.2744 6.41383 11.6027 6.42339 11.81 6.21478L12.7931 5.23679ZM4.68622 9.64253C4.83462 9.64702 4.97551 9.7117 5.07893 9.82284C5.18236 9.93399 5.24019 10.0828 5.24013 10.2377C5.24013 10.3956 5.18003 10.547 5.07306 10.6586C4.96608 10.7703 4.821 10.833 4.66971 10.833C4.51843 10.833 4.37334 10.7703 4.26637 10.6586C4.1594 10.547 4.0993 10.3956 4.0993 10.2377C4.09927 10.1581 4.11455 10.0793 4.14424 10.0059C4.17393 9.93256 4.21743 9.86616 4.27216 9.81066C4.32689 9.75516 4.39174 9.71168 4.46286 9.6828C4.53398 9.65392 4.60994 9.64023 4.68622 9.64253ZM18.2863 9.66933C18.4347 9.67381 18.5756 9.73849 18.679 9.84964C18.7824 9.96078 18.8403 10.1096 18.8402 10.2645C18.8402 10.4224 18.7801 10.5738 18.6731 10.6854C18.5662 10.797 18.4211 10.8598 18.2698 10.8598C18.1185 10.8598 17.9734 10.797 17.8664 10.6854C17.7595 10.5738 17.6994 10.4224 17.6994 10.2645C17.6993 10.1849 17.7146 10.1061 17.7443 10.0327C17.774 9.95935 17.8175 9.89296 17.8722 9.83745C17.927 9.78195 17.9918 9.73847 18.0629 9.70959C18.1341 9.68072 18.21 9.66702 18.2863 9.66933ZM5.76102 9.76502H6.75512V14.4425H4.74858C4.50077 13.5345 4.42354 12.585 4.52115 11.6464L5.75002 11.076C6.0123 10.9535 6.13152 10.6339 6.01413 10.3602L5.76102 9.76502ZM9.90982 9.81478H12.2777C12.4006 9.81478 13.1416 9.96215 13.1416 10.5421C13.1416 11.0224 12.573 11.1947 12.1053 11.1947H9.90799L9.90982 9.81478ZM9.90982 13.1755H11.7238C11.8889 13.1755 12.6097 13.2253 12.8389 14.1861C12.8642 14.2901 12.9004 14.4772 12.9415 14.6892C13.0167 15.0778 13.1082 15.5504 13.1782 15.7497C13.2865 16.0942 13.7248 16.7832 14.1925 16.7832H17.1528C16.9544 17.0604 16.7374 17.3227 16.5035 17.5679L15.2985 17.298C15.0179 17.2349 14.7409 17.4224 14.6804 17.7153L14.3943 19.1086C13.4742 19.5435 12.475 19.7661 11.4649 19.7611C10.4548 19.7562 9.45769 19.5238 8.54156 19.0799L8.25544 17.6866C8.19491 17.3937 7.91979 17.2062 7.63917 17.2693L6.45982 17.5334C6.24097 17.2979 6.03754 17.0472 5.85089 16.7832H11.5862C11.6504 16.7832 11.6944 16.7717 11.6944 16.7086V14.5918C11.6944 14.5306 11.6504 14.5172 11.5862 14.5172H9.90799L9.90982 13.1755ZM7.26317 18.0234C7.41158 18.0279 7.55246 18.0926 7.65589 18.2037C7.75932 18.3148 7.81714 18.4637 7.81708 18.6186C7.81708 18.7765 7.75698 18.9279 7.65001 19.0395C7.54304 19.1511 7.39795 19.2138 7.24667 19.2138C7.09538 19.2138 6.9503 19.1511 6.84332 19.0395C6.73635 18.9279 6.67625 18.7765 6.67625 18.6186C6.67622 18.539 6.6915 18.4601 6.7212 18.3868C6.75089 18.3134 6.79439 18.247 6.84912 18.1915C6.90384 18.136 6.96869 18.0925 7.03981 18.0637C7.11094 18.0348 7.18689 18.0211 7.26317 18.0234ZM15.7093 18.0502C15.8578 18.0547 15.9986 18.1194 16.1021 18.2305C16.2055 18.3416 16.2633 18.4905 16.2633 18.6454C16.2633 18.8033 16.2032 18.9547 16.0962 19.0663C15.9892 19.1779 15.8441 19.2406 15.6928 19.2406C15.5416 19.2406 15.3965 19.1779 15.2895 19.0663C15.1825 18.9547 15.1224 18.8033 15.1224 18.6454C15.1224 18.5658 15.1377 18.4869 15.1674 18.4136C15.1971 18.3402 15.2406 18.2738 15.2953 18.2183C15.35 18.1628 15.4149 18.1193 15.486 18.0905C15.5571 18.0616 15.6331 18.0479 15.7093 18.0502Z" fill="#EA580C"/>
</svg>
