<svg width="24" height="24" viewBox="0 0 24 24" fill="none" xmlns="http://www.w3.org/2000/svg">
<path d="M18.206 6.522C17.525 6.522 16.931 6.726 16.348 6.921C15.667 5.744 14.392 4.965 13.02 4.965C11.95 4.965 10.977 5.452 10.286 6.133C9.50698 5.16 8.32998 4.469 6.96798 4.469C4.70098 4.469 2.75498 6.327 2.75498 8.595C2.75498 9.169 2.95898 9.752 3.15398 10.336C2.59335 10.6432 2.12524 11.095 1.79832 11.6444C1.4714 12.1938 1.29759 12.8207 1.29498 13.46C1.29498 15.406 2.86198 17.08 4.81798 17.08C5.10998 17.08 5.40098 17.08 5.59598 16.982C5.98598 18.451 7.45398 19.532 9.21598 19.532C10.87 19.532 12.242 18.548 12.728 17.176C13.224 17.381 13.711 17.576 14.198 17.576C15.472 17.576 16.64 16.866 17.223 15.814C17.525 15.892 17.836 15.892 18.109 15.892C20.649 15.892 22.701 13.858 22.701 11.222C22.799 8.595 20.755 6.522 18.206 6.522Z" fill="#60A5FA"/>
</svg>
