<svg width="24" height="24" viewBox="0 0 24 24" fill="none" xmlns="http://www.w3.org/2000/svg">
<g clip-path="url(#clip0_3372_2686)">
<path d="M6 3.5C5.44772 3.5 5 3.94772 5 4.5V20.5C5 21.0523 5.44772 21.5 6 21.5H18C18.5523 21.5 19 21.0523 19 20.5V8.5C19 8.19622 18.8619 7.9089 18.6247 7.71913L13.6247 3.71913C13.4474 3.57728 13.2271 3.5 13 3.5H6Z" stroke="#64748B" stroke-width="2" stroke-linejoin="round"/>
<path d="M12 4.5V9.5H18" stroke="#64748B" stroke-width="2" stroke-linejoin="round"/>
<path d="M19.261 19.873C19.8632 18.9159 20.0619 17.7592 19.8136 16.656C19.5653 15.5528 18.8902 14.5928 17.936 13.986C15.939 12.726 13.289 13.342 12.049 15.311C10.781 17.308 11.396 19.939 13.374 21.198C14.0513 21.6277 14.8361 21.8574 15.6382 21.8608C16.4403 21.8642 17.2271 21.641 17.908 21.217L20.5066 23.7742C20.7022 23.9668 21.0165 23.9656 21.2107 23.7715L21.8233 23.1594C22.0182 22.9646 22.0188 22.6488 21.8246 22.4533L19.261 19.873ZM15.655 19.967C15.0275 19.967 14.4257 19.7177 13.982 19.274C13.5383 18.8303 13.289 18.2285 13.289 17.601C13.289 16.9735 13.5383 16.3717 13.982 15.928C14.4257 15.4843 15.0275 15.235 15.655 15.235C15.9657 15.235 16.2734 15.2962 16.5604 15.4151C16.8475 15.534 17.1083 15.7083 17.328 15.928C17.5477 16.1477 17.722 16.4085 17.8409 16.6956C17.9598 16.9826 18.021 17.2903 18.021 17.601C18.021 18.2285 17.7717 18.8303 17.328 19.274C16.8843 19.7177 16.2825 19.967 15.655 19.967Z" fill="#BDD4F5"/>
</g>
<defs>
<clipPath id="clip0_3372_2686">
<rect width="24" height="24" fill="white"/>
</clipPath>
</defs>
</svg>
