<svg width="24" height="24" viewBox="0 0 24 24" fill="none" xmlns="http://www.w3.org/2000/svg">
<path d="M5.91805 8.1015C3.76505 8.1015 2.01965 9.8469 2.01965 11.9999C2.01965 14.153 3.76505 15.8983 5.91805 15.8983C7.14855 15.8983 8.24455 15.3279 8.95905 14.4374C8.96069 14.4353 8.96136 14.4335 8.96296 14.4315L8.96491 14.4335C9.00233 14.3865 9.0371 14.3396 9.07233 14.2909C9.22185 14.0951 9.3302 13.9242 9.43171 13.6894C9.44198 13.6681 9.45112 13.6464 9.46101 13.6249C9.47091 13.6032 9.4808 13.5804 9.49031 13.5585H9.62117C9.59295 13.675 9.55287 13.7905 9.50398 13.9062C9.39502 14.1399 9.26073 14.3878 9.12312 14.6112C9.12086 14.6147 9.11952 14.6174 9.11726 14.621C9.48244 15.0228 9.92743 15.3446 10.4239 15.5644C10.9204 15.7842 11.4572 15.8981 12.0001 15.8984C12.543 15.8981 13.0798 15.7842 13.5763 15.5644C14.0728 15.3446 14.5177 15.0228 14.8829 14.621C14.8807 14.6174 14.8792 14.6147 14.877 14.6112C14.7393 14.3878 14.603 14.14 14.4941 13.9062C14.4452 13.7906 14.4052 13.675 14.377 13.5585H14.5078C14.5306 13.6106 14.5532 13.662 14.5781 13.7128C14.6766 13.9353 14.7813 14.1017 14.9258 14.2909C14.9332 14.3011 14.9418 14.3101 14.9492 14.3202C14.952 14.324 14.9542 14.3282 14.957 14.3319C14.9822 14.366 15.0088 14.3984 15.0352 14.4316C15.0355 14.432 15.0348 14.4332 15.0352 14.4336L15.0372 14.4356C15.7516 15.3273 16.8506 15.8985 18.0821 15.8985C20.2351 15.8985 21.9805 14.1532 21.9805 12.0001C21.9805 9.84695 20.2351 8.10155 18.0821 8.10155C17.5362 8.10159 16.9949 8.21561 16.4962 8.43749C15.9975 8.65937 15.5511 8.98325 15.1857 9.38866C15.4245 9.77441 15.6023 10.0656 15.7228 10.3633H15.586C15.3479 9.97451 15.267 9.82022 15.0411 9.56054C14.3266 8.67072 13.23 8.10154 12.0001 8.10154C10.7703 8.10154 9.67363 8.67085 8.95913 9.56054C8.73322 9.82022 8.65029 9.97451 8.41225 10.3633H8.27748C8.39802 10.0656 8.57386 9.77441 8.81264 9.38866C8.44714 8.98325 8.00081 8.65937 7.50214 8.43749C7.00341 8.21561 6.46395 8.10154 5.91805 8.1015ZM5.91805 9.8163C7.12375 9.8163 8.10165 10.7942 8.10165 11.9999C8.10165 13.2056 7.12377 14.1835 5.91805 14.1835C4.71233 14.1835 3.73445 13.2056 3.73445 11.9999C3.73445 10.7942 4.71233 9.8163 5.91805 9.8163ZM12.0001 9.8163C13.2058 9.8163 14.1837 10.7942 14.1837 11.9999C14.1837 13.2056 13.2058 14.1835 12.0001 14.1835C10.7943 14.1835 9.81645 13.2056 9.81645 11.9999C9.81645 11.9623 9.81654 11.9258 9.8184 11.8886C9.87689 10.735 10.8321 9.8163 12.0001 9.8163ZM18.0821 9.8163C19.2878 9.8163 20.2637 10.7942 20.2637 11.9999C20.2637 13.2056 19.2877 14.1835 18.0821 14.1835C16.8763 14.1835 15.8985 13.2056 15.8985 11.9999C15.8985 10.7942 16.8763 9.8163 18.0821 9.8163Z" fill="#14B8A6"/>
</svg>
