<svg width="24" height="24" viewBox="0 0 24 24" fill="none" xmlns="http://www.w3.org/2000/svg">
<path d="M21.7896 17.796C22.2456 18.5939 22.2943 19.4324 21.9118 20.1C21.5291 20.7676 20.7802 21.1421 19.8682 21.1421H18.1342C18.1585 20.8164 18.1667 20.4907 18.1667 20.1652C18.1667 19.7988 18.1504 19.4324 18.1259 19.0742H19.2658C19.5426 19.0742 19.7705 18.8462 19.7705 18.5694C19.7705 18.488 19.7461 18.3985 19.7135 18.3252L12.4433 5.682C12.3538 5.51916 12.1829 5.42148 12.0037 5.42148C11.8246 5.42148 11.6617 5.511 11.5722 5.66568L10.4161 7.66848C13.9251 10.3145 16.2779 14.4095 16.6035 19.0582C16.6279 19.4164 16.6443 19.7827 16.6443 20.1491C16.6443 20.4748 16.6279 20.8004 16.6116 21.1261H10.9534C10.986 20.8004 11.0022 20.4748 11.0022 20.1491C11.0022 19.7827 10.9779 19.4164 10.9372 19.0583C10.6603 16.5018 9.40657 14.2304 7.55857 12.6347L6.76057 14.0186C8.15281 15.3131 9.10537 17.0798 9.36577 19.0662C9.41473 19.4244 9.43909 19.7908 9.43909 20.1571C9.43909 20.491 9.41473 20.8166 9.38209 21.1342H4.13101C3.21109 21.1342 2.46205 20.7515 2.08753 20.0921C1.70497 19.4326 1.75381 18.586 2.20969 17.7881L3.28441 15.94C3.89978 16.2717 4.45555 16.7037 4.92889 17.2182L4.28569 18.309C4.24489 18.3823 4.22869 18.4638 4.22053 18.5533C4.22053 18.8302 4.44853 19.058 4.72525 19.058H7.27345C7.06638 17.864 6.51778 16.7555 5.69401 15.8666C5.22193 15.3538 4.66009 14.9222 4.04953 14.5886L6.89089 9.6468C7.49329 9.98064 8.07145 10.3714 8.60053 10.811C11.0511 12.7975 12.7037 15.7366 13.005 19.0582H14.5275C14.2181 15.1747 12.2643 11.7473 9.36589 9.47592C8.82049 9.05256 8.24245 8.66184 7.63993 8.328L10.066 4.11084C10.522 3.31296 11.2302 2.85708 11.9873 2.85708C12.7527 2.85708 13.4527 3.31308 13.9086 4.11084L21.7896 17.796Z" fill="#F472B6"/>
</svg>
