<svg width="24" height="24" viewBox="0 0 24 24" fill="none" xmlns="http://www.w3.org/2000/svg">
<path d="M6.959 2.50001C6.35258 2.49869 5.75187 2.61716 5.19135 2.84862C4.63084 3.08008 4.12156 3.41997 3.69276 3.84877C3.26395 4.27758 2.92407 4.78686 2.69261 5.34737C2.46115 5.90788 2.34268 6.50859 2.344 7.11501V17.072C2.34268 17.6784 2.46115 18.2791 2.69261 18.8397C2.92407 19.4002 3.26395 19.9094 3.69276 20.3382C4.12156 20.7671 4.63084 21.1069 5.19135 21.3384C5.75187 21.5699 6.35258 21.6883 6.959 21.687H16.916C17.5224 21.6883 18.1231 21.5699 18.6836 21.3384C19.2442 21.1069 19.7534 20.7671 20.1822 20.3382C20.611 19.9094 20.9509 19.4002 21.1824 18.8397C21.4138 18.2791 21.5323 17.6784 21.531 17.072V7.11501C21.5323 6.50859 21.4138 5.90788 21.1824 5.34737C20.9509 4.78686 20.611 4.27758 20.1822 3.84877C19.7534 3.41997 19.2442 3.08008 18.6836 2.84862C18.1231 2.61716 17.5224 2.49869 16.916 2.50001H6.959ZM11.897 5.19101C12.7915 5.19114 13.6772 5.36748 14.5036 5.70995C15.33 6.05241 16.0808 6.55431 16.7132 7.18697C17.3455 7.81963 17.8471 8.57066 18.1892 9.39717C18.5313 10.2237 18.7073 11.1095 18.707 12.004H13.43L9.938 7.28701L10.637 12.004H5.086C5.08573 11.1095 5.26168 10.2237 5.60378 9.39717C5.94589 8.57066 6.44745 7.81963 7.07983 7.18697C7.71221 6.55431 8.46302 6.05241 9.28939 5.70995C10.1157 5.36748 11.0015 5.19114 11.896 5.19101H11.897Z" fill="#FBBF24"/>
</svg>
