<svg width="24" height="24" viewBox="0 0 24 24" fill="none" xmlns="http://www.w3.org/2000/svg">
<path d="M9.14 20.577C9.14 21.133 9.538 21.53 10.094 21.53H13.906C14.462 21.53 14.859 21.133 14.859 20.577V19.624H9.141L9.14 20.577ZM12 2.46899C8.347 2.46899 5.329 5.48699 5.329 9.13999C5.329 11.443 6.441 13.429 8.188 14.62V16.764C8.188 17.32 8.585 17.717 9.141 17.717H14.859C15.415 17.717 15.812 17.32 15.812 16.764V14.62C17.559 13.429 18.672 11.443 18.672 9.13999C18.672 5.48699 15.653 2.46899 12 2.46899ZM14.7 13.032L13.906 13.588V15.812H10.094V13.588L9.3 13.032C8.66472 12.6006 8.1445 12.0205 7.78459 11.3422C7.42469 10.6639 7.23602 9.90788 7.235 9.13999C7.23896 7.87745 7.74225 6.66776 8.63501 5.775C9.52776 4.88225 10.7375 4.37895 12 4.37499C13.2625 4.37895 14.4722 4.88225 15.365 5.775C16.2577 6.66776 16.761 7.87745 16.765 9.13999C16.764 9.90788 16.5753 10.6639 16.2154 11.3422C15.8555 12.0205 15.3353 12.6006 14.7 13.032Z" fill="#CFD8DC"/>
</svg>
