<svg width="24" height="24" viewBox="0 0 24 24" fill="none" xmlns="http://www.w3.org/2000/svg">
<path d="M19.2 10.7C19 10.7 18.9 10.7 18.7 10.8L16.3 7C16.9 6.5 17.4 5.7 17.4 4.8C17.4 3.2 16.1 1.8 14.4 1.8C12.7 1.8 11.4 3.1 11.4 4.8C11.4 5.1 11.4 5.3 11.5 5.6L6.99999 7.9C6.49999 7.3 5.69999 6.9 4.79999 6.9C3.19999 6.9 1.79999 8.2 1.79999 9.9C1.79999 11.6 3.09999 12.9 4.79999 12.9C4.99999 12.9 5.19999 12.9 5.39999 12.8L7.69999 17.1C7.09999 17.6 6.79999 18.4 6.79999 19.2C6.79999 20.8 8.09999 22.2 9.79999 22.2C11.5 22.2 12.8 20.9 12.8 19.2C12.8 19 12.8 18.8 12.7 18.6L16.9 15.5C17.4 16.2 18.3 16.6 19.2 16.6C20.8 16.6 22.2 15.3 22.2 13.6C22.2 11.9 20.8 10.7 19.2 10.7ZM14.4 3.8C15 3.8 15.4 4.3 15.4 4.8C15.4 5.4 14.9 5.8 14.4 5.8C13.9 5.8 13.4 5.3 13.4 4.8C13.4 4.2 13.8 3.8 14.4 3.8ZM4.79999 10.9C4.19999 10.9 3.79999 10.4 3.79999 9.9C3.79999 9.3 4.29999 8.9 4.79999 8.9C5.29999 8.9 5.79999 9.4 5.79999 9.9C5.89999 10.5 5.39999 10.9 4.79999 10.9ZM6.79999 12.1C7.39999 11.6 7.79999 10.8 7.79999 9.9C7.79999 9.6 7.79999 9.4 7.69999 9.2L12.2 6.8C12.4 7 12.6 7.2 12.9 7.3L10.1 16.3H9.79999C9.49999 16.3 9.19999 16.4 8.99999 16.4L6.79999 12.1ZM9.79999 20.3C9.19999 20.3 8.79999 19.8 8.79999 19.3C8.79999 18.7 9.29999 18.3 9.79999 18.3C10.3 18.3 10.8 18.8 10.8 19.3C10.8 19.8 10.4 20.3 9.79999 20.3ZM16.2 13.7C16.2 13.9 16.2 14 16.3 14.2L12.1 17.3L11.5 16.7L14.4 7.7H14.5C14.7 7.7 14.9 7.7 15.1 7.6L17.4 11.3C16.7 11.9 16.2 12.8 16.2 13.7ZM19.2 14.7C18.6 14.7 18.2 14.2 18.2 13.7C18.2 13.1 18.7 12.7 19.2 12.7C19.7 12.7 20.2 13.2 20.2 13.7C20.2 14.3 19.7 14.7 19.2 14.7Z" fill="#F87171"/>
</svg>
