<svg width="24" height="25" viewBox="0 0 24 25" fill="none" xmlns="http://www.w3.org/2000/svg">
<path fill-rule="evenodd" clip-rule="evenodd" d="M12.4975 21.4528C14.5478 14.0761 14.4884 14.0431 15.9697 8.7844L16.3257 8.9914C16.5195 9.10347 16.6777 9.01118 16.6777 8.78704V6.27999C17.0706 4.89428 17.3792 3.82369 17.4688 3.50133H19.074L21.7406 5.98795L19.9897 7.51077L21.3148 8.95185L12.5852 21.4528C12.5424 21.5234 12.483 21.5076 12.4962 21.4528H12.4975Z" fill="#A855F7"/>
<path fill-rule="evenodd" clip-rule="evenodd" d="M13.4514 5.55483C13.5305 5.55483 13.5945 5.59834 13.5945 5.65372V6.93922C13.5945 6.99196 13.5351 7.03678 13.456 7.03678H11.3003C11.2212 7.03678 11.1553 6.99261 11.1553 6.9379V5.6524C11.1553 5.59834 11.2212 5.55483 11.3003 5.55483H13.456H13.4514ZM16.1121 4.13089L13.7401 5.50869C13.7678 5.55154 13.7843 5.60098 13.7843 5.65372V6.93922C13.7843 7.00514 13.7579 7.06447 13.7118 7.11391L16.1048 8.50489C16.263 8.60048 16.4015 8.52269 16.4015 8.33349V4.30427C16.4015 4.11441 16.263 4.03662 16.1048 4.13155L16.1121 4.13089ZM10.9615 6.93922V5.65372C10.9615 5.60098 10.978 5.55154 11.005 5.50869L8.63308 4.13089C8.47025 4.03662 8.33642 4.11441 8.33642 4.30361V8.33151C8.33642 8.52269 8.46959 8.59521 8.63308 8.50291L11.0294 7.11194C10.9865 7.0592 10.9608 6.99987 10.9608 6.93394L10.9615 6.93922Z" fill="#A855F7"/>
<path fill-rule="evenodd" clip-rule="evenodd" d="M12.1541 21.4528H12.2424C10.1922 14.076 10.2515 14.0431 8.77088 8.7844L8.41489 8.99139C8.22108 9.10346 8.0622 9.01117 8.0622 8.78703V6.27998C7.66732 4.89361 7.35749 3.82302 7.26519 3.5H5.66326L2.99997 5.98728L4.75023 7.5101L3.42517 8.95118L12.1534 21.4502L12.1541 21.4528Z" fill="#A855F7"/>
<path d="M12.3051 9.71985C12.6626 9.71985 12.9524 9.42825 12.9524 9.06853C12.9524 8.70882 12.6626 8.41721 12.3051 8.41721C11.9475 8.41721 11.6577 8.70882 11.6577 9.06853C11.6577 9.42825 11.9475 9.71985 12.3051 9.71985Z" fill="#A855F7"/>
<path d="M12.3051 13.5941C12.6626 13.5941 12.9524 13.3025 12.9524 12.9428C12.9524 12.5831 12.6626 12.2915 12.3051 12.2915C11.9475 12.2915 11.6577 12.5831 11.6577 12.9428C11.6577 13.3025 11.9475 13.5941 12.3051 13.5941Z" fill="#A855F7"/>
<path d="M12.3051 17.4685C12.6626 17.4685 12.9524 17.1768 12.9524 16.8171C12.9524 16.4574 12.6626 16.1658 12.3051 16.1658C11.9475 16.1658 11.6577 16.4574 11.6577 16.8171C11.6577 17.1768 11.9475 17.4685 12.3051 17.4685Z" fill="#A855F7"/>
</svg>
