<svg width="24" height="24" viewBox="0 0 24 24" fill="none" xmlns="http://www.w3.org/2000/svg">
<g clip-path="url(#clip0_3372_2552)">
<mask id="mask0_3372_2552" style="mask-type:luminance" maskUnits="userSpaceOnUse" x="0" y="0" width="24" height="24">
<path d="M0 0H24V24H0V0Z" fill="white"/>
</mask>
<g mask="url(#mask0_3372_2552)">
<path fill-rule="evenodd" clip-rule="evenodd" d="M11.232 13.667L6.86999 12.252C6.80802 12.2285 6.75416 12.1876 6.71494 12.1342C6.67572 12.0808 6.65282 12.0172 6.64899 11.951L6.60699 8.59901C6.60907 8.53319 6.63073 8.46948 6.66921 8.41604C6.70769 8.3626 6.76123 8.32185 6.82299 8.29901L17.102 5.01101C17.224 4.97201 17.322 5.04301 17.322 5.17101V8.52201C17.3191 8.58839 17.2968 8.65246 17.2579 8.70631C17.219 8.76016 17.1651 8.80142 17.103 8.82501L12.862 10.239L17.173 11.585C17.295 11.623 17.393 11.757 17.393 11.884V15.188C17.3901 15.2542 17.368 15.3182 17.3295 15.3721C17.291 15.4261 17.2377 15.4677 17.176 15.492L6.86999 18.988C6.74999 19.03 6.65199 18.959 6.65099 18.833L6.62999 15.384C6.63241 15.3181 6.65433 15.2545 6.69296 15.2011C6.73159 15.1477 6.7852 15.1069 6.84699 15.084L11.232 13.667Z" fill="#FBBF24"/>
</g>
</g>
<defs>
<clipPath id="clip0_3372_2552">
<rect width="24" height="24" fill="white"/>
</clipPath>
</defs>
</svg>
