<svg width="24" height="24" viewBox="0 0 24 24" fill="none" xmlns="http://www.w3.org/2000/svg">
<path d="M10.3082 1.83528C10.1501 2.44488 10.0306 3.03912 9.92881 3.64008C9.08243 3.83668 8.27019 4.15863 7.51897 4.59528C7.03345 4.25208 6.53881 3.91992 6.01465 3.61512L3.61609 5.99784C3.90296 6.48502 4.21044 6.95977 4.53769 7.4208C4.03202 8.20143 3.65384 9.05759 3.41737 9.95712C2.88889 10.0519 2.36497 10.1604 1.83649 10.3003V13.686C2.32873 13.817 2.81665 13.9188 3.30889 14.0066C3.51099 14.9819 3.87845 15.9153 4.39537 16.7666C4.11898 17.1626 3.85978 17.5702 3.61849 17.9885L6.01489 20.3849C6.42121 20.1502 6.80761 19.8972 7.18465 19.6373C8.05068 20.1949 9.00895 20.5942 10.0147 20.8164C10.0959 21.2695 10.1946 21.7193 10.3106 22.1647H13.7122C13.8319 21.7039 13.9291 21.2431 14.0148 20.7847C14.9922 20.5464 15.9213 20.1414 16.7611 19.5876C17.1677 19.8631 17.5742 20.1298 17.9942 20.3803L20.3885 17.9818C20.1222 17.5318 19.8382 17.0925 19.537 16.6651C20.0167 15.8451 20.36 14.9526 20.5534 14.0225C21.091 13.9231 21.6262 13.8168 22.1638 13.6745V10.2979C21.5969 10.1467 21.0298 10.0315 20.4494 9.93432C20.2236 9.08106 19.8712 8.26648 19.4038 7.51776C19.7571 7.02517 20.0886 6.51732 20.3974 5.99568L17.9942 3.60384C17.4499 3.92448 16.9327 4.27008 16.427 4.63128C15.698 4.19571 14.9087 3.87005 14.0846 3.6648C13.9831 3.05496 13.8612 2.44512 13.6985 1.83528H10.3082ZM11.9162 5.80584C11.9223 5.80583 11.9284 5.80583 11.9345 5.80584C12.6827 5.80472 13.4251 5.93628 14.1274 6.1944C14.2879 6.25296 14.4437 6.31632 14.5994 6.39744C15.9434 7.01646 17.033 8.07976 17.6846 9.40824C17.7456 9.53256 17.8022 9.65904 17.8565 9.78552C18.4519 11.2337 18.4944 12.8501 17.976 14.3275C17.9513 14.3998 17.9263 14.4698 17.8992 14.5308C17.2846 16.0946 16.0835 17.3565 14.5519 18.0475L14.5092 18.0768C13.7163 18.4242 12.8613 18.6074 11.9957 18.6156C11.1302 18.6238 10.2719 18.4567 9.47257 18.1243C9.47336 18.1206 9.47336 18.1168 9.47257 18.113C8.67948 17.7788 7.96144 17.2891 7.36088 16.6726C6.76031 16.0562 6.28941 15.3256 5.97601 14.5241L5.94433 14.4382C5.36742 12.8886 5.41275 11.1759 6.07081 9.65904C6.10681 9.57336 6.14521 9.48744 6.18841 9.40392C6.86389 8.02482 8.00891 6.93171 9.41785 6.32088C9.5581 6.26071 9.70052 6.20571 9.84481 6.156C10.5112 5.9261 11.2113 5.80779 11.9162 5.80584ZM14.0009 7.3596C13.8589 7.35782 13.7186 7.39029 13.5919 7.45425C13.4652 7.51821 13.3557 7.61178 13.2728 7.72703C13.1899 7.84228 13.136 7.97581 13.1157 8.11632C13.0954 8.25682 13.1092 8.40015 13.1561 8.53416C13.2019 8.66194 13.277 8.77719 13.3754 8.87064L12.5623 10.2802C12.3099 10.1701 12.0355 10.1198 11.7605 10.1333C11.4554 10.1503 11.1599 10.2466 10.9033 10.4125C10.6467 10.5784 10.4377 10.8083 10.297 11.0796L8.55337 10.3954V10.3771C8.57369 10.1811 8.52217 9.98445 8.40837 9.82361C8.29457 9.66277 8.12625 9.54872 7.93468 9.50265C7.74311 9.45659 7.54133 9.48165 7.36685 9.57318C7.19238 9.66471 7.05707 9.81648 6.98608 10.0003C6.91509 10.1841 6.91325 10.3874 6.9809 10.5724C7.04855 10.7575 7.1811 10.9117 7.35389 11.0063C7.52668 11.101 7.72798 11.1297 7.92035 11.0871C8.11272 11.0445 8.28308 10.9336 8.39977 10.7748L10.1434 11.459C10.0609 11.7842 10.0731 12.1261 10.1783 12.4446C10.2835 12.763 10.4775 13.0449 10.7374 13.2569L9.92425 14.5262C9.77823 14.4668 9.62084 14.4406 9.46345 14.4494C9.21477 14.4648 8.97895 14.5653 8.79568 14.734C8.61241 14.9028 8.49287 15.1296 8.45717 15.3762C8.42148 15.6227 8.4718 15.8741 8.59969 16.0879C8.72757 16.3017 8.9252 16.465 9.15933 16.5502C9.39345 16.6354 9.64978 16.6374 9.88519 16.5557C10.1206 16.4741 10.3207 16.3139 10.4518 16.1021C10.583 15.8902 10.6371 15.6397 10.6052 15.3926C10.5733 15.1455 10.4572 14.9169 10.2766 14.7454L11.0897 13.4806C11.426 13.6439 11.8055 13.696 12.1733 13.6294C12.5412 13.5628 12.8783 13.3809 13.1359 13.11L14.1523 13.8689C14.0566 14.0517 14.0061 14.2548 14.0053 14.4611C14.0045 14.6674 14.0532 14.8709 14.1475 15.0545C14.2418 15.238 14.3788 15.3962 14.547 15.5157C14.7152 15.6353 14.9096 15.7126 15.114 15.7412C15.3183 15.7699 15.5266 15.749 15.7211 15.6803C15.9157 15.6116 16.0909 15.4972 16.232 15.3466C16.3731 15.1961 16.4759 15.0138 16.5318 14.8152C16.5878 14.6166 16.5951 14.4074 16.5533 14.2054C16.5068 13.9788 16.4002 13.7689 16.2446 13.5978C16.089 13.4266 15.8902 13.3006 15.669 13.2329C15.4478 13.1652 15.2125 13.1583 14.9878 13.213C14.763 13.2677 14.5572 13.3819 14.3918 13.5437L13.3776 12.7896C13.597 12.417 13.671 11.9765 13.5856 11.5526C13.5001 11.1288 13.2612 10.7514 12.9146 10.4928L13.7278 9.08328C13.8491 9.12268 13.9775 9.13534 14.1042 9.12039C14.2308 9.10543 14.3528 9.06321 14.4616 8.99664C14.5704 8.93007 14.6634 8.84072 14.7344 8.73474C14.8054 8.62877 14.8526 8.50867 14.8727 8.38272C14.8929 8.25677 14.8855 8.12795 14.8511 8.00512C14.8167 7.8823 14.7561 7.76838 14.6735 7.6712C14.5909 7.57403 14.4882 7.4959 14.3725 7.44219C14.2568 7.38848 14.1308 7.36047 14.0033 7.36008L14.0009 7.3596Z" fill="#60A5FA"/>
</svg>
