<svg width="24" height="25" viewBox="0 0 24 25" fill="none" xmlns="http://www.w3.org/2000/svg">
<path fill-rule="evenodd" clip-rule="evenodd" d="M6.02024 5.5H18.4928L18.513 9.67774H17.9162C17.7206 8.18738 17.1609 7.17918 16.237 6.65318C15.7177 6.36321 14.9422 6.20473 13.9104 6.17773V17.0824C13.9104 17.8444 14.0436 18.3502 14.31 18.5997C14.5764 18.8492 15.131 18.974 15.974 18.974V19.5H8.5896V18.974C9.39885 18.974 9.93666 18.8475 10.203 18.5946C10.4694 18.3418 10.6026 17.8377 10.6026 17.0824V6.17773C9.59104 6.20473 8.81553 6.36321 8.276 6.65318C7.28468 7.19268 6.72494 8.20087 6.59682 9.67774H6L6.02024 5.5Z" fill="#2563EB"/>
</svg>
