<svg width="24" height="24" viewBox="0 0 24 24" fill="none" xmlns="http://www.w3.org/2000/svg">
<path d="M8.264 3.088C8.042 3.216 7.74 3.398 7.6 3.488C7.525 3.535 7.06 3.816 6.567 4.112C6.074 4.408 5.667 4.662 5.661 4.673C5.65794 4.67955 5.65316 4.68514 5.64718 4.68919C5.64119 4.69324 5.63422 4.6956 5.627 4.696C5.603 4.696 4.267 5.491 3.967 5.684C3.88713 5.73504 3.81505 5.79735 3.753 5.869L3.685 5.96L3.678 7.055C3.67 8.382 3.685 8.435 4.08 8.519C4.236 8.552 8.872 8.527 8.954 8.492C9.28 8.356 9.275 8.398 9.266 5.702L9.258 3.378L9.185 3.265C9.016 3.005 8.558 2.917 8.265 3.088M10.543 3.091C10.475 3.134 10.411 3.195 10.401 3.226C10.391 3.257 10.371 3.283 10.358 3.283C10.344 3.283 10.334 3.293 10.335 3.303C10.3369 3.31434 10.3362 3.32596 10.333 3.337C10.33 3.345 10.32 3.387 10.31 3.432C10.263 3.643 10.29 20.654 10.338 20.654C10.352 20.654 10.355 20.666 10.348 20.68C10.319 20.724 10.539 20.92 10.65 20.951C11.024 21.055 16.15 20.977 16.15 20.866C16.15 20.854 16.17 20.844 16.192 20.844C16.216 20.844 16.228 20.834 16.222 20.822C16.213 20.809 16.232 20.779 16.26 20.754C16.29 20.729 16.313 20.686 16.313 20.659C16.313 20.631 16.319 20.602 16.327 20.594C16.335 20.587 16.341 17.966 16.34 14.772C16.34 9.74 16.345 8.952 16.38 8.869C16.401 8.817 16.413 8.774 16.405 8.774C16.337 8.774 16.632 8.52 16.721 8.502C16.743 8.498 17.461 8.49 18.317 8.485C20.183 8.475 20.107 8.485 20.26 8.217L20.323 8.108V5.756C20.323 3.152 20.334 3.326 20.15 3.153C19.99 3.003 20.275 3.01 15.284 3.011L10.667 3.012L10.543 3.091Z" fill="#4ADE80"/>
</svg>
