<svg width="24" height="24" viewBox="0 0 24 24" fill="none" xmlns="http://www.w3.org/2000/svg">
<path d="M2 7.99998C2 4.68627 4.68629 1.99997 8 1.99997H15C18.3137 1.99997 21 4.68626 21 7.99997V16C21 19.3137 18.3137 22 15 22H8C4.68629 22 2 19.3137 2 16V7.99998ZM10.2929 15.7929C10.6834 16.1834 11.3166 16.1834 11.7071 15.7929L17.2947 10.2053C17.6842 9.81578 17.6842 9.18422 17.2947 8.79468C16.9054 8.4054 16.2743 8.40511 15.8847 8.79405L11 13.67L8.61557 11.2933C8.22571 10.9047 7.5948 10.9052 7.20557 11.2944C6.8159 11.6841 6.8159 12.3159 7.20557 12.7056L10.2929 15.7929Z" fill="#4ADE80"/>
</svg>
