<svg width="24" height="24" viewBox="0 0 24 24" fill="none" xmlns="http://www.w3.org/2000/svg">
<path d="M6.40091 10.7004C6.40091 10.7004 3.09323 13.0284 2.96399 13.9153L3.21215 13.8643C3.21215 13.8643 7.17311 11.2392 10.313 10.9189L10.3841 10.5204L6.40091 10.7004ZM11.5933 10.3676L8.98787 12.2156L9.12875 12.3286C9.23495 12.2429 13.7568 10.8619 13.7568 10.8619L14.7101 10.2642C14.0705 10.3439 11.5933 10.3676 11.5933 10.3676ZM13.8576 12.6029C15.7076 12.6029 18.4808 10.7909 18.4808 10.7909L17.5844 10.6202C17.54 10.6646 16.1388 10.5712 16.1388 10.5712L15.4735 10.3864L13.8844 12.1973L13.755 12.5116C13.8692 12.4651 13.8575 12.6028 13.8575 12.6028L13.8576 12.6029ZM19.8952 18.3811L19.3236 18.5419L16.6829 18.4849L15.0309 17.2003L13.0341 17.6999L10.7249 17.5001L9.43163 18.9132L7.00523 19.638L5.79359 19.2624L5.73251 19.2098L6.27635 20.5415C6.27635 20.5415 7.50815 21.8621 8.19623 22.0174C8.88419 22.1726 10.127 22.0062 11.0593 21.8618C11.9913 21.7176 12.7349 21.3847 13.0345 20.8411C13.334 20.2972 13.3784 20.1419 13.3784 20.1419C13.3784 20.1419 14.2664 21.3959 15.032 21.5402C15.7976 21.6845 18.0726 20.9075 18.0726 20.9075C18.0726 20.9075 19.4598 20.5303 19.7038 20.0531C19.948 19.576 20.5918 18.0113 20.5918 18.0113L19.8952 18.3811ZM6.04799 19.4659L6.00959 19.4483C5.91863 19.3697 5.84423 19.3055 5.79563 19.2637L6.04799 19.4659Z" fill="#CB3349"/>
<path d="M22.138 8.9478C22.132 8.87645 22.1246 8.80524 22.1156 8.7342C22.1094 8.6836 22.1018 8.63318 22.0928 8.583C21.9023 8.42256 21.6856 8.27988 21.4601 8.15016C21.2158 8.00736 20.9602 7.87956 20.6992 7.76088C20.44 7.63848 20.1738 7.52796 19.9061 7.41996C19.7725 7.36572 19.6376 7.31316 19.5024 7.26288C19.3675 7.21032 19.2313 7.16136 19.0948 7.11168C19.3814 7.15908 19.6651 7.22412 19.9468 7.2966C20.1299 7.344 20.312 7.39704 20.493 7.45368C19.2056 4.08888 16.1274 1.89756 12.7667 1.89756C9.40548 1.89756 6.3276 4.08876 5.04048 7.45356C5.22117 7.39679 5.40323 7.34445 5.58648 7.2966C5.86848 7.22412 6.1524 7.15908 6.43884 7.11156C6.3018 7.16136 6.16596 7.21032 6.0306 7.26288C5.89596 7.31316 5.76108 7.36572 5.62692 7.41996C5.3592 7.52796 5.09376 7.6386 4.83396 7.76076C4.57356 7.87956 4.31772 8.00748 4.07328 8.15016C3.8478 8.27976 3.63144 8.42256 3.44004 8.58288C3.43212 8.63148 3.42408 8.68404 3.41772 8.73432C3.4092 8.80512 3.40128 8.87652 3.3954 8.94792C3.38347 9.0915 3.37722 9.23549 3.37668 9.37956C3.37465 9.66776 3.39241 9.95576 3.42984 10.2415C3.46908 10.5277 3.52164 10.812 3.59928 11.0867C3.63768 11.2243 3.68088 11.3602 3.73116 11.4914C3.76857 11.5882 3.81029 11.6833 3.8562 11.7763L3.87456 11.8112C3.89568 11.822 3.91788 11.8328 3.939 11.8432L4.06704 11.9042C4.13832 11.9366 4.23708 11.9834 4.31868 12.0202C4.32327 12.0163 4.32768 12.0123 4.33188 12.008L4.09428 11.1031C4.14468 11.0893 4.59576 10.9729 5.37324 10.825C5.13078 10.7789 4.8933 10.7096 4.66404 10.6182C4.58004 10.5828 4.49748 10.544 4.41864 10.4996C4.3398 10.4544 4.26216 10.4032 4.20216 10.3351C5.05632 10.6138 6.82128 10.4875 8.39016 10.3255C9.825 10.1776 11.2632 10.0817 12.709 10.0788C14.1547 10.0817 15.5934 10.1776 17.0278 10.3254C18.5974 10.4875 20.3622 10.6138 21.2162 10.335C21.1562 10.4032 21.0788 10.4545 21 10.4996C20.9205 10.5438 20.8386 10.5834 20.7546 10.6182C20.5851 10.6858 20.4111 10.7413 20.2338 10.7844C20.2076 10.7906 20.1812 10.7964 20.155 10.802C21.0074 10.9602 21.5038 11.0888 21.5568 11.103L21.3295 11.9651C21.3751 11.9444 21.4213 11.9245 21.4666 11.904L21.5944 11.8428C21.6156 11.8326 21.6372 11.8218 21.6589 11.811L21.6766 11.7762C21.6922 11.7466 21.7069 11.7156 21.7211 11.6843C21.7499 11.6215 21.7772 11.5568 21.8023 11.4913C21.8527 11.3586 21.8967 11.2235 21.9343 11.0866C22.012 10.8118 22.0644 10.5275 22.1038 10.2414C22.1405 9.95592 22.1597 9.66756 22.157 9.37932C22.1558 9.2352 22.1507 9.09132 22.138 8.9478Z" fill="#F4EDAE"/>
<path d="M13.7364 20.9141C13.6232 20.9311 13.5102 20.9455 13.3976 20.9539C13.3252 20.9575 13.2485 20.9647 13.1789 20.9647L13.1531 20.9653C13.2217 20.8118 13.2897 20.6581 13.3571 20.504C13.4594 20.6189 13.5898 20.761 13.7364 20.9141ZM13.9819 21.165C14.333 21.5128 14.7683 21.712 15.2472 21.7474C14.4427 22.0741 13.6844 22.2002 13.1004 22.2395C12.518 22.2785 11.9278 22.2098 11.3492 22.0513C11.3977 22.0426 11.4332 22.0363 11.4761 22.0312C11.5236 22.0254 12.5609 21.8902 13.0285 21.1948L13.0724 21.1958L13.1873 21.1949C13.2649 21.1949 13.3355 21.1885 13.4098 21.1856C13.5839 21.1705 13.757 21.1455 13.9283 21.1109C13.946 21.129 13.9637 21.1469 13.9819 21.1649V21.165Z" fill="#E6CCAD"/>
<path d="M14.9769 10.7533C14.9433 10.7972 14.9055 10.8457 14.8655 10.8961C14.6599 11.1559 14.3749 11.4882 14.037 11.8132C13.6331 11.8006 13.2289 11.7944 12.8248 11.7943C12.1381 11.7943 11.4796 11.8126 10.8544 11.8429C11.7378 11.4763 12.7991 11.1181 13.9486 10.9031C14.2842 10.8395 14.6278 10.7887 14.9769 10.7533ZM9.80665 11.149C9.49141 11.3705 9.13525 11.6532 8.78989 11.9962C8.0229 12.0727 7.25839 12.1723 6.49741 12.295C7.47601 11.845 8.59285 11.431 9.80665 11.149ZM20.6127 12.9749L20.2529 15.4919L18.5297 16.6988L14.0352 16.1879L13.3585 13.9598C13.3506 13.9333 13.3354 13.9095 13.3146 13.8913C13.2937 13.873 13.2682 13.861 13.2408 13.8566C13.0743 13.8296 12.9269 13.816 12.8041 13.816C12.6809 13.816 12.5341 13.8296 12.3667 13.8566C12.3395 13.8612 12.314 13.8732 12.2932 13.8915C12.2724 13.9097 12.2572 13.9334 12.2491 13.9598L11.5891 16.1335L7.11973 17.1282L5.34865 15.8874L4.99969 13.063C5.07565 13.02 5.15281 12.9773 5.23093 12.9346C5.34061 12.9109 5.46385 12.8858 5.60041 12.8597L5.92921 15.5249C5.93437 15.5665 5.95729 15.6036 5.99161 15.6276L7.20985 16.4814C7.22684 16.4929 7.24597 16.5008 7.2661 16.5047C7.28623 16.5086 7.30694 16.5083 7.32697 16.504L11.0016 15.6864C11.0271 15.6807 11.0506 15.6684 11.0698 15.6506C11.089 15.6329 11.1031 15.6103 11.1107 15.5854L11.7724 13.4064C11.9499 13.3608 12.4045 13.2545 12.804 13.2545C13.2025 13.2545 13.6576 13.3607 13.8352 13.4064L14.4969 15.5852C14.514 15.6419 14.5632 15.6822 14.6219 15.6892L18.2965 16.1065C18.3322 16.1105 18.3685 16.1012 18.3978 16.0808L19.6169 15.2278C19.6498 15.2044 19.6721 15.1676 19.6777 15.1272L20.0033 12.8503C20.2479 12.8975 20.4522 12.9403 20.6127 12.9749ZM21.0665 11.3963L20.7502 12.5963C20.1034 12.4537 18.6821 12.1739 16.7477 11.9855C17.3797 11.716 18.0233 11.3779 18.6113 10.9554C19.7623 11.1181 20.6075 11.2922 21.0665 11.3963Z" fill="#656C67"/>
<path d="M8.10803 15.1507C8.35859 15.0154 8.64179 15.0355 9.08483 15.036C9.13247 15.0372 9.18143 15.0366 9.23267 15.0355C9.27623 15.035 9.32003 15.0343 9.36635 15.0331C9.82307 15.0287 10.2028 15.0721 10.1962 14.3549C10.1892 13.6379 9.87071 13.0583 9.41447 13.0628C8.95775 13.0668 8.51579 13.6543 8.54315 14.3708C8.55059 14.5576 8.57795 14.6923 8.62199 14.7894C8.22395 14.8891 8.11427 15.1354 8.10803 15.1507ZM13.599 12.2011C13.4223 12.3453 13.2358 12.4772 13.041 12.5957L12.393 12.9869C12.1298 13.0201 11.8694 13.0723 11.6137 13.1429C11.5901 13.1498 11.5685 13.1625 11.551 13.1799C11.5334 13.1972 11.5204 13.2186 11.5132 13.2421L10.8532 15.4169L7.32575 16.2013L6.21467 15.4231L5.89151 12.8047C6.52247 12.6888 7.36631 12.5546 8.37983 12.4411C8.26936 12.5732 8.16458 12.7099 8.06579 12.8509L7.46231 13.7171L8.34095 13.1314C8.35415 13.1222 8.91359 12.7541 9.82895 12.3064C11.0833 12.2122 12.3414 12.1771 13.599 12.2011ZM17.462 14.8573C17.4576 14.8404 17.3616 14.5519 16.9367 14.6026C16.9858 14.496 17.0075 14.3521 16.9921 14.155C16.936 13.4396 16.5198 12.871 16.0636 12.8868C15.6073 12.903 15.315 13.496 15.3402 14.2132C15.3654 14.9298 15.7484 14.9248 16.2047 14.9087C16.8179 14.8973 17.1548 14.7089 17.462 14.8573ZM19.7134 12.7969L19.3954 15.023L18.275 15.8075L14.7523 15.4072L14.0951 13.2426C14.0878 13.2191 14.0748 13.1977 14.0573 13.1804C14.0397 13.1631 14.0182 13.1504 13.9946 13.1434C13.9728 13.137 13.5367 13.0126 13.0742 12.9725L13.1587 12.9668C13.2318 12.9617 14.4468 12.8126 15.8977 12.3125C17.5043 12.4358 18.8163 12.6336 19.7134 12.7969Z" fill="#E5CAA3"/>
<path d="M8.10803 15.1507C8.35859 15.0154 8.64179 15.0355 9.08483 15.036C9.13247 15.0372 9.18143 15.0366 9.23267 15.0355C9.27623 15.035 9.32003 15.0343 9.36635 15.0331C9.82307 15.0287 10.2028 15.0721 10.1962 14.3549C10.1892 13.6379 9.87071 13.0583 9.41447 13.0628C8.95775 13.0668 8.51579 13.6543 8.54315 14.3708C8.55059 14.5576 8.57795 14.6923 8.62199 14.7894C8.22395 14.8891 8.11427 15.1354 8.10803 15.1507ZM13.599 12.2011C13.4223 12.3453 13.2358 12.4772 13.041 12.5957L12.393 12.9869C12.1298 13.0201 11.8694 13.0723 11.6137 13.1429C11.5901 13.1498 11.5685 13.1625 11.551 13.1799C11.5334 13.1972 11.5204 13.2186 11.5132 13.2421L10.8532 15.4169L7.32575 16.2013L6.21467 15.4231L5.89151 12.8047C6.52247 12.6888 7.36631 12.5546 8.37983 12.4411C8.26936 12.5732 8.16458 12.7099 8.06579 12.8509L7.46231 13.7171L8.34095 13.1314C8.35415 13.1222 8.91359 12.7541 9.82895 12.3064C11.0833 12.2122 12.3414 12.1771 13.599 12.2011ZM17.462 14.8573C17.4576 14.8404 17.3616 14.5519 16.9367 14.6026C16.9858 14.496 17.0075 14.3521 16.9921 14.155C16.936 13.4396 16.5198 12.871 16.0636 12.8868C15.6073 12.903 15.315 13.496 15.3402 14.2132C15.3654 14.9298 15.7484 14.9248 16.2047 14.9087C16.8179 14.8973 17.1548 14.7089 17.462 14.8573ZM19.7134 12.7969L19.3954 15.023L18.275 15.8075L14.7523 15.4072L14.0951 13.2426C14.0878 13.2191 14.0748 13.1977 14.0573 13.1804C14.0397 13.1631 14.0182 13.1504 13.9946 13.1434C13.9728 13.137 13.5367 13.0126 13.0742 12.9725L13.1587 12.9668C13.2318 12.9617 14.4468 12.8126 15.8977 12.3125C17.5043 12.4358 18.8163 12.6336 19.7134 12.7969Z" fill="#C7B39A"/>
<path d="M21.2504 13.7753C21.3044 13.8198 21.3473 13.9351 21.2989 14.4724C21.2395 15.1301 20.9629 16.2846 20.7918 16.4707C20.6028 16.5073 20.2066 16.4639 19.965 16.4075C20.0068 16.2418 20.0186 16.1623 20.0524 15.9929L20.4749 15.6973C20.5085 15.6739 20.5308 15.6372 20.5366 15.5972L20.8318 13.5281C21.011 13.625 21.1954 13.73 21.2504 13.7753ZM5.67347 16.4762C5.69459 16.5511 5.71679 16.6258 5.73983 16.6994C5.51243 16.7663 5.04935 16.8302 4.83995 16.7936C4.66643 16.6188 4.34267 15.4154 4.27187 14.7764C4.21415 14.2586 4.25459 14.1467 4.30727 14.1031C4.36847 14.0518 4.59719 13.9216 4.79543 13.8154L5.06327 15.989C5.06831 16.0308 5.09051 16.0678 5.12555 16.0918L5.67347 16.4762ZM14.2211 16.506L14.205 16.6447C14.205 16.6447 13.718 17.0963 12.9342 17.1973C12.1502 17.2984 11.5342 16.8166 11.5342 16.8166C11.5598 16.9003 11.5964 17.0894 11.7739 17.251C11.5513 17.2237 11.3272 17.2098 11.1029 17.2092C11.0174 17.2092 10.931 17.2116 10.8476 17.2157C10.3652 17.2409 9.68651 17.9704 9.20915 18.7052C8.97503 18.7794 8.24315 19.0117 7.39583 19.262C6.60503 18.1662 6.21611 17.0465 6.17663 16.9307L6.17723 16.9301C6.16127 16.8854 6.14519 16.8408 6.13043 16.7952L6.33371 16.9375V16.938L6.83603 17.2897L7.00403 17.4067C7.02911 17.4245 7.05875 17.4336 7.08839 17.4336C7.09919 17.4336 7.10999 17.4324 7.12079 17.4304L11.7378 16.4024C11.7895 16.3912 11.8314 16.3522 11.8468 16.3015L12.5051 14.1341C12.6042 14.1197 12.7041 14.1119 12.8042 14.1107C12.8894 14.1107 12.9899 14.1187 13.1035 14.1341L13.781 16.3661C13.7982 16.4225 13.8473 16.4638 13.9055 16.4699L14.2211 16.506Z" fill="#E6CCAD"/>
<path d="M19.4912 16.387L19.6403 16.2823C19.6156 16.3854 19.5891 16.4881 19.5608 16.5902C19.3537 17.2543 19.109 17.8418 18.8375 18.3607C18.7775 18.3648 18.7141 18.3672 18.6462 18.3672C18.4365 18.3672 18.2225 18.3494 17.9855 18.3276C17.5743 18.2899 16.9218 18.2153 16.7157 18.1913C16.5381 18.0497 15.9307 17.567 15.4253 17.1692C15.4053 17.1533 15.3883 17.1384 15.3716 17.1246C15.2826 17.0494 15.1814 16.9638 14.9765 16.9638C14.7905 16.9638 14.5185 17.0316 13.8617 17.2304C14.2029 16.9752 14.2052 16.6458 14.2052 16.6458L14.2213 16.5071L18.5526 16.9991C18.5879 17.0032 18.6245 16.994 18.6541 16.9735L19.0893 16.6687L19.4912 16.387Z" fill="#E6CCAD"/>
<path d="M16.3034 7.27392C16.3166 7.65912 16.3069 8.35752 16.1275 9.01128C16.1208 9.03579 16.1208 9.06165 16.1275 9.08616C15.8994 9.0624 15.671 9.04144 15.4423 9.02328C15.6986 8.48604 15.7546 7.914 15.7667 7.71252C15.9635 7.57248 16.1596 7.4046 16.3034 7.27392ZM9.768 7.7124C9.77976 7.914 9.83568 8.48484 10.0916 9.0216C9.86328 9.03984 9.63492 9.06096 9.40704 9.08496C9.41359 9.0608 9.41359 9.03532 9.40704 9.01116C9.22776 8.3586 9.21864 7.65972 9.23124 7.2738C9.375 7.4046 9.57036 7.57248 9.768 7.7124Z" fill="#EBD599"/>
<path d="M17.462 14.8573C17.1548 14.709 16.818 14.8974 16.2048 14.9089C15.7486 14.9249 15.3654 14.9298 15.3403 14.2133C15.3151 13.4962 15.6074 12.9031 16.0637 12.8869C16.5199 12.871 16.9361 13.4396 16.9922 14.1552C17.0076 14.3522 16.9858 14.496 16.9368 14.6027C17.3616 14.5519 17.4576 14.8403 17.462 14.8573ZM16.0283 13.8073C16.0901 13.806 16.1488 13.7802 16.1917 13.7357C16.2346 13.6912 16.2582 13.6315 16.2572 13.5697C16.2568 13.5391 16.2502 13.5088 16.238 13.4807C16.2258 13.4526 16.2081 13.4272 16.186 13.4059C16.1639 13.3847 16.1379 13.368 16.1093 13.3568C16.0808 13.3457 16.0503 13.3403 16.0196 13.341C15.9583 13.3429 15.9002 13.3689 15.858 13.4134C15.8157 13.4578 15.7926 13.5172 15.7938 13.5785C15.7949 13.6398 15.8202 13.6982 15.864 13.7411C15.9079 13.7839 15.9669 13.8077 16.0283 13.8073Z" fill="#2D3136"/>
<path d="M16.0281 13.8055C16.1568 13.8032 16.2593 13.6969 16.2569 13.5681C16.2546 13.4394 16.1483 13.3369 16.0196 13.3393C15.8908 13.3416 15.7883 13.4479 15.7907 13.5767C15.7931 13.7054 15.8993 13.8079 16.0281 13.8055Z" fill="#EDF6FA"/>
<path d="M10.196 14.3546C10.2028 15.0718 9.82307 15.0284 9.36635 15.0329C9.32003 15.0341 9.27611 15.0346 9.23255 15.0353C9.18131 15.0365 9.13223 15.0368 9.08483 15.0356C8.64179 15.0352 8.35847 15.015 8.10803 15.1504C8.11403 15.135 8.22383 14.8888 8.62187 14.7889C8.57795 14.6917 8.55035 14.5571 8.54303 14.3705C8.51567 13.654 8.95763 13.0663 9.41435 13.0625C9.87059 13.0579 10.1892 13.6376 10.196 14.3546ZM9.49091 13.9795C9.55277 13.9778 9.6114 13.9516 9.65391 13.9066C9.69642 13.8616 9.71933 13.8016 9.71759 13.7398C9.71586 13.6779 9.68962 13.6193 9.64466 13.5768C9.5997 13.5343 9.53969 13.5113 9.47783 13.5131C9.44721 13.5139 9.41705 13.5208 9.38908 13.5333C9.36111 13.5459 9.33589 13.5638 9.31484 13.586C9.27233 13.631 9.24942 13.691 9.25115 13.7528C9.25289 13.8147 9.27912 13.8733 9.32408 13.9158C9.36905 13.9583 9.42906 13.9813 9.49091 13.9795Z" fill="#2D3136"/>
<path d="M9.49089 13.98C9.61969 13.9767 9.72141 13.8696 9.7181 13.7408C9.71479 13.6121 9.60769 13.5103 9.4789 13.5136C9.35011 13.517 9.24838 13.624 9.25169 13.7528C9.25501 13.8816 9.3621 13.9834 9.49089 13.98Z" fill="#EDF6FA"/>
<path opacity="0.8" d="M6.7104 9.48672C6.7104 9.48672 6.7812 8.56272 6.92604 8.20872C7.00068 8.02632 7.45716 7.91004 7.80576 7.82712C8.15424 7.74408 8.7102 7.57812 8.8182 8.06772C8.92608 8.55732 9.1002 8.91408 9.21636 9.07176L9.06708 7.0554L6.66888 7.6362L6.51108 9.42048L6.58584 9.56148L6.7104 9.48672ZM18.846 9.48672C18.846 9.48672 18.7752 8.56272 18.6304 8.20872C18.5556 8.02632 18.0991 7.91004 17.7508 7.82712C17.402 7.74408 16.8462 7.57812 16.7382 8.06772C16.6304 8.55732 16.4561 8.91408 16.3398 9.07176L16.4893 7.0554L18.8875 7.6362L19.0452 9.42048L18.9704 9.56148L18.846 9.48672Z" fill="#EBD599" fill-opacity="0.8"/>
<path opacity="0.75" d="M15.4552 3.45156C15.4552 3.45156 15.3916 8.28696 14.2621 8.28696H11.3255C10.1959 8.28696 10.1047 3.45372 10.1047 3.45372L9.54985 5.09472L9.55897 7.3464L9.95293 7.6596L10.1321 8.62656L10.3826 9.19056L15.2172 9.19956L15.4409 8.7966L15.6289 8.1162L15.6559 7.6866L16.1899 6.16212L15.4552 3.45156ZM19.0128 7.9602C19.0128 7.9602 19.2454 9.6282 19.8605 9.92904L18.9991 9.66924L19.0128 7.9602ZM6.52081 7.9602C6.52081 7.9602 6.28825 9.6282 5.67301 9.92904L6.53449 9.66924L6.52081 7.9602Z" fill="#EBD599" fill-opacity="0.75"/>
<path d="M19.1788 9.66156C19.4716 9.75756 19.766 9.85908 20.0329 10.0151C19.8901 9.95844 19.7428 9.918 19.5943 9.8814C19.4465 9.84414 19.2976 9.8114 19.1478 9.78324C18.8483 9.72633 18.547 9.67927 18.2444 9.64212C17.9424 9.60258 17.6395 9.56985 17.336 9.54396C17.0323 9.51828 16.7292 9.4926 16.4248 9.47484C15.2081 9.39996 13.988 9.38124 12.7672 9.38004C11.5465 9.38064 10.3264 9.40356 9.10956 9.47544C8.80536 9.49308 8.50212 9.51888 8.1984 9.54456C7.8948 9.57024 7.59144 9.60288 7.29 9.64272C6.98736 9.67932 6.6864 9.72732 6.38676 9.78372C6.23712 9.8118 6.08796 9.84432 5.93964 9.8814C5.7918 9.918 5.64384 9.95844 5.50104 10.0151C5.7678 9.8592 6.06228 9.75708 6.3558 9.66108C6.3804 9.65304 6.40548 9.6462 6.43056 9.63828C6.42888 9.63192 6.42708 9.62628 6.426 9.61944C6.42084 9.58572 6.31236 8.784 6.50136 7.63752C6.51048 7.58268 6.54984 7.53816 6.6036 7.52328L6.91368 7.43496C6.981 5.02992 7.97148 3.89892 8.00244 3.864C7.11744 5.28804 7.12548 6.97704 7.14084 7.3704L9.06768 6.8226L9.07224 6.82164C9.08028 6.81984 9.0882 6.81876 9.09624 6.81816C9.0984 6.81816 9.1014 6.81756 9.10416 6.81756C9.114 6.81708 9.12492 6.81816 9.13572 6.82044C9.1374 6.82044 9.13908 6.82164 9.14136 6.82212C9.1494 6.8238 9.15684 6.82656 9.16524 6.83004C9.16872 6.83184 9.17088 6.83364 9.17436 6.83532C9.18048 6.83892 9.18696 6.84276 9.1932 6.84732C9.19488 6.8484 9.1968 6.84888 9.19836 6.85068L9.20172 6.85416C9.20352 6.85584 9.20568 6.85704 9.20748 6.85884C9.20868 6.86052 9.26004 6.91116 9.34164 6.98724C9.32232 6.35244 9.35244 4.53096 10.2199 3.02136C10.2016 3.07428 9.51348 5.08656 9.7506 7.34184C9.82714 7.40344 9.90616 7.46189 9.98748 7.51704C10.0256 7.54344 10.0492 7.58664 10.0496 7.63296C10.0504 7.6404 10.0668 8.35932 10.3843 8.97084C10.3888 8.97996 10.3921 8.98956 10.3951 8.99928C11.1847 8.94564 11.9767 8.92392 12.7668 8.92344C13.5572 8.92392 14.3484 8.94672 15.138 9.00108C15.1409 8.99076 15.1444 8.98068 15.1495 8.97084C15.4669 8.35932 15.4836 7.6404 15.4836 7.63284C15.4847 7.58664 15.5081 7.54332 15.5464 7.51704C15.6273 7.46166 15.7062 7.40322 15.7828 7.34184C16.0202 5.08656 15.332 3.07428 15.3139 3.02136C16.1806 4.53096 16.2115 6.35232 16.1921 6.98736C16.2374 6.94515 16.282 6.9023 16.3261 6.85884C16.3278 6.85704 16.3303 6.85596 16.3318 6.85404C16.333 6.85308 16.3337 6.85188 16.3354 6.85068C16.337 6.849 16.3388 6.84828 16.3405 6.8472C16.3469 6.84276 16.3531 6.8388 16.3594 6.83472C16.3623 6.83339 16.3652 6.83183 16.3679 6.83004C16.3765 6.82656 16.3844 6.8238 16.3931 6.82164C16.3948 6.82164 16.3966 6.82044 16.3982 6.82044C16.4084 6.81816 16.4195 6.81708 16.4297 6.81756C16.4326 6.81756 16.4348 6.81816 16.4371 6.81816C16.445 6.81876 16.4537 6.81984 16.4617 6.82164C16.4629 6.82224 16.4646 6.82224 16.4662 6.82272L18.3931 7.37028C18.4087 6.97704 18.4166 5.28792 17.5318 3.864C17.5625 3.8988 18.5532 5.03004 18.6199 7.43496L18.9305 7.52328C18.9835 7.53816 19.0235 7.58268 19.0327 7.63752C19.2216 8.784 19.1126 9.58572 19.108 9.61944C19.1069 9.62628 19.1052 9.63264 19.1035 9.63876C19.129 9.6462 19.1536 9.65352 19.1788 9.66156ZM18.8284 9.55872C18.8431 9.43032 18.9121 8.72868 18.7655 7.77288L16.5842 7.15284C16.6038 7.5222 16.6124 8.32332 16.4028 9.08724C16.4 9.09669 16.3964 9.10589 16.392 9.11472C16.4136 9.117 16.4354 9.11868 16.4564 9.12156C17.0696 9.19176 17.6801 9.28992 18.2836 9.4224C18.4656 9.46464 18.6478 9.50988 18.8282 9.55872H18.8284ZM16.1274 9.01116C16.3068 8.35752 16.3165 7.65912 16.3033 7.2738C16.1594 7.4046 15.9635 7.57236 15.7666 7.71228C15.7546 7.91388 15.6985 8.48592 15.4422 9.02304C15.6706 9.04152 15.899 9.06204 16.1274 9.08592C16.1207 9.06145 16.1207 9.03563 16.1274 9.01116ZM10.0919 9.0216C9.83592 8.48484 9.78 7.91376 9.76812 7.7124C9.5706 7.57248 9.37524 7.4046 9.23136 7.27392C9.21876 7.65984 9.228 8.35872 9.40728 9.01128C9.41412 9.03648 9.4134 9.06168 9.40728 9.08508C9.63528 9.06096 9.8634 9.03984 10.0919 9.0216ZM9.14232 9.1134C9.13814 9.10497 9.13465 9.09623 9.13188 9.08724C8.92188 8.3232 8.93112 7.5222 8.94996 7.15272L6.76944 7.77276C6.62268 8.72748 6.6912 9.42912 6.70584 9.55824C6.88704 9.50904 7.06848 9.46392 7.25136 9.42168C7.55268 9.35496 7.85652 9.29904 8.16084 9.24768C8.46576 9.1968 8.77164 9.15804 9.07764 9.12084C9.09948 9.11796 9.12048 9.1164 9.14232 9.1134Z" fill="#2D3136"/>
<path d="M15.065 3.5148V5.32452H13.7822V4.7958H13.493V7.23864H13.9298V8.60448H11.6862V7.23864H12.1212V4.79592H11.8331V5.32464H10.551V3.5148H15.065ZM14.6796 4.94004V3.89952H10.9356V4.94004H11.4475V4.41132H12.5066V7.62408H12.0708V8.22H13.5446V7.62408H13.1088V4.41132H14.1679V4.94004H14.6796Z" fill="#2D3136"/>
<path d="M12.5064 4.41132H11.4477V4.94004H10.9357V3.8994H14.6803V4.94004H14.1679V4.41132H13.1092V7.62408H13.545V8.22H12.0708V7.62408H12.5067L12.5064 4.41132Z" fill="#CB3349"/>
<path d="M4.58472 11.3963C4.77168 11.3538 5.02428 11.2998 5.33424 11.24C5.10779 11.3947 4.88716 11.5577 4.6728 11.7287L4.58472 11.3963Z" fill="#656C67"/>
<path d="M11.4319 16.3561C11.4319 16.3561 11.4842 16.6926 11.0133 16.8365C10.5427 16.9805 7.56058 17.8692 7.2205 17.8211C6.88042 17.7731 6.01738 17.1967 6.01738 17.1967L5.80798 16.4522L7.08526 17.2486L11.4319 16.3561ZM14.1031 16.2912C14.1031 16.2912 14.0654 16.6296 14.5422 16.7532C15.0188 16.8766 18.0366 17.6348 18.3741 17.5721C18.7117 17.5092 19.5489 16.8959 19.5489 16.8959L19.7258 16.1429L18.5517 16.8432L14.1031 16.2912Z" fill="#C7B39A"/>
<path d="M4.34207 15.7375C4.34207 15.7375 4.75523 16.564 5.42267 16.2778L5.89943 16.4526L5.85179 16.8024L4.85063 16.9294L4.58063 16.7706L4.34207 15.7375ZM21.2579 15.51C21.2579 15.51 20.5825 16.3726 19.9151 16.0866L19.7005 16.225L19.7482 16.5745L20.7493 16.7017L21.0193 16.5428L21.2579 15.51ZM10.812 22.0026C10.812 22.0026 13.26 23.2368 16.0318 21.5574L15.1417 21.4967C15.1417 21.4967 13.1994 22.2654 11.6617 21.8406L10.812 22.0026Z" fill="#C7B39A"/>
<path d="M13.2942 19.729L13.4636 19.9308C13.4675 19.9356 13.8438 20.3836 14.304 20.8398C14.61 21.143 14.9796 21.2965 15.4034 21.2965C15.5551 21.2957 15.7062 21.2771 15.8536 21.241C15.996 21.2063 16.1508 21.1694 16.3092 21.1315C16.8816 20.9947 17.5297 20.8393 17.844 20.7512C17.9118 20.7328 17.98 20.7161 18.0486 20.7011C18.4668 20.6045 19.0401 20.4712 19.344 19.8625C19.5725 19.4058 19.8804 18.813 20.109 18.3785C19.911 18.4698 19.7034 18.5688 19.5559 18.6464C19.3286 18.7657 19.031 18.8236 18.6463 18.8236C18.4175 18.8236 18.1927 18.8044 17.9442 18.7823C17.4473 18.7366 16.6063 18.6376 16.5978 18.6364L16.5334 18.6292L16.4825 18.5886C16.4749 18.5831 15.7381 17.9959 15.1426 17.5276C15.1184 17.5079 15.0964 17.4895 15.0766 17.4731C15.0138 17.4196 15.0138 17.4196 14.9763 17.4196C14.7854 17.4196 14.2302 17.5918 13.014 17.9688L12.9392 17.9926L12.866 17.965C12.8576 17.9622 12.0596 17.6662 11.1035 17.6662C11.0252 17.6662 10.9472 17.6682 10.8713 17.6722C10.7755 17.6771 10.2379 17.9324 9.55055 19.02L9.50603 19.0898L9.42719 19.115C9.41579 19.1191 8.23271 19.501 6.97799 19.8598L6.89651 19.8829L6.81947 19.8472C6.81131 19.8438 6.32027 19.616 5.85311 19.4012C6.10787 19.7777 6.43367 20.2472 6.72035 20.6154C7.22111 21.2603 7.85231 21.8562 9.06251 21.8562C9.21431 21.8562 9.37559 21.847 9.54119 21.8281C10.7722 21.6889 11.0892 21.6329 11.2597 21.6031C11.3174 21.5933 11.3631 21.5849 11.4216 21.5779C11.4308 21.5767 12.439 21.4463 12.7218 20.8118C13.0134 20.1599 13.0723 20.0045 13.0746 19.9986L13.1774 19.724C13.1774 19.724 13.1902 19.6529 13.211 19.6308C13.211 19.6313 13.211 19.6313 13.2116 19.6313L13.2137 19.633C13.2461 19.6562 13.2941 19.729 13.2941 19.729H13.2942ZM5.62739 7.41984C5.35979 7.5276 5.09411 7.63884 4.83431 7.76088C4.57403 7.87992 4.31819 8.0076 4.07387 8.14992C3.84827 8.27988 3.63191 8.42232 3.44099 8.58324C3.43257 8.63349 3.42509 8.6839 3.41855 8.73444C3.39206 8.94848 3.37828 9.16389 3.37727 9.37956C3.37548 9.66784 3.39332 9.9559 3.43067 10.2418C3.47027 10.528 3.52247 10.8125 3.60011 11.087C3.63765 11.2239 3.6817 11.3588 3.73211 11.4914C3.75695 11.5576 3.78443 11.6219 3.81323 11.6846C3.82739 11.7158 3.84227 11.7468 3.85703 11.7764L3.87539 11.8112C3.89675 11.8222 3.91883 11.8331 3.93971 11.843L4.06787 11.904C4.13939 11.9371 4.23791 11.9839 4.31939 12.0202C4.32419 12.0163 4.32875 12.0119 4.33259 12.0082L4.09535 11.1034C4.14551 11.0897 4.59683 10.973 5.37431 10.825C5.31108 10.8133 5.24818 10.7998 5.18567 10.7848C5.00844 10.7416 4.83445 10.6861 4.66499 10.6186C4.58103 10.5836 4.49911 10.5439 4.41959 10.4998C4.34087 10.4545 4.26323 10.4034 4.20323 10.3352C5.05739 10.6141 6.82211 10.4876 8.39123 10.3259C9.82619 10.1778 11.264 10.0822 12.7098 10.0787C14.1553 10.082 15.5944 10.1777 17.0286 10.3259C18.5986 10.4876 20.3634 10.6142 21.2172 10.3352C21.1572 10.4034 21.0798 10.4545 21.0011 10.4996C20.9225 10.5443 20.8393 10.5828 20.7556 10.6186C20.5859 10.686 20.4118 10.7415 20.2344 10.7848C20.2085 10.7908 20.1821 10.7968 20.1557 10.8024C21.0082 10.9603 21.5045 11.0891 21.5573 11.1034L21.33 11.9652C21.3757 11.9448 21.4219 11.9251 21.4669 11.9041L21.5953 11.8432C21.6169 11.8328 21.6383 11.8222 21.6596 11.8112L21.6773 11.7766C21.6929 11.7463 21.7077 11.7157 21.7218 11.6848C21.7506 11.6219 21.778 11.5576 21.8034 11.4916C21.8534 11.3608 21.8967 11.2247 21.9348 11.0872C22.0124 10.8126 22.0652 10.528 22.1042 10.2419C22.1411 9.95628 22.1604 9.66792 22.1576 9.37956C22.1569 9.23557 22.1507 9.09167 22.1389 8.94816C22.1328 8.87682 22.1253 8.80561 22.1164 8.73456C22.11 8.68398 22.1024 8.63356 22.0936 8.58336C21.9026 8.42256 21.6864 8.28012 21.4608 8.15016C21.2164 8.0076 20.9608 7.88004 20.6998 7.761C20.4406 7.63896 20.1744 7.52772 19.9068 7.41996C19.7729 7.36571 19.6382 7.31339 19.5028 7.263C19.3681 7.2108 19.2316 7.16148 19.0951 7.1118C19.3817 7.15908 19.6658 7.22448 19.9469 7.2966C20.1301 7.344 20.3129 7.3974 20.4934 7.45404C19.2061 4.08888 16.1278 1.8978 12.7673 1.8978C9.40595 1.8978 6.32831 4.089 5.04119 7.45404C5.22182 7.39706 5.40384 7.34456 5.58707 7.2966C5.86883 7.2246 6.15275 7.15908 6.43955 7.1118C6.30239 7.16136 6.16655 7.2108 6.03119 7.263C5.89643 7.31304 5.76167 7.36584 5.62739 7.41984ZM22.5742 9.36672C22.5896 9.67644 22.5814 9.98676 22.5467 10.295C22.5135 10.604 22.456 10.9098 22.3746 11.2097C22.3322 11.3608 22.2824 11.5097 22.2253 11.656C22.196 11.7302 22.1644 11.8036 22.1308 11.876C22.1136 11.9123 22.0956 11.948 22.0752 11.985L22.045 12.0395C22.0334 12.0603 22.0211 12.0806 22.008 12.1004L21.9768 12.149L21.9277 12.1742C21.8754 12.2012 21.8326 12.2215 21.785 12.2436L21.647 12.3059C21.5546 12.3455 21.4616 12.3827 21.3686 12.419C21.3037 12.4445 21.2464 12.4676 21.192 12.4907L21.0384 13.0739C20.993 13.0624 20.9476 13.0513 20.9021 13.0404L20.8937 13.1015C21.0632 13.19 21.3961 13.3696 21.5095 13.4632C21.7379 13.6518 21.754 13.9507 21.7033 14.5092C21.6774 14.796 21.5822 15.3539 21.4502 15.8664C21.2222 16.7484 21.1013 16.852 20.945 16.8919C20.8658 16.9123 20.7437 16.9327 20.6252 16.9327C20.3844 16.9327 20.0563 16.9393 19.8356 16.8859C19.779 17.0867 19.6172 17.6101 19.2968 18.2639C19.3129 18.2561 19.3288 18.2495 19.3431 18.2418C19.7382 18.0343 20.4976 17.7036 20.5296 17.6892L21.1295 17.4286L20.8223 18.0062C20.8151 18.0188 20.1564 19.2577 19.7531 20.0666C19.3523 20.8679 18.6013 21.0422 18.1517 21.1457C18.084 21.1616 18.0197 21.1765 17.9675 21.1908C17.6448 21.2815 16.9916 21.4373 16.4156 21.576C16.4088 21.5776 16.4018 21.5794 16.3948 21.5803C16.0258 21.8087 15.6359 22.0013 15.2303 22.1555C13.6817 22.742 12.0496 22.7092 10.5698 22.1653C10.3295 22.1963 10.0134 22.2341 9.59255 22.282C9.41666 22.302 9.23978 22.3123 9.06275 22.3128C7.65275 22.3128 6.90551 21.5969 6.36011 20.8958C5.77631 20.1451 5.06207 19.0308 5.03171 18.9841L4.61771 18.3382L5.31755 18.6529C5.65259 18.8038 6.64883 19.2649 6.93383 19.3969C6.95687 19.3904 6.97943 19.3837 7.00211 19.3771C6.52835 18.7015 6.13979 17.9311 5.86523 17.0776C5.63195 17.1479 5.27243 17.2024 4.99295 17.2024C4.89083 17.2024 4.79927 17.1948 4.72895 17.1782C4.57259 17.1425 4.39427 16.9918 4.15163 16.1371C4.01075 15.6409 3.90563 15.0991 3.87491 14.8204C3.81431 14.276 3.82535 13.9844 4.05155 13.7962C4.18799 13.6822 4.64795 13.4406 4.74323 13.3913L4.72283 13.2233C3.26123 14.0821 2.38523 14.8411 2.36771 14.8566L1.32251 15.7739L2.06711 14.5996C2.65631 13.669 3.33707 12.9167 3.96335 12.3372C3.93743 12.3268 3.91331 12.3163 3.88787 12.306L3.74987 12.2437C3.7019 12.2216 3.65441 12.1985 3.60743 12.1744L3.55835 12.1492L3.52703 12.1006C3.50939 12.0742 3.50183 12.0593 3.49019 12.0396L3.45935 11.9851C3.44015 11.9483 3.42131 11.9124 3.40415 11.8762C3.36947 11.803 3.33815 11.7298 3.30971 11.6561C3.25262 11.5099 3.20279 11.3609 3.16043 11.2098C3.0787 10.91 3.02112 10.6041 2.98823 10.2952C2.95428 9.98695 2.94505 9.67652 2.96063 9.36684C2.96903 9.21216 2.98391 9.0576 3.00527 8.904C3.01631 8.82696 3.02783 8.74992 3.04331 8.67336C3.05927 8.59536 3.07475 8.52264 3.09839 8.43732L3.11483 8.37732L3.15779 8.34372C3.40163 8.15208 3.66455 8.00748 3.93203 7.87932C4.15151 7.77695 4.37532 7.68415 4.60283 7.60116C5.23463 5.84796 6.32087 4.2936 7.74839 3.21C9.22439 2.09016 10.9598 1.49808 12.7676 1.49808C14.5753 1.49808 16.3109 2.09016 17.7866 3.21012C19.2143 4.2936 20.3005 5.8482 20.9318 7.60092C21.1595 7.6839 21.3835 7.77679 21.6031 7.87932C21.8705 8.0076 22.1335 8.1522 22.3772 8.34372L22.4202 8.37744L22.4368 8.43744C22.4609 8.52276 22.4764 8.59548 22.4917 8.67348C22.5073 8.75004 22.5193 8.82708 22.5298 8.90412C22.5514 9.05748 22.5667 9.21204 22.5742 9.36672ZM21.299 14.4722C21.3475 13.9352 21.3053 13.8197 21.2507 13.7756C21.1962 13.7299 21.0119 13.6255 20.8325 13.5281L20.537 15.5969C20.5342 15.6169 20.5272 15.6362 20.5166 15.6534C20.506 15.6706 20.492 15.6855 20.4754 15.6971L20.0527 15.9928C20.0191 16.162 20.0071 16.242 19.9658 16.4076C20.2074 16.4638 20.6035 16.5072 20.7923 16.4708C20.9636 16.2851 21.2402 15.1304 21.299 14.4722ZM20.7505 12.5963L21.067 11.3963C20.608 11.2922 19.7627 11.1182 18.6115 10.9554C18.0236 11.3779 17.3803 11.7158 16.7481 11.9855C18.6826 12.1738 20.104 12.4538 20.7505 12.5963ZM20.253 15.4915L20.6129 12.9749C20.4528 12.9402 20.2481 12.8974 20.0036 12.8506L19.6784 15.1277C19.6724 15.1679 19.6504 15.2047 19.6174 15.2279L18.3979 16.0807C18.3686 16.1012 18.3328 16.1104 18.2972 16.1065L14.6225 15.6889C14.5938 15.6857 14.5667 15.6743 14.5445 15.6559C14.5223 15.6375 14.5059 15.613 14.4974 15.5855L13.8355 13.4064C13.6583 13.3606 13.2031 13.2544 12.8048 13.2544C12.4048 13.2544 11.9502 13.3606 11.773 13.4064L11.1109 15.5856C11.1032 15.6105 11.0891 15.6329 11.07 15.6506C11.0508 15.6682 11.0274 15.6805 11.002 15.6862L7.32707 16.5038C7.31642 16.5061 7.30556 16.5073 7.29467 16.5073C7.26491 16.5073 7.23515 16.4984 7.21043 16.4807L5.99147 15.6272C5.97451 15.6154 5.96022 15.6001 5.94952 15.5824C5.93881 15.5647 5.93193 15.5449 5.92931 15.5244L5.60075 12.8592C5.46431 12.8857 5.34107 12.911 5.23091 12.9341C5.15291 12.977 5.07575 13.02 4.99991 13.063L5.34863 15.887L7.12019 17.1281L11.5896 16.1338L12.2494 13.9601C12.2573 13.9335 12.2725 13.9097 12.2934 13.8913C12.3142 13.873 12.3398 13.861 12.3672 13.8565C12.5345 13.8296 12.6807 13.8158 12.8047 13.8158C12.9271 13.8158 13.0742 13.8296 13.241 13.8565C13.2971 13.8653 13.3427 13.9055 13.3588 13.9601L14.0356 16.1876L18.5299 16.6987L20.253 15.4915ZM19.3952 15.0227L19.7132 12.796C18.8162 12.6328 17.5044 12.4352 15.8976 12.3119C14.4469 12.8123 13.2319 12.9611 13.1587 12.9661L13.074 12.9721C13.5367 13.012 13.9727 13.1363 13.9945 13.1428C14.0425 13.1572 14.08 13.1939 14.0948 13.242L14.7524 15.4068L18.2749 15.8069L19.3952 15.0227ZM19.64 16.2817L19.4908 16.3861L19.0891 16.6681L18.6538 16.9729C18.6241 16.9933 18.5878 17.0027 18.5524 16.9987L14.2213 16.5062L13.906 16.4704C13.8773 16.4671 13.8503 16.4555 13.8282 16.4371C13.8061 16.4186 13.7899 16.3941 13.7815 16.3666L13.1036 14.1346C13.0047 14.1202 12.9049 14.1124 12.8049 14.1113C12.719 14.1113 12.619 14.1191 12.5056 14.1346L11.8474 16.3021C11.8397 16.327 11.8256 16.3495 11.8065 16.3671C11.7873 16.3848 11.7638 16.3971 11.7384 16.4027L7.12139 17.4308C7.11071 17.4329 7.09986 17.434 7.08899 17.434C7.05935 17.434 7.02959 17.4252 7.00415 17.4071L6.83651 17.2903L6.33407 16.9388V16.9376L6.13103 16.7958C6.14543 16.8414 6.16175 16.886 6.17795 16.9306L6.17735 16.9312C6.21647 17.0472 6.60551 18.1666 7.39619 19.262C8.00247 19.0828 8.6069 18.8973 9.20939 18.7057C9.68639 17.9705 10.3655 17.2414 10.8482 17.2162C10.9332 17.212 11.0184 17.2098 11.1035 17.2097C11.3396 17.2097 11.5652 17.2266 11.7743 17.2514C11.5967 17.0902 11.5602 16.9008 11.5344 16.8172C11.5344 16.8172 12.1502 17.2987 12.9343 17.1982C13.7186 17.0969 14.2056 16.645 14.2056 16.645C14.2056 16.645 14.2032 16.9747 13.8616 17.23C14.5187 17.0312 14.7905 16.9631 14.9765 16.9631C15.1817 16.9631 15.283 17.0489 15.3716 17.1245C15.3887 17.1382 15.4058 17.1529 15.4255 17.169C15.9307 17.5668 16.5382 18.0494 16.716 18.1909C16.9218 18.215 17.5744 18.2893 17.9856 18.3274C18.2226 18.3487 18.4368 18.367 18.6463 18.367C18.7141 18.367 18.7775 18.3641 18.8374 18.3601C19.1093 17.8415 19.3537 17.2535 19.561 16.5901C19.5888 16.488 19.6159 16.385 19.64 16.2817ZM18.042 10.7976C18.0408 10.797 18.0398 10.7964 18.0386 10.7964C17.6907 10.7702 17.3425 10.7471 16.9942 10.7272C16.5101 10.6998 16.0258 10.6761 15.5414 10.6561C15.4871 10.736 15.4314 10.8148 15.3742 10.8925C15.1106 11.2493 14.5878 11.9035 13.9174 12.4583C14.8663 12.2882 16.512 11.8673 17.9358 10.8739C17.9714 10.8487 18.0068 10.8223 18.042 10.7976ZM14.8663 10.896C14.9064 10.846 14.9437 10.7976 14.9772 10.7536C14.6326 10.7885 14.2897 10.8384 13.9494 10.9032C12.7998 11.1184 11.7383 11.4761 10.8551 11.8426C11.5115 11.8105 12.1686 11.7944 12.8258 11.7942C13.2413 11.7942 13.6452 11.8014 14.038 11.8129C14.3759 11.4881 14.661 11.1557 14.8663 10.896ZM15.2476 21.7468C14.7689 21.7115 14.3336 21.5124 13.9823 21.1645C13.9645 21.1464 13.9468 21.1283 13.929 21.1102C13.7576 21.1447 13.5843 21.1697 13.4101 21.1849C13.3359 21.1877 13.2654 21.1942 13.1879 21.1942L13.0727 21.1954L13.0289 21.1942C12.5616 21.8893 11.5238 22.0247 11.4764 22.0308C11.4336 22.0356 11.3984 22.0416 11.3498 22.0505C11.9282 22.209 12.5186 22.2778 13.1009 22.2386C13.6847 22.1996 14.4431 22.073 15.2476 21.7466V21.7468ZM13.398 20.9536C13.5112 20.9442 13.6241 20.9308 13.7364 20.9135C13.6074 20.7792 13.481 20.6425 13.3572 20.5034C13.3072 20.6185 13.2408 20.7698 13.1532 20.9647H13.1789C13.2488 20.9647 13.3254 20.957 13.398 20.9536ZM13.0416 12.5954C13.2363 12.4766 13.4227 12.3448 13.5995 12.2008C13.3457 12.1964 13.0883 12.1932 12.8258 12.1932C11.7482 12.1932 10.7418 12.2372 9.82943 12.306C8.91419 12.7534 8.35463 13.1214 8.34143 13.1308L7.46267 13.717L8.06627 12.8507C8.16464 12.7093 8.26951 12.5725 8.38055 12.4408C7.36691 12.554 6.52283 12.6883 5.89211 12.8044L6.21503 15.4228L7.32623 16.201L10.8535 15.4166L11.5138 13.2414C11.5247 13.206 11.5485 13.1759 11.5805 13.1572C11.5908 13.1505 11.6021 13.1455 11.6139 13.1423C11.6343 13.1368 11.987 13.0361 12.3937 12.9865L13.0416 12.5954ZM13.4472 10.5983C13.2016 10.5944 12.9557 10.5923 12.7102 10.5917H12.7097C12.3493 10.5923 11.9882 10.5961 11.6267 10.6033L10.9603 10.919C10.9597 10.9196 10.9559 10.9214 10.9509 10.9242C10.8507 10.973 9.97571 11.4145 9.15251 12.202C9.89051 11.814 10.9751 11.3072 12.2513 10.9142C12.6455 10.7929 13.0445 10.6875 13.4472 10.5983ZM8.78975 11.9954C9.13535 11.6526 9.49175 11.3698 9.80663 11.1486C8.59331 11.4304 7.47623 11.8441 6.49787 12.2942C7.25865 12.1716 8.02296 12.072 8.78975 11.9954ZM9.01919 10.9379C9.43356 10.8219 9.85246 10.7228 10.2749 10.6408C9.65855 10.6632 9.04187 10.6919 8.42615 10.7266C8.06831 10.7464 7.71227 10.7706 7.35623 10.7975C7.17859 10.8104 7.00116 10.8261 6.82403 10.8448C6.77339 10.8497 6.72383 10.8552 6.67331 10.8618C6.20891 11.1396 4.42751 12.2579 3.20471 13.72C4.39307 12.8942 6.46307 11.6533 9.01919 10.9379ZM5.73995 16.6988C5.71677 16.6247 5.69476 16.5502 5.67395 16.4754L5.12531 16.0914C5.10827 16.0796 5.09391 16.0643 5.08315 16.0466C5.0724 16.0288 5.06551 16.009 5.06291 15.9884L4.79555 13.8148C4.59743 13.921 4.36859 14.0513 4.30739 14.1025C4.25459 14.1461 4.21439 14.2578 4.27175 14.7757C4.34279 15.4145 4.66631 16.6181 4.84019 16.7929C5.04935 16.8299 5.51279 16.7656 5.73995 16.6988ZM5.33447 11.2394C5.02463 11.2994 4.77191 11.3533 4.58495 11.3957L4.67315 11.7281C4.88745 11.557 5.10804 11.3941 5.33447 11.2394Z" fill="#2D3136"/>
</svg>
