<svg width="24" height="24" viewBox="0 0 24 24" fill="none" xmlns="http://www.w3.org/2000/svg">
<path d="M15.9694 13.5604C16.2655 14.6244 15.6499 15.7305 14.6137 15.9966L14.0642 16.1376C14.0219 16.4184 14 16.7065 14 17C14 17.3072 14.024 17.6083 14.0702 17.9012L14.5776 18.028C15.6241 18.2896 16.2462 19.407 15.9415 20.4781L15.7663 21.0942C16.1794 21.4706 16.6501 21.7762 17.1624 21.9936L17.6264 21.4873C18.3681 20.6781 19.6119 20.6783 20.3535 21.4878L20.8226 22C21.3338 21.785 21.8041 21.4823 22.2174 21.1091L22.0311 20.4397C21.735 19.3756 22.3506 18.2695 23.3868 18.0035L23.9358 17.8625C23.9781 17.5817 24 17.2936 24 17C24 16.6929 23.976 16.3917 23.9298 16.0987L23.4228 15.972C22.3763 15.7105 21.7543 14.5931 22.059 13.5219L22.234 12.9063C21.821 12.5297 21.3502 12.2241 20.8379 12.0066L20.3741 12.5127C19.6324 13.322 18.3885 13.3217 17.647 12.5122L17.1778 12C16.6666 12.2149 16.1962 12.5175 15.783 12.8907L15.9694 13.5604ZM19 18.464C18.2469 18.464 17.6364 17.8085 17.6364 17C17.6364 16.1916 18.2469 15.5361 19 15.5361C19.7531 15.5361 20.3636 16.1916 20.3636 17C20.3636 17.8085 19.7531 18.464 19 18.464Z" fill="#64748B"/>
<path fill-rule="evenodd" clip-rule="evenodd" d="M3.23444 7.31819V9.09305H6.35162V17.5H8.47946V9.09305H11.5967V7.31819H3.23444ZM17.9851 9.3118C18.2868 9.53386 18.4574 9.84542 18.4972 10.2465H19.793C20.0296 10.1243 20.2863 10.0475 20.5493 10.019C20.5068 9.5056 20.3481 9.04781 20.0732 8.64561C19.7583 8.1849 19.3175 7.82529 18.7508 7.56677C18.1873 7.30825 17.5278 7.17899 16.7721 7.17899C16.0297 7.17899 15.3668 7.30825 14.7834 7.56677C14.2001 7.82529 13.7411 8.1849 13.4063 8.64561C13.0749 9.10631 12.9108 9.64489 12.9141 10.2614C12.9108 11.0137 13.1577 11.612 13.6549 12.0561C13.7246 12.1184 13.7979 12.1784 13.8747 12.236C13.9942 11.929 14.1846 11.6479 14.4384 11.4187C14.7181 11.1661 15.0185 10.9351 15.337 10.7294C15.2995 10.6866 15.2658 10.6417 15.2359 10.5945C15.153 10.4586 15.1149 10.2995 15.1215 10.1172C15.1215 9.89845 15.1845 9.7029 15.3104 9.53055C15.4397 9.3582 15.6253 9.22397 15.8672 9.12785C16.1092 9.02842 16.4058 8.9787 16.7572 8.9787C17.2742 8.9787 17.6835 9.08973 17.9851 9.3118ZM12.668 14.6665C12.8043 14.5256 12.96 14.4031 13.1312 14.3033H12.6457C12.6485 14.4277 12.6559 14.5488 12.668 14.6665Z" fill="#2563EB"/>
</svg>
