<svg width="24" height="25" viewBox="0 0 24 25" fill="none" xmlns="http://www.w3.org/2000/svg">
<path d="M12 6.50002C8.69162 6.50002 6 9.19163 6 12.5C6 15.8084 8.69162 18.5 12 18.5C15.3084 18.5 18 15.8084 18 12.5C18 9.19163 15.3084 6.50002 12 6.50002ZM12 15.605C10.2849 15.605 8.89497 14.2151 8.89497 12.5C8.89497 10.7849 10.2849 9.39499 12 9.39499C13.7151 9.39499 15.105 10.7849 15.105 12.5C15.105 14.2151 13.7151 15.605 12 15.605Z" fill="#E4E4E7"/>
<path fill-rule="evenodd" clip-rule="evenodd" d="M12.5367 4.92476V2.49843C17.8105 2.78039 22 7.14658 22 12.4906C22 17.8345 17.8105 22.1995 12.5367 22.4827V20.0564C16.4672 19.7756 19.5797 16.4913 19.5797 12.4906C19.5797 8.48983 16.4672 5.20551 12.5367 4.92476ZM6.26091 17.4521C5.21898 16.2493 4.54735 14.7172 4.42754 13.0351H2C2.12585 15.3888 3.06734 17.5247 4.54251 19.1693L6.2597 17.4521H6.26091ZM11.4476 22.4827V20.0564C9.76431 19.9366 8.23227 19.2661 7.02939 18.223L5.3122 19.9402C6.95799 21.4166 9.09389 22.3568 11.4464 22.4827H11.4476Z" fill="url(#paint0_linear_3372_2322)"/>
<defs>
<linearGradient id="paint0_linear_3372_2322" x1="12.9289" y1="3.90354" x2="3.09285" y2="13.7396" gradientUnits="userSpaceOnUse">
<stop stop-color="#0096FF"/>
<stop offset="1" stop-color="#FF1E56"/>
</linearGradient>
</defs>
</svg>
