<svg width="24" height="24" viewBox="0 0 24 24" fill="none" xmlns="http://www.w3.org/2000/svg">
<path fill-rule="evenodd" clip-rule="evenodd" d="M16.2485 10.972V18.0813L20.8622 15.7175L20.8799 18.3964L12.9214 22.5377L12.9124 12.6881L16.2485 10.972Z" fill="#9575CD"/>
<path fill-rule="evenodd" clip-rule="evenodd" d="M7.22794 15.863L6.22944 10.1773L3.12006 8.65882V18.547L5.16976 19.5977V13.6382L6.29009 20.0744L8.11388 21.0015L9.28638 15.6512V21.505L11.3446 22.5377V12.6582L8.21797 11.1485L7.22794 15.863Z" fill="#F9A825"/>
<path fill-rule="evenodd" clip-rule="evenodd" d="M10.8569 1.46232L8.51088 3.56352C8.51088 3.56352 13.0882 5.94696 13.6445 6.22872C14.2006 6.51048 14.9921 7.05192 14.1365 7.854C13.2809 8.6556 12.3396 8.54736 11.6981 8.2224C9.90091 7.306 8.10427 6.38856 6.30816 5.47008L3.89136 7.55016C3.89136 7.55016 8.55384 9.95568 9.324 10.367C10.0939 10.7789 12.96 11.7972 15.6768 9.65208C18.3931 7.50696 18.0082 6.72696 18.0082 6.57528C18.0082 6.4236 17.9441 5.622 17.4734 5.12352C17.003 4.62528 15.6341 3.91008 15.0566 3.60672C14.479 3.30336 10.8574 1.46232 10.8574 1.46232H10.8569Z" fill="#EC407A"/>
</svg>
