<svg width="24" height="25" viewBox="0 0 24 25" fill="none" xmlns="http://www.w3.org/2000/svg">
<mask id="mask0_3372_2088" style="mask-type:luminance" maskUnits="userSpaceOnUse" x="3" y="3" width="18" height="19">
<path d="M3 3.5H21V21.5H3V3.5Z" fill="white"/>
</mask>
<g mask="url(#mask0_3372_2088)">
<path d="M14.4481 19.844L19.7041 5.3C19.7761 5.048 19.6321 4.868 19.3801 4.868L15.2761 5.264C15.0241 5.3 14.7361 5.516 14.6281 5.768L9.80408 19.664C9.69608 19.916 9.84008 20.132 10.1281 20.132H14.1241C14.2681 20.132 14.3761 20.024 14.4481 19.88V19.844Z" fill="#1D4ED8"/>
<g filter="url(#filter0_f_3372_2088)">
<path d="M13.8721 19.88L11.6761 13.616L12.0001 13.4L14.2321 19.844L13.8721 19.88Z" fill="#EBEBEB"/>
</g>
<path d="M4.62003 4.868L8.72403 5.264C8.97603 5.3 9.26403 5.516 9.37203 5.768L14.304 19.88C14.34 20.024 14.268 20.132 14.16 20.132H10.128C9.84003 20.132 9.58803 19.916 9.48003 19.664L4.29603 5.3C4.22403 5.048 4.36803 4.868 4.62003 4.868Z" fill="#2563EB"/>
</g>
<defs>
<filter id="filter0_f_3372_2088" x="-1.12394" y="0.600006" width="28.156" height="32.08" filterUnits="userSpaceOnUse" color-interpolation-filters="sRGB">
<feFlood flood-opacity="0" result="BackgroundImageFix"/>
<feBlend mode="normal" in="SourceGraphic" in2="BackgroundImageFix" result="shape"/>
<feGaussianBlur stdDeviation="6.4" result="effect1_foregroundBlur_3372_2088"/>
</filter>
</defs>
</svg>
