<svg width="24" height="24" viewBox="0 0 24 24" fill="none" xmlns="http://www.w3.org/2000/svg">
<path d="M10.8605 21.7058C10.3174 21.7058 9.87367 21.2723 9.86088 20.7294L9.55233 7.63494C9.51072 5.86924 7.64077 4.71585 6.62363 6.15975C5.94913 7.129 5.61188 8.334 5.61188 9.77475C5.61188 10.1032 5.62888 10.3729 5.66288 10.5836C5.70463 10.7859 5.74663 10.9501 5.78888 11.0764C5.83113 11.1944 5.86926 11.2871 5.90326 11.3546C5.95847 11.4439 5.88073 11.5319 5.7758 11.529C5.40622 11.5186 5.0737 11.4775 4.77826 11.4056C4.43251 11.3126 4.14163 11.1692 3.90563 10.9755C3.67813 10.7822 3.50126 10.5254 3.37501 10.2049C3.25676 9.88487 3.19763 9.489 3.19763 9.01725C3.19763 8.44425 3.31963 7.87975 3.56363 7.32375C3.81638 6.768 4.15763 6.24137 4.58738 5.74388C5.02563 5.24713 5.53563 4.788 6.11738 4.3665C6.70738 3.94525 7.33501 3.58288 8.00026 3.27938C8.67401 2.96763 9.37326 2.72763 10.098 2.55938C10.831 2.38188 11.5599 2.29313 12.2846 2.29313C12.4784 2.29313 12.6554 2.29738 12.8156 2.30588C13.1037 2.32 13.3235 2.56116 13.3276 2.84952L13.5073 15.4012C13.5154 15.9616 14.298 16.0866 14.4801 15.5566L18.8793 2.75624C18.9487 2.55432 19.1386 2.41875 19.3521 2.41875H20.0824C20.4311 2.41875 20.6727 2.76669 20.5509 3.09341L13.8544 21.0554C13.7085 21.4467 13.3348 21.7061 12.9173 21.7061L10.8605 21.7058Z" fill="#9575CD"/>
</svg>
