<svg width="24" height="24" viewBox="0 0 24 24" fill="none" xmlns="http://www.w3.org/2000/svg">
<g clip-path="url(#clip0_3372_2440)">
<path d="M12 4.92424C11.0708 4.92423 10.1507 5.10724 9.29223 5.46283C8.43375 5.81842 7.65372 6.33961 6.99667 6.99666C6.33963 7.65371 5.81843 8.43374 5.46284 9.29221C5.10726 10.1507 4.92424 11.0708 4.92426 12C4.92426 12.9292 5.10728 13.8493 5.46287 14.7078C5.81846 15.5662 6.33966 16.3463 6.9967 17.0033C7.65375 17.6603 8.43378 18.1815 9.29225 18.5371C10.1507 18.8927 11.0708 19.0757 12 19.0757C13.8766 19.0757 15.6763 18.3302 17.0033 17.0033C18.3302 15.6763 19.0757 13.8766 19.0757 12C19.0757 11.0708 18.8927 10.1507 18.5371 9.29223C18.1815 8.43376 17.6603 7.65373 17.0033 6.99669C16.3463 6.33964 15.5662 5.81844 14.7078 5.46285C13.8493 5.10726 12.9292 4.92424 12 4.92424ZM12.0009 6.9308C13.3451 6.9308 14.6342 7.46477 15.5847 8.41525C16.5352 9.36573 17.0691 10.6549 17.0691 11.999C17.0691 13.3432 16.5352 14.6323 15.5847 15.5828C14.6342 16.5333 13.3451 17.0673 12.0009 17.0673C10.6567 17.0673 9.36759 16.5333 8.41711 15.5828C7.46663 14.6323 6.93266 13.3432 6.93266 11.999C6.93266 10.6549 7.46663 9.36573 8.41711 8.41525C9.36759 7.46477 10.6567 6.9308 12.0009 6.9308Z" fill="#60A5FA"/>
<path d="M3.60063 15.4477L0.977051 18.0712L3.60063 20.6948V19.0751H11.9999V17.0673H3.60063V15.4477ZM5.92702 0.976913L3.30345 3.60049H4.92312V11.9997H6.93099V3.60049H8.55064L5.92702 0.976913ZM20.3991 3.30429V4.92396H11.9999V6.93178H20.3991V8.55146L23.0227 5.92788L20.3991 3.30429ZM17.0656 11.9999V20.3991H15.446L18.0696 23.0227L20.6931 20.3991H19.0735V11.9999H17.0656Z" fill="#60A5FA"/>
</g>
<defs>
<clipPath id="clip0_3372_2440">
<rect width="24" height="24" fill="white"/>
</clipPath>
</defs>
</svg>
