<svg width="24" height="25" viewBox="0 0 24 25" fill="none" xmlns="http://www.w3.org/2000/svg">
<path d="M20.0807 6.16759L11.9723 21.2875C11.8049 21.5997 11.3748 21.6015 11.2049 21.2909L2.93579 6.16905C2.75067 5.83052 3.02827 5.42046 3.39614 5.48903L11.5132 7.00202C11.5649 7.01167 11.618 7.01158 11.6697 7.00174L19.617 5.4912C19.9837 5.42151 20.2626 5.82839 20.0807 6.16759Z" fill="#A855F7"/>
<path d="M15.3798 3.50448L9.37934 4.73057C9.28072 4.75072 9.2077 4.83788 9.20175 4.94248L8.83264 11.4433C8.82396 11.5965 8.95881 11.7153 9.10212 11.6808L10.7727 11.2788C10.929 11.2412 11.0703 11.3847 11.0381 11.5487L10.5418 14.0832C10.5084 14.2538 10.662 14.3996 10.8217 14.349L11.8536 14.0221C12.0135 13.9715 12.1672 14.1177 12.1334 14.2885L11.3446 18.2696C11.2953 18.5187 11.6129 18.6544 11.7454 18.4409L11.8339 18.2983L16.7233 8.12277C16.8052 7.9524 16.664 7.75813 16.4846 7.79424L14.765 8.14033C14.6034 8.17282 14.4659 8.01588 14.5115 7.85101L15.6339 3.79364C15.6795 3.62849 15.5415 3.47142 15.3798 3.50448Z" fill="#FBBF24"/>
</svg>
