<svg width="24" height="24" viewBox="0 0 24 24" fill="none" xmlns="http://www.w3.org/2000/svg">
<path d="M12 22.7771C17.9379 22.7771 22.7515 17.952 22.7515 12C22.7515 6.04797 17.9379 1.2229 12 1.2229C6.06217 1.2229 1.2486 6.04797 1.2486 12C1.2486 17.952 6.06217 22.7771 12 22.7771Z" fill="white"/>
<path d="M10.9183 22.7456C8.88906 22.5137 7.10237 21.8013 5.47157 20.574C4.17312 19.5967 2.95574 18.0953 2.26717 16.6219L2.04249 16.1411L3.5106 14.6307C4.31803 13.7998 5.08329 13.0235 5.21106 12.9054L5.44346 12.6907L6.15774 13.3417C7.10032 14.2006 7.6902 14.6716 8.50346 15.2145C9.35717 15.7845 9.86729 16.0495 10.5536 16.2797C11.8577 16.7172 12.9592 16.6229 14.3297 15.9566C15.3485 15.4611 16.8668 14.339 18.1113 13.1615L18.6187 12.6815L20.2842 14.3505C21.2002 15.2684 21.9497 16.0597 21.9497 16.1089C21.9497 16.1582 21.8583 16.3903 21.7467 16.6247C20.6953 18.8319 18.9204 20.6248 16.7297 21.692C15.7164 22.1857 14.7905 22.4817 13.6689 22.6706C13.0884 22.7684 11.4972 22.8118 10.9183 22.7456H10.9183ZM11.2783 15.6607C10.2808 15.4426 9.03397 14.7215 7.6306 13.5512C6.88769 12.9317 6.10974 12.1896 6.10974 12.1005C6.10974 12.028 7.06929 11.1209 7.80689 10.4961C8.96849 9.51215 9.91752 8.92188 10.8785 8.5856C11.2371 8.46015 11.3499 8.44566 11.9726 8.44566C12.595 8.44566 12.7082 8.46015 13.0661 8.58542C14.3583 9.03759 15.9621 10.141 17.5912 11.6986C17.8104 11.9081 17.9897 12.1007 17.9897 12.1265C17.9897 12.1895 16.7483 13.3155 16.1383 13.8057C15.0296 14.6968 13.7501 15.4254 12.9287 15.6333C12.4563 15.7529 11.7535 15.7645 11.2783 15.6607V15.6607ZM13.4196 14.4906C14.2311 14.0791 14.4739 13.9323 14.5498 13.8075C14.6387 13.6613 14.6465 13.5249 14.6465 12.1021C14.6465 10.6753 14.6389 10.5432 14.5491 10.3954C14.4725 10.2694 14.2287 10.1215 13.4049 9.70099C12.3664 9.17082 12.3553 9.16664 11.9871 9.16515C11.6191 9.16366 11.6081 9.16767 10.6757 9.64492C10.0974 9.94094 9.671 10.1937 9.56826 10.3015L9.40112 10.4767L9.40129 12.0368C9.40146 13.4782 9.40894 13.6093 9.49911 13.7575C9.57346 13.8797 9.79546 14.0211 10.4299 14.3504C11.5813 14.9479 11.7399 15.0112 12.0893 15.0131C12.3647 15.0146 12.46 14.9772 13.4196 14.4906ZM11.084 13.781C10.666 13.5629 10.2889 13.3492 10.246 13.3061C10.1785 13.2385 10.1729 13.0628 10.204 12.0078L10.24 10.7878L11.0336 10.3752C11.4962 10.1347 11.8899 9.9627 11.9776 9.9627C12.1463 9.9627 13.6129 10.679 13.7732 10.8397C13.8692 10.936 13.8754 11.0134 13.8754 12.1272V13.3123L13.6777 13.4373C13.569 13.5062 13.1991 13.7037 12.8556 13.8762C12.3968 14.1067 12.1799 14.1882 12.0376 14.1838C11.9045 14.1795 11.6064 14.0536 11.084 13.781ZM1.68574 15.0892C1.60146 14.8678 1.4462 14.1884 1.34477 13.5971C1.20734 12.796 1.21963 11.1148 1.369 10.272C1.50672 9.49519 1.60992 9.09051 1.68974 9.01422C1.73386 8.97206 2.14557 9.36293 3.2862 10.5298C4.13157 11.3946 4.82346 12.1138 4.82369 12.1282C4.82392 12.1425 4.131 12.8488 3.2838 13.6977L1.74346 15.241L1.68574 15.0892ZM20.748 13.6657C19.9383 12.8364 19.2759 12.1376 19.2759 12.1129C19.2759 12.0228 22.2345 9.03358 22.3101 9.04727C22.3955 9.06273 22.5009 9.43522 22.6516 10.2536C22.786 10.9839 22.7855 13.0163 22.6506 13.7517C22.5152 14.4898 22.3444 15.1322 22.2776 15.1545C22.246 15.165 21.5577 14.4951 20.748 13.6657ZM3.70003 9.7892C2.16329 8.24828 1.9886 8.05639 2.02266 7.94625C2.09894 7.69949 2.49866 6.88492 2.74066 6.48299C4.38683 3.74894 7.07392 1.91159 10.2504 1.34808C11.1207 1.19365 12.8333 1.17945 13.6424 1.3199C16.0325 1.73483 17.9988 2.74231 19.6373 4.3915C20.5277 5.28774 21.2209 6.26785 21.7499 7.37866C22.1032 8.12043 22.2489 7.86835 20.354 9.79499C19.4406 10.7237 18.6748 11.491 18.6521 11.5001C18.6295 11.5092 18.3267 11.257 17.9793 10.9395C16.1194 9.24007 14.4444 8.1481 13.1155 7.76851C12.6715 7.64163 12.5825 7.6335 11.8555 7.65343C11.1431 7.67291 11.0311 7.68935 10.6004 7.83741C9.2418 8.30436 7.7618 9.33286 6.00283 11.0325C5.7314 11.2947 5.4882 11.5093 5.46243 11.5093C5.43666 11.5093 4.64363 10.7353 3.7002 9.78926L3.70003 9.7892Z" fill="#4255E5"/>
</svg>
