<svg width="24" height="24" viewBox="0 0 24 24" fill="none" xmlns="http://www.w3.org/2000/svg">
<path d="M23.09 4.6066C23.09 4.6066 19.5922 6.654 19.5068 6.6824C19.4214 6.7392 19.3364 6.7964 19.2794 6.8532C18.995 7.1374 18.9098 7.5352 18.995 7.9052C19.052 8.0756 19.1372 8.275 19.2794 8.4172C19.4216 8.5592 19.5922 8.6446 19.7912 8.7016C20.1608 8.7868 20.5592 8.7016 20.8436 8.4172C20.9288 8.3318 20.9854 8.2466 21.0138 8.1612L21.0424 8.0758L21.5544 7.1374L23.09 4.6066ZM15.2696 6.455C9.78141 6.455 8.87161 9.071 8.87161 12.313C8.87161 13.0806 8.98541 13.9054 8.47361 14.7014C7.70561 15.8958 6.68221 15.867 6.42641 15.867C6.08521 15.867 4.83401 15.6684 4.77721 15.2988H4.97601C6.31241 15.2988 7.30761 14.218 7.30761 12.7678V12.2558H6.17041C5.34581 12.2558 4.60641 12.6256 4.12281 13.2798C3.63941 12.6256 2.90021 12.2558 2.07561 12.2558H0.909607V12.7678C0.909607 14.1898 2.04721 15.3268 3.46901 15.3268H3.83861C3.83861 16.1516 4.97601 19.3932 13.3646 19.3932C16.635 19.3932 21.4976 18.8246 21.4976 12.6538C21.4976 11.488 21.128 10.4078 20.5594 9.4978C20.3602 9.5546 20.161 9.6114 19.9334 9.6114C19.6979 9.61235 19.4645 9.56666 19.2468 9.47697C19.029 9.38728 18.8312 9.25536 18.6646 9.08882C18.4981 8.92228 18.3662 8.72442 18.2766 8.50665C18.1869 8.28888 18.1412 8.0555 18.1422 7.82C18.1422 7.621 18.1704 7.4218 18.2272 7.2228C17.3742 6.6824 16.5212 6.4552 15.2698 6.4552L15.2696 6.455Z" fill="#60A5FA"/>
</svg>
