<svg width="24" height="25" viewBox="0 0 24 25" fill="none" xmlns="http://www.w3.org/2000/svg">
<path fill-rule="evenodd" clip-rule="evenodd" d="M11.8993 16.1212C11.8993 16.4419 12.232 16.6424 12.4982 16.482L15.1042 14.912C15.2277 14.8376 15.3038 14.7 15.3038 14.5512V11.4112C15.3038 11.0905 14.9711 10.89 14.7049 11.0504L12.0989 12.6204C11.9753 12.6948 11.8993 12.8323 11.8993 12.9812V16.1212ZM14.3055 10.3287C14.5718 10.1683 14.5718 9.76738 14.3055 9.607L11.6996 8.03702C11.576 7.96259 11.4238 7.96259 11.3003 8.03702L8.65125 9.63294C8.38505 9.79332 8.38505 10.1943 8.65125 10.3546L11.2573 11.9246C11.3808 11.999 11.533 11.999 11.6565 11.9246L14.3055 10.3287ZM8.295 11.1023C8.0288 10.9419 7.69604 11.1423 7.69604 11.4631V14.5512C7.69604 14.7 7.77216 14.8376 7.89569 14.912L10.5017 16.482C10.7678 16.6424 11.1007 16.4419 11.1007 16.1212V13.0331C11.1007 12.8842 11.0245 12.7467 10.901 12.6722L8.295 11.1023Z" fill="#2563EB"/>
<path d="M5.28175 8.27267L6.47341 8.99059C6.59695 9.06502 6.74917 9.06502 6.87271 8.99059L10.901 6.56369C11.0247 6.48926 11.1008 6.35171 11.1008 6.20285V4.767C11.1008 4.44625 10.768 4.24578 10.5018 4.40615L5.28175 7.55098C5.01554 7.71136 5.01554 8.1123 5.28175 8.27267Z" fill="#93C5FD"/>
<path d="M11.8994 4.76698V6.20282C11.8994 6.35168 11.9754 6.48923 12.099 6.56366L16.1274 8.99057C16.251 9.065 16.4031 9.065 16.5267 8.99057L17.7184 8.27265C17.9846 8.11228 17.9846 7.71134 17.7184 7.55096L12.4983 4.40613C12.2321 4.24576 11.8994 4.44623 11.8994 4.76698Z" fill="#93C5FD"/>
<path d="M16.7264 10.0731V14.9269C16.7264 15.0758 16.8025 15.2134 16.926 15.2878L18.1177 16.0057C18.3839 16.1661 18.7166 15.9656 18.7166 15.6449V9.35518C18.7166 9.03443 18.3839 8.83396 18.1177 8.99433L16.926 9.71226C16.8025 9.78669 16.7264 9.92424 16.7264 10.0731Z" fill="#93C5FD"/>
<path d="M16.1274 16.0095L12.099 18.4364C11.9754 18.5108 11.8994 18.6484 11.8994 18.7972V20.2331C11.8994 20.5538 12.2321 20.7543 12.4983 20.5939L17.7184 17.4491C17.9846 17.2887 17.9846 16.8878 17.7184 16.7274L16.5267 16.0095C16.4031 15.935 16.251 15.935 16.1274 16.0095Z" fill="#93C5FD"/>
<path d="M10.901 18.4363L6.87272 16.0094C6.74917 15.935 6.59696 15.935 6.47341 16.0094L5.28174 16.7274C5.01554 16.8877 5.01554 17.2887 5.28174 17.4491L10.5018 20.5939C10.768 20.7543 11.1008 20.5538 11.1008 20.233V18.7972C11.1008 18.6483 11.0247 18.5108 10.901 18.4363Z" fill="#93C5FD"/>
<path d="M6.27375 14.9269V10.0731C6.27375 9.92427 6.19764 9.78672 6.0741 9.71229L4.88244 8.99437C4.61623 8.83399 4.28348 9.03446 4.28348 9.35521V15.6448C4.28348 15.9656 4.61623 16.1661 4.88244 16.0057L6.0741 15.2878C6.19764 15.2133 6.27375 15.0758 6.27375 14.9269Z" fill="#93C5FD"/>
</svg>
