<svg width="24" height="24" viewBox="0 0 24 24" fill="none" xmlns="http://www.w3.org/2000/svg">
<path d="M12.6382 5.28043C12.6382 3.27097 11.0035 1.63635 8.994 1.63635C6.87633 1.63635 5.61022 3.22417 5.61022 4.75984H7.69255C7.69255 4.32784 8.09651 3.71868 8.994 3.71868C9.85506 3.71868 10.5557 4.41937 10.5557 5.28043C10.5557 6.14148 9.92728 6.84217 8.34229 6.84217H2.67273V8.92472H8.34229C11.0173 8.92472 12.6382 7.28999 12.6382 5.28043ZM12.6382 5.28043C12.6382 3.27097 11.0035 1.63635 8.994 1.63635C6.87633 1.63635 5.61022 3.22417 5.61022 4.75984H7.69255C7.69255 4.32784 8.09651 3.71868 8.994 3.71868C9.85506 3.71868 10.5557 4.41937 10.5557 5.28043C10.5557 6.14148 9.92728 6.84217 8.34229 6.84217H2.67273V8.92472H8.34229C11.0173 8.92472 12.6382 7.28999 12.6382 5.28043ZM17.2579 18.7196C17.2579 20.729 15.6231 22.3636 13.6137 22.3636C11.496 22.3636 10.2299 20.7758 10.2299 19.2401H12.3122C12.3122 19.6721 12.7162 20.2813 13.6137 20.2813C14.4747 20.2813 15.1754 19.5806 15.1754 18.7196C15.1754 17.8585 14.3836 17.1577 12.962 17.1577H6.67058V15.0754H12.962C15.637 15.0754 17.2579 16.71 17.2579 18.7196ZM17.2579 18.7196C17.2579 20.729 15.6231 22.3636 13.6137 22.3636C11.496 22.3636 10.2299 20.7758 10.2299 19.2401H12.3122C12.3122 19.6721 12.7162 20.2813 13.6137 20.2813C14.4747 20.2813 15.1754 19.5806 15.1754 18.7196C15.1754 17.8585 14.3836 17.1577 12.962 17.1577H6.67058V15.0754H12.962C15.637 15.0754 17.2579 16.71 17.2579 18.7196Z" fill="#60A5FA"/>
<path d="M17.8036 4.84909C15.5068 4.84909 13.8866 6.59574 13.8866 8.89254H15.7309C15.7309 7.75091 16.56 6.92182 17.8036 6.92182C19.0473 6.92182 19.6691 7.75091 19.6691 8.89254C19.6691 10.0343 18.8615 10.975 16.6636 10.975H2.67273V13.0573H16.9745C20.2293 13.0573 21.7418 10.9653 21.7418 8.89254C21.7418 6.59574 20.1873 4.84909 17.8036 4.84909ZM5.40251 15.0754H2.67273V17.1753H5.40251V15.0754Z" fill="#60A5FA"/>
</svg>
