<svg width="24" height="24" viewBox="0 0 24 24" fill="none" xmlns="http://www.w3.org/2000/svg">
<path d="M12.0147 22.0866C17.5896 22.0866 22.109 17.5672 22.109 11.9923C22.109 6.41729 17.5896 1.89789 12.0147 1.89789C6.43969 1.89789 1.92029 6.41729 1.92029 11.9923C1.92029 17.5672 6.43969 22.0866 12.0147 22.0866Z" fill="#212121"/>
<path fill-rule="evenodd" clip-rule="evenodd" d="M22.1154 11.9779C22.1161 13.6918 21.681 15.3776 20.8512 16.8772C20.0213 18.3767 18.8238 19.6406 17.3713 20.5502C17.3701 20.5514 17.3685 20.5522 17.3668 20.5525L13.8978 16.2296L16.7716 16.5461C16.7716 16.5461 18.1516 16.6889 18.466 16.5461C18.7537 16.4324 20.3053 14.2476 20.3053 14.2476C20.3053 14.2476 15.8508 11.4319 14.3282 9.88016C14.5021 7.26506 14.1276 3.78706 14.1276 3.81603C13.0061 4.93528 12.8634 5.10909 11.742 6.1435C11.2538 4.56292 11.0241 4.01675 10.536 2.43605C9.06887 3.64209 7.94974 5.68436 7.14491 8.06989C6.96541 8.26846 6.79435 8.4745 6.63219 8.68746C6.52135 8.83309 6.41353 8.981 6.3088 9.13109C6.08817 9.44557 5.88068 9.76907 5.68687 10.1008C5.54447 10.3425 5.40695 10.5871 5.2744 10.8343C4.34023 12.589 3.57333 14.6 2.90898 16.4102C2.90438 16.4033 2.90064 16.3958 2.89783 16.3879C1.08101 12.6411 1.74609 8.16371 4.5732 5.10655C7.40042 2.04927 11.8121 1.03704 15.6894 2.55568C19.5666 4.07445 22.117 7.81402 22.1156 11.9781L22.1154 11.9779Z" fill="#E53935"/>
<path fill-rule="evenodd" clip-rule="evenodd" d="M12.2877 8.38406C12.2877 8.38406 12.1161 7.37862 12.0001 7.00627C12.776 6.25719 12.8919 6.14349 13.6389 5.42557C13.6967 6.8613 13.6677 7.60819 13.5808 9.36271C13.1505 8.93023 12.2877 8.38406 12.2877 8.38406ZM8.92574 13.3268C8.92574 13.3268 8.12091 12.8385 7.5168 12.7538C7.69073 12.3502 8.15 11.833 8.26588 11.6903C8.034 11.7752 6.3687 12.5219 6.19476 13.155C6.66631 13.2709 7.12779 13.4246 7.57474 13.6144C6.97414 14.298 6.60233 15.1523 6.51136 16.0577C6.51136 16.0577 9.15544 15.6542 11.1396 15.9129C11.1739 15.9333 11.2133 15.9432 11.2533 15.9419L12.2877 15.9708L15.5737 21.4419L15.6007 21.4843C15.5962 21.4865 15.5939 21.4887 15.5917 21.4887C9.39386 23.7292 4.9149 19.6048 3.95856 18.1624C3.96256 18.1501 3.96559 18.1375 3.96753 18.1246C4.82812 14.4861 5.88931 10.132 7.60371 8.84575C8.49545 7.29184 8.75399 4.99333 10.3615 3.78717C10.765 4.99321 11.3982 7.49474 11.8285 8.70078C13.7258 10.5981 16.5993 12.9545 18.5234 13.931C18.724 14.0469 18.9827 14.8517 18.9827 14.8517L18.2068 15.8282L9.93118 14.9944C9.74653 14.9791 9.56132 14.9717 9.37604 14.9721C8.80103 14.9801 8.22764 15.0353 7.66164 15.137C8.06285 14.1316 8.92574 13.3268 8.92574 13.3268ZM11.5988 12.2633C12.0581 12.2075 12.5463 12.3793 13.0925 12.6959C13.6097 12.5509 13.6676 12.5219 14.1849 12.3793C13.5228 11.891 12.8049 11.3738 11.8284 11.5165C11.7349 11.7599 11.6583 12.0094 11.5988 12.2633Z" fill="white"/>
</svg>
