<svg width="24" height="24" viewBox="0 0 24 24" fill="none" xmlns="http://www.w3.org/2000/svg">
<path d="M13.2951 11.033V7.65004L15.4211 5.51404C16.1951 4.75104 16.3401 3.53304 15.7981 2.58504C15.5917 2.21754 15.2916 1.91131 14.9283 1.69753C14.565 1.48375 14.1516 1.37006 13.7301 1.36804C13.5271 1.36804 13.2951 1.39704 13.1111 1.45504C12.0671 1.73504 11.3621 2.70104 11.3621 3.78504V6.91504L8.32712 9.98004C7.53949 10.7838 7.00517 11.8011 6.79043 12.9057C6.57568 14.0104 6.68997 15.1538 7.11912 16.194C7.47682 17.0793 8.05403 17.8588 8.79636 18.4593C9.53869 19.0597 10.4217 19.4613 11.3621 19.626V20.216C11.3581 20.3428 11.3059 20.4632 11.2161 20.5528C11.1264 20.6423 11.0059 20.6943 10.8791 20.698H9.42912V22.632H10.8791C11.5189 22.6284 12.1315 22.3725 12.5838 21.92C13.0361 21.4675 13.2917 20.8548 13.2951 20.215V19.732C15.2571 19.732 17.3151 17.876 17.3151 15.141C17.3151 12.918 15.4601 11.033 13.2951 11.033ZM13.2951 3.78404C13.2951 3.56204 13.4011 3.38804 13.6051 3.33004C13.707 3.30074 13.8157 3.30672 13.9138 3.34702C14.0118 3.38732 14.0933 3.45957 14.1451 3.55204C14.2002 3.64482 14.2225 3.75338 14.2085 3.86034C14.1946 3.96731 14.1451 4.0665 14.0681 4.14204L13.2951 4.97204V3.78504M11.3621 11.517C10.4241 12.136 9.71912 13.199 9.46812 14.185L11.3621 14.688V17.636C10.8079 17.4874 10.2955 17.213 9.86463 16.834C9.4338 16.455 9.09621 15.9818 8.87812 15.451C8.59721 14.7642 8.52346 14.0103 8.66597 13.282C8.80849 12.5538 9.16103 11.8833 9.68012 11.353L11.3621 9.58404V11.517ZM13.2951 17.8V12.91C14.4251 12.91 15.4021 13.972 15.4021 15.142C15.4021 16.833 14.1751 17.8 13.2951 17.8Z" fill="#EA580C"/>
</svg>
