<svg width="24" height="24" viewBox="0 0 24 24" fill="none" xmlns="http://www.w3.org/2000/svg">
<path d="M4.74396 2.73103C4.74396 2.34443 4.429 2.02373 4.04562 2.07356C3.24367 2.17779 2.63962 2.47361 2.23396 2.96103C1.71896 3.57303 1.46296 4.63903 1.46296 6.15803V8.62503C1.46296 9.57877 1.27851 10.209 0.911168 10.5164C0.614686 10.7645 0.261963 11.0494 0.261963 11.436V12.071C0.261963 12.4576 0.613852 12.7409 0.913721 12.9849C1.27922 13.2823 1.46196 13.8898 1.46196 14.807V17.461C1.46196 18.973 1.72196 20.023 2.24196 20.613C2.64984 21.0758 3.25151 21.3571 4.04555 21.4569C4.42913 21.5051 4.74396 21.1846 4.74396 20.798V20.13C4.74396 19.7434 4.4026 19.4674 4.0723 19.2665C3.95321 19.1941 3.85379 19.0976 3.77396 18.977C3.57896 18.674 3.48196 18.162 3.48196 17.439V15.172C3.48196 13.3797 3.08448 12.2524 2.28756 11.7883C2.2755 11.7812 2.26796 11.7684 2.26796 11.7544C2.26796 11.7406 2.27541 11.7278 2.28735 11.7208C3.08441 11.2501 3.48196 10.1369 3.48196 8.38103V6.02503C3.48196 5.1413 3.68123 4.5617 4.08041 4.28653C4.39871 4.06711 4.74396 3.78663 4.74396 3.40003V2.73103ZM20.1022 2.0743C19.7189 2.0236 19.404 2.34443 19.404 2.73103V3.40003C19.404 3.78663 19.7492 4.06711 20.0675 4.28653C20.4667 4.5617 20.666 5.1413 20.666 6.02503V8.29303C20.666 10.121 21.0614 11.2702 21.8534 11.7415C21.8654 11.7487 21.873 11.7617 21.873 11.7758C21.873 11.7901 21.8651 11.8033 21.8526 11.8104C21.0612 12.2597 20.666 13.3579 20.666 15.105V17.461C20.666 18.176 20.566 18.681 20.367 18.977C20.2882 19.0959 20.1908 19.1914 20.0746 19.2634C19.746 19.4672 19.404 19.7434 19.404 20.13V20.798C19.404 21.1846 19.7188 21.5051 20.1024 21.4571C20.8987 21.3576 21.4976 21.0762 21.898 20.613C22.414 20.023 22.67 18.95 22.67 17.394V14.84C22.67 13.9037 22.856 13.2854 23.227 12.9847C23.5274 12.7413 23.879 12.4576 23.879 12.071V11.436C23.879 11.0494 23.5272 10.7653 23.2277 10.5209C22.8557 10.2174 22.669 9.59265 22.669 8.64603V6.11303C22.669 4.62303 22.414 3.57303 21.899 2.96103C21.4943 2.47476 20.8952 2.17918 20.1022 2.0743ZM16.349 6.49053C16.349 6.4908 16.3487 6.49103 16.3485 6.49103C15.8936 6.49107 15.4628 6.54807 15.056 6.66403C14.6653 6.76671 14.2989 6.94583 13.978 7.19103C13.671 7.43203 13.428 7.74003 13.248 8.11503C13.068 8.48503 12.978 8.93203 12.978 9.45103C12.978 10.114 13.143 10.678 13.47 11.146C13.802 11.614 14.302 12.01 14.972 12.334C15.236 12.459 15.482 12.583 15.709 12.703C15.936 12.823 16.131 12.948 16.295 13.078C16.462 13.208 16.594 13.349 16.689 13.502C16.784 13.655 16.834 13.829 16.834 14.023C16.834 14.167 16.804 14.303 16.744 14.428C16.6787 14.5543 16.5844 14.6632 16.469 14.746C16.3311 14.8425 16.177 14.9133 16.014 14.955C15.8068 15.0093 15.5931 15.0349 15.379 15.031C14.964 15.031 14.553 14.948 14.146 14.781C13.6798 14.5805 13.016 14.8816 13.016 15.3891V15.8359C13.016 16.086 13.1474 16.3219 13.3764 16.4225C13.6139 16.5268 13.8621 16.6058 14.117 16.658C14.544 16.751 14.992 16.797 15.463 16.797C15.922 16.797 16.356 16.747 16.767 16.644C17.1602 16.5524 17.531 16.3823 17.857 16.144C18.168 15.908 18.414 15.602 18.594 15.227C18.777 14.847 18.869 14.378 18.869 13.822C18.869 13.419 18.816 13.067 18.713 12.766C18.609 12.46 18.459 12.189 18.263 11.953C18.067 11.717 17.833 11.506 17.558 11.32C17.2655 11.1177 16.9576 10.9388 16.637 10.785C16.385 10.665 16.16 10.549 15.961 10.437C15.761 10.322 15.591 10.206 15.451 10.09C15.3237 9.98366 15.2149 9.85694 15.129 9.71503C15.0515 9.57671 15.0115 9.42056 15.013 9.26203C15.0104 9.11942 15.0456 8.97868 15.115 8.85403C15.1857 8.72647 15.285 8.61696 15.405 8.53403C15.528 8.44503 15.68 8.37803 15.859 8.33203C16.0537 8.27845 16.255 8.2522 16.457 8.25403C16.617 8.25403 16.783 8.26903 16.959 8.29703C17.139 8.32503 17.319 8.36703 17.498 8.42703C17.678 8.48303 17.852 8.55703 18.019 8.64503C18.2201 8.74792 18.492 8.61163 18.492 8.38574V7.32836C18.492 7.0505 18.3291 6.79355 18.0637 6.7114C17.8906 6.65784 17.714 6.61593 17.535 6.58603C17.1436 6.51757 16.7467 6.48543 16.3495 6.49002C16.3492 6.49003 16.349 6.49025 16.349 6.49053ZM8.09019 6.65603C7.78421 6.65603 7.5137 6.85475 7.42221 7.14673L4.73788 15.7137C4.59661 16.1646 4.93338 16.623 5.40585 16.623H6.01239C6.32802 16.623 6.6046 16.4118 6.6877 16.1073L7.01123 14.9217C7.09432 14.6173 7.37091 14.406 7.68654 14.406H9.67155C9.98663 14.406 10.2629 14.6165 10.3465 14.9203L10.6735 16.1087C10.757 16.4125 11.0333 16.623 11.3484 16.623H11.9754C12.446 16.623 12.7826 16.168 12.6447 15.718L10.0206 7.15101C9.93048 6.85687 9.65891 6.65603 9.35128 6.65603H8.09019ZM8.64628 8.45961C8.64726 8.44634 8.65829 8.43603 8.67161 8.43603C8.6848 8.43603 8.69578 8.44619 8.69688 8.45933C8.72517 8.79643 8.77349 9.08764 8.83996 9.33203L9.51818 11.7963C9.64084 12.2419 9.30551 12.682 8.84328 12.682H8.48385C8.02125 12.682 7.68586 12.2413 7.80918 11.7954L8.49796 9.30503C8.57581 9.02479 8.62525 8.74359 8.64628 8.45961Z" fill="#F87171"/>
</svg>
