<svg width="24" height="24" viewBox="0 0 24 24" fill="none" xmlns="http://www.w3.org/2000/svg">
<path d="M3.24387 12.4753C2.8125 12.3105 2.81601 11.699 3.24924 11.5391L4.64561 11.0239C4.80429 10.9653 4.92056 10.8296 4.96885 10.6675C5.24044 9.75595 5.74172 9.22925 5.76885 9.20121C5.7698 9.20023 5.77049 9.19955 5.77145 9.19858C6.52066 8.45046 7.53617 8.03023 8.595 8.03023C9.65451 8.03023 10.6707 8.451 11.42 9.20003L12.4657 10.2457C12.6651 10.4451 12.9899 10.4403 13.1832 10.235L18.5124 4.57648C18.7835 4.28856 19.2616 4.41618 19.3287 4.80595C19.9073 8.16662 19.036 11.482 17.0727 14.2425C16.926 14.4488 16.9469 14.7324 17.1288 14.9084L21.3338 18.9756C21.6198 19.2522 21.4852 19.7233 21.0921 19.7849C18.7758 20.1479 12.5511 20.7555 8.6 17.67C6.13514 15.7394 5.46214 14.5641 5.08275 13.3869C5.03486 13.2383 4.92438 13.1173 4.77852 13.0616L3.24387 12.4753ZM7.04 12.21C7.41 12.58 8.02 12.58 8.39 12.21C8.76 11.84 8.76 11.24 8.39 10.87C8.21029 10.6923 7.96774 10.5927 7.715 10.5927C7.46226 10.5927 7.21972 10.6923 7.04 10.87C6.67 11.24 6.67 11.84 7.04 12.21Z" fill="#60A5FA"/>
</svg>
