<svg width="24" height="24" viewBox="0 0 24 24" fill="none" xmlns="http://www.w3.org/2000/svg">
<path d="M14.8471 5.35695H13.8971V4.40695H14.8471M10.1011 5.35695H9.15206V4.40695H10.1021M15.3501 2.66195L16.5931 1.41795C16.68 1.32729 16.7285 1.20655 16.7285 1.08095C16.7285 0.955358 16.68 0.83462 16.5931 0.743953C16.5024 0.657042 16.3817 0.608521 16.2561 0.608521C16.1305 0.608521 16.0097 0.657042 15.9191 0.743953L14.5151 2.14995C13.7321 1.76474 12.8716 1.56329 11.9991 1.56095C11.1226 1.56112 10.2584 1.76588 9.47506 2.15895L8.06006 0.743953C7.97114 0.657157 7.85181 0.608569 7.72756 0.608569C7.6033 0.608569 7.48397 0.657157 7.39506 0.743953C7.35 0.787754 7.31418 0.840146 7.28973 0.89803C7.26527 0.955914 7.25267 1.01811 7.25267 1.08095C7.25267 1.14379 7.26527 1.20599 7.28973 1.26388C7.31418 1.32176 7.35 1.37415 7.39506 1.41795L8.64006 2.66195C7.22506 3.70595 6.30506 5.35695 6.30506 7.25495H17.6951C17.6951 5.35695 16.7451 3.69595 15.3501 2.66195ZM20.0681 8.20495C19.6906 8.20495 19.3285 8.35484 19.0615 8.62168C18.7945 8.88851 18.6443 9.25046 18.6441 9.62795V16.272C18.6441 16.6496 18.7941 17.0118 19.0611 17.2789C19.3282 17.5459 19.6904 17.696 20.0681 17.696C20.4456 17.6957 20.8075 17.5455 21.0743 17.2785C21.3412 17.0115 21.4911 16.6494 21.4911 16.272V9.62795C21.4908 9.25063 21.3408 8.88884 21.074 8.62203C20.8072 8.35523 20.4454 8.20522 20.0681 8.20495ZM3.93206 8.20495C3.55456 8.20495 3.19251 8.35484 2.92549 8.62168C2.65847 8.88851 2.50832 9.25046 2.50806 9.62795V16.272C2.50806 16.6496 2.65808 17.0118 2.92514 17.2789C3.19219 17.5459 3.55439 17.696 3.93206 17.696C4.30955 17.6957 4.67149 17.5455 4.93833 17.2785C5.20517 17.0115 5.35506 16.6494 5.35506 16.272V9.62795C5.35479 9.25063 5.20478 8.88884 4.93798 8.62203C4.67117 8.35523 4.30938 8.20522 3.93206 8.20495ZM6.30406 17.696C6.30406 17.9479 6.40415 18.1895 6.58231 18.3677C6.76047 18.5459 7.0021 18.646 7.25406 18.646H8.20306V21.967C8.20306 22.3444 8.35295 22.7065 8.61978 22.9735C8.88662 23.2405 9.24856 23.3907 9.62606 23.391C10.0037 23.391 10.3659 23.2409 10.633 22.9739C10.9 22.7068 11.0501 22.3446 11.0501 21.967V18.645H12.9481V21.967C12.9481 22.3446 13.0981 22.7068 13.3651 22.9739C13.6322 23.2409 13.9944 23.391 14.3721 23.391C14.7497 23.391 15.1119 23.2409 15.379 22.9739C15.646 22.7068 15.7961 22.3446 15.7961 21.967V18.645H16.7451C16.9968 18.645 17.2383 18.545 17.4165 18.3671C17.5946 18.1891 17.6948 17.9477 17.6951 17.696V8.20495H6.30406V17.696Z" fill="#8BC34A"/>
</svg>
