<svg width="24" height="24" viewBox="0 0 24 24" fill="none" xmlns="http://www.w3.org/2000/svg">
<path d="M10.3549 1.61394C12.9404 1.19803 15.5876 1.76747 17.7745 3.20992C19.9613 4.65237 21.5288 6.86308 22.1679 9.40594C22.5613 10.8777 22.625 12.4184 22.3545 13.9178C22.0839 15.4171 21.4858 16.838 20.6029 18.0789C19.7921 19.2164 18.7646 20.1821 17.5795 20.9203C16.3945 21.6586 15.0753 22.1548 13.6979 22.3805C12.3206 22.6062 10.9122 22.5568 9.55401 22.2353C8.19578 21.9137 6.91448 21.3263 5.78388 20.5069C4.62972 19.6694 3.6595 18.6036 2.93328 17.3755C2.20706 16.1473 1.7403 14.783 1.56188 13.3669C1.30686 11.3142 1.65398 9.23149 2.56088 7.37294C3.30266 5.85654 4.39833 4.54138 5.75518 3.53875C7.11202 2.53613 8.69011 1.87556 10.3559 1.61294M10.6259 5.43794C9.67688 7.51794 8.72588 9.59794 7.79588 11.6879C7.31688 13.0329 6.66888 14.3029 6.07988 15.6029C5.90588 16.0109 5.61188 16.4559 5.79288 16.9149C5.84857 17.0644 5.93634 17.1998 6.04999 17.3116C6.16365 17.4234 6.30041 17.5088 6.45062 17.5619C6.60084 17.6149 6.76085 17.6342 6.91934 17.6185C7.07784 17.6028 7.23095 17.5524 7.36788 17.4709C7.82588 17.2099 7.93388 16.6429 8.14588 16.1989C9.09788 13.7939 10.2759 11.4909 11.2559 9.09494C11.4491 8.53218 11.7096 7.99493 12.0319 7.49494C12.5999 8.90094 13.2179 10.2859 13.8049 11.6849C14.1866 12.3899 14.5107 13.1246 14.7739 13.8819C13.2639 13.8669 11.7539 13.8779 10.2429 13.8719C12.3159 15.1049 14.4449 16.2509 16.5479 17.4339C16.7215 17.5511 16.9251 17.6159 17.1344 17.6207C17.3437 17.6255 17.55 17.57 17.7288 17.461C17.9076 17.3519 18.0513 17.1937 18.143 17.0053C18.2347 16.8169 18.2704 16.6061 18.2459 16.3979C17.8209 15.2479 17.2319 14.1609 16.7459 13.0339C15.8289 10.6409 14.6699 8.34894 13.6489 5.99794C13.5079 5.55266 13.2536 5.15183 12.9109 4.83494C12.7258 4.70848 12.5158 4.6233 12.295 4.58516C12.0743 4.54703 11.8479 4.55684 11.6312 4.61392C11.4145 4.671 11.2126 4.77403 11.0392 4.91602C10.8658 5.05802 10.7248 5.23566 10.6259 5.43694V5.43794Z" fill="#F87171"/>
</svg>
