<svg width="24" height="24" viewBox="0 0 24 24" fill="none" xmlns="http://www.w3.org/2000/svg">
<path d="M12.0003 1.9718C10.9183 1.9718 9.88071 2.40161 9.11565 3.16667C8.35059 3.93172 7.92079 4.96937 7.92079 6.05132C7.92153 7.12835 8.34815 8.16138 9.10759 8.92508L5.93527 13.9423C5.68414 13.8938 5.42902 13.8691 5.17327 13.8684C4.63752 13.8683 4.10701 13.9738 3.61203 14.1788C3.11705 14.3838 2.6673 14.6843 2.28845 15.0631C1.90961 15.442 1.60909 15.8917 1.40406 16.3867C1.19903 16.8816 1.09351 17.4121 1.09351 17.9479C1.09357 19.0298 1.5234 20.0674 2.28845 20.8324C3.05351 21.5974 4.09111 22.0272 5.17303 22.0272C6.25498 22.0272 7.29262 21.5974 8.05768 20.8323C8.82274 20.0672 9.25255 19.0296 9.25255 17.9476C9.25181 17.3018 9.09776 16.6654 8.80306 16.0907C8.50837 15.5161 8.08145 15.0196 7.55743 14.6421L10.5757 9.86852C11.0311 10.0402 11.5136 10.1291 12.0003 10.1308C12.5055 10.1307 13.0064 10.0367 13.4773 9.85364L16.4861 14.6128C15.9501 14.9884 15.5123 15.4875 15.2097 16.068C14.9071 16.6484 14.7486 17.2931 14.7476 17.9476C14.7475 18.4834 14.853 19.0139 15.058 19.509C15.263 20.004 15.5635 20.4537 15.9423 20.8326C16.3211 21.2115 16.7708 21.512 17.2658 21.7171C17.7608 21.9221 18.2913 22.0276 18.8271 22.0276C19.3629 22.0276 19.8934 21.9221 20.3884 21.7171C20.8834 21.512 21.3331 21.2115 21.7119 20.8326C22.0908 20.4537 22.3912 20.004 22.5962 19.509C22.8012 19.0139 22.9067 18.4834 22.9066 17.9476C22.9066 16.8657 22.4768 15.828 21.7118 15.063C20.9467 14.2979 19.9091 13.8681 18.8271 13.8681C18.5897 13.8684 18.3528 13.8895 18.1191 13.931L14.929 8.88524C15.6655 8.12562 16.078 7.10958 16.0796 6.05156C16.0796 4.96961 15.6498 3.93196 14.8847 3.16691C14.1197 2.40185 13.082 1.97204 12.0001 1.97204L12.0003 1.9718Z" fill="#60A5FA"/>
</svg>
