<svg width="24" height="24" viewBox="0 0 24 24" fill="none" xmlns="http://www.w3.org/2000/svg">
<path d="M18.7328 19.499C17.9028 20.739 17.0228 21.949 15.6828 21.969C14.3428 21.999 13.9128 21.179 12.3928 21.179C10.8628 21.179 10.3928 21.949 9.1228 21.999C7.8128 22.049 6.8228 20.679 5.9828 19.469C4.2728 16.999 2.9628 12.449 4.7228 9.38902C5.5928 7.86902 7.1528 6.90902 8.8428 6.87902C10.1228 6.85902 11.3428 7.74902 12.1328 7.74902C12.9128 7.74902 14.3928 6.67902 15.9428 6.83902C16.5928 6.86902 18.4128 7.09902 19.5828 8.81902C19.4928 8.87902 17.4128 10.099 17.4328 12.629C17.4628 15.649 20.0828 16.659 20.1128 16.669C20.0828 16.739 19.6928 18.109 18.7328 19.499ZM13.0228 3.49902C13.7528 2.66902 14.9628 2.03902 15.9628 1.99902C16.0928 3.16902 15.6228 4.34902 14.9228 5.18902C14.2328 6.03902 13.0928 6.69902 11.9728 6.60902C11.8228 5.45902 12.3828 4.25902 13.0228 3.49902Z" fill="#78909C"/>
</svg>
