<svg width="24" height="24" viewBox="0 0 24 24" fill="none" xmlns="http://www.w3.org/2000/svg">
<path fill-rule="evenodd" clip-rule="evenodd" d="M11.9666 1.62708C17.7405 1.62708 22.3728 6.25964 22.3728 11.9668C22.3773 13.3346 22.1112 14.6898 21.5898 15.9543C21.0684 17.2189 20.3021 18.3678 19.3349 19.335C18.3677 20.3022 17.2187 21.0685 15.9542 21.5899C14.6896 22.1113 13.3344 22.3774 11.9666 22.3729C6.2598 22.3729 1.62695 17.7404 1.62695 11.9668C1.62695 6.25992 6.25952 1.62708 11.9666 1.62708ZM14.5179 13.9805C13.3765 15.4576 11.2952 15.7261 9.8853 14.5848C8.47539 13.5105 8.27402 11.4292 9.41533 9.95226C10.6239 8.54236 12.7051 8.27376 14.1151 9.34804C15.525 10.4894 15.7264 12.5707 14.518 13.9806L14.5179 13.9805ZM9.01258 20.7615L12.9737 16.9347C11.4966 17.2703 9.95242 17.0018 8.74398 15.9947C7.33408 14.9204 6.72986 13.1077 6.93123 11.4292L3.37295 15.3234C3.37295 15.3234 2.90298 14.4506 2.76864 12.8392L9.01258 7.93814C10.8925 6.59536 13.4438 6.52814 15.2565 7.93814C17.2706 9.54942 17.6735 12.5036 16.1965 14.7191L11.631 21.2315C10.9597 21.2315 9.61689 21.03 9.01258 20.7615Z" fill="#00B3E0"/>
</svg>
