<svg width="24" height="24" viewBox="0 0 24 24" fill="none" xmlns="http://www.w3.org/2000/svg">
<g clip-path="url(#clip0_808_166)">
<path d="M5.82961 7.68286C4.54677 7.68286 3.31648 8.17305 2.40938 9.0456C1.50228 9.91814 0.992676 11.1016 0.992676 12.3355C0.992676 13.5695 1.50228 14.7529 2.40938 15.6255C3.31648 16.498 4.54677 16.9882 5.82961 16.9882C12.1439 17.3205 11.4793 7.68286 18.1259 7.68286C19.4088 7.68286 20.6391 8.17305 21.5462 9.0456C22.4533 9.91814 22.9629 11.1016 22.9629 12.3355C22.9629 13.5695 22.4533 14.7529 21.5462 15.6255C20.6391 16.498 19.4088 16.9882 18.1259 16.9882C11.8116 17.3205 12.4763 7.68286 5.82961 7.68286Z" stroke="#14B8A6" stroke-width="2"/>
<path d="M17.5942 13.4987V12.4087H16.5142V11.9534H17.5942V10.8733H18.0562V11.9534H19.1363V12.4087H18.0562V13.4987H17.5942Z" fill="#14B8A6" stroke="#14B8A6" stroke-width="0.5"/>
<path d="M4.52539 12.3611V11.991H7.28868V12.3611H4.52539Z" fill="#14B8A6" stroke="#14B8A6" stroke-width="0.5"/>
</g>
<defs>
<clipPath id="clip0_808_166">
<rect width="24" height="24" fill="white"/>
</clipPath>
</defs>
</svg>
