<svg width="24" height="24" viewBox="0 0 24 24" fill="none" xmlns="http://www.w3.org/2000/svg">
<path d="M13.1583 2.2405C13.0292 2.23972 12.9012 2.26488 12.7821 2.31448C12.5992 2.38979 12.4441 2.51968 12.3378 2.68644C12.2952 2.7458 12.2587 2.81085 12.2295 2.88135L8.72412 11.3531C8.64677 11.54 8.4644 11.6619 8.2621 11.6619H5.09288C4.55873 11.6619 4.12859 12.092 4.12859 12.6262C4.12831 12.7529 4.15306 12.8784 4.20142 12.9955C4.24978 13.1127 4.3208 13.2191 4.4104 13.3087C4.5 13.3983 4.60641 13.4693 4.72353 13.5177C4.84065 13.566 4.96617 13.5908 5.09288 13.5905H7.79786C7.79812 13.5905 7.7983 13.5908 7.79818 13.591C7.79807 13.5912 7.79825 13.5915 7.79851 13.5915H9.88448C9.88484 13.5915 9.88517 13.5913 9.88531 13.591C9.88546 13.5906 9.88579 13.5904 9.88615 13.5904H11.9741C12.5083 13.5904 12.9383 13.1604 12.9383 12.6262C12.9383 12.092 12.5083 11.6619 11.974 11.6619H11.4313C11.0751 11.6619 10.8331 11.2999 10.9693 10.9707L12.6829 6.82963C12.8533 6.41787 13.4365 6.41787 13.6069 6.82964L19.5199 21.1196C19.5681 21.2368 19.6389 21.3433 19.7284 21.433C19.8179 21.5227 19.9242 21.5939 20.0412 21.6424C20.1583 21.691 20.2837 21.7159 20.4104 21.7158C20.5371 21.7157 20.6626 21.6906 20.7796 21.6419C20.8967 21.5937 21.0032 21.5228 21.0929 21.4334C21.1827 21.3439 21.2538 21.2376 21.3023 21.1205C21.3509 21.0035 21.3758 20.878 21.3757 20.7513C21.3756 20.6246 21.3505 20.4992 21.3018 20.3822L14.0417 2.83685C13.9696 2.66149 13.8473 2.51133 13.6901 2.40525C13.533 2.29916 13.3479 2.24179 13.1583 2.2405ZM3.5897 15.2987C3.463 15.2984 3.33748 15.3232 3.22037 15.3715C3.10326 15.4199 2.99686 15.4909 2.90727 15.5805C2.81768 15.6701 2.74667 15.7765 2.69831 15.8937C2.64996 16.0108 2.62521 16.1363 2.62549 16.263C2.62549 16.7972 3.05547 17.2273 3.5897 17.2273H5.54567C5.90192 17.2273 6.14389 17.5892 6.00768 17.9184L4.96958 20.4274C4.92089 20.5443 4.89578 20.6697 4.89569 20.7964C4.89561 20.9231 4.92055 21.0486 4.96909 21.1656C5.01763 21.2826 5.0888 21.3889 5.17853 21.4784C5.26826 21.5678 5.37477 21.6386 5.49196 21.6868C5.6089 21.7355 5.73431 21.7606 5.861 21.7608C5.98768 21.7609 6.11314 21.7359 6.23017 21.6874C6.3472 21.6389 6.45348 21.5678 6.54293 21.478C6.63237 21.3883 6.70321 21.2818 6.75138 21.1646L8.25292 17.536C8.33027 17.3491 8.51263 17.2272 8.71492 17.2272H10.4709C10.5976 17.2275 10.7231 17.2027 10.8402 17.1543C10.9574 17.106 11.0638 17.035 11.1534 16.9454C11.2429 16.8558 11.314 16.7493 11.3623 16.6322C11.4107 16.5151 11.4354 16.3896 11.4351 16.2629C11.4351 15.7287 11.0052 15.2986 10.4709 15.2986L3.5897 15.2987Z" fill="#F87171"/>
</svg>
