<svg width="24" height="24" viewBox="0 0 24 24" fill="none" xmlns="http://www.w3.org/2000/svg">
<path d="M2.6999 1.54672C2.14773 1.54689 1.7002 1.99456 1.7002 2.54672V21.45C1.7002 22.0023 2.14791 22.45 2.7002 22.45H4.08219C4.63448 22.45 5.0822 22.0023 5.0822 21.45V21.2075C5.0822 20.7406 4.70365 20.362 4.2367 20.362C3.76974 20.362 3.3912 19.9835 3.3912 19.5165V4.48152C3.3912 4.01456 3.76974 3.63602 4.2367 3.63602C4.70365 3.63602 5.0822 3.25748 5.0822 2.79052V2.54632C5.0822 1.99392 4.6343 1.54615 4.0819 1.54632L2.6999 1.54672ZM19.9185 1.54732C19.3661 1.54715 18.9182 1.99492 18.9182 2.54732V2.79002C18.9182 3.25781 19.2974 3.63702 19.7652 3.63702C20.233 3.63702 20.6122 4.01624 20.6122 4.48402V19.517C20.6122 19.9848 20.233 20.364 19.7652 20.364C19.2974 20.364 18.9182 20.7432 18.9182 21.211V21.454C18.9182 22.0063 19.3659 22.454 19.9182 22.454H21.3012C21.8535 22.454 22.3012 22.0063 22.3012 21.454V2.54772C22.3012 1.99556 21.8537 1.54789 21.3015 1.54772L19.9185 1.54732ZM15.1652 4.00802C14.6652 4.00802 14.2352 4.08302 13.8752 4.23302C13.5152 4.38202 13.2232 4.60502 12.9982 4.90302C12.7593 5.23531 12.5912 5.61311 12.5042 6.01302C12.393 6.51862 12.3407 7.03539 12.3482 7.55302C12.3422 8.06565 12.3925 8.57738 12.4982 9.07902C12.5992 9.52102 12.7632 9.89102 12.9882 10.189C13.2112 10.488 13.5012 10.714 13.8612 10.866C14.2212 11.018 14.6562 11.096 15.1652 11.096C15.6832 11.096 16.1192 11.021 16.4732 10.871C16.816 10.7273 17.1153 10.4963 17.3412 10.201C17.5612 9.91102 17.7222 9.53902 17.8262 9.08802C17.9302 8.63402 17.9822 8.12102 17.9822 7.54802C17.9822 6.97502 17.9302 6.47002 17.8302 6.03402C17.7474 5.63558 17.5822 5.25886 17.3452 4.92802C17.1225 4.62539 16.8223 4.38841 16.4762 4.24202C16.1232 4.08602 15.6862 4.00802 15.1652 4.00802ZM8.83483 4.12802C8.56498 4.12802 8.35416 4.35591 8.2132 4.58602C8.12424 4.71576 8.00099 4.81824 7.85719 4.88202C7.69752 4.95313 7.52788 4.99933 7.3542 5.01902C7.32871 5.02206 7.30321 5.02492 7.27769 5.02759C6.97272 5.05948 6.7232 5.30487 6.7232 5.6115C6.7232 5.91775 6.97146 6.16602 7.27771 6.16602H7.4407C7.83696 6.16602 8.1582 6.48726 8.1582 6.88352V9.04852C8.1582 9.44478 7.83696 9.76602 7.4407 9.76602H7.3172C6.98914 9.76602 6.7232 10.032 6.7232 10.36C6.7232 10.6881 6.98914 10.954 7.3172 10.954H10.6737C11.002 10.954 11.2682 10.6879 11.2682 10.3595C11.2682 10.0312 11.002 9.76502 10.6737 9.76502H10.5657C10.1777 9.76502 9.8632 9.4505 9.8632 9.06252V4.89751C9.8632 4.47253 9.51868 4.12802 9.09371 4.12802H8.83483ZM15.1652 5.26602C15.5402 5.26602 15.8082 5.44202 15.9702 5.79302C16.1312 6.14002 16.2112 6.72502 16.2112 7.54902C16.2112 8.36202 16.1292 8.94802 15.9642 9.30402C15.8002 9.66102 15.5342 9.83802 15.1652 9.83802C14.7962 9.83802 14.5292 9.66102 14.3642 9.30402C14.1992 8.94702 14.1172 8.36402 14.1172 7.55602C14.1172 6.72602 14.1992 6.14002 14.3602 5.79302C14.5222 5.44302 14.7902 5.26602 15.1652 5.26602ZM8.8352 12.9055C8.8352 12.9058 8.83497 12.906 8.83469 12.906C8.33491 12.9061 7.90508 12.9791 7.5452 13.129C7.19721 13.2696 6.89404 13.5023 6.6682 13.802C6.4422 14.103 6.2782 14.472 6.1742 14.908C6.0702 15.344 6.0192 15.857 6.0192 16.448C6.0192 17.021 6.0682 17.53 6.1692 17.975C6.2692 18.417 6.4332 18.788 6.65919 19.087C6.8812 19.386 7.1732 19.611 7.5332 19.764C7.8932 19.917 8.3262 19.992 8.8352 19.992C9.3532 19.992 9.7892 19.917 10.1432 19.767C10.4862 19.623 10.7857 19.3921 11.0122 19.097C11.2312 18.807 11.3922 18.435 11.4962 17.984C11.6002 17.53 11.6522 17.017 11.6522 16.444C11.6522 15.871 11.6022 15.366 11.5022 14.93C11.4187 14.5315 11.2528 14.1547 11.0152 13.824C10.7932 13.5215 10.4937 13.2845 10.1482 13.138C9.79531 12.9821 9.35648 12.9051 8.8357 12.905C8.83542 12.905 8.8352 12.9052 8.8352 12.9055ZM14.6802 13.024C14.6747 13.1859 14.6275 13.3437 14.5432 13.482C14.454 13.6119 14.3304 13.7144 14.1862 13.778C14.0522 13.842 13.8852 13.888 13.6842 13.915C13.659 13.918 13.6339 13.9208 13.6087 13.9235C13.3032 13.9555 13.0532 14.2013 13.0532 14.5085C13.0532 14.8153 13.3019 15.064 13.6087 15.064H13.7707C14.167 15.064 14.4882 15.3853 14.4882 15.7815V17.9435C14.4882 18.3398 14.167 18.661 13.7707 18.661H13.6477C13.3194 18.661 13.0532 18.9272 13.0532 19.2555C13.0532 19.5839 13.3194 19.85 13.6477 19.85H17.0022C17.3308 19.85 17.5972 19.5836 17.5972 19.255C17.5972 18.9264 17.3308 18.66 17.0022 18.66H16.8952C16.5075 18.66 16.1932 18.3457 16.1932 17.958V13.7795C16.1932 13.3617 15.8545 13.023 15.4367 13.023H14.6812C14.6806 13.023 14.6802 13.0235 14.6802 13.024ZM8.8352 14.162C9.2102 14.162 9.4782 14.338 9.6402 14.689C9.8012 15.036 9.8812 15.621 9.8812 16.444C9.8812 17.258 9.8012 17.844 9.6362 18.2C9.4722 18.557 9.2042 18.734 8.8362 18.734C8.4682 18.734 8.1992 18.557 8.0342 18.2C7.8692 17.843 7.7892 17.261 7.7892 16.454C7.7892 15.624 7.8692 15.036 8.0302 14.689C8.1922 14.339 8.4602 14.162 8.8352 14.162Z" fill="#EA580C"/>
</svg>
