<svg width="24" height="25" viewBox="0 0 24 25" fill="none" xmlns="http://www.w3.org/2000/svg">
<path fill-rule="evenodd" clip-rule="evenodd" d="M5.1654 14.4152C4.89718 15.3096 4.76393 15.7563 4.7966 16.1806C4.82755 16.5547 4.94962 16.9144 5.15165 17.2257C5.38032 17.5773 5.75341 17.8375 6.50132 18.3569L9.80159 20.6533C10.4678 21.1162 10.8014 21.3485 11.1616 21.4391C11.4797 21.5198 11.8124 21.5198 12.1313 21.4418C12.4924 21.3521 12.8276 21.1216 13.4964 20.6614L16.8328 18.3605C17.5876 17.8393 17.9659 17.58 18.198 17.2248C18.4013 16.9123 18.5234 16.55 18.5522 16.1735C18.5857 15.7456 18.4473 15.2961 18.1739 14.3955L15.251 4.79713C15.1092 4.33066 15.0387 4.09833 14.9029 3.9252C14.7832 3.77311 14.6285 3.65521 14.4533 3.58253C14.2555 3.5 14.0217 3.5 13.5532 3.5H9.74399C9.27375 3.5 9.03735 3.5 8.83876 3.58432C8.6629 3.65717 8.50783 3.77575 8.3883 3.92879C8.25247 4.10281 8.18284 4.33694 8.04357 4.8052L5.1654 14.4161V14.4152ZM13.7019 5.53719C13.8137 5.68251 13.8721 5.88076 13.9865 6.27277L16.4958 14.8736C15.5531 14.3637 14.5414 14.0067 13.4956 13.8151L11.8622 8.0534C11.8488 8.00795 11.8218 7.96819 11.7851 7.93994C11.7484 7.9117 11.7041 7.89645 11.6585 7.89645C11.6129 7.89645 11.5685 7.9117 11.5319 7.93994C11.4952 7.96819 11.4682 8.00795 11.4547 8.0534L9.84028 13.8106C8.78975 14.0018 7.77355 14.36 6.82714 14.8727L9.3494 6.27187C9.46374 5.87807 9.52134 5.68161 9.63396 5.53629C9.73368 5.40802 9.86349 5.30844 10.0096 5.24655C10.1764 5.17658 10.3733 5.17658 10.767 5.17658H12.568C12.9617 5.17658 13.1595 5.17658 13.3262 5.24655C13.4724 5.30844 13.6013 5.40801 13.7019 5.53719ZM11.7565 15.9043C12.7073 15.9043 13.5334 15.6532 13.9469 15.2836C14.0204 15.525 14.0465 15.7794 14.0236 16.0315C14.0007 16.2837 13.9293 16.5284 13.8137 16.7512C13.5489 17.2625 13.1646 17.5163 12.8182 17.7451C12.3832 18.033 12.0092 18.2815 12.0092 18.9471C12.0092 19.1669 12.0574 19.3768 12.1442 19.5625C11.8512 19.4354 11.6009 19.2206 11.4248 18.9452C11.2487 18.6698 11.1547 18.3462 11.1547 18.0151V17.9738C11.1547 17.5145 11.1556 16.9485 10.534 16.9485C10.4477 16.9484 10.3621 16.966 10.2823 17.0004C10.2025 17.0348 10.1299 17.0852 10.0687 17.1489C10.0076 17.2125 9.95906 17.2881 9.92591 17.3713C9.89276 17.4545 9.87563 17.5437 9.87552 17.6338C9.17747 16.9045 9.23851 15.855 9.23851 15.855C9.23851 15.6406 9.25914 15.3069 9.35112 15.0154C9.61074 15.5249 10.589 15.9034 11.7565 15.9034V15.9043Z" fill="#EA580C"/>
</svg>
