<svg width="24" height="24" viewBox="0 0 24 24" fill="none" xmlns="http://www.w3.org/2000/svg">
<path d="M8.20282 5.44705L5.82982 6.77705L7.15882 4.40305L5.82882 2.02905L8.20282 3.35905L10.5768 2.02905L9.24682 4.40305L10.5768 6.77705L8.20282 5.44705ZM19.5968 14.7521L21.9708 13.4231L20.6408 15.7971L21.9708 18.1701L19.5968 16.8411L17.2228 18.1711L18.5528 15.7971L17.2228 13.4231L19.5968 14.7531M21.9708 2.02905L20.6408 4.40305L21.9708 6.77705L19.5968 5.44705L17.2228 6.77705L18.5528 4.40305L17.2228 2.02905L19.5968 3.35905L21.9708 2.02905ZM13.7478 12.2651L16.0648 9.94905L14.0518 7.93605L11.7348 10.2531L13.7478 12.2651ZM14.7258 7.05305L16.9478 9.27505C17.3178 9.62505 17.3178 10.2431 16.9478 10.6131L5.86682 21.6941C5.49682 22.0641 4.87982 22.0641 4.52782 21.6941L2.30582 19.4731C1.93582 19.1211 1.93582 18.5041 2.30582 18.1331L13.3868 7.05305C13.7568 6.68305 14.3748 6.68305 14.7268 7.05305H14.7258Z" fill="#F87171"/>
</svg>
