<svg width="24" height="24" viewBox="0 0 24 24" fill="none" xmlns="http://www.w3.org/2000/svg">
<path d="M8.47994 4.17C8.81394 4.744 9.52694 4.968 10.1759 4.806C10.7726 4.65757 11.3851 4.58268 11.9999 4.583C12.6199 4.583 13.2229 4.658 13.7989 4.8C14.4459 4.959 15.1559 4.735 15.4899 4.16C15.8799 3.492 15.6059 2.628 14.8599 2.409C13.931 2.13691 12.9679 1.99918 11.9999 2C10.9939 2 10.0229 2.146 9.10594 2.419C8.36294 2.639 8.09094 3.502 8.47894 4.169L8.47994 4.17Z" fill="#FFC400"/>
<path d="M5.03904 4.77199C5.60304 4.23699 6.49704 4.43199 6.88704 5.10299C7.22004 5.67499 7.06304 6.39499 6.60304 6.87199C5.99321 7.50354 5.50025 8.23826 5.14704 9.04199C4.90504 9.59399 4.38504 9.99999 3.78004 9.99999C2.92604 9.99999 2.28404 9.21899 2.58904 8.42799C3.12431 7.04263 3.96121 5.79377 5.03904 4.77199Z" fill="#AD1457"/>
<path d="M3.19692 12C3.91492 12 4.51692 12.583 4.64092 13.286C5.25392 16.769 8.31592 19.416 11.9999 19.416C15.6839 19.416 18.7459 16.769 19.3589 13.286C19.4829 12.583 20.0849 12 20.8029 12C21.5219 12 22.0819 12.581 21.9899 13.289C21.3529 18.203 17.1229 22 11.9999 22C6.87692 22 2.64692 18.203 2.00992 13.289C1.91792 12.58 2.47792 12 3.19692 12Z" fill="#CFD8DC"/>
<path d="M20.203 9.95802C21.06 9.95802 21.703 9.17202 21.393 8.38002C20.8522 7.00255 20.0127 5.76212 18.935 4.74802C18.371 4.21502 17.48 4.41202 17.09 5.08102C16.757 5.65402 16.916 6.37602 17.379 6.85302C17.9884 7.47984 18.4823 8.20938 18.838 9.00803C19.081 9.55603 19.6 9.95802 20.203 9.95802Z" fill="#FF5252"/>
<path d="M7.13303 9.32C6.69103 8.832 7.18603 8.058 7.79003 8.293L12.702 10.203C13.816 10.637 14.24 12.043 13.564 13.058C13.4151 13.2888 13.2148 13.4821 12.9789 13.6228C12.743 13.7635 12.4778 13.8479 12.204 13.8694C11.9301 13.8909 11.655 13.8489 11.4001 13.7466C11.1451 13.6444 10.9172 13.4847 10.734 13.28L7.13303 9.32Z" fill="#CFD8DC"/>
</svg>
