<svg width="24" height="24" viewBox="0 0 24 24" fill="none" xmlns="http://www.w3.org/2000/svg">
<path d="M12.002 2C9.34979 2 6.80625 3.05357 4.93089 4.92893C3.05552 6.8043 2.00195 9.34784 2.00195 12C2.00195 14.6522 3.05552 17.1957 4.93089 19.0711C6.80625 20.9464 9.34979 22 12.002 22C14.6541 22 17.1977 20.9464 19.073 19.0711C20.9484 17.1957 22.002 14.6522 22.002 12C22.002 9.34784 20.9484 6.8043 19.073 4.92893C17.1977 3.05357 14.6541 2 12.002 2ZM12.141 6.419C12.569 6.419 12.925 6.518 13.211 6.713C13.499 6.909 13.742 7.153 13.942 7.444L19.652 15.706H9.02595L10.733 13.356H13.883C14.178 13.356 14.435 13.366 14.653 13.384C14.4983 13.1824 14.3505 12.9756 14.21 12.764C14.041 12.513 13.88 12.279 13.725 12.06L12.085 9.643L7.79495 15.706H4.44995L10.31 7.444C10.5 7.18 10.741 6.944 11.033 6.734C11.324 6.524 11.694 6.419 12.141 6.419Z" fill="#60A5FA"/>
</svg>
