<svg width="24" height="24" viewBox="0 0 24 24" fill="none" xmlns="http://www.w3.org/2000/svg">
<path d="M5 3C3.89 3 3 3.89 3 5V19C3 19.5304 3.21071 20.0391 3.58579 20.4142C3.96086 20.7893 4.46957 21 5 21H19C19.5304 21 20.0391 20.7893 20.4142 20.4142C20.7893 20.0391 21 19.5304 21 19V5C21 4.46957 20.7893 3.96086 20.4142 3.58579C20.0391 3.21071 19.5304 3 19 3H5ZM8.668 6.447C8.928 6.447 9.146 6.533 9.32 6.703C9.494 6.873 9.582 7.082 9.582 7.328C9.582 7.668 9.568 8.18 9.541 8.865C9.52246 9.37481 9.51146 9.88487 9.508 10.395C9.508 10.506 9.492 10.721 9.461 11.039C9.43745 11.2649 9.42643 11.4919 9.428 11.719L12.006 11.234C13.013 11.055 13.88 10.953 14.609 10.926C14.627 10.626 14.657 9.821 14.697 8.51C14.707 8.165 14.812 7.768 15.014 7.32C15.264 6.77 15.547 6.494 15.865 6.494C16.102 6.494 16.313 6.574 16.496 6.73C16.693 6.9 16.791 7.112 16.791 7.367C16.7915 7.43481 16.7831 7.50238 16.766 7.568C16.676 7.895 16.631 8.18 16.631 8.422C16.631 8.547 16.617 8.742 16.59 9.006C16.567 9.266 16.557 9.459 16.557 9.584C16.557 10.009 16.535 10.64 16.49 11.477C16.452 12.107 16.4293 12.7379 16.422 13.369C16.422 13.696 16.447 14.185 16.496 14.834C16.546 15.483 16.57 15.97 16.57 16.297C16.5723 16.4136 16.5502 16.5294 16.5053 16.637C16.4604 16.7446 16.3935 16.8416 16.309 16.922C16.2233 17.0058 16.1215 17.0715 16.0098 17.1151C15.8982 17.1588 15.7788 17.1795 15.659 17.176C15.4065 17.181 15.1614 17.0903 14.973 16.922C14.8817 16.8486 14.8083 16.7555 14.758 16.6497C14.7078 16.5439 14.6822 16.4281 14.683 16.311C14.683 15.984 14.668 15.493 14.637 14.84C14.6142 14.3503 14.6006 13.8602 14.596 13.37C14.596 13.114 14.6 12.888 14.609 12.691C13.907 12.723 13.039 12.834 12.006 13.021C11.146 13.178 10.287 13.337 9.428 13.498C9.418 13.802 9.386 14.31 9.332 15.021C9.29235 15.5328 9.27034 16.0457 9.266 16.559C9.26813 16.6757 9.24594 16.7915 9.20083 16.8991C9.15572 17.0067 9.08868 17.1037 9.004 17.184C8.91817 17.2676 8.81639 17.3331 8.70472 17.3766C8.59305 17.4201 8.47378 17.4406 8.354 17.437C8.23376 17.4407 8.114 17.4202 8.00182 17.3768C7.88965 17.3333 7.78735 17.2678 7.701 17.184C7.61632 17.1037 7.54928 17.0067 7.50417 16.8991C7.45906 16.7915 7.43687 16.6757 7.439 16.559C7.439 16.106 7.477 15.431 7.553 14.531C7.633 13.631 7.673 12.956 7.673 12.504C7.673 11.931 7.688 11.068 7.715 9.918C7.742 8.763 7.755 7.901 7.755 7.328C7.753 7.21127 7.77535 7.0954 7.82063 6.98778C7.86592 6.88017 7.93313 6.78318 8.018 6.703C8.10365 6.61893 8.20533 6.55294 8.31699 6.50896C8.42866 6.46498 8.54803 6.44391 8.668 6.447Z" fill="#14B8A6"/>
</svg>
