<svg width="24" height="24" viewBox="0 0 24 24" fill="none" xmlns="http://www.w3.org/2000/svg">
<path d="M2.98438 16.5082H4.33687V19.6639H7.49252V21.0164H2.98438V16.5082Z" fill="#64B5F6"/>
<path d="M2.98438 8.24382V12.3766L5.61351 15.0839L6.74069 13.8791L10.1217 17.2601L8.99504 18.3867L11.6247 21.0158H15.7575C16.1719 21.0158 16.5082 20.6796 16.5082 20.2646V14.2545L9.7463 7.49255H3.7362C3.32066 7.49255 2.98438 7.82884 2.98438 8.24382Z" fill="#1565C0"/>
<path d="M6.23732 13.8298C6.11459 13.7069 6.03823 13.5453 6.0212 13.3724C6.00417 13.1995 6.04753 13.0261 6.1439 12.8816L12.3052 3.65298C12.4423 3.44732 12.6281 3.27869 12.8461 3.16206C13.064 3.04542 13.3074 2.98439 13.5546 2.98438H20.2639C20.6789 2.98438 21.0152 3.32066 21.0152 3.73564V10.4449C21.0152 10.9471 20.7649 11.4158 20.3471 11.6949L11.1185 17.8562C10.9739 17.9527 10.8003 17.996 10.6273 17.9789C10.4543 17.9617 10.2926 17.8852 10.1697 17.7622L6.23732 13.8298Z" fill="#1E88E5"/>
<path d="M6.73193 16.1575L12.4683 10.4211L13.579 11.5319L7.84269 17.2682L6.73193 16.1575Z" fill="#0A44C2"/>
<path d="M6.73169 16.1572L12.4678 10.4211L13.5785 11.5319L7.84245 17.268L6.73169 16.1572Z" fill="#64B5F6"/>
<path d="M8.75944 16.3514L7.64868 15.2407L12.4682 10.4211L13.579 11.5319L8.75944 16.3514Z" fill="#42A5F5"/>
<path d="M16.5081 9.74629C17.1059 9.74623 17.6793 9.50868 18.102 9.08589C18.5247 8.66311 18.7621 8.08972 18.762 7.49187C18.762 6.89403 18.5244 6.32069 18.1016 5.89799C17.6789 5.47529 17.1055 5.23786 16.5076 5.23792C16.2116 5.23794 15.9185 5.29628 15.645 5.40959C15.3715 5.5229 15.123 5.68897 14.9137 5.89831C14.7044 6.10765 14.5384 6.35617 14.4252 6.62967C14.3119 6.90317 14.2536 7.1963 14.2537 7.49233C14.2537 7.78835 14.312 8.08147 14.4253 8.35495C14.5386 8.62843 14.7047 8.87691 14.9141 9.08621C15.3368 9.50891 15.9102 9.74635 16.5081 9.74629Z" fill="#0A44C2"/>
<path d="M16.5082 9.74634C16.8072 9.75108 17.1042 9.69628 17.3818 9.58513C17.6594 9.47398 17.9122 9.3087 18.1253 9.09892C18.3384 8.88914 18.5077 8.63905 18.6232 8.36322C18.7388 8.08738 18.7983 7.79132 18.7983 7.49227C18.7983 7.19322 18.7388 6.89715 18.6232 6.62132C18.5077 6.34549 18.3384 6.0954 18.1253 5.88562C17.9122 5.67584 17.6594 5.51056 17.3818 5.39941C17.1042 5.28826 16.8072 5.23346 16.5082 5.2382C15.9165 5.24757 15.3523 5.48918 14.9373 5.91088C14.5222 6.33258 14.2896 6.90056 14.2896 7.49227C14.2896 8.08397 14.5222 8.65196 14.9373 9.07366C15.3523 9.49536 15.9165 9.73696 16.5082 9.74634Z" fill="#90CAF9"/>
</svg>
