<svg width="24" height="24" viewBox="0 0 24 24" fill="none" xmlns="http://www.w3.org/2000/svg">
<path d="M8.8939 3.20502H14.4189L8.6839 20.197C8.62506 20.3719 8.51282 20.5238 8.36301 20.6315C8.2132 20.7391 8.03337 20.797 7.8489 20.797H3.5489C3.40922 20.7971 3.27153 20.7639 3.14725 20.7001C3.02297 20.6364 2.91567 20.5439 2.83424 20.4304C2.75282 20.3169 2.69961 20.1857 2.67903 20.0475C2.65845 19.9094 2.67109 19.7683 2.7159 19.636L8.0599 3.80402C8.11891 3.62936 8.23122 3.47762 8.38102 3.37016C8.53081 3.2627 8.71054 3.20494 8.8949 3.20502H8.8939Z" fill="#01579B"/>
<path d="M16.922 14.603H8.16203C8.08048 14.6026 8.00073 14.6269 7.93322 14.6727C7.8657 14.7184 7.81357 14.7835 7.78364 14.8593C7.75371 14.9352 7.74737 15.0183 7.76546 15.0978C7.78355 15.1773 7.82523 15.2495 7.88503 15.305L13.514 20.558C13.677 20.711 13.894 20.796 14.117 20.796H19.077L16.922 14.603Z" fill="#1976D2"/>
<path d="M15.95 3.80299C15.891 3.62887 15.7789 3.47763 15.6295 3.37053C15.48 3.26344 15.3008 3.2059 15.117 3.20599H8.95996C9.14393 3.20584 9.32333 3.26335 9.47293 3.37043C9.62252 3.47752 9.7348 3.62879 9.79396 3.80299L15.137 19.635C15.1816 19.7674 15.194 19.9085 15.1733 20.0466C15.1526 20.1847 15.0992 20.316 15.0177 20.4294C14.9362 20.5429 14.8289 20.6353 14.7046 20.699C14.5803 20.7628 14.4426 20.796 14.303 20.796H20.46C20.5996 20.7962 20.7373 20.7631 20.8616 20.6995C20.9859 20.6358 21.0933 20.5435 21.1748 20.4301C21.2563 20.3167 21.3096 20.1856 21.3303 20.0475C21.3511 19.9094 21.3386 19.7683 21.294 19.636L15.95 3.80299Z" fill="#29B6F6"/>
</svg>
