<svg width="24" height="25" viewBox="0 0 24 25" fill="none" xmlns="http://www.w3.org/2000/svg">
<path d="M18.23 11.71C18.2 11.55 17.76 11 16.91 10.06C16.89 9.87 17.2 9.61 17.81 9.26L19.55 7.71C19.94 7.21 20.17 6.43 20.24 5.33L20.22 5.07C20.15 4.29 19.59 3.67 18.53 3.18C17.9 2.76 16.77 2.53 15.15 2.5C13.8 2.61 12.04 3.09 9.87001 3.93C9.27001 4.36 8.59001 4.79 7.83001 5.21L7.84001 5.35L8.05001 5.27C8.13001 5.26 8.18001 5.3 8.19001 5.38L8.32001 5.31L8.39001 5.3L8.40001 5.36C8.40001 5.43 7.93001 5.8 6.64001 6.71L6.58001 6.83C6.27001 6.85 5.97001 7.08 5.67001 7.5L5.75001 7.62L6.00001 7.53L6.18001 7.77C6.50001 7.44 6.84001 7.15 7.21001 6.9C7.40001 6.95 7.50001 7.01 7.65001 7.06C8.67001 6.31 9.68001 5.76 10.69 5.42L10.7 5.56C10.5 5.83 10.38 5.98 10.32 5.98L10.42 6.21C10.43 6.4 7.87001 13.21 3.76001 20.65L3.84001 20.84C4.19001 20.76 4.42001 20.67 4.59001 20.58L4.60001 20.71L5.00001 20.68L4.33001 22.44L4.47001 22.5C5.04001 21.86 5.47001 21.21 5.77001 20.62C7.44001 20.13 8.71001 19.65 9.59001 19.18C10.47 19.1 11.15 18.87 11.61 18.48L12.53 18.01C13.8 17.03 14.75 16.34 15.4 15.93C16.73 14.95 17.6 14 18 13.08L18.23 11.71ZM14.77 14.02L13 15.41C11.71 16.26 11 16.71 10.91 16.71C8.84001 17.84 7.55001 18.43 7.05001 18.47L7.00001 18.48C7.04001 18.25 7.96001 16.36 9.75001 12.81C10.53 12.75 11.77 12.38 13.46 11.71L13.87 11.68C14.72 11.6 15.36 11.77 15.78 12.17L15.81 12.43C15.5 13.33 15.14 13.87 14.77 14.02ZM15.86 8.24C15.68 8.46 15.18 8.83 14.36 9.35C14.09 9.38 13.09 9.77 11.35 10.53L11.07 10.48L11.06 10.36C11.04 10.11 11.15 9.79 11.4 9.41C11.53 8.71 11.68 8.29 11.84 8.21L13.29 4.93C13.27 4.71 13.58 4.58 14.22 4.47L14.43 4.45L14.44 4.63L15.6 4.47C16.75 4.37 17.35 4.61 17.4 5.17L17.53 5.15L17.5 4.83L17.65 4.81C18 5 18.17 5.21 18.19 5.49C18.21 5.67 18.11 5.9 17.9 6.17C17.81 6.18 17.76 6.11 17.75 5.99L17.61 6L17.58 6.4C17 7.27 16.57 7.71 16.31 7.74L15.86 8.24Z" fill="#FDD835"/>
</svg>
