<svg width="24" height="24" viewBox="0 0 24 24" fill="none" xmlns="http://www.w3.org/2000/svg">
<path d="M7.19496 2.38983L12 7.19489L7.19496 12L2.38989 7.19489L7.19496 2.38983Z" fill="#81C784"/>
<path d="M2.38989 7.19489V11.9999L7.19496 16.805V11.9999L2.38989 7.19489Z" fill="#43A047"/>
<path d="M16.8051 2.38983L21.6101 7.19489L16.8051 12L12 7.19489L16.8051 2.38983Z" fill="#81C784"/>
<path d="M21.61 7.19489V11.9999L16.8049 16.805V11.9999L21.61 7.19489ZM11.9999 7.19489L16.8049 11.9999L11.9999 16.805L7.19482 11.9999L11.9999 7.19489Z" fill="#43A047"/>
<path d="M11.9999 16.805V21.6101L7.19482 16.805V11.9999L11.9999 16.805Z" fill="#2E7D32"/>
<path d="M12 16.805L16.8051 11.9999V16.805L12 21.6101V16.805Z" fill="#1B5E20"/>
</svg>
