<svg width="24" height="25" viewBox="0 0 24 25" fill="none" xmlns="http://www.w3.org/2000/svg">
<path d="M18.4897 13.7742C18.3086 13.3822 18.0694 13.0198 17.7801 12.6992C17.6349 12.5625 17.4807 12.4347 17.3261 12.3029C17.2515 12.2367 17.2381 12.1706 17.3087 12.1089C17.6918 11.7861 18.0012 11.3849 18.2162 10.9324C18.3834 10.5547 18.4919 10.1536 18.5379 9.74301C18.5633 9.51898 18.5633 9.29279 18.5379 9.06876C18.4909 8.56057 18.438 8.22277 18.3793 8.05536C18.3412 7.90255 18.303 7.76895 18.2649 7.65456C17.7801 6.4124 16.6653 5.57505 15.9428 5.14342C15.7209 5.03861 15.4929 4.94729 15.26 4.86997C14.858 4.74011 14.4453 4.64591 14.0268 4.58847C13.7178 4.53643 13.4054 4.50687 13.092 4.5H5.04297V8.17869H12.8677C13.1258 8.17944 13.383 8.20911 13.6345 8.26716C13.9692 8.33731 14.2556 8.4785 14.4142 8.80424C14.4735 8.96684 14.5062 9.13792 14.5112 9.31093V9.68135C14.4794 9.85884 14.3932 10.022 14.2645 10.1483C13.9997 10.3612 13.6704 10.4778 13.3306 10.4789C12.731 10.5227 12.1274 10.4879 11.5237 10.4964H5.04297V20.4931H8.72166C8.8365 20.4931 8.85392 20.4489 8.85392 20.3474V14.3824C8.85392 14.0607 8.85392 14.0607 9.17117 14.0607H13.1318C13.5684 14.0413 14.0025 14.1353 14.3919 14.3337C14.3991 14.3361 14.4069 14.3361 14.4142 14.3337L14.542 14.4525C14.7323 14.6253 14.8661 14.8514 14.9258 15.1014C14.9856 15.3514 14.9686 15.6136 14.8771 15.8537C14.7903 16.0781 14.6402 16.2725 14.445 16.4132C14.1078 16.6385 13.7137 16.7638 13.3083 16.7746C12.8061 16.7836 12.3038 16.7746 11.8016 16.7746C11.6738 16.7746 11.6385 16.814 11.6385 16.9333V20.1848C11.6385 20.4931 11.6385 20.5065 11.9513 20.4931C12.62 20.5117 13.2892 20.4926 13.9558 20.4359C14.6489 20.3388 15.2393 20.2211 15.727 20.0829C15.7375 20.0789 15.748 20.0746 15.7582 20.07C16.3022 19.8898 16.8138 19.6235 17.2734 19.2813C17.5509 19.0902 17.7924 18.8517 17.987 18.5767C18.0039 18.564 18.019 18.5489 18.0317 18.532C18.3659 18.1094 18.6086 17.6218 18.7444 17.1004C18.8248 16.7961 18.8867 16.4872 18.9298 16.1755C19.0247 15.3505 18.8713 14.516 18.4892 13.7787L18.4897 13.7742Z" fill="#FBBF24"/>
</svg>
