<svg width="24" height="24" viewBox="0 0 24 24" fill="none" xmlns="http://www.w3.org/2000/svg">
<path d="M2.98538 3.33251C2.89525 3.33135 2.80597 3.34993 2.72379 3.38694C2.64161 3.42396 2.56853 3.47852 2.50967 3.54679C2.45082 3.61505 2.40763 3.69537 2.38313 3.78211C2.35862 3.86885 2.3534 3.9599 2.36783 4.04887L4.98932 19.9631C5.02199 20.1579 5.12222 20.3349 5.27243 20.4631C5.42264 20.5912 5.6132 20.6624 5.81066 20.664H18.3871C18.5351 20.6659 18.6789 20.6146 18.7922 20.5194C18.9056 20.4242 18.9809 20.2914 19.0046 20.1453L21.6323 4.05504C21.6467 3.96607 21.6415 3.87502 21.617 3.78829C21.5925 3.70155 21.5493 3.62123 21.4904 3.55296C21.4316 3.48469 21.3585 3.43014 21.2763 3.39312C21.1941 3.3561 21.1049 3.33752 21.0147 3.33869L2.98538 3.33251ZM14.0241 14.8344H10.01L8.92311 9.15909H14.9967L14.0241 14.8344Z" fill="#1E88E5"/>
<path d="M20.7924 9.15906H14.9967L14.024 14.8343H10.01L5.27026 20.4633C5.42049 20.5932 5.61202 20.6654 5.81062 20.6671H18.3901C18.5381 20.669 18.6819 20.6177 18.7952 20.5225C18.9086 20.4272 18.984 20.2945 19.0076 20.1483L20.7924 9.15906Z" fill="url(#paint0_linear_808_245)"/>
<defs>
<linearGradient id="paint0_linear_808_245" x1="22.1324" y1="10.7462" x2="12.5543" y2="18.2247" gradientUnits="userSpaceOnUse">
<stop offset="0.18" stop-color="#1565C0"/>
<stop offset="1" stop-color="#1E88E5"/>
</linearGradient>
</defs>
</svg>
