<svg width="24" height="24" viewBox="0 0 24 24" fill="none" xmlns="http://www.w3.org/2000/svg">
<path d="M21.0443 11.1698C20.9651 10.3883 20.7908 9.59107 20.5427 8.84659C19.8299 6.71875 18.5046 4.53811 16.8308 3.03331C16.7569 2.96995 16.477 2.80099 16.3715 2.85907C16.0969 3.01219 16.6143 4.06291 16.6777 4.25299C17.0684 5.41459 17.3166 6.64483 17.0367 7.85923C16.6619 9.46435 15.4316 10.589 13.7895 10.7263C12.8867 10.8002 11.9785 10.6999 11.0756 10.8055C9.72393 10.9639 8.34585 11.4285 7.48521 12.5373C7.38489 12.664 7.29513 12.8066 7.21065 12.9544H7.18953C6.85689 12.9914 6.52425 12.8488 6.36057 12.7591C6.31833 12.7327 6.27609 12.7115 6.24441 12.6957C5.24121 12.1413 4.50201 10.9005 4.04793 9.87619C3.84201 9.40099 3.66777 8.90467 3.55689 8.40307C3.50409 8.17603 3.49881 7.93843 3.48825 7.70611C3.48297 7.56355 3.50409 7.36291 3.42489 7.23619C3.25065 6.96163 3.02889 7.22563 2.99193 7.44739C2.93385 7.81171 2.88105 8.17075 2.89689 8.54035C2.92329 9.16339 3.09753 9.78115 3.31929 10.3619C3.64665 11.2173 4.10601 12.004 4.70265 12.7063C4.95081 12.9967 5.21481 13.2659 5.49993 13.5141C5.75337 13.7411 6.07545 13.9207 6.26553 14.2111C6.48729 14.5437 6.52425 14.9555 6.50313 15.341C6.45033 16.36 6.41865 17.3157 6.70905 18.3083C6.96249 19.1901 7.27929 20.093 7.80729 20.848C8.07129 21.2229 8.39865 21.6189 8.75769 21.8987C9.00057 22.0888 9.45993 22.1099 9.19593 21.413C8.60985 19.8659 8.55705 18.2608 9.47049 16.8141C10.2361 15.6103 11.5878 14.5384 13.1137 14.7285C15.3577 15.0083 16.9206 17.0675 16.8097 19.2693C16.778 19.8871 16.7569 20.4151 16.5615 20.9959C16.4823 21.2282 16.4242 21.5239 16.4823 21.7667C16.5774 22.1786 17.0367 22.0255 17.2374 21.7562C17.7812 21.017 18.3515 20.2989 18.8636 19.5386C20.5321 17.0464 21.3452 14.1635 21.0443 11.1698Z" fill="#F87171"/>
<path d="M8.47261 5.10309C8.50957 5.22453 8.54653 5.35653 8.57293 5.49909C8.57821 5.55717 8.59405 5.62053 8.62573 5.67861C8.76301 6.03765 9.09565 6.23301 9.40717 6.41781C9.59725 6.53397 9.94045 6.64485 10.1517 6.72933C10.4262 6.84021 11.0176 6.69765 11.2974 6.67653C11.9416 6.62373 12.5382 6.39669 13.1296 6.73989C10.0989 10.2933 12.9606 11.0853 15.1782 9.37461C17.7126 7.42101 15.3261 2.81157 15.3261 2.81157C15.3261 2.81157 15.2733 2.45253 14.3123 2.24133C14.2246 2.19479 14.1348 2.1525 14.043 2.11461C13.0926 1.67637 12.2373 2.39445 11.5509 2.98053C11.3502 3.14949 11.1549 3.31845 10.9437 3.47685C10.6585 3.68805 10.3523 3.86229 10.0302 4.01541C9.69229 4.17381 9.29101 4.35333 8.91613 4.36917C8.86333 4.36917 8.76301 4.37973 8.65741 4.40085C8.49373 4.41669 8.40925 4.45893 8.37229 4.53285C8.30893 4.58565 8.26669 4.65957 8.27725 4.75461C8.28781 4.88661 8.35117 4.99749 8.41981 5.08197C8.44093 5.08725 8.45677 5.09781 8.47261 5.10309Z" fill="#F87171"/>
</svg>
