<svg width="24" height="24" viewBox="0 0 24 24" fill="none" xmlns="http://www.w3.org/2000/svg">
<path d="M12.2789 2.19218C17.6985 2.34443 21.9597 6.85924 21.8075 12.2788C21.6552 17.6984 17.1404 21.9596 11.7209 21.8075C6.30975 21.6552 2.04853 17.1572 2.19225 11.7462C2.33597 6.32655 6.84244 2.04846 12.2619 2.19218H12.2789ZM12.2282 3.20683C7.37513 3.07999 3.33366 6.9184 3.21535 11.78C3.0885 16.6331 6.92691 20.6745 11.7801 20.7928C16.6331 20.9197 20.6746 17.0813 20.7929 12.2281C20.9282 7.36661 17.0898 3.33358 12.2282 3.20683Z" fill="#F59E0B"/>
<path d="M12.9282 8.75656C12.5392 9.12856 12.6915 9.95712 13.2918 10.5912C13.892 11.2254 14.7206 11.4198 15.0926 11.0394C15.4646 10.6589 15.3463 9.82184 14.7375 9.18772C14.1288 8.55359 13.2917 8.36759 12.9028 8.73959L12.9282 8.75656ZM17.8235 6.39762C18.593 7.20087 19.1764 8.15619 19.5484 9.19615C19.5484 9.19615 19.802 9.88944 18.9988 9.88944H17.0373C17.0373 9.88944 16.4116 9.83881 16.3863 10.3713C16.344 11.0308 16.361 11.5889 16.361 11.5889C16.3863 11.9694 16.53 12.3414 16.7667 12.6373L18.7874 14.768C18.946 14.9135 19.0444 15.113 19.0632 15.3274C19.0819 15.5418 19.0197 15.7555 18.8888 15.9263C17.8658 17.668 16.2256 18.9531 14.2895 19.5365C13.6975 19.7141 13.6384 19.2321 13.6552 18.9024C13.6552 18.691 13.9005 13.9902 13.9005 13.9902C13.9681 13.4829 13.8075 12.9672 13.4524 12.5951C12.8182 11.9187 12.4208 11.4875 12.4208 11.4875C12.4208 11.4875 11.9727 11.0394 11.3301 10.3715C10.975 10.0079 10.4847 9.82194 9.97733 9.85578H5.06511C4.74383 9.85578 4.25342 9.77965 4.46483 9.19625C5.14967 7.29387 6.51936 5.72131 8.3202 4.79975C8.68377 4.54615 9.18261 4.61375 9.47005 4.96044L11.4907 7.09109C11.7782 7.34469 12.1417 7.49694 12.5223 7.53922C12.5223 7.53922 13.0718 7.5814 13.7398 7.57297C14.264 7.57297 14.2555 6.93884 14.2555 6.93884C14.2555 6.93884 14.3401 5.63684 14.3655 4.97731C14.3402 4.69831 14.543 4.45315 14.8136 4.42775C14.9065 4.41931 14.9911 4.43619 15.0756 4.47003C16.1072 4.90972 17.0456 5.56072 17.815 6.3724L17.8235 6.39762Z" fill="#F59E0B"/>
</svg>
