<svg width="24" height="24" viewBox="0 0 24 24" fill="none" xmlns="http://www.w3.org/2000/svg">
<path d="M8.61306 11.997C9.94606 11.997 11.2011 12.618 12.0021 13.674L15.4561 18.226C15.4879 18.2681 15.5071 18.3183 15.5115 18.3709C15.516 18.4235 15.5054 18.4762 15.4811 18.523L13.4901 22.348C13.4678 22.3902 13.4353 22.4261 13.3956 22.4524C13.3558 22.4788 13.31 22.4947 13.2625 22.4987C13.215 22.5026 13.1672 22.4946 13.1236 22.4753C13.08 22.4559 13.042 22.4259 13.0131 22.388L5.11206 11.998H8.61306V11.997ZM10.9881 1.612L18.8881 12.002H15.3881C14.732 12.003 14.0846 11.8523 13.4965 11.5615C12.9084 11.2708 12.3956 10.8479 11.9981 10.326L8.54606 5.774C8.51413 5.73198 8.49482 5.68173 8.4904 5.62913C8.48597 5.57654 8.4966 5.52377 8.52106 5.477L10.5111 1.652C10.5332 1.60959 10.5658 1.57348 10.6056 1.547C10.6455 1.52053 10.6914 1.50455 10.7391 1.50056C10.7867 1.49657 10.8347 1.50469 10.8784 1.52418C10.9221 1.54366 10.9602 1.57387 10.9891 1.612H10.9881Z" fill="#A855F7"/>
</svg>
