<svg width="24" height="24" viewBox="0 0 24 24" fill="none" xmlns="http://www.w3.org/2000/svg">
<path d="M22.61 11.7756C21.4753 10.6853 15.8008 10.0046 14.0104 9.80651C14.0977 9.59986 14.1717 9.38782 14.2319 9.17171C14.476 9.06491 14.7395 8.96543 15.0119 8.88239C15.0451 8.98031 15.2014 9.35549 15.2905 9.53357C18.8908 9.63287 19.0756 6.85811 19.222 6.09797C19.3652 5.35463 19.3579 4.63643 20.5928 3.32351C18.7531 2.78735 16.1073 4.15451 15.221 6.18923C14.888 6.06443 14.5542 5.97233 14.2241 5.91533C13.9876 4.96103 12.7557 2.30243 9.52301 2.30243C5.43011 2.30243 0.968994 5.67899 0.968994 11.3949C0.968994 16.1996 4.24931 20.4104 6.10253 20.4104C6.91193 20.4104 7.60817 19.8042 7.77161 19.2609C7.90865 19.6335 8.32913 20.7915 8.46719 21.0864C8.67131 21.5224 9.61523 21.8996 10.0283 21.4472C10.5594 21.7423 11.534 21.92 12.0651 21.1331C13.088 21.3495 13.9923 20.7395 14.0121 20.0117C14.514 19.9848 14.7602 19.2801 14.6506 18.7188C14.5699 18.3056 13.7067 16.8229 13.37 16.3111C14.0365 16.8532 15.7246 17.0066 15.9296 16.3114C17.0042 17.1548 18.6787 16.7121 18.8114 16.0262C20.1171 16.3655 21.6146 15.6204 21.3687 14.718C23.4662 14.573 23.1977 12.3414 22.6092 11.7758L22.61 11.7756Z" fill="black"/>
<path d="M16.7696 7.01612C17.2214 6.11984 17.789 5.14112 18.506 4.53572C17.7168 4.85372 16.9377 5.80448 16.477 6.8207C16.247 6.6742 16.0087 6.54106 15.7634 6.42194C16.406 5.05022 17.8993 3.90464 19.5449 3.81512C18.4427 4.81484 18.8339 6.89252 17.9277 7.9925C17.6684 7.73198 17.0729 7.2293 16.7696 7.01612ZM16.0571 8.47568C16.0576 8.44136 16.0704 8.17682 16.0945 8.05604C16.0313 8.04116 15.6384 7.9643 15.4336 7.9691C15.4187 8.22638 15.5417 8.66396 15.6633 8.92742C16.5006 8.9099 17.1054 8.6591 17.4614 8.42858C17.1584 8.28734 16.6412 8.1617 16.248 8.08658C16.2041 8.17736 16.0961 8.40866 16.0571 8.47568Z" fill="#60A5FA"/>
<path d="M12.9459 15.5669C12.9461 15.5681 12.9466 15.5697 12.9467 15.5709C12.8406 15.3425 12.7279 15.0651 12.5933 14.7025C13.1174 15.4654 14.76 15.0719 14.6739 14.3883C15.4779 14.9933 17.1329 14.2876 16.7566 13.4393C17.562 13.8146 18.4813 13.0594 18.2751 12.7304C19.6482 12.9952 20.9641 13.2592 21.3772 13.3649C21.1028 13.8123 20.4778 14.1282 19.5358 13.9087C20.0448 14.6021 19.0565 15.4341 17.6799 14.9758C17.983 15.6566 16.7573 16.2694 15.3643 15.5598C15.382 16.241 13.6361 16.3194 12.9459 15.5669V15.5669ZM15.6697 12.1246C17.2633 12.247 19.8988 12.4846 21.5304 12.7129C21.4273 12.1819 21.1458 12.0303 20.26 11.7924C19.3074 11.894 16.8907 12.1314 15.6697 12.1247L15.6697 12.1246Z" fill="#14B8A6"/>
<path d="M14.6739 14.3885C15.4779 14.9935 17.1329 14.2877 16.7567 13.4395C17.5621 13.8148 18.4813 13.0596 18.2752 12.7306C16.6518 12.4176 14.9483 12.1035 14.5619 12.0485C14.7963 12.061 15.1848 12.0876 15.6697 12.1248C16.8908 12.1316 19.3075 11.8942 20.2601 11.7926C18.7177 11.4015 15.5686 10.8308 13.394 10.6902C13.2932 10.8375 13.1079 11.0873 12.7853 11.3527C11.8337 13.3659 10.1098 14.7041 8.20229 14.7041C7.64643 14.7041 7.02446 14.6103 6.32736 14.3875C5.89262 14.8532 4.03911 15.2062 2.53516 14.468C3.7281 17.2613 6.49463 19.126 9.55717 19.126C12.1362 19.126 13.2799 16.4923 13.0296 15.7955C12.9689 15.6263 12.7282 15.0653 12.5936 14.7027C13.1177 15.4656 14.7604 15.0721 14.6743 14.3885L14.6739 14.3885Z" fill="#F59E0B"/>
<path d="M13.1111 9.0878C13.3389 8.96392 14.1258 8.48691 14.8756 8.30767C14.8637 8.22434 14.8549 8.14058 14.8494 8.05659C14.3574 8.17443 13.4299 8.57199 12.8984 8.02417C14.0197 8.36255 14.5796 7.72263 15.4038 7.72263C15.8949 7.72263 16.5957 7.85984 17.1482 8.07669C16.7038 7.66623 15.2468 6.42748 13.4428 6.42322C13.04 6.91151 12.6047 7.96925 13.1111 9.08775L13.1111 9.0878Z" fill="#CECECE"/>
<path d="M6.32745 14.387C7.02455 14.6099 7.64652 14.7037 8.20239 14.7037C10.1098 14.7037 11.8338 13.3654 12.7854 11.3523C12.0816 11.9396 10.8585 12.4423 8.94843 12.4423C10.6498 12.0566 12.1144 11.2087 12.8595 9.96938C12.3358 9.1358 11.7677 7.29166 13.2062 5.83385C12.9849 5.12292 11.9079 3.24622 9.52357 3.24622C5.36254 3.24622 1.91406 6.72809 1.91406 11.3942C1.91406 12.4988 2.13705 13.5348 2.5354 14.4672C4.03925 15.2055 5.89276 14.8526 6.3275 14.3868L6.32745 14.387Z" fill="#F87171"/>
<path d="M7.57544 7.28215C7.57544 8.34357 8.43589 9.20407 9.49731 9.20407C10.5587 9.20407 11.4193 8.34352 11.4193 7.28215C11.4193 6.22073 10.5587 5.36023 9.49731 5.36023C8.43589 5.36023 7.57544 6.22073 7.57544 7.28215Z" fill="#F59E0B"/>
<path d="M8.34692 7.28214C8.34692 7.9176 8.86219 8.43276 9.49755 8.43276C10.1331 8.43276 10.6482 7.91755 10.6482 7.28214C10.6482 6.64663 10.1331 6.13147 9.49755 6.13147C8.86214 6.13147 8.34692 6.64668 8.34692 7.28214Z" fill="#010101"/>
<path d="M9.49743 7.18869C9.86774 7.18869 10.1679 7.00205 10.1679 6.77181C10.1679 6.54157 9.86774 6.35492 9.49743 6.35492C9.12711 6.35492 8.8269 6.54157 8.8269 6.77181C8.8269 7.00205 9.12711 7.18869 9.49743 7.18869Z" fill="white"/>
</svg>
