<svg width="24" height="24" viewBox="0 0 24 24" fill="none" xmlns="http://www.w3.org/2000/svg">
<path d="M21.0849 13.343C21.1273 14.076 20.9834 14.8079 20.6665 15.4702C20.3497 16.1326 19.8702 16.704 19.2729 17.131L20.0109 18.56C20.2309 18.991 20.2609 19.5 20.0689 19.95C19.9782 20.1735 19.8404 20.3748 19.6649 20.5403C19.4894 20.7058 19.2804 20.8315 19.0519 20.909L18.2939 21.149C17.9785 21.2554 17.6379 21.2618 17.3186 21.1675C16.9994 21.0732 16.717 20.8827 16.5099 20.622L14.4779 18.224C13.6207 18.0778 12.8151 17.7146 12.1379 17.169C11.6719 17.3122 11.1874 17.3863 10.6999 17.389C9.84186 17.3887 9.00465 17.1244 8.30193 16.632C7.79849 16.7832 7.27445 16.8544 6.74893 16.843C5.99207 16.8494 5.24171 16.7028 4.54293 16.412C3.8691 16.1114 3.29334 15.6273 2.88136 15.0152C2.46938 14.4031 2.23776 13.6874 2.21293 12.95C2.13593 12.26 2.25093 11.56 2.54893 10.926C2.26818 10.2117 2.24414 9.42207 2.48093 8.692C2.83921 7.78567 3.49514 7.02818 4.34093 6.544C4.89793 4.924 6.46093 3.84 8.17793 3.955C8.9238 3.25647 9.88938 2.83907 10.9092 2.7743C11.9291 2.70953 12.9397 3.00144 13.7679 3.6C14.175 3.49277 14.594 3.43799 15.0149 3.437C15.6577 3.4218 16.2953 3.55595 16.8774 3.8289C17.4596 4.10185 17.9705 4.50615 18.3699 5.01C19.3263 5.26148 20.1764 5.81395 20.7946 6.58576C21.4128 7.35758 21.7663 8.3078 21.8029 9.296C21.8512 10.3586 21.5625 11.4093 20.9779 12.298C21.0449 12.643 21.0849 12.988 21.0849 13.343ZM16.2889 11.991C16.8359 12.058 17.2669 12.471 17.2669 13.017C17.2669 13.2713 17.1659 13.5153 16.986 13.6951C16.8062 13.875 16.5623 13.976 16.3079 13.976H15.7039C15.3981 14.8369 14.8607 15.5968 14.1509 16.172C14.3909 16.258 14.6399 16.306 14.8889 16.373C19.8089 16.306 19.2329 13.305 19.2329 13.257C19.2074 12.5982 18.9213 11.9765 18.4375 11.5287C17.9536 11.0809 17.3117 10.8436 16.6529 10.869C16.3988 10.8687 16.1551 10.7676 15.9755 10.5878C15.7958 10.4079 15.6949 10.1642 15.6949 9.91C15.6949 9.65583 15.7958 9.41206 15.9755 9.23224C16.1551 9.05242 16.3988 8.95127 16.6529 8.951C17.8329 8.98 18.9649 9.421 19.8469 10.198C19.8965 9.91601 19.9219 9.63031 19.9229 9.344C19.8659 8.155 19.3289 7.12 17.1709 6.918C15.9729 4.08 12.9509 5.652 12.9509 6.535C12.9229 6.755 13.1529 7.225 13.1909 7.254C13.317 7.25387 13.4418 7.27858 13.5582 7.32671C13.6747 7.37485 13.7805 7.44547 13.8697 7.53453C13.9588 7.6236 14.0296 7.72936 14.0778 7.84578C14.1261 7.96219 14.1509 8.08698 14.1509 8.213C14.1501 8.46727 14.0487 8.71089 13.8688 8.8906C13.6889 9.0703 13.4452 9.17147 13.1909 9.172C12.6869 9.152 12.2043 8.96283 11.8209 8.635C11.3599 8.932 10.8329 9.115 10.2859 9.172C9.73893 9.22 9.28893 8.836 9.25993 8.309C9.2422 8.18371 9.25028 8.05612 9.28368 7.93406C9.31708 7.81201 9.37508 7.69807 9.45413 7.59926C9.53318 7.50045 9.6316 7.41885 9.74335 7.35948C9.85509 7.3001 9.9778 7.26421 10.1039 7.254C10.2569 7.234 11.0049 7.12 11.0049 6.515C11.0049 5.883 11.2449 5.278 11.6569 4.799C10.7749 4.559 9.82593 4.876 8.86693 6.036C7.10193 5.758 6.38293 5.998 5.85593 7.868C4.94493 8.318 4.46593 8.635 4.25393 9.594C5.28551 9.38458 6.35509 9.46771 7.34193 9.834C7.57943 9.92474 7.77182 10.1051 7.87767 10.3363C7.98353 10.5674 7.99439 10.8309 7.90793 11.07C7.81893 11.3091 7.63861 11.503 7.40664 11.6092C7.17466 11.7153 6.91002 11.725 6.67093 11.636C5.9712 11.3299 5.17954 11.3095 4.46493 11.579C4.15793 11.838 4.15793 12.375 4.15793 12.797C4.15793 13.507 4.51293 14.167 5.11793 14.551C5.62512 14.8108 6.18813 14.9426 6.75793 14.935C6.61377 14.6857 6.48842 14.426 6.38293 14.158C6.3002 13.9096 6.31867 13.6387 6.43435 13.4039C6.55002 13.169 6.75358 12.9892 7.00091 12.9035C7.24823 12.8177 7.51939 12.8328 7.75563 12.9456C7.99186 13.0584 8.17413 13.2597 8.26293 13.506C8.64593 14.599 9.62393 15.347 10.7749 15.472C11.4218 15.4391 12.0478 15.2318 12.5865 14.8722C13.1252 14.5125 13.5565 14.0139 13.8349 13.429C14.0549 12.106 15.1189 11.991 16.2889 11.991ZM18.2069 19.154L17.6119 17.908L16.9319 18.061L17.8899 19.26L18.2069 19.154ZM13.7469 10.898C13.7556 10.653 13.67 10.414 13.5078 10.2303C13.3456 10.0465 13.1191 9.93186 12.8749 9.91C12.1975 9.87109 11.5322 10.1023 11.0249 10.553C10.7552 10.8301 10.5447 11.1592 10.4062 11.5202C10.2676 11.8812 10.2039 12.2666 10.2189 12.653C10.2189 12.9073 10.32 13.1513 10.4998 13.3311C10.6797 13.511 10.9236 13.612 11.1779 13.612C11.3043 13.6132 11.4296 13.5892 11.5466 13.5414C11.6635 13.4935 11.7698 13.4228 11.8591 13.3334C11.9484 13.244 12.019 13.1377 12.0667 13.0207C12.1144 12.9037 12.1383 12.7784 12.1369 12.652C12.1369 12.394 12.2039 12.135 12.3569 11.924C12.4732 11.8286 12.6196 11.7776 12.7699 11.78C13.2969 11.809 13.7479 11.416 13.7479 10.898H13.7469Z" fill="#F472B6"/>
</svg>
