<svg width="24" height="24" viewBox="0 0 24 24" fill="none" xmlns="http://www.w3.org/2000/svg">
<path d="M11.9999 22.2562C17.6642 22.2562 22.2561 17.6644 22.2561 12C22.2561 6.33564 17.6642 1.74377 11.9999 1.74377C6.33552 1.74377 1.74365 6.33564 1.74365 12C1.74365 17.6644 6.33552 22.2562 11.9999 22.2562Z" fill="#F59E0B"/>
<path d="M11.1709 3.24976C10.3327 3.84358 9.65174 4.70827 9.14963 5.69467C8.77283 5.30381 8.4322 4.82896 8.10203 4.20804C7.53323 5.06107 7.20786 6.10918 7.0918 7.20736C6.6106 6.9785 6.1318 6.66221 5.61237 6.21067C5.38711 7.2101 5.45894 8.30484 5.74386 9.37113C5.20146 9.3329 4.62991 9.20827 3.96786 8.96724C4.11614 9.9821 4.57609 10.9793 5.22494 11.8731C4.71443 12.0248 4.14717 12.1102 3.45923 12.1222C3.96306 13.0193 4.753 13.7875 5.683 14.3902C5.25357 14.726 4.74391 15.0166 4.08889 15.2813C4.87677 15.9353 5.88443 16.3683 6.96306 16.5987C6.68534 17.0525 6.3214 17.495 5.81894 17.9633C6.78751 18.2911 7.88123 18.3346 8.96929 18.1639C8.87397 18.695 8.69054 19.2463 8.38437 19.8739H8.38471C9.40934 19.8327 10.4491 19.4796 11.4058 18.9276C11.5087 19.4604 11.5361 20.0436 11.4747 20.7435C13.5399 19.8538 15.1424 17.5484 15.7081 15.2662C15.8624 14.8534 15.9456 14.258 15.9456 13.4319C15.9456 13.2103 15.9403 12.998 15.9325 12.7899C17.6026 12.5062 18.8192 11.9326 19.5178 11.5231C19.7739 11.3727 20.0338 11.1519 20.1171 10.9711V10.9707C20.2233 10.8451 20.2922 10.6923 20.3159 10.5295C20.3395 10.3667 20.317 10.2005 20.2509 10.0499C20.1849 9.89927 20.0779 9.7702 19.9421 9.67736C19.8063 9.58452 19.6472 9.53164 19.4828 9.52473C19.2806 9.5166 19.0818 9.57849 18.9199 9.69995C18.7581 9.82141 18.643 9.995 18.5943 10.1914C17.2366 9.48478 15.6835 8.0525 16.0608 5.98267C16.3429 5.58856 16.7374 5.19358 17.2831 4.77993C16.2627 4.66027 15.1786 4.84713 14.1456 5.24398C14.1293 4.70656 14.1936 4.13107 14.3619 3.45598C13.3717 3.7085 12.4313 4.26736 11.612 5.00227C11.4029 4.50478 11.256 3.94284 11.1709 3.24976ZM15.7078 6.60238C15.7052 7.65101 16.1617 8.59576 16.9784 9.39341C17.7269 10.1246 18.7657 10.6877 19.5941 10.9011C19.6452 10.9574 19.6508 11.0259 19.5881 11.1214C19.5209 11.1735 19.4467 11.2248 19.3693 11.27C18.5787 11.7336 17.6112 12.1304 16.4773 12.3854C16.2936 12.4265 16.1081 12.4639 15.9202 12.4966C15.8748 11.6489 15.7748 10.9121 15.6764 10.2466C15.7617 10.2626 15.8495 10.2594 15.9334 10.2373C16.0173 10.2152 16.0953 10.1747 16.1617 10.1188C16.228 10.0629 16.2812 9.99301 16.3172 9.91408C16.3533 9.83516 16.3714 9.74921 16.3702 9.66244C16.369 9.57567 16.3486 9.49025 16.3104 9.41235C16.2721 9.33444 16.2171 9.26599 16.1492 9.21195C16.0813 9.1579 16.0023 9.1196 15.9178 9.09981C15.8333 9.08002 15.7455 9.07924 15.6607 9.09753C15.7418 9.12016 15.8127 9.17006 15.8613 9.23883C15.91 9.30759 15.9335 9.39102 15.9279 9.47508C15.9222 9.55913 15.8878 9.63868 15.8304 9.70033C15.773 9.76199 15.6961 9.80198 15.6127 9.81358C15.4224 8.53901 15.2972 7.54764 15.7078 6.60238Z" fill="black"/>
</svg>
