<svg width="24" height="24" viewBox="0 0 24 24" fill="none" xmlns="http://www.w3.org/2000/svg">
<path d="M11.9999 1.74377C9.27976 1.74377 6.67105 2.82434 4.74763 4.74775C2.82422 6.67117 1.74365 9.27988 1.74365 12C1.74365 14.7201 2.82422 17.3288 4.74763 19.2523C6.67105 21.1757 9.27976 22.2562 11.9999 22.2562C14.72 22.2562 17.3287 21.1757 19.2521 19.2523C21.1755 17.3288 22.2561 14.7201 22.2561 12C22.2561 9.27988 21.1755 6.67117 19.2521 4.74775C17.3287 2.82434 14.72 1.74377 11.9999 1.74377ZM11.1709 3.24977C11.2559 3.94286 11.4026 4.50515 11.6118 5.00229C12.431 4.26737 13.3715 3.70869 14.3617 3.456C14.1935 4.13109 14.129 4.70657 14.1455 5.244C15.1785 4.84732 16.2625 4.66046 17.2826 4.78012C16.7371 5.19377 16.3429 5.58875 16.0607 5.98269C15.6834 8.05252 17.2363 9.48497 18.5942 10.1914C18.643 9.99505 18.758 9.8215 18.9199 9.70007C19.0818 9.57865 19.2806 9.51678 19.4827 9.52492C19.6471 9.53183 19.8062 9.58471 19.942 9.67755C20.0778 9.77039 20.1848 9.89946 20.2509 10.0501C20.3169 10.2007 20.3394 10.3669 20.3158 10.5297C20.2921 10.6924 20.2232 10.8453 20.117 10.9709V10.9714C20.0335 11.1523 19.7738 11.3731 19.5177 11.5233C18.819 11.933 17.6023 12.5066 15.9323 12.7901C15.94 12.9982 15.9455 13.2106 15.9455 13.4325C15.9455 14.2582 15.8623 14.8538 15.7081 15.2666C15.1423 17.5488 13.5398 19.854 11.4746 20.7437C11.5358 20.0439 11.5084 19.4607 11.4057 18.9281C10.4488 19.4799 9.40925 19.8329 8.38462 19.8744H8.38428C8.69028 19.2466 8.87371 18.6953 8.96919 18.1642C7.88114 18.335 6.78742 18.2914 5.81885 17.9637C6.32114 17.4953 6.68525 17.0527 6.9628 16.5991C5.88417 16.3687 4.87668 15.9357 4.08862 15.2815C4.74382 15.0168 5.25348 14.7262 5.68291 14.3906C4.75274 13.7877 3.9628 13.0195 3.45914 12.1226C4.14691 12.1106 4.71417 12.0252 5.22485 11.8735C4.57582 10.9795 4.11605 9.98229 3.96777 8.9676C4.62965 9.20846 5.20137 9.33326 5.74377 9.37132C5.45885 8.30503 5.38702 7.21046 5.61211 6.21086C6.13154 6.6624 6.61051 6.97886 7.09154 7.20772C7.2076 6.10955 7.53314 5.06143 8.10177 4.2084C8.43194 4.82932 8.77274 5.30417 9.14937 5.69503C9.65165 4.70863 10.3322 3.84395 11.1707 3.25012L11.1709 3.24977ZM15.7079 6.6024C15.2973 7.54766 15.4225 8.53903 15.6127 9.8136C15.6963 9.80208 15.7733 9.76212 15.8308 9.70045C15.8883 9.63877 15.9227 9.55916 15.9284 9.47503C15.934 9.3909 15.9105 9.30741 15.8617 9.23861C15.813 9.16982 15.742 9.11994 15.6607 9.09737C15.7455 9.07916 15.8333 9.08 15.9178 9.09982C16.0022 9.11965 16.0812 9.15797 16.149 9.21202C16.2169 9.26607 16.2719 9.3345 16.3101 9.41238C16.3483 9.49026 16.3687 9.57565 16.3699 9.66238C16.3711 9.74911 16.353 9.83502 16.3169 9.91392C16.2809 9.99282 16.2278 10.0627 16.1615 10.1186C16.0952 10.1745 16.0172 10.215 15.9334 10.2371C15.8495 10.2593 15.7618 10.2625 15.6765 10.2466C15.7749 10.9121 15.8749 11.6489 15.9201 12.4966C16.1067 12.4641 16.2925 12.427 16.4773 12.3854C17.6114 12.1305 18.5786 11.7338 19.3694 11.2701C19.4466 11.2248 19.521 11.1735 19.5882 11.1214C19.6509 11.0259 19.6453 10.9574 19.5942 10.9011C18.766 10.6877 17.7271 10.1246 16.9785 9.39343C16.1618 8.59577 15.7053 7.65103 15.7079 6.6024Z" fill="#F59E0B"/>
</svg>
