<svg width="24" height="24" viewBox="0 0 24 24" fill="none" xmlns="http://www.w3.org/2000/svg">
<path d="M7.48836 2.94H5.97805V7.21258L7.81986 9.05439H5.60985L3.19723 6.64177V2.94008H1.59497V7.32316L4.87304 10.6014H9.29298L10.8768 12.1851H6.64097L10.2138 15.8685L4.98346 21.0619H7.04627L12.2764 15.7949L10.2874 13.8059H20.859V14.4689L16.2916 17.1945L12.461 21.0619H14.6341L17.2492 18.41L22.4059 15.3161V12.1852H17.544L15.8865 10.5277L17.765 8.64917V4.45023H16.1994V7.94947L14.671 9.45953L13.3081 8.0323V4.45015H11.8347V8.72289L15.2796 12.185H13.1777L7.4886 6.54958V2.94" fill="#60A5FA"/>
<path d="M15.4808 14.7631H13.4182L14.4127 15.8311L15.4808 14.7631Z" fill="#60A5FA"/>
</svg>
