<svg width="24" height="24" viewBox="0 0 24 24" fill="none" xmlns="http://www.w3.org/2000/svg">
<path d="M3 3V21H21V3H3ZM17.1 11.858C17.5242 11.8576 17.947 11.9062 18.36 12.003C18.777 12.096 19.138 12.216 19.442 12.36V14.083H19.263C18.9804 13.8278 18.6556 13.6238 18.303 13.48C17.9393 13.3184 17.546 13.2343 17.148 13.233C17.009 13.233 16.872 13.245 16.733 13.268C16.5958 13.2882 16.4623 13.3286 16.337 13.388C16.2222 13.4399 16.1222 13.5196 16.046 13.62C15.9656 13.7177 15.9221 13.8405 15.923 13.967C15.923 14.165 15.989 14.317 16.119 14.423C16.249 14.527 16.495 14.623 16.857 14.711C17.094 14.768 17.323 14.822 17.54 14.876C17.76 14.929 17.995 15.003 18.247 15.097C18.742 15.285 19.107 15.541 19.342 15.867C19.579 16.187 19.699 16.605 19.699 17.121C19.699 17.857 19.427 18.457 18.886 18.919C18.347 19.377 17.616 19.607 16.689 19.607C16.2163 19.6144 15.7447 19.5603 15.286 19.446C14.9021 19.3407 14.5283 19.2015 14.169 19.03V17.236H14.352C14.697 17.554 15.082 17.799 15.508 17.97C15.936 18.141 16.346 18.227 16.74 18.227C16.841 18.227 16.976 18.216 17.14 18.195C17.304 18.174 17.44 18.142 17.544 18.095C17.6623 18.0417 17.7688 17.9652 17.857 17.87C17.941 17.78 17.983 17.646 17.983 17.469C17.9837 17.3896 17.9679 17.311 17.9363 17.2381C17.9048 17.1652 17.8584 17.0998 17.8 17.046C17.681 16.925 17.506 16.833 17.275 16.769C17.0193 16.6994 16.7615 16.6377 16.502 16.584C16.2436 16.5266 15.9896 16.4508 15.742 16.357C15.198 16.153 14.805 15.877 14.565 15.529C14.327 15.178 14.208 14.743 14.208 14.224C14.208 13.527 14.478 12.96 15.017 12.521C15.558 12.079 16.251 11.858 17.1 11.858ZM8.12 11.994H10.63C11.15 11.994 11.532 12.014 11.772 12.054C12.015 12.094 12.256 12.182 12.494 12.32C12.74 12.463 12.922 12.657 13.041 12.902C13.163 13.142 13.222 13.42 13.222 13.732C13.222 14.092 13.14 14.412 12.975 14.691C12.8075 14.9673 12.5647 15.19 12.275 15.333V15.373C12.699 15.471 13.033 15.671 13.279 15.976C13.529 16.281 13.653 16.682 13.653 17.181C13.653 17.543 13.59 17.867 13.463 18.151C13.338 18.436 13.166 18.671 12.946 18.858C12.7012 19.0735 12.4136 19.2347 12.102 19.331C11.798 19.424 11.412 19.471 10.942 19.471H8.12V11.994ZM9.778 13.365V14.947H10.04C10.303 14.947 10.527 14.941 10.712 14.931C10.897 14.921 11.044 14.887 11.152 14.83C11.302 14.753 11.4 14.656 11.446 14.535C11.493 14.411 11.516 14.269 11.516 14.108C11.5148 13.9799 11.4865 13.8534 11.433 13.737C11.3793 13.611 11.2779 13.5114 11.151 13.46C11.0061 13.4016 10.8512 13.3724 10.695 13.374C10.515 13.368 10.263 13.365 9.935 13.365H9.778ZM9.778 16.238V18.1H9.901C10.37 18.1 10.705 18.098 10.908 18.095C11.102 18.0933 11.2932 18.049 11.468 17.965C11.6224 17.8998 11.7488 17.7822 11.825 17.633C11.892 17.493 11.925 17.333 11.925 17.152C11.925 16.914 11.885 16.732 11.803 16.604C11.725 16.474 11.59 16.377 11.399 16.314C11.2239 16.2635 11.0422 16.2392 10.86 16.242C10.6213 16.239 10.3827 16.2376 10.144 16.238H9.778Z" fill="#14B8A6"/>
</svg>
