<svg width="24" height="24" viewBox="0 0 24 24" fill="none" xmlns="http://www.w3.org/2000/svg">
<path d="M21.6547 12.711C21.6547 16.9065 17.3323 20.3079 12.0001 20.3079C6.66786 20.3079 2.34546 16.9068 2.34546 12.711C2.34546 10.1098 4.00053 7.81202 6.54366 6.44942C9.08694 5.08673 10.6702 3.69098 11.9998 3.69098C13.3293 3.69098 14.4658 4.83023 17.4559 6.44942C19.9991 7.81211 21.6541 10.11 21.6541 12.711H21.6547Z" fill="#FFF3E0"/>
<path d="M21.6547 12.711C21.6533 12.172 21.5791 11.6357 21.434 11.1166C20.6809 20.3023 9.4763 20.7436 5.0708 17.9962C7.05107 19.5311 9.49474 20.3463 11.9999 20.3078C17.3237 20.3078 21.6547 16.9014 21.6547 12.711Z" fill="#FBE9E7"/>
<path d="M8.28453 5.94451C9.51756 5.20525 11.1561 3.81775 12.7668 3.81499C12.519 3.73488 12.2604 3.69302 12 3.69086C11.3324 3.69086 10.6207 4.03568 9.72423 4.55426C9.41253 4.73632 9.08979 4.93766 8.74773 5.14733C8.10501 5.54453 7.36851 5.99417 6.54096 6.44378C3.91494 7.8644 2.34546 10.2061 2.34546 12.7108V13.039C4.01709 7.13324 7.05423 6.68401 8.28453 5.94451Z" fill="#FAFAFA"/>
<path fill-rule="evenodd" clip-rule="evenodd" d="M11.2058 4.38872C11.2096 5.04005 11.0729 5.68455 10.8048 6.27819C10.5368 6.87184 10.1438 7.40065 9.65274 7.82852C9.5755 7.89748 9.63619 8.02989 9.7355 7.99127C10.6651 7.62992 11.9202 6.5486 11.3906 4.36667C11.3685 4.24254 11.2058 4.27563 11.2058 4.38872ZM11.8319 4.38872C12.1695 4.93944 12.3839 5.55665 12.4606 6.19802C12.5372 6.8394 12.4743 7.48976 12.276 8.10452C12.2429 8.20107 12.3615 8.28382 12.4277 8.20383C13.0319 7.43148 13.5587 5.89776 11.9809 4.24263C11.9009 4.1709 11.7768 4.28124 11.8319 4.37779L11.8319 4.38872ZM12.5933 4.34183C13.1218 4.71602 13.564 5.19921 13.8899 5.7588C14.2159 6.31839 14.4181 6.94137 14.4828 7.58573C14.48 7.60895 14.4863 7.63236 14.5003 7.6511C14.5143 7.66983 14.5349 7.68246 14.558 7.68637C14.5811 7.69027 14.6047 7.68514 14.6241 7.67206C14.6435 7.65897 14.6571 7.63892 14.6621 7.61607C14.9159 6.65337 14.7724 5.0121 12.6843 4.15977C12.574 4.11564 12.5022 4.26459 12.5933 4.3308L12.5933 4.34183ZM7.50105 7.21061C8.12978 7.02278 8.71189 6.70464 9.2095 6.2769C9.70711 5.84916 10.109 5.32141 10.3892 4.72802C10.4388 4.62872 10.596 4.66734 10.5712 4.77767C10.094 6.98444 8.49686 7.44509 7.50371 7.3844C7.39888 7.38716 7.40175 7.24095 7.50105 7.21061Z" fill="#BCAAA4"/>
<path d="M13.9451 14.7246C13.8212 15.2322 13.5391 15.6872 13.1396 16.0239C12.8397 16.3146 12.4515 16.4971 12.0363 16.5424C11.6086 16.5043 11.2067 16.3213 10.897 16.0239C10.5016 15.6856 10.2235 15.2307 10.1026 14.7246C10.0986 14.6946 10.1015 14.664 10.1111 14.6353C10.1208 14.6065 10.1368 14.5804 10.1581 14.5588C10.1794 14.5372 10.2054 14.5208 10.234 14.5108C10.2626 14.5009 10.2932 14.4976 10.3233 14.5012H13.7271C13.7569 14.498 13.7871 14.5017 13.8154 14.5118C13.8437 14.522 13.8693 14.5385 13.8902 14.56C13.9112 14.5815 13.927 14.6075 13.9365 14.636C13.946 14.6645 13.949 14.6948 13.9451 14.7246Z" fill="#B71C1C"/>
<path d="M10.8967 16.0461C11.2058 16.3438 11.6062 16.5284 12.0332 16.5702C12.4593 16.5278 12.8586 16.3432 13.1669 16.0461C13.2656 15.9542 13.3577 15.8556 13.4428 15.751C13.2729 15.5582 13.0653 15.4022 12.8328 15.2926C12.6004 15.1831 12.348 15.1222 12.0911 15.1138C11.8163 15.1203 11.5472 15.1935 11.3069 15.3271C11.0667 15.4607 10.8625 15.6506 10.7119 15.8806C10.7754 15.9386 10.8305 15.9937 10.8967 16.0461Z" fill="#FF5252"/>
<path d="M10.9408 15.8283C11.0775 15.6515 11.2526 15.5081 11.4528 15.4087C11.653 15.3093 11.8731 15.2566 12.0966 15.2546C12.5097 15.2667 12.9033 15.433 13.2 15.7207C13.2634 15.6518 13.3241 15.5801 13.382 15.5083C13.0311 15.1741 12.5673 14.9841 12.0828 14.976C11.8238 14.9782 11.5686 15.0377 11.3354 15.1503C11.1022 15.2628 10.8967 15.4256 10.7339 15.627C10.7991 15.6978 10.8682 15.765 10.9408 15.8283Z" fill="black"/>
<path d="M12.025 16.7082C11.5653 16.668 11.1328 16.4735 10.7975 16.1565C10.3705 15.7954 10.0699 15.3074 9.93959 14.7635C9.93025 14.7151 9.93184 14.6652 9.94425 14.6175C9.95665 14.5698 9.97957 14.5254 10.0113 14.4877C10.0491 14.442 10.0969 14.4056 10.1509 14.3812C10.2049 14.3569 10.2638 14.3451 10.323 14.347H13.7268C13.786 14.3457 13.8447 14.3577 13.8986 14.3821C13.9525 14.4064 14.0003 14.4425 14.0385 14.4877C14.07 14.5255 14.0925 14.57 14.1044 14.6177C14.1163 14.6655 14.1174 14.7153 14.1075 14.7635C13.9771 15.3074 13.6766 15.7954 13.2496 16.1565C12.915 16.473 12.4837 16.6674 12.025 16.7082ZM10.323 14.667C10.2789 14.667 10.2679 14.6863 10.2651 14.6918C10.3817 15.1634 10.6455 15.5856 11.0182 15.8973C11.2907 16.1658 11.645 16.3356 12.025 16.38C12.404 16.3361 12.7579 16.1684 13.0318 15.9028C13.4033 15.5906 13.6661 15.1685 13.7821 14.6973C13.7761 14.6885 13.7678 14.6815 13.758 14.6771C13.7483 14.6728 13.7375 14.6712 13.7269 14.6725L10.323 14.667Z" fill="black"/>
<path d="M16.1982 14.8956C17.0894 14.8956 17.8119 14.4708 17.8119 13.9467C17.8119 13.4226 17.0894 12.9978 16.1982 12.9978C15.307 12.9978 14.5845 13.4226 14.5845 13.9467C14.5845 14.4708 15.307 14.8956 16.1982 14.8956Z" fill="#F8BBD0"/>
<path d="M7.84856 14.8956C8.73979 14.8956 9.46226 14.4708 9.46226 13.9467C9.46226 13.4226 8.73979 12.9978 7.84856 12.9978C6.95734 12.9978 6.23486 13.4226 6.23486 13.9467C6.23486 14.4708 6.95734 14.8956 7.84856 14.8956Z" fill="#F8BBD0"/>
<path fill-rule="evenodd" clip-rule="evenodd" d="M8.60746 13.566C8.90819 13.5666 9.20233 13.4779 9.45264 13.3112C9.70296 13.1446 9.89821 12.9074 10.0137 12.6297C10.1291 12.352 10.1596 12.0463 10.1013 11.7513C10.043 11.4563 9.89844 11.1852 9.68598 10.9723C9.47353 10.7595 9.20271 10.6145 8.9078 10.5556C8.61289 10.4967 8.30714 10.5267 8.02925 10.6416C7.75136 10.7566 7.51381 10.9514 7.34668 11.2014C7.17955 11.4514 7.09033 11.7454 7.09033 12.0461C7.09033 12.4487 7.25008 12.8349 7.53452 13.1199C7.81896 13.4048 8.20484 13.5653 8.60746 13.566ZM15.4403 13.566C15.7413 13.5682 16.0363 13.4809 16.2877 13.3153C16.5391 13.1496 16.7356 12.913 16.8523 12.6354C16.9691 12.3579 17.0007 12.052 16.9434 11.7564C16.886 11.4608 16.7421 11.189 16.53 10.9753C16.3178 10.7617 16.047 10.6158 15.7519 10.5562C15.4568 10.4967 15.1506 10.5261 14.8722 10.6409C14.5939 10.7556 14.3558 10.9504 14.1883 11.2005C14.0208 11.4507 13.9314 11.745 13.9314 12.0461C13.9306 12.4475 14.089 12.8329 14.3718 13.1178C14.6546 13.4027 15.0388 13.5638 15.4403 13.566Z" fill="black"/>
<path fill-rule="evenodd" clip-rule="evenodd" d="M8.13805 12.1428C8.2511 12.1434 8.36177 12.1104 8.45603 12.0479C8.55029 11.9855 8.6239 11.8966 8.66754 11.7923C8.71118 11.688 8.72289 11.5731 8.70117 11.4621C8.67945 11.3512 8.62529 11.2492 8.54554 11.1691C8.4658 11.0889 8.36406 11.0343 8.25323 11.012C8.14239 10.9898 8.02744 11.0009 7.92295 11.0441C7.81845 11.0872 7.72911 11.1604 7.66625 11.2543C7.60338 11.3483 7.56983 11.4588 7.56982 11.5718C7.56982 11.7228 7.6296 11.8676 7.73609 11.9746C7.84257 12.0816 7.9871 12.1421 8.13805 12.1428ZM14.9709 12.1428C15.0839 12.1434 15.1946 12.1104 15.2888 12.0479C15.3831 11.9855 15.4567 11.8966 15.5003 11.7923C15.544 11.688 15.5557 11.5731 15.534 11.4621C15.5122 11.3512 15.4581 11.2492 15.3783 11.1691C15.2986 11.0889 15.1969 11.0343 15.086 11.012C14.9752 10.9898 14.8602 11.0009 14.7557 11.0441C14.6513 11.0872 14.5619 11.1604 14.499 11.2543C14.4362 11.3483 14.4026 11.4588 14.4026 11.5718C14.4026 11.7219 14.4616 11.8658 14.5669 11.9727C14.6722 12.0795 14.8153 12.1407 14.9653 12.1428H14.9709Z" fill="white"/>
</svg>
