<svg width="24" height="25" viewBox="0 0 24 25" fill="none" xmlns="http://www.w3.org/2000/svg">
<path d="M16.9194 10.4375H14.4308C14.3854 10.1155 14.2925 9.82955 14.1524 9.57955C14.0122 9.32576 13.8323 9.10985 13.6126 8.93182C13.3929 8.75379 13.1391 8.61742 12.8513 8.52273C12.5672 8.42803 12.2585 8.38068 11.9251 8.38068C11.3229 8.38068 10.7982 8.5303 10.3513 8.82955C9.90429 9.125 9.5577 9.55682 9.31149 10.125C9.06527 10.6894 8.94217 11.375 8.94217 12.1818C8.94217 13.0114 9.06527 13.7083 9.31149 14.2727C9.56149 14.8371 9.90997 15.2633 10.3569 15.5511C10.8039 15.839 11.321 15.983 11.9081 15.983C12.2376 15.983 12.5425 15.9394 12.8229 15.8523C13.1069 15.7652 13.3588 15.6383 13.5785 15.4716C13.7982 15.3011 13.98 15.0947 14.124 14.8523C14.2717 14.6098 14.374 14.3333 14.4308 14.0227L16.9194 14.0341C16.855 14.5682 16.6941 15.0833 16.4365 15.5795C16.1827 16.072 15.8399 16.5133 15.4081 16.9034C14.98 17.2898 14.4687 17.5966 13.874 17.8239C13.2831 18.0473 12.6145 18.1591 11.8683 18.1591C10.8304 18.1591 9.9024 17.9242 9.08421 17.4545C8.26982 16.9848 7.62588 16.3049 7.1524 15.4148C6.6827 14.5246 6.44785 13.447 6.44785 12.1818C6.44785 10.9129 6.68649 9.83333 7.16376 8.94318C7.64103 8.05303 8.28876 7.375 9.10694 6.90909C9.92512 6.43939 10.8456 6.20455 11.8683 6.20455C12.5425 6.20455 13.1675 6.29924 13.7433 6.48864C14.3229 6.67803 14.8361 6.95455 15.2831 7.31818C15.73 7.67803 16.0937 8.11932 16.374 8.64205C16.6581 9.16477 16.8399 9.76326 16.9194 10.4375Z" fill="#60A5FA"/>
</svg>
