<svg width="24" height="24" viewBox="0 0 24 24" fill="none" xmlns="http://www.w3.org/2000/svg">
<path d="M7.20056 3.25583L13.7018 2.05599C14.2365 1.95731 14.9353 2.22942 15.2627 2.66375L21.6175 11.0946C21.9449 11.5289 21.7769 11.961 21.2422 12.0597L14.7409 13.2596C14.2063 13.3582 13.5074 13.0861 13.18 12.6518L6.82521 4.22093C6.49783 3.7866 6.66588 3.35451 7.20056 3.25583Z" fill="#2D9BBD"/>
<path d="M14.2547 13.9966L21.1091 12.8075C21.5744 12.7268 21.6908 13.0167 21.3689 13.4552L16.7045 19.8093C16.3826 20.2478 15.7445 20.6687 15.2791 20.7494L8.42473 21.9385C7.95937 22.0192 7.84303 21.7293 8.16488 21.2908L12.8293 14.9367C13.1511 14.4982 13.7893 14.0774 14.2547 13.9966Z" fill="#4A4BCD"/>
<path fill-rule="evenodd" clip-rule="evenodd" d="M4.16887 11.4111C4.06143 11.6923 2.06551 13.2709 2.10935 13.5932C2.15319 13.9156 4.49431 14.8751 4.67255 15.1154C4.85079 15.3557 5.51615 18.4488 5.76079 18.5154C6.00543 18.5819 7.26703 16.0135 7.48463 15.8808C7.70223 15.7482 10.1093 16.0811 10.2166 15.8C10.3241 15.5188 8.76271 12.9719 8.71895 12.6495C8.67511 12.3271 9.49751 9.43994 9.31911 9.19954C9.14079 8.95914 6.91431 9.9537 6.66967 9.88706C6.42495 9.82042 4.52623 7.70306 4.30855 7.83562C4.09095 7.96818 4.27623 11.1298 4.16887 11.4111Z" fill="#2E5BC1"/>
</svg>
