<svg width="24" height="24" viewBox="0 0 24 24" fill="none" xmlns="http://www.w3.org/2000/svg">
<path fill-rule="evenodd" clip-rule="evenodd" d="M22.4529 14.346C22.4529 8.57301 17.7729 3.89301 11.9999 3.89301C6.22689 3.89301 1.54689 8.57301 1.54689 14.346C1.5443 16.1516 2.01162 17.9267 2.90289 19.497V18.843C2.90324 18.2131 3.13579 17.6055 3.55607 17.1363C3.97634 16.6671 4.55484 16.3694 5.18089 16.3V12.902C5.18089 8.86401 7.70989 6.71401 11.8999 6.76801C13.9369 6.79501 15.5739 7.28801 16.7249 8.26901C17.9569 9.31901 18.5959 10.898 18.5959 12.966L18.5899 16.321C19.186 16.4218 19.7271 16.7304 20.1175 17.192C20.5079 17.6536 20.7224 18.2385 20.7229 18.843V20.108C21.8544 18.3996 22.4562 16.3951 22.4529 14.346Z" fill="#60A5FA"/>
<path fill-rule="evenodd" clip-rule="evenodd" d="M15.5199 16.284V13.98C15.5149 13.8901 15.5116 13.8001 15.5099 13.71C15.508 13.4573 15.4957 13.2047 15.4729 12.953C15.4478 12.66 15.3935 12.3703 15.3109 12.088C15.1379 11.52 14.8419 11.064 14.3829 10.728C13.8189 10.317 13.0129 10.09 11.9209 10.09C10.8189 10.09 10.0009 10.319 9.42487 10.734C8.95387 11.073 8.64887 11.533 8.47487 12.101C8.38422 12.4047 8.3282 12.7177 8.30787 13.034C8.29016 13.294 8.28582 13.5546 8.29487 13.815C8.29635 13.8704 8.29769 13.9257 8.29887 13.981V16.285L15.5199 16.284Z" fill="#60A5FA"/>
</svg>
