<svg width="24" height="24" viewBox="0 0 24 24" fill="none" xmlns="http://www.w3.org/2000/svg">
<path d="M14.633 9.36597H18.853V13.586H14.633V9.36597ZM10.413 15.172C10.413 16.04 9.69497 16.758 8.82697 16.758C7.95897 16.758 7.24097 16.04 7.24097 15.172C7.24097 14.304 7.95997 13.586 8.82697 13.586H10.413V9.36597H8.82697C5.62497 9.36597 3.02197 11.97 3.02197 15.172C3.02197 18.374 5.62497 20.978 8.82697 20.978C12.029 20.978 14.633 18.374 14.633 15.172V13.586H10.413V15.172ZM16.22 7.24197H20.978V3.02197H16.22C14.6804 3.02303 13.2043 3.63507 12.1157 4.72368C11.0271 5.81229 10.415 7.28845 10.414 8.82797L10.413 9.36597H14.633L14.634 8.82797C14.634 7.95997 15.352 7.24197 16.22 7.24197Z" fill="#00E676"/>
</svg>
