<svg width="24" height="24" viewBox="0 0 24 24" fill="none" xmlns="http://www.w3.org/2000/svg">
<path d="M19 22H5.00004V20H19V22ZM17 10C15.58 10 14.26 10.77 13.55 12H13V7H16V5H13V2H11V5H8.00004V7H11V12H10.45C9.35004 10.09 6.90004 9.43 5.00004 10.54C4.07892 11.0669 3.40398 11.9371 3.12287 12.9603C2.84177 13.9836 2.97737 15.0765 3.50004 16C4.24004 17.24 5.57004 18 7.00004 18H17C18.0609 18 19.0783 17.5786 19.8285 16.8284C20.5786 16.0783 21 15.0609 21 14C21 12.9391 20.5786 11.9217 19.8285 11.1716C19.0783 10.4214 18.0609 10 17 10Z" fill="#CFD8DC"/>
</svg>
