<svg width="24" height="24" viewBox="0 0 24 24" fill="none" xmlns="http://www.w3.org/2000/svg">
<path d="M12.0002 14.4177C13.3354 14.4177 14.4179 13.3353 14.4179 12C14.4179 10.6648 13.3354 9.58234 12.0002 9.58234C10.665 9.58234 9.58252 10.6648 9.58252 12C9.58252 13.3353 10.665 14.4177 12.0002 14.4177Z" fill="#FAFAFA"/>
<path d="M11.8478 1.84625C7.11699 1.84625 3.14219 5.08273 2.01419 9.46169C2.00355 9.50108 1.99782 9.54162 1.99715 9.58241C1.99717 9.71064 2.04812 9.83362 2.13879 9.92429C2.22947 10.015 2.35244 10.0659 2.48067 10.0659H6.57443C6.76955 10.0659 6.93603 9.95009 7.01243 9.78337C7.01243 9.78337 7.01867 9.77185 7.02059 9.76633C7.86459 7.94505 9.70787 6.68137 11.8468 6.68137C14.7842 6.68137 17.1655 9.06233 17.1655 12C17.1655 14.9377 14.7848 17.3187 11.8475 17.3187C9.70843 17.3187 7.86547 16.0547 7.02123 14.2337C7.01899 14.2279 7.01307 14.2167 7.01307 14.2167C6.97485 14.1325 6.91323 14.0611 6.83558 14.011C6.75792 13.9609 6.66749 13.9342 6.57507 13.9341H2.48059C2.41709 13.9341 2.3542 13.9466 2.29553 13.9709C2.23686 13.9951 2.18355 14.0308 2.13864 14.0757C2.09374 14.1206 2.05813 14.1739 2.03383 14.2326C2.00954 14.2912 1.99705 14.3541 1.99707 14.4176C1.99707 14.4594 2.00411 14.4999 2.01411 14.5384C3.14187 18.9174 7.11667 22.1538 11.8477 22.1538C17.4555 22.1538 22.0013 17.6075 22.0013 12.0002C22.0013 6.39273 17.4553 1.84657 11.8477 1.84657L11.8478 1.84625Z" fill="#FAFAFA"/>
</svg>
