<svg width="24" height="25" viewBox="0 0 24 25" fill="none" xmlns="http://www.w3.org/2000/svg">
<path fill-rule="evenodd" clip-rule="evenodd" d="M13.9343 17.6228C14.3703 17.7833 14.8688 17.8786 15.4727 17.9576C15.6991 17.9864 15.9437 18.001 16.2042 18.001C16.8992 17.9987 17.7108 17.8938 18.5548 17.6743C16.9944 19.9873 14.4177 21.4996 11.5008 21.4996C6.73806 21.4996 2.87664 17.4703 2.87664 12.5001C2.87664 12.4466 2.87622 12.3944 2.8758 12.343C2.87368 12.0803 2.87172 11.8373 2.92696 11.5321C3.63347 9.02487 5.33049 8.09649 6.9381 8.08069C7.26422 8.08007 7.58348 8.12512 7.88961 8.2023C6.745 9.25002 6.02149 10.7863 6.02149 12.4999C6.02186 15.6583 8.47474 18.2174 11.5006 18.2174C12.3751 18.2174 13.201 18.0028 13.9343 17.6228ZM8.87996 8.61057C7.70948 9.47134 6.94354 10.891 6.94064 12.4999C6.94354 14.0848 7.68644 15.4861 8.82747 16.3505C9.02166 15.5064 9.41883 14.7118 9.99521 13.5586L9.99522 13.5586C10.2496 13.0496 10.5389 12.4708 10.861 11.7871C10.7986 11.608 10.7274 11.412 10.6477 11.206C10.3562 10.4431 9.93555 9.55716 9.56015 9.15594C9.36876 8.94635 9.13652 8.76523 8.87996 8.61057ZM11.1427 12.6622C11.0569 12.856 10.9623 13.0739 10.8643 13.3057C10.518 14.1245 10.1345 15.1208 9.99439 15.7591C9.94406 15.9864 9.9129 16.2681 9.9135 16.5805C9.9135 16.704 9.91983 16.8339 9.9299 16.9661C10.4195 17.1538 10.9484 17.2571 11.5006 17.2581C12.0034 17.2571 12.4863 17.1704 12.9384 17.0136C12.8321 16.9122 12.7307 16.8041 12.6384 16.6824C12.0256 15.8669 11.6836 14.6717 11.1427 12.6622Z" fill="#4ADE80"/>
<path fill-rule="evenodd" clip-rule="evenodd" d="M4.4917 7.25948C6.05682 4.98424 8.61207 3.50037 11.5007 3.50037C16.2639 3.50037 20.1249 7.53007 20.1249 12.5001C20.1249 12.8892 20.0985 13.2716 20.0527 13.6478C19.8182 14.6217 19.3954 15.2712 18.8907 15.7148C18.1167 16.3941 17.0843 16.614 16.1291 16.6136C15.8602 16.615 15.5969 16.597 15.3499 16.5681C16.3559 15.5315 16.98 14.092 16.98 12.4999H16.9804C16.98 9.3421 14.5267 6.78296 11.5005 6.78257C10.7159 6.78257 9.97029 6.95599 9.29554 7.2661C9.21062 7.20533 9.12391 7.14621 9.03257 7.09128C8.65441 6.8694 7.86626 6.54505 6.86376 6.54202C6.13794 6.53517 5.30624 6.72718 4.4917 7.25948ZM14.1939 16.336C14.0259 16.2863 13.9052 16.2413 13.852 16.2137C13.6736 16.1332 13.4116 15.8588 13.1734 15.477C12.8106 14.9072 12.4779 14.1253 12.2444 13.4937C12.0291 12.9147 11.8961 12.4662 11.8745 12.3935C11.8726 12.3868 11.8715 12.3833 11.8714 12.3832L11.8707 12.3812C11.44 10.6596 10.9947 9.08567 10.0688 7.98434C10.519 7.82867 10.9999 7.74246 11.5005 7.74145C14.019 7.74667 16.0566 9.87254 16.0609 12.4999H16.0613C16.0584 14.0759 15.324 15.4703 14.1939 16.336Z" fill="#60A5FA"/>
</svg>
