<svg width="24" height="24" viewBox="0 0 24 24" fill="none" xmlns="http://www.w3.org/2000/svg">
<path d="M14.1301 10.1C14.7301 9.59998 15.1101 8.90998 15.1001 8.13998C15.0901 6.66998 13.7001 5.47998 12.0001 5.47998C10.3001 5.47998 8.9101 6.65998 8.9001 8.12998C8.8901 8.89998 9.2701 9.59998 9.8701 10.09C10.6201 10.7 11.2301 11.93 11.2701 13.27C11.3101 14.76 11.2101 16.49 11.1501 17.37C10.3501 17.48 9.7901 17.75 9.7901 18.06C9.7901 18.47 10.7801 18.95 12.0101 18.95C13.2401 18.95 14.2301 18.47 14.2301 18.06C14.2301 17.75 13.6701 17.48 12.8701 17.37C12.8101 16.49 12.7101 14.77 12.7501 13.27C12.7901 11.93 13.4001 10.7 14.1501 10.09L14.1301 10.1Z" fill="#60A5FA"/>
<path d="M17.8899 18.77C18.0092 18.7208 18.1332 18.6839 18.2599 18.66C18.4014 18.63 18.5454 18.6133 18.6899 18.61L18.6699 18.49C18.6699 18.42 18.6299 18.33 18.5999 18.23L18.5499 18.1C18.5299 18.06 18.5099 18.02 18.4899 17.99L18.4299 17.88C18.2814 17.8555 18.1345 17.8221 17.9899 17.78C17.8538 17.7416 17.7203 17.6948 17.5899 17.64C17.3699 17.55 17.1599 17.44 17.0499 17.32C16.9982 17.2801 16.9567 17.2284 16.9289 17.1693C16.9011 17.1102 16.8877 17.0453 16.8899 16.98C16.8982 16.9242 16.9225 16.8721 16.9599 16.83C17.004 16.779 17.0586 16.738 17.1199 16.71L16.9899 16.64C16.9499 16.62 16.9099 16.59 16.8499 16.57C16.7999 16.54 16.7399 16.52 16.6799 16.49C16.5699 16.44 16.4599 16.38 16.3599 16.35L16.2099 16.29C16.0971 16.3032 15.9836 16.3099 15.8699 16.31C15.7499 16.31 15.6199 16.31 15.4999 16.3C15.2599 16.28 15.0099 16.25 14.7999 16.18C14.7039 16.1547 14.6102 16.1212 14.5199 16.08C14.4468 16.0497 14.3765 16.0129 14.3099 15.97C14.1999 15.89 14.1199 15.81 14.1199 15.72L13.9499 15.69C13.8499 15.67 13.6199 15.64 13.4799 15.62C13.4799 15.64 13.4599 15.67 13.4599 15.71L13.4199 15.88C13.3499 16.23 13.5499 16.58 13.8899 16.68C14.7199 16.92 15.3499 17.32 15.5299 17.81C15.8999 18.8 14.3499 19.77 12.0099 19.77C9.65993 19.77 8.11993 18.8 8.47993 17.81C8.65993 17.33 9.25993 16.94 10.0699 16.7C10.2418 16.6466 10.3875 16.5307 10.4782 16.3752C10.5689 16.2197 10.598 16.0359 10.5599 15.86L10.5099 15.62L10.1999 15.66C10.0599 15.68 9.92993 15.7 9.82993 15.72L9.65993 15.75C9.66993 15.83 9.60993 15.92 9.49993 16C9.43672 16.0455 9.36982 16.0856 9.29993 16.12C9.212 16.1587 9.12184 16.1921 9.02993 16.22C8.92169 16.2534 8.81148 16.2802 8.69993 16.3C8.58094 16.3233 8.46076 16.3399 8.33993 16.35C8.08993 16.37 7.83993 16.37 7.60993 16.35L7.56993 16.37C7.54993 16.38 7.49993 16.4 7.45993 16.42L7.14993 16.57C7.03993 16.62 6.93993 16.69 6.85993 16.73L6.75993 16.78L6.72993 16.8C6.88993 16.87 6.96993 16.97 6.98993 17.08C7.02993 17.19 6.97993 17.31 6.86993 17.43C6.80246 17.4968 6.72879 17.5571 6.64993 17.61C6.54868 17.6763 6.44157 17.7332 6.32993 17.78C6.06545 17.9016 5.78653 17.989 5.49993 18.04C5.47912 18.0746 5.46235 18.1115 5.44993 18.15L5.35993 18.4L5.31993 18.66C5.31071 18.6993 5.30734 18.7397 5.30993 18.78C5.62993 18.78 5.91993 18.84 6.13993 18.92C6.38993 19 6.53993 19.13 6.65993 19.28C6.74993 19.44 6.78993 19.61 6.70993 19.81C6.64993 20 6.48993 20.22 6.23993 20.41L6.27993 20.44L6.39993 20.52C6.49993 20.59 6.62993 20.69 6.77993 20.78L7.21993 21.02C7.27993 21.05 7.33993 21.08 7.37993 21.09C7.39962 21.1006 7.41963 21.1106 7.43993 21.12C7.79993 20.97 8.18993 20.89 8.57993 20.84C8.7693 20.8204 8.95999 20.8171 9.14993 20.83C9.33993 20.84 9.52993 20.85 9.69993 20.9C9.87993 20.95 10.0499 20.99 10.1999 21.06C10.3465 21.128 10.487 21.2083 10.6199 21.3C10.8799 21.47 11.0699 21.72 11.1599 21.98L11.4899 21.99C11.6899 22 11.9499 22.01 12.2199 22L12.9399 21.97L13.2599 21.94C13.2893 21.8028 13.3472 21.6733 13.4299 21.56C13.4718 21.5027 13.5187 21.4491 13.5699 21.4C13.7237 21.2326 13.9111 21.0997 14.1199 21.01C14.2731 20.9356 14.4341 20.8786 14.5999 20.84C14.7799 20.8 14.9499 20.77 15.1399 20.76C15.3299 20.75 15.5199 20.75 15.7099 20.76C16.103 20.783 16.4905 20.8638 16.8599 21L17.0599 20.89C17.1699 20.82 17.3399 20.74 17.4699 20.64C17.5999 20.54 17.7399 20.45 17.8199 20.38L17.9499 20.25C17.6799 20.06 17.5199 19.86 17.4299 19.67C17.3905 19.5854 17.37 19.4933 17.3699 19.4C17.3611 19.3123 17.3822 19.2241 17.4299 19.15C17.4999 18.99 17.6799 18.88 17.8799 18.78M9.94993 13.9C9.94993 13.9 10.2999 12.58 8.77993 10.87L8.72993 10.82C8.0961 10.0631 7.74913 9.10719 7.74993 8.11998C7.74993 5.79998 9.63993 3.91998 11.9499 3.91998H12.0499C13.1638 3.91998 14.2321 4.36248 15.0198 5.15014C15.8074 5.93779 16.2499 7.00608 16.2499 8.11998C16.2479 9.10844 15.8974 10.0645 15.2599 10.82C15.2499 10.83 15.2399 10.85 15.2099 10.87C13.8699 12.22 14.0399 13.9 14.0399 13.9C15.2379 13.4855 16.2781 12.7101 17.0176 11.6805C17.7571 10.6509 18.1597 9.4176 18.1699 8.14998C18.1899 4.90998 15.5699 2.14998 12.3399 1.99998C12.2999 1.99903 12.2599 1.99903 12.2199 1.99998H11.6399C8.40993 2.15998 5.78993 4.91998 5.80993 8.14998C5.81993 10.74 7.47993 13.05 9.93993 13.9H9.94993Z" fill="#71717A"/>
</svg>
