<svg width="24" height="25" viewBox="0 0 24 25" fill="none" xmlns="http://www.w3.org/2000/svg">
<path d="M8.62334 20.6311C8.27711 20.6311 7.93088 20.5489 7.62793 20.4017L11.7913 12.8929C11.9212 12.6592 11.9212 12.3735 11.7913 12.1398L7.62793 4.63532C7.93741 4.48207 8.278 4.40211 8.62334 4.40161H11.9991L16.1971 11.971C16.2895 12.1379 16.3381 12.3256 16.3381 12.5163C16.3381 12.7071 16.2895 12.8948 16.1971 13.0617L11.9991 20.6311H8.62334Z" fill="#FEF3C7"/>
<path fill-rule="evenodd" clip-rule="evenodd" d="M20.6981 11.3911L17.3224 5.52685C17.125 5.18495 16.8411 4.90099 16.4993 4.70348C16.1574 4.50597 15.7697 4.40186 15.3749 4.40161H11.9991L16.1972 11.971C16.2896 12.1379 16.3381 12.3256 16.3381 12.5163C16.3381 12.7071 16.2896 12.8948 16.1972 13.0617L11.9991 20.6311H15.3749C15.7697 20.6308 16.1574 20.5267 16.4993 20.3292C16.8411 20.1317 17.125 19.8477 17.3224 19.5058L20.6981 13.6416C21.1006 12.9491 21.1006 12.0836 20.6981 11.3911ZM7.62804 4.63532L7.84154 5.0205H7.84444L9.7487 8.46114L9.7483 8.46184L7.80115 11.9667C7.70792 12.1341 7.65899 12.3226 7.65899 12.5142C7.65899 12.7058 7.70792 12.8942 7.80115 13.0617L9.74869 16.5759L7.62804 20.4017C7.229 20.2039 6.89764 19.8921 6.67591 19.5058L3.30018 13.6416C3.1035 13.2992 3 12.9112 3 12.5163C3 12.1215 3.1035 11.7335 3.30018 11.3911L5.69296 7.23442C5.67299 7.2677 5.65293 7.30155 5.63279 7.33597L5.7411 7.1498L6.65499 5.5632L6.67591 5.52686L6.67771 5.52374C6.8978 5.14178 7.22523 4.83284 7.61939 4.63532L7.6213 4.63865L7.62804 4.63532Z" fill="#F59E0B"/>
</svg>
