<svg width="24" height="25" viewBox="0 0 24 25" fill="none" xmlns="http://www.w3.org/2000/svg">
<path d="M16.0207 16.8568L16.133 16.4673C16.2664 16.0043 16.217 15.577 15.9923 15.262C15.7824 14.9722 15.4401 14.8022 15.0212 14.7822L7.0911 14.6814C7.06622 14.6811 7.04179 14.6747 7.0199 14.6629C6.99801 14.651 6.97931 14.6341 6.96539 14.6134C6.95147 14.5928 6.94274 14.5691 6.93995 14.5444C6.93716 14.5197 6.94038 14.4946 6.94936 14.4714C6.96284 14.4326 6.98743 14.3985 7.0201 14.3735C7.05276 14.3485 7.09206 14.3336 7.1331 14.3307L15.1398 14.2257C16.0847 14.1827 17.1179 13.4121 17.478 12.4713L17.9336 11.2786C17.9466 11.2451 17.953 11.2095 17.9525 11.1736C17.952 11.1546 17.9499 11.1356 17.9462 11.1169C17.6976 10.0075 17.0933 9.00978 16.2253 8.27558C15.3572 7.54137 14.273 7.11095 13.1378 7.04984C12.0025 6.98873 10.8784 7.30029 9.93657 7.93707C8.99473 8.57385 8.28679 9.50097 7.92054 10.5773C7.53174 10.2883 7.06303 10.1267 6.57874 10.1147C6.09445 10.1027 5.61832 10.2409 5.21571 10.5103C4.81309 10.7797 4.50372 11.1672 4.33007 11.6194C4.15641 12.0716 4.12698 12.5665 4.24581 13.0362C3.77402 13.0484 3.3102 13.1607 2.88509 13.3656C2.45997 13.5706 2.08325 13.8636 1.77989 14.2251C1.47653 14.5866 1.25344 15.0085 1.12541 15.4627C0.997383 15.917 0.967331 16.3933 1.03725 16.86C1.04231 16.8968 1.06049 16.9306 1.08846 16.9551C1.11643 16.9796 1.15231 16.9932 1.18949 16.9933H15.8349C15.8764 16.9938 15.917 16.9807 15.9505 16.9561C15.984 16.9315 16.0086 16.8966 16.0207 16.8568Z" fill="#F59E0B"/>
<path d="M18.6633 11.3689C18.5933 11.3689 18.5198 11.371 18.4428 11.3752C18.4313 11.3755 18.4199 11.378 18.4092 11.3825C18.39 11.3889 18.3727 11.3999 18.3588 11.4145C18.3449 11.4292 18.3348 11.4471 18.3294 11.4665L18.0145 12.5438C17.8801 13.0068 17.9294 13.4341 18.1551 13.7491C18.2692 13.8981 18.416 14.0189 18.5842 14.1021C18.7525 14.1853 18.9376 14.2287 19.1253 14.2289L20.8167 14.3339C20.8403 14.3346 20.8635 14.3409 20.8843 14.3522C20.9051 14.3635 20.9229 14.3795 20.9364 14.399C20.9507 14.4198 20.9597 14.4437 20.9628 14.4687C20.9659 14.4937 20.963 14.5192 20.9542 14.5428C20.9408 14.5817 20.9162 14.6157 20.8835 14.6408C20.8508 14.6658 20.8115 14.6806 20.7705 14.6835L19.014 14.7885C18.0596 14.8326 17.0317 15.6022 16.6716 16.5419L16.5446 16.8736C16.5393 16.8875 16.5373 16.9025 16.5388 16.9173C16.5404 16.9321 16.5454 16.9463 16.5535 16.9587C16.5616 16.9712 16.5725 16.9816 16.5854 16.9891C16.5982 16.9966 16.6127 17.0009 16.6275 17.0017H22.6782C22.7151 17.0026 22.7512 16.9909 22.7806 16.9686C22.8099 16.9463 22.8309 16.9147 22.8399 16.8789C23.0203 16.2343 23.0491 15.5567 22.9242 14.8991C22.7992 14.2415 22.5239 13.6217 22.1197 13.0882C21.7155 12.5547 21.1933 12.1219 20.5941 11.8236C19.9949 11.5253 19.3348 11.3697 18.6654 11.3689H18.6633Z" fill="#FBBF24"/>
</svg>
