<svg width="24" height="25" viewBox="0 0 24 25" fill="none" xmlns="http://www.w3.org/2000/svg">
<path d="M22 9.45005C22 6.86005 20.26 5.82005 18.11 5.82005C17.21 5.82005 16.28 6.02005 15.51 6.39005C14.51 5.70005 13.34 5.30005 12 5.30005C10.66 5.30005 9.49 5.71005 8.49 6.39005C7.71 6.01005 6.79 5.82005 5.89 5.82005C3.74 5.82005 2 6.85005 2 9.45005C2 11.59 3.18 13.01 4.8 13.45C4.78 13.75 4.76 14.05 4.76 14.34C4.76 17.52 7.27 18.6 9.53 18.97C10.14 19.42 11.02 19.7 12 19.7C12.98 19.7 13.86 19.42 14.47 18.97C16.73 18.61 19.24 17.53 19.24 14.34C19.24 14.04 19.23 13.74 19.2 13.45C20.82 13.01 22 11.58 22 9.45005Z" fill="#90A4AE"/>
<path d="M7.30992 7.4C7.12992 7.38 6.95992 7.37 6.77992 7.37C5.05992 7.37 3.66992 8.2 3.66992 10.27C3.66992 11.47 4.13992 12.39 4.85992 12.95C5.11992 10.84 5.96992 8.83 7.30992 7.4ZM17.2199 7.37C17.0399 7.37 16.8699 7.38 16.6899 7.4C18.0299 8.83 18.8799 10.84 19.1399 12.95C19.8599 12.39 20.3299 11.47 20.3299 10.27C20.3299 8.2 18.9399 7.37 17.2199 7.37Z" fill="#F8BBD0"/>
<path d="M14.07 15.71C14.07 17.57 13.11 18.04 12 18.04C10.89 18.04 9.93 17.57 9.93 15.71C9.93 13.85 10.89 12.35 12 12.35C13.11 12.35 14.07 13.86 14.07 15.71ZM9.5 12.25C9.5 12.5815 9.3683 12.8995 9.13388 13.1339C8.89946 13.3683 8.58152 13.5 8.25 13.5C7.91848 13.5 7.60054 13.3683 7.36612 13.1339C7.1317 12.8995 7 12.5815 7 12.25C7 11.9185 7.1317 11.6005 7.36612 11.3661C7.60054 11.1317 7.91848 11 8.25 11C8.58152 11 8.89946 11.1317 9.13388 11.3661C9.3683 11.6005 9.5 11.9185 9.5 12.25ZM17 12.25C17 12.5815 16.8683 12.8995 16.6339 13.1339C16.3995 13.3683 16.0815 13.5 15.75 13.5C15.4185 13.5 15.1005 13.3683 14.8661 13.1339C14.6317 12.8995 14.5 12.5815 14.5 12.25C14.5 11.9185 14.6317 11.6005 14.8661 11.3661C15.1005 11.1317 15.4185 11 15.75 11C16.0815 11 16.3995 11.1317 16.6339 11.3661C16.8683 11.6005 17 11.9185 17 12.25Z" fill="#263238"/>
</svg>
