<svg width="24" height="25" viewBox="0 0 24 25" fill="none" xmlns="http://www.w3.org/2000/svg">
<path fill-rule="evenodd" clip-rule="evenodd" d="M13.856 3.12168C13.6403 2.55866 13.1378 2.14512 12.5357 2.11403C12.1792 2.09562 11.8221 2.09562 11.4656 2.11403C10.8635 2.14512 10.361 2.55866 10.1452 3.12168C9.95106 3.62841 9.51867 3.99889 9.00804 4.18258C8.74531 4.2771 8.4872 4.38402 8.23459 4.50298C7.74371 4.73415 7.17608 4.77798 6.68049 4.55707C6.12984 4.31161 5.48216 4.37459 5.03446 4.77837C4.76965 5.0172 4.51732 5.26953 4.27849 5.53434C3.87471 5.98204 3.81173 6.62971 4.05719 7.18037C4.2781 7.67595 4.23427 8.24359 4.0031 8.73447C3.88414 8.98708 3.77722 9.24519 3.6827 9.50792C3.49901 10.0185 3.12853 10.4509 2.6218 10.6451C2.05878 10.8608 1.64524 11.3633 1.61415 11.9655C1.59574 12.3219 1.59574 12.6791 1.61415 13.0356C1.64524 13.6377 2.05878 14.1402 2.6218 14.3559C3.12853 14.5501 3.49901 14.9825 3.6827 15.4931C3.77722 15.7558 3.88414 16.014 4.0031 16.2666C4.23427 16.7574 4.2781 17.3251 4.05719 17.8207C3.81173 18.3713 3.87471 19.019 4.27849 19.4667C4.51732 19.7315 4.76965 19.9838 5.03446 20.2227C5.48216 20.6264 6.12984 20.6894 6.68049 20.444C7.17608 20.223 7.74371 20.2669 8.23459 20.498C8.48719 20.617 8.74529 20.7239 9.00802 20.8184C9.51866 21.0021 9.95107 21.3726 10.1452 21.8794C10.361 22.4424 10.8634 22.8559 11.4656 22.887C11.822 22.9054 12.1792 22.9054 12.5357 22.887C13.1378 22.8559 13.6403 22.4424 13.856 21.8794C14.0502 21.3726 14.4826 21.0021 14.9933 20.8184C15.256 20.7239 15.5141 20.617 15.7667 20.498C16.2576 20.2669 16.8252 20.223 17.3208 20.444C17.8714 20.6894 18.5191 20.6264 18.9668 20.2227C19.2316 19.9838 19.484 19.7315 19.7228 19.4667C20.1266 19.019 20.1895 18.3713 19.9441 17.8207C19.7232 17.3251 19.767 16.7574 19.9982 16.2666C20.1171 16.014 20.224 15.7559 20.3186 15.4931C20.5023 14.9825 20.8728 14.5501 21.3795 14.3559C21.9425 14.1402 22.356 13.6377 22.3871 13.0356C22.4055 12.6791 22.4055 12.3219 22.3871 11.9654C22.356 11.3633 21.9425 10.8609 21.3795 10.6451C20.8728 10.4509 20.5023 10.0185 20.3186 9.5079C20.224 9.24517 20.1171 8.98707 19.9982 8.73447C19.767 8.24359 19.7232 7.67595 19.9441 7.18037C20.1895 6.62971 20.1266 5.98204 19.7228 5.53434C19.484 5.26953 19.2316 5.0172 18.9668 4.77837C18.5191 4.37459 17.8714 4.31161 17.3208 4.55707C16.8252 4.77798 16.2576 4.73415 15.7667 4.50298C15.5141 4.38402 15.256 4.2771 14.9932 4.18258C14.4826 3.99889 14.0502 3.62841 13.856 3.12168ZM12.0006 5.83597C15.6785 5.83597 18.6652 8.82267 18.6652 12.5005C18.6652 16.1784 15.6785 19.1651 12.0006 19.1651C8.3228 19.1651 5.33609 16.1784 5.33609 12.5005C5.33609 8.82267 8.3228 5.83597 12.0006 5.83597Z" fill="#60A5FA"/>
<path fill-rule="evenodd" clip-rule="evenodd" d="M14.6762 15.1714C14.3256 15.524 13.9087 15.8036 13.4495 15.9943C12.9902 16.185 12.4978 16.2829 12.0006 16.2823C9.91301 16.2823 8.21875 14.588 8.21875 12.5005C8.21875 10.4129 9.91301 8.71863 12.0006 8.71863C13.0453 8.71863 13.9917 9.14314 14.6762 9.82954L13.3394 11.1655C13.0751 10.9004 12.7382 10.7198 12.3713 10.6463C12.0043 10.5729 11.6238 10.61 11.2779 10.7529C10.9321 10.8959 10.6364 11.1382 10.4284 11.4493C10.2203 11.7604 10.1093 12.1262 10.1093 12.5005C10.1093 12.8747 10.2203 13.2405 10.4284 13.5516C10.6364 13.8627 10.9321 14.1051 11.2779 14.248C11.6238 14.391 12.0043 14.4281 12.3713 14.3546C12.7382 14.2812 13.0751 14.1005 13.3394 13.8355L14.6762 15.1714Z" fill="#60A5FA"/>
</svg>
