<svg width="24" height="25" viewBox="0 0 24 25" fill="none" xmlns="http://www.w3.org/2000/svg">
<path d="M8.04195 3.53605C7.79197 3.60094 7.5459 3.68007 7.30495 3.77305C6.77795 3.99305 6.32195 4.26505 5.91995 4.59705C5.83278 4.67274 5.74093 4.74288 5.64495 4.80705C5.51895 4.86305 4.94495 5.46205 4.63795 5.85905C2.90595 8.10605 2.19595 11.3721 2.77795 14.4241C2.85395 14.8201 3.11695 15.7861 3.24295 16.1301C4.00695 18.2151 5.37895 19.8491 7.17095 20.8031C8.58295 21.5561 10.255 21.8631 11.993 21.6901C12.341 21.6561 12.517 21.6271 13.078 21.5251C13.311 21.4821 14.459 21.1401 14.737 21.0301C17.129 20.0841 19.102 18.4481 20.309 16.4121C20.815 15.5571 21.105 14.7431 21.338 13.5301C21.708 11.607 20.836 9.26805 19.014 7.30105C16.371 4.44705 12.226 2.84205 8.83395 3.35905C8.56672 3.40422 8.30303 3.4633 8.04195 3.53605ZM8.46195 5.04305C8.74195 4.96705 9.03695 4.90405 9.27495 4.87605C9.93794 4.79934 10.608 4.8074 11.269 4.90005C14.4 5.32005 17.577 7.38805 19.075 9.97705C19.573 10.8381 19.863 11.7671 19.878 12.5551C19.89 13.1901 19.749 13.7351 19.447 14.2341C19.3013 14.4788 19.1157 14.6975 18.898 14.8811C18.285 15.4191 17.443 15.7571 16.397 15.8861C15.849 15.9531 15.477 16.0921 15.167 16.3461C15.099 16.4021 14.525 16.9341 13.888 17.5281C12.64 18.6941 12.651 18.6851 12.468 18.6321C12.4127 18.6133 12.3617 18.5837 12.318 18.5451C12.188 18.4231 12.192 18.385 12.397 17.321C12.502 16.778 12.585 16.2681 12.584 16.1891C12.5776 15.9116 12.4723 15.6456 12.287 15.4391C12.174 15.3141 11.987 15.1951 11.74 15.0891C9.38095 14.0821 7.39695 12.3131 6.44495 10.3671C6.26768 10.0208 6.1295 9.65588 6.03295 9.27905C5.74295 8.21805 5.81295 7.36605 6.25195 6.59605C6.57395 6.03105 7.02895 5.63205 7.73895 5.29405C7.91695 5.21005 8.18195 5.11905 8.46195 5.04305Z" fill="#8D6E63"/>
</svg>
