<svg width="24" height="25" viewBox="0 0 24 25" fill="none" xmlns="http://www.w3.org/2000/svg">
<path fill-rule="evenodd" clip-rule="evenodd" d="M12.0061 2.87497C6.47812 2.87897 1.97812 7.34597 1.97412 12.834V12.859L3.68012 13.854L3.70312 13.838C4.76822 13.1122 6.07604 12.8346 7.34412 13.065C8.24134 13.2244 9.07377 13.6385 9.74212 14.258L10.0351 14.531L10.2011 14.168C10.3611 13.818 10.5471 13.488 10.7511 13.188C10.8401 13.0612 10.9328 12.9372 11.0291 12.816L11.2011 12.601L10.9901 12.425C10.0571 11.6461 8.93739 11.1236 7.74112 10.909C6.62178 10.7066 5.47032 10.7737 4.38212 11.105C5.19412 7.54897 8.32112 5.06897 12.0131 5.06597C13.0365 5.0625 14.0504 5.26095 14.997 5.64996C15.9435 6.03897 16.804 6.61089 17.5291 7.33297C18.5714 8.36075 19.2982 9.66494 19.6241 11.092C18.9469 10.8838 18.2426 10.777 17.5341 10.775H17.4071C17.1298 10.7794 16.8531 10.7998 16.5781 10.836L16.5441 10.841C16.4347 10.8548 16.3257 10.8715 16.2171 10.891C16.0594 10.9195 15.9026 10.9532 15.7471 10.992L15.6321 11.022C15.4981 11.058 15.3621 11.099 15.2291 11.142L15.2041 11.15C14.9036 11.2525 14.6102 11.3751 14.3261 11.517L14.3031 11.529C14.1701 11.5958 14.0393 11.6672 13.9111 11.743L13.8811 11.761C13.2083 12.1608 12.6096 12.6736 12.1111 13.277L12.0481 13.353C11.8435 13.6056 11.6574 13.8726 11.4911 14.152L11.4411 14.239C11.3725 14.357 11.3075 14.477 11.2461 14.599L11.2321 14.624C11.0898 14.9113 10.9671 15.208 10.8651 15.512L10.8501 15.556C10.6099 16.2861 10.494 17.0514 10.5071 17.82L10.5081 17.914C10.5122 18.0241 10.5182 18.1341 10.5261 18.244L10.5401 18.399C10.5461 18.463 10.5541 18.526 10.5611 18.589L10.5661 18.623L10.5771 18.709C10.5921 18.815 10.6091 18.919 10.6291 19.025C10.8311 20.082 11.3351 21.14 12.0871 22.083L12.1211 22.125L12.1561 22.084C12.4561 21.729 13.2001 20.605 13.2631 19.93L13.2641 19.918L13.2581 19.907C12.9083 19.2374 12.7248 18.4934 12.7231 17.738C12.7231 15.218 14.7051 13.125 17.2331 12.974L17.3981 12.968C18.4304 12.9443 19.4442 13.2435 20.2981 13.824L20.3211 13.84L22.0051 12.861L22.0271 12.848V12.823C22.0312 11.5135 21.7737 10.2163 21.2699 9.00762C20.7661 7.7989 20.026 6.70294 19.0931 5.78397C18.1612 4.85668 17.0556 4.12234 15.8395 3.62299C14.6234 3.12365 13.3207 2.87011 12.0061 2.87497Z" fill="#F472B6"/>
</svg>
