<svg width="24" height="25" viewBox="0 0 24 25" fill="none" xmlns="http://www.w3.org/2000/svg">
<path d="M20.35 12.75L21.75 14.16L15.22 20.75L11.75 17.25L13.15 15.84L15.22 17.92L20.35 12.75ZM9.25 17.25L12.25 20.25H2.25V18.25C2.25 16.04 5.83 14.25 10.25 14.25L12.14 14.36L9.25 17.25ZM10.25 4.25C11.3109 4.25 12.3283 4.67143 13.0784 5.42157C13.8286 6.17172 14.25 7.18913 14.25 8.25C14.25 9.31087 13.8286 10.3283 13.0784 11.0784C12.3283 11.8286 11.3109 12.25 10.25 12.25C9.18913 12.25 8.17172 11.8286 7.42157 11.0784C6.67143 10.3283 6.25 9.31087 6.25 8.25C6.25 7.18913 6.67143 6.17172 7.42157 5.42157C8.17172 4.67143 9.18913 4.25 10.25 4.25Z" fill="#4ADE80"/>
</svg>
