<svg width="24" height="25" viewBox="0 0 24 25" fill="none" xmlns="http://www.w3.org/2000/svg">
<path d="M18.4505 5.74902C19.3753 5.74902 20.125 6.53131 20.125 7.49632V12.0499C20.125 16.0269 17.0353 19.2508 13.2241 19.2508C9.76377 19.2508 6.89833 16.5933 6.39991 13.1276C6.36661 8.99994 6.36661 10.9999 6.36661 7.09921C6.53888 6.32552 7.20378 5.74902 7.99765 5.74902H18.4505Z" stroke="#EA580C" stroke-width="2"/>
<mask id="mask0_803_745" style="mask-type:alpha" maskUnits="userSpaceOnUse" x="0" y="6" width="4" height="7">
<rect x="-0.5" y="0.5" width="1.875" height="6" transform="matrix(-1 0 0 1 2.83325 6)" fill="#D9D9D9" stroke="#F87171"/>
</mask>
<g mask="url(#mask0_803_745)">
<ellipse cx="1.91667" cy="2" rx="1.91667" ry="2" transform="matrix(-1 0 0 1 5.70581 8)" stroke="#EA580C" stroke-width="2"/>
</g>
</svg>
