<svg width="24" height="25" viewBox="0 0 24 25" fill="none" xmlns="http://www.w3.org/2000/svg">
<path d="M13.8197 10.9488H11.3311C11.2856 10.6269 11.1928 10.3409 11.0527 10.0909C10.9125 9.8371 10.7326 9.6212 10.5129 9.44317C10.2932 9.26514 10.0394 9.12877 9.75155 9.03407C9.46746 8.93938 9.15875 8.89203 8.82542 8.89203C8.22315 8.89203 7.69852 9.04165 7.25155 9.34089C6.80458 9.63635 6.45799 10.0682 6.21178 10.6363C5.96557 11.2007 5.84246 11.8863 5.84246 12.6932C5.84246 13.5227 5.96557 14.2197 6.21178 14.7841C6.46178 15.3485 6.81027 15.7746 7.25724 16.0625C7.70421 16.3504 8.22125 16.4943 8.80837 16.4943C9.13792 16.4943 9.44284 16.4507 9.72314 16.3636C10.0072 16.2765 10.2591 16.1496 10.4788 15.9829C10.6985 15.8125 10.8803 15.606 11.0243 15.3636C11.172 15.1212 11.2743 14.8447 11.3311 14.5341L13.8197 14.5454C13.7553 15.0795 13.5944 15.5947 13.3368 16.0909C13.083 16.5833 12.7402 17.0246 12.3084 17.4148C11.8803 17.8011 11.369 18.1079 10.7743 18.3352C10.1834 18.5587 9.51481 18.6704 8.7686 18.6704C7.73072 18.6704 6.80269 18.4356 5.98451 17.9659C5.17011 17.4962 4.52617 16.8163 4.05269 15.9261C3.58299 15.036 3.34814 13.9583 3.34814 12.6932C3.34814 11.4242 3.58678 10.3447 4.06405 9.45453C4.54133 8.56438 5.18905 7.88635 6.00724 7.42044C6.82542 6.95074 7.74587 6.71589 8.7686 6.71589C9.44284 6.71589 10.0678 6.81059 10.6436 6.99998C11.2231 7.18938 11.7364 7.46589 12.1834 7.82953C12.6303 8.18938 12.994 8.63067 13.2743 9.15339C13.5584 9.67612 13.7402 10.2746 13.8197 10.9488Z" fill="#60A5FA"/>
<path d="M20.2317 9.78407V11.6023H14.8453V9.78407H20.2317ZM16.0783 18.5113V9.15339C16.0783 8.52082 16.2014 7.9962 16.4476 7.57953C16.6976 7.16286 17.0385 6.85036 17.4703 6.64203C17.9021 6.4337 18.3927 6.32953 18.9419 6.32953C19.3131 6.32953 19.6521 6.35794 19.9589 6.41476C20.2695 6.47157 20.5006 6.52271 20.6521 6.56817L20.2203 8.38635C20.1256 8.35604 20.0082 8.32764 19.868 8.30112C19.7317 8.27461 19.5915 8.26135 19.4476 8.26135C19.0915 8.26135 18.8434 8.34468 18.7033 8.51135C18.5631 8.67423 18.493 8.90339 18.493 9.19885V18.5113H16.0783Z" fill="#60A5FA"/>
</svg>
