<svg width="24" height="25" viewBox="0 0 24 25" fill="none" xmlns="http://www.w3.org/2000/svg">
<path d="M6.61011 3.51699C7.56304 3.51699 8.47693 3.89554 9.15075 4.56936C9.82457 5.24318 10.2031 6.15707 10.2031 7.10999V8.90699H13.7971V7.10999C13.797 6.63807 13.8898 6.17074 14.0703 5.7347C14.2508 5.29866 14.5155 4.90246 14.8491 4.56871C15.1828 4.23496 15.5789 3.97022 16.0149 3.78959C16.4509 3.60896 16.9182 3.51599 17.3901 3.51599C17.862 3.51599 18.3293 3.60896 18.7653 3.78959C19.2013 3.97022 19.5974 4.23496 19.9311 4.56871C20.2648 4.90246 20.5294 5.29866 20.7099 5.7347C20.8904 6.17074 20.9832 6.63807 20.9831 7.10999C20.9831 7.58183 20.8902 8.04905 20.7096 8.48497C20.529 8.9209 20.2644 9.31699 19.9307 9.65063C19.5971 9.98427 19.201 10.2489 18.7651 10.4295C18.3292 10.6101 17.862 10.703 17.3901 10.703H15.5931V14.297H17.3901C17.862 14.297 18.3292 14.3899 18.7651 14.5705C19.201 14.7511 19.5971 15.0157 19.9307 15.3494C20.2644 15.683 20.529 16.0791 20.7096 16.515C20.8902 16.9509 20.9831 17.4182 20.9831 17.89C20.9831 18.3618 20.8902 18.8291 20.7096 19.265C20.529 19.7009 20.2644 20.097 19.9307 20.4306C19.5971 20.7643 19.201 21.0289 18.7651 21.2095C18.3292 21.3901 17.862 21.483 17.3901 21.483C16.9183 21.483 16.4511 21.3901 16.0151 21.2095C15.5792 21.0289 15.1831 20.7643 14.8495 20.4306C14.5158 20.097 14.2512 19.7009 14.0706 19.265C13.89 18.8291 13.7971 18.3618 13.7971 17.89V16.093H10.2031V17.89C10.2031 18.3618 10.1102 18.8291 9.92961 19.265C9.74905 19.7009 9.48439 20.097 9.15075 20.4306C8.81711 20.7643 8.42102 21.0289 7.9851 21.2095C7.54917 21.3901 7.08195 21.483 6.61011 21.483C6.13819 21.4831 5.67086 21.3903 5.23482 21.2098C4.79879 21.0293 4.40258 20.7646 4.06883 20.431C3.73509 20.0973 3.47034 19.7012 3.28971 19.2652C3.10908 18.8292 3.01611 18.3619 3.01611 17.89C3.01611 17.4181 3.10908 16.9508 3.28971 16.5148C3.47034 16.0788 3.73509 15.6827 4.06883 15.349C4.40258 15.0153 4.79879 14.7507 5.23482 14.5702C5.67086 14.3897 6.13819 14.2969 6.61011 14.297H8.40711V10.703H6.61011C6.13819 10.7031 5.67086 10.6103 5.23482 10.4298C4.79879 10.2493 4.40258 9.98463 4.06883 9.65098C3.73509 9.31733 3.47034 8.92119 3.28971 8.4852C3.10908 8.04922 3.01611 7.58192 3.01611 7.10999C3.01598 6.63798 3.10885 6.17058 3.28942 5.73447C3.46999 5.29837 3.73472 4.90212 4.06848 4.56836C4.40224 4.2346 4.79849 3.96987 5.23459 3.7893C5.6707 3.60873 6.13811 3.51686 6.61011 3.51699ZM15.5931 17.89C15.5931 18.3666 15.7824 18.8237 16.1194 19.1607C16.4564 19.4977 16.9135 19.687 17.3901 19.687C17.8667 19.687 18.3238 19.4977 18.6608 19.1607C18.9978 18.8237 19.1871 18.3666 19.1871 17.89C19.1868 17.4136 18.9974 16.9568 18.6604 16.62C18.3235 16.2832 17.8665 16.094 17.3901 16.094H15.5931V17.891M13.7971 10.704H10.2031V14.297H13.7971V10.704ZM6.61011 16.094C6.13352 16.094 5.67645 16.2833 5.33944 16.6203C5.00244 16.9573 4.81311 17.4144 4.81311 17.891C4.81338 18.3674 5.00282 18.8242 5.3398 19.161C5.67677 19.4978 6.13369 19.687 6.61011 19.687C7.08653 19.687 7.54346 19.4978 7.88043 19.161C8.21741 18.8242 8.40685 18.3674 8.40711 17.891V16.094H6.61011ZM8.40711 7.10999C8.40685 6.63357 8.21741 6.17675 7.88043 5.83997C7.54346 5.50318 7.08653 5.31399 6.61011 5.31399C6.13369 5.31399 5.67677 5.50318 5.3398 5.83997C5.00282 6.17675 4.81338 6.63357 4.81311 7.10999C4.81311 7.58659 5.00244 8.04366 5.33944 8.38066C5.67645 8.71767 6.13352 8.90699 6.61011 8.90699H8.40711V7.10999ZM17.3901 8.90699C17.8667 8.90699 18.3238 8.71767 18.6608 8.38066C18.9978 8.04366 19.1871 7.58659 19.1871 7.10999C19.1868 6.63357 18.9974 6.17675 18.6604 5.83997C18.3235 5.50318 17.8665 5.31399 17.3901 5.31399C16.9137 5.31399 16.4568 5.50318 16.1198 5.83997C15.7828 6.17675 15.5934 6.63357 15.5931 7.10999V8.90699H17.3901Z" fill="#71717A"/>
</svg>
