<svg width="24" height="24" viewBox="0 0 24 24" fill="none" xmlns="http://www.w3.org/2000/svg">
<path d="M12.0028 3.05993C11.7359 3.1489 11.8717 3.05525 9.16029 5.05015C7.84909 6.0195 6.62686 6.91393 6.45359 7.04037C5.72306 7.55548 5.10961 8.26728 4.68815 9.09146C3.62514 11.18 3.98104 13.8118 5.55448 15.4929C5.68092 15.6334 6.10706 16.0221 6.49106 16.364C6.87973 16.7011 8.14411 17.8297 9.30078 18.8646C10.7899 20.1945 11.483 20.7846 11.6656 20.8736C11.8951 20.986 11.9794 21 12.3915 21C12.7708 21 12.9019 20.9813 13.0705 20.9017C13.2719 20.808 19.1816 16.4202 19.4486 16.1673C19.6359 15.9893 19.8513 15.5491 19.8981 15.2401C19.973 14.7671 19.856 14.2894 19.5656 13.8961C19.5141 13.8258 18.9803 13.3716 18.3762 12.8893C17.7768 12.4069 17.2851 11.9948 17.2851 11.9761C17.2851 11.9574 17.7768 11.564 18.3809 11.1004C19.5563 10.1966 19.7061 10.0374 19.8466 9.55507C19.9403 9.22258 19.9122 8.67001 19.781 8.37498C19.7295 8.25323 19.6031 8.06592 19.5048 7.95821C19.2612 7.6866 13.5575 3.30344 13.2484 3.1489C12.9487 2.99437 12.3306 2.95222 12.0028 3.05993ZM15.5805 6.58145C17.1774 7.80367 18.5073 8.85732 18.5401 8.9182C18.6618 9.15702 18.5916 9.23195 17.3459 10.1873L16.1565 11.1051L14.8593 10.0608C14.1475 9.48482 13.4545 8.95566 13.3234 8.88542C12.8551 8.62786 12.265 8.61381 11.7874 8.84795C11.4924 8.99312 9.41317 10.604 9.23522 10.8288C8.95893 11.1753 8.88868 11.3954 8.884 11.8918C8.87932 12.2758 8.89337 12.3695 9.00107 12.5942C9.06663 12.7347 9.17902 12.9221 9.24927 13.0017C9.42722 13.2124 11.5298 14.8233 11.8248 14.9731C12.0356 15.0855 12.1199 15.0996 12.5085 15.0996C12.8317 15.0996 13.0143 15.0762 13.1782 15.0106C13.3187 14.9591 13.9275 14.5236 14.747 13.8914C15.4868 13.3248 16.1144 12.8612 16.1425 12.8612C16.1705 12.8612 16.7184 13.2873 17.3647 13.8071C18.5541 14.7624 18.6431 14.8561 18.5682 15.0855C18.5541 15.137 17.2289 16.1626 15.543 17.4223C12.2088 19.9136 12.3868 19.8059 12.0543 19.5108C11.956 19.4219 10.9913 18.5649 9.90955 17.6002C8.82781 16.6356 7.67114 15.6053 7.33397 15.315C6.39271 14.4955 6.0134 14.0085 5.71838 13.2358C5.51234 12.7113 5.43741 12.2852 5.43741 11.6764C5.43741 10.1685 6.07428 8.96503 7.35739 8.05187C7.60558 7.8786 8.83717 6.97481 10.0922 6.04292C11.9841 4.64742 12.4102 4.3524 12.532 4.3524C12.6584 4.3524 13.1407 4.70362 15.5805 6.58145ZM13.8151 10.9552C14.4566 11.4704 14.9951 11.9059 15.0092 11.9293C15.0326 11.9714 12.7895 13.7228 12.635 13.779C12.5928 13.7931 12.5039 13.7884 12.443 13.765C12.3353 13.7228 10.5839 12.4069 10.3451 12.1822C10.1905 12.0417 10.1718 11.8122 10.2982 11.667C10.3685 11.5874 12.0215 10.3043 12.3212 10.0983C12.3821 10.0561 12.4851 10.0187 12.5413 10.0187C12.6116 10.0187 13.0705 10.3558 13.8151 10.9552Z" fill="#A855F7"/>
</svg>
