<svg width="24" height="25" viewBox="0 0 24 25" fill="none" xmlns="http://www.w3.org/2000/svg">
<path d="M15.6171 14.685V10.3149H16.6759V14.685H15.6171ZM14.0525 13.0524V11.9475H18.2405V13.0524H14.0525Z" fill="#60A5FA"/>
<path d="M20.3765 14.685V10.3149H21.4353V14.685H20.3765ZM18.8119 13.0524V11.9475H22.9999V13.0524H18.8119Z" fill="#60A5FA"/>
<path d="M13.8877 10.4375H11.3991C11.3536 10.1155 11.2608 9.82955 11.1207 9.57955C10.9805 9.32576 10.8006 9.10985 10.5809 8.93182C10.3612 8.75379 10.1074 8.61742 9.81952 8.52273C9.53543 8.42803 9.22672 8.38068 8.89338 8.38068C8.29111 8.38068 7.76649 8.5303 7.31952 8.82955C6.87255 9.125 6.52596 9.55682 6.27975 10.125C6.03354 10.6894 5.91043 11.375 5.91043 12.1818C5.91043 13.0114 6.03354 13.7083 6.27975 14.2727C6.52975 14.8371 6.87823 15.2633 7.3252 15.5511C7.77217 15.839 8.28922 15.983 8.87634 15.983C9.20588 15.983 9.51081 15.9394 9.79111 15.8523C10.0752 15.7652 10.3271 15.6383 10.5468 15.4716C10.7665 15.3011 10.9483 15.0947 11.0922 14.8523C11.24 14.6098 11.3422 14.3333 11.3991 14.0227L13.8877 14.0341C13.8233 14.5682 13.6623 15.0833 13.4047 15.5795C13.151 16.072 12.8082 16.5133 12.3763 16.9034C11.9483 17.2898 11.4369 17.5966 10.8422 17.8239C10.2513 18.0473 9.58278 18.1591 8.83657 18.1591C7.79869 18.1591 6.87066 17.9242 6.05248 17.4545C5.23808 16.9848 4.59414 16.3049 4.12066 15.4148C3.65096 14.5246 3.41611 13.447 3.41611 12.1818C3.41611 10.9129 3.65475 9.83333 4.13202 8.94318C4.60929 8.05303 5.25702 7.375 6.0752 6.90909C6.89338 6.43939 7.81384 6.20455 8.83657 6.20455C9.51081 6.20455 10.1358 6.29924 10.7116 6.48864C11.2911 6.67803 11.8044 6.95455 12.2513 7.31818C12.6983 7.67803 13.0619 8.11932 13.3422 8.64205C13.6263 9.16477 13.8082 9.76326 13.8877 10.4375Z" fill="#60A5FA"/>
</svg>
