<svg width="24" height="25" viewBox="0 0 24 25" fill="none" xmlns="http://www.w3.org/2000/svg">
<path d="M21.5234 15.1004L14.6087 22.0013C14.5811 22.0289 14.5396 22.0428 14.512 22.0289L5.0664 19.4981C5.02488 19.4843 4.99716 19.4567 4.99716 19.4289L2.45268 9.9973C2.43888 9.9559 2.45268 9.92818 2.48028 9.90058L9.39516 2.99962C9.42276 2.97202 9.46428 2.9581 9.492 2.97202L18.9376 5.50282C18.979 5.5165 19.0067 5.54422 19.0067 5.57182L21.5375 15.0035C21.5651 15.045 21.5513 15.0727 21.5237 15.1003L21.5234 15.1004ZM12.2576 7.59082L2.97804 10.0664C2.96424 10.0664 2.95044 10.094 2.96424 10.1078L9.75456 16.8842C9.76836 16.898 9.79608 16.898 9.79608 16.8704L12.2854 7.60462C12.2992 7.60462 12.2716 7.57702 12.2578 7.5907L12.2576 7.59082Z" fill="#CFD8DC"/>
</svg>
