<svg width="24" height="25" viewBox="0 0 24 25" fill="none" xmlns="http://www.w3.org/2000/svg">
<path d="M14.8462 10.4375H12.3576C12.3121 10.1155 12.2193 9.82955 12.0792 9.57955C11.939 9.32576 11.7591 9.10985 11.5394 8.93182C11.3197 8.75379 11.0659 8.61742 10.778 8.52273C10.4939 8.42803 10.1852 8.38068 9.85188 8.38068C9.24961 8.38068 8.72499 8.5303 8.27802 8.82955C7.83105 9.125 7.48446 9.55682 7.23824 10.125C6.99203 10.6894 6.86893 11.375 6.86893 12.1818C6.86893 13.0114 6.99203 13.7083 7.23824 14.2727C7.48824 14.8371 7.83673 15.2633 8.2837 15.5511C8.73067 15.839 9.24771 15.983 9.83484 15.983C10.1644 15.983 10.4693 15.9394 10.7496 15.8523C11.0337 15.7652 11.2856 15.6383 11.5053 15.4716C11.725 15.3011 11.9068 15.0947 12.0507 14.8523C12.1985 14.6098 12.3007 14.3333 12.3576 14.0227L14.8462 14.0341C14.7818 14.5682 14.6208 15.0833 14.3632 15.5795C14.1095 16.072 13.7667 16.5133 13.3348 16.9034C12.9068 17.2898 12.3954 17.5966 11.8007 17.8239C11.2098 18.0473 10.5413 18.1591 9.79506 18.1591C8.75718 18.1591 7.82915 17.9242 7.01097 17.4545C6.19658 16.9848 5.55264 16.3049 5.07915 15.4148C4.60946 14.5246 4.37461 13.447 4.37461 12.1818C4.37461 10.9129 4.61324 9.83333 5.09052 8.94318C5.56779 8.05303 6.21552 7.375 7.0337 6.90909C7.85188 6.43939 8.77234 6.20455 9.79506 6.20455C10.4693 6.20455 11.0943 6.29924 11.6701 6.48864C12.2496 6.67803 12.7629 6.95455 13.2098 7.31818C13.6568 7.67803 14.0204 8.11932 14.3007 8.64205C14.5848 9.16477 14.7667 9.76326 14.8462 10.4375Z" fill="#14B8A6"/>
<path d="M19.4279 16.9693L20.8333 8.03064H22.1717L20.7663 16.9693H19.4279ZM15.5923 14.7521L15.814 13.3555H22.5064L22.2847 14.7521H15.5923ZM16.4163 16.9693L17.8217 8.03064H19.1602L17.7548 16.9693H16.4163ZM16.0817 11.6445L16.3075 10.2479H22.9999L22.7741 11.6445H16.0817Z" fill="#14B8A6"/>
</svg>
