<svg width="24" height="25" viewBox="0 0 24 25" fill="none" xmlns="http://www.w3.org/2000/svg">
<g clip-path="url(#clip0_808_413)">
<path d="M17.7671 8V10H19.7671V20H9.76709V18H7.76709V22H21.7671V8H17.7671Z" fill="#42A5F5"/>
<path d="M4.38426 5.22226C4.38426 4.17906 5.22995 3.33337 6.27315 3.33337C6.62088 3.33337 6.90278 3.61527 6.90278 3.963C6.90278 4.31074 6.62088 4.59263 6.27315 4.59263C5.92542 4.59263 5.64352 4.87453 5.64352 5.22226V7.70203C5.64352 8.03207 5.55799 8.34598 5.40563 8.6198C5.27667 8.85158 5.27667 9.1485 5.40563 9.38028C5.55799 9.6541 5.64352 9.96802 5.64352 10.2981V12.7778C5.64352 13.1256 5.92542 13.4074 6.27315 13.4074C6.62088 13.4074 6.90278 13.6893 6.90278 14.0371C6.90278 14.3848 6.62088 14.6667 6.27315 14.6667C5.22995 14.6667 4.38426 13.8211 4.38426 12.7778V10.2981C4.38426 10.0091 4.18763 9.7573 3.90734 9.68722L3.60192 9.61084C3.32163 9.54083 3.125 9.28898 3.125 9.00004C3.125 8.7111 3.32163 8.45925 3.60192 8.38924L3.90734 8.31286C4.18763 8.24278 4.38426 7.99093 4.38426 7.70203V5.22226ZM14.4583 5.22226C14.4583 4.17906 13.6127 3.33337 12.5694 3.33337C12.2217 3.33337 11.9398 3.61527 11.9398 3.963C11.9398 4.31074 12.2217 4.59263 12.5694 4.59263C12.9172 4.59263 13.1991 4.87453 13.1991 5.22226V7.70203C13.1991 8.03208 13.2846 8.34599 13.437 8.61982C13.5659 8.85158 13.5659 9.1485 13.437 9.38026C13.2846 9.65409 13.1991 9.96801 13.1991 10.2981V12.7778C13.1991 13.1256 12.9172 13.4074 12.5694 13.4074C12.2217 13.4074 11.9398 13.6893 11.9398 14.0371C11.9398 14.3848 12.2217 14.6667 12.5694 14.6667C13.6127 14.6667 14.4583 13.8211 14.4583 12.7778V10.2981C14.4583 10.0091 14.655 9.7573 14.9353 9.68722L15.2406 9.61084C15.521 9.54083 15.7176 9.28898 15.7176 9.00004C15.7176 8.7111 15.521 8.45925 15.2406 8.38924L14.9353 8.31286C14.655 8.24278 14.4583 7.99093 14.4583 7.70203V5.22226Z" fill="#0EA5E9"/>
</g>
<defs>
<clipPath id="clip0_808_413">
<rect width="24" height="24" fill="white" transform="translate(0 0.5)"/>
</clipPath>
</defs>
</svg>
