<svg width="24" height="25" viewBox="0 0 24 25" fill="none" xmlns="http://www.w3.org/2000/svg">
<path fill-rule="evenodd" clip-rule="evenodd" d="M11.9263 3.50004C9.95458 3.50266 8.05445 4.23908 6.59597 5.56588C5.13748 6.89267 4.22507 8.71484 4.03643 10.6775C3.84779 12.6401 4.39643 14.6027 5.5755 16.183C6.75456 17.7633 8.47964 18.8482 10.4147 19.2263V21.5C15.1664 20.783 19.3739 17.0116 19.6882 12.0585C19.7876 10.5821 19.4867 9.10628 18.8172 7.78665C18.1477 6.46702 17.1344 5.35254 15.8844 4.56077C15.5922 4.38418 15.2868 4.2305 14.9709 4.10112L14.8187 4.04023C14.6792 3.98817 14.5388 3.93121 14.3944 3.888C13.5976 3.62821 12.7644 3.49724 11.9263 3.50004ZM13.5665 6.43963C13.4251 6.42402 13.2821 6.44346 13.15 6.49621C13.018 6.54897 12.9009 6.63343 12.8092 6.74214C12.6798 6.92288 12.568 7.11561 12.4753 7.31768C12.3324 7.63182 12.2794 7.97943 12.3223 8.32187C12.3651 8.66431 12.502 8.98816 12.7179 9.25744C13.0583 9.18947 13.3769 9.03942 13.6462 8.82034C13.9154 8.60125 14.1271 8.31975 14.2628 8.00028C14.359 7.80129 14.4109 7.58383 14.415 7.36286C14.4198 7.12918 14.3343 6.90265 14.1762 6.73049C14.0181 6.55832 13.7997 6.45476 13.5665 6.43963ZM10.0307 6.48481C9.80397 6.49975 9.59066 6.5976 9.43145 6.75972C9.27223 6.92184 9.17824 7.13687 9.16739 7.36384C9.17146 7.58451 9.22341 7.80166 9.31963 8.00028C9.46467 8.32191 9.68479 8.60404 9.96148 8.82297C10.2382 9.0419 10.5634 9.19123 10.9097 9.25842C11.1657 8.89024 11.2912 8.4471 11.2665 7.99939C11.2418 7.55167 11.0681 7.12506 10.7732 6.78732C10.6839 6.67995 10.5695 6.5962 10.4402 6.54345C10.3109 6.4907 10.1706 6.47056 10.0317 6.48481H10.0307ZM7.65586 8.81547C7.48329 8.82181 7.31695 8.88151 7.17973 8.98634C7.04251 9.09117 6.94118 9.23596 6.88968 9.40078C6.83819 9.56561 6.83907 9.74234 6.89221 9.90664C6.94535 10.0709 7.04813 10.2147 7.18639 10.3182C7.36702 10.452 7.55969 10.5687 7.76193 10.6668C8.09284 10.8046 8.4526 10.8588 8.80941 10.8245C9.16623 10.7903 9.50911 10.6686 9.80776 10.4704C9.71895 10.1353 9.5536 9.82532 9.32472 9.56492C9.09584 9.30451 8.80968 9.10075 8.48872 8.96967C8.27462 8.87273 8.04307 8.82028 7.80809 8.81547C7.75744 8.81109 7.70651 8.81109 7.65586 8.81547ZM15.1261 11.7619C14.68 11.7541 14.2418 11.8811 13.869 12.1263C13.9578 12.4612 14.1231 12.7708 14.3518 13.0311C14.5805 13.2913 14.8664 13.4949 15.187 13.6261C15.4035 13.723 15.6374 13.7748 15.8745 13.7783C16.0602 13.8002 16.248 13.7604 16.4089 13.6651C16.5698 13.5698 16.6949 13.4242 16.7649 13.2508C16.8349 13.0774 16.846 12.8858 16.7963 12.7055C16.7467 12.5252 16.6392 12.3662 16.4903 12.253C16.3096 12.1236 16.1169 12.0118 15.9148 11.9191C15.6661 11.8133 15.3993 11.7566 15.1291 11.7521L15.1261 11.7619ZM8.50444 11.8071C8.23425 11.8119 7.9675 11.8686 7.71871 11.9741C7.50464 12.0495 7.30839 12.1682 7.14219 12.3227C7.0043 12.4436 6.90868 12.6054 6.86932 12.7845C6.82996 12.9636 6.84892 13.1506 6.92342 13.3182C6.99793 13.4857 7.12407 13.625 7.28342 13.7158C7.44276 13.8065 7.62696 13.8439 7.80907 13.8225C8.04438 13.8223 8.27665 13.7693 8.48872 13.6673C8.80712 13.5425 9.08912 13.3398 9.30892 13.0778C9.52872 12.8158 9.6793 12.5028 9.74686 12.1676C9.37946 11.9225 8.94601 11.7954 8.50444 11.8032V11.8071ZM10.9598 13.2921C10.6192 13.3601 10.3003 13.5103 10.0309 13.7295C9.76148 13.9488 9.54969 14.2305 9.41391 14.5503C9.31809 14.7434 9.2661 14.9554 9.26168 15.171C9.25744 15.3538 9.30883 15.5336 9.40906 15.6866C9.50929 15.8396 9.65362 15.9585 9.82294 16.0276C9.99226 16.0967 10.1786 16.1128 10.3572 16.0736C10.5359 16.0345 10.6984 15.942 10.8233 15.8084C10.9525 15.6272 11.0643 15.4341 11.1572 15.2319C11.2937 14.919 11.3473 14.5763 11.3129 14.2368C11.2785 13.8972 11.1572 13.5722 10.9608 13.2931L10.9598 13.2921ZM12.7631 13.3373C12.5075 13.7055 12.3822 14.1484 12.4069 14.5958C12.4317 15.0433 12.605 15.4697 12.8996 15.8074C13.0266 15.9325 13.1864 16.0191 13.3605 16.0574C13.5345 16.0956 13.7159 16.084 13.8836 16.0237C14.0514 15.9635 14.1988 15.8572 14.3087 15.7169C14.4187 15.5766 14.4869 15.4082 14.5054 15.2309C14.501 15.0103 14.4491 14.7932 14.3532 14.5945C14.208 14.2728 13.9878 13.9907 13.7109 13.7719C13.434 13.5532 13.1086 13.4041 12.7621 13.3373H12.7631Z" fill="#4ADE80"/>
</svg>
