<svg width="24" height="25" viewBox="0 0 24 25" fill="none" xmlns="http://www.w3.org/2000/svg">
<path d="M9.16352 9.52393V8.19397C9.29492 8.18581 9.42632 8.17753 9.5576 8.17753C13.2028 8.06257 15.5919 11.3137 15.5919 11.3137C15.5919 11.3137 13.014 14.8933 10.2472 14.8933C9.87776 14.8933 9.51656 14.8357 9.1718 14.7208V10.6816C10.5921 10.8539 10.8794 11.4779 11.725 12.8981L13.6215 11.3053C13.6215 11.3053 12.2341 9.49093 9.90248 9.49093C9.65612 9.48277 9.40988 9.49933 9.16352 9.52393ZM9.16352 5.12341V7.11013L9.5576 7.08553C14.6232 6.91309 17.9317 11.2397 17.9317 11.2397C17.9317 11.2397 14.1387 15.8537 10.1898 15.8537C9.845 15.8537 9.5084 15.8208 9.1718 15.7633V16.9948C9.45092 17.0277 9.7382 17.0524 10.0173 17.0524C13.6953 17.0524 16.3554 15.1722 18.9333 12.9556C19.3603 13.3005 21.1089 14.1297 21.4701 14.4909C19.0236 16.5433 13.3177 18.1936 10.083 18.1936C9.77096 18.1936 9.47552 18.1771 9.17996 18.1444V19.8767H23.1528V5.12389L9.16352 5.12341ZM9.16352 14.7207V15.7715C5.76464 15.1641 4.82048 11.6255 4.82048 11.6255C4.82048 11.6255 6.45428 9.81961 9.16352 9.52393V10.6733H9.15536C7.73504 10.5009 6.61856 11.8308 6.61856 11.8308C6.61856 11.8308 7.2506 14.0722 9.16352 14.7207ZM3.12932 11.4778C3.12932 11.4778 5.14076 8.50573 9.17168 8.19385V7.11025C4.70564 7.47133 0.846924 11.2479 0.846924 11.2479C0.846924 11.2479 3.0308 17.5695 9.16352 18.1443V16.9948C4.66448 16.4365 3.12932 11.4778 3.12932 11.4778Z" fill="#14B8A6"/>
</svg>
