<svg width="24" height="25" viewBox="0 0 24 25" fill="none" xmlns="http://www.w3.org/2000/svg">
<path d="M22.5769 4.2832C22.2425 4.2832 21.9218 4.41646 21.6854 4.65365C21.4489 4.89085 21.3161 5.21256 21.3161 5.548C21.316 5.71417 21.3485 5.87872 21.4119 6.03227C21.4752 6.18581 21.568 6.32534 21.6851 6.44287C21.8022 6.5604 21.9412 6.65364 22.0942 6.71725C22.2473 6.78086 22.4113 6.8136 22.5769 6.8136C22.7426 6.8136 22.9066 6.78086 23.0596 6.71725C23.2126 6.65364 23.3516 6.5604 23.4687 6.44287C23.5858 6.32534 23.6787 6.18581 23.742 6.03227C23.8053 5.87872 23.8378 5.71417 23.8377 5.548C23.8377 5.21256 23.7049 4.89085 23.4684 4.65365C23.232 4.41646 22.9113 4.2832 22.5769 4.2832ZM8.67532 4.7064L3.49692 4.7152C3.47452 4.7152 3.45292 4.712 3.43132 4.7152C3.17772 4.752 2.97932 4.9912 2.97852 5.28L2.99452 20.0328C2.99452 20.256 3.04572 20.7168 3.57932 20.7168L8.37452 20.6944C9.73997 20.6912 10.6567 20.6642 11.2046 20.5833C11.2086 20.5827 11.2126 20.5824 11.2166 20.5824C11.2211 20.5824 11.2255 20.582 11.2299 20.5813C11.7512 20.4955 12.3034 20.3382 12.9033 20.108C13.9513 19.7224 14.8801 19.152 15.6785 18.3904C16.4609 17.6528 17.0673 16.7792 17.4929 15.7968C17.8492 14.975 18.0571 14.1137 18.1149 13.2235C18.1314 12.9708 18.3221 12.7629 18.5684 12.7043C19.2583 12.5402 19.8853 12.1744 20.363 11.6505C20.9399 11.0178 21.2587 10.199 21.2585 9.3504C21.2585 8.4353 20.8877 7.55768 20.2275 6.9106C19.5674 6.26353 18.6721 5.9 17.7385 5.9C17.0445 5.90002 16.3693 6.10106 15.7958 6.47317C15.5897 6.60691 15.3176 6.60629 15.1232 6.45604C14.7292 6.15153 14.3036 5.88608 13.8481 5.6608C12.5289 5.0016 10.8089 4.7016 8.67532 4.7064ZM8.45132 7.7472C9.49452 7.7448 10.2369 7.7824 10.6577 7.8504C11.0841 7.9192 11.5521 8.0648 12.0465 8.2904C12.5377 8.5104 12.9649 8.78 13.3329 9.116C14.3433 10.0424 14.8201 11.1384 14.8225 12.5896C14.8249 14.0752 14.3641 15.2328 13.3793 16.2032C13.0761 16.4976 12.7393 16.7472 12.3673 16.9544C12.0161 17.1472 11.5585 17.3128 10.9793 17.456C10.4337 17.5848 9.60572 17.6584 8.52652 17.66L6.73002 17.6631C6.45376 17.6636 6.22946 17.44 6.22915 17.1637L6.21908 8.25087C6.21877 7.97486 6.44217 7.7508 6.71818 7.75031L8.45132 7.7472Z" fill="#F87171"/>
</svg>
