<svg width="24" height="25" viewBox="0 0 24 25" fill="none" xmlns="http://www.w3.org/2000/svg">
<path d="M12.6181 2.06604C12.3628 2.0671 12.118 2.16795 11.9361 2.34704L11.9261 2.35404L5.53809 6.04604L11.9101 12.418V12.422L19.5681 20.081L21.0281 17.451L15.7641 4.81104L13.3071 2.35404C13.2168 2.26286 13.1093 2.19047 12.9909 2.14104C12.8725 2.09161 12.7454 2.06612 12.6171 2.06604H12.6181Z" fill="#90A4AE"/>
<path d="M5.55319 6.03103L1.86319 12.414L1.85619 12.424C1.76627 12.5143 1.69507 12.6214 1.64668 12.7393C1.59829 12.8571 1.57367 12.9834 1.57423 13.1108C1.57479 13.2382 1.60051 13.3642 1.64993 13.4816C1.69935 13.5991 1.77148 13.7056 1.86219 13.795L4.92019 16.856L16.8832 21.562L19.5882 20.06L19.5152 19.987L19.4962 19.989L11.9962 12.477H11.9872L5.55319 6.03103Z" fill="#455A64"/>
<path d="M5.53711 6.03406L12.0551 12.5591H12.0651L19.5661 20.0691L22.4221 19.5251L22.4261 11.0761L19.4111 8.12106C18.7511 7.47406 17.7361 7.05706 16.7161 6.91906L16.7181 6.88706L5.53811 6.03506L5.53711 6.03406Z" fill="#455A64"/>
<path d="M5.54492 6.04199L12.0669 12.564V12.573L19.5729 20.079L19.0269 22.934H10.5779L7.62392 19.917C6.97692 19.257 6.56092 18.241 6.42392 17.221L6.39092 17.224L5.54492 6.04199Z" fill="#90A4AE"/>
</svg>
