<svg width="24" height="25" viewBox="0 0 24 25" fill="none" xmlns="http://www.w3.org/2000/svg">
<path fill-rule="evenodd" clip-rule="evenodd" d="M12 22.5C17.523 22.5 22 18.023 22 12.5C22 6.977 17.523 2.5 12 2.5C6.477 2.5 2 6.977 2 12.5C2 18.023 6.477 22.5 12 22.5ZM6.437 12.27C6.437 9.992 8.703 8.16 11.609 8.16C13.008 8.16 14.207 8.547 15.152 9.285C15.9575 9.91843 16.5506 10.7826 16.852 11.762L16.859 11.785L16.867 11.812L16.883 11.863L16.906 11.957L16.969 12.176L17.035 12.426L17.148 12.84L17.328 13.496L17.618 14.574L17.945 15.801L18.473 17.773L18.672 18.516L18.629 18.563C17.2055 20.1208 15.2788 21.1274 13.187 21.406L13.168 21.277L13.133 21.019L13.102 20.832L13.066 20.586L13.02 20.286L13 20.168L12.957 19.883L12.93 19.715L12.895 19.496L12.859 19.286L12.824 19.082L12.789 18.882L12.758 18.687L12.723 18.5L12.691 18.32L12.668 18.187L12.641 18.059L12.625 17.977L12.594 17.812L12.57 17.695L12.543 17.551L12.52 17.449L12.5 17.352L12.48 17.258L12.469 17.195L12.441 17.078L12.421 16.992L12.402 16.906L12.387 16.852L12.367 16.773L12.352 16.699L12.332 16.625L12.312 16.555L12.301 16.512L12.281 16.445L12.266 16.383L12.254 16.34L12.238 16.3L12.227 16.266L12.211 16.211L12.199 16.171L12.191 16.148C12.1699 16.0862 12.1466 16.0251 12.121 15.965L12.109 15.941L12.199 15.707L11.844 15.719L11.746 15.723C8.52 15.789 6.437 14.418 6.437 12.269V12.27ZM8.461 18.918C8.49685 18.7959 8.57914 18.6928 8.6902 18.6307C8.80126 18.5686 8.93224 18.5526 9.055 18.586C9.313 18.652 9.465 18.914 9.402 19.172L9.398 19.184L8.926 20.945L8.859 20.918C8.57298 20.8114 8.29261 20.6903 8.019 20.555L8.457 18.93L8.461 18.918ZM11.18 17.727C11.2075 17.6334 11.2624 17.5503 11.3376 17.4882C11.4128 17.4261 11.5048 17.388 11.6019 17.3788C11.699 17.3695 11.7966 17.3895 11.8822 17.4363C11.9677 17.483 12.0373 17.5543 12.082 17.641L12.098 17.711L12.121 17.824L12.137 17.906L12.133 17.926L12.121 17.981V17.992L11.457 20.453L11.453 20.465C11.4142 20.5839 11.3312 20.6833 11.2212 20.7427C11.1113 20.8022 10.9827 20.8172 10.8619 20.7846C10.7412 20.752 10.6376 20.6744 10.5725 20.5676C10.5074 20.4609 10.4857 20.3332 10.512 20.211V20.199L11.176 17.739L11.18 17.727ZM7.117 14.934L7.148 14.859C7.395 15.074 7.68 15.269 7.992 15.434L7.391 17.668L7.387 17.68C7.35279 17.8049 7.27035 17.9111 7.15783 17.9753C7.04531 18.0394 6.91192 18.0562 6.787 18.022C6.66208 17.9878 6.55587 17.9054 6.49174 17.7928C6.4276 17.6803 6.41079 17.5469 6.445 17.422L6.449 17.41L7.113 14.95L7.117 14.934ZM4.97 12.359C5.0078 12.2376 5.0909 12.1353 5.20205 12.0735C5.31321 12.0117 5.44389 11.995 5.567 12.027C5.821 12.097 5.974 12.359 5.911 12.617V12.629L5.247 15.089L5.243 15.102C5.20641 15.2241 5.12353 15.327 5.01207 15.3887C4.90061 15.4505 4.76941 15.4662 4.64651 15.4325C4.52362 15.3988 4.41878 15.3184 4.3544 15.2084C4.29002 15.0984 4.27122 14.9677 4.302 14.844V14.832L4.966 12.372L4.97 12.359ZM19.86 11.801C19.8988 11.6821 19.9818 11.5827 20.0918 11.5233C20.2017 11.4638 20.3303 11.4488 20.4511 11.4814C20.5718 11.514 20.6754 11.5916 20.7405 11.6984C20.8056 11.8051 20.8273 11.9328 20.801 12.055V12.07L20.134 14.531V14.543C20.0969 14.665 20.0137 14.7676 19.902 14.8293C19.7904 14.8909 19.6592 14.9065 19.5362 14.873C19.4132 14.8394 19.3081 14.7592 19.2433 14.6494C19.1785 14.5396 19.159 14.4089 19.189 14.285L19.192 14.273L19.857 11.813L19.86 11.801ZM3.075 11.457C3.20737 10.3087 3.5616 9.19714 4.118 8.184C4.19117 8.18569 4.26303 8.20374 4.32831 8.23684C4.39359 8.26994 4.45062 8.31724 4.49522 8.37527C4.53982 8.4333 4.57086 8.50058 4.58605 8.57218C4.60124 8.64377 4.6002 8.71786 4.583 8.789L4.579 8.801L3.915 11.261L3.911 11.273C3.88536 11.3562 3.83812 11.431 3.77411 11.49C3.71009 11.5489 3.63159 11.5898 3.5466 11.6085C3.46161 11.6272 3.37319 11.6231 3.29034 11.5964C3.20749 11.5698 3.13319 11.5217 3.075 11.457ZM18.177 8.531C18.215 8.4097 18.2981 8.30763 18.4092 8.24585C18.5203 8.18407 18.6509 8.1673 18.774 8.199C19.028 8.269 19.184 8.531 19.122 8.789L19.118 8.801L18.454 11.261L18.45 11.273C18.4126 11.394 18.3297 11.4957 18.2187 11.5566C18.1077 11.6176 17.9773 11.633 17.8552 11.5997C17.733 11.5663 17.6286 11.4868 17.564 11.3779C17.4994 11.2689 17.4797 11.1392 17.509 11.016L17.513 11.004L18.177 8.543V8.531ZM7.008 5.86C6.88529 5.82815 6.75501 5.84489 6.64435 5.90675C6.53368 5.9686 6.45116 6.07079 6.414 6.192L6.41 6.204L5.746 8.665L5.742 8.677C5.70779 8.80192 5.7246 8.93531 5.78874 9.04783C5.85287 9.16035 5.95908 9.24279 6.084 9.277C6.20892 9.31121 6.34231 9.2944 6.45483 9.23026C6.56735 9.16613 6.64979 9.05992 6.684 8.935L6.687 8.923L7.352 6.462L7.355 6.446C7.38495 6.32237 7.36544 6.19192 7.30062 6.08246C7.2358 5.973 7.13081 5.89318 7.008 5.86ZM15.543 6.325C15.4198 6.29275 15.2888 6.30927 15.1774 6.3711C15.0661 6.43294 14.9828 6.53534 14.945 6.657L14.941 6.669L14.496 8.325C14.785 8.467 15.061 8.635 15.32 8.825L15.363 8.86L15.887 6.927V6.915C15.9174 6.79124 15.8986 6.66049 15.8344 6.55039C15.7702 6.44029 15.6657 6.35947 15.543 6.325ZM11.199 3.552C10.8869 3.58008 10.5765 3.62447 10.269 3.685L10.203 3.696L9.586 5.989L9.582 6.001C9.55574 6.12324 9.57741 6.2509 9.64252 6.35763C9.70764 6.46437 9.81123 6.54204 9.93194 6.57462C10.0527 6.60721 10.1813 6.59221 10.2912 6.53274C10.4012 6.47327 10.4842 6.37385 10.523 6.255L10.527 6.243L11.191 3.783L11.195 3.771C11.2132 3.69895 11.2146 3.62467 11.199 3.552ZM17.309 5.251L17.179 5.735L17.176 5.747C17.1497 5.86924 17.1714 5.9969 17.2365 6.10363C17.3016 6.21037 17.4052 6.28804 17.5259 6.32062C17.6467 6.35321 17.7753 6.33821 17.8852 6.27874C17.9952 6.21927 18.0782 6.11985 18.117 6.001L18.121 5.989L18.137 5.939C17.8925 5.70988 17.6354 5.49455 17.367 5.294L17.309 5.251ZM13.445 3.634L13.211 4.504L13.207 4.517C13.1807 4.63924 13.2024 4.7669 13.2675 4.87363C13.3326 4.98037 13.4362 5.05804 13.5569 5.09062C13.6777 5.12321 13.8063 5.10821 13.9162 5.04874C14.0262 4.98927 14.1092 4.88985 14.148 4.771L14.152 4.759L14.398 3.841C14.1075 3.76115 13.8131 3.69607 13.516 3.646L13.446 3.634H13.445ZM12.676 9.989C12.618 9.93096 12.549 9.88491 12.4732 9.8535C12.3974 9.82209 12.3161 9.80592 12.234 9.80592C12.1519 9.80592 12.0706 9.82209 11.9948 9.8535C11.919 9.88491 11.85 9.93096 11.792 9.989C11.734 10.047 11.6879 10.116 11.6565 10.1918C11.6251 10.2676 11.6089 10.3489 11.6089 10.431C11.6089 10.5131 11.6251 10.5944 11.6565 10.6702C11.6879 10.746 11.734 10.815 11.792 10.873C11.9092 10.9902 12.0682 11.0561 12.234 11.0561C12.3998 11.0561 12.5588 10.9902 12.676 10.873C12.7932 10.7558 12.8591 10.5968 12.8591 10.431C12.8591 10.2652 12.7932 10.1062 12.676 9.989Z" fill="#71717A"/>
</svg>
