<svg width="24" height="25" viewBox="0 0 24 25" fill="none" xmlns="http://www.w3.org/2000/svg">
<path d="M18.5685 2.78967C18.3588 2.79474 18.0554 2.82004 17.6255 2.89279C17.0823 2.9849 16.6789 3.09539 16.5886 3.11935C15.9287 3.3017 15.451 3.508 15.021 3.69404C14.7786 3.79902 14.4601 3.93718 14.0673 4.14898L14.055 4.15635C13.8674 4.25765 13.7223 4.3387 13.6445 4.38291L13.6038 4.40498C13.3225 4.5634 13.05 4.68495 12.7651 4.83967C12.7651 4.83967 12.4927 4.98888 12.091 5.26148C11.9743 5.34069 11.8734 5.41986 11.8734 5.41986C11.847 5.44018 11.8211 5.46106 11.7955 5.48249C11.7 5.56169 11.6115 5.65011 11.5319 5.74772C11.4558 5.83983 11.3461 5.97246 11.2736 6.16032C11.155 6.46055 11.194 6.73681 11.2117 6.86207C11.2365 7.0223 11.2877 7.36488 11.5461 7.5933C11.7442 7.77193 11.9778 7.80144 12.1158 7.81618C12.9598 7.89723 13.7701 7.72225 14.2903 7.65225C14.9892 7.56016 15.5218 7.61172 15.9464 7.65225C16.7214 7.72777 17.5742 7.81063 18.4553 8.39084C18.664 8.52897 19.2249 8.92498 19.7097 9.65437C19.922 9.97302 20.2458 10.4611 20.3697 11.1629C20.4918 11.8628 20.3555 12.4393 20.5006 12.478C20.5696 12.4964 20.6475 12.384 20.8014 12.1648C21.0047 11.8742 21.1656 11.554 21.2791 11.2144C21.3234 11.08 21.3676 10.8792 21.4561 10.4758C21.5534 10.0375 21.6011 9.8183 21.633 9.61016C21.6595 9.43151 21.6914 9.17179 21.702 8.48846C21.7126 7.72225 21.7179 7.33911 21.6754 6.92655C21.617 6.36479 21.4985 5.81223 21.3216 5.27991C21.1305 4.71816 20.9341 4.15269 20.4493 3.61853C20.1007 3.23358 19.7929 3.07333 19.685 3.02177C19.3789 2.8726 19.1188 2.83391 18.9489 2.80812C18.8941 2.79984 18.7782 2.78465 18.5685 2.7897L18.5685 2.78967ZM16.8719 4.23525C17.0759 4.2373 17.2136 4.28481 17.2468 4.39395C17.3353 4.68497 16.8434 5.24488 15.9923 5.52483C15.1413 5.80297 14.0142 5.64823 13.9259 5.35721C13.8376 5.06619 14.6247 4.80651 15.4758 4.52839C16.0077 4.35456 16.532 4.23181 16.872 4.23525H16.8719Z" fill="#F87171"/>
<path d="M15.5967 8.26562C15.6268 8.17169 16.0585 8.23983 16.2248 8.26562C16.6954 8.3393 17.159 8.41297 17.711 8.72057C18.1073 8.93974 18.7071 9.36706 19.1565 10.1259C19.245 10.2733 19.6626 11.0008 19.7156 12.0563C19.7652 13.0196 19.4821 13.7361 19.3335 14.1007C18.7089 15.6331 17.5464 16.4287 16.9839 16.8028C16.5982 17.0588 15.6091 17.6574 14.2697 17.8195C13.5832 17.9024 12.6738 17.8876 12.6384 17.7016C12.6278 17.6427 12.7057 17.5727 12.8242 17.4658C12.8791 17.4161 13.0259 17.2927 13.2789 17.2246C13.4205 17.1859 13.4842 17.1951 13.8292 17.1877C14.16 17.1804 14.3246 17.1767 14.4343 17.1619C14.6802 17.1251 14.9226 17.057 15.1509 16.9557C15.3154 16.8838 15.4428 16.8304 15.5967 16.7144C15.7772 16.5764 15.9314 16.4046 16.0515 16.2079C16.1204 16.0992 16.1842 15.9979 16.2372 15.8487C16.2815 15.7271 16.2886 15.659 16.354 15.5577C16.4159 15.4619 16.4672 15.4324 16.5416 15.3588C16.6 15.3017 16.6442 15.2464 16.8424 14.9001C16.9857 14.6496 17.0564 14.5244 17.1007 14.436C17.3059 14.0215 17.382 13.6384 17.4244 13.4211C17.5748 12.6494 17.5023 12.001 17.4651 11.675C17.3979 11.0985 17.3324 10.5257 16.9874 9.88658C16.7592 9.46295 16.4637 8.91592 15.8958 8.53834C15.7843 8.45914 15.5755 8.33572 15.5967 8.26574L15.5967 8.26562Z" fill="#F87171"/>
<path d="M14.222 16.1213C14.222 16.1213 14.3335 15.8763 14.5847 15.1395C14.6803 14.8614 14.7351 14.7012 14.7599 14.4599C14.7917 14.1541 14.7563 13.911 14.6855 13.4303C14.6679 13.3032 14.6413 13.178 14.6042 13.0546C14.5776 12.9661 14.5529 12.9091 14.475 12.723C14.2715 12.246 14.2255 12.1557 14.1371 12.0452C14.0008 11.8758 13.9177 11.8518 13.8876 11.8463C13.7531 11.8187 13.5868 11.885 13.5373 12.0028C13.4931 12.1078 13.555 12.2202 13.6222 12.3546C13.6222 12.3546 13.7195 12.5517 13.9442 13.1632C14.0646 13.4929 14.0752 13.771 14.0823 13.9976C14.1088 14.8172 13.7797 15.4379 13.67 15.6368C13.3692 16.1857 12.9959 16.4988 12.7216 16.7235C12.1466 17.1932 11.5291 17.4511 11.2142 17.5819C10.71 17.7918 10.4605 17.8305 10.2464 18.1215C10.08 18.3481 10.0482 18.5783 9.99337 18.967C9.99337 18.967 9.90136 19.6337 10.1508 20.4073C10.1968 20.5528 10.2499 20.678 10.3684 20.7628C10.5383 20.8825 10.7488 20.8438 10.9205 20.8125C11.154 20.7701 11.3752 20.6707 11.5822 20.5786C11.7467 20.5049 11.8618 20.4423 11.998 20.4846C12.0564 20.5031 12.1112 20.5381 12.1891 20.621C12.3678 20.8143 12.4633 21.0482 12.5235 21.2803C12.6243 21.6634 12.6792 21.8789 12.5642 21.9968C12.4403 22.1239 12.1608 22.0963 11.9909 21.9894C11.8741 21.9158 11.8688 21.8403 11.7379 21.7905C11.6371 21.7518 11.561 21.7666 11.384 21.7831C11.2372 21.796 11.0886 21.7979 10.9417 21.8053C10.556 21.8255 10.3632 21.8347 10.1986 21.8274C9.97214 21.8163 9.86421 21.7924 9.79697 21.8697C9.7209 21.9563 9.77043 22.0815 9.67489 22.1607C9.61826 22.2068 9.54927 22.2086 9.46966 22.2105C9.37764 22.2123 9.2715 22.1902 9.21134 22.1534C9.06448 22.065 9.09634 21.8384 9.05387 21.3227C9.02732 20.9893 9.00964 21.0556 8.93709 20.422C8.92294 20.282 8.9017 20.1439 8.87164 20.0076C8.84332 19.8768 8.82386 19.8308 8.79378 19.6908C8.76723 19.5674 8.74602 19.4403 8.73186 19.3151C8.71063 19.1345 8.65931 18.8049 8.54075 18.1584C8.54075 18.1584 8.30899 17.1232 8.46645 16.7806C8.51776 16.6701 8.59561 16.6388 8.59561 16.6388C8.61684 16.6296 8.63454 16.6296 8.7124 16.6314C8.838 16.637 8.89993 16.6388 8.99193 16.6535C9.11403 16.672 9.10695 16.6848 9.15473 16.6812C9.23434 16.6756 9.30865 16.6425 9.36525 16.5872C9.45727 16.4933 9.44842 16.3515 9.45196 16.2318C9.45371 16.1765 9.4555 16.2189 9.63775 15.5024C9.78635 14.924 9.77221 14.9461 9.81468 14.8117C9.89783 14.5538 9.98276 14.3641 10.073 14.1689C10.3986 13.4708 10.5595 13.1227 10.7418 12.8133C11.1063 12.1925 11.4513 11.7965 11.8812 11.3011C12.3147 10.802 12.6916 10.3728 13.2931 9.93072C13.9336 9.46104 14.3158 9.35237 14.6166 9.32107C14.8059 9.30079 15.0819 9.27132 15.3862 9.39841C15.8869 9.60837 16.1081 10.0983 16.3134 10.5477C16.6424 11.2698 16.6743 11.9126 16.6884 12.2662C16.715 12.9219 16.6106 13.4063 16.5522 13.6715C16.3682 14.5041 16.0444 15.0935 15.8533 15.169C15.8321 15.1782 15.733 15.2114 15.6959 15.2998C15.6693 15.3642 15.687 15.4269 15.6923 15.4526C15.7419 15.681 15.5083 15.9868 15.4605 16.0494C15.2447 16.3312 14.9616 16.4104 14.8059 16.4546C14.7687 16.4657 14.2415 16.6075 14.1442 16.427C14.107 16.357 14.153 16.2741 14.222 16.1213L14.222 16.1213Z" fill="#F87171"/>
<path d="M10.0482 12.9697C10.0499 13.0415 10.0464 13.1115 10.0411 13.1833C10.011 13.5554 9.89245 13.7764 9.73852 14.1448C9.57043 14.5481 9.47135 14.7839 9.3882 15.1246C9.33511 15.342 9.26612 15.5538 9.22719 15.7748C9.18118 16.0364 9.18297 16.1542 9.08918 16.215C8.98657 16.2813 8.90694 16.1856 8.59378 16.1782C8.43101 16.1745 8.30892 16.1966 8.18507 16.2813C8.07006 16.3605 8.00459 16.4545 7.98514 16.5042C7.95312 16.5821 7.93744 16.6663 7.93913 16.751C7.96215 17.694 7.95329 17.8285 7.91615 17.8874C7.85598 17.9832 7.65783 18.0329 7.35704 18.1471C7.24025 18.1913 6.93594 18.3037 6.36092 18.4124C6.01945 18.4768 5.76113 18.5266 5.39664 18.5376C5.1454 18.5487 4.89593 18.5376 4.64646 18.5026C4.35806 18.4621 3.95289 18.405 3.52826 18.1674C3.34956 18.0679 2.72853 17.7198 2.43659 16.9554C2.2349 16.4268 2.28974 15.959 2.31805 15.7306C2.36579 15.3443 2.49641 14.9742 2.70022 14.6476C2.83646 14.4321 3.09301 14.0416 3.59018 13.8187C3.85558 13.7009 4.14396 13.6493 4.43238 13.6696C5.04809 13.7174 5.74167 14.1171 5.89206 14.6973C5.90976 14.7636 5.99291 15.1191 5.8142 15.3788C5.78768 15.4175 5.70982 15.5317 5.62311 15.5206C5.53288 15.5096 5.5028 15.3751 5.37718 15.132C5.27279 14.9294 5.21972 14.8281 5.12771 14.7341C4.88354 14.4873 4.54561 14.4873 4.51022 14.4873C4.15283 14.4929 3.92459 14.7305 3.82903 14.8281C3.7565 14.9036 3.46633 15.2112 3.47518 15.6901C3.47695 15.7509 3.48756 16.1432 3.77597 16.4563C4.08383 16.7934 4.50316 16.8154 4.74025 16.8247C5.28343 16.8468 5.72044 16.6331 6.18577 16.3513C6.23157 16.3237 6.27698 16.2955 6.32201 16.2666C7.13768 15.7361 7.80825 15.1338 8.21525 14.7304C8.4948 14.4523 8.57795 14.3455 8.92121 14.0213C9.18838 13.769 9.22908 13.7469 9.38122 13.5811C9.51571 13.4337 9.60946 13.314 9.78994 13.163C9.87134 13.093 9.95803 13.0286 10.0483 12.9696L10.0482 12.9697ZM14.8819 18.4684C14.9155 18.4426 14.9862 18.4426 15.1349 18.4408C15.2393 18.439 15.1154 18.4408 15.3507 18.439C15.5135 18.4371 15.5383 18.4408 15.632 18.439C15.6763 18.4371 15.6887 18.4371 15.7736 18.4334C15.8302 18.4316 15.9098 18.4297 15.9647 18.4297C15.9912 18.4297 16.0125 18.4518 16.0125 18.4776V18.4795C16.0107 18.5863 16.016 18.695 16.0107 18.8165C16.0089 18.87 16.0089 18.9234 16.0107 18.9749C16.0125 19.0179 16.0125 19.0609 16.0107 19.1039C16.0054 19.2199 16.0036 19.5109 16.0797 19.9438C16.0991 20.0543 16.1168 20.1445 16.1894 20.2237C16.2955 20.3398 16.4512 20.349 16.5521 20.3563C16.7626 20.3711 16.9325 20.3029 17.1271 20.2237C17.3872 20.1169 17.4385 20.0469 17.5695 20.0672C17.6172 20.0745 17.7252 20.0985 17.8596 20.2569C17.9587 20.3729 18.0047 20.4834 18.0932 20.7008C18.1409 20.8131 18.1799 20.9273 18.2117 21.0471C18.2683 21.2644 18.2949 21.3731 18.2613 21.4449C18.1657 21.6438 17.6367 21.5278 17.5323 21.4596C17.4845 21.4283 17.4297 21.386 17.4297 21.386C17.3978 21.362 17.3713 21.3399 17.3536 21.3252C17.2881 21.2718 17.2404 21.2349 17.2244 21.2202C17.2156 21.2128 17.205 21.2055 17.1961 21.1981C17.1908 21.1944 17.1855 21.1907 17.1784 21.187C17.1554 21.1741 17.1324 21.1631 17.1077 21.1557C17.0758 21.1428 17.0422 21.1318 17.0068 21.1263C16.9803 21.1207 16.975 21.1244 16.8476 21.1226H16.768C16.7503 21.1226 16.729 21.1244 16.6565 21.1336C16.5857 21.1428 16.5468 21.1465 16.5132 21.152L16.4017 21.1723C16.4017 21.1723 16.2354 21.2091 16.0956 21.2294C16.0354 21.2386 16.0266 21.2368 15.9753 21.246C15.901 21.2607 15.8638 21.2662 15.8479 21.2791C15.7736 21.3381 15.8762 21.4928 15.8214 21.6051C15.7418 21.7617 15.3684 21.8004 15.2198 21.6328C15.1614 21.5683 15.1544 21.4891 15.1455 21.4099C15.1048 21.0489 15.0447 20.6916 15.0128 20.3306C14.9986 20.1648 14.9845 20.0101 14.9509 19.8001C14.9332 19.6859 14.8996 19.3581 14.8306 18.7042C14.8217 18.6398 14.8129 18.5219 14.8819 18.4685L14.8819 18.4684Z" fill="#F87171"/>
</svg>
