<svg width="24" height="25" viewBox="0 0 24 25" fill="none" xmlns="http://www.w3.org/2000/svg">
<path d="M12 15C11.337 15 10.7011 14.7366 10.2322 14.2678C9.76339 13.7989 9.5 13.163 9.5 12.5C9.5 11.113 10.613 10 12 10C13.387 10 14.5 11.113 14.5 12.5C14.5 13.163 14.2366 13.7989 13.7678 14.2678C13.2989 14.7366 12.663 15 12 15ZM12 2.5C10.6868 2.5 9.38642 2.75866 8.17317 3.2612C6.95991 3.76375 5.85752 4.50035 4.92893 5.42893C3.05357 7.3043 2 9.84784 2 12.5C2 15.1522 3.05357 17.6957 4.92893 19.5711C5.85752 20.4997 6.95991 21.2362 8.17317 21.7388C9.38642 22.2413 10.6868 22.5 12 22.5C14.6522 22.5 17.1957 21.4464 19.0711 19.5711C20.9464 17.6957 22 15.1522 22 12.5C22 11.1868 21.7413 9.88642 21.2388 8.67317C20.7362 7.45991 19.9997 6.35752 19.0711 5.42893C18.1425 4.50035 17.0401 3.76375 15.8268 3.2612C14.6136 2.75866 13.3132 2.5 12 2.5Z" fill="#CFD8DC"/>
</svg>
