<svg width="24" height="25" viewBox="0 0 24 25" fill="none" xmlns="http://www.w3.org/2000/svg">
<path d="M11.2888 3.20011C11.2888 2.81352 11.6022 2.50012 11.9888 2.50012H13.8591C14.2457 2.50012 14.5591 2.81352 14.5591 3.20012V17.0581C14.5591 17.3943 14.3199 17.684 13.9886 17.7415C12.5923 17.9842 11.4935 18.0836 10.312 18.0836C6.31959 18.0834 4.23853 16.2787 4.23853 12.8171C4.23853 9.48305 6.44714 7.31733 9.86592 7.31733C10.3967 7.31733 10.8002 7.35966 11.2887 7.48697L11.2888 3.20011ZM11.2888 10.6243C11.2888 10.323 11.0973 10.0459 10.8001 9.99588C10.6042 9.96289 10.4073 9.94996 10.1846 9.94996C8.5282 9.94996 7.57257 10.9693 7.57257 12.753C7.57257 14.4944 8.48579 15.45 10.1634 15.45C10.3421 15.45 10.5053 15.4448 10.6813 15.4318C11.0305 15.406 11.2888 15.1041 11.2888 14.754V10.6243Z" fill="#14B8A6"/>
<path d="M18.7618 7.55052C19.3141 7.5505 19.7619 7.99822 19.7619 8.55052V15.1315C19.7619 17.7435 19.5707 18.9963 18.9974 20.0794C18.5224 21.0105 17.9114 21.6354 16.754 22.2738C16.4845 22.4225 16.1592 22.4232 15.8812 22.291L15.194 21.9642C14.4316 21.6016 14.4514 20.515 15.0743 19.9452C15.4227 19.6265 15.675 19.2801 15.8756 18.869C16.3428 17.9347 16.4916 16.8517 16.4916 14.0061V8.55055C16.4916 7.99827 16.9393 7.55056 17.4916 7.55055L18.7618 7.55052ZM16.4917 3.51764C16.4917 2.96535 16.9394 2.51764 17.4917 2.51764H18.7619C19.3142 2.51764 19.7619 2.96535 19.7619 3.51764V4.87285C19.7619 5.42513 19.3142 5.87285 18.7619 5.87285H17.4917C16.9394 5.87285 16.4917 5.42513 16.4917 4.87285V3.51764Z" fill="#14B8A6"/>
</svg>
