<svg width="24" height="25" viewBox="0 0 24 25" fill="none" xmlns="http://www.w3.org/2000/svg">
<path d="M20.8944 11.0301C20.8424 10.9862 20.3571 10.5959 19.3338 10.5959C19.0635 10.5971 18.7939 10.6218 18.5274 10.6697C18.3293 9.22368 17.2069 8.51866 17.1566 8.48703L16.8818 8.31824L16.7011 8.59603C16.4747 8.9692 16.3095 9.38056 16.2125 9.81264C16.0293 10.6381 16.1407 11.4134 16.5343 12.0762C16.059 12.3584 15.2964 12.4278 15.1421 12.434H2.51672C2.18694 12.4344 1.91935 12.7183 1.91755 13.0695C1.90283 14.2476 2.09022 15.4187 2.4705 16.5251C2.90542 17.7399 3.55246 18.6348 4.39427 19.1824C5.33758 19.7978 6.87015 20.1494 8.60739 20.1494C9.3922 20.152 10.1755 20.0764 10.9471 19.9235C12.0197 19.7137 13.0518 19.3144 14.0007 18.742C14.7826 18.2597 15.4863 17.6462 16.0846 16.925C17.0849 15.719 17.6807 14.3758 18.1239 13.182H18.3005C19.3957 13.182 20.0691 12.7152 20.4405 12.3241C20.6873 12.0746 20.88 11.7707 21.005 11.4336L21.0834 11.1892L20.8944 11.0301Z" fill="#4ADE80"/>
<path d="M3.68703 12.0401H5.37888C5.46048 12.0401 5.5266 11.9697 5.5266 11.8828V10.2776C5.52705 10.1907 5.46128 10.1199 5.37971 10.1194C5.37944 10.1194 5.37915 10.1194 5.37888 10.1194H3.68703C3.60543 10.1194 3.53931 10.1898 3.53931 10.2767V10.2776V11.8828C3.53931 11.9697 3.60543 12.0401 3.68703 12.0401Z" fill="#4ADE80"/>
<path d="M6.01845 12.0401H7.7103C7.7919 12.0401 7.85802 11.9697 7.85802 11.8828V10.2776C7.85848 10.1907 7.79271 10.1199 7.71111 10.1194C7.71084 10.1194 7.71055 10.1194 7.71028 10.1194H6.01842C5.93637 10.1194 5.86987 10.1902 5.86987 10.2776V11.8828C5.87036 11.9698 5.93672 12.0401 6.01845 12.0401Z" fill="#4ADE80"/>
<path d="M8.38529 12.0401H10.0771C10.1587 12.0401 10.2249 11.9697 10.2249 11.8828V10.2776C10.2253 10.1907 10.1596 10.1199 10.078 10.1194C10.0777 10.1194 10.0774 10.1194 10.0771 10.1194H8.38527C8.30367 10.1194 8.23755 10.1898 8.23755 10.2767V10.2776V11.8828C8.23758 11.9697 8.30372 12.0401 8.38529 12.0401Z" fill="#4ADE80"/>
<path d="M10.7244 12.0401H12.4162C12.498 12.0401 12.5643 11.9698 12.5648 11.8828V10.2776C12.5648 10.1902 12.4983 10.1194 12.4162 10.1194H10.7244C10.6428 10.1194 10.5767 10.1898 10.5767 10.2767V10.2776V11.8828C10.5767 11.9697 10.6428 12.0401 10.7244 12.0401Z" fill="#4ADE80"/>
<path d="M6.01842 9.73089H7.71028C7.79198 9.7304 7.858 9.65969 7.858 9.57266V7.96752C7.858 7.88061 7.79185 7.81018 7.71028 7.81018H6.01842C5.93672 7.81018 5.87033 7.88047 5.86987 7.96752V9.57266C5.87033 9.65986 5.93656 9.7304 6.01842 9.73089Z" fill="#4ADE80"/>
<path d="M8.38527 9.73089H10.0771C10.1588 9.7304 10.2248 9.65969 10.2248 9.57266V7.96752C10.2248 7.88061 10.1587 7.81018 10.0771 7.81018H8.38527C8.30367 7.81018 8.23755 7.88064 8.23755 7.96752V9.57266C8.23755 9.65969 8.30356 9.7304 8.38527 9.73089Z" fill="#4ADE80"/>
<path d="M10.7244 9.73089H12.4162C12.4981 9.7304 12.5643 9.65986 12.5648 9.57266V7.96752C12.5643 7.88047 12.498 7.81018 12.4162 7.81018H10.7244C10.6428 7.81018 10.5767 7.88064 10.5767 7.96752V9.57266C10.5767 9.65969 10.6427 9.7304 10.7244 9.73089Z" fill="#4ADE80"/>
<path d="M10.7244 7.42074H12.4162C12.498 7.42074 12.5643 7.35042 12.5648 7.2634V5.65734C12.5643 5.57028 12.498 5.5 12.4162 5.5H10.7244C10.6428 5.5 10.5767 5.57043 10.5767 5.65734V7.26337C10.5767 7.35028 10.6428 7.42074 10.7244 7.42074Z" fill="#4ADE80"/>
<path d="M13.0838 12.0401H14.7756C14.8573 12.0401 14.9237 11.9698 14.9242 11.8828V10.2776C14.9242 10.1902 14.8577 10.1194 14.7756 10.1194H13.0838C13.0022 10.1194 12.936 10.1898 12.936 10.2767V10.2776V11.8828C12.936 11.9697 13.0022 12.0401 13.0838 12.0401Z" fill="#4ADE80"/>
</svg>
