<svg width="24" height="25" viewBox="0 0 24 25" fill="none" xmlns="http://www.w3.org/2000/svg">
<path d="M5.70293 10.6138C4.60619 14.0948 7.31647 17.9566 11.7565 19.2393C16.1966 20.5221 20.685 18.74 21.7818 15.259C22.8785 11.7779 20.1682 7.91613 15.7282 6.6334C11.2881 5.35067 6.79967 7.13274 5.70293 10.6138Z" fill="#60A5FA" fill-opacity="0.604"/>
<path d="M2.21806 9.71032C1.12132 13.1914 3.83161 17.0531 8.27165 18.3359C12.7117 19.6186 17.2002 17.8365 18.2969 14.3555C19.3936 10.8745 16.6833 7.01269 12.2433 5.72996C7.80326 4.44722 3.3148 6.22929 2.21806 9.71032Z" fill="#60A5FA" fill-opacity="0.604"/>
<path d="M14.7018 2.83476C11.2208 1.73802 7.35903 4.44831 6.07629 8.88835C4.79356 13.3284 6.57563 17.8168 10.0567 18.9136C13.5377 20.0103 17.3995 17.3 18.6822 12.86C19.9649 8.41995 18.1829 3.9315 14.7018 2.83476Z" fill="#60A5FA" fill-opacity="0.604"/>
<path d="M13.998 6.08604C10.517 4.9893 6.65517 7.69959 5.37244 12.1396C4.0897 16.5797 5.87177 21.0681 9.3528 22.1649C12.8338 23.2616 16.6956 20.5513 17.9784 16.1113C19.2611 11.6712 17.479 7.18278 13.998 6.08604Z" fill="#60A5FA" fill-opacity="0.604"/>
</svg>
