<svg width="24" height="25" viewBox="0 0 24 25" fill="none" xmlns="http://www.w3.org/2000/svg">
<path d="M7.01467 11.9159C7.23078 11.5388 7.09836 11.0613 6.71891 10.8493C6.33946 10.6374 5.85666 10.7713 5.64055 11.1484L3.10375 15.575C2.88764 15.9522 3.02006 16.4297 3.39951 16.6417C3.77897 16.8536 4.26177 16.7197 4.47787 16.3426L7.01467 11.9159Z" fill="#4ADE80"/>
<path d="M12.4826 8.52176C12.6987 8.14466 12.5663 7.66712 12.1868 7.45516C11.8074 7.2432 11.3246 7.37708 11.1085 7.75418L8.57166 12.1809C8.35556 12.558 8.48797 13.0355 8.86743 13.2475C9.24688 13.4594 9.72968 13.3256 9.94579 12.9484L12.4826 8.52176Z" fill="#4ADE80"/>
<path d="M20.8962 8.52193C21.1124 8.14482 20.9799 7.66728 20.6005 7.45532C20.221 7.24336 19.7382 7.37724 19.5221 7.75435L16.9853 12.181C16.7692 12.5581 16.9016 13.0357 17.2811 13.2476C17.6605 13.4596 18.1433 13.3257 18.3595 12.9486L20.8962 8.52193Z" fill="#4ADE80"/>
<path d="M15.427 11.9159C15.6431 11.5388 15.5107 11.0613 15.1313 10.8493C14.7518 10.6374 14.269 10.7713 14.0529 11.1484L11.5161 15.575C11.3 15.9522 11.4324 16.4297 11.8119 16.6417C12.1913 16.8536 12.6741 16.7197 12.8902 16.3426L15.427 11.9159Z" fill="#4ADE80"/>
</svg>
