<svg width="24" height="25" viewBox="0 0 24 25" fill="none" xmlns="http://www.w3.org/2000/svg">
<path d="M5.94892 4.33032L5.86179 4.41735L9.41338 7.96883C8.91115 8.7529 8.622 9.71582 8.622 10.8112C8.622 13.856 10.8573 15.878 13.6888 15.878C14.7469 15.878 15.7215 15.5956 16.5276 15.0831L20.0973 18.6528C18.2477 21.0957 15.3088 22.6338 11.9998 22.6338C6.40398 22.6338 1.86621 18.2351 1.86621 12.5001C1.86621 9.08952 3.47108 6.15161 5.94882 4.33043L5.94892 4.33032ZM7.63811 3.32744C8.95915 2.70897 10.4384 2.36639 11.9997 2.36639C17.5955 2.36639 22.1334 6.76518 22.1334 12.5C22.1334 14.0775 21.7901 15.5538 21.1759 16.8652L17.9641 13.6534C18.4662 12.8693 18.7554 11.9064 18.7554 10.8111C18.7554 7.76619 16.5201 5.74424 13.6886 5.74424C12.6305 5.74424 11.6559 6.0266 10.8498 6.53905L7.63811 3.32744ZM13.6887 13.8512C11.9898 13.8512 10.6486 12.6381 10.6486 10.8111C10.6486 8.98413 11.9898 7.77099 13.6887 7.77099C15.3876 7.77099 16.7288 8.98413 16.7288 10.8111C16.7288 12.6381 15.3876 13.8512 13.6887 13.8512Z" fill="#CFD8DC"/>
</svg>
