<svg width="24" height="25" viewBox="0 0 24 25" fill="none" xmlns="http://www.w3.org/2000/svg">
<path d="M5.94906 4.33032L5.86204 4.41735L9.41362 7.96883C8.91139 8.7529 8.62225 9.71582 8.62225 10.8112C8.62225 13.856 10.8576 15.878 13.6891 15.878C14.7472 15.878 15.7218 15.5956 16.5278 15.0831L20.0976 18.6528C18.2479 21.0957 15.3091 22.6338 12.0001 22.6338C6.40423 22.6338 1.86646 18.2351 1.86646 12.5001C1.86646 9.08952 3.47132 6.15151 5.94906 4.33032ZM7.63845 3.32744C8.9595 2.70897 10.4386 2.36639 12 2.36639C17.5957 2.36639 22.1336 6.76518 22.1336 12.5C22.1336 14.0775 21.7903 15.5538 21.1761 16.8652L17.9643 13.6534C18.4665 12.8693 18.7557 11.9064 18.7557 10.8111C18.7557 7.76619 16.5203 5.74424 13.6889 5.74424C12.6308 5.74424 11.6562 6.0266 10.8501 6.53905L7.63845 3.32744ZM13.689 13.8512C11.9901 13.8512 10.6489 12.6381 10.6489 10.8111C10.6489 8.98403 11.9901 7.77099 13.689 7.77099C15.3878 7.77099 16.729 8.98413 16.729 10.8111C16.729 12.638 15.3878 13.8512 13.689 13.8512Z" fill="#71717A"/>
</svg>
