<svg width="24" height="24" viewBox="0 0 24 24" fill="none" xmlns="http://www.w3.org/2000/svg">
<path d="M2.73438 9.09302C2.73438 9.36917 2.95823 9.59302 3.23438 9.59302H5.85156V17.5C5.85156 17.7761 6.07542 18 6.35156 18H8.4794C8.75554 18 8.9794 17.7761 8.9794 17.5V9.59302H11.5966C11.8727 9.59302 12.0966 9.36917 12.0966 9.09302V7.31816C12.0966 7.04202 11.8727 6.81816 11.5966 6.81816H3.23438C2.95823 6.81816 2.73438 7.04202 2.73438 7.31816V9.09302ZM18.9996 10.2958C19.025 10.5516 19.2401 10.7464 19.4971 10.7464H21.5604C21.6944 10.7464 21.8228 10.6926 21.9168 10.5971C22.0108 10.5015 22.0625 10.3723 22.0603 10.2382C22.0489 9.54273 21.8609 8.912 21.4859 8.36344C21.1139 7.81916 20.5982 7.40387 19.9587 7.11207C19.3173 6.81786 18.584 6.67896 17.772 6.67896C16.9711 6.67896 16.2375 6.81858 15.5808 7.10962C14.9269 7.39943 14.3943 7.81145 14.0017 8.35166L14.0004 8.35358C13.6023 8.90694 13.4107 9.54997 13.414 10.2615C13.4107 11.1355 13.704 11.8771 14.3217 12.429C14.8964 12.9424 15.6557 13.2987 16.5682 13.5209C16.5688 13.521 16.5694 13.5212 16.57 13.5213L17.6751 13.7989L17.6797 13.8C18.033 13.8852 18.3177 13.9767 18.5395 14.0718L18.5417 14.0727C18.7537 14.1624 18.8755 14.2554 18.9424 14.334L18.9464 14.3386C18.9942 14.3934 19.027 14.465 19.027 14.5866C19.027 14.7218 18.9889 14.8292 18.9108 14.9281C18.8274 15.0338 18.6966 15.134 18.4901 15.2146L18.4882 15.2154C18.2913 15.2931 18.0399 15.3395 17.7223 15.3395C17.4031 15.3395 17.1329 15.2913 16.9046 15.2046C16.6904 15.1188 16.5339 15.0005 16.4189 14.8543C16.3168 14.7173 16.2453 14.5311 16.2275 14.2694C16.2097 14.007 15.9917 13.8033 15.7287 13.8033H13.6456C13.511 13.8033 13.3821 13.8575 13.2881 13.9537C13.194 14.05 13.1427 14.18 13.1457 14.3146C13.164 15.1222 13.361 15.8361 13.7641 16.4289L13.7663 16.432C14.1673 17.0123 14.7211 17.443 15.4077 17.7281C16.091 18.0103 16.8752 18.1442 17.7472 18.1442C18.6236 18.1442 19.4012 18.013 20.0651 17.7317L20.0664 17.7311C20.729 17.4482 21.2609 17.0398 21.6346 16.4952C22.0129 15.9454 22.1958 15.3047 22.1996 14.5943L22.1995 14.5877C22.1958 14.105 22.1069 13.6569 21.9202 13.2543C21.742 12.8628 21.4898 12.5219 21.167 12.2345C20.8526 11.9547 20.4865 11.7241 20.0738 11.5399C19.6699 11.3595 19.2313 11.2174 18.7598 11.1116L17.8485 10.8937L17.8415 10.892C17.6387 10.8467 17.4508 10.7929 17.277 10.7312C17.1127 10.6697 16.9758 10.6016 16.863 10.5293C16.7689 10.4661 16.7048 10.3991 16.6607 10.3308C16.6369 10.2904 16.6176 10.2317 16.6211 10.1354C16.6213 10.1293 16.6214 10.1232 16.6214 10.1172C16.6214 10.0028 16.6517 9.91182 16.7122 9.82805C16.7759 9.74425 16.8792 9.66106 17.0518 9.5925L17.0572 9.59028C17.2221 9.52255 17.4499 9.47868 17.7571 9.47868C18.2072 9.47868 18.5002 9.57566 18.6886 9.71441C18.8668 9.84559 18.9726 10.0236 18.9996 10.2958Z" stroke="#2563EB" stroke-linejoin="round"/>
</svg>
