<svg width="24" height="25" viewBox="0 0 24 25" fill="none" xmlns="http://www.w3.org/2000/svg">
<path fill-rule="evenodd" clip-rule="evenodd" d="M13.1994 7.40043C14.5436 8.9221 14.5746 10.5433 13.293 12.3016C11.8957 14.2185 11.6935 14.5976 11.6935 15.2985C11.6935 16.1433 12.2018 16.8845 13.3258 17.6788L14.122 18.2413H17.3579C19.6492 18.2413 20.6531 18.1825 20.797 18.0395C20.9426 17.8947 21 16.7857 21 14.1129V10.3881L20.027 9.46784C18.3424 7.87436 16.5951 7.12765 13.9812 6.8843L12.6324 6.75867L13.1994 7.40043ZM10.9684 8.54505C9.60679 10.5119 7.14665 11.671 4.31476 11.6795C3.53369 11.6819 3.31405 11.745 3.17259 12.0077C2.94247 12.4352 2.94247 17.4886 3.17259 17.9161C3.33859 18.2242 3.56821 18.2413 7.5206 18.2413H11.6935L11.1716 17.6947C10.3195 16.8022 10.0582 16.1297 10.1379 15.0342C10.2109 14.0323 10.2642 13.9303 11.8178 11.8233C12.7659 10.5376 12.8774 9.56101 12.194 8.52907C11.9338 8.13604 11.6652 7.81432 11.5975 7.81432C11.5297 7.81432 11.2466 8.1431 10.9684 8.54505Z" fill="#EA580C"/>
</svg>
