<svg width="24" height="25" viewBox="0 0 24 25" fill="none" xmlns="http://www.w3.org/2000/svg">
<path fill-rule="evenodd" clip-rule="evenodd" d="M3.45859 19.6221C3.45859 19.9756 3.54837 20.3571 3.79526 20.4918C4.70423 21.0024 7.89125 20.604 8.97416 20.3627C9.54087 20.2337 10.001 19.8129 10.534 19.5828C11.7348 19.061 12.6045 18.6402 13.5639 17.9388C14.2597 17.4282 15.365 15.9918 15.4829 15.1333L14.5346 14.9201C14.5122 15.8852 14.2933 16.104 13.4349 16.3285C12.8569 16.4856 11.7291 16.5192 11.14 16.4182C10.3601 16.2892 10.0066 15.8796 9.65309 15.4139C8.96855 14.5049 9.80458 13.8709 8.72167 13.8091C7.58264 15.2063 5.57392 14.2019 4.69301 14.0616C4.31708 14.6059 3.43615 18.1408 3.44737 18.9488C3.99164 18.7636 4.33391 18.9656 4.82206 19.1564C6.55023 19.8241 5.04088 20.4132 4.35074 20.2393C3.87942 20.1271 3.73353 19.8185 3.45859 19.6221ZM5.71981 11.5592C6.42117 11.6938 7.044 11.9856 7.63876 12.283C8.60945 12.7655 8.78339 12.6982 8.87317 13.3715C8.88439 13.4949 8.86194 13.5623 9.21544 13.6745C9.8102 13.8596 8.87317 13.5286 10.4667 13.5342C11.4149 13.5398 13.5864 13.9214 14.2877 14.3646C14.5795 14.5498 14.5234 14.7855 15.5109 14.7574C15.4997 13.5959 15.1911 11.8621 14.7366 10.7961C14.1811 9.50555 13.4461 9.30916 11.948 8.82662C11.0727 8.54607 8.50285 8.23747 7.70609 8.73123C6.95983 9.19694 6.81955 9.75243 6.1238 10.7287C5.9218 11.0149 5.84886 11.2337 5.71981 11.5592Z" fill="#FAFAFA"/>
<path fill-rule="evenodd" clip-rule="evenodd" d="M11.8975 13.9438C12.4586 14.1739 11.8694 15.6608 11.0895 15.3017C10.837 14.5891 11.4374 14.1851 11.6001 13.8653C11.2634 13.8148 10.3039 13.6633 10.0178 13.7699C9.64746 13.9102 9.56329 14.7013 9.75407 15.0716C10.6518 16.8335 14.6188 16.4575 14.1979 15.0885C14.0296 14.533 13.8725 14.4432 13.3058 14.2524C12.8513 14.1009 12.3968 13.9438 11.8975 13.9438ZM4.84448 13.7474C5.29336 14.1795 6.30894 14.2468 6.96542 14.2805C7.04959 13.4108 7.12253 12.7599 7.81829 12.8104C8.16056 13.2761 7.98101 13.826 7.62191 14.1795C8.23351 14.1739 8.58699 13.7138 8.49721 13.0461C7.98101 12.6757 6.41555 11.9351 5.63002 11.8285C5.41119 12.0642 4.87254 13.3547 4.84448 13.7474Z" fill="#FAFAFA"/>
<path fill-rule="evenodd" clip-rule="evenodd" d="M3.78957 19.3023C4.15989 19.2686 5.12498 19.5492 5.20353 19.8634C4.60316 19.9363 3.84007 19.8802 3.78957 19.3023ZM3.45852 19.6221C3.73346 19.8185 3.87934 20.1271 4.35067 20.2393C5.04081 20.4133 6.55016 19.8241 4.82199 19.1564C4.33383 18.9656 3.99156 18.7636 3.4473 18.9488C3.43608 18.1408 4.317 14.6059 4.69293 14.0617C5.57385 14.2019 7.58257 15.2063 8.7216 13.8092C9.80451 13.8709 8.96848 14.5049 9.65302 15.4139C10.0065 15.8796 10.36 16.2892 11.1399 16.4183C11.7291 16.5193 12.8569 16.4856 13.4348 16.3285C14.2933 16.104 14.5121 15.8852 14.5345 14.9201L15.4828 15.1333C15.365 15.9918 14.2596 17.4282 13.5639 17.9388C12.6044 18.6402 11.7347 19.061 10.5339 19.5828C10.0009 19.8129 9.5408 20.2337 8.97409 20.3628C7.89118 20.604 4.70416 21.0024 3.79518 20.4918C3.5483 20.3571 3.45852 19.9756 3.45852 19.6221ZM11.3082 14.9762C11.3475 14.6059 11.4878 14.3983 11.7066 14.2468C11.8581 14.5723 11.5888 14.8865 11.3082 14.9762ZM11.8974 13.9438C12.3968 13.9438 12.8513 14.1009 13.3057 14.2524C13.8725 14.4432 14.0296 14.533 14.1979 15.0885C14.6187 16.4575 10.6518 16.8335 9.75401 15.0716C9.56324 14.7013 9.64741 13.9102 10.0177 13.7699C10.3039 13.6633 11.2634 13.8148 11.6 13.8653C11.4373 14.1851 10.8369 14.5891 11.0894 15.3017C11.8693 15.6608 12.4585 14.1739 11.8974 13.9438ZM7.31325 14.0112C7.31886 13.624 7.30203 13.2761 7.65552 13.1246C7.78457 13.422 7.57135 13.8428 7.31325 14.0112ZM4.84443 13.7474C4.87248 13.3547 5.41114 12.0642 5.62996 11.8285C6.4155 11.9351 7.98095 12.6757 8.49716 13.0461C8.58694 13.7138 8.23345 14.1739 7.62185 14.1795C7.98095 13.826 8.1605 13.2761 7.81823 12.8104C7.12248 12.7599 7.04953 13.4108 6.96537 14.2805C6.30889 14.2468 5.29331 14.1795 4.84443 13.7474ZM4.28333 13.2986C4.07573 12.7262 4.07573 11.8341 4.95665 11.7612L4.50777 13.0124C4.38994 13.2817 4.38994 13.22 4.28333 13.2986ZM5.71974 11.5592C5.84879 11.2337 5.92173 11.0149 6.12373 10.7288C6.81948 9.75244 6.95976 9.19696 7.70602 8.73125C8.50277 8.23749 11.0726 8.54609 11.9479 8.82664C13.446 9.30918 14.1811 9.50556 14.7365 10.7961C15.191 11.8622 15.4996 13.5959 15.5109 14.7574C14.5233 14.7855 14.5794 14.5498 14.2877 14.3646C13.5863 13.9214 11.4149 13.5398 10.4666 13.5342C8.87309 13.5286 9.81012 13.8597 9.21536 13.6745C8.86187 13.5623 8.88432 13.4949 8.87309 13.3715C8.78332 12.6982 8.60938 12.7655 7.63868 12.283C7.04392 11.9856 6.42111 11.6938 5.71974 11.5592ZM15.6511 11.2842C15.5445 10.9307 15.7409 10.9532 16.0832 10.7119C16.2796 10.5716 16.4367 10.4258 16.6779 10.2911C17.5813 9.78611 19.2646 9.70195 19.9828 10.3023C20.2746 10.5436 20.7515 11.0149 20.6785 11.6321C20.527 12.8609 19.6854 13.5342 18.9953 14.0953C18.2939 14.6676 17.1268 15.2568 15.9205 14.864C15.8195 14.6171 15.898 13.0517 15.7802 12.4738C15.6736 11.9575 15.7297 11.9014 16.0271 11.5928C16.9024 10.6839 18.7989 10.0218 19.8762 10.8017C20.3307 11.1383 20.2016 11.2674 20.4373 11.5255C20.729 11.2113 20.1848 10.1564 18.1761 10.2238C16.8126 10.2687 16.2234 11.3347 15.6511 11.2842ZM7.48158 8.0916C7.50963 7.31168 8.22783 5.69573 8.94604 5.13463C9.81573 4.46132 10.7247 3.82728 12.0601 4.58476C12.3912 4.76992 12.3743 4.86531 12.408 5.3254C12.4361 5.76867 12.3968 5.93139 12.2846 6.29049C11.398 9.15207 10.6574 7.50806 7.81823 8.18699C7.92484 7.25557 8.73282 6.42515 9.1817 5.99311C9.9504 5.24685 10.5059 4.76431 11.6617 4.92142C11.9816 5.45446 12.0152 5.79111 11.6281 6.41393C11.1119 7.24435 10.9828 7.19385 11.0614 7.76056C11.4654 7.65956 11.5888 7.26679 11.774 6.87403C12.9018 4.51743 11.2634 4.23127 10.259 4.66331C9.58569 4.94947 8.38494 6.27366 7.99217 7.07041C7.91362 7.22752 7.82946 7.42951 7.75651 7.60345L7.48158 8.0916ZM11.9255 8.20943C12.0433 7.50806 12.739 7.33412 12.739 5.17391C12.739 4.24249 11.5944 3.40646 10.0963 4.02927C8.81137 4.5567 8.61499 4.96069 7.93045 5.99311C7.28519 6.96941 7.30764 8.0411 6.75215 8.94447C6.58944 9.20257 6.44355 9.29235 6.264 9.55045C6.13495 9.74122 6.03956 9.98249 5.91051 10.2069C5.6468 10.639 5.37747 10.9532 5.16425 11.4694C4.49094 11.4862 3.92423 11.4975 3.8569 12.1932C3.76713 13.1471 4.216 13.3827 4.216 13.7418C4.21039 14.129 2.63932 18.0342 3.07698 20.3628C3.20042 21.0024 3.62124 21.008 4.29456 21.0866C5.91612 21.2829 8.02023 21.2156 9.47347 20.6321L12.1106 19.3696C12.7783 18.9937 13.9005 18.2811 14.3999 17.7593C14.7534 17.3946 14.9385 17.086 15.2415 16.6539C15.6567 16.0479 15.668 16.0592 15.7577 15.2343C16.3076 15.3353 17.3344 15.5766 17.6767 15.874C17.6374 16.2611 17.4466 16.076 17.4466 16.4239C17.6655 16.4295 18.0302 16.1545 18.1199 15.8515C17.8899 15.5149 17.6486 15.571 17.3176 15.3017C17.5813 15.0941 18.0582 14.9987 18.4229 14.8472C19.2085 14.5218 20.5495 13.5342 20.8805 12.6365C21.1443 11.9127 20.9479 10.7063 20.5214 10.235C20.0726 9.74122 19.0289 9.48873 18.1761 9.48873C17.1605 9.48873 16.1112 10.2182 15.292 10.5324C14.9778 10.2574 14.9554 9.94322 14.7253 9.64023C14.4616 9.28112 12.7447 8.38337 11.9255 8.20943Z" fill="#475569" stroke="#475569" stroke-width="0.36309" stroke-linejoin="round"/>
<path fill-rule="evenodd" clip-rule="evenodd" d="M7.31323 14.0112C7.57133 13.8428 7.78455 13.422 7.6555 13.1246C7.30201 13.2761 7.31884 13.624 7.31323 14.0112ZM11.3082 14.9762C11.5888 14.8865 11.8581 14.5723 11.7066 14.2468C11.4878 14.3983 11.3475 14.6059 11.3082 14.9762L11.3082 14.9762Z" fill="#BFDBFE"/>
<path fill-rule="evenodd" clip-rule="evenodd" d="M15.6511 11.2842C16.2234 11.3347 16.8126 10.2686 18.1761 10.2237C20.1848 10.1564 20.729 11.2113 20.4373 11.5255C20.2016 11.2674 20.3307 11.1383 19.8762 10.8017C18.7989 10.0217 16.9024 10.6838 16.0271 11.5928C15.7297 11.9014 15.6736 11.9575 15.7802 12.4737C15.898 13.0517 15.8195 14.6171 15.9204 14.864C17.1268 15.2568 18.2939 14.6676 18.9953 14.0953C19.6854 13.5342 20.527 12.8609 20.6785 11.6321C20.7515 11.0149 20.2745 10.5436 19.9828 10.3023C19.2646 9.70191 17.5813 9.78608 16.6779 10.2911C16.4367 10.4257 16.2795 10.5716 16.0832 10.7119C15.7409 10.9532 15.5445 10.9307 15.6511 11.2842Z" fill="#FECACA"/>
<path fill-rule="evenodd" clip-rule="evenodd" d="M7.48145 8.09161L7.75638 7.60345C7.82932 7.42951 7.91349 7.22752 7.99204 7.07041C8.38481 6.27366 9.58555 4.94947 10.2589 4.66331C11.2632 4.23127 12.9016 4.51743 11.7738 6.87403C11.5887 7.2668 11.4652 7.65956 11.0612 7.76056C10.9827 7.19385 11.1117 7.24435 11.6279 6.41393C12.0151 5.79112 11.9814 5.45446 11.6616 4.92142C10.5057 4.76431 9.95027 5.24685 9.18156 5.99311C8.73269 6.42515 7.92471 7.25557 7.8181 8.18699C10.6572 7.50807 11.3979 9.15208 12.2844 6.29049C12.3966 5.93139 12.4359 5.76867 12.4079 5.32541C12.3742 4.86531 12.391 4.76992 12.06 4.58476C10.7246 3.82728 9.8156 4.46132 8.9459 5.13463C8.2277 5.69573 7.5095 7.31168 7.48145 8.09161Z" fill="#FECACA"/>
<path fill-rule="evenodd" clip-rule="evenodd" d="M5.20351 19.8633C5.12496 19.5491 4.15987 19.2686 3.78955 19.3022C3.84005 19.8802 4.60314 19.9363 5.20351 19.8633Z" fill="#FECACA"/>
</svg>
