<svg width="24" height="25" viewBox="0 0 24 25" fill="none" xmlns="http://www.w3.org/2000/svg">
<path d="M8.04596 5.362L0.907959 12.5L8.04596 19.638L10.756 16.947L6.30796 12.5L10.754 8.053L8.04596 5.362Z" fill="#FBBF24"/>
<path d="M14.5429 11.11C15.7032 11.11 16.6439 9.85727 16.6439 8.31198C16.6439 6.76668 15.7032 5.51398 14.5429 5.51398C13.3825 5.51398 12.4419 6.76668 12.4419 8.31198C12.4419 9.85727 13.3825 11.11 14.5429 11.11Z" stroke="#FBBF24" stroke-width="1.455"/>
<path d="M20.616 4.65198L22.086 5.34198L14.303 20.347L12.833 19.657L20.616 4.65198Z" fill="#FBBF24"/>
<path d="M20.35 19.496C21.5104 19.496 22.451 18.2433 22.451 16.698C22.451 15.1527 21.5104 13.9 20.35 13.9C19.1897 13.9 18.249 15.1527 18.249 16.698C18.249 18.2433 19.1897 19.496 20.35 19.496Z" stroke="#FBBF24" stroke-width="1.455"/>
</svg>
