<svg width="24" height="25" viewBox="0 0 24 25" fill="none" xmlns="http://www.w3.org/2000/svg">
<path d="M17.3299 11.9002L12.3139 3.88404C12.17 3.64411 11.8819 3.5 11.5939 3.5C11.3059 3.5 11.042 3.64391 10.8739 3.88404L5.85805 11.9002C5.85805 11.9002 5.85805 11.9241 5.83409 11.9241C4.70612 13.8441 4.73009 16.1961 5.85805 18.164C7.03411 20.228 9.24192 21.5 11.5699 21.5C13.8978 21.5 16.1059 20.2279 17.2817 18.164C18.4097 16.1961 18.4336 13.8681 17.3057 11.9241C17.3298 11.9243 17.3298 11.9243 17.3298 11.9002H17.3299ZM15.8658 17.3242C14.9779 18.8601 13.346 19.8202 11.5939 19.8202C9.84194 19.8202 8.20998 18.8603 7.32191 17.3242C6.48198 15.8842 6.48199 14.1802 7.27401 12.7881L11.5938 5.9239L15.8898 12.7881C16.7059 14.1802 16.682 15.8842 15.8658 17.3242H15.8658Z" fill="#A855F7"/>
</svg>
