<svg width="24" height="24" viewBox="0 0 24 24" fill="none" xmlns="http://www.w3.org/2000/svg">
<path d="M7.92944 7.41272L12.0002 11.4832L16.0704 7.41272H7.92944Z" fill="#FBBF24"/>
<path d="M7.19852 6.68209H16.1111L12.0111 2.58173H4.30545C3.86 2.58173 3.63692 3.12028 3.95189 3.43527L7.19852 6.68209ZM16.9728 7.54349L21.4091 11.9797L16.953 16.4359L12.5167 11.9997L16.9728 7.54349Z" fill="#81C784"/>
<path d="M13.0442 2.58173L21.4184 10.9553V3.08173C21.4184 2.80558 21.1945 2.58173 20.9184 2.58173H13.0442Z" fill="#60A5FA"/>
<path d="M2.58179 19.6944C2.58179 20.1399 3.12036 20.363 3.43534 20.048L11.4833 12L3.43534 3.952C3.12036 3.63702 2.58179 3.8601 2.58179 4.30556V19.6944Z" fill="#71717A"/>
<path d="M21.4183 13.0038L17.4692 16.953L20.5648 20.0481C20.8798 20.363 21.4183 20.1399 21.4183 19.6945V13.0038Z" fill="#FBBF24"/>
<path d="M19.6944 21.4183C20.1398 21.4183 20.3629 20.8797 20.0479 20.5647L11.9999 12.5168L3.95195 20.5648C3.63696 20.8798 3.86005 21.4183 4.3055 21.4183L19.6944 21.4183Z" fill="#60A5FA"/>
</svg>
