<svg width="24" height="25" viewBox="0 0 24 25" fill="none" xmlns="http://www.w3.org/2000/svg">
<path d="M12.7801 4.50002C14.5701 4.47002 15.9601 4.85002 16.9001 6.49002C19.2601 12.37 10.8201 15.41 10.4801 15.53H10.4701C10.4701 15.53 10.2201 17.13 12.6401 17.07C15.6201 17.07 18.7401 14.76 19.9401 13.77C20.2301 13.54 20.6501 13.56 20.9101 13.83L21.8001 14.76C22.0501 15.03 22.0601 15.45 21.8201 15.73C21.0501 16.6 19.2301 18.38 16.4901 19.52C16.4901 19.52 11.9201 21.65 8.84009 19.64C7.01009 18.44 6.50009 17 6.29009 15.51C6.29009 15.51 4.06009 15.39 2.63009 14.84C1.19009 14.27 2.64009 12.58 2.64009 12.58C2.64009 12.58 3.08009 11.87 3.92009 12.58C4.75009 13.29 6.32009 12.97 6.32009 12.97C6.46009 11.86 6.69009 10.4 7.38009 8.86002C8.81009 5.64002 11.0001 4.54002 12.7801 4.50002ZM13.8301 7.74002C12.8901 6.83002 10.1601 8.65002 10.0501 12.83C10.0501 12.83 10.8601 13.07 12.6301 11.85C14.4201 10.62 14.7601 8.66002 13.8201 7.74002H13.8301Z" fill="#F59E0B"/>
</svg>
