<svg width="24" height="25" viewBox="0 0 24 25" fill="none" xmlns="http://www.w3.org/2000/svg">
<path d="M4.74582 4.59656C4.71101 4.63433 4.67472 4.67063 4.6399 4.70989C2.87997 6.68167 2 9.35934 2 12.7444C2 16.0169 2.85552 18.5679 4.56213 20.4034H18.9431C20.8341 19.5501 22 17.8627 22 17.8627L19.669 15.9961L18.592 17.0183C17.9498 17.5909 17.9661 17.7079 16.8772 18.3368C15.7699 18.836 14.6255 19.0523 13.4448 19.0523C11.5819 19.0523 10.1686 18.379 9.20566 17.5272C8.2531 16.6754 7.73534 14.1858 7.65312 12.5792L20.5845 12.6289L20.4489 11.5385C20.4489 11.5385 19.8216 6.25798 18.5668 4.59656H4.74582ZM11.2345 5.2232C12.3937 5.2232 13.6196 5.61948 14.1684 6.31279C14.7166 7.00684 14.858 7.54756 14.8892 8.92306H7.63683C7.71979 7.47497 7.95978 6.84166 8.65383 6.18391C9.34714 5.52689 10.1575 5.2232 11.2345 5.2232Z" fill="#F87171"/>
</svg>
