<svg width="24" height="25" viewBox="0 0 24 25" fill="none" xmlns="http://www.w3.org/2000/svg">
<path d="M12 2.54248C9.35909 2.54248 6.82636 3.59157 4.95896 5.45896C3.09157 7.32636 2.04248 9.85909 2.04248 12.5C2.04248 15.1409 3.09157 17.6736 4.95896 19.541C6.82636 21.4084 9.35909 22.4575 12 22.4575C14.6409 22.4575 17.1736 21.4084 19.041 19.541C20.9084 17.6736 21.9575 15.1409 21.9575 12.5C21.9575 9.85909 20.9084 7.32636 19.041 5.45896C17.1736 3.59157 14.6409 2.54248 12 2.54248ZM7.26353 7.27897C7.45879 7.08369 7.77538 7.08368 7.97065 7.27894L12.8384 12.1465C13.0337 12.3418 13.0337 12.6584 12.8384 12.8536L7.97063 17.7212C7.77537 17.9165 7.45879 17.9165 7.26353 17.7212L6.28103 16.7387C6.08577 16.5435 6.08577 16.2269 6.28103 16.0316L9.45893 12.8537C9.65419 12.6585 9.65419 12.3419 9.45893 12.1466L6.28101 8.96871C6.08576 8.77346 6.08575 8.45689 6.28099 8.26163L7.26353 7.27897ZM13.238 7.27897C13.4333 7.08369 13.7499 7.08368 13.9452 7.27894L18.8129 12.1465C19.0082 12.3418 19.0082 12.6584 18.8129 12.8536L13.9451 17.7212C13.7499 17.9165 13.4333 17.9165 13.238 17.7212L12.2555 16.7387C12.0603 16.5435 12.0603 16.2269 12.2555 16.0316L15.4334 12.8537C15.6287 12.6585 15.6287 12.3419 15.4334 12.1466L12.2555 8.96871C12.0603 8.77346 12.0603 8.45689 12.2555 8.26163L13.238 7.27897Z" fill="#FBBF24"/>
</svg>
