<svg width="24" height="25" viewBox="0 0 24 25" fill="none" xmlns="http://www.w3.org/2000/svg">
<path d="M15.2875 9.89446L11.6473 7.70139C11.6025 7.67438 11.5517 7.66016 11.4999 7.66016C11.4482 7.66016 11.3974 7.67438 11.3526 7.70139L7.71241 9.89446C7.66763 9.9214 7.63044 9.96015 7.60455 10.0068C7.57867 10.0535 7.56501 10.1065 7.56494 10.1604V14.5465C7.56494 14.6562 7.62126 14.7577 7.71241 14.8128L11.3526 17.0059C11.4438 17.0607 11.5558 17.0607 11.6473 17.0059L15.2875 14.8128C15.3786 14.758 15.4347 14.6565 15.4347 14.5465V10.1604C15.4347 10.0505 15.3786 9.94928 15.2875 9.89416V9.89446Z" fill="#A5B4FC"/>
<path d="M2.03504 11.8921L6.38471 3.99617C6.54263 3.71052 6.83466 3.5 7.15049 3.5H15.8496C16.1657 3.5 16.4574 3.71052 16.6156 3.99617L20.965 11.8748C21.0426 12.0166 21.0834 12.1771 21.0834 12.3404C21.0834 12.5037 21.0426 12.6642 20.965 12.806L16.6156 20.6374C16.4574 20.9227 16.1657 21.0687 15.8496 21.0687H7.15049C6.83466 21.0687 6.54263 20.9273 6.38471 20.6416L2.03533 12.7975C1.9577 12.6603 1.91675 12.504 1.91675 12.3447C1.91675 12.1854 1.9577 12.029 2.03533 11.8918L2.03504 11.8921ZM5.63664 15.6888C5.63664 15.8051 5.7037 15.9123 5.80007 15.9705L11.3405 19.3058C11.4369 19.364 11.5576 19.364 11.654 19.3058L17.1985 15.9705C17.2949 15.9123 17.3622 15.8051 17.3622 15.6888V9.0178C17.3622 8.90178 17.2958 8.79425 17.1997 8.73609L11.659 5.40136C11.6113 5.37282 11.5573 5.35781 11.5023 5.35781C11.4474 5.35781 11.3934 5.37282 11.3457 5.40136L5.80065 8.73639C5.70428 8.79455 5.63635 8.90209 5.63635 9.0181V15.6891L5.63664 15.6888Z" fill="#4F46E5"/>
</svg>
