<svg width="24" height="25" viewBox="0 0 24 25" fill="none" xmlns="http://www.w3.org/2000/svg">
<path d="M8.96935 10.0604C9.26547 11.1244 8.64991 12.2305 7.61368 12.4966L7.06415 12.6376C7.02192 12.9184 7 13.2065 7 13.5C7 13.8072 7.02399 14.1083 7.07017 14.4012L7.57756 14.528C8.62413 14.7896 9.24619 15.907 8.94151 16.9781L8.76627 17.5942C9.1794 17.9706 9.6501 18.2762 10.1624 18.4936L10.6264 17.9873C11.3681 17.1781 12.6119 17.1783 13.3535 17.9878L13.8226 18.5C14.3338 18.285 14.8041 17.9823 15.2174 17.6091L15.0311 16.9397C14.735 15.8756 15.3506 14.7695 16.3868 14.5035L16.9358 14.3625C16.9781 14.0817 17 13.7936 17 13.5C17 13.1929 16.976 12.8917 16.9298 12.5987L16.4228 12.472C15.3763 12.2105 14.7543 11.0931 15.059 10.0219L15.234 9.40626C14.821 9.02974 14.3502 8.72408 13.8379 8.50664L13.3741 9.01266C12.6324 9.82201 11.3885 9.82172 10.647 9.01218L10.1778 8.5C9.66657 8.7149 9.19624 9.01754 8.78301 9.39074L8.96935 10.0604ZM12 14.964C11.2469 14.964 10.6364 14.3085 10.6364 13.5C10.6364 12.6916 11.2469 12.0361 12 12.0361C12.7531 12.0361 13.3636 12.6916 13.3636 13.5C13.3636 14.3085 12.7531 14.964 12 14.964Z" fill="#64748B"/>
<path fill-rule="evenodd" clip-rule="evenodd" d="M4 20.5V6.5H20V20.5H4ZM2 4.5C2 3.39543 2.89543 2.5 4 2.5H20C21.1046 2.5 22 3.39543 22 4.5V20.5C22 21.6046 21.1046 22.5 20 22.5H4C2.89543 22.5 2 21.6046 2 20.5V4.5Z" fill="#64748B"/>
</svg>
