<svg width="24" height="25" viewBox="0 0 24 25" fill="none" xmlns="http://www.w3.org/2000/svg">
<path d="M19.4196 7.65841C18.6718 7.65841 17.9821 7.90609 17.4273 8.32343C17.2341 8.4687 16.9674 8.49216 16.7709 8.35147L13.5741 6.06233C13.421 5.95272 13.3585 5.76099 13.3585 5.57272C13.3585 4.83932 12.7639 4.24469 12.0304 4.24469C11.297 4.24469 10.7024 4.83932 10.7024 5.57272C10.7024 6.30621 11.297 6.90075 12.0304 6.90075C12.1678 6.90075 12.3 6.87954 12.4244 6.84049C12.6186 6.77957 12.837 6.77869 13.0015 6.8984L16.8825 9.72271C17.1351 9.90653 17.4926 9.8125 17.6939 9.57361C18.1129 9.07639 18.7386 8.73439 19.4196 8.73439C20.6589 8.73439 21.6637 9.73906 21.6637 10.9784C21.6637 11.7976 21.2248 12.5142 20.5693 12.906C20.3383 13.0441 20.1921 13.3115 20.2683 13.5697L20.2915 13.6485C20.3709 13.9179 20.6591 14.0722 20.91 13.9459C21.9951 13.3998 22.7396 12.2761 22.7396 10.9784C22.7396 9.14485 21.2532 7.65841 19.4196 7.65841Z" fill="#2563EB"/>
<path d="M8.7752 4.43333C8.54951 5.14386 8.57655 5.87392 8.80538 6.52723C8.88527 6.7553 8.82688 7.01659 8.63331 7.16125L5.49268 9.5083C5.34236 9.62064 5.14073 9.62296 4.96209 9.56549C4.26485 9.34398 3.52004 9.72969 3.29861 10.4269C3.07711 11.1242 3.46281 11.869 4.15997 12.0904C4.85721 12.3119 5.60203 11.9263 5.82354 11.2291C5.86388 11.102 5.88448 10.9702 5.88523 10.8381C5.88638 10.6342 5.95167 10.425 6.11594 10.3042L9.97022 7.46957C10.2219 7.28448 10.2405 6.91527 10.0739 6.65098C9.72835 6.10273 9.59256 5.40515 9.79798 4.75829C10.1723 3.58011 11.4308 2.92835 12.609 3.30264C13.3873 3.54985 13.9359 4.183 14.1107 4.92396C14.1725 5.18589 14.3832 5.40611 14.6522 5.41173L14.7316 5.41338C15.0124 5.41924 15.2467 5.19131 15.2022 4.91397C15.0104 3.71803 14.1671 2.6715 12.9339 2.27977C11.1909 1.72609 9.32888 2.69023 8.7752 4.43333Z" fill="#F87171"/>
<path d="M2.62488 13.4077C3.20481 13.8324 3.90394 14.0546 4.61538 14.047C4.85564 14.0444 5.08342 14.1817 5.15966 14.4095L6.39963 18.1153C6.45854 18.2913 6.39759 18.4814 6.28754 18.6309C5.86047 19.2162 5.99271 20.0399 6.58289 20.4704C7.17307 20.9011 7.99767 20.7757 8.42475 20.1904C8.8519 19.6051 8.71967 18.7815 8.12949 18.3509C8.02146 18.272 7.90263 18.2104 7.77727 18.1676C7.58568 18.1021 7.4095 17.9748 7.34672 17.7824L5.86836 13.2497C5.77194 12.9541 5.42968 12.8203 5.12732 12.8929C4.50102 13.0433 3.79898 12.9486 3.25139 12.5491C2.25419 11.8214 2.03076 10.4297 2.75242 9.44068C3.22844 8.78834 3.99664 8.47408 4.75063 8.54445C5.01949 8.56955 5.29631 8.43912 5.38674 8.18468L5.41015 8.1188C5.50391 7.85498 5.36269 7.56161 5.08663 7.51496C3.89554 7.31368 2.64219 7.77342 1.88661 8.80888C0.818933 10.2722 1.14943 12.3312 2.62488 13.4077Z" fill="#60A5FA"/>
<path d="M19.6227 18.567C19.3954 17.8636 18.9521 17.2901 18.3895 16.8948C18.191 16.7553 18.0861 16.5076 18.1605 16.2766L19.3546 12.5669C19.412 12.3885 19.5746 12.2697 19.7532 12.2127C20.4485 11.9881 20.8309 11.2453 20.6075 10.5538C20.3841 9.86207 19.6394 9.4835 18.9441 9.70811C18.2489 9.93264 17.8664 10.6754 18.0898 11.3671C18.1302 11.4919 18.1891 11.6094 18.2638 11.7157C18.3816 11.8832 18.4505 12.0924 18.3862 12.2869L16.8952 16.8C16.7969 17.0975 16.997 17.41 17.2871 17.5285C17.8837 17.772 18.3959 18.2563 18.6027 18.8965C18.9803 20.0652 18.334 21.3203 17.1592 21.6998C16.3836 21.9504 15.5715 21.7567 15.0006 21.2598C14.798 21.0834 14.4993 21.0267 14.2773 21.1778L14.2133 21.2215C13.9806 21.3799 13.9223 21.7024 14.1207 21.9019C14.969 22.755 16.2589 23.1113 17.487 22.7145C19.225 22.153 20.1812 20.2961 19.6227 18.567Z" fill="#81C784"/>
<path d="M9.33799 22.1195C9.93717 21.6811 10.3448 21.0786 10.5453 20.419C10.6156 20.1878 10.8169 20.0113 11.0586 20.0088L14.9643 19.969C15.1513 19.9671 15.3149 20.0838 15.4247 20.2352C15.8552 20.8236 16.6812 20.9516 17.2696 20.5211C17.858 20.0906 17.986 19.2647 17.5555 18.6763C17.125 18.0878 16.2991 17.9598 15.7107 18.3903C15.6037 18.4686 15.5098 18.5622 15.4316 18.6676C15.3102 18.8313 15.134 18.9616 14.9301 18.9621L10.1653 18.9743C9.85291 18.9751 9.61992 19.2621 9.59806 19.5737C9.55293 20.2173 9.25177 20.8573 8.70645 21.2563C7.71218 21.9838 6.31644 21.7675 5.58899 20.7732C5.10881 20.1168 5.03989 19.2855 5.33447 18.587C5.43904 18.3391 5.39908 18.037 5.18524 17.8736L5.12503 17.8276C4.90184 17.657 4.57817 17.7027 4.45046 17.9529C3.90196 19.0274 3.96484 20.3645 4.72579 21.4047C5.80203 22.8757 7.86699 23.1958 9.33799 22.1195Z" fill="#A855F7"/>
</svg>
