<svg width="24" height="25" viewBox="0 0 24 25" fill="none" xmlns="http://www.w3.org/2000/svg">
<path d="M11.7416 18.4259C11.9005 18.33 12.0995 18.33 12.2584 18.4259L17.1655 21.3877C17.5442 21.6162 18.0113 21.2767 17.9108 20.846L16.6086 15.2639C16.5664 15.0832 16.6278 14.8939 16.7681 14.7724L21.106 11.0145C21.4401 10.7251 21.2619 10.1764 20.8216 10.1384L15.1097 9.64585C14.9253 9.62994 14.7648 9.51345 14.6924 9.34306L12.4603 4.0843C12.2878 3.67812 11.7122 3.67812 11.5397 4.0843L9.30755 9.34306C9.23523 9.51345 9.07468 9.62994 8.89026 9.64585L3.17692 10.1385C2.7368 10.1765 2.55852 10.7247 2.89214 11.0143L7.22266 14.7727C7.36252 14.8941 7.42384 15.0828 7.38201 15.2632L6.08715 20.8478C5.98732 21.2784 6.45421 21.6172 6.83259 21.3888L11.7416 18.4259Z" fill="#FBBF24"/>
</svg>
