<svg width="24" height="25" viewBox="0 0 24 25" fill="none" xmlns="http://www.w3.org/2000/svg">
<path d="M8.81796 22.11C10.575 22.11 12.001 20.675 12.001 18.907V15.704H8.81796C7.06296 15.704 5.63696 17.138 5.63696 18.907C5.63696 20.676 7.06296 22.11 8.81796 22.11Z" fill="#00E676"/>
<path d="M5.63696 12.5C5.63696 10.732 7.06296 9.297 8.81796 9.297H12.001V15.704H8.81796C7.06296 15.704 5.63696 14.269 5.63696 12.5Z" fill="#7C4DFF"/>
<path d="M5.63696 6.09401C5.63696 4.32601 7.06296 2.89001 8.81796 2.89001H12.001V9.29701H8.81796C7.06296 9.29701 5.63696 7.86201 5.63696 6.09401Z" fill="#F4511E"/>
<path d="M12 2.89001H15.182C16.938 2.89001 18.364 4.32601 18.364 6.09401C18.364 7.86201 16.938 9.29701 15.182 9.29701H12V2.89001Z" fill="#FF8A65"/>
<path d="M18.364 12.5C18.364 14.269 16.938 15.704 15.182 15.704C13.426 15.704 12 14.269 12 12.5C12 10.731 13.426 9.297 15.182 9.297C16.938 9.297 18.364 10.732 18.364 12.5Z" fill="#29B6F6"/>
</svg>
