<svg width="24" height="25" viewBox="0 0 24 25" fill="none" xmlns="http://www.w3.org/2000/svg">
<path d="M18.8461 8.13798H17.9236C17.7516 7.48998 17.3906 6.79698 16.8406 6.05898C16.2996 5.32098 15.7786 4.91498 15.2776 4.84098C15.0236 4.80798 14.7201 4.78348 14.3671 4.76748C14.0231 4.75148 13.6296 4.74348 13.1866 4.74348H10.2586V11.756H12.2641C12.8711 11.756 13.3426 11.6945 13.6786 11.5715C14.0146 11.4405 14.3016 11.2435 14.5396 10.9805C14.7036 10.8005 14.8511 10.5215 14.9821 10.1435C15.1221 9.75848 15.2121 9.34848 15.2521 8.91348H16.1881V15.767H15.2536C15.2286 15.406 15.1426 14.996 14.9956 14.537C14.8556 14.077 14.7036 13.7445 14.5396 13.5395C14.2936 13.2365 13.9821 13.0315 13.6051 12.9245C13.2351 12.8095 12.7881 12.752 12.2641 12.752H10.2586V18.767C10.2586 19.039 10.3121 19.2815 10.4191 19.4945C10.5251 19.7075 10.7136 19.8795 10.9846 20.0105C11.1076 20.0685 11.3741 20.1385 11.7841 20.2205C12.1941 20.3025 12.5056 20.3475 12.7186 20.3555V21.2285H5.15259V20.3555C5.39859 20.3395 5.72659 20.3145 6.13659 20.2805C6.54659 20.2405 6.81309 20.1915 6.93609 20.1335C7.18209 20.0275 7.35859 19.872 7.46559 19.667C7.58059 19.453 7.63809 19.1985 7.63809 18.9035V6.30498C7.63809 6.03498 7.59309 5.79748 7.50309 5.59248C7.41309 5.37848 7.22409 5.20598 6.93609 5.07498C6.71509 4.96898 6.41609 4.87448 6.03909 4.79148C5.66909 4.70948 5.37409 4.66048 5.15409 4.64448V3.77148H18.8461V8.13798Z" fill="#F87171"/>
</svg>
