<svg width="24" height="25" viewBox="0 0 24 25" fill="none" xmlns="http://www.w3.org/2000/svg">
<path d="M4.12706 4.5C4.05684 4.5 4 4.57122 4 4.66056V9.86035C4 9.94887 4.05684 10.0205 4.12706 10.0205H9.78617C9.85639 10.0205 9.91323 9.94887 9.91323 9.85994V4.66015C9.91345 4.63936 9.91034 4.61871 9.90407 4.5994C9.8978 4.58009 9.88849 4.56249 9.87669 4.54761C9.86489 4.53273 9.85082 4.52087 9.83528 4.5127C9.81975 4.50453 9.80306 4.50021 9.78617 4.5H4.12706ZM14.2138 4.5C14.1436 4.5 14.0868 4.57122 14.0868 4.66056V9.86035C14.0868 9.94887 14.1436 10.0205 14.2138 10.0205H19.8729C19.9431 10.0205 20 9.94887 20 9.85994V4.66015C20.0002 4.63936 19.9971 4.61871 19.9908 4.5994C19.9846 4.58009 19.9753 4.56249 19.9635 4.54761C19.9516 4.53273 19.9376 4.52087 19.922 4.5127C19.9065 4.50453 19.8898 4.50021 19.8729 4.5H14.2138ZM4.12706 13.69C4.05684 13.69 4 13.7612 4 13.8506V19.0504C4 19.1389 4.05684 19.2105 4.12706 19.2105H9.78617C9.85639 19.2105 9.91323 19.1389 9.91323 19.0499V13.8502C9.91345 13.8294 9.91034 13.8087 9.90407 13.7894C9.8978 13.7701 9.88849 13.7525 9.87669 13.7376C9.86489 13.7227 9.85082 13.7109 9.83528 13.7027C9.81975 13.6945 9.80306 13.6902 9.78617 13.69H4.12706ZM14.2138 13.69C14.1436 13.69 14.0868 13.7612 14.0868 13.8506V19.0504C14.0868 19.1389 14.1436 19.2105 14.2138 19.2105H15.569V21.0018H14.2212C14.2047 21.0018 14.1884 21.0057 14.1731 21.0135C14.1579 21.0212 14.1441 21.0326 14.1324 21.0469C14.1208 21.0613 14.1115 21.0783 14.1052 21.0971C14.099 21.1158 14.0957 21.1359 14.0958 21.1562V22.346C14.0958 22.4312 14.1516 22.5 14.2212 22.5H16.9974C17.0138 22.5001 17.0301 22.4961 17.0453 22.4884C17.0605 22.4807 17.0743 22.4693 17.0859 22.455C17.0975 22.4407 17.1068 22.4237 17.113 22.405C17.1193 22.3863 17.1225 22.3663 17.1225 22.346V20.6436H18.3924C18.4088 20.6436 18.4251 20.6396 18.4403 20.6319C18.4555 20.6241 18.4693 20.6127 18.4809 20.5984C18.4925 20.5841 18.5017 20.567 18.508 20.5483C18.5143 20.5296 18.5175 20.5095 18.5174 20.4892V19.2105H19.8729C19.9431 19.2105 20 19.1389 20 19.0499V13.8502C20.0002 13.8294 19.9971 13.8087 19.9908 13.7894C19.9846 13.7701 19.9753 13.7525 19.9635 13.7376C19.9516 13.7227 19.9376 13.7109 19.922 13.7027C19.9065 13.6945 19.8898 13.6902 19.8729 13.69H14.2138Z" fill="#F87171"/>
</svg>
