<svg width="24" height="25" viewBox="0 0 24 25" fill="none" xmlns="http://www.w3.org/2000/svg">
<path d="M8.87813 23.9067C9.01491 23.8682 9.26676 23.8323 9.4377 23.8269L9.74856 23.8172V23.4114C9.74856 22.6367 9.24015 21.4206 8.64104 20.7622C8.54347 20.655 8.20292 20.4356 7.88435 20.2745C7.31948 19.9891 7.28748 19.983 6.59942 20.0319C6.21137 20.0595 5.66996 20.1433 5.3964 20.218C3.70436 20.6801 1.09041 19.4078 1.08668 18.1201C1.08535 17.6436 1.29342 17.454 1.97427 17.3115C2.79405 17.1399 3.35726 16.8732 3.41902 16.6271C3.51336 16.2514 3.39473 15.0778 3.23192 14.776C3.11719 14.5632 3.0779 14.3126 3.07674 13.7865C3.07524 13.1141 3.0895 13.059 3.38694 12.5844C3.55837 12.3109 3.87438 11.8693 4.08926 11.6032C4.45351 11.1521 4.48195 11.0821 4.51055 10.567C4.54371 9.97056 4.31963 8.91418 4.01548 8.23226C3.67228 7.46272 3.72243 5.37782 4.12225 3.80093C4.53036 2.19104 5.34169 0.899483 5.84455 1.05915C6.01117 1.11195 6.02178 1.14022 6.59561 3.05658C6.7653 3.62328 6.78793 3.65337 7.29411 3.98621C8.13055 4.53615 8.89794 5.42797 9.67313 6.7512L9.88783 7.11778L10.7041 7.2209C12.0881 7.39565 13.7095 8.02344 14.595 8.72733C14.7757 8.87099 14.9809 8.97072 15.0509 8.949C15.121 8.92728 15.6048 8.71606 16.126 8.47963C17.2523 7.96873 18.3868 7.58764 19.9307 7.20183C21.5618 6.79414 22.4719 6.62851 22.7282 6.69284C22.9507 6.74871 22.9519 6.75286 22.9005 7.30579C22.842 7.93432 22.4971 9.0227 22.1198 9.7692C21.5412 10.9139 20.1195 12.4893 18.7687 13.4825C18.1602 13.9301 18.1291 13.969 18.079 14.3455C17.6604 17.4992 16.8094 19.2396 14.5994 21.462C13.5636 22.5036 13.4821 22.5658 12.5669 23.0141C11.3196 23.6253 10.6739 23.795 9.04376 23.9399C8.72087 23.9686 8.68423 23.9613 8.87797 23.9068L8.87813 23.9067ZM2.44662 19.4001C2.42756 19.3872 2.33745 19.3219 2.24626 19.255C2.0929 19.1425 2.089 19.1443 2.19428 19.2785C2.25687 19.3582 2.34698 19.4235 2.39456 19.4235C2.44215 19.4235 2.46561 19.413 2.44662 19.4001Z" fill="#FBBF24"/>
<path d="M8.87813 23.9066C9.01491 23.8682 9.26676 23.8323 9.4377 23.8269L9.74856 23.8171L9.74757 23.4234C9.74641 22.9645 9.59918 22.366 9.34717 21.7965C9.21685 21.5018 9.20276 21.4214 9.29494 21.4978C9.53054 21.6934 9.5167 21.5088 9.26883 21.1495C8.98026 20.7311 8.5598 20.3783 7.91842 20.0164C7.66583 19.8738 7.37759 19.6634 7.27794 19.5488C7.16852 19.4229 7.00869 19.3405 6.87406 19.3405C6.65778 19.3405 6.66151 19.3485 6.99783 19.607C7.1885 19.7535 7.34451 19.8973 7.34451 19.9263C7.34451 19.9553 7.01806 20.0024 6.61915 20.0307C6.22016 20.0589 5.66996 20.1432 5.3964 20.2179C3.70436 20.6801 1.09041 19.4078 1.08668 18.1201C1.08527 17.6435 1.29343 17.4539 1.97427 17.3115C2.79679 17.1394 3.35726 16.8733 3.41952 16.6253C3.51867 16.2301 3.38512 15.0071 3.19652 14.5836C3.05468 14.2652 3.02293 14.0622 3.04756 13.6303C3.08212 13.0228 3.32551 12.5492 4.08926 11.6031C4.45343 11.152 4.48195 11.082 4.51055 10.5669C4.54362 9.97052 4.31963 8.91406 4.01548 8.23214C3.67228 7.46268 3.72243 5.3777 4.12225 3.8008C4.53036 2.191 5.34169 0.899361 5.84455 1.05902C6.01117 1.11191 6.02178 1.14018 6.59561 3.05646C6.7653 3.62324 6.78793 3.65333 7.29411 3.98608C8.13055 4.53611 8.89794 5.42785 9.67313 6.75108L9.88783 7.11774L10.7041 7.22086C12.0881 7.39561 13.7095 8.0234 14.595 8.72729C14.7757 8.87095 14.9809 8.97068 15.0509 8.94896C15.121 8.92724 15.6047 8.71602 16.126 8.47959C17.2523 7.96869 18.3868 7.5876 19.9307 7.20179C21.5618 6.7941 22.4719 6.62847 22.7282 6.6928C22.9507 6.74867 22.9518 6.75282 22.9005 7.30575C22.842 7.93428 22.4971 9.02266 22.1198 9.76916C21.5412 10.9138 20.1195 12.4892 18.7687 13.4825C18.1601 13.9301 18.1291 13.969 18.079 14.3455C17.6604 17.4992 16.8094 19.2396 14.5994 21.462C13.5636 22.5035 13.4821 22.5658 12.5669 23.0141C11.3196 23.6252 10.6739 23.795 9.04376 23.9398C8.72087 23.9686 8.68423 23.9612 8.87797 23.9067L8.87813 23.9066ZM11.1571 22.486C12.3742 22.0166 13.5248 21.0989 14.2587 20.0122C15.1241 18.7306 15.7492 16.7688 15.9737 14.6304L16.0809 13.6092L16.6461 13.1081C17.2565 12.567 17.946 11.5959 18.4157 10.6158C18.7764 9.86308 18.7854 9.6061 18.457 9.4364C17.9393 9.16864 16.2626 9.35168 14.756 9.84045C13.7179 10.1773 13.5753 10.1924 13.1843 10.0068L12.906 9.87477L12.3013 10.2757C11.9688 10.4962 11.2888 11.0779 10.7903 11.5683C9.8953 12.4488 9.66567 12.6008 9.66567 12.3127C9.66567 12.1076 10.8123 10.8452 11.6363 10.1429C12.1756 9.68344 12.3792 9.55835 12.5897 9.55735C12.7836 9.55644 12.8243 9.53522 12.7374 9.48026C12.6715 9.43856 12.4459 9.42472 12.2362 9.44958C11.9146 9.48772 11.7642 9.44983 11.2783 9.20893C10.9612 9.05167 10.31 8.75854 9.83138 8.55752C9.04293 8.22634 8.8977 8.12943 8.28972 7.52817C7.92049 7.16308 7.38389 6.51001 7.09714 6.07686C6.48759 5.15586 6.30654 4.94281 5.99808 4.78232C5.46139 4.50304 5.09117 4.94522 4.81371 6.19723C4.64335 6.96553 4.68281 8.55188 4.90034 9.6812C5.10095 10.7231 4.98987 11.1725 4.31565 12.0455C3.5728 13.0075 3.45484 13.619 3.81254 14.6549C4.08006 15.4295 4.20258 16.2368 4.09581 16.5221C3.90904 17.0213 3.1147 17.5997 2.6159 17.5997C2.37301 17.5997 2.36058 17.6145 2.41073 17.8429C2.47423 18.1318 2.21774 18.9261 2.0609 18.9261C1.90331 18.9261 1.9344 19.0653 2.1336 19.2509C2.41711 19.515 3.01846 19.7621 3.47879 19.8035C3.84371 19.8364 3.87472 19.8286 3.69682 19.7486C3.54461 19.6797 3.39263 19.6104 3.24087 19.5406L2.99218 19.426L3.32377 19.4869C3.87521 19.5882 5.02841 19.5435 5.66134 19.3964C5.98945 19.3201 6.46372 19.2577 6.71515 19.2577C7.5792 19.2577 8.7086 19.8439 9.37071 20.6361C9.70537 21.0365 10.243 22.1559 10.2448 22.4562C10.2469 22.8091 10.3134 22.8113 11.1569 22.486H11.1571ZM10.702 19.0532C7.97437 18.5743 7.64684 18.5076 7.52465 18.4062C7.29751 18.2177 7.7367 18.2172 10.0668 18.4034C11.3277 18.5042 12.3817 18.5605 12.4089 18.5285C12.4362 18.4964 12.4985 18.066 12.5472 17.5722C12.596 17.0783 12.6584 16.6519 12.6858 16.6244C12.8225 16.4877 12.908 16.8416 12.9901 17.8837C13.0914 19.1705 13.0713 19.2369 12.5615 19.2965C12.405 19.3147 11.5683 19.2053 10.702 19.0532ZM6.46372 16.6711C6.39665 16.5626 6.62893 16.3738 7.37493 15.93C8.15269 15.4675 9.10196 15.1357 9.98275 15.0184C11.0556 14.8755 11.3521 15.0536 10.4724 15.3125C10.1359 15.4115 9.99229 15.5088 9.83163 15.7467C9.56702 16.1387 9.0644 16.5029 8.69178 16.5729C8.53162 16.6029 8.15103 16.5803 7.84596 16.5228C7.3349 16.4264 7.2612 16.4316 6.90507 16.5891C6.64535 16.704 6.50069 16.7309 6.4638 16.6712L6.46372 16.6711ZM4.94394 15.0513C4.614 14.5831 4.53741 14.118 4.71887 13.6837C4.80625 13.4746 4.83178 13.238 4.80003 12.9307C4.75045 12.4502 4.8491 12.2811 5.07144 12.4656C5.1395 12.522 5.32834 12.8063 5.49099 13.0973C5.83891 13.7194 5.88765 14.2996 5.65156 15.0102C5.46835 15.5618 5.31027 15.5709 4.94394 15.0513Z" fill="#F59E0B"/>
<path d="M8.87827 23.9066C9.01505 23.8682 9.2669 23.8323 9.43783 23.8269C9.6256 23.8209 9.74903 23.776 9.74953 23.7135C9.74986 23.6551 10.1755 23.4681 10.7236 23.2855C11.9546 22.8753 12.7416 22.5134 13.4552 22.0293C15.776 20.4551 17.2893 17.5213 17.2918 14.5909C17.2926 13.7546 17.3174 13.7149 18.1593 13.206C18.8358 12.7973 20.6084 11.0143 20.6084 10.7426C20.6084 10.6998 20.7249 10.4886 20.8675 10.2736C21.1866 9.7917 21.6978 8.40755 21.747 7.89159C21.7818 7.52675 21.7729 7.5076 21.5482 7.46466C20.7215 7.30674 18.3265 7.91181 16.2148 8.81209C14.6672 9.47188 14.7218 9.46641 13.9666 9.03542C12.7219 8.32514 11.4412 7.82626 10.3133 7.6123C9.94078 7.54167 9.63049 7.47502 9.62386 7.46416C9.52654 7.30699 8.55654 6.02388 8.32426 5.7451C8.15324 5.53992 7.73411 5.13132 7.39281 4.83695C6.72888 4.26453 6.4709 3.87333 6.19104 3.01484C5.97931 2.36541 5.81194 2.09632 5.62252 2.1013C5.54377 2.10337 5.32284 2.28425 5.13151 2.50319C4.74106 2.95009 4.52221 3.62381 4.3516 4.90318C4.21756 5.90874 4.30419 8.10861 4.52668 9.35118C4.77704 10.7491 4.6643 11.2403 3.93728 11.921L3.58313 12.2526L3.93064 11.8263C4.43003 11.2133 4.52503 10.9902 4.52536 10.4289C4.52569 9.90859 4.20952 8.57906 3.97989 8.13506C3.79701 7.7815 3.72928 6.17111 3.8567 5.20626C4.15745 2.92871 5.15812 0.841159 5.8446 1.05893C6.01123 1.11191 6.02192 1.14009 6.59566 3.05645C6.76544 3.62315 6.78799 3.65324 7.29425 3.98608C8.13069 4.53602 8.89808 5.42785 9.67327 6.75107L9.88797 7.11765L10.7009 7.22036C12.1065 7.39784 13.7897 8.06708 14.7398 8.8261L14.9643 9.00557L15.7162 8.65624C16.1297 8.46408 16.7933 8.1814 17.191 8.02804C18.7093 7.44236 22.2785 6.5798 22.7224 6.6913C22.9521 6.74891 22.9523 6.74958 22.9006 7.30574C22.8423 7.9342 22.4973 9.02257 22.12 9.76915C21.5414 10.9138 20.1196 12.4892 18.7689 13.4825C18.1603 13.93 18.1292 13.9689 18.0792 14.3455C17.6606 17.4992 16.8096 19.2395 14.5995 21.462C13.5638 22.5035 13.4822 22.5658 12.5671 23.0141C11.3197 23.6252 10.674 23.7949 9.0439 23.9398C8.72101 23.9685 8.68437 23.9612 8.8781 23.9066H8.87827ZM3.61422 20.2022C2.95344 20.025 1.96313 19.5133 1.62308 19.1732C1.04379 18.5939 0.901372 17.9127 1.28668 17.564C1.37257 17.4862 1.68808 17.3713 1.98776 17.3087C2.69015 17.1617 3.17171 16.9444 3.51939 16.6177C3.67242 16.4739 3.84957 16.3562 3.91315 16.3562C4.31571 16.3562 3.41527 17.2849 2.86814 17.434C2.66296 17.49 2.44884 17.5488 2.39238 17.5648C2.31711 17.5861 2.31139 17.651 2.37108 17.8079C2.46649 18.0589 2.30658 18.5167 2.01445 18.8287L1.83191 19.0237L2.0806 19.2254C2.96422 19.9422 3.97234 20.0796 5.64747 19.7115C6.67906 19.4848 6.70807 19.483 6.97708 19.6278C7.47016 19.8934 7.39572 19.9755 6.61216 20.0309C6.21715 20.0588 5.68875 20.1383 5.43799 20.2075C4.87179 20.3638 4.20985 20.3619 3.61422 20.2022ZM11.9041 19.1277C11.8357 19.1125 10.9488 18.9661 9.93332 18.8024C7.9712 18.4862 7.818 18.4517 7.88672 18.3403C7.93281 18.2658 7.96987 18.2676 10.6496 18.4743C11.5784 18.546 12.3847 18.5867 12.4415 18.5649C12.5086 18.5392 12.5655 18.2333 12.604 17.6903C12.6617 16.8767 12.7661 16.5701 12.8549 16.9539C12.8791 17.0583 12.9339 17.5328 12.9768 18.0083C13.0751 19.1011 13.0408 19.178 12.4606 19.1652C12.2228 19.1599 11.9724 19.1431 11.904 19.1277H11.9041ZM6.87669 16.3249C7.66033 15.6101 9.5102 14.9632 10.6033 15.0218C10.8139 15.033 10.7071 15.1662 10.4334 15.2335C10.3076 15.2645 9.97841 15.5264 9.70195 15.8157C9.07466 16.4718 8.74422 16.5875 7.94881 16.4294C7.51724 16.3436 7.36753 16.3437 7.15299 16.43C6.60503 16.6502 6.54501 16.6274 6.87669 16.3249ZM4.99564 14.8875C4.66264 14.3629 4.62616 14.1041 4.8199 13.6405C4.91175 13.4206 4.93214 13.2088 4.89218 12.8889C4.84211 12.4878 4.85148 12.4465 4.98685 12.4726C5.0695 12.4885 5.26846 12.7254 5.42903 12.9989C5.79511 13.6225 5.86483 14.2757 5.6318 14.8986C5.54799 15.1227 5.4389 15.3197 5.38941 15.3361C5.33984 15.3527 5.16268 15.1507 4.99564 14.8875ZM9.7487 12.2555C9.7487 12.0944 10.7755 10.9369 11.3744 10.4229C12.1086 9.79286 12.3348 9.64141 12.5419 9.64141C12.8793 9.64141 12.7495 9.86382 12.1735 10.2728C11.8657 10.4912 11.2249 11.0541 10.7493 11.5235C10.2737 11.993 9.85398 12.3771 9.81668 12.3771C9.77938 12.3771 9.7487 12.3223 9.7487 12.2555Z" fill="black"/>
</svg>
