<svg width="24" height="25" viewBox="0 0 24 25" fill="none" xmlns="http://www.w3.org/2000/svg">
<path d="M12.2333 22.9733L2.39922 17.057L1.59546 5.43009L12.0772 2.02618L22.5452 5.38688L21.458 17.222L12.2333 22.9733ZM2.94829 16.7454L12.2278 22.3305L20.9158 16.9117L21.9386 5.76655L12.0799 2.60092L2.19246 5.8163L2.94829 16.7454Z" fill="#71717A"/>
<path d="M5.09823 8.92951L5.17196 11.0151L10.2863 13.3952L10.3028 15.3184L5.23643 12.9344L5.46107 17.7916L3.46722 16.6132L2.77588 6.06769L12.0581 10.1026V12.1266L5.09823 8.92951Z" fill="white"/>
<path d="M20.2051 13.9098C20.1941 15.6273 19.3384 17.3909 17.9088 18.2457L12.0483 21.9025V10.1051L17.8365 7.63869C18.543 7.32326 19.1385 7.4515 19.5343 8.04592C19.7944 8.43859 19.9301 8.99236 19.9259 9.64437C19.9355 10.4601 19.7217 11.264 19.3056 11.9761C19.8931 12.2379 20.2177 12.8336 20.2053 13.9098H20.2051ZM18.4375 10.3736C18.4375 9.76616 18.1636 9.46633 17.7637 9.66012L13.7928 11.5558L13.7818 13.809L17.813 11.7679C18.1552 11.5951 18.4375 10.9941 18.4375 10.3736ZM18.7318 14.5944C18.7318 13.847 18.4004 13.5156 17.8349 13.8182L13.7819 15.9875V18.5508L17.7995 16.265C18.4059 15.9194 18.7291 15.3131 18.7318 14.5944Z" fill="white"/>
</svg>
