<svg width="24" height="25" viewBox="0 0 24 25" fill="none" xmlns="http://www.w3.org/2000/svg">
<path d="M11.6464 2.98673C11.8416 2.79147 12.1582 2.79147 12.3535 2.98673L21.0132 11.6465C21.3282 11.9615 21.1051 12.5 20.6596 12.5H16.2286V18.0565C16.2286 18.1983 16.1684 18.3332 16.0634 18.4285C14.8268 19.551 13.5901 20.7776 12.3535 22.0134C12.1582 22.2086 11.8416 22.2086 11.6464 22.0133L2.48661 12.8536C2.29135 12.6583 2.29135 12.3417 2.48661 12.1465L11.6464 2.98673ZM7.91226 12.5L11.9999 16.5877V12.5H16.0876C14.8189 11.0905 13.4095 9.68093 11.9999 8.41238C10.5903 9.68097 9.18081 11.0905 7.91226 12.5Z" fill="#14B8A6"/>
</svg>
