<svg width="24" height="25" viewBox="0 0 24 25" fill="none" xmlns="http://www.w3.org/2000/svg">
<path d="M20.4301 12.5H15.0652V14.0326H18.7441C18.2075 16.3314 16.5215 18.248 14.2989 19.0143L5.48578 10.2011C6.4055 7.51829 9.01121 5.60258 12.0001 5.60258C14.2989 5.60258 16.3681 6.75286 17.6709 8.51515L18.8204 7.51915C17.2886 5.45001 14.8355 4.07001 12.0001 4.07001C8.01435 4.07001 4.64321 6.90544 3.80064 10.6614L13.9158 20.7766C17.5946 19.8569 20.4301 16.4849 20.4301 12.5ZM3.57007 12.5771C3.57007 14.7226 4.4135 16.7917 6.02235 18.4006C7.63121 20.0094 9.7775 20.8529 11.8466 20.8529L3.57007 12.5771Z" fill="white"/>
<path d="M12.0001 1.77112C6.09922 1.77112 1.27124 6.5991 1.27124 12.5C1.27124 18.4008 6.09922 23.2288 12.0001 23.2288C17.9009 23.2288 22.7289 18.4008 22.7289 12.5C22.7289 6.5991 17.9009 1.77112 12.0001 1.77112ZM6.02258 18.4775C4.41326 16.8681 3.57028 14.7224 3.57028 12.6532L11.9234 20.9298C9.77768 20.8531 7.63191 20.0868 6.02258 18.4775ZM13.8393 20.6999L3.80018 10.6607C4.64316 6.90563 8.01508 4.07016 12.0001 4.07016C14.8356 4.07016 17.2879 5.44958 18.8206 7.51871L17.671 8.51496C16.3682 6.75237 14.2991 5.60285 12.0001 5.60285C9.01133 5.60285 6.48239 7.51871 5.48614 10.2009L14.2991 19.0139C16.5215 18.2476 18.2075 16.3317 18.7439 14.0326H15.0655V12.5H20.4299C20.4299 16.485 17.5944 19.8569 13.8393 20.6999Z" fill="#A855F7"/>
</svg>
