<svg width="24" height="25" viewBox="0 0 24 25" fill="none" xmlns="http://www.w3.org/2000/svg">
<path d="M14.7481 8.80527H15.371L17.1463 7.02999L17.2335 6.27628C16.2165 5.37865 14.9875 4.7551 13.6625 4.46452C12.3375 4.17395 10.9603 4.22595 9.66103 4.61561C8.36173 5.00528 7.18322 5.71974 6.23682 6.69151C5.29041 7.66328 4.60737 8.86028 4.2522 10.1694C4.44997 10.0884 4.66905 10.0752 4.8751 10.1321L8.42565 9.54653C8.42565 9.54653 8.6063 9.24753 8.69973 9.26621C9.4605 8.43069 10.5119 7.91756 11.6386 7.83187C12.7653 7.74618 13.8822 8.09441 14.7606 8.80527H14.7481Z" fill="#F87171"/>
<path d="M19.6753 10.1695C19.2672 8.66679 18.4294 7.31589 17.2647 6.28253L14.773 8.77415C15.2923 9.19845 15.7085 9.73513 15.9901 10.3437C16.2717 10.9523 16.4115 11.6169 16.3988 12.2873V12.7296C16.987 12.7296 17.551 12.9632 17.9669 13.3791C18.3827 13.795 18.6164 14.359 18.6164 14.9471C18.6164 15.5353 18.3827 16.0993 17.9669 16.5152C17.551 16.931 16.987 17.1647 16.3988 17.1647H11.9637L11.5215 17.6132V20.273L11.9637 20.7152H16.3988C17.6373 20.7249 18.846 20.3356 19.8461 19.6051C20.8462 18.8745 21.5846 17.8415 21.9521 16.6587C22.3196 15.476 22.2966 14.2064 21.8865 13.0377C21.4765 11.869 20.7012 10.8633 19.6753 10.1695Z" fill="#60A5FA"/>
<path d="M7.52232 20.6903H11.9574V17.1398H7.52232C7.20634 17.1397 6.89406 17.0717 6.60665 16.9404L5.98374 17.1335L4.19601 18.9088L4.04028 19.5317C5.0428 20.2887 6.26609 20.6958 7.52232 20.6903Z" fill="#81C784"/>
<path d="M7.52245 9.17277C6.32076 9.17994 5.15132 9.56228 4.17746 10.2663C3.2036 10.9704 2.47395 11.9611 2.09044 13.0999C1.70693 14.2388 1.6887 15.469 2.03829 16.6188C2.38789 17.7685 3.08785 18.7804 4.04042 19.513L6.61301 16.9404C6.28609 16.7927 5.99988 16.5679 5.77895 16.2852C5.55801 16.0026 5.40894 15.6706 5.34453 15.3177C5.28012 14.9648 5.30229 14.6015 5.40914 14.259C5.51599 13.9166 5.70433 13.6051 5.958 13.3515C6.21166 13.0978 6.52309 12.9095 6.86555 12.8026C7.208 12.6958 7.57127 12.6736 7.92418 12.738C8.27709 12.8024 8.60911 12.9515 8.89174 13.1724C9.17438 13.3934 9.39919 13.6796 9.54689 14.0065L12.1195 11.4339C11.5795 10.728 10.8836 10.1566 10.0861 9.76432C9.28861 9.37206 8.41119 9.1696 7.52245 9.17277Z" fill="#FBBF24"/>
</svg>
