<svg width="24" height="25" viewBox="0 0 24 25" fill="none" xmlns="http://www.w3.org/2000/svg">
<path d="M19.8005 11.6983L12.2682 3.83948C11.8348 3.38684 11.1313 3.38684 10.6974 3.83948L9.13338 5.47163L11.1173 7.54176C11.5785 7.37927 12.1071 7.48822 12.4745 7.87173C12.8439 8.25763 12.9476 8.81395 12.7879 9.29682L14.7001 11.2921C15.1626 11.1257 15.6964 11.2332 16.0658 11.6193C16.5822 12.158 16.5822 13.031 16.0658 13.5698C15.5493 14.1089 14.7127 14.1089 14.1959 13.5698C13.8076 13.1643 13.7116 12.569 13.9082 12.0697L12.125 10.209L12.1248 15.1056C12.2507 15.1706 12.3696 15.2574 12.4745 15.3664C12.9907 15.9051 12.9907 16.7779 12.4745 17.3174C11.958 17.8561 11.1211 17.8561 10.6052 17.3174C10.0889 16.7779 10.0889 15.9051 10.6052 15.3664C10.7328 15.2335 10.8805 15.1329 11.038 15.0655V10.1233C10.8804 10.0562 10.7329 9.95633 10.6051 9.82235C10.214 9.41455 10.1198 8.81557 10.3204 8.3144L8.36469 6.27334L3.20044 11.662C2.76652 12.115 2.76652 12.849 3.20044 13.3017L10.7323 21.1605C11.1659 21.6132 11.8691 21.6132 12.3034 21.1605L19.8004 13.3388C20.2341 12.886 20.2341 12.1517 19.8004 11.6989" fill="#F87171"/>
</svg>
