<svg width="24" height="25" viewBox="0 0 24 25" fill="none" xmlns="http://www.w3.org/2000/svg">
<path fill-rule="evenodd" clip-rule="evenodd" d="M11.5001 2.7467C6.20529 2.7467 1.91675 7.2217 1.91675 12.7467C1.91675 17.1717 4.65998 20.9092 8.46935 22.2342C8.94852 22.3217 9.12821 22.0217 9.12821 21.7592C9.12821 21.5217 9.11623 20.7342 9.11623 19.8967C6.70842 20.3592 6.0855 19.2842 5.89383 18.7217C5.78602 18.4342 5.31883 17.5467 4.91154 17.3092C4.57612 17.1217 4.09696 16.6592 4.89956 16.6467C5.65425 16.6342 6.19331 17.3717 6.373 17.6717C7.2355 19.1842 8.6131 18.7592 9.16414 18.4967C9.248 17.8467 9.49956 17.4092 9.77508 17.1592C7.64279 16.9092 5.41466 16.0467 5.41466 12.2217C5.41466 11.1342 5.78602 10.2342 6.39696 9.5342C6.30112 9.2842 5.96571 8.2592 6.49279 6.8842C6.49279 6.8842 7.29539 6.6217 9.12821 7.9092C9.89487 7.6842 10.7095 7.5717 11.524 7.5717C12.3386 7.5717 13.1532 7.6842 13.9199 7.9092C15.7527 6.6092 16.5553 6.8842 16.5553 6.8842C17.0824 8.2592 16.747 9.2842 16.6511 9.5342C17.2621 10.2342 17.6334 11.1217 17.6334 12.2217C17.6334 16.0592 15.3933 16.9092 13.261 17.1592C13.6084 17.4717 13.9079 18.0717 13.9079 19.0092C13.9079 20.3467 13.8959 21.4217 13.8959 21.7592C13.8959 22.0217 14.0756 22.3342 14.5548 22.2342C16.4572 21.564 18.1104 20.2882 19.2816 18.5862C20.4527 16.8843 21.0829 14.842 21.0834 12.7467C21.0834 7.2217 16.7949 2.7467 11.5001 2.7467Z" fill="#CFD8DC"/>
</svg>
