<svg width="24" height="25" viewBox="0 0 24 25" fill="none" xmlns="http://www.w3.org/2000/svg">
<path d="M21.5587 10.5161L21.532 10.445L18.8404 3.42415C18.7859 3.28629 18.689 3.16935 18.5636 3.09026C18.4701 3.03039 18.3638 2.99326 18.2533 2.98185C18.1429 2.97044 18.0313 2.98507 17.9275 3.02457C17.8237 3.06406 17.7306 3.12733 17.6556 3.20929C17.5807 3.29125 17.526 3.38962 17.4959 3.49653L15.6791 9.05863H8.32179L6.50499 3.49653C6.47469 3.38978 6.41986 3.29159 6.34488 3.20978C6.2699 3.12797 6.17684 3.06482 6.07313 3.02536C5.96941 2.98589 5.85791 2.97121 5.74752 2.98248C5.63712 2.99375 5.53088 3.03065 5.43728 3.09026C5.31193 3.16936 5.21499 3.2863 5.16051 3.42415L2.47021 10.4463L2.44227 10.5161C2.05496 11.5284 2.00725 12.6391 2.30634 13.6808C2.60542 14.7226 3.23509 15.6388 4.10039 16.2915L4.11056 16.2991L4.13341 16.3169L8.22786 19.3855L10.2592 20.9204L11.4933 21.8536C11.6381 21.963 11.8146 22.0221 11.9961 22.0221C12.1775 22.0221 12.354 21.963 12.4988 21.8536L13.7329 20.9205L15.7642 19.3855L19.8879 16.2991L19.8993 16.2902C20.7646 15.6378 21.3943 14.7219 21.6936 13.6804C21.9929 12.6389 21.9455 11.5283 21.5587 10.5161Z" fill="#E53935"/>
<path d="M21.5587 10.5161L21.532 10.4449C20.2207 10.7141 18.985 11.2699 17.9137 12.0726L12.0037 16.5416L15.7668 19.3855L19.8904 16.2991L19.9019 16.2902C20.7667 15.6375 21.3959 14.7214 21.6947 13.6799C21.9936 12.6385 21.9458 11.528 21.5587 10.5161Z" fill="#EF6C00"/>
<path d="M8.22803 19.3855L10.2594 20.9205L11.4935 21.8536C11.6383 21.963 11.8148 22.0222 11.9962 22.0222C12.1777 22.0222 12.3542 21.963 12.499 21.8536L13.7331 20.9205L15.7644 19.3855L12.0013 16.5416L8.22803 19.3855Z" fill="#F9A825"/>
<path d="M6.0873 12.0726C5.01634 11.2703 3.78111 10.7149 2.47021 10.4463L2.44227 10.5161C2.05496 11.5284 2.00725 12.6391 2.30634 13.6809C2.60542 14.7226 3.23509 15.6389 4.10039 16.2915L4.11056 16.2992L4.13341 16.3169L8.22786 19.3856L11.9935 16.5416L6.0873 12.0726Z" fill="#EF6C00"/>
</svg>
