<svg width="24" height="25" viewBox="0 0 24 25" fill="none" xmlns="http://www.w3.org/2000/svg">
<mask id="mask0_808_1993" style="mask-type:luminance" maskUnits="userSpaceOnUse" x="2" y="2" width="20" height="21">
<path d="M2.13501 2.63501H21.8661V22.3661H2.13501V2.63501Z" fill="white"/>
</mask>
<g mask="url(#mask0_808_1993)">
<path fill-rule="evenodd" clip-rule="evenodd" d="M13.7023 3.61745C13.83 3.83978 13.9125 4.08519 13.945 4.33955C13.9775 4.5939 13.9593 4.85216 13.8915 5.09946C13.8237 5.34676 13.7077 5.5782 13.55 5.78044C13.3924 5.98269 13.1963 6.15174 12.973 6.27786L7.1277 9.59926C7.05205 9.64217 6.98909 9.70431 6.9452 9.77938C6.90131 9.85446 6.87805 9.93981 6.87777 10.0268V15.2415C6.87805 15.3285 6.90131 15.4139 6.9452 15.4889C6.98909 15.564 7.05205 15.6261 7.1277 15.6691L11.7546 18.299C11.8296 18.3416 11.9143 18.364 12.0005 18.364C12.0866 18.364 12.1714 18.3416 12.2463 18.299L16.8732 15.6699C16.949 15.6269 17.012 15.5646 17.0559 15.4894C17.0998 15.4142 17.123 15.3286 17.1232 15.2415V11.9991L12.9632 14.3323C12.5105 14.5863 11.9758 14.6511 11.4756 14.5125C10.9754 14.3739 10.5502 14.0431 10.2929 13.5924C10.1665 13.3693 10.0855 13.1235 10.0545 12.8691C10.0235 12.6147 10.0432 12.3566 10.1123 12.1098C10.1815 11.863 10.2988 11.6323 10.4575 11.431C10.6161 11.2297 10.8131 11.0617 11.0369 10.9369L16.9883 7.59738C18.8011 6.58123 21.0439 7.88266 21.0439 9.95278V15.637C21.0432 16.2923 20.8688 16.9357 20.5385 17.5016C20.2082 18.0676 19.7338 18.5359 19.1637 18.8589L13.8519 21.877C13.2875 22.1975 12.6495 22.366 12.0005 22.366C11.3514 22.366 10.7134 22.1975 10.149 21.877L4.83724 18.8589C4.26703 18.536 3.79261 18.0677 3.46232 17.5017C3.13204 16.9357 2.95768 16.2923 2.95703 15.637V9.63133C2.95703 8.29948 3.67475 7.07039 4.83724 6.41022L11.0279 2.89151C11.4792 2.63502 12.0137 2.56739 12.5147 2.70338C13.0157 2.83938 13.4426 3.16795 13.7023 3.61745Z" fill="#FBBF24"/>
</g>
</svg>
