<svg width="24" height="25" viewBox="0 0 24 25" fill="none" xmlns="http://www.w3.org/2000/svg">
<path d="M12.717 3.03003L12.69 3.03503L12.252 3.12703L12.032 3.46103L12.072 3.87103L11.885 4.17803L11.926 4.23003C11.926 4.23003 11.989 4.30703 11.957 4.42603C11.941 4.48603 11.843 4.74403 11.752 4.96903C11.662 5.19403 11.576 5.39903 11.576 5.39903L11.559 5.44103L11.58 5.47903C11.5419 5.56081 11.5244 5.65065 11.5289 5.74075C11.5335 5.83085 11.5599 5.91848 11.606 5.99603C11.663 6.09603 11.641 6.19603 11.6 6.28303C11.5743 6.33678 11.5406 6.38633 11.5 6.43003L11.487 6.44503L11.34 6.87703L11.317 7.05903L11.346 7.12503L11.289 7.17003L10.985 8.11503L10.949 8.39803L10.852 8.79703L10.656 9.35703L10.606 9.65003L10.524 9.99203L10.406 10.262L10.322 10.418L10.17 10.878L10.059 11.368L10.551 11.717L11.401 11.594L11.985 10.828L12.265 10.057L12.447 9.20503L12.559 8.57503L12.625 8.23603L12.799 7.43003L12.852 6.95703L12.979 6.56703L13 6.23803L13.082 5.66203L13.119 5.18603L13.203 4.91203L13.258 4.28703L13.227 4.14103L13.346 3.77303L13.268 3.68003L13.298 3.51003L13.154 3.20003L12.717 3.03003ZM2.05904 5.94203L2.01904 5.96003L1.44404 6.18703L1.18604 6.47003L2.07904 7.61203L2.40504 7.64403L2.67204 8.09703L3.12904 8.26903L3.19804 8.42903L3.55504 8.71403L4.48704 9.39203L5.15104 9.82503L6.46304 10.88L6.57504 11.089L6.94004 11.29L7.40704 11.689L7.99504 12.206L8.09604 12.429L8.72104 12.472L9.37704 11.622L9.37104 11.017L7.63304 9.62203L6.36304 8.70003L5.11804 7.86203L4.16404 7.34703L4.10804 7.20703L3.04304 6.57903L2.63704 6.25503L2.05904 5.94203ZM19.971 11.47L19.819 11.604L19.586 11.542L18.627 11.682L18.157 11.573L18.177 11.704C18.061 11.639 17.937 11.655 17.834 11.669C17.729 11.683 17.647 11.688 17.602 11.663C17.478 11.594 17.341 11.629 17.241 11.667C17.171 11.693 17.151 11.71 17.121 11.727L16.858 11.577L16.485 11.743L16.085 11.703L15.665 11.685L15.215 11.765L14.963 11.702L14.346 11.769L14.02 11.685L13.98 11.733C13.98 11.733 13.953 11.769 13.918 11.796C13.9038 11.8069 13.888 11.8153 13.871 11.821C13.861 11.824 13.867 11.823 13.867 11.823C13.78 11.773 13.689 11.783 13.614 11.792C13.539 11.8 13.479 11.813 13.479 11.813L13.471 11.817L13.223 11.935L12.428 12.067L12.407 12.095C12.407 12.095 12.287 12.238 12.18 12.399C12.1281 12.4767 12.0836 12.559 12.047 12.645C12.0299 12.6843 12.0194 12.7263 12.016 12.769C12.0146 12.7936 12.0186 12.8181 12.0278 12.841C12.0369 12.8638 12.051 12.8843 12.069 12.901C12.067 12.9 12.079 12.921 12.08 12.966C12.0791 13.0213 12.072 13.0763 12.059 13.13C12.0411 13.2067 12.0184 13.2822 11.991 13.356L11.965 13.419L12.426 13.786L12.896 13.849L13.186 13.755L14.136 13.581L14.321 13.505L14.428 13.542L15.016 13.489L15.206 13.595L15.33 13.487L15.446 13.524L16.364 13.386L16.766 13.511L16.739 13.364C16.779 13.382 16.815 13.391 16.859 13.394C16.912 13.397 16.974 13.395 17.041 13.392C17.175 13.384 17.334 13.364 17.489 13.342C17.784 13.302 18.037 13.253 18.059 13.249L18.249 13.315L19.102 13.188L19.629 13.032L19.992 13.149L20.399 13.091L20.623 12.876L21.163 13.011L21.145 12.876C21.145 12.876 21.142 12.814 21.172 12.77C21.187 12.749 21.206 12.73 21.256 12.716C21.339 12.7003 21.4245 12.7037 21.506 12.726C21.782 12.784 21.956 12.749 22.063 12.683C22.1063 12.6564 22.143 12.6201 22.17 12.577C22.1825 12.5562 22.1925 12.5341 22.2 12.511L22.21 12.468L22.088 12.31L22.141 12.12L21.803 11.67L21.227 11.56L20.869 11.565L20.83 11.503L20.783 11.501C20.783 11.501 20.536 11.479 20.334 11.546C20.227 11.582 20.1 11.474 20.1 11.474L19.961 11.601L19.971 11.47ZM9.03004 13.617L8.99704 13.635L8.33904 13.985L8.10904 14.205L7.93604 14.561L8.13904 15.133L8.45804 15.428L8.76404 15.893L4.96204 19.051L4.84204 19.221L4.04404 19.836L3.71604 20.17L3.15704 20.592L3.06704 20.727L2.91504 21.172L3.30003 21.703L3.75904 21.393L3.96604 21.486L4.13204 21.287L4.23304 21.334L4.96204 20.762L5.20004 20.629L5.48704 20.561L5.83104 20.295L5.79104 20.245L5.99704 20.175L6.41304 19.816L6.68604 19.74L7.01404 19.516L7.15504 19.248L7.18604 19.227L7.29804 19.275L7.81804 18.729L8.35804 18.437L9.46004 17.514L9.91704 18.797L10.169 19.172L10.315 19.801L10.528 19.883L10.516 19.916L10.628 20.666L10.821 20.846L10.741 21.172L11.057 21.336C11.0458 21.3884 11.0514 21.443 11.073 21.492C11.099 21.559 11.145 21.639 11.221 21.746C11.385 21.976 11.59 22.036 11.743 22.023C11.8363 22.0146 11.9262 21.9837 12.005 21.933L12.028 21.918L12.214 21.473L11.958 20.082L11.733 18.99L11.458 18.398L11.264 17.846V17.844C11.264 17.842 11.213 17.689 11.159 17.508C11.1088 17.3484 11.0687 17.1857 11.039 17.021C11.0273 16.8915 10.9924 16.7652 10.936 16.648L10.934 16.645L10.792 16.344L10.982 16.166L11.54 15.518L11.62 14.789L10.932 14.027L10.448 14.223L10.069 14.629L9.48704 13.762L9.03004 13.617Z" fill="#F472B6"/>
</svg>
