<svg width="24" height="25" viewBox="0 0 24 25" fill="none" xmlns="http://www.w3.org/2000/svg">
<g clip-path="url(#clip0_803_997)">
<g clip-path="url(#clip1_803_997)">
<path fill-rule="evenodd" clip-rule="evenodd" d="M1.47779 10.2942C1.43335 10.2942 1.42224 10.271 1.44446 10.2362L1.67779 9.92314C1.70002 9.88836 1.75557 9.86517 1.80002 9.86517H5.76668C5.81113 9.86517 5.82224 9.89996 5.80002 9.93474L5.61113 10.2362C5.58891 10.271 5.53335 10.3058 5.50002 10.3058L1.47779 10.2942Z" fill="#F472B6"/>
<path fill-rule="evenodd" clip-rule="evenodd" d="M-0.19994 11.3609C-0.244385 11.3609 -0.255496 11.3377 -0.233274 11.3029L5.9709e-05 10.9899C0.0222819 10.9551 0.0778375 10.9319 0.122282 10.9319H5.18895C5.23339 10.9319 5.25562 10.9667 5.2445 11.0015L5.15562 11.2797C5.1445 11.3261 5.10006 11.3493 5.05562 11.3493L-0.19994 11.3609Z" fill="#F472B6"/>
<path fill-rule="evenodd" clip-rule="evenodd" d="M2.48902 12.4275C2.44458 12.4275 2.43347 12.3927 2.45569 12.358L2.61125 12.0681C2.63347 12.0333 2.67791 11.9985 2.72236 11.9985H4.94458C4.98902 11.9985 5.01125 12.0333 5.01125 12.0797L4.98902 12.358C4.98902 12.4043 4.94458 12.4391 4.91125 12.4391L2.48902 12.4275Z" fill="#F472B6"/>
<path fill-rule="evenodd" clip-rule="evenodd" d="M14.0222 10.0855C13.3222 10.271 12.8444 10.4101 12.1555 10.5956C11.9889 10.642 11.9778 10.6536 11.8333 10.4797C11.6666 10.2826 11.5444 10.155 11.3111 10.0391C10.6111 9.67968 9.93331 9.78403 9.29997 10.213C8.54442 10.7232 8.15553 11.4768 8.16664 12.4159C8.17775 13.3435 8.78886 14.1087 9.66664 14.2362C10.4222 14.3406 11.0555 14.0623 11.5555 13.471C11.6555 13.3435 11.7444 13.2043 11.8555 13.042C11.4555 13.042 10.9555 13.042 9.71109 13.042C9.47775 13.042 9.4222 12.8913 9.49997 12.6942C9.64442 12.3348 9.91109 11.7319 10.0666 11.4304C10.1 11.3608 10.1778 11.2449 10.3444 11.2449H14.3889C14.3666 11.5579 14.3666 11.871 14.3222 12.184C14.2 13.0188 13.9 13.784 13.4111 14.4565C12.6111 15.5579 11.5666 16.242 10.2444 16.4275C9.15553 16.5782 8.14442 16.3579 7.25553 15.6623C6.43331 15.013 5.96664 14.155 5.84442 13.0884C5.69997 11.8246 6.05553 10.6884 6.78886 9.69128C7.57775 8.61302 8.6222 7.92896 9.89997 7.68548C10.9444 7.48838 11.9444 7.61592 12.8444 8.2536C13.4333 8.65939 13.8555 9.21592 14.1333 9.88838C14.2 9.99273 14.1555 10.0507 14.0222 10.0855Z" fill="#F472B6"/>
<path d="M17.7 16.4971C16.6889 16.4739 15.7666 16.1724 14.9889 15.4768C14.3333 14.8855 13.9222 14.1319 13.7889 13.2391C13.5889 11.929 13.9333 10.7695 14.6889 9.73766C15.5 8.62461 16.4778 8.0449 17.8 7.80142C18.9333 7.59273 20 7.70867 20.9666 8.39273C21.8444 9.01881 22.3889 9.86519 22.5333 10.9782C22.7222 12.5435 22.2889 13.8188 21.2555 14.9087C20.5222 15.6855 19.6222 16.1724 18.5889 16.3927C18.2889 16.4507 17.9889 16.4623 17.7 16.4971ZM20.3444 11.813C20.3333 11.6623 20.3333 11.5464 20.3111 11.4304C20.1111 10.2826 19.1 9.63331 18.0444 9.88838C17.0111 10.1319 16.3444 10.8159 16.1 11.9058C15.9 12.8101 16.3222 13.7261 17.1222 14.0971C17.7333 14.3753 18.3444 14.3406 18.9333 14.0275C19.8111 13.5521 20.2889 12.8101 20.3444 11.813Z" fill="#F472B6"/>
</g>
</g>
<defs>
<clipPath id="clip0_803_997">
<rect width="24" height="24" fill="white" transform="translate(0 0.5)"/>
</clipPath>
<clipPath id="clip1_803_997">
<rect width="23" height="9.04348" fill="white" transform="translate(-0.322266 7.5)"/>
</clipPath>
</defs>
</svg>
