<svg width="24" height="25" viewBox="0 0 24 25" fill="none" xmlns="http://www.w3.org/2000/svg">
<g clip-path="url(#clip0_803_675)">
<g clip-path="url(#clip1_803_675)">
<path fill-rule="evenodd" clip-rule="evenodd" d="M1.47755 10.2942C1.43311 10.2942 1.42199 10.271 1.44422 10.2362L1.67755 9.92321C1.69977 9.88842 1.75533 9.86523 1.79977 9.86523H5.76644C5.81088 9.86523 5.82199 9.90002 5.79977 9.9348L5.61088 10.2362C5.58866 10.271 5.53311 10.3058 5.49977 10.3058L1.47755 10.2942Z" fill="#60A5FA"/>
<path fill-rule="evenodd" clip-rule="evenodd" d="M-0.200184 11.3609C-0.244629 11.3609 -0.25574 11.3377 -0.233518 11.3029L-0.000184432 10.9899C0.0220378 10.9551 0.0775933 10.9319 0.122038 10.9319H5.1887C5.23315 10.9319 5.25537 10.9667 5.24426 11.0015L5.15537 11.2797C5.14426 11.3261 5.09982 11.3493 5.05537 11.3493L-0.200184 11.3609Z" fill="#60A5FA"/>
<path fill-rule="evenodd" clip-rule="evenodd" d="M2.48878 12.4275C2.44434 12.4275 2.43322 12.3927 2.45545 12.358L2.611 12.0681C2.63322 12.0333 2.67767 11.9985 2.72211 11.9985H4.94434C4.98878 11.9985 5.011 12.0333 5.011 12.0797L4.98878 12.358C4.98878 12.4043 4.94434 12.4391 4.911 12.4391L2.48878 12.4275Z" fill="#60A5FA"/>
<path fill-rule="evenodd" clip-rule="evenodd" d="M14.022 10.0855C13.322 10.271 12.8442 10.4101 12.1553 10.5956C11.9886 10.642 11.9775 10.6536 11.8331 10.4797C11.6664 10.2826 11.5442 10.155 11.3108 10.0391C10.6108 9.67968 9.93306 9.78403 9.29973 10.213C8.54417 10.7232 8.15529 11.4768 8.1664 12.4159C8.17751 13.3435 8.78862 14.1087 9.6664 14.2362C10.422 14.3406 11.0553 14.0623 11.5553 13.471C11.6553 13.3435 11.7442 13.2043 11.8553 13.042C11.4553 13.042 10.9553 13.042 9.71084 13.042C9.47751 13.042 9.42195 12.8913 9.49973 12.6942C9.64417 12.3348 9.91084 11.7319 10.0664 11.4304C10.0997 11.3608 10.1775 11.2449 10.3442 11.2449H14.3886C14.3664 11.5579 14.3664 11.871 14.322 12.184C14.1997 13.0188 13.8997 13.784 13.4108 14.4565C12.6108 15.5579 11.5664 16.242 10.2442 16.4275C9.15529 16.5782 8.14417 16.3579 7.25529 15.6623C6.43306 15.013 5.9664 14.155 5.84417 13.0884C5.69973 11.8246 6.05529 10.6884 6.78862 9.69128C7.57751 8.61302 8.62195 7.92896 9.89973 7.68548C10.9442 7.48838 11.9442 7.61592 12.8442 8.2536C13.4331 8.65939 13.8553 9.21592 14.1331 9.88838C14.1997 9.99273 14.1553 10.0507 14.022 10.0855Z" fill="#60A5FA"/>
<path d="M17.6997 16.497C16.6886 16.4738 15.7664 16.1724 14.9886 15.4767C14.3331 14.8854 13.922 14.1318 13.7886 13.239C13.5886 11.9289 13.9331 10.7695 14.6886 9.73759C15.4997 8.62455 16.4775 8.04484 17.7997 7.80136C18.9331 7.59267 19.9997 7.70861 20.9664 8.39267C21.8442 9.01875 22.3886 9.86513 22.5331 10.9782C22.722 12.5434 22.2886 13.8188 21.2553 14.9086C20.522 15.6854 19.622 16.1724 18.5886 16.3927C18.2886 16.4506 17.9886 16.4622 17.6997 16.497ZM20.3442 11.813C20.3331 11.6622 20.3331 11.5463 20.3108 11.4303C20.1108 10.2825 19.0997 9.63325 18.0442 9.88832C17.0108 10.1318 16.3442 10.8159 16.0997 11.9057C15.8997 12.8101 16.322 13.726 17.122 14.097C17.7331 14.3753 18.3442 14.3405 18.9331 14.0274C19.8108 13.5521 20.2886 12.8101 20.3442 11.813Z" fill="#60A5FA"/>
</g>
</g>
<defs>
<clipPath id="clip0_803_675">
<rect width="24" height="24" fill="white" transform="translate(0 0.5)"/>
</clipPath>
<clipPath id="clip1_803_675">
<rect width="23" height="9.04348" fill="white" transform="translate(-0.32251 7.5)"/>
</clipPath>
</defs>
</svg>
