<svg width="24" height="25" viewBox="0 0 24 25" fill="none" xmlns="http://www.w3.org/2000/svg">
<path d="M10.8572 2.06097C8.22322 2.06097 6.10122 4.51397 6.10122 7.56297V12.163L6.07422 12.16V16.87C6.07422 19.92 8.19622 22.372 10.8302 22.372H13.1172C15.7512 22.372 17.8732 19.919 17.8732 16.87V12.27C17.8822 12.271 17.8912 12.272 17.9002 12.273V7.56297C17.9002 4.51397 15.7782 2.06097 13.1442 2.06097H10.8572Z" fill="#73CDDC"/>
<path d="M5.51461 3.48871L5.4957 3.52282C5.19442 4.06621 5.38325 4.76392 5.91746 5.0812L6.85033 5.63525C7.38454 5.95253 8.06182 5.76923 8.3631 5.22584L8.38201 5.19173C8.68328 4.64834 8.49445 3.95064 7.96024 3.63336L7.02737 3.0793C6.49317 2.76203 5.81588 2.94533 5.51461 3.48871Z" fill="#73CDDC"/>
<path d="M18.8267 3.76655L18.8218 3.7567C18.54 3.19185 17.855 2.96523 17.2919 3.25053L16.3071 3.74948C15.744 4.03478 15.516 4.72396 15.7978 5.28882L15.8027 5.29866C16.0846 5.86351 16.7695 6.09013 17.3326 5.80483L18.3174 5.30588C18.8806 5.02058 19.1086 4.3314 18.8267 3.76655Z" fill="#73CDDC"/>
<path d="M9.54912 7.54996C10.6835 7.54996 11.6031 6.63035 11.6031 5.49596C11.6031 4.36156 10.6835 3.44196 9.54912 3.44196C8.41472 3.44196 7.49512 4.36156 7.49512 5.49596C7.49512 6.63035 8.41472 7.54996 9.54912 7.54996Z" fill="white" stroke="#5E5D5B" stroke-width="0.1"/>
<path d="M14.4964 7.53598C15.6308 7.53598 16.5504 6.61637 16.5504 5.48198C16.5504 4.34759 15.6308 3.42798 14.4964 3.42798C13.362 3.42798 12.4424 4.34759 12.4424 5.48198C12.4424 6.61637 13.362 7.53598 14.4964 7.53598Z" fill="white" stroke="#5E5D5B" stroke-width="0.1"/>
<path d="M8.3213 6.31799C8.75871 6.31799 9.1133 5.9146 9.1133 5.41699C9.1133 4.91938 8.75871 4.51599 8.3213 4.51599C7.88389 4.51599 7.5293 4.91938 7.5293 5.41699C7.5293 5.9146 7.88389 6.31799 8.3213 6.31799Z" fill="#030D18"/>
<path d="M12.0741 9.922L12.8371 10.06C12.8424 10.1054 12.8451 10.1517 12.8451 10.198C12.8451 10.2886 12.8348 10.3783 12.8146 10.462C12.7943 10.5457 12.7647 10.6218 12.7272 10.6858C12.6898 10.7499 12.6454 10.8008 12.5964 10.8355C12.5475 10.8701 12.495 10.888 12.4421 10.888C12.3891 10.888 12.3366 10.8701 12.2877 10.8355C12.2388 10.8008 12.1943 10.7499 12.1569 10.6858C12.1195 10.6218 12.0898 10.5457 12.0696 10.462C12.0494 10.3783 12.039 10.2886 12.0391 10.198C12.0395 10.1029 12.0514 10.0089 12.0741 9.922Z" fill="white" stroke="white" stroke-width="0.155"/>
<path d="M8.7923 5.897C8.86851 5.897 8.9303 5.82268 8.9303 5.731C8.9303 5.63932 8.86851 5.565 8.7923 5.565C8.71608 5.565 8.6543 5.63932 8.6543 5.731C8.6543 5.82268 8.71608 5.897 8.7923 5.897Z" fill="white"/>
<path d="M13.2271 6.45599C13.6645 6.45599 14.0191 6.0526 14.0191 5.55499C14.0191 5.05738 13.6645 4.65399 13.2271 4.65399C12.7896 4.65399 12.4351 5.05738 12.4351 5.55499C12.4351 6.0526 12.7896 6.45599 13.2271 6.45599Z" fill="#030D18"/>
<path d="M13.6961 5.978C13.7723 5.978 13.8341 5.90368 13.8341 5.812C13.8341 5.72032 13.7723 5.646 13.6961 5.646C13.6199 5.646 13.5581 5.72032 13.5581 5.812C13.5581 5.90368 13.6199 5.978 13.6961 5.978Z" fill="white"/>
<path d="M6.68157 11.9098C6.43337 11.6077 5.87721 11.6544 5.43937 12.014C5.00152 12.3737 4.84779 12.9102 5.09599 13.2124C5.3442 13.5145 5.90035 13.4679 6.3382 13.1082C6.77605 12.7485 6.92978 12.212 6.68157 11.9098Z" fill="#F6D2A1"/>
<path d="M12.0541 9.91895L11.2971 10.0539C11.2917 10.098 11.2891 10.1429 11.2891 10.1879C11.289 10.2763 11.2993 10.3638 11.3193 10.4454C11.3394 10.5271 11.3689 10.6013 11.406 10.6638C11.4432 10.7263 11.4873 10.7759 11.5359 10.8097C11.5844 10.8435 11.6365 10.8609 11.6891 10.8609C11.7951 10.8609 11.8969 10.7901 11.9719 10.6641C12.0469 10.5381 12.0891 10.3672 12.0891 10.1889C12.0887 10.0958 12.0767 10.0039 12.0541 9.91895Z" fill="white" stroke="white" stroke-width="0.153"/>
<path d="M17.3197 11.9798C17.5676 11.6781 18.1235 11.725 18.5613 12.0847C18.9992 12.4444 19.1532 12.9806 18.9053 13.2823C18.6575 13.584 18.1016 13.537 17.6638 13.1773C17.2259 12.8176 17.0719 12.2815 17.3197 11.9798Z" fill="#F6D2A1"/>
<path d="M14.9166 21.7551C15.0623 21.3007 15.7324 21.0691 16.4132 21.2378C17.094 21.4065 17.5278 21.9116 17.382 22.366C17.2363 22.8204 16.5663 23.052 15.8854 22.8833C15.2046 22.7146 14.7708 22.2095 14.9166 21.7551Z" fill="#F6D2A1"/>
<path d="M9.15555 21.5312C9.26364 21.996 8.80739 22.5386 8.13648 22.7432C7.46558 22.9478 6.83408 22.7369 6.72599 22.2721C6.6179 21.8073 7.07415 21.2647 7.74505 21.0601C8.41596 20.8555 9.04746 21.0665 9.15555 21.5312Z" fill="#F6D2A1"/>
<path d="M10.9905 8.758C10.9122 8.75799 10.8347 8.77346 10.7625 8.8035C10.6902 8.83354 10.6246 8.87756 10.5694 8.93303C10.5142 8.98851 10.4705 9.05435 10.4408 9.12676C10.4112 9.19917 10.3961 9.27674 10.3965 9.355V9.47C10.3965 9.801 10.6615 10.068 10.9905 10.068H11.3765C11.467 9.99385 11.5753 9.93485 11.695 9.89448C11.8147 9.85412 11.9434 9.83321 12.0735 9.833C12.2037 9.83311 12.3326 9.85396 12.4525 9.89433C12.5724 9.9347 12.6809 9.99375 12.7715 10.068H13.1055C13.4355 10.068 13.7005 9.801 13.7005 9.47V9.356C13.7008 9.27769 13.6856 9.2001 13.6558 9.12768C13.626 9.05526 13.5822 8.98944 13.5269 8.93397C13.4717 8.87851 13.406 8.8345 13.3337 8.80448C13.2613 8.77445 13.1838 8.75899 13.1055 8.759L10.9905 8.758Z" fill="#F6D2A1" stroke="#657075" stroke-width="0.1"/>
<path d="M12.0161 9.24898C12.6833 9.24898 13.2241 8.94453 13.2241 8.56898C13.2241 8.19342 12.6833 7.88898 12.0161 7.88898C11.3489 7.88898 10.8081 8.19342 10.8081 8.56898C10.8081 8.94453 11.3489 9.24898 12.0161 9.24898Z" fill="#030D18" stroke="white" stroke-width="0.162"/>
</svg>
