<svg width="24" height="25" viewBox="0 0 24 25" fill="none" xmlns="http://www.w3.org/2000/svg">
<path d="M9.97694 3.12384C9.06781 3.32555 8.17005 3.60682 7.32768 4.03155C7.34757 4.7759 7.39445 5.489 7.49246 6.21204C7.16574 6.42086 6.82056 6.60126 6.51515 6.84701C6.20406 7.08566 5.88728 7.31436 5.60602 7.5942C5.03759 7.21592 4.44702 6.87201 3.83748 6.56433C3.17836 7.27458 2.56044 8.04166 2.05615 8.89965C2.43543 9.51332 2.83175 10.0886 3.25933 10.6341H3.27069V15.9014L3.2991 15.9028L6.52793 16.2139C6.60997 16.2218 6.68654 16.2585 6.74403 16.3175C6.80152 16.3766 6.83619 16.4541 6.84187 16.5363L6.9413 17.9611L9.75818 18.1614L9.9528 16.846C9.96504 16.7636 10.0065 16.6882 10.0696 16.6338C10.1327 16.5793 10.2132 16.5492 10.2966 16.5491H13.703C13.8748 16.5491 14.0211 16.6756 14.0467 16.846L14.2413 18.1614L17.0582 17.9611L17.1576 16.5363C17.1636 16.4542 17.1984 16.3768 17.2558 16.3179C17.3132 16.2589 17.3897 16.222 17.4716 16.2139L20.699 15.9028L20.7274 15.9014V15.4809H20.7288V10.6355H20.7402C21.1678 10.09 21.5641 9.51474 21.9434 8.90107C21.4359 8.06043 20.8386 7.27739 20.162 6.56575C19.5498 6.874 18.9546 7.22345 18.3935 7.5942C18.1122 7.31436 17.7955 7.08566 17.4844 6.84701C17.179 6.60126 16.8352 6.42228 16.5085 6.21204C16.6051 5.48758 16.6534 4.77448 16.6733 4.03155C15.8309 3.60682 14.9317 3.32697 14.0226 3.12384C13.6589 3.73324 13.3279 4.39378 13.0382 5.04011C12.6971 4.98582 12.3522 4.95827 12.0069 4.95773H11.9927C11.6473 4.95821 11.3024 4.98576 10.9614 5.04011C10.6716 4.39378 10.3406 3.73324 9.97694 3.12384ZM7.42286 10.8287C7.68275 10.8216 7.94144 10.8666 8.18364 10.9611C8.42584 11.0557 8.64664 11.1978 8.83302 11.379C9.01939 11.5603 9.16755 11.7771 9.26876 12.0166C9.36996 12.2561 9.42215 12.5134 9.42224 12.7734C9.42234 13.0334 9.37034 13.2907 9.26931 13.5303C9.16828 13.7699 9.02028 13.9867 8.83404 14.1682C8.6478 14.3496 8.42709 14.4918 8.18496 14.5865C7.94283 14.6812 7.68418 14.7264 7.42428 14.7195C6.91742 14.706 6.43585 14.4952 6.08207 14.132C5.72828 13.7688 5.53022 13.2818 5.53003 12.7748C5.52985 12.2678 5.72755 11.7807 6.08108 11.4172C6.4346 11.0537 6.91601 10.8426 7.42286 10.8287ZM16.5767 10.8287C17.0928 10.8287 17.5878 11.0337 17.9528 11.3987C18.3177 11.7637 18.5228 12.2587 18.5228 12.7748C18.5228 13.291 18.3177 13.786 17.9528 14.1509C17.5878 14.5159 17.0928 14.7209 16.5767 14.7209C16.0605 14.7209 15.5655 14.5159 15.2006 14.1509C14.8356 13.786 14.6306 13.291 14.6306 12.7748C14.6306 12.2587 14.8356 11.7637 15.2006 11.3987C15.5655 11.0337 16.0605 10.8287 16.5767 10.8287ZM11.9998 11.9665C12.3464 11.9665 12.6262 12.2222 12.6262 12.5362V14.3274C12.6262 14.6414 12.3449 14.8971 11.9998 14.8971C11.6532 14.8971 11.3733 14.6428 11.3733 14.3274V12.5362C11.3733 12.2208 11.6532 11.9665 11.9998 11.9665Z" fill="#81C784"/>
<path d="M17.8297 16.8787L17.7302 18.312C17.7246 18.3956 17.6888 18.4744 17.6295 18.5337C17.5702 18.593 17.4914 18.6288 17.4078 18.6344L13.9687 18.8788L13.9431 18.8802C13.8598 18.8801 13.7792 18.85 13.7162 18.7955C13.6531 18.7411 13.6116 18.6657 13.5994 18.5833L13.4034 17.2452H10.5964L10.399 18.5833C10.3863 18.6702 10.3411 18.749 10.2725 18.8038C10.204 18.8587 10.1172 18.8854 10.0296 18.8788L6.59056 18.633C6.50711 18.6268 6.42866 18.5908 6.36949 18.5316C6.31031 18.4725 6.27434 18.394 6.26811 18.3106L6.16867 16.8773L3.26514 16.5974L3.27082 17.319C3.27082 20.3859 7.16019 21.859 11.9928 21.876H12.0041C16.8367 21.859 20.7261 20.3859 20.7261 17.319L20.7318 16.5974L17.8297 16.8787Z" fill="#81C784"/>
</svg>
