<svg width="24" height="25" viewBox="0 0 24 25" fill="none" xmlns="http://www.w3.org/2000/svg">
<path d="M19.751 9.11819C18.772 8.56683 17.5417 9.28619 17.3445 9.40987L13.1178 11.8071C12.4938 11.3114 11.6047 11.3324 11.0048 11.8571C10.4049 12.3817 10.2656 13.26 10.6736 13.9446C11.0818 14.6291 11.9207 14.9243 12.6675 14.646C13.4143 14.3678 13.8556 13.5957 13.7164 12.8111L17.9314 10.4191L17.9571 10.4034C18.2342 10.2283 18.8771 9.96643 19.1776 10.1362C19.394 10.2581 19.5177 10.6665 19.5276 11.268H19.5224V16.5554C19.5219 16.7978 19.4579 17.0358 19.3367 17.2456C19.2154 17.4555 19.0413 17.6299 18.8316 17.7514L12.7724 21.2518C12.5624 21.3726 12.3243 21.4362 12.082 21.4362C11.8397 21.4362 11.6016 21.3726 11.3916 21.2518L5.33235 17.7513C5.12264 17.6298 4.94848 17.4554 4.82727 17.2456C4.70606 17.0357 4.64205 16.7977 4.64163 16.5553V9.55763C4.64243 9.06443 4.90563 8.60883 5.33235 8.36163L10.8163 5.19667C11.338 5.79523 12.2124 5.93667 12.8963 5.53315C13.5802 5.12963 13.8789 4.29571 13.6072 3.54963C13.3354 2.80347 12.5702 2.35731 11.7871 2.48803C11.0039 2.61891 10.4253 3.28963 10.4108 4.08355L4.75187 7.35059C4.36413 7.57423 4.04195 7.89583 3.81761 8.28317C3.59327 8.67052 3.47465 9.11001 3.47363 9.55763V16.5539C3.47405 17.0014 3.59197 17.4408 3.81558 17.8283C4.03918 18.2159 4.36065 18.5379 4.74779 18.7621L10.807 22.2625C11.1945 22.4854 11.6338 22.6027 12.0808 22.6027C12.5279 22.6027 12.9671 22.4854 13.3547 22.2625L19.4139 18.7621C19.8008 18.538 20.1221 18.2163 20.3457 17.8291C20.5692 17.4419 20.6873 17.0028 20.688 16.5557V11.4696H20.692C20.7219 10.2766 20.4028 9.48611 19.7511 9.11851L19.751 9.11819Z" fill="#14B8A6" stroke="#14B8A6" stroke-width="1.5"/>
</svg>
