<svg width="24" height="25" viewBox="0 0 24 25" fill="none" xmlns="http://www.w3.org/2000/svg">
<path d="M11.9302 2.36154C6.02631 2.4593 1.80417 7.35187 1.84825 12.3857C1.84795 12.3996 1.84619 12.4131 1.84619 12.427C1.84619 12.4976 1.85011 12.5665 1.85148 12.6366C1.85177 12.6448 1.85148 12.6529 1.85178 12.6612C1.85178 12.6627 1.85226 12.6643 1.85226 12.6659C1.98128 18.7532 6.9961 22.7625 12.0694 22.6371C18.1687 22.4677 22.4972 17.1697 22.1318 12.4406C22.1249 12.3667 22.1135 12.2934 22.0976 12.2209C21.9313 11.3815 21.1691 10.747 20.2773 10.747H17.6118C16.6019 10.747 15.7829 11.5609 15.7829 12.5648C15.7829 13.5688 16.6018 14.3825 17.6118 14.3825H18.2783C17.5418 16.7438 15.2148 18.9976 11.9825 19.0875C8.7436 19.1673 5.5032 16.5956 5.40916 12.6045C5.40907 12.5855 5.41044 12.5668 5.40965 12.5477C5.28436 9.40029 7.85912 6.08536 12.0768 5.90971C13.0538 5.86896 13.813 5.0418 13.7724 4.06201C13.7319 3.08232 12.9069 2.32098 11.9298 2.36173L11.9302 2.36154ZM12.0066 10.7469C11.0041 10.7469 10.1905 11.5619 10.1905 12.5672C10.1905 13.5726 11.0041 14.3877 12.0066 14.3877C13.0092 14.3877 13.8231 13.5727 13.8231 12.5672C13.8231 11.5619 13.0093 10.7469 12.0066 10.7469Z" fill="#14B8A6"/>
</svg>
