<svg width="24" height="24" viewBox="0 0 24 24" fill="none" xmlns="http://www.w3.org/2000/svg">
<path d="M12.0001 1.88C10.6712 1.88 9.35526 2.14177 8.1275 2.65036C6.89974 3.15895 5.78419 3.9044 4.84454 4.84414C3.90489 5.78389 3.15955 6.89952 2.65108 8.12732C2.14261 9.35513 1.88097 10.6711 1.8811 12C1.8811 14.6837 2.94721 17.2575 4.84489 19.1552C6.74257 21.0529 9.31638 22.119 12.0001 22.119C13.329 22.119 14.6449 21.8572 15.8727 21.3486C17.1005 20.8401 18.216 20.0946 19.1557 19.1549C20.0953 18.2151 20.8407 17.0995 21.3491 15.8717C21.8576 14.6439 22.1192 13.3279 22.1191 11.999C22.1186 9.31563 21.0522 6.74233 19.1546 4.84508C17.257 2.94784 14.6835 1.882 12.0001 1.882V1.88ZM13.2541 4.303C14.1641 4.303 14.9011 4.563 15.4671 5.083C16.0381 5.6 16.3241 6.27101 16.3241 7.096C16.3241 7.984 16.0051 8.768 15.3651 9.446C14.7251 10.122 13.9891 10.461 13.1581 10.461C12.6721 10.461 12.2681 10.341 11.9451 10.104C11.6281 9.866 11.4691 9.572 11.4691 9.223C11.4691 9.011 11.5291 8.824 11.6501 8.66C11.7771 8.496 11.9241 8.414 12.0881 8.414C12.2471 8.414 12.3261 8.506 12.3261 8.691C12.3261 8.855 12.3861 8.982 12.5081 9.072C12.6301 9.162 12.7691 9.207 12.9281 9.207C13.3511 9.207 13.7561 8.918 14.1431 8.342C14.5341 7.76 14.7301 7.14001 14.7301 6.479C14.7301 6.013 14.5791 5.635 14.2771 5.344C13.9761 5.048 13.5871 4.898 13.1111 4.898C12.3971 4.898 11.7051 5.21701 11.0331 5.85201C10.3671 6.486 9.8221 7.321 9.3981 8.35701C8.9811 9.38901 8.7711 10.372 8.7711 11.303C8.7711 12.16 8.9561 12.842 9.3261 13.35C9.6961 13.852 10.1891 14.104 10.8031 14.104C11.8401 14.104 12.8311 13.37 13.7771 11.904L15.2701 11.691C15.4551 11.665 15.5471 11.71 15.5471 11.826C15.5471 11.879 15.4751 12.106 15.3321 12.508C15.1891 12.91 14.9951 13.582 14.7461 14.524C15.5661 14.047 16.2011 13.52 16.6501 12.944V13.857C16.2901 14.275 15.6041 14.746 14.5881 15.27C14.3761 16.677 13.9061 17.762 13.1821 18.53C12.4571 19.302 11.6421 19.69 10.7381 19.69C10.3051 19.69 9.9641 19.588 9.7151 19.387C9.4721 19.186 9.3501 18.909 9.3501 18.555C9.3501 17.571 10.3051 16.615 12.2151 15.69C12.3953 15.0428 12.5907 14.4 12.8011 13.762C12.4681 14.243 11.9841 14.669 11.3501 15.039C10.7151 15.409 10.1251 15.594 9.5801 15.594C8.6911 15.594 7.9521 15.21 7.3601 14.444C6.7721 13.671 6.4791 12.695 6.4791 11.516C6.4791 10.273 6.8121 9.096 7.4791 7.984C8.12224 6.89166 9.0236 5.97383 10.1041 5.311C11.1881 4.639 12.2381 4.303 13.2541 4.303ZM12.0301 16.49C10.6551 17.177 9.9681 17.855 9.9681 18.521C9.9681 18.875 10.1371 19.054 10.4761 19.054C11.1421 19.054 11.6601 18.198 12.0301 16.49Z" fill="#60A5FA"/>
</svg>
