<svg width="24" height="24" viewBox="0 0 24 24" fill="none" xmlns="http://www.w3.org/2000/svg">
<path d="M4.88352 6.33757C4.88352 6.33757 5.26096 7.793 5.31472 8.27829C5.36872 8.76341 4.34448 9.84149 4.34448 10.3806C4.34448 10.9198 4.55976 11.8902 5.74592 12.3754C6.93208 12.8606 7.09368 14.1004 7.09368 14.8554C7.09368 15.61 6.66248 17.0655 6.66248 17.0655C6.66248 17.0655 6.39304 20.6773 7.84848 21.3242C9.30384 21.9711 8.98056 21.9711 9.30384 21.9711C9.6268 21.9711 11.9989 22.942 13.4006 22.5644C14.8025 22.1875 15.1794 21.756 15.1794 21.756C15.1794 21.756 16.5812 21.8638 17.012 20.6239C17.4435 19.3845 17.7126 16.7967 17.5508 15.6107C17.389 14.4247 17.1732 12.8617 18.1434 12.3223C19.1138 11.7836 20.1379 11.1363 19.9761 10.5975C19.8142 10.0587 18.9519 9.30373 18.9519 9.30373C18.9519 9.30373 18.7362 7.95653 18.8973 7.63293C19.0591 7.30989 20.0294 6.50077 19.49 5.90813C18.9513 5.31541 17.9803 5.31541 17.9803 5.31541L16.741 5.42261C16.741 5.42261 14.6394 3.53541 11.8898 3.64325C9.14208 3.75109 7.41664 5.42197 7.41664 5.42197C7.41664 5.42197 6.50032 5.09845 5.69168 5.42197C4.88256 5.74557 4.72144 5.42197 4.8832 6.33829L4.88352 6.33757Z" fill="#FBA919"/>
<path d="M9.8098 14.3642C9.8098 14.3642 8.7422 15.9965 7.95916 17.1549C7.83804 17.3341 8.7422 17.3465 8.7422 17.3465L9.80988 14.3641L9.8098 14.3642ZM10.318 10.9799C10.318 10.9799 9.99628 11.7827 9.81996 12.2083C9.6286 12.671 8.89908 12.9011 8.89908 12.9011C8.89908 12.9011 9.27732 12.5045 9.27732 11.4996C9.27732 11.0786 9.82148 10.9109 9.82148 10.9109L10.3181 10.9806L10.318 10.9799Z" fill="#E78724"/>
<path d="M9.99264 11.4336C9.99264 11.4336 9.33328 12.2184 8.10912 11.779C6.88464 11.3395 6.7592 9.76961 6.7592 9.33009C6.7592 8.89057 9.0824 9.76961 9.39632 9.95801C9.71024 10.1464 10.3066 10.8998 9.99264 11.4336ZM5.36824 3.04721C5.36824 3.04721 6.49832 2.82721 7.25176 3.42377C8.00552 4.02025 8.22496 4.49129 8.22496 4.49129L6.95504 5.49793C6.95504 5.49793 6.34144 5.21337 6.15296 4.39705C5.96472 3.58081 6.0904 3.20417 5.36824 3.04721Z" fill="#E78724"/>
<path d="M9.66318 9.16676C9.17646 8.47604 8.37462 8.17475 7.73438 8.12475C6.6427 8.03947 6.12438 8.4254 6.12438 8.4254C6.12438 8.4254 7.9123 8.50107 8.42758 9.17796C9.38694 10.4376 10.7865 10.54 11.0103 10.2633C10.7515 10.2762 10.4669 10.148 10.1621 9.85988C9.97174 9.67964 9.81742 9.38596 9.66302 9.16676H9.66318ZM6.64478 11.609C6.64478 11.609 4.66118 10.927 5.03806 10.2365C5.41486 9.54572 5.11502 9.16931 5.11502 9.16931C5.11502 9.16931 4.00726 9.99627 4.28942 10.8752C4.46302 11.4146 4.75406 11.8053 6.35206 12.554C7.11846 13.9774 6.5103 16.5403 6.54678 16.5521C6.6075 16.5718 7.62294 16.0502 7.55358 13.6524C7.53254 12.9157 7.47398 11.9112 6.64518 11.608L6.64478 11.609ZM9.24438 4.27571C8.41254 4.69835 7.27302 5.28675 7.27302 5.28675L7.7215 5.51107C7.67878 5.58051 7.65806 5.62188 7.65806 5.62188L8.1179 5.83115C8.1179 5.83115 9.24142 6.64524 9.93014 7.16852C9.70054 6.46172 9.0263 5.35115 9.0263 5.35115C9.0263 5.35115 8.83486 4.84091 9.24334 4.27563L9.24438 4.27571ZM12.0076 21.5011C9.45094 21.5011 8.58494 20.2032 8.58494 20.2032L8.98454 21.1761C9.13558 21.5972 10.7467 22.9068 12.0037 22.9068" fill="#E78724"/>
<path d="M8.86518 19.3261C8.86518 19.3261 9.10038 20.7637 10.0422 20.7637C10.8425 20.7637 11.0784 19.5493 11.0784 19.2984L8.86518 19.3261ZM7.29774 17.1581C7.38142 16.9277 7.67446 15.9963 7.76854 15.1488C7.88102 14.1336 7.8403 12.6489 7.8403 12.6489C7.8403 12.6489 7.58902 13.6221 7.36862 13.7794C7.14894 13.9362 6.74038 15.0036 6.74038 15.0036C6.74038 15.0036 6.52134 16.5925 6.41742 17.1266C6.70558 17.1844 6.94766 17.0146 7.2963 17.1581H7.29774ZM5.02334 10.8595C5.02334 10.8595 5.55678 10.671 5.71406 9.50958C5.87086 8.3479 5.5255 7.34326 5.5255 7.34326C5.5255 7.34326 5.55686 8.94438 5.36862 9.25846C5.18006 9.57222 5.02326 9.66646 4.80342 10.0748C4.5835 10.483 4.8975 10.7339 5.02334 10.8596V10.8595Z" fill="#E78724"/>
<path d="M5.66036 3.32193L5.55148 3.25281C5.23028 3.26377 5.66036 3.32193 5.66036 3.32193Z" fill="#FDC168"/>
<path d="M9.6789 3.93169C9.6789 3.93169 9.17666 3.84801 8.92538 3.47137C8.67418 3.09457 7.96266 2.34097 6.82834 2.33257C5.69426 2.32401 4.57202 2.63401 4.57202 2.63401L5.55154 3.25241C5.65522 3.24905 5.83634 3.25041 6.13594 3.26025C7.36522 3.30105 7.5545 4.51665 7.5545 4.51665L11.8875 3.92009" fill="#FBA919"/>
<path d="M10.0973 10.6475C10.0973 10.6475 9.51119 11.2335 8.61119 11.0451C7.71111 10.8567 7.16679 10.4591 7.12495 9.76826C7.08311 9.07754 7.31351 8.80554 7.31351 8.80554C7.31351 8.80554 8.31863 9.11994 8.80015 9.53834C9.28167 9.95738 9.63751 10.627 10.098 10.648L10.0973 10.6475Z" fill="white"/>
<path d="M9.38827 10.4384C9.38827 10.4384 8.88003 10.6705 8.31187 10.4813C7.56811 10.2333 7.51851 9.45972 7.51851 9.45972C7.51851 9.45972 7.06235 10.7987 8.34147 11.0564C9.36747 11.2631 9.97427 10.6686 9.97427 10.6686L9.38827 10.4384Z" fill="#C9C9C9"/>
<path d="M9.74908 3.64769C9.69436 2.49937 10.6357 1.58473 10.9619 1.54593C10.9799 1.74049 10.9437 2.49945 11.2697 2.73281C11.3647 2.11313 11.6857 1.42961 12.9533 0.981689C12.6818 1.70169 12.9171 2.30489 13.0291 2.58441C13.8947 1.79881 14.4779 1.92857 14.4779 1.92857C14.4779 1.92857 13.8764 2.96641 14.1117 3.64745C12.374 3.51113 9.75756 3.83201 9.74908 3.64769ZM6.06516 5.39673C5.6506 5.05273 5.95956 4.73353 5.92684 4.34273C5.90908 4.13481 5.89268 3.93857 5.82404 3.83025C5.44244 3.22785 4.5426 3.04505 4.5334 3.04313L4.11108 2.96041L4.39068 2.63321C4.42684 2.59081 5.5754 1.49521 7.35276 2.06881C8.59604 2.46985 9.51628 3.82937 9.55052 3.88441L8.92756 4.17745C8.92036 4.16585 8.19284 2.88793 7.12652 2.54409C6.26476 2.26585 5.47012 2.53049 5.1294 2.70393C5.49116 2.84841 5.96412 3.11145 6.24964 3.56153C6.38452 3.77393 6.40684 4.04169 6.4286 4.30073C6.45748 4.64377 6.48444 4.96761 6.73708 5.17729L6.06612 5.39673H6.06516ZM4.9578 10.4179C4.9578 10.4179 5.4802 9.77017 5.63492 8.50977C5.69572 8.01329 5.58772 7.03409 5.415 6.65737C5.44636 7.58361 5.211 8.50977 5.211 8.50977C5.211 8.50977 5.05244 10.2295 4.95836 10.4179H4.9578Z" fill="#463014"/>
<path d="M7.71279 4.74248C7.71247 4.7412 7.54511 4.00984 7.08127 3.64064C6.42671 3.12008 5.62767 3.39704 5.61991 3.39944L5.50415 3.04097C5.54295 3.02849 6.45663 2.74064 7.29799 3.33232C8.14455 3.92744 8.24655 4.4668 8.25511 4.5264L7.71303 4.74248H7.71279ZM6.59895 9.95336C6.59895 9.95336 6.32487 9.56105 6.37415 9.1296C6.39871 8.91648 6.49743 8.69784 6.67375 8.62024C7.00127 8.4768 7.14671 8.84784 7.14671 8.84784C7.14671 8.84784 6.68559 8.9616 6.59935 9.9536L6.59895 9.95336Z" fill="#463014"/>
<path d="M9.60789 10.5515C9.61933 10.5729 9.62517 10.5849 9.62517 10.5849C9.62517 10.5849 8.77037 11.2264 7.89445 10.5754C7.42541 10.2268 7.46981 9.36438 7.61341 8.99862C7.98701 9.0835 8.30381 9.23614 8.56869 9.41438C8.23405 9.11574 7.94101 8.89598 7.94181 8.89078L7.56141 8.78286L6.82205 8.52966C6.81253 8.58622 6.54285 9.85046 7.32125 10.7116C7.66637 11.0937 9.28389 11.9489 10.0519 10.4866L9.60789 10.553V10.5515Z" fill="#463014"/>
<path d="M9.52755 10.6456C10.0088 11.378 11.2231 10.9594 11.2022 10.185C11.2022 10.185 10.3908 10.6328 9.67411 9.80836C9.25555 9.32756 7.91443 8.00004 6.09595 8.44148C7.35179 8.71772 9.01435 9.86492 9.52755 10.6464V10.6456Z" fill="#463014"/>
<path d="M5.92608 12.7124C6.04184 12.7793 6.45008 13.2021 6.45032 13.8346C6.45032 14.1517 6.41872 15.7449 6.26176 16.7181C6.49792 16.8715 6.6624 16.9041 6.89744 17.0605C7.0152 15.9333 7.09952 14.2995 7.06016 13.64C7.01544 12.8882 6.61288 12.3836 6.23992 12.1685C6.12023 12.1002 5.99961 12.0336 5.87808 11.9687C5.23872 11.6232 4.5776 11.2658 4.5776 10.6555C4.5776 10.1782 4.76312 10.0289 4.95976 9.87057L4.98088 9.85345C5.11112 9.74809 5.25912 9.62865 5.34656 9.43249C5.58536 8.89617 5.62416 7.53009 5.34656 7.18321C5.20848 7.01025 4.83744 6.42881 4.944 6.03865C4.9848 5.88937 5.07888 5.77881 5.23144 5.70057C5.39328 5.61769 5.61168 5.57553 5.88072 5.57553C6.40896 5.57553 6.99512 5.73609 7.29696 5.83209C8.37712 6.17417 9.68016 7.16089 10.0538 7.45561L10.0722 7.46937L10.311 7.63577L10.1618 7.38521C10.1526 7.36937 9.20592 5.81241 7.51272 5.24137C7.18312 5.13017 6.53656 4.94409 5.90048 4.94409C5.52224 4.94409 5.20048 5.00985 4.946 5.14009C4.63616 5.29865 4.42632 5.55185 4.3388 5.87161C4.12504 6.65561 4.82168 7.52857 4.84536 7.55689C4.92696 7.70161 4.96112 8.75409 4.7736 9.17577C4.748 9.23361 4.6776 9.29089 4.58744 9.36321C4.55984 9.38561 4.52824 9.40929 4.49472 9.43425C4.23032 9.63361 3.83032 9.93553 3.83032 10.6308C3.83032 11.582 4.79536 12.0984 5.57024 12.5128C5.69784 12.5812 5.81888 12.6456 5.92872 12.7088L5.92608 12.7124Z" fill="#463014"/>
<path d="M6.06516 5.39678C5.6506 5.05278 5.95956 4.73358 5.92684 4.34278C5.90908 4.13486 5.89268 3.93862 5.82404 3.8303C5.44244 3.2279 4.5426 3.0451 4.5334 3.04318L4.11108 2.96046L4.39068 2.63326C4.42684 2.59086 5.5754 1.49526 7.35276 2.06886C8.59604 2.4699 9.51628 3.82942 9.55052 3.88446L8.92756 4.1775C8.92036 4.1659 8.19284 2.88798 7.12652 2.54414C6.26476 2.2659 5.47012 2.53054 5.1294 2.70398C5.49116 2.84846 5.96412 3.1115 6.24964 3.56158C6.38452 3.77398 6.40684 4.04174 6.4286 4.30078C6.45748 4.64382 6.48444 4.96766 6.73708 5.17734L6.06612 5.39678H6.06516Z" fill="#463014"/>
<path d="M6.05181 5.46726L6.02501 5.44502C5.71757 5.19046 5.77213 4.93854 5.82493 4.69582C5.84893 4.58398 5.87429 4.4675 5.86397 4.34846C5.84717 4.14846 5.83117 3.95966 5.77085 3.8643C5.40773 3.2907 4.52957 3.10718 4.52101 3.10518L3.99341 3.00126L4.34341 2.59278C4.34997 2.58558 5.08741 1.84094 6.33589 1.84094C6.67669 1.84094 7.02525 1.8975 7.37189 2.00998C8.66917 2.42838 9.59533 3.83798 9.60389 3.85182L9.64141 3.91166L8.90397 4.25902L8.87437 4.2123C8.79541 4.07742 8.09621 2.9243 7.10685 2.60526C6.86413 2.5263 6.60821 2.48686 6.34645 2.48686C5.87285 2.48686 5.48861 2.61646 5.28405 2.70262C5.62613 2.85654 6.03989 3.11574 6.30237 3.5295C6.44509 3.7551 6.46813 4.03006 6.49045 4.2959C6.51813 4.6267 6.54445 4.9379 6.77661 5.13062L6.86413 5.20294L6.05237 5.46934L6.05181 5.46726Z" fill="#463014"/>
<path d="M7.71279 4.74248C7.71247 4.7412 7.54511 4.00984 7.08127 3.64064C6.42671 3.12008 5.62767 3.39704 5.61991 3.39944L5.50415 3.04097C5.54295 3.02849 6.45663 2.74064 7.29799 3.33232C8.14455 3.92744 8.24655 4.4668 8.25511 4.5264L7.71303 4.74248H7.71279Z" fill="#463014"/>
<path d="M7.66729 4.82803L7.65096 4.75603C7.64928 4.74907 7.4852 4.04275 7.04136 3.68995C6.78856 3.48867 6.4836 3.38675 6.1356 3.38675C5.86392 3.38675 5.662 3.45187 5.64 3.45907L5.58 3.47947L5.4248 3.00123L5.48456 2.98219C5.5116 2.97363 5.75368 2.89795 6.09704 2.89795C6.5496 2.89795 6.9772 3.03083 7.33432 3.28211C8.20264 3.89251 8.30856 4.45635 8.31776 4.51883L8.32568 4.56811L7.6692 4.82995L7.66729 4.82803ZM6.1356 3.26099C6.50744 3.26099 6.84801 3.37539 7.11969 3.59147C7.51377 3.90531 7.69905 4.45915 7.75513 4.65787L8.18208 4.48763C8.14345 4.33683 7.97328 3.88443 7.26112 3.38379C6.92056 3.14435 6.52865 3.02307 6.09617 3.02307C5.85881 3.02307 5.67456 3.06083 5.58336 3.08387L5.66032 3.32203C5.81547 3.28133 5.97521 3.26081 6.1356 3.26099ZM10.0027 20.4186C9.81713 20.4186 9.62784 20.3514 9.49664 20.2378C9.39616 20.1511 9.05656 19.8391 8.90672 19.4569C8.8508 19.3139 8.86328 19.1997 8.94448 19.1173C9.0004 19.061 9.11648 18.9935 9.35201 18.9935L9.51961 18.9933C9.7196 18.9931 10.0557 18.9931 10.3432 18.9931H10.6188C10.7984 18.9931 10.9266 19.0319 11.0003 19.1075C11.095 19.2049 11.0648 19.3292 11.0385 19.3943C10.9924 19.5087 10.8017 19.8811 10.478 20.2265C10.3622 20.3508 10.1938 20.4192 10.0038 20.4192L10.0027 20.4186ZM10.1971 10.6883L9.52744 10.6452C9.52744 10.6452 9.69865 10.9471 9.80953 11.3374C9.93473 11.7787 9.69504 12.4241 9.69504 12.4241C9.69504 12.4241 10.588 11.4131 10.1971 10.6881V10.6883ZM9.36096 22.1868C6.9772 22.0035 6.13857 19.7511 6.13857 19.2819L6.76104 19.2822C6.76424 19.4854 7.39768 21.4122 9.40872 21.5667L9.36104 22.1877L9.36096 22.1868Z" fill="#463014"/>
<path d="M8.69156 18.1518C8.65436 17.9365 8.65052 17.7324 8.69596 17.5317C8.51476 17.3956 8.18972 17.3449 7.9458 17.2653C7.7458 17.139 6.72556 17.3942 5.98484 16.4983C5.05668 15.376 5.25204 14.7058 5.25204 14.7058C5.01396 14.9702 4.78372 14.8689 4.4206 16.1017C4.05748 17.3344 4.591 18.1935 5.58556 19.0559C6.05516 19.4631 6.71964 19.6308 7.2906 19.6953C7.09916 19.5032 7.61756 19.4834 7.97468 19.3499C7.9458 19.0611 7.9938 18.7816 8.20892 18.5559C8.33852 18.4197 8.50556 18.3389 8.67852 18.2737C8.68844 18.2513 8.69636 18.2309 8.70556 18.2093C8.69942 18.1894 8.69434 18.1692 8.69036 18.1488L8.69156 18.1518Z" fill="white"/>
<path d="M7.9705 19.3444C7.94994 19.2838 7.93434 19.222 7.91906 19.16C7.90258 19.0922 7.82034 18.9 7.9217 19.1194C7.89678 19.0642 7.8781 19.0064 7.86602 18.947C6.2557 18.945 4.85458 17.8394 5.12562 15.5146C4.91506 15.2347 4.6197 16.079 4.6197 16.079C4.6197 16.079 3.81394 18.42 5.89594 19.3272C6.58994 19.6298 7.20306 19.8467 7.34778 19.7592C7.64898 19.8204 7.92138 19.6104 8.0233 19.4722C8.00426 19.4298 7.98714 19.3874 7.97202 19.3442L7.9705 19.3444Z" fill="#C9C9C9"/>
<path d="M8.66264 17.8144C8.66504 17.618 8.7052 17.428 8.80008 17.2387C8.80664 17.2256 8.8144 17.2131 8.82144 17.2004C8.20184 17.1952 7.48808 17.1357 6.88032 16.8926C6.21264 16.6253 5.37712 15.7112 5.23312 14.6371C5.23312 14.6371 3.97544 15.6079 4.34512 17.6857C4.69176 19.6369 6.3244 20.2731 8.18672 20.3807C8.188 20.368 7.97752 19.9333 8.04392 19.6672C6.98688 19.7442 5.80408 19.3357 5.23376 18.3964C4.71152 17.5373 4.85816 16.0697 5.07264 15.8546C5.59688 17.5077 7.48152 17.8438 8.6636 17.8149L8.66264 17.8144Z" fill="#463014"/>
<path d="M8.85725 16.6309C8.52213 17.6143 7.83765 18.4101 7.83765 18.4101C7.83765 18.4101 8.77925 18.3667 8.83117 18.2002C8.86965 18.0773 9.68133 16.1775 9.99285 13.9514C9.69981 14.433 8.88589 16.5458 8.85725 16.6301V16.6309Z" fill="#463014"/>
<path d="M14.1913 14.3642C14.1913 14.3642 15.2585 15.9965 16.0419 17.1549C16.1631 17.3341 15.2586 17.3465 15.2586 17.3465L14.1913 14.3642ZM13.6829 10.9799C13.6829 10.9799 14.0048 11.7827 14.1808 12.2083C14.3722 12.671 15.1017 12.9011 15.1017 12.9011C15.1017 12.9011 14.7235 12.5045 14.7235 11.4996C14.7235 11.0786 14.1793 10.9109 14.1793 10.9109L13.6833 10.9806L13.6829 10.9799Z" fill="#E78724"/>
<path d="M14.0078 11.4336C14.0078 11.4336 14.6671 12.2184 15.8916 11.779C17.1161 11.3395 17.2416 9.76961 17.2416 9.33009C17.2416 8.89057 14.9184 9.76961 14.6044 9.95801C14.2903 10.1464 13.694 10.8998 14.0078 11.4336ZM18.6321 3.04721C18.6321 3.04721 17.5021 2.82721 16.7485 3.42377C15.9946 4.02025 15.7749 4.49129 15.7749 4.49129L17.0445 5.49785C17.0445 5.49785 17.6582 5.21337 17.8464 4.39705C18.0345 3.58081 17.9088 3.20417 18.6312 3.04721H18.6321Z" fill="#E78724"/>
<path d="M14.3381 9.16676C14.8247 8.47604 15.6263 8.17475 16.2668 8.12475C17.3585 8.03947 17.8765 8.4254 17.8765 8.4254C17.8765 8.4254 16.0886 8.50107 15.5733 9.17796C14.6138 10.4376 13.2148 10.54 12.9909 10.2633C13.2495 10.2762 13.5343 10.148 13.8389 9.85988C14.0289 9.67964 14.1836 9.38596 14.3375 9.16676H14.3381ZM17.3562 11.609C17.3562 11.609 19.3398 10.927 18.9631 10.2364C18.5864 9.54508 18.886 9.16884 18.886 9.16884C18.886 9.16884 19.994 9.99572 19.7114 10.8745C19.5379 11.414 19.2469 11.8047 17.6489 12.5532C16.8819 13.9768 17.4904 16.5396 17.4542 16.5514C17.393 16.5712 16.378 16.0496 16.447 13.6518C16.4681 12.9158 16.5267 11.9106 17.3555 11.6073L17.3562 11.609ZM14.7569 4.27571C15.4148 4.61102 16.0719 4.94803 16.7281 5.28675L16.2801 5.51107C16.3229 5.58051 16.3439 5.62188 16.3439 5.62188L15.8841 5.83115C15.8841 5.83115 14.7606 6.64524 14.0719 7.16852C14.3015 6.46172 14.9751 5.35115 14.9751 5.35115C14.9751 5.35115 15.1665 4.84091 14.758 4.27563L14.7569 4.27571ZM11.9937 21.5011C14.5499 21.5011 15.4159 20.2032 15.4159 20.2032L15.0166 21.1761C14.8656 21.5972 13.2544 22.9068 11.9975 22.9068" fill="#E78724"/>
<path d="M15.1359 19.3261C15.1359 19.3261 14.9005 20.7637 13.9589 20.7637C13.1586 20.7637 12.9229 19.5493 12.9229 19.2984L15.1359 19.3261ZM16.7033 17.1581C16.6196 16.9277 16.3266 15.9963 16.2323 15.1488C16.1194 14.1336 16.1608 12.6489 16.1608 12.6489C16.1608 12.6489 16.4121 13.6221 16.6315 13.7794C16.8515 13.9362 17.2595 15.0036 17.2595 15.0036C17.2595 15.0036 17.4781 16.5925 17.5821 17.1266C17.2942 17.1844 17.052 17.0146 16.7033 17.1581H16.7033ZM18.978 10.8595C18.978 10.8595 18.4441 10.671 18.2873 9.50958C18.1303 8.3479 18.4757 7.34326 18.4757 7.34326C18.4757 7.34326 18.4441 8.94438 18.6322 9.25846C18.8204 9.57238 18.9776 9.66646 19.1973 10.0748C19.417 10.4829 19.1025 10.7339 18.9776 10.8596L18.978 10.8595Z" fill="#E78724"/>
<path d="M18.3403 3.32193L18.4495 3.25281C18.7707 3.26377 18.3403 3.32193 18.3403 3.32193Z" fill="#FDC168"/>
<path d="M14.3223 3.93169C14.3223 3.93169 14.8247 3.84801 15.0758 3.47137C15.3271 3.09457 16.0388 2.34097 17.1731 2.33257C18.3073 2.32401 19.4294 2.63401 19.4294 2.63401L18.4499 3.25241C18.3462 3.24905 18.1651 3.25041 17.8652 3.26025C16.6361 3.30105 16.4468 4.51665 16.4468 4.51665L12.1145 3.92009" fill="#FBA919"/>
<path d="M13.9041 10.6475C13.9041 10.6475 14.4902 11.2335 15.3901 11.0451C16.2902 10.8567 16.8345 10.4591 16.8763 9.76826C16.9181 9.07754 16.688 8.80554 16.688 8.80554C16.688 8.80554 15.6832 9.11994 15.2018 9.53834C14.7205 9.95674 14.3647 10.627 13.9041 10.648V10.6475Z" fill="white"/>
<path d="M14.613 10.4384C14.613 10.4384 15.1215 10.6705 15.6895 10.4813C16.4335 10.2333 16.4829 9.45972 16.4829 9.45972C16.4829 9.45972 16.9389 10.7987 15.6597 11.0564C14.634 11.2631 14.0271 10.6686 14.0271 10.6686L14.613 10.4384Z" fill="#C9C9C9"/>
<path d="M17.9358 5.39678C18.3504 5.05278 18.0416 4.73358 18.0743 4.34278C18.0919 4.13486 18.1083 3.93862 18.1769 3.8303C18.5585 3.2279 19.4585 3.0451 19.4677 3.04318L19.8901 2.96046L19.6105 2.63326C19.5743 2.59086 18.4257 1.49526 16.6484 2.06886C15.4052 2.4699 14.4848 3.82942 14.4507 3.88446L15.0736 4.1775C15.0808 4.1659 15.8084 2.88798 16.8753 2.54414C17.7371 2.2659 18.5317 2.53054 18.8718 2.70398C18.51 2.84846 18.037 3.1115 17.7516 3.56158C17.6167 3.77398 17.5943 4.04174 17.5726 4.30078C17.5436 4.64382 17.516 4.96766 17.2634 5.17734L17.9338 5.39678H17.9358ZM19.0428 10.418C19.0428 10.418 18.5208 9.77022 18.366 8.50982C18.3052 8.01334 18.413 7.03414 18.5857 6.65742C18.5543 7.58366 18.79 8.50982 18.79 8.50982C18.79 8.50982 18.9488 10.2296 19.0428 10.418Z" fill="#463014"/>
<path d="M16.2886 4.74248C16.2889 4.7412 16.4563 4.00984 16.9203 3.64064C17.5747 3.12008 18.3739 3.39704 18.3813 3.39944L18.4977 3.04097C18.4589 3.02849 17.5456 2.74064 16.7036 3.33232C15.8564 3.92744 15.755 4.4668 15.7458 4.5264L16.2879 4.74248H16.2886ZM17.4025 9.95336C17.4025 9.95336 17.6765 9.56105 17.627 9.1296C17.6027 8.91648 17.5039 8.69784 17.3277 8.62024C17.0001 8.4768 16.8549 8.84784 16.8549 8.84784C16.8549 8.84784 17.3159 8.9616 17.4025 9.9536V9.95336Z" fill="#463014"/>
<path d="M14.3934 10.5515C14.3821 10.5729 14.3762 10.5849 14.3762 10.5849C14.3762 10.5849 15.2306 11.2264 16.1066 10.5754C16.5758 10.2268 16.5316 9.36438 16.3875 8.99862C16.0142 9.0835 15.6974 9.23614 15.4323 9.41438C15.7672 9.11574 16.0602 8.89598 16.0591 8.89078L16.4398 8.78286L17.1786 8.52966C17.1878 8.58622 17.4574 9.85046 16.6786 10.7116C16.3333 11.0937 14.7157 11.9489 13.948 10.4866L14.392 10.553L14.3934 10.5515Z" fill="#463014"/>
<path d="M14.473 10.6457C13.9917 11.3781 12.7778 10.9595 12.7989 10.1851C12.7989 10.1851 13.61 10.633 14.3267 9.80848C14.7452 9.32768 16.0865 8.00016 17.905 8.4416C16.6493 8.71784 14.9865 9.86504 14.473 10.6466V10.6457Z" fill="#463014"/>
<path d="M18.0751 12.7124C17.9594 12.7793 17.5508 13.2021 17.5508 13.8346C17.5506 14.1517 17.5823 15.7449 17.7394 16.7181C17.5032 16.8715 17.3387 16.9041 17.1037 17.0605C16.9859 15.9333 16.9013 14.2995 16.9409 13.64C16.9859 12.8882 17.3883 12.3836 17.7615 12.1685C17.8783 12.1013 18.0007 12.0351 18.1239 11.9687C18.7633 11.6232 19.4244 11.2658 19.4244 10.6555C19.4244 10.1782 19.2387 10.0289 19.0423 9.87057L19.0212 9.85345C18.891 9.74809 18.7431 9.62865 18.6559 9.43249C18.4171 8.89617 18.3776 7.53009 18.6552 7.18321C18.7934 7.01025 19.1644 6.42881 19.0579 6.03865C19.0171 5.88937 18.923 5.77881 18.7703 5.70057C18.6086 5.61769 18.3902 5.57553 18.1211 5.57553C17.5929 5.57553 17.0067 5.73609 16.7048 5.83209C15.6247 6.17417 14.3216 7.16089 13.9473 7.45561C13.9368 7.46345 13.9302 7.46873 13.9289 7.46937L13.6895 7.63577L13.8387 7.38521C13.848 7.36937 14.7946 5.81241 16.4878 5.24137C16.8174 5.13017 17.4639 4.94409 18.1 4.94409C18.4783 4.94409 18.7993 5.00985 19.0539 5.14009C19.3637 5.29865 19.5735 5.55185 19.6611 5.87161C19.8748 6.65561 19.1789 7.52857 19.1545 7.55689C19.0729 7.70161 19.0387 8.75409 19.2263 9.17577C19.2519 9.23361 19.3229 9.29089 19.4124 9.36321C19.4407 9.38561 19.4716 9.40929 19.5051 9.43425C19.7695 9.63361 20.1695 9.93553 20.1695 10.6308C20.1695 11.582 19.2051 12.0984 18.4303 12.5128C18.3033 12.5812 18.1816 12.6456 18.0724 12.7088L18.0751 12.7124Z" fill="#463014"/>
<path d="M16.9247 5.28477C16.7713 5.02485 16.379 4.52317 15.4747 4.08221C14.4657 3.59045 13.2978 3.34085 12.0031 3.34021V3.33997H11.9984V3.34061C10.7039 3.34125 9.53563 3.59125 8.52651 4.08261C7.62275 4.52405 7.23067 5.02525 7.07675 5.28509L7.01099 5.37261L7.78515 5.54485L7.80995 5.51397L7.82299 5.48541C7.83483 5.43405 7.93875 5.15781 8.80203 4.73685C9.72491 4.28677 10.8011 4.05861 12.001 4.05797C13.2008 4.05845 14.277 4.28669 15.1999 4.73685C16.0629 5.15781 16.1675 5.43405 16.1793 5.48525L16.1919 5.51373L16.2162 5.54469L16.9904 5.37229L16.9247 5.28525L16.9247 5.28477Z" fill="#463014"/>
<path d="M17.9358 5.39678C18.3504 5.05278 18.0416 4.73358 18.0743 4.34278C18.0919 4.13486 18.1083 3.93862 18.1769 3.8303C18.5585 3.2279 19.4585 3.0451 19.4677 3.04318L19.8901 2.96046L19.6105 2.63326C19.5743 2.59086 18.4257 1.49526 16.6484 2.06886C15.4052 2.4699 14.4848 3.82942 14.4507 3.88446L15.0736 4.1775C15.0808 4.1659 15.8084 2.88798 16.8753 2.54414C17.7371 2.2659 18.5317 2.53054 18.8718 2.70398C18.51 2.84846 18.037 3.1115 17.7516 3.56158C17.6167 3.77398 17.5943 4.04174 17.5726 4.30078C17.5436 4.64382 17.516 4.96766 17.2634 5.17734L17.9338 5.39678H17.9358Z" fill="#463014"/>
<path d="M17.1378 5.20139L17.225 5.12875C17.4572 4.93611 17.4832 4.62507 17.5112 4.29435C17.5338 4.02795 17.557 3.75299 17.6996 3.52739C17.9615 3.11363 18.3762 2.85507 18.7178 2.70051C18.5132 2.61363 18.129 2.48475 17.6551 2.48475C17.3932 2.48475 17.1379 2.52419 16.8949 2.60251C15.9056 2.92155 15.2066 4.07403 15.1274 4.20947L15.0978 4.25619L14.3604 3.90955L14.3979 3.84971C14.4067 3.83587 15.332 2.42619 16.6295 2.00779C16.9768 1.89531 17.3255 1.83875 17.6662 1.83875C18.9154 1.83875 19.6528 2.58339 19.6587 2.59067L20.0087 2.99979L19.4811 3.10307C19.4725 3.10443 18.5944 3.28859 18.2312 3.86219C18.1714 3.95755 18.1556 4.14635 18.1384 4.34635C18.1286 4.46539 18.1536 4.58115 18.178 4.69362C18.2306 4.93635 18.2852 5.18835 17.978 5.44291L17.9516 5.46459L17.14 5.19818L17.1378 5.20139Z" fill="#463014"/>
<path d="M16.2886 4.74248C16.2889 4.7412 16.4563 4.00984 16.9203 3.64064C17.5747 3.12008 18.3739 3.39704 18.3813 3.39944L18.4977 3.04097C18.4589 3.02849 17.5456 2.74064 16.7036 3.33232C15.8564 3.92744 15.755 4.4668 15.7458 4.5264L16.2879 4.74248H16.2886Z" fill="#463014"/>
<path d="M15.6774 4.56646L15.6846 4.51726C15.6939 4.45502 15.8 3.89102 16.6678 3.28094C17.025 3.03006 17.4532 2.89734 17.9052 2.89734C18.2485 2.89734 18.4906 2.97302 18.5176 2.98158L18.5775 3.00126L18.4223 3.4795L18.3623 3.45974C18.34 3.45254 18.138 3.38742 17.8671 3.38742C17.5191 3.38742 17.2144 3.49006 16.9619 3.69134C16.5185 4.04454 16.354 4.75038 16.3528 4.75766L16.3369 4.82998L15.6804 4.56814L15.6774 4.56646ZM18.3409 3.3219L18.4182 3.0839C18.327 3.0607 18.1424 3.0231 17.9051 3.0231C17.4727 3.0231 17.0807 3.14454 16.7401 3.3839C16.0279 3.88446 15.8577 4.33686 15.8191 4.48766L16.2464 4.65782C16.3024 4.45918 16.4875 3.90518 16.8816 3.5915C17.154 3.37534 17.494 3.2611 17.8656 3.2611C18.0795 3.2611 18.2518 3.2979 18.3413 3.3219H18.3409ZM13.5242 20.2262C13.2008 19.8804 13.0094 19.5082 12.9632 19.3939C12.9368 19.3288 12.9065 19.2047 13.0015 19.1071C13.0754 19.0317 13.2036 18.9929 13.3828 18.9929H13.659C13.9465 18.9929 14.2826 18.9929 14.4826 18.9936L14.6504 18.9942C14.8858 18.9942 15.0023 19.062 15.0576 19.1179C15.1392 19.2001 15.1516 19.3146 15.0956 19.458C14.9457 19.8401 14.6063 20.1526 14.5056 20.2388C14.374 20.3526 14.1852 20.4197 13.9998 20.4197C13.8096 20.4197 13.6412 20.3513 13.5255 20.2277L13.5242 20.2262ZM13.8042 10.6881L14.4736 10.6449C14.4736 10.6449 14.3025 10.9468 14.1917 11.3371C14.0661 11.7785 14.3061 12.4238 14.3061 12.4238C14.3061 12.4238 13.4128 11.4127 13.8036 10.6878L13.8042 10.6881Z" fill="#463014"/>
<path d="M12.0003 8.29719C11.5734 8.29719 11.0169 8.28551 10.5994 7.98535C10.5994 7.98535 11.1461 8.94391 11.9996 8.94391L12.0002 8.82263L12.001 8.94391C12.8546 8.94391 13.4014 7.98551 13.4014 7.98551C12.9838 8.28551 12.4268 8.29727 12.0003 8.29727V8.29719Z" fill="#E78724"/>
<path d="M13.1758 8.2926C12.7476 8.5518 12.3653 8.64156 12.0006 8.64956C11.6358 8.64156 11.2534 8.5518 10.8252 8.29268C10.8252 8.29268 11.4488 9.05372 11.9974 9.05964V9.06036H12.0005C12.0014 9.06036 12.0024 9.061 12.0035 9.061C12.5522 9.05508 13.1764 8.2946 13.1764 8.2946L13.1758 8.2926ZM14.6398 22.1875L14.592 21.5668C16.603 21.4123 17.2364 19.4853 17.2397 19.2825H17.8626C17.8633 19.7516 17.0239 22.0043 14.6407 22.1874L14.6398 22.1875Z" fill="#463014"/>
<path d="M15.3097 18.1518C15.347 17.9365 15.3506 17.7324 15.3053 17.5317C15.4867 17.3956 15.8115 17.3449 16.0554 17.2653C16.2549 17.139 17.2758 17.3942 18.0164 16.4983C18.9441 15.376 18.7485 14.7058 18.7485 14.7058C18.9866 14.9702 19.2169 14.8689 19.5798 16.1017C19.9429 17.3345 19.4091 18.1935 18.4147 19.0559C17.9451 19.4631 17.2808 19.6308 16.7096 19.6953C16.9009 19.5032 16.3833 19.4834 16.0261 19.3499C16.055 19.0611 16.007 18.7816 15.7919 18.5559C15.6629 18.4197 15.4959 18.3389 15.3229 18.2737C15.313 18.2513 15.3051 18.2309 15.2959 18.2093C15.3018 18.1895 15.3071 18.1698 15.3111 18.1488L15.3097 18.1518Z" fill="white"/>
<path d="M16.0301 19.3444C16.051 19.2838 16.0663 19.222 16.0816 19.16C16.0984 19.0922 16.1807 18.9 16.0792 19.1194C16.1041 19.0642 16.1228 19.0064 16.1348 18.947C17.7452 18.945 19.1463 17.8394 18.8754 15.5146C19.0862 15.2347 19.3816 16.079 19.3816 16.079C19.3816 16.079 20.1879 18.42 18.1056 19.3273C17.4119 19.6298 16.7988 19.8468 16.6541 19.7593C16.3525 19.8205 16.0805 19.6105 15.9788 19.4722C15.9978 19.4298 16.0156 19.3874 16.0308 19.3443L16.0301 19.3444Z" fill="#C9C9C9"/>
<path d="M15.3388 17.8144C15.3366 17.618 15.2963 17.428 15.2016 17.2387C15.195 17.2256 15.1872 17.2131 15.1802 17.2004C15.7999 17.1952 16.5136 17.1357 17.1214 16.8926C17.7894 16.6253 18.625 15.7112 18.7686 14.6371C18.7686 14.6371 20.0267 15.6079 19.657 17.6857C19.3097 19.6369 17.6772 20.2731 15.8151 20.3807C15.8141 20.368 16.0247 19.9333 15.9581 19.6672C17.0151 19.7442 18.1979 19.3357 18.7689 18.3964C19.2912 17.5373 19.1445 16.0697 18.93 15.8546C18.4064 17.5077 16.5212 17.8438 15.3391 17.8149L15.3388 17.8144Z" fill="#463014"/>
<path d="M16.0906 18.3037C15.8682 18.0633 15.4591 17.7765 14.516 17.7765L12.0045 17.775H11.9986C11.275 17.7756 9.48641 17.7766 9.48641 17.7766C8.54377 17.7766 8.13457 18.0633 7.91225 18.3037C7.58793 18.6537 7.53729 19.1406 7.76161 19.7493C8.35761 21.3692 9.19561 23.0149 11.9992 23.0173V23.0175H12.0025C12.0038 23.0175 12.0045 23.0181 12.0058 23.0181C14.8094 23.0162 15.6474 21.3704 16.2434 19.7501C16.4677 19.1417 16.417 18.6549 16.0927 18.3049L16.0906 18.3037ZM15.6541 19.6357C15.3701 20.4491 14.6069 22.4181 12.0006 22.4215C9.39417 22.4181 8.63121 20.4492 8.34713 19.6357C8.19009 19.1845 8.20201 18.8504 8.38393 18.6429C8.50833 18.5011 8.79377 18.3317 9.44433 18.3317L10.1241 18.3316C10.6255 18.3311 11.2551 18.3305 12.0008 18.3302C12.7461 18.3305 13.376 18.331 13.8774 18.3316L14.5568 18.3318C15.2076 18.3318 15.493 18.5009 15.6174 18.6422C15.7991 18.8495 15.8112 19.1837 15.6541 19.6349V19.6357Z" fill="#463014"/>
<path d="M15.1434 16.6309C15.4785 17.6143 16.1629 18.4101 16.1629 18.4101C16.1629 18.4101 15.2216 18.3667 15.1696 18.2002C15.1314 18.0773 14.3197 16.1775 14.0085 13.9514C14.3019 14.433 15.1157 16.5458 15.1445 16.6301L15.1434 16.6309Z" fill="#463014"/>
</svg>
