<svg width="24" height="25" viewBox="0 0 24 25" fill="none" xmlns="http://www.w3.org/2000/svg">
<path d="M8.56212 16.542C8.39513 14.8817 8.23513 13.2207 8.08212 11.559C8.08312 11.517 7.85612 11.483 7.57612 11.483H7.06812V9.54999H11.0341V5.79999L12.9051 4.67499C14.0451 3.98999 14.8831 3.54999 15.0491 3.54999C15.4491 3.54999 15.9151 4.05599 15.9151 4.48999C15.9151 4.67899 15.8581 4.91099 15.7881 5.00699C15.7181 5.10199 15.0661 5.53699 14.3381 5.97199L13.0171 6.76499L12.9891 8.15699L12.9601 9.54999H16.9321V11.483H15.9521L15.4581 16.466L14.9631 21.449H9.04712L8.56212 16.542Z" fill="#F87171"/>
</svg>
