<svg width="24" height="25" viewBox="0 0 24 25" fill="none" xmlns="http://www.w3.org/2000/svg">
<path d="M10.1781 13.3693V19.0454H7.45508V5.95453H10.1014V10.9595H10.2164C10.438 10.38 10.796 9.92612 11.2903 9.59799C11.7846 9.26561 12.4047 9.09942 13.1504 9.09942C13.8322 9.09942 14.4267 9.24856 14.9338 9.54686C15.4451 9.84089 15.8414 10.2649 16.1227 10.8189C16.4082 11.3686 16.5488 12.027 16.5446 12.794V19.0454H13.8216V13.2798C13.8258 12.6747 13.6724 12.2038 13.3613 11.8672C13.0545 11.5305 12.6241 11.3622 12.0701 11.3622C11.6994 11.3622 11.3713 11.441 11.0858 11.5987C10.8045 11.7564 10.5829 11.9865 10.421 12.289C10.2633 12.5873 10.1824 12.9474 10.1781 13.3693Z" fill="#60A5FA"/>
</svg>
