<svg width="24" height="25" viewBox="0 0 24 25" fill="none" xmlns="http://www.w3.org/2000/svg">
<path d="M6.0614 3.21758C5.08948 3.19326 3.88916 3.7015 3.88916 3.7015L7.8582 11.7527L5.75356 20.7503C7.67452 22.3747 9.79324 21.5977 9.79324 21.5977L10.7682 14.6353C10.8914 14.752 11.022 14.8589 11.1536 14.9576C11.5768 15.2573 12.0351 15.4863 12.4933 15.6626C12.9517 15.8389 13.4277 15.9799 13.9037 16.0857C14.2211 16.1562 14.5206 16.2091 14.8379 16.2444C14.6968 16.5617 14.6088 16.8965 14.6264 17.2668C14.6264 17.302 14.644 17.3372 14.6793 17.3548H14.6969C15.0318 17.5311 15.3844 17.6724 15.7721 17.7605C16.1424 17.8309 16.5479 17.8663 16.9357 17.8134C17.3412 17.7605 17.7466 17.6018 18.064 17.3374C18.3813 17.0729 18.6104 16.7203 18.7515 16.3502L18.7691 16.3325V16.315L18.8221 15.8391V15.8213C18.9984 15.7156 19.1746 15.6098 19.3509 15.4689C19.5624 15.2925 19.7564 15.0985 19.8973 14.8517C20.0384 14.6049 20.1265 14.3053 20.1088 14.0056C20.0912 13.7236 19.9853 13.4417 19.862 13.1949C19.7385 12.9481 19.58 12.7188 19.4037 12.5072C19.0511 12.1017 18.628 11.7669 18.1697 11.5025C17.7289 11.2205 17.2353 10.9911 16.7417 10.8325L16.5478 10.7795L16.3894 10.7267C16.2836 10.6915 16.1953 10.6386 16.1072 10.6033C15.9309 10.4976 15.8074 10.3917 15.7192 10.2507C15.543 9.9863 15.5254 9.58102 15.6136 9.1579C15.6312 9.05214 15.6665 8.9463 15.7018 8.84054C15.737 8.73478 15.7722 8.62894 15.8075 8.5055C15.8334 8.38864 15.8495 8.26983 15.8557 8.1503L18.2118 6.0887C18.0282 5.41078 15.994 4.70446 15.994 4.70446L9.94844 9.84598L6.45964 3.26382C6.33436 3.23558 6.20004 3.22126 6.06124 3.21782L6.0614 3.21758ZM14.7494 9.11862C14.7132 9.30702 14.6972 9.5055 14.6972 9.70422C14.7148 10.0039 14.8031 10.3391 14.9969 10.6212C15.1908 10.9032 15.4552 11.1147 15.7196 11.2381C15.8497 11.3032 15.9855 11.3563 16.1252 11.3968L16.3368 11.4496L16.513 11.4848C16.9714 11.6082 17.412 11.7845 17.8174 12.0137C18.2228 12.2429 18.6107 12.5249 18.928 12.8422C19.2454 13.1595 19.4922 13.565 19.5275 13.9705C19.5451 14.2525 19.5097 14.4641 19.4216 14.6403C19.3335 14.8342 19.1924 15.0105 19.0338 15.1691C18.9633 15.2397 18.8752 15.3101 18.8047 15.3629C18.8047 15.2043 18.7871 15.0457 18.7519 14.8871C18.7343 14.7989 18.7165 14.7285 18.6813 14.6403C18.6461 14.5698 18.6109 14.4817 18.5228 14.4289C18.5052 14.4289 18.4873 14.4288 18.4873 14.4464C18.3816 14.7108 18.2053 14.9401 18.0115 15.0987C17.8176 15.2573 17.5707 15.3278 17.324 15.3455C17.0772 15.3631 16.8126 15.3103 16.5482 15.2397C16.2837 15.1693 16.0195 15.0809 15.7551 14.9929L15.7196 14.9752C15.6668 14.9576 15.5965 14.9753 15.5612 15.0106C15.4203 15.1869 15.3144 15.3453 15.191 15.5217C15.108 15.653 15.0315 15.7884 14.9619 15.9273C14.6445 15.8038 14.3447 15.698 14.0275 15.5746C13.5867 15.3983 13.1459 15.2221 12.7405 15.0106C12.3174 14.8167 11.9122 14.5874 11.5596 14.3229C11.3054 14.1323 11.0705 13.9321 10.8992 13.7032L11.0932 12.3177L14.7494 9.11862Z" fill="#EA580C"/>
</svg>
