<svg width="24" height="24" viewBox="0 0 24 24" fill="none" xmlns="http://www.w3.org/2000/svg">
<path fill-rule="evenodd" clip-rule="evenodd" d="M8.52797 11.121C5.77397 11.121 4.32597 14.599 2.73497 14.599C1.75497 14.599 1.60797 13.923 1.60797 13.685C1.60797 13.353 1.84497 12.979 2.17297 12.979C2.76297 12.979 2.58697 13.749 2.58697 13.749C2.58697 13.749 3.38497 13.194 2.85897 12.451C2.43797 11.856 1.54897 11.828 0.938974 12.281C0.320974 12.739 -0.118026 13.427 0.0859739 14.568C0.185974 15.119 0.553974 15.918 1.31897 16.373C2.08297 16.829 3.24397 16.94 3.65397 16.94C5.84797 16.94 7.99597 15.307 10.292 14.618C10.7787 14.4754 11.2828 14.4007 11.79 14.396C12.4378 14.37 13.0857 14.4459 13.71 14.621C16.006 15.31 18.154 16.945 20.348 16.945C20.758 16.945 21.918 16.834 22.683 16.378C23.448 15.923 23.815 15.123 23.913 14.571C24.118 13.431 23.679 12.742 23.061 12.284C22.451 11.831 21.564 11.861 21.143 12.456C20.617 13.199 21.413 13.753 21.413 13.753C21.413 13.753 21.237 12.983 21.827 12.983C22.156 12.983 22.392 13.356 22.392 13.688C22.392 13.927 22.245 14.603 21.265 14.603C19.675 14.603 18.225 11.124 15.472 11.124C12.907 11.124 12.396 12.301 12.01 12.842C12.006 12.847 12.005 12.853 12.002 12.859C11.997 12.852 11.995 12.845 11.99 12.839C11.604 12.298 11.094 11.121 8.52797 11.121Z" fill="#F87171"/>
</svg>
