<svg width="24" height="24" viewBox="0 0 24 24" fill="none" xmlns="http://www.w3.org/2000/svg">
<path d="M4.74951 11.9987L11.9987 4.74951L19.248 11.9987L11.9988 19.2479L4.74951 11.9987Z" fill="#F68712"/>
<path d="M4.75169 12.0043L3.42541 7.05444L2.09912 2.10461L7.04884 3.4309L11.9988 4.75719L8.37524 8.38073L4.75169 12.0043Z" fill="#FAB20B"/>
<path d="M11.9697 4.74917L7.03375 3.42974L2.09912 2.10437L4.71935 2.12551L7.37398 2.15911L9.68975 3.4574L11.9697 4.74917Z" fill="#FBC707"/>
<path d="M2.09912 2.10486L3.42449 7.03937L4.74381 11.9754L3.45204 9.6956L2.15375 7.37983L2.12015 4.72509L2.09912 2.10486Z" fill="#FFF200"/>
<path d="M12 4.75194L16.9497 3.42565L21.8997 2.09937L20.5734 7.04919L19.2471 11.999L15.6235 8.37548L12 4.75194Z" fill="#F47216"/>
<path d="M19.2561 11.9698L20.5755 7.03376L21.901 2.09924L21.8799 4.71947L21.8463 7.3741L20.548 9.68999L19.2561 11.9698Z" fill="#F1471D"/>
<path d="M21.9004 2.09888L16.966 3.42425L12.03 4.74356L14.3098 3.45179L16.6256 2.15351L19.2802 2.12002L21.9004 2.09888Z" fill="#FBC707"/>
<path d="M19.2478 11.9985L20.5741 16.9484L21.9004 21.8982L16.9506 20.5719L12.0007 19.2456L15.6243 15.6221L19.2478 11.9985Z" fill="#F25C19"/>
<path d="M12.0298 19.2537L16.9658 20.573L21.9003 21.8983L19.2801 21.8772L16.6253 21.8436L14.3096 20.5453L12.0298 19.2537Z" fill="#F68712"/>
<path d="M21.9007 21.8991L20.5753 16.9646L19.2559 12.0286L20.5477 14.3083L21.846 16.6241L21.8795 19.2789L21.9007 21.8991Z" fill="#F1471D"/>
<path d="M11.9989 19.2482L7.04919 20.5745L2.09937 21.9008L3.42565 16.9509L4.75194 12.0011L8.37548 15.6246L11.9989 19.2482Z" fill="#F89C0E"/>
<path d="M4.74392 12.0309L3.42449 16.9669L2.09912 21.9013L2.12026 19.2811L2.15386 16.6264L3.45215 14.3105L4.74392 12.0309Z" fill="#FFF200"/>
<path d="M2.09912 21.9005L7.03352 20.5751L11.9695 19.2557L9.68986 20.5475L7.37398 21.8458L4.71935 21.8793L2.09912 21.9005Z" fill="#F25C19"/>
</svg>
