<svg width="21" height="21" viewBox="0 0 21 21" fill="none" xmlns="http://www.w3.org/2000/svg">
<path d="M19.4494 14.5458L17.4264 10.4976L19.449 6.45474L19.4997 6.35334V6.23997V1.98002V1.5H19.0197H14.7597H14.6465L14.5452 1.55059L10.4998 3.57134L6.45433 1.55059L6.35305 1.5H6.23984H1.98H1.5V1.98002V6.23997V6.35334L1.55072 6.45474L3.57327 10.4977L1.55062 14.5458L1.5 14.6471V14.7604V19.02V19.5H1.98H6.23984H6.35325L6.45467 19.4492L10.4998 17.4246L14.5448 19.4492L14.6463 19.5H14.7597H19.02H19.5V19.02L19.5 14.7604V14.6471L19.4494 14.5458ZM16.494 10.1038L10.8972 4.50533L18.3603 2.64169L16.494 10.1038ZM4.50553 10.1012L2.63975 2.6417L10.1039 4.50569L4.50553 10.1012ZM4.50528 10.8953L10.1021 16.4923L2.6397 18.3561L4.50528 10.8953ZM16.494 10.8954L18.3602 18.3561L10.8975 16.4923L16.494 10.8954Z" fill="#A855F7"/>
</svg>
