<svg width="24" height="24" viewBox="0 0 24 24" fill="none" xmlns="http://www.w3.org/2000/svg">
<path d="M19.6518 1.93298H4.34911C3.29278 1.93298 2.43628 2.74456 2.43628 3.74514V20.2556C2.43628 21.2563 3.29295 22.0677 4.34911 22.0677H19.6514C20.7078 22.0677 21.5643 21.2561 21.5643 20.2556V3.7453C21.5643 2.74456 20.7076 1.93314 19.6514 1.93314L19.6518 1.93298ZM7.21845 19.0475V15.0206L9.60945 17.034L7.21845 19.0475ZM14.6571 19.0475V13.0349C14.6468 12.5648 14.4079 12.0004 13.3288 12.0004C11.1678 12.0004 8.74378 13.03 8.71978 13.0402L7.21845 13.6848V4.95319H9.34378V10.6691C10.4048 10.342 11.8881 9.98688 13.3288 9.98688C14.6424 9.98688 15.4288 10.4762 15.8571 10.8867C16.7713 11.7626 16.7838 12.8782 16.7824 13.0071V19.0475H14.6571ZM15.1884 8.22509H13.0631C13.8984 7.18693 14.4228 6.0943 14.6571 4.95319H16.7824C16.6391 6.09683 16.1496 7.19325 15.1884 8.22509Z" fill="#A855F7"/>
</svg>
