<svg width="24" height="24" viewBox="0 0 24 24" fill="none" xmlns="http://www.w3.org/2000/svg">
<path d="M19.0553 7.84125C18.9475 7.96196 18.8499 8.0914 18.7636 8.22825C18.7711 9.411 18.7876 11.7142 18.7958 12.042C18.8423 14.0378 18.1411 15.747 16.6508 17.265C16.4446 17.475 16.2308 17.67 16.0103 17.865C16.2136 17.685 15.5356 18.327 14.4226 19.0665C13.626 19.5689 12.791 19.9918 11.9273 20.3302C10.0786 19.593 8.54557 18.5887 7.24732 17.265C7.01182 17.025 6.79732 16.7805 6.60157 16.5308L6.59407 16.5203C6.33707 16.1951 6.10618 15.8455 5.90407 15.4755L5.90782 15.4725L5.61607 15.0285C4.77356 14.8352 4.03961 14.321 3.57007 13.5953C3.63007 13.9905 3.71482 14.3768 3.82807 14.754C4.04332 15.429 4.11532 15.5647 4.48807 16.3215C4.89907 17.0715 5.43382 17.784 6.09982 18.462C7.63282 20.025 9.44707 21.189 11.6468 22.0192L11.9273 22.125L12.2078 22.0192C14.4533 21.171 16.2826 20.007 17.7983 18.462C19.6261 16.599 20.4863 14.4862 20.4271 12.0023C20.4218 11.7682 20.4173 8.48775 20.4136 5.625C20.3306 5.84684 20.2391 6.06454 20.1391 6.2775C19.8901 6.801 19.5061 7.332 19.0553 7.84125Z" fill="#F59E0B"/>
<path d="M20.4271 1.875V3.0045L20.4286 3.0765V3.459L20.4301 4.76025L20.4226 4.7865C20.3266 5.079 20.2358 5.358 20.2201 5.4015L20.1848 5.496C20.0696 5.81296 19.939 6.12409 19.7933 6.42825L19.7641 6.48675C19.5241 6.95325 19.1746 7.41675 18.7861 7.82325L18.7411 7.87275C18.7118 7.90581 18.6818 7.93807 18.6511 7.9695L18.6008 8.022C18.1486 8.49 17.6633 8.9205 17.0873 9.2385L16.9921 9.291C16.7671 9.417 16.5436 9.54375 16.3118 9.65325L16.2938 9.66075C16.0688 9.768 16.0508 9.76875 16.0501 10.0057V17.1622L16.0216 17.1847C15.5234 17.6118 15.0052 18.0091 14.4691 18.375V10.9762C14.4661 10.872 14.4563 10.7655 14.4481 10.6163L14.4166 10.629C14.3041 10.6785 14.2186 10.7085 14.1406 10.7528L13.5616 11.0828C13.1746 11.304 12.7898 11.5253 12.4028 11.7443L11.8096 12.0795C11.2148 12.4133 10.6193 12.7455 10.0276 13.083L10.0223 13.086C9.86857 13.173 9.05182 13.6425 8.04007 14.2238L8.03857 14.217L7.98457 14.2515C7.82119 14.3517 7.64836 14.4356 7.46857 14.502L7.46332 14.5043H7.46107L7.40707 14.523C7.11421 14.6239 6.80704 14.677 6.49732 14.6805H6.37732C6.21558 14.676 6.05437 14.6579 5.89507 14.6265L5.85607 14.6182L5.81782 14.6085L5.75407 14.5935C5.64831 14.5662 5.5437 14.5337 5.44057 14.496L5.40307 14.4825L5.36482 14.4675L5.33032 14.4555C4.26907 14.0265 3.57007 13.0192 3.57007 11.8155V11.7645L3.57457 11.6625V11.6137H3.57832L3.58132 11.5725C3.62507 11.0734 3.79893 10.5944 4.08555 10.1834C4.37217 9.77244 4.76154 9.44379 5.21482 9.23025L5.26132 9.20775C5.63118 9.04188 6.02579 8.95487 6.42457 8.95125H6.44332L6.46207 8.9505H6.50707C6.95496 8.95702 7.39526 9.06721 7.79344 9.27241C8.19162 9.47762 8.53685 9.77226 8.80207 10.1332L8.82457 10.158C8.87332 10.2157 8.91532 10.2803 8.94607 10.35L8.97082 10.3897L8.99407 10.431L8.98057 10.4377L8.98957 10.4662C9.00851 10.5353 9.01812 10.6071 9.01807 10.6793V10.7017C9.01105 10.9124 8.92221 11.112 8.77041 11.2582C8.61861 11.4044 8.41581 11.4856 8.20507 11.4847H8.17657C8.05058 11.4826 7.92666 11.4489 7.81397 11.3861C7.70128 11.3234 7.60271 11.2333 7.52557 11.1225L7.51732 11.1255L7.49932 11.0992C7.29837 10.8223 7.01162 10.6388 6.69532 10.5848L6.65782 10.5772C6.59296 10.5672 6.52755 10.5622 6.46207 10.5623H6.43282C6.13904 10.5683 5.85657 10.6766 5.63409 10.8685C5.41161 11.0605 5.26307 11.324 5.21407 11.6137L5.20882 11.6542C5.20538 11.6819 5.20288 11.7097 5.20132 11.7375L5.19982 11.8778L5.20132 11.9055C5.22574 12.2226 5.3692 12.5188 5.6029 12.7345C5.8366 12.9503 6.14325 13.0697 6.46132 13.0687H6.50407C6.62685 13.064 6.74859 13.0418 6.86632 13.0028L6.87157 13.0005L6.87682 12.9982C7.10632 12.9007 11.6011 10.3988 11.8696 10.2472L11.8628 10.2443C11.7166 10.1813 10.4753 9.798 9.96982 9.53925L9.89632 9.5025C9.19914 9.14476 8.56505 8.67559 8.01907 8.1135L7.96207 8.05275C7.51145 7.58151 7.12197 7.04285 6.80482 6.45225L6.79582 6.435C6.72457 6.3105 6.63082 6.252 6.47032 6.25425H6.45682L5.97232 6.25575H5.50507L5.48032 6.2565H5.19532V7.48125C5.18849 7.68843 5.10116 7.88479 4.95187 8.02861C4.80259 8.17244 4.60311 8.25239 4.39582 8.2515H4.34857C4.14131 8.24642 3.94422 8.16065 3.79924 8.01245C3.65426 7.86425 3.57284 7.66532 3.57232 7.458V1.875H20.4271ZM18.8026 3.48375H5.19532V4.6905H5.21932V4.69275H7.51357C7.74907 4.69425 7.74907 4.70775 7.84657 4.95525L7.86907 5.01375C8.30782 6.10275 8.96632 7.02075 9.94882 7.7055L10.0148 7.7505C10.4491 8.03807 10.9171 8.27107 11.4083 8.44425L11.4728 8.4675C12.1703 8.7105 12.8828 8.78175 13.6118 8.745L13.6838 8.74125C14.1636 8.71196 14.6381 8.61545 15.0961 8.454L15.1771 8.424C15.5536 8.28675 15.9121 8.124 16.2563 7.91925L16.3201 7.881C16.7336 7.62242 17.116 7.30639 17.4578 6.9405L17.5051 6.891C17.8455 6.53371 18.1339 6.11977 18.3601 5.664L18.4051 5.5725C18.5371 5.2995 18.6676 5.031 18.7996 4.7325V4.71225L18.8041 3.48375H18.8026ZM13.2481 4.7475H13.4438C15.0083 4.74975 16.5143 4.76475 16.6441 4.79625L16.6291 4.84875C16.4854 5.3132 16.2478 5.73478 15.9346 6.081L15.9008 6.11925C15.5904 6.47094 15.2136 6.75775 14.7919 6.96319C14.3702 7.16862 13.9121 7.28861 13.4438 7.31625L13.3913 7.31925C11.6513 7.41525 10.0853 6.17175 9.81382 4.79625C9.91132 4.76775 11.2126 4.752 12.6533 4.749H12.9008L13.0486 4.74825L13.2481 4.7475Z" fill="#F59E0B"/>
</svg>
