<svg width="24" height="24" viewBox="0 0 24 24" fill="none" xmlns="http://www.w3.org/2000/svg">
<path d="M13.0831 2.93695C14.0861 3.33695 14.4831 4.91694 13.9581 6.47594C13.4391 8.02794 12.2131 8.97295 11.2061 8.57995C10.2061 8.19095 9.8021 6.60794 10.3181 5.04395C10.8301 3.48695 12.0711 2.55095 13.0831 2.93695ZM18.6931 6.17595C19.5411 6.86395 19.3431 8.40295 18.2671 9.63295C17.1621 10.8579 15.5971 11.3029 14.7531 10.6279C13.9001 9.94795 14.1061 8.41294 15.1981 7.19195C16.2881 5.95795 17.8521 5.51195 18.6931 6.17595ZM6.8011 4.12195C7.9181 4.25395 8.7311 5.65495 8.6641 7.23795C8.5441 8.82195 7.5891 10.0069 6.4801 9.87894C5.3721 9.75195 4.5621 8.36395 4.6531 6.77395C4.7451 5.18395 5.7211 4.00095 6.8011 4.12195ZM20.9251 12.2769C21.5711 13.1519 21.0351 14.5889 19.7031 15.4629C18.3711 16.3369 16.7651 16.3299 16.1001 15.4329C15.4361 14.5369 15.9841 13.1169 17.2961 12.2209C18.6341 11.3719 20.2531 11.3759 20.9261 12.2769M14.7311 19.9789C14.3371 20.7349 13.3011 21.2239 12.4491 21.1409C10.6731 20.9729 9.7791 18.6789 8.2191 17.7769C6.6571 16.8759 4.1761 17.2949 3.1991 15.7999C2.6351 14.9619 2.6831 13.6299 3.2741 12.8409C4.0901 11.7529 5.8571 11.9369 7.1831 11.5609C8.9281 11.0939 10.9131 9.46795 12.4911 10.3779C14.0601 11.2839 13.7091 13.8119 14.1111 15.5619C14.4301 17.0219 15.4151 18.6679 14.7311 19.9789Z" fill="#CFD8DC"/>
</svg>
