<svg width="24" height="24" viewBox="0 0 24 24" fill="none" xmlns="http://www.w3.org/2000/svg">
<path fill-rule="evenodd" clip-rule="evenodd" d="M12.8391 14.958L10.3921 12.54L10.4211 12.51C12.053 10.6963 13.2724 8.55032 13.9951 6.21999H16.8181V4.29099H10.0741V2.36499H8.1471V4.29199H1.4021V6.21999H12.1641C11.4984 8.12401 10.4602 9.87642 9.1101 11.375C8.23074 10.4005 7.48241 9.31531 6.8841 8.14699H4.9581C5.68054 9.75164 6.64884 11.2338 7.8281 12.54L2.9251 17.377L4.2931 18.745L9.1101 13.928L12.1071 16.924L12.8391 14.958ZM18.2631 10.074H16.3361L12.0011 21.636H13.9281L15.0071 18.746H19.5831L20.6721 21.636H22.5991L18.2631 10.074ZM15.7391 16.818L17.2991 12.646L18.8601 16.818H15.7391Z" fill="#CFD8DC"/>
</svg>
