<svg width="24" height="24" viewBox="0 0 24 24" fill="none" xmlns="http://www.w3.org/2000/svg">
<path d="M12.3685 22.7341C11.416 22.4142 11.408 22.4079 11.1969 21.8321C11.08 21.5132 10.9207 20.7474 10.8427 20.1305C10.723 19.1828 10.7309 18.8399 10.8933 17.9234C11.2267 16.0425 12.0481 14.6023 14.2139 12.101C16.7183 9.20867 17.1551 8.20967 16.6425 6.54623C16.2038 5.12231 15.0275 3.78983 12.6089 1.97687C11.0591 0.815266 10.994 0.740506 12.0074 1.28855C14.7139 2.75207 16.8512 4.57811 17.5724 6.04307C18.0742 7.06247 18.188 8.19347 17.8921 9.21803C17.5774 10.3071 17.0038 11.2959 15.3552 13.5918C13.1115 16.716 12.4592 18.2287 12.5753 20.0385C12.6247 20.8077 12.713 21.0969 13.1758 22.0061C13.8003 23.2325 13.8143 23.2199 12.3685 22.7341ZM10.3535 12.7245C9.83995 11.0955 8.72107 10.0115 6.84799 9.32831C6.35275 9.14771 5.94751 8.97215 5.94751 8.93831C5.94751 8.81507 8.22019 9.04007 8.70511 9.21119C9.91615 9.63839 10.5103 10.5235 10.601 12.0356C10.6782 13.3227 10.6057 13.5247 10.3534 12.7247L10.3535 12.7245ZM12.3382 10.1618C11.6126 8.19371 10.3991 7.08011 8.28751 6.44411C7.15231 6.10223 7.20103 5.99483 8.44915 6.08807C10.9135 6.27215 11.9787 6.96383 12.4862 8.70959C12.6005 9.10307 12.6647 9.68411 12.6434 10.1333L12.6075 10.892L12.3382 10.1618ZM13.9427 7.17599C13.3403 5.79347 12.4898 5.02235 10.838 4.36151C10.1907 4.10255 10.022 3.99143 10.1804 3.92855C10.4776 3.81059 11.9523 4.04615 12.4777 4.29551C13.0673 4.57535 13.8075 5.44247 14.0405 6.12671C14.2269 6.67391 14.4301 7.95215 14.3305 7.95215C14.3031 7.95215 14.1286 7.60295 13.9426 7.17611L13.9427 7.17599Z" fill="#F87171"/>
<path d="M11.3496 0.899682C11.3394 0.898602 11.3273 0.896322 11.3068 0.906522C11.2862 0.916722 11.2685 0.951762 11.2704 0.971322C11.274 1.01068 11.2884 1.01632 11.3014 1.0312C11.3534 1.09084 11.4726 1.18744 11.6815 1.34968C11.8903 1.51192 12.185 1.7344 12.5725 2.02492C14.9873 3.835 16.1519 5.15872 16.5848 6.5638C16.8388 7.38772 16.8574 8.0314 16.5043 8.839C16.1513 9.6466 15.4193 10.6169 14.1683 12.0617C11.9999 14.5661 11.1692 16.0205 10.8338 17.9129C10.671 18.8315 10.6627 19.1883 10.7827 20.1378C10.8611 20.7588 11.0186 21.5212 11.1401 21.8528C11.2457 22.1409 11.3064 22.3023 11.4677 22.4265C11.6292 22.5508 11.8728 22.631 12.3491 22.7909C12.7104 22.9124 12.9806 23.0045 13.1768 23.0558C13.275 23.0814 13.3543 23.0973 13.4206 23.1005C13.4868 23.1039 13.5451 23.0957 13.5884 23.0567C13.6316 23.0177 13.6423 22.9569 13.6352 22.8964C13.6282 22.8359 13.606 22.7672 13.5716 22.6829C13.5032 22.5144 13.3849 22.2856 13.2288 21.9791C12.7668 21.0719 12.6839 20.8005 12.6348 20.035C12.5772 19.1382 12.7088 18.32 13.1348 17.332C13.5608 16.344 14.2826 15.1876 15.4033 13.627C17.053 11.33 17.632 10.3335 17.9494 9.235C18.2498 8.19508 18.1337 7.0486 17.6257 6.01684C16.8925 4.5274 14.7488 2.70316 12.0356 1.23604C11.782 1.09888 11.5961 1.00072 11.4806 0.947322C11.423 0.920562 11.3903 0.904122 11.3496 0.899682ZM11.6602 1.17568C11.76 1.22728 11.8314 1.26208 11.9784 1.34152C14.6782 2.80132 16.8089 4.62916 17.5181 6.06976C18.0137 7.07656 18.1256 8.19208 17.834 9.20152C17.522 10.2813 16.9536 11.2624 15.3059 13.5569C14.1829 15.1205 13.4567 16.2825 13.0247 17.2844C12.5927 18.2864 12.4564 19.1295 12.5149 20.0427C12.5645 20.8155 12.6581 21.1227 13.122 22.0335C13.2781 22.3402 13.3958 22.5693 13.4604 22.7282C13.4927 22.8076 13.5112 22.8698 13.516 22.9106C13.5208 22.9512 13.5143 22.962 13.5079 22.9677C13.5017 22.9733 13.4778 22.9832 13.4263 22.9805C13.3751 22.9781 13.3014 22.9644 13.2072 22.9397C13.0189 22.8905 12.7488 22.7987 12.3871 22.6773C11.9111 22.5173 11.6743 22.4344 11.5409 22.3317C11.4074 22.229 11.3582 22.0992 11.2529 21.8115C11.1406 21.5051 10.9792 20.7359 10.9018 20.1228C10.7824 19.1775 10.7898 18.8482 10.9519 17.934C11.2831 16.0647 12.0955 14.6388 14.259 12.1404C15.5123 10.6929 16.251 9.71788 16.6142 8.887C16.9775 8.05612 16.9582 7.36828 16.6994 6.52876C16.2551 5.08612 15.0671 3.74488 12.6446 1.92916C12.2573 1.63876 11.9627 1.4164 11.7551 1.25512C11.7008 1.213 11.7029 1.21024 11.6603 1.17592L11.6602 1.17568ZM10.5935 3.84112C10.4022 3.83152 10.2545 3.8344 10.158 3.8728C10.1338 3.8824 10.1122 3.89344 10.0933 3.91288C10.0745 3.93232 10.0609 3.96568 10.0657 3.99556C10.0751 4.05544 10.1173 4.0846 10.1737 4.12156C10.2865 4.19596 10.4905 4.28728 10.8152 4.41724C12.4586 5.07484 13.2901 5.82892 13.8875 7.19992C13.9677 7.38565 14.0526 7.56934 14.142 7.75084C14.1775 7.82188 14.208 7.8796 14.2325 7.92112C14.2446 7.94176 14.255 7.95832 14.2652 7.97188C14.2704 7.97872 14.2752 7.98484 14.2824 7.99156C14.2896 7.99828 14.2967 8.01196 14.3302 8.01196C14.3458 8.01147 14.3609 8.00629 14.3735 7.99708C14.3862 7.98788 14.3957 7.97508 14.401 7.96036C14.4082 7.94161 14.4125 7.92186 14.4137 7.9018C14.4179 7.85956 14.417 7.8058 14.413 7.7398C14.4048 7.60816 14.3827 7.4302 14.3518 7.23508C14.2897 6.8446 14.1926 6.388 14.097 6.1072C13.8564 5.401 13.1185 4.53316 12.503 4.2412C12.2273 4.11028 11.7275 3.99076 11.2526 3.9148C11.0152 3.877 10.7849 3.8506 10.5936 3.841L10.5935 3.84112ZM10.5875 3.96088C10.7725 3.97012 10.9996 3.99616 11.2336 4.03348C11.7017 4.10824 12.202 4.23124 12.4516 4.34968C13.0154 4.61728 13.7579 5.4838 13.9835 6.14608C14.0743 6.41236 14.1719 6.86848 14.2331 7.25392C14.2637 7.44664 14.2854 7.62244 14.2931 7.74748C14.2939 7.76188 14.2928 7.76728 14.2933 7.78024C14.2786 7.75252 14.2669 7.73272 14.2493 7.69732C14.1797 7.55812 14.0899 7.3648 13.9973 7.15216C13.3901 5.75812 12.5201 4.96984 10.86 4.30564C10.5374 4.17664 10.3334 4.08316 10.2396 4.02124C10.2034 3.99748 10.2007 3.98956 10.1969 3.98716C10.1996 3.98572 10.1987 3.98572 10.2023 3.98428C10.2544 3.96364 10.4022 3.95164 10.5875 3.96088ZM7.73628 5.99608C7.65324 5.99728 7.58868 6.00172 7.53912 6.01048C7.51428 6.01492 7.4934 6.02008 7.47372 6.02872C7.45404 6.03748 7.4322 6.04996 7.41936 6.07828C7.40652 6.10648 7.41528 6.1414 7.42824 6.16072C7.4412 6.18004 7.45704 6.19288 7.47576 6.20596C7.51332 6.23212 7.56492 6.25744 7.63476 6.2866C7.7742 6.34492 7.98492 6.41572 8.26956 6.5014C10.369 7.1338 11.5608 8.22796 12.2815 10.1826L12.5508 10.9127L12.6671 10.8948L12.7028 10.136C12.7244 9.67876 12.6604 9.0958 12.5432 8.69296C12.2869 7.81132 11.8844 7.18552 11.2336 6.76288C10.5827 6.34024 9.69 6.12088 8.45292 6.02848C8.14008 6.00496 7.90212 5.99392 7.73628 5.99632V5.99608ZM7.73808 6.11608C7.89696 6.11392 8.13288 6.12448 8.44404 6.14788C9.67128 6.23956 10.5436 6.45796 11.168 6.86356C11.7928 7.26916 12.1768 7.86232 12.4279 8.72632C12.5395 9.11032 12.604 9.68932 12.5831 10.1303L12.561 10.5941L12.394 10.141C11.6633 8.15944 10.4284 7.02628 8.30436 6.38656C8.02152 6.30136 7.81248 6.23068 7.68084 6.1756C7.63404 6.15604 7.6098 6.14164 7.58364 6.12688C7.62168 6.1216 7.66908 6.11704 7.73808 6.11608ZM6.3114 8.84488C6.1998 8.84164 6.10788 8.84224 6.04044 8.84788C6.01164 8.84955 5.98308 8.85421 5.95524 8.8618C5.94182 8.86538 5.92917 8.8714 5.91792 8.87956C5.90873 8.88646 5.90118 8.89531 5.89582 8.90548C5.89047 8.91565 5.88744 8.92688 5.88696 8.93836C5.88696 8.9704 5.90088 8.98024 5.90856 8.98804C5.91612 8.99596 5.92308 9.00112 5.931 9.00664C5.94684 9.01756 5.96604 9.0286 5.99004 9.04132C6.03828 9.06652 6.10524 9.09772 6.18768 9.13336C6.35244 9.20476 6.57828 9.29392 6.8268 9.38464C8.68788 10.0634 9.78744 11.1303 10.2958 12.7427C10.3594 12.9443 10.4105 13.0823 10.4566 13.1649C10.4796 13.206 10.4946 13.2398 10.5451 13.2551C10.5588 13.2583 10.573 13.2583 10.5867 13.2551C10.6003 13.2518 10.613 13.2455 10.6238 13.2365C10.6393 13.2219 10.6506 13.2035 10.6567 13.1831C10.684 13.1073 10.6898 12.9882 10.6897 12.7988C10.6897 12.6092 10.6795 12.3545 10.6602 12.0321C10.6144 11.2689 10.4412 10.6582 10.1224 10.1831C9.8034 9.70804 9.33936 9.37168 8.7246 9.15472C8.59332 9.1084 8.36088 9.06316 8.07816 9.01972C7.79544 8.97628 7.4652 8.93584 7.14984 8.90452C6.83448 8.8732 6.53448 8.85136 6.3114 8.84488ZM6.3078 8.96488C6.5262 8.97124 6.82464 8.9932 7.13808 9.02416C7.45152 9.05524 7.78008 9.09532 8.0598 9.13828C8.33964 9.18136 8.5734 9.22864 8.68464 9.26788C9.2808 9.47824 9.71904 9.79792 10.0226 10.2502C10.3262 10.7025 10.4954 11.2902 10.5404 12.0392C10.5596 12.3603 10.5696 12.6134 10.5697 12.7988C10.5697 12.947 10.5589 13.0181 10.5488 13.0737C10.5133 13.0037 10.4676 12.8889 10.4101 12.7066C9.89136 11.061 8.75304 9.95932 6.86796 9.27184C6.62124 9.18184 6.39672 9.09316 6.2352 9.0232C6.18348 9.00076 6.1512 8.98456 6.114 8.9668C6.1692 8.96452 6.2256 8.96248 6.3078 8.96488Z" fill="#F87171"/>
</svg>
