<svg width="24" height="25" viewBox="0 0 24 25" fill="none" xmlns="http://www.w3.org/2000/svg">
<path fill-rule="evenodd" clip-rule="evenodd" d="M7.68179 17.1575C8.90592 17.6095 10.3227 17.8956 11.9352 17.8956C17.1705 17.8956 20.4216 14.8795 21.6884 12.9626C21.8987 12.6443 21.8681 12.2315 21.6223 11.9396C21.2209 11.4628 20.6875 10.9137 20.0401 10.3604L15.8185 12.6823C15.7601 14.6973 14.1082 16.3129 12.0791 16.3129C11.3814 16.3129 10.7283 16.1219 10.1693 15.7893L7.68179 17.1575ZM9.45577 9.90478L2.75409 13.5907C2.58076 13.3664 2.42984 13.1498 2.3012 12.9458C2.10508 12.6349 2.13525 12.2395 2.36697 11.9541C3.87994 10.0904 7.39508 7.10425 11.9352 7.10425C12.694 7.10425 13.4265 7.18767 14.1275 7.33533L11.2341 8.92669C10.5507 9.08446 9.93896 9.42947 9.45577 9.90478ZM11.5062 15.054C11.668 15.087 11.8356 15.1042 12.0071 15.1042C13.0749 15.1042 13.9862 14.4349 14.3446 13.4929L11.5062 15.054Z" fill="#64748B"/>
<line x1="2.29572" y1="16.9814" x2="20.9814" y2="6.70428" stroke="#64748B" stroke-width="1.5" stroke-linecap="round"/>
</svg>
