<svg width="24" height="24" viewBox="0 0 24 24" fill="none" xmlns="http://www.w3.org/2000/svg">
<path fill-rule="evenodd" clip-rule="evenodd" d="M19.3384 7.39721C18.975 9.05751 15.4419 16.8988 14.9884 18.6757C14.6663 19.9383 16.3292 21.5235 16.6069 20.4857C17.4236 17.4352 21.063 10.1871 21.2664 8.67757C21.4417 7.37643 19.5159 6.58611 19.3384 7.39721ZM14.9052 13.1515C15.0139 13.124 15.1282 13.1279 15.2348 13.1627C15.3414 13.1975 15.436 13.2618 15.5075 13.3482C15.5791 13.4345 15.6247 13.5394 15.6391 13.6506C15.6535 13.7618 15.6361 13.8748 15.5889 13.9766C15.5916 13.978 15.5914 13.9783 15.5914 13.9785C15.4398 14.305 15.2128 14.5908 14.929 14.8124C14.6453 15.0341 14.313 15.1851 13.9595 15.2532C13.5536 15.3302 13.0955 15.3943 12.5859 15.4428C10.7571 15.6163 8.7957 13.4121 10.1233 13.4739C12.0997 13.5658 13.6753 13.4205 14.9052 13.1515ZM16.8462 11.0802C16.7491 11.3253 16.5927 11.5425 16.391 11.7124C16.1894 11.8822 15.9488 11.9995 15.6907 12.0536C13.275 12.5601 9.80179 12.3628 8.08931 11.9475C6.42484 11.544 5.33087 9.12187 6.4117 9.48306C8.92143 10.3217 13.59 10.5991 16.2324 10.2995C16.3316 10.2858 16.4328 10.2983 16.5257 10.3358C16.6187 10.3733 16.7002 10.4344 16.7622 10.5132C16.8242 10.592 16.8644 10.6856 16.879 10.7847C16.8936 10.8839 16.8819 10.9851 16.8453 11.0784C16.8466 11.0789 16.8466 11.0789 16.8462 11.0802ZM17.849 8.2384C17.7696 8.49934 17.6136 8.73039 17.4013 8.90152C17.1889 9.07266 16.93 9.17597 16.6581 9.19805C11.8064 9.54718 5.57397 8.42599 3.77337 6.56891C2.42054 5.17321 2.50734 2.48951 3.27654 3.34228C6.192 6.57476 13.3586 7.50527 17.261 7.46419C17.3558 7.46202 17.4498 7.48236 17.5352 7.52355C17.6206 7.56473 17.695 7.62558 17.7524 7.70111C17.8097 7.77663 17.8483 7.86468 17.865 7.95801C17.8817 8.05135 17.876 8.14732 17.8485 8.23805C17.8487 8.23828 17.8487 8.23828 17.8486 8.2384H17.849Z" fill="#F472B6"/>
</svg>
