<svg width="24" height="24" viewBox="0 0 24 24" fill="none" xmlns="http://www.w3.org/2000/svg">
<path d="M21.3529 3.93689L20.8006 6.98578C20.6501 7.07695 20.6397 7.23366 20.7508 7.28531H21.8877C22.0911 7.30791 22.1509 6.98287 21.9158 7.02328L21.3529 3.93689ZM20.7663 7.32591V9.78291L20.418 9.78525C20.3728 10.0506 20.4578 10.3395 20.6463 10.4646L20.6385 16.294C20.4116 16.3467 20.3387 16.6118 20.6066 16.6786L20.4037 18.481L20.189 18.4811V16.6408H19.5729L19.5582 12.9045C19.7625 12.7334 19.6941 12.5458 19.7126 12.3481H19.5152L19.4997 10.6584C19.5897 10.5912 19.6451 10.4139 19.4894 10.398L19.1087 8.30315C19.0753 8.25764 19.0453 8.2763 19.0263 8.30315L18.676 10.3932C18.4851 10.4534 18.5154 10.5373 18.6315 10.6025L18.6403 12.3703C18.6403 12.3703 18.4704 12.3719 18.4078 12.375C18.3701 12.6937 18.5393 12.86 18.5393 12.86L18.5248 15.3881L17.8838 15.3955V15.0471H17.4407L17.4431 14.0089H17.579C17.579 14.0089 17.5937 13.9062 17.5469 13.9048C17.521 13.904 17.487 13.9042 17.4434 13.9041L17.4462 12.7185L16.6346 12.7222V12.549H16.3488C15.6558 11.1026 14.2802 10.1919 12.4732 10.076H12.4706L12.4722 9.81187C12.4499 9.70556 12.4025 9.60534 12.2831 9.49903C12.2831 9.49903 12.2824 9.46172 12.2831 9.40598C12.2922 9.40434 12.3267 9.40542 12.34 9.38133L12.3363 9.27694C12.3363 9.27694 12.3297 9.23508 12.2797 9.22092C12.3052 9.04608 12.244 9.04941 12.244 9.04941L12.2471 8.98214C12.2903 8.93962 12.3045 8.8538 12.2391 8.85534C12.2391 8.85534 12.2413 8.66372 12.211 8.65612C12.1806 8.64853 12.1688 8.81691 12.1688 8.81691C12.122 8.8447 12.1035 8.93306 12.157 8.98725L12.1426 9.21801C12.096 9.26864 12.0724 9.32939 12.133 9.39426L12.1391 9.48497C12.0305 9.52641 11.9396 9.71995 11.9344 9.80236L11.9322 10.0687C10.325 10.1726 8.73907 11.0251 8.08413 12.5455L7.78071 12.5477L7.78183 12.7225L6.94347 12.7251V13.9122C6.90813 13.9119 6.88089 13.9113 6.85385 13.9122C6.80707 13.9136 6.78949 14.0175 6.78949 14.0175H6.94347V15.0652L6.55043 15.0596V15.3945L5.43757 15.39L5.4145 12.9203C5.57374 12.718 5.55968 12.6019 5.55818 12.3572H5.37841L5.35104 10.5855C5.49944 10.54 5.509 10.3629 5.35408 10.3365L4.95354 8.26912C4.9495 8.25187 4.94102 8.23481 4.92813 8.23748C4.92039 8.23912 4.91107 8.24784 4.90014 8.26781L4.54179 10.3481C4.3225 10.4471 4.40416 10.5357 4.48366 10.5876L4.48755 12.3571H4.23986C4.24197 12.521 4.17907 12.7215 4.40533 12.9134L4.41274 16.6398H3.73989L3.75274 18.4857L3.5365 18.4859L3.36588 16.6668C3.66808 16.5858 3.54902 16.3627 3.35627 16.2919C3.35627 16.2919 3.36752 10.7016 3.35064 10.5272C3.33382 10.353 3.55844 10.3305 3.55844 9.95967C3.6025 9.70312 3.33822 9.77897 3.22535 9.77367V7.33148H2.04222V9.77423C1.91716 9.77245 1.82261 9.77189 1.80555 9.77433C1.72689 9.78558 1.71002 9.91476 1.73805 10.1283C1.76618 10.3418 1.93211 10.4809 1.93211 10.4809L1.96244 16.1636C1.97636 16.355 1.90193 16.3298 1.82805 16.348C1.68246 16.3714 1.71846 16.6513 1.91229 16.6513C1.94322 16.921 1.5415 20.045 1.5415 20.045L22.4581 20.0631L22.0608 16.6623C22.3892 16.6235 22.2569 16.2956 22.0123 16.3012L22.007 10.4882C22.111 10.4315 22.3216 10.149 22.2145 9.7733L21.9091 9.77536V7.32595L20.7663 7.32591ZM12.1099 12.8356C12.2173 12.8387 12.3215 12.9133 12.3527 13.0454V13.8131H11.8321L11.8488 13.0537C11.8922 12.9006 12.0026 12.8324 12.1099 12.8355V12.8356ZM10.2682 12.8366C10.383 12.8344 10.5025 12.9218 10.5346 13.0714V13.813L10.0383 13.8109L10.0518 13.0173C10.0923 12.8943 10.1789 12.8384 10.2682 12.8367V12.8366ZM15.094 12.8407C15.1863 12.8491 15.2697 12.9283 15.2938 13.07V13.8179H14.8418L14.8403 13.0349C14.9003 12.8944 15.0016 12.8323 15.094 12.8407V12.8407ZM12.7285 12.8409C12.8363 12.8455 12.9397 12.9184 12.9683 13.0514V13.8164L12.4553 13.8142L12.462 13.0406C12.5084 12.9001 12.6207 12.8363 12.7285 12.8409V12.8409ZM9.68725 12.8416C9.79057 12.8362 9.89871 12.9067 9.93382 13.0354V13.8132H9.4781L9.4915 13.0003C9.52943 12.8959 9.60691 12.8459 9.68725 12.8416ZM16.7208 12.843C16.8002 12.8487 16.8784 12.9149 16.925 13.068L16.9212 13.284C16.6211 13.2802 16.6347 13.3308 16.4834 13.4338L16.4756 13.0635C16.5153 12.9279 16.6189 12.8355 16.7208 12.843ZM9.1135 12.844C9.21682 12.8385 9.32496 12.909 9.36007 13.0377V13.8156H8.90435L8.91775 13.0027C8.95568 12.8983 9.03316 12.8482 9.1135 12.844ZM11.4725 12.844C11.5837 12.8385 11.6972 12.909 11.7153 13.0377V13.8156H11.2496L11.2631 13.0027C11.3011 12.8983 11.3861 12.8482 11.4725 12.844ZM13.2931 12.844C13.4018 12.8385 13.5155 12.909 13.5524 13.0377V13.8156H13.0731L13.0873 13.0027C13.1272 12.8983 13.2086 12.8482 13.2931 12.844H13.2931ZM15.6219 12.8454C15.7254 12.8411 15.8299 12.9127 15.8481 13.0414V13.8193L15.4103 13.8156L15.4237 13.0027C15.4617 12.8983 15.5415 12.8489 15.6219 12.8455V12.8454ZM8.03754 12.846C8.1266 12.8524 8.21018 12.9246 8.24725 13.0529L8.25133 13.8237H8.09458C8.08193 13.7233 8.05478 13.4684 7.88233 13.43C7.87108 13.3802 7.82439 13.3513 7.79421 13.3309L7.79533 13.0336C7.85402 12.899 7.94847 12.8396 8.03754 12.846V12.846ZM8.55368 12.8463C8.65699 12.8409 8.76513 12.9113 8.80024 13.04V13.8179H8.34452L8.35802 13.0051C8.39594 12.9007 8.47333 12.8505 8.55368 12.8463ZM10.8404 12.8463C10.9437 12.8409 11.0519 12.9113 11.087 13.04V13.8179H10.6313L10.6448 13.0051C10.6827 12.9007 10.7601 12.8505 10.8404 12.8463ZM16.1621 12.8482C16.2622 12.8421 16.3604 12.9171 16.4054 13.0336L16.4066 13.5214C16.3764 13.5418 16.326 13.6174 16.3253 13.7434C16.292 13.7686 16.2615 13.7863 16.262 13.8237H15.9494V13.028C16.0054 12.9067 16.0843 12.8529 16.1621 12.8482ZM13.9333 12.8497C14.0261 12.8545 14.1104 12.9284 14.1379 13.0615L14.1266 13.8132H13.6709L13.6768 13.0527C13.7389 12.9091 13.8404 12.8448 13.9333 12.8496V12.8497ZM7.49219 12.8554C7.58083 12.8495 7.67055 12.8943 7.70674 13.0031V13.305H7.27938L7.2835 13.0128C7.31585 12.9182 7.4035 12.8614 7.49219 12.8554ZM14.4986 12.8589C14.6034 12.8594 14.7084 12.931 14.7276 13.0715V13.813L14.2709 13.8109V13.0734C14.2892 12.9292 14.3938 12.8584 14.4986 12.8589ZM8.11282 14.0188H8.27088V15.053H8.11282V14.0188ZM16.1163 14.0188H16.2744V15.053H16.1163V14.0188ZM7.48422 14.6647H7.59569V15.3774H7.48422V14.6647ZM16.8095 14.6647H16.9211V15.3774H16.8095V14.6647ZM8.57172 15.0722H8.69744V19.6914H8.57172V15.0722ZM15.685 15.0724H15.8417V19.6912H15.685V15.0724ZM12.1418 15.8815C12.3257 15.8778 12.5107 15.9976 12.5157 16.2522V17.4294H11.7782L11.7741 16.2522C11.775 16.0125 11.9578 15.8852 12.1417 15.8815L12.1418 15.8815ZM11.2376 16.404C11.3755 16.4028 11.5141 16.4929 11.518 16.681V17.4101H10.9619V16.6747C10.9625 16.4976 11.0997 16.4051 11.2376 16.404ZM13.0479 16.404C13.1858 16.4028 13.3244 16.4929 13.3283 16.681V17.4101H12.7722V16.6747C12.7728 16.4976 12.91 16.4051 13.0479 16.404ZM7.48427 16.4508H7.5963V16.8189H7.48427V16.4508ZM16.8096 16.4508H16.9216V16.8189H16.8096V16.4508ZM7.48568 17.8188H7.59761V18.2006H7.48568V17.8188ZM16.811 17.8188H16.923V18.2006H16.811V17.8188ZM9.37099 18.0152C9.49005 18.0141 9.60977 18.1042 9.6131 18.2924V19.0217H9.13305V18.286C9.13361 18.1089 9.25193 18.0164 9.37099 18.0152ZM10.3062 18.027C10.4253 18.0258 10.5449 18.1159 10.5482 18.3041V19.0335H10.0682V18.2978C10.0687 18.1206 10.1871 18.0281 10.3062 18.027ZM11.2312 18.0329C11.3604 18.0318 11.4903 18.1219 11.4939 18.31V19.0394H10.9729V18.3037C10.9735 18.1266 11.102 18.0341 11.2312 18.0329ZM12.1546 18.0329C12.2838 18.0318 12.4136 18.1219 12.4173 18.31V19.0394H11.8963V18.3037C11.8969 18.1266 12.0254 18.0341 12.1546 18.0329ZM13.0544 18.0329C13.1836 18.0318 13.3136 18.1219 13.3172 18.31V19.0394H12.7961V18.3037C12.7968 18.1266 12.9252 18.0341 13.0544 18.0329ZM14.0073 18.0329C14.1364 18.0318 14.2664 18.1219 14.27 18.31V19.0394H13.749V18.3037C13.7496 18.1266 13.8781 18.0341 14.0073 18.0329ZM14.9236 18.0329C15.0528 18.0318 15.1827 18.1219 15.1863 18.31V19.0394H14.6652V18.3037C14.6658 18.1266 14.7943 18.0341 14.9235 18.0329H14.9236ZM2.66904 3.99009L2.11671 7.00008C1.96629 7.09008 1.95583 7.24476 2.06697 7.29586H3.20383C3.40727 7.31812 3.45804 6.99726 3.22291 7.00111L2.66904 3.99009Z" fill="#71717A"/>
</svg>
