<svg width="18" height="18" viewBox="0 0 18 18" fill="none" xmlns="http://www.w3.org/2000/svg">
<g clip-path="url(#clip0_1285_1346)">
<path d="M13.3335 9.8595C13.41 9.936 13.4235 10.0665 13.3245 10.134C13.0905 10.2915 12.8025 10.2645 12.5325 10.233C12.0735 10.1835 11.529 10.1655 11.2905 9.7245L11.2725 9.711C10.971 9.549 11.4795 9.432 11.619 9.414C11.943 9.3735 12.2805 9.4545 12.5955 9.5265C12.8745 9.594 13.1265 9.6615 13.3335 9.8595ZM17.5095 16.686C17.298 16.839 17.3925 17.091 17.235 17.2755C17.0865 17.4465 16.7265 17.442 16.524 17.4465C15.7095 17.4555 14.904 17.388 14.0895 17.4555C13.887 17.4735 13.7025 17.5005 13.5045 17.55C13.446 17.5635 13.3515 17.5995 13.2885 17.568C13.122 17.4825 12.9735 17.208 12.762 17.298C12.582 17.37 12.4515 17.6355 12.231 17.4735C11.8395 17.1855 11.5065 17.4465 11.097 17.5275C10.674 17.613 10.2645 17.3745 9.84149 17.496C9.52649 17.586 9.22949 17.685 8.90549 17.577C8.57699 17.469 8.49149 17.2125 8.77499 16.9785C9.22049 16.614 9.76499 16.56 10.323 16.6005C11.16 16.668 11.988 16.6095 12.825 16.569C12.8475 16.569 12.8655 16.5825 12.87 16.6005C13.2255 16.7445 13.464 16.452 13.662 16.209C13.689 16.1775 13.7385 16.191 13.7565 16.2225C14.0535 16.668 14.4225 16.164 14.796 16.2C14.895 16.209 14.994 16.236 15.048 16.3305C15.075 16.371 15.0795 16.4295 15.084 16.4745C15.102 16.6995 15.39 16.6545 15.381 16.4205C15.381 16.3845 15.4215 16.3485 15.4575 16.362C15.75 16.479 16.1415 16.641 16.3935 16.326C16.6005 16.065 16.632 15.6825 16.6455 15.3585C16.6905 14.4945 16.6275 13.608 16.569 12.7485C16.515 11.9115 16.425 11.0565 16.524 10.2195C16.623 9.3915 16.623 8.577 16.6005 7.74C16.5915 7.3035 16.578 6.867 16.596 6.4305C16.614 6.03 16.686 5.6025 16.6365 5.202C16.596 4.842 16.3845 4.536 16.335 4.1805C16.29 3.8565 16.335 3.5235 16.4115 3.2085C16.4565 3.0105 16.551 2.781 16.5465 2.574C16.542 2.3985 16.5285 2.223 16.533 2.0475C16.5375 1.962 16.5195 1.827 16.5825 1.755C16.686 1.6335 16.7355 1.458 16.5015 1.431C15.939 1.368 15.3585 1.008 14.8185 1.35C14.823 1.467 14.8365 1.6065 14.805 1.7235C14.8275 1.7595 14.8545 1.7955 14.886 1.827C15.021 1.8855 15.1605 1.908 15.3045 1.908C15.4755 1.9125 15.669 1.863 15.8355 1.881C15.984 1.899 16.101 2.025 16.0515 2.187C16.02 2.304 15.912 2.4075 15.849 2.511C15.741 2.691 15.7545 2.9475 15.7545 3.15C15.7455 3.6675 15.7545 4.1895 15.7725 4.707C15.786 5.139 15.831 5.571 15.8625 6.003C15.8715 6.012 15.8985 6.0255 15.8985 6.039C15.9165 6.5205 16.0785 7.002 16.0875 7.488C16.092 7.497 15.9615 8.0865 15.9615 8.0865C15.957 8.7165 15.903 9.882 15.903 9.882C15.894 10.9575 15.7095 12.015 15.8985 13.086C15.975 13.518 15.813 13.9275 15.795 14.355C15.7725 14.823 15.84 15.2955 15.7725 15.7635C15.786 15.7905 15.777 15.8265 15.7365 15.831C14.7555 16.0155 13.761 16.0515 12.7665 15.993C12.519 15.9795 12.2175 15.957 11.9835 16.0515C11.8845 16.092 11.7585 16.1595 11.646 16.1415C11.502 16.119 11.4345 16.011 11.295 15.984C11.1285 15.9525 10.9575 15.9165 10.791 15.894C10.35 15.8355 9.92699 15.8085 9.50849 15.9885C9.27899 16.0875 9.04049 16.0515 8.81099 15.9525C8.54099 15.84 8.33399 15.705 8.03699 15.8535C7.91549 15.912 7.80749 15.975 7.67249 16.0065C7.55999 16.0335 7.46099 16.002 7.35749 15.966C7.12799 15.8805 6.94799 15.8535 6.70499 15.8985C6.73199 15.93 6.71399 16.002 6.66449 16.002C5.21099 15.9255 3.75299 16.101 2.29949 16.11C2.23649 16.128 2.18249 16.2045 2.13749 16.2045H2.09249C2.06099 16.2045 2.04749 16.083 2.05649 16.0605C1.85849 15.849 1.90799 15.1425 1.91699 14.931C1.97999 13.5765 1.80449 12.2265 1.76399 10.8765C1.74599 10.2015 1.74599 9.531 1.85399 8.8605C1.97999 8.109 1.97999 7.389 1.96199 6.6285C1.93049 5.139 2.07449 3.6495 2.02949 2.16C2.02949 2.133 2.05649 2.124 2.07449 2.133C2.07899 2.1285 2.08349 2.124 2.09249 2.124C2.49299 2.088 2.92949 1.9755 3.32549 2.088C3.33449 2.0925 3.33899 2.097 3.34349 2.1015L3.40649 2.1105H3.85199C3.86999 2.1105 3.88349 2.1195 3.88799 2.1285C4.67099 2.1375 5.45849 2.0655 6.24149 2.0295C6.51599 2.016 6.79949 2.0295 7.06499 1.944C7.20449 1.899 7.36199 1.8315 7.51499 1.8405C7.87049 1.863 8.24399 1.98 8.59049 2.052C8.83799 2.106 9.00899 1.6785 9.22949 1.818C9.56699 2.0295 9.95399 1.953 10.3365 1.962C10.539 1.9665 10.737 1.926 10.9395 1.926C11.0475 1.926 11.142 1.953 11.2455 1.98C11.349 1.962 11.439 1.9755 11.547 2.0115C12.1545 2.025 12.762 1.944 13.374 1.953C13.743 1.9575 14.139 1.9845 14.49 1.8495C14.58 1.8135 14.634 1.764 14.661 1.701L14.6205 1.611C14.5935 1.557 14.5665 1.503 14.526 1.458C14.139 1.3275 13.68 1.368 13.275 1.35C12.708 1.3275 12.159 1.3995 11.5965 1.4445C11.0745 1.4895 10.5345 1.5165 10.008 1.4805C9.70199 1.458 9.11699 1.3185 8.85599 1.53C8.82899 1.548 8.80649 1.548 8.77949 1.53C8.27549 1.116 7.61849 1.7325 7.04249 1.5615C6.70049 1.458 6.37199 1.395 6.01199 1.431C5.65649 1.467 5.32349 1.5165 4.96349 1.512C4.18949 1.5075 3.41099 1.557 2.63699 1.53C2.47049 1.5255 2.30399 1.521 2.13749 1.503C2.00249 1.485 1.81799 1.422 1.68299 1.4715C1.47149 1.5525 1.42649 1.6245 1.44449 1.683C1.50299 1.7235 1.30049 1.998 1.29599 2.133C1.29149 2.2545 1.28249 2.3715 1.28249 2.4885C1.27349 3.015 1.23749 3.501 1.12049 4.014C1.05749 4.2885 0.926986 4.671 1.02599 4.9455C1.08899 5.121 1.22399 5.2425 1.30049 5.409C1.43549 5.697 1.44449 6.057 1.43099 6.3675C1.38599 7.389 1.38599 8.415 1.34999 9.4365C1.31399 10.4625 1.25099 11.4885 1.28699 12.5145C1.31849 13.464 1.47149 14.436 1.34549 15.381C1.30499 15.696 0.931486 16.254 1.29149 16.47C1.49399 16.5915 1.74599 16.623 1.97549 16.6365C2.55599 16.668 3.14099 16.6095 3.71699 16.5465C3.92849 16.524 4.14449 16.479 4.35599 16.4745C4.52249 16.47 4.67099 16.488 4.82849 16.5465C4.96349 16.596 5.17049 16.6905 5.33699 16.6905C5.34599 16.6995 5.59349 16.6815 5.61149 16.6095C5.82749 16.5195 6.01199 16.443 6.29099 16.5015C6.55199 16.5555 6.79949 16.587 7.06949 16.533C7.21349 16.506 7.42949 16.4925 7.57349 16.5285C7.58699 16.533 7.62299 16.5735 7.63649 16.569C7.69499 16.5465 7.60049 16.641 7.54649 16.6635C7.22249 16.794 7.32599 17.208 7.28549 17.4825C7.28099 17.505 7.25399 17.5185 7.23149 17.5185C7.10099 17.5185 6.92549 17.5185 6.85799 17.3835C6.70949 17.1 6.34499 16.9155 6.34499 17.4915C6.34499 17.523 6.31799 17.541 6.29549 17.541C6.26849 17.541 6.24599 17.523 6.24599 17.4915C6.24599 17.46 5.86799 17.2575 5.82299 17.2305C5.63849 17.127 5.41799 17.01 5.20199 17.082C5.06699 17.127 4.94999 17.2035 4.82849 17.262C4.59899 17.5455 4.36049 17.847 4.01399 17.6625C3.94649 17.6265 3.65849 17.379 3.60899 17.4375C3.52799 17.5275 3.44249 17.604 3.32999 17.649C3.02399 17.7705 2.69549 17.748 2.37149 17.748C2.34899 17.748 2.32649 17.73 2.32199 17.7075C2.30399 17.577 2.23199 17.3205 2.05649 17.478L1.93949 17.586C1.88549 17.631 1.83149 17.6895 1.76399 17.7165C1.54799 17.802 0.895486 17.6895 0.805486 17.5365C0.742486 17.424 0.710986 17.307 0.688486 17.181C0.634486 16.866 0.670486 16.524 0.656986 16.2C0.629986 15.39 0.571486 14.598 0.499486 13.7925C0.463486 13.3785 0.431986 12.96 0.463486 12.546C0.481486 12.2805 0.490486 11.9115 0.620986 11.673C0.733486 11.4705 0.652486 11.3265 0.508486 11.1735C0.472486 11.133 0.458986 11.052 0.454486 11.0025C0.431986 10.701 0.481486 10.3905 0.499486 10.089C0.512986 9.8685 0.544486 9.648 0.553486 9.423C0.557986 9.252 0.517486 9.09 0.503986 8.9235C0.499486 8.8425 0.490486 8.748 0.539986 8.676C0.643486 8.532 0.620986 8.4555 0.566986 8.2935C0.454486 7.974 0.566986 7.596 0.589486 7.272C0.611986 6.885 0.629986 6.498 0.589486 6.111C0.544486 5.6835 0.463486 5.265 0.490486 4.833C0.512986 4.446 0.544486 4.086 0.562486 3.6945C0.593986 2.997 0.598486 2.2815 0.580486 1.584C0.580486 1.6245 0.580486 1.7505 0.575986 1.7505C0.575986 1.7505 0.512986 0.854999 0.895486 0.638999C1.47149 0.355499 2.16899 0.413999 2.78999 0.382499C3.60449 0.346499 4.40999 0.427499 5.22449 0.427499C5.69249 0.427499 6.16049 0.413999 6.61949 0.314999C6.94349 0.242999 7.26299 0.206999 7.59599 0.229499C7.99199 0.256499 8.37899 0.355499 8.77499 0.391499C9.16649 0.427499 9.55349 0.409499 9.94499 0.377999C10.7955 0.319499 11.6505 0.341999 12.5055 0.377999L13.833 0.436499C14.0355 0.445499 14.2785 0.494999 14.4765 0.440999L14.8545 0.310499C15.1335 0.238499 15.327 0.305999 15.597 0.368999C15.93 0.449999 16.2675 0.521999 16.6005 0.607499C16.713 0.580499 16.821 0.575999 16.911 0.661499C17.0955 0.832499 16.9155 1.044 17.055 1.2375C17.2215 1.4715 17.37 1.611 17.4015 1.9125C17.433 2.232 17.4555 2.565 17.352 2.871C17.2845 3.078 17.19 3.303 17.2755 3.5145C17.3295 3.6495 17.4195 3.7845 17.451 3.924C17.5185 4.23 17.5185 4.5405 17.5005 4.851C17.4825 5.211 17.469 5.571 17.424 5.931C17.397 6.156 17.307 6.381 17.298 6.6105C17.2935 6.7995 17.352 6.9525 17.388 7.1325C17.505 7.722 16.9965 8.0865 16.902 8.6265C16.8525 8.9145 17.1855 8.793 17.325 8.9595C17.415 9.0675 17.37 9.2565 17.3565 9.3825C17.325 9.6975 17.415 10.008 17.4015 10.3185C17.379 10.7055 17.2665 11.034 17.361 11.4255C17.415 11.646 17.4555 11.8665 17.406 12.087C17.3565 12.303 17.1 12.8655 17.4375 12.9645C17.451 12.969 17.46 12.9825 17.46 12.996C17.46 13.095 17.442 13.167 17.397 13.2615C17.244 13.599 17.478 13.536 17.523 13.7565C17.5635 13.959 17.442 14.0355 17.415 14.2245C17.3655 14.5305 17.523 14.7735 17.5185 15.0705C17.514 15.3495 17.3565 15.507 17.4105 15.759C17.4285 15.759 17.442 15.7725 17.4465 15.795C17.4735 15.9345 17.487 16.083 17.4375 16.2225C17.37 16.4205 17.289 16.4655 17.5095 16.587C17.55 16.6185 17.541 16.6635 17.5095 16.686ZM13.77 7.1955C13.6305 6.3585 13.554 5.49 13.275 4.6845C13.158 4.347 13.095 3.9825 12.7035 3.9195C12.195 3.834 12.366 4.2615 12.429 4.6665C12.5325 5.301 12.573 5.9355 12.735 6.5565C12.8475 6.984 13.0635 7.497 12.492 7.1595C11.529 6.5925 11.2005 5.3235 10.8135 4.3785C10.638 3.9555 10.1385 2.925 9.80099 2.673C9.63899 2.5515 8.82449 2.3715 8.67149 2.475C8.33399 2.7045 9.36899 4.311 9.51299 4.599C9.82799 5.238 10.1655 5.877 10.5705 6.462C10.8585 6.876 11.322 7.2495 10.6695 7.497C9.99449 7.7535 9.67049 7.38 9.20699 7.029C8.84249 6.75 8.37899 6.7185 7.91999 6.66C6.66899 6.5025 5.46749 6.651 4.45949 7.4835C3.96899 7.8885 3.66749 8.451 3.41099 9.0225C3.34349 9.1665 2.92499 10.431 2.98349 10.44C2.73149 10.3995 2.87549 9.8055 2.55149 10.152C2.26349 10.4625 2.63249 11.349 2.76299 11.655C3.05549 12.3435 3.36149 13.0185 3.59099 13.7295C3.82499 14.445 3.86999 14.427 4.53599 14.4855C5.37299 14.562 6.19199 14.3055 7.01549 14.202C7.01549 14.202 5.55299 13.2975 8.44199 14.2875C9.08099 14.508 9.76499 14.4495 10.4355 14.4765C10.917 14.364 10.926 13.5405 11.178 13.1535C11.2725 13.0095 11.7315 12.2805 11.88 12.222C12.087 12.141 12.384 12.357 12.5865 12.3885C13.7925 12.5775 14.1615 11.5875 13.9725 10.62C13.806 9.7695 13.905 8.838 14.0265 8.1765C14.067 7.947 13.8105 7.425 13.77 7.1955ZM8.39699 17.469C8.26649 17.3475 8.06849 17.316 7.94249 17.19C7.87049 17.118 7.85249 17.0325 7.86599 16.9515L7.85699 16.9425C7.76699 16.776 7.97849 16.6275 8.13149 16.6905C8.20799 16.722 8.32949 16.776 8.33849 16.8705C8.35199 16.9875 8.26649 17.073 8.24399 17.181C8.32499 17.2305 8.41499 17.3475 8.45999 17.415C8.49599 17.46 8.43299 17.5005 8.39699 17.469Z" fill="#F87171"/>
</g>
<defs>
<clipPath id="clip0_1285_1346">
<rect width="18" height="18" fill="white"/>
</clipPath>
</defs>
</svg>
