<svg width="24" height="24" viewBox="0 0 24 24" fill="none" xmlns="http://www.w3.org/2000/svg">
<path d="M17.5887 13.0961C17.6871 13.1922 17.7045 13.356 17.5771 13.4407C17.2758 13.6384 16.905 13.6045 16.5574 13.565C15.9665 13.5028 15.2654 13.4802 14.9584 12.9267L14.9352 12.9097C14.547 12.7064 15.2017 12.5595 15.3813 12.5369C15.7984 12.4861 16.233 12.5878 16.6385 12.6781C16.9977 12.7629 17.3221 12.8476 17.5887 13.0961ZM22.9651 21.6649C22.6928 21.8569 22.8145 22.1733 22.6117 22.4048C22.4205 22.6195 21.957 22.6138 21.6963 22.6195C20.6477 22.6308 19.6106 22.5461 18.562 22.6308C18.3013 22.6534 18.0637 22.6873 17.8088 22.7494C17.7335 22.7663 17.6118 22.8115 17.5307 22.772C17.3164 22.6647 17.1252 22.3201 16.8529 22.4331C16.6211 22.5235 16.4531 22.8567 16.1692 22.6534C15.6652 22.2919 15.2365 22.6195 14.7092 22.7212C14.1646 22.8285 13.6374 22.5291 13.0928 22.6816C12.6873 22.7946 12.3049 22.9189 11.8878 22.7833C11.4648 22.6477 11.3548 22.3258 11.7198 22.032C12.2933 21.5745 12.9943 21.5067 13.7127 21.5576C14.7904 21.6423 15.8564 21.5689 16.934 21.518C16.9629 21.518 16.9861 21.535 16.9919 21.5576C17.4496 21.7383 17.7567 21.3712 18.0116 21.0662C18.0463 21.0266 18.1101 21.0436 18.1333 21.0831C18.5156 21.6423 18.9907 21.0097 19.4716 21.0549C19.599 21.0662 19.7265 21.1 19.796 21.2187C19.8308 21.2695 19.8366 21.3429 19.8424 21.3994C19.8655 21.6818 20.2363 21.6254 20.2247 21.3316C20.2247 21.2864 20.2769 21.2413 20.3232 21.2582C20.6998 21.4051 21.2039 21.6084 21.5283 21.213C21.7948 20.8854 21.8354 20.4053 21.8527 19.9986C21.9107 18.9141 21.8296 17.8013 21.7542 16.7225C21.6847 15.6718 21.5688 14.5986 21.6963 13.548C21.8238 12.5087 21.8238 11.4863 21.7948 10.4357C21.7832 9.88779 21.7658 9.33988 21.789 8.79198C21.8122 8.28927 21.9049 7.75266 21.8411 7.24994C21.789 6.79806 21.5167 6.41397 21.453 5.96774C21.395 5.56104 21.453 5.14306 21.5515 4.74766C21.6094 4.49913 21.7311 4.21105 21.7253 3.95122C21.7195 3.73093 21.7021 3.51064 21.7079 3.29035C21.7137 3.18303 21.6905 3.01357 21.7716 2.9232C21.9049 2.77069 21.9686 2.5504 21.6673 2.51651C20.9431 2.43743 20.1958 1.98555 19.5005 2.41483C19.5063 2.56169 19.5237 2.7368 19.4832 2.88366C19.5121 2.92885 19.5469 2.97403 19.5874 3.01357C19.7612 3.087 19.9409 3.11525 20.1262 3.11525C20.3464 3.1209 20.5955 3.05876 20.8099 3.08136C21.0011 3.10395 21.1517 3.26211 21.088 3.46545C21.0474 3.61231 20.9084 3.74223 20.8273 3.87214C20.6882 4.09808 20.7056 4.42005 20.7056 4.67423C20.694 5.32381 20.7056 5.97903 20.7288 6.62861C20.7462 7.17086 20.8041 7.71312 20.8447 8.25537C20.8562 8.26667 20.891 8.28362 20.891 8.30056C20.9142 8.90495 21.1227 9.50934 21.1343 10.1194C21.1401 10.1307 20.9721 10.8706 20.9721 10.8706C20.9663 11.6614 20.8968 13.1244 20.8968 13.1244C20.8852 14.4744 20.6477 15.8018 20.891 17.1461C20.9895 17.6884 20.7809 18.2024 20.7577 18.739C20.7288 19.3264 20.8157 19.9195 20.7288 20.507C20.7462 20.5408 20.7346 20.586 20.6824 20.5917C19.4194 20.8233 18.139 20.8685 16.8587 20.795C16.54 20.7781 16.1518 20.7498 15.8506 20.8685C15.7231 20.9193 15.5609 21.004 15.4161 20.9814C15.2307 20.9532 15.1438 20.8176 14.9642 20.7837C14.7498 20.7442 14.5296 20.699 14.3153 20.6708C13.7475 20.5973 13.2029 20.5634 12.6641 20.7894C12.3686 20.9136 12.0616 20.8685 11.7661 20.7442C11.4185 20.603 11.152 20.4335 10.7696 20.6199C10.6132 20.6934 10.4741 20.7724 10.3003 20.812C10.1555 20.8459 10.028 20.8063 9.89477 20.7611C9.5993 20.6538 9.36756 20.6199 9.0547 20.6764C9.08946 20.7159 9.06629 20.8063 9.00256 20.8063C7.13123 20.7103 5.25411 20.9306 3.38278 20.9419C3.30167 20.9645 3.23215 21.0605 3.17421 21.0605H3.11628C3.07572 21.0605 3.05834 20.908 3.06993 20.8798C2.81501 20.6143 2.87874 19.7275 2.89033 19.462C2.97144 17.7618 2.74549 16.0672 2.69334 14.3727C2.67017 13.5254 2.67017 12.6838 2.80922 11.8422C2.97144 10.8989 2.97144 9.99511 2.94826 9.04052C2.90771 7.17086 3.0931 5.30121 3.03516 3.43156C3.03516 3.39767 3.06993 3.38637 3.0931 3.39767C3.09889 3.39202 3.10469 3.38637 3.11628 3.38637C3.6319 3.34119 4.19388 3.19997 4.70372 3.34119C4.71531 3.34684 4.7211 3.35248 4.72689 3.35813L4.808 3.36943H5.38157C5.40474 3.36943 5.42212 3.38073 5.42792 3.39202C6.436 3.40332 7.44988 3.31294 8.45796 3.26776C8.81137 3.25081 9.17637 3.26776 9.51819 3.16044C9.69779 3.10395 9.90057 3.01922 10.0975 3.03052C10.5552 3.05876 11.0361 3.20562 11.4822 3.296C11.8009 3.36378 12.021 2.82717 12.3049 3.00228C12.7394 3.26776 13.2377 3.17173 13.7301 3.18303C13.9908 3.18868 14.2458 3.13784 14.5065 3.13784C14.6455 3.13784 14.7672 3.17173 14.9004 3.20562C15.0337 3.18303 15.1496 3.19997 15.2886 3.24516C16.0707 3.26211 16.8529 3.16044 17.6408 3.17173C18.1159 3.17738 18.6257 3.21127 19.0776 3.04182C19.1935 2.99663 19.263 2.9345 19.2978 2.85542L19.2456 2.74245C19.2109 2.67466 19.1761 2.60688 19.124 2.5504C18.6257 2.38659 18.0348 2.43743 17.5133 2.41483C16.7833 2.38659 16.0765 2.47697 15.3523 2.53345C14.6803 2.58994 13.985 2.62383 13.3072 2.57864C12.9132 2.5504 12.1601 2.37529 11.824 2.64077C11.7893 2.66337 11.7603 2.66337 11.7255 2.64077C11.0767 2.12111 10.2308 2.89496 9.48922 2.68031C9.04891 2.5504 8.62598 2.47132 8.16249 2.51651C7.7048 2.56169 7.27607 2.62383 6.81258 2.61818C5.81609 2.61253 4.8138 2.67466 3.8173 2.64077C3.60294 2.63513 3.38857 2.62948 3.17421 2.60688C3.0004 2.58429 2.76287 2.50521 2.58906 2.56734C2.31676 2.66902 2.25882 2.75939 2.282 2.83282C2.35732 2.88366 2.0966 3.22822 2.09081 3.39767C2.08502 3.55018 2.07343 3.69704 2.07343 3.8439C2.06184 4.50478 2.01549 5.11481 1.86486 5.75874C1.78375 6.1033 1.61574 6.58342 1.7432 6.92798C1.82431 7.14827 1.99811 7.30078 2.0966 7.50977C2.27041 7.87128 2.282 8.32316 2.26462 8.7129C2.20668 9.99511 2.20668 11.283 2.16033 12.5652C2.11398 13.853 2.03287 15.1409 2.07922 16.4287C2.11978 17.6206 2.31676 18.8406 2.15454 20.0268C2.1024 20.4222 1.62153 21.1226 2.08502 21.3938C2.34573 21.5463 2.67017 21.5858 2.96564 21.6028C3.71301 21.6423 4.46618 21.5689 5.20776 21.4898C5.48006 21.4615 5.75815 21.4051 6.03045 21.3994C6.24481 21.3938 6.436 21.4164 6.63878 21.4898C6.81258 21.5519 7.07909 21.6705 7.29345 21.6705C7.30504 21.6818 7.62369 21.6592 7.64686 21.5689C7.92495 21.4559 8.16249 21.3599 8.52169 21.4333C8.85772 21.5011 9.17637 21.5406 9.52398 21.4728C9.70938 21.439 9.98747 21.422 10.1729 21.4672C10.1902 21.4728 10.2366 21.5237 10.254 21.518C10.3293 21.4898 10.2076 21.6084 10.1381 21.6367C9.72096 21.8005 9.85422 22.3201 9.80207 22.6647C9.79628 22.6929 9.76152 22.7099 9.73255 22.7099C9.56454 22.7099 9.33859 22.7099 9.25168 22.5404C9.06049 22.1846 8.59121 21.953 8.59121 22.676C8.59121 22.7155 8.55645 22.7381 8.52748 22.7381C8.49272 22.7381 8.46376 22.7155 8.46376 22.676C8.46376 22.6364 7.97709 22.3823 7.91916 22.3484C7.68162 22.2184 7.39774 22.0716 7.11964 22.162C6.94584 22.2184 6.7952 22.3145 6.63878 22.3879C6.3433 22.7438 6.03624 23.1222 5.59014 22.8906C5.50323 22.8454 5.13244 22.5348 5.06871 22.6082C4.96443 22.7212 4.85435 22.8172 4.70951 22.8737C4.31555 23.0262 3.89262 22.9979 3.47548 22.9979C3.44651 22.9979 3.41754 22.9753 3.41175 22.9471C3.38857 22.7833 3.29588 22.4613 3.06993 22.659L2.91929 22.7946C2.84977 22.8511 2.78025 22.9245 2.69334 22.9584C2.41525 23.0657 1.57518 22.9245 1.45931 22.7325C1.3782 22.5912 1.33764 22.4444 1.30868 22.2862C1.23915 21.8908 1.2855 21.4615 1.26812 21.0549C1.23336 20.0381 1.15804 19.044 1.06535 18.0329C1.019 17.5133 0.978442 16.9879 1.019 16.4683C1.04217 16.135 1.05376 15.6718 1.22177 15.3725C1.36661 15.1183 1.26233 14.9375 1.07693 14.7455C1.03058 14.6947 1.0132 14.593 1.00741 14.5308C0.978442 14.1524 1.04217 13.7627 1.06535 13.3842C1.08273 13.1074 1.12328 12.8307 1.13487 12.5482C1.14066 12.3336 1.08852 12.1302 1.07114 11.9212C1.06535 11.8196 1.05376 11.701 1.11749 11.6106C1.25074 11.4298 1.22177 11.3338 1.15225 11.1305C1.00741 10.7294 1.15225 10.2549 1.18122 9.84825C1.21019 9.36248 1.23336 8.87671 1.18122 8.39094C1.12328 7.85433 1.019 7.32902 1.05376 6.78677C1.08273 6.301 1.12328 5.84912 1.14646 5.3577C1.18701 4.48218 1.1928 3.58407 1.16963 2.70856C1.16963 2.75939 1.16963 2.91755 1.16384 2.91755C1.16384 2.91755 1.08273 1.7935 1.57518 1.52237C2.31676 1.16652 3.21477 1.23995 4.01428 1.20041C5.06292 1.15522 6.09997 1.25689 7.14861 1.25689C7.75114 1.25689 8.35368 1.23995 8.94462 1.11568C9.36176 1.02531 9.77311 0.980117 10.2018 1.00836C10.7117 1.04225 11.2099 1.16652 11.7198 1.21171C12.2238 1.25689 12.722 1.2343 13.2261 1.19476C14.3211 1.12133 15.4219 1.14957 16.5226 1.19476L18.2317 1.26819C18.4925 1.27949 18.8053 1.34162 19.0602 1.27384L19.5469 1.11003C19.9061 1.01966 20.1552 1.10438 20.5028 1.18346C20.9316 1.28514 21.3661 1.37551 21.7948 1.48283C21.9396 1.44894 22.0787 1.44329 22.1946 1.55061C22.4321 1.76526 22.2003 2.03074 22.38 2.27362C22.5943 2.56734 22.7855 2.74245 22.8261 3.1209C22.8666 3.52194 22.8956 3.93993 22.7623 4.32402C22.6754 4.58385 22.5538 4.86628 22.6638 5.13176C22.7334 5.30121 22.8492 5.47067 22.8898 5.64577C22.9767 6.02987 22.9767 6.41961 22.9535 6.80936C22.9303 7.26124 22.913 7.71312 22.855 8.165C22.8203 8.44742 22.7044 8.72985 22.6928 9.01792C22.687 9.25516 22.7623 9.44721 22.8087 9.67315C22.9593 10.4131 22.3046 10.8706 22.183 11.5484C22.1192 11.9099 22.548 11.7574 22.7276 11.9664C22.8434 12.102 22.7855 12.3392 22.7681 12.4974C22.7276 12.8928 22.8434 13.2825 22.8261 13.6723C22.7971 14.158 22.6522 14.5704 22.7739 15.0618C22.8434 15.3386 22.8956 15.6154 22.8319 15.8921C22.7681 16.1633 22.4379 16.8693 22.8724 16.9936C22.8898 16.9992 22.9014 17.0162 22.9014 17.0331C22.9014 17.1574 22.8782 17.2478 22.8203 17.3664C22.6233 17.79 22.9245 17.711 22.9825 17.9877C23.0346 18.2419 22.8782 18.3379 22.8434 18.5752C22.7797 18.9593 22.9825 19.2643 22.9767 19.6371C22.9709 19.9873 22.7681 20.185 22.8376 20.5013C22.8608 20.5013 22.8782 20.5182 22.884 20.5465C22.9188 20.7216 22.9361 20.908 22.8724 21.0831C22.7855 21.3316 22.6812 21.3881 22.9651 21.5406C23.0172 21.5802 23.0057 21.6367 22.9651 21.6649ZM18.1506 9.75222C17.971 8.70161 17.8725 7.61145 17.5133 6.60037C17.3627 6.17673 17.2816 5.7192 16.7776 5.64012C16.1229 5.5328 16.343 6.06941 16.4241 6.57777C16.5574 7.37421 16.6095 8.17065 16.8181 8.95014C16.9629 9.48675 17.241 10.1307 16.5053 9.70704C15.2654 8.99533 14.8425 7.40245 14.3442 6.21627C14.1183 5.68531 13.4752 4.39181 13.0407 4.07549C12.8321 3.92298 11.7835 3.69704 11.5865 3.82696C11.152 4.11503 12.4845 6.13154 12.6699 6.49304C13.0755 7.29513 13.51 8.09722 14.0314 8.83152C14.4022 9.35118 14.9989 9.82001 14.1589 10.1307C13.2898 10.4526 12.8727 9.98381 12.2759 9.54323C11.8067 9.19302 11.2099 9.15348 10.619 9.08005C9.00835 8.88236 7.46147 9.06876 6.1637 10.1137C5.5322 10.6221 5.14403 11.3282 4.8138 12.0455C4.72689 12.2263 4.18809 13.8135 4.26341 13.8248C3.93896 13.774 4.12436 13.0284 3.70722 13.4633C3.33643 13.853 3.81151 14.9658 3.97952 15.3499C4.3561 16.2141 4.75007 17.0614 5.04554 17.9538C5.34681 18.8519 5.40474 18.8294 6.26219 18.9028C7.3398 18.9988 8.39423 18.6768 9.45446 18.5469C9.45446 18.5469 7.57154 17.4116 11.291 18.6542C12.1137 18.931 12.9943 18.8576 13.8576 18.8915C14.4775 18.7503 14.4891 17.7166 14.8135 17.2308C14.9352 17.0501 15.5261 16.135 15.7173 16.0616C15.9838 15.9599 16.3662 16.231 16.6269 16.2706C18.1796 16.5078 18.6547 15.2652 18.4113 14.0507C18.197 12.9832 18.3244 11.8139 18.4809 10.9836C18.533 10.6955 18.2028 10.0403 18.1506 9.75222ZM11.2331 22.6477C11.0651 22.4952 10.8102 22.4557 10.6479 22.2975C10.5552 22.2071 10.5321 22.0998 10.5494 21.9982L10.5379 21.9869C10.422 21.7779 10.6943 21.5915 10.8913 21.6705C10.9898 21.7101 11.1462 21.7779 11.1578 21.8965C11.1752 22.0433 11.0651 22.1507 11.0361 22.2862C11.1404 22.3484 11.2563 22.4952 11.3142 22.5799C11.3605 22.6364 11.2794 22.6873 11.2331 22.6477Z" fill="#EF4444"/>
</svg>
