<svg width="24" height="24" viewBox="0 0 24 24" fill="none" xmlns="http://www.w3.org/2000/svg">
<path d="M4.24994 1.52001C3.56568 1.52001 2.90945 1.79394 2.42561 2.28153C1.94176 2.76913 1.66994 3.43045 1.66994 4.12001V19.78C1.66863 20.1223 1.7344 20.4615 1.86348 20.7781C1.99255 21.0947 2.18238 21.3825 2.42209 21.625C2.66179 21.8674 2.94665 22.0599 3.26032 22.1911C3.57399 22.3224 3.91029 22.39 4.24994 22.39H19.7299C20.0688 22.39 20.4042 22.3228 20.7173 22.1921C21.0303 22.0614 21.3147 21.8699 21.5543 21.6285C21.7938 21.3871 21.9839 21.1004 22.1136 20.785C22.2432 20.4695 22.3099 20.1314 22.3099 19.79V4.12001C22.3126 3.43217 22.0426 2.7713 21.559 2.28211C21.0755 1.79293 20.4178 1.5153 19.7299 1.51001H4.24994V1.52001ZM4.48994 5.82001H18.3199C19.2699 5.82001 20.0499 6.62001 20.0499 7.60001V10.26C20.0499 10.7294 19.8677 11.1796 19.5432 11.5116C19.2188 11.8435 18.7788 12.03 18.3199 12.03H16.5999V14.53C16.6026 14.9887 16.515 15.4434 16.3423 15.8679C16.1696 16.2924 15.9151 16.6784 15.5936 17.0037C15.272 17.329 14.8897 17.5871 14.4686 17.7632C14.0475 17.9393 13.596 18.03 13.1399 18.03H7.93994C7.48473 18.0287 7.03425 17.937 6.61432 17.7603C6.19439 17.5836 5.81326 17.3253 5.49277 17.0001C5.17227 16.675 4.91872 16.2894 4.74664 15.8656C4.57456 15.4417 4.48732 14.9878 4.48994 14.53V5.83001V5.82001ZM16.5899 7.60001V10.26H18.3199V7.60001H16.5999H16.5899Z" fill="#F87171"/>
</svg>
