<svg width="24" height="24" viewBox="0 0 24 24" fill="none" xmlns="http://www.w3.org/2000/svg">
<path d="M17.7778 7.74707V9.74707H19.7778V19.7471H9.77783V17.7471H7.77783V21.7471H21.7778V7.74707H17.7778Z" fill="#FBBF24"/>
<path d="M6.15771 7H7.82959V12.5781C7.82959 13.0937 7.7137 13.5417 7.48193 13.9219C7.25277 14.3021 6.93376 14.5951 6.5249 14.8008C6.11605 15.0065 5.64079 15.1094 5.09912 15.1094C4.61735 15.1094 4.17985 15.0247 3.78662 14.8555C3.396 14.6836 3.0861 14.4232 2.85693 14.0742C2.62777 13.7227 2.51449 13.2812 2.51709 12.75H4.20068C4.20589 12.9609 4.24886 13.1419 4.32959 13.293C4.41292 13.4414 4.5262 13.556 4.66943 13.6367C4.81527 13.7148 4.98714 13.7539 5.18506 13.7539C5.39339 13.7539 5.56917 13.7096 5.7124 13.6211C5.85824 13.5299 5.96891 13.3971 6.04443 13.2227C6.11995 13.0482 6.15771 12.8333 6.15771 12.5781V7ZM13.5679 9.30078C13.5366 8.98568 13.4025 8.74089 13.1655 8.56641C12.9285 8.39193 12.6069 8.30469 12.2007 8.30469C11.9246 8.30469 11.6916 8.34375 11.5015 8.42187C11.3114 8.4974 11.1655 8.60286 11.064 8.73828C10.965 8.8737 10.9155 9.02734 10.9155 9.19922C10.9103 9.34245 10.9403 9.46745 11.0054 9.57422C11.0731 9.68099 11.1655 9.77344 11.2827 9.85156C11.3999 9.92708 11.5353 9.99349 11.689 10.0508C11.8426 10.1055 12.0067 10.1523 12.1812 10.1914L12.8999 10.3633C13.2489 10.4414 13.5692 10.5456 13.8608 10.6758C14.1525 10.806 14.4051 10.9661 14.6187 11.1562C14.8322 11.3464 14.9976 11.5703 15.1147 11.8281C15.2345 12.0859 15.2957 12.3815 15.2983 12.7148C15.2957 13.2044 15.1707 13.6289 14.9233 13.9883C14.6785 14.3451 14.3244 14.6224 13.8608 14.8203C13.3999 15.0156 12.8439 15.1133 12.1929 15.1133C11.547 15.1133 10.9845 15.0143 10.5054 14.8164C10.0288 14.6185 9.65641 14.3255 9.38818 13.9375C9.12256 13.5469 8.98324 13.0638 8.97021 12.4883H10.6069C10.6252 12.7565 10.702 12.9805 10.8374 13.1602C10.9754 13.3372 11.159 13.4714 11.3882 13.5625C11.62 13.651 11.8817 13.6953 12.1733 13.6953C12.4598 13.6953 12.7085 13.6536 12.9194 13.5703C13.133 13.487 13.2983 13.3711 13.4155 13.2227C13.5327 13.0742 13.5913 12.9036 13.5913 12.7109C13.5913 12.5312 13.5379 12.3802 13.4312 12.2578C13.327 12.1354 13.1733 12.0312 12.9702 11.9453C12.7697 11.8594 12.5236 11.7812 12.2319 11.7109L11.3608 11.4922C10.6864 11.3281 10.1538 11.0716 9.76318 10.7227C9.37256 10.3737 9.17855 9.90365 9.18115 9.3125C9.17855 8.82812 9.30745 8.40495 9.56787 8.04297C9.83089 7.68099 10.1916 7.39844 10.6499 7.19531C11.1082 6.99219 11.6291 6.89062 12.2124 6.89062C12.8062 6.89062 13.3244 6.99219 13.7671 7.19531C14.2124 7.39844 14.5588 7.68099 14.8062 8.04297C15.0535 8.40495 15.1812 8.82422 15.189 9.30078H13.5679Z" fill="#FBBF24"/>
</svg>
