<svg width="24" height="25" viewBox="0 0 24 25" fill="none" xmlns="http://www.w3.org/2000/svg">
<mask id="mask0_803_1060" style="mask-type:luminance" maskUnits="userSpaceOnUse" x="1" y="2" width="21" height="21">
<path d="M1.38159 2.0658H21.9682V22.6524H1.38159V2.0658Z" fill="white"/>
</mask>
<g mask="url(#mask0_803_1060)">
<path fill-rule="evenodd" clip-rule="evenodd" d="M16.6427 18.2818L14.86 18.5492L12.4534 18.8166L10.8935 18.8611L9.3784 18.8166L8.2195 18.46L7.19459 17.346L6.39233 15.073L6.21415 14.5827L5.14448 14.2263L4.52055 13.2013L4.07495 11.7306L4.56531 10.4381L5.72393 10.037L6.65975 10.4828L7.10549 11.4632L7.64033 11.374L7.81851 11.1512L7.64033 10.1263L7.59571 8.83364L7.86313 7.05109L7.85258 6.03288L8.66524 4.73371L10.0914 3.7088L12.5871 2.63913L15.3501 3.04026L17.7567 4.77833L18.871 6.56087L19.584 7.85334L19.7622 11.0621L19.2274 13.8252L18.2471 16.2763L17.3111 17.5686" fill="#F0D6B7"/>
<path fill-rule="evenodd" clip-rule="evenodd" d="M15.1281 25.9915L8.75495 26.259V27.3285L9.28979 31.072L9.02237 31.3842L4.56579 29.8689L4.25361 29.3341L3.80801 24.2982L2.7831 21.2677L2.5603 20.5547L6.1254 18.1036L7.23982 17.6578L8.22012 18.8611L9.06685 19.6187L10.0476 19.9306L10.493 20.0643L11.0279 22.3817L11.429 22.872L12.4539 22.5154L11.7409 23.8971L15.6181 25.7243L15.1279 25.9917" fill="#335061"/>
<path fill-rule="evenodd" clip-rule="evenodd" d="M4.56602 10.438L5.72464 10.0368L6.6606 10.4826L7.10634 11.463L7.64104 11.3738L7.77475 10.8391L7.50733 9.81418L7.77475 7.3628L7.55195 6.02586L8.35406 5.09004L10.0921 3.70847L9.60177 3.03993L7.15082 4.24331L6.12577 5.04542L5.54646 6.29327L4.65511 7.49665L4.3877 8.92283L4.56602 10.438Z" fill="#6D6B6D"/>
<path fill-rule="evenodd" clip-rule="evenodd" d="M6.39294 6.24954C6.39294 6.24954 7.06148 4.6007 9.73537 3.79845C12.4094 2.9962 9.86908 3.219 9.86908 3.219L6.97239 4.33328L5.85811 5.44743L5.36803 6.33877L6.39294 6.24954ZM5.056 10.1261C5.056 10.1261 4.12003 7.00632 7.68541 6.56072L7.5517 6.02588L5.10061 6.60534L4.38745 8.92272L4.56578 10.438L5.056 10.1261Z" fill="#DCD9D8"/>
<path fill-rule="evenodd" clip-rule="evenodd" d="M6.48218 14.2708L7.06576 13.7054C7.06576 13.7054 7.32905 13.7359 7.37366 14.0478C7.41814 14.36 7.55185 17.1676 9.4681 18.6829C9.64301 18.8212 8.04207 18.4599 8.04207 18.4599L6.61603 16.2318M14.6826 13.424C14.6826 13.424 14.7865 12.0731 15.1502 12.1771C15.5141 12.281 15.5141 12.6446 15.5141 12.6446C15.5141 12.6446 14.6306 13.2162 14.6826 13.424Z" fill="#F7E4CD"/>
<path d="M18.3818 8.47722C18.3818 8.47722 17.6473 8.63231 17.5796 9.27947C17.512 9.92664 18.3818 9.41318 18.5156 9.36857M12.9889 8.52184C12.9889 8.52184 12.0083 8.65555 12.0083 9.27933C12.0083 9.9034 13.1226 9.85878 13.4345 9.59151" fill="#F7E4CD"/>
<path fill-rule="evenodd" clip-rule="evenodd" d="M6.9277 11.4186C6.9277 11.4186 5.2341 10.3935 5.05592 11.3741C4.87773 12.3544 4.47646 13.0676 5.32333 14.0925L4.74402 13.9143L4.20919 12.5329L4.03101 11.1958L5.05592 10.1261L6.21468 10.2153L6.88322 10.75L6.9277 11.4186ZM7.72995 8.61098C7.72995 8.61098 8.48759 4.68924 12.3204 3.9316C15.4758 3.30796 17.1335 4.06531 17.7574 4.77833C17.7574 4.77833 14.9498 1.43604 12.2758 2.46095C9.60173 3.486 7.641 5.35778 7.68547 6.56087C7.76131 8.61027 7.72995 8.61098 7.72995 8.61098ZM18.0696 5.22322C18.0696 5.22322 16.7772 5.17874 16.7325 6.3375C16.7325 6.3375 16.7325 6.51568 16.8216 6.69387C16.8216 6.69387 17.8468 5.53511 18.4706 6.15918" fill="#F7E4CD"/>
<path fill-rule="evenodd" clip-rule="evenodd" d="M12.4103 6.81546C12.4103 6.81546 12.1879 5.0369 10.6714 6.07094C9.69092 6.73948 9.78015 7.6753 9.95833 7.85348C10.1365 8.03167 10.0881 8.39088 10.2238 8.14428C10.3595 7.89796 10.3147 7.0957 10.8051 6.87305C11.2953 6.6501 12.0991 6.40122 12.4103 6.81546Z" fill="#F7E4CD"/>
<path fill-rule="evenodd" clip-rule="evenodd" d="M8.22026 18.8611L4.0311 20.7329C4.0311 20.7329 5.76917 27.6407 4.87783 29.7799L4.2539 29.5571L4.20928 26.9277L3.05066 21.9364L2.5603 20.5549L6.92779 17.6137L8.22026 18.8614M8.65104 22.6818L9.24546 23.4069V26.0811H8.53229C8.53229 26.0811 8.4432 24.2092 8.4432 23.9862C8.4432 23.7634 8.53215 22.9613 8.53215 22.9613M8.66586 26.4821L6.66037 26.5712L7.23982 26.9722L8.66586 27.1951" fill="#49728B"/>
<path fill-rule="evenodd" clip-rule="evenodd" d="M15.9744 26.0363L18.4701 25.9026C18.4701 25.9026 19.495 23.3178 19.495 23.1842C19.495 23.0504 20.3863 19.4405 20.3863 19.4405L18.3808 17.346L17.9799 16.9894L16.9102 18.059V22.2037L15.9744 26.0363Z" fill="#335061"/>
<path fill-rule="evenodd" clip-rule="evenodd" d="M17.089 25.7243L15.5293 26.0362L15.7521 27.2842C16.3314 27.5516 17.312 26.8384 17.312 26.8384M17.1332 17.9253L20.2529 20.2427L20.3421 19.1731L17.9801 16.9893L17.1332 17.9253Z" fill="#49728B"/>
<path d="M15.873 25.6802L14.8926 23.1845L13.8677 21.7139C13.8677 21.7139 14.0903 21.0899 14.4022 21.0899H15.4274L16.4079 21.4464L16.3188 23.0954L15.873 25.6804" fill="white"/>
<path fill-rule="evenodd" clip-rule="evenodd" d="M16.064 24.8329C16.064 24.8329 14.816 22.4265 14.816 22.07C14.816 22.07 15.0388 21.5351 15.3509 21.6688C15.663 21.8025 16.3314 22.1591 16.3314 22.1591V21.3123L14.8162 21.0001L13.7913 21.134L15.5293 25.2341L15.8857 25.2787" fill="#DCD9D8"/>
<path d="M10.6135 18.9507L9.37887 18.8165L8.21997 18.4599V18.8611L8.78617 19.4854L10.5689 20.2875" fill="white"/>
<path fill-rule="evenodd" clip-rule="evenodd" d="M8.6215 19.0843C8.6215 19.0843 10.0032 19.6638 10.4488 19.5301L10.4931 20.0643L9.24557 19.7975L8.48779 19.2626L8.6215 19.0843Z" fill="#DCD9D8"/>
<path fill-rule="evenodd" clip-rule="evenodd" d="M17.6506 21.2416C16.8944 21.2194 16.2112 21.1296 15.613 20.9608C15.6537 20.7156 15.5775 20.475 15.6387 20.2984C15.8055 20.1782 16.0849 20.1801 16.3369 20.152C16.1189 20.0448 15.8127 20.0025 15.5614 20.0643C15.5555 19.8941 15.479 19.7886 15.4329 19.6555C15.8579 19.5038 16.8617 18.5089 17.4262 18.8384C17.6952 18.9951 17.8095 19.89 17.8304 20.3252C17.8477 20.6863 17.7976 21.0505 17.6506 21.2418" fill="#D33833"/>
<path d="M17.6506 21.2416C16.8944 21.2194 16.2112 21.1296 15.613 20.9608C15.6537 20.7156 15.5775 20.475 15.6387 20.2984C15.8055 20.1782 16.0849 20.1801 16.3369 20.152C16.1189 20.0448 15.8127 20.0025 15.5614 20.0643C15.5555 19.8941 15.479 19.7886 15.4329 19.6555C15.8579 19.5038 16.8617 18.5089 17.4262 18.8384C17.6952 18.9951 17.8095 19.89 17.8304 20.3252C17.8477 20.6863 17.7976 21.0505 17.6506 21.2418V21.2416Z" stroke="#D33833" stroke-width="0.285093"/>
<path fill-rule="evenodd" clip-rule="evenodd" d="M14.0341 20.0055C14.0321 20.0626 14.0298 20.1203 14.0274 20.1779C13.7913 20.3332 13.4101 20.3313 13.151 20.4616C13.533 20.4783 13.8338 20.5704 14.0938 20.6999L14.077 21.1323C13.6442 21.4285 13.2488 21.8697 12.7393 22.1475C12.4984 22.2789 11.6528 22.6171 11.3965 22.5573C11.2516 22.5237 11.2384 22.3436 11.1804 22.174C11.057 21.8108 10.7726 21.2325 10.7478 20.6858C10.7161 19.995 10.6466 18.8374 11.3907 18.9797C11.9912 19.0943 12.6897 19.371 13.1547 19.625C13.4388 19.7804 13.603 19.9722 14.0341 20.0055Z" fill="#D33833"/>
<path d="M14.0341 20.0055C14.0321 20.0626 14.0298 20.1203 14.0274 20.1779C13.7913 20.3332 13.4101 20.3313 13.151 20.4616C13.533 20.4783 13.8338 20.5704 14.0938 20.6999L14.077 21.1323C13.6442 21.4285 13.2488 21.8697 12.7393 22.1475C12.4984 22.2789 11.6528 22.6171 11.3965 22.5573C11.2516 22.5237 11.2384 22.3436 11.1804 22.174C11.057 21.8108 10.7726 21.2325 10.7478 20.6858C10.7161 19.995 10.6466 18.8374 11.3907 18.9797C11.9912 19.0943 12.6897 19.371 13.1547 19.625C13.4388 19.7804 13.603 19.9722 14.0341 20.0055Z" stroke="#D33833" stroke-width="0.285093"/>
<path fill-rule="evenodd" clip-rule="evenodd" d="M14.4639 20.8295C14.3979 20.4532 14.3215 20.3458 14.351 20.0177C15.3545 19.3487 15.5428 21.1668 14.4639 20.8295Z" fill="#D33833"/>
<path d="M14.4639 20.8295C14.3979 20.4532 14.3215 20.3458 14.351 20.0177C15.3545 19.3487 15.5428 21.1668 14.4639 20.8295Z" stroke="#D33833" stroke-width="0.285093"/>
<path fill-rule="evenodd" clip-rule="evenodd" d="M15.9172 21.1344C15.9172 21.1344 15.605 20.6887 15.828 20.555C16.0509 20.4213 16.2737 20.555 16.4074 20.3322C16.5411 20.1094 16.4074 19.9757 16.452 19.7082C16.4966 19.4408 16.7196 19.3962 16.9424 19.3517C17.165 19.3071 17.7891 19.218 17.8782 19.4408L17.6108 18.6387L17.076 18.4605L15.3825 19.4408L15.2933 19.9312V20.9115M11.2375 22.6052C11.1839 21.9096 11.1273 21.2151 11.0643 20.5203C10.97 19.4827 11.3135 19.6638 12.2128 19.6638C12.3502 19.6638 13.0586 19.8277 13.1093 19.9312C13.3523 20.4277 12.7029 20.3174 13.3893 20.6917C13.9687 21.0076 14.9923 20.4998 14.7581 19.7975C14.6271 19.6414 14.0755 19.7489 13.8778 19.6464L12.8333 19.1047C12.3903 18.8749 11.3665 18.5399 10.8943 18.8611C9.6976 19.675 10.9698 21.7083 11.3966 22.5573" fill="#EF3D3A"/>
<path fill-rule="evenodd" clip-rule="evenodd" d="M12.4102 6.81546C11.1955 6.5325 10.592 7.32378 10.2238 8.14442C9.89508 8.06474 10.0258 7.61771 10.1089 7.38978C10.3263 6.79194 11.2025 5.99596 11.9184 6.10401C12.2264 6.15033 12.6434 6.43215 12.4102 6.81546ZM18.329 8.19816L18.3866 8.20044C18.6611 8.77063 18.8988 9.37474 19.245 9.87807C19.0129 10.4183 17.4885 10.8964 17.5121 9.92625C17.8418 9.78228 18.4108 9.89689 18.7032 9.71286C18.5341 9.24901 18.2902 8.85416 18.329 8.19816ZM13.032 8.21384C13.2924 8.69137 13.3772 9.19285 13.7474 9.55378C13.9142 9.71628 14.2383 9.91428 14.0775 10.366C14.0401 10.4725 13.7655 10.7101 13.6071 10.7567C13.0284 10.9278 11.6798 10.7921 12.1365 10.0705C12.6152 10.0929 13.2585 10.3813 13.6161 10.0339C13.3414 9.59469 12.8516 8.72573 13.032 8.21384ZM18.1109 13.0657C17.2395 13.6255 16.2678 14.2342 14.8399 14.093C14.5348 13.8279 14.4185 13.2375 14.7149 12.8476C14.8691 13.1129 14.7722 13.6008 15.2022 13.6742C16.0125 13.8128 16.9554 13.1786 17.5381 12.9569C17.8995 12.3476 17.5069 12.1235 17.1814 11.7315C16.5149 10.9281 15.6209 9.93224 15.6533 8.72943C15.9227 8.53414 15.9459 9.02764 15.9847 9.11744C16.3325 9.93196 17.2084 10.9735 17.8478 11.6707C18.0046 11.8425 18.2631 12.0071 18.2918 12.1208C18.3748 12.4508 18.0761 12.8463 18.1108 13.0658M6.62278 12.4764C6.34966 12.3205 6.28466 11.634 5.96393 11.6143C5.50564 11.5865 5.58918 12.5052 5.59103 13.0423C5.27557 12.7559 5.22012 11.8743 5.4519 11.4216C5.18776 11.2919 5.06988 11.5645 4.92334 11.6606C5.1115 10.2929 6.92412 11.0263 6.62278 12.4764ZM18.6654 13.6353C18.2597 14.4075 17.686 15.2578 16.4956 15.2824C16.4713 15.033 16.4528 14.6537 16.4968 14.5036C17.4069 14.416 17.9688 13.9529 18.6654 13.6353ZM12.9634 14.1359C13.7226 14.5351 15.1178 14.5781 16.1497 14.5479C16.2051 14.774 16.2038 15.0532 16.2059 15.3291C14.8795 15.3951 13.3112 15.0668 12.9634 14.1359ZM12.819 14.8803C13.344 16.1984 15.1484 16.0466 16.67 16.0103C16.603 16.1813 16.4578 16.3838 16.2773 16.4567C15.7898 16.6552 14.4449 16.8057 13.7679 16.4462C13.3387 16.218 13.0629 15.7022 12.8277 15.3999C12.7141 15.2539 12.1483 14.881 12.819 14.8803Z" fill="#231F20"/>
<path fill-rule="evenodd" clip-rule="evenodd" d="M18.0483 22.1512C17.4322 23.2064 16.8428 24.2901 16.1118 25.2208C16.4183 24.3199 16.5494 22.8118 16.5956 21.6621C17.2368 21.3621 17.7857 21.7299 18.0483 22.1512Z" fill="#81B0C4"/>
<path fill-rule="evenodd" clip-rule="evenodd" d="M15.8401 18.8058C15.5228 19.0129 15.2527 19.2715 14.9479 19.4926C14.2722 19.5261 13.9035 19.4458 13.407 19.0578C13.4151 19.0266 13.465 19.0406 13.4669 19.0022C14.1903 19.3247 15.1097 18.8711 15.8401 18.8058Z" fill="#F0D6B7"/>
<path fill-rule="evenodd" clip-rule="evenodd" d="M12.0434 23.7362C12.2421 22.8752 13.0208 22.429 13.7278 21.9548C14.4577 22.881 14.9016 24.0723 15.3904 25.2219C14.2354 24.8737 13.0556 24.3088 12.0434 23.7362Z" fill="#81B0C4"/>
<path fill-rule="evenodd" clip-rule="evenodd" d="M16.1039 30.6158C16.0744 31.32 16.1732 32.4489 16.2062 33.1875C16.6742 33.188 16.8749 33.0851 17.2243 32.9672C17.2637 32.0983 16.9492 31.2942 16.8585 30.5006C16.6735 30.4513 16.3341 30.6309 16.1039 30.6158ZM8.81548 26.6116C9.1241 29.4492 9.57112 31.8344 10.3912 34.3471C12.2109 34.8996 14.4049 34.9478 16.0134 34.4491C15.718 33.0311 15.847 31.3046 15.6744 29.7911C15.5444 28.6536 15.6107 27.5091 15.4324 26.3486C13.4833 25.9432 10.7282 26.2538 8.81548 26.6116ZM15.8931 26.3665C15.8767 27.5851 15.9477 28.7872 16.0407 30.0074C16.5086 29.9371 16.8262 29.8902 17.2609 29.795C17.1198 28.6203 17.1371 27.2984 16.8496 26.2593C16.5171 26.2625 16.2245 26.2554 15.8931 26.3665ZM18.2669 26.17C18.0448 26.1191 17.7862 26.168 17.5741 26.1722C17.6739 27.1656 17.9158 28.2618 18.001 29.3045C18.3349 29.3149 18.5132 29.1574 18.7879 29.1045C18.8024 28.1892 18.7078 26.9281 18.2669 26.17ZM21.8612 29.454C22.5571 29.285 22.9947 28.4327 22.8 27.5574C22.6695 26.9691 22.4368 25.8614 22.1878 25.4851C22.0039 25.2067 21.505 24.8422 21.1067 25.0974C20.4588 25.5122 19.3175 25.6326 18.8449 26.1348C19.0818 26.9237 19.1554 28.0072 19.2532 29.0066C20.0626 29.057 21.0585 28.7839 21.7316 29.0737C21.2617 29.2259 20.6518 29.2272 20.2459 29.449C20.5777 29.6094 21.3546 29.5769 21.8612 29.454ZM15.3897 25.2218C14.9008 24.0725 14.4571 22.8812 13.7272 21.9549C13.0202 22.4292 12.2414 22.8752 12.0427 23.7363C13.0548 24.3089 14.235 24.8739 15.3899 25.222L15.3897 25.2218ZM16.5947 21.6623C16.5484 22.8119 16.4172 24.3199 16.1107 25.221C16.8417 24.2901 17.4311 23.2065 18.0472 22.1514C17.7847 21.7298 17.2357 21.3622 16.5947 21.6623ZM15.2288 21.1769C14.9518 21.147 14.7168 21.4952 14.3568 21.3447C14.2742 21.4359 14.1993 21.5347 14.1152 21.6238C14.9105 22.5821 15.2718 23.9419 15.8861 25.0681C16.2156 23.9862 16.1776 22.8011 16.2503 21.6202C15.7974 21.6489 15.5461 21.2107 15.2288 21.1769ZM14.3506 20.0177C14.3209 20.346 14.3973 20.4533 14.4633 20.8295C15.5424 21.1669 15.354 19.3487 14.3506 20.0177ZM13.154 19.625C12.6892 19.371 11.9907 19.0943 11.3902 18.9797C10.6458 18.8373 10.7156 19.9951 10.7473 20.6857C10.7719 21.2325 11.0563 21.8108 11.1799 22.174C11.2378 22.3437 11.2509 22.5237 11.3959 22.5575C11.6522 22.6171 12.4977 22.2789 12.7387 22.1476C13.2483 21.8697 13.6435 21.4285 14.0763 21.1323C14.082 20.9882 14.0874 20.8442 14.0933 20.7001C13.833 20.5704 13.5324 20.4784 13.1503 20.4616C13.4095 20.3313 13.7906 20.3332 14.0267 20.1781C14.029 20.1203 14.0314 20.0626 14.0334 20.0056C13.6023 19.9722 13.4383 19.7804 13.154 19.625ZM8.71342 18.8183C8.32755 19.21 9.79563 19.744 10.263 19.7728C10.2605 19.5249 10.4043 19.2913 10.3754 19.1134C9.82015 19.0159 9.09074 19.0803 8.71342 18.8183ZM13.4666 19.0022C13.4648 19.0407 13.4149 19.0267 13.4068 19.0578C13.9031 19.4458 14.272 19.5261 14.9477 19.4926C15.2523 19.2715 15.5226 19.0129 15.8399 18.8058C15.1095 18.8711 14.1901 19.3247 13.4668 19.0024L13.4666 19.0022ZM17.8294 20.3253C17.8086 19.8901 17.6943 18.9951 17.4253 18.8384C16.8607 18.5089 15.857 19.5038 15.4319 19.6555C15.4781 19.7886 15.5545 19.8941 15.5604 20.0643C15.8118 20.0025 16.118 20.0448 16.3358 20.152C16.0839 20.1802 15.8045 20.1784 15.6378 20.2984C15.5766 20.475 15.6527 20.7156 15.6121 20.9608C16.2102 21.1296 16.8935 21.2194 17.6497 21.2416C17.7968 21.0505 17.8468 20.6864 17.8294 20.3253ZM8.06383 19.1971C7.94267 19.1107 7.12303 18.0443 7.0107 18.0885C5.5275 18.6734 4.14066 19.6849 2.90136 20.6415C4.08308 23.177 4.55989 26.2834 4.64428 29.2773C5.9979 29.9103 7.18674 30.823 9.0236 30.9183C8.81106 29.4144 8.61706 28.0727 8.49632 26.6568C8.0349 26.4623 7.37277 26.6657 6.94071 26.5965C6.93714 26.0761 7.60041 26.3685 7.65558 26.0186C7.6972 25.7538 7.29066 25.7338 7.42309 25.3169C7.76064 25.4396 7.93796 25.7107 8.29804 25.8125C8.62718 25.0927 8.29348 23.819 8.3408 23.2175C8.34993 23.1046 8.39739 22.5917 8.65041 22.6816C8.87421 22.7613 8.63758 24.0457 8.6621 24.615C8.68448 25.1396 8.59881 25.6473 8.81121 25.9766C10.6346 25.7268 12.4703 25.5764 14.3101 25.5261C13.8876 25.3448 13.3857 25.1733 12.8354 24.8632C12.5371 24.695 11.5967 24.345 11.5108 24.0618C11.3733 23.6103 11.8711 23.3697 11.9562 22.9827C11.0603 23.4713 10.8855 22.5143 10.6736 21.8363C10.4816 21.2222 10.3722 20.7635 10.3251 20.4094C9.5533 20.0415 8.7281 19.6689 8.06383 19.1971ZM17.0456 18.2175C18.2814 17.6182 18.5041 20.457 18.0197 21.3716C18.0946 21.6445 18.352 21.7488 18.4572 21.994C17.7676 23.2294 17.0017 24.3825 16.2979 25.6033C16.8213 25.2774 17.569 25.545 18.1849 25.3011C18.4102 25.2121 18.5729 24.6967 18.7434 24.2843C19.2124 23.1499 19.7046 21.7199 19.9237 20.6371C19.973 20.3905 20.1079 19.8531 20.0777 19.6336C20.0238 19.2404 19.4904 18.9489 19.2193 18.7059C18.7195 18.2568 18.4047 17.8618 17.8834 17.442C17.672 17.7541 17.2183 17.9638 17.0456 18.2175ZM5.23756 7.25879C4.64884 7.90667 4.772 9.12074 4.84328 9.98443C5.90767 9.31488 7.32031 10.0375 7.30705 11.1761C7.81523 11.1627 7.49693 10.5415 7.40498 10.1414C7.10464 8.83436 7.91102 7.41445 7.44147 6.21906C6.52989 6.28819 5.78081 6.66052 5.23756 7.25879ZM9.45096 3.49841C8.11786 3.87616 6.40944 4.84491 5.86163 6.04244C6.28585 5.98086 6.58021 5.7669 6.99873 5.74039C7.15695 5.73012 7.36407 5.80681 7.54582 5.76148C7.90789 5.67168 8.21365 4.85959 8.48691 4.55739C8.75319 4.26232 9.07335 4.13631 9.29244 3.86732C9.43328 3.79933 9.6414 3.80403 9.64938 3.59263C9.58837 3.52749 9.52408 3.4776 9.45096 3.49841ZM16.3903 3.85378C15.0066 3.07305 12.6647 2.4859 11.1927 3.21959C10.0052 3.81187 8.39982 4.79145 7.85244 6.03304C8.36375 7.23114 7.70105 8.32889 7.65857 9.54539C7.63619 10.1925 7.96348 10.7576 7.98857 11.4621C7.81352 11.7507 7.27897 11.7864 6.90892 11.7665C6.78448 11.1433 6.56638 10.4427 5.92449 10.3724C5.01633 10.2731 4.3522 11.0247 4.31101 11.81C4.26226 12.7337 5.0206 14.2647 6.09526 14.1585C6.5105 14.1176 6.61257 13.7013 7.06487 13.7056C7.31005 14.1948 6.68669 14.3485 6.62254 14.6983C6.60587 14.7887 6.67429 15.1419 6.71406 15.3075C6.90935 16.1141 7.3444 17.1581 7.77275 17.7722C8.31643 18.5511 9.38453 18.6685 10.5339 18.7448C10.7392 18.3027 11.4951 18.3391 11.9879 18.4547C11.3973 18.2209 10.8485 17.654 10.3935 17.1522C9.87104 16.5765 9.34176 15.959 9.31497 15.2065C10.3024 16.5764 11.1182 17.7727 12.9137 18.3753C14.2722 18.8309 15.859 18.1665 16.903 17.4333C17.3362 17.1287 17.5948 16.6452 17.9027 16.2026C19.0548 14.5454 19.5924 12.1801 19.4741 9.88735C19.4254 8.94184 19.4275 7.99947 19.1103 7.36342C18.7788 6.6983 17.6574 6.10331 17.0007 6.70486C16.8791 6.05812 17.5466 5.65799 18.3308 5.89091C17.7717 5.1692 17.1848 4.30223 16.3901 3.85392L16.3903 3.85378ZM18.9681 25.1873C20.0493 24.6499 22.0695 23.7406 22.7473 25.1893C22.9975 25.7233 23.291 26.626 23.4205 27.1773C23.6036 27.955 23.2221 29.5896 22.4227 29.8506C21.7167 30.0811 20.8927 30.067 20.0422 29.8962C19.9421 29.8128 19.8306 29.6677 19.7528 29.5163C19.1454 29.4928 18.5768 29.549 18.0971 29.7986C18.1426 30.2476 17.8388 30.3197 17.554 30.4122C17.3431 31.2493 17.9764 32.3424 17.8249 33.1058C17.7165 33.6496 17.0476 33.7337 16.5559 33.8353C16.5398 34.1375 16.5773 34.3898 16.6109 34.6454C16.4985 35.0598 15.9941 35.2956 15.5163 35.3535C13.9442 35.5425 11.5571 35.6274 10.0448 35.0836C9.62287 34.0486 9.29045 32.7896 8.93893 31.6078C7.46414 31.7653 6.27117 30.9714 5.14676 30.4513C4.75746 30.2708 4.21878 30.1713 4.07338 29.8614C3.93226 29.5614 3.99013 28.9862 3.95507 28.4431C3.86598 27.0557 3.78971 25.7176 3.42337 24.297C3.25887 23.6595 2.97221 23.097 2.77222 22.4828C2.58733 21.9134 2.26432 21.2098 2.17993 20.6425C2.05492 19.801 2.8472 19.7541 3.35381 19.3895C4.13696 18.8259 4.75162 18.514 5.59977 18.0052C5.85094 17.8546 6.60857 17.4731 6.69467 17.2974C6.86601 16.9491 6.40074 16.458 6.2763 16.1851C6.07958 15.7531 5.97695 15.3865 5.94873 14.9606C5.23713 14.8481 4.69788 14.4246 4.37216 13.9472C3.83319 13.1571 3.45943 11.6953 3.9257 10.5833C3.96234 10.4957 4.14466 10.3235 4.1716 10.1891C4.22462 9.92427 4.07181 9.57204 4.06212 9.29037C4.01323 7.84495 4.30673 6.5998 5.27961 6.16403C5.67461 4.5906 7.08824 4.06717 8.4202 3.2853C8.91812 2.99308 9.46692 2.80635 10.0338 2.59766C12.067 1.84929 15.1869 1.99027 16.8742 3.26649C17.5898 3.80774 18.7336 4.95039 19.1427 5.77773C20.2232 7.96198 20.1465 11.6123 19.3907 14.2694C19.2892 14.6262 19.1418 15.1505 18.936 15.579C18.7926 15.8783 18.3467 16.477 18.4009 16.7411C18.4566 17.0143 19.4175 17.7438 19.6235 17.9425C19.9946 18.3003 20.6995 18.7754 20.7565 19.2272C20.8178 19.7078 20.5448 20.3652 20.4064 20.8291C19.9438 22.3769 19.4924 23.8076 18.9679 25.1876" fill="#231F20"/>
<path fill-rule="evenodd" clip-rule="evenodd" d="M11.7554 14.4731C11.814 14.395 12.1365 14.2764 12.5878 14.4936C12.5878 14.4936 12.053 14.5829 12.0975 15.4745L11.8745 15.4299C11.8745 15.4299 11.6443 14.6213 11.7554 14.4731Z" fill="#F7E4CD"/>
<path fill-rule="evenodd" clip-rule="evenodd" d="M15.6635 22.1368C15.6634 22.2018 15.6376 22.2642 15.5916 22.3102C15.5456 22.3561 15.4832 22.3819 15.4182 22.3819C15.3532 22.3819 15.2908 22.356 15.2449 22.3101C15.1989 22.2641 15.1731 22.2017 15.1731 22.1367C15.1731 22.0716 15.199 22.0093 15.245 21.9633C15.291 21.9174 15.3533 21.8915 15.4183 21.8916C15.4834 21.8916 15.5457 21.9174 15.5917 21.9634C15.6377 22.0094 15.6635 22.0718 15.6635 22.1368ZM15.9086 23.2732C15.9086 23.3054 15.9023 23.3373 15.89 23.367C15.8777 23.3968 15.8596 23.4238 15.8368 23.4466C15.8141 23.4693 15.787 23.4874 15.7573 23.4997C15.7275 23.512 15.6957 23.5184 15.6635 23.5184C15.6313 23.5184 15.5994 23.512 15.5696 23.4997C15.5399 23.4874 15.5129 23.4693 15.4901 23.4466C15.4673 23.4238 15.4493 23.3968 15.4369 23.367C15.4246 23.3373 15.4183 23.3054 15.4183 23.2732C15.4183 23.2082 15.4441 23.1458 15.4901 23.0998C15.5361 23.0538 15.5984 23.028 15.6635 23.028C15.7285 23.028 15.7908 23.0538 15.8368 23.0998C15.8828 23.1458 15.9086 23.2082 15.9086 23.2732Z" fill="#1D1919"/>
<path d="M11.0928 22.3536H3.28739C3.22548 22.3536 3.17529 22.4038 3.17529 22.4657V22.7114C3.17529 22.7733 3.22548 22.8235 3.28739 22.8235H11.0928C11.1547 22.8235 11.2049 22.7733 11.2049 22.7114V22.4657C11.2049 22.4038 11.1547 22.3536 11.0928 22.3536Z" fill="black"/>
<path d="M19.4642 22.3535H12.5556C12.4938 22.3535 12.4436 22.4037 12.4436 22.4656V22.7113C12.4436 22.7732 12.4938 22.8233 12.5556 22.8233H19.4642C19.526 22.8233 19.5762 22.7732 19.5762 22.7113V22.4656C19.5762 22.4037 19.526 22.3535 19.4642 22.3535Z" fill="black"/>
<path d="M10.8792 22.1254H3.28733C3.22546 22.1254 3.17529 22.1756 3.17529 22.2375V22.4832C3.17529 22.5451 3.22546 22.5953 3.28733 22.5953H10.8792C10.9411 22.5953 10.9913 22.5451 10.9913 22.4832V22.2375C10.9913 22.1756 10.9411 22.1254 10.8792 22.1254Z" fill="black"/>
<path d="M19.4642 22.1254H13.239C13.1771 22.1254 13.127 22.1756 13.127 22.2375V22.4832C13.127 22.5451 13.1771 22.5953 13.239 22.5953H19.4642C19.526 22.5953 19.5762 22.5451 19.5762 22.4832V22.2375C19.5762 22.1756 19.526 22.1254 19.4642 22.1254Z" fill="black"/>
</g>
</svg>
