<svg width="24" height="25" viewBox="0 0 24 25" fill="none" xmlns="http://www.w3.org/2000/svg">
<path d="M14.4201 7.95288L13.2517 10.4149C13.6355 10.786 13.9065 11.2749 14.0137 11.8285H14.8943C14.9959 11.3043 15.2443 10.8331 15.5999 10.4679L14.4201 7.95288Z" fill="#F472B6"/>
<path d="M12.2695 9.82003L14.4201 5.28469L16.5651 9.84948C16.6498 9.82003 16.7344 9.79647 16.8191 9.7729L18.8568 3.5H9.9778L12.0099 9.75523C12.0945 9.7729 12.1849 9.79647 12.2695 9.82003ZM11.5301 13.8312C12.3147 13.8312 12.9525 13.1656 12.9525 12.3469C12.9525 12.0465 12.8679 11.7696 12.7211 11.534C12.6759 11.4575 12.6195 11.3868 12.563 11.322L12.5574 11.3161C12.501 11.2513 12.4332 11.1924 12.3655 11.1453L12.3598 11.1394C12.3429 11.1276 12.3203 11.1099 12.2977 11.0982C12.2921 11.0982 12.2921 11.0923 12.2865 11.0923C12.2639 11.0805 12.2413 11.0628 12.2187 11.051H12.2131C12.1905 11.0393 12.1623 11.0216 12.1397 11.0098H12.134C12.1115 10.998 12.0889 10.9863 12.0663 10.9804C12.0607 10.9804 12.055 10.9745 12.0494 10.9745C12.0324 10.9686 12.0099 10.9568 11.9929 10.9509C11.9873 10.9509 11.9816 10.945 11.9704 10.945C11.9478 10.9391 11.9252 10.9274 11.9026 10.9215H11.897C11.8688 10.9156 11.8462 10.9097 11.818 10.9038C11.8123 10.9038 11.8067 10.9038 11.7954 10.8979C11.7728 10.892 11.7559 10.892 11.7333 10.8861C11.722 10.8861 11.7163 10.8861 11.7051 10.8802C11.6881 10.8802 11.6655 10.8743 11.6486 10.8743H11.4285C11.4059 10.8743 11.389 10.8802 11.3664 10.8802H11.3438C11.3212 10.8861 11.2986 10.8861 11.2761 10.892H11.2591C11.2309 10.8979 11.2083 10.9038 11.1801 10.9097C10.5592 11.0687 10.0963 11.6577 10.0963 12.3527C10.1076 13.1597 10.7455 13.8312 11.5301 13.8312ZM17.5134 10.8626H17.5021C17.4795 10.8626 17.4626 10.8567 17.44 10.8567H17.3666C17.3384 10.8567 17.3102 10.8567 17.2763 10.8626H17.2481C17.2255 10.8626 17.2029 10.8685 17.1804 10.8685C17.1747 10.8685 17.1634 10.8685 17.1578 10.8743L17.0731 10.892H17.0675C17.0392 10.8979 17.0167 10.9038 16.9884 10.9097C16.9828 10.9097 16.9715 10.9156 16.9659 10.9156C16.9433 10.9215 16.9207 10.9274 16.8981 10.9391C16.8925 10.9391 16.8868 10.945 16.8812 10.945C16.853 10.9568 16.8247 10.9686 16.8022 10.9804C16.7739 10.9921 16.7514 11.0039 16.7231 11.0157C16.7175 11.0157 16.7118 11.0216 16.7062 11.0216C16.6836 11.0334 16.661 11.0452 16.6385 11.0628C16.6385 11.0628 16.6328 11.0628 16.6328 11.0687C16.582 11.0982 16.5312 11.1335 16.4861 11.1747L16.4804 11.1806C16.407 11.2395 16.3449 11.3043 16.2829 11.375C16.2208 11.4457 16.17 11.5281 16.1248 11.6106C16.0063 11.8285 15.9385 12.0818 15.9385 12.3469C15.9385 13.1656 16.5764 13.8312 17.361 13.8312C18.1456 13.8312 18.7834 13.1656 18.7834 12.3469C18.7834 11.6283 18.2867 11.0216 17.6376 10.8861C17.6037 10.8743 17.5585 10.8685 17.5134 10.8626ZM5.63143 13.8312C6.41604 13.8312 7.05388 13.1656 7.05388 12.3469C7.05388 11.5281 6.41604 10.8626 5.63143 10.8626C4.84683 10.8626 4.20898 11.5281 4.20898 12.3469C4.20898 13.1656 4.84683 13.8312 5.63143 13.8312Z" fill="#F472B6"/>
<path d="M17.3723 14.9798C16.1982 14.9798 15.2104 14.1375 14.9282 13.0066H13.9799C13.6977 14.1375 12.7099 14.9798 11.5358 14.9798C11.4003 14.9798 11.2705 14.968 11.1463 14.9503C10.8189 15.4745 10.4294 15.9575 9.97221 16.4052C9.16503 17.2003 8.2506 17.7893 7.26279 18.1604L7.03136 18.2487L6.81686 18.1309C5.63149 17.4948 5.02187 16.2049 5.23637 14.9562C5.10089 14.9326 4.97107 14.8973 4.84689 14.8502C4.82431 14.8914 4.80737 14.9385 4.78479 14.9856C4.42354 15.7631 4.04535 16.5642 3.90988 17.4241C3.76312 18.343 3.70103 20.0216 4.94284 20.9169C5.48473 21.3057 6.05484 21.5 6.69268 21.5C7.91757 21.5 9.23841 20.8168 10.6383 20.0923C11.7333 19.5269 12.8623 18.9379 14.0363 18.6375C14.4823 18.5256 14.9338 18.4549 15.3685 18.3901C16.1644 18.2723 16.9208 18.1545 17.536 17.7834C18.1908 17.3888 18.6367 16.7291 18.7609 15.9752C18.8399 15.5158 18.7948 15.0504 18.648 14.6205C18.2755 14.8443 17.8408 14.9798 17.3723 14.9798Z" fill="#F472B6"/>
</svg>
