<svg width="24" height="24" viewBox="0 0 24 24" fill="none" xmlns="http://www.w3.org/2000/svg">
<path d="M15.9694 13.5604C16.2655 14.6244 15.6499 15.7305 14.6137 15.9966L14.0642 16.1376C14.0219 16.4184 14 16.7065 14 17C14 17.3072 14.024 17.6083 14.0702 17.9012L14.5776 18.028C15.6241 18.2896 16.2462 19.407 15.9415 20.4781L15.7663 21.0942C16.1794 21.4706 16.6501 21.7762 17.1624 21.9936L17.6264 21.4873C18.3681 20.6781 19.6119 20.6783 20.3535 21.4878L20.8226 22C21.3338 21.785 21.8041 21.4823 22.2174 21.1091L22.0311 20.4397C21.735 19.3756 22.3506 18.2695 23.3868 18.0035L23.9358 17.8625C23.9781 17.5817 24 17.2936 24 17C24 16.6929 23.976 16.3917 23.9298 16.0987L23.4228 15.972C22.3763 15.7105 21.7543 14.5931 22.059 13.5219L22.234 12.9063C21.821 12.5297 21.3502 12.2241 20.8379 12.0066L20.3741 12.5127C19.6324 13.322 18.3885 13.3217 17.647 12.5122L17.1778 12C16.6666 12.2149 16.1962 12.5175 15.783 12.8907L15.9694 13.5604ZM19 18.464C18.2469 18.464 17.6364 17.8085 17.6364 17C17.6364 16.1916 18.2469 15.5361 19 15.5361C19.7531 15.5361 20.3636 16.1916 20.3636 17C20.3636 17.8085 19.7531 18.464 19 18.464Z" fill="#64748B"/>
<path fill-rule="evenodd" clip-rule="evenodd" d="M9.31025 6.31828H7.18241V13.4177C7.18241 13.7425 7.13435 14.016 7.03823 14.238C6.94211 14.4601 6.80125 14.6291 6.61565 14.7451C6.43335 14.8578 6.20963 14.9142 5.94448 14.9142C5.69259 14.9142 5.47384 14.8644 5.28823 14.765C5.10594 14.6623 4.96176 14.5164 4.8557 14.3275C4.75296 14.1353 4.69827 13.9049 4.69164 13.6365H2.54888C2.54557 14.3126 2.68975 14.8744 2.98141 15.3218C3.27308 15.766 3.66749 16.0974 4.16465 16.3162C4.66512 16.5316 5.22194 16.6393 5.83511 16.6393C6.5245 16.6393 7.12938 16.5084 7.64974 16.2465C8.1701 15.9847 8.57611 15.6118 8.86778 15.1279C9.16276 14.644 9.31025 14.074 9.31025 13.4177V6.31828ZM18.2349 9.24655H18.6767C18.6668 8.64001 18.5044 8.1064 18.1895 7.6457C17.8746 7.185 17.4338 6.82538 16.8671 6.56686C16.3036 6.30834 15.6441 6.17908 14.8884 6.17908C14.1459 6.17908 13.4831 6.30834 12.8997 6.56686C12.3164 6.82538 11.8574 7.185 11.5226 7.6457C11.1912 8.1064 11.0271 8.64499 11.0304 9.26146C11.0271 10.0138 11.274 10.6121 11.7712 11.0562C12.2535 11.4871 12.9058 11.8072 13.7281 12.0166C13.7283 11.4163 13.9798 10.8328 14.4384 10.4187C14.4796 10.3815 14.5211 10.3448 14.5631 10.3087C14.4453 10.2759 14.3317 10.2401 14.2222 10.2011C14.0266 10.1282 13.8543 10.0437 13.7051 9.94754C13.556 9.84811 13.4383 9.73045 13.3522 9.59456C13.2693 9.45867 13.2312 9.29958 13.2378 9.11729C13.2378 8.89854 13.3008 8.70299 13.4267 8.53064C13.556 8.35829 13.7416 8.22406 13.9835 8.12794C14.2255 8.02851 14.5221 7.97879 14.8735 7.97879C15.3905 7.97879 15.7998 8.08983 16.1014 8.31189C16.3647 8.50569 16.5282 8.76766 16.592 9.09778C17.1439 8.92522 17.7351 8.98434 18.2349 9.24655ZM12.0011 15.8702C12.0069 15.5228 12.0356 15.18 12.0862 14.8436C12.1682 14.2986 12.4529 13.8185 12.8655 13.4862C12.8561 13.4272 12.8493 13.3662 12.845 13.3034H10.762C10.7785 14.0358 10.9558 14.6507 11.2939 15.1478C11.4872 15.4274 11.7229 15.6682 12.0011 15.8702Z" fill="#F59E0B"/>
</svg>
