<svg width="24" height="25" viewBox="0 0 24 25" fill="none" xmlns="http://www.w3.org/2000/svg">
<path d="M9.8808 16.6769C9.8808 18.4721 8.4967 19.8539 6.8779 19.8539C5.2591 19.8539 3.875 18.4721 3.875 16.6769C3.875 14.8818 5.2591 13.5 6.8779 13.5C8.4967 13.5 9.8808 14.8818 9.8808 16.6769Z" stroke="#F87171" stroke-width="2"/>
<path d="M14.5029 8.32306C14.5029 10.1182 13.1188 11.5 11.5 11.5C9.88117 11.5 8.49707 10.1182 8.49707 8.32306C8.49707 6.52792 9.88117 5.14612 11.5 5.14612C13.1188 5.14612 14.5029 6.52792 14.5029 8.32306Z" stroke="#4ADE80" stroke-width="2"/>
<path d="M19.1249 16.6769C19.1249 18.4721 17.7408 19.8539 16.122 19.8539C14.5032 19.8539 13.1191 18.4721 13.1191 16.6769C13.1191 14.8818 14.5032 13.5 16.122 13.5C17.7408 13.5 19.1249 14.8818 19.1249 16.6769Z" stroke="#C084FC" stroke-width="2"/>
</svg>
