<svg width="24" height="25" viewBox="0 0 24 25" fill="none" xmlns="http://www.w3.org/2000/svg">
<path d="M10.8808 16.6769C10.8808 18.9838 9.08867 20.8539 6.8779 20.8539C4.66713 20.8539 2.875 18.9838 2.875 16.6769C2.875 14.3701 4.66713 12.5 6.8779 12.5C9.08867 12.5 10.8808 14.3701 10.8808 16.6769Z" fill="#60A5FA"/>
<path d="M15.5029 8.32306C15.5029 10.6299 13.7107 12.5 11.5 12.5C9.2892 12.5 7.49707 10.6299 7.49707 8.32306C7.49707 6.01617 9.2892 4.14612 11.5 4.14612C13.7107 4.14612 15.5029 6.01617 15.5029 8.32306Z" fill="#60A5FA"/>
<path d="M20.1249 16.6769C20.1249 18.9838 18.3328 20.8539 16.122 20.8539C13.9113 20.8539 12.1191 18.9838 12.1191 16.6769C12.1191 14.3701 13.9113 12.5 16.122 12.5C18.3328 12.5 20.1249 14.3701 20.1249 16.6769Z" fill="#60A5FA"/>
</svg>
