<svg width="24" height="24" viewBox="0 0 24 24" fill="none" xmlns="http://www.w3.org/2000/svg">
<path d="M11.9998 3.36006C10.0601 3.36224 8.17747 4.01698 6.65496 5.2189C5.13246 6.42083 4.0586 8.10004 3.60622 9.9863C4.30769 9.05952 5.47727 8.26929 6.96957 7.71383C8.46187 7.15837 10.2111 6.86218 11.9998 6.86207C13.7924 6.86321 15.5447 7.16169 17.038 7.72027C18.5313 8.27884 19.6994 9.07277 20.3966 10.0029C19.9473 8.11305 18.8744 6.42965 17.351 5.2244C15.8275 4.01915 13.9424 3.36242 11.9998 3.36006ZM3.60303 14.0009C4.0523 15.8908 5.12523 17.5742 6.64869 18.7794C8.17215 19.9847 10.0573 20.6415 11.9998 20.6438C13.9396 20.6417 15.8222 19.9869 17.3447 18.785C18.8672 17.5831 19.941 15.9038 20.3934 14.0176C19.692 14.9444 18.5224 15.7346 17.0301 16.2901C15.5378 16.8455 13.7885 17.1417 11.9998 17.1418C10.2072 17.1407 8.45493 16.8422 6.96164 16.2836C5.46835 15.725 4.30021 14.931 3.60303 14.0009Z" fill="#F57C00"/>
<path d="M4.92002 23.1541C5.91974 23.1541 6.73018 22.3437 6.73018 21.344C6.73018 20.3442 5.91974 19.5338 4.92002 19.5338C3.9203 19.5338 3.10986 20.3442 3.10986 21.344C3.10986 22.3437 3.9203 23.1541 4.92002 23.1541Z" fill="#9E9E9E"/>
<path d="M3.70388 5.21744C4.43806 5.21744 5.03323 4.62226 5.03323 3.88807C5.03323 3.15389 4.43806 2.55872 3.70388 2.55872C2.96969 2.55872 2.37451 3.15389 2.37451 3.88807C2.37451 4.62226 2.96969 5.21744 3.70388 5.21744Z" fill="#616161"/>
<path d="M19.344 4.36906C20.2813 4.36906 21.041 3.60927 21.041 2.67202C21.041 1.73477 20.2813 0.974976 19.344 0.974976C18.4068 0.974976 17.647 1.73477 17.647 2.67202C17.647 3.60927 18.4068 4.36906 19.344 4.36906Z" fill="#757575"/>
</svg>
