<svg width="24" height="24" viewBox="0 0 24 24" fill="none" xmlns="http://www.w3.org/2000/svg">
<path d="M1.12305 4.88101V13.337L4.76605 9.69402C4.84315 9.61735 4.90433 9.52619 4.94608 9.4258C4.98783 9.3254 5.00933 9.21775 5.00933 9.10901C5.00933 9.00028 4.98783 8.89263 4.94608 8.79223C4.90433 8.69183 4.84315 8.60068 4.76605 8.52401L1.12305 4.88101ZM5.57305 18.947V10.491L1.93005 14.134C1.85295 14.2107 1.79176 14.3018 1.75001 14.4022C1.70826 14.5026 1.68677 14.6103 1.68677 14.719C1.68677 14.8277 1.70826 14.9354 1.75001 15.0358C1.79176 15.1362 1.85295 15.2273 1.93005 15.304L5.57305 18.947ZM22.952 8.25001L12.848 9.31601L12.815 9.35002L17.333 13.868L22.952 8.25001ZM6.59505 4.64001C6.59505 4.64001 6.63905 10.885 6.58905 13.054C6.55205 14.673 7.29205 15.16 7.99905 15.902C9.01705 16.969 11.021 18.87 11.021 18.87C11.417 19.26 12.046 19.263 12.439 18.87L15.924 15.385C16.0173 15.2921 16.0913 15.1817 16.1418 15.0601C16.1923 14.9385 16.2183 14.8082 16.2183 14.6765C16.2183 14.5449 16.1923 14.4145 16.1418 14.2929C16.0913 14.1713 16.0173 14.0609 15.924 13.968L6.59505 4.64001Z" fill="#CFD8DC"/>
</svg>
