<svg width="24" height="24" viewBox="0 0 24 24" fill="none" xmlns="http://www.w3.org/2000/svg">
<path d="M12.0001 1.70303C11.7501 1.70103 11.5001 1.81303 11.2711 2.04103C8.19202 5.11561 5.11668 8.19395 2.0451 11.276C1.9011 11.42 1.8161 11.623 1.7041 11.798V12.208C1.8641 12.431 1.9981 12.682 2.1891 12.874C5.16199 15.8588 8.14066 18.8378 11.1251 21.811C11.3181 22.003 11.5681 22.136 11.7911 22.297H12.2011C12.4061 22.155 12.6371 22.041 12.8101 21.868C15.8561 18.828 18.9001 15.786 21.9431 12.742C22.4131 12.272 22.4151 11.737 21.9491 11.27L12.7301 2.05203C12.5001 1.82203 12.2511 1.70603 12.0001 1.70303ZM10.9381 6.25003L12.3241 7.08203C13.0261 7.50403 13.7271 7.92703 14.4331 8.34403C14.4468 8.35211 14.4602 8.36078 14.4731 8.37003L14.4891 8.38303L14.5061 8.39603C14.5671 8.45203 14.5951 8.51803 14.5941 8.62003C14.5894 9.88436 14.5894 11.1487 14.5941 12.413C14.595 12.4445 14.5926 12.476 14.5871 12.507C14.5721 12.577 14.5331 12.611 14.4451 12.617C14.4305 12.6181 14.4158 12.6184 14.4011 12.618L14.2651 12.615C13.9421 12.61 13.6171 12.615 13.2671 12.615V10.072L13.2711 9.40403C13.2711 9.25803 13.2321 9.17403 13.1011 9.09703C12.2081 8.56903 11.3211 8.03003 10.4311 7.49703C10.3801 7.46703 10.3301 7.43203 10.2581 7.38503L10.2591 7.38303L10.2581 7.38203L10.9381 6.25003ZM11.3001 9.64003C11.3681 9.63703 11.4191 9.68203 11.4731 9.77803C11.5581 9.92503 11.6471 10.071 11.7371 10.217L11.7521 10.242C11.8481 10.397 11.9461 10.552 12.0441 10.712L10.1291 11.888C9.7921 12.096 9.4561 12.306 9.1151 12.506C9.0021 12.572 8.9611 12.649 8.9611 12.783C8.9711 13.76 8.9711 14.737 8.9751 15.715V15.968H7.6641C7.6601 15.914 7.6501 15.856 7.6501 15.798C7.6451 14.548 7.6441 13.296 7.6351 12.046C7.6351 11.906 7.6801 11.826 7.7991 11.753C8.91965 11.0727 10.0373 10.3877 11.1521 9.69803L11.1681 9.68903C11.1786 9.68271 11.1893 9.6767 11.2001 9.67103L11.2161 9.66403C11.2268 9.65907 11.2379 9.65473 11.2491 9.65103L11.2611 9.64703C11.2703 9.64452 11.2796 9.64285 11.2891 9.64203L11.2991 9.64003H11.3001ZM16.9771 12.765L17.2911 13.305L17.6371 13.9V13.901C17.4791 13.995 17.3391 14.078 17.1991 14.159L14.1021 15.957C13.9961 16.019 13.9131 16.029 13.8021 15.967L12.9091 15.472L11.3851 14.629L10.4901 14.136C10.4551 14.116 10.4221 14.092 10.3611 14.051H10.3621L10.4991 13.8L10.9941 12.898L12.4401 13.693C12.8821 13.937 13.3261 14.177 13.7631 14.428C13.8841 14.497 13.9751 14.499 14.0971 14.428C14.9911 13.902 15.8891 13.384 16.7861 12.865C16.8431 12.831 16.9041 12.803 16.9771 12.765Z" fill="#60A5FA"/>
</svg>
