<svg width="24" height="25" viewBox="0 0 24 25" fill="none" xmlns="http://www.w3.org/2000/svg">
<path d="M21.1341 7.34077C21.1341 7.33197 21.1253 7.32307 21.1253 7.31427C21.1164 7.29657 21.1164 7.27887 21.1076 7.26997C21.0987 7.26117 21.0899 7.25227 21.0899 7.24347C21.081 7.23457 21.0722 7.21687 21.0633 7.20807L21.0368 7.18157C21.0279 7.17267 21.0191 7.16387 21.0014 7.15497L17.4539 5.11137C17.4096 5.0853 17.3592 5.07154 17.3079 5.07154C17.2565 5.07154 17.2061 5.0853 17.1619 5.11137L13.6146 7.15497C13.6057 7.16387 13.5969 7.17267 13.5792 7.18157L13.5526 7.20807C13.5438 7.21687 13.5349 7.23457 13.5261 7.24347C13.5172 7.25227 13.5084 7.26117 13.5084 7.26997C13.4995 7.28767 13.4907 7.29657 13.4907 7.31427C13.4907 7.32307 13.4819 7.33197 13.4819 7.34077C13.473 7.36727 13.473 7.39377 13.473 7.42037V11.2952L10.5183 12.9938V5.40327C10.5183 5.37677 10.5183 5.35027 10.5095 5.32367C10.5095 5.31487 10.5006 5.30597 10.5006 5.29717C10.4918 5.27947 10.4918 5.26177 10.4829 5.25287C10.4741 5.24407 10.4652 5.23517 10.4652 5.22637C10.4564 5.21747 10.4475 5.19977 10.4387 5.19097L10.4121 5.16447C10.4033 5.15557 10.3945 5.14677 10.3768 5.13787L6.82036 3.11197C6.77612 3.0859 6.72571 3.07214 6.67436 3.07214C6.623 3.07214 6.57259 3.0859 6.52836 3.11197L2.98086 5.15557C2.97206 5.16447 2.96316 5.17327 2.94546 5.18217L2.91896 5.20867C2.91006 5.21747 2.90126 5.23517 2.89236 5.24407C2.88356 5.25287 2.87476 5.26177 2.87476 5.27057C2.86586 5.28827 2.85706 5.29717 2.85706 5.31487C2.85706 5.32367 2.84816 5.33257 2.84816 5.34137C2.83936 5.36787 2.83936 5.39437 2.83936 5.42097V17.558C2.83936 17.6642 2.89236 17.7615 2.98976 17.8146L10.076 21.8929C10.0937 21.9017 10.1114 21.9106 10.1202 21.9106C10.129 21.9106 10.1379 21.9194 10.1467 21.9194C10.1733 21.9283 10.1998 21.9283 10.2264 21.9283C10.253 21.9283 10.2794 21.9283 10.306 21.9194C10.3148 21.9194 10.3148 21.9106 10.3237 21.9106C10.3414 21.9017 10.3591 21.9017 10.3767 21.8929L17.463 17.8146C17.5514 17.7615 17.6134 17.6642 17.6134 17.558V13.6832L21.0104 11.7282C21.0989 11.675 21.1609 11.5777 21.1609 11.4716V7.41097C21.1432 7.38437 21.1343 7.35787 21.1343 7.34017L21.1341 7.34077ZM10.2091 17.205L7.26315 15.533L10.3595 13.746L13.7566 11.7909L16.7113 13.4894L14.5439 14.7279L10.2091 17.205ZM17.0033 9.62337V12.9852L15.7648 12.2686L14.0486 11.2778V7.91597L15.2871 8.63257L17.0033 9.62337ZM17.3041 5.71317L20.2588 7.41167L17.3041 9.11017L14.3494 7.41167L17.3041 5.71317ZM8.20086 14.321L6.96236 15.0376V7.61517L8.67856 6.62427L9.91706 5.90777V13.3213L8.20086 14.321ZM6.67036 3.70497L9.62506 5.40347L6.67036 7.11087L3.71566 5.41237L6.67036 3.70497ZM3.41486 5.91667L4.65336 6.63327L6.36956 7.62407V15.5507C6.36956 15.5596 6.36956 15.5773 6.37836 15.5861C6.37836 15.6038 6.37836 15.6126 6.38726 15.6303C6.38726 15.6392 6.39606 15.6569 6.40496 15.6657C6.41376 15.6746 6.41376 15.6923 6.42266 15.7011L6.44916 15.7277C6.45796 15.7365 6.46686 15.7453 6.47566 15.763C6.48456 15.7719 6.49336 15.7807 6.50226 15.7807C6.51106 15.7896 6.51996 15.7984 6.53766 15.8073L9.91706 17.7182V21.1152L3.41476 17.3731L3.41486 5.91667ZM17.0039 17.3737L10.5016 21.1159V17.7188L15.3142 14.9675L17.0039 14.0032V17.3737ZM20.5514 11.2872L17.5967 12.9858V9.62397L19.3129 8.63317L20.5514 7.91657V11.2872Z" fill="#EF4444" stroke="#EF4444" stroke-width="0.4802"/>
</svg>
