<svg width="24" height="24" viewBox="0 0 24 24" fill="none" xmlns="http://www.w3.org/2000/svg">
<path d="M7.56991 8.20998C7.15991 8.28998 6.57991 8.26998 6.30991 8.26998C5.90991 8.26998 5.03991 7.78998 4.55991 7.28998C4.30991 7.02998 3.84991 6.46998 3.54991 6.03998C3.23991 5.60998 2.92991 5.25998 2.83991 5.25998C2.66991 5.25998 2.55991 5.85998 2.54991 6.85998C2.54991 6.97998 2.53991 7.07998 2.53991 7.16998L2.54991 7.19998L2.40991 15.67C2.67991 15.74 2.94991 15.8 3.22991 15.86C3.80991 15.98 4.28991 16.08 4.30991 16.09C4.31991 16.11 4.11991 16.43 3.85991 16.8C2.90991 18.15 2.71991 18.8 3.25991 18.8C3.42991 18.8 3.78991 18.73 4.07991 18.63C4.40991 18.53 5.00991 18.47 5.65991 18.47C6.99991 18.47 8.33991 18.8 10.0299 19.55C11.6399 20.26 12.1699 20.43 14.0299 20.8C14.8799 20.98 15.6199 21.17 15.6699 21.21C15.7199 21.26 15.5999 21.43 15.3899 21.59C15.1799 21.75 15.0099 21.92 15.0099 21.96C15.0099 22 15.2299 22 15.5199 21.95C15.7899 21.91 16.4099 21.81 16.8799 21.76C18.3099 21.58 19.3299 20.94 19.3499 20.2C19.3899 19.26 19.0999 17.17 18.9199 17.06C18.8999 17.05 18.5399 17.17 18.4599 17.3C18.3899 17.43 18.2999 17.63 18.2099 17.86C18.0299 18.32 18.0599 18.42 16.6399 18.52C15.6099 18.57 14.6199 18.33 13.8199 17.87C13.1499 17.48 12.1599 17.13 11.6399 16.33C11.2199 15.68 10.7799 14.61 10.8599 14.46C10.8899 14.42 11.0299 14.43 11.1799 14.48C11.5699 14.63 12.1399 14.86 13.9099 14.63C15.4499 14.43 16.9099 14.59 17.2999 14.79C17.6899 14.99 18.2199 15.26 18.2399 15.78C18.2499 16.3 18.5699 16.41 18.5999 16.41C18.7699 16.38 19.1899 14.99 19.4299 14.58C19.6299 14.26 19.7399 14.08 20.5299 13.54C21.1499 13.11 21.6599 12.71 21.6399 12.64C21.6299 12.58 21.2799 12.17 20.8699 11.72C20.2199 11.02 20.0399 10.9 19.4499 10.7C17.3999 10.03 15.2199 8.57998 14.0899 7.15998C12.8399 5.57998 12.4899 5.21998 11.5899 4.62998C10.5799 3.95998 9.26991 3.38998 8.28991 3.19998C7.28991 3.00998 7.56991 3.32998 7.99991 3.99998C9.52991 5.74998 9.48991 5.80998 9.48991 6.96998C9.32991 7.86998 8.48991 7.99998 7.56991 8.20998ZM10.7399 9.23998C10.9099 9.23998 11.3199 9.34998 12.0299 9.58998C13.7699 10.17 13.8699 10.44 14.4399 11.44C14.5699 11.66 14.6599 11.85 14.6499 11.86C14.6399 11.87 14.4799 11.91 14.2999 11.95C13.8499 12.04 13.1399 12.04 12.7199 11.95C11.9599 11.79 11.9999 11.76 11.6099 11.38C11.4499 11.22 11.2599 10.96 11.1999 10.82C11.1599 10.72 11.1699 10.7 11.3899 10.52C11.4399 10.48 11.4899 10.41 11.4899 10.37C11.4899 10.3 11.2699 9.99998 11.1499 9.89998C11.0199 9.78998 10.6599 9.35998 10.6599 9.30998C10.6599 9.27998 10.6899 9.25998 10.7599 9.25998L10.7399 9.23998Z" fill="#60A5FA"/>
</svg>
