<svg width="24" height="24" viewBox="0 0 24 24" fill="none" xmlns="http://www.w3.org/2000/svg">
<path d="M18.177 14.74V14.7403C18.1773 15.5517 18.0178 16.3553 17.7076 17.105C17.3973 17.8547 16.9424 18.536 16.3687 19.1099C15.7951 19.6837 15.1141 20.139 14.3645 20.4496C13.6154 20.7599 12.812 20.919 12 20.919C10.3618 20.919 8.79061 20.2682 7.6322 19.1098C6.47379 17.9514 5.823 16.3803 5.823 14.742C5.823 13.8938 6.10112 12.8604 6.58756 11.7221C7.06974 10.5937 7.73356 9.41464 8.45177 8.28992C9.76059 6.24029 11.2189 4.4191 12 3.48414C12.7812 4.419 14.2395 6.23992 15.5483 8.28922C16.2665 9.41376 16.9303 10.5926 17.4125 11.7208C17.8989 12.8589 18.177 13.892 18.177 14.74Z" stroke="#60A5FA" stroke-width="1.5"/>
</svg>
