<svg width="24" height="24" viewBox="0 0 24 24" fill="none" xmlns="http://www.w3.org/2000/svg">
<path d="M3.25146 1.90802H5.46246V22.4322H3.25146V1.90802Z" fill="#60A5FA"/>
<path d="M22.2444 18.72V20.931H1.72021V18.72H22.2444Z" fill="#60A5FA"/>
<path d="M17.7684 5.19604L18.9708 6.39904L4.45801 20.9118L3.25562 19.7088L17.7684 5.19604Z" fill="#60A5FA"/>
<path d="M6.43799 3.282H8.13899V16.53H6.43799V3.282ZM9.21599 3.312H10.917V13.7412H9.21599V3.312ZM11.994 3.282H13.695V10.9632H11.994V3.282ZM14.7156 3.294H16.4166V8.2464H14.7156V3.294ZM17.2698 3.276H18.9708V6.3942H17.2698V3.276Z" fill="#60A5FA"/>
<path d="M20.8806 17.724V16.023H7.63257V17.724H20.8806ZM20.8518 14.946V13.245H10.4226V14.946H20.8518ZM20.8806 12.168V10.467H13.1994V12.168H20.8806ZM20.8686 9.44999V7.74899H15.9162V9.44999H20.8686ZM20.8854 6.89399V5.19299H17.7672V6.89399H20.8854Z" fill="#60A5FA"/>
</svg>
