<svg width="24" height="24" viewBox="0 0 24 24" fill="none" xmlns="http://www.w3.org/2000/svg">
<path d="M13.9209 16.802H7.19793V14.882H13.9209M16.8019 12.96H7.19793V11.04H16.8019M16.8019 9.11802H7.19793V7.19802H16.8019M18.7229 3.35602H5.27693C4.21093 3.35602 3.35693 4.21102 3.35693 5.27602V18.723C3.35693 19.2322 3.55922 19.7206 3.91929 20.0807C4.27936 20.4407 4.76772 20.643 5.27693 20.643H18.7229C18.9752 20.6432 19.2249 20.5936 19.458 20.4972C19.6911 20.4007 19.9028 20.2593 20.0812 20.081C20.2596 19.9027 20.4011 19.691 20.4977 19.458C20.5942 19.225 20.6439 18.9752 20.6439 18.723V5.27702C20.6441 5.0248 20.5945 4.77502 20.4981 4.54196C20.4016 4.3089 20.2602 4.09712 20.0819 3.91873C19.9036 3.74033 19.6919 3.59882 19.4589 3.50226C19.2259 3.40571 18.9762 3.35602 18.7239 3.35602H18.7229Z" fill="#CDDC39"/>
</svg>
