<svg width="24" height="24" viewBox="0 0 24 24" fill="none" xmlns="http://www.w3.org/2000/svg">
<path d="M12.0001 7.68701L10.6501 7.77801C9.7781 6.74301 7.3321 4.13501 4.8961 4.13501C4.8961 4.13501 2.8971 7.13901 4.8561 11.148C4.2971 11.99 3.9521 12.426 3.8811 13.431L1.9231 13.725L2.1361 14.72L3.9221 14.456L4.0641 15.176L2.4711 16.13L2.9481 17.034L4.4191 16.13C5.5861 18.607 8.5391 19.865 12.0001 19.865C15.4601 19.865 18.4141 18.607 19.5801 16.13L21.0521 17.034L21.5291 16.13L19.9361 15.177L20.0781 14.456L21.8641 14.72L22.0771 13.725L20.1191 13.431C20.0481 12.426 19.7031 11.99 19.1441 11.148C21.1031 7.13901 19.1041 4.13501 19.1041 4.13501C16.6681 4.13501 14.2231 6.74301 13.3501 7.77801L12.0001 7.68701ZM8.9561 10.731C9.22512 10.7313 9.48303 10.8383 9.67316 11.0286C9.8633 11.219 9.9701 11.477 9.9701 11.746C9.9701 12.015 9.8633 12.273 9.67316 12.4634C9.48303 12.6537 9.22512 12.7607 8.9561 12.761C8.6869 12.761 8.42873 12.6541 8.23838 12.4637C8.04803 12.2734 7.9411 12.0152 7.9411 11.746C7.9411 11.4768 8.04803 11.2186 8.23838 11.0283C8.42873 10.8379 8.6869 10.731 8.9561 10.731ZM15.0451 10.731C15.3141 10.7313 15.572 10.8383 15.7622 11.0286C15.9523 11.219 16.0591 11.477 16.0591 11.746C16.0591 12.015 15.9523 12.273 15.7622 12.4634C15.572 12.6537 15.3141 12.7607 15.0451 12.761C14.7759 12.761 14.5177 12.6541 14.3274 12.4637C14.137 12.2734 14.0301 12.0152 14.0301 11.746C14.0301 11.4768 14.137 11.2186 14.3274 11.0283C14.5177 10.8379 14.7759 10.731 15.0451 10.731ZM10.9851 13.776H13.0151L12.3051 15.186C12.5081 15.836 13.0751 16.313 13.7761 16.313C14.1798 16.313 14.5669 16.1527 14.8523 15.8672C15.1377 15.5818 15.2981 15.1947 15.2981 14.791H15.8061C15.8061 15.3294 15.5922 15.8457 15.2115 16.2264C14.8308 16.6071 14.3145 16.821 13.7761 16.821C13.0151 16.821 12.3561 16.405 12.0001 15.806C11.8175 16.1147 11.5577 16.3705 11.2464 16.5485C10.935 16.7264 10.5827 16.8203 10.2241 16.821C9.68571 16.821 9.16937 16.6071 8.78867 16.2264C8.40797 15.8457 8.1941 15.3294 8.1941 14.791H8.7021C8.7021 15.1947 8.86245 15.5818 9.14788 15.8672C9.43331 16.1527 9.82044 16.313 10.2241 16.313C10.9241 16.313 11.4921 15.836 11.6951 15.187L10.9851 13.776Z" fill="#F87171"/>
</svg>
