<svg width="24" height="25" viewBox="0 0 24 25" fill="none" xmlns="http://www.w3.org/2000/svg">
<path fill-rule="evenodd" clip-rule="evenodd" d="M10.3985 5.79993C14.551 5.79993 17.922 9.31752 17.922 13.6505C17.922 17.9835 14.551 21.5011 10.3985 21.5011C6.24603 21.5011 2.875 17.9835 2.875 13.6505C2.875 9.31752 6.24603 5.79993 10.3985 5.79993ZM13.516 8.09867C14.7318 8.09867 15.719 9.12879 15.719 10.3975C15.719 11.6661 14.7318 12.6963 13.516 12.6963C12.3002 12.6963 11.313 11.6661 11.313 10.3975C11.313 9.12879 12.3002 8.09867 13.516 8.09867Z" fill="#2563EB"/>
<path d="M20.125 5.7977C20.125 4.52902 19.1378 3.4989 17.922 3.4989C16.7062 3.4989 15.719 4.52902 15.719 5.7977C15.719 7.06637 16.7062 8.09649 17.922 8.09649C19.1378 8.09649 20.125 7.06854 20.125 5.7977Z" fill="#2563EB"/>
</svg>
