<svg width="24" height="24" viewBox="0 0 24 24" fill="none" xmlns="http://www.w3.org/2000/svg">
<g clip-path="url(#clip0_808_2353)">
<path d="M4.00199 5.51996C3.34699 6.58996 2.68199 7.65796 2.02599 8.72796C1.37099 9.78996 0.717988 10.871 0.0629883 11.941L0.0649883 11.943L0.0629883 11.945C0.717988 13.015 1.37099 14.095 2.02599 15.156C2.68099 16.226 3.34599 17.296 4.00199 18.367H7.33199C6.66799 17.297 6.01399 16.227 5.35799 15.157C4.70499 14.087 4.05099 13.011 3.39699 11.943C4.05099 10.875 4.70499 9.79596 5.35799 8.72796C6.01264 7.65657 6.67064 6.58723 7.33199 5.51996H4.00199Z" fill="#2196F3"/>
<path d="M3.99907 5.51998L3.99707 5.52098C4.65207 6.59098 5.30707 7.67198 5.96107 8.73298C6.61607 9.80298 7.28107 10.873 7.93507 11.943H11.2661C10.6021 10.873 9.94707 9.80298 9.29207 8.73298C8.63907 7.66498 7.98607 6.58798 7.33207 5.51898L3.99907 5.51998Z" fill="#26A69A"/>
<path d="M15.203 5.51998L15.205 5.52098C14.55 6.59098 13.895 7.67198 13.24 8.73298C12.585 9.80298 11.921 10.873 11.266 11.943H7.93604C8.59709 10.8751 9.25476 9.80506 9.90904 8.73298C10.563 7.66498 11.216 6.58798 11.87 5.51898L15.203 5.51998Z" fill="#8BC34A"/>
<path d="M11.874 5.51998C12.5354 6.58726 13.1934 7.6566 13.848 8.72798C14.501 9.79598 15.155 10.875 15.809 11.943C15.155 13.011 14.501 14.088 13.848 15.156C13.1934 16.228 12.5354 17.298 11.874 18.366H15.204C15.859 17.295 16.523 16.226 17.178 15.156C17.833 14.096 18.488 13.016 19.144 11.946L19.142 11.943L19.144 11.941C18.489 10.871 17.834 9.78898 17.178 8.72798C16.523 7.65798 15.859 6.58898 15.204 5.51898L11.874 5.51998Z" fill="#FFC107"/>
<path d="M16.74 5.51998C17.4013 6.58726 18.0593 7.6566 18.714 8.72798C19.367 9.79598 20.019 10.875 20.674 11.943C20.019 13.011 19.367 14.088 18.714 15.156C18.059 16.226 17.404 17.296 16.74 18.367H20.07C20.725 17.297 21.389 16.227 22.044 15.157C22.699 14.095 23.354 13.015 24.01 11.945L24.008 11.943L24.01 11.941C23.355 10.871 22.7 9.78898 22.044 8.72798C21.389 7.65798 20.725 6.58898 20.07 5.51898L16.74 5.51998Z" fill="#F44336"/>
</g>
<defs>
<clipPath id="clip0_808_2353">
<rect width="24" height="24" fill="white"/>
</clipPath>
</defs>
</svg>
