<svg width="24" height="24" viewBox="0 0 24 24" fill="none" xmlns="http://www.w3.org/2000/svg">
<path fill-rule="evenodd" clip-rule="evenodd" d="M11.9979 1.52497L11.9217 1.54997L11.4417 2.34397L10.968 3.10697L9.69701 5.19597H9.67927L5.65562 3.49997L5.55127 3.45297H5.53249V3.54497L5.55857 3.70797V3.79397L5.69631 5.02097V5.10297L5.7297 5.35497V5.43697L5.95927 7.57397V7.64897L5.97805 7.73097V7.79097L3.52692 8.29697L3.48518 8.31197L3.00936 8.41197L2.98327 8.42197H2.9384L1.79579 8.66697L1.75405 8.67397L1.57666 8.70897V8.79097L1.59544 8.80097L3.53527 10.887L3.58953 10.94L3.70953 11.072L4.54849 11.98V11.986L4.49318 12.036L4.26362 12.292L1.58814 15.168L1.5777 15.175V15.257L1.65179 15.263L1.95962 15.337L3.7304 15.704V15.71L5.96344 16.181H5.97805V16.228L5.94153 16.48V16.56L5.89249 16.972V17.054L5.85596 17.299V17.381L5.80796 17.793V17.873L5.75579 18.282V18.362L5.71823 18.607V18.689L5.67023 19.101V19.183L5.61805 19.59V19.672L5.58466 19.92V20.002L5.53249 20.409V20.513H5.57109L9.37144 18.913L9.67822 18.778H9.69701L9.8817 19.09L10.4441 20.002L10.4598 20.034L11.3509 21.499L11.5179 21.761L11.9394 22.455L11.9467 22.477H12.0427L12.048 22.455L12.0657 22.43L12.6501 21.484L12.6657 21.441L13.2907 20.409L13.6205 19.869L14.2935 18.779L14.3457 18.791L18.4205 20.513H18.457V20.428L18.313 19.108V19.026L18.2796 18.781V18.7L18.2431 18.456V18.371L18.2087 18.126V18.046L18.1753 17.801V17.719L18.1419 17.474V17.389L18.1054 17.145V17.063L18.072 16.818V16.736L18.0375 16.491V16.406L18.0114 16.236V16.184L19.7144 15.829L19.7593 15.822L20.2372 15.715H20.2664V15.705L20.5064 15.655L20.5377 15.645H20.5815L20.9801 15.555L21.0062 15.545H21.0511L21.2535 15.495H21.288L22.3471 15.265L22.4201 15.258V15.193L22.4045 15.18L21.1627 13.838L21.1335 13.811L20.928 13.591L19.4379 11.987V11.981L19.7457 11.657L20.1631 11.2L22.4045 8.79197L22.4201 8.78197V8.71697L22.3836 8.70997L21.0396 8.42997L20.6514 8.34497L20.6024 8.33497L18.0135 7.79097V7.74597L18.4643 3.48197V3.46197H18.4205L18.1054 3.59597L18.0949 3.61097H18.0688L14.6191 5.05997L14.3092 5.19497H14.2935L12.1774 1.71197L12.0741 1.56697L12.0594 1.52197L11.9979 1.52497ZM11.9958 2.63797L13.4212 4.96197L13.776 5.55297L13.7676 5.57797L12.5363 7.08997L11.9958 7.74997L11.9843 7.73897L11.7151 7.40497L11.6734 7.35497L10.2156 5.56797L10.2469 5.50497L11.6848 3.13897L11.9843 2.64897L11.9958 2.63797ZM17.1193 4.67797L17.1109 4.70197L16.9346 4.92797L16.3742 4.99397L17.1193 4.67797ZM6.8744 4.68197L6.92866 4.70197L7.63509 5.00097H7.11649L6.88275 4.70197L6.8744 4.68197ZM17.6692 4.99997L17.5408 6.24797L17.4229 5.32097L17.6577 5.01297L17.6692 4.99997ZM8.00657 5.15697L8.06188 5.17997L8.79753 5.48997L8.00657 5.31497V5.15697ZM15.7147 5.27197L15.7356 5.44097L14.3614 5.84397L14.3634 5.84097L14.5304 5.76897L15.5895 5.32497L15.7147 5.27197ZM10.0747 6.38997L11.0598 7.59397V7.60397L9.88066 7.20097L10.0747 6.38997ZM13.7791 6.56097L13.9972 7.24397L13.7541 7.32697L13.6601 7.34897L12.9297 7.60397L12.936 7.58197L13.7467 6.60097L13.7791 6.56097ZM8.5617 7.39697L9.59057 7.75297L10.5276 8.06497L10.5777 8.08597L11.6765 8.45797L11.689 11.544L11.3113 11.427L10.6121 11.203L10.5276 11.165L9.75962 10.92L8.95718 10.664L8.65353 10.564L8.64309 10.31L8.60866 9.11397L8.59823 8.82697L8.58362 7.93397L8.56901 7.63597L8.5617 7.39697ZM15.4309 7.39697L15.4184 7.62497L15.3892 8.52497L15.3819 8.82697L15.3485 10.302L15.3381 10.564L14.9864 10.682L14.2205 10.926L13.417 11.183L12.673 11.427L12.3036 11.544L12.3141 8.45797L14.017 7.88097L15.4309 7.39697ZM16.0403 7.83397L16.1342 8.56897L16.9586 8.47297L16.0038 9.77497L15.9861 9.78097L15.9965 9.59797L16.0153 8.71997L16.0403 7.83397ZM6.1784 8.36997L6.33701 8.58997L7.84796 10.64L5.12657 11.607L5.0744 11.622L3.0177 9.40997L2.72553 9.09797L2.72866 9.08797L2.84762 9.06997L3.29109 8.96997L3.43718 8.94797L3.78779 8.87097L3.83162 8.86097L6.1784 8.36997ZM17.809 8.37297L21.2358 9.08597L21.2671 9.09597L21.2431 9.12197L19.2041 11.313L18.9161 11.625L18.8191 11.59L16.1447 10.64L16.6393 9.95797L16.7989 9.74297L17.809 8.37297ZM7.0664 8.52297H7.96483L8.00136 9.78097L7.98779 9.77497L7.19162 8.69697L7.0664 8.52297ZM8.48344 11.147L8.64205 11.207L9.44553 11.459L10.1895 11.704L10.9669 11.952L11.4782 12.119L11.4104 12.211L9.61249 14.544L8.55336 14.243L8.46779 14.225L8.43127 14.21L6.44762 13.65L7.42536 12.43L8.45005 11.153L8.48344 11.147ZM15.5061 11.147L15.5405 11.153L17.4052 13.481L17.5429 13.651L17.4104 13.686L17.376 13.701L15.0855 14.342L14.9749 14.375L14.3864 14.545L14.3687 14.542L13.2688 13.102L13.0873 12.862L12.5175 12.136L12.5092 12.119L12.9996 11.959L13.801 11.704L14.5461 11.46L15.3485 11.208L15.5061 11.147ZM7.40344 11.452L7.39509 11.472L6.97353 11.996L6.66988 11.704L7.35544 11.459L7.40344 11.452ZM16.5881 11.452L16.632 11.46L17.2361 11.672L17.9801 11.942L17.2914 12.336L16.9001 11.856L16.8688 11.814L16.5954 11.473L16.5881 11.452ZM5.2737 12.202L4.57457 12.87L4.94501 12.473L5.15996 12.243L5.2737 12.202ZM18.745 12.218L18.816 12.243L18.8629 12.286L19.441 12.913L19.4859 12.955L19.6977 13.184L19.4316 13.318L18.745 12.218ZM11.9906 12.483L12.0135 12.498L13.4535 14.37L13.4869 14.42L13.8448 14.886L13.8532 14.916L13.7614 15.034L13.321 15.662L13.272 15.737L13.0163 16.08L12.0041 17.51L11.9906 17.517L10.7593 15.797L10.6601 15.637L10.1447 14.928L10.1374 14.892L11.8247 12.7L11.832 12.69L11.9906 12.483ZM20.1579 13.677L20.7485 14.31L20.8142 14.392L20.5294 14.3L20.4918 14.287L20.1579 13.677ZM3.68657 13.825L3.99753 14.124L3.33283 14.342L3.17318 14.392L3.21283 14.335L3.68657 13.825ZM17.4866 14.295L16.5944 14.744L16.9554 15.403L16.7624 15.346L16.4807 15.258L15.3412 14.909L15.3537 14.899L17.4866 14.295ZM7.3784 14.55L8.65353 14.906L8.64727 14.914L8.16936 15.059L7.70709 15.193L7.6737 15.203L7.1624 15.36L7.3784 14.55ZM4.49318 14.599L4.82501 14.918L6.91927 15.435L6.32762 15.615L6.27023 15.62L4.07579 15.15L3.29944 14.994L3.30675 14.988L4.49318 14.599ZM20.1099 14.804L20.6817 14.991V14.994L20.2048 15.094L20.16 15.108L19.0434 15.338L20.1099 14.804ZM9.43301 15.31L9.44031 15.537L9.45075 15.884L9.47683 17.246L9.50292 17.937L9.49562 18.192L9.24518 18.299L6.2577 19.555L6.29214 19.183L6.32553 18.928L6.34327 18.701L6.37562 18.444L6.41423 18.037L6.46118 17.618L6.47996 17.388L6.51336 17.136L6.54675 16.725L6.59892 16.31L6.61249 16.17L8.13075 15.714L8.13388 15.699L8.44901 15.601L9.43301 15.31ZM14.5554 15.31L15.8546 15.7V15.714L16.1801 15.814L17.3749 16.175L17.3979 16.405L17.4302 16.66L17.4751 17.069L17.5168 17.488L17.5346 17.718L17.568 17.97L17.6014 18.381L17.6462 18.706L17.7266 19.555L17.6462 19.515L14.4897 18.192L14.4845 17.888L14.5471 15.519L14.5554 15.31ZM10.0737 15.926L10.0883 15.934L10.1593 16.041L10.7843 16.915L10.1175 17.447L10.081 16.008L10.0737 15.926ZM13.9033 15.926H13.9116L13.9064 15.986L13.8855 16.664L13.8814 16.878L13.3805 16.656L13.9033 15.926ZM10.8897 19.531L11.6859 20.447L11.6869 20.817L11.6692 20.81L11.6431 20.76L11.1589 19.97L11.1464 19.952L10.8897 19.531ZM12.4862 20.141L12.6782 20.224L12.3203 20.81L12.3015 20.817L12.3036 20.286L12.4862 20.141Z" fill="#F44336" stroke="#F44336" stroke-width="0.775" stroke-linejoin="round"/>
</svg>
