<svg width="24" height="24" viewBox="0 0 24 24" fill="none" xmlns="http://www.w3.org/2000/svg">
<path fill-rule="evenodd" clip-rule="evenodd" d="M6.97494 10.9994L1.74561 12.9212L5.78961 15.782L9.01467 12.5885L6.97477 10.9993L6.97494 10.9994Z" fill="#4DB6AC"/>
<path fill-rule="evenodd" clip-rule="evenodd" d="M16.0064 2.38153C15.569 2.441 15.6876 2.4153 15.0597 2.9179C14.4594 3.39847 12.7289 6.2629 11.8039 7.22657C10.981 8.08393 10.6553 7.6332 9.80052 8.3486C8.94452 9.06506 7.62476 10.4974 7.62476 10.4974L9.75736 12.0747L13.1384 7.42537C13.9366 6.32763 13.9281 6.18317 14.3631 5.03133C14.576 4.4678 14.9551 4.0347 15.2883 3.5044C15.7046 2.84193 16.2945 2.34257 16.0064 2.38173L16.0064 2.38153Z" fill="#00897B"/>
<path fill-rule="evenodd" clip-rule="evenodd" d="M15.9402 2.32654C14.8979 2.32028 13.8712 6.90154 12.0882 10.4162C10.2701 14.0002 6.68018 16.3102 6.68018 16.3102C7.28541 16.585 7.83624 16.4739 8.48804 17.09C8.93388 17.6288 10.2244 20.2892 10.9938 21.9607C10.9938 21.9607 11.626 21.6175 12.427 21.0376C13.228 20.4576 14.1978 19.641 14.8731 18.6942C15.7692 17.4378 16.4697 16.6595 17.0632 16.1852C17.6567 15.7109 18.1433 15.5406 18.6118 15.5005C20.2864 15.357 22.7645 18.3602 22.7645 18.3602C22.7645 18.3602 17.5755 2.33658 15.9398 2.32658L15.9402 2.32654Z" fill="#FFB74D"/>
</svg>
