<svg width="24" height="24" viewBox="0 0 24 24" fill="none" xmlns="http://www.w3.org/2000/svg">
<path d="M21.2897 12.6609C21.5772 7.67669 17.8391 2.30909 12.0881 2.98004C9.50012 3.26759 7.96652 4.60949 7.29557 6.04724C6.14537 8.44349 7.39142 11.6065 11.1296 12.6609C13.43 13.3318 13.9092 14.2903 13.6217 15.4405C13.3341 16.4949 12.5673 17.6451 12.3756 18.6036C12.2798 18.8911 12.2798 19.1787 12.2798 19.4662C12.3756 21.5749 16.6889 22.4376 20.0436 16.7824C20.8104 15.6322 21.1938 14.1945 21.2897 12.6609Z" fill="#CFD8DC"/>
<path d="M6.43297 11.5107V11.4148V11.1273C6.43297 11.0314 6.43297 10.9356 6.33712 10.8397C6.14542 9.88123 5.37862 9.30613 4.42012 9.40198C3.46162 9.49783 2.79067 10.2646 2.69482 11.2231V11.7024C2.79067 12.7567 3.74917 13.5235 4.70767 13.4277C5.76202 13.236 6.43297 12.4692 6.43297 11.5107Z" fill="#CFD8DC"/>
<path d="M10.6503 16.5907C10.2669 15.0571 8.73327 14.0986 7.19967 14.5779C5.95362 14.8654 5.18682 15.9198 5.09097 17.1658C4.99512 17.5492 5.09097 17.9326 5.18682 18.316C5.57022 19.8496 7.19967 20.8081 8.73327 20.3289C10.0752 19.9455 10.9378 18.6994 10.842 17.2617C10.7461 17.07 10.7461 16.8783 10.6503 16.5907Z" fill="#CFD8DC"/>
</svg>
