<svg width="24" height="24" viewBox="0 0 24 24" fill="none" xmlns="http://www.w3.org/2000/svg">
<path d="M4.79468 4.26433C4.87691 3.78415 5.29318 3.43311 5.78034 3.43311H7.37787C7.80987 3.43311 8.19302 3.71051 8.32789 4.12091L12.0291 15.3835L15.7862 4.11676C15.9223 3.70848 16.3044 3.43311 16.7348 3.43311H18.286C18.7747 3.43311 19.1918 3.78624 19.2724 4.2682L21.8026 19.4015C21.9045 20.0112 21.4344 20.5664 20.8163 20.5664H19.7241C19.236 20.5664 18.8193 20.214 18.7381 19.7327L17.0537 9.74649L13.6666 19.8833C13.5303 20.2913 13.1483 20.5664 12.7181 20.5664H11.3084C10.8768 20.5664 10.4939 20.2895 10.3587 19.8797L7.01617 9.74649L5.29918 19.7358C5.21669 20.2157 4.80055 20.5664 4.31363 20.5664H3.18897C2.56923 20.5664 2.09871 20.0085 2.20331 19.3976L4.79468 4.26433Z" fill="#60A5FA"/>
</svg>
