<svg width="24" height="24" viewBox="0 0 24 24" fill="none" xmlns="http://www.w3.org/2000/svg">
<path d="M12.0801 2.04534C5.91074 5.56534 2.08008 12.1627 2.04541 19.328C8.49874 22.8853 16.0787 22.764 21.9521 19.3653C21.9521 19.348 21.9521 19.3307 21.9547 19.3133C21.9467 12.1867 18.1827 5.60401 12.0801 2.04401V2.04534ZM15.4001 9.67467C16.3161 10.3013 16.1801 11.8147 16.0321 12.8507C15.8454 13.992 14.7627 15.8667 13.3574 17.0907C13.5387 17.3547 13.6454 17.68 13.6441 18.0253C12.7721 18.4707 11.9081 17.9693 10.8627 17.064C9.81741 16.1587 8.68941 14.3453 8.31608 12.4813C7.97847 12.518 7.63844 12.4385 7.35208 12.256C7.42808 11.212 8.52541 10.5907 9.49874 10.224C10.4694 9.85734 12.9747 9.73334 14.7414 10.368C14.8801 10.076 15.1067 9.83067 15.4001 9.67467Z" fill="#60A5FA"/>
</svg>
