<svg width="24" height="24" viewBox="0 0 24 24" fill="none" xmlns="http://www.w3.org/2000/svg">
<path d="M4.34007 2.42397H19.6601C19.9116 2.42384 20.1608 2.47328 20.3932 2.56946C20.6257 2.66564 20.8369 2.80667 21.0148 2.98451C21.1928 3.16235 21.3339 3.3735 21.4302 3.6059C21.5265 3.83831 21.5761 4.08741 21.5761 4.33897V19.661C21.5761 19.9125 21.5265 20.1616 21.4302 20.394C21.3339 20.6264 21.1928 20.8376 21.0148 21.0154C20.8369 21.1933 20.6257 21.3343 20.3932 21.4305C20.1608 21.5267 19.9116 21.5761 19.6601 21.576H4.34007C4.08842 21.5761 3.83922 21.5266 3.6067 21.4304C3.37418 21.3342 3.16291 21.193 2.98496 21.0151C2.80702 20.8371 2.66589 20.6259 2.56965 20.3934C2.47341 20.1608 2.42394 19.9116 2.42407 19.66V4.33997C2.42381 4.08824 2.47318 3.83892 2.56936 3.60629C2.66555 3.37365 2.80665 3.16227 2.98461 2.98422C3.16257 2.80617 3.37388 2.66495 3.60647 2.56865C3.83905 2.47234 4.08834 2.42384 4.34007 2.42397ZM6.25607 6.25297V10.084H10.0861V12H8.17007V17.745H10.0851V15.83H13.9151V17.745H15.8301V12H13.9151V10.085H17.7451V6.25497H13.9151V10.085H10.0851V6.25497L6.25607 6.25297Z" fill="#4CAF50"/>
</svg>
