<svg width="24" height="24" viewBox="0 0 24 24" fill="none" xmlns="http://www.w3.org/2000/svg">
<path fill-rule="evenodd" clip-rule="evenodd" d="M12.0001 1.75812C11.7339 2.77446 9.46006 3.42368 9.30274 4.71237L9.04606 3.94174C7.70731 5.64677 7.82571 6.51059 7.82571 6.51059L7.71321 5.89249C6.73615 7.52618 6.94306 8.32652 7.05584 8.57055L7.10318 8.65418C7.10318 8.65418 7.08209 8.62727 7.05584 8.57055L6.79821 8.11624C5.78346 10.9232 6.66968 11.785 6.66968 11.785L6.12387 11.1508C5.88265 13.3015 6.50918 14.1853 6.50918 14.1853L6.11581 13.816C6.06574 15.2768 7.02303 16.1441 7.02303 16.1441L6.39209 15.7114C7.60624 21.0158 10.017 21.1586 10.3279 21.1546L9.36696 21.1856C10.0078 21.8717 10.8259 22.1378 11.3792 22.2419C11.6809 20.6419 11.9582 16.7674 12.0001 6.61474C12.042 16.7669 12.3195 20.6416 12.6212 22.2419C13.1746 22.1377 13.9927 21.8715 14.6335 21.1856L13.6727 21.1547C13.984 21.1586 16.3943 21.0152 17.6083 15.7114L16.9774 16.1441C16.9774 16.1441 17.9347 15.277 17.8846 13.8161L17.4912 14.1854C17.4912 14.1854 18.1178 13.3016 17.8766 11.1509L17.3307 11.7851C17.3307 11.7851 18.217 10.9233 17.2022 8.11634L16.9448 8.57009C16.9184 8.62718 16.8972 8.65399 16.8972 8.65399L16.9448 8.57009C17.0577 8.32549 17.2638 7.52534 16.2871 5.89259L16.1747 6.51068C16.1747 6.51068 16.2932 5.64677 14.9544 3.94174L14.6975 4.71246C14.5403 3.42387 12.2666 2.77465 12.0002 1.7584L12.0001 1.75812Z" fill="#43A047"/>
</svg>
