<svg width="24" height="24" viewBox="0 0 24 24" fill="none" xmlns="http://www.w3.org/2000/svg">
<path d="M4.31607 2.85059H13.5139C14.798 2.85059 15.8414 3.89397 15.8414 5.17813C15.8414 6.46229 14.798 7.50567 13.5139 7.50567H4.31607C3.03191 7.50567 1.98853 6.46229 1.98853 5.17813C1.98853 3.89397 3.03191 2.85059 4.31607 2.85059Z" fill="#FF5722"/>
<path d="M19.5173 7.50567C20.8294 7.50567 21.893 6.46359 21.893 5.17813C21.893 3.89266 20.8294 2.85059 19.5173 2.85059C18.2052 2.85059 17.1416 3.89266 17.1416 5.17813C17.1416 6.46359 18.2052 7.50567 19.5173 7.50567Z" fill="#FF5722"/>
<path d="M10.4319 9.8011H19.5173C20.8014 9.70478 21.909 10.684 22.0053 11.9681C22.1017 13.2523 21.1225 14.3599 19.8383 14.4562H10.4319C9.1477 14.5525 8.04011 13.5733 7.9438 12.2892C7.84748 11.005 8.82666 9.89741 10.1108 9.8011H10.3355H10.4319Z" fill="#FF5722"/>
<path d="M4.36422 9.75293C5.68049 9.75293 6.73992 10.8124 6.73992 12.1286C6.73992 13.4449 5.68049 14.5043 4.36422 14.5043C3.04796 14.4883 1.98853 13.4288 1.98853 12.1286C1.98853 10.8124 3.04796 9.75293 4.36422 9.75293Z" fill="#FF1744"/>
<path d="M4.31607 16.4948H13.5139C14.798 16.4948 15.8414 17.5382 15.8414 18.8224C15.8414 20.1065 14.798 21.1499 13.5139 21.1499H4.31607C3.03191 21.1499 1.98853 20.1065 1.98853 18.8224C1.98853 17.5382 3.03191 16.4948 4.31607 16.4948Z" fill="#FF5722"/>
<path d="M19.5173 21.1499C20.8294 21.1499 21.893 20.1078 21.893 18.8224C21.893 17.5369 20.8294 16.4948 19.5173 16.4948C18.2052 16.4948 17.1416 17.5369 17.1416 18.8224C17.1416 20.1078 18.2052 21.1499 19.5173 21.1499Z" fill="#FF5722"/>
</svg>
