<svg width="24" height="24" viewBox="0 0 24 24" fill="none" xmlns="http://www.w3.org/2000/svg">
<path d="M18.1819 11.1285C17.9313 10.8017 17.6263 10.5184 17.343 10.2351C16.613 9.58142 15.7849 9.11292 15.0876 8.42652C14.3003 7.61581 13.7858 6.57952 13.6159 5.46229C13.5006 4.70446 13.5478 3.93506 13.7494 3.20383C13.8629 2.79253 13.5063 2.37516 13.119 2.55417C12.4986 2.84091 11.9346 3.22508 11.4268 3.63272C10.0327 4.77334 9.03156 6.32258 8.56441 8.0622C8.09726 9.80182 8.18762 11.6442 8.82278 13.3297C8.86636 13.4387 8.90994 13.5476 8.90994 13.6893C8.90994 13.929 8.74651 14.1469 8.52861 14.234C8.27802 14.343 8.01651 14.2776 7.80951 14.1033C7.15285 13.3116 6.73375 12.3501 6.60071 11.3302C6.56162 11.0305 6.54769 10.7293 6.55846 10.4298C6.57752 9.89999 5.91647 9.50661 5.62985 9.95258C4.73788 11.3405 4.29001 13.0503 4.38836 14.6918C4.45373 15.2365 4.5191 15.7813 4.70432 16.3261C4.85686 16.9798 5.15103 17.6335 5.47787 18.211C6.06805 19.1547 6.85764 19.9577 7.7912 20.5638C8.72477 21.1699 9.77967 21.5643 10.8819 21.7193C13.2135 22.0134 15.7085 21.5885 17.4954 19.976C18.475 19.0915 19.16 17.928 19.4581 16.6423C19.7562 15.3565 19.6529 14.0103 19.1624 12.785L19.0207 12.5017C18.7919 12.0005 18.1819 11.1285 18.1819 11.1285ZM14.7389 17.9929C14.4338 18.2544 13.9326 18.5377 13.5404 18.6466C12.3201 19.0824 11.0998 18.4723 10.3807 17.7532C10.9347 17.6338 11.444 17.3611 11.8505 16.9662C12.257 16.5712 12.5443 16.07 12.6796 15.5197C12.8649 14.6481 12.5162 13.929 12.3746 13.09C12.2218 12.3395 12.2861 11.561 12.5598 10.8456C12.7668 11.2596 12.9847 11.6736 13.2462 12.0005C14.0851 13.09 15.4034 13.5694 15.6867 15.0512C15.7303 15.2037 15.7521 15.3563 15.7521 15.5197C15.7633 15.9796 15.679 16.4368 15.5046 16.8625C15.3302 17.2882 15.0695 17.6731 14.7389 17.9929Z" fill="#FF7043"/>
</svg>
