<svg width="24" height="24" viewBox="0 0 24 24" fill="none" xmlns="http://www.w3.org/2000/svg">
<path d="M17.5579 4.56514C17.7461 4.57045 17.8234 4.8092 17.6739 4.92377L15.5909 6.52103L16.3395 9.0382C16.3933 9.21901 16.1898 9.36691 16.0344 9.25996L13.8709 7.77103L11.7074 9.25997C11.552 9.36691 11.3486 9.21901 11.4023 9.0382L12.1509 6.52103L10.0679 4.92377C9.91848 4.8092 9.99574 4.57045 10.184 4.56514L12.8109 4.49103L13.6823 2.02473C13.7452 1.8469 13.9967 1.8469 14.0595 2.02473L14.9309 4.49103L17.5579 4.56514ZM21.0516 11.4772C21.2406 11.4818 21.3183 11.7217 21.168 11.8362L19.9809 12.741L20.409 14.1778C20.4629 14.3586 20.2594 14.5066 20.104 14.3997L18.8709 13.551L17.6378 14.3997C17.4824 14.5066 17.2789 14.3586 17.3328 14.1778L17.7609 12.741L16.5738 11.8362C16.4235 11.7217 16.5013 11.4818 16.6902 11.4772L18.1809 11.441L18.6824 10.0239C18.7453 9.84616 18.9966 9.84616 19.0595 10.0239L19.5609 11.441L21.0516 11.4772ZM19.3409 16.441C20.1709 16.361 21.0609 17.541 20.5309 18.291C20.2109 18.741 19.8709 19.161 19.4509 19.561C15.5409 23.491 9.21092 23.491 5.31092 19.561C1.40092 15.661 1.40092 9.32103 5.31092 5.42103C5.71092 5.02103 6.13092 4.66103 6.58092 4.34103C7.33092 3.81103 8.51092 4.70103 8.43092 5.53103C8.16092 8.39103 9.12092 11.361 11.3209 13.551C12.3605 14.5962 13.6192 15.3977 15.0061 15.8974C16.393 16.3972 17.8736 16.5829 19.3409 16.441ZM17.7009 18.461C14.7652 18.2923 11.9919 17.0585 9.90092 14.991C7.73092 12.801 6.57092 9.99103 6.41092 7.17103C3.60092 10.311 3.71092 15.131 6.72092 18.151C9.74092 21.161 14.5609 21.271 17.7009 18.461Z" fill="#FBBF24"/>
</svg>
