<svg width="24" height="24" viewBox="0 0 24 24" fill="none" xmlns="http://www.w3.org/2000/svg">
<path d="M11.999 1.48098C10.6168 1.47782 9.24764 1.74771 7.97005 2.27516C6.69246 2.8026 5.53164 3.57721 4.55425 4.55452C3.57685 5.53182 2.80213 6.69257 2.27456 7.9701C1.74699 9.24764 1.47697 10.6168 1.48001 11.999C1.48001 17.827 6.17001 22.519 11.998 22.519C17.825 22.519 22.518 17.826 22.518 11.999C22.5209 10.6168 22.2508 9.24757 21.7231 7.97003C21.1954 6.69249 20.4206 5.53175 19.4431 4.55446C18.4656 3.57717 17.3048 2.80257 16.0271 2.27514C14.7495 1.7477 13.3812 1.47782 11.999 1.48098ZM7.95301 6.89898C7.99121 6.89823 8.0289 6.90791 8.06201 6.92698L13.724 10.197C13.7562 10.2158 13.7928 10.2257 13.83 10.2257C13.8673 10.2257 13.9038 10.2158 13.936 10.197L15.938 9.03998C15.9698 9.02113 16.0061 9.01103 16.0431 9.01069C16.0801 9.01035 16.1165 9.0198 16.1487 9.03807C16.1809 9.05634 16.2077 9.08278 16.2263 9.11473C16.245 9.14667 16.2549 9.18298 16.255 9.21999V16.89C16.2554 16.9272 16.2459 16.9639 16.2275 16.9963C16.209 17.0287 16.1823 17.0555 16.15 17.0742C16.1177 17.0928 16.0811 17.1025 16.0438 17.1023C16.0066 17.1021 15.9701 17.092 15.938 17.073L10.276 13.803C10.2441 13.7846 10.2079 13.7748 10.171 13.7748C10.1341 13.7748 10.0979 13.7846 10.066 13.803L8.06201 14.963C8.02992 14.9815 7.99351 14.9912 7.95647 14.9911C7.91942 14.991 7.88306 14.9811 7.85107 14.9625C7.81909 14.9438 7.79261 14.917 7.77433 14.8847C7.75606 14.8525 7.74663 14.816 7.74701 14.779V7.10998C7.747 7.05498 7.76857 7.00216 7.80709 6.96289C7.84561 6.92362 7.89801 6.90003 7.95301 6.89898Z" fill="#71717A"/>
</svg>
