<svg width="24" height="24" viewBox="0 0 24 24" fill="none" xmlns="http://www.w3.org/2000/svg">
<path d="M13.7904 1.95276C13.6471 1.95276 13.5105 1.9869 13.3876 2.02787C13.6539 2.2054 13.7973 2.43756 13.8724 2.70386C13.8792 2.738 13.886 2.76531 13.8929 2.79945C13.8997 2.83359 13.9065 2.8609 13.9065 2.89504C13.927 3.35253 13.7836 3.40716 13.688 3.68028C13.5378 4.02852 13.5788 4.40407 13.7631 4.70451C13.7768 4.73865 13.7973 4.77962 13.8246 4.82059C13.6266 3.50275 14.7259 3.30473 14.9307 2.89504C14.9444 2.53315 14.6508 2.29417 14.4186 2.13029C14.1797 1.99373 13.9748 1.95276 13.7904 1.95276ZM15.4429 2.24637C15.4224 2.36928 15.436 2.33514 15.4292 2.39659C15.4224 2.43756 15.4224 2.49218 15.4155 2.53315C15.4019 2.57412 15.3951 2.61509 15.3814 2.65606L15.3404 2.77897C15.32 2.81993 15.3063 2.85408 15.2858 2.90187L15.2448 2.96333C15.2312 2.97698 15.2244 2.99747 15.2107 3.01112C15.1834 3.04526 15.1561 3.08623 15.1356 3.11355C15.1015 3.14769 15.081 3.18183 15.04 3.20914V3.21597C15.0059 3.24328 14.9785 3.27059 14.9444 3.29791C14.8352 3.37984 14.7122 3.4413 14.5962 3.52324C14.562 3.55055 14.5211 3.57103 14.4937 3.59834C14.4596 3.62566 14.4255 3.65297 14.3982 3.68028L14.3026 3.77588C14.2752 3.81002 14.2479 3.84416 14.2274 3.8783C14.2001 3.91244 14.1728 3.95341 14.1523 3.98755C14.1319 4.02852 14.1182 4.06266 14.0977 4.11046C14.0841 4.15143 14.0636 4.18557 14.0567 4.23336C14.0431 4.28116 14.0294 4.32213 14.0226 4.3631C14.0158 4.38358 14.0158 4.4109 14.0089 4.43138C14.0021 4.45186 14.0021 4.47235 13.9953 4.49283C13.9953 4.5338 13.9885 4.5816 13.9885 4.62257C13.9885 4.65671 13.9885 4.68402 13.9953 4.71816C13.9953 4.75913 14.0021 4.8001 14.0089 4.8479C14.0158 4.88887 14.0226 4.92984 14.0363 4.97081L14.0772 5.09371C14.0909 5.12102 14.1045 5.14834 14.1114 5.16882L12.9164 4.70451C12.7116 4.64988 12.5136 4.59526 12.3156 4.54746C12.2063 4.52015 12.0971 4.49283 11.9878 4.47235C11.6737 4.4109 11.3596 4.3631 11.0387 4.32896C11.025 4.32896 11.025 4.32213 11.0114 4.32213C10.6973 4.28799 10.39 4.27433 10.0828 4.27433C9.8506 4.27433 9.62527 4.28799 9.39994 4.30165C9.08584 4.32213 8.76492 4.3631 8.45083 4.41772C8.37572 4.43138 8.29378 4.44504 8.21867 4.45869C8.05479 4.49283 7.90457 4.52697 7.74752 4.56112C7.67241 4.5816 7.59048 4.60208 7.51537 4.62257C7.44026 4.65671 7.36515 4.69085 7.29004 4.71816C7.23541 4.74548 7.17396 4.77279 7.11933 4.79327C7.10568 4.8001 7.09885 4.8001 7.09202 4.80693C7.0374 4.83424 6.99643 4.85473 6.94863 4.88204C6.93497 4.88887 6.92132 4.89569 6.91449 4.89569C6.85986 4.92301 6.79841 4.95032 6.75061 4.97763C6.71647 4.99129 6.6755 5.01177 6.64819 5.03226C6.63453 5.04591 6.61405 5.05274 6.60039 5.05957C6.5526 5.08688 6.5048 5.1142 6.46383 5.13468C6.41603 5.16199 6.37506 5.18931 6.34092 5.20979C6.30678 5.2371 6.26581 5.25759 6.2385 5.2849C6.23167 5.29173 6.22484 5.29173 6.22484 5.29856C6.1907 5.31904 6.15656 5.34635 6.12925 5.37367L6.11559 5.38732C6.08828 5.40781 6.06097 5.42829 6.04048 5.44878C6.02683 5.4556 6.02 5.46243 6.00634 5.46926C5.97903 5.48975 5.95172 5.51706 5.93123 5.53754C5.92441 5.5512 5.91758 5.5512 5.91075 5.55803C5.87661 5.59217 5.8493 5.61265 5.81516 5.64679C5.80833 5.64679 5.80833 5.65362 5.8015 5.66045C5.76736 5.68776 5.74004 5.71507 5.7059 5.74922C5.69908 5.75604 5.69908 5.76287 5.69225 5.76287C5.66494 5.79018 5.63762 5.8175 5.61714 5.84481C5.60348 5.85847 5.58983 5.86529 5.583 5.87895C5.55568 5.91309 5.52837 5.9404 5.49423 5.97454C5.4874 5.9882 5.48058 5.9882 5.47375 6.00186C5.43278 6.04283 5.39864 6.0838 5.35084 6.12476L5.33718 6.13842C5.25525 6.22719 5.16648 6.31595 5.07089 6.39106C4.97529 6.473 4.8797 6.55494 4.77727 6.62322C4.67485 6.69833 4.57243 6.75978 4.46318 6.82124C4.36076 6.87586 4.25151 6.93049 4.13543 6.97828C4.02618 7.02608 3.9101 7.06705 3.79402 7.10119C3.57552 7.14899 3.35019 7.23775 3.159 7.25141C3.11803 7.25141 3.07023 7.26507 3.02927 7.26507C2.98147 7.27872 2.9405 7.28555 2.89953 7.29921C2.85856 7.31286 2.81759 7.33335 2.77662 7.347C2.73565 7.36066 2.69469 7.38115 2.65372 7.40163C2.61958 7.42894 2.57861 7.44943 2.53764 7.47674C2.5035 7.50405 2.46253 7.53136 2.43522 7.56551C2.40107 7.59282 2.36011 7.62696 2.33279 7.6611C2.29865 7.69524 2.27134 7.72938 2.24403 7.76352C2.21671 7.80449 2.1894 7.83863 2.16892 7.88643C2.1416 7.92057 2.11429 7.96154 2.09381 8.00934C2.07332 8.05713 2.05284 8.0981 2.03918 8.1459C2.02553 8.18687 2.00504 8.23466 1.99139 8.28246C1.97773 8.32343 1.9709 8.3644 1.96407 8.40537C1.96407 8.4122 1.95724 8.41902 1.95724 8.41902C1.94359 8.46682 1.94359 8.52828 1.94359 8.56242C1.93676 8.59656 1.92993 8.6307 1.92993 8.66484C1.92993 8.68532 1.92993 8.71264 1.93676 8.73312C1.94359 8.76726 1.95042 8.8014 1.95724 8.82871C1.9709 8.86286 1.97773 8.89017 1.99139 8.92431V8.93114C2.00504 8.96528 2.02553 8.99259 2.04601 9.02673C2.06649 9.06087 2.08698 9.08819 2.11429 9.12233C2.1416 9.14964 2.16892 9.17695 2.20306 9.20426C2.2372 9.2384 2.26451 9.25889 2.29865 9.2862C2.42156 9.39545 2.4557 9.42959 2.61275 9.51836L2.69469 9.55933C2.70151 9.55933 2.70834 9.56616 2.70834 9.56616C2.70834 9.57981 2.70834 9.57981 2.71517 9.59347C2.722 9.63444 2.72883 9.67541 2.74248 9.71638C2.75614 9.76417 2.7698 9.80514 2.78345 9.83928C2.79711 9.87342 2.81076 9.90074 2.82442 9.93488C2.83125 9.94853 2.83808 9.95536 2.83808 9.96219C2.85856 10.0032 2.87905 10.0373 2.89953 10.0783C2.92684 10.1124 2.95416 10.1534 2.97464 10.1875C3.00195 10.2217 3.02927 10.2558 3.06341 10.2831C3.09755 10.3173 3.12486 10.3377 3.159 10.3719C3.159 10.3719 3.16583 10.3787 3.17266 10.3787C3.2068 10.406 3.23411 10.4333 3.26825 10.4538C3.30239 10.4811 3.34336 10.5016 3.38433 10.5221C3.41847 10.5426 3.45944 10.5631 3.50724 10.5767C3.54138 10.5904 3.57552 10.604 3.60966 10.6109C3.61649 10.6177 3.62332 10.6177 3.63014 10.6245C3.65063 10.6313 3.67794 10.6382 3.69843 10.6382C3.68477 10.9181 3.67794 11.1844 3.71891 11.28C3.76671 11.3824 3.99204 11.0684 4.22419 10.6996C4.19005 11.0615 4.16957 11.478 4.22419 11.6078C4.27882 11.7375 4.59291 11.3347 4.86604 10.884C8.55325 10.0305 11.9195 12.5774 12.2746 16.1826C12.2063 15.6227 11.5167 15.3086 11.1957 15.3837C11.0387 15.7661 10.7724 16.2646 10.3491 16.5718C10.3832 16.2304 10.3695 15.8754 10.2944 15.534C10.1783 16.0119 9.95302 16.4626 9.65258 16.845C9.16095 16.8791 8.6625 16.6401 8.40303 16.2851C8.38254 16.2714 8.37572 16.2373 8.36206 16.2168C8.3484 16.1826 8.32792 16.1417 8.32109 16.1075C8.30743 16.0734 8.29378 16.0324 8.28695 15.9983C8.28012 15.9641 8.28012 15.9232 8.28012 15.8822V15.8071C8.28695 15.773 8.29378 15.732 8.30743 15.6978C8.32109 15.6637 8.32792 15.6227 8.34157 15.5886C8.36206 15.5545 8.37571 15.5135 8.40303 15.4793C8.49179 15.2267 8.49179 15.0287 8.32792 14.9058C8.29378 14.8853 8.26646 14.8716 8.23232 14.8512C8.21184 14.8443 8.18453 14.8375 8.16404 14.8307C8.15039 14.8238 8.13673 14.817 8.12307 14.817C8.08893 14.8034 8.04796 14.7965 8.01382 14.7897C7.97968 14.776 7.93871 14.776 7.90457 14.776C7.87043 14.7692 7.82946 14.7624 7.78849 14.7624C7.76118 14.7624 7.73387 14.7692 7.71338 14.7692C7.67241 14.7692 7.63827 14.776 7.5973 14.7829C7.56316 14.7897 7.5222 14.7965 7.48805 14.8034C7.45391 14.817 7.41294 14.8238 7.3788 14.8375C7.34466 14.8512 7.31052 14.8716 7.27638 14.8853C7.24224 14.8989 7.21493 14.9194 7.18079 14.9399C5.96537 15.732 6.68916 17.5824 7.5222 18.115C7.2081 18.1696 6.894 18.2379 6.80524 18.3062L6.79158 18.3199C7.01691 18.4564 7.24907 18.5725 7.49488 18.6681C7.82946 18.7773 8.18453 18.8729 8.33475 18.9207V18.9276C8.76492 19.0163 9.20192 19.0505 9.64575 19.0232C11.9468 18.8593 13.8382 17.1113 14.1797 14.7965C14.1933 14.8443 14.2001 14.8853 14.2138 14.9331C14.2274 15.0287 14.2479 15.1243 14.2616 15.2267V15.2335C14.2752 15.2813 14.2752 15.3291 14.2821 15.3701V15.3906C14.2889 15.4384 14.2957 15.4862 14.2957 15.5271C14.3026 15.5818 14.3094 15.6432 14.3094 15.6978V15.7798C14.3094 15.8071 14.3162 15.8344 14.3162 15.8617C14.3162 15.8959 14.3094 15.9232 14.3094 15.9573V16.0324C14.3094 16.0666 14.3026 16.1007 14.3026 16.1348C14.3026 16.1553 14.3026 16.1758 14.2957 16.2031C14.2957 16.2373 14.2889 16.2782 14.2889 16.3192C14.2821 16.3329 14.2821 16.3533 14.2821 16.367C14.2752 16.408 14.2684 16.4421 14.2684 16.4899C14.2684 16.5036 14.2684 16.5241 14.2616 16.5377C14.2548 16.5923 14.2479 16.6333 14.2411 16.6879V16.7016C14.2274 16.7494 14.2206 16.7972 14.207 16.845V16.8586C14.1933 16.9064 14.1865 16.9542 14.1728 17.002C14.1728 17.0089 14.166 17.0157 14.166 17.0225C14.1523 17.0703 14.1455 17.1181 14.1319 17.1659V17.1796C14.1182 17.2342 14.0977 17.2752 14.0909 17.3229C14.0841 17.3298 14.0841 17.3366 14.0841 17.3366C14.0704 17.3912 14.0499 17.439 14.0363 17.4937C14.0158 17.5483 14.0021 17.5892 13.9816 17.6439C13.9612 17.6985 13.9475 17.7463 13.927 17.7941C13.9065 17.8487 13.886 17.8897 13.8656 17.9443H13.8587C13.8382 17.9921 13.8178 18.0399 13.7904 18.0877C13.7836 18.1014 13.7768 18.115 13.7768 18.1218C13.77 18.1287 13.77 18.1355 13.7631 18.1355C13.4217 18.8183 12.9233 19.4124 12.3019 19.8835C12.2609 19.9108 12.22 19.9381 12.179 19.9723C12.1653 19.9859 12.1517 19.9859 12.1449 19.9996C12.1107 20.0269 12.0698 20.0542 12.0288 20.0747L12.0424 20.1088H12.0493C12.1244 20.0952 12.1927 20.0884 12.2678 20.0747H12.2746C12.4112 20.0542 12.5477 20.0269 12.6775 19.9996C12.7116 19.9928 12.7526 19.9859 12.7935 19.9723C12.8208 19.9654 12.8413 19.9586 12.8686 19.9586C12.9028 19.9518 12.9438 19.945 12.9779 19.9381C13.012 19.9245 13.0393 19.9245 13.0735 19.9108C13.5924 19.7879 14.0977 19.6172 14.5825 19.4124C13.7563 20.539 12.6501 21.454 11.3528 22.048C11.9537 22.0071 12.5477 21.9046 13.1281 21.7408C15.2244 21.1194 16.986 19.7128 18.0444 17.8146C17.8327 19.0163 17.3547 20.1635 16.6446 21.1604C17.1499 20.8258 17.6142 20.4434 18.0307 20.0064C19.1984 18.791 19.9631 17.241 20.2226 15.5818C20.4001 16.4011 20.4547 17.2547 20.3728 18.0877C24.1283 12.8505 20.6869 7.41529 19.2461 5.9882C19.2393 5.97455 19.2325 5.97454 19.2325 5.96089C19.2257 5.96772 19.2257 5.96772 19.2257 5.97454C19.2257 5.96772 19.2257 5.96772 19.2188 5.96089C19.2188 6.02234 19.212 6.0838 19.2052 6.14525C19.1915 6.26816 19.171 6.37741 19.1506 6.49348C19.1232 6.60956 19.0959 6.72564 19.0618 6.83489C19.0276 6.94414 18.9867 7.06022 18.9389 7.16947C18.8911 7.27189 18.8433 7.38115 18.7818 7.48357C18.7272 7.57916 18.6589 7.68841 18.5975 7.77718C18.5292 7.87277 18.4541 7.96837 18.3858 8.05713C18.3107 8.15273 18.2219 8.23466 18.14 8.3166C18.0854 8.3644 18.0444 8.40537 17.9898 8.44634C17.9488 8.48048 17.9147 8.51462 17.8669 8.54876C17.7713 8.62387 17.6825 8.69215 17.5732 8.75361C17.4777 8.81506 17.3684 8.87651 17.266 8.93114C17.1567 8.98576 17.0475 9.02673 16.9382 9.07453C16.829 9.1155 16.7129 9.14964 16.5968 9.18378C16.4807 9.21792 16.3647 9.23841 16.2486 9.25889C16.1257 9.27937 16.0096 9.29303 15.8935 9.29986C15.8116 9.30669 15.7296 9.31351 15.6409 9.31351C15.518 9.31351 15.4019 9.29986 15.2858 9.29303C15.1629 9.27937 15.0468 9.26572 14.9307 9.2384C14.8078 9.21792 14.6986 9.18378 14.5825 9.14964H14.5757C14.6918 9.13598 14.8078 9.12915 14.9171 9.10867C15.04 9.08818 15.1493 9.06087 15.2653 9.03356C15.3814 8.99942 15.4975 8.96528 15.6067 8.92431C15.7228 8.88334 15.8321 8.82872 15.9345 8.78092C16.0437 8.72629 16.1393 8.67167 16.2486 8.61021C16.3442 8.54193 16.4466 8.47365 16.5422 8.40537C16.6378 8.33026 16.7266 8.25515 16.8085 8.17321C16.8973 8.0981 16.9724 8.00934 17.0543 7.92057C17.1294 7.82498 17.2045 7.73621 17.2728 7.64061C17.2865 7.62696 17.2933 7.60648 17.307 7.58599C17.3616 7.50405 17.4094 7.42211 17.4572 7.33335C17.5118 7.23093 17.5664 7.1285 17.6142 7.01925C17.662 6.91 17.703 6.80075 17.7371 6.68467C17.7713 6.57542 17.7986 6.45934 17.8259 6.34326C17.8464 6.22036 17.8669 6.11111 17.8805 5.99503C17.8942 5.87212 17.901 5.75604 17.901 5.63997C17.901 5.55803 17.8942 5.47609 17.8873 5.38732C17.8737 5.26442 17.86 5.15517 17.8464 5.03909C17.8259 4.91618 17.7986 4.80693 17.7713 4.69085C17.7371 4.5816 17.6962 4.46552 17.6552 4.35627C17.6142 4.24702 17.5596 4.13777 17.5118 4.03535C17.4572 3.93293 17.3957 3.8305 17.3343 3.72808L17.1294 3.4413C17.0543 3.35253 16.9724 3.26377 16.8904 3.175C16.8495 3.13403 16.8017 3.08623 16.7539 3.04526C16.5217 2.8609 16.2759 2.6902 16.0301 2.53315C15.9959 2.51267 15.9618 2.49901 15.9277 2.47853C15.7638 2.35562 15.6067 2.30099 15.4429 2.24637Z" fill="#4ADE80"/>
</svg>
