<svg width="24" height="24" viewBox="0 0 24 24" fill="none" xmlns="http://www.w3.org/2000/svg">
<path d="M13.7907 1.95276C13.6473 1.95276 13.5107 1.9869 13.3878 2.02787C13.6541 2.2054 13.7975 2.43756 13.8726 2.70386C13.8795 2.738 13.8863 2.76531 13.8931 2.79945C13.8999 2.83359 13.9068 2.8609 13.9068 2.89504C13.9273 3.35253 13.7839 3.40716 13.6883 3.68028C13.538 4.02852 13.579 4.40407 13.7634 4.70451C13.777 4.73865 13.7975 4.77962 13.8248 4.82059C13.6268 3.50275 14.7261 3.30473 14.931 2.89504C14.9447 2.53315 14.651 2.29417 14.4189 2.13029C14.1799 1.99373 13.9751 1.95276 13.7907 1.95276ZM15.4431 2.24637C15.4226 2.36928 15.4363 2.33514 15.4295 2.39659C15.4226 2.43756 15.4226 2.49218 15.4158 2.53315C15.4021 2.57412 15.3953 2.61509 15.3817 2.65606L15.3407 2.77897C15.3202 2.81993 15.3065 2.85408 15.2861 2.90187L15.2451 2.96333C15.2314 2.97698 15.2246 2.99747 15.2109 3.01112C15.1836 3.04526 15.1563 3.08623 15.1358 3.11355C15.1017 3.14769 15.0812 3.18183 15.0402 3.20914V3.21597C15.0061 3.24328 14.9788 3.27059 14.9447 3.29791C14.8354 3.37984 14.7125 3.4413 14.5964 3.52324C14.5623 3.55055 14.5213 3.57103 14.494 3.59834C14.4599 3.62566 14.4257 3.65297 14.3984 3.68028L14.3028 3.77588C14.2755 3.81002 14.2482 3.84416 14.2277 3.8783C14.2004 3.91244 14.1731 3.95341 14.1526 3.98755C14.1321 4.02852 14.1184 4.06266 14.098 4.11046C14.0843 4.15143 14.0638 4.18557 14.057 4.23336C14.0433 4.28116 14.0297 4.32213 14.0228 4.3631C14.016 4.38358 14.016 4.4109 14.0092 4.43138C14.0024 4.45186 14.0024 4.47235 13.9955 4.49283C13.9955 4.5338 13.9887 4.5816 13.9887 4.62257C13.9887 4.65671 13.9887 4.68402 13.9955 4.71816C13.9955 4.75913 14.0024 4.8001 14.0092 4.8479C14.016 4.88887 14.0228 4.92984 14.0365 4.97081L14.0775 5.09371C14.0911 5.12102 14.1048 5.14834 14.1116 5.16882L12.9167 4.70451C12.7118 4.64988 12.5138 4.59526 12.3158 4.54746C12.2066 4.52015 12.0973 4.49283 11.9881 4.47235C11.674 4.4109 11.3599 4.3631 11.0389 4.32896C11.0253 4.32896 11.0253 4.32213 11.0116 4.32213C10.6975 4.28799 10.3903 4.27433 10.083 4.27433C9.85084 4.27433 9.62551 4.28799 9.40018 4.30165C9.08609 4.32213 8.76516 4.3631 8.45107 4.41772C8.37596 4.43138 8.29402 4.44504 8.21891 4.45869C8.05504 4.49283 7.90482 4.52697 7.74777 4.56112C7.67266 4.5816 7.59072 4.60208 7.51561 4.62257C7.4405 4.65671 7.36539 4.69085 7.29028 4.71816C7.23566 4.74548 7.1742 4.77279 7.11958 4.79327C7.10592 4.8001 7.09909 4.8001 7.09227 4.80693C7.03764 4.83424 6.99667 4.85473 6.94887 4.88204C6.93522 4.88887 6.92156 4.89569 6.91473 4.89569C6.86011 4.92301 6.79865 4.95032 6.75086 4.97763C6.71672 4.99129 6.67575 5.01177 6.64843 5.03226C6.63478 5.04591 6.61429 5.05274 6.60064 5.05957C6.55284 5.08688 6.50504 5.1142 6.46407 5.13468C6.41628 5.16199 6.37531 5.18931 6.34117 5.20979C6.30703 5.2371 6.26606 5.25759 6.23875 5.2849C6.23192 5.29173 6.22509 5.29173 6.22509 5.29856C6.19095 5.31904 6.15681 5.34635 6.12949 5.37367L6.11584 5.38732C6.08853 5.40781 6.06121 5.42829 6.04073 5.44878C6.02707 5.4556 6.02024 5.46243 6.00659 5.46926C5.97927 5.48975 5.95196 5.51706 5.93148 5.53754C5.92465 5.5512 5.91782 5.5512 5.91099 5.55803C5.87685 5.59217 5.84954 5.61265 5.8154 5.64679C5.80857 5.64679 5.80857 5.65362 5.80174 5.66045C5.7676 5.68776 5.74029 5.71507 5.70615 5.74922C5.69932 5.75604 5.69932 5.76287 5.69249 5.76287C5.66518 5.79018 5.63787 5.8175 5.61738 5.84481C5.60373 5.85847 5.59007 5.86529 5.58324 5.87895C5.55593 5.91309 5.52862 5.9404 5.49448 5.97454C5.48765 5.9882 5.48082 5.9882 5.47399 6.00186C5.43302 6.04283 5.39888 6.0838 5.35108 6.12476L5.33743 6.13842C5.25549 6.22719 5.16672 6.31595 5.07113 6.39106C4.97554 6.473 4.87994 6.55494 4.77752 6.62322C4.6751 6.69833 4.57267 6.75978 4.46342 6.82124C4.361 6.87586 4.25175 6.93049 4.13567 6.97828C4.02642 7.02608 3.91034 7.06705 3.79426 7.10119C3.57576 7.14899 3.35043 7.23775 3.15924 7.25141C3.11828 7.25141 3.07048 7.26507 3.02951 7.26507C2.98171 7.27872 2.94074 7.28555 2.89977 7.29921C2.85881 7.31286 2.81784 7.33335 2.77687 7.347C2.7359 7.36066 2.69493 7.38115 2.65396 7.40163C2.61982 7.42894 2.57885 7.44943 2.53788 7.47674C2.50374 7.50405 2.46277 7.53136 2.43546 7.56551C2.40132 7.59282 2.36035 7.62696 2.33304 7.6611C2.2989 7.69524 2.27158 7.72938 2.24427 7.76352C2.21696 7.80449 2.18965 7.83863 2.16916 7.88643C2.14185 7.92057 2.11454 7.96154 2.09405 8.00934C2.07357 8.05713 2.05308 8.0981 2.03943 8.1459C2.02577 8.18687 2.00529 8.23466 1.99163 8.28246C1.97797 8.32343 1.97114 8.3644 1.96432 8.40537C1.96432 8.4122 1.95749 8.41902 1.95749 8.41902C1.94383 8.46682 1.94383 8.52828 1.94383 8.56242C1.937 8.59656 1.93018 8.6307 1.93018 8.66484C1.93018 8.68532 1.93018 8.71264 1.937 8.73312C1.94383 8.76726 1.95066 8.8014 1.95749 8.82871C1.97114 8.86286 1.97797 8.89017 1.99163 8.92431V8.93114C2.00529 8.96528 2.02577 8.99259 2.04625 9.02673C2.06674 9.06087 2.08722 9.08819 2.11454 9.12233C2.14185 9.14964 2.16916 9.17695 2.2033 9.20426C2.23744 9.2384 2.26476 9.25889 2.2989 9.2862C2.4218 9.39545 2.45594 9.42959 2.61299 9.51836L2.69493 9.55933C2.70176 9.55933 2.70859 9.56616 2.70859 9.56616C2.70859 9.57981 2.70859 9.57981 2.71541 9.59347C2.72224 9.63444 2.72907 9.67541 2.74273 9.71638C2.75638 9.76417 2.77004 9.80514 2.7837 9.83928C2.79735 9.87342 2.81101 9.90074 2.82466 9.93488C2.83149 9.94853 2.83832 9.95536 2.83832 9.96219C2.85881 10.0032 2.87929 10.0373 2.89977 10.0783C2.92709 10.1124 2.9544 10.1534 2.97488 10.1875C3.0022 10.2217 3.02951 10.2558 3.06365 10.2831C3.09779 10.3173 3.1251 10.3377 3.15924 10.3719C3.15924 10.3719 3.16607 10.3787 3.1729 10.3787C3.20704 10.406 3.23435 10.4333 3.2685 10.4538C3.30264 10.4811 3.34361 10.5016 3.38457 10.5221C3.41871 10.5426 3.45968 10.5631 3.50748 10.5767C3.54162 10.5904 3.57576 10.604 3.6099 10.6109C3.61673 10.6177 3.62356 10.6177 3.63039 10.6245C3.65087 10.6313 3.67818 10.6382 3.69867 10.6382C3.68501 10.9181 3.67818 11.1844 3.71915 11.28C3.76695 11.3824 3.99228 11.0684 4.22444 10.6996C4.1903 11.0615 4.16981 11.478 4.22444 11.6078C4.27906 11.7375 4.59316 11.3347 4.86628 10.884C8.55349 10.0305 11.9198 12.5774 12.2748 16.1826C12.2066 15.6227 11.5169 15.3086 11.196 15.3837C11.0389 15.7661 10.7726 16.2646 10.3493 16.5718C10.3834 16.2304 10.3698 15.8754 10.2947 15.534C10.1786 16.0119 9.95326 16.4626 9.65283 16.845C9.1612 16.8791 8.66274 16.6401 8.40327 16.2851C8.38279 16.2714 8.37596 16.2373 8.3623 16.2168C8.34865 16.1826 8.32816 16.1417 8.32133 16.1075C8.30768 16.0734 8.29402 16.0324 8.28719 15.9983C8.28036 15.9641 8.28036 15.9232 8.28036 15.8822V15.8071C8.28719 15.773 8.29402 15.732 8.30768 15.6978C8.32133 15.6637 8.32816 15.6227 8.34182 15.5886C8.3623 15.5545 8.37596 15.5135 8.40327 15.4793C8.49204 15.2267 8.49204 15.0287 8.32816 14.9058C8.29402 14.8853 8.26671 14.8716 8.23257 14.8512C8.21208 14.8443 8.18477 14.8375 8.16429 14.8307C8.15063 14.8238 8.13697 14.817 8.12332 14.817C8.08918 14.8034 8.04821 14.7965 8.01407 14.7897C7.97993 14.776 7.93896 14.776 7.90482 14.776C7.87068 14.7692 7.82971 14.7624 7.78874 14.7624C7.76142 14.7624 7.73411 14.7692 7.71363 14.7692C7.67266 14.7692 7.63852 14.776 7.59755 14.7829C7.56341 14.7897 7.52244 14.7965 7.4883 14.8034C7.45416 14.817 7.41319 14.8238 7.37905 14.8375C7.34491 14.8512 7.31077 14.8716 7.27663 14.8853C7.24248 14.8989 7.21517 14.9194 7.18103 14.9399C5.96562 15.732 6.6894 17.5824 7.52244 18.115C7.20834 18.1696 6.89425 18.2379 6.80548 18.3062L6.79183 18.3199C7.01716 18.4564 7.24931 18.5725 7.49513 18.6681C7.82971 18.7773 8.18477 18.8729 8.33499 18.9207V18.9276C8.76516 19.0163 9.20217 19.0505 9.646 19.0232C11.9471 18.8593 13.8385 17.1113 14.1799 14.7965C14.1936 14.8443 14.2004 14.8853 14.214 14.9331C14.2277 15.0287 14.2482 15.1243 14.2618 15.2267V15.2335C14.2755 15.2813 14.2755 15.3291 14.2823 15.3701V15.3906C14.2891 15.4384 14.296 15.4862 14.296 15.5271C14.3028 15.5818 14.3096 15.6432 14.3096 15.6978V15.7798C14.3096 15.8071 14.3165 15.8344 14.3165 15.8617C14.3165 15.8959 14.3096 15.9232 14.3096 15.9573V16.0324C14.3096 16.0666 14.3028 16.1007 14.3028 16.1348C14.3028 16.1553 14.3028 16.1758 14.296 16.2031C14.296 16.2373 14.2891 16.2782 14.2891 16.3192C14.2823 16.3329 14.2823 16.3533 14.2823 16.367C14.2755 16.408 14.2687 16.4421 14.2687 16.4899C14.2687 16.5036 14.2687 16.5241 14.2618 16.5377C14.255 16.5923 14.2482 16.6333 14.2413 16.6879V16.7016C14.2277 16.7494 14.2209 16.7972 14.2072 16.845V16.8586C14.1936 16.9064 14.1867 16.9542 14.1731 17.002C14.1731 17.0089 14.1662 17.0157 14.1662 17.0225C14.1526 17.0703 14.1458 17.1181 14.1321 17.1659V17.1796C14.1184 17.2342 14.098 17.2752 14.0911 17.3229C14.0843 17.3298 14.0843 17.3366 14.0843 17.3366C14.0706 17.3912 14.0502 17.439 14.0365 17.4937C14.016 17.5483 14.0024 17.5892 13.9819 17.6439C13.9614 17.6985 13.9477 17.7463 13.9273 17.7941C13.9068 17.8487 13.8863 17.8897 13.8658 17.9443H13.859C13.8385 17.9921 13.818 18.0399 13.7907 18.0877C13.7839 18.1014 13.777 18.115 13.777 18.1218C13.7702 18.1287 13.7702 18.1355 13.7634 18.1355C13.422 18.8183 12.9235 19.4124 12.3022 19.8835C12.2612 19.9108 12.2202 19.9381 12.1792 19.9723C12.1656 19.9859 12.1519 19.9859 12.1451 19.9996C12.111 20.0269 12.07 20.0542 12.029 20.0747L12.0427 20.1088H12.0495C12.1246 20.0952 12.1929 20.0884 12.268 20.0747H12.2748C12.4114 20.0542 12.548 20.0269 12.6777 19.9996C12.7118 19.9928 12.7528 19.9859 12.7938 19.9723C12.8211 19.9654 12.8416 19.9586 12.8689 19.9586C12.903 19.9518 12.944 19.945 12.9781 19.9381C13.0123 19.9245 13.0396 19.9245 13.0737 19.9108C13.5927 19.7879 14.098 19.6172 14.5828 19.4124C13.7565 20.539 12.6504 21.454 11.353 22.048C11.9539 22.0071 12.548 21.9046 13.1284 21.7408C15.2246 21.1194 16.9863 19.7128 18.0446 17.8146C17.833 19.0163 17.355 20.1635 16.6449 21.1604C17.1501 20.8258 17.6145 20.4434 18.031 20.0064C19.1986 18.791 19.9633 17.241 20.2228 15.5818C20.4004 16.4011 20.455 17.2547 20.373 18.0877C24.1285 12.8505 20.6871 7.41529 19.2464 5.9882C19.2396 5.97455 19.2327 5.97454 19.2327 5.96089C19.2259 5.96772 19.2259 5.96772 19.2259 5.97454C19.2259 5.96772 19.2259 5.96772 19.2191 5.96089C19.2191 6.02234 19.2122 6.0838 19.2054 6.14525C19.1918 6.26816 19.1713 6.37741 19.1508 6.49348C19.1235 6.60956 19.0962 6.72564 19.062 6.83489C19.0279 6.94414 18.9869 7.06022 18.9391 7.16947C18.8913 7.27189 18.8435 7.38115 18.7821 7.48357C18.7275 7.57916 18.6592 7.68841 18.5977 7.77718C18.5294 7.87277 18.4543 7.96837 18.386 8.05713C18.3109 8.15273 18.2222 8.23466 18.1402 8.3166C18.0856 8.3644 18.0446 8.40537 17.99 8.44634C17.949 8.48048 17.9149 8.51462 17.8671 8.54876C17.7715 8.62387 17.6827 8.69215 17.5735 8.75361C17.4779 8.81506 17.3686 8.87651 17.2662 8.93114C17.157 8.98576 17.0477 9.02673 16.9385 9.07453C16.8292 9.1155 16.7131 9.14964 16.5971 9.18378C16.481 9.21792 16.3649 9.23841 16.2488 9.25889C16.1259 9.27937 16.0098 9.29303 15.8938 9.29986C15.8118 9.30669 15.7299 9.31351 15.6411 9.31351C15.5182 9.31351 15.4021 9.29986 15.2861 9.29303C15.1632 9.27937 15.0471 9.26572 14.931 9.2384C14.8081 9.21792 14.6988 9.18378 14.5828 9.14964H14.5759C14.692 9.13598 14.8081 9.12915 14.9173 9.10867C15.0402 9.08818 15.1495 9.06087 15.2656 9.03356C15.3817 8.99942 15.4977 8.96528 15.607 8.92431C15.7231 8.88334 15.8323 8.82872 15.9347 8.78092C16.044 8.72629 16.1396 8.67167 16.2488 8.61021C16.3444 8.54193 16.4468 8.47365 16.5424 8.40537C16.638 8.33026 16.7268 8.25515 16.8087 8.17321C16.8975 8.0981 16.9726 8.00934 17.0546 7.92057C17.1297 7.82498 17.2048 7.73621 17.2731 7.64061C17.2867 7.62696 17.2935 7.60648 17.3072 7.58599C17.3618 7.50405 17.4096 7.42211 17.4574 7.33335C17.512 7.23093 17.5667 7.1285 17.6145 7.01925C17.6623 6.91 17.7032 6.80075 17.7374 6.68467C17.7715 6.57542 17.7988 6.45934 17.8261 6.34326C17.8466 6.22036 17.8671 6.11111 17.8808 5.99503C17.8944 5.87212 17.9012 5.75604 17.9012 5.63997C17.9012 5.55803 17.8944 5.47609 17.8876 5.38732C17.8739 5.26442 17.8603 5.15517 17.8466 5.03909C17.8261 4.91618 17.7988 4.80693 17.7715 4.69085C17.7374 4.5816 17.6964 4.46552 17.6554 4.35627C17.6145 4.24702 17.5598 4.13777 17.512 4.03535C17.4574 3.93293 17.396 3.8305 17.3345 3.72808L17.1297 3.4413C17.0546 3.35253 16.9726 3.26377 16.8907 3.175C16.8497 3.13403 16.8019 3.08623 16.7541 3.04526C16.522 2.8609 16.2761 2.6902 16.0303 2.53315C15.9962 2.51267 15.962 2.49901 15.9279 2.47853C15.764 2.35562 15.607 2.30099 15.4431 2.24637Z" fill="#60A5FA"/>
</svg>
