<svg width="24" height="25" viewBox="0 0 24 25" fill="none" xmlns="http://www.w3.org/2000/svg">
<path d="M11.2502 2.23242L11.1232 2.35938V6.92579L11.2502 7.0547H12.7756L12.9026 6.92579V2.35938L12.7756 2.23242H11.2502ZM6.68949 5.4551L5.64456 6.50003V6.71097L7.24419 8.31061H8.35162L8.50007 8.16217V7.05473L6.90043 5.4551L6.68949 5.4551ZM1.02735 11.1094L0.900391 11.2364V12.7638L1.02735 12.8907H7.11734L7.2443 12.7638V11.2364L7.11734 11.1094H1.02735ZM16.8851 11.1094L16.7581 11.2364V12.7638L16.8851 12.8907H22.9751L23.102 12.7638V11.2364L22.9751 11.1094H16.8851ZM7.24429 15.6895L5.64466 17.2892V17.4982L6.68959 18.5451H6.90054L8.50017 16.9454V15.836L8.35173 15.6895L7.24429 15.6895ZM11.2502 16.9454L11.1232 17.0743V21.6407L11.2502 21.7677H12.7756L12.9026 21.6407V17.0743L12.7756 16.9454H11.2502Z" fill="#00BFA5"/>
<path d="M14.8548 15.1717H13.3326L13.2055 15.0446V11.4813C13.2055 10.8474 12.9564 10.356 12.1918 10.3388C11.7984 10.3285 11.3482 10.3388 10.8672 10.3577L10.795 10.4316V15.0429L10.6679 15.17H9.1457L9.01855 15.0429V8.95588L9.1457 8.82874H12.5715C13.903 8.82874 14.982 9.90768 14.982 11.2392V15.0448L14.8548 15.1717Z" fill="#CFD8DC"/>
</svg>
