<svg width="24" height="24" viewBox="0 0 24 24" fill="none" xmlns="http://www.w3.org/2000/svg">
<path d="M11.2502 1.23242L11.1232 1.35938V5.92579L11.2502 6.0547H12.7756L12.9026 5.92579V1.35938L12.7756 1.23242H11.2502ZM6.68949 4.4551L5.64456 5.50003V5.71097L7.24419 7.31061H8.35162L8.50007 7.16217V6.05473L6.90043 4.4551L6.68949 4.4551ZM1.02735 10.1094L0.900391 10.2364V11.7638L1.02735 11.8907H7.11734L7.2443 11.7638V10.2364L7.11734 10.1094H1.02735ZM16.8851 10.1094L16.7581 10.2364V11.7638L16.8851 11.8907H22.9751L23.102 11.7638V10.2364L22.9751 10.1094H16.8851ZM7.24429 14.6895L5.64466 16.2892V16.4982L6.68959 17.5451H6.90054L8.50017 15.9454V14.836L8.35173 14.6895L7.24429 14.6895ZM11.2502 15.9454L11.1232 16.0743V20.6407L11.2502 20.7677H12.7756L12.9026 20.6407V16.0743L12.7756 15.9454H11.2502Z" fill="#71717A"/>
<path d="M14.8548 14.1717H13.3326L13.2055 14.0446V10.4813C13.2055 9.84737 12.9564 9.35599 12.1918 9.33882C11.7984 9.32851 11.3482 9.33882 10.8672 9.35771L10.795 9.43159V14.0429L10.6679 14.17H9.1457L9.01855 14.0429V7.95588L9.1457 7.82874H12.5715C13.903 7.82874 14.982 8.90768 14.982 10.2392V14.0448L14.8548 14.1717Z" fill="#CFD8DC"/>
</svg>
