<svg width="24" height="25" viewBox="0 0 24 25" fill="none" xmlns="http://www.w3.org/2000/svg">
<path fill-rule="evenodd" clip-rule="evenodd" d="M18.7603 22.2751L16.6486 18.935L11.3602 10.57C9.61601 7.81667 8.15699 5.53001 8.11786 5.48334C7.9781 5.32584 7.88866 5.30251 7.35758 5.30251C6.90476 5.30251 6.86005 5.30834 6.75383 5.36084C6.69234 5.40167 6.60289 5.47167 6.55817 5.53001C6.50724 5.60214 6.47981 5.68822 6.47963 5.77652L6.46872 11.1242L6.46327 16.4899C6.46318 16.575 6.48224 16.659 6.51903 16.7358C6.55893 16.8168 6.61874 16.8853 6.69234 16.9342C6.77234 16.9911 6.86808 17.0217 6.96626 17.0217H7.26813C7.66505 17.0217 7.73772 17.01 7.82157 16.9633C7.92552 16.9138 8.00888 16.8268 8.05636 16.7183C8.10063 16.626 8.10108 16.465 8.11193 12.639L8.11226 12.5183C8.11604 10.9999 8.12235 9.66716 8.12949 8.96019C8.13288 8.62427 8.25166 8.59196 8.43638 8.87255C9.24614 10.1026 10.0493 11.3373 10.8459 12.5767L13.5348 16.7242L15.6815 19.7517C16.7926 21.3195 17.7384 22.6419 17.8508 22.7939C17.8583 22.8041 17.8717 22.8112 17.8711 22.8239M16.2768 5.10829C16.2308 5.05323 16.1747 5.00821 16.112 4.97584C16.0281 4.92334 15.961 4.92334 15.5697 4.92334C15.156 4.92334 15.1225 4.92334 15.0107 4.98167C14.9479 5.01816 14.8928 5.06742 14.8486 5.12654C14.8044 5.18566 14.7721 5.25343 14.7535 5.32584C14.7368 5.39001 14.7256 6.69084 14.7256 9.00084V12.2952C14.7256 12.4829 14.7784 12.6669 14.8781 12.826L15.5585 13.9125C15.8015 14.2978 16.3971 14.1257 16.3971 13.6702V10.3192C16.4026 6.88917 16.3971 5.36667 16.3803 5.29667C16.3581 5.22737 16.3229 5.16335 16.2768 5.10829Z" fill="#CFD8DC"/>
</svg>
