<svg width="24" height="24" viewBox="0 0 24 24" fill="none" xmlns="http://www.w3.org/2000/svg">
<path fill-rule="evenodd" clip-rule="evenodd" d="M11.8011 1.44199C11.8616 1.40706 11.9302 1.38867 12.0001 1.38867C12.0699 1.38867 12.1386 1.40706 12.1991 1.44199L21.0831 6.54799C21.144 6.58318 21.1946 6.63375 21.2299 6.69464C21.2652 6.75554 21.2839 6.82462 21.2841 6.89499V17.105C21.2839 17.1752 21.2652 17.2442 21.2299 17.3049C21.1947 17.3657 21.144 17.416 21.0831 17.451L12.1991 22.558C12.1386 22.5929 12.0699 22.6113 12.0001 22.6113C11.9302 22.6113 11.8616 22.5929 11.8011 22.558L2.91706 17.451C2.85613 17.416 2.80547 17.3657 2.77019 17.3049C2.73491 17.2442 2.71624 17.1752 2.71606 17.105V6.89499C2.71606 6.75199 2.79306 6.61999 2.91706 6.54799L11.8011 1.44199ZM8.97606 10.18L14.5071 16.805C14.5071 16.805 15.1571 17.376 16.0841 17.319C17.2041 17.249 17.3161 16.31 17.3161 16.31L17.3171 7.61599L17.3161 7.60799C17.2577 7.32516 17.1036 7.07107 16.8799 6.88845C16.6562 6.70583 16.3764 6.60582 16.0876 6.60523C15.7988 6.60464 15.5186 6.70352 15.2941 6.88523C15.0697 7.06694 14.9146 7.3204 14.8551 7.60299L14.8521 7.61599L14.8571 13.723L9.17906 7.03499C9.17906 7.03499 8.72506 6.52299 7.66306 6.63899C6.61906 6.75399 6.50706 7.64799 6.50706 7.64799L6.51706 16.273L6.51906 16.286C6.56582 16.5794 6.71606 16.8464 6.9426 17.0387C7.16914 17.2309 7.45702 17.3358 7.75414 17.3342C8.05126 17.3326 8.33801 17.2248 8.56251 17.0301C8.787 16.8355 8.93441 16.5669 8.97806 16.273L8.97606 10.18Z" fill="#4ADE80"/>
</svg>
