<svg width="24" height="24" viewBox="0 0 24 24" fill="none" xmlns="http://www.w3.org/2000/svg">
<g clip-path="url(#clip0_808_2458)">
<path d="M4.18702 14.416C3.25119 9.06679 5.73912 3.88938 11.3997 3.20233C11.1035 2.86545 10.7317 2.61624 10.3199 2.47871C9.90813 2.34118 9.47035 2.31998 9.04874 2.41713C8.18139 2.71158 8.20422 3.32502 7.22274 4.11022C6.26409 4.69912 5.76194 4.2329 5.05437 4.87088C4.34679 5.48432 4.82612 6.90749 4.52939 7.1774C4.23267 7.74177 3.31967 8.23252 3.13707 8.91957C3.00012 9.80292 3.50227 10.4409 3.50227 11.2261C3.57074 11.8641 2.90882 12.2321 3.00012 12.7474C3.27402 13.5817 3.82182 14.097 4.07289 14.3424C4.14137 14.3669 4.20984 14.465 4.18702 14.416Z" fill="#EF4444"/>
<path d="M14.2984 7.0056C14.2016 7.0056 14.1087 6.96423 14.0402 6.89061C13.9717 6.81698 13.9332 6.71712 13.9332 6.613C13.9332 6.39216 14.093 6.2204 14.2984 6.2204C14.5039 6.2204 14.6636 6.39216 14.6636 6.613C14.6636 6.83383 14.5039 7.0056 14.2984 7.0056ZM4.41522 15.0048C3.50222 10.3427 6.28687 6.46577 11.6736 8.3797C14.8462 10.3672 18.8178 10.2445 19.0004 8.94406C19.4569 7.3982 16.9918 4.23286 13.317 3.39858C6.01297 1.87726 2.08707 10.3427 4.41522 15.0048Z" fill="url(#paint0_radial_808_2458)"/>
<path d="M16.3755 15.5201C16.9207 15.5913 17.4737 15.5409 17.9999 15.3721C18.5262 15.2032 19.0144 14.9195 19.434 14.5386C18.0723 16.1764 16.1757 17.1871 14.1386 17.3604C15.1201 18.2683 16.0788 18.6609 16.9918 18.4891C14.4582 19.2498 12.3355 18.4155 9.77907 15.6673C9.64212 16.4035 10.3725 17.5567 11.1257 18.2928C6.74334 16.2562 6.35532 9.92556 11.6735 8.35516C6.17272 5.50881 3.04569 11.0543 4.57497 15.5937C5.48778 17.5051 6.92632 19.0677 8.69478 20.0688C10.4632 21.0699 12.4757 21.4607 14.4582 21.1883C15.9242 20.9801 17.3109 20.3506 18.4719 19.3659C19.6328 18.3813 20.5251 17.078 21.0546 15.5937C20.1078 16.4494 18.9786 17.0395 17.7678 17.3113C20.2329 15.9863 21.5568 13.7289 21.1916 10.6617C20.7747 11.8363 20.0733 12.8698 19.1601 13.6553C20.9633 10.6617 20.6438 9.09128 19.3199 7.39819C20.2786 10.1955 19.046 13.2872 16.3755 15.5201Z" fill="url(#paint1_radial_808_2458)"/>
<path d="M15.0972 18.7345C14.9146 18.6855 15.5309 19.0045 14.344 18.6609C13.1571 18.3174 11.9474 17.9984 9.75616 15.6428C9.61921 16.3789 10.3496 17.5322 11.1028 18.2683C13.1343 19.7897 11.7419 19.0781 14.8461 20.2313C15.0972 19.716 15.0972 19.2498 15.0972 18.7345Z" fill="url(#paint2_linear_808_2458)"/>
<path d="M11.1714 6.78478C11.1714 6.78478 11.4453 6.36765 11.5366 6.17135C11.6736 5.92597 11.8562 5.50883 11.8562 5.50883C11.8562 5.50883 9.77908 4.77271 9.27693 4.6991C7.702 5.14077 7.702 5.85236 8.56935 6.93201C8.68348 7.0547 11.1714 6.78478 11.1714 6.78478Z" fill="url(#paint3_linear_808_2458)"/>
</g>
<defs>
<radialGradient id="paint0_radial_808_2458" cx="0" cy="0" r="1" gradientUnits="userSpaceOnUse" gradientTransform="translate(15.7935 7.66811) scale(13.7723 10.5911)">
<stop stop-color="#EF4444"/>
<stop offset="1" stop-color="#741111"/>
</radialGradient>
<radialGradient id="paint1_radial_808_2458" cx="0" cy="0" r="1" gradientUnits="userSpaceOnUse" gradientTransform="translate(15.919 8.01163) scale(13.9404 11.3365)">
<stop stop-color="#EF4444"/>
<stop offset="0.29" stop-color="#EF4444"/>
<stop offset="1" stop-color="#740B0B"/>
</radialGradient>
<linearGradient id="paint2_linear_808_2458" x1="10.6463" y1="15.7164" x2="13.3953" y2="19.9822" gradientUnits="userSpaceOnUse">
<stop stop-color="#EF4444"/>
<stop offset="0.67" stop-color="#EF4444"/>
<stop offset="0.83" stop-color="#EF4444" stop-opacity="0.2"/>
<stop offset="1" stop-color="#EF4444" stop-opacity="0"/>
</linearGradient>
<linearGradient id="paint3_linear_808_2458" x1="10.4524" y1="6.35538" x2="10.0569" y2="5.65511" gradientUnits="userSpaceOnUse">
<stop stop-color="#EF4444" stop-opacity="0.15"/>
<stop offset="0.4" stop-color="#EF4444" stop-opacity="0.4"/>
<stop offset="0.65" stop-color="#EF4444" stop-opacity="0.89"/>
<stop offset="1" stop-color="#EF4444"/>
</linearGradient>
<clipPath id="clip0_808_2458">
<rect width="18.26" height="19.63" fill="white" transform="translate(3 2)"/>
</clipPath>
</defs>
</svg>
