<svg width="24" height="24" viewBox="0 0 24 24" fill="none" xmlns="http://www.w3.org/2000/svg">
<path d="M4.38303 15.808L2.56769 5.82279C2.4744 5.30966 3.13056 5.01434 3.45278 5.42443L8.19203 11.456L11.5528 4.73356C11.7371 4.365 12.263 4.365 12.4473 4.73356L15.808 11.456L20.5473 5.42443C20.8695 5.01434 21.5257 5.30966 21.4324 5.82279L19.617 15.808H4.38303ZM19.617 19.072C19.6172 19.215 19.5891 19.3565 19.5345 19.4887C19.4799 19.6208 19.3998 19.7408 19.2987 19.842C19.1977 19.9431 19.0777 20.0233 18.9456 20.0781C18.8136 20.1328 18.672 20.161 18.529 20.161H5.47003C5.32707 20.161 5.18551 20.1328 5.05344 20.0781C4.92137 20.0233 4.80139 19.9431 4.70035 19.842C4.5993 19.7408 4.51918 19.6208 4.46456 19.4887C4.40994 19.3565 4.3819 19.215 4.38203 19.072V17.984H19.616L19.617 19.072Z" fill="#FBBF24"/>
</svg>
