<svg width="24" height="24" viewBox="0 0 24 24" fill="none" xmlns="http://www.w3.org/2000/svg">
<path d="M11.5408 2.11594L3.68876 6.63834C3.54456 6.72115 3.42478 6.84048 3.34149 6.98431C3.2582 7.12814 3.21435 7.29137 3.21436 7.45754V16.5151C3.21431 16.6814 3.25804 16.8448 3.34117 16.9889C3.4243 17.133 3.5439 17.2527 3.68796 17.3359L11.5416 21.8655C11.6858 21.9485 11.8494 21.9922 12.016 21.9922C12.1825 21.9922 12.3461 21.9485 12.4904 21.8655L20.3416 17.3367C20.4856 17.2535 20.6052 17.1338 20.6883 16.9897C20.7715 16.8456 20.8152 16.6822 20.8152 16.5159V7.46154C20.8152 7.29537 20.7713 7.13214 20.688 6.98831C20.6047 6.84448 20.4849 6.72515 20.3408 6.64234L12.4904 2.11994C12.3461 2.03673 12.1825 1.99292 12.016 1.99292C11.8494 1.99292 11.6858 2.03673 11.5416 2.11994L11.5408 2.11594Z" fill="#388E3C"/>
<path d="M3.43848 17.0808C3.5143 17.1804 3.60922 17.2639 3.71768 17.3264L10.4537 21.212L11.5753 21.8584C11.7408 21.9536 11.9312 21.9968 12.1217 21.9824C12.1848 21.977 12.2472 21.9655 12.3081 21.948L20.5905 6.80403C20.5273 6.73557 20.4545 6.67656 20.3745 6.62883L15.2281 3.66323L12.5105 2.10163C12.4338 2.05731 12.3511 2.02443 12.2649 2.00403L3.43848 17.0808Z" fill="#4CAF50"/>
<path d="M20.5905 17.0808C20.5147 17.1804 20.4197 17.2639 20.3113 17.3264L13.5753 21.212L12.4537 21.8584C12.2881 21.9536 12.0977 21.9968 11.9073 21.9824C11.8442 21.977 11.7818 21.9655 11.7209 21.948L3.43848 6.80243C3.50167 6.73397 3.57442 6.67496 3.65448 6.62723L8.80088 3.66323L11.5185 2.10163C11.5951 2.05731 11.6779 2.02443 11.7641 2.00403L20.5905 17.0808Z" fill="#66BB6A"/>
</svg>
