<svg width="24" height="25" viewBox="0 0 24 25" fill="none" xmlns="http://www.w3.org/2000/svg">
<path d="M11.9894 2.1496C11.8195 2.1496 11.6494 2.1936 11.4971 2.28144L3.35186 6.98664C3.20231 7.07304 3.07812 7.19726 2.99176 7.34684C2.9054 7.49642 2.85991 7.66608 2.85986 7.8388V17.2494C2.85988 17.4221 2.90538 17.5917 2.99178 17.7413C3.07818 17.8908 3.20242 18.0149 3.35202 18.1011L11.4972 22.8024H11.4973C11.6468 22.8888 11.8163 22.9342 11.9889 22.9342C12.1616 22.9342 12.3311 22.8888 12.4806 22.8024L20.6278 18.1011C20.7775 18.0148 20.9018 17.8907 20.9882 17.7411C21.0746 17.5915 21.1201 17.4217 21.12 17.249V7.83904C21.12 7.66636 21.0745 7.49673 20.9882 7.34716C20.9019 7.19759 20.7778 7.07334 20.6283 6.98688L12.4811 2.2816C12.3315 2.1952 12.1617 2.14973 11.9889 2.14976L11.9894 2.1496ZM6.66418 6.1744C6.66418 6.1744 7.6073 8.81688 9.50234 8.72912L11.7215 7.45224C11.8047 7.40388 11.8985 7.37669 11.9947 7.37304H12.0459C12.1419 7.37644 12.2355 7.40366 12.3183 7.45224L14.5373 8.72912C16.4325 8.81664 17.3753 6.1744 17.3753 6.1744C17.7939 8.02672 17.4601 9.26568 16.9014 10.0898L17.2647 10.2989H17.2648C17.4505 10.405 17.5635 10.6025 17.5638 10.8181L17.5542 18.483C17.5543 18.5352 17.5406 18.5866 17.5146 18.6319C17.4885 18.6772 17.451 18.7149 17.4058 18.7411C17.3607 18.7682 17.309 18.7826 17.2564 18.7826C17.2037 18.7826 17.1521 18.7682 17.107 18.7411L14.1679 17.0577C13.9831 16.9486 13.8686 16.7522 13.8686 16.5393V12.9582C13.8688 12.8533 13.8412 12.7502 13.7887 12.6594C13.7362 12.5686 13.6606 12.4933 13.5696 12.441L12.3183 11.7202C12.2282 11.6671 12.1256 11.6392 12.0211 11.6394C11.9159 11.6392 11.8125 11.6671 11.7217 11.7202L10.4699 12.441C10.2846 12.5469 10.1715 12.7449 10.1715 12.9584V16.5394C10.1715 16.7524 10.0585 16.9474 9.8725 17.0578L6.93266 18.741C6.88794 18.7682 6.8366 18.7826 6.78426 18.7826C6.73192 18.7826 6.68059 18.7682 6.63586 18.741C6.54202 18.689 6.48674 18.5901 6.48674 18.4831L6.47578 10.8182C6.47564 10.713 6.50322 10.6096 6.55574 10.5184C6.60827 10.4273 6.68389 10.3516 6.77498 10.299L7.13826 10.0898C6.5797 9.2656 6.24546 8.02656 6.66426 6.1744H6.66418Z" fill="#14B8A6"/>
</svg>
