<svg width="24" height="24" viewBox="0 0 24 24" fill="none" xmlns="http://www.w3.org/2000/svg">
<path d="M9.70424 3.7546C8.01167 3.76218 6.36255 4.29115 4.98138 5.26952C3.60021 6.24789 2.55408 7.62811 1.9854 9.2223C1.41672 10.8165 1.35312 12.5472 1.80325 14.1788C2.25339 15.8105 3.1954 17.2637 4.50104 18.3408C4.32718 18.3075 4.15962 18.2471 4.00448 18.1618C3.72007 17.9974 3.39273 17.9224 3.06512 17.9468C2.8032 17.9643 2.54908 18.0433 2.3233 18.1772C2.09752 18.3111 1.90641 18.4963 1.7654 18.7177C1.62439 18.9391 1.53744 19.1906 1.51157 19.4518C1.4857 19.713 1.52163 19.9767 1.61648 20.2215C2.05327 20.0601 2.51132 19.9635 2.97608 19.9347C3.24863 19.9164 3.52225 19.9212 3.794 19.9491C4.01858 19.9702 4.2445 19.9735 4.4696 19.9587C4.58816 19.9503 4.70576 19.9376 4.8224 19.9203C5.31754 19.8444 5.79476 19.6791 6.23072 19.4324C6.57211 19.5915 6.92454 19.7259 7.28528 19.8344C9.66203 20.5145 12.2013 20.3472 14.4682 19.3608C14.5713 19.3139 14.6678 19.2536 14.755 19.1813L22.497 19.8879L15.111 18.4126C15.0994 18.1575 14.8758 17.9823 14.791 17.8733C14.7495 17.8255 14.7225 17.7668 14.7133 17.7041C14.6461 16.7669 14.2468 15.8845 13.5871 15.2153C12.9275 14.5462 12.0508 14.1343 11.1147 14.0537C11.0156 13.8628 10.8671 13.702 10.6846 13.5881C10.5414 13.4745 10.4258 13.3298 10.3465 13.165C10.2672 13.0002 10.2263 12.8196 10.227 12.6368C9.94129 12.6628 9.67134 12.7791 9.45625 12.9689C9.24117 13.1587 9.09215 13.4121 9.0308 13.6923C8.55646 13.4577 8.14447 13.1141 7.82857 12.6895C7.51267 12.265 7.30186 11.7717 7.21342 11.2499C7.12497 10.7282 7.16141 10.193 7.31974 9.68803C7.47808 9.1831 7.7538 8.72288 8.12432 8.34508C8.53024 7.9165 9.01957 7.57552 9.56221 7.34315C10.1048 7.11077 10.6893 6.99191 11.2796 6.99388C12.2459 6.99161 13.1858 7.30879 13.9531 7.89607C14.7204 8.48334 15.2721 9.30777 15.5223 10.2411C15.1921 10.6445 14.729 10.9172 14.216 11.0103C13.7705 11.0885 13.3605 11.3039 13.0432 11.6263C12.7259 11.9487 12.5171 12.3621 12.446 12.8088C13.2894 12.8088 13.8505 13.9565 15.4167 13.9565C15.6991 13.9566 15.9751 13.8725 16.2095 13.7151C16.4439 13.5577 16.6261 13.334 16.7329 13.0726C16.8401 13.3341 17.0227 13.5578 17.2575 13.7152C17.4922 13.8726 17.7685 13.9566 18.0512 13.9565C18.1123 13.9559 18.1734 13.9532 18.2343 13.9486V13.952C18.2535 13.9508 18.2708 13.9476 18.2895 13.9462C18.326 13.9431 18.3624 13.9392 18.3987 13.9347C18.4554 13.9282 18.511 13.9203 18.565 13.9107C18.5947 13.9054 18.6243 13.8996 18.6538 13.8934C18.7167 13.8802 18.7774 13.8646 18.8367 13.8478C18.8609 13.8412 18.885 13.8342 18.909 13.8269C18.9831 13.8036 19.0546 13.7784 19.1235 13.7508C19.1337 13.7469 19.1439 13.7429 19.154 13.7388L19.178 13.7285C19.2119 13.7143 19.2455 13.6994 19.2788 13.6839V13.6824C20.0002 13.3438 20.4464 12.8129 21.0214 12.8129C20.9509 12.3711 20.7457 11.9617 20.4339 11.6408C20.122 11.32 19.7187 11.1032 19.279 11.0201H19.2776C19.2689 11.0181 19.2602 11.0162 19.2514 11.0144C19.0972 10.9859 18.9464 10.941 18.8017 10.8804L18.787 10.8744C18.7253 10.8483 18.6649 10.8193 18.6058 10.7876L18.5754 10.7698C18.5253 10.742 18.4764 10.7123 18.4287 10.6808L18.4023 10.663C18.3471 10.6252 18.2937 10.5849 18.2422 10.5423C17.9818 10.3277 17.7735 10.0558 17.6655 9.75052C17.1762 8.01841 16.1329 6.49431 14.6952 5.41145C13.2575 4.32859 11.5046 3.74662 9.70472 3.7546H9.70424ZM6.04856 10.1256C6.20216 10.1357 6.3152 10.3246 6.2996 10.5454C6.28376 10.7662 6.146 10.9359 5.99096 10.9258C5.83616 10.9157 5.72576 10.7266 5.74136 10.5056C5.75696 10.2845 5.89496 10.1156 6.04856 10.1256ZM5.04728 10.8456L5.0432 10.8495C5.12072 10.8495 5.18648 10.9344 5.18648 11.0448C5.18648 11.1552 5.132 11.2472 5.05448 11.25C4.9772 11.2529 4.91144 11.1665 4.91144 11.0561C4.91144 10.9457 4.9712 10.8497 5.04728 10.8456ZM4.98608 12.1157C5.11544 12.1234 5.25008 12.259 5.29424 12.4472C5.3444 12.6624 5.2628 12.8664 5.11208 12.9008C4.9616 12.9353 4.79912 12.7904 4.74896 12.5736C4.6988 12.3572 4.78496 12.152 4.93544 12.116L4.93112 12.1205C4.94918 12.1162 4.96754 12.1146 4.98608 12.1157ZM5.96288 13.6577C5.98208 13.656 6.00176 13.656 6.02192 13.6577C6.1568 13.6685 6.308 13.7506 6.4244 13.8905C6.61088 14.1142 6.63104 14.3996 6.4748 14.5289C6.31832 14.6578 6.044 14.5803 5.85776 14.3566C5.67128 14.1327 5.65544 13.8473 5.80736 13.7182C5.85187 13.6827 5.9061 13.6617 5.96288 13.6577ZM10.1367 17.7761C10.2126 17.7788 10.3098 17.8145 10.4202 17.8419C10.641 17.8964 10.8346 17.8892 10.7842 18.0972L10.7804 18.1016C10.7508 18.2032 10.6831 18.2896 10.5914 18.3426C10.4998 18.3956 10.3912 18.4113 10.2883 18.3864C10.1854 18.3614 10.096 18.2978 10.0388 18.2087C9.98165 18.1196 9.961 18.0118 9.9812 17.9079C10.0064 17.803 10.0609 17.7732 10.1367 17.7761Z" fill="#60A5FA"/>
</svg>
