<svg width="24" height="24" viewBox="0 0 24 24" fill="none" xmlns="http://www.w3.org/2000/svg">
<path d="M16.6932 5.53595H11.3532C10.625 5.53265 9.90327 5.67336 9.2296 5.94998C8.55593 6.2266 7.9436 6.63367 7.42781 7.14778C6.91202 7.6619 6.50296 8.27291 6.22416 8.94568C5.94535 9.61845 5.8023 10.3397 5.80323 11.0679V16.4099C5.80349 17.8751 6.38571 19.2801 7.42182 20.3161C8.45793 21.352 9.86308 21.9339 11.3282 21.9339H16.6692C17.3954 21.9339 18.1144 21.7908 18.7852 21.5127C19.456 21.2346 20.0653 20.827 20.5785 20.3132C21.0916 19.7995 21.4984 19.1896 21.7757 18.5184C22.0529 17.8473 22.1951 17.1281 22.1942 16.4019V11.0679C22.1961 9.60573 21.6182 8.20241 20.5873 7.16547C19.5564 6.12854 18.1554 5.54256 16.6932 5.53595ZM11.2962 11.5079C11.065 11.7437 10.7666 11.9022 10.4417 11.9616C10.1169 12.021 9.78168 11.9785 9.48199 11.8398C9.1823 11.7012 8.93285 11.4732 8.76786 11.1872C8.60287 10.9011 8.53042 10.5711 8.56044 10.2422C8.59047 9.91339 8.72151 9.60189 8.93558 9.35047C9.14965 9.09905 9.43626 8.92002 9.75611 8.83794C10.076 8.75586 10.4134 8.77475 10.722 8.89202C11.0307 9.0093 11.2956 9.2192 11.4802 9.49295C11.6864 9.79859 11.7807 10.1661 11.7472 10.5332C11.7137 10.9004 11.5544 11.2447 11.2962 11.5079ZM16.5972 19.2559C16.0439 19.2557 15.503 19.0915 15.043 18.7839C14.583 18.4763 14.2245 18.0393 14.0129 17.528C13.8013 17.0167 13.746 16.4542 13.8541 15.9115C13.9622 15.3688 14.2287 14.8703 14.6201 14.4791C15.0114 14.0879 15.51 13.8215 16.0527 13.7136C16.5955 13.6058 17.158 13.6612 17.6692 13.873C18.1804 14.0848 18.6173 14.4435 18.9247 14.9036C19.2322 15.3637 19.3962 15.9046 19.3962 16.4579C19.3962 16.8255 19.3238 17.1894 19.1831 17.5289C19.0425 17.8685 18.8363 18.177 18.5764 18.4368C18.3164 18.6966 18.0079 18.9027 17.6683 19.0432C17.3287 19.1838 16.9648 19.2561 16.5972 19.2559Z" fill="#60A5FA"/>
<path d="M4.00439 5.86328C4.88756 5.86328 5.60351 5.14733 5.60351 4.26416C5.60351 3.38099 4.88756 2.66504 4.00439 2.66504C3.12122 2.66504 2.40527 3.38099 2.40527 4.26416C2.40527 5.14733 3.12122 5.86328 4.00439 5.86328Z" fill="#60A5FA"/>
<path d="M4.00445 6.46301C5.21881 6.46301 6.20324 5.47858 6.20324 4.26422C6.20324 3.04986 5.21881 2.06543 4.00445 2.06543C2.7901 2.06543 1.80566 3.04986 1.80566 4.26422C1.80566 5.47858 2.7901 6.46301 4.00445 6.46301Z" fill="#60A5FA"/>
</svg>
