<svg width="24" height="24" viewBox="0 0 24 24" fill="none" xmlns="http://www.w3.org/2000/svg">
<path d="M11.2002 20.6C11.2002 20.8762 10.9763 21.1 10.7002 21.1H8.47539C8.25307 21.1 8.05746 20.9532 7.99532 20.7398L5.8002 13.2V20.6C5.8002 20.8762 5.57634 21.1 5.3002 21.1H3.2002C2.92405 21.1 2.7002 20.8762 2.7002 20.6V3.40002C2.7002 3.12388 2.92405 2.90002 3.2002 2.90002H5.43201C5.65098 2.90002 5.84448 3.04251 5.90948 3.25162L8.1002 10.3V3.40003C8.1002 3.12388 8.32405 2.90002 8.6002 2.90002H10.7002C10.9763 2.90002 11.2002 3.12388 11.2002 3.40002V20.6ZM21.3002 19.2C21.3002 20.2 20.5002 21.1 19.4002 21.1H14.6002C13.6002 21.1 12.7002 20.3 12.7002 19.2V15.8025C12.7002 15.5675 12.8638 15.3642 13.0933 15.314L15.2933 14.8328C15.6052 14.7646 15.9002 15.002 15.9002 15.3212V18H18.2002V7.70002C18.2002 7.42388 18.4241 7.20002 18.7002 7.20002H20.8002C21.0763 7.20002 21.3002 7.42388 21.3002 7.70002V19.2Z" fill="#14B8A6"/>
</svg>
