<svg width="24" height="25" viewBox="0 0 24 25" fill="none" xmlns="http://www.w3.org/2000/svg">
<path d="M5.26842 4.65668C4.97057 4.65656 4.67562 4.71512 4.4004 4.82902C4.12519 4.94293 3.87512 5.10993 3.66446 5.3205C3.45381 5.53108 3.2867 5.78109 3.17269 6.05626C3.05868 6.33142 3 6.62636 3 6.92421V11.8709C3.32445 11.7541 3.79089 11.0638 3.93739 10.8958C4.19353 10.6019 4.24026 10.228 4.36699 9.99162C4.65728 9.45507 4.70761 9.08479 5.36729 9.08479C5.67466 9.08479 5.79688 9.15669 6.00539 9.4353C6.14919 9.62943 6.39904 9.98803 6.51588 10.228C6.65069 10.5039 6.87178 10.8787 6.96794 10.9542C7.03984 11.0099 7.11174 11.053 7.17735 11.0773C7.2843 11.1169 7.37328 11.0441 7.44428 10.9874C7.53595 10.9137 7.5746 10.7654 7.65998 10.5677C7.78131 10.2828 7.91432 9.9413 7.98981 9.82176C8.12103 9.61505 8.16507 9.37149 8.30617 9.25286C8.51468 9.0776 8.787 9.06592 8.86159 9.05064C9.28041 8.96795 9.47004 9.25286 9.67675 9.4371C9.81156 9.55663 9.99581 9.79929 10.1261 10.1246C10.2286 10.379 10.3598 10.6136 10.4137 10.7601C10.4667 10.9021 10.5962 11.1285 10.6735 11.4009C10.7427 11.648 10.9305 11.8376 11.0015 11.9545C11.0015 11.9545 11.1102 12.2601 11.7726 12.5387C11.9164 12.5989 12.2058 12.6968 12.3784 12.7598C12.666 12.864 12.9446 12.8505 13.2996 12.8083C13.5521 12.8083 13.6896 12.4416 13.8047 12.1486C13.8721 11.9752 13.9377 11.479 13.9817 11.3379C14.0249 11.2004 13.9242 11.0953 14.0096 10.974C14.1102 10.8337 14.1696 10.8266 14.2271 10.6432C14.3511 10.2514 15.0683 10.2316 15.4709 10.2316C15.8071 10.2316 15.7648 10.5578 16.3337 10.4464C16.6609 10.3817 16.9754 10.4877 17.3223 10.5803C17.6135 10.6576 17.8886 10.7457 18.0521 10.938C18.1591 11.0629 18.4224 11.6876 18.1537 11.7136C18.1797 11.7451 18.1986 11.8026 18.2472 11.8341C18.1869 12.0695 17.9263 11.9015 17.7816 11.8709C17.5866 11.8305 17.4491 11.8772 17.2576 11.9617C16.9314 12.1073 16.4542 12.0902 16.1702 12.3275C15.9275 12.5279 15.9284 12.9755 15.8161 13.2262C15.8161 13.2262 15.5033 14.0306 14.8221 14.5231C14.6477 14.6489 14.3062 14.9518 13.5638 15.0668C13.2365 15.1139 12.9052 15.1269 12.5752 15.1055C12.408 15.0974 12.2499 15.0893 12.0818 15.0875C11.9829 15.0857 11.6504 15.0758 11.6675 15.1073L11.6306 15.1998L11.6522 15.3239C11.6657 15.3985 11.6693 15.4578 11.672 15.5261C11.6774 15.6672 11.6603 15.8137 11.6675 15.9557C11.6827 16.2505 11.7915 16.5192 11.8059 16.8167C11.8212 17.1474 11.9847 17.4979 12.1429 17.7685C12.2031 17.8709 12.2948 17.8835 12.3343 18.0102C12.3811 18.1549 12.337 18.3095 12.3595 18.4641C12.4494 19.0644 12.6219 19.6918 12.8916 20.2346C12.8937 20.2389 12.8961 20.2431 12.8987 20.2472C13.2322 20.1915 13.5665 20.071 14.0006 20.0072C14.796 19.8886 15.9014 19.9497 16.6123 19.8832C18.4098 19.7142 19.385 20.6202 21 20.249V6.92421C21 6.32282 20.7611 5.74607 20.3359 5.32082C19.9106 4.89558 19.3339 4.65668 18.7325 4.65668H5.26842ZM4.45327 14.6723C4.43978 14.6723 4.4263 14.6723 4.41192 14.675C4.26902 14.6974 4.13062 14.7469 4.04164 14.8907C3.96974 15.0075 3.94458 15.2097 3.89425 15.3445C3.83673 15.5018 3.73607 15.6483 3.64799 15.7984C3.48622 16.0725 3.19503 16.3206 3.0692 16.5884C3.04404 16.6423 3.02157 16.7052 3.0009 16.7682V19.8257C3.14739 19.8508 3.30018 19.8814 3.47184 19.9272C4.73637 20.2643 5.04464 20.293 6.2849 20.1519L6.40174 20.1358C6.49611 19.938 6.5698 19.2658 6.63092 19.0573C6.67945 18.8973 6.74506 18.7697 6.77022 18.6079C6.79359 18.4524 6.76753 18.305 6.75494 18.1648C6.71899 17.8116 7.01108 17.6858 7.15039 17.3829C7.27621 17.1097 7.34811 16.7978 7.45237 16.5174C7.55123 16.2496 7.70761 15.8694 7.97274 15.7337C7.94038 15.6969 7.41821 15.6798 7.27891 15.6654C7.12817 15.6519 6.97819 15.6309 6.82954 15.6025C6.54733 15.545 6.23996 15.4892 5.96225 15.4227C5.67387 15.3385 5.38982 15.2402 5.11114 15.1279C4.84332 15.0039 4.65908 14.6813 4.45327 14.6723ZM9.60935 15.4182C8.94428 15.5522 8.73757 16.2055 8.42301 16.7223C8.25045 17.009 8.06711 17.2526 7.9305 17.5564C7.80467 17.8368 7.81546 18.1468 7.59976 18.3868C7.38515 18.6266 7.22347 18.909 7.12523 19.2154C7.10455 19.2757 7.04614 19.9129 6.98322 20.063L7.97274 19.9929C8.89485 20.0558 8.62882 20.4099 10.0686 20.3326L12.3415 20.2625C12.281 20.0834 12.2127 19.9071 12.1366 19.734C12.0737 19.6019 11.9928 19.344 11.9407 19.2307C11.8619 19.0654 11.769 18.9073 11.663 18.758C11.4976 18.5647 11.459 18.5513 11.4113 18.3059C11.3259 17.8808 11.1022 17.1106 10.8388 16.5776C10.7031 16.3026 10.4766 16.0725 10.269 15.873C10.0893 15.6978 9.68035 15.4039 9.60935 15.4191V15.4182Z" fill="#EA580C"/>
</svg>
