<svg width="24" height="24" viewBox="0 0 24 24" fill="none" xmlns="http://www.w3.org/2000/svg">
<path fill-rule="evenodd" clip-rule="evenodd" d="M6.74984 19.5936C6.53177 19.4435 6.32034 19.284 6.11615 19.1154L15.2182 3.3503C15.2182 3.3503 15.5928 3.48931 15.9023 3.63765C16.2924 3.82467 16.6155 4.00688 16.6155 4.00688C21.0274 6.55421 22.5415 12.2043 19.9942 16.6161C17.4469 21.0282 11.7969 22.5421 7.38492 19.9949C7.38492 19.9949 7.07597 19.8173 6.74994 19.5937L6.74984 19.5936ZM15.8463 5.33925L8.15412 18.6625C11.8308 20.7853 16.5392 19.5236 18.6619 15.8471C20.7845 12.1703 19.5231 7.46205 15.8465 5.33925H15.8463ZM4.42563 17.2791C4.1164 16.8312 4.00628 16.6163 4.00628 16.6163C2.41609 13.8543 2.29951 10.342 4.00628 7.38553C5.71304 4.4291 8.8132 2.77402 12.0004 2.77014C12.0004 2.77014 12.4306 2.76913 12.789 2.80338C13.3287 2.85507 13.6876 2.92476 13.6876 2.92476L4.98335 18.001C4.98335 18.001 4.77686 17.7872 4.42581 17.2792L4.42563 17.2791ZM11.0795 4.36494C8.75984 4.64685 6.59587 5.97728 5.33864 8.15491C4.08141 10.3324 4.01144 12.8717 4.92704 15.0217L11.0795 4.36494Z" fill="#60A5FA"/>
</svg>
