<svg width="24" height="24" viewBox="0 0 24 24" fill="none" xmlns="http://www.w3.org/2000/svg">
<path d="M21.8401 7.54872C21.8401 5.6743 18.3258 1.45717 18.0917 1.22302C18.9343 5.01603 18.8295 4.44973 18.9704 5.66105C19.0078 5.98035 19.0235 6.31169 18.8957 6.60689C18.3106 7.95838 16.2169 8.71947 16.2169 8.71947L19.4966 11.5309C19.4966 11.5309 21.8401 9.18818 21.8401 7.54872ZM2.16016 7.54872C2.16016 5.6743 5.67443 1.45717 5.90858 1.22302C5.06596 5.01603 5.17038 4.44973 5.02981 5.66105C4.99246 5.98035 4.9768 6.31169 5.10452 6.60689C5.68969 7.95838 7.7834 8.71947 7.7834 8.71947L4.50368 11.5309C4.50368 11.5309 2.16016 9.18818 2.16016 7.54872Z" fill="#BDBDBD"/>
<path d="M12 5.67432C15.6725 5.67432 18.3394 8.2556 19.4973 11.5313V17.1541C19.4973 17.1541 17.1541 18.0916 15.7484 19.0286C14.3427 19.9656 12.2342 22.777 12.2342 22.777H12V5.67432Z" fill="#546E7A"/>
<path d="M12.0002 5.67432C8.32767 5.67432 5.66083 8.2556 4.50293 11.5313V17.1541C4.50293 17.1541 6.84605 18.0916 8.25176 19.0286C9.65747 19.9656 11.766 22.777 11.766 22.777H12.0002V5.67432Z" fill="#78909C"/>
<path d="M12 12.4683C12.5175 12.4683 12.937 12.0487 12.937 11.5312C12.937 11.0138 12.5175 10.5942 12 10.5942C11.4825 10.5942 11.063 11.0138 11.063 11.5312C11.063 12.0487 11.4825 12.4683 12 12.4683Z" fill="white"/>
</svg>
