<svg width="24" height="24" viewBox="0 0 24 24" fill="none" xmlns="http://www.w3.org/2000/svg">
<path d="M2.22317 3.198C2.22262 3.198 2.22217 3.19845 2.22217 3.199V8.15306C2.22217 8.49951 2.5207 8.65333 2.73616 8.38203C2.8334 8.25959 2.91416 8.14913 2.95817 8.099C3.15817 7.868 3.19517 7.574 3.29517 7.389C3.52317 6.967 3.56217 6.677 4.08117 6.677C4.32217 6.677 4.41817 6.732 4.58117 6.952C4.69517 7.104 4.89117 7.386 4.98317 7.574C5.08917 7.791 5.26217 8.085 5.33817 8.144C5.38767 8.18436 5.44295 8.21706 5.50217 8.241C5.58617 8.273 5.65617 8.215 5.71217 8.171C5.78417 8.113 5.81517 7.996 5.88117 7.841C5.97717 7.617 6.08117 7.349 6.14117 7.255C6.24317 7.093 6.27817 6.901 6.38917 6.808C6.55317 6.671 6.76617 6.661 6.82517 6.65C7.15417 6.585 7.30317 6.808 7.46517 6.953C7.57117 7.047 7.71517 7.238 7.81917 7.493C7.89917 7.693 8.00117 7.877 8.04417 7.993C8.08517 8.103 8.18717 8.282 8.24817 8.495C8.29532 8.66132 8.4101 8.79457 8.47717 8.88718C8.49737 8.91506 8.5119 8.94644 8.53044 8.97546C8.58147 9.05538 8.72859 9.22787 9.11117 9.389C9.22417 9.436 9.45117 9.513 9.58717 9.563C9.81317 9.645 10.0322 9.634 10.3102 9.601C10.5092 9.601 10.6172 9.313 10.7072 9.083C10.7602 8.947 10.8122 8.557 10.8472 8.446C10.8802 8.338 10.8012 8.255 10.8682 8.16C10.9472 8.05 10.9942 8.044 11.0392 7.9C11.1372 7.593 11.6992 7.577 12.0162 7.577C12.2802 7.577 12.2462 7.833 12.6942 7.746C12.9502 7.696 13.1972 7.779 13.4702 7.851C13.6992 7.911 13.9142 7.981 14.0432 8.132C14.1138 8.21442 14.2715 8.57411 14.1943 8.69948C14.175 8.73072 14.1455 8.78284 14.1691 8.8109C14.1819 8.82609 14.1935 8.84839 14.1854 8.86649C14.1235 9.00369 13.9369 8.88654 13.8302 8.865C13.6772 8.833 13.5692 8.87 13.4202 8.935C13.1632 9.05 12.7882 9.037 12.5642 9.223C12.3779 9.37695 12.3752 9.71937 12.2922 9.91741C12.2889 9.92522 12.2858 9.93253 12.2826 9.94035C12.2466 10.0271 11.999 10.5914 11.5062 10.947C11.3692 11.047 11.1012 11.284 10.5172 11.374C10.2606 11.4113 10.0009 11.4217 9.74217 11.405C9.61017 11.399 9.48617 11.392 9.35417 11.39C9.29863 11.39 9.14739 11.3853 9.07226 11.3921C9.04155 11.3949 9.02241 11.4225 9.01069 11.451C9.00316 11.4693 9.00098 11.4893 9.0044 11.5088L9.01617 11.576C9.02717 11.635 9.03017 11.681 9.03217 11.736C9.03617 11.846 9.02317 11.961 9.02917 12.073C9.04017 12.304 9.12617 12.515 9.13717 12.749C9.14917 13.009 9.27717 13.284 9.40217 13.496C9.44917 13.577 9.52217 13.586 9.55217 13.686C9.58917 13.8 9.55517 13.921 9.57217 14.043C9.62243 14.4047 9.71439 14.759 9.84593 15.0987C9.92621 15.3061 10.1456 15.415 10.3612 15.3606C10.513 15.3223 10.6754 15.2818 10.8612 15.254C11.4852 15.162 12.3542 15.209 12.9112 15.157C14.1722 15.0383 14.9179 15.5934 15.965 15.5066C16.1971 15.4874 16.3582 15.28 16.3582 15.0471V3.698C16.3582 3.42186 16.1343 3.198 15.8582 3.198H2.22317ZM3.36317 11.064C3.35317 11.064 3.34117 11.064 3.33017 11.066C3.21817 11.084 3.11017 11.122 3.04017 11.236C2.98317 11.327 2.96417 11.486 2.92417 11.592C2.87817 11.715 2.80017 11.831 2.73017 11.948C2.60317 12.164 2.37517 12.358 2.27617 12.568C2.26682 12.5886 2.25814 12.61 2.2498 12.6321C2.23047 12.6833 2.22217 12.7379 2.22217 12.7927V14.7323C2.22217 14.9512 2.38067 15.1346 2.59217 15.191C3.58517 15.456 3.82817 15.478 4.80217 15.367C4.85897 15.3595 4.90825 15.3239 4.92395 15.2688C4.98412 15.0576 5.03196 14.6479 5.07317 14.508C5.11117 14.382 5.16317 14.282 5.18317 14.154C5.20117 14.033 5.18117 13.917 5.17017 13.806C5.14317 13.53 5.37217 13.431 5.48117 13.193C5.58017 12.978 5.63717 12.733 5.71817 12.513C5.74002 12.4542 5.76532 12.3884 5.79503 12.3218C5.90937 12.0654 5.86247 11.8722 5.58317 11.844C5.46441 11.8333 5.34626 11.8166 5.22917 11.794C5.00817 11.749 4.76617 11.706 4.54917 11.654C4.32212 11.5874 4.09852 11.5097 3.87917 11.421C3.66917 11.324 3.52517 11.071 3.36317 11.064ZM7.41317 11.65C6.89017 11.755 6.72717 12.268 6.48117 12.674C6.34517 12.899 6.20117 13.09 6.09417 13.329C5.99417 13.549 6.00417 13.793 5.83417 13.981C5.66597 14.1692 5.53922 14.3906 5.46217 14.631C5.36418 14.925 5.71664 15.2721 6.02572 15.2502L6.12717 15.243C6.85117 15.293 6.64217 15.57 7.77317 15.509L9.1131 15.4677C9.33459 15.4609 9.48638 15.2418 9.39717 15.039C9.34717 14.936 9.28417 14.733 9.24317 14.644C9.18172 14.5144 9.10876 14.3906 9.02517 14.274C8.89517 14.121 8.86517 14.11 8.82717 13.918C8.72909 13.4499 8.57847 12.9943 8.37817 12.56C8.27117 12.345 8.09317 12.163 7.93117 12.007C7.78917 11.87 7.46817 11.639 7.41317 11.65ZM18.2782 6.802C18.002 6.802 17.7782 7.02586 17.7782 7.302V8.302C17.7782 8.57814 18.002 8.802 18.2782 8.802H19.2782C19.5543 8.802 19.7782 9.02586 19.7782 9.302V18.302C19.7782 18.5781 19.5543 18.802 19.2782 18.802H10.2782C10.002 18.802 9.77817 18.5781 9.77817 18.302V17.302C9.77817 17.0259 9.55431 16.802 9.27817 16.802H8.27817C8.00203 16.802 7.77817 17.0259 7.77817 17.302V20.302C7.77817 20.5781 8.00203 20.802 8.27817 20.802H21.2782C21.5543 20.802 21.7782 20.5781 21.7782 20.302V7.302C21.7782 7.02586 21.5543 6.802 21.2782 6.802H18.2782Z" fill="#EA580C"/>
</svg>
