<svg width="24" height="24" viewBox="0 0 24 24" fill="none" xmlns="http://www.w3.org/2000/svg">
<path d="M12.0002 5.95684C10.3975 5.95684 8.86038 6.59353 7.72708 7.72684C6.59377 8.86014 5.95709 10.3972 5.95708 12C5.95708 13.6027 6.59377 15.1398 7.72707 16.2731C8.86038 17.4064 10.3975 18.0431 12.0002 18.0431C13.6029 18.0431 15.14 17.4064 16.2733 16.2731C17.4067 15.1398 18.0433 13.6027 18.0434 12C18.0434 11.2064 17.8871 10.4206 17.5834 9.68737C17.2797 8.95418 16.8345 8.28799 16.2734 7.72683C15.7122 7.16567 15.046 6.72053 14.3128 6.41683C13.5797 6.11313 12.7938 5.95682 12.0002 5.95681L12.0002 5.95684ZM22.0722 12C22.0722 13.3226 21.8117 14.6324 21.3056 15.8544C20.7994 17.0764 20.0575 18.1867 19.1222 19.122C18.1869 20.0572 17.0766 20.7991 15.8546 21.3053C14.6326 21.8115 13.3229 22.072 12.0002 22.072C10.6775 22.072 9.36781 21.8115 8.14582 21.3053C6.92383 20.7991 5.8135 20.0572 4.87823 19.122C3.94296 18.1867 3.20106 17.0763 2.6949 15.8544C2.18874 14.6324 1.92822 13.3226 1.92822 12C1.92823 9.32871 2.98938 6.76686 4.87825 4.878C6.76711 2.98914 9.32895 1.92798 12.0002 1.92798C13.3229 1.92798 14.6326 2.18849 15.8546 2.69466C17.0766 3.20082 18.1869 3.94271 19.1222 4.87798C20.0575 5.81326 20.7994 6.92358 21.3055 8.14557C21.8117 9.36757 22.0722 10.6773 22.0722 12Z" fill="#4ADE80"/>
<path d="M16.3116 10.5664H14.1535L14.1534 13.4332H16.3116L16.3116 10.5664ZM13.4323 7.68872H10.5689V16.3111H13.4322L13.4323 7.68872ZM9.84767 10.5664H7.68945V13.4332H9.84758L9.84767 10.5664Z" fill="#4ADE80"/>
</svg>
