<svg width="24" height="24" viewBox="0 0 24 24" fill="none" xmlns="http://www.w3.org/2000/svg">
<path d="M4.52397 20.862C4.26643 20.5447 3.56569 18.1795 3.20527 16.411C1.96727 10.3361 3.30513 6.01398 7.02927 4.05698C8.62447 3.21872 9.94707 2.94328 12.3997 2.93858C15.6111 2.93246 17.501 3.55552 19.2071 5.18278C21.7263 7.58568 21.9417 11.915 19.666 14.405C18.3987 15.7916 15.0684 17.2253 13.1147 17.2253H12.522L12.1143 15.9865C11.8901 15.3051 11.6579 14.4838 11.5983 14.1614L11.4899 13.5751L12.1459 13.6631C12.9228 13.7673 14.035 13.3922 14.5114 12.8654C15.5089 11.7625 15.3351 9.27012 14.2093 8.53242C13.1456 7.83548 11.0848 7.87928 10.0432 8.62095C8.15453 9.96585 8.66083 14.8688 11.2145 19.964C11.4626 20.4589 11.621 20.9085 11.5664 20.963C11.5119 21.0175 9.94153 21.0622 8.07673 21.0622C5.55733 21.0622 4.64457 21.0105 4.52397 20.862Z" fill="#FBBF24"/>
</svg>
