<svg width="24" height="24" viewBox="0 0 24 24" fill="none" xmlns="http://www.w3.org/2000/svg">
<path d="M8.86251 14.765L7.70511 21.3624H3.93701L7.19071 2.63739L13.7495 2.65025C15.7728 2.65025 17.3632 3.21182 18.5207 4.33495C19.6781 5.45808 20.1839 6.92415 20.0382 8.73315C19.901 10.5679 19.1337 12.034 17.7362 13.1314C16.3473 14.2288 14.5725 14.7775 12.412 14.7775L8.86251 14.765ZM9.38978 11.6399L12.5277 11.6656C13.5393 11.6656 14.3795 11.4041 15.0483 10.8811C15.717 10.3581 16.1157 9.65081 16.2443 8.75913C16.3729 7.86746 16.2271 7.15586 15.807 6.62433C15.3955 6.09277 14.7825 5.80984 13.968 5.77555L10.4185 5.76269L9.38978 11.6399Z" fill="#60A5FA"/>
</svg>
