<svg width="24" height="25" viewBox="0 0 24 25" fill="none" xmlns="http://www.w3.org/2000/svg">
<path d="M4.7839 14.3134L6.01488 13.0824L11.4176 18.4851L10.1866 19.7161C9.14143 20.7613 7.44683 20.7613 6.40164 19.7161L4.7839 18.0984C3.7387 17.0532 3.7387 15.3586 4.7839 14.3134ZM19.2159 10.6868L17.985 11.9178L12.5822 6.51505L13.8132 5.2841C14.8584 4.2389 16.553 4.2389 17.5982 5.2841L19.2159 6.90184C20.2611 7.94704 20.2611 9.64163 19.2159 10.6868ZM13.8132 19.7159C14.8584 20.7611 16.553 20.7611 17.5982 19.7159L19.2159 18.0982C20.2611 17.053 20.2611 15.3584 19.2159 14.3132L10.1866 5.28389C9.14143 4.2387 7.44683 4.2387 6.40164 5.2839L4.7839 6.90164C3.7387 7.94683 3.7387 9.64143 4.7839 10.6866L13.8132 19.7159ZM9.5293 11.8824C9.8704 11.8824 10.1469 12.1589 10.1469 12.5C10.1469 12.8411 9.8704 13.1176 9.5293 13.1176C9.18819 13.1176 8.91167 12.8411 8.91167 12.5C8.91167 12.1589 9.18819 11.8824 9.5293 11.8824ZM12.6174 14.9705C12.6174 15.3116 12.3409 15.5881 11.9998 15.5881C11.6587 15.5881 11.3822 15.3116 11.3822 14.9705C11.3822 14.6294 11.6587 14.3529 11.9998 14.3529C12.3409 14.3529 12.6174 14.6294 12.6174 14.9705ZM12.6174 12.5C12.6174 12.8411 12.3409 13.1176 11.9998 13.1176C11.6587 13.1176 11.3822 12.8411 11.3822 12.5C11.3822 12.1589 11.6587 11.8824 11.9998 11.8824C12.3409 11.8824 12.6174 12.1589 12.6174 12.5ZM11.9998 9.41185C12.3409 9.41185 12.6174 9.68837 12.6174 10.0295C12.6174 10.3706 12.3409 10.6471 11.9998 10.6471C11.6587 10.6471 11.3822 10.3706 11.3822 10.0295C11.3822 9.68837 11.6587 9.41185 11.9998 9.41185ZM15.0879 12.5C15.0879 12.8411 14.8114 13.1176 14.4703 13.1176C14.1292 13.1176 13.8527 12.8411 13.8527 12.5C13.8527 12.1589 14.1292 11.8824 14.4703 11.8824C14.8114 11.8824 15.0879 12.1589 15.0879 12.5Z" fill="#F87171"/>
</svg>
