<svg width="24" height="24" viewBox="0 0 24 24" fill="none" xmlns="http://www.w3.org/2000/svg">
<path d="M12.5 14C11.5 14 9.5 15 9.5 16C9.5 18 12.5 18 12.5 18V17C12.2348 17 11.9804 16.8946 11.7929 16.7071C11.6054 16.5196 11.5 16.2652 11.5 16C11.5 15.7348 11.6054 15.4804 11.7929 15.2929C11.9804 15.1054 12.2348 15 12.5 15V14ZM12.5 19C12.5 19 8.5 18.5 8.5 16.5C8.5 13.5 11.5 12.75 12.5 12.75V11.5C11.5 11.5 7.5 13 7.5 16C7.5 20 12.5 20 12.5 20V19ZM10.57 7.03L11.76 7.56C12.19 5.12 13.34 3.5 13.34 3.5C12.91 4.53 12.63 5.38 12.45 6.05C13.66 3.55 16.11 2 16.11 2C15.0705 3.04852 14.182 4.23658 13.47 5.53C15.05 3.85 17.24 2.75 17.24 2.75C14.55 4.47 13.34 7.2 13.04 7.96L13.59 8.04C13.59 8.56 13.59 9.04 13.84 9.42C14.6 11.31 18.5 11.47 18.5 16C18.5 20.53 14.47 22 12.33 22C10.19 22 5.5 21.03 5.5 16C5.5 10.97 10.45 10.93 11.33 8.92C11.45 8.54 10.57 7.03 10.57 7.03Z" fill="#A855F7"/>
</svg>
