<svg width="24" height="24" viewBox="0 0 24 24" fill="none" xmlns="http://www.w3.org/2000/svg">
<path d="M22.0001 2C19.9771 2.139 5.7661 3.492 4.7731 13.234C4.65715 14.2758 4.5791 15.3215 4.5391 16.369L8.8521 12.061C8.58353 12.2807 8.24709 12.4005 7.9001 12.4C7.50228 12.4 7.12074 12.242 6.83944 11.9607C6.55814 11.6794 6.4001 11.2978 6.4001 10.9C6.4001 10.5022 6.55814 10.1206 6.83944 9.83934C7.12074 9.55804 7.50228 9.4 7.9001 9.4C8.29793 9.4 8.67946 9.55804 8.96076 9.83934C9.24206 10.1206 9.4001 10.5022 9.4001 10.9C9.40036 11.252 9.27682 11.5929 9.0511 11.863L11.5271 9.389C11.6443 9.27164 11.8034 9.20566 11.9692 9.20556C12.1351 9.20547 12.2942 9.27127 12.4116 9.3885C12.529 9.50573 12.5949 9.66477 12.595 9.83065C12.5951 9.99652 12.5293 10.1556 12.4121 10.273L9.8871 12.795C10.1635 12.5413 10.5249 12.4003 10.9001 12.4C11.2979 12.4 11.6795 12.558 11.9608 12.8393C12.2421 13.1206 12.4001 13.5022 12.4001 13.9C12.4001 14.2978 12.2421 14.6794 11.9608 14.9607C11.6795 15.242 11.2979 15.4 10.9001 15.4C10.5023 15.4 10.1207 15.242 9.83944 14.9607C9.55814 14.6794 9.4001 14.2978 9.4001 13.9C9.39978 13.5321 9.53466 13.1769 9.7791 12.902L2.2751 20.4C2.1881 20.4871 2.11911 20.5905 2.07208 20.7043C2.02504 20.8181 2.00088 20.9401 2.00098 21.0632C2.00107 21.1863 2.02541 21.3082 2.07262 21.422C2.11983 21.5357 2.18897 21.639 2.2761 21.726C2.36323 21.813 2.46665 21.882 2.58044 21.929C2.69423 21.9761 2.81618 22.0002 2.93931 22.0001C3.06244 22 3.18434 21.9757 3.29807 21.9285C3.41179 21.8813 3.5151 21.8121 3.6021 21.725L5.8341 19.496C7.47815 19.4914 9.12067 19.3956 10.7541 19.209C12.8431 18.996 14.5451 18.176 15.9341 17.002H11.9881L17.7231 15.092C18.1624 14.5075 18.5597 13.8926 18.9121 13.252H15.7421L19.9041 11.174C21.5431 7.191 21.9291 3.025 22.0001 2Z" fill="#FF7043"/>
</svg>
