<svg width="24" height="25" viewBox="0 0 24 25" fill="none" xmlns="http://www.w3.org/2000/svg">
<path d="M11.9892 4.58863C10.444 5.06029 9.4549 6.25352 9.46546 7.6333C9.47602 8.57662 9.7752 9.41434 10.5285 10.597C11.0107 11.3573 11.9786 12.8145 12.0068 12.8251C12.0209 12.8321 12.1546 12.7688 12.2989 12.6878C13.3232 12.1176 13.9744 11.2165 14.1152 10.1817C14.1363 10.0303 14.1539 9.57977 14.1539 9.18555C14.1539 8.39359 14.168 8.32671 14.3651 8.18591C14.5939 8.02048 14.8719 8.07328 15.055 8.31263L15.1571 8.44286L15.1676 9.16795C15.1747 9.59033 15.1641 10.0303 15.1395 10.2169C15.055 10.8962 14.8262 11.5192 14.4531 12.0929C14.2278 12.4379 13.6541 13.0046 13.2563 13.2756C12.9008 13.5185 12.2039 13.9021 11.9857 13.9761C11.8026 14.0359 11.6266 13.9972 11.4788 13.8599C11.3873 13.7719 9.85616 11.4523 9.44786 10.7765C9.0114 10.0585 8.67701 9.25595 8.5327 8.5731C8.42358 8.05568 8.4095 7.29539 8.50102 6.86949C8.58901 6.47527 8.74389 6.06345 8.92692 5.75722C9.0114 5.61291 9.07475 5.48971 9.06771 5.48267C9.06067 5.47563 8.89876 5.49323 8.70869 5.52843C5.98081 5.98953 3.75626 8.11552 3.16141 10.8293C3.01005 11.5051 2.98542 11.8078 3.00654 12.6244C3.02765 13.4234 3.06989 13.7015 3.25996 14.3316C3.47467 15.0391 3.76682 15.6621 4.23848 16.4118C4.57639 16.9503 4.76294 17.3199 4.87557 17.6754C5.06917 18.2703 5.08325 18.404 5.10436 19.6958C5.11844 20.5159 5.13956 20.9313 5.16772 20.9806C5.18884 21.0193 5.25572 21.0967 5.31908 21.1566L5.42819 21.2621H8.02232L8.11735 21.1742C8.31447 20.9911 8.31095 21.0087 8.31095 19.5022V18.1119H10.4193L10.4405 20.9982L10.5742 21.1284L10.7044 21.2621H13.3021L13.3971 21.1742C13.5696 21.0122 13.5872 20.9383 13.6259 20.164C13.6928 18.7983 13.8758 17.8021 14.2771 16.6406C14.4918 16.0141 14.6361 15.6797 15.0937 14.7575C15.4844 13.969 15.495 13.9549 15.59 13.9725C15.6428 13.9831 15.8751 14.0253 16.1074 14.0641C16.6706 14.1556 16.8466 14.2119 17.1035 14.3773C17.371 14.5533 17.6033 14.856 17.716 15.1799C17.7864 15.3946 17.7969 15.4826 17.7969 16.0352C17.7969 16.63 17.7934 16.6547 17.7125 16.7708C17.6033 16.9222 17.357 17.0348 17.1986 17.0067C17.1352 16.9926 17.0155 16.9327 16.9311 16.8729C16.7269 16.7251 16.4348 16.6934 16.2588 16.8025C16.0546 16.9292 14.6185 18.4005 14.5622 18.5413C14.4531 18.8018 14.5129 18.9989 14.7769 19.2488C15.6956 20.1217 17.1634 20.4455 18.3777 20.0443C19.1063 19.8049 19.842 19.2101 20.3383 18.4533C20.6058 18.052 20.7431 17.7599 20.9014 17.246L21 16.9327V13.3249C21 10.0057 20.9965 9.69241 20.9366 9.42842C20.6058 7.89377 19.6202 6.62662 18.2123 5.91913C17.5435 5.58475 16.6776 5.40523 15.7378 5.40523H15.3577L14.9705 5.16236C14.1821 4.67663 13.6998 4.52527 12.8692 4.50415C12.3377 4.49359 12.2884 4.49711 11.9892 4.58863ZM17.5646 9.76281C17.804 9.9388 17.8603 10.2098 17.716 10.4492C17.452 10.868 16.7938 10.6744 16.7938 10.1746C16.7938 9.78745 17.2654 9.53754 17.5646 9.76281Z" fill="#A855F7"/>
</svg>
