<svg width="24" height="24" viewBox="0 0 24 24" fill="none" xmlns="http://www.w3.org/2000/svg">
<path d="M8.56207 16.0185C8.45632 15.3825 8.13832 14.8523 7.50157 14.64C7.29007 14.5343 6.97207 14.322 6.75907 14.2163C6.44182 14.1105 6.12382 14.004 5.91157 13.8983C5.69932 13.7925 5.48782 13.8983 5.27557 14.1105C5.16907 14.322 5.27557 14.5343 5.38132 14.64C5.48782 14.8523 5.59357 14.958 5.80582 15.1703C6.01732 15.4883 6.22957 15.7005 6.54832 16.0185C6.75982 16.3365 6.97207 16.5488 6.86557 16.9725C6.75982 17.715 6.44182 18.4575 5.91157 18.987C5.80582 19.0928 5.69932 19.0928 5.69932 19.0928C5.38132 19.0928 4.95682 18.8813 4.74532 18.669C4.42732 18.351 4.53307 18.033 4.85107 17.8215C4.90627 17.8178 4.95823 17.7941 4.99728 17.755C5.03633 17.7158 5.0598 17.6637 5.06332 17.6085C5.27557 17.397 5.38132 17.1848 5.27557 16.866C5.16982 16.761 5.16982 16.6545 5.06332 16.5488C4.63957 16.1243 4.10932 15.7005 3.57907 15.2768C2.20132 14.2163 1.56457 12.9443 1.45882 11.4593C1.35307 9.76351 1.77682 8.17351 2.62507 6.68926C2.94307 6.15901 3.36757 5.62876 4.00357 5.31076C4.42732 5.09851 4.85107 4.99276 5.27557 4.88701C6.44182 4.56826 7.71382 4.35676 8.98582 4.56826C10.0463 4.78051 10.8946 5.31076 11.2126 6.37126C11.4248 7.11301 11.5306 7.74901 11.4248 8.49151C11.3183 9.97576 10.1521 11.2478 8.77432 11.6715C8.13832 11.8838 7.81957 11.778 7.50157 11.2478C7.29007 10.9298 6.97207 10.5053 6.75907 10.0815V9.97576C6.75907 9.86926 6.65407 9.86926 6.65407 9.76351C6.75907 10.3995 6.86557 11.0355 7.18357 11.5658C7.39582 11.8838 7.60807 12.096 8.03182 12.096C9.41032 12.2018 10.4701 11.778 11.3183 10.7175C12.1666 9.55126 12.3788 8.17351 12.1666 6.68926C12.1666 6.37126 12.0608 6.15901 11.9551 5.84101C11.9551 5.62876 11.9551 5.52301 12.1666 5.41651C12.2731 5.41651 12.3788 5.41651 12.3788 5.31076C13.4393 5.09851 14.6048 4.99276 15.6653 5.09851C16.9373 5.20501 18.1036 5.52301 19.1641 6.26476C20.8606 7.32526 21.9203 8.91526 22.4506 10.824C22.5563 11.142 22.5563 11.3535 22.5563 11.6715C22.5563 11.8838 22.4506 11.8838 22.2383 11.778C22.0268 11.6715 21.9203 11.46 21.8146 11.3535C21.7088 11.247 21.6023 11.0355 21.4966 10.9298C21.3908 10.824 21.2843 10.824 21.2843 10.9298C21.2843 11.0355 21.1786 11.142 21.1786 11.2478C20.8606 12.3083 20.4361 13.2623 19.6936 14.004C19.5886 14.1105 19.4821 14.322 19.4821 14.4285C19.4821 14.8523 19.3763 15.276 19.4821 15.7005C19.5878 16.548 19.6943 17.5028 19.8001 18.351C19.9058 18.8813 19.6943 19.0935 19.2698 19.305C18.9518 19.4108 18.6338 19.5173 18.2101 19.5173H16.5136C16.5136 18.8813 16.5136 18.2453 15.9833 17.9273C16.0891 17.5028 16.1956 17.079 16.3013 16.5488C16.4078 16.1243 16.3013 15.8063 16.0891 15.4883C15.8776 15.1703 15.5596 15.1703 15.2416 15.2768C14.3933 15.8063 13.5451 15.8063 12.5911 15.4883C12.1666 15.3825 11.8486 15.3825 11.6363 15.8063C11.4248 16.2308 11.3183 16.6545 11.3183 17.079C11.3183 17.6085 11.4248 18.2445 11.5306 18.7748C11.5306 19.0928 11.5306 19.1993 11.2126 19.305C10.5222 19.4961 9.79822 19.5322 9.09232 19.4108H8.98657C8.98657 18.7748 8.98657 18.1388 8.24407 17.8208C8.66857 17.397 8.66857 16.6545 8.56207 16.0185ZM4.21507 13.5803C4.32157 13.4738 4.42732 13.368 4.42732 13.1558C4.53307 12.8378 4.21507 12.3083 3.89707 12.2018C3.68557 12.096 3.57907 12.2018 3.47332 12.3083C3.15532 12.6263 2.94307 12.9443 2.62507 13.2623C2.62507 13.368 2.51932 13.368 2.51932 13.4738C2.41282 13.686 2.51932 13.8983 2.73082 13.8983C2.83732 13.8983 3.04882 13.8983 3.15532 14.004C3.57907 14.004 3.89782 13.8983 4.21507 13.5803ZM4.21507 10.0815C4.21507 9.86926 4.00357 9.65776 3.79132 9.65776C3.57907 9.65776 3.26107 9.86926 3.36757 10.1873C3.36757 10.3995 3.57907 10.6118 3.89707 10.6118C4.00357 10.5053 4.21507 10.2938 4.21507 10.0815Z" fill="#60A5FA"/>
</svg>
