<svg width="24" height="24" viewBox="0 0 24 24" fill="none" xmlns="http://www.w3.org/2000/svg">
<path d="M21.4601 10.086C21.2361 10.676 20.4481 10.934 19.9191 10.355C18.2511 8.42998 14.9831 8.40998 14.0741 11.318C13.3801 13.41 15.1091 15.598 18.1671 15.321C18.8381 15.268 19.3121 15.869 19.1011 16.531L17.5801 20.688C17.1941 21.711 16.2041 22.262 15.0331 21.879L3.3841 17.631C2.3351 17.261 1.7601 16.118 2.1041 15.091L6.41911 3.29798C6.88411 2.24598 7.6871 1.76998 8.9661 2.10698L20.6151 6.35298C21.6661 6.72598 22.2401 7.86798 21.8961 8.89398L21.4601 10.086ZM19.2371 12.16C19.2371 10.589 17.5241 9.60098 16.1621 10.387C14.7991 11.173 14.7991 13.147 16.1621 13.933C17.5251 14.719 19.2371 13.731 19.2371 12.16Z" fill="#60A5FA"/>
</svg>
