<svg width="24" height="24" viewBox="0 0 24 24" fill="none" xmlns="http://www.w3.org/2000/svg">
<path d="M12.0379 3.115C11.9039 3.117 11.7669 3.198 11.6119 3.355C11.1449 3.833 4.8479 12.743 4.8479 12.927C4.8479 13.191 5.3059 13.604 5.5979 13.604C5.7519 13.604 6.3219 13.364 6.8659 13.069C7.5779 12.683 7.8779 12.434 7.9409 12.177C8.1949 11.137 8.8139 10.607 9.7679 10.607C10.4979 10.607 11.2619 11.33 11.3679 12.124C11.4409 12.666 11.5419 12.784 12.6269 13.587C13.2759 14.067 13.8709 14.461 13.9499 14.461C14.0299 14.461 14.2779 14.365 14.5029 14.247C15.0479 13.963 15.3889 13.977 15.9849 14.31C16.2579 14.462 16.5409 14.59 16.6119 14.595C16.8319 14.609 19.0009 13.288 19.0749 13.095C19.1129 12.995 19.0749 12.784 18.9919 12.625C18.8729 12.405 13.7489 5.13 12.5719 3.511C12.3769 3.244 12.2099 3.114 12.0379 3.115Z" fill="#81C784"/>
<path d="M8.3919 13.584L4.9199 15.554L3.3859 17.684C1.7719 19.925 1.5659 20.327 1.8519 20.672C2.0049 20.856 3.3399 20.884 11.9199 20.884C17.3599 20.884 21.9139 20.845 22.0379 20.798C22.1619 20.75 22.2639 20.568 22.2639 20.391C22.2639 20.05 18.9339 15.202 18.6159 15.081C18.2329 14.933 17.1249 15.755 16.7749 16.445C16.3829 17.218 15.8919 17.53 15.1009 17.509C14.4029 17.491 13.7949 16.959 13.5269 16.131C13.3729 15.653 13.1299 15.406 12.0699 14.646C11.2079 14.028 10.7249 13.766 10.5709 13.835C10.0689 14.058 9.2969 14.052 8.8509 13.821L8.3919 13.584Z" fill="#43A047"/>
</svg>
