<svg width="24" height="24" viewBox="0 0 24 24" fill="none" xmlns="http://www.w3.org/2000/svg">
<path d="M15 17.25H8.89497C8.8207 16.987 8.71228 16.7348 8.57247 16.5L16.5 8.57251C16.9514 8.84955 17.4703 8.99742 18 9.00001C18.5615 9.00183 19.1122 8.84602 19.5896 8.55032C20.0669 8.25461 20.4517 7.83087 20.7001 7.32731C20.9485 6.82374 21.0507 6.26056 20.9948 5.70182C20.939 5.14309 20.7275 4.61124 20.3844 4.16676C20.0413 3.72229 19.5803 3.38304 19.0539 3.1876C18.5275 2.99216 17.9568 2.94838 17.4067 3.06125C16.8567 3.17411 16.3493 3.43908 15.9424 3.82602C15.5355 4.21295 15.2454 4.70632 15.105 5.25001H8.89497C8.71243 4.54301 8.2783 3.92687 7.67397 3.51706C7.06963 3.10725 6.33658 2.93191 5.61222 3.02392C4.88786 3.11592 4.22192 3.46895 3.73923 4.01683C3.25654 4.56471 2.99023 5.26983 2.99023 6.00001C2.99023 6.73019 3.25654 7.4353 3.73923 7.98318C4.22192 8.53106 4.88786 8.88409 5.61222 8.9761C6.33658 9.0681 7.06963 8.89277 7.67397 8.48296C8.2783 8.07315 8.71243 7.457 8.89497 6.75001H15.105C15.1792 7.01251 15.288 7.26526 15.4275 7.50001L7.49997 15.4275C7.0485 15.1505 6.52967 15.0026 5.99997 15C5.43846 14.9982 4.88771 15.154 4.41037 15.4497C3.93303 15.7454 3.54825 16.1691 3.29983 16.6727C3.0514 17.1763 2.94928 17.7395 3.0051 18.2982C3.06091 18.8569 3.27241 19.3888 3.61555 19.8333C3.95868 20.2777 4.41967 20.617 4.94608 20.8124C5.47248 21.0079 6.04317 21.0516 6.59322 20.9388C7.14328 20.8259 7.65062 20.5609 8.05753 20.174C8.46444 19.7871 8.75459 19.2937 8.89497 18.75H15V21H21V15H15V17.25ZM5.99997 7.50001C5.60215 7.50001 5.22062 7.34197 4.93931 7.06067C4.65801 6.77936 4.49997 6.39783 4.49997 6.00001C4.49997 5.60218 4.65801 5.22065 4.93931 4.93935C5.22062 4.65804 5.60215 4.50001 5.99997 4.50001C6.3978 4.50001 6.77933 4.65804 7.06063 4.93935C7.34194 5.22065 7.49997 5.60218 7.49997 6.00001C7.49997 6.39783 7.34194 6.77936 7.06063 7.06067C6.77933 7.34197 6.3978 7.50001 5.99997 7.50001ZM18 4.50001C18.3978 4.50001 18.7793 4.65804 19.0606 4.93935C19.3419 5.22065 19.5 5.60218 19.5 6.00001C19.5 6.39783 19.3419 6.77936 19.0606 7.06067C18.7793 7.34197 18.3978 7.50001 18 7.50001C17.6021 7.50001 17.2206 7.34197 16.9393 7.06067C16.658 6.77936 16.5 6.39783 16.5 6.00001C16.5 5.60218 16.658 5.22065 16.9393 4.93935C17.2206 4.65804 17.6021 4.50001 18 4.50001ZM5.99997 19.5C5.60215 19.5 5.22062 19.342 4.93931 19.0607C4.65801 18.7794 4.49997 18.3978 4.49997 18C4.49997 17.6022 4.65801 17.2207 4.93931 16.9393C5.22062 16.658 5.60215 16.5 5.99997 16.5C6.3978 16.5 6.77933 16.658 7.06063 16.9393C7.34194 17.2207 7.49997 17.6022 7.49997 18C7.49997 18.3978 7.34194 18.7794 7.06063 19.0607C6.77933 19.342 6.3978 19.5 5.99997 19.5ZM16.5 16.5H19.5V19.5H16.5V16.5Z" fill="#FBBF24"/>
</svg>
