<svg width="24" height="24" viewBox="0 0 24 24" fill="none" xmlns="http://www.w3.org/2000/svg">
<path d="M19.7618 6.40822L12.9905 2.53037C12.3774 2.1786 11.6238 2.1786 11.0106 2.53037L4.2393 6.40822C3.8486 6.63208 3.55244 6.9769 3.38559 7.38151C3.28826 7.61788 3.23682 7.87372 3.23682 8.13789V15.8644C3.23682 16.5791 3.60667 17.1728 4.22679 17.5287L5.18617 18.0752L5.21537 9.01107C5.21537 8.81919 5.25708 8.62037 5.32243 8.44656C5.45035 8.13233 5.68672 7.84591 5.99122 7.67211L11.2345 4.67021C11.71 4.39769 12.2926 4.39769 12.7681 4.67021L18.0113 7.67211C18.377 7.88206 18.637 8.22966 18.7385 8.62732C18.7705 8.75106 18.7872 8.87898 18.7872 9.01107V14.994C18.7872 15.5474 18.491 16.0577 18.0113 16.333L12.7681 19.3349C12.5289 19.4725 12.262 19.5393 11.995 19.5379L11.9964 21.7333C12.3384 21.7333 12.6833 21.6457 12.9892 21.4705L19.7604 17.5927C20.3806 17.2381 20.7629 16.5777 20.7629 15.863V8.13789C20.7629 7.95436 20.7379 7.775 20.6892 7.60398C20.553 7.10482 20.2235 6.6724 19.7618 6.40822Z" fill="#FBBF24"/>
<path d="M12.5498 17.259L16.3109 15.1053C16.6557 14.9078 16.8671 14.5421 16.8671 14.1445V9.85507C16.8671 9.76469 16.8559 9.6771 16.8351 9.59089C16.7642 9.3003 16.5765 9.04724 16.3109 8.89429L12.5498 6.74194C12.2092 6.54728 11.7907 6.54728 11.45 6.74194L7.69036 8.89429C7.45399 9.03056 7.27879 9.24607 7.19259 9.49495C7.15644 9.60758 7.1328 9.7341 7.1328 9.85507L7.1189 19.1653L9.12526 20.2915V15.9284L11.45 17.259C11.6169 17.3549 11.8032 17.4036 11.9895 17.405C12.1828 17.4078 12.3774 17.3591 12.5498 17.259ZM9.44227 13.8442C9.23788 13.7274 9.11135 13.5091 9.11135 13.2741V10.7269C9.11135 10.649 9.12526 10.5739 9.15029 10.503C9.20312 10.3584 9.30462 10.2347 9.44227 10.1568L11.6753 8.879C11.8769 8.7636 12.1258 8.7636 12.3288 8.879L14.5618 10.1568C14.7258 10.2513 14.8398 10.4098 14.8774 10.5906C14.8843 10.6295 14.8913 10.6865 14.8913 10.7269V13.2741C14.8913 13.5091 14.7648 13.7274 14.5604 13.8442L12.3274 15.1219C12.2259 15.1803 12.1132 15.2095 12.0006 15.2095C11.888 15.2095 11.7754 15.1803 11.6739 15.1233L9.44227 13.8442Z" fill="#FBBF24"/>
</svg>
