<svg width="24" height="24" viewBox="0 0 24 24" fill="none" xmlns="http://www.w3.org/2000/svg">
<path d="M16.6342 5.87471L17.315 3.56542C18.0114 3.50687 18.5576 2.95674 18.5576 2.28564C18.5576 1.57555 17.9463 1 17.1922 1C16.438 1 15.8268 1.57555 15.8268 2.28564C15.8268 2.75343 16.0931 3.16142 16.4896 3.38653L15.8215 5.65322C13.9113 5.19602 12.2988 5.2309 12.2988 5.2309L12 5.35672V22.9062L12.2988 23C14.1 23 21.9807 17.8758 22 12.3773C22 8.43765 19.2185 6.66852 16.6342 5.87471ZM14.7371 17.1786C13.2 14.8668 13.8498 9.48584 17.8652 8.7167C18.966 8.55064 20.3141 9.2317 20.7112 10.7447C21.7143 13.9546 15.8138 18.4492 14.7371 17.1786ZM17.1472 12.2264C16.8174 12.2264 16.5011 12.3498 16.2679 12.5694C16.0346 12.789 15.9036 13.0868 15.9036 13.3973C15.9036 13.5511 15.9358 13.7034 15.9983 13.8454C16.0608 13.9875 16.1524 14.1166 16.2679 14.2253C16.3834 14.334 16.5205 14.4203 16.6714 14.4791C16.8223 14.538 16.984 14.5682 17.1473 14.5682C17.3106 14.5682 17.4723 14.5379 17.6232 14.479C17.7741 14.4202 17.9112 14.3339 18.0266 14.2252C18.1421 14.1164 18.2337 13.9874 18.2962 13.8453C18.3586 13.7032 18.3908 13.551 18.3908 13.3972C18.3907 13.0867 18.2597 12.7889 18.0265 12.5693C17.7933 12.3498 17.477 12.2264 17.1472 12.2264ZM16.9856 14.1373C16.9443 14.1373 16.9035 14.1296 16.8653 14.1147C16.8272 14.0999 16.7926 14.0781 16.7634 14.0506C16.7342 14.0231 16.7111 13.9905 16.6953 13.9547C16.6795 13.9188 16.6714 13.8803 16.6714 13.8414C16.6714 13.8026 16.6795 13.7641 16.6953 13.7282C16.7111 13.6924 16.7342 13.6597 16.7634 13.6323C16.7926 13.6048 16.8272 13.583 16.8653 13.5682C16.9035 13.5533 16.9443 13.5456 16.9856 13.5456C17.0689 13.5456 17.1488 13.5768 17.2077 13.6323C17.2666 13.6878 17.2997 13.763 17.2997 13.8414C17.2997 13.9199 17.2666 13.9951 17.2077 14.0506C17.1488 14.1061 17.0689 14.1373 16.9856 14.1373Z" fill="#F59E0B"/>
<path d="M8.34766 5.72046L7.66133 3.3677C8.05403 3.13965 8.31528 2.74033 8.31528 2.28461C8.31528 1.57509 7.68401 1 6.90517 1C6.12647 1 5.4952 1.57509 5.4952 2.28461C5.4952 2.9919 6.12265 3.56537 6.89807 3.56885L7.58645 5.92821C4.90711 6.73856 2 8.51013 2 12.3861C2.05957 17.9889 10.1398 23 12 23V5.24532C12 5.24532 10.3258 5.23761 8.34766 5.72046ZM9.76802 17.1836C8.65605 18.4533 2.5624 13.9621 3.59826 10.755C4.00844 9.24319 5.40051 8.56266 6.53748 8.72847C10.6844 9.49712 11.3553 14.8737 9.76802 17.1836ZM7.19649 12.2717C6.8559 12.2717 6.52927 12.395 6.28842 12.6144C6.04758 12.8338 5.91226 13.1313 5.91222 13.4416C5.91221 13.5952 5.94542 13.7474 6.00996 13.8894C6.0745 14.0313 6.1691 14.1603 6.28838 14.269C6.40765 14.3777 6.54924 14.4638 6.70508 14.5226C6.86092 14.5814 7.02795 14.6117 7.19662 14.6117C7.36527 14.6117 7.53227 14.5814 7.68808 14.5226C7.84388 14.4638 7.98545 14.3776 8.10469 14.2689C8.22394 14.1603 8.31852 14.0313 8.38304 13.8893C8.44757 13.7474 8.48077 13.5952 8.48075 13.4416C8.48075 13.1313 8.34544 12.8337 8.1046 12.6143C7.86375 12.3949 7.53709 12.2717 7.19649 12.2717ZM7.42586 14.1366C7.33983 14.1366 7.25732 14.1054 7.19649 14.05C7.13565 13.9946 7.10148 13.9194 7.10148 13.8411C7.10148 13.7627 7.13565 13.6875 7.19649 13.6321C7.25732 13.5767 7.33983 13.5455 7.42586 13.5455C7.51189 13.5455 7.59439 13.5767 7.65523 13.6321C7.71606 13.6875 7.75024 13.7627 7.75024 13.8411C7.75024 13.9194 7.71606 13.9946 7.65523 14.05C7.59439 14.1054 7.51189 14.1366 7.42586 14.1366Z" fill="#F59E0B"/>
</svg>
