<svg width="24" height="24" viewBox="0 0 24 24" fill="none" xmlns="http://www.w3.org/2000/svg">
<path d="M9.70791 15.968V14.539L5.73791 15.664C5.73791 15.664 6.03191 13.961 8.10191 13.373C8.62226 13.2166 9.17221 13.1854 9.70691 13.282V7.42202H11.6949C11.5306 6.89504 11.3297 6.38013 11.0939 5.88102C10.8029 5.29002 10.5049 5.68102 9.82791 6.24802C9.35091 6.64602 8.14591 7.49602 6.33291 7.98502C4.51991 8.47402 3.05491 8.34402 2.44291 8.23802C1.57591 8.08802 1.12191 7.89702 1.16491 8.55802C1.20191 9.13802 1.33991 10.041 1.65691 11.231C2.34491 13.811 4.61391 18.781 8.90191 17.626C10.0219 17.324 10.8119 16.728 11.3609 15.966H9.70791V15.968ZM3.30391 11.267L6.35091 10.464C6.35091 10.464 6.26091 11.637 5.11891 11.938C3.97691 12.238 3.30391 11.267 3.30391 11.267Z" fill="#71717A"/>
<path d="M21.178 7.49002C20.386 7.63002 18.484 7.80202 16.136 7.17202C13.786 6.54203 12.228 5.44303 11.61 4.92603C10.734 4.19303 10.35 3.68203 9.97001 4.45303C9.63501 5.13303 9.20701 6.23903 8.79201 7.79002C7.89401 11.144 7.22201 18.222 12.777 19.711C18.331 21.2 21.289 14.733 22.187 11.378C22.603 9.83003 22.784 8.65803 22.834 7.90103C22.892 7.04402 22.304 7.29303 21.178 7.49103V7.49002ZM10.016 10.266C10.016 10.266 10.891 8.90303 12.376 9.32603C13.862 9.74803 13.976 11.391 13.976 11.391L10.016 10.266ZM13.64 16.376C11.029 15.611 10.626 13.528 10.626 13.528L17.642 15.49C17.642 15.49 16.226 17.13 13.64 16.376ZM16.122 12.096C16.122 12.096 16.996 10.734 18.48 11.158C19.964 11.582 20.082 13.223 20.082 13.223L16.122 12.096Z" fill="white"/>
</svg>
