<svg width="24" height="24" viewBox="0 0 24 24" fill="none" xmlns="http://www.w3.org/2000/svg">
<path fill-rule="evenodd" clip-rule="evenodd" d="M5.76924 14.8954C6.03996 18.4437 8.40914 21.5692 11.9664 21.5713H12.0338C15.5912 21.5692 17.9604 18.4437 18.231 14.8954C18.2387 14.7958 18.2424 14.6935 18.2425 14.5885V14.5842C18.2417 13.0175 17.405 10.8436 15.7692 8.26964C14.9178 6.93156 14.0605 5.59728 13.1973 4.26682C12.915 3.8313 12.6322 3.39617 12.3487 2.96142C12.2694 2.83991 12.1901 2.71844 12.1107 2.597C12.0898 2.56498 12.0689 2.53298 12.048 2.501L12.0001 2.42804L11.9523 2.501C11.9314 2.53298 11.9104 2.56498 11.8895 2.597L11.6516 2.96151C11.3681 3.39623 11.0851 3.83133 10.8028 4.26682C9.93966 5.59728 9.08243 6.93156 8.23116 8.26964C6.59464 10.8448 5.75781 13.0196 5.75781 14.5863C5.75781 14.6921 5.76165 14.7951 5.76933 14.8955L5.76924 14.8954ZM8.80869 14.6309C8.94732 16.4476 10.1608 18.0479 11.9829 18.049H12.0174C13.8395 18.0478 15.0529 16.4476 15.1916 14.6309C15.1955 14.58 15.1974 14.5275 15.1975 14.4737V14.4715C15.1971 13.6694 14.7686 12.5563 13.9306 11.2384C13.4946 10.5534 13.0555 9.87021 12.6135 9.18903C12.4283 8.90375 12.2427 8.61876 12.0567 8.33406L12.0001 8.24756L11.9435 8.33406C11.7574 8.61867 11.5718 8.90366 11.3869 9.18903C10.9448 9.87021 10.5058 10.5534 10.0697 11.2384C9.23148 12.5569 8.80284 13.6704 8.80284 14.4727C8.80284 14.5268 8.80476 14.5796 8.80869 14.6309Z" fill="#14B8A6"/>
</svg>
