<svg width="24" height="25" viewBox="0 0 24 25" fill="none" xmlns="http://www.w3.org/2000/svg">
<path d="M19.1667 8.26821C19.1667 8.8205 18.719 9.26821 18.1667 9.26821H15.5972C15.0449 9.26821 14.5972 8.8205 14.5972 8.26821V5.5C14.5972 4.94771 15.0449 4.5 15.5972 4.5H18.1667C18.719 4.5 19.1667 4.94772 19.1667 5.5V8.26821Z" fill="#F59E0B"/>
<path d="M13.7846 8.26821C13.7846 8.8205 13.3369 9.26821 12.7846 9.26821H10.2151C9.6628 9.26821 9.21509 8.8205 9.21509 8.26821V5.5C9.21509 4.94771 9.6628 4.5 10.2151 4.5H12.7846C13.3369 4.5 13.7846 4.94772 13.7846 5.5V8.26821Z" fill="#F59E0B"/>
<path d="M8.40279 8.26821C8.40279 8.8205 7.95507 9.26821 7.40279 9.26821H4.83325C4.28097 9.26821 3.83325 8.8205 3.83325 8.26821V5.5C3.83325 4.94771 4.28097 4.5 4.83325 4.5H7.40279C7.95507 4.5 8.40279 4.94772 8.40279 5.5V8.26821Z" fill="#F59E0B"/>
<path d="M19.1667 13.8841C19.1667 14.4363 18.719 14.8841 18.1667 14.8841H15.5972C15.0449 14.8841 14.5972 14.4363 14.5972 13.8841V11.1158C14.5972 10.5636 15.0449 10.1158 15.5972 10.1158H18.1667C18.719 10.1158 19.1667 10.5636 19.1667 11.1158V13.8841Z" fill="#F59E0B"/>
<path d="M13.7846 13.8841C13.7846 14.4363 13.3369 14.8841 12.7846 14.8841H10.2151C9.6628 14.8841 9.21509 14.4363 9.21509 13.8841V11.1158C9.21509 10.5636 9.6628 10.1158 10.2151 10.1158H12.7846C13.3369 10.1158 13.7846 10.5636 13.7846 11.1158V13.8841Z" fill="#71717A"/>
<path d="M13.7846 19.5C13.7846 20.0523 13.3369 20.5 12.7846 20.5H10.2151C9.6628 20.5 9.21509 20.0523 9.21509 19.5V16.7318C9.21509 16.1795 9.6628 15.7318 10.2151 15.7318H12.7846C13.3369 15.7318 13.7846 16.1795 13.7846 16.7318V19.5Z" fill="#71717A"/>
<path d="M19.1667 19.5C19.1667 20.0523 18.719 20.5 18.1667 20.5H15.5972C15.0449 20.5 14.5972 20.0523 14.5972 19.5V16.7318C14.5972 16.1795 15.0449 15.7318 15.5972 15.7318H18.1667C18.719 15.7318 19.1667 16.1795 19.1667 16.7318V19.5Z" fill="#71717A"/>
<path d="M8.40279 19.5C8.40279 20.0523 7.95507 20.5 7.40279 20.5H4.83325C4.28097 20.5 3.83325 20.0523 3.83325 19.5V16.7318C3.83325 16.1795 4.28097 15.7318 4.83325 15.7318H7.40279C7.95507 15.7318 8.40279 16.1795 8.40279 16.7318V19.5Z" fill="#71717A"/>
</svg>
