<svg width="24" height="24" viewBox="0 0 24 24" fill="none" xmlns="http://www.w3.org/2000/svg">
<path d="M6.17611 16.747C7.44711 16.747 8.64711 16.253 9.50311 15.397L15.7061 9.89099C15.9837 9.61246 16.3139 9.39185 16.6775 9.24199C17.0411 9.09212 17.4309 9.01598 17.8241 9.01799C19.4741 9.01799 20.8241 10.35 20.8241 12C20.8241 13.65 19.4741 14.982 17.8241 14.982C17.4228 14.9824 17.0254 14.9022 16.6556 14.7462C16.2858 14.5903 15.951 14.3617 15.6711 14.074L14.6741 13.191L13.3241 14.374L14.4531 15.353C15.3531 16.253 16.5531 16.747 17.8231 16.747C20.4531 16.747 22.5881 14.612 22.5881 12C22.5881 9.38799 20.4531 7.25299 17.8241 7.25299C16.5531 7.25299 15.3531 7.74699 14.4971 8.60299L8.29411 14.109C8.01661 14.3874 7.68657 14.6079 7.32317 14.7578C6.95976 14.9077 6.57021 14.9839 6.17711 14.982C4.52711 14.982 3.17711 13.65 3.17711 12C3.17711 10.35 4.52711 9.01799 6.17711 9.01799C6.97111 9.01799 7.72911 9.32599 8.32911 9.92599L9.35311 10.818L10.6761 9.63499L9.54711 8.64699C9.10412 8.20579 8.57841 7.85634 8.00013 7.61868C7.42184 7.38101 6.80233 7.2598 6.17711 7.26199C3.54711 7.26199 1.41211 9.38799 1.41211 12C1.41131 12.625 1.53412 13.2441 1.77346 13.8215C2.0128 14.3989 2.36395 14.9232 2.80671 15.3644C3.24947 15.8056 3.7751 16.1549 4.35336 16.3922C4.93161 16.6294 5.55108 16.75 6.17611 16.747Z" fill="#F87171"/>
<path d="M17.8241 6.96301C16.4791 6.96301 15.2051 7.48301 14.2931 8.39501L14.2911 8.39601L8.09412 13.896L8.08812 13.902C7.83793 14.1542 7.53997 14.3539 7.21168 14.4896C6.88338 14.6252 6.53133 14.694 6.17612 14.692C4.68212 14.692 3.46612 13.492 3.46612 12C3.46612 10.508 4.68212 9.30901 6.17612 9.30901C6.89412 9.30901 7.57412 9.58401 8.12312 10.133L8.13112 10.139L9.35512 11.205L11.1151 9.63301L9.75212 8.43901H9.75012C8.80048 7.49526 7.51495 6.96724 6.17612 6.97101C3.38912 6.97001 1.12012 9.22901 1.12012 12C1.12012 14.803 3.39012 17.037 6.17512 17.037C7.52012 17.037 8.79312 16.517 9.70512 15.605L15.9051 10.103L15.9111 10.097C16.1614 9.84503 16.4594 9.64547 16.7877 9.51C17.116 9.37453 17.468 9.30586 17.8231 9.30801C19.3161 9.30801 20.5321 10.508 20.5321 12C20.5321 13.492 19.3161 14.691 17.8231 14.691C17.0951 14.691 16.4251 14.417 15.8761 13.867L15.8681 13.861L14.6731 12.803L12.8801 14.375L14.2471 15.558C14.7161 16.0283 15.2735 16.4011 15.8873 16.6549C16.501 16.9088 17.159 17.0386 17.8231 17.037C20.6101 17.037 22.8781 14.77 22.8781 12C22.8781 9.23001 20.6111 6.96301 17.8241 6.96301ZM17.8241 7.54301C20.2961 7.54301 22.2971 9.54701 22.2971 12C22.2971 14.453 20.2961 16.457 17.8241 16.457C17.236 16.4588 16.6534 16.344 16.1099 16.1191C15.5665 15.8942 15.073 15.5638 14.6581 15.147L14.6521 15.141L13.7651 14.373L14.6721 13.578L15.4651 14.279L15.4671 14.281C15.7742 14.5949 16.1409 14.8443 16.5456 15.0146C16.9503 15.1849 17.385 15.2728 17.8241 15.273C19.6311 15.273 21.1151 13.809 21.1151 12C21.1151 10.191 19.6311 8.72701 17.8241 8.72701C16.9471 8.72701 16.1201 9.06701 15.5021 9.68401L15.5001 9.68601L9.30212 15.186L9.29712 15.192C8.49712 15.991 7.37112 16.457 6.17512 16.457C5.58808 16.4607 5.00612 16.3481 4.46286 16.1256C3.9196 15.9031 3.4258 15.5752 3.01 15.1608C2.59419 14.7463 2.26461 14.2537 2.0403 13.7111C1.81599 13.1686 1.70139 12.5871 1.70312 12C1.70312 9.54701 3.70312 7.55301 6.17512 7.55301C7.38012 7.55301 8.49512 8.01501 9.34112 8.85301L9.34912 8.85901L10.2361 9.63701L9.34912 10.43L8.53512 9.72001C8.22716 9.40639 7.85993 9.15709 7.45479 8.98662C7.04965 8.81615 6.61466 8.72791 6.17512 8.72701C4.36912 8.72701 2.88512 10.191 2.88512 12C2.88512 13.809 4.36912 15.273 6.17512 15.273C6.6063 15.2745 7.03352 15.1908 7.43219 15.0265C7.83087 14.8623 8.19313 14.6208 8.49812 14.316L14.6971 8.81401L14.7031 8.80901C15.5031 8.00901 16.6301 7.54301 17.8241 7.54301Z" fill="#F87171"/>
</svg>
