<svg width="24" height="25" viewBox="0 0 24 25" fill="none" xmlns="http://www.w3.org/2000/svg">
<path d="M9.17254 20.6428H4.24397C4.01713 20.6428 3.83325 20.8347 3.83325 21.0714C3.83325 21.3081 4.01713 21.5 4.24397 21.5H9.17254C9.39937 21.5 9.58325 21.3081 9.58325 21.0714C9.58325 20.8347 9.39937 20.6428 9.17254 20.6428Z" fill="#F87171"/>
<path d="M9.17247 18.9285H7.52961C7.30278 18.9285 7.1189 19.1203 7.1189 19.357C7.1189 19.5937 7.30278 19.7856 7.52961 19.7856H9.17247C9.3993 19.7856 9.58318 19.5937 9.58318 19.357C9.58318 19.1203 9.3993 18.9285 9.17247 18.9285Z" fill="#FBBF24"/>
<path d="M5.88682 18.9285H4.24397C4.01713 18.9285 3.83325 19.1203 3.83325 19.357C3.83325 19.5937 4.01713 19.7856 4.24397 19.7856H5.88682C6.11365 19.7856 6.29754 19.5937 6.29754 19.357C6.29754 19.1203 6.11365 18.9285 5.88682 18.9285Z" fill="#2DD4BF"/>
<path d="M9.17254 17.2142H4.24397C4.01713 17.2142 3.83325 17.4061 3.83325 17.6428C3.83325 17.8795 4.01713 18.0714 4.24397 18.0714H9.17254C9.39937 18.0714 9.58325 17.8795 9.58325 17.6428C9.58325 17.4061 9.39937 17.2142 9.17254 17.2142Z" fill="#C084FC"/>
<path d="M14.1012 15.5H6.70832C6.48149 15.5 6.29761 15.6919 6.29761 15.9286C6.29761 16.1653 6.48149 16.3571 6.70832 16.3571H14.1012C14.328 16.3571 14.5119 16.1653 14.5119 15.9286C14.5119 15.6919 14.328 15.5 14.1012 15.5Z" fill="#FBBF24"/>
<path d="M5.06539 15.5H4.24397C4.01713 15.5 3.83325 15.6919 3.83325 15.9286C3.83325 16.1653 4.01713 16.3571 4.24397 16.3571H5.06539C5.29223 16.3571 5.47611 16.1653 5.47611 15.9286C5.47611 15.6919 5.29223 15.5 5.06539 15.5Z" fill="#C084FC"/>
<path d="M16.5654 13.7856H14.1011C13.8743 13.7856 13.6904 13.9775 13.6904 14.2142C13.6904 14.4509 13.8743 14.6428 14.1011 14.6428H16.5654C16.7923 14.6428 16.9761 14.4509 16.9761 14.2142C16.9761 13.9775 16.7923 13.7856 16.5654 13.7856Z" fill="#C084FC"/>
<path d="M12.4581 13.7856H9.17243C8.9456 13.7856 8.76172 13.9775 8.76172 14.2142C8.76172 14.4509 8.9456 14.6428 9.17243 14.6428H12.4581C12.685 14.6428 12.8689 14.4509 12.8689 14.2142C12.8689 13.9775 12.685 13.7856 12.4581 13.7856Z" fill="#F87171"/>
<path d="M7.52968 13.7856H4.24397C4.01713 13.7856 3.83325 13.9775 3.83325 14.2142C3.83325 14.4509 4.01713 14.6428 4.24397 14.6428H7.52968C7.75651 14.6428 7.94039 14.4509 7.94039 14.2142C7.94039 13.9775 7.75651 13.7856 7.52968 13.7856Z" fill="#2DD4BF"/>
<path d="M17.3869 12.0714H10.8155C10.5887 12.0714 10.4048 12.2633 10.4048 12.5C10.4048 12.7367 10.5887 12.9286 10.8155 12.9286H17.3869C17.6138 12.9286 17.7976 12.7367 17.7976 12.5C17.7976 12.2633 17.6138 12.0714 17.3869 12.0714Z" fill="#2DD4BF"/>
<path d="M9.17261 12.0714H6.70832C6.48149 12.0714 6.29761 12.2633 6.29761 12.5C6.29761 12.7367 6.48149 12.9286 6.70832 12.9286H9.17261C9.39944 12.9286 9.58332 12.7367 9.58332 12.5C9.58332 12.2633 9.39944 12.0714 9.17261 12.0714Z" fill="#FBBF24"/>
<path d="M5.06539 12.0714H4.24397C4.01713 12.0714 3.83325 12.2633 3.83325 12.5C3.83325 12.7367 4.01713 12.9286 4.24397 12.9286H5.06539C5.29223 12.9286 5.47611 12.7367 5.47611 12.5C5.47611 12.2633 5.29223 12.0714 5.06539 12.0714Z" fill="#F87171"/>
<path d="M18.2083 10.3571H14.1011C13.8743 10.3571 13.6904 10.5489 13.6904 10.7856C13.6904 11.0223 13.8743 11.2142 14.1011 11.2142H18.2083C18.4351 11.2142 18.619 11.0223 18.619 10.7856C18.619 10.5489 18.4351 10.3571 18.2083 10.3571Z" fill="#FBBF24"/>
<path d="M7.52968 10.3572H4.24397C4.01713 10.3572 3.83325 10.5491 3.83325 10.7857C3.83325 11.0224 4.01713 11.2143 4.24397 11.2143H7.52968C7.75651 11.2143 7.94039 11.0224 7.94039 10.7857C7.94039 10.5491 7.75651 10.3572 7.52968 10.3572Z" fill="#C084FC"/>
<path d="M18.2083 8.64282H14.1011C13.8743 8.64282 13.6904 8.8347 13.6904 9.07139C13.6904 9.30809 13.8743 9.49997 14.1011 9.49997H18.2083C18.4351 9.49997 18.619 9.30809 18.619 9.07139C18.619 8.8347 18.4351 8.64282 18.2083 8.64282Z" fill="#F87171"/>
<path d="M7.52968 8.64282H4.24397C4.01713 8.64282 3.83325 8.8347 3.83325 9.07139C3.83325 9.30809 4.01713 9.49997 4.24397 9.49997H7.52968C7.75651 9.49997 7.94039 9.30809 7.94039 9.07139C7.94039 8.8347 7.75651 8.64282 7.52968 8.64282Z" fill="#FBBF24"/>
<path d="M17.3869 6.92859H16.5655C16.3387 6.92859 16.1548 7.12047 16.1548 7.35716C16.1548 7.59385 16.3387 7.78573 16.5655 7.78573H17.3869C17.6138 7.78573 17.7976 7.59385 17.7976 7.35716C17.7976 7.12047 17.6138 6.92859 17.3869 6.92859Z" fill="#2DD4BF"/>
<path d="M14.9225 6.92859H11.6368C11.41 6.92859 11.2261 7.12047 11.2261 7.35716C11.2261 7.59385 11.41 7.78573 11.6368 7.78573H14.9225C15.1493 7.78573 15.3332 7.59385 15.3332 7.35716C15.3332 7.12047 15.1493 6.92859 14.9225 6.92859Z" fill="#C084FC"/>
<path d="M9.99397 6.92859H4.24397C4.01713 6.92859 3.83325 7.12047 3.83325 7.35716C3.83325 7.59385 4.01713 7.78573 4.24397 7.78573H9.99397C10.2208 7.78573 10.4047 7.59385 10.4047 7.35716C10.4047 7.12047 10.2208 6.92859 9.99397 6.92859Z" fill="#2DD4BF"/>
<path d="M16.5654 5.21423H8.35114C8.12431 5.21423 7.94043 5.40611 7.94043 5.6428C7.94043 5.8795 8.12431 6.07138 8.35114 6.07138H16.5654C16.7923 6.07138 16.9761 5.8795 16.9761 5.6428C16.9761 5.40611 16.7923 5.21423 16.5654 5.21423Z" fill="#FBBF24"/>
<path d="M6.70825 5.21423H4.24397C4.01713 5.21423 3.83325 5.40611 3.83325 5.6428C3.83325 5.8795 4.01713 6.07138 4.24397 6.07138H6.70825C6.93508 6.07138 7.11897 5.8795 7.11897 5.6428C7.11897 5.40611 6.93508 5.21423 6.70825 5.21423Z" fill="#F87171"/>
<path d="M14.1011 3.5H4.24397C4.01713 3.5 3.83325 3.69188 3.83325 3.92857C3.83325 4.16526 4.01713 4.35714 4.24397 4.35714H14.1011C14.3279 4.35714 14.5118 4.16526 14.5118 3.92857C14.5118 3.69188 14.3279 3.5 14.1011 3.5Z" fill="#2DD4BF"/>
</svg>
