<svg width="24" height="24" viewBox="0 0 24 24" fill="none" xmlns="http://www.w3.org/2000/svg">
<path d="M11.9999 15.385C12.4697 16.0958 13.1098 16.6777 13.8619 17.078L11.9999 18.94L10.1379 17.078C10.8917 16.6801 11.5323 16.0976 11.9999 15.385ZM16.2319 11.322C15.7829 11.322 15.3523 11.5004 15.0348 11.8179C14.7173 12.1354 14.5389 12.566 14.5389 13.015C14.5389 13.464 14.7173 13.8947 15.0348 14.2122C15.3523 14.5297 15.7829 14.708 16.2319 14.708C16.4542 14.708 16.6744 14.6642 16.8798 14.5792C17.0852 14.4941 17.2718 14.3694 17.4291 14.2122C17.5863 14.0549 17.711 13.8683 17.796 13.6629C17.8811 13.4575 17.9249 13.2374 17.9249 13.015C17.9249 12.075 17.1629 11.322 16.2319 11.322ZM7.76792 11.322C7.31891 11.322 6.88829 11.5004 6.57079 11.8179C6.25329 12.1354 6.07492 12.566 6.07492 13.015C6.07492 13.464 6.25329 13.8947 6.57079 14.2122C6.88829 14.5297 7.31891 14.708 7.76792 14.708C8.21693 14.708 8.64755 14.5297 8.96505 14.2122C9.28255 13.8947 9.46092 13.464 9.46092 13.015C9.46092 12.075 8.69892 11.322 7.76792 11.322ZM16.2319 9.20603C16.6765 9.20603 17.1168 9.29361 17.5275 9.46379C17.9383 9.63396 18.3115 9.88339 18.6258 10.1978C18.9402 10.5123 19.1895 10.8855 19.3595 11.2963C19.5296 11.7071 19.6171 12.1474 19.6169 12.592C19.6169 13.0366 19.5294 13.4767 19.3593 13.8874C19.1891 14.2981 18.9398 14.6713 18.6255 14.9856C18.3111 15.2999 17.938 15.5492 17.5273 15.7194C17.1166 15.8895 16.6764 15.977 16.2319 15.977C15.7873 15.9772 15.347 15.8897 14.9362 15.7196C14.5254 15.5496 14.1521 15.3003 13.8377 14.9859C13.5233 14.6716 13.2739 14.2984 13.1037 13.8876C12.9335 13.4769 12.8459 13.0366 12.8459 12.592C12.8458 12.1473 12.9333 11.707 13.1034 11.2961C13.2735 10.8852 13.5229 10.5119 13.8374 10.1975C14.1518 9.88302 14.5251 9.63362 14.936 9.4635C15.3469 9.29339 15.7872 9.20589 16.2319 9.20603ZM7.76792 9.20603C8.21261 9.20589 8.65297 9.29339 9.06384 9.4635C9.47471 9.63362 9.84803 9.88302 10.1625 10.1975C10.4769 10.5119 10.7263 10.8852 10.8964 11.2961C11.0666 11.707 11.154 12.1473 11.1539 12.592C11.1539 13.0366 11.0663 13.4769 10.8962 13.8876C10.726 14.2984 10.4766 14.6716 10.1621 14.9859C9.84769 15.3003 9.47441 15.5496 9.06361 15.7196C8.65281 15.8897 8.21253 15.9772 7.76792 15.977C6.87016 15.977 6.00917 15.6204 5.37436 14.9856C4.73955 14.3508 4.38292 13.4898 4.38292 12.592C4.38279 12.1474 4.47025 11.7071 4.6403 11.2963C4.81035 10.8855 5.05967 10.5123 5.37401 10.1978C5.68835 9.88339 6.06155 9.63396 6.4723 9.46379C6.88306 9.29361 7.32331 9.20603 7.76792 9.20603ZM3.73992 2.69003C5.22992 5.82203 4.15492 8.15803 3.15592 10.477C2.85116 11.1409 2.69259 11.8625 2.69092 12.593C2.69092 13.9398 3.22592 15.2314 4.17823 16.1837C5.13054 17.136 6.42215 17.671 7.76892 17.671C7.94715 17.6655 8.12502 17.6515 8.30192 17.629L10.8079 20.134L11.9999 21.31L13.1939 20.133L15.6989 17.628C15.8769 17.653 16.0539 17.662 16.2319 17.67C17.5787 17.67 18.8703 17.135 19.8226 16.1827C20.7749 15.2304 21.3099 13.9388 21.3099 12.592C21.3082 11.8615 21.1497 11.1399 20.8449 10.476C19.8459 8.15703 18.7709 5.82103 20.2609 2.68903C18.0259 4.43303 14.8439 5.81203 12.0009 5.82103C9.15592 5.81303 5.97392 4.43303 3.73992 2.68903V2.69003Z" fill="#EF5350"/>
</svg>
