<svg width="24" height="25" viewBox="0 0 24 25" fill="none" xmlns="http://www.w3.org/2000/svg">
<path fill-rule="evenodd" clip-rule="evenodd" d="M10.4048 8.24833C10.819 8.96576 10.5732 9.88315 9.85575 10.2974L3.79357 13.7974C3.07613 14.2116 2.15874 13.9658 1.74453 13.2483C1.33032 12.5309 1.57613 11.6135 2.29357 11.1993L8.35575 7.69929C9.07319 7.28507 9.99057 7.53089 10.4048 8.24833Z" fill="#F87171"/>
<path fill-rule="evenodd" clip-rule="evenodd" d="M1.74463 11.7516C2.15884 11.0342 3.07623 10.7884 3.79367 11.2026L9.85584 14.7026C10.5733 15.1168 10.8191 16.0342 10.4049 16.7516C9.99067 17.4691 9.07328 17.7149 8.35584 17.3007L2.29367 13.8007C1.57623 13.3864 1.33042 12.4691 1.74463 11.7516Z" fill="#2563EB"/>
<path fill-rule="evenodd" clip-rule="evenodd" d="M22.2551 11.7516C21.8409 11.0342 20.9235 10.7884 20.2061 11.2026L14.1439 14.7026C13.4265 15.1168 13.1807 16.0342 13.5949 16.7516C14.0091 17.4691 14.9265 17.7149 15.6439 17.3007L21.7061 13.8007C22.4235 13.3864 22.6693 12.4691 22.2551 11.7516Z" fill="#F59E0B"/>
<path fill-rule="evenodd" clip-rule="evenodd" d="M13.5947 8.24833C13.1805 8.96576 13.4263 9.88315 14.1438 10.2974L20.2059 13.7974C20.9234 14.2116 21.8408 13.9658 22.255 13.2483C22.6692 12.5309 22.4234 11.6135 21.7059 11.1993L15.6438 7.69929C14.9263 7.28507 14.0089 7.53089 13.5947 8.24833Z" fill="#2DD4BF"/>
</svg>
