<svg width="24" height="24" viewBox="0 0 24 24" fill="none" xmlns="http://www.w3.org/2000/svg">
<g clip-path="url(#clip0_808_2618)">
<mask id="mask0_808_2618" style="mask-type:luminance" maskUnits="userSpaceOnUse" x="0" y="1" width="25" height="23">
<path d="M0.702637 1.15668H24.2416V23.9143H0.702637V1.15668Z" fill="white"/>
</mask>
<g mask="url(#mask0_808_2618)">
<path d="M22.4738 12.0001C22.4738 17.7851 17.7851 22.4741 11.9997 22.4741C6.21436 22.4741 1.52637 17.7848 1.52637 12.0001C1.52637 6.21535 6.21436 1.52634 11.9997 1.52634C17.7848 1.52634 22.4738 6.21535 22.4738 12.0001Z" fill="#E53935"/>
<path d="M17.4066 6.94853L13.8445 6.91597L11.7616 4.8331L9.31653 6.45714L9.73873 6.87867L8.7485 6.86985L5.3868 12.5271H4.06763L4.89508 13.3545L4.06152 14.7574L11.7758 22.4714C11.8504 22.4728 11.925 22.4741 11.9996 22.4741C17.7789 22.4741 22.4642 17.7922 22.4734 12.0153L17.4062 6.94819" fill="#D51C2F"/>
<path d="M6.83969 12.7651C6.83969 9.91517 9.15011 7.60577 12.0001 7.60577C14.8497 7.60577 17.1594 9.91517 17.1594 12.7655L6.83969 12.7651ZM18.4396 13.0032V12.5271H19.9321C19.8769 10.5872 19.11 8.73535 17.7777 7.3243L16.6623 8.44L16.3259 8.10258L17.4406 6.98721C16.0298 5.65487 14.1782 4.88814 12.2385 4.83312L12.2378 6.32525H11.7617V4.83312C9.82201 4.8882 7.97038 5.65492 6.55958 6.98721L7.6746 8.10292L7.33718 8.43898L6.22215 7.3243C4.88983 8.73538 4.12301 10.5872 4.06772 12.5271H5.55985V13.0025H4.06128V14.7493H19.9385V13.0029L18.4396 13.0032Z" fill="#F5F5F5"/>
</g>
</g>
<defs>
<clipPath id="clip0_808_2618">
<rect width="24" height="24" fill="white"/>
</clipPath>
</defs>
</svg>
