<svg width="24" height="25" viewBox="0 0 24 25" fill="none" xmlns="http://www.w3.org/2000/svg">
<path fill-rule="evenodd" clip-rule="evenodd" d="M17.9472 9.71724C17.9476 9.86974 17.948 10.0267 17.9551 10.1881C17.966 10.3871 18.0047 10.5924 18.0444 10.8032C18.1137 11.1708 18.1862 11.5551 18.1196 11.952C18.0623 12.3411 18.0221 12.7302 17.9826 13.1124C17.9397 13.5275 17.8977 13.9346 17.8354 14.3247C17.7906 14.6284 17.582 14.905 17.3749 15.1795C17.1668 15.4552 16.9603 15.7289 16.9229 16.0262C16.7284 17.6184 15.2025 18.352 11.6123 18.352V18.4769H11.5973V18.352C8.00702 18.352 6.42132 17.6184 6.21189 16.0262C6.17473 15.7392 5.95666 15.4677 5.7356 15.1925C5.51168 14.9137 5.28469 14.631 5.23952 14.3247C5.17721 13.9346 5.13518 13.5275 5.0923 13.1124C5.05284 12.7301 5.01266 12.3411 4.95529 11.952C4.88886 11.5559 4.96089 11.1786 5.03008 10.8162C5.06997 10.6074 5.10891 10.4034 5.11985 10.2037C5.128 10.0788 5.13369 9.9571 5.13924 9.83828C5.16423 9.30328 5.18646 8.8272 5.41903 8.39292C6.13709 7.0973 8.02198 6.34802 11.6123 6.34802C15.2025 6.34802 16.9977 7.0973 17.7157 8.37731C17.9446 8.77145 17.9459 9.22043 17.9472 9.71724ZM11.9238 12.0697C11.9878 12.0525 12.0146 11.9371 11.9837 11.8118C11.9528 11.6866 11.8758 11.5991 11.8118 11.6163C11.7478 11.6335 11.721 11.749 11.7519 11.8742C11.7829 11.9994 11.8598 12.087 11.9238 12.0697ZM11.8157 12.3524C11.697 12.3771 11.6122 12.3948 11.6122 12.4203C11.6206 12.4553 11.6243 12.5101 11.6286 12.5735L11.6286 12.5735C11.6319 12.623 11.6356 12.6777 11.6422 12.7325C11.6422 12.7996 11.643 12.8902 11.6441 12.9935V12.9935V12.9935V12.9935C11.6477 13.3685 11.653 13.9114 11.6236 14.1066C12.2823 14.1306 13.2728 15.0424 13.2728 16.1823V16.2447C13.2578 15.1364 12.0012 14.231 11.5973 14.231C11.1934 14.231 9.93682 15.1364 9.92186 16.2447V16.1823C9.92186 15.062 10.905 14.1379 11.5637 14.107C11.5225 13.8719 11.5225 13.077 11.5225 12.7325C11.5225 12.6664 11.528 12.5833 11.5323 12.5175V12.5175L11.5323 12.5175C11.5351 12.4744 11.5374 12.4388 11.5374 12.4203C11.5374 12.3804 10.931 12.2163 10.7501 12.1682C10.9013 12.2073 11.3461 12.3158 11.4327 12.2642C11.5225 12.2017 11.5674 12.0144 11.5674 12.0144C11.5674 12.0144 11.5973 12.2017 11.717 12.2642C11.8366 12.3422 12.3901 12.1549 12.3901 12.1549C12.2308 12.2658 11.9877 12.3165 11.8157 12.3524L11.8157 12.3524ZM10.6997 12.1549C10.6997 12.1549 10.7185 12.16 10.7501 12.1682L10.6997 12.1549ZM11.3357 11.8808C11.299 12.0043 11.218 12.0879 11.1549 12.0674C11.0918 12.047 11.0704 11.9303 11.1071 11.8068C11.1438 11.6833 11.2248 11.5997 11.2879 11.6202C11.351 11.6406 11.3724 11.7573 11.3357 11.8808ZM10.1612 13.2476C10.1612 13.3165 10.1076 13.3724 10.0415 13.3724C9.97541 13.3724 9.92183 13.3165 9.92183 13.2476C9.92183 13.1786 9.97541 13.1227 10.0415 13.1227C10.1076 13.1227 10.1612 13.1786 10.1612 13.2476ZM9.47306 13.9969C9.47306 14.0659 9.41948 14.1218 9.35338 14.1218C9.28729 14.1218 9.23371 14.0659 9.23371 13.9969C9.23371 13.9279 9.28729 13.872 9.35338 13.872C9.41948 13.872 9.47306 13.9279 9.47306 13.9969ZM9.12898 13.3725C9.19507 13.3725 9.24865 13.3166 9.24865 13.2476C9.24865 13.1787 9.19507 13.1227 9.12898 13.1227C9.06288 13.1227 9.0093 13.1787 9.0093 13.2476C9.0093 13.3166 9.06288 13.3725 9.12898 13.3725ZM13.0783 13.2476C13.0783 13.3166 13.0247 13.3725 12.9586 13.3725C12.8925 13.3725 12.8389 13.3166 12.8389 13.2476C12.8389 13.1787 12.8925 13.1227 12.9586 13.1227C13.0247 13.1227 13.0783 13.1787 13.0783 13.2476ZM13.6467 14.1218C13.7128 14.1218 13.7664 14.0659 13.7664 13.9969C13.7664 13.9279 13.7128 13.872 13.6467 13.872C13.5806 13.872 13.527 13.9279 13.527 13.9969C13.527 14.0659 13.5806 14.1218 13.6467 14.1218ZM13.9908 13.2476C13.9908 13.3165 13.9372 13.3724 13.8711 13.3724C13.805 13.3724 13.7515 13.3165 13.7515 13.2476C13.7515 13.1786 13.805 13.1227 13.8711 13.1227C13.9372 13.1227 13.9908 13.1786 13.9908 13.2476Z" fill="#FED7AA"/>
<path fill-rule="evenodd" clip-rule="evenodd" d="M17.0128 11.312C17.0128 12.0707 16.4234 12.6857 15.6963 12.6857C14.9693 12.6857 14.3799 12.0707 14.3799 11.312C14.3799 10.5534 14.9693 9.93835 15.6963 9.93835C16.4234 9.93835 17.0128 10.5534 17.0128 11.312ZM15.6963 10.7032C15.6963 10.9015 15.5423 11.0622 15.3522 11.0622C15.1622 11.0622 15.0082 10.9015 15.0082 10.7032C15.0082 10.5049 15.1622 10.3442 15.3522 10.3442C15.5423 10.3442 15.6963 10.5049 15.6963 10.7032Z" fill="#18181B"/>
<path d="M13.6917 11.2495C13.6917 11.2495 14.8735 12.0924 15.5167 12.9198C16.16 13.7471 16.145 13.9032 16.145 13.9032L15.6813 14.1217C15.6813 14.1217 15.0231 12.8261 14.2153 12.3422C13.3925 11.8583 13.3027 11.4524 13.3027 11.4524L13.6917 11.2495Z" fill="#FED7AA"/>
<path fill-rule="evenodd" clip-rule="evenodd" d="M8.77007 11.312C8.77007 12.0707 8.18069 12.6857 7.45364 12.6857C6.72659 12.6857 6.13721 12.0707 6.13721 11.312C6.13721 10.5534 6.72659 9.93835 7.45364 9.93835C8.18069 9.93835 8.77007 10.5534 8.77007 11.312ZM8.14179 10.7032C8.14179 10.9015 7.98775 11.0622 7.79773 11.0622C7.6077 11.0622 7.45366 10.9015 7.45366 10.7032C7.45366 10.5049 7.6077 10.3442 7.79773 10.3442C7.98775 10.3442 8.14179 10.5049 8.14179 10.7032Z" fill="#18181B"/>
<path d="M9.36842 11.2495C9.36842 11.2495 8.18662 12.0924 7.54337 12.9198C6.90011 13.7471 6.91507 13.9032 6.91507 13.9032L7.37881 14.1217C7.37881 14.1217 8.03703 12.8261 8.84484 12.3422C9.65265 11.8583 9.75737 11.4524 9.75737 11.4524L9.36842 11.2495Z" fill="#FED7AA"/>
<path d="M15.2623 6.7538C15.2623 6.7538 16.9976 8.26796 17.5062 10.0163C18.0148 11.7646 17.8054 13.8875 18.1943 14.1529C18.7478 14.5275 19.3761 12.2953 19.5856 12.0612C19.9147 11.6865 21.0067 10.7343 21.0815 10.5626C21.1563 10.3909 18.8675 7.78405 17.8652 7.26893C16.6535 6.67575 15.1576 6.62892 15.2623 6.7538Z" fill="#713F12"/>
<path d="M7.73777 6.7538C7.73777 6.7538 6.00247 8.26796 5.49385 10.0163C4.98523 11.7646 5.19466 13.8875 4.80572 14.1529C4.25222 14.5275 3.62392 12.2953 3.41449 12.0612C3.08538 11.6865 1.99334 10.7343 1.91854 10.5626C1.84374 10.3909 4.13254 7.78405 5.13482 7.26893C6.34654 6.67575 7.84249 6.62892 7.73777 6.7538Z" fill="#713F12"/>
<path fill-rule="evenodd" clip-rule="evenodd" d="M15.0678 13.388C14.5547 12.73 13.8202 12.1038 12.8588 11.7999C12.758 11.4655 12.282 11.109 11.6121 11.109C10.9588 11.121 10.4899 11.4629 10.3736 11.7836C9.38615 12.0809 8.63407 12.718 8.11164 13.388C7.41717 14.2721 7.41907 14.6583 7.4229 15.4337C7.4232 15.4934 7.4235 15.5555 7.4235 15.6203C7.4235 18.1055 8.05979 18.1683 8.687 18.2301C8.88708 18.2498 9.08624 18.2694 9.26352 18.3676C9.8649 18.6814 10.4856 18.6621 11.1179 18.6425H11.1179C11.272 18.6378 11.4269 18.633 11.5822 18.633H11.5972C11.7435 18.633 11.8883 18.6366 12.0318 18.6401C12.6808 18.6562 13.3034 18.6716 13.9159 18.352C14.0937 18.2573 14.2935 18.2426 14.4941 18.2278C15.1208 18.1814 15.7559 18.1345 15.7559 15.6515L15.7581 15.5283C15.7733 14.7072 15.781 14.296 15.0678 13.388ZM11.9237 12.0697C11.9877 12.0525 12.0145 11.9371 11.9836 11.8118C11.9526 11.6866 11.8757 11.5991 11.8117 11.6163C11.7477 11.6335 11.7209 11.749 11.7518 11.8742C11.7828 11.9994 11.8597 12.087 11.9237 12.0697ZM11.8156 12.3524C11.6969 12.3771 11.6121 12.3948 11.6121 12.4203C11.6205 12.4553 11.6242 12.5101 11.6285 12.5735L11.6285 12.5735C11.6318 12.623 11.6355 12.6777 11.6421 12.7325C11.6421 12.7995 11.6429 12.8901 11.6439 12.9933L11.644 12.9935V12.9935V12.9935C11.6476 13.3685 11.6529 13.9113 11.6235 14.1066C12.2822 14.1306 13.2727 15.0424 13.2727 16.1823V16.2447C13.2577 15.1364 12.0011 14.231 11.5972 14.231C11.1933 14.231 9.93672 15.1364 9.92176 16.2447V16.1823C9.92176 15.062 10.9049 14.1379 11.5636 14.107C11.5224 13.8719 11.5224 13.077 11.5224 12.7325C11.5224 12.6664 11.5278 12.5833 11.5322 12.5175V12.5175L11.5322 12.5175C11.535 12.4744 11.5373 12.4388 11.5373 12.4203C11.5373 12.3804 10.9309 12.2163 10.75 12.1682C10.9012 12.2073 11.346 12.3158 11.4326 12.2642C11.5224 12.2017 11.5673 12.0144 11.5673 12.0144C11.5673 12.0144 11.5972 12.2017 11.7169 12.2642C11.8365 12.3422 12.39 12.1549 12.39 12.1549C12.2307 12.2658 11.9876 12.3165 11.8156 12.3524ZM10.6996 12.1549C10.6996 12.1549 10.7184 12.16 10.75 12.1682L10.6996 12.1549ZM11.3356 11.8808C11.2989 12.0043 11.2179 12.0879 11.1548 12.0674C11.0917 12.047 11.0703 11.9303 11.107 11.8068C11.1437 11.6833 11.2247 11.5997 11.2878 11.6202C11.3509 11.6406 11.3723 11.7573 11.3356 11.8808ZM10.1611 13.2476C10.1611 13.3165 10.1075 13.3724 10.0414 13.3724C9.97531 13.3724 9.92173 13.3165 9.92173 13.2476C9.92173 13.1786 9.97531 13.1227 10.0414 13.1227C10.1075 13.1227 10.1611 13.1786 10.1611 13.2476ZM9.47295 13.9969C9.47295 14.0659 9.41937 14.1218 9.35327 14.1218C9.28718 14.1218 9.2336 14.0659 9.2336 13.9969C9.2336 13.9279 9.28718 13.872 9.35327 13.872C9.41937 13.872 9.47295 13.9279 9.47295 13.9969ZM9.12887 13.3725C9.19496 13.3725 9.24855 13.3166 9.24855 13.2476C9.24855 13.1787 9.19496 13.1227 9.12887 13.1227C9.06277 13.1227 9.00919 13.1787 9.00919 13.2476C9.00919 13.3166 9.06277 13.3725 9.12887 13.3725ZM13.0782 13.2476C13.0782 13.3166 13.0246 13.3725 12.9585 13.3725C12.8924 13.3725 12.8388 13.3166 12.8388 13.2476C12.8388 13.1787 12.8924 13.1227 12.9585 13.1227C13.0246 13.1227 13.0782 13.1787 13.0782 13.2476ZM13.6466 14.1218C13.7127 14.1218 13.7663 14.0659 13.7663 13.9969C13.7663 13.9279 13.7127 13.872 13.6466 13.872C13.5805 13.872 13.5269 13.9279 13.5269 13.9969C13.5269 14.0659 13.5805 14.1218 13.6466 14.1218ZM13.9907 13.2476C13.9907 13.3165 13.9371 13.3724 13.871 13.3724C13.8049 13.3724 13.7513 13.3165 13.7513 13.2476C13.7513 13.1786 13.8049 13.1227 13.871 13.1227C13.9371 13.1227 13.9907 13.1786 13.9907 13.2476Z" fill="#713F12"/>
<path d="M15.3521 11.062C15.5421 11.062 15.6962 10.9013 15.6962 10.703C15.6962 10.5047 15.5421 10.344 15.3521 10.344C15.1621 10.344 15.0081 10.5047 15.0081 10.703C15.0081 10.9013 15.1621 11.062 15.3521 11.062Z" fill="white"/>
<path d="M7.79744 11.062C7.98746 11.062 8.1415 10.9013 8.1415 10.703C8.1415 10.5047 7.98746 10.344 7.79744 10.344C7.60741 10.344 7.45337 10.5047 7.45337 10.703C7.45337 10.9013 7.60741 11.062 7.79744 11.062Z" fill="white"/>
</svg>
