<svg width="24" height="25" viewBox="0 0 24 25" fill="none" xmlns="http://www.w3.org/2000/svg">
<path fill-rule="evenodd" clip-rule="evenodd" d="M5.82 13.0967C6.49468 12.6902 6.4958 11.3742 5.8225 10.1573C5.14919 8.94048 4.05643 8.28353 3.38175 8.69001C2.70706 9.09648 2.70594 10.4125 3.37924 11.6293C4.05255 12.8462 5.14531 13.5031 5.82 13.0967ZM5.82403 15.7023C6.49734 16.9191 6.49622 18.2351 5.82153 18.6416C5.14683 19.0481 4.05408 18.3911 3.38078 17.1743C2.70747 15.9574 2.70859 14.6414 3.38328 14.2349C4.05797 13.8285 5.15073 14.4854 5.82403 15.7023ZM10.4218 18.476C11.0951 19.6929 11.094 21.0088 10.4193 21.4154C9.74462 21.8219 8.65185 21.1649 7.97855 19.948C7.30526 18.7312 7.30638 17.4152 7.98107 17.0087C8.65575 16.6022 9.74851 17.2592 10.4218 18.476ZM10.4203 12.9312C11.0936 14.148 11.0925 15.464 10.4178 15.8705C9.74312 16.277 8.65037 15.62 7.97706 14.4032C7.30376 13.1863 7.30488 11.8703 7.97956 11.4638C8.65425 11.0574 9.74702 11.7143 10.4203 12.9312Z" fill="#F87171"/>
<path fill-rule="evenodd" clip-rule="evenodd" d="M19.618 11.6323C20.2913 10.4154 20.2902 9.09941 19.6155 8.69294C18.9409 8.28646 17.8481 8.94341 17.1748 10.1603C16.5015 11.3771 16.5026 12.6931 17.1773 13.0996C17.852 13.5061 18.9448 12.8491 19.618 11.6323ZM19.6182 14.2366C20.2928 14.643 20.294 15.959 19.6207 17.1759C18.9474 18.3927 17.8546 19.0497 17.1799 18.6432C16.5053 18.2367 16.5041 16.9207 17.1774 15.7039C17.8507 14.487 18.9435 13.8301 19.6182 14.2366ZM15.0213 17.0058C15.696 17.4122 15.6971 18.7282 15.0238 19.9451C14.3505 21.1619 13.2578 21.8189 12.5831 21.4124C11.9084 21.006 11.9073 19.69 12.5806 18.4731C13.2539 17.2562 14.3466 16.5993 15.0213 17.0058ZM15.0187 11.4621C15.6934 11.8686 15.6945 13.1846 15.0212 14.4014C14.3479 15.6183 13.2552 16.2753 12.5805 15.8688C11.9058 15.4623 11.9047 14.1463 12.578 12.9295C13.2513 11.7126 14.344 11.0556 15.0187 11.4621Z" fill="#A855F7"/>
<path fill-rule="evenodd" clip-rule="evenodd" d="M13.9362 3.97199C13.9362 4.78494 12.8446 5.44398 11.498 5.44398C10.1514 5.44398 9.05972 4.78494 9.05972 3.97199C9.05972 3.15903 10.1514 2.5 11.498 2.5C12.8446 2.5 13.9362 3.15903 13.9362 3.97199ZM9.33938 6.73836C9.33938 7.55132 8.24774 8.21035 6.90113 8.21035C5.55453 8.21035 4.46289 7.55132 4.46289 6.73836C4.46289 5.92541 5.55453 5.26637 6.90113 5.26637C8.24774 5.26637 9.33938 5.92541 9.33938 6.73836ZM16.1008 8.21035C17.4474 8.21035 18.539 7.55132 18.539 6.73836C18.539 5.92541 17.4474 5.26637 16.1008 5.26637C14.7542 5.26637 13.6625 5.92541 13.6625 6.73836C13.6625 7.55132 14.7542 8.21035 16.1008 8.21035ZM13.9362 9.51095C13.9362 10.3239 12.8446 10.9829 11.498 10.9829C10.1514 10.9829 9.05972 10.3239 9.05972 9.51095C9.05972 8.69799 10.1514 8.03896 11.498 8.03896C12.8446 8.03896 13.9362 8.69799 13.9362 9.51095Z" fill="#F59E0B"/>
</svg>
