<svg width="24" height="24" viewBox="0 0 24 24" fill="none" xmlns="http://www.w3.org/2000/svg">
<path d="M23.5852 9.22754L19.0592 4.69922L17.8386 5.92034L21.7537 9.83762L17.8386 13.7544L19.0592 14.9753L23.5852 10.4487C23.6656 10.3684 23.7295 10.273 23.7729 10.168C23.8164 10.0629 23.8386 9.95033 23.8384 9.83666C23.8384 9.72341 23.8161 9.61126 23.7726 9.50668C23.7292 9.4021 23.6655 9.30739 23.5852 9.22754ZM6.16212 10.2466L4.94076 9.02522L0.413399 13.5523C0.333089 13.6324 0.269496 13.7276 0.226317 13.8325C0.183138 13.9373 0.161234 14.0497 0.161879 14.1631C0.161879 14.3938 0.250919 14.6105 0.413399 14.7732L4.94076 19.3008L6.16212 18.0799L2.24508 14.1631L6.16212 10.2466Z" fill="#60A5FA"/>
<path d="M16.9777 8.53073L15.1301 6.80609H7.01318L8.86079 8.53073H16.9777ZM15.1301 12.858L16.9777 11.1305H8.86079L7.01318 12.858H15.1301ZM16.9777 17.1825L15.1301 15.455H7.01318L8.86079 17.1825H16.9777Z" fill="#60A5FA"/>
</svg>
