<svg width="24" height="25" viewBox="0 0 24 25" fill="none" xmlns="http://www.w3.org/2000/svg">
<path fill-rule="evenodd" clip-rule="evenodd" d="M14.6215 21.8218C14.0211 21.9327 13.3383 21.9964 12.6232 21.9998C11.9079 22.0033 11.1625 21.9472 10.444 21.8224C9.30833 21.6238 8.35205 20.736 8.35205 19.5532V15.3974C8.35205 14.1794 9.28103 13.1803 10.444 13.1803H14.6217C16.0402 13.1803 17.2347 11.909 17.2347 10.4683V8.47424H18.6728C19.8884 8.47424 20.5985 9.39429 20.8958 10.6865C21.2969 12.4217 21.2799 13.4603 20.8958 15.1223C20.5636 16.572 19.4984 17.3345 18.2828 17.3345H16.7135H12.5311V17.8889H16.7135V19.5526C16.7135 20.8125 16.3921 21.4954 14.6215 21.8218ZM14.4459 18.9845C13.9138 18.9845 13.4824 19.4346 13.4824 19.9899C13.4824 20.5451 13.9138 20.9953 14.4459 20.9953C14.978 20.9953 15.4094 20.5451 15.4094 19.9899C15.4094 19.4346 14.978 18.9845 14.4459 18.9845Z" fill="#14B8A6"/>
<path fill-rule="evenodd" clip-rule="evenodd" d="M9.37835 3.17823C9.9788 3.06725 10.6616 3.00361 11.3767 3.00015C12.092 2.99673 12.8373 3.05277 13.5559 3.17758C14.6916 3.37617 15.6478 4.26399 15.6478 5.44677V9.60261C15.6478 10.8205 14.7189 11.8197 13.5559 11.8197H9.3782C7.95969 11.8197 6.7652 13.091 6.7652 14.5317V16.5257H5.32703C4.11148 16.5257 3.40137 15.6057 3.10404 14.3135C2.70296 12.5783 2.71996 11.5397 3.10404 9.87771C3.43632 8.42797 4.50148 7.66549 5.71703 7.66549H7.28639H11.4688V7.11106H7.28639V5.44742C7.28639 4.18748 7.60775 3.50461 9.37835 3.17823ZM9.55398 6.01616C10.0861 6.01616 10.5175 5.56603 10.5175 5.01077C10.5175 4.45551 10.0861 4.00539 9.55398 4.00539C9.02186 4.00539 8.59049 4.45551 8.59049 5.01077C8.59049 5.56603 9.02186 6.01616 9.55398 6.01616Z" fill="#14B8A6"/>
</svg>
