<svg width="24" height="24" viewBox="0 0 24 24" fill="none" xmlns="http://www.w3.org/2000/svg">
<path d="M11.9379 16.414C12.8379 15.313 13.4059 13.478 13.4059 11.679C13.4059 9.71599 12.7089 7.82499 11.5339 6.55899C10.3779 5.31099 8.87395 4.70599 6.96395 4.70599C5.05395 4.70599 3.55095 5.31099 2.39495 6.55899C1.21995 7.82499 0.522949 9.71599 0.522949 11.716C0.522949 13.716 1.21995 15.606 2.39495 16.873C3.55095 18.121 5.07495 18.726 6.96495 18.726C8.34095 18.726 9.36895 18.451 10.4329 17.809L11.6464 18.9517C11.8476 19.1412 12.1645 19.1314 12.3537 18.9299L13.0658 18.1713C13.254 17.9709 13.245 17.6561 13.0457 17.4667L11.9379 16.414ZM8.90763 13.5495C8.70666 13.358 8.38818 13.3668 8.19819 13.5692L7.48745 14.3263C7.29912 14.5269 7.30827 14.842 7.50792 15.0313L8.55995 16.029C8.13795 16.249 7.53295 16.377 6.94495 16.377C4.74295 16.377 3.27495 14.524 3.27495 11.717C3.27495 8.90799 4.74295 7.05499 6.96395 7.05499C9.20295 7.05499 10.6529 8.88999 10.6529 11.735C10.6529 12.835 10.4509 13.827 10.0469 14.635L8.90763 13.5495Z" fill="#FBBF24"/>
<path d="M18.0185 4.72803C17.7715 4.72803 17.5615 4.90837 17.5242 5.15253L16.978 8.72803H15.9002C15.6564 8.72803 15.4481 8.90387 15.4073 9.14423L15.2373 10.1442C15.1854 10.4495 15.4206 10.728 15.7302 10.728H16.638L16.318 12.728H15.2402C14.9964 12.728 14.7881 12.9039 14.7473 13.1442L14.5773 14.1442C14.5254 14.4495 14.7606 14.728 15.0702 14.728H15.978L15.4558 18.1526C15.4096 18.4553 15.6439 18.728 15.9501 18.728H16.9385C17.1855 18.728 17.3955 18.5476 17.4328 18.3034L17.978 14.728H18.978L18.4558 18.1526C18.4096 18.4553 18.6439 18.728 18.9501 18.728H19.9385C20.1855 18.728 20.3955 18.5476 20.4328 18.3034L20.978 14.728H22.0559C22.2997 14.728 22.5079 14.5522 22.5488 14.3118L22.7188 13.3118C22.7707 13.0066 22.5355 12.728 22.2259 12.728H21.318L21.638 10.728H22.7159C22.9597 10.728 23.1679 10.5522 23.2088 10.3118L23.3788 9.31183C23.4307 9.00658 23.1955 8.72803 22.8859 8.72803H21.978L22.5011 5.30353C22.5474 5.00081 22.3131 4.72803 22.0069 4.72803H21.0185C20.7715 4.72803 20.5615 4.90837 20.5242 5.15253L19.978 8.72803H18.978L19.5011 5.30353C19.5474 5.00081 19.3131 4.72803 19.0069 4.72803H18.0185ZM18.638 10.728H19.638L19.318 12.728H18.318L18.638 10.728Z" fill="#FBBF24"/>
</svg>
