<svg width="24" height="24" viewBox="0 0 24 24" fill="none" xmlns="http://www.w3.org/2000/svg">
<path d="M13.9651 12C13.9651 12.2579 13.9143 12.5132 13.8156 12.7514C13.717 12.9896 13.5723 13.206 13.39 13.3883C13.2077 13.5706 12.9913 13.7153 12.7531 13.8139C12.5149 13.9126 12.2596 13.9634 12.0017 13.9634C11.7439 13.9634 11.4886 13.9126 11.2504 13.8139C11.0122 13.7153 10.7957 13.5706 10.6134 13.3883C10.4311 13.206 10.2865 12.9896 10.1878 12.7514C10.0891 12.5132 10.0384 12.2579 10.0384 12C10.0384 11.4793 10.2452 10.9799 10.6134 10.6117C10.9816 10.2435 11.481 10.0367 12.0017 10.0367C12.5224 10.0367 13.0218 10.2435 13.39 10.6117C13.7582 10.9799 13.9651 11.4793 13.9651 12ZM20.717 6.96761C20.2901 6.23311 19.7719 5.55562 19.1747 4.95131L16.905 6.26178C16.1975 5.65746 15.3935 5.19456 14.5352 4.88836C13.7603 5.67367 13.1447 6.55118 12.701 7.5055C15.2276 7.33355 17.8369 8.24795 20.2594 10.1406L21.6879 9.31589C21.4647 8.49528 21.1385 7.70618 20.717 6.96761ZM20.7175 17.0313C21.1402 16.2943 21.4678 15.5068 21.6926 14.6876L19.4228 13.3771C19.5925 12.4623 19.5913 11.5345 19.4274 10.6381C18.3598 10.3597 17.2921 10.2653 16.2438 10.3582C17.656 12.4603 18.1688 15.1772 17.741 18.2215L19.1694 19.0462C19.7685 18.4427 20.2887 17.7657 20.7175 17.0313ZM12.0026 22.0637C12.8522 22.0612 13.698 21.9512 14.5199 21.7362V19.1154C15.3969 18.8048 16.1998 18.34 16.8942 17.7498C16.6015 16.686 16.1494 15.7142 15.5448 14.8528C14.4304 17.1268 12.3338 18.9294 9.4835 20.081V21.7305C10.3057 21.9476 11.1522 22.0595 12.0026 22.0637ZM3.28689 17.0323C3.71381 17.7668 4.23201 18.4443 4.82913 19.0486L7.09886 17.7381C7.80631 18.3424 8.61039 18.8053 9.46863 19.1115C10.2435 18.3262 10.8591 17.4487 11.3029 16.4944C8.7763 16.6663 6.16691 15.7519 3.74445 13.8593L2.31599 14.684C2.53912 15.5046 2.86535 16.2937 3.28689 17.0323ZM3.28629 6.96858C2.86367 7.70555 2.53606 8.49306 2.31128 9.31233L4.58101 10.6228C4.41138 11.5376 4.41253 12.4654 4.57646 13.3618C5.644 13.6402 6.71171 13.7346 7.76002 13.6417C6.34781 11.5396 5.83505 8.82265 6.26287 5.77841L4.83441 4.9537C4.23531 5.55724 3.71514 6.23423 3.28629 6.96858ZM12.0012 1.93616C11.1517 1.93865 10.3059 2.04869 9.48396 2.26366V4.88452C8.60689 5.19504 7.80401 5.65991 7.10966 6.25011C7.40232 7.31385 7.85447 8.28572 8.45909 9.14711C9.5735 6.8731 11.67 5.07047 14.5203 3.91888V2.26939C13.6981 2.05232 12.8516 1.94039 12.0012 1.93616Z" fill="#60A5FA"/>
</svg>
