<svg width="24" height="24" viewBox="0 0 24 24" fill="none" xmlns="http://www.w3.org/2000/svg">
<path d="M19.2598 22.1823L15.6032 18.5463L15.5473 18.5543V18.5144L7.77096 10.8356L9.68712 8.98573L8.56139 2.52692L3.22012 9.14496C2.30996 10.0619 2.14228 11.553 2.79697 12.6533L6.13426 18.1872C6.64522 19.0404 7.57135 19.5507 8.56937 19.5427L10.2221 19.5267L19.2598 22.1823Z" fill="#60A5FA"/>
<path d="M21.2556 9.01781L20.5211 7.66231L20.1378 6.96861L19.9862 6.6975L19.9702 6.71346L17.9582 3.22899C17.4552 2.3519 16.5131 1.80967 15.4912 1.81765L13.7267 1.86549L8.46529 1.88144C7.46732 1.88941 6.55715 2.41569 6.05413 3.26887L2.85254 9.61576L8.57688 2.51135L16.0821 10.7559L14.7487 12.1035L15.5471 18.5541L15.5551 18.5381V18.5541H15.5391L15.5551 18.57L16.1778 19.176L19.2038 22.1342C19.3315 22.2538 19.5391 22.1103 19.4513 21.9588L17.583 18.283L20.8405 12.2628L20.9443 12.1432C20.9842 12.0953 21.0241 12.0475 21.0561 11.9996C21.6948 11.1305 21.7826 9.96669 21.2556 9.01781Z" fill="#B388FF"/>
<path d="M16.1058 10.7241L8.57678 2.51947L9.64663 8.94619L7.73047 10.804L15.5307 18.5462L14.8281 12.1195L16.1058 10.7241Z" fill="#ECEFF1"/>
</svg>
