<svg width="24" height="25" viewBox="0 0 24 25" fill="none" xmlns="http://www.w3.org/2000/svg">
<path fill-rule="evenodd" clip-rule="evenodd" d="M19.0284 14.5309C19.7268 13.6604 20.125 12.6564 20.125 11.5874C20.125 8.25844 16.2635 5.55981 11.5 5.55981C6.73656 5.55981 2.875 8.25844 2.875 11.5874C2.875 14.3191 5.47535 16.6264 9.04057 17.3663V15.4044C7.36108 14.6582 6.26446 13.4281 6.26446 12.0371C6.26446 9.76128 9.19957 7.91638 12.8202 7.91638C16.4408 7.91638 19.1128 9.17859 19.1128 12.0371C19.1128 12.3338 19.084 12.6133 19.0284 12.8759V14.5309Z" fill="#71717A"/>
<path fill-rule="evenodd" clip-rule="evenodd" d="M16.0105 14.8955C16.0105 14.8955 16.5325 15.0599 16.8358 15.22C16.9411 15.2756 17.1231 15.3865 17.2545 15.5321C17.3831 15.6747 17.4458 15.8191 17.4458 15.8191L19.5031 19.4386L16.178 19.4402L14.623 16.3933C14.623 16.3933 14.3046 15.8224 14.1087 15.6569C13.9453 15.5188 13.8756 15.4697 13.714 15.4697C13.6015 15.4697 12.924 15.4697 12.924 15.4697L12.9246 19.438L9.98218 19.4393V9.30249H15.8909C15.8909 9.30249 18.5821 9.35314 18.5821 12.0249C18.5821 14.6967 16.0105 14.8955 16.0105 14.8955ZM14.7307 11.5013L12.9494 11.5001L12.9485 13.2237L14.7307 13.2231C14.7307 13.2231 15.556 13.2205 15.556 12.3463C15.556 11.4546 14.7307 11.5013 14.7307 11.5013Z" fill="#2563EB"/>
</svg>
