<svg width="24" height="24" viewBox="0 0 24 24" fill="none" xmlns="http://www.w3.org/2000/svg">
<path d="M19.5126 17.8937C20.7874 16.2706 21.5477 14.2241 21.5477 12.0001C21.5477 6.72651 17.2731 2.45154 12 2.45154C10.853 2.45154 9.75323 2.65402 8.73438 3.02489C12.6106 5.0584 17.7377 11.6929 19.5126 17.8939V17.8937Z" fill="#60A5FA"/>
<path d="M10.6323 8.54239C9.14294 6.9377 7.475 5.66328 5.70855 4.81805C3.71267 6.56822 2.45215 9.13679 2.45215 12C2.45215 14.4076 3.34342 16.6066 4.81358 18.2862C6.1096 14.3919 8.54607 10.6387 10.6326 8.5422L10.6323 8.54239ZM12.3918 10.7076C10.3248 12.9355 8.26513 16.8354 7.5197 20.4335C8.85586 21.145 10.3807 21.5487 12.0002 21.5487C13.6651 21.5487 15.2301 21.1222 16.5928 20.373C15.8073 16.7434 14.3246 13.4193 12.3922 10.7075L12.3918 10.7076Z" fill="#E53935"/>
</svg>
