<svg width="24" height="25" viewBox="0 0 24 25" fill="none" xmlns="http://www.w3.org/2000/svg">
<path d="M12 15.2C12.729 15.2 13.35 14.93 13.899 14.399C14.43 13.85 14.7 13.229 14.7 12.5C14.7 11.771 14.43 11.15 13.899 10.601C13.35 10.07 12.729 9.8 12 9.8C11.271 9.8 10.65 10.07 10.101 10.601C9.57 11.15 9.3 11.771 9.3 12.5C9.3 13.229 9.57 13.85 10.101 14.399C10.65 14.93 11.271 15.2 12 15.2ZM12 3.5C14.475 3.5 16.59 4.4 18.345 6.155C20.1 7.91 21 10.025 21 12.5V13.805C21 14.705 20.685 15.47 20.1 16.1C19.47 16.703 18.75 17 17.85 17C16.77 17 15.879 16.55 15.204 15.65C14.304 16.55 13.242 17 12 17C10.767 17 9.705 16.55 8.814 15.686C7.95 14.795 7.5 13.742 7.5 12.5C7.5 11.267 7.95 10.205 8.814 9.314C9.705 8.45 10.767 8 12 8C13.242 8 14.295 8.45 15.186 9.314C16.05 10.205 16.5 11.267 16.5 12.5V13.805C16.5 14.174 16.644 14.498 16.914 14.777C17.184 15.056 17.499 15.2 17.85 15.2C18.228 15.2 18.543 15.056 18.813 14.777C19.083 14.498 19.2 14.174 19.2 13.805V12.5C19.2 10.529 18.507 8.837 17.085 7.415C15.663 5.993 13.971 5.3 12 5.3C10.029 5.3 8.337 5.993 6.915 7.415C5.493 8.837 4.8 10.529 4.8 12.5C4.8 14.471 5.493 16.163 6.915 17.585C8.337 19.007 10.029 19.7 12 19.7H16.5V21.5H12C9.525 21.5 7.41 20.6 5.655 18.845C3.9 17.09 3 14.975 3 12.5C3 10.025 3.9 7.91 5.655 6.155C7.41 4.4 9.525 3.5 12 3.5Z" fill="#14B8A6"/>
</svg>
