<svg width="24" height="24" viewBox="0 0 24 24" fill="none" xmlns="http://www.w3.org/2000/svg">
<path d="M4.49099 6.36835H2.61377V19.5089C2.61377 20.5461 3.45383 21.3861 4.49099 21.3861H17.6315V19.5089H4.49099V6.36835Z" fill="#60A5FA"/>
<path d="M19.5087 2.61389H8.24538C7.20822 2.61389 6.36816 3.45395 6.36816 4.49111V15.7544C6.36816 16.7916 7.20822 17.6317 8.24538 17.6317H19.5087C20.5459 17.6317 21.3859 16.7916 21.3859 15.7544V4.49111C21.3859 3.45395 20.5459 2.61389 19.5087 2.61389ZM13.1046 12.7218C13.6762 13.3413 14.4721 13.6632 15.5102 13.6707L16.5802 13.574C16.9266 13.5093 17.2157 13.421 17.4569 13.3169L17.7948 15.2795C17.5855 15.3921 17.2476 15.4963 16.7971 15.593C16.339 15.6981 15.8003 15.7544 15.1808 15.7544C13.403 15.7225 12.0674 15.1913 11.1738 14.1776C10.2568 13.1554 9.82225 11.8601 9.82225 10.2917C9.85416 8.43327 10.4014 7.0094 11.4639 6.01166C12.4935 5.00641 13.8123 4.49111 15.406 4.49111C16.0096 4.49111 16.5324 4.54743 16.9669 4.64411C17.4015 4.74078 17.7235 4.84497 17.9328 4.96605L17.4494 6.96904L16.6131 6.69591C16.2912 6.61519 15.9129 6.57483 15.4868 6.57483C14.5613 6.56638 13.7888 6.86486 13.1862 7.45994C12.5752 8.0475 12.2692 8.94857 12.2373 10.1472C12.2439 11.2407 12.5339 12.0939 13.1046 12.7218Z" fill="#60A5FA"/>
</svg>
