<svg width="24" height="24" viewBox="0 0 24 24" fill="none" xmlns="http://www.w3.org/2000/svg">
<path d="M12.8699 2.68701C17.7339 2.68701 20.1519 4.96701 20.1519 8.61001C20.1519 11.335 18.4499 13.112 16.1519 13.408C18.0919 13.793 19.2259 14.888 19.4359 17.051L19.4659 17.449L19.4929 17.821L19.5149 18.168L19.5309 18.43L19.5479 18.74L19.5569 18.917L19.5689 19.197L19.5789 19.462L19.5849 19.613L19.5909 19.857L19.5969 20.137L19.5989 20.271L19.6029 20.662V21.313H14.5879V21.211L14.5899 21.014L14.5929 20.821L14.6029 20.356L14.6039 20.2L14.6059 19.955V19.8L14.6039 19.635L14.6019 19.506L14.5979 19.326L14.5919 19.135L14.5839 18.931L14.5739 18.715L14.5679 18.601L14.5579 18.423L14.5449 18.237L14.5269 17.973L14.5119 17.763C14.5074 17.6996 14.5021 17.6363 14.4959 17.573L14.4829 17.452C14.3169 16.02 13.7409 15.435 12.7529 15.239L12.6699 15.224C12.6125 15.2141 12.5548 15.2054 12.4969 15.198L12.4089 15.188C12.3936 15.1863 12.3783 15.1846 12.3629 15.183L12.2729 15.176L12.1779 15.169L12.0819 15.164L11.9859 15.16L11.8869 15.158L11.7869 15.156H3.84692V11.276H11.9749C12.1079 11.276 12.2369 11.275 12.3619 11.269L12.4849 11.263L12.6049 11.256L12.7239 11.246L12.7819 11.241L12.8949 11.229C12.9699 11.219 13.0429 11.21 13.1149 11.199L13.2199 11.18C14.5389 10.946 15.1979 10.256 15.1979 8.91001C15.1979 7.40001 14.1239 6.48401 11.9759 6.48401H3.84792V2.68701H12.8699ZM9.15092 18.42C9.80992 18.42 10.0839 18.78 10.1829 19.125L10.1949 19.175L10.2059 19.224L10.2129 19.262L10.2159 19.28L10.2209 19.32L10.2249 19.357L10.2259 19.374L10.2279 19.41L10.2289 19.428V21.313H3.84792V18.42H9.15092Z" fill="#71717A"/>
</svg>
