<svg width="24" height="24" viewBox="0 0 24 24" fill="none" xmlns="http://www.w3.org/2000/svg">
<path d="M13.0609 3.72198L12.3539 3.01498C12.1664 2.8275 11.9121 2.72219 11.6469 2.72219C11.3818 2.72219 11.1274 2.8275 10.9399 3.01498L2.45392 11.5C2.26645 11.6875 2.16113 11.9418 2.16113 12.207C2.16113 12.4721 2.26645 12.7264 2.45392 12.914L5.28292 15.743C5.47045 15.9304 5.72475 16.0358 5.98992 16.0358C6.25508 16.0358 6.50939 15.9304 6.69692 15.743L15.1819 7.25698C15.3694 7.06945 15.4747 6.81514 15.4747 6.54998C15.4747 6.28481 15.3694 6.0305 15.1819 5.84298L14.4749 5.13598L15.1819 4.42898L18.0109 7.25698L10.9399 14.328L18.7179 22.107C18.9054 22.2944 19.1598 22.3998 19.4249 22.3998C19.6901 22.3998 19.9444 22.2944 20.1319 22.107L21.5459 20.692C21.7334 20.5044 21.8387 20.2501 21.8387 19.985C21.8387 19.7198 21.7334 19.4655 21.5459 19.278L15.1819 12.914L20.8389 7.25698L15.1819 1.59998L13.0609 3.72198Z" fill="#FBBF24"/>
</svg>
