<svg width="24" height="24" viewBox="0 0 24 24" fill="none" xmlns="http://www.w3.org/2000/svg">
<path d="M5.34006 2.59723C4.69056 2.59723 4.16406 3.12298 4.16406 3.77248V7.69048C4.16406 8.33923 4.69056 8.86573 5.34006 8.86573H12.0001V3.77248C12.0001 3.12298 11.4736 2.59723 10.8248 2.59723H5.34006ZM12.0001 8.86498V15.1335H18.6601C19.3096 15.1335 19.8361 14.607 19.8361 13.9582V10.0402C19.8361 9.39148 19.3096 8.86498 18.6601 8.86498H12.0001ZM12.0001 15.1335H5.34006C4.69056 15.1335 4.16406 15.66 4.16406 16.3087V20.2267C4.16406 20.8755 4.69056 21.402 5.34006 21.402H10.8248C11.4736 21.402 12.0001 20.8755 12.0001 20.2267V15.1335Z" fill="#71717A"/>
</svg>
