<svg width="24" height="25" viewBox="0 0 24 25" fill="none" xmlns="http://www.w3.org/2000/svg">
<path d="M20.8434 4.4019C20.634 4.11601 20.3814 3.86451 20.0946 3.65646C19.208 3.01086 17.9418 3.01086 15.4088 3.01086H8.5873C6.05482 3.01086 4.78858 3.01086 3.90154 3.65646C3.61512 3.86378 3.36356 4.11542 3.15634 4.4019C2.5105 5.2887 2.5105 6.55495 2.5105 9.09103V15.909C2.5105 18.4415 2.5105 19.707 3.1561 20.5947C3.36414 20.8816 3.61564 21.1342 3.90154 21.3435C4.78834 21.9894 6.05458 21.9894 8.5873 21.9894H15.4088C17.9413 21.9894 19.2068 21.9894 20.0946 21.3435C20.3807 21.1334 20.6332 20.8809 20.8434 20.5947C21.4894 19.7082 21.4894 18.4417 21.4894 15.909V9.09103C21.4885 6.55495 21.4885 5.2887 20.8434 4.4019ZM11.2998 15.9195C11.2998 16.5131 11.2998 16.8133 11.2033 17.0475C11.0737 17.36 10.8255 17.6082 10.513 17.7378C10.2786 17.8343 9.98194 17.8343 9.38482 17.8343C8.7913 17.8343 8.49106 17.8343 8.25682 17.7378C7.94441 17.6083 7.69616 17.3601 7.56658 17.0478C7.46986 16.8133 7.46986 16.5131 7.46986 15.9195V9.66054C7.46986 8.94294 7.46986 8.58414 7.6081 8.31174C7.73116 8.07134 7.9267 7.87571 8.16706 7.75254C8.43898 7.61454 8.7985 7.61454 9.51274 7.61454H11.3L11.2998 15.9195ZM15.3716 12.1959C14.926 12.1959 14.4904 12.0638 14.1198 11.8162C13.7493 11.5686 13.4605 11.2168 13.29 10.805C13.1195 10.3933 13.0748 9.94029 13.1618 9.50322C13.2487 9.06616 13.4633 8.66469 13.7784 8.34959C14.0935 8.03448 14.495 7.8199 14.932 7.73296C15.3691 7.64602 15.8221 7.69064 16.2338 7.86117C16.6455 8.03171 16.9974 8.32049 17.245 8.69102C17.4926 9.06154 17.6247 9.49716 17.6247 9.94279C17.6249 10.2385 17.5669 10.5313 17.454 10.8046C17.341 11.0778 17.1753 11.3262 16.9664 11.5354C16.7575 11.7446 16.5094 11.9106 16.2363 12.024C15.9631 12.1373 15.6704 12.1957 15.3747 12.1959H15.3716Z" fill="#F87171"/>
</svg>
