<svg width="24" height="25" viewBox="0 0 24 25" fill="none" xmlns="http://www.w3.org/2000/svg">
<path d="M8.58754 3.01062C6.05506 3.01062 4.78858 3.01086 3.90154 3.65646C3.61529 3.86382 3.3639 4.11545 3.15682 4.4019C2.51074 5.2887 2.51074 6.5547 2.51074 9.09078V15.9087C2.51074 18.4412 2.51074 19.7065 3.15634 20.5943C3.36429 20.8812 3.61571 21.1339 3.90154 21.3433C4.78834 21.9891 6.05506 21.9891 8.58754 21.9891H15.4088C17.9413 21.9891 19.2066 21.9891 20.0943 21.3433C20.3806 21.1331 20.6331 20.8805 20.8434 20.5943C21.4894 19.7077 21.4894 18.4415 21.4894 15.9087V9.09078C21.4885 6.5547 21.4885 5.2887 20.8434 4.4019C20.634 4.11601 20.3814 3.86451 20.0946 3.65646C19.2078 3.01086 17.9418 3.01062 15.4088 3.01062H8.58754ZM8.96722 4.06806H15.0291C17.2798 4.06806 18.4047 4.06782 19.1926 4.64142C19.4475 4.8263 19.6719 5.04978 19.8579 5.30382C20.431 6.09174 20.431 7.21734 20.432 9.47094V15.5288C20.432 17.7793 20.432 18.9044 19.8579 19.6923C19.6712 19.9465 19.4468 20.1707 19.1926 20.3574C18.4038 20.9312 17.2796 20.9317 15.0291 20.9317H8.96722C6.71674 20.9317 5.59186 20.9312 4.8037 20.3574C4.54968 20.1715 4.3262 19.9471 4.1413 19.6923C3.5677 18.9035 3.56818 17.7791 3.56818 15.5288V9.47094C3.56818 7.21734 3.56746 6.09174 4.1413 5.30382C4.3255 5.04923 4.54911 4.82562 4.8037 4.64142C5.59186 4.06782 6.71674 4.06806 8.96722 4.06806Z" fill="#F87171"/>
<path d="M9.51333 7.61431C8.79909 7.61431 8.43957 7.61431 8.16765 7.75207C7.92721 7.8752 7.73158 8.07083 7.60845 8.31128C7.47021 8.58368 7.46997 8.94271 7.46997 9.66031V15.919C7.46997 16.5126 7.47045 16.813 7.56717 17.0475C7.6967 17.3598 7.94486 17.608 8.25717 17.7375C8.49141 17.834 8.79189 17.834 9.38517 17.834C9.98253 17.834 10.2792 17.834 10.5137 17.7375C10.8261 17.6079 11.0742 17.3595 11.2037 17.047C11.3001 16.8128 11.3001 16.5126 11.3001 15.919V7.61407L9.51333 7.61431ZM15.3722 7.68944C14.7804 7.69808 14.2158 7.93923 13.8003 8.36079C13.3849 8.78235 13.152 9.35046 13.152 9.94232C13.152 10.5342 13.3849 11.1023 13.8003 11.5238C14.2158 11.9454 14.7804 12.1866 15.3722 12.1952H15.3751C15.9722 12.1948 16.5446 11.9573 16.9666 11.5348C17.3885 11.1124 17.6254 10.5396 17.6251 9.94256C17.6251 9.64667 17.5669 9.35368 17.4537 9.08031C17.3405 8.80693 17.1745 8.55853 16.9653 8.34929C16.7561 8.14004 16.5078 7.97405 16.2344 7.8608C15.9611 7.74754 15.6681 7.68948 15.3722 7.68944Z" fill="#F87171"/>
</svg>
