<svg width="24" height="24" viewBox="0 0 24 24" fill="none" xmlns="http://www.w3.org/2000/svg">
<path d="M21.3101 7.57322C21.2039 6.90434 20.8015 6.30634 20.2056 5.96218L13.1479 1.88722C12.8036 1.68858 12.4116 1.58362 12.0143 1.58362C11.6171 1.58362 11.2251 1.68858 10.8811 1.88706L3.82338 5.96194C3.12402 6.36594 2.6897 7.1181 2.6897 7.9253V16.0746C2.6897 16.8818 3.12402 17.634 3.82314 18.0378L10.8808 22.1126C11.2252 22.3114 11.6172 22.4163 12.0144 22.4163C12.4116 22.4163 12.8035 22.3114 13.1477 22.1127L20.2053 18.038C20.8015 17.6935 21.2041 17.0956 21.3101 16.4267V7.57322ZM19.5129 16.8386L12.4554 20.9131C12.3213 20.9905 12.1691 21.0313 12.0143 21.0313C11.8594 21.0313 11.7072 20.9905 11.5731 20.9131L4.51562 16.8386C4.38153 16.7611 4.27019 16.6498 4.19277 16.5156C4.11536 16.3815 4.07459 16.2294 4.07458 16.0746V7.9253C4.07459 7.77045 4.11536 7.61833 4.19277 7.48423C4.27019 7.35012 4.38153 7.23875 4.51562 7.1613L11.5731 3.08658C11.7095 3.0077 11.8619 2.96842 12.0143 2.96842C12.1666 2.96842 12.3189 3.0077 12.4554 3.08658L19.5129 7.1613C19.647 7.23873 19.7584 7.35009 19.8358 7.4842C19.9132 7.61832 19.954 7.77045 19.9539 7.9253V16.0746C19.9539 16.2294 19.9132 16.3815 19.8357 16.5156C19.7583 16.6498 19.647 16.7611 19.5129 16.8386Z" fill="#60A5FA"/>
<path d="M19.9543 7.92532C19.9543 7.77048 19.9135 7.61836 19.8361 7.48425C19.7587 7.35015 19.6474 7.23878 19.5133 7.16132L12.4558 3.0866C12.3194 3.00772 12.167 2.96844 12.0146 2.96844C11.8623 2.96844 11.7099 3.00772 11.5735 3.0866L4.51599 7.16132C4.38188 7.23875 4.27052 7.35012 4.1931 7.48423C4.11568 7.61834 4.07493 7.77047 4.07495 7.92532V16.0746C4.07497 16.2295 4.11573 16.3816 4.19315 16.5157C4.27056 16.6498 4.38191 16.7612 4.51599 16.8386L11.5735 20.9131C11.7076 20.9906 11.8598 21.0313 12.0146 21.0313C12.1695 21.0313 12.3216 20.9906 12.4558 20.9131L19.5133 16.8386C19.6474 16.7612 19.7587 16.6498 19.8361 16.5157C19.9135 16.3816 19.9543 16.2295 19.9543 16.0746V7.92532ZM14.8654 11.3728C14.8783 11.3652 14.8918 11.36 14.9051 11.3565C14.9099 11.3552 14.9147 11.3555 14.9194 11.3546C14.9277 11.3532 14.9359 11.3514 14.9442 11.3514L14.9458 11.3516C14.948 11.3516 14.9499 11.352 14.9522 11.3522C14.9623 11.3528 14.9722 11.3543 14.9819 11.3565C14.9855 11.3575 14.9891 11.3587 14.9928 11.3598C15.0012 11.3625 15.0091 11.366 15.0171 11.3702C15.0202 11.3716 15.0233 11.3731 15.0262 11.3748C15.0365 11.381 15.0462 11.3881 15.0549 11.3964C15.0557 11.3973 15.0562 11.3984 15.0571 11.3991C15.0647 11.4068 15.0716 11.4154 15.0776 11.4247C15.0795 11.4279 15.0812 11.4311 15.083 11.4344C15.0874 11.4423 15.0909 11.4505 15.0938 11.4594C15.0951 11.463 15.0962 11.4664 15.0973 11.4701C15.1003 11.4827 15.1026 11.4956 15.1026 11.5094V13.2732L14.7459 13.4792C14.7114 13.4996 14.6852 13.5316 14.6722 13.5696C14.6654 13.5875 14.6618 13.6064 14.6614 13.6255V14.0373L13.1339 14.9192C13.1336 14.9194 13.1331 14.9194 13.1328 14.9196C13.1202 14.9267 13.1072 14.932 13.0943 14.9355C13.0894 14.9368 13.0845 14.9367 13.0796 14.9375C13.0716 14.9388 13.0633 14.9407 13.0551 14.9407L13.0536 14.9405C13.0514 14.9404 13.0494 14.94 13.0472 14.9399C13.0372 14.9393 13.0272 14.9378 13.0175 14.9354C13.0138 14.9345 13.0103 14.9333 13.0066 14.9321C12.9982 14.9295 12.9901 14.926 12.9823 14.9219C12.9791 14.9203 12.9762 14.9189 12.9732 14.9171C12.9629 14.911 12.9532 14.9038 12.9446 14.8956C12.9436 14.8948 12.943 14.8935 12.9421 14.8926C12.9345 14.8849 12.9278 14.8765 12.9219 14.8674C12.9198 14.8642 12.9182 14.8608 12.9163 14.8576C12.9121 14.8496 12.9085 14.8413 12.9058 14.8327C12.9044 14.829 12.9032 14.8254 12.9022 14.8216C12.8988 14.8089 12.897 14.7958 12.8969 14.7827V12.6004C12.8969 12.5727 12.9042 12.5455 12.918 12.5215C12.9319 12.4976 12.9519 12.4777 12.9759 12.4639L14.8654 11.3728ZM11.9356 4.91484C11.9596 4.90094 11.9868 4.89361 12.0146 4.89361C12.0423 4.89361 12.0696 4.90094 12.0936 4.91484L17.071 7.78868C17.1762 7.8494 17.1762 8.00132 17.071 8.06205L15.1814 9.15317C15.1573 9.167 15.1301 9.17428 15.1023 9.17428C15.0746 9.17428 15.0473 9.167 15.0233 9.15317L13.3377 8.17996L13.5257 8.07164C13.6382 8.00652 13.6382 7.84404 13.5257 7.77908L12.099 6.9554C12.073 6.9402 12.0438 6.93285 12.0146 6.93285C11.9855 6.93285 11.9564 6.94028 11.9303 6.9554L11.5736 7.16132L10.0461 6.27948C9.94079 6.21868 9.94079 6.06692 10.0461 6.00604L11.9356 4.91484ZM8.92679 6.67645C8.95415 6.67645 8.98135 6.68356 9.00583 6.69756L10.6914 7.67061L10.5034 7.77908C10.3909 7.84404 10.3909 8.00652 10.5034 8.07164L10.6914 8.17996L9.00599 9.15317C8.98196 9.16699 8.95472 9.17426 8.92699 9.17426C8.89927 9.17426 8.87203 9.16699 8.84799 9.15317L6.95831 8.06196C6.85295 8.00133 6.85295 7.8494 6.95831 7.78868L8.84791 6.69756C8.87247 6.68356 8.89959 6.67645 8.92679 6.67645ZM7.88663 16.7232C7.85898 16.7231 7.83184 16.7158 7.80791 16.7019L5.91831 15.6109C5.8943 15.5971 5.87436 15.5772 5.86048 15.5532C5.84661 15.5292 5.83929 15.502 5.83927 15.4743V9.72684C5.83927 9.6346 5.91479 9.56869 5.99727 9.56869C6.02367 9.56869 6.05063 9.5754 6.07607 9.59012L7.96575 10.681C8.01463 10.7093 8.04479 10.7613 8.04479 10.8178V12.764L7.85679 12.6556C7.82959 12.6398 7.80079 12.6328 7.77279 12.6328C7.75058 12.6327 7.72857 12.6371 7.70804 12.6455C7.68751 12.654 7.66885 12.6665 7.65314 12.6822C7.63743 12.6979 7.62497 12.7165 7.61648 12.7371C7.60799 12.7576 7.60364 12.7796 7.60367 12.8018V14.4492C7.60367 14.5096 7.63567 14.5653 7.68799 14.5955L8.04463 14.8016V16.5653C8.04479 16.6573 7.96911 16.7232 7.88663 16.7232ZM11.1324 18.3477C11.1324 18.3754 11.1251 18.4026 11.1112 18.4266C11.0973 18.4506 11.0774 18.4705 11.0534 18.4844C11.0294 18.4982 11.0022 18.5056 10.9745 18.5056C10.9468 18.5056 10.9196 18.4983 10.8956 18.4845L9.00599 17.3936C8.98197 17.3797 8.96202 17.3598 8.94814 17.3358C8.93427 17.3117 8.92696 17.2845 8.92695 17.2568V15.3106L9.11479 15.419C9.14199 15.4348 9.17079 15.442 9.19887 15.442C9.28711 15.442 9.36799 15.3714 9.36799 15.2727V15.0559L11.0534 16.0289C11.1022 16.0572 11.1324 16.1092 11.1324 16.1657V18.3477ZM11.1324 14.7821C11.1324 14.7959 11.1302 14.8088 11.1271 14.8212C11.1262 14.8251 11.1248 14.8285 11.1236 14.8322C11.1208 14.841 11.1172 14.8493 11.1129 14.8572C11.111 14.8604 11.1094 14.8638 11.1074 14.8669C11.1013 14.8762 11.0946 14.8848 11.087 14.8925C11.0861 14.8933 11.0854 14.8944 11.0846 14.8952C11.0759 14.9035 11.0663 14.9107 11.0559 14.9168C11.0531 14.9186 11.0499 14.92 11.047 14.9216C11.0358 14.9274 11.024 14.9319 11.0118 14.9351C11.0018 14.9376 10.9918 14.9391 10.9815 14.9396C10.9795 14.9396 10.9775 14.9402 10.9755 14.9402L10.9739 14.9403C10.9655 14.9403 10.957 14.9384 10.9486 14.9371C10.9438 14.9363 10.9394 14.9364 10.935 14.9352C10.921 14.9316 10.9076 14.9261 10.8951 14.9189L9.36791 14.0371V13.6253C9.36794 13.5957 9.36014 13.5666 9.34531 13.5409C9.33048 13.5152 9.30913 13.4939 9.28343 13.4792L8.92695 13.2733V11.5099C8.92695 11.496 8.92911 11.4831 8.93231 11.4706C8.93327 11.4668 8.93455 11.4634 8.93575 11.4597C8.93856 11.4511 8.94218 11.4427 8.94655 11.4348C8.94839 11.4316 8.94999 11.428 8.95215 11.4248C8.95799 11.4157 8.96471 11.4072 8.97239 11.3994C8.97327 11.3986 8.97399 11.3975 8.97471 11.3967C8.98335 11.3884 8.99303 11.3812 9.00335 11.3751C9.00631 11.3733 9.00943 11.3719 9.01247 11.3704C9.03275 11.3597 9.05506 11.3536 9.07791 11.3523C9.07991 11.3523 9.08175 11.3517 9.08383 11.3517L9.08543 11.3516C9.09399 11.3516 9.10255 11.3536 9.11119 11.3548C9.11551 11.3556 9.11999 11.3555 9.12447 11.3568C9.13791 11.3601 9.15119 11.3655 9.16431 11.373L11.0534 12.4636C11.0774 12.4775 11.0974 12.4975 11.1113 12.5216C11.1251 12.5456 11.1324 12.5729 11.1325 12.6006L11.1324 14.7821ZM10.046 9.84476C10.0212 9.83055 10.0007 9.80987 9.98679 9.78492C9.97384 9.76137 9.96704 9.73493 9.96704 9.70804C9.96704 9.68116 9.97384 9.65472 9.98679 9.63116C10.0007 9.60619 10.0212 9.5855 10.046 9.57132L11.5736 8.68948L11.9302 8.89532C11.9558 8.91009 11.9849 8.91785 12.0146 8.91785C12.0442 8.91785 12.0733 8.91009 12.099 8.89532L12.4556 8.68932L13.9832 9.57132C14.0886 9.63204 14.0886 9.78396 13.9832 9.84476L12.0936 10.9357C12.0696 10.9496 12.0423 10.957 12.0146 10.957C11.9868 10.957 11.9596 10.9496 11.9356 10.9357L10.046 9.84476ZM18.19 15.4741C18.19 15.5018 18.1827 15.5291 18.1689 15.5531C18.155 15.5771 18.1351 15.597 18.111 15.6108L13.1337 18.4845C13.1098 18.4985 13.0826 18.5059 13.0549 18.5059C12.9725 18.5059 12.8968 18.4399 12.8968 18.3477V16.1656C12.8968 16.1092 12.927 16.0572 12.9759 16.0288L14.6612 15.056V15.2728C14.6612 15.3713 14.7421 15.442 14.8302 15.442C14.8585 15.442 14.8871 15.4348 14.9145 15.4191L16.341 14.5953C16.3667 14.5805 16.388 14.5592 16.4028 14.5335C16.4177 14.5078 16.4254 14.4787 16.4254 14.4491V14.0373L17.953 13.1554C17.9785 13.1407 18.0054 13.134 18.0318 13.134C18.1142 13.134 18.1899 13.2 18.1899 13.2921V15.4741H18.19ZM18.19 11.9089C18.19 11.9654 18.16 12.0174 18.111 12.0456L16.4256 13.0187V12.8019C16.4256 12.7032 16.3446 12.6328 16.2565 12.6328C16.2269 12.6327 16.1978 12.6406 16.1723 12.6556L15.9844 12.764V10.8178C15.9844 10.7613 16.0146 10.7093 16.0636 10.681L17.9532 9.59012C17.9771 9.57616 18.0042 9.56876 18.0319 9.56869C18.1144 9.56869 18.19 9.6346 18.19 9.72684V11.9089Z" fill="black"/>
<path d="M11.0533 16.0294L9.36775 15.0563V15.2732C9.36775 15.3718 9.28695 15.4424 9.19871 15.4424C9.17047 15.4424 9.14175 15.4352 9.11455 15.4194L8.92679 15.3111V17.2573C8.92679 17.3138 8.95679 17.3658 9.00575 17.3941L10.8954 18.485C10.9208 18.4998 10.9478 18.5064 10.9742 18.5064C10.995 18.5064 11.0156 18.5023 11.0347 18.4944C11.0539 18.4864 11.0713 18.4748 11.086 18.4601C11.1007 18.4454 11.1123 18.4279 11.1203 18.4088C11.1282 18.3896 11.1323 18.369 11.1322 18.3482V16.1662C11.1322 16.1384 11.1249 16.1112 11.111 16.0872C11.0972 16.0632 11.0773 16.0433 11.0533 16.0294ZM9.08511 11.3515L9.08351 11.3516C9.09247 11.3515 9.10159 11.3532 9.11071 11.3548C9.10215 11.3534 9.09359 11.3515 9.08511 11.3515ZM10.9738 14.9402L10.9754 14.94C10.9666 14.9402 10.9574 14.9383 10.9485 14.9368C10.957 14.9382 10.9654 14.9402 10.9738 14.9402ZM14.9444 11.3514C14.9362 11.3514 14.928 11.3534 14.9196 11.3546C14.9284 11.353 14.9372 11.3514 14.9459 11.3515L14.9444 11.3514ZM18.0315 9.56864C18.0053 9.56864 17.9783 9.57536 17.9527 9.59008L16.0631 10.681C16.0391 10.6948 16.0191 10.7148 16.0052 10.7388C15.9914 10.7628 15.984 10.79 15.984 10.8178V12.7639L16.172 12.6555C16.1992 12.6398 16.228 12.6326 16.256 12.6327C16.3442 12.6327 16.4252 12.7031 16.4252 12.8018V13.0186L18.1106 12.0455C18.1594 12.0174 18.1896 11.9654 18.1896 11.9089V9.7268C18.1896 9.70603 18.1855 9.68546 18.1776 9.66627C18.1697 9.64708 18.158 9.62964 18.1433 9.61495C18.1287 9.60026 18.1112 9.58861 18.092 9.58066C18.0728 9.57272 18.0523 9.56863 18.0315 9.56864ZM13.0546 14.9402C13.0626 14.9402 13.0709 14.9382 13.079 14.937C13.0704 14.9384 13.0618 14.94 13.0532 14.94L13.0546 14.9402ZM18.0315 13.1338C18.0038 13.1339 17.9767 13.1412 17.9527 13.1551L16.4252 14.037V14.4488C16.4252 14.4785 16.4174 14.5076 16.4026 14.5333C16.3877 14.559 16.3664 14.5803 16.3407 14.5951L14.9142 15.4188C14.8868 15.4345 14.8582 15.4417 14.8299 15.4417C14.8077 15.4417 14.7857 15.4373 14.7652 15.4288C14.7447 15.4203 14.7261 15.4078 14.7104 15.3921C14.6947 15.3764 14.6822 15.3577 14.6738 15.3372C14.6653 15.3167 14.6609 15.2947 14.661 15.2725V15.0557L12.9756 16.0286C12.9516 16.0425 12.9316 16.0624 12.9177 16.0865C12.9038 16.1105 12.8965 16.1377 12.8965 16.1654V18.3475C12.8965 18.4397 12.9721 18.5056 13.0546 18.5056C13.081 18.5056 13.1079 18.4989 13.1334 18.4842L18.1107 15.6106C18.1595 15.5824 18.1898 15.5302 18.1898 15.4738V13.2918C18.1896 13.1998 18.114 13.1338 18.0315 13.1338ZM10.0456 6.00592C9.94039 6.06672 9.94039 6.21856 10.0456 6.27936L11.5732 7.1612L11.9298 6.9552C11.956 6.94008 11.9851 6.93272 12.0142 6.93272C12.0434 6.93272 12.0726 6.94008 12.0986 6.9552L13.5252 7.77896C13.6378 7.84392 13.6378 8.0064 13.5252 8.07144L13.3373 8.17984L15.0229 9.15296C15.0469 9.16678 15.0741 9.17406 15.1019 9.17406C15.1296 9.17406 15.1568 9.16678 15.1809 9.15296L17.0705 8.06184C17.1758 8.00112 17.1758 7.84928 17.0705 7.78856L12.0932 4.91472C12.0692 4.90082 12.0419 4.89349 12.0142 4.89349C11.9864 4.89349 11.9592 4.90082 11.9352 4.91472L10.0456 6.00592ZM6.95807 7.78864C6.85271 7.84936 6.85271 8.00128 6.95807 8.062L8.84775 9.15312C8.87179 9.16694 8.89903 9.17422 8.92675 9.17422C8.95448 9.17422 8.98172 9.16694 9.00575 9.15312L10.6911 8.17992L10.5031 8.0716C10.3906 8.00648 10.3906 7.844 10.5031 7.77904L10.6911 7.67056L9.00559 6.6976C8.98156 6.68381 8.95434 6.67656 8.92663 6.67656C8.89893 6.67656 8.8717 6.68381 8.84767 6.6976L6.95807 7.78864ZM8.04447 16.5648V14.801L7.68775 14.5949C7.66208 14.5801 7.64077 14.5588 7.62597 14.5331C7.61116 14.5074 7.60339 14.4783 7.60343 14.4486V12.8013C7.60339 12.7791 7.60773 12.7571 7.61622 12.7365C7.6247 12.716 7.63716 12.6973 7.65287 12.6816C7.66858 12.6659 7.68724 12.6534 7.70778 12.645C7.72832 12.6365 7.75033 12.6321 7.77255 12.6322C7.80071 12.6322 7.82943 12.6392 7.85663 12.655L8.04463 12.7635V10.8172C8.04463 10.7607 8.01455 10.7087 7.96559 10.6804L6.07591 9.58968C6.05201 9.57568 6.02481 9.56828 5.99711 9.56824C5.97636 9.56824 5.9558 9.57233 5.93663 9.58028C5.91745 9.58822 5.90003 9.59987 5.88536 9.61455C5.87069 9.62923 5.85905 9.64666 5.85112 9.66583C5.84318 9.68501 5.8391 9.70557 5.83911 9.72632V15.4737C5.83911 15.53 5.86911 15.5822 5.91807 15.6103L7.80767 16.7014C7.83319 16.716 7.86015 16.7226 7.88647 16.7226C7.96887 16.7227 8.04447 16.6569 8.04447 16.5648Z" fill="#60A5FA"/>
<path d="M12.9425 12.4896C12.913 12.5191 12.8964 12.5591 12.8964 12.6009V14.783L12.8964 14.7832C12.8964 14.797 12.8987 14.8098 12.9017 14.8222C12.9028 14.8258 12.904 14.8293 12.9053 14.8332C12.9081 14.8418 12.9117 14.8502 12.916 14.8581C12.9178 14.8613 12.9194 14.8647 12.9216 14.8679C12.9275 14.877 12.934 14.8855 12.9416 14.8931C12.9426 14.8941 12.9432 14.8953 12.9441 14.8961C12.9528 14.9045 12.9625 14.9115 12.9728 14.9177C12.9757 14.9194 12.9788 14.9208 12.9819 14.9224C13.0019 14.9329 13.024 14.939 13.0467 14.9403C13.0489 14.9405 13.051 14.9409 13.0532 14.941C13.0618 14.941 13.0704 14.9393 13.0791 14.9379C13.084 14.9372 13.0888 14.9373 13.0937 14.936C13.1067 14.9326 13.1196 14.9273 13.1323 14.9201C13.1326 14.9199 13.1331 14.9199 13.1334 14.9197L14.6609 14.0378V13.626C14.6609 13.6064 14.6652 13.5878 14.6716 13.57C14.6846 13.532 14.7108 13.5 14.7454 13.4797L15.102 13.2738V11.5099C15.102 11.4961 15.0998 11.4832 15.0968 11.4707C15.0957 11.467 15.0944 11.4635 15.0932 11.4598C15.0905 11.4512 15.0868 11.4429 15.0824 11.435C15.0806 11.4316 15.079 11.4283 15.077 11.4252C15.0711 11.416 15.0643 11.4074 15.0566 11.3996C15.0557 11.3987 15.055 11.3978 15.0543 11.397C15.0456 11.3887 15.036 11.3814 15.0256 11.3754C15.0228 11.3736 15.0196 11.3722 15.0165 11.3706C15.0053 11.3648 14.9935 11.3602 14.9813 11.357C14.9716 11.3547 14.9617 11.3533 14.9517 11.3527C14.9493 11.3526 14.9474 11.3521 14.9453 11.352C14.9365 11.352 14.9277 11.3536 14.9189 11.3551C14.9143 11.3559 14.9095 11.3558 14.9047 11.357C14.8907 11.3606 14.8773 11.366 14.8649 11.3733L12.9753 12.4642C12.9633 12.4712 12.9523 12.4797 12.9425 12.4896ZM11.053 12.4635L9.16387 11.3728C9.15141 11.3656 9.138 11.3601 9.12403 11.3566C9.11955 11.3553 9.11507 11.3555 9.11075 11.3547C9.10163 11.3531 9.09251 11.3515 9.08347 11.3516C9.08139 11.3516 9.07947 11.3521 9.07747 11.3521C9.06707 11.3527 9.05699 11.3543 9.04723 11.3566C9.04347 11.3576 9.04011 11.3588 9.03643 11.3598C9.02801 11.3626 9.01985 11.3661 9.01203 11.3702C9.00899 11.3718 9.00587 11.3731 9.00291 11.3749C8.99261 11.381 8.98301 11.3882 8.97427 11.3965L8.97203 11.3993C8.96439 11.407 8.95755 11.4156 8.95163 11.4247C8.94963 11.4279 8.94795 11.4314 8.94611 11.4346C8.94179 11.4426 8.93827 11.4509 8.93531 11.4595C8.92971 11.4757 8.92674 11.4926 8.92651 11.5097V13.2732L9.28299 13.479C9.30869 13.4938 9.33004 13.5151 9.34487 13.5408C9.35971 13.5664 9.3675 13.5955 9.36747 13.6252V14.037L10.8947 14.9188C10.9076 14.9262 10.9211 14.9316 10.9345 14.935C10.939 14.9363 10.9435 14.9361 10.9481 14.9369C10.9571 14.9384 10.9662 14.9401 10.9751 14.9401C10.9772 14.9401 10.9791 14.9395 10.9811 14.9394C10.9915 14.939 11.0016 14.9373 11.0113 14.9349C11.0151 14.9341 11.0184 14.9329 11.0221 14.9318C11.0305 14.929 11.0387 14.9254 11.0466 14.9214C11.0496 14.9198 11.0527 14.9185 11.0556 14.9167C11.0659 14.9106 11.0755 14.9033 11.0843 14.8951C11.0851 14.8942 11.0858 14.8931 11.0865 14.8924C11.0941 14.8846 11.101 14.8761 11.107 14.8668C11.1089 14.8636 11.1106 14.8602 11.1124 14.857C11.1168 14.8492 11.1203 14.8408 11.1232 14.8321C11.1289 14.8159 11.1318 14.799 11.132 14.7819V12.6005C11.132 12.5727 11.1247 12.5455 11.1108 12.5214C11.097 12.4974 11.077 12.4774 11.053 12.4635ZM12.0932 10.9357L13.9828 9.84471C14.0881 9.78391 14.0881 9.63191 13.9828 9.57127L12.4552 8.68927L12.0985 8.89527C12.0728 8.91003 12.0437 8.9178 12.0141 8.9178C11.9845 8.9178 11.9554 8.91003 11.9297 8.89527L11.5732 8.68943L10.0456 9.57127C10.0207 9.58545 10.0003 9.60614 9.98635 9.63111C9.9734 9.65466 9.96661 9.68111 9.96661 9.70799C9.96661 9.73487 9.9734 9.76132 9.98635 9.78487C9.99955 9.80855 10.0194 9.82951 10.0456 9.84471L11.9353 10.9357C11.9593 10.9496 11.9865 10.9569 12.0142 10.9569C12.0419 10.9569 12.0692 10.9496 12.0932 10.9357Z" fill="#EF4444"/>
</svg>
