<svg width="24" height="24" viewBox="0 0 24 24" fill="none" xmlns="http://www.w3.org/2000/svg">
<path d="M3.22195 3.65998C3.22195 3.57198 3.29195 3.50098 3.37995 3.50098H15.136C18.253 3.50098 20.779 6.03798 20.779 9.16798V10.268C20.779 10.356 20.709 10.428 20.621 10.428H17.175C17.1541 10.4278 17.1334 10.4236 17.1142 10.4155C17.0949 10.4074 17.0775 10.3956 17.0628 10.3807C17.0481 10.3658 17.0365 10.3482 17.0287 10.3289C17.0208 10.3096 17.0168 10.2889 17.017 10.268V9.16798C17.018 8.66822 16.8206 8.18849 16.468 7.83426C16.1155 7.48003 15.6367 7.2803 15.137 7.27898H7.14195C7.09978 7.27898 7.05934 7.29573 7.02952 7.32555C6.9997 7.35536 6.98295 7.39581 6.98295 7.43798V20.342C6.98295 20.43 6.91295 20.502 6.82495 20.497C5.85353 20.4539 4.93629 20.0373 4.26473 19.334C3.59318 18.6308 3.21923 17.6954 3.22095 16.723L3.22195 3.65998Z" fill="#EF4444"/>
<path d="M10.2779 11.0569C10.2571 11.0568 10.2366 11.0608 10.2175 11.0688C10.1983 11.0768 10.181 11.0886 10.1665 11.1034C10.1521 11.1183 10.1407 11.1359 10.1332 11.1552C10.1257 11.1746 10.1222 11.1952 10.1229 11.2159C10.1618 12.1877 10.5748 13.1068 11.2755 13.7812C11.9762 14.4556 12.9104 14.8332 13.8829 14.8349H16.3899C16.7369 14.8349 17.0169 15.1169 17.0169 15.4649V20.3429C17.0169 20.431 17.0879 20.502 17.1759 20.498C18.1473 20.4549 19.0646 20.0382 19.7361 19.335C20.4077 18.6318 20.7816 17.6963 20.7799 16.724V15.464C20.7799 13.03 18.8149 11.0569 16.3899 11.0569H10.2779Z" fill="#EF4444"/>
</svg>
