<svg width="24" height="24" viewBox="0 0 24 24" fill="none" xmlns="http://www.w3.org/2000/svg">
<path d="M3.24194 3.242H4.49394C4.77009 3.242 4.99394 3.46586 4.99394 3.742V18.506C4.99394 18.7821 5.2178 19.006 5.49394 19.006H20.2579C20.5341 19.006 20.7579 19.2299 20.7579 19.506V20.258C20.7579 20.5341 20.5341 20.758 20.2579 20.758H3.74294C3.4668 20.758 3.24294 20.5341 3.24294 20.258V3.243M7.62194 10.249H15.8789C16.1551 10.249 16.3789 10.4729 16.3789 10.749V12.376C16.3789 12.6521 16.1551 12.876 15.8789 12.876H8.12194C7.8458 12.876 7.62194 12.6521 7.62194 12.376V10.25M11.1249 15.129C11.1249 14.8529 11.3488 14.629 11.6249 14.629H19.3819C19.6581 14.629 19.8819 14.8529 19.8819 15.129V16.756C19.8819 17.0321 19.6581 17.256 19.3819 17.256H11.6249C11.3488 17.256 11.1249 17.0321 11.1249 16.756V15.129ZM6.74609 5.49415C6.74601 5.21795 6.96989 4.994 7.24609 4.994H20.2579C20.5341 4.994 20.7579 5.21786 20.7579 5.494V7.997C20.7579 8.27315 20.5341 8.497 20.2579 8.497H19.5069C19.2308 8.497 19.0069 8.27315 19.0069 7.997V7.246C19.0069 6.96986 18.7831 6.746 18.5069 6.746H8.99694C8.7208 6.746 8.49694 6.96986 8.49694 7.246V7.997C8.49694 8.27315 8.27309 8.497 7.99694 8.497H7.2468C6.97071 8.497 6.74688 8.27323 6.7468 7.99715L6.74609 5.49415Z" fill="#14B8A6"/>
</svg>
