<svg width="24" height="24" viewBox="0 0 24 24" fill="none" xmlns="http://www.w3.org/2000/svg">
<path d="M19.0137 8.84133C19.0137 11.1635 17.7445 13.185 15.8736 14.2566C15.7608 14.3506 15.695 14.5011 15.7608 14.6421L18.9669 20.9787C19.0515 21.1761 18.9199 21.4018 18.7036 21.4018H6.45315L6.51897 21.3642C6.97965 21.1009 10.1763 14.7924 13.2975 11.8026C16.419 8.81283 16.8138 9.8094 15.0932 6.55647C15.0932 6.55647 16.4188 9.14193 15.2906 9.33936C14.4068 9.4992 12.3761 7.53426 13.1282 5.76666C13.8803 4.03674 16.8419 4.36581 18.2051 5.77608C18.7222 6.67863 19.0137 7.72224 19.0137 8.84118M7.44957 13.0625C6.20856 15.3471 5.41881 17.0111 4.98633 18.1769V2.88978C4.98633 2.72994 5.11797 2.59833 5.27778 2.59833H12.8651C15.0651 2.63592 16.9925 3.80175 18.0737 5.55987C17.2839 4.57269 16.0429 4.00857 14.8208 4.00857C12.4986 4.00857 11.9157 4.85475 7.44978 13.0623L7.44957 13.0625Z" fill="#EF4444"/>
</svg>
