<svg width="24" height="25" viewBox="0 0 24 25" fill="none" xmlns="http://www.w3.org/2000/svg">
<path d="M9.92578 6.17968C10.0469 6.43359 9.94141 6.73828 9.6875 6.85937C9.67188 6.86718 9.65625 6.875 9.64062 6.88281C7.07031 7.80078 5.23828 10.1758 5.23828 12.9609C5.23828 13.2457 5.00743 13.4766 4.72266 13.4766H2.85547C2.57285 13.4766 2.34375 13.2475 2.34375 12.9648C2.34375 9.01562 4.91016 5.64843 8.53125 4.30859C8.77344 4.21875 9.04688 4.32812 9.16016 4.57031L9.92578 6.17968ZM2.34375 15.4492C2.34375 14.8969 2.79147 14.4492 3.34375 14.4492H4.23828C4.79057 14.4492 5.23828 14.8969 5.23828 15.4492V21.2383C5.23828 21.7906 4.79057 22.2383 4.23828 22.2383H3.34375C2.79147 22.2383 2.34375 21.7906 2.34375 21.2383V15.4492ZM21.6562 12.9648C21.6562 13.2475 21.4271 13.4766 21.1445 13.4766H19.2734C18.9908 13.4766 18.7617 13.2475 18.7617 12.9648C18.7617 10.1758 16.9297 7.80078 14.3594 6.88281C14.2344 6.83593 14.1289 6.74218 14.0703 6.62109C14.0202 6.51008 14.0094 6.38266 14.0441 6.2629C14.0504 6.24122 14.0555 6.21869 14.064 6.19775C14.0687 6.18587 14.0731 6.17386 14.0786 6.1623L14.8359 4.5664C14.9492 4.32812 15.2227 4.21875 15.4648 4.30859C19.0898 5.64843 21.6562 9.01562 21.6562 12.9648ZM18.7617 15.4492C18.7617 14.8969 19.2094 14.4492 19.7617 14.4492H20.6562C21.2085 14.4492 21.6562 14.8969 21.6562 15.4492V21.2383C21.6562 21.7906 21.2085 22.2383 20.6562 22.2383H19.7617C19.2094 22.2383 18.7617 21.7906 18.7617 21.2383V15.4492Z" fill="#71717A"/>
<path d="M13.8398 2.89063C14 2.91406 14.1406 3.00781 14.2148 3.15234C14.293 3.29688 14.2969 3.46875 14.2305 3.61719L14.0898 3.90625L13.0156 6.17969C12.9258 6.36719 12.7305 6.48047 12.5234 6.46875C12.3516 6.46094 12.1758 6.45703 12 6.45703C11.8242 6.45703 11.6484 6.46094 11.4766 6.46875C11.2695 6.48047 11.0742 6.36719 10.9844 6.17969L9.91016 3.90625L9.76953 3.61719C9.65234 3.35938 9.75781 3.05469 10.0156 2.93359C10.0586 2.91406 10.1094 2.89844 10.1602 2.89063C11.3828 2.72266 12.6172 2.72266 13.8398 2.89063ZM17.793 12.9648V22.2344H14.8984V12.9648C14.8984 11.4258 13.5977 10.1797 12 10.1797C10.4023 10.1797 9.10156 11.4258 9.10156 12.9648V22.2344H6.20703V12.9648C6.20703 9.89062 8.80078 7.39844 12 7.39844C15.1992 7.39844 17.793 9.89062 17.793 12.9648Z" fill="#FBBF24"/>
</svg>
