<svg width="24" height="24" viewBox="0 0 24 24" fill="none" xmlns="http://www.w3.org/2000/svg">
<path d="M16.8192 12.9936H7.18083C6.72483 12.9936 6.35522 12.6192 6.35522 12.168C6.35522 11.7168 6.72963 11.3424 7.18083 11.3424H16.8144C17.2704 11.3424 17.64 11.7168 17.64 12.168C17.64 12.6192 17.2752 12.9936 16.8192 12.9936Z" fill="#EF4444"/>
<path d="M7.18085 11.3184C6.71636 11.3184 6.3313 11.7035 6.3313 12.168C6.3313 12.6323 6.7117 13.0175 7.18085 13.0175H16.8193C17.2884 13.0175 17.6641 12.6321 17.6641 12.168C17.6641 11.7037 17.2836 11.3184 16.8145 11.3184H7.18085ZM7.18085 11.3664H16.8145C17.2573 11.3664 17.616 11.7299 17.616 12.168C17.616 12.6062 17.2621 12.9695 16.8192 12.9695H7.1808C6.73795 12.9695 6.37925 12.6061 6.37925 12.168C6.37925 11.7301 6.7429 11.3664 7.1808 11.3664H7.18085Z" fill="#EF4444"/>
<path d="M5.88332 8.60896C5.88332 8.58438 5.91481 8.40813 5.95331 8.21723C6.21049 6.94139 6.92329 5.70083 7.89059 4.84571C8.3558 4.43435 8.75555 4.16349 9.28993 3.89733C11.9481 2.57325 15.2189 3.34432 16.9949 5.71379C17.4947 6.38061 17.8454 7.08731 18.0444 7.82886C18.117 8.09925 18.1997 8.51089 18.1997 8.60166C18.1997 8.6524 18.0614 8.6536 12.0418 8.6536C6.37681 8.6536 5.88385 8.65 5.88385 8.60896H5.88332ZM5.83436 15.4288C5.57651 15.3594 5.39056 15.2301 5.2178 15.0003C5.0571 14.7864 5.00324 14.5717 5.00324 14.1448V13.7862L4.86438 13.653C4.78528 13.5772 4.69355 13.4517 4.65131 13.3616L4.57715 13.2034V11.279L4.65414 11.1222C4.69849 11.0319 4.78883 10.9136 4.86721 10.8431L5.00329 10.7208V10.3598C5.00329 10.0677 5.01414 9.96669 5.06012 9.83022C5.20072 9.41286 5.54166 9.12669 5.9726 9.06433C6.19916 9.03155 17.8003 9.03155 18.0273 9.06433C18.4583 9.12669 18.7992 9.41281 18.9398 9.83022C18.9858 9.96673 18.9966 10.0677 18.9966 10.3598V10.7208L19.1327 10.8431C19.2111 10.9136 19.3014 11.0319 19.3457 11.1222L19.4227 11.279V12.2549C19.4227 13.383 19.4244 13.3743 19.1512 13.6411L19.0017 13.7871L18.9923 14.21C18.9831 14.618 18.9798 14.6392 18.8969 14.8117C18.7883 15.0376 18.658 15.1863 18.4705 15.2985C18.1606 15.4838 18.6217 15.4717 11.9876 15.4696C6.89051 15.4681 5.95787 15.4619 5.83499 15.4288L5.83436 15.4288ZM17.1744 12.9214C17.4662 12.7655 17.6234 12.5285 17.6427 12.2155C17.6645 11.8632 17.4866 11.5583 17.1678 11.4014L17.0308 11.334L12.0561 11.3268C6.52072 11.3187 6.91816 11.3053 6.66184 11.508C6.46835 11.661 6.371 11.8557 6.35569 12.1203C6.34494 12.3061 6.35233 12.3509 6.41713 12.4925C6.49796 12.6693 6.58964 12.7781 6.73182 12.8662C6.95022 13.0013 6.69841 12.9955 12.0411 12.9892L17.0581 12.9835L17.1744 12.9214ZM8.48108 20.7194C8.1124 20.6738 7.62702 20.4888 7.31632 20.2756C7.13718 20.1527 6.83339 19.8573 6.69044 19.6672C6.43081 19.3219 6.24318 18.848 6.18846 18.3996C6.1707 18.2543 6.15822 17.6503 6.15822 16.9357L6.15808 15.7192H7.58761L7.58819 16.8945C7.58848 17.5408 7.60115 18.1563 7.61641 18.2622C7.67497 18.6691 7.91982 19.0051 8.28942 19.1857L8.48108 19.2794L9.03092 19.2874C9.5223 19.2946 9.5906 19.2901 9.67326 19.2449C9.73086 19.2135 9.92785 18.9879 10.1956 18.6468C10.432 18.3457 10.6675 18.071 10.7188 18.0364L10.8123 17.9735H12.0481C13.1373 17.9735 13.2951 17.9789 13.379 18.0187C13.4463 18.0507 13.6036 18.2284 13.917 18.6267C14.1605 18.9363 14.3979 19.2128 14.4445 19.2412C14.5682 19.3167 15.4484 19.3179 15.6883 19.243C16.0673 19.1247 16.354 18.838 16.4723 18.4591C16.5177 18.3134 16.5224 18.1797 16.5224 17.0089V15.7192H17.9846L17.9728 17.087L17.961 18.4547L17.8876 18.7294C17.5979 19.814 16.7211 20.5866 15.6289 20.7199C15.3291 20.7565 8.77691 20.7561 8.48123 20.7194L8.48108 20.7194Z" fill="#71717A"/>
<path d="M9.4987 17.2312C9.36296 17.1122 9.24795 17.0029 9.24306 16.9883C9.23816 16.9737 9.36522 16.812 9.5253 16.629L9.81637 16.2963L14.1441 16.2984L14.7335 16.9801L14.5213 17.1662C14.4315 17.245 14.3416 17.3237 14.2516 17.4023C14.1949 17.4516 14.192 17.4497 14.021 17.2454L13.8478 17.0385L10.1304 17.0368L9.74552 17.4476L9.4987 17.2312Z" fill="#71717A"/>
</svg>
