<svg width="24" height="25" viewBox="0 0 24 25" fill="none" xmlns="http://www.w3.org/2000/svg">
<mask id="mask0_803_841" style="mask-type:alpha" maskUnits="userSpaceOnUse" x="2" y="3" width="19" height="17">
<path d="M16.9204 3.63977H6.17525L2.39795 9.87738L11.577 19.7545L20.221 9.87738L16.9204 3.63977Z" fill="#D9D9D9"/>
</mask>
<g mask="url(#mask0_803_841)">
<path d="M11.804 2.66187L7.66675 9.8497L11.8092 21.1055" stroke="#E53935" stroke-width="2" stroke-linecap="round" stroke-linejoin="round"/>
<path d="M10.6418 2.67048L14.791 9.86276L10.6592 21.1278" stroke="#E53935" stroke-width="2" stroke-linecap="round" stroke-linejoin="round"/>
</g>
<path d="M3.61328 9.84973H19.0667" stroke="#E53935" stroke-width="2" stroke-linejoin="round"/>
<path fill-rule="evenodd" clip-rule="evenodd" d="M6.14329 4.08439C6.32793 3.80152 6.64289 3.63098 6.98069 3.63098H16.9828C17.3423 3.63098 17.6741 3.82395 17.8519 4.13641L20.8285 9.36722C21.0293 9.72004 20.9968 10.1592 20.7464 10.4787L12.8892 20.5027C12.704 20.7389 12.4225 20.8795 12.1224 20.8856C11.8223 20.8917 11.5354 20.7626 11.3408 20.5341L2.80505 10.5101C2.5177 10.1727 2.48676 9.68635 2.72901 9.3152L6.14329 4.08439ZM7.52214 5.63098L4.81233 9.78251L12.0701 18.3057L18.7583 9.77308L16.4013 5.63098H7.52214Z" fill="#E53935"/>
</svg>
