<svg width="24" height="25" viewBox="0 0 24 25" fill="none" xmlns="http://www.w3.org/2000/svg">
<path fill-rule="evenodd" clip-rule="evenodd" d="M11.734 2.63594C11.6838 2.55142 11.5953 2.5 11.5001 2.5C11.4048 2.5 11.3163 2.55142 11.2662 2.63594L10.762 3.48558C10.6874 3.49217 10.613 3.49976 10.539 3.50833L9.88527 2.7786C9.82026 2.70603 9.72392 2.67368 9.63055 2.69309C9.53718 2.7125 9.46006 2.78089 9.42666 2.87392L9.09105 3.80862C9.01934 3.83031 8.94802 3.85294 8.87709 3.8765L8.09878 3.29273C8.02144 3.23472 7.92085 3.22258 7.83286 3.26063C7.74487 3.29869 7.68201 3.38152 7.66667 3.47961L7.51196 4.469C7.44643 4.5046 7.38139 4.54104 7.31685 4.57831L6.44193 4.16222C6.35519 4.12097 6.25418 4.1295 6.17493 4.18478C6.09569 4.24006 6.04951 4.3342 6.05289 4.4336L6.087 5.439C6.03066 5.48614 5.97488 5.534 5.9197 5.58256L4.98047 5.35167C4.88771 5.32886 4.79024 5.35778 4.72285 5.4281C4.65546 5.49843 4.62774 5.60013 4.6496 5.69693L4.87088 6.67703C4.82436 6.7346 4.77851 6.79279 4.73335 6.85157L3.76979 6.81597C3.67452 6.81245 3.58431 6.86063 3.53133 6.94332C3.47836 7.02601 3.47017 7.13142 3.50971 7.22193L3.90851 8.135C3.87281 8.2023 3.83791 8.27013 3.80383 8.33846L2.85554 8.49992C2.76154 8.51592 2.68215 8.58152 2.64569 8.67334C2.60922 8.76515 2.62086 8.87011 2.67645 8.95081L3.23597 9.76307C3.2134 9.83703 3.19172 9.91141 3.17095 9.98618L2.27509 10.3364C2.18594 10.3713 2.12039 10.4518 2.10179 10.5492C2.0832 10.6466 2.11419 10.7471 2.18374 10.815L2.88313 11.4972C2.87492 11.5744 2.86765 11.6519 2.86133 11.7297L2.04702 12.2559C1.96603 12.3083 1.91675 12.4006 1.91675 12.5C1.91675 12.5994 1.96603 12.6917 2.04702 12.7441L2.86135 13.2703C2.86768 13.3481 2.87495 13.4256 2.88316 13.5028L2.18374 14.185C2.11419 14.2529 2.0832 14.3534 2.10179 14.4508C2.12039 14.5482 2.18594 14.6287 2.27509 14.6636L3.17114 15.0139C3.1919 15.0886 3.21355 15.1629 3.2361 15.2367L2.67645 16.0492C2.62086 16.1299 2.60922 16.2349 2.64569 16.3267C2.68215 16.4185 2.76154 16.4841 2.85554 16.5001L3.80426 16.6616C3.83827 16.7298 3.87309 16.7974 3.90871 16.8646L3.50971 17.7781C3.47017 17.8686 3.47836 17.974 3.53133 18.0567C3.58431 18.1394 3.67452 18.1875 3.76978 18.184L4.73398 18.1484C4.77899 18.207 4.82467 18.2649 4.87103 18.3223L4.6496 19.3031C4.62774 19.3999 4.65546 19.5016 4.72285 19.5719C4.79024 19.6422 4.88771 19.6711 4.98047 19.6483L5.92038 19.4173C5.97535 19.4656 6.0309 19.5133 6.08703 19.5603L6.05289 20.5664C6.04951 20.6658 6.09569 20.7599 6.17493 20.8152C6.25418 20.8705 6.35519 20.879 6.44193 20.8378L7.3174 20.4214C7.38173 20.4586 7.44656 20.4949 7.51187 20.5304L7.66667 21.5204C7.68201 21.6185 7.74487 21.7013 7.83286 21.7394C7.92085 21.7774 8.02144 21.7653 8.09878 21.7073L8.87739 21.1233C8.94818 21.1468 9.01937 21.1694 9.09093 21.191L9.42666 22.1261C9.46006 22.2191 9.53718 22.2875 9.63055 22.3069C9.72392 22.3263 9.82026 22.294 9.88527 22.2214L10.5391 21.4915C10.6131 21.5001 10.6874 21.5077 10.7619 21.5143L11.2662 22.3641C11.3163 22.4486 11.4048 22.5 11.5001 22.5C11.5953 22.5 11.6838 22.4486 11.734 22.3641L12.2383 21.5143C12.3128 21.5077 12.3871 21.5001 12.4611 21.4915L13.1149 22.2214C13.1799 22.294 13.2762 22.3263 13.3696 22.3069C13.463 22.2875 13.5401 22.2191 13.5735 22.1261L13.9092 21.1911C13.9808 21.1694 14.052 21.1468 14.1228 21.1233L14.9014 21.7073C14.9787 21.7653 15.0793 21.7774 15.1673 21.7394C15.2553 21.7013 15.3182 21.6185 15.3335 21.5204L15.4883 20.5304C15.5536 20.4949 15.6184 20.4586 15.6828 20.4214L16.5582 20.8378C16.645 20.879 16.746 20.8705 16.8252 20.8152C16.9045 20.7599 16.9506 20.6658 16.9473 20.5664L16.9131 19.5603C16.9693 19.5133 17.0248 19.4657 17.0798 19.4173L18.0197 19.6483C18.1125 19.6711 18.2099 19.6422 18.2773 19.5719C18.3447 19.5016 18.3724 19.3999 18.3506 19.3031L18.1291 18.3223C18.1755 18.265 18.2212 18.207 18.2662 18.1484L19.2304 18.184C19.3256 18.1875 19.4159 18.1394 19.4688 18.0567C19.5218 17.974 19.53 17.8686 19.4905 17.7781L19.0915 16.8646C19.1271 16.7974 19.1619 16.7298 19.1959 16.6616L20.1446 16.5001C20.2386 16.4841 20.318 16.4185 20.3545 16.3267C20.3909 16.2349 20.3793 16.1299 20.3237 16.0492L19.7641 15.2368C19.7866 15.1629 19.8083 15.0886 19.8291 15.0139L20.7251 14.6636C20.8142 14.6287 20.8798 14.5482 20.8984 14.4508C20.917 14.3534 20.886 14.2529 20.8164 14.185L20.117 13.5028C20.1252 13.4256 20.1325 13.3481 20.1388 13.2702L20.9531 12.7441C21.0341 12.6917 21.0834 12.5994 21.0834 12.5C21.0834 12.4006 21.0341 12.3083 20.9531 12.2559L20.1389 11.7298C20.1325 11.6519 20.1253 11.5744 20.117 11.4972L20.8164 10.815C20.886 10.7471 20.917 10.6466 20.8984 10.5492C20.8798 10.4518 20.8142 10.3713 20.7251 10.3364L19.8291 9.98614C19.8083 9.91142 19.7867 9.8371 19.7641 9.76319L20.3237 8.95081C20.3793 8.87011 20.3909 8.76515 20.3545 8.67334C20.318 8.58152 20.2386 8.51592 20.1446 8.49992L19.196 8.33841C19.162 8.27021 19.1271 8.20252 19.0915 8.13535L19.4905 7.22193C19.53 7.13142 19.5218 7.02601 19.4688 6.94332C19.4159 6.86063 19.3256 6.81245 19.2304 6.81597L18.2663 6.85159C18.2213 6.79299 18.1755 6.73498 18.1292 6.67758L18.3506 5.69693C18.3724 5.60013 18.3447 5.49843 18.2773 5.4281C18.2099 5.35778 18.1125 5.32886 18.0197 5.35167L17.0799 5.5827C17.0249 5.5343 16.9693 5.48659 16.9131 5.4396L16.9473 4.4336C16.9506 4.3342 16.9045 4.24006 16.8252 4.18478C16.746 4.1295 16.645 4.12097 16.5582 4.16222L15.6829 4.57851C15.6185 4.54133 15.5536 4.50497 15.4883 4.46946L15.3335 3.47961C15.3182 3.38152 15.2553 3.29868 15.1673 3.26063C15.0793 3.22258 14.9787 3.23472 14.9014 3.29273L14.1229 3.87665C14.052 3.85311 13.9808 3.8305 13.9092 3.80883L13.5735 2.87392C13.5401 2.78089 13.463 2.7125 13.3696 2.69309C13.2762 2.67368 13.1799 2.70603 13.1149 2.7786L12.4611 3.50836C12.3871 3.49979 12.3128 3.4922 12.2382 3.4856L11.734 2.63594ZM11.4873 4.25689C11.6355 4.26089 11.7764 4.32537 11.8799 4.43656C11.9833 4.54775 12.0412 4.69687 12.0412 4.8521C12.0412 5.00996 11.9811 5.16136 11.8741 5.27298C11.7671 5.38461 11.622 5.44732 11.4708 5.44732C11.3195 5.44732 11.1744 5.38461 11.0674 5.27298C10.9604 5.16136 10.9003 5.00996 10.9003 4.8521C10.9003 4.77247 10.9156 4.69363 10.9453 4.62027C10.975 4.54691 11.0185 4.48052 11.0732 4.42501C11.1279 4.36951 11.1928 4.32603 11.2639 4.29715C11.335 4.26828 11.411 4.25458 11.4873 4.25689ZM12.7932 5.23679C13.7945 5.43251 14.7431 5.85333 15.5729 6.47005C16.4027 7.08676 17.094 7.88458 17.5986 8.80808L16.9255 10.3928C16.8099 10.6665 16.9291 10.988 17.1896 11.1105L18.4845 11.7095C18.5246 12.1319 18.5295 12.5571 18.4991 12.9803H17.7783C17.7068 12.9803 17.6775 13.0301 17.6775 13.1028V13.4473C17.6775 14.2588 17.2391 14.4368 16.8539 14.4808C16.4871 14.5248 16.0818 14.32 16.0304 14.0866C15.8191 12.8474 15.4713 12.561 14.9256 12.1116L14.8859 12.0789C15.592 11.6119 16.3257 10.921 16.3257 9.99851C16.3257 9.00139 15.6709 8.37363 15.2252 8.0655C14.5979 7.63488 13.9046 7.54875 13.7176 7.54875H6.27099C7.30068 6.34845 8.68087 5.53585 10.1979 5.23679L11.0764 6.19756C11.2745 6.41383 11.6028 6.42339 11.8101 6.21478L12.7932 5.23679ZM4.6863 9.64253C4.83471 9.64702 4.97559 9.7117 5.07902 9.82284C5.18245 9.93399 5.24027 10.0828 5.24021 10.2377C5.24021 10.3956 5.18011 10.547 5.07314 10.6586C4.96617 10.7703 4.82108 10.833 4.6698 10.833C4.51851 10.833 4.37343 10.7703 4.26645 10.6586C4.15948 10.547 4.09938 10.3956 4.09938 10.2377C4.09935 10.1581 4.11463 10.0793 4.14433 10.0059C4.17402 9.93256 4.21752 9.86616 4.27225 9.81066C4.32698 9.75516 4.39182 9.71168 4.46294 9.6828C4.53407 9.65392 4.61002 9.64023 4.6863 9.64253ZM18.2864 9.66933C18.4348 9.67381 18.5757 9.73849 18.6791 9.84964C18.7825 9.96078 18.8404 10.1096 18.8403 10.2645C18.8403 10.4224 18.7802 10.5738 18.6732 10.6854C18.5662 10.797 18.4212 10.8598 18.2699 10.8598C18.1186 10.8598 17.9735 10.797 17.8665 10.6854C17.7596 10.5738 17.6995 10.4224 17.6995 10.2645C17.6994 10.1849 17.7147 10.1061 17.7444 10.0327C17.7741 9.95935 17.8176 9.89296 17.8723 9.83745C17.9271 9.78195 17.9919 9.73847 18.063 9.70959C18.1341 9.68072 18.2101 9.66702 18.2864 9.66933ZM5.7611 9.76502H6.7552V14.4425H4.74866C4.50085 13.5345 4.42362 12.585 4.52123 11.6464L5.7501 11.076C6.01238 10.9535 6.1316 10.6339 6.01421 10.3602L5.7611 9.76502ZM9.90991 9.81478H12.2778C12.4007 9.81478 13.1416 9.96215 13.1416 10.5421C13.1416 11.0224 12.5731 11.1947 12.1054 11.1947H9.90807L9.90991 9.81478ZM9.90991 13.1755H11.7239C11.8889 13.1755 12.6097 13.2253 12.839 14.1861C12.8643 14.2901 12.9005 14.4772 12.9416 14.6892C13.0168 15.0778 13.1083 15.5504 13.1783 15.7497C13.2865 16.0942 13.7249 16.7832 14.1926 16.7832H17.1529C16.9545 17.0604 16.7375 17.3227 16.5036 17.5679L15.2986 17.298C15.018 17.2349 14.741 17.4224 14.6805 17.7153L14.3944 19.1086C13.4743 19.5435 12.4751 19.7661 11.465 19.7611C10.4549 19.7562 9.45777 19.5238 8.54165 19.0799L8.25552 17.6866C8.195 17.3937 7.91988 17.2062 7.63925 17.2693L6.45991 17.5334C6.24106 17.2979 6.03762 17.0472 5.85098 16.7832H11.5863C11.6505 16.7832 11.6945 16.7717 11.6945 16.7086V14.5918C11.6945 14.5306 11.6505 14.5172 11.5863 14.5172H9.90807L9.90991 13.1755ZM7.26326 18.0234C7.41166 18.0279 7.55254 18.0926 7.65597 18.2037C7.7594 18.3148 7.81723 18.4637 7.81717 18.6186C7.81717 18.7765 7.75707 18.9279 7.65009 19.0395C7.54312 19.1511 7.39803 19.2138 7.24675 19.2138C7.09547 19.2138 6.95038 19.1511 6.84341 19.0395C6.73643 18.9279 6.67634 18.7765 6.67634 18.6186C6.6763 18.539 6.69159 18.4601 6.72128 18.3868C6.75097 18.3134 6.79447 18.247 6.8492 18.1915C6.90393 18.136 6.96877 18.0925 7.0399 18.0637C7.11102 18.0348 7.18697 18.0211 7.26326 18.0234ZM15.7094 18.0502C15.8578 18.0547 15.9987 18.1194 16.1021 18.2305C16.2056 18.3416 16.2634 18.4905 16.2633 18.6454C16.2633 18.8033 16.2032 18.9547 16.0963 19.0663C15.9893 19.1779 15.8442 19.2406 15.6929 19.2406C15.5416 19.2406 15.3966 19.1779 15.2896 19.0663C15.1826 18.9547 15.1225 18.8033 15.1225 18.6454C15.1225 18.5658 15.1378 18.4869 15.1675 18.4136C15.1971 18.3402 15.2406 18.2738 15.2954 18.2183C15.3501 18.1628 15.4149 18.1193 15.4861 18.0905C15.5572 18.0616 15.6331 18.0479 15.7094 18.0502Z" fill="#EA580C"/>
</svg>
