<svg width="24" height="24" viewBox="0 0 24 24" fill="none" xmlns="http://www.w3.org/2000/svg">
<path d="M18.2059 6.52199C17.5249 6.52199 16.9309 6.72599 16.3479 6.92099C15.6669 5.74399 14.3919 4.96499 13.0199 4.96499C11.9499 4.96499 10.9769 5.45199 10.2859 6.13299C9.50692 5.15999 8.32992 4.46899 6.96792 4.46899C4.70092 4.46899 2.75492 6.32699 2.75492 8.59499C2.75492 9.16899 2.95892 9.75199 3.15392 10.336C2.59329 10.6432 2.12518 11.095 1.79826 11.6444C1.47133 12.1938 1.29753 12.8207 1.29492 13.46C1.29492 15.406 2.86192 17.08 4.81792 17.08C5.10992 17.08 5.40092 17.08 5.59592 16.982C5.98592 18.451 7.45392 19.532 9.21592 19.532C10.8699 19.532 12.2419 18.548 12.7279 17.176C13.2239 17.381 13.7109 17.576 14.1979 17.576C15.4719 17.576 16.6399 16.866 17.2229 15.814C17.5249 15.892 17.8359 15.892 18.1089 15.892C20.6489 15.892 22.7009 13.858 22.7009 11.222C22.7989 8.59499 20.7549 6.52199 18.2059 6.52199Z" fill="#60A5FA"/>
</svg>
