<svg width="24" height="24" viewBox="0 0 24 24" fill="none" xmlns="http://www.w3.org/2000/svg">
<path d="M11.9434 2.06363C11.0805 2.07581 10.2268 2.24221 9.42247 2.55497C7.99381 3.14836 6.85995 4.06678 6.22499 5.35182C5.26121 7.06017 5.10625 9.25229 6.37617 11.1572C7.54783 12.9487 9.09743 14.589 10.7151 16.475C12.1588 17.0003 12.877 15.4469 12.6615 14.8876C11.6184 13.5647 10.5072 12.2608 9.62279 10.8813C9.33754 10.3622 9.16638 9.78823 9.12076 9.19771C9.07513 8.60719 9.15609 8.01374 9.35822 7.45702C9.64168 6.70867 11.2593 4.28221 14.5437 4.29733C15.8477 4.44851 17.0307 4.52033 18.6483 6.30048C18.2673 5.17339 17.5627 4.18352 16.6225 3.4545C15.2528 2.49706 13.6099 2.00908 11.9396 2.06363H11.9434ZM12.8694 7.35497C11.8225 7.36253 11.3349 8.21292 11.5541 9.00662C12.5103 10.3862 13.7387 11.8337 14.8385 13.2473C16.0329 15.549 15.1863 17.3178 12.9034 18.8107C9.8042 20.5417 6.94688 19.2491 5.24609 17.6844C6.1305 19.5326 6.84483 20.0882 7.02625 20.2507C8.1979 21.2712 10.0877 22.2425 13.1491 21.8495C14.8726 21.4639 17.1554 20.8819 18.4253 17.7033C18.7768 16.7017 18.8977 15.6624 18.5387 14.5172C18.1985 13.2397 17.5031 12.325 16.7774 11.3839C15.6436 10.0573 13.8672 7.68379 13.3532 7.4041C13.1941 7.37049 13.032 7.35402 12.8694 7.35497Z" fill="#60A5FA"/>
</svg>
