<svg width="24" height="25" viewBox="0 0 24 25" fill="none" xmlns="http://www.w3.org/2000/svg">
<path d="M18.4163 13.2599C17.7462 13.2639 17.1659 13.4348 16.6792 13.6892C16.4995 13.3116 16.3198 12.9816 16.2898 12.7352C16.2562 12.449 16.215 12.274 16.2562 11.9322C16.2973 11.5903 16.4845 11.1053 16.4845 11.0656C16.4808 11.0298 16.4433 10.8549 16.0577 10.8509C15.6721 10.8469 15.3389 10.9304 15.3015 11.0377C15.264 11.1451 15.1892 11.3915 15.1405 11.6459C15.0731 12.0196 14.3693 13.3434 13.9687 14.0391C13.8376 13.7687 13.7253 13.5302 13.7029 13.3394C13.6692 13.0532 13.628 12.8783 13.6692 12.5364C13.7104 12.1945 13.8975 11.7095 13.8975 11.6698C13.8938 11.634 13.8564 11.4591 13.4708 11.4551C13.0851 11.4512 12.7519 11.5346 12.7145 11.642C12.6771 11.7493 12.6359 12.0037 12.5535 12.2502C12.4749 12.4967 11.5389 14.7069 11.2956 15.2833C11.172 15.5775 11.0635 15.812 10.9849 15.9711C10.9062 16.1301 10.9811 15.983 10.9736 15.9989C10.9062 16.134 10.8688 16.2096 10.8688 16.2096V16.2135C10.8164 16.3129 10.7602 16.4083 10.734 16.4083C10.7153 16.4083 10.6779 16.142 10.7415 15.7763C10.88 15.009 11.217 13.8125 11.2132 13.7687C11.2132 13.7489 11.2769 13.5382 10.9961 13.4308C10.7228 13.3235 10.6255 13.5024 10.603 13.5024C10.5805 13.5024 10.5618 13.566 10.5618 13.566C10.5618 13.566 10.8651 12.2184 9.98151 12.2184C9.42743 12.2184 8.66369 12.8584 8.28557 13.4428C8.04596 13.5819 7.5368 13.8761 6.99769 14.1901C6.79178 14.3094 6.57839 14.4366 6.37622 14.5519L6.33504 14.5042C5.26431 13.2917 3.28383 12.4331 3.36619 10.8032C3.39614 10.2109 3.59082 8.64858 7.16991 6.75635C10.1013 5.20599 12.4487 5.63134 12.8568 6.57746C13.4371 7.92906 11.6026 10.4414 8.55512 10.8032C7.39454 10.9423 6.7843 10.4653 6.6308 10.2864C6.46982 10.0996 6.44735 10.0916 6.38745 10.1274C6.29011 10.183 6.35001 10.35 6.38745 10.4494C6.4773 10.6998 6.85168 11.1451 7.48813 11.3677C8.04596 11.5625 9.40871 11.6698 11.056 10.994C12.9017 10.2347 14.3431 8.12782 13.92 6.36677C13.4895 4.57392 10.6891 3.98557 8.04222 4.98337C6.46607 5.57966 4.75889 6.50988 3.53092 7.73029C2.07083 9.17729 1.83871 10.4414 1.93605 10.9662C2.27674 12.8385 4.70648 14.0589 5.67987 14.9613C5.6312 14.9892 5.58627 15.017 5.54509 15.0408C5.0584 15.2953 3.20521 16.3249 2.74097 17.4141C2.21684 18.6464 2.82334 19.5329 3.22767 19.6522C4.47811 20.0219 5.75849 19.358 6.4511 18.2648C7.13996 17.1716 7.05759 15.7524 6.73937 15.1044L6.72814 15.0806L7.11001 14.8421C7.3571 14.687 7.60045 14.5439 7.81385 14.4207C7.69404 14.7665 7.60794 15.176 7.56301 15.7723C7.5106 16.4719 7.78015 17.3783 8.13581 17.7361C8.29305 17.8911 8.48025 17.8951 8.5963 17.8951C9.00812 17.8951 9.19531 17.5333 9.40122 17.1C9.6558 16.5713 9.88043 15.9591 9.88043 15.9591C9.88043 15.9591 9.59965 17.6168 10.3671 17.6168C10.6479 17.6168 10.9287 17.2312 11.056 17.0325V17.0364C11.056 17.0364 11.0635 17.0245 11.0785 16.9967C11.1084 16.949 11.1234 16.9211 11.1234 16.9211V16.9132C11.2357 16.7065 11.4865 16.2334 11.8609 15.4503C12.3439 14.4406 12.8081 13.1764 12.8081 13.1764C12.8081 13.1764 12.853 13.4865 12.9915 13.9953C13.0739 14.2975 13.2536 14.6274 13.3921 14.9494C13.2798 15.1164 13.2124 15.2118 13.2124 15.2118L13.2162 15.2157C13.1263 15.343 13.0252 15.4781 12.9204 15.6133C12.5385 16.0983 12.0818 16.6508 12.0219 16.8098C11.9508 16.9967 11.9657 17.1358 12.1043 17.2471C12.2053 17.3266 12.385 17.3425 12.576 17.3266C12.9204 17.3028 13.16 17.2113 13.2798 17.1557C13.467 17.0841 13.6804 16.9768 13.8863 16.8178C14.2607 16.5236 14.4891 16.1062 14.4666 15.5497C14.4554 15.2436 14.3618 14.9415 14.2457 14.6552C14.2794 14.6036 14.3131 14.5519 14.3468 14.4962C14.9383 13.5779 15.3951 12.5682 15.3951 12.5682C15.3951 12.5682 15.44 12.8783 15.5785 13.3871C15.6497 13.6455 15.7919 13.9278 15.9192 14.206C15.3651 14.687 15.0169 15.2436 14.8971 15.6093C14.6763 16.2851 14.8485 16.5912 15.1742 16.6628C15.3202 16.6946 15.5299 16.623 15.6871 16.5514C15.8818 16.4839 16.1176 16.3686 16.3348 16.1976C16.7092 15.9035 17.0686 15.494 17.0498 14.9415C17.0386 14.687 16.975 14.4366 16.8889 14.1981C17.3606 13.9914 17.9708 13.8721 18.7458 13.9715C20.4118 14.1782 20.7412 15.2833 20.6776 15.7445C20.614 16.2056 20.2658 16.46 20.1497 16.5395C20.0337 16.6151 19.9962 16.6429 20.0075 16.6985C20.0224 16.782 20.0748 16.778 20.1759 16.7621C20.3144 16.7383 21.052 16.3845 21.0819 15.5338C21.1269 14.4406 20.1497 13.248 18.4163 13.2599ZM5.56756 17.8593C5.01721 18.4993 4.24224 18.7418 3.91279 18.5351C3.55713 18.3165 3.69565 17.3743 4.37328 16.6946C4.7851 16.2811 5.32046 15.8995 5.67238 15.665C5.751 15.6133 5.8708 15.5377 6.01307 15.4463C6.03553 15.4304 6.05051 15.4225 6.05051 15.4225C6.07671 15.4066 6.10667 15.3867 6.13662 15.3668C6.38745 16.3368 6.14785 17.1875 5.56756 17.8593ZM9.59216 14.9534C9.40122 15.4503 8.99689 16.7264 8.75354 16.6548C8.54389 16.5952 8.4166 15.6292 8.71236 14.6751C8.86211 14.1941 9.18034 13.6217 9.36753 13.399C9.67078 13.0413 10.0002 12.922 10.0826 13.0691C10.1799 13.2599 9.71196 14.6433 9.59216 14.9534ZM12.9129 16.6389C12.8306 16.6826 12.7557 16.7144 12.722 16.6906C12.6958 16.6747 12.7557 16.615 12.7557 16.615C12.7557 16.615 13.1712 16.142 13.336 15.9234C13.4296 15.7961 13.5419 15.6491 13.6617 15.4821V15.5298C13.6617 16.1022 13.145 16.4839 12.9129 16.6389ZM15.4737 16.0188C15.4138 15.9711 15.4213 15.824 15.6234 15.3628C15.7021 15.18 15.8818 14.8739 16.1925 14.5837C16.2299 14.7029 16.2524 14.8182 16.2487 14.9256C16.2449 15.6411 15.7657 15.9074 15.4737 16.0188Z" fill="#F472B6"/>
</svg>
