<svg width="24" height="25" viewBox="0 0 24 25" fill="none" xmlns="http://www.w3.org/2000/svg">
<path fill-rule="evenodd" clip-rule="evenodd" d="M20.4879 15.5C20.713 14.8632 20.8684 14.1935 20.9451 13.5H11C10.4477 13.5 10 13.0523 10 12.5C10 11.9477 10.4477 11.5 11 11.5H20.9451C20.8684 10.8065 20.713 10.1368 20.4879 9.5H13C12.4477 9.5 12 9.05228 12 8.5C12 7.94772 12.4477 7.5 13 7.5H19.4845C17.8699 5.08803 15.1204 3.5 12 3.5C7.02944 3.5 3 7.52944 3 12.5C3 17.4706 7.02944 21.5 12 21.5C15.1204 21.5 17.8699 19.912 19.4845 17.5H9C8.44772 17.5 8 17.0523 8 16.5C8 15.9477 8.44772 15.5 9 15.5H20.4879Z" fill="#2563EB"/>
</svg>
