<svg width="24" height="25" viewBox="0 0 24 25" fill="none" xmlns="http://www.w3.org/2000/svg">
<path fill-rule="evenodd" clip-rule="evenodd" d="M6.01685 10.1979C6.17385 10.4143 7.49782 10.8226 9.47274 11.2478C11.4477 11.6263 13.5015 13.1208 15.0987 12.66C16.1791 12.3477 17.3512 9.5648 17.3512 9.15148V9.10905C17.3512 8.82049 17.1348 8.5888 16.7673 8.39614C15.2608 7.62638 14.9757 7.34291 14.4172 7.49653C11.5181 8.29685 6.39961 7.88778 6.01685 10.1979Z" fill="#7F1D1D"/>
<path fill-rule="evenodd" clip-rule="evenodd" d="M6.01685 15.8485C6.17385 16.0683 7.49782 16.4731 9.47274 16.8992C11.6793 17.3015 13.5982 18.6127 15.1963 18.151C16.2767 17.8387 17.3512 15.2162 17.3512 14.802V14.7613C17.3512 14.4736 17.1348 14.2411 16.7673 14.0493C15.6181 13.4382 14.0998 12.7652 13.5422 12.9188C10.638 13.7174 6.75606 13.8931 6.01685 15.8485Z" fill="#7F1D1D"/>
<path fill-rule="evenodd" clip-rule="evenodd" d="M15.1921 4.59227C12.5221 5.36374 8.28629 5.79912 6.00415 5.79912V10.1572C6.00488 10.1722 6.01055 10.1865 6.02028 10.1979C7.57763 10.1979 12.3855 9.68869 15.2863 8.89092C15.7923 8.76215 16.2883 8.59737 16.7707 8.39783C17.1255 8.23827 17.3546 8.07023 17.3546 7.8954V3.5C17.3512 3.91416 16.2725 4.2808 15.1921 4.59227Z" fill="#F87171"/>
<path fill-rule="evenodd" clip-rule="evenodd" d="M15.1921 10.2438C13.594 10.7046 11.4375 11.0475 9.47277 11.2478C8.1539 11.3827 6.92159 11.4532 6.00415 11.4532V15.8078C6.00488 15.8228 6.01055 15.8371 6.02028 15.8486C7.57763 15.8486 12.3855 15.3393 15.2863 14.5424C15.7921 14.4133 16.2882 14.2485 16.7707 14.0493C17.1255 13.8889 17.3546 13.7217 17.3546 13.5469V9.15149C17.3512 9.5648 16.2725 9.93144 15.1921 10.2438Z" fill="#F87171"/>
<path fill-rule="evenodd" clip-rule="evenodd" d="M15.1921 15.8986C13.594 16.3595 11.4375 16.7015 9.47275 16.9026C8.15218 17.0376 6.91817 17.108 6.00073 17.108V21.5C7.54196 21.5 12.3744 20.9951 15.2829 20.1939C16.3548 19.8985 17.3512 19.5625 17.3512 19.1975V14.8021C17.3512 15.2197 16.2725 15.5829 15.1921 15.8986Z" fill="#F87171"/>
</svg>
