<svg width="24" height="24" viewBox="0 0 24 24" fill="none" xmlns="http://www.w3.org/2000/svg">
<path d="M7.49263 20.2344C5.01831 18.7987 2.90839 17.5419 2.80399 17.4416C2.62823 17.2727 2.61423 16.8682 2.61583 12.0007C2.61663 9.10849 2.65335 6.68761 2.69719 6.62081C2.76439 6.51857 11.8916 1.15521 11.998 1.15521C12.1048 1.15521 21.2316 6.51857 21.2988 6.62081C21.4346 6.82753 21.399 17.2224 21.2619 17.3872C21.1677 17.5008 17.2602 19.8032 12.4283 22.5923L11.991 22.8447L7.49263 20.2344ZM13.483 21.1567C14.2772 20.7016 15.0126 20.2324 15.117 20.1141C15.5303 19.6457 15.2946 18.3199 14.4833 16.5499C14.2086 15.9506 14.0121 15.4319 14.0466 15.3974C14.2199 15.2242 16.4466 17.105 16.9038 17.8107C17.6074 18.8967 17.3791 18.8725 18.8738 18.0195C19.6009 17.6047 20.2917 17.1779 20.4091 17.0711C20.6043 16.8935 20.6226 16.7294 20.6226 15.1498C20.6226 13.1783 20.6531 13.2506 19.5949 12.7151C19.0084 12.4183 17.4288 12.1189 16.4253 12.1143C16.1751 12.1131 15.9417 12.0655 15.9064 12.0083C15.825 11.8766 16.1744 11.6991 17.5308 11.1831C18.3856 10.858 18.8226 10.7575 19.592 10.7091L20.5683 10.6476V6.96417L19.2142 6.17513C18.4694 5.74113 17.768 5.38609 17.6554 5.38609C17.2885 5.38609 16.1838 6.14905 15.7128 6.72769C15.4597 7.03873 15.0329 7.61921 14.7644 8.01769C14.4958 8.41625 14.2326 8.74377 14.1793 8.74569C14.0434 8.75049 14.1837 7.39729 14.4418 6.21337C14.5759 5.59833 14.7806 5.02553 14.9822 4.70089C15.1607 4.41353 15.3068 4.11529 15.3068 4.03825C15.3068 3.91233 12.202 2.02313 11.9951 2.02313C11.8509 2.02313 8.93431 3.75713 8.79383 3.92633C8.70471 4.03377 8.67735 4.37433 8.70935 4.97969C8.75095 5.76729 8.82487 6.03009 9.32759 7.17617C9.64167 7.89217 9.92463 8.53897 9.95639 8.61361C10.0849 8.91457 9.72919 8.70729 8.70831 7.88609C7.47951 6.89769 7.11711 6.51273 6.73679 5.79161C6.58775 5.50897 6.41679 5.28153 6.35711 5.28617C6.29735 5.29073 5.61375 5.67065 4.83815 6.13033L3.42775 6.96617V10.754L4.02295 11.1096C4.80535 11.5771 5.13223 11.663 6.68231 11.8076C7.39831 11.8744 8.02631 11.9662 8.07791 12.0115C8.19839 12.1171 7.81119 12.3123 6.46527 12.8243C5.61047 13.1494 5.17343 13.2499 4.40407 13.2983L3.42775 13.3599L3.39799 15.116C3.36279 17.1903 3.20799 16.9272 5.10055 18.0071L6.40071 18.749L6.97223 18.441C7.69383 18.0523 8.21903 17.5153 9.05079 16.316C9.41287 15.7939 9.74815 15.3668 9.79591 15.3668C9.93031 15.3668 9.90087 15.7792 9.66679 17.1731C9.50439 18.1405 9.35639 18.6451 9.06887 19.2128C8.74519 19.8516 8.70943 19.9898 8.83543 20.1158C8.98951 20.2699 11.8322 21.9595 11.9642 21.9754C12.0053 21.9803 12.6887 21.612 13.483 21.1569L13.483 21.1567ZM11.2386 14.0117C10.647 13.8043 10.034 13.0989 9.90023 12.4717C9.53271 10.7485 11.2879 9.30913 12.8659 10.0397C14.2496 10.6803 14.5803 12.3791 13.5331 13.4663C12.8846 14.1395 12.121 14.3211 11.2386 14.0117ZM12.5218 13.3745C12.7166 13.2931 13.008 13.0697 13.1693 12.878C13.7352 12.2055 13.4674 11.0433 12.6579 10.6592C11.6205 10.1669 10.5334 10.871 10.5334 12.0352C10.5334 12.6038 10.893 13.1271 11.4502 13.3699C11.8761 13.5554 12.0867 13.5563 12.5218 13.3745Z" fill="#71717A"/>
</svg>
