<svg width="24" height="24" viewBox="0 0 24 24" fill="none" xmlns="http://www.w3.org/2000/svg">
<path d="M5.91793 8.1015C3.76493 8.1015 2.01953 9.8469 2.01953 11.9999C2.01953 14.153 3.76493 15.8983 5.91793 15.8983C7.14843 15.8983 8.24443 15.3279 8.95893 14.4374C8.96057 14.4353 8.96124 14.4335 8.96284 14.4315L8.96479 14.4335C9.00221 14.3865 9.03697 14.3396 9.07221 14.2909C9.22173 14.0951 9.33008 13.9242 9.43159 13.6894C9.44186 13.6681 9.451 13.6464 9.46089 13.6249C9.47079 13.6032 9.48068 13.5804 9.49019 13.5585H9.62105C9.59282 13.675 9.55275 13.7905 9.50386 13.9062C9.3949 14.1399 9.26061 14.3878 9.123 14.6112C9.12074 14.6147 9.1194 14.6174 9.11714 14.621C9.48232 15.0228 9.92731 15.3446 10.4237 15.5644C10.9202 15.7842 11.457 15.8981 11.9999 15.8984C12.5428 15.8981 13.0796 15.7842 13.5761 15.5644C14.0726 15.3446 14.5176 15.0228 14.8827 14.621C14.8805 14.6174 14.879 14.6147 14.8768 14.6112C14.7391 14.3878 14.6029 14.14 14.494 13.9062C14.4451 13.7906 14.405 13.675 14.3768 13.5585H14.5077C14.5304 13.6106 14.5531 13.662 14.578 13.7128C14.6765 13.9353 14.7812 14.1017 14.9257 14.2909C14.9331 14.3011 14.9417 14.3101 14.9491 14.3202C14.9519 14.324 14.9541 14.3282 14.9569 14.3319C14.9821 14.366 15.0087 14.3984 15.035 14.4316C15.0354 14.432 15.0347 14.4332 15.035 14.4336L15.037 14.4356C15.7515 15.3273 16.8504 15.8985 18.0819 15.8985C20.2349 15.8985 21.9803 14.1532 21.9803 12.0001C21.9803 9.84695 20.2349 8.10155 18.0819 8.10155C17.536 8.10159 16.9947 8.21561 16.496 8.43749C15.9973 8.65937 15.551 8.98325 15.1855 9.38866C15.4243 9.77441 15.6021 10.0656 15.7226 10.3633H15.5859C15.3478 9.97451 15.2669 9.82022 15.041 9.56054C14.3265 8.67072 13.2299 8.10154 12 8.10154C10.7702 8.10154 9.67351 8.67085 8.95901 9.56054C8.7331 9.82022 8.65017 9.97451 8.41213 10.3633H8.27736C8.3979 10.0656 8.57374 9.77441 8.81252 9.38866C8.44702 8.98325 8.00069 8.65937 7.50202 8.43749C7.00328 8.21561 6.46383 8.10154 5.91793 8.1015ZM5.91793 9.8163C7.12363 9.8163 8.10153 10.7942 8.10153 11.9999C8.10153 13.2056 7.12365 14.1835 5.91793 14.1835C4.71221 14.1835 3.73433 13.2056 3.73433 11.9999C3.73433 10.7942 4.71221 9.8163 5.91793 9.8163ZM11.9999 9.8163C13.2056 9.8163 14.1835 10.7942 14.1835 11.9999C14.1835 13.2056 13.2056 14.1835 11.9999 14.1835C10.7942 14.1835 9.81633 13.2056 9.81633 11.9999C9.81633 11.9623 9.81641 11.9258 9.81828 11.8886C9.87676 10.735 10.8319 9.8163 11.9999 9.8163ZM18.0819 9.8163C19.2876 9.8163 20.2635 10.7942 20.2635 11.9999C20.2635 13.2056 19.2876 14.1835 18.0819 14.1835C16.8761 14.1835 15.8983 13.2056 15.8983 11.9999C15.8983 10.7942 16.8761 9.8163 18.0819 9.8163Z" fill="#14B8A6"/>
</svg>
