<svg width="24" height="24" viewBox="0 0 24 24" fill="none" xmlns="http://www.w3.org/2000/svg">
<path d="M21.7897 17.796C22.2457 18.5939 22.2945 19.4324 21.9119 20.1C21.5292 20.7675 20.7803 21.1421 19.8683 21.1421H18.1343C18.1587 20.8164 18.1668 20.4907 18.1668 20.1651C18.1668 19.7988 18.1505 19.4324 18.126 19.0742H19.2659C19.5427 19.0742 19.7706 18.8462 19.7706 18.5694C19.7706 18.488 19.7463 18.3985 19.7136 18.3252L12.4434 5.68198C12.3539 5.51914 12.183 5.42146 12.0039 5.42146C11.8247 5.42146 11.6619 5.51098 11.5723 5.66566L10.4163 7.66846C13.9252 10.3145 16.278 14.4095 16.6036 19.0581C16.6281 19.4163 16.6444 19.7827 16.6444 20.1491C16.6444 20.4747 16.6281 20.8004 16.6117 21.1261H10.9535C10.9861 20.8004 11.0023 20.4747 11.0023 20.1491C11.0023 19.7827 10.978 19.4163 10.9373 19.0583C10.6605 16.5018 9.4067 14.2304 7.5587 12.6347L6.7607 14.0186C8.15294 15.3131 9.1055 17.0798 9.3659 19.0662C9.41486 19.4244 9.43922 19.7907 9.43922 20.1571C9.43922 20.4909 9.41486 20.8166 9.38222 21.1341H4.13114C3.21122 21.1341 2.46218 20.7515 2.08766 20.0921C1.7051 19.4325 1.75394 18.5859 2.20982 17.7881L3.28454 15.9399C3.8999 16.2717 4.45568 16.7037 4.92902 17.2182L4.28582 18.309C4.24502 18.3823 4.22882 18.4638 4.22066 18.5533C4.22066 18.8301 4.44866 19.058 4.72538 19.058H7.27358C7.0665 17.864 6.5179 16.7555 5.69414 15.8666C5.22206 15.3537 4.66022 14.9222 4.04966 14.5886L6.89102 9.64678C7.49342 9.98062 8.07158 10.3713 8.60066 10.811C11.0512 12.7975 12.7038 15.7365 13.0051 19.0581H14.5276C14.2182 15.1747 12.2644 11.7473 9.36602 9.4759C8.82062 9.05254 8.24258 8.66182 7.64006 8.32798L10.0661 4.11082C10.5221 3.31294 11.2303 2.85706 11.9874 2.85706C12.7528 2.85706 13.4529 3.31306 13.9087 4.11082L21.7897 17.796Z" fill="#F472B6"/>
</svg>
