<svg width="24" height="24" viewBox="0 0 24 24" fill="none" xmlns="http://www.w3.org/2000/svg">
<path d="M18.3306 8.27259V15.6872L12.0301 19.4148L11.9731 19.4667V22.2379L12.0301 22.2917L20.9034 17.1662V6.83461L20.8195 6.81396L18.318 8.21249L18.3306 8.27288" fill="#01579B"/>
<path d="M5.7096 15.7481L12.0302 19.4149V22.2917L3.09619 17.146V6.85477L3.18787 6.84094L5.68224 8.29112L5.7096 8.37416V15.7483" fill="#0288D1"/>
<path d="M5.7096 8.3734L3.09619 6.85401L12.01 1.70831L20.9034 6.83375L18.3306 8.27212L12.01 4.66607L5.7096 8.3734Z" fill="#4FC3F7"/>
<path d="M11.9215 14.8995L11.853 14.8297V12.0455L11.9215 12.0101L11.9381 11.9415L14.325 10.5491L14.398 10.5654V13.4343L11.9215 14.8995Z" fill="#2F406A"/>
<path d="M9.40381 13.5238V10.545L9.47293 10.5416L11.901 11.9546L11.9217 12.0102V14.8996L9.40381 13.5238Z" fill="#2379BD"/>
<path d="M11.8804 9.07999L9.40381 10.5453L11.9217 12.0106L14.3983 10.5659L11.8804 9.07999Z" fill="#03AFEF"/>
<path d="M8.83993 16.7158L8.77148 16.646V13.8617L8.83993 13.8264L8.85654 13.7577L11.2434 12.3654L11.3164 12.3817V15.2503L8.83984 16.7157" fill="#01579B"/>
<path d="M6.32187 15.3401V12.3612L6.39099 12.3578L8.81903 13.7709L8.83967 13.8266V16.716L6.32178 15.3401" fill="#0288D1"/>
<path d="M8.79848 10.8963L6.32178 12.3615L8.83976 13.8269L11.3164 12.3822L8.79848 10.8963Z" fill="#4FC3F7"/>
<path d="M15.2241 16.7849L15.1558 16.7151V13.9309L15.2242 13.8955L15.2408 13.8269L17.6278 12.4345L17.7007 12.4508V15.3195L15.2241 16.7848" fill="#01579B"/>
<path d="M12.7061 15.4092V12.4304L12.7752 12.427L15.2032 13.8401L15.2239 13.8958V16.7851L12.7061 15.4092Z" fill="#0288D1"/>
<path d="M15.1827 10.9645L12.7061 12.4297L15.2239 13.895L17.7006 12.4503L15.1827 10.9645Z" fill="#4FC3F7"/>
<path d="M12.1417 18.6012L12.0732 18.5314V15.7471L12.1417 15.7118L12.1583 15.6431L14.5452 14.2508L14.6182 14.2671V17.136L12.1416 18.6013" fill="#01579B"/>
<path d="M9.62461 17.2256V14.2467L9.69373 14.2433L12.1219 15.6563L12.1424 15.712V18.6015L9.62461 17.2256Z" fill="#0288D1"/>
<path d="M12.1002 12.7808L9.62354 14.2461L12.1415 15.7114L14.6181 14.2667L12.1002 12.7808Z" fill="#4FC3F7"/>
<path d="M11.9215 10.951L11.853 10.8811V8.0969L11.9215 8.06157L11.9381 7.99293L14.325 6.60065L14.398 6.61697V9.48564L11.9215 10.951Z" fill="#01579B"/>
<path d="M9.40381 9.57532V6.59644L9.47293 6.59308L11.901 8.00601L11.9217 8.06169V10.9512L9.40381 9.57532Z" fill="#0288D1"/>
<path d="M11.8804 5.13049L9.40381 6.59584L11.9217 8.06118L14.3983 6.61648L11.8804 5.13049Z" fill="#4FC3F7"/>
<path d="M8.83993 12.7673L8.77148 12.6975V9.91332L8.83993 9.87789L8.85654 9.80925L11.2434 8.41687L11.3164 8.43319V11.3021L8.83993 12.7673Z" fill="#01579B"/>
<path d="M6.32187 11.3917V8.41288L6.39099 8.40942L8.81903 9.82254L8.83967 9.87822V12.7675L6.32178 11.3917" fill="#0288D1"/>
<path d="M8.79858 6.94681L6.32178 8.41216L8.83976 9.8774L11.3164 8.4327L8.79848 6.94672" fill="#4FC3F7"/>
<path d="M15.2241 12.8365L15.1558 12.7667V9.98247L15.2242 9.94705L15.2408 9.87841L17.6278 8.48602L17.7007 8.50234V11.3712L15.2241 12.8365Z" fill="#01579B"/>
<path d="M12.7061 11.4598V8.48102L12.7752 8.47766L15.2032 9.89059L15.2239 9.94627V12.8357L12.7061 11.4598Z" fill="#0288D1"/>
<path d="M15.1827 7.01597L12.7061 8.48131L15.2239 9.94656L17.7006 8.50185L15.1827 7.01597Z" fill="#4FC3F7"/>
<path d="M12.1417 14.6518L12.0732 14.582V11.7977L12.1417 11.7624L12.1583 11.6938L14.5452 10.3014L14.6182 10.3177V13.1864L12.1416 14.6517" fill="#01579B"/>
<path d="M9.62461 13.2761V10.2972L9.69373 10.2938L12.1219 11.7069L12.1424 11.7626V14.652L9.62461 13.2761Z" fill="#0288D1"/>
<path d="M12.1002 8.83228L9.62354 10.2976L12.1415 11.763L14.6181 10.3183L12.1002 8.83228Z" fill="#4FC3F7"/>
</svg>
