<svg width="24" height="24" viewBox="0 0 24 24" fill="none" xmlns="http://www.w3.org/2000/svg">
<path d="M10.0974 15.4324C10.866 14.906 11.394 14.096 11.5654 13.1803C11.7368 12.2647 11.5374 11.3184 11.0112 10.5498L8.11531 12.5319C7.73036 12.7938 7.25723 12.8925 6.79967 12.8061C6.3421 12.7198 5.93746 12.4555 5.67446 12.0712C5.41234 11.6862 5.31354 11.213 5.39971 10.7553C5.48588 10.2976 5.74999 9.89276 6.13415 9.62944L8.77973 7.81857L10.4771 6.65537C10.8578 6.39481 11.1835 6.06179 11.4356 5.67533C11.6876 5.28888 11.8611 4.85656 11.946 4.40306C12.031 3.94956 12.0258 3.48377 11.9307 3.0323C11.8356 2.58082 11.6525 2.1525 11.3918 1.77179L8.49591 3.75854L4.15206 6.72795L4.14648 6.73354C3.57545 7.12441 3.08706 7.624 2.70922 8.20374C2.33139 8.78349 2.07153 9.43201 1.94449 10.1122C1.81744 10.7925 1.82572 11.4911 1.96883 12.1681C2.11195 12.8452 2.3871 13.4873 2.77855 14.058C4.41355 16.4597 7.69563 17.073 10.0974 15.4324ZM13.9071 8.56767C13.896 8.57325 13.8904 8.57884 13.8848 8.58442L13.9071 8.56767C13.1385 9.09403 12.6105 9.90412 12.4391 10.8198C12.2678 11.7354 12.4671 12.6816 12.9933 13.4503L15.8883 11.4682C16.0785 11.3372 16.2928 11.2451 16.5189 11.1972C16.7449 11.1494 16.9781 11.1469 17.2052 11.1897C17.4322 11.2325 17.6485 11.3199 17.8415 11.4468C18.0346 11.5736 18.2007 11.7375 18.3301 11.9289C18.881 12.7291 18.6762 13.8197 17.876 14.3706L15.2304 16.1815L13.5275 17.3447C13.1467 17.6053 12.821 17.9383 12.5689 18.3247C12.3169 18.7112 12.1434 19.1435 12.0585 19.597C11.9735 20.0505 11.9788 20.5163 12.0739 20.9678C12.169 21.4193 12.3521 21.8476 12.6127 22.2283L15.5086 20.2462L19.8515 17.2721C21.0046 16.4828 21.7971 15.2678 22.0549 13.8944C22.3126 12.521 22.0144 11.1014 21.226 9.94769C20.8374 9.37491 20.3394 8.88461 19.7606 8.50499C19.1818 8.12536 18.5337 7.86391 17.8535 7.73565C17.1734 7.6074 16.4745 7.61489 15.7973 7.75767C15.12 7.90046 14.4776 8.17574 13.9071 8.56767Z" fill="#A855F7"/>
</svg>
