<svg width="24" height="24" viewBox="0 0 24 24" fill="none" xmlns="http://www.w3.org/2000/svg">
<path d="M6.959 2.50001C6.35258 2.49869 5.75188 2.61716 5.19136 2.84862C4.63085 3.08008 4.12157 3.41997 3.69277 3.84877C3.26396 4.27758 2.92407 4.78686 2.69262 5.34737C2.46116 5.90788 2.34269 6.50859 2.34401 7.11501V17.072C2.34269 17.6784 2.46116 18.2791 2.69262 18.8397C2.92407 19.4002 3.26396 19.9094 3.69277 20.3382C4.12157 20.7671 4.63085 21.1069 5.19136 21.3384C5.75188 21.5699 6.35258 21.6883 6.959 21.687H16.916C17.5224 21.6883 18.1231 21.5699 18.6836 21.3384C19.2442 21.1069 19.7534 20.7671 20.1822 20.3382C20.611 19.9094 20.9509 19.4002 21.1824 18.8397C21.4139 18.2791 21.5323 17.6784 21.531 17.072V7.11501C21.5323 6.50859 21.4139 5.90788 21.1824 5.34737C20.9509 4.78686 20.611 4.27758 20.1822 3.84877C19.7534 3.41997 19.2442 3.08008 18.6836 2.84862C18.1231 2.61716 17.5224 2.49869 16.916 2.50001H6.959ZM11.897 5.19101C12.7915 5.19114 13.6773 5.36748 14.5036 5.70995C15.33 6.05241 16.0808 6.55431 16.7132 7.18697C17.3456 7.81963 17.8471 8.57066 18.1892 9.39717C18.5313 10.2237 18.7073 11.1095 18.707 12.004H13.43L9.938 7.28701L10.637 12.004H5.086C5.08574 11.1095 5.26169 10.2237 5.60379 9.39717C5.9459 8.57066 6.44746 7.81963 7.07984 7.18697C7.71222 6.55431 8.46303 6.05241 9.28939 5.70995C10.1158 5.36748 11.0015 5.19114 11.896 5.19101H11.897Z" fill="#FBBF24"/>
</svg>
