<svg width="24" height="24" viewBox="0 0 24 24" fill="none" xmlns="http://www.w3.org/2000/svg">
<path d="M9.16389 21.221L8.18089 21.165C4.77889 20.975 2.52689 20.451 2.05589 19.738C1.91989 19.533 1.90989 19.223 2.03389 19.057C2.14889 18.903 2.41089 18.777 2.77789 18.702L3.09089 18.638L3.46389 18.76C5.03189 19.277 6.36689 19.349 8.33889 19.023C9.15889 18.888 9.59889 18.733 10.0749 18.41C10.2579 18.286 10.3349 18.258 10.4879 18.258C11.1079 18.256 12.0689 18.09 12.5539 17.901C13.9459 17.357 15.2089 15.878 15.5329 14.411C15.6919 13.694 15.6049 12.581 15.3219 11.718L15.1919 11.321L15.2199 10.574C15.2429 9.96797 15.2669 9.75597 15.3459 9.45097C15.6359 8.34297 16.3369 7.57297 17.3029 7.30597C17.6769 7.20297 18.4729 7.21297 18.8919 7.32597C19.5017 7.48283 20.0547 7.80906 20.4869 8.26697C20.9919 8.81497 21.1939 9.29197 21.2219 10.005C21.2429 10.555 21.1879 10.814 20.9389 11.321C20.7279 11.751 20.3969 12.154 20.0299 12.428C19.8799 12.541 19.7279 12.658 19.6939 12.688C19.6419 12.734 19.6269 12.88 19.6069 13.525C19.5929 13.955 19.5539 14.511 19.5209 14.76C19.0629 18.114 17.2869 20.181 14.2139 20.934C13.1909 21.184 12.8439 21.217 11.0309 21.226C10.1229 21.231 9.28289 21.228 9.16389 21.221ZM5.19689 18.344L4.74689 18.274L4.44689 17.952C2.93289 16.339 2.36189 13.95 3.01689 11.972C3.66289 10.019 5.33689 8.58197 7.51289 8.11197C8.06989 7.99097 9.42489 7.97897 9.94989 8.08897C10.5154 8.20446 11.0637 8.39269 11.5809 8.64897C13.4089 9.55297 14.5629 11.144 14.7859 13.07C14.8969 14.025 14.6559 14.863 14.0229 15.721C13.3109 16.687 12.4049 17.246 11.3419 17.375L11.1089 17.403L11.3759 17.126C11.8509 16.631 11.9719 16.196 11.9719 14.976C11.9719 14.293 11.9609 14.145 11.8849 13.842C11.7029 13.121 11.4089 12.603 10.9179 12.137C10.2749 11.526 9.47789 11.214 8.56889 11.217C7.27389 11.222 6.37289 12.045 6.37289 13.223C6.37289 13.621 6.44189 13.918 6.61289 14.256C6.74789 14.525 7.05889 14.876 7.29289 15.025C7.66089 15.258 8.27689 15.375 8.48789 15.25C8.54066 15.2218 8.58617 15.1817 8.62084 15.1329C8.65551 15.0841 8.6784 15.028 8.6877 14.9689C8.697 14.9097 8.69247 14.8493 8.67446 14.7922C8.65644 14.7351 8.62544 14.683 8.58389 14.64C8.49389 14.539 8.43389 14.514 8.21989 14.486C7.88289 14.443 7.78289 14.4 7.57789 14.211C7.31789 13.972 7.18289 13.641 7.18089 13.247C7.17889 12.978 7.19489 12.899 7.29089 12.704C7.42389 12.434 7.68689 12.207 7.99389 12.101C8.32089 11.987 8.97389 12.005 9.37989 12.139C10.2339 12.42 10.8359 13.057 11.0789 13.936C11.1329 14.132 11.1489 14.337 11.1489 14.839C11.1489 15.409 11.1379 15.522 11.0569 15.78C10.9539 16.107 10.7469 16.538 10.5689 16.799C10.2739 17.228 9.71589 17.726 9.28589 17.943C8.59489 18.291 6.30589 18.516 5.19589 18.343L5.19689 18.344ZM19.1989 6.57797L18.9549 6.49997L19.0949 6.09997C19.6319 4.55597 20.4289 3.57897 21.1519 3.57897C21.7189 3.57897 22.1949 4.16697 22.0139 4.64597C21.9689 4.76597 21.7699 4.99097 21.6439 5.06497C21.5999 5.08997 21.3339 5.11897 21.0469 5.12997C20.5499 5.14897 20.5229 5.15397 20.3589 5.26897C20.1379 5.42297 19.8559 5.84397 19.6689 6.29897C19.5879 6.49897 19.5029 6.65997 19.4809 6.65897C19.3857 6.63631 19.2916 6.60928 19.1989 6.57797ZM17.0139 6.51797C16.9459 6.40297 16.8869 5.68097 16.8879 4.97297C16.8889 4.33397 16.9029 4.10997 16.9579 3.89297C17.1519 3.12797 17.4869 2.77197 18.0129 2.77197C18.6009 2.77197 18.9449 3.19197 18.7949 3.72897C18.7229 3.98697 18.6119 4.09397 18.2039 4.29697C17.8919 4.45197 17.8099 4.51297 17.7079 4.66597C17.5319 4.92797 17.4799 5.25597 17.5079 5.91897L17.5309 6.45697L17.3659 6.48397C17.2759 6.49797 17.1639 6.51897 17.1169 6.53097C17.0709 6.54197 17.0249 6.53597 17.0139 6.51797Z" fill="#CFD8DC"/>
</svg>
