<svg width="24" height="24" viewBox="0 0 24 24" fill="none" xmlns="http://www.w3.org/2000/svg">
<path d="M9.1401 20.577C9.1401 21.133 9.5381 21.53 10.0941 21.53H13.9061C14.4621 21.53 14.8591 21.133 14.8591 20.577V19.624H9.1411L9.1401 20.577ZM12.0001 2.46899C8.3471 2.46899 5.3291 5.48699 5.3291 9.13999C5.3291 11.443 6.4411 13.429 8.1881 14.62V16.764C8.1881 17.32 8.5851 17.717 9.1411 17.717H14.8591C15.4151 17.717 15.8121 17.32 15.8121 16.764V14.62C17.5591 13.429 18.6721 11.443 18.6721 9.13999C18.6721 5.48699 15.6531 2.46899 12.0001 2.46899ZM14.7001 13.032L13.9061 13.588V15.812H10.0941V13.588L9.3001 13.032C8.66482 12.6006 8.1446 12.0205 7.78469 11.3422C7.42479 10.6639 7.23612 9.90788 7.2351 9.13999C7.23906 7.87745 7.74235 6.66776 8.63511 5.775C9.52786 4.88225 10.7376 4.37895 12.0001 4.37499C13.2626 4.37895 14.4723 4.88225 15.3651 5.775C16.2578 6.66776 16.7611 7.87745 16.7651 9.13999C16.7641 9.90788 16.5754 10.6639 16.2155 11.3422C15.8556 12.0205 15.3354 12.6006 14.7001 13.032Z" fill="#CFD8DC"/>
</svg>
