<svg width="24" height="24" viewBox="0 0 24 24" fill="none" xmlns="http://www.w3.org/2000/svg">
<path d="M21.6182 18.3178L12.8243 4.63851C12.736 4.49979 12.6142 4.38558 12.4701 4.30646C12.326 4.22734 12.1642 4.18585 11.9998 4.18585C11.8354 4.18585 11.6737 4.22734 11.5296 4.30646C11.3855 4.38558 11.2637 4.49979 11.1754 4.63851L2.38147 18.3178C2.28889 18.4655 2.23748 18.6352 2.23257 18.8093C2.22765 18.9835 2.2694 19.1559 2.3535 19.3085C2.43759 19.4611 2.56097 19.5884 2.71085 19.6773C2.86073 19.7662 3.03165 19.8134 3.2059 19.814H20.7938C20.968 19.8134 21.139 19.7662 21.2888 19.6773C21.4387 19.5884 21.5621 19.4611 21.6462 19.3085C21.7303 19.1559 21.772 18.9835 21.7671 18.8093C21.7622 18.6352 21.7108 18.4655 21.6182 18.3178ZM12 6.95897L14.5955 11.0201H12L10.0458 12.9743L8.88554 11.814L12 6.95897Z" fill="#71717A"/>
</svg>
