<svg width="24" height="24" viewBox="0 0 24 24" fill="none" xmlns="http://www.w3.org/2000/svg">
<path fill-rule="evenodd" clip-rule="evenodd" d="M16.3319 7.84052C15.9649 9.16508 15.1669 13.0702 15.1669 13.0702C15.1669 13.0702 13.6993 12.524 12.03 12.5214H12.0178C11.9261 12.5218 11.8355 12.524 11.7451 12.527V21.7616H13.2256V21.7623H14.5148V21.7616H19.1396C19.1641 19.9486 18.6881 15.7604 18.6881 15.7604C18.4468 15.2552 18.7898 14.0602 18.7898 14.0602C16.8236 12.0442 16.332 7.84064 16.332 7.84064L16.3319 7.84052ZM15.5876 17.5869C16.8018 17.5869 15.894 18.6158 15.7871 18.7329H13.4917C13.701 18.4711 14.4906 17.5869 15.5876 17.5869Z" fill="#4E4E4E"/>
<path fill-rule="evenodd" clip-rule="evenodd" d="M7.73032 7.84009C7.73032 7.84009 7.23868 12.0442 5.272 14.06C5.272 14.06 5.6152 15.2555 5.374 15.7604C5.374 15.7604 4.89724 19.95 4.92208 21.7616H9.19528V21.7624H10.7649V21.7616H12.0386V12.521H12.0329C10.363 12.5239 8.8954 13.0705 8.8954 13.0705C8.8954 13.0705 8.09704 9.16477 7.7302 7.83997L7.73032 7.84009ZM8.45392 17.5871C9.55144 17.5871 10.3408 18.4711 10.5498 18.733H8.25448C8.14816 18.6158 7.24048 17.587 8.45392 17.587V17.5871Z" fill="#707070"/>
<path fill-rule="evenodd" clip-rule="evenodd" d="M15.9789 19.4916H13.4321V19.5183C13.4321 20.4071 14.2011 21.1269 15.1031 21.1269C16.0055 21.1269 16.7746 20.4069 16.7746 19.5183V19.4916H15.9789Z" fill="#4E4E4E"/>
<path fill-rule="evenodd" clip-rule="evenodd" d="M14.0686 19.4916V19.5183C14.0686 20.0471 14.4945 20.4753 15.0238 20.4753C15.5531 20.4753 15.9789 20.0469 15.9789 19.5183V19.4916H14.0686Z" fill="white"/>
<path fill-rule="evenodd" clip-rule="evenodd" d="M15.3187 19.4916H14.8711C14.8667 19.4916 14.863 19.4937 14.8591 19.4945C14.9146 19.5061 14.9454 19.6319 14.9334 19.7155C14.9154 19.8434 14.8064 19.9322 14.6814 19.9345C14.6998 20.0187 14.7436 20.0953 14.8069 20.1537C14.8702 20.2122 14.95 20.2498 15.0354 20.2615C15.267 20.2943 15.4811 20.1356 15.5138 19.9045C15.5375 19.7343 15.4556 19.4916 15.3187 19.4916Z" fill="#4E4E4E"/>
<path fill-rule="evenodd" clip-rule="evenodd" d="M9.83119 19.4916H7.28467V19.5183C7.28467 20.4071 8.05387 21.1269 8.95567 21.1269C9.85807 21.1269 10.6273 20.4069 10.6273 19.5183V19.4916H9.83119Z" fill="#4E4E4E"/>
<path fill-rule="evenodd" clip-rule="evenodd" d="M7.92139 19.4916V19.5183C7.92139 20.0471 8.34751 20.4753 8.87611 20.4753C9.40567 20.4753 9.83131 20.0469 9.83131 19.5183V19.4916H7.92139Z" fill="white"/>
<path fill-rule="evenodd" clip-rule="evenodd" d="M9.17137 19.4916H8.72329C8.71933 19.4916 8.71513 19.4937 8.71165 19.4945C8.76685 19.5061 8.79757 19.6319 8.78593 19.7155C8.76793 19.8434 8.65933 19.9322 8.53369 19.9345C8.55221 20.0187 8.59609 20.0951 8.65941 20.1536C8.72272 20.2121 8.80244 20.2497 8.88781 20.2615C9.11929 20.2943 9.33373 20.1356 9.36613 19.9045C9.39001 19.7343 9.30829 19.4916 9.17137 19.4916Z" fill="#4E4E4E"/>
<path fill-rule="evenodd" clip-rule="evenodd" d="M7.54131 2.23798L6.60951 3.94498C6.28287 4.55302 3.40479 9.93994 3.40479 11.8863V12.0007L4.72239 15.5071C4.54503 17.1162 4.23374 20.3058 4.32758 21.7615H5.59838C5.51967 20.9221 5.7419 17.9907 6.02006 15.4979L6.03698 15.3479L5.79854 14.7067C6.61754 13.8489 7.1921 12.6684 7.58858 11.5447L7.62722 11.8184L8.92838 13.9535L9.43646 13.7357C9.44918 13.7301 10.7524 13.1762 12.0179 13.1762C13.2755 13.1762 14.6002 13.7306 14.6125 13.736L15.1203 13.9524L16.4195 11.8181L16.4705 11.4615C16.8629 12.5963 17.4369 13.7976 18.2597 14.6745L18.0101 15.3471L18.0269 15.4975C18.306 18 18.5292 20.9439 18.4517 21.7617H19.7105C19.8005 20.3057 19.4777 17.1162 19.3007 15.5073L20.595 12.0003V11.8863C20.595 9.93994 17.7402 4.55302 17.4139 3.9451L16.5011 2.23798L15.1935 11.3796L14.5899 12.3725C14.0071 12.177 13.0156 11.9045 12.0171 11.9045C11.0199 11.9045 10.0348 12.1764 9.45459 12.3721L8.85099 11.3796L8.39198 8.17522C8.3927 8.16994 8.39354 8.16274 8.39354 8.1595L8.38982 8.15866L7.54131 2.23798ZM6.8393 6.31582L7.10678 8.17978C7.00478 8.87662 6.53883 11.6096 5.28891 13.3323L4.71291 11.7827C4.78515 10.7731 5.83646 8.35426 6.8393 6.31582ZM17.2079 6.31582C18.2106 8.35426 19.2625 10.7731 19.3347 11.7827L18.7722 13.2956C17.4217 11.3991 16.9983 8.31586 16.9614 8.0341L17.2079 6.31582Z" fill="#4E4E4E"/>
</svg>
