<svg width="24" height="24" viewBox="0 0 24 24" fill="none" xmlns="http://www.w3.org/2000/svg">
<path d="M11.9849 2.94897C8.7163 2.94897 6.0761 5.69418 6.0489 9.06897C3.717 9.90341 2.0271 12.1853 2.0271 14.8817C2.0271 18.2742 4.6902 21.051 7.9745 21.051C9.4877 21.0476 10.9175 20.4261 12.0001 19.3759C13.0809 20.4277 14.5128 21.0486 16.0257 21.051C19.3042 21.051 21.9731 18.2807 21.9731 14.8817V14.8798C21.9724 13.7353 21.6591 12.62 21.0815 11.6434C20.6465 11.0086 20.1847 10.5362 19.8901 10.2642C19.8586 10.2351 19.8283 10.207 19.8009 10.1826C19.7283 10.1179 19.6758 10.0734 19.6377 10.0422C19.6315 10.0371 19.625 10.0322 19.6188 10.0271C19.594 10.007 19.5808 9.99674 19.5808 9.99674C19.0822 9.59424 18.5268 9.26817 17.9152 9.05194C17.8787 5.69164 15.2463 2.94897 11.9849 2.94897ZM11.9924 4.88587C14.2338 4.88587 16.0636 6.78017 16.0636 9.12397V9.12587C16.0678 10.4854 15.432 11.7675 14.3467 12.5862H14.3448C13.9332 12.901 13.8369 13.4864 14.1266 13.9161L14.1285 13.918C14.3075 14.1796 14.5982 14.3277 14.895 14.3277C15.0922 14.3277 15.2836 14.264 15.4413 14.1456C16.4805 13.3667 17.2094 12.2639 17.6002 11.0306C19.0675 11.6876 20.1101 13.1673 20.1101 14.8855C20.1047 17.2227 18.2747 19.1198 16.0257 19.1198C13.785 19.1198 11.9556 17.2246 11.9545 14.8817V14.8798C11.9616 14.3595 11.5435 13.9275 11.0231 13.9161H11.0155C10.4924 13.9241 10.0702 14.3589 10.0802 14.8817V14.8836C10.0808 15.9642 10.3966 16.9606 10.8675 17.845C10.1174 18.6497 9.07738 19.1232 7.97438 19.1255C5.73218 19.1255 3.89938 17.2283 3.89938 14.8855C3.89938 12.5435 5.73218 10.6474 7.97438 10.6474C8.4605 10.6474 8.93114 10.7363 9.38578 10.9054C9.38925 10.9069 9.38843 10.9072 9.39336 10.9092C9.39717 10.9107 9.40374 10.9114 9.40854 10.913L9.41423 10.9149L9.42181 10.9187C9.49114 10.9438 9.57577 10.9801 9.65136 11.0174C9.73184 11.0571 9.80801 11.1075 9.80692 11.1065C10.194 11.4549 10.8025 11.4045 11.1273 10.9965C11.4564 10.5939 11.412 9.9975 11.0249 9.6496L11.023 9.6477C10.6606 9.32962 10.1587 9.14349 10.029 9.09562H10.0271C9.37345 8.8479 8.67922 8.72105 7.98012 8.72189H7.97063C8.17594 6.57229 9.8797 4.88587 11.9924 4.88587Z" fill="#FF7043"/>
</svg>
