<svg width="24" height="24" viewBox="0 0 24 24" fill="none" xmlns="http://www.w3.org/2000/svg">
<path d="M15.3656 15.411C19.1074 15.411 22.1408 12.3776 22.1408 8.63572C22.1408 4.89385 19.1074 1.86047 15.3656 1.86047C11.6237 1.86047 8.59033 4.89385 8.59033 8.63572C8.59033 12.3776 11.6237 15.411 15.3656 15.411Z" fill="#A855F7"/>
<path d="M8.63511 22.1404C12.377 22.1404 15.4103 19.107 15.4103 15.3651C15.4103 11.6233 12.377 8.5899 8.63511 8.5899C4.89324 8.5899 1.85986 11.6233 1.85986 15.3651C1.85986 19.107 4.89324 22.1404 8.63511 22.1404Z" fill="#306576"/>
<path d="M15.4116 8.58956L12.0008 8.58948L8.58996 8.58956L10.2896 10.2892L6.75488 13.8238L10.2042 17.2732L13.7389 13.7385L15.4117 15.4113V12.0003L15.4116 8.58956Z" fill="#F5F5F5"/>
</svg>
