<svg width="24" height="24" viewBox="0 0 24 24" fill="none" xmlns="http://www.w3.org/2000/svg">
<path d="M19.2001 10.7C19 10.7 18.9001 10.7 18.7001 10.8L16.3 6.99999C16.9 6.49999 17.4 5.69999 17.4 4.79999C17.4 3.19999 16.1 1.79999 14.4 1.79999C12.7 1.79999 11.4 3.09999 11.4 4.79999C11.4 5.09999 11.4 5.29999 11.5 5.59999L7.00005 7.89999C6.50005 7.29999 5.70005 6.89999 4.80005 6.89999C3.20005 6.89999 1.80005 8.19999 1.80005 9.89999C1.80005 11.6 3.10005 12.9 4.80005 12.9C5.00005 12.9 5.20005 12.9 5.40005 12.8L7.70005 17.1C7.10005 17.6 6.80005 18.4 6.80005 19.2C6.80005 20.8 8.10005 22.2 9.80005 22.2C11.5 22.2 12.8 20.9 12.8 19.2C12.8 19 12.8 18.8 12.7 18.6L16.9 15.5C17.4 16.2 18.3001 16.6 19.2001 16.6C20.8001 16.6 22.2001 15.3 22.2001 13.6C22.2001 11.9 20.8001 10.7 19.2001 10.7ZM14.4 3.79999C15 3.79999 15.4 4.29999 15.4 4.79999C15.4 5.39999 14.9 5.79999 14.4 5.79999C13.9 5.79999 13.4 5.29999 13.4 4.79999C13.4 4.19999 13.8 3.79999 14.4 3.79999ZM4.80005 10.9C4.20005 10.9 3.80005 10.4 3.80005 9.89999C3.80005 9.29999 4.30005 8.89999 4.80005 8.89999C5.30005 8.89999 5.80005 9.39999 5.80005 9.89999C5.90005 10.5 5.40005 10.9 4.80005 10.9ZM6.80005 12.1C7.40005 11.6 7.80005 10.8 7.80005 9.89999C7.80005 9.59999 7.80005 9.39999 7.70005 9.19999L12.2 6.79999C12.4 6.99999 12.6 7.19999 12.9 7.29999L10.1 16.3H9.80005C9.50005 16.3 9.20005 16.4 9.00005 16.4L6.80005 12.1ZM9.80005 20.3C9.20005 20.3 8.80005 19.8 8.80005 19.3C8.80005 18.7 9.30005 18.3 9.80005 18.3C10.3 18.3 10.8 18.8 10.8 19.3C10.8 19.8 10.4 20.3 9.80005 20.3ZM16.2 13.7C16.2 13.9 16.2 14 16.3 14.2L12.1 17.3L11.5 16.7L14.4 7.69999H14.5C14.7 7.69999 14.9 7.69999 15.1 7.59999L17.4 11.3C16.7 11.9 16.2 12.8 16.2 13.7ZM19.2001 14.7C18.6 14.7 18.2001 14.2 18.2001 13.7C18.2001 13.1 18.7001 12.7 19.2001 12.7C19.7001 12.7 20.2001 13.2 20.2001 13.7C20.2001 14.3 19.7001 14.7 19.2001 14.7Z" fill="#F87171"/>
</svg>
