<svg width="24" height="24" viewBox="0 0 24 24" fill="none" xmlns="http://www.w3.org/2000/svg">
<path fill-rule="evenodd" clip-rule="evenodd" d="M12.0001 3.30451C7.19744 3.30451 3.30382 7.19738 3.30382 12C3.30382 16.8026 7.19744 20.6959 12.0001 20.6959C16.8027 20.6959 20.6956 16.8026 20.6956 12C20.6956 7.19738 16.8027 3.30451 12.0001 3.30451ZM1.97632 12C1.97632 6.46426 6.46469 1.97626 12.0001 1.97626C17.5354 1.97626 22.0238 6.46463 22.0238 12C22.0238 17.5354 17.5354 22.0238 12.0001 22.0238C6.46469 22.0238 1.97632 17.5354 1.97632 12Z" fill="#CFD8DC"/>
<path fill-rule="evenodd" clip-rule="evenodd" d="M21.4423 14.109L9.14418 21.2093L8.81193 20.6344L21.1104 13.5338L21.4423 14.109ZM15.3099 3.48753L3.01181 10.5885L2.67993 10.0137L14.9781 2.91266L15.3099 3.48753ZM17.7576 12.8715C17.8015 12.9478 17.8134 13.0385 17.7906 13.1235C17.7678 13.2086 17.7122 13.2811 17.6361 13.3253L6.45543 19.7802C6.37915 19.8242 6.28851 19.8361 6.20345 19.8133C6.11839 19.7904 6.04588 19.7348 6.00187 19.6585C5.95786 19.5822 5.94596 19.4915 5.96878 19.4065C5.9916 19.3214 6.04727 19.2489 6.12356 19.2049L17.3038 12.75C17.3416 12.7282 17.3833 12.714 17.4265 12.7083C17.4698 12.7025 17.5137 12.7054 17.5559 12.7167C17.598 12.728 17.6375 12.7475 17.6721 12.774C17.7067 12.8006 17.7358 12.8337 17.7576 12.8715ZM18.1202 4.46328C18.2121 4.62228 18.1577 4.82516 17.9991 4.91703L6.81881 11.3719C6.74252 11.416 6.65186 11.4279 6.56677 11.4051C6.48167 11.3823 6.40912 11.3267 6.36506 11.2504C6.321 11.1741 6.30905 11.0835 6.33183 10.9984C6.35462 10.9133 6.41027 10.8407 6.48656 10.7967L17.6668 4.34178C17.7046 4.31993 17.7463 4.30574 17.7895 4.30002C17.8328 4.2943 17.8767 4.29716 17.9189 4.30845C17.961 4.31973 18.0005 4.33922 18.0351 4.36579C18.0697 4.39235 18.0984 4.42549 18.1202 4.46328Z" fill="#CFD8DC"/>
<path fill-rule="evenodd" clip-rule="evenodd" d="M8.97905 9.69149C9.005 9.65642 9.03762 9.62681 9.07503 9.60436C9.11243 9.58191 9.1539 9.56706 9.19706 9.56065C9.24021 9.55424 9.2842 9.5564 9.32652 9.56702C9.36884 9.57763 9.40865 9.59648 9.44368 9.62249L15.4313 14.0621C15.502 14.1145 15.549 14.1929 15.5619 14.2799C15.5749 14.367 15.5527 14.4556 15.5003 14.5264C15.4479 14.5971 15.3695 14.6441 15.2825 14.657C15.1954 14.67 15.1068 14.6478 15.036 14.5954L9.04805 10.155C9.01304 10.129 8.98348 10.0964 8.96106 10.0591C8.93864 10.0217 8.92381 9.98026 8.9174 9.93715C8.91099 9.89404 8.91314 9.85009 8.92372 9.80781C8.93429 9.76553 8.9531 9.72575 8.97905 9.69074V9.69149ZM11.2152 8.40074C11.2411 8.36572 11.2737 8.33616 11.3111 8.31375C11.3485 8.29133 11.3899 8.27649 11.433 8.27009C11.4761 8.26368 11.5201 8.26582 11.5623 8.2764C11.6046 8.28698 11.6444 8.30578 11.6794 8.33174L17.667 12.771C17.7378 12.8234 17.7848 12.9018 17.7977 12.9888C17.8106 13.0759 17.7885 13.1645 17.7361 13.2352C17.6836 13.3059 17.6053 13.3529 17.5182 13.3659C17.4312 13.3788 17.3425 13.3567 17.2718 13.3042L11.2838 8.86499C11.2488 8.839 11.2192 8.80637 11.1968 8.76895C11.1744 8.73153 11.1595 8.69005 11.1532 8.6469C11.1468 8.60375 11.149 8.55976 11.1596 8.51746C11.1703 8.47516 11.1891 8.43536 11.2152 8.40036V8.40074ZM6.38255 10.8911C6.4079 10.8556 6.44 10.8255 6.477 10.8025C6.514 10.7794 6.55518 10.7639 6.59819 10.7567C6.64119 10.7496 6.68519 10.751 6.72765 10.7609C6.77012 10.7707 6.81022 10.7889 6.84567 10.8142L13.1907 15.3495C13.2261 15.3748 13.2562 15.4069 13.2793 15.4439C13.3024 15.4809 13.3179 15.5221 13.325 15.5651C13.3322 15.6081 13.3308 15.6521 13.3209 15.6946C13.311 15.737 13.2929 15.7772 13.2676 15.8126C13.2422 15.8481 13.2101 15.8782 13.1731 15.9012C13.1361 15.9243 13.0949 15.9398 13.0519 15.947C13.0089 15.9541 12.9649 15.9527 12.9225 15.9428C12.88 15.933 12.8399 15.9148 12.8044 15.8895L6.45943 11.3542C6.42396 11.3289 6.39384 11.2968 6.37078 11.2598C6.34772 11.2228 6.33218 11.1816 6.32504 11.1386C6.3179 11.0956 6.3193 11.0516 6.32917 11.0091C6.33904 10.9667 6.35718 10.9266 6.38255 10.8911Z" fill="#CFD8DC"/>
</svg>
