<svg width="24" height="25" viewBox="0 0 24 25" fill="none" xmlns="http://www.w3.org/2000/svg">
<mask id="mask0_803_987" style="mask-type:alpha" maskUnits="userSpaceOnUse" x="4" y="3" width="16" height="19">
<path d="M5.33462 20.0864L4.77702 5.2288C4.7586 4.73811 5.13484 4.32226 5.62492 4.29163L18.2624 3.50179C18.7612 3.47062 19.1909 3.84973 19.222 4.34857C19.2232 4.36737 19.2238 4.38619 19.2238 4.40502V20.595C19.2238 21.0948 18.8186 21.5 18.3188 21.5C18.3053 21.5 18.2917 21.4997 18.2782 21.4991L6.19837 20.9565C5.72791 20.9354 5.35228 20.557 5.33462 20.0864Z" fill="#F472B6"/>
</mask>
<g mask="url(#mask0_803_987)">
<path fill-rule="evenodd" clip-rule="evenodd" d="M4.77702 5.2288L5.33462 20.0864C5.35228 20.557 5.72791 20.9354 6.19837 20.9565L18.2782 21.4991C18.2917 21.4997 18.3053 21.5 18.3188 21.5C18.8186 21.5 19.2238 21.0948 19.2238 20.595V4.40502C19.2238 4.38619 19.2232 4.36737 19.222 4.34857C19.1909 3.84973 18.7612 3.47062 18.2624 3.50179L17.2688 3.56389L17.3413 5.64104C17.3439 5.71555 17.2856 5.77806 17.2111 5.78067C17.1792 5.78178 17.1479 5.77155 17.1228 5.7518L16.4536 5.22457L15.6612 5.82565C15.6018 5.87071 15.5171 5.85908 15.472 5.79968C15.4531 5.77468 15.4434 5.74385 15.4447 5.71249L15.5295 3.6726L5.62492 4.29163C5.13484 4.32226 4.7586 4.73811 4.77702 5.2288ZM13.2252 10.2844C13.2252 10.6365 15.5968 10.4678 15.9152 10.2205C15.9152 7.82278 14.6287 6.56284 12.2728 6.56284C9.91693 6.56284 8.59698 7.84238 8.59698 9.76171C8.59698 11.6845 10.0895 12.5224 11.3576 13.2344C12.2941 13.7602 13.1082 14.2173 13.1082 14.9919C13.1082 15.5037 12.8576 15.8076 12.3062 15.8076C11.5878 15.8076 11.3037 15.4407 11.3371 14.1931C11.3371 13.9225 8.59698 13.8381 8.51343 14.1931C8.3007 17.2164 10.1843 18.0884 12.3396 18.0884C14.4282 18.0884 16.0656 16.9752 16.0656 14.9599C16.0656 12.8573 14.4888 12.0217 13.186 11.3313C12.2689 10.8452 11.4875 10.4312 11.4875 9.69773C11.4875 8.97798 12.0222 8.88202 12.3396 8.88202C12.6738 8.88202 13.2753 8.94092 13.2252 10.2844Z" fill="#F472B6"/>
</g>
</svg>
