<svg width="24" height="24" viewBox="0 0 24 24" fill="none" xmlns="http://www.w3.org/2000/svg">
<path d="M11.095 2.49805V3.90205C9.25716 4.10549 7.54334 4.92868 6.23575 6.23609C4.92815 7.54351 4.10472 9.25721 3.90102 11.095H2.49902V12.905H3.90302C4.10646 14.7429 4.92966 16.4567 6.23707 17.7643C7.54449 19.0719 9.25818 19.8954 11.096 20.099V21.502H12.906V20.099C14.7439 19.8954 16.4576 19.0719 17.765 17.7643C19.0724 16.4567 19.8956 14.7429 20.099 12.905H21.503V11.095H20.099C19.8954 9.25736 19.0721 7.54378 17.7647 6.23638C16.4573 4.92899 14.7437 4.1057 12.906 3.90205V2.49805H11.095ZM11.095 5.72905V7.02305H12.905V5.72905C14.2601 5.92117 15.5161 6.54835 16.4839 7.51614C17.4517 8.48393 18.0789 9.73994 18.271 11.095H16.977V12.905H18.271C18.0789 14.2602 17.4517 15.5162 16.4839 16.484C15.5161 17.4517 14.2601 18.0789 12.905 18.271V16.977H11.095V18.271C9.73992 18.0789 8.4839 17.4517 7.51612 16.484C6.54833 15.5162 5.92115 14.2602 5.72902 12.905H7.02302V11.095H5.72902C5.92115 9.73994 6.54833 8.48393 7.51612 7.51614C8.4839 6.54835 9.73992 5.92117 11.095 5.72905Z" fill="#F87171"/>
<path d="M10.9449 2.34802V3.79002C9.12817 4.02083 7.43961 4.84878 6.14465 6.14374C4.84968 7.43871 4.02173 9.12727 3.79092 10.944H2.34692V13.054H3.79092C4.02173 14.8708 4.84968 16.5593 6.14465 17.8543C7.43961 19.1493 9.12817 19.9772 10.9449 20.208V21.651H13.0549V20.21C14.8717 19.9792 16.5602 19.1513 17.8552 17.8563C19.1502 16.5613 19.9781 14.8728 20.2089 13.056H21.6519V10.946H20.2099C19.9791 9.12912 19.151 7.44045 17.8558 6.14546C16.5606 4.85048 14.8719 4.02262 13.0549 3.79202V2.34802H10.9449ZM11.2439 2.64802H12.7559V4.03802L12.8879 4.05102C14.6916 4.251 16.3734 5.05909 17.6567 6.34229C18.9399 7.6255 19.7479 9.30735 19.9479 11.111L19.9629 11.244H21.3509V12.756H19.9629L19.9489 12.889C19.7489 14.6927 18.9409 16.3745 17.6577 17.6578C16.3744 18.941 14.6926 19.749 12.8889 19.949L12.7559 19.963V21.352H11.2439V19.962L11.1109 19.949C9.30725 19.749 7.6254 18.941 6.34219 17.6578C5.05899 16.3745 4.2509 14.6927 4.05092 12.889L4.03692 12.756H2.64792V11.244H4.03692L4.05092 11.111C4.2509 9.30735 5.05899 7.6255 6.34219 6.34229C7.6254 5.05909 9.30725 4.251 11.1109 4.05102L11.2439 4.03702V2.64802ZM11.2439 5.55702L11.0739 5.58002C9.68651 5.77679 8.40057 6.41894 7.40971 7.40981C6.41884 8.40067 5.77669 9.68661 5.57992 11.074L5.55592 11.244H6.87292V12.756H5.55592L5.57992 12.926C5.77669 14.3134 6.41884 15.5994 7.40971 16.5902C8.40057 17.5811 9.68651 18.2233 11.0739 18.42L11.2439 18.443V17.127H12.7559V18.443L12.9259 18.42C14.3133 18.2233 15.5993 17.5811 16.5901 16.5902C17.581 15.5994 18.2232 14.3134 18.4199 12.926L18.4429 12.756H17.1269V11.244H18.4429L18.4199 11.074C18.2231 9.68647 17.5808 8.40042 16.5897 7.40954C15.5987 6.41866 14.3125 5.77659 12.9249 5.58002L12.7549 5.55702V6.87302H11.2439V5.55702ZM10.9449 5.93002V7.17402H13.0549V5.93002C14.3073 6.14369 15.4624 6.74093 16.3607 7.63926C17.259 8.53759 17.8563 9.69269 18.0699 10.945H16.8259V13.055H18.0699C17.8562 14.3075 17.2588 15.4627 16.3603 16.361C15.4618 17.2594 14.3064 17.8565 13.0539 18.07V16.826H10.9449V18.07C9.6924 17.8565 8.53709 17.2594 7.63856 16.361C6.74004 15.4627 6.14265 14.3075 5.92892 13.055H7.17292V10.945H5.92992C6.14365 9.69255 6.74104 8.53735 7.63956 7.639C8.53809 6.74065 9.69341 6.1435 10.9459 5.93002H10.9449Z" fill="#F87171"/>
</svg>
