<svg width="24" height="24" viewBox="0 0 24 24" fill="none" xmlns="http://www.w3.org/2000/svg">
<path fill-rule="evenodd" clip-rule="evenodd" d="M8.75369 2.89193C7.19865 3.55351 3.64489 6.95969 3.63281 9.64346C3.65373 12.418 7.19865 15.7334 8.75369 16.3951C9.11013 16.5467 9.66353 16.7563 10.2478 16.7563C10.7807 16.7563 11.2319 16.4936 11.6909 15.9412C12.4626 15.013 12.3698 13.6782 11.3414 12.9207C10.1106 12.0148 9.10344 11.2017 9.08248 9.64344C9.1034 8.08544 10.1108 6.99792 11.3414 6.09184C12.3697 5.33434 12.5702 4.18528 11.7985 3.25704C11.3394 2.70481 10.7806 2.53033 10.2477 2.53033C9.66353 2.53033 9.11017 2.74016 8.75369 2.89193Z" fill="#81C784"/>
<path fill-rule="evenodd" clip-rule="evenodd" d="M10.1689 7.14691C9.8856 7.47241 9.62181 7.8012 9.38139 8.13131C8.97985 8.64371 8.63429 9.18259 8.35483 9.72507L8.35163 9.72827C8.34739 9.7365 8.34333 9.74504 8.33913 9.75327C8.33241 9.76651 8.32678 9.779 8.31881 9.79546C7.96612 10.4947 7.72145 11.1987 7.60475 11.8611C7.60428 11.8637 7.60365 11.8663 7.60319 11.8689C7.1486 13.9874 7.79321 15.8076 9.70319 16.6892C10.4583 16.9517 11.1057 16.6476 11.6954 15.9767C12.3778 15.2005 12.4618 13.6602 11.3907 12.9205C9.88906 11.8837 9.12242 10.895 9.1313 9.62833C9.14029 8.37145 9.84117 7.52651 10.1689 7.14691Z" fill="#43A047"/>
<path fill-rule="evenodd" clip-rule="evenodd" d="M13.784 21.4696C13.2539 21.4696 12.6977 21.2952 12.2408 20.7433C11.4729 19.8155 11.6736 18.6672 12.6969 17.9104C13.9218 17.0048 14.923 15.9177 14.944 14.3605C14.923 12.8033 13.9206 11.7691 12.6969 10.8588C11.7936 10.187 11.4728 8.90572 12.2408 7.97772C12.6977 7.42588 13.2537 7.2514 13.7842 7.2514C14.3657 7.2514 14.9163 7.4612 15.2712 7.61259C16.8186 8.27376 20.34 11.5792 20.3672 14.3606C20.3585 16.9822 16.8186 20.4471 15.2712 21.1086C14.9163 21.26 14.3656 21.4696 13.784 21.4696Z" fill="#FF1744"/>
<g style="mix-blend-mode:multiply">
<path fill-rule="evenodd" clip-rule="evenodd" d="M13.7754 7.2156C13.2021 7.20681 12.6402 7.47482 12.1957 7.9781C11.5097 8.75415 11.6251 10.1475 12.702 10.8875C14.2112 11.9243 14.9312 13.1127 14.9223 14.3796C14.912 15.816 13.9934 16.715 13.7644 16.9952C14.2888 16.61 14.7404 16.1599 15.1238 15.6703C15.0952 15.7243 15.066 15.7725 15.0394 15.8078C15.4372 15.3403 15.7754 14.7822 16.0378 14.1874C16.0588 14.1423 16.0841 14.0847 16.1097 14.0218C16.1166 14.0049 16.1229 13.9915 16.13 13.9734C16.3147 13.5172 16.4532 13.0428 16.5425 12.5734C16.6505 12.0493 16.708 11.4921 16.6378 11.025C16.6339 10.9778 16.6306 10.9307 16.6253 10.8844C16.4985 9.32748 15.7528 7.96356 14.3488 7.31876C14.1589 7.25313 13.9665 7.21854 13.7754 7.2156Z" fill="#B71C1C"/>
</g>
</svg>
