<svg width="24" height="24" viewBox="0 0 24 24" fill="none" xmlns="http://www.w3.org/2000/svg">
<path fill-rule="evenodd" clip-rule="evenodd" d="M12.145 22.0379C14.3701 13.7388 14.3055 13.7012 15.9139 7.78386L16.3007 8.01684C16.5108 8.14345 16.6828 8.03991 16.6828 7.78736V4.9654C17.1097 3.40623 17.4441 2.20143 17.5421 1.83917H19.2847L22.1795 4.63631L20.2783 6.35001L21.7159 7.97115L12.2411 22.0377C12.1948 22.1171 12.1303 22.099 12.145 22.0377V22.0379ZM13.1801 4.14991C13.2657 4.14991 13.3355 4.19926 13.3355 4.2605V5.70672C13.3355 5.76781 13.2657 5.81746 13.1801 5.81746H10.8395C10.7535 5.81746 10.6838 5.76801 10.6838 5.70672V4.2605C10.6838 4.19946 10.7535 4.14991 10.8395 4.14991H13.1801H13.1801Z" fill="#71717A"/>
<path fill-rule="evenodd" clip-rule="evenodd" d="M16.069 2.54894L13.4942 4.09936C13.524 4.14675 13.5422 4.20134 13.5422 4.26089V5.70715C13.5422 5.7822 13.5143 5.84983 13.4683 5.90443L16.069 7.47041C16.2463 7.57718 16.3917 7.48982 16.3917 7.27653V2.74303C16.3917 2.52952 16.2463 2.44242 16.069 2.54894ZM10.4768 5.70705V4.26084C10.4768 4.2016 10.495 4.147 10.5245 4.09961L7.94967 2.54894C7.77248 2.44242 7.6272 2.52957 7.6272 2.74303V7.27647C7.6272 7.48972 7.77229 7.57729 7.94967 7.47015L10.5502 5.90402C10.5045 5.84942 10.4768 5.78195 10.4768 5.7069L10.4768 5.70705Z" fill="#71717A"/>
<path fill-rule="evenodd" clip-rule="evenodd" d="M11.7721 22.0379H11.8682C9.64349 13.7388 9.70754 13.7012 8.09927 7.78386L7.71245 8.01684C7.50242 8.14345 7.33037 8.03991 7.33037 7.78736V4.9654C6.90345 3.40623 6.56912 2.20143 6.47085 1.83917H4.72845L1.83374 4.63631L3.73471 6.35001L2.29715 7.97115L11.7721 22.0379Z" fill="#71717A"/>
<path d="M11.9359 8.83726C12.3241 8.83726 12.6387 8.50908 12.6387 8.10424C12.6387 7.6994 12.3241 7.37122 11.9359 7.37122C11.5478 7.37122 11.2332 7.6994 11.2332 8.10424C11.2332 8.50908 11.5478 8.83726 11.9359 8.83726Z" fill="#71717A"/>
<path d="M11.9359 13.196C12.3241 13.196 12.6387 12.8678 12.6387 12.4629C12.6387 12.0581 12.3241 11.7299 11.9359 11.7299C11.5478 11.7299 11.2332 12.0581 11.2332 12.4629C11.2332 12.8678 11.5478 13.196 11.9359 13.196Z" fill="#71717A"/>
<path d="M11.9361 17.5546C12.3242 17.5546 12.6389 17.2264 12.6389 16.8216C12.6389 16.4168 12.3242 16.0886 11.9361 16.0886C11.548 16.0886 11.2334 16.4168 11.2334 16.8216C11.2334 17.2264 11.548 17.5546 11.9361 17.5546Z" fill="#71717A"/>
</svg>
