<svg width="24" height="25" viewBox="0 0 24 25" fill="none" xmlns="http://www.w3.org/2000/svg">
<path d="M14.603 18.6722C16.2191 16.7391 16.4093 14.7427 15.1575 11.0351C14.3653 8.69013 13.0501 6.8838 14.0167 5.4261C15.0467 3.87335 17.2331 5.37863 15.411 7.45422L15.7754 7.7077C17.962 7.96128 19.0395 4.96651 17.4074 4.11093C13.0977 1.86101 9.32663 6.18663 10.9903 11.1935C11.7034 13.3167 12.7016 15.5667 11.8935 17.3572C11.1963 18.8941 9.84947 19.7973 8.94641 19.829C7.06092 19.9241 8.31273 15.5985 10.4834 14.521C10.6735 14.4261 10.9429 14.2992 10.6894 13.9823C8.01167 13.6813 6.44303 14.9171 5.53986 16.6443C2.90962 21.6671 10.531 23.5209 14.6031 18.6723L14.603 18.6722Z" fill="#14B8A6"/>
</svg>
