<svg width="24" height="24" viewBox="0 0 24 24" fill="none" xmlns="http://www.w3.org/2000/svg">
<g clip-path="url(#clip0_808_2957)">
<mask id="mask0_808_2957" style="mask-type:luminance" maskUnits="userSpaceOnUse" x="0" y="0" width="24" height="24">
<path d="M0 0H24V24H0V0Z" fill="white"/>
</mask>
<g mask="url(#mask0_808_2957)">
<path fill-rule="evenodd" clip-rule="evenodd" d="M11.2319 13.667L6.86993 12.252C6.80796 12.2285 6.7541 12.1876 6.71488 12.1342C6.67566 12.0808 6.65276 12.0172 6.64893 11.951L6.60693 8.59899C6.60901 8.53317 6.63067 8.46947 6.66915 8.41603C6.70763 8.36259 6.76117 8.32184 6.82293 8.29899L17.1019 5.01099C17.2239 4.97199 17.3219 5.04299 17.3219 5.17099V8.52199C17.319 8.58837 17.2967 8.65244 17.2578 8.70629C17.2189 8.76014 17.1651 8.80141 17.1029 8.82499L12.8619 10.239L17.1729 11.585C17.2949 11.623 17.3929 11.757 17.3929 11.884V15.188C17.39 15.2542 17.368 15.3182 17.3294 15.3721C17.2909 15.4261 17.2376 15.4677 17.1759 15.492L6.86993 18.988C6.74993 19.03 6.65193 18.959 6.65093 18.833L6.62993 15.384C6.63235 15.3181 6.65427 15.2545 6.6929 15.2011C6.73152 15.1476 6.78513 15.1069 6.84693 15.084L11.2319 13.667Z" fill="#FBBF24"/>
</g>
</g>
<defs>
<clipPath id="clip0_808_2957">
<rect width="24" height="24" fill="white"/>
</clipPath>
</defs>
</svg>
