<svg width="25" height="25" viewBox="0 0 25 25" fill="none" xmlns="http://www.w3.org/2000/svg">
<g clip-path="url(#clip0_803_1260)">
<path d="M14.6129 23.922C13.9569 24.687 12.6249 24.27 12.6089 23.293L12.3789 9.008H22.7499C24.6289 9.008 25.6759 11.02 24.5079 12.378L14.6129 23.922Z" fill="url(#paint0_linear_803_1260)"/>
<path d="M14.6129 23.922C13.9569 24.687 12.6249 24.27 12.6089 23.293L12.3789 9.008H22.7499C24.6289 9.008 25.6759 11.02 24.5079 12.378L14.6129 23.922Z" fill="url(#paint1_linear_803_1260)"/>
<path d="M10.3949 0.940983C11.0509 0.175983 12.3789 0.593983 12.3949 1.57098L12.4959 15.855H2.25393C0.374928 15.855 -0.672072 13.844 0.495928 12.485L10.3949 0.940983Z" fill="#3ECF8E"/>
</g>
<defs>
<linearGradient id="paint0_linear_803_1260" x1="12.3794" y1="12.1759" x2="21.3736" y2="16.2494" gradientUnits="userSpaceOnUse">
<stop stop-color="#249361"/>
<stop offset="1" stop-color="#3ECF8E"/>
</linearGradient>
<linearGradient id="paint1_linear_803_1260" x1="8.29265" y1="6.99446" x2="12.014" y2="14.5598" gradientUnits="userSpaceOnUse">
<stop stop-opacity="0.2"/>
<stop offset="1" stop-opacity="0"/>
</linearGradient>
<clipPath id="clip0_803_1260">
<rect width="25" height="24" fill="white" transform="translate(0 0.5)"/>
</clipPath>
</defs>
</svg>
