<svg width="24" height="25" viewBox="0 0 24 25" fill="none" xmlns="http://www.w3.org/2000/svg">
<mask id="path-1-outside-1_803_839" maskUnits="userSpaceOnUse" x="3.5625" y="2.5" width="16" height="20" fill="black">
<rect fill="white" x="3.5625" y="2.5" width="16" height="20"/>
<path d="M10.1376 20.3767C9.40998 20.5741 8.64184 20.5337 7.9369 20.261C7.23196 19.9884 6.62419 19.4965 6.19565 18.852C5.93264 18.4677 5.7458 18.0326 5.64607 17.572C5.54635 17.1114 5.53576 16.6347 5.61491 16.1698C5.6417 16.0172 5.67861 15.8667 5.72535 15.7194L5.81239 15.4419L6.0494 15.6234C6.59627 16.0429 7.20777 16.362 7.85756 16.5667L8.02934 16.6211L8.01356 16.8002C7.99269 17.0546 8.05882 17.3085 8.20023 17.517C8.32926 17.7113 8.51236 17.8596 8.72478 17.9418C8.9372 18.024 9.16868 18.0362 9.38794 17.9766C9.48825 17.9488 9.5839 17.9051 9.67157 17.8472L14.2951 14.7717C14.4083 14.6974 14.5054 14.5993 14.5802 14.4836C14.655 14.368 14.7059 14.2374 14.7296 14.1001C14.7533 13.9599 14.7501 13.8162 14.72 13.6774C14.6899 13.5386 14.6337 13.4074 14.5545 13.2915C14.4254 13.0972 14.2423 12.9489 14.0299 12.8667C13.8175 12.7844 13.5861 12.7721 13.3668 12.8315C13.2665 12.8593 13.1708 12.903 13.0831 12.961L11.3188 14.1346C11.0284 14.3271 10.7116 14.4722 10.3792 14.5649C9.6516 14.7623 8.88345 14.7219 8.17851 14.4493C7.47356 14.1766 6.86579 13.6847 6.43727 13.0401C6.17419 12.6559 5.98728 12.2208 5.88753 11.7602C5.78777 11.2996 5.77717 10.8229 5.85636 10.358C5.93493 9.90214 6.10381 9.46846 6.35219 9.08464C6.60057 8.70083 6.92298 8.37533 7.29881 8.12897L11.9229 5.05408C12.2132 4.86132 12.53 4.71604 12.8624 4.62327C13.5901 4.42591 14.3582 4.46629 15.0632 4.73897C15.7681 5.01164 16.3759 5.50347 16.8044 6.14804C17.0674 6.53227 17.2543 6.96743 17.3541 7.428C17.4538 7.88858 17.4645 8.36531 17.3853 8.83022C17.3583 8.98281 17.3213 9.1333 17.2747 9.28064L17.1877 9.55811L16.9508 9.37702C16.404 8.95739 15.7925 8.63834 15.1427 8.43363L14.9707 8.37925L14.9867 8.20019C15.0075 7.94561 14.9414 7.69155 14.8002 7.48284C14.6711 7.28855 14.488 7.14028 14.2756 7.05807C14.0632 6.97586 13.8317 6.96368 13.6125 7.02317C13.5122 7.05101 13.4165 7.09467 13.3288 7.15266L8.70403 10.2283C8.59089 10.3026 8.49385 10.4006 8.4191 10.5162C8.34434 10.6319 8.29353 10.7625 8.26989 10.8998C8.24606 11.0399 8.24925 11.1836 8.27926 11.3225C8.30927 11.4613 8.36551 11.5926 8.44468 11.7085C8.57376 11.9028 8.75685 12.051 8.96924 12.1333C9.18163 12.2156 9.4131 12.2279 9.63239 12.1685C9.73268 12.1406 9.82832 12.097 9.91603 12.039L11.6802 10.8659C11.9705 10.6731 12.2873 10.5278 12.6198 10.4353C13.3474 10.2379 14.1155 10.2783 14.8204 10.551C15.5253 10.8236 16.133 11.3155 16.5615 11.96C16.8246 12.3443 17.0115 12.7794 17.1113 13.24C17.211 13.7006 17.2216 14.1773 17.1425 14.6422C17.064 15.098 16.8954 15.5318 16.6472 15.9157C16.399 16.2996 16.0769 16.6253 15.7013 16.872L11.0771 19.9459C10.7869 20.1387 10.47 20.284 10.1376 20.3767Z"/>
</mask>
<path d="M7.9369 20.261L8.65842 18.3957L7.9369 20.261ZM6.19565 18.852L7.86115 17.7447C7.85617 17.7372 7.85113 17.7297 7.84604 17.7223L6.19565 18.852ZM5.61491 16.1698L3.64501 15.824L3.64329 15.8341L5.61491 16.1698ZM5.72535 15.7194L7.63166 16.3244L7.63366 16.318L5.72535 15.7194ZM5.81239 15.4419L7.02823 13.8539C6.51001 13.4571 5.83079 13.3382 5.20857 13.5352C4.58636 13.7323 4.09944 14.2205 3.90408 14.8433L5.81239 15.4419ZM6.0494 15.6234L7.26684 14.0366L7.26524 14.0353L6.0494 15.6234ZM7.85756 16.5667L8.46122 14.66L8.45868 14.6592L7.85756 16.5667ZM8.02934 16.6211L10.0216 16.7967C10.1039 15.8629 9.52663 14.9973 8.633 14.7144L8.02934 16.6211ZM8.01356 16.8002L6.02124 16.6246L6.02025 16.6367L8.01356 16.8002ZM8.20023 17.517L9.86634 16.4106C9.86268 16.4051 9.85899 16.3996 9.85527 16.3941L8.20023 17.517ZM9.38794 17.9766L9.91189 19.9068L9.92269 19.9038L9.38794 17.9766ZM9.67157 17.8472L10.7749 19.5153L10.7792 19.5124L9.67157 17.8472ZM14.2951 14.7717L13.1971 13.1L13.1875 13.1065L14.2951 14.7717ZM14.7296 14.1001L16.7004 14.4409L16.7016 14.4337L14.7296 14.1001ZM14.5545 13.2915L12.8885 14.3981C12.8933 14.4054 12.8982 14.4126 12.9031 14.4198L14.5545 13.2915ZM13.3668 12.8315L12.8441 10.9009L12.8316 10.9044L13.3668 12.8315ZM13.0831 12.961L11.9802 11.2926L11.9754 11.2957L13.0831 12.961ZM11.3188 14.1346L12.4239 15.8016L12.4265 15.7999L11.3188 14.1346ZM10.3792 14.5649L10.9029 16.4952L10.9164 16.4914L10.3792 14.5649ZM6.43727 13.0401L8.10281 11.9329C8.09775 11.9253 8.09263 11.9177 8.08746 11.9101L6.43727 13.0401ZM5.85636 10.358L3.88542 10.0182L3.88475 10.0222L5.85636 10.358ZM7.29881 8.12897L8.39529 9.80167L8.40625 9.79438L7.29881 8.12897ZM11.9229 5.05408L10.8165 3.38796L10.8155 3.38868L11.9229 5.05408ZM12.8624 4.62327L12.3389 2.69302C12.3342 2.69429 12.3295 2.69558 12.3248 2.69688L12.8624 4.62327ZM16.8044 6.14804L15.1389 7.25534C15.1439 7.26288 15.149 7.27038 15.1541 7.27785L16.8044 6.14804ZM17.3853 8.83022L19.3547 9.17893L19.357 9.16581L17.3853 8.83022ZM17.2747 9.28064L15.3679 8.67707L15.3664 8.68201L17.2747 9.28064ZM17.1877 9.55811L15.9728 11.1469C16.4911 11.5432 17.1701 11.6618 17.7921 11.4646C18.414 11.2674 18.9007 10.7793 19.096 10.1567L17.1877 9.55811ZM16.9508 9.37702L15.7333 10.9637L15.736 10.9658L16.9508 9.37702ZM15.1427 8.43363L14.5396 10.3405L14.5417 10.3412L15.1427 8.43363ZM14.9707 8.37925L12.9786 8.20175C12.8953 9.13636 13.473 10.0032 14.3676 10.2861L14.9707 8.37925ZM14.9867 8.20019L16.9788 8.37768C16.9792 8.37284 16.9796 8.36801 16.98 8.36316L14.9867 8.20019ZM14.8002 7.48284L13.1342 8.58941C13.1374 8.59424 13.1406 8.59906 13.1439 8.60386L14.8002 7.48284ZM13.6125 7.02317L13.0887 5.09293L13.0777 5.09599L13.6125 7.02317ZM13.3288 7.15266L12.2256 5.48449L12.2213 5.4873L13.3288 7.15266ZM8.70403 10.2283L9.80158 11.9003L9.81154 11.8936L8.70403 10.2283ZM8.26989 10.8998L6.29889 10.5604L6.29819 10.5645L8.26989 10.8998ZM8.44468 11.7085L10.1105 10.6017C10.1058 10.5946 10.101 10.5875 10.0962 10.5804L8.44468 11.7085ZM9.63239 12.1685L10.1548 14.0991C10.1594 14.0978 10.1639 14.0966 10.1685 14.0953L9.63239 12.1685ZM9.91603 12.039L11.0182 13.708L11.0235 13.7044L9.91603 12.039ZM11.6802 10.8659L10.5734 9.20007L10.5728 9.2005L11.6802 10.8659ZM12.6198 10.4353L12.0961 8.50499L12.0833 8.50857L12.6198 10.4353ZM16.5615 11.96L14.896 13.0673C14.9011 13.0749 14.9062 13.0825 14.9114 13.09L16.5615 11.96ZM17.1425 14.6422L19.1135 14.9813L19.1141 14.978L17.1425 14.6422ZM15.7013 16.872L14.6035 15.2001L14.594 15.2064L15.7013 16.872ZM11.0771 19.9459L12.1837 21.6119L12.1844 21.6115L11.0771 19.9459ZM9.61406 18.4465C9.29889 18.532 8.96694 18.5151 8.65842 18.3957L7.21539 22.1264C8.31674 22.5524 9.52108 22.6162 10.6612 22.307L9.61406 18.4465ZM8.65842 18.3957C8.3487 18.2759 8.06679 18.054 7.86115 17.7447L4.53015 19.9593C5.1816 20.9391 6.11523 21.7008 7.21539 22.1264L8.65842 18.3957ZM7.84604 17.7223C7.73102 17.5542 7.64641 17.3595 7.60078 17.1487L3.69137 17.9952C3.84518 18.7056 4.13426 19.3812 4.54526 19.9817L7.84604 17.7223ZM7.60078 17.1487C7.55514 16.9379 7.55021 16.7188 7.58654 16.5055L3.64329 15.8341C3.5213 16.5505 3.53757 17.2849 3.69137 17.9952L7.60078 17.1487ZM7.5848 16.5156C7.59623 16.4504 7.61192 16.3865 7.63165 16.3244L3.81906 15.1144C3.74529 15.3468 3.68718 15.5839 3.64503 15.824L7.5848 16.5156ZM7.63366 16.318L7.7207 16.0405L3.90408 14.8433L3.81704 15.1207L7.63366 16.318ZM4.59656 17.0299L4.83357 17.2114L7.26524 14.0353L7.02823 13.8539L4.59656 17.0299ZM4.83197 17.2101C5.56177 17.7701 6.38143 18.1985 7.25644 18.4743L8.45868 14.6592C8.03412 14.5254 7.63076 14.3158 7.26684 14.0366L4.83197 17.2101ZM7.2539 18.4735L7.42568 18.5278L8.633 14.7144L8.46122 14.66L7.2539 18.4735ZM6.03706 16.4456L6.02128 16.6246L10.0058 16.9757L10.0216 16.7967L6.03706 16.4456ZM6.02025 16.6367C5.96264 17.3392 6.1438 18.0482 6.54518 18.6398L9.85527 16.3941C9.97384 16.5689 10.0227 16.77 10.0069 16.9637L6.02025 16.6367ZM6.53412 18.6234C6.88601 19.1533 7.39507 19.5717 8.00291 19.807L9.44665 16.0766C9.62966 16.1474 9.77252 16.2693 9.86634 16.4106L6.53412 18.6234ZM8.00291 19.807C8.61196 20.0427 9.27992 20.0783 9.91188 19.9068L8.86399 16.0465C9.05744 15.994 9.26243 16.0053 9.44665 16.0766L8.00291 19.807ZM9.92269 19.9038C10.2269 19.8194 10.5141 19.6877 10.7749 19.5153L8.56829 16.179C8.65365 16.1225 8.7496 16.0782 8.85318 16.0495L9.92269 19.9038ZM10.7792 19.5124L15.4028 16.437L13.1875 13.1065L8.5639 16.1819L10.7792 19.5124ZM15.3932 16.4434C15.7427 16.2137 16.0364 15.9148 16.2594 15.5699L12.9009 13.3973C12.9744 13.2837 13.0739 13.181 13.1971 13.1001L15.3932 16.4434ZM16.2594 15.5699C16.4824 15.2253 16.6312 14.8406 16.7004 14.4409L12.7589 13.7592C12.7805 13.6341 12.8276 13.5107 12.9009 13.3973L16.2594 15.5699ZM16.7016 14.4337C16.7678 14.0426 16.7587 13.642 16.6747 13.254L12.7653 14.1008C12.7414 13.9905 12.7389 13.8772 12.7577 13.7664L16.7016 14.4337ZM16.6747 13.254C16.5906 12.866 16.4325 12.4949 16.2058 12.1632L12.9031 14.4198C12.8349 14.3199 12.7892 14.2112 12.7653 14.1008L16.6747 13.254ZM16.2205 12.1849C15.8687 11.6553 15.3598 11.237 14.7523 11.0017L13.3076 14.7316C13.1248 14.6609 12.9822 14.5392 12.8885 14.3981L16.2205 12.1849ZM14.7523 11.0017C14.1436 10.7659 13.4759 10.7299 12.8441 10.901L13.8894 14.762C13.6962 14.8143 13.4915 14.8029 13.3076 14.7316L14.7523 11.0017ZM12.8316 10.9044C12.5277 10.9888 12.2407 11.1203 11.9802 11.2926L14.1861 14.6293C14.1009 14.6856 14.0052 14.7299 13.9019 14.7586L12.8316 10.9044ZM11.9754 11.2957L10.211 12.4694L12.4265 15.7999L14.1909 14.6262L11.9754 11.2957ZM10.2137 12.4677C10.0961 12.5456 9.97067 12.6025 9.84202 12.6384L10.9164 16.4914C11.4525 16.3419 11.9607 16.1087 12.4239 15.8016L10.2137 12.4677ZM9.85561 12.6347C9.54047 12.7202 9.20853 12.7033 8.90002 12.5839L7.45699 16.3146C8.55837 16.7406 9.76274 16.8044 10.9029 16.4951L9.85561 12.6347ZM8.90002 12.5839C8.59032 12.4641 8.30842 12.2422 8.10281 11.9329L4.77173 14.1474C5.42316 15.1273 6.35681 15.889 7.45699 16.3146L8.90002 12.5839ZM8.08746 11.9101C7.97245 11.7422 7.88784 11.5475 7.84221 11.3368L3.93285 12.1835C4.08673 12.894 4.37592 13.5697 4.78708 14.1701L8.08746 11.9101ZM7.84221 11.3368C7.79656 11.1261 7.79164 10.907 7.82797 10.6937L3.88475 10.0222C3.76271 10.7387 3.77898 11.4731 3.93285 12.1835L7.84221 11.3368ZM7.82729 10.6977C7.86054 10.5048 7.93135 10.3256 8.03127 10.1712L4.6731 7.99805C4.27626 8.61128 4.00932 9.2995 3.88543 10.0182L7.82729 10.6977ZM8.03127 10.1712C8.13106 10.017 8.25645 9.89262 8.39526 9.80163L6.20235 6.45631C5.58951 6.85804 5.07007 7.38463 4.6731 7.99805L8.03127 10.1712ZM8.40625 9.79438L13.0303 6.71949L10.8155 3.38868L6.19136 6.46357L8.40625 9.79438ZM13.0293 6.72021C13.1465 6.64234 13.2717 6.58548 13.4001 6.54966L12.3248 2.69688C11.7884 2.84659 11.2799 3.0803 10.8165 3.38796L13.0293 6.72021ZM13.386 6.55353C13.7012 6.46804 14.0331 6.48495 14.3416 6.60429L15.7847 2.87365C14.6833 2.44764 13.479 2.38378 12.3389 2.69302L13.386 6.55353ZM14.3416 6.60429C14.6514 6.72409 14.9333 6.94604 15.1389 7.25534L18.4699 5.04075C17.8185 4.06089 16.8848 3.29919 15.7847 2.87365L14.3416 6.60429ZM15.1541 7.27785C15.2691 7.44588 15.3538 7.64061 15.3994 7.85136L19.3088 7.00465C19.1549 6.29425 18.8658 5.61866 18.4547 5.01823L15.1541 7.27785ZM15.3994 7.85136C15.4451 8.06217 15.45 8.28127 15.4137 8.49464L19.357 9.16581C19.4789 8.44934 19.4626 7.71499 19.3088 7.00465L15.3994 7.85136ZM15.416 8.48152C15.4042 8.5481 15.3881 8.61345 15.368 8.67707L19.1815 9.88422C19.2546 9.65316 19.3124 9.41752 19.3547 9.17893L15.416 8.48152ZM15.3664 8.68201L15.2794 8.95948L19.096 10.1567L19.183 9.87928L15.3664 8.68201ZM18.4025 7.96935L18.1657 7.78826L15.736 10.9658L15.9728 11.1469L18.4025 7.96935ZM18.1684 7.79035C17.4386 7.23028 16.6188 6.80175 15.7436 6.52605L14.5417 10.3412C14.9662 10.4749 15.3694 10.6845 15.7333 10.9637L18.1684 7.79035ZM15.7458 6.52673L15.5738 6.47234L14.3676 10.2861L14.5396 10.3405L15.7458 6.52673ZM16.9628 8.55674L16.9788 8.37768L12.9946 8.0227L12.9786 8.20175L16.9628 8.55674ZM16.98 8.36316C17.0374 7.6614 16.8567 6.9532 16.4565 6.36183L13.1439 8.60386C13.0261 8.42989 12.9776 8.22982 12.9933 8.03721L16.98 8.36316ZM16.4662 6.37628C16.1143 5.84647 15.6052 5.42811 14.9975 5.19289L13.5538 8.92326C13.3708 8.85245 13.228 8.73063 13.1342 8.58941L16.4662 6.37628ZM14.9975 5.19289C14.3885 4.9572 13.7206 4.92151 13.0888 5.09296L14.1362 8.95339C13.9428 9.00586 13.7379 8.99452 13.5538 8.92326L14.9975 5.19289ZM13.0777 5.09599C12.7735 5.1804 12.4863 5.31206 12.2256 5.4845L14.4321 8.82082C14.3467 8.87729 14.2508 8.92162 14.1472 8.95036L13.0777 5.09599ZM12.2213 5.4873L7.59652 8.56293L9.81154 11.8936L14.4363 8.81802L12.2213 5.4873ZM7.6065 8.55633C7.25659 8.78603 6.96273 9.08518 6.73956 9.43035L10.0986 11.6021C10.025 11.7161 9.9252 11.8191 9.80156 11.9002L7.6065 8.55633ZM6.73956 9.43035C6.51653 9.77532 6.36777 10.1604 6.29889 10.5604L10.2409 11.2391C10.2193 11.3646 10.1722 11.4884 10.0986 11.6021L6.73956 9.43035ZM6.29819 10.5645C6.23166 10.9558 6.24048 11.3567 6.32439 11.745L10.2341 10.9C10.258 11.0105 10.2605 11.124 10.2416 11.235L6.29819 10.5645ZM6.32439 11.745C6.40832 12.1333 6.56646 12.5046 6.79317 12.8365L10.0962 10.5804C10.1646 10.6805 10.2102 10.7894 10.2341 10.9L6.32439 11.745ZM6.77882 12.8152C7.13065 13.3448 7.63942 13.763 8.24687 13.9983L9.69161 10.2683C9.87427 10.3391 10.0169 10.4607 10.1105 10.6017L6.77882 12.8152ZM8.24687 13.9983C8.85552 14.234 9.52307 14.27 10.1548 14.0991L9.10996 10.238C9.30313 10.1857 9.50775 10.1971 9.69161 10.2683L8.24687 13.9983ZM10.1685 14.0953C10.4717 14.011 10.7581 13.8797 11.0182 13.7079L8.81387 10.3701C8.89855 10.3142 8.99365 10.2703 9.09631 10.2417L10.1685 14.0953ZM11.0235 13.7044L12.7877 12.5313L10.5728 9.2005L8.80859 10.3736L11.0235 13.7044ZM12.787 12.5317C12.9038 12.4542 13.0284 12.3976 13.1562 12.362L12.0833 8.50857C11.5462 8.65812 11.0371 8.89198 10.5734 9.20007L12.787 12.5317ZM13.1434 12.3655C13.4585 12.28 13.7904 12.2969 14.0989 12.4163L15.5419 8.68565C14.4406 8.25962 13.2362 8.19577 12.0961 8.50503L13.1434 12.3655ZM14.0989 12.4163C14.4085 12.5361 14.6904 12.758 14.896 13.0673L18.2271 10.8528C17.5757 9.87295 16.6421 9.11121 15.5419 8.68565L14.0989 12.4163ZM14.9114 13.09C15.0264 13.258 15.111 13.4527 15.1566 13.6633L19.066 12.8166C18.9121 12.1062 18.6229 11.4305 18.2117 10.8301L14.9114 13.09ZM15.1566 13.6633C15.2023 13.8741 15.2072 14.0931 15.1708 14.3064L19.1141 14.978C19.2361 14.2615 19.2198 13.5271 19.066 12.8166L15.1566 13.6633ZM15.1714 14.3031C15.1382 14.4962 15.0674 14.6754 14.9675 14.83L18.3269 17.0014C18.7233 16.3881 18.9899 15.6999 19.1135 14.9813L15.1714 14.3031ZM14.9675 14.83C14.8678 14.9844 14.7423 15.109 14.6035 15.2002L16.799 18.5438C17.4114 18.1417 17.9303 17.6149 18.3269 17.0014L14.9675 14.83ZM14.594 15.2064L9.96994 18.2804L12.1844 21.6115L16.8085 18.5375L14.594 15.2064ZM9.97061 18.2799C9.85347 18.3577 9.72843 18.4145 9.60021 18.4503L10.675 22.3032C11.2116 22.1535 11.7203 21.9197 12.1837 21.6119L9.97061 18.2799Z" fill="#EA580C" mask="url(#path-1-outside-1_803_839)"/>
</svg>
