<svg width="24" height="24" viewBox="0 0 24 24" fill="none" xmlns="http://www.w3.org/2000/svg">
<path d="M10.3082 1.83527C10.15 2.44487 10.0305 3.03911 9.92875 3.64007C9.08237 3.83666 8.27013 4.15861 7.51891 4.59527C7.03339 4.25207 6.53875 3.91991 6.01459 3.61511L3.61603 5.99783C3.9029 6.485 4.21038 6.95975 4.53763 7.42079C4.03196 8.20142 3.65378 9.05757 3.41731 9.95711C2.88883 10.0519 2.36491 10.1604 1.83643 10.3003V13.686C2.32867 13.817 2.81659 13.9188 3.30883 14.0066C3.51093 14.9819 3.87839 15.9153 4.39531 16.7666C4.11892 17.1626 3.85972 17.5702 3.61843 17.9885L6.01483 20.3849C6.42115 20.1501 6.80755 19.8972 7.18459 19.6373C8.05062 20.1949 9.00889 20.5942 10.0147 20.8164C10.0958 21.2695 10.1945 21.7193 10.3106 22.1647H13.7121C13.8319 21.7039 13.9291 21.2431 14.0147 20.7847C14.9922 20.5464 15.9212 20.1414 16.7611 19.5876C17.1676 19.8631 17.5742 20.1297 17.9942 20.3803L20.3884 17.9817C20.1222 17.5317 19.8381 17.0925 19.5369 16.6651C20.0166 15.8451 20.3599 14.9526 20.5533 14.0225C21.0909 13.9231 21.6261 13.8168 22.1637 13.6745V10.2979C21.5968 10.1467 21.0297 10.0315 20.4494 9.93431C20.2236 9.08105 19.8711 8.26647 19.4037 7.51775C19.757 7.02515 20.0885 6.5173 20.3973 5.99567L17.9942 3.60383C17.4499 3.92447 16.9327 4.27007 16.427 4.63127C15.6979 4.1957 14.9087 3.87003 14.0846 3.66479C13.9831 3.05495 13.8611 2.44511 13.6984 1.83527H10.3082ZM11.9162 5.80583C11.9223 5.80582 11.9283 5.80582 11.9344 5.80583C12.6826 5.8047 13.4251 5.93626 14.1273 6.19439C14.2879 6.25295 14.4436 6.31631 14.5994 6.39743C15.9434 7.01644 17.033 8.07975 17.6846 9.40823C17.7455 9.53255 17.8022 9.65903 17.8564 9.78551C18.4518 11.2336 18.4944 12.8501 17.9759 14.3275C17.9512 14.3997 17.9263 14.4698 17.8991 14.5308C17.2846 16.0946 16.0835 17.3565 14.5519 18.0475L14.5091 18.0768C13.7163 18.4241 12.8613 18.6074 11.9957 18.6156C11.1301 18.6238 10.2718 18.4566 9.47251 18.1243C9.4733 18.1206 9.4733 18.1167 9.47251 18.113C8.67942 17.7788 7.96138 17.289 7.36082 16.6726C6.76025 16.0562 6.28935 15.3256 5.97595 14.5241L5.94427 14.4381C5.36736 12.8886 5.41269 11.1759 6.07075 9.65903C6.10675 9.57335 6.14515 9.48743 6.18835 9.40391C6.86383 8.0248 8.00885 6.93169 9.41779 6.32087C9.55804 6.2607 9.70046 6.2057 9.84475 6.15599C10.5112 5.92608 11.2112 5.80777 11.9162 5.80583ZM14.0008 7.35959C13.8589 7.35781 13.7186 7.39027 13.5918 7.45423C13.4651 7.51819 13.3556 7.61176 13.2728 7.72701C13.1899 7.84226 13.136 7.9758 13.1157 8.1163C13.0953 8.2568 13.1092 8.40013 13.156 8.53415C13.2018 8.66192 13.2769 8.77717 13.3754 8.87063L12.5623 10.2801C12.3099 10.17 12.0355 10.1198 11.7604 10.1333C11.4553 10.1503 11.1599 10.2466 10.9033 10.4125C10.6466 10.5784 10.4377 10.8083 10.2969 11.0796L8.55331 10.3953V10.3771C8.57363 10.1811 8.52211 9.98444 8.40831 9.8236C8.29451 9.66275 8.12619 9.5487 7.93462 9.50264C7.74305 9.45658 7.54127 9.48164 7.36679 9.57317C7.19231 9.6647 7.057 9.81646 6.98602 10.0003C6.91503 10.1841 6.91319 10.3874 6.98084 10.5724C7.04849 10.7575 7.18104 10.9117 7.35383 11.0063C7.52662 11.101 7.72791 11.1297 7.92028 11.0871C8.11266 11.0445 8.28302 10.9335 8.39971 10.7748L10.1433 11.459C10.0609 11.7842 10.073 12.1261 10.1782 12.4445C10.2835 12.763 10.4774 13.0448 10.7373 13.2569L9.92419 14.5262C9.77817 14.4668 9.62078 14.4406 9.46339 14.4494C9.21471 14.4647 8.97889 14.5652 8.79562 14.734C8.61235 14.9028 8.49281 15.1296 8.45711 15.3761C8.42142 15.6227 8.47174 15.8741 8.59963 16.0879C8.72751 16.3017 8.92514 16.465 9.15927 16.5502C9.39339 16.6354 9.64972 16.6373 9.88512 16.5557C10.1205 16.4741 10.3206 16.3139 10.4518 16.1021C10.5829 15.8902 10.6371 15.6397 10.6052 15.3926C10.5732 15.1455 10.4572 14.9169 10.2765 14.7453L11.0896 13.4805C11.4259 13.6439 11.8054 13.696 12.1733 13.6294C12.5411 13.5628 12.8782 13.3809 13.1359 13.11L14.1523 13.8689C14.0565 14.0516 14.0061 14.2547 14.0052 14.4611C14.0044 14.6674 14.0532 14.8709 14.1474 15.0545C14.2417 15.238 14.3787 15.3962 14.5469 15.5157C14.7151 15.6352 14.9096 15.7126 15.1139 15.7412C15.3183 15.7699 15.5265 15.749 15.7211 15.6803C15.9156 15.6116 16.0909 15.4972 16.2319 15.3466C16.373 15.196 16.4759 15.0138 16.5318 14.8152C16.5877 14.6165 16.5951 14.4074 16.5532 14.2053C16.5068 13.9788 16.4001 13.7689 16.2445 13.5978C16.0889 13.4266 15.8901 13.3006 15.6689 13.2329C15.4478 13.1652 15.2124 13.1583 14.9877 13.213C14.763 13.2677 14.5571 13.3819 14.3918 13.5437L13.3775 12.7896C13.5969 12.417 13.6709 11.9765 13.5855 11.5526C13.5001 11.1287 13.2612 10.7513 12.9146 10.4928L13.7277 9.08327C13.849 9.12267 13.9774 9.13533 14.1041 9.12037C14.2308 9.10541 14.3527 9.0632 14.4615 8.99663C14.5703 8.93006 14.6634 8.84071 14.7344 8.73473C14.8053 8.62875 14.8525 8.50866 14.8727 8.38271C14.8928 8.25675 14.8854 8.12794 14.851 8.00511C14.8166 7.88228 14.756 7.76836 14.6734 7.67119C14.5908 7.57401 14.4881 7.49588 14.3724 7.44217C14.2567 7.38847 14.1308 7.36046 14.0032 7.36007L14.0008 7.35959Z" fill="#60A5FA"/>
</svg>
