<svg width="24" height="25" viewBox="0 0 24 25" fill="none" xmlns="http://www.w3.org/2000/svg">
<path d="M16.2707 19.2083C16.3141 19.186 16.3554 19.1608 16.3944 19.133C16.7473 18.9986 17.1258 18.8973 17.4641 18.9184C17.7684 18.9374 18.098 19.049 18.3858 19.6176L18.3858 19.6176L18.39 19.6257C18.4403 19.7229 18.5925 19.9904 18.9275 20.1338C19.3704 20.3233 19.7758 20.1622 19.9996 19.9788C20.1823 19.8291 20.2743 19.6529 20.3142 19.5679C20.3627 19.4648 20.3946 19.3636 20.4164 19.2781C20.5002 18.9512 20.5208 18.5255 20.4791 18.0707C20.4016 17.2274 20.0941 16.1112 19.3228 14.9994C20.1744 11.2527 17.8291 7.10076 14.232 4.92664C13.8167 4.67568 13.2813 4.75898 12.9619 5.12422C12.6425 5.48946 12.6314 6.03125 12.9355 6.40928C13.582 7.21288 14.0399 8.15127 14.2757 9.15532C14.4472 9.88602 14.4978 10.6379 14.4274 11.3815C12.2832 9.89254 10.2827 8.20525 8.45253 6.34145C8.09347 5.97578 7.51607 5.94075 7.11543 6.26033C6.84031 6.47978 6.7097 6.81767 6.74446 7.14753C6.67125 7.09366 6.59711 7.03929 6.52203 6.98443C6.13912 6.70465 5.61234 6.73229 5.26082 7.05062C4.9093 7.36895 4.82971 7.89041 5.07027 8.29911C5.33182 8.74347 5.63326 9.16309 5.97084 9.55277C7.50159 11.5951 9.23676 13.4741 11.1485 15.1608C9.86309 15.4627 8.29072 15.3139 6.64677 14.5481L6.64679 14.548L6.63797 14.544C6.09626 14.298 5.5862 13.9875 5.11886 13.6193C4.7364 13.318 4.19253 13.336 3.83075 13.6618C3.46898 13.9877 3.39446 14.5267 3.65428 14.9385C4.8759 16.8746 6.65414 18.396 8.75552 19.3035C9.92672 19.8677 11.2125 20.1536 12.5127 20.139C13.8206 20.1242 15.1071 19.8056 16.2707 19.2083Z" stroke="#EA580C" stroke-width="2" stroke-linejoin="round"/>
</svg>
