<svg width="24" height="25" viewBox="0 0 24 25" fill="none" xmlns="http://www.w3.org/2000/svg">
<path fill-rule="evenodd" clip-rule="evenodd" d="M11.5003 6.5C8.94449 6.5 7.34755 7.82542 6.70832 10.4763C7.66679 9.15083 8.78487 8.6539 10.0626 8.98506C10.7916 9.17396 11.3129 9.72262 11.8894 10.3301C12.829 11.3192 13.9167 12.464 16.2918 12.464C18.8472 12.464 20.4446 11.1386 21.0834 8.48813C20.1253 9.81354 19.0072 10.3105 17.7295 9.97892C17.0002 9.79003 16.4789 9.24136 15.9024 8.63431C14.9627 7.64436 13.8754 6.5 11.5003 6.5ZM6.70832 12.464C4.15292 12.464 2.5556 13.7894 1.91675 16.4402C2.87521 15.1148 3.9933 14.6179 5.27062 14.949C5.99999 15.1379 6.52129 15.6866 7.09779 16.2941C8.03748 17.2832 9.12476 18.428 11.5003 18.428C14.0557 18.428 15.653 17.1029 16.2918 14.4521C15.3334 15.7775 14.2153 16.2745 12.9376 15.9433C12.2086 15.754 11.6873 15.2053 11.1108 14.5983C10.1711 13.6091 9.08345 12.464 6.70832 12.464Z" fill="#0EA5E9"/>
</svg>
