<svg width="24" height="24" viewBox="0 0 24 24" fill="none" xmlns="http://www.w3.org/2000/svg">
<path d="M15.4773 9.29842C15.4773 9.67205 15.3664 10.0373 15.1589 10.3479C14.9513 10.6586 14.6562 10.9007 14.311 11.0437C13.9658 11.1867 13.586 11.2241 13.2196 11.1512C12.8531 11.0784 12.5165 10.8985 12.2522 10.6344C12.0325 10.4147 11.8704 10.1442 11.7801 9.84689C11.6899 9.54958 11.6744 9.2346 11.735 8.92986C11.7956 8.62513 11.9304 8.34004 12.1275 8.09985C12.3246 7.85966 12.5779 7.6718 12.8649 7.55289C13.152 7.43398 13.4639 7.3877 13.7732 7.41815C14.0824 7.44861 14.3793 7.55485 14.6376 7.72747C14.896 7.90009 15.1077 8.13377 15.2542 8.40779C15.4006 8.68181 15.4773 8.98772 15.4773 9.29842Z" fill="#FBBF24"/>
<path d="M10.4098 12.8194C9.36632 12.8194 8.52051 13.6652 8.52051 14.7086C8.52051 15.752 9.36632 16.5978 10.4098 16.5978C11.4531 16.5978 12.299 15.752 12.299 14.7086C12.299 13.6652 11.4531 12.8194 10.4098 12.8194Z" fill="#60A5FA"/>
<path fill-rule="evenodd" clip-rule="evenodd" d="M17.5033 15.3525C16.744 15.8434 15.8992 16.1871 15.0129 16.3659C15.2698 15.6336 15.355 14.8521 15.262 14.0816C16.0134 13.8188 16.6923 13.3828 17.2438 12.8087C17.7952 12.2346 18.2037 11.5387 18.436 10.7773C18.7865 9.62858 18.7175 8.39271 18.2413 7.29015C17.7652 6.18758 16.9128 5.29003 15.8363 4.7576C14.7598 4.22517 13.5292 4.09244 12.3639 4.38309C11.1986 4.67374 10.1745 5.36888 9.47414 6.3445C8.51288 6.45265 7.57746 6.72571 6.70898 7.15169C7.22704 5.48 8.33523 4.05367 9.82702 3.13852C11.3188 2.22337 13.0925 1.88181 14.8174 2.1775C16.5424 2.47307 18.1011 3.38571 19.2031 4.74536C20.305 6.10501 20.875 7.81892 20.8069 9.56772C20.7619 10.7265 20.4381 11.8574 19.8629 12.8645C19.2878 13.8715 18.4784 14.725 17.5032 15.3527L17.5033 15.3525ZM6.79514 8.46541L8.56411 8.6801C8.60422 8.33848 8.67902 8.00184 8.78733 7.67538C8.08764 7.83807 7.41617 8.10435 6.79514 8.46541Z" fill="#FBBF24"/>
<path fill-rule="evenodd" clip-rule="evenodd" d="M6.48576 8.65444C7.2496 8.15857 8.10044 7.81184 8.9933 7.63257C8.72321 8.36475 8.62621 9.1495 8.70989 9.92541C7.96107 10.1919 7.28544 10.6308 6.73758 11.2066C6.18973 11.7824 5.78501 12.4791 5.55614 13.2402C5.32722 14.0014 5.28062 14.8058 5.4201 15.5883C5.55958 16.3708 5.88123 17.1096 6.35904 17.7448C6.83686 18.38 7.45743 18.8939 8.1706 19.2448C8.88377 19.5958 9.66952 19.7741 10.4643 19.7652C11.2591 19.7564 12.0407 19.5607 12.7458 19.1939C13.451 18.8271 14.0599 18.2996 14.5235 17.654C15.4843 17.5486 16.4197 17.2784 17.2887 16.8554C16.9445 17.962 16.3388 18.9693 15.5228 19.7922C14.7069 20.615 13.7046 21.2292 12.601 21.5826C11.4974 21.9361 10.3248 22.0185 9.18264 21.8228C8.04045 21.6271 6.96222 21.159 6.03923 20.4583C5.11627 19.7576 4.37569 18.8449 3.8802 17.7974C3.3847 16.7498 3.14886 15.5983 3.19265 14.4403C3.23644 13.2824 3.55856 12.152 4.13175 11.1449C4.70494 10.1377 5.51233 9.28353 6.48558 8.65454L6.48576 8.65444Z" fill="#60A5FA"/>
</svg>
