<svg width="24" height="24" viewBox="0 0 24 24" fill="none" xmlns="http://www.w3.org/2000/svg">
<path d="M21.4918 2.50998C21.4918 2.50998 14.2398 2.15698 8.52581 9.98798C4.14081 15.996 2.50781 21.492 2.50781 21.492L4.34981 20.542C5.71581 18.17 6.42781 17.192 7.76681 15.797C10.1678 16.499 12.6738 16.414 14.8468 13.898C12.9488 13.368 11.4308 13.49 9.18981 13.718C11.7058 12 13.4238 11.62 15.7968 12L16.7458 10.102C15.0368 9.77898 13.8978 9.74998 12.2088 10.14C14.0788 8.81998 15.3788 8.07998 17.6948 8.20298L18.8428 6.37098C17.3628 6.26698 16.4708 6.42798 14.7708 6.84598C16.2998 5.45998 17.6948 4.83398 19.7258 4.70998C19.7258 4.70998 20.7228 2.91698 21.4918 2.50798V2.50998Z" fill="#E53935"/>
</svg>
