<svg width="24" height="24" viewBox="0 0 24 24" fill="none" xmlns="http://www.w3.org/2000/svg">
<path d="M8.26411 3.08798C8.04211 3.21598 7.74011 3.39798 7.60011 3.48798C7.52511 3.53498 7.06011 3.81598 6.56711 4.11198C6.07411 4.40798 5.66711 4.66198 5.66111 4.67298C5.65805 4.67952 5.65327 4.68512 5.64729 4.68917C5.6413 4.69322 5.63433 4.69557 5.62711 4.69598C5.60311 4.69598 4.26711 5.49098 3.96711 5.68398C3.88724 5.73501 3.81516 5.79732 3.75311 5.86898L3.68511 5.95998L3.67811 7.05498C3.67011 8.38198 3.68511 8.43498 4.08011 8.51898C4.23611 8.55198 8.87211 8.52698 8.95411 8.49198C9.28011 8.35598 9.27511 8.39798 9.26611 5.70198L9.25811 3.37798L9.18511 3.26498C9.01611 3.00498 8.55811 2.91698 8.26511 3.08798M10.5431 3.09098C10.4751 3.13398 10.4111 3.19498 10.4011 3.22598C10.3911 3.25698 10.3711 3.28298 10.3581 3.28298C10.3441 3.28298 10.3341 3.29298 10.3351 3.30298C10.337 3.31432 10.3363 3.32593 10.3331 3.33698C10.3301 3.34498 10.3201 3.38698 10.3101 3.43198C10.2631 3.64298 10.2901 20.654 10.3381 20.654C10.3521 20.654 10.3551 20.666 10.3481 20.68C10.3191 20.724 10.5391 20.92 10.6501 20.951C11.0241 21.055 16.1501 20.977 16.1501 20.866C16.1501 20.854 16.1701 20.844 16.1921 20.844C16.2161 20.844 16.2281 20.834 16.2221 20.822C16.2131 20.809 16.2321 20.779 16.2601 20.754C16.2901 20.729 16.3131 20.686 16.3131 20.659C16.3131 20.631 16.3191 20.602 16.3271 20.594C16.3351 20.587 16.3411 17.966 16.3401 14.772C16.3401 9.73998 16.3451 8.95198 16.3801 8.86898C16.4011 8.81698 16.4131 8.77398 16.4051 8.77398C16.3371 8.77398 16.6321 8.51998 16.7211 8.50198C16.7431 8.49798 17.4611 8.48998 18.3171 8.48498C20.1831 8.47498 20.1071 8.48498 20.2601 8.21698L20.3231 8.10798V5.75598C20.3231 3.15198 20.3341 3.32598 20.1501 3.15298C19.9901 3.00298 20.2751 3.00998 15.2841 3.01098L10.6671 3.01198L10.5431 3.09098Z" fill="#4ADE80"/>
</svg>
