<svg width="24" height="24" viewBox="0 0 24 24" fill="none" xmlns="http://www.w3.org/2000/svg">
<path d="M14.6901 5.74937C14.6901 6.45528 14.4209 7.05427 13.8824 7.54617C13.3439 8.03807 12.6883 8.28414 11.9158 8.28414C11.1199 8.28414 10.4525 8.03815 9.91401 7.54617C9.37556 7.05419 9.10633 6.45527 9.10633 5.74937C9.10633 5.04352 9.37556 4.44457 9.91401 3.95257C10.4525 3.46059 11.1198 3.2146 11.9158 3.2146C12.6883 3.2146 13.344 3.46059 13.8824 3.95257C14.4209 4.44455 14.6901 5.04347 14.6901 5.74937ZM9.07118 14.6327C9.07118 13.9268 9.34041 13.3279 9.87893 12.8359C10.4408 12.3224 11.1198 12.0658 11.9157 12.0658C12.6648 12.0658 13.3204 12.3224 13.8823 12.8359C14.4442 13.3278 14.772 13.8841 14.8656 14.5043C15.0529 15.6594 14.8189 16.8038 14.1632 17.9375C13.5311 19.0712 12.618 19.9375 11.4239 20.5364C10.7684 20.8786 10.23 20.868 9.80853 20.5043C9.4105 20.162 9.52758 19.7556 10.1597 19.2851C10.5109 19.0497 10.8035 18.7502 11.0377 18.3866C11.2718 18.0229 11.4239 17.6487 11.4942 17.2636C11.5176 17.0925 11.4356 17.007 11.2484 17.007C10.7801 16.9855 10.3002 16.7502 9.80852 16.301C9.31685 15.8519 9.07118 15.2958 9.07118 14.6327Z" fill="#CFD8DC"/>
</svg>
