<svg width="24" height="24" viewBox="0 0 24 24" fill="none" xmlns="http://www.w3.org/2000/svg">
<path d="M6 3.5C5.44772 3.5 5 3.94772 5 4.5V20.5C5 21.0523 5.44772 21.5 6 21.5H18C18.5523 21.5 19 21.0523 19 20.5V8.5C19 8.19622 18.8619 7.9089 18.6247 7.71913L13.6247 3.71913C13.4474 3.57728 13.2271 3.5 13 3.5H6Z" stroke="#64748B" stroke-width="2" stroke-linejoin="round"/>
<path d="M12 4.5V9.5H18" stroke="#64748B" stroke-width="2" stroke-linejoin="round"/>
<path d="M10.1001 10.8C10.1001 10.4134 10.4135 10.1 10.8001 10.1H22.4001C22.7867 10.1 23.1001 10.4134 23.1001 10.8V22.4C23.1001 22.7866 22.7867 23.1 22.4001 23.1H10.8001C10.4135 23.1 10.1001 22.7866 10.1001 22.4V10.8Z" fill="#F472B6"/>
<path d="M13.45 14.65H11.75V13.55H16.45V14.65H14.75V19.65H13.45V14.65ZM17.35 13.55H18.65V18.55H21.45V19.65H17.45V13.55H17.35Z" fill="black"/>
</svg>
