<svg width="24" height="24" viewBox="0 0 24 24" fill="none" xmlns="http://www.w3.org/2000/svg">
<path d="M6.40103 10.7004C6.40103 10.7004 3.09335 13.0284 2.96411 13.9153L3.21227 13.8643C3.21227 13.8643 7.17323 11.2392 10.3132 10.9189L10.3842 10.5204L6.40103 10.7004ZM11.5934 10.3677L8.98799 12.2157L9.12887 12.3286C9.23507 12.2429 13.7569 10.8619 13.7569 10.8619L14.7102 10.2642C14.0706 10.3439 11.5934 10.3677 11.5934 10.3677ZM13.8577 12.6029C15.7078 12.6029 18.481 10.7909 18.481 10.7909L17.5846 10.6203C17.5402 10.6647 16.1389 10.5712 16.1389 10.5712L15.4736 10.3864L13.8845 12.1973L13.7551 12.5116C13.8694 12.4651 13.8576 12.6028 13.8576 12.6028L13.8577 12.6029ZM19.8953 18.3811L19.3237 18.5419L16.683 18.4849L15.0311 17.2003L13.0343 17.6999L10.725 17.5001L9.43175 18.9132L7.00535 19.638L5.79371 19.2624L5.73263 19.2099L6.27647 20.5415C6.27647 20.5415 7.50827 21.8621 8.19635 22.0174C8.88431 22.1727 10.1272 22.0062 11.0594 21.8619C11.9915 21.7176 12.735 21.3847 13.0346 20.8411C13.3342 20.2972 13.3786 20.1419 13.3786 20.1419C13.3786 20.1419 14.2666 21.3959 15.0322 21.5403C15.7978 21.6845 18.0727 20.9075 18.0727 20.9075C18.0727 20.9075 19.4599 20.5303 19.7039 20.0531C19.9481 19.576 20.5919 18.0113 20.5919 18.0113L19.8953 18.3811ZM6.04811 19.4659L6.00971 19.4483C5.91875 19.3697 5.84435 19.3055 5.79575 19.2637L6.04811 19.4659Z" fill="#CB3349"/>
<path d="M22.1379 8.94782C22.132 8.87648 22.1245 8.80526 22.1156 8.73422C22.1094 8.68363 22.1017 8.63321 22.0928 8.58302C21.9022 8.42258 21.6855 8.2799 21.46 8.15018C21.2157 8.00738 20.9601 7.87958 20.6991 7.7609C20.4399 7.6385 20.1737 7.52798 19.906 7.41998C19.7725 7.36574 19.6376 7.31318 19.5023 7.2629C19.3675 7.21034 19.2313 7.16138 19.0947 7.1117C19.3814 7.1591 19.6651 7.22414 19.9467 7.29662C20.1298 7.34402 20.312 7.39706 20.4929 7.4537C19.2056 4.0889 16.1273 1.89758 12.7666 1.89758C9.40542 1.89758 6.32754 4.08878 5.04042 7.45358C5.22111 7.39681 5.40317 7.34447 5.58642 7.29662C5.86842 7.22414 6.15234 7.1591 6.43878 7.11158C6.30174 7.16138 6.1659 7.21034 6.03054 7.2629C5.8959 7.31318 5.76102 7.36574 5.62686 7.41998C5.35914 7.52798 5.0937 7.63862 4.8339 7.76078C4.5735 7.87958 4.31766 8.0075 4.07322 8.15018C3.84774 8.27978 3.63138 8.42258 3.43998 8.5829C3.43206 8.6315 3.42402 8.68406 3.41766 8.73434C3.40914 8.80514 3.40122 8.87654 3.39534 8.94794C3.38341 9.09152 3.37716 9.23551 3.37662 9.37958C3.37459 9.66778 3.39235 9.95578 3.42978 10.2415C3.46902 10.5277 3.52158 10.812 3.59922 11.0867C3.63762 11.2243 3.68082 11.3602 3.7311 11.4915C3.76851 11.5882 3.81023 11.6833 3.85614 11.7763L3.8745 11.8113C3.89562 11.8221 3.91782 11.8329 3.93894 11.8432L4.06698 11.9043C4.13826 11.9367 4.23702 11.9835 4.31862 12.0202C4.32321 12.0164 4.32762 12.0123 4.33182 12.0081L4.09422 11.1031C4.14462 11.0893 4.5957 10.9729 5.37318 10.825C5.13072 10.7789 4.89323 10.7096 4.66398 10.6182C4.57998 10.5828 4.49742 10.5441 4.41858 10.4997C4.33974 10.4544 4.2621 10.4032 4.2021 10.3351C5.05626 10.6138 6.82122 10.4875 8.3901 10.3255C9.82494 10.1776 11.2631 10.0817 12.7089 10.0788C14.1547 10.0817 15.5933 10.1776 17.0277 10.3254C18.5973 10.4875 20.3621 10.6138 21.2162 10.335C21.1562 10.4032 21.0788 10.4545 20.9999 10.4997C20.9205 10.5438 20.8385 10.5834 20.7545 10.6182C20.5851 10.6858 20.411 10.7414 20.2337 10.7844C20.2076 10.7907 20.1812 10.7964 20.1549 10.8021C21.0074 10.9602 21.5037 11.0889 21.5567 11.103L21.3295 11.9651C21.3751 11.9445 21.4213 11.9245 21.4665 11.904L21.5943 11.8428C21.6155 11.8326 21.6371 11.8218 21.6589 11.811L21.6765 11.7762C21.6921 11.7466 21.7069 11.7156 21.721 11.6843C21.7498 11.6215 21.7772 11.5569 21.8023 11.4913C21.8526 11.3586 21.8967 11.2235 21.9343 11.0866C22.0119 10.8118 22.0643 10.5275 22.1037 10.2414C22.1404 9.95594 22.1596 9.66758 22.157 9.37934C22.1558 9.23522 22.1506 9.09134 22.1379 8.94782Z" fill="#F4EDAE"/>
<path d="M13.7363 20.9141C13.6231 20.9311 13.5101 20.9455 13.3975 20.9539C13.325 20.9575 13.2484 20.9647 13.1788 20.9647L13.153 20.9653C13.2216 20.8118 13.2896 20.6581 13.357 20.504C13.4593 20.6189 13.5896 20.7609 13.7363 20.9141ZM13.9818 21.165C14.3329 21.5127 14.7682 21.7119 15.2471 21.7473C14.4426 22.0741 13.6843 22.2002 13.1003 22.2395C12.5179 22.2785 11.9276 22.2098 11.3491 22.0513C11.3976 22.0425 11.4331 22.0363 11.476 22.0311C11.5235 22.0254 12.5608 21.8901 13.0284 21.1947L13.0723 21.1958L13.1872 21.1949C13.2648 21.1949 13.3354 21.1885 13.4096 21.1856C13.5837 21.1705 13.7569 21.1455 13.9282 21.1109C13.9459 21.129 13.9636 21.1469 13.9818 21.1649V21.165Z" fill="#E6CCAD"/>
<path d="M14.9769 10.7533C14.9433 10.7972 14.9055 10.8457 14.8656 10.8961C14.66 11.1559 14.375 11.4882 14.0371 11.8131C13.6331 11.8006 13.229 11.7943 12.8248 11.7943C12.1382 11.7943 11.4796 11.8125 10.8544 11.8429C11.7379 11.4763 12.7992 11.1181 13.9486 10.9031C14.2843 10.8395 14.6278 10.7887 14.9769 10.7533ZM9.80672 11.1489C9.49148 11.3705 9.13532 11.6532 8.78996 11.9961C8.02296 12.0726 7.25845 12.1723 6.49748 12.2949C7.47608 11.8449 8.59292 11.4309 9.80672 11.1489ZM20.6127 12.9749L20.253 15.4919L18.5298 16.6988L14.0353 16.1879L13.3586 13.9598C13.3507 13.9333 13.3354 13.9095 13.3146 13.8912C13.2938 13.873 13.2682 13.861 13.2409 13.8566C13.0743 13.8296 12.927 13.8159 12.8042 13.8159C12.681 13.8159 12.5342 13.8296 12.3668 13.8566C12.3395 13.8611 12.314 13.8732 12.2933 13.8914C12.2725 13.9097 12.2572 13.9334 12.2492 13.9598L11.5892 16.1335L7.1198 17.1282L5.34872 15.8874L4.99976 13.0629C5.07572 13.02 5.15288 12.9773 5.231 12.9345C5.34068 12.9109 5.46392 12.8858 5.60048 12.8597L5.92928 15.5249C5.93444 15.5665 5.95736 15.6036 5.99168 15.6276L7.20992 16.4814C7.2269 16.4929 7.24603 16.5008 7.26616 16.5047C7.28629 16.5085 7.307 16.5083 7.32704 16.5039L11.0017 15.6864C11.0272 15.6807 11.0507 15.6683 11.0699 15.6506C11.089 15.6328 11.1031 15.6103 11.1108 15.5853L11.7724 13.4064C11.9499 13.3608 12.4046 13.2545 12.8041 13.2545C13.2026 13.2545 13.6576 13.3607 13.8352 13.4064L14.4969 15.5852C14.5141 15.6419 14.5633 15.6822 14.622 15.6891L18.2966 16.1065C18.3322 16.1105 18.3686 16.1012 18.3979 16.0808L19.617 15.2277C19.6498 15.2043 19.6722 15.1676 19.6778 15.1272L20.0034 12.8503C20.2479 12.8975 20.4523 12.9403 20.6127 12.9749ZM21.0666 11.3963L20.7502 12.5963C20.1034 12.4537 18.6822 12.1739 16.7478 11.9855C17.3798 11.7159 18.0234 11.3779 18.6114 10.9554C19.7624 11.1181 20.6076 11.2922 21.0666 11.3963Z" fill="#656C67"/>
<path d="M8.10812 15.1507C8.35868 15.0154 8.64188 15.0355 9.08492 15.036C9.13256 15.0372 9.18152 15.0366 9.23276 15.0355C9.27632 15.035 9.32012 15.0343 9.36644 15.0331C9.82316 15.0287 10.2028 15.0721 10.1962 14.3549C10.1893 13.6379 9.8708 13.0583 9.41456 13.0628C8.95784 13.0668 8.51588 13.6543 8.54324 14.3708C8.55068 14.5576 8.57804 14.6923 8.62208 14.7894C8.22404 14.8891 8.11436 15.1354 8.10812 15.1507ZM13.5991 12.2011C13.4224 12.3453 13.2359 12.4771 13.0411 12.5957L12.3931 12.9869C12.1299 13.0201 11.8695 13.0723 11.6138 13.1429C11.5902 13.1498 11.5686 13.1625 11.551 13.1799C11.5335 13.1972 11.5205 13.2186 11.5132 13.2421L10.8532 15.4169L7.32584 16.2013L6.21476 15.4231L5.8916 12.8047C6.52256 12.6888 7.3664 12.5546 8.37992 12.4411C8.26945 12.5732 8.16467 12.7099 8.06588 12.8509L7.4624 13.7171L8.34104 13.1314C8.35424 13.1222 8.91368 12.7541 9.82904 12.3064C11.0834 12.2122 12.3414 12.1771 13.5991 12.2011ZM17.4621 14.8573C17.4577 14.8404 17.3617 14.5519 16.9368 14.6026C16.9858 14.496 17.0076 14.3521 16.9922 14.155C16.936 13.4396 16.5199 12.871 16.0636 12.8868C15.6074 12.903 15.3151 13.496 15.3403 14.2132C15.3655 14.9298 15.7485 14.9248 16.2048 14.9087C16.818 14.8973 17.1549 14.7089 17.4621 14.8573ZM19.7134 12.7969L19.3954 15.023L18.2751 15.8075L14.7524 15.4072L14.0952 13.2426C14.0879 13.2191 14.0749 13.1977 14.0573 13.1804C14.0398 13.1631 14.0183 13.1504 13.9947 13.1434C13.9729 13.137 13.5368 13.0126 13.0743 12.9725L13.1588 12.9668C13.2319 12.9617 14.4469 12.8126 15.8978 12.3125C17.5044 12.4358 18.8164 12.6336 19.7134 12.7969Z" fill="#E5CAA3"/>
<path d="M8.10812 15.1507C8.35868 15.0154 8.64188 15.0355 9.08492 15.036C9.13256 15.0372 9.18152 15.0366 9.23276 15.0355C9.27632 15.035 9.32012 15.0343 9.36644 15.0331C9.82316 15.0287 10.2028 15.0721 10.1962 14.3549C10.1893 13.6379 9.8708 13.0583 9.41456 13.0628C8.95784 13.0668 8.51588 13.6543 8.54324 14.3708C8.55068 14.5576 8.57804 14.6923 8.62208 14.7894C8.22404 14.8891 8.11436 15.1354 8.10812 15.1507ZM13.5991 12.2011C13.4224 12.3453 13.2359 12.4771 13.0411 12.5957L12.3931 12.9869C12.1299 13.0201 11.8695 13.0723 11.6138 13.1429C11.5902 13.1498 11.5686 13.1625 11.551 13.1799C11.5335 13.1972 11.5205 13.2186 11.5132 13.2421L10.8532 15.4169L7.32584 16.2013L6.21476 15.4231L5.8916 12.8047C6.52256 12.6888 7.3664 12.5546 8.37992 12.4411C8.26945 12.5732 8.16467 12.7099 8.06588 12.8509L7.4624 13.7171L8.34104 13.1314C8.35424 13.1222 8.91368 12.7541 9.82904 12.3064C11.0834 12.2122 12.3414 12.1771 13.5991 12.2011ZM17.4621 14.8573C17.4577 14.8404 17.3617 14.5519 16.9368 14.6026C16.9858 14.496 17.0076 14.3521 16.9922 14.155C16.936 13.4396 16.5199 12.871 16.0636 12.8868C15.6074 12.903 15.3151 13.496 15.3403 14.2132C15.3655 14.9298 15.7485 14.9248 16.2048 14.9087C16.818 14.8973 17.1549 14.7089 17.4621 14.8573ZM19.7134 12.7969L19.3954 15.023L18.2751 15.8075L14.7524 15.4072L14.0952 13.2426C14.0879 13.2191 14.0749 13.1977 14.0573 13.1804C14.0398 13.1631 14.0183 13.1504 13.9947 13.1434C13.9729 13.137 13.5368 13.0126 13.0743 12.9725L13.1588 12.9668C13.2319 12.9617 14.4469 12.8126 15.8978 12.3125C17.5044 12.4358 18.8164 12.6336 19.7134 12.7969Z" fill="#C7B39A"/>
<path d="M21.2504 13.7753C21.3044 13.8198 21.3473 13.9351 21.2989 14.4724C21.2395 15.1301 20.9629 16.2846 20.7918 16.4707C20.6028 16.5073 20.2066 16.4639 19.965 16.4075C20.0068 16.2418 20.0186 16.1623 20.0524 15.9929L20.4749 15.6973C20.5085 15.6739 20.5308 15.6372 20.5366 15.5972L20.8318 13.5281C21.011 13.625 21.1954 13.73 21.2504 13.7753ZM5.67347 16.4762C5.69459 16.5511 5.71679 16.6258 5.73983 16.6994C5.51243 16.7663 5.04935 16.8302 4.83995 16.7936C4.66643 16.6188 4.34267 15.4154 4.27187 14.7764C4.21415 14.2586 4.25459 14.1467 4.30727 14.1031C4.36847 14.0518 4.59719 13.9216 4.79543 13.8154L5.06327 15.989C5.06831 16.0308 5.09051 16.0678 5.12555 16.0918L5.67347 16.4762ZM14.2211 16.506L14.205 16.6447C14.205 16.6447 13.718 17.0963 12.9342 17.1973C12.1502 17.2984 11.5342 16.8166 11.5342 16.8166C11.5598 16.9003 11.5964 17.0894 11.7739 17.251C11.5513 17.2237 11.3272 17.2098 11.1029 17.2092C11.0174 17.2092 10.931 17.2116 10.8476 17.2157C10.3652 17.2409 9.68651 17.9704 9.20915 18.7052C8.97503 18.7794 8.24315 19.0117 7.39583 19.262C6.60503 18.1662 6.21611 17.0465 6.17663 16.9307L6.17723 16.9301C6.16127 16.8854 6.14519 16.8408 6.13043 16.7952L6.33371 16.9375V16.938L6.83603 17.2897L7.00403 17.4067C7.02911 17.4245 7.05875 17.4336 7.08839 17.4336C7.09919 17.4336 7.10999 17.4324 7.12079 17.4304L11.7378 16.4024C11.7895 16.3912 11.8314 16.3522 11.8468 16.3015L12.5051 14.1341C12.6042 14.1197 12.7041 14.1119 12.8042 14.1107C12.8894 14.1107 12.9899 14.1187 13.1035 14.1341L13.781 16.3661C13.7982 16.4225 13.8473 16.4638 13.9055 16.4699L14.2211 16.506Z" fill="#E6CCAD"/>
<path d="M19.4911 16.3869L19.6402 16.2823C19.6155 16.3854 19.589 16.488 19.5607 16.5902C19.3536 17.2543 19.1089 17.8418 18.8374 18.3607C18.7774 18.3648 18.714 18.3672 18.6461 18.3672C18.4365 18.3672 18.2224 18.3494 17.9854 18.3276C17.5743 18.2899 16.9217 18.2152 16.7157 18.1912C16.5381 18.0496 15.9306 17.567 15.4252 17.1692C15.4053 17.1532 15.3882 17.1384 15.3715 17.1246C15.2825 17.0493 15.1813 16.9638 14.9764 16.9638C14.7904 16.9638 14.5185 17.0316 13.8616 17.2304C14.2029 16.9752 14.2051 16.6458 14.2051 16.6458L14.2212 16.507L18.5525 16.999C18.5878 17.0031 18.6244 16.994 18.654 16.9735L19.0893 16.6687L19.4911 16.3869Z" fill="#E6CCAD"/>
<path d="M16.3033 7.27392C16.3165 7.65912 16.3068 8.35752 16.1274 9.01128C16.1207 9.03579 16.1207 9.06166 16.1274 9.08616C15.8993 9.06241 15.6709 9.04145 15.4422 9.02328C15.6985 8.48604 15.7544 7.914 15.7666 7.71252C15.9634 7.57248 16.1594 7.4046 16.3033 7.27392ZM9.76788 7.7124C9.77964 7.914 9.83556 8.48484 10.0915 9.0216C9.86316 9.03984 9.6348 9.06096 9.40692 9.08496C9.41347 9.0608 9.41347 9.03533 9.40692 9.01116C9.22764 8.3586 9.21852 7.65972 9.23112 7.2738C9.37488 7.4046 9.57024 7.57248 9.76788 7.7124Z" fill="#EBD599"/>
<path d="M17.4621 14.8573C17.1549 14.709 16.8181 14.8974 16.2049 14.9089C15.7486 14.9249 15.3655 14.9298 15.3404 14.2133C15.3152 13.4962 15.6075 12.9031 16.0637 12.8869C16.52 12.871 16.9361 13.4396 16.9923 14.1552C17.0077 14.3522 16.9858 14.496 16.9369 14.6027C17.3617 14.5519 17.4577 14.8403 17.4621 14.8573ZM16.0283 13.8073C16.0901 13.806 16.1489 13.7802 16.1918 13.7357C16.2347 13.6912 16.2582 13.6315 16.2573 13.5697C16.2568 13.5391 16.2503 13.5088 16.2381 13.4807C16.2258 13.4526 16.2082 13.4272 16.1861 13.4059C16.164 13.3847 16.1379 13.368 16.1094 13.3568C16.0808 13.3457 16.0503 13.3403 16.0197 13.341C15.9584 13.3429 15.9003 13.369 15.858 13.4134C15.8158 13.4578 15.7927 13.5172 15.7938 13.5785C15.795 13.6398 15.8202 13.6982 15.8641 13.7411C15.908 13.7839 15.967 13.8077 16.0283 13.8073Z" fill="#2D3136"/>
<path d="M16.028 13.8055C16.1568 13.8032 16.2592 13.6969 16.2569 13.5682C16.2545 13.4394 16.1482 13.3369 16.0195 13.3393C15.8907 13.3417 15.7883 13.4479 15.7906 13.5767C15.793 13.7054 15.8993 13.8079 16.028 13.8055Z" fill="#EDF6FA"/>
<path d="M10.1962 14.3546C10.2029 15.0717 9.82319 15.0284 9.36647 15.0329C9.32015 15.0341 9.27623 15.0345 9.23267 15.0353C9.18143 15.0365 9.13235 15.0368 9.08495 15.0356C8.64191 15.0351 8.35859 15.015 8.10815 15.1503C8.11415 15.135 8.22395 14.8887 8.62199 14.7889C8.57807 14.6917 8.55047 14.5571 8.54315 14.3705C8.51579 13.6539 8.95775 13.0663 9.41447 13.0625C9.87071 13.0579 10.1893 13.6376 10.1962 14.3546ZM9.49103 13.9795C9.55289 13.9778 9.61152 13.9515 9.65403 13.9066C9.69654 13.8616 9.71945 13.8016 9.71771 13.7397C9.71598 13.6779 9.68974 13.6193 9.64478 13.5768C9.59982 13.5342 9.53981 13.5113 9.47795 13.5131C9.44733 13.5139 9.41717 13.5208 9.3892 13.5333C9.36124 13.5458 9.33601 13.5637 9.31496 13.586C9.27245 13.631 9.24954 13.691 9.25127 13.7528C9.25301 13.8147 9.27924 13.8733 9.32421 13.9158C9.36917 13.9583 9.42918 13.9812 9.49103 13.9795Z" fill="#2D3136"/>
<path d="M9.4908 13.9801C9.6196 13.9768 9.72132 13.8697 9.71801 13.7409C9.7147 13.6121 9.6076 13.5103 9.47881 13.5137C9.35001 13.517 9.24829 13.6241 9.2516 13.7529C9.25491 13.8817 9.36201 13.9834 9.4908 13.9801Z" fill="#EDF6FA"/>
<path opacity="0.8" d="M6.71031 9.48674C6.71031 9.48674 6.78111 8.56274 6.92595 8.20874C7.00059 8.02634 7.45707 7.91006 7.80567 7.82714C8.15415 7.7441 8.71011 7.57814 8.81811 8.06774C8.92599 8.55734 9.10011 8.9141 9.21627 9.07178L9.06699 7.05542L6.66879 7.63622L6.51099 9.4205L6.58575 9.5615L6.71031 9.48674ZM18.8459 9.48674C18.8459 9.48674 18.7751 8.56274 18.6303 8.20874C18.5555 8.02634 18.099 7.91006 17.7507 7.82714C17.4019 7.7441 16.8461 7.57814 16.7381 8.06774C16.6303 8.55734 16.456 8.9141 16.3397 9.07178L16.4892 7.05542L18.8874 7.63622L19.0451 9.4205L18.9703 9.5615L18.8459 9.48674Z" fill="#EBD599" fill-opacity="0.8"/>
<path opacity="0.75" d="M15.4553 3.45154C15.4553 3.45154 15.3917 8.28694 14.2622 8.28694H11.3256C10.196 8.28694 10.1048 3.4537 10.1048 3.4537L9.54994 5.0947L9.55906 7.34638L9.95302 7.65958L10.1322 8.62654L10.3827 9.19054L15.2173 9.19954L15.441 8.79658L15.629 8.11618L15.656 7.68658L16.19 6.1621L15.4553 3.45154ZM19.0129 7.96018C19.0129 7.96018 19.2455 9.62818 19.8606 9.92902L18.9992 9.66922L19.0129 7.96018ZM6.5209 7.96018C6.5209 7.96018 6.28834 9.62818 5.6731 9.92902L6.53458 9.66922L6.5209 7.96018Z" fill="#EBD599" fill-opacity="0.75"/>
<path d="M19.1787 9.66156C19.4715 9.75756 19.766 9.85908 20.0329 10.0151C19.8901 9.95844 19.7427 9.918 19.5943 9.8814C19.4465 9.84414 19.2975 9.81141 19.1477 9.78324C18.8482 9.72634 18.547 9.67927 18.2444 9.64212C17.9424 9.60258 17.6395 9.56985 17.336 9.54396C17.0323 9.51828 16.7291 9.4926 16.4247 9.47484C15.208 9.39996 13.988 9.38124 12.7671 9.38004C11.5465 9.38064 10.3263 9.40356 9.1095 9.47544C8.8053 9.49308 8.50206 9.51888 8.19834 9.54456C7.89474 9.57024 7.59138 9.60288 7.28994 9.64272C6.9873 9.67932 6.68634 9.72732 6.3867 9.78372C6.23706 9.8118 6.0879 9.84432 5.93958 9.8814C5.79174 9.918 5.64378 9.95844 5.50098 10.0151C5.76774 9.8592 6.06222 9.75708 6.35574 9.66108C6.38034 9.65304 6.40542 9.6462 6.4305 9.63828C6.42882 9.63192 6.42702 9.62628 6.42594 9.61944C6.42078 9.58572 6.3123 8.784 6.5013 7.63752C6.51042 7.58268 6.54978 7.53816 6.60354 7.52328L6.91362 7.43496C6.98094 5.02992 7.97142 3.89892 8.00238 3.864C7.11738 5.28804 7.12542 6.97704 7.14078 7.3704L9.06762 6.8226L9.07218 6.82164C9.08022 6.81984 9.08814 6.81876 9.09618 6.81816C9.09834 6.81816 9.10134 6.81756 9.1041 6.81756C9.11394 6.81708 9.12486 6.81816 9.13566 6.82044C9.13734 6.82044 9.13902 6.82164 9.1413 6.82212C9.14934 6.8238 9.15678 6.82656 9.16518 6.83004C9.16866 6.83184 9.17082 6.83364 9.1743 6.83532C9.18042 6.83892 9.1869 6.84276 9.19314 6.84732C9.19482 6.8484 9.19674 6.84888 9.1983 6.85068L9.20166 6.85416C9.20346 6.85584 9.20562 6.85704 9.20742 6.85884C9.20862 6.86052 9.25998 6.91116 9.34158 6.98724C9.32226 6.35244 9.35238 4.53096 10.2199 3.02136C10.2015 3.07428 9.51342 5.08656 9.75054 7.34184C9.82708 7.40345 9.9061 7.4619 9.98742 7.51704C10.0256 7.54344 10.0491 7.58664 10.0496 7.63296C10.0503 7.6404 10.0667 8.35932 10.3843 8.97084C10.3887 8.97996 10.3921 8.98956 10.3951 8.99928C11.1847 8.94564 11.9767 8.92392 12.7667 8.92344C13.5572 8.92392 14.3483 8.94672 15.1379 9.00108C15.1408 8.99076 15.1443 8.98068 15.1495 8.97084C15.4669 8.35932 15.4835 7.6404 15.4835 7.63284C15.4846 7.58664 15.508 7.54332 15.5463 7.51704C15.6273 7.46166 15.7061 7.40322 15.7827 7.34184C16.0202 5.08656 15.332 3.07428 15.3139 3.02136C16.1805 4.53096 16.2115 6.35232 16.192 6.98736C16.2373 6.94515 16.282 6.9023 16.3261 6.85884C16.3277 6.85704 16.3303 6.85596 16.3317 6.85404C16.3329 6.85308 16.3336 6.85188 16.3353 6.85068C16.337 6.849 16.3388 6.84828 16.3405 6.8472C16.3468 6.84276 16.3531 6.8388 16.3593 6.83472C16.3623 6.8334 16.3651 6.83183 16.3678 6.83004C16.3765 6.82656 16.3844 6.8238 16.393 6.82164C16.3947 6.82164 16.3965 6.82044 16.3982 6.82044C16.4084 6.81816 16.4194 6.81708 16.4296 6.81756C16.4325 6.81756 16.4348 6.81816 16.4371 6.81816C16.445 6.81876 16.4536 6.81984 16.4617 6.82164C16.4629 6.82224 16.4645 6.82224 16.4661 6.82272L18.3931 7.37028C18.4087 6.97704 18.4166 5.28792 17.5317 3.864C17.5624 3.8988 18.5531 5.03004 18.6199 7.43496L18.9304 7.52328C18.9835 7.53816 19.0234 7.58268 19.0327 7.63752C19.2215 8.784 19.1126 9.58572 19.1079 9.61944C19.1068 9.62628 19.1051 9.63264 19.1035 9.63876C19.1289 9.6462 19.1535 9.65352 19.1787 9.66156ZM18.8283 9.55872C18.8431 9.43032 18.9121 8.72868 18.7654 7.77288L16.5842 7.15284C16.6037 7.5222 16.6124 8.32332 16.4027 9.08724C16.3999 9.09669 16.3963 9.10589 16.3919 9.11472C16.4135 9.117 16.4354 9.11868 16.4564 9.12156C17.0696 9.19176 17.68 9.28992 18.2835 9.4224C18.4655 9.46464 18.6477 9.50988 18.8282 9.55872H18.8283ZM16.1273 9.01116C16.3067 8.35752 16.3165 7.65912 16.3033 7.2738C16.1594 7.4046 15.9634 7.57236 15.7665 7.71228C15.7545 7.91388 15.6985 8.48592 15.4421 9.02304C15.6705 9.04152 15.899 9.06204 16.1273 9.08592C16.1206 9.06145 16.1206 9.03563 16.1273 9.01116ZM10.0918 9.0216C9.83586 8.48484 9.77994 7.91376 9.76806 7.7124C9.57054 7.57248 9.37518 7.4046 9.2313 7.27392C9.2187 7.65984 9.22794 8.35872 9.40722 9.01128C9.41406 9.03648 9.41334 9.06168 9.40722 9.08508C9.63522 9.06096 9.86334 9.03984 10.0918 9.0216ZM9.14226 9.1134C9.13808 9.10498 9.13459 9.09623 9.13182 9.08724C8.92182 8.3232 8.93106 7.5222 8.9499 7.15272L6.76938 7.77276C6.62262 8.72748 6.69114 9.42912 6.70578 9.55824C6.88698 9.50904 7.06842 9.46392 7.2513 9.42168C7.55262 9.35496 7.85646 9.29904 8.16078 9.24768C8.4657 9.1968 8.77158 9.15804 9.07758 9.12084C9.09942 9.11796 9.12042 9.1164 9.14226 9.1134Z" fill="#2D3136"/>
<path d="M15.0651 3.51477V5.32449H13.7823V4.79577H13.4931V7.23861H13.9299V8.60445H11.6862V7.23861H12.1212V4.79589H11.8331V5.32461H10.551V3.51477H15.0651ZM14.6796 4.94001V3.89949H10.9356V4.94001H11.4475V4.41129H12.5067V7.62405H12.0708V8.21997H13.5447V7.62405H13.1088V4.41129H14.1679V4.94001H14.6796Z" fill="#2D3136"/>
<path d="M12.5065 4.41133H11.4477V4.94005H10.9358V3.89941H14.6804V4.94005H14.168V4.41133H13.1092V7.62409H13.5451V8.22001H12.0709V7.62409H12.5067L12.5065 4.41133Z" fill="#CB3349"/>
<path d="M4.58472 11.3963C4.77168 11.3538 5.02428 11.2998 5.33424 11.2401C5.10779 11.3947 4.88716 11.5577 4.6728 11.7287L4.58472 11.3963Z" fill="#656C67"/>
<path d="M11.4318 16.3561C11.4318 16.3561 11.4841 16.6926 11.0132 16.8365C10.5426 16.9805 7.56046 17.8692 7.22038 17.8211C6.8803 17.7731 6.01726 17.1967 6.01726 17.1967L5.80786 16.4522L7.08514 17.2486L11.4318 16.3561ZM14.103 16.2912C14.103 16.2912 14.0653 16.6296 14.5421 16.7532C15.0187 16.8766 18.0365 17.6348 18.374 17.5721C18.7116 17.5092 19.5488 16.8959 19.5488 16.8959L19.7257 16.1429L18.5516 16.8432L14.103 16.2912Z" fill="#C7B39A"/>
<path d="M4.34204 15.7375C4.34204 15.7375 4.7552 16.564 5.42264 16.2778L5.8994 16.4526L5.85176 16.8024L4.8506 16.9294L4.5806 16.7706L4.34204 15.7375ZM21.2578 15.51C21.2578 15.51 20.5825 16.3726 19.915 16.0866L19.7005 16.225L19.7481 16.5745L20.7493 16.7017L21.0193 16.5428L21.2578 15.51ZM10.812 22.0026C10.812 22.0026 13.26 23.2368 16.0317 21.5574L15.1417 21.4967C15.1417 21.4967 13.1994 22.2654 11.6617 21.8406L10.812 22.0026Z" fill="#C7B39A"/>
<path d="M13.2942 19.729L13.4636 19.9308C13.4675 19.9356 13.8438 20.3836 14.304 20.8398C14.61 21.1431 14.9796 21.2965 15.4034 21.2965C15.5551 21.2958 15.7062 21.2771 15.8536 21.241C15.996 21.2063 16.1508 21.1695 16.3092 21.1315C16.8816 20.9947 17.5297 20.8393 17.844 20.7513C17.9118 20.7328 17.98 20.7161 18.0486 20.7011C18.4668 20.6045 19.0401 20.4712 19.344 19.8625C19.5725 19.4058 19.8804 18.813 20.109 18.3785C19.911 18.4698 19.7034 18.5688 19.5559 18.6465C19.3286 18.7657 19.031 18.8236 18.6463 18.8236C18.4175 18.8236 18.1927 18.8044 17.9442 18.7823C17.4473 18.7366 16.6063 18.6376 16.5978 18.6364L16.5334 18.6292L16.4825 18.5886C16.4749 18.5831 15.7381 17.996 15.1426 17.5276C15.1184 17.5079 15.0964 17.4895 15.0766 17.4731C15.0138 17.4196 15.0138 17.4196 14.9763 17.4196C14.7854 17.4196 14.2302 17.5918 13.014 17.9688L12.9392 17.9926L12.866 17.965C12.8576 17.9622 12.0596 17.6662 11.1035 17.6662C11.0252 17.6662 10.9472 17.6682 10.8713 17.6722C10.7755 17.6771 10.2379 17.9325 9.55055 19.02L9.50603 19.0899L9.42719 19.1151C9.41579 19.1192 8.23271 19.501 6.97799 19.8598L6.89651 19.8829L6.81947 19.8472C6.81131 19.8438 6.32027 19.6161 5.85311 19.4013C6.10787 19.7777 6.43367 20.2473 6.72035 20.6154C7.22111 21.2603 7.85231 21.8562 9.06251 21.8562C9.21431 21.8562 9.37559 21.847 9.54119 21.8281C10.7722 21.6889 11.0892 21.6329 11.2597 21.6031C11.3174 21.5933 11.3631 21.5849 11.4216 21.5779C11.4308 21.5767 12.439 21.4463 12.7218 20.8119C13.0134 20.1599 13.0723 20.0045 13.0746 19.9986L13.1774 19.7241C13.1774 19.7241 13.1902 19.6529 13.211 19.6308C13.211 19.6313 13.211 19.6313 13.2116 19.6313L13.2137 19.633C13.2461 19.6563 13.2941 19.729 13.2941 19.729H13.2942ZM5.62739 7.41987C5.35979 7.52763 5.09411 7.63887 4.83431 7.76091C4.57403 7.87995 4.31819 8.00763 4.07387 8.14995C3.84827 8.27991 3.63191 8.42235 3.44099 8.58327C3.43257 8.63352 3.42509 8.68393 3.41855 8.73447C3.39206 8.9485 3.37828 9.16392 3.37727 9.37959C3.37548 9.66787 3.39332 9.95593 3.43067 10.2418C3.47027 10.528 3.52247 10.8125 3.60011 11.0871C3.63765 11.2239 3.6817 11.3588 3.73211 11.4915C3.75695 11.5576 3.78443 11.6219 3.81323 11.6847C3.82739 11.7159 3.84227 11.7468 3.85703 11.7765L3.87539 11.8113C3.89675 11.8222 3.91883 11.8331 3.93971 11.8431L4.06787 11.904C4.13939 11.9371 4.23791 11.9839 4.31939 12.0202C4.32419 12.0163 4.32875 12.0119 4.33259 12.0082L4.09535 11.1034C4.14551 11.0897 4.59683 10.9731 5.37431 10.825C5.31108 10.8133 5.24818 10.7999 5.18567 10.7848C5.00844 10.7416 4.83445 10.6861 4.66499 10.6186C4.58103 10.5836 4.49911 10.5439 4.41959 10.4998C4.34087 10.4545 4.26323 10.4034 4.20323 10.3353C5.05739 10.6141 6.82211 10.4877 8.39123 10.3259C9.82619 10.1778 11.264 10.0822 12.7098 10.0787C14.1553 10.0821 15.5944 10.1777 17.0286 10.3259C18.5986 10.4877 20.3634 10.6143 21.2172 10.3353C21.1572 10.4034 21.0798 10.4545 21.0011 10.4997C20.9225 10.5443 20.8393 10.5828 20.7556 10.6186C20.5859 10.686 20.4118 10.7416 20.2344 10.7848C20.2085 10.7908 20.1821 10.7968 20.1557 10.8024C21.0082 10.9603 21.5045 11.0891 21.5573 11.1034L21.33 11.9652C21.3757 11.9448 21.4219 11.9251 21.4669 11.9041L21.5953 11.8432C21.6169 11.8328 21.6383 11.8222 21.6596 11.8113L21.6773 11.7766C21.6929 11.7464 21.7077 11.7157 21.7218 11.6848C21.7506 11.6219 21.778 11.5576 21.8034 11.4916C21.8534 11.3608 21.8967 11.2247 21.9348 11.0872C22.0124 10.8126 22.0652 10.528 22.1042 10.2419C22.1411 9.95631 22.1604 9.66795 22.1576 9.37959C22.1569 9.2356 22.1507 9.09169 22.1389 8.94819C22.1328 8.87685 22.1253 8.80563 22.1164 8.73459C22.11 8.68401 22.1024 8.63359 22.0936 8.58339C21.9026 8.42259 21.6864 8.28015 21.4608 8.15019C21.2164 8.00763 20.9608 7.88007 20.6998 7.76103C20.4406 7.63899 20.1744 7.52775 19.9068 7.41999C19.7729 7.36574 19.6382 7.31341 19.5028 7.26303C19.3681 7.21083 19.2316 7.16151 19.0951 7.11183C19.3817 7.15911 19.6658 7.22451 19.9469 7.29663C20.1301 7.34403 20.3129 7.39743 20.4934 7.45407C19.2061 4.08891 16.1278 1.89783 12.7673 1.89783C9.40595 1.89783 6.32831 4.08903 5.04119 7.45407C5.22182 7.39709 5.40384 7.34459 5.58707 7.29663C5.86883 7.22463 6.15275 7.15911 6.43955 7.11183C6.30239 7.16139 6.16655 7.21083 6.03119 7.26303C5.89643 7.31307 5.76167 7.36587 5.62739 7.41987ZM22.5742 9.36675C22.5896 9.67647 22.5814 9.98679 22.5467 10.2951C22.5135 10.604 22.456 10.9098 22.3746 11.2097C22.3322 11.3608 22.2824 11.5098 22.2253 11.656C22.196 11.7303 22.1644 11.8037 22.1308 11.8761C22.1136 11.9123 22.0956 11.9481 22.0752 11.985L22.045 12.0395C22.0334 12.0603 22.0211 12.0806 22.008 12.1005L21.9768 12.1491L21.9277 12.1743C21.8754 12.2013 21.8326 12.2215 21.785 12.2436L21.647 12.3059C21.5546 12.3455 21.4616 12.3827 21.3686 12.4191C21.3037 12.4445 21.2464 12.4677 21.192 12.4907L21.0384 13.0739C20.993 13.0625 20.9476 13.0513 20.9021 13.0404L20.8937 13.1015C21.0632 13.1901 21.3961 13.3696 21.5095 13.4632C21.7379 13.6518 21.754 13.9507 21.7033 14.5092C21.6774 14.796 21.5822 15.3539 21.4502 15.8664C21.2222 16.7484 21.1013 16.852 20.945 16.8919C20.8658 16.9123 20.7437 16.9327 20.6252 16.9327C20.3844 16.9327 20.0563 16.9394 19.8356 16.886C19.779 17.0867 19.6172 17.6101 19.2968 18.2639C19.3129 18.2561 19.3288 18.2495 19.3431 18.2418C19.7382 18.0343 20.4976 17.7036 20.5296 17.6892L21.1295 17.4286L20.8223 18.0063C20.8151 18.0189 20.1564 19.2577 19.7531 20.0667C19.3523 20.8679 18.6013 21.0423 18.1517 21.1457C18.084 21.1617 18.0197 21.1765 17.9675 21.1908C17.6448 21.2815 16.9916 21.4373 16.4156 21.576C16.4088 21.5776 16.4018 21.5794 16.3948 21.5803C16.0258 21.8087 15.6359 22.0013 15.2303 22.1555C13.6817 22.7421 12.0496 22.7092 10.5698 22.1653C10.3295 22.1963 10.0134 22.2341 9.59255 22.282C9.41666 22.302 9.23978 22.3123 9.06275 22.3128C7.65275 22.3128 6.90551 21.5969 6.36011 20.8959C5.77631 20.1451 5.06207 19.0308 5.03171 18.9841L4.61771 18.3382L5.31755 18.6529C5.65259 18.8038 6.64883 19.2649 6.93383 19.3969C6.95687 19.3905 6.97943 19.3837 7.00211 19.3771C6.52835 18.7015 6.13979 17.9312 5.86523 17.0776C5.63195 17.1479 5.27243 17.2024 4.99295 17.2024C4.89083 17.2024 4.79927 17.1948 4.72895 17.1783C4.57259 17.1425 4.39427 16.9918 4.15163 16.1371C4.01075 15.6409 3.90563 15.0991 3.87491 14.8204C3.81431 14.2761 3.82535 13.9845 4.05155 13.7962C4.18799 13.6822 4.64795 13.4406 4.74323 13.3913L4.72283 13.2233C3.26123 14.0821 2.38523 14.8411 2.36771 14.8566L1.32251 15.7739L2.06711 14.5996C2.65631 13.669 3.33707 12.9167 3.96335 12.3372C3.93743 12.3268 3.91331 12.3163 3.88787 12.306L3.74987 12.2437C3.7019 12.2216 3.65441 12.1985 3.60743 12.1744L3.55835 12.1492L3.52703 12.1006C3.50939 12.0742 3.50183 12.0593 3.49019 12.0396L3.45935 11.9851C3.44015 11.9483 3.42131 11.9124 3.40415 11.8762C3.36947 11.803 3.33815 11.7298 3.30971 11.6561C3.25262 11.5099 3.20279 11.361 3.16043 11.2098C3.0787 10.91 3.02112 10.6042 2.98823 10.2952C2.95428 9.98698 2.94505 9.67655 2.96063 9.36687C2.96903 9.21219 2.98391 9.05763 3.00527 8.90403C3.01631 8.82699 3.02783 8.74995 3.04331 8.67339C3.05927 8.59539 3.07475 8.52267 3.09839 8.43735L3.11483 8.37735L3.15779 8.34375C3.40163 8.15211 3.66455 8.00751 3.93203 7.87935C4.15151 7.77698 4.37532 7.68418 4.60283 7.60119C5.23463 5.84799 6.32087 4.29363 7.74839 3.21003C9.22439 2.09019 10.9598 1.49811 12.7676 1.49811C14.5753 1.49811 16.3109 2.09019 17.7866 3.21015C19.2143 4.29363 20.3005 5.84823 20.9318 7.60095C21.1595 7.68393 21.3835 7.77682 21.6031 7.87935C21.8705 8.00763 22.1335 8.15223 22.3772 8.34375L22.4202 8.37747L22.4368 8.43747C22.4609 8.52279 22.4764 8.59551 22.4917 8.67351C22.5073 8.75007 22.5193 8.82711 22.5298 8.90415C22.5514 9.05751 22.5667 9.21207 22.5742 9.36675ZM21.299 14.4723C21.3475 13.9353 21.3053 13.8197 21.2507 13.7757C21.1962 13.7299 21.0119 13.6255 20.8325 13.5281L20.537 15.5969C20.5342 15.6169 20.5272 15.6362 20.5166 15.6534C20.506 15.6707 20.492 15.6855 20.4754 15.6971L20.0527 15.9928C20.0191 16.162 20.0071 16.242 19.9658 16.4076C20.2074 16.4638 20.6035 16.5072 20.7923 16.4709C20.9636 16.2851 21.2402 15.1305 21.299 14.4723ZM20.7505 12.5963L21.067 11.3963C20.608 11.2923 19.7627 11.1183 18.6115 10.9554C18.0236 11.3779 17.3803 11.7159 16.7481 11.9855C18.6826 12.1738 20.104 12.4539 20.7505 12.5963ZM20.253 15.4915L20.6129 12.9749C20.4528 12.9402 20.2481 12.8974 20.0036 12.8506L19.6784 15.1277C19.6724 15.1679 19.6504 15.2047 19.6174 15.2279L18.3979 16.0807C18.3686 16.1013 18.3328 16.1104 18.2972 16.1065L14.6225 15.6889C14.5938 15.6858 14.5667 15.6743 14.5445 15.6559C14.5223 15.6375 14.5059 15.6131 14.4974 15.5855L13.8355 13.4064C13.6583 13.3606 13.2031 13.2544 12.8048 13.2544C12.4048 13.2544 11.9502 13.3606 11.773 13.4064L11.1109 15.5856C11.1032 15.6105 11.0891 15.6329 11.07 15.6506C11.0508 15.6682 11.0274 15.6805 11.002 15.6862L7.32707 16.5039C7.31642 16.5061 7.30556 16.5073 7.29467 16.5073C7.26491 16.5073 7.23515 16.4985 7.21043 16.4807L5.99147 15.6273C5.97451 15.6154 5.96022 15.6001 5.94952 15.5824C5.93881 15.5647 5.93193 15.545 5.92931 15.5244L5.60075 12.8592C5.46431 12.8857 5.34107 12.9111 5.23091 12.9341C5.15291 12.9771 5.07575 13.02 4.99991 13.063L5.34863 15.8871L7.12019 17.1281L11.5896 16.1338L12.2494 13.9601C12.2573 13.9335 12.2725 13.9097 12.2934 13.8914C12.3142 13.8731 12.3398 13.861 12.3672 13.8565C12.5345 13.8297 12.6807 13.8159 12.8047 13.8159C12.9271 13.8159 13.0742 13.8297 13.241 13.8565C13.2971 13.8653 13.3427 13.9055 13.3588 13.9601L14.0356 16.1877L18.5299 16.6987L20.253 15.4915ZM19.3952 15.0227L19.7132 12.796C18.8162 12.6328 17.5044 12.4353 15.8976 12.3119C14.4469 12.8123 13.2319 12.9611 13.1587 12.9661L13.074 12.9721C13.5367 13.012 13.9727 13.1363 13.9945 13.1428C14.0425 13.1572 14.08 13.1939 14.0948 13.242L14.7524 15.4068L18.2749 15.8069L19.3952 15.0227ZM19.64 16.2817L19.4908 16.3861L19.0891 16.6681L18.6538 16.9729C18.6241 16.9933 18.5878 17.0027 18.5524 16.9987L14.2213 16.5063L13.906 16.4704C13.8773 16.4671 13.8503 16.4555 13.8282 16.4371C13.8061 16.4186 13.7899 16.3941 13.7815 16.3666L13.1036 14.1346C13.0047 14.1203 12.9049 14.1125 12.8049 14.1113C12.719 14.1113 12.619 14.1191 12.5056 14.1346L11.8474 16.3021C11.8397 16.3271 11.8256 16.3495 11.8065 16.3672C11.7873 16.3848 11.7638 16.3971 11.7384 16.4027L7.12139 17.4309C7.11071 17.4329 7.09986 17.434 7.08899 17.434C7.05935 17.434 7.02959 17.4252 7.00415 17.4071L6.83651 17.2903L6.33407 16.9389V16.9377L6.13103 16.7958C6.14543 16.8414 6.16175 16.8861 6.17795 16.9306L6.17735 16.9312C6.21647 17.0472 6.60551 18.1666 7.39619 19.2621C8.00247 19.0828 8.6069 18.8974 9.20939 18.7057C9.68639 17.9705 10.3655 17.2414 10.8482 17.2162C10.9332 17.212 11.0184 17.2099 11.1035 17.2097C11.3396 17.2097 11.5652 17.2266 11.7743 17.2515C11.5967 17.0902 11.5602 16.9008 11.5344 16.8172C11.5344 16.8172 12.1502 17.2987 12.9343 17.1982C13.7186 17.0969 14.2056 16.645 14.2056 16.645C14.2056 16.645 14.2032 16.9747 13.8616 17.23C14.5187 17.0313 14.7905 16.9631 14.9765 16.9631C15.1817 16.9631 15.283 17.0489 15.3716 17.1245C15.3887 17.1382 15.4058 17.1529 15.4255 17.169C15.9307 17.5668 16.5382 18.0495 16.716 18.191C16.9218 18.2151 17.5744 18.2893 17.9856 18.3274C18.2226 18.3487 18.4368 18.367 18.6463 18.367C18.7141 18.367 18.7775 18.3641 18.8374 18.3601C19.1093 17.8415 19.3537 17.2535 19.561 16.5901C19.5888 16.488 19.6159 16.3851 19.64 16.2817ZM18.042 10.7976C18.0408 10.797 18.0398 10.7964 18.0386 10.7964C17.6907 10.7702 17.3425 10.7472 16.9942 10.7272C16.5101 10.6999 16.0258 10.6762 15.5414 10.6561C15.4871 10.736 15.4314 10.8148 15.3742 10.8925C15.1106 11.2493 14.5878 11.9035 13.9174 12.4583C14.8663 12.2883 16.512 11.8673 17.9358 10.8739C17.9714 10.8487 18.0068 10.8223 18.042 10.7976ZM14.8663 10.896C14.9064 10.846 14.9437 10.7976 14.9772 10.7536C14.6326 10.7885 14.2897 10.8384 13.9494 10.9032C12.7998 11.1184 11.7383 11.4761 10.8551 11.8426C11.5115 11.8106 12.1686 11.7944 12.8258 11.7942C13.2413 11.7942 13.6452 11.8014 14.038 11.8129C14.3759 11.4881 14.661 11.1557 14.8663 10.896ZM15.2476 21.7468C14.7689 21.7115 14.3336 21.5124 13.9823 21.1645C13.9645 21.1464 13.9468 21.1283 13.929 21.1102C13.7576 21.1447 13.5843 21.1697 13.4101 21.1849C13.3359 21.1877 13.2654 21.1942 13.1879 21.1942L13.0727 21.1954L13.0289 21.1942C12.5616 21.8893 11.5238 22.0247 11.4764 22.0308C11.4336 22.0356 11.3984 22.0416 11.3498 22.0505C11.9282 22.209 12.5186 22.2778 13.1009 22.2387C13.6847 22.1997 14.4431 22.0731 15.2476 21.7467V21.7468ZM13.398 20.9536C13.5112 20.9442 13.6241 20.9308 13.7364 20.9135C13.6074 20.7792 13.481 20.6425 13.3572 20.5035C13.3072 20.6185 13.2408 20.7699 13.1532 20.9647H13.1789C13.2488 20.9647 13.3254 20.9571 13.398 20.9536ZM13.0416 12.5955C13.2363 12.4767 13.4227 12.3448 13.5995 12.2008C13.3457 12.1965 13.0883 12.1932 12.8258 12.1932C11.7482 12.1932 10.7418 12.2373 9.82943 12.306C8.91419 12.7534 8.35463 13.1214 8.34143 13.1308L7.46267 13.717L8.06627 12.8507C8.16464 12.7093 8.26951 12.5725 8.38055 12.4408C7.36691 12.5541 6.52283 12.6883 5.89211 12.8044L6.21503 15.4228L7.32623 16.201L10.8535 15.4167L11.5138 13.2414C11.5247 13.206 11.5485 13.176 11.5805 13.1572C11.5908 13.1505 11.6021 13.1455 11.6139 13.1423C11.6343 13.1368 11.987 13.0361 12.3937 12.9865L13.0416 12.5955ZM13.4472 10.5983C13.2016 10.5945 12.9557 10.5923 12.7102 10.5917H12.7097C12.3493 10.5923 11.9882 10.5961 11.6267 10.6033L10.9603 10.9191C10.9597 10.9197 10.9559 10.9215 10.9509 10.9242C10.8507 10.9731 9.97571 11.4145 9.15251 12.202C9.89051 11.814 10.9751 11.3073 12.2513 10.9143C12.6455 10.7929 13.0445 10.6875 13.4472 10.5983ZM8.78975 11.9955C9.13535 11.6526 9.49175 11.3698 9.80663 11.1486C8.59331 11.4304 7.47623 11.8441 6.49787 12.2943C7.25865 12.1717 8.02296 12.072 8.78975 11.9955ZM9.01919 10.9379C9.43356 10.8219 9.85246 10.7228 10.2749 10.6408C9.65855 10.6632 9.04187 10.6919 8.42615 10.7266C8.06831 10.7464 7.71227 10.7706 7.35623 10.7975C7.17859 10.8104 7.00116 10.8262 6.82403 10.8448C6.77339 10.8497 6.72383 10.8552 6.67331 10.8618C6.20891 11.1396 4.42751 12.2579 3.20471 13.72C4.39307 12.8943 6.46307 11.6533 9.01919 10.9379ZM5.73995 16.6989C5.71677 16.6247 5.69476 16.5503 5.67395 16.4754L5.12531 16.0914C5.10827 16.0796 5.09391 16.0643 5.08315 16.0466C5.0724 16.0288 5.06551 16.009 5.06291 15.9885L4.79555 13.8148C4.59743 13.921 4.36859 14.0513 4.30739 14.1025C4.25459 14.1461 4.21439 14.2578 4.27175 14.7757C4.34279 15.4145 4.66631 16.6181 4.84019 16.7929C5.04935 16.8299 5.51279 16.7656 5.73995 16.6989ZM5.33447 11.2395C5.02463 11.2995 4.77191 11.3533 4.58495 11.3957L4.67315 11.7281C4.88745 11.5571 5.10804 11.3941 5.33447 11.2395Z" fill="#2D3136"/>
</svg>
