<svg width="24" height="24" viewBox="0 0 24 24" fill="none" xmlns="http://www.w3.org/2000/svg">
<path d="M15.9694 13.5604C16.2655 14.6244 15.6499 15.7305 14.6137 15.9966L14.0642 16.1376C14.0219 16.4184 14 16.7065 14 17C14 17.3072 14.024 17.6083 14.0702 17.9012L14.5776 18.028C15.6241 18.2896 16.2462 19.407 15.9415 20.4781L15.7663 21.0942C16.1794 21.4706 16.6501 21.7762 17.1624 21.9936L17.6264 21.4873C18.3681 20.6781 19.6119 20.6783 20.3535 21.4878L20.8226 22C21.3338 21.785 21.8041 21.4823 22.2174 21.1091L22.0311 20.4397C21.735 19.3756 22.3506 18.2695 23.3868 18.0035L23.9358 17.8625C23.9781 17.5817 24 17.2936 24 17C24 16.6929 23.976 16.3917 23.9298 16.0987L23.4228 15.972C22.3763 15.7105 21.7543 14.5931 22.059 13.5219L22.234 12.9063C21.821 12.5297 21.3502 12.2241 20.8379 12.0066L20.3741 12.5127C19.6324 13.322 18.3885 13.3217 17.647 12.5122L17.1778 12C16.6666 12.2149 16.1962 12.5175 15.783 12.8907L15.9694 13.5604ZM19 18.464C18.2469 18.464 17.6364 17.8085 17.6364 17C17.6364 16.1916 18.2469 15.5361 19 15.5361C19.7531 15.5361 20.3636 16.1916 20.3636 17C20.3636 17.8085 19.7531 18.464 19 18.464Z" fill="#64748B"/>
<path fill-rule="evenodd" clip-rule="evenodd" d="M3.23438 7.31816V9.09302H6.35156V17.5H8.4794V9.09302H11.5966V7.31816H3.23438ZM17.9851 9.31177C18.2867 9.53383 18.4574 9.84539 18.4972 10.2464H19.7929C20.0295 10.1243 20.2862 10.0475 20.5492 10.0189C20.5067 9.50557 20.348 9.04778 20.0732 8.64557C19.7583 8.18487 19.3175 7.82526 18.7507 7.56674C18.1873 7.30822 17.5277 7.17896 16.772 7.17896C16.0296 7.17896 15.3667 7.30822 14.7834 7.56674C14.2 7.82526 13.741 8.18487 13.4062 8.64557C13.0748 9.10628 12.9107 9.64486 12.9141 10.2613C12.9107 11.0137 13.1577 11.612 13.6548 12.0561C13.7246 12.1184 13.7978 12.1784 13.8747 12.236C13.9941 11.929 14.1845 11.6479 14.4383 11.4187C14.7181 11.166 15.0184 10.9351 15.337 10.7294C15.2994 10.6866 15.2657 10.6416 15.2358 10.5944C15.1529 10.4585 15.1148 10.2995 15.1214 10.1172C15.1214 9.89842 15.1844 9.70287 15.3104 9.53052C15.4396 9.35817 15.6252 9.22394 15.8672 9.12782C16.1091 9.02839 16.4058 8.97867 16.7571 8.97867C17.2741 8.97867 17.6835 9.0897 17.9851 9.31177ZM12.668 14.6664C12.8043 14.5255 12.9599 14.4031 13.1311 14.3032H12.6456C12.6484 14.4277 12.6559 14.5488 12.668 14.6664Z" fill="#2563EB"/>
</svg>
