<svg width="24" height="24" viewBox="0 0 24 24" fill="none" xmlns="http://www.w3.org/2000/svg">
<path d="M10.3861 1.507C7.9861 1.424 5.5861 2.173 3.6001 3.756L4.9241 4.506C6.4971 3.339 8.4831 2.84 10.3861 2.923V1.507Z" fill="#2979FF"/>
<path d="M17.4201 4.67003C15.7661 2.92303 13.6141 1.84003 11.2971 1.59003V3.00603C13.2467 3.32724 15.0434 4.26062 16.4271 5.67103L17.4211 4.67103L17.4201 4.67003Z" fill="#448AFF"/>
<path d="M20.4001 11.5C20.3171 9.33501 19.4901 7.17001 18.0831 5.33801L17.0901 6.33801C18.2481 7.92001 18.9101 9.66801 18.9931 11.501L20.4001 11.5Z" fill="#7E57C2"/>
<path d="M18.0831 18.663C19.4901 16.831 20.3171 14.665 20.4001 12.5H18.9931C18.9111 14.332 18.2481 16.08 17.0901 17.663L18.0831 18.663Z" fill="#AB47BC"/>
<path d="M11.2971 22.41C13.5311 22.16 15.7661 21.078 17.4211 19.329L16.4281 18.329C15.0211 19.829 13.2001 20.745 11.2971 20.995V22.41Z" fill="#D81B60"/>
<path d="M3.6001 20.245C5.52011 21.7824 7.92794 22.5801 10.3861 22.493V21.078C8.4831 21.161 6.5791 20.661 4.9241 19.495L3.6001 20.245Z" fill="#F50057"/>
<path d="M10.0079 6.212C10.8463 6.20348 11.6784 6.35802 12.4579 6.667C13.1768 6.94161 13.8317 7.36094 14.3819 7.899C14.9324 8.44034 15.3684 9.08691 15.6638 9.8002C15.9593 10.5135 16.1083 11.279 16.1019 12.051C16.1019 12.873 15.9519 13.641 15.6499 14.354C15.3473 15.0545 14.9096 15.6885 14.3617 16.2195C13.8138 16.7506 13.1665 17.1684 12.4569 17.449C11.6756 17.7489 10.8447 17.8982 10.0079 17.889C9.11388 17.889 8.29288 17.743 7.54488 17.449C6.83247 17.1633 6.18342 16.7399 5.63488 16.203C5.09991 15.6743 4.67386 15.0458 4.38088 14.353C4.07659 13.624 3.92284 12.841 3.92888 12.051C3.92888 11.23 4.07888 10.467 4.38088 9.761C4.67167 9.06383 5.0979 8.43128 5.63488 7.9C6.18152 7.3642 6.83134 6.94505 7.54488 6.668C8.29288 6.365 9.11488 6.212 10.0079 6.212ZM10.0079 9C9.58988 9 9.19188 9.078 8.81288 9.234C8.44288 9.381 8.11788 9.591 7.83588 9.864C7.55228 10.1409 7.32479 10.4699 7.16588 10.833C6.99809 11.2169 6.91356 11.632 6.91788 12.051C6.91788 12.491 6.99988 12.897 7.16588 13.269C7.48538 13.9996 8.07578 14.5778 8.81288 14.882C9.19188 15.029 9.58988 15.102 10.0079 15.102C10.4259 15.102 10.8199 15.029 11.1889 14.882C11.5689 14.726 11.8989 14.511 12.1809 14.237C12.4718 13.9635 12.7047 13.6343 12.8659 13.269C13.0309 12.897 13.1139 12.491 13.1139 12.051C13.1139 11.611 13.0309 11.205 12.8659 10.833C12.7049 10.4676 12.472 10.1383 12.1809 9.865C11.8964 9.58988 11.5589 9.37553 11.1889 9.235C10.8155 9.07763 10.4131 8.99768 10.0079 9Z" fill="#71717A"/>
</svg>
