<svg width="24" height="24" viewBox="0 0 24 24" fill="none" xmlns="http://www.w3.org/2000/svg">
<path d="M4.66888 22.8269C4.60888 22.7198 4.52632 21.7862 4.58104 21.8251C4.59736 21.8371 4.66312 21.9533 4.72696 22.0829C4.7908 22.2125 4.86232 22.3166 4.88632 22.3142C4.94536 22.3089 4.92232 21.7401 4.83832 21.1363C4.67944 19.9857 4.27384 19.008 3.70648 18.4051C3.61048 18.3033 3.54136 18.2131 3.55336 18.2045C3.598 18.1723 4.19032 18.6086 4.43752 18.8563C4.57816 18.9969 4.79032 19.2523 4.9084 19.4237C5.06584 19.6512 5.1316 19.7203 5.1532 19.6795C5.19064 19.6089 5.0524 14.9261 4.97272 13.5835C4.9372 12.9806 5.00296 13.0925 5.26552 14.0798C5.77624 16.0032 6.15736 17.8824 6.38968 19.6238C6.43096 19.9296 6.47272 20.1869 6.48328 20.195C6.49384 20.2032 6.52744 20.196 6.55864 20.1792C6.98488 19.9469 7.29016 19.859 7.78264 19.8259C8.1316 19.8024 8.23624 19.8557 7.95064 19.9109C7.39864 20.0179 6.99544 20.3971 6.82552 20.9673C6.67432 21.4766 6.66856 22.2667 6.814 22.6161C6.88696 22.7913 6.83176 22.8201 6.30184 22.8849C5.95816 22.9272 5.83288 22.9305 5.72488 22.9027C5.554 22.8581 5.18824 22.8557 5.15128 22.8984C5.1364 22.9161 5.03464 22.9301 4.92568 22.9301C4.74328 22.9301 4.72216 22.9219 4.66888 22.8269ZM5.6164 21.2755C5.68936 21.1771 5.65096 21.0777 5.51848 21.0249C5.41048 20.9813 5.39224 20.9822 5.30872 21.0365C5.20792 21.1022 5.18776 21.2429 5.27032 21.3024C5.35672 21.3648 5.56168 21.3485 5.61592 21.2755H5.6164ZM6.21544 21.3163C6.25564 21.2909 6.29053 21.258 6.31816 21.2193C6.43384 21.0609 6.1492 20.9208 5.96056 21.0437C5.76568 21.1704 5.99896 21.4205 6.21544 21.3163ZM7.31368 22.8014C7.29784 22.7832 7.36984 22.6157 7.474 22.4299C7.57768 22.2437 7.67128 22.1102 7.68184 22.1328C7.71544 22.2062 7.58536 22.7472 7.52344 22.7918C7.45144 22.8432 7.35352 22.8475 7.31368 22.8014ZM3.9364 22.6046C3.7972 22.4395 3.83032 22.3963 4.0036 22.5168C4.08808 22.5763 4.15768 22.6435 4.15768 22.6661C4.15768 22.7448 4.02376 22.7073 3.93688 22.6041L3.9364 22.6046ZM8.08792 22.5345C8.08792 22.5091 8.13688 22.4481 8.19688 22.3992C8.31688 22.3013 8.34664 22.3449 8.26552 22.499C8.21992 22.5854 8.08792 22.6118 8.08792 22.5345ZM11.9591 22.1376C11.8425 22.1256 11.7287 22.0953 11.7062 22.0704C11.6534 22.0104 11.6514 20.6093 11.7042 20.6093C11.7258 20.6093 11.7676 20.6813 11.7969 20.7681C11.8578 20.9505 11.9063 20.9702 11.9457 20.8277C11.9908 20.6659 11.9769 19.1616 11.927 18.7656C11.7114 17.0616 11.0318 15.8261 9.8428 14.9784C9.32152 14.6069 8.56936 14.2886 7.90024 14.1566C7.53352 14.0846 7.64968 14.0491 8.18728 14.0693C9.322 14.1125 10.1874 14.4086 10.9938 15.0302C11.425 15.3703 11.8007 15.7753 12.1074 16.2307C12.3249 16.5581 12.4146 16.6406 12.4146 16.511C12.4146 16.4774 12.4449 16.0877 12.4814 15.6446C12.8073 11.6798 13.6314 8.39661 14.8737 6.11181C15.7665 4.46925 17.3255 2.83965 18.6585 2.15469C19.329 1.81053 19.8772 1.68045 20.5881 1.69773C21.0359 1.70877 21.0729 1.71501 21.4377 1.84557C21.6669 1.92672 21.8863 2.03314 22.0919 2.16285C22.3857 2.35821 22.7202 2.64477 22.6842 2.67069C22.6722 2.67933 22.5201 2.59149 22.3463 2.47533C21.071 1.62525 19.9166 1.74573 18.9287 2.83149C18.3969 3.41709 17.6558 4.52589 17.1844 5.44413C15.827 8.08557 15.0047 10.9469 14.6447 14.2824C14.5665 15.0067 14.5094 16.0872 14.5511 16.0598C14.5665 16.0493 14.6788 15.8102 14.7998 15.528C15.5663 13.7409 16.5172 12.4425 17.579 11.7321C17.9015 11.5161 18.3527 11.2982 18.4017 11.3337C18.4127 11.3414 18.3201 11.4393 18.1953 11.5512C17.2554 12.3936 16.6353 13.356 16.1634 14.7062C15.7132 15.9926 15.5078 17.3885 15.5063 19.1697C15.5063 20.0059 15.597 21.2745 15.6825 21.6187C15.7425 21.8611 15.7209 21.8808 15.4017 21.8808C15.1377 21.8808 14.2948 21.947 13.7615 22.0104C13.5633 22.0344 13.3698 22.0296 12.9897 21.9931C12.7113 21.9662 12.4473 21.936 12.4046 21.9259C12.3258 21.9081 12.3182 21.9192 12.3095 22.0709C12.3038 22.1601 12.2615 22.1683 11.9591 22.1376ZM13.1625 18.9096C13.3036 18.8568 13.3425 18.804 13.3425 18.6614C13.3425 18.359 12.7142 18.3225 12.611 18.6192C12.5754 18.7209 12.6734 18.864 12.8126 18.9149C12.9551 18.9672 13.0103 18.9662 13.1625 18.9096ZM14.2996 18.8846C14.4326 18.7781 14.4522 18.7099 14.3831 18.5913C14.1911 18.2601 13.5407 18.444 13.6977 18.7857C13.7558 18.9129 13.8412 18.9537 14.0519 18.9552C14.1609 18.9557 14.2377 18.9341 14.2996 18.8846ZM15.7449 22.0915C15.7319 22.0675 15.7871 21.9633 15.8678 21.8597C16.2897 21.3149 16.4534 21.1181 16.4846 21.1181C16.5033 21.1181 16.511 21.1358 16.5014 21.1579L16.2983 21.6201C16.1961 21.8525 16.0847 22.0641 16.0492 22.0891C15.9681 22.1477 15.7756 22.1491 15.7449 22.0915ZM16.919 21.8054C16.919 21.7478 17.3284 21.4776 17.349 21.5222C17.3577 21.5414 17.3222 21.623 17.2694 21.7032C17.1887 21.827 17.1551 21.8491 17.0466 21.8491C16.9679 21.8491 16.919 21.8318 16.919 21.8054ZM10.6598 21.7459C10.5753 21.6696 10.4231 21.431 10.4385 21.3979C10.4471 21.3797 10.5575 21.4459 10.6842 21.5462C10.811 21.6465 10.9031 21.7406 10.8897 21.7565C10.8532 21.7987 10.7111 21.792 10.6598 21.7459Z" fill="#9BB92F"/>
</svg>
