<svg width="24" height="24" viewBox="0 0 24 24" fill="none" xmlns="http://www.w3.org/2000/svg">
<path fill-rule="evenodd" clip-rule="evenodd" d="M21.792 21.792H2.20801V2.20801H21.792V21.792ZM3.16801 3.16801V20.832H20.832V3.16801H3.16801Z" fill="#60A5FA"/>
<path fill-rule="evenodd" clip-rule="evenodd" d="M16.7905 11.4168C16.6779 11.4165 16.5744 11.4193 16.4971 11.4267C15.8926 11.4792 15.328 11.7432 14.9415 12.154C14.7479 12.3598 14.5725 12.6549 14.4869 12.9191C14.3924 13.2102 14.3931 13.2046 14.3936 13.6607C14.3941 14.2434 14.4237 14.3877 14.6219 14.7752C14.8213 15.1649 15.125 15.4832 15.5631 15.7616C15.7551 15.8836 16.2469 16.1288 16.6484 16.3028C17.5226 16.6815 17.7991 16.8561 17.9274 17.1109L17.9804 17.216V17.4363C17.9804 17.6488 17.9795 17.6598 17.9363 17.7474C17.8377 17.9501 17.605 18.1161 17.307 18.1964C17.1943 18.2266 17.1426 18.2309 16.8907 18.231C16.6442 18.231 16.5844 18.2259 16.4714 18.1978C16.2741 18.1479 16.1079 18.0789 15.9779 17.9928C15.8188 17.8874 15.506 17.5716 15.3787 17.3878C15.3226 17.3067 15.2662 17.2402 15.2535 17.2402C15.2326 17.2402 14.154 17.8569 13.9657 17.9765C13.9023 18.0168 13.8862 18.0352 13.8862 18.0675C13.8862 18.1345 14.1382 18.5154 14.3356 18.7468C14.7378 19.2182 15.5443 19.6339 16.2588 19.738C16.5412 19.7791 17.0103 19.7924 17.3381 19.7682C17.5528 19.7525 17.7699 19.7117 18.0031 19.6433C18.8469 19.3958 19.4227 18.8699 19.6361 18.1518C19.7231 17.8588 19.7583 17.4985 19.7295 17.1945C19.6706 16.5708 19.4789 16.1299 19.1004 15.7479C18.749 15.3933 18.2666 15.1076 17.3144 14.69C16.4888 14.3281 16.2734 14.1874 16.1544 13.9332C16.0517 13.7137 16.0712 13.4116 16.2005 13.2238C16.3517 13.0041 16.6603 12.8955 17.0045 12.9411C17.3246 12.9834 17.5315 13.1102 17.7343 13.3881C17.8397 13.5324 17.9128 13.6076 17.9478 13.6076C17.9824 13.6076 18.1313 13.5157 18.5935 13.2089C19.0639 12.8966 19.2119 12.7906 19.222 12.7586C19.2378 12.7091 19.164 12.5933 18.9483 12.3286C18.5152 11.7974 18.0061 11.5154 17.3523 11.4447C17.1918 11.4273 16.9784 11.4176 16.7906 11.417L16.7905 11.4168ZM11.5897 11.507C11.2016 11.5067 10.7583 11.507 10.2657 11.5075C7.71123 11.51 7.11833 11.5142 7.10235 11.5306C7.0868 11.5462 7.08276 11.7028 7.08276 12.2874V13.0245L8.24436 13.0288L9.40606 13.0329L9.4063 16.3211C9.4064 18.1296 9.41048 19.6245 9.41614 19.6433L9.42488 19.6774H10.2691C11.025 19.6774 11.1142 19.6758 11.1225 19.6535C11.1275 19.6403 11.1312 18.1454 11.1312 16.3314V13.0331L12.2929 13.0289L13.4545 13.0247V12.2787C13.4545 11.6321 13.452 11.5308 13.4318 11.5183C13.4212 11.5115 12.7537 11.5075 11.5894 11.5069L11.5897 11.507Z" fill="#60A5FA"/>
</svg>
