<svg width="24" height="24" viewBox="0 0 24 24" fill="none" xmlns="http://www.w3.org/2000/svg">
<path d="M12.5434 16.8603C12.5434 17.7861 12.6763 18.4073 12.9419 18.724C13.2076 19.0407 13.6906 19.1991 14.391 19.1991C15.1156 19.1991 16.0454 18.8336 17.1805 18.1028L17.9051 19.3087C15.7797 21.0872 14.0286 21.9763 12.6521 21.9763C11.2756 21.9763 10.1886 21.6474 9.39168 20.9896C8.59467 20.3075 8.19618 19.1137 8.19618 17.4083V7.83402H6.38478L6.09497 6.48191L8.1962 5.82414V4.03351L12.5436 2.02356V6.04328L16.8184 5.71438L16.4199 8.08963L12.5436 7.94345L12.5434 16.8603Z" fill="#60A5FA"/>
</svg>
