<svg width="24" height="24" viewBox="0 0 24 24" fill="none" xmlns="http://www.w3.org/2000/svg">
<path fill-rule="evenodd" clip-rule="evenodd" d="M16.2487 10.972V18.0813L20.8624 15.7175L20.8801 18.3964L12.9216 22.5377L12.9126 12.6881L16.2487 10.972Z" fill="#9575CD"/>
<path fill-rule="evenodd" clip-rule="evenodd" d="M7.228 15.863L6.2295 10.1773L3.12012 8.65881V18.547L5.16982 19.5977V13.6382L6.29015 20.0744L8.11394 21.0015L9.28645 15.6512V21.505L11.3446 22.5377V12.6582L8.21803 11.1485L7.228 15.863Z" fill="#F9A825"/>
<path fill-rule="evenodd" clip-rule="evenodd" d="M10.8569 1.46234L8.51088 3.56354C8.51088 3.56354 13.0882 5.94698 13.6445 6.22874C14.2006 6.5105 14.9921 7.05194 14.1365 7.85402C13.2809 8.65562 12.3396 8.54738 11.6981 8.22242C9.90091 7.30602 8.10427 6.38858 6.30816 5.4701L3.89136 7.55018C3.89136 7.55018 8.55384 9.9557 9.324 10.3671C10.0939 10.7789 12.96 11.7972 15.6768 9.6521C18.3931 7.50698 18.0082 6.72698 18.0082 6.5753C18.0082 6.42362 17.9441 5.62202 17.4734 5.12354C17.003 4.6253 15.6341 3.9101 15.0566 3.60674C14.479 3.30338 10.8574 1.46234 10.8574 1.46234H10.8569Z" fill="#EC407A"/>
</svg>
