<svg width="24" height="25" viewBox="0 0 24 25" fill="none" xmlns="http://www.w3.org/2000/svg">
<mask id="mask0_803_1024" style="mask-type:luminance" maskUnits="userSpaceOnUse" x="3" y="3" width="18" height="19">
<path d="M3 3.5H21V21.5H3V3.5Z" fill="white"/>
</mask>
<g mask="url(#mask0_803_1024)">
<path d="M14.4482 19.844L19.7042 5.29998C19.7762 5.04798 19.6322 4.86798 19.3802 4.86798L15.2762 5.26398C15.0242 5.29998 14.7362 5.51598 14.6282 5.76798L9.80417 19.664C9.69617 19.916 9.84017 20.132 10.1282 20.132H14.1242C14.2682 20.132 14.3762 20.024 14.4482 19.88V19.844Z" fill="#1D4ED8"/>
<g filter="url(#filter0_f_803_1024)">
<path d="M13.872 19.88L11.676 13.616L12 13.4L14.232 19.844L13.872 19.88Z" fill="#EBEBEB"/>
</g>
<path d="M4.62012 4.86798L8.72412 5.26398C8.97612 5.29998 9.26412 5.51598 9.37212 5.76798L14.3041 19.88C14.3401 20.024 14.2681 20.132 14.1601 20.132H10.1281C9.84012 20.132 9.58812 19.916 9.48012 19.664L4.29612 5.29998C4.22412 5.04798 4.36812 4.86798 4.62012 4.86798Z" fill="#2563EB"/>
</g>
<defs>
<filter id="filter0_f_803_1024" x="-1.12397" y="0.599963" width="28.1559" height="32.08" filterUnits="userSpaceOnUse" color-interpolation-filters="sRGB">
<feFlood flood-opacity="0" result="BackgroundImageFix"/>
<feBlend mode="normal" in="SourceGraphic" in2="BackgroundImageFix" result="shape"/>
<feGaussianBlur stdDeviation="6.4" result="effect1_foregroundBlur_803_1024"/>
</filter>
</defs>
</svg>
