<svg width="24" height="24" viewBox="0 0 24 24" fill="none" xmlns="http://www.w3.org/2000/svg">
<path d="M12.0004 22.5368L15.9717 20.2464L22.1916 5.01622V3.08624L17.5594 5.78116V7.40909L13.8516 15.4045L12.0004 16.6836V22.5368ZM10.146 15.7558L12.0004 14.8401V12.5136L9.22076 6.02897V4.19418L9.20176 4.18331L6.44141 5.78116V7.40909L10.146 15.7558Z" fill="#1565C0"/>
<path d="M14.7793 4.17511V6.02889L11.9999 12.5132V14.6801L10.1462 15.7553L6.44123 7.40901V5.77855L9.22058 4.17774L4.58746 1.46383L1.80811 3.08616V5.07345L8.06367 20.2658L11.9999 22.536V16.8303L13.8511 15.7551L13.8293 15.7415L17.5587 7.40879V5.77822L22.1919 3.08594L19.4125 1.4635L14.782 4.17478L14.7793 4.17511Z" fill="#2979FF"/>
</svg>
