<svg width="24" height="24" viewBox="0 0 24 24" fill="none" xmlns="http://www.w3.org/2000/svg">
<g clip-path="url(#clip0_808_3110)">
<path d="M9.884 21.7058L9.46738 4.02453C8.25388 4.47953 7.306 5.19128 6.62375 6.15978C5.94925 7.12903 5.612 8.33403 5.612 9.77478C5.612 10.1033 5.629 10.3729 5.663 10.5837C5.70475 10.7859 5.74675 10.9502 5.789 11.0764C5.83125 11.1944 5.86938 11.2872 5.90338 11.3547C5.94513 11.4222 5.966 11.4812 5.966 11.5317C5.5195 11.5317 5.12363 11.4897 4.77838 11.4057C4.43263 11.3127 4.14175 11.1693 3.90575 10.9755C3.67825 10.7823 3.50138 10.5254 3.37513 10.2049C3.25688 9.8849 3.19775 9.48903 3.19775 9.01728C3.19775 8.44428 3.31975 7.87978 3.56375 7.32378C3.8165 6.76803 4.15775 6.2414 4.5875 5.7439C5.02575 5.24715 5.53575 4.78803 6.1175 4.36653C6.7075 3.94528 7.33513 3.5829 8.00038 3.2794C8.67413 2.96765 9.37338 2.72765 10.0981 2.5594C10.8311 2.3819 11.56 2.29315 12.2848 2.29315C12.4785 2.29315 12.6555 2.2974 12.8158 2.3059C12.984 2.31415 13.1523 2.32665 13.3205 2.3434L13.5485 18.2678L18.9954 2.41878H20.8025L13.6119 21.7062H9.88325L9.884 21.7058Z" fill="#9575CD"/>
</g>
<defs>
<clipPath id="clip0_808_3110">
<rect width="24" height="24" fill="white"/>
</clipPath>
</defs>
</svg>
