<svg width="24" height="24" viewBox="0 0 24 24" fill="none" xmlns="http://www.w3.org/2000/svg">
<path d="M10.8606 21.7059C10.3176 21.7058 9.87379 21.2723 9.861 20.7294L9.55245 7.63496C9.51085 5.86927 7.64089 4.71588 6.62375 6.15978V6.15978C5.94925 7.12903 5.612 8.33403 5.612 9.77478C5.612 10.1033 5.629 10.3729 5.663 10.5837C5.70475 10.7859 5.74675 10.9502 5.789 11.0764C5.83125 11.1944 5.86938 11.2872 5.90338 11.3547V11.3547C5.9586 11.4439 5.88086 11.532 5.77593 11.529C5.40634 11.5187 5.07382 11.4775 4.77838 11.4057C4.43263 11.3127 4.14175 11.1693 3.90575 10.9755C3.67825 10.7823 3.50138 10.5254 3.37513 10.2049C3.25688 9.8849 3.19775 9.48903 3.19775 9.01728C3.19775 8.44428 3.31975 7.87978 3.56375 7.32378C3.8165 6.76803 4.15775 6.2414 4.5875 5.7439C5.02575 5.24715 5.53575 4.78803 6.1175 4.36653C6.7075 3.94528 7.33513 3.5829 8.00038 3.2794C8.67413 2.96765 9.37338 2.72765 10.0981 2.5594C10.8311 2.3819 11.56 2.29315 12.2848 2.29315C12.4785 2.29315 12.6555 2.2974 12.8158 2.3059V2.3059C13.1038 2.32003 13.3236 2.56118 13.3278 2.84954L13.5075 15.4012C13.5155 15.9616 14.2981 16.0866 14.4803 15.5566L18.8794 2.75627C18.9488 2.55435 19.1387 2.41878 19.3522 2.41878H20.0825C20.4312 2.41878 20.6728 2.76671 20.551 3.09344L13.8545 21.0554C13.7086 21.4467 13.335 21.7061 12.9174 21.7061L10.8606 21.7059Z" fill="#9575CD"/>
</svg>
