<svg width="24" height="25" viewBox="0 0 24 25" fill="none" xmlns="http://www.w3.org/2000/svg">
<path d="M19.1391 13.2801C19.1042 13.2968 19.0692 13.318 19.0343 13.3393C19.0328 13.1176 18.9159 13.0098 18.8339 12.8929C18.4392 12.3282 17.6771 12.5422 17.4524 13.0614C17.4221 13.1328 17.917 13.778 17.8957 13.8478C17.5678 13.9951 17.252 14.3336 17.1883 14.6297C17.2535 14.3245 17.0258 14.1818 16.6812 14.2957C16.3366 14.4095 16.0102 14.7375 15.9631 15.0411C16.0117 14.7375 15.7658 14.572 15.4136 14.657C15.0614 14.742 14.7471 15.0441 14.7152 15.3462C14.7471 15.0441 14.483 14.8544 14.1277 14.9075C13.7725 14.9606 13.4688 15.2369 13.4537 15.5375C13.4673 15.2354 13.188 15.0214 12.8297 15.0411C12.4714 15.0608 12.1815 15.3098 12.1845 15.6119C12.1815 15.3113 11.8869 15.0684 11.5287 15.0563C11.1704 15.0441 10.8941 15.2643 10.9138 15.5664C10.8941 15.2643 10.5844 14.9955 10.2291 14.95C9.87239 14.9045 9.61279 15.0988 9.64922 15.4009C9.61279 15.0988 9.29094 14.8027 8.93874 14.7253C8.58653 14.6479 8.34363 14.8179 8.39676 15.1215C8.34363 14.8194 8.01116 14.4976 7.6635 14.3898C7.31585 14.2835 7.09117 14.4308 7.16252 14.7344C7.09269 14.4308 6.32603 13.148 6.24253 12.9582C6.01785 12.439 5.58518 12.2751 5.21476 12.6121C5.06294 12.7502 4.96882 13.0007 5.04624 13.3696C4.80486 13.3028 4.68493 13.4197 4.77298 13.6763C5.25423 15.0821 5.7294 16.5122 6.12412 17.9498C6.29263 18.5647 6.46722 19.3617 6.96213 19.8202C7.31737 20.1481 7.76066 20.3758 8.18726 20.5595C9.46097 21.106 10.8744 21.273 12.1906 21.2821C13.5994 21.2912 15.3908 20.9512 16.6372 20.2422C17.1093 19.975 17.5587 19.6638 17.7697 19.14C18.1174 18.2717 18.3694 17.3608 18.635 16.4894C18.9372 15.4996 19.1649 14.449 19.5566 13.5245C19.6537 13.2208 19.4685 13.1161 19.1391 13.2801Z" fill="#48A2AD"/>
<path d="M12.1434 17.2712C15.9172 17.2712 18.9765 16.0417 18.9765 14.5249C18.9765 13.0082 15.9172 11.7786 12.1434 11.7786C8.36959 11.7786 5.3103 13.0082 5.3103 14.5249C5.3103 16.0417 8.36959 17.2712 12.1434 17.2712Z" fill="#854D0E"/>
<path d="M17.9459 10.6036C17.8184 10.4745 17.6621 10.3531 17.4753 10.2468C17.4753 10.2468 13.1213 11.6632 10.0911 11.5099C7.06093 11.3566 7.50726 11.0256 5.96787 12.0063C5.96787 12.0063 5.54735 12.6075 6.06048 12.9734C6.7315 13.4516 7.57861 13.8463 8.50771 14.1469C8.62005 14.0649 8.73239 14.0133 8.82804 14.0133C11.717 13.0098 17.3372 14.282 17.9459 10.6036Z" fill="#F472B6"/>
<path d="M17.9457 10.6036C17.337 14.282 11.7168 13.0098 8.82936 14.0133C8.73372 14.0133 8.62138 14.0634 8.50903 14.1469C10.8394 14.8999 13.6904 15.0532 15.5942 14.4202C17.9852 13.6277 19.0646 11.7376 17.9457 10.6036Z" fill="#DB2777"/>
<path opacity="0.5" d="M17.9457 10.6036C17.337 14.282 11.7168 13.0098 8.82936 14.0133C8.73372 14.0133 8.62138 14.0634 8.50903 14.1469C10.8394 14.8999 13.6904 15.0532 15.5942 14.4202C17.9852 13.6277 19.0646 11.7376 17.9457 10.6036Z" fill="#F472B6"/>
<path d="M16.7116 7.89374C16.7116 7.89374 17.536 8.38258 17.536 9.64718C17.536 10.9118 16.4839 12.5514 11.8156 12.0823C7.18838 11.6162 5.99361 12.0109 5.99361 12.0109C5.99361 12.0109 4.57567 10.0859 7.53907 10.0965C10.1912 10.1057 14.1354 10.4184 15.0645 9.82935C16.4475 8.94884 16.4991 8.92455 16.7116 7.89374Z" fill="#F9A8D4"/>
<path d="M11.3222 6.95399C12.7584 6.05677 12.681 4.7527 11.9963 3.64294C11.9219 3.68545 11.8779 3.77502 11.9158 3.86763C12.0661 4.22894 12.1997 4.73903 11.9568 5.08213C11.5454 5.66206 10.7833 5.80932 9.53691 6.50462C8.34821 7.16652 7.89125 7.79807 7.80776 8.59053C7.80017 8.66492 7.84267 8.73627 7.91251 8.77119C8.0461 8.83799 8.30115 8.94729 8.68676 9.04749C9.10576 8.0106 10.3673 7.43068 11.3222 6.95399Z" fill="#F472B6"/>
<path d="M14.4557 5.28555C13.8136 4.59328 13.0545 4.02853 12.1755 3.63382C12.1117 3.60498 12.0464 3.61408 11.9948 3.64293C12.6795 4.75116 12.7569 6.05524 11.3208 6.95397C10.3674 7.43067 9.10583 8.01059 8.6853 9.04747C9.10431 9.15678 9.67816 9.25546 10.4251 9.27823C12.256 9.33288 14.7229 9.23269 15.1419 8.51461C15.5624 7.79805 15.2118 6.10078 14.4557 5.28555Z" fill="#F9A8D4"/>
<path d="M16.5826 7.64625C16.6175 7.5582 16.6433 7.46711 16.6615 7.37602C16.1697 6.62303 15.0189 6.39227 15.0189 6.39227C16.2668 9.049 9.77224 8.47059 7.93227 8.5799C7.14891 8.62696 6.69954 8.97158 6.43994 9.35415C6.82403 9.15375 7.2734 9.04293 7.72428 8.89263C10.63 8.20037 15.3362 11.1076 16.5826 7.64625Z" fill="#F472B6"/>
<path d="M16.8437 7.79201C16.8078 7.64373 16.7462 7.50293 16.6615 7.37604C16.6433 7.46864 16.6175 7.55821 16.5826 7.64626C15.3362 11.1076 10.63 8.20038 7.72273 8.89265C7.27336 9.04294 6.82248 9.15225 6.43839 9.35416C6.0877 9.86881 6.08618 10.4487 6.08618 10.4487C7.97929 9.87488 9.37598 10.4518 13.0149 10.5049C16.6539 10.555 17.1048 8.87899 16.8437 7.79201Z" fill="#DB2777"/>
<path opacity="0.5" d="M16.8437 7.79201C16.8078 7.64373 16.7462 7.50293 16.6615 7.37604C16.6433 7.46864 16.6175 7.55821 16.5826 7.64626C15.3362 11.1076 10.63 8.20038 7.72273 8.89265C7.27336 9.04294 6.82248 9.15225 6.43839 9.35416C6.0877 9.86881 6.08618 10.4487 6.08618 10.4487C7.97929 9.87488 9.37598 10.4518 13.0149 10.5049C16.6539 10.555 17.1048 8.87899 16.8437 7.79201Z" fill="#F472B6"/>
<path d="M19.142 14.3321C18.8095 14.487 18.4618 14.8422 18.3753 15.1383C18.4634 14.8422 18.2584 14.7162 17.9184 14.8422C17.5768 14.9682 17.2367 15.2946 17.1654 15.5846C17.2367 15.2946 17.012 15.1504 16.6644 15.2476C16.3167 15.3447 15.9843 15.6438 15.9311 15.9292C15.9858 15.6438 15.7429 15.4798 15.3907 15.5481C15.0385 15.6165 14.7166 15.8897 14.6802 16.1721C14.7181 15.8897 14.457 15.7045 14.1018 15.744C13.745 15.7835 13.4368 16.0324 13.4171 16.3118C13.4368 16.0324 13.162 15.8244 12.8038 15.8351C12.4455 15.8457 12.151 16.0704 12.1479 16.3497C12.151 16.0704 11.861 15.8396 11.5027 15.8214C11.146 15.8032 10.8651 16.0051 10.8803 16.286C10.8666 16.0051 10.563 15.7516 10.2062 15.7045C9.851 15.6575 9.58684 15.8381 9.61872 16.1205C9.58684 15.8381 9.27259 15.5573 8.92038 15.4829C8.56818 15.4085 8.32376 15.5664 8.37082 15.8533C8.32224 15.5664 7.99736 15.2612 7.65122 15.1565C7.30509 15.0517 7.07889 15.1929 7.14417 15.4844C7.07889 15.1929 6.7449 14.8589 6.40635 14.7268C6.06781 14.5948 5.86134 14.7162 5.94332 15.0138C5.86134 14.7162 5.52128 14.3534 5.19185 14.1925C4.86241 14.0315 4.6772 14.1363 4.77436 14.4414C5.16604 15.3614 5.39528 16.3922 5.69739 17.3456C5.96458 18.1851 6.21659 19.055 6.56576 19.8642C6.77678 20.353 7.22311 20.6111 7.6998 20.8267C9.0646 21.4415 10.6586 21.6009 12.1373 21.6146C13.4733 21.6283 14.8578 21.5114 16.1315 21.0878C16.5596 20.9451 17.0029 20.7675 17.3582 20.4836C17.8546 20.0874 18.0292 19.3298 18.1992 18.7438C18.6046 17.3411 19.0828 15.9732 19.5534 14.5917C19.6566 14.2851 19.4744 14.1773 19.142 14.3321Z" fill="#22D3EE"/>
</svg>
