<svg width="24" height="24" viewBox="0 0 24 24" fill="none" xmlns="http://www.w3.org/2000/svg">
<g clip-path="url(#clip0_808_3119)">
<path d="M12.0001 4.92426C11.0709 4.92424 10.1508 5.10726 9.29229 5.46284C8.43381 5.81843 7.65378 6.33963 6.99674 6.99667C6.33969 7.65372 5.81849 8.43375 5.46291 9.29223C5.10732 10.1507 4.92431 11.0708 4.92432 12C4.92432 12.9292 5.10734 13.8493 5.46293 14.7078C5.81852 15.5662 6.33972 16.3463 6.99676 17.0033C7.65381 17.6603 8.43384 18.1815 9.29231 18.5371C10.1508 18.8927 11.0709 19.0757 12.0001 19.0757C13.8767 19.0757 15.6764 18.3302 17.0033 17.0033C18.3303 15.6763 19.0758 13.8766 19.0758 12C19.0758 11.0708 18.8928 10.1507 18.5372 9.29225C18.1816 8.43378 17.6604 7.65375 17.0034 6.9967C16.3463 6.33966 15.5663 5.81846 14.7078 5.46287C13.8494 5.10728 12.9293 4.92426 12.0001 4.92426ZM12.001 6.93082C13.3451 6.93082 14.6343 7.46479 15.5847 8.41527C16.5352 9.36575 17.0692 10.6549 17.0692 11.9991C17.0692 13.3432 16.5352 14.6324 15.5847 15.5828C14.6343 16.5333 13.3451 17.0673 12.001 17.0673C10.6568 17.0673 9.36765 16.5333 8.41717 15.5828C7.46669 14.6324 6.93272 13.3432 6.93272 11.9991C6.93272 10.6549 7.46669 9.36575 8.41717 8.41527C9.36765 7.46479 10.6568 6.93082 12.001 6.93082Z" fill="#60A5FA"/>
<path d="M3.60063 15.4477L0.977051 18.0713L3.60063 20.6948V19.0752H11.9999V17.0673H3.60063V15.4477ZM5.92702 0.976929L3.30345 3.6005H4.92312V11.9998H6.93099V3.6005H8.55064L5.92702 0.976929ZM20.3991 3.3043V4.92397H11.9999V6.9318H20.3991V8.55147L23.0227 5.9279L20.3991 3.3043ZM17.0656 11.9999V20.3991H15.446L18.0696 23.0227L20.6931 20.3991H19.0735V11.9999H17.0656Z" fill="#60A5FA"/>
</g>
<defs>
<clipPath id="clip0_808_3119">
<rect width="24" height="24" fill="white"/>
</clipPath>
</defs>
</svg>
