<svg width="24" height="24" viewBox="0 0 24 24" fill="none" xmlns="http://www.w3.org/2000/svg">
<path d="M17.2822 17.282H6.71721V6.71703H17.2822M21.5082 10.943V8.83003H19.3952V6.71703C19.3952 5.54403 18.4452 4.60403 17.2822 4.60403H15.1692V2.49103H13.0562V4.60403H10.9432V2.49103H8.83021V4.60403H6.71721C5.54421 4.60403 4.60421 5.54403 4.60421 6.71703V8.83003H2.49121V10.943H4.60421V13.056H2.49121V15.169H4.60421V17.282C4.60421 17.8424 4.82683 18.3799 5.22309 18.7761C5.61936 19.1724 6.15681 19.395 6.71721 19.395H8.83021V21.508H10.9432V19.395H13.0562V21.508H15.1692V19.395H17.2822C17.8426 19.395 18.3801 19.1724 18.7763 18.7761C19.1726 18.3799 19.3952 17.8424 19.3952 17.282V15.169H21.5082V13.056H19.3952V10.943M13.0562 13.056H10.9432V10.943H13.0562M15.1692 8.83003H8.83021V15.169H15.1692V8.83003Z" fill="#FF7043"/>
</svg>
