<svg width="24" height="25" viewBox="0 0 24 25" fill="none" xmlns="http://www.w3.org/2000/svg">
<path fill-rule="evenodd" clip-rule="evenodd" d="M4 6.5H20V18.5H4V6.5ZM2 6.5C2 5.39543 2.89543 4.5 4 4.5H20C21.1046 4.5 22 5.39543 22 6.5V18.5C22 19.6046 21.1046 20.5 20 20.5H4C2.89543 20.5 2 19.6046 2 18.5V6.5ZM9.5 15.1162V9.88455C9.5 9.31499 10.1099 8.95328 10.6097 9.22641L15.3958 11.8419C15.9162 12.1263 15.9163 12.8737 15.3959 13.1582L10.6097 15.7743C10.1099 16.0475 9.5 15.6858 9.5 15.1162Z" fill="#64748B"/>
</svg>
