<svg width="24" height="25" viewBox="0 0 24 25" fill="none" xmlns="http://www.w3.org/2000/svg">
<path d="M6.29992 18.7249L3.3001 16.4749C3.20657 16.4055 3.13067 16.3149 3.07854 16.2107C3.02641 16.1065 2.99951 15.9915 3.00001 15.875V9.125C2.99951 9.00848 3.02641 8.89347 3.07854 8.78927C3.13067 8.68506 3.20657 8.59457 3.3001 8.52509L6.29992 6.27509C6.21933 6.35075 6.15843 6.44495 6.1225 6.5495C6.08658 6.65404 6.07671 6.76577 6.09376 6.87499V18.125C6.07671 18.2343 6.08658 18.346 6.1225 18.4505C6.15843 18.5551 6.21933 18.6492 6.29992 18.7249Z" fill="#7E22CE"/>
<path d="M20.6661 6.62385C20.5425 6.54266 20.3978 6.49962 20.2499 6.5001C20.1541 6.49933 20.059 6.51747 19.9702 6.55347C19.8814 6.58947 19.8006 6.64264 19.7324 6.70991L19.6801 6.76251L16.4923 9.81886L13.6951 12.5L10.3836 15.6762L7.31995 18.6124L7.26737 18.6651C7.19921 18.7324 7.1184 18.7856 7.02959 18.8217C6.94077 18.8577 6.84571 18.8759 6.74986 18.8751C6.58761 18.8748 6.42979 18.8221 6.29987 18.7249L3.30005 16.4749C3.45245 16.5894 3.64276 16.6415 3.83223 16.6206C4.0217 16.5997 4.19608 16.5074 4.31986 16.3624L6.00005 14.4125L7.64987 12.4964L10.3836 9.32385L15.1724 3.76241C15.242 3.68005 15.3287 3.61389 15.4265 3.56856C15.5243 3.52323 15.6309 3.49983 15.7386 3.5C15.8865 3.49953 16.0313 3.54256 16.1549 3.62375L20.6661 6.62385Z" fill="#9333EA"/>
<path d="M20.6661 18.3761L16.1661 21.3763C16.0131 21.4763 15.8291 21.5176 15.6479 21.4928C15.4667 21.468 15.3007 21.3787 15.1801 21.2412L10.3836 15.6762L7.64987 12.4963L6.00005 10.5838L4.31986 8.63365C4.19497 8.49016 4.02043 8.39923 3.83128 8.37908C3.64212 8.35895 3.45235 8.41111 3.30005 8.52509L6.29987 6.27509C6.42979 6.1779 6.58761 6.12522 6.74986 6.1249C6.84571 6.12409 6.94077 6.14224 7.02959 6.1783C7.1184 6.21434 7.19921 6.2676 7.26737 6.335L7.31995 6.38758L10.3836 9.32384L13.6951 12.5L16.4963 15.1851L19.6801 18.2375L19.7324 18.2901C19.8006 18.3574 19.8814 18.4105 19.9702 18.4465C20.059 18.4825 20.1541 18.5007 20.2499 18.4999C20.3978 18.5004 20.5425 18.4573 20.6661 18.3761Z" fill="#A855F7"/>
<path d="M21 7.24988V17.75C21.0001 17.8739 20.9697 17.9957 20.9114 18.1049C20.8532 18.2141 20.7689 18.3073 20.6661 18.3762L16.166 21.3762C16.2689 21.3074 16.3532 21.2141 16.4113 21.1049C16.4696 20.9956 16.5 20.8737 16.4999 20.7499V4.25006C16.4982 4.12535 16.4659 4.00297 16.4057 3.89372C16.3455 3.78448 16.2593 3.69175 16.1548 3.62372L20.6661 6.62381C20.7686 6.69294 20.8527 6.78616 20.9109 6.89531C20.969 7.00444 20.9996 7.12619 21 7.24988Z" fill="#C084FC"/>
<path opacity="0.4" d="M21 7.24988V17.75C21.0001 17.8739 20.9697 17.9957 20.9114 18.1049C20.8532 18.2141 20.7689 18.3073 20.6661 18.3762L16.166 21.3762C16.2689 21.3074 16.3532 21.2141 16.4113 21.1049C16.4696 20.9956 16.5 20.8737 16.4999 20.7499V4.25006C16.4982 4.12535 16.4659 4.00297 16.4057 3.89372C16.3455 3.78448 16.2593 3.69175 16.1548 3.62372L20.6661 6.62381C20.7686 6.69294 20.8527 6.78616 20.9109 6.89531C20.969 7.00444 20.9996 7.12619 21 7.24988Z" fill="#7E22CE"/>
</svg>
