<svg width="24" height="24" viewBox="0 0 24 24" fill="none" xmlns="http://www.w3.org/2000/svg">
<path d="M17.5752 8.32786L12.3188 15.928C12.263 16.0086 12.1824 16.0689 12.0892 16.0999C11.996 16.1309 11.8952 16.1306 11.8021 16.0995C11.7091 16.0682 11.6289 16.0076 11.5736 15.9268C11.5184 15.846 11.4912 15.7494 11.4961 15.6518L11.7064 11.4557L8.31023 10.7355C8.23765 10.7201 8.17002 10.6871 8.11334 10.6395C8.05666 10.5918 8.01266 10.531 7.98525 10.4624C7.95785 10.3937 7.94789 10.3194 7.95623 10.246C7.96458 10.1725 7.99098 10.1023 8.03311 10.0414L13.2895 2.44121C13.3453 2.36059 13.4259 2.30024 13.5191 2.2693C13.6124 2.23836 13.7132 2.23852 13.8062 2.26978C13.8993 2.30102 13.9795 2.36165 14.0347 2.44246C14.09 2.52326 14.1172 2.61983 14.1122 2.71752L13.9019 6.91359L17.2981 7.63379C17.3707 7.64917 17.4383 7.68214 17.495 7.72977C17.5518 7.7774 17.5957 7.83823 17.623 7.90687C17.6505 7.97551 17.6604 8.04984 17.6521 8.12326C17.6438 8.1967 17.6174 8.26696 17.5752 8.32786Z" fill="#FBBF24"/>
<path d="M12.0708 22.304C11.931 22.3041 11.7925 22.2768 11.6633 22.2233C11.5342 22.1697 11.4169 22.0912 11.3181 21.9923L6.35145 17.0259C6.15276 16.8262 6.04139 16.5558 6.04175 16.274C6.04213 15.9923 6.15421 15.722 6.35346 15.5229C6.55269 15.3236 6.82281 15.2115 7.10457 15.211C7.38635 15.2107 7.65677 15.322 7.85656 15.5207L12.0708 19.7345L21.2516 10.5542C21.4518 10.3572 21.7216 10.2474 22.0023 10.2485C22.2832 10.2497 22.5521 10.3617 22.7505 10.5603C22.9491 10.7588 23.0612 11.0277 23.0624 11.3085C23.0634 11.5893 22.9536 11.8591 22.7566 12.0592L12.8232 21.9923C12.7245 22.0914 12.6072 22.1698 12.4781 22.2233C12.349 22.2769 12.2105 22.3041 12.0708 22.304Z" fill="#4ADE80"/>
<path d="M12.0666 22.304C12.2064 22.3041 12.3448 22.2768 12.474 22.2233C12.6032 22.1697 12.7205 22.0912 12.8192 21.9923L17.7859 17.0259C17.9846 16.8262 18.096 16.5558 18.0956 16.274C18.0953 15.9923 17.9831 15.722 17.7839 15.5229C17.5846 15.3236 17.3145 15.2115 17.0327 15.211C16.751 15.2107 16.4806 15.322 16.2807 15.5207L12.0665 19.7345L2.88568 10.5542C2.68553 10.3572 2.41569 10.2474 2.13493 10.2485C1.85416 10.2497 1.58521 10.3617 1.38668 10.5603C1.18815 10.7588 1.07611 11.0277 1.07496 11.3085C1.07381 11.5893 1.18366 11.8591 1.38057 12.0592L11.3141 21.9923C11.4128 22.0914 11.5301 22.1698 11.6592 22.2233C11.7884 22.2769 11.9268 22.3041 12.0666 22.304Z" fill="#4ADE80" fill-opacity="0.50196"/>
</svg>
