<svg width="24" height="25" viewBox="0 0 24 25" fill="none" xmlns="http://www.w3.org/2000/svg">
<path d="M20.0806 6.16759L11.9722 21.2875C11.8048 21.5997 11.3747 21.6015 11.2048 21.2909L2.93567 6.16905C2.75055 5.83052 3.02814 5.42046 3.39602 5.48903L11.513 7.00202C11.5648 7.01167 11.6178 7.01158 11.6696 7.00174L19.6169 5.4912C19.9835 5.42151 20.2624 5.82839 20.0806 6.16759Z" fill="#A855F7"/>
<path d="M15.3798 3.50444L9.37937 4.73053C9.28075 4.75069 9.20773 4.83784 9.20178 4.94244L8.83267 11.4433C8.82399 11.5964 8.95884 11.7153 9.10215 11.6808L10.7727 11.2787C10.9291 11.2411 11.0703 11.3847 11.0382 11.5486L10.5418 14.0831C10.5084 14.2537 10.662 14.3996 10.8218 14.349L11.8536 14.0221C12.0136 13.9714 12.1673 14.1177 12.1334 14.2884L11.3447 18.2696C11.2953 18.5186 11.6129 18.6544 11.7454 18.4409L11.8339 18.2983L16.7234 8.12274C16.8052 7.95236 16.6641 7.75809 16.4846 7.7942L14.765 8.14029C14.6034 8.17278 14.4659 8.01585 14.5115 7.85098L15.6339 3.7936C15.6795 3.62846 15.5416 3.47139 15.3798 3.50444Z" fill="#FBBF24"/>
</svg>
