<svg width="24" height="24" viewBox="0 0 24 24" fill="none" xmlns="http://www.w3.org/2000/svg">
<path d="M14.9586 20.8019L21.2411 3.33131C21.3477 3.03501 21.1797 2.81896 20.8663 2.8492L15.9256 3.32512C15.6122 3.35536 15.2737 3.62128 15.1702 3.91854L9.35514 20.6151C9.25156 20.9124 9.42311 21.1538 9.73794 21.1538H14.5471C14.7046 21.1538 14.8756 21.0335 14.9289 20.8853L14.9586 20.8019Z" fill="#546E7A"/>
<path d="M3.13328 2.84926L8.07392 3.32518C8.38732 3.35542 8.72624 3.62119 8.83026 3.91836L14.7685 20.8842C14.8205 21.0329 14.7349 21.1534 14.5775 21.1534H9.73804C9.42316 21.1534 9.08101 20.913 8.9745 20.6166L2.7586 3.33113C2.65204 3.03482 2.82004 2.81878 3.13343 2.84902L3.13328 2.84926Z" fill="#039BE5"/>
</svg>
