<svg width="24" height="24" viewBox="0 0 24 24" fill="none" xmlns="http://www.w3.org/2000/svg">
<path d="M12 22.7771C17.9378 22.7771 22.7514 17.952 22.7514 12C22.7514 6.04797 17.9378 1.2229 12 1.2229C6.06211 1.2229 1.24854 6.04797 1.24854 12C1.24854 17.952 6.06211 22.7771 12 22.7771Z" fill="white"/>
<path d="M10.9182 22.7456C8.88894 22.5137 7.10225 21.8013 5.47145 20.574C4.17299 19.5967 2.95562 18.0953 2.26705 16.6219L2.04236 16.1411L3.51048 14.6307C4.31791 13.7998 5.08316 13.0235 5.21094 12.9054L5.44334 12.6907L6.15762 13.3417C7.10019 14.2006 7.69008 14.6716 8.50334 15.2145C9.35705 15.7845 9.86716 16.0495 10.5535 16.2797C11.8576 16.7172 12.9591 16.6229 14.3296 15.9566C15.3484 15.4611 16.8667 14.339 18.1112 13.1615L18.6185 12.6815L20.2841 14.3505C21.2001 15.2684 21.9496 16.0597 21.9496 16.1089C21.9496 16.1582 21.8582 16.3903 21.7465 16.6247C20.6952 18.8319 18.9203 20.6248 16.7296 21.692C15.7163 22.1857 14.7904 22.4817 13.6688 22.6706C13.0883 22.7684 11.4971 22.8118 10.9181 22.7456H10.9182ZM11.2782 15.6607C10.2807 15.4426 9.03385 14.7215 7.63048 13.5512C6.88757 12.9317 6.10962 12.1896 6.10962 12.1005C6.10962 12.028 7.06916 11.1209 7.80676 10.4961C8.96836 9.51215 9.91739 8.92188 10.8784 8.5856C11.2369 8.46015 11.3498 8.44566 11.9725 8.44566C12.5949 8.44566 12.7081 8.46015 13.066 8.58542C14.3582 9.03759 15.962 10.141 17.5911 11.6986C17.8103 11.9081 17.9896 12.1007 17.9896 12.1265C17.9896 12.1895 16.7481 13.3155 16.1382 13.8057C15.0295 14.6968 13.75 15.4254 12.9285 15.6333C12.4561 15.7529 11.7533 15.7645 11.2782 15.6607V15.6607ZM13.4194 14.4906C14.2309 14.0791 14.4738 13.9323 14.5497 13.8075C14.6386 13.6613 14.6464 13.5249 14.6464 12.1021C14.6464 10.6753 14.6388 10.5432 14.5489 10.3954C14.4724 10.2694 14.2285 10.1215 13.4048 9.70099C12.3663 9.17082 12.3552 9.16664 11.987 9.16515C11.619 9.16366 11.608 9.16767 10.6756 9.64492C10.0973 9.94094 9.67088 10.1937 9.56814 10.3015L9.40099 10.4767L9.40117 12.0368C9.40134 13.4782 9.40882 13.6093 9.49899 13.7575C9.57334 13.8797 9.79534 14.0211 10.4297 14.3504C11.5812 14.9479 11.7397 15.0112 12.0892 15.0131C12.3646 15.0146 12.4599 14.9772 13.4194 14.4906ZM11.0839 13.781C10.6659 13.5629 10.2888 13.3492 10.2459 13.3061C10.1784 13.2385 10.1728 13.0628 10.2039 12.0078L10.2399 10.7878L11.0335 10.3752C11.4961 10.1347 11.8898 9.9627 11.9775 9.9627C12.1462 9.9627 13.6128 10.679 13.7731 10.8397C13.8691 10.936 13.8753 11.0134 13.8753 12.1272V13.3123L13.6776 13.4373C13.5689 13.5062 13.1989 13.7037 12.8555 13.8762C12.3967 14.1067 12.1798 14.1882 12.0375 14.1838C11.9044 14.1795 11.6063 14.0536 11.0839 13.781ZM1.68562 15.0892C1.60134 14.8678 1.44608 14.1884 1.34465 13.5971C1.20722 12.796 1.21951 11.1148 1.36888 10.272C1.50659 9.49519 1.60979 9.09051 1.68962 9.01422C1.73374 8.97206 2.14545 9.36293 3.28608 10.5298C4.13145 11.3946 4.82334 12.1138 4.82356 12.1282C4.82379 12.1425 4.13088 12.8488 3.28368 13.6977L1.74334 15.241L1.68562 15.0892ZM20.7479 13.6657C19.9382 12.8364 19.2757 12.1376 19.2757 12.1129C19.2757 12.0228 22.2344 9.03358 22.31 9.04727C22.3953 9.06273 22.5008 9.43522 22.6515 10.2536C22.7859 10.9839 22.7853 13.0163 22.6505 13.7517C22.5151 14.4898 22.3443 15.1322 22.2775 15.1545C22.2459 15.165 21.5576 14.4951 20.7479 13.6657ZM3.69991 9.7892C2.16316 8.24828 1.98848 8.05639 2.02254 7.94625C2.09882 7.69949 2.49854 6.88492 2.74054 6.48299C4.38671 3.74894 7.07379 1.91159 10.2502 1.34808C11.1206 1.19365 12.8332 1.17945 13.6423 1.3199C16.0324 1.73483 17.9987 2.74231 19.6372 4.3915C20.5276 5.28774 21.2208 6.26785 21.7498 7.37866C22.1031 8.12043 22.2488 7.86835 20.3539 9.79499C19.4405 10.7237 18.6747 11.491 18.652 11.5001C18.6294 11.5092 18.3266 11.257 17.9792 10.9395C16.1193 9.24007 14.4443 8.1481 13.1154 7.76851C12.6713 7.64163 12.5824 7.6335 11.8554 7.65343C11.1429 7.67291 11.031 7.68935 10.6003 7.83741C9.24168 8.30436 7.76168 9.33286 6.00271 11.0325C5.73128 11.2947 5.48808 11.5093 5.46231 11.5093C5.43654 11.5093 4.64351 10.7353 3.70008 9.78926L3.69991 9.7892Z" fill="#4255E5"/>
</svg>
