<svg width="24" height="24" viewBox="0 0 24 24" fill="none" xmlns="http://www.w3.org/2000/svg">
<path d="M16.6624 14.4294L16.106 16.9325H17.8379L17.1992 14.4294H16.6624Z" fill="#A855F7"/>
<path d="M14.2041 2.37201C14.2058 2.40658 14.2058 2.44121 14.2041 2.47578C14.2041 2.76572 14.1469 3.05283 14.036 3.3207C13.925 3.58857 13.7624 3.83196 13.5574 4.03698C13.1433 4.45104 12.5817 4.68366 11.9962 4.68366C11.7065 4.68342 11.4196 4.62613 11.1521 4.51504C10.8845 4.40396 10.6415 4.24126 10.4368 4.03624C10.2321 3.83122 10.0698 3.5879 9.95913 3.32015C9.84848 3.05241 9.79165 2.76549 9.79188 2.47578C9.7901 2.44121 9.7901 2.40658 9.79188 2.37201L2.37207 2.37201V21.6274H21.6274V2.37201H14.2041ZM11.5614 19.5662L10.6221 14.9268H10.606L9.59328 19.5662H8.30148L6.83791 12.7494H8.11361L8.98674 17.3906H9.00285L10.0549 12.7494H11.2483L12.193 17.4478H12.2109L13.2057 12.7494H14.4581L12.8317 19.5662H11.5614ZM18.5858 19.5662L18.151 18.049H15.8555L15.5209 19.5662H14.2452L15.8948 12.7494H17.9077L19.9134 19.5662H18.5858Z" fill="#A855F7"/>
</svg>
