<svg width="24" height="24" viewBox="0 0 24 24" fill="none" xmlns="http://www.w3.org/2000/svg">
<path d="M23.0901 4.60663C23.0901 4.60663 19.5923 6.65403 19.5069 6.68243C19.4215 6.73923 19.3365 6.79643 19.2795 6.85323C18.9951 7.13743 18.9099 7.53523 18.9951 7.90523C19.0521 8.07563 19.1373 8.27503 19.2795 8.41723C19.4217 8.55923 19.5923 8.64463 19.7913 8.70163C20.1609 8.78683 20.5593 8.70163 20.8437 8.41723C20.9289 8.33183 20.9855 8.24663 21.0139 8.16123L21.0425 8.07583L21.5545 7.13743L23.0901 4.60663ZM15.2697 6.45503C9.78147 6.45503 8.87167 9.07103 8.87167 12.313C8.87167 13.0806 8.98547 13.9054 8.47367 14.7014C7.70567 15.8958 6.68227 15.867 6.42647 15.867C6.08527 15.867 4.83407 15.6684 4.77727 15.2988H4.97607C6.31247 15.2988 7.30767 14.218 7.30767 12.7678V12.2558H6.17047C5.34587 12.2558 4.60647 12.6256 4.12287 13.2798C3.63947 12.6256 2.90027 12.2558 2.07567 12.2558H0.909668V12.7678C0.909668 14.1898 2.04727 15.3268 3.46907 15.3268H3.83867C3.83867 16.1516 4.97607 19.3932 13.3647 19.3932C16.6351 19.3932 21.4977 18.8246 21.4977 12.6538C21.4977 11.488 21.1281 10.4078 20.5595 9.49783C20.3603 9.55463 20.1611 9.61143 19.9335 9.61143C19.698 9.61238 19.4646 9.56669 19.2468 9.477C19.0291 9.38731 18.8312 9.25539 18.6647 9.08885C18.4982 8.92231 18.3663 8.72445 18.2766 8.50668C18.187 8.28891 18.1413 8.05554 18.1423 7.82003C18.1423 7.62103 18.1705 7.42183 18.2273 7.22283C17.3743 6.68243 16.5213 6.45523 15.2699 6.45523L15.2697 6.45503Z" fill="#60A5FA"/>
</svg>
