<svg width="24" height="25" viewBox="0 0 24 25" fill="none" xmlns="http://www.w3.org/2000/svg">
<path fill-rule="evenodd" clip-rule="evenodd" d="M11.8993 16.1212C11.8993 16.4419 12.232 16.6424 12.4982 16.482L15.1042 14.912C15.2277 14.8376 15.3038 14.7 15.3038 14.5512V11.4112C15.3038 11.0905 14.9711 10.89 14.7049 11.0504L12.0989 12.6204C11.9753 12.6948 11.8993 12.8323 11.8993 12.9812V16.1212ZM14.3055 10.3287C14.5718 10.1683 14.5718 9.76738 14.3055 9.607L11.6996 8.03702C11.576 7.96259 11.4238 7.96259 11.3003 8.03702L8.65125 9.63294C8.38505 9.79332 8.38505 10.1943 8.65125 10.3546L11.2573 11.9246C11.3808 11.999 11.533 11.999 11.6565 11.9246L14.3055 10.3287ZM8.295 11.1023C8.0288 10.9419 7.69604 11.1423 7.69604 11.4631V14.5512C7.69604 14.7 7.77216 14.8376 7.89569 14.912L10.5017 16.482C10.7678 16.6424 11.1007 16.4419 11.1007 16.1212V13.0331C11.1007 12.8842 11.0245 12.7467 10.901 12.6722L8.295 11.1023Z" fill="#2563EB"/>
<path d="M5.28169 8.27269L6.47334 8.99061C6.59689 9.06504 6.7491 9.06504 6.87265 8.99061L10.901 6.56371C11.0246 6.48928 11.1007 6.35173 11.1007 6.20287V4.76702C11.1007 4.44627 10.768 4.2458 10.5017 4.40617L5.28169 7.551C5.01548 7.71138 5.01548 8.11232 5.28169 8.27269Z" fill="#93C5FD"/>
<path d="M11.8994 4.76702V6.20286C11.8994 6.35172 11.9755 6.48927 12.099 6.5637L16.1275 8.99061C16.251 9.06504 16.4032 9.06504 16.5267 8.99061L17.7184 8.27269C17.9846 8.11232 17.9846 7.71138 17.7184 7.551L12.4984 4.40617C12.2321 4.2458 11.8994 4.44627 11.8994 4.76702Z" fill="#93C5FD"/>
<path d="M16.7263 10.0731V14.9269C16.7263 15.0758 16.8024 15.2134 16.9259 15.2878L18.1176 16.0057C18.3839 16.1661 18.7166 15.9656 18.7166 15.6449V9.35516C18.7166 9.03441 18.3839 8.83394 18.1176 8.99431L16.9259 9.71224C16.8024 9.78667 16.7263 9.92422 16.7263 10.0731Z" fill="#93C5FD"/>
<path d="M16.1275 16.0095L12.099 18.4364C11.9755 18.5108 11.8994 18.6484 11.8994 18.7972V20.2331C11.8994 20.5538 12.2321 20.7543 12.4984 20.5939L17.7184 17.4491C17.9846 17.2887 17.9846 16.8878 17.7184 16.7274L16.5267 16.0095C16.4032 15.935 16.251 15.935 16.1275 16.0095Z" fill="#93C5FD"/>
<path d="M10.901 18.4363L6.87266 16.0094C6.74911 15.935 6.59689 15.935 6.47335 16.0094L5.28168 16.7274C5.01548 16.8877 5.01548 17.2887 5.28168 17.4491L10.5017 20.5939C10.768 20.7543 11.1007 20.5538 11.1007 20.233V18.7972C11.1007 18.6483 11.0246 18.5108 10.901 18.4363Z" fill="#93C5FD"/>
<path d="M6.27372 14.9268V10.0731C6.27372 9.92421 6.19761 9.78666 6.07407 9.71223L4.88241 8.99431C4.6162 8.83393 4.28345 9.0344 4.28345 9.35515V15.6447C4.28345 15.9655 4.6162 16.166 4.88241 16.0056L6.07407 15.2877C6.19761 15.2132 6.27372 15.0757 6.27372 14.9268Z" fill="#93C5FD"/>
</svg>
