<svg width="24" height="24" viewBox="0 0 24 24" fill="none" xmlns="http://www.w3.org/2000/svg">
<path fill-rule="evenodd" clip-rule="evenodd" d="M17.9639 12.8668L18.7575 14.9635L20.1419 12.8668H17.9639ZM17.8195 8.33338V12.2106H20.1687L17.8195 8.33338ZM17.0767 10.5226V7.39068H15.8916L17.0767 10.5226ZM14.4922 3.69403L15.6429 6.73403H16.8505L14.8907 3.49965L14.594 3.644L14.4922 3.69347L14.4922 3.69403ZM12.8744 20.5794H14.6359L13.9714 19.4965L13.7511 19.7077C13.4717 20.0081 13.1792 20.299 12.8744 20.5794ZM12.0119 19.592L12.042 13.2759C11.7743 13.4154 11.513 13.5643 11.2588 13.7222C11.2889 14.5022 11.4304 17.1581 12.0117 19.5919L12.0119 19.592ZM10.0021 14.5894C10.0289 15.0889 10.1969 16.8821 11.2417 18.8346C10.8648 16.9226 10.728 15.0289 10.6801 14.0981C10.4487 14.256 10.2226 14.4198 10.0021 14.5894ZM9.35904 20.5794H11.1924L11.0523 20.4341C10.7081 20.1094 10.3808 19.7711 10.0712 19.4202L9.35904 20.5791L9.35904 20.5794ZM8.77282 15.6739C8.83888 16.0262 9.35453 17.3545 10.6359 18.9358C9.7921 17.3174 9.5244 15.8361 9.44055 15.0467C9.20772 15.2471 8.98508 15.4564 8.77282 15.6739ZM9.69924 12.4173V13.9195C9.99713 13.692 10.3083 13.4784 10.6314 13.2797C11.4534 12.7415 11.7878 12.631 11.9989 12.619H11.9976V12.4173L9.69924 12.4173ZM3.85332 12.8669L5.33335 15.1078L6.35201 12.8669H3.85332ZM6.53028 9.30888L3.9678 12.2103H6.53028V9.30888ZM7.27351 8.46808V10.8408L9.07572 6.87544L8.83483 6.69997L7.27308 8.46812L7.27351 8.46808ZM19.2476 15.5243H20.7398L21.1114 15.8528V20.9075L20.7398 21.2364H3.25512L2.88403 20.9083V15.8531L3.25512 15.5246H4.74802L2.88555 12.7052L2.91321 12.3372L8.48385 6.03085L8.98985 5.98138L8.99907 5.97017L11.5018 7.63011L11.0563 8.15573L9.70301 7.25774L5.80781 15.8268L8.72261 20.2391L9.58553 18.8347C8.12374 16.9571 8.01735 15.6641 8.01197 15.5912L8.09906 15.3601C8.37145 15.0737 8.65734 14.7976 8.95598 14.5324V12.0894L9.32791 11.7609H14.6672L15.0387 12.0894V14.4563C15.369 14.7446 15.684 15.0464 15.9825 15.3607L16.0691 15.5914C16.0646 15.6654 15.9555 16.986 14.4475 18.8969L15.2727 20.2394L18.2593 15.7183L13.8315 4.01668L12.617 4.60935L12.2586 4.03426L14.8605 2.76447L15.3675 2.89722L21.1165 12.3844" fill="#60A5FA"/>
</svg>
