<svg width="24" height="24" viewBox="0 0 24 24" fill="none" xmlns="http://www.w3.org/2000/svg">
<path d="M12.6381 5.28043C12.6381 3.27097 11.0033 1.63635 8.99388 1.63635C6.87621 1.63635 5.6101 3.22417 5.6101 4.75984H7.69243C7.69243 4.32784 8.09639 3.71868 8.99388 3.71868C9.85493 3.71868 10.5556 4.41937 10.5556 5.28043C10.5556 6.14148 9.92715 6.84217 8.34217 6.84217H2.67261V8.92472H8.34217C11.0172 8.92472 12.6381 7.28999 12.6381 5.28043ZM12.6381 5.28043C12.6381 3.27097 11.0033 1.63635 8.99388 1.63635C6.87621 1.63635 5.6101 3.22417 5.6101 4.75984H7.69243C7.69243 4.32784 8.09639 3.71868 8.99388 3.71868C9.85493 3.71868 10.5556 4.41937 10.5556 5.28043C10.5556 6.14148 9.92715 6.84217 8.34217 6.84217H2.67261V8.92472H8.34217C11.0172 8.92472 12.6381 7.28999 12.6381 5.28043ZM17.2577 18.7196C17.2577 20.729 15.623 22.3636 13.6136 22.3636C11.4959 22.3636 10.2298 20.7758 10.2298 19.2401H12.3121C12.3121 19.6721 12.7161 20.2813 13.6136 20.2813C14.4746 20.2813 15.1753 19.5806 15.1753 18.7196C15.1753 17.8585 14.3835 17.1577 12.9618 17.1577H6.67046V15.0754H12.9618C15.6369 15.0754 17.2577 16.71 17.2577 18.7196ZM17.2577 18.7196C17.2577 20.729 15.623 22.3636 13.6136 22.3636C11.4959 22.3636 10.2298 20.7758 10.2298 19.2401H12.3121C12.3121 19.6721 12.7161 20.2813 13.6136 20.2813C14.4746 20.2813 15.1753 19.5806 15.1753 18.7196C15.1753 17.8585 14.3835 17.1577 12.9618 17.1577H6.67046V15.0754H12.9618C15.6369 15.0754 17.2577 16.71 17.2577 18.7196Z" fill="#60A5FA"/>
<path d="M17.8035 4.84912C15.5067 4.84912 13.8865 6.59578 13.8865 8.89258H15.7308C15.7308 7.75094 16.5599 6.92185 17.8035 6.92185C19.0472 6.92185 19.669 7.75094 19.669 8.89258C19.669 10.0343 18.8614 10.975 16.6635 10.975H2.67261V13.0573H16.9744C20.2292 13.0573 21.7417 10.9653 21.7417 8.89258C21.7417 6.59578 20.1872 4.84912 17.8035 4.84912ZM5.40239 15.0754H2.67261V17.1753H5.40239V15.0754Z" fill="#60A5FA"/>
</svg>
