<svg width="24" height="24" viewBox="0 0 24 24" fill="none" xmlns="http://www.w3.org/2000/svg">
<path d="M12.0145 22.0866C17.5895 22.0866 22.1089 17.5672 22.1089 11.9923C22.1089 6.41729 17.5895 1.89789 12.0145 1.89789C6.43957 1.89789 1.92017 6.41729 1.92017 11.9923C1.92017 17.5672 6.43957 22.0866 12.0145 22.0866Z" fill="#212121"/>
<path fill-rule="evenodd" clip-rule="evenodd" d="M22.1154 11.9779C22.116 13.6918 21.681 15.3776 20.8511 16.8772C20.0212 18.3767 18.8238 19.6406 17.3712 20.5502C17.37 20.5514 17.3684 20.5522 17.3667 20.5525L13.8977 16.2296L16.7716 16.5461C16.7716 16.5461 18.1516 16.6889 18.466 16.5461C18.7536 16.4324 20.3052 14.2476 20.3052 14.2476C20.3052 14.2476 15.8508 11.4319 14.3281 9.88016C14.5021 7.26506 14.1275 3.78706 14.1275 3.81603C13.0061 4.93528 12.8633 5.10909 11.742 6.1435C11.2537 4.56292 11.0241 4.01675 10.5359 2.43605C9.06881 3.64209 7.94968 5.68436 7.14485 8.06989C6.96535 8.26846 6.79429 8.4745 6.63213 8.68746C6.52129 8.83309 6.41347 8.981 6.30874 9.13109C6.08811 9.44557 5.88062 9.76907 5.68681 10.1008C5.54441 10.3425 5.40689 10.5871 5.27433 10.8343C4.34017 12.589 3.57327 14.6 2.90892 16.4102C2.90432 16.4033 2.90058 16.3958 2.89777 16.3879C1.08095 12.6411 1.74603 8.16371 4.57314 5.10655C7.40036 2.04927 11.812 1.03704 15.6893 2.55568C19.5666 4.07445 22.1169 7.81402 22.1155 11.9781L22.1154 11.9779Z" fill="#E53935"/>
<path fill-rule="evenodd" clip-rule="evenodd" d="M12.2877 8.38406C12.2877 8.38406 12.1161 7.37862 12.0001 7.00627C12.7759 6.25719 12.8918 6.14349 13.6388 5.42557C13.6966 6.8613 13.6677 7.60819 13.5808 9.36271C13.1505 8.93023 12.2877 8.38406 12.2877 8.38406ZM8.92568 13.3268C8.92568 13.3268 8.12085 12.8385 7.51674 12.7538C7.69067 12.3502 8.14994 11.833 8.26581 11.6903C8.03394 11.7752 6.36864 12.5219 6.1947 13.155C6.66625 13.2709 7.12773 13.4246 7.57468 13.6144C6.97408 14.298 6.60227 15.1523 6.5113 16.0577C6.5113 16.0577 9.15537 15.6542 11.1396 15.9129C11.1739 15.9333 11.2133 15.9432 11.2533 15.9419L12.2877 15.9708L15.5737 21.4419L15.6006 21.4843C15.5961 21.4865 15.5938 21.4887 15.5916 21.4887C9.39379 23.7292 4.91484 19.6048 3.9585 18.1624C3.9625 18.1501 3.96553 18.1375 3.96747 18.1246C4.82806 14.4861 5.88925 10.132 7.60364 8.84575C8.49539 7.29184 8.75393 4.99333 10.3614 3.78717C10.7649 4.99321 11.3981 7.49474 11.8284 8.70078C13.7257 10.5981 16.5992 12.9545 18.5233 13.931C18.7239 14.0469 18.9826 14.8517 18.9826 14.8517L18.2067 15.8282L9.93112 14.9944C9.74647 14.9791 9.56126 14.9717 9.37598 14.9721C8.80097 14.9801 8.22758 15.0353 7.66158 15.137C8.06279 14.1316 8.92568 13.3268 8.92568 13.3268ZM11.5987 12.2633C12.058 12.2075 12.5462 12.3793 13.0924 12.6959C13.6096 12.5509 13.6675 12.5219 14.1849 12.3793C13.5227 11.891 12.8049 11.3738 11.8283 11.5165C11.7348 11.7599 11.6582 12.0094 11.5987 12.2633Z" fill="white"/>
</svg>
