<svg width="24" height="25" viewBox="0 0 24 25" fill="none" xmlns="http://www.w3.org/2000/svg">
<path fill-rule="evenodd" clip-rule="evenodd" d="M5.48572 21.0942C5.31748 21.0736 5.14924 20.9858 4.98101 20.898C4.9059 20.8588 4.8418 20.8158 4.78869 20.769C4.56982 20.576 4.53777 20.318 4.69253 19.995C4.69253 19.9448 4.71657 19.8946 4.74061 19.8445C4.76465 19.7943 4.78869 19.7441 4.78869 19.694C4.40406 19.694 4.21175 19.4933 4.11559 19.1923C3.63481 17.8879 3.73096 16.8845 4.69253 15.8811C4.7183 15.8273 4.74406 15.7808 4.76798 15.7376C4.83332 15.6195 4.88485 15.5263 4.88485 15.3794C4.88485 14.075 5.07716 12.871 5.94258 11.7673C6.23105 11.3659 6.61568 10.9646 7.09646 10.6636C7.28878 10.5632 7.28878 10.4629 7.19262 10.2622C6.80799 9.76051 6.61568 9.25882 6.51952 8.65679C6.44259 8.25544 6.61183 7.85409 6.78107 7.45274C6.82338 7.3524 6.86568 7.25206 6.90415 7.15172C7.00031 7.05139 7.09646 6.95105 7.19262 6.95105C7.47483 6.87743 7.70527 6.69578 7.92193 6.52499C8.00056 6.46301 8.07738 6.40246 8.15419 6.34902C8.82729 5.64666 9.59655 5.34564 10.5581 5.34564C10.7447 5.34564 10.8408 5.25122 10.8463 5.15396C10.8465 5.15097 10.8466 5.14797 10.8466 5.14497C10.8557 5.10674 10.8658 5.06852 10.8767 5.0303C10.9278 4.85097 10.9982 4.67164 11.0877 4.49231C11.1575 4.35257 11.2389 4.21283 11.332 4.07308C11.3614 4.02903 11.3919 3.98497 11.4235 3.94091L11.712 3.6399C11.8593 3.48622 12.0629 3.45023 12.1934 3.57698C12.1957 3.57922 12.198 3.5815 12.2003 3.58384C12.2371 3.62203 12.2677 3.6738 12.2889 3.74024C12.4861 4.08308 12.6383 4.42592 12.7763 4.73674C12.7801 4.74531 12.7839 4.75385 12.7877 4.76236C12.8475 4.89703 12.9048 5.02545 12.962 5.14497C12.9629 5.1468 12.9638 5.14861 12.9647 5.15041C12.9659 5.15281 12.967 5.15518 12.9682 5.15752C13.0623 5.3456 13.1564 5.34351 13.2505 5.2453C13.5919 5.09263 13.7602 5.01739 13.8682 5.07196C13.9731 5.12498 14.0212 5.30054 14.1159 5.64666C14.1639 5.85692 14.2042 6.06619 14.2368 6.27446C14.2703 6.48908 14.2957 6.70264 14.3126 6.91514C14.4443 8.56287 14.0744 10.1468 13.1544 11.6669C13.1063 11.7673 13.0342 11.8676 12.962 11.9679C12.8899 12.0683 12.8178 12.1686 12.7697 12.269C12.6736 12.4696 12.6736 12.57 12.8659 12.7706C13.7313 13.5733 14.3082 14.6771 14.5006 15.8811C14.5224 16.0404 14.5392 16.2049 14.5511 16.3722C14.5529 16.3964 14.5545 16.4208 14.556 16.4451C14.5785 16.805 14.5782 17.1763 14.5553 17.5359C14.5532 17.5694 14.5508 17.6028 14.5483 17.636C14.5366 17.79 14.5207 17.9415 14.5006 18.0886C14.4766 18.1884 14.4646 18.2634 14.4645 18.3182C14.4642 18.4837 14.5723 18.4649 14.789 18.3896C14.9172 18.3513 15.0455 18.3095 15.173 18.264C15.2215 18.2467 15.27 18.2288 15.3183 18.2104C15.5455 18.124 15.7698 18.026 15.9873 17.9162C16.0025 17.9085 16.0177 17.9008 16.0329 17.893C16.1202 17.8481 16.2064 17.8013 16.2911 17.7526C16.3512 17.7181 16.4106 17.6827 16.4691 17.6463C16.5518 17.5949 16.6329 17.5417 16.7122 17.4865C16.7947 17.4373 16.8757 17.3881 16.9559 17.3395C17.3653 17.091 17.7508 16.8571 18.1833 16.7114C18.3569 16.6529 18.5381 16.6087 18.7315 16.5835C18.8315 16.5835 18.9199 16.5714 19.0048 16.5598C19.028 16.5567 19.0508 16.5536 19.0736 16.5507C19.1296 16.5438 19.185 16.5386 19.2422 16.5389C19.3226 16.5394 19.4065 16.5507 19.5007 16.5835C19.7892 16.6838 19.9815 16.9848 19.9815 17.2859C19.9815 17.5869 19.7892 17.7875 19.5007 17.8879C19.3467 17.92 19.1952 17.9599 19.0461 18.0066C18.9996 18.0212 18.9534 18.0365 18.9074 18.0523C18.8484 18.0728 18.7897 18.0942 18.7315 18.1167C18.6428 18.1509 18.555 18.1875 18.4681 18.2262C18.1386 18.3731 17.8223 18.551 17.5192 18.7497C17.4909 18.7683 17.4627 18.787 17.4347 18.8059C17.2531 18.9282 17.0764 19.0577 16.9045 19.1923C16.4185 19.5472 15.8835 19.8509 15.3365 20.1034C15.3134 20.1141 15.2902 20.1247 15.267 20.1352C15.0153 20.2491 14.7615 20.3523 14.5091 20.4446C14.2469 20.5405 13.9863 20.6248 13.7313 20.6973C13.6351 20.6973 13.4428 20.7977 13.3467 20.898C13.0459 21.1334 12.7451 21.1847 12.3984 21.2439C12.3017 21.2604 12.2015 21.2775 12.0966 21.2994C12.0148 21.3071 11.9335 21.3149 11.8527 21.3226C10.8895 21.4146 9.99548 21.5 9.0196 21.5C8.95157 21.5 8.88354 21.5 8.81425 21.4987C8.78762 21.5214 8.76154 21.5414 8.73658 21.5587L8.73111 21.5502C8.74074 21.5326 8.75021 21.515 8.75951 21.4974C8.73845 21.4968 8.71725 21.496 8.69587 21.495C8.50546 21.4864 8.30092 21.4631 8.05803 21.3997C7.98204 21.3733 7.90605 21.3399 7.83358 21.2995C7.77755 21.2683 7.72361 21.233 7.6734 21.1934C7.60036 21.1359 7.53521 21.0696 7.48294 20.9945C7.4412 20.9345 7.40769 20.8689 7.38493 20.7977C7.31625 20.511 7.34569 20.2755 7.47324 20.0912C7.48058 20.0806 7.48824 20.0702 7.49623 20.0599C7.54378 19.9988 7.60284 19.9437 7.6734 19.8946C7.77417 19.8946 7.84854 19.8671 7.91034 19.8409C7.91763 19.8378 7.92475 19.8347 7.93171 19.8317C7.97837 19.8115 8.0182 19.7943 8.05803 19.7943C7.91725 19.7208 7.828 19.6474 7.75255 19.5346C7.72494 19.4933 7.69917 19.4467 7.6734 19.3929C7.57725 19.2926 7.57725 19.2926 7.48109 19.3929C7.46126 19.4343 7.44552 19.4757 7.43219 19.5171C7.43197 19.5178 7.43175 19.5185 7.43152 19.5191C7.41286 19.5774 7.39889 19.6357 7.38493 19.694C7.36089 19.7943 7.33685 19.8946 7.28878 19.995C7.1513 20.4732 6.97014 20.7918 6.71407 20.9727C6.6804 20.9965 6.64542 21.0179 6.60909 21.0369C6.57712 21.0537 6.54409 21.0687 6.50996 21.0819C6.36438 21.1382 6.19869 21.1622 6.00913 21.1566C5.87175 21.1525 5.72183 21.1329 5.55795 21.0987C5.53387 21.0987 5.5098 21.0971 5.48572 21.0942ZM5.31173 23.0852C4.73829 23.0236 4.27264 22.7683 4.14784 22.6999C4.13742 22.6942 4.12938 22.6898 4.12385 22.6869C3.66728 22.4487 3.06763 21.9854 2.80211 21.1542C2.7444 20.9736 2.70931 20.7969 2.69208 20.6262C2.50992 20.3691 2.39159 20.1051 2.31404 19.8757C2.0118 19.0448 1.81524 18.1035 1.97141 17.1025C2.10493 16.2467 2.46968 15.5121 2.97719 14.8772C3.02898 13.4929 3.32655 11.9628 4.43376 10.5334C4.56494 10.3533 4.71194 10.1704 4.87532 9.99015C4.76629 9.67203 4.68792 9.3465 4.63313 9.01157C4.49969 8.26634 4.66501 7.6299 4.7946 7.24356C4.8623 7.0417 4.93847 6.85742 4.99343 6.72635C5.00839 6.69066 5.02173 6.65899 5.03381 6.63032C5.0732 6.53682 5.0992 6.47511 5.12457 6.40894C5.22097 6.15746 5.36532 5.92903 5.54886 5.73751C5.55049 5.73581 5.55276 5.73341 5.55562 5.73039C5.59307 5.69085 5.7327 5.54342 5.89838 5.41376C6.00813 5.32787 6.2644 5.13843 6.63597 5.03047C6.67026 5.00503 6.71028 4.97355 6.78135 4.91756L6.7852 4.91452C6.82278 4.8849 6.87278 4.84551 6.93015 4.80207C7.67827 4.06907 8.52395 3.63636 9.44783 3.45167C9.57891 3.20386 9.72776 2.96692 9.8902 2.74091C9.94462 2.6652 10.0041 2.59362 10.0682 2.5267L10.3567 2.22568C10.7641 1.80064 11.4334 1.4197 12.2482 1.51417C13.0829 1.61094 13.6966 2.16209 14.0028 2.83672C14.0469 2.91709 14.0904 2.99994 14.133 3.08344C14.2947 3.11103 14.4663 3.16063 14.642 3.24209C15.4021 3.59461 15.6854 4.2805 15.7635 4.47608C15.8467 4.68444 15.9124 4.92617 15.9492 5.06175C15.9527 5.07456 15.9559 5.08642 15.9589 5.09721C15.9667 5.12578 15.9739 5.15452 15.9805 5.18342C16.5405 7.63787 16.2526 10.0394 15.0349 12.2819C15.7014 13.1904 16.1566 14.2556 16.3626 15.3855C16.9021 15.072 17.6333 14.7112 18.4937 14.5989C18.5635 14.5898 18.6336 14.5848 18.7038 14.5837C18.7046 14.5836 18.7054 14.5835 18.7062 14.5834C18.719 14.5818 18.7293 14.5804 18.7484 14.5778C18.7567 14.5767 18.7666 14.5753 18.7792 14.5736C18.813 14.569 18.8661 14.562 18.9254 14.5558C19.2016 14.527 19.6169 14.5157 20.1068 14.6861C21.2188 15.0729 21.8982 16.1698 21.8982 17.2859C21.8982 18.737 20.8781 19.517 20.1068 19.7852C20.0314 19.8115 19.9546 19.8328 19.8766 19.849C19.2961 19.9702 18.6939 20.2918 18.0545 20.7923C18.0377 20.8054 18.0208 20.8182 18.0036 20.8307C16.8671 21.6609 15.5595 22.2342 14.3794 22.585C13.6358 23.1084 12.7414 23.2249 12.5199 23.2538C12.4957 23.2569 12.4796 23.2591 12.4725 23.2605C12.4056 23.2745 12.3381 23.2847 12.2702 23.2912C12.1856 23.2992 12.1009 23.3073 12.0159 23.3154C11.0656 23.4064 10.0872 23.5 9.0196 23.5L8.99733 23.5C8.69034 23.5001 8.20771 23.5003 7.59317 23.34C7.54558 23.3276 7.49847 23.3133 7.45193 23.2971C7.29888 23.2438 7.10782 23.1635 6.90447 23.0475C6.32892 23.2062 5.76817 23.1686 5.31173 23.0852ZM8.67333 21.6759C8.67542 21.675 8.67499 21.6752 8.6725 21.6763L8.67333 21.6759ZM14.6661 4.22882C14.6698 4.2367 14.6732 4.24395 14.6764 4.25054L14.6763 4.25042C14.6759 4.24937 14.6725 4.24181 14.6661 4.22882ZM6.5839 5.06676C6.58392 5.06674 6.58481 5.06618 6.58654 5.06518C6.58476 5.06629 6.58389 5.06679 6.5839 5.06676ZM6.22744 8.88094C6.23138 8.87885 6.23534 8.87676 6.2393 8.8747L6.23804 8.87535C6.23556 8.87665 6.23199 8.87851 6.22744 8.88094Z" fill="#60A5FA"/>
</svg>
